%TF.GenerationSoftware,KiCad,Pcbnew,10.0.3*%
%TF.CreationDate,2026-09-17T12:35:28+08:00*%
%TF.ProjectId,Charger,43686172-6765-4722-9e6b-696361645f70,0.1.1 beta*%
%TF.SameCoordinates,Original*%
%TF.FileFunction,Soldermask,Top*%
%TF.FilePolarity,Negative*%
%FSLAX46Y46*%
G04 Gerber Fmt 4.6, Leading zero omitted, Abs format (unit mm)*
G04 Created by KiCad (PCBNEW 10.0.3) date 2026-09-17 12:35:28*
%MOMM*%
%LPD*%
G01*
G04 APERTURE LIST*
G04 Aperture macros list*
%AMRoundRect*
0 Rectangle with rounded corners*
0 $1 Rounding radius*
0 $2 $3 $4 $5 $6 $7 $8 $9 X,Y pos of 4 corners*
0 Add a 4 corners polygon primitive as box body*
4,1,4,$2,$3,$4,$5,$6,$7,$8,$9,$2,$3,0*
0 Add four circle primitives for the rounded corners*
1,1,$1+$1,$2,$3*
1,1,$1+$1,$4,$5*
1,1,$1+$1,$6,$7*
1,1,$1+$1,$8,$9*
0 Add four rect primitives between the rounded corners*
20,1,$1+$1,$2,$3,$4,$5,0*
20,1,$1+$1,$4,$5,$6,$7,0*
20,1,$1+$1,$6,$7,$8,$9,0*
20,1,$1+$1,$8,$9,$2,$3,0*%
G04 Aperture macros list end*
%ADD10R,1.700000X1.700000*%
%ADD11C,1.700000*%
%ADD12RoundRect,0.150000X-0.150000X1.350000X-0.150000X-1.350000X0.150000X-1.350000X0.150000X1.350000X0*%
%ADD13RoundRect,0.150000X-0.150000X1.337500X-0.150000X-1.337500X0.150000X-1.337500X0.150000X1.337500X0*%
%ADD14C,2.400000*%
%ADD15R,5.500000X2.500000*%
%ADD16RoundRect,0.278125X0.474375X0.389375X-0.474375X0.389375X-0.474375X-0.389375X0.474375X-0.389375X0*%
%ADD17RoundRect,0.150000X0.750000X0.150000X-0.750000X0.150000X-0.750000X-0.150000X0.750000X-0.150000X0*%
%ADD18RoundRect,0.278125X0.389375X-0.474375X0.389375X0.474375X-0.389375X0.474375X-0.389375X-0.474375X0*%
%ADD19C,4.300000*%
%ADD20RoundRect,0.305575X-0.460025X-0.412525X0.460025X-0.412525X0.460025X0.412525X-0.460025X0.412525X0*%
%ADD21RoundRect,0.308511X-0.457089X-0.416489X0.457089X-0.416489X0.457089X0.416489X-0.457089X0.416489X0*%
%ADD22C,1.270000*%
%ADD23RoundRect,0.250001X0.759999X-0.499999X0.759999X0.499999X-0.759999X0.499999X-0.759999X-0.499999X0*%
%ADD24O,2.020000X1.500000*%
%ADD25RoundRect,0.305575X0.412525X-0.460025X0.412525X0.460025X-0.412525X0.460025X-0.412525X-0.460025X0*%
%ADD26RoundRect,0.308511X0.416489X-0.457089X0.416489X0.457089X-0.416489X0.457089X-0.416489X-0.457089X0*%
%ADD27R,2.400000X1.500000*%
%ADD28RoundRect,0.278125X-0.389375X0.474375X-0.389375X-0.474375X0.389375X-0.474375X0.389375X0.474375X0*%
%ADD29RoundRect,0.305575X-0.412525X0.460025X-0.412525X-0.460025X0.412525X-0.460025X0.412525X0.460025X0*%
%ADD30RoundRect,0.308511X-0.416489X0.457089X-0.416489X-0.457089X0.416489X-0.457089X0.416489X0.457089X0*%
%ADD31RoundRect,0.102000X-0.736600X-0.177800X0.736600X-0.177800X0.736600X0.177800X-0.736600X0.177800X0*%
%ADD32C,3.000000*%
%ADD33RoundRect,0.250001X-0.759999X0.499999X-0.759999X-0.499999X0.759999X-0.499999X0.759999X0.499999X0*%
%ADD34RoundRect,0.390352X-0.934648X0.722148X-0.934648X-0.722148X0.934648X-0.722148X0.934648X0.722148X0*%
%ADD35RoundRect,0.278125X-0.474375X-0.389375X0.474375X-0.389375X0.474375X0.389375X-0.474375X0.389375X0*%
%ADD36R,0.800000X3.310000*%
%ADD37R,0.799998X3.240000*%
%ADD38R,0.800000X3.240000*%
%ADD39RoundRect,0.250001X-0.499999X-0.759999X0.499999X-0.759999X0.499999X0.759999X-0.499999X0.759999X0*%
%ADD40O,1.500000X2.020000*%
%ADD41RoundRect,0.396226X-0.953774X0.653774X-0.953774X-0.653774X0.953774X-0.653774X0.953774X0.653774X0*%
%ADD42R,0.550000X2.000000*%
%ADD43R,2.000000X0.550000*%
%ADD44R,2.000000X0.525000*%
%ADD45R,2.000000X0.575000*%
%ADD46R,0.525000X2.000000*%
%ADD47RoundRect,0.120600X0.281400X-1.111400X0.281400X1.111400X-0.281400X1.111400X-0.281400X-1.111400X0*%
%ADD48RoundRect,0.122100X0.284900X-1.109900X0.284900X1.109900X-0.284900X1.109900X-0.284900X-1.109900X0*%
%ADD49RoundRect,0.293478X-0.406522X0.381522X-0.406522X-0.381522X0.406522X-0.381522X0.406522X0.381522X0*%
%ADD50RoundRect,0.250001X0.499999X0.759999X-0.499999X0.759999X-0.499999X-0.759999X0.499999X-0.759999X0*%
%ADD51RoundRect,0.150000X1.350000X0.150000X-1.350000X0.150000X-1.350000X-0.150000X1.350000X-0.150000X0*%
%ADD52RoundRect,0.150000X1.337500X0.150000X-1.337500X0.150000X-1.337500X-0.150000X1.337500X-0.150000X0*%
%ADD53RoundRect,0.293478X-0.381522X-0.406522X0.381522X-0.406522X0.381522X0.406522X-0.381522X0.406522X0*%
%ADD54RoundRect,0.250000X-0.600000X-0.750000X0.600000X-0.750000X0.600000X0.750000X-0.600000X0.750000X0*%
%ADD55O,1.700000X2.000000*%
%ADD56RoundRect,0.305575X0.460025X0.412525X-0.460025X0.412525X-0.460025X-0.412525X0.460025X-0.412525X0*%
%ADD57RoundRect,0.308511X0.457089X0.416489X-0.457089X0.416489X-0.457089X-0.416489X0.457089X-0.416489X0*%
%ADD58R,1.701800X0.558800*%
%ADD59R,0.600000X2.200000*%
%ADD60R,3.250000X3.430000*%
%ADD61RoundRect,0.250000X-0.300000X0.300000X-0.300000X-0.300000X0.300000X-0.300000X0.300000X0.300000X0*%
%ADD62RoundRect,0.162500X-1.052500X-0.162500X1.052500X-0.162500X1.052500X0.162500X-1.052500X0.162500X0*%
%ADD63RoundRect,0.162500X1.002500X0.162500X-1.002500X0.162500X-1.002500X-0.162500X1.002500X-0.162500X0*%
%ADD64RoundRect,0.160500X1.004500X0.160500X-1.004500X0.160500X-1.004500X-0.160500X1.004500X-0.160500X0*%
%ADD65RoundRect,0.162500X1.097500X0.162500X-1.097500X0.162500X-1.097500X-0.162500X1.097500X-0.162500X0*%
%ADD66R,1.500000X1.500000*%
%ADD67RoundRect,0.100000X0.100000X-0.687500X0.100000X0.687500X-0.100000X0.687500X-0.100000X-0.687500X0*%
%ADD68RoundRect,0.100000X0.099999X-0.687500X0.099999X0.687500X-0.099999X0.687500X-0.099999X-0.687500X0*%
G04 APERTURE END LIST*
D10*
%TO.C,J8*%
X81975000Y-107210000D03*
D11*
X84515000Y-107210000D03*
X81975000Y-109750000D03*
X84515000Y-109750000D03*
X81975000Y-112290000D03*
X84515000Y-112290000D03*
%TD*%
D12*
%TO.C,U3*%
X66905000Y-132250000D03*
X65635000Y-132250000D03*
D13*
X64500000Y-132237500D03*
D12*
X63095000Y-132250000D03*
X63095000Y-138250000D03*
X64365000Y-138250000D03*
X65635000Y-138250000D03*
X66905000Y-138250000D03*
%TD*%
D14*
%TO.C,Y1*%
X72606719Y-87700000D03*
D15*
X70693282Y-87708238D03*
X79506719Y-87700000D03*
D14*
X77686719Y-87700000D03*
%TD*%
D16*
%TO.C,R39*%
X136652500Y-80532500D03*
X134347500Y-80532500D03*
%TD*%
D17*
%TO.C,Q2*%
X63350000Y-114450000D03*
X63350000Y-112550000D03*
X61150000Y-113500000D03*
%TD*%
D18*
%TO.C,R3*%
X63467500Y-72902500D03*
X63467500Y-70597500D03*
%TD*%
D19*
%TO.C,H2*%
X145000000Y-55000000D03*
%TD*%
D20*
%TO.C,C22*%
X109784400Y-91243100D03*
D21*
X112215600Y-91250000D03*
%TD*%
D22*
%TO.C,J14*%
X51625000Y-139500000D03*
X51625000Y-130500000D03*
D23*
X53585000Y-136500000D03*
D24*
X53585000Y-133500000D03*
%TD*%
D22*
%TO.C,J6*%
X51625000Y-93250000D03*
X51625000Y-84250000D03*
D23*
X53585000Y-90250000D03*
D24*
X53585000Y-87250000D03*
%TD*%
D17*
%TO.C,Q3*%
X69850000Y-128450000D03*
X69850000Y-126550000D03*
X67650000Y-127500000D03*
%TD*%
D20*
%TO.C,C36*%
X96534400Y-128743100D03*
D21*
X98965600Y-128750000D03*
%TD*%
D16*
%TO.C,R40*%
X132152500Y-80532500D03*
X129847500Y-80532500D03*
%TD*%
D22*
%TO.C,J10*%
X51625000Y-81500000D03*
X51625000Y-60500000D03*
D23*
X53585000Y-78500000D03*
D24*
X53585000Y-75500000D03*
X53585000Y-72500000D03*
X53585000Y-69500000D03*
X53585000Y-66500000D03*
X53585000Y-63500000D03*
%TD*%
D25*
%TO.C,C17*%
X71243100Y-61965600D03*
D26*
X71250000Y-59534400D03*
%TD*%
D27*
%TO.C,L1*%
X77750000Y-58750000D03*
X77750000Y-64250000D03*
%TD*%
D19*
%TO.C,H3*%
X55000000Y-145000000D03*
%TD*%
D18*
%TO.C,R36*%
X138717500Y-69402500D03*
X138717500Y-67097500D03*
%TD*%
D16*
%TO.C,R43*%
X112152500Y-87532500D03*
X109847500Y-87532500D03*
%TD*%
D25*
%TO.C,C16*%
X73243100Y-61965600D03*
D26*
X73250000Y-59534400D03*
%TD*%
D28*
%TO.C,R29*%
X62532500Y-86597500D03*
X62532500Y-88902500D03*
%TD*%
%TO.C,R28*%
X60032500Y-86597500D03*
X60032500Y-88902500D03*
%TD*%
D22*
%TO.C,J15*%
X51625000Y-104750000D03*
X51625000Y-95750000D03*
D23*
X53585000Y-101750000D03*
D24*
X53585000Y-98750000D03*
%TD*%
D29*
%TO.C,C24*%
X108256900Y-116534400D03*
D30*
X108250000Y-118965600D03*
%TD*%
D31*
%TO.C,U5*%
X88930600Y-130214000D03*
X88930600Y-130874400D03*
X88930600Y-131534800D03*
X88930600Y-132169800D03*
X88930600Y-132830200D03*
X88930600Y-133465200D03*
X88930600Y-134125600D03*
X88930600Y-134786000D03*
X94569400Y-134786000D03*
X94569400Y-134125600D03*
X94569400Y-133465200D03*
X94569400Y-132830200D03*
X94569400Y-132169800D03*
X94569400Y-131534800D03*
X94569400Y-130874400D03*
X94569400Y-130214000D03*
%TD*%
D20*
%TO.C,C19*%
X109784400Y-84493100D03*
D21*
X112215600Y-84500000D03*
%TD*%
D20*
%TO.C,C18*%
X66784400Y-63943100D03*
D21*
X69215600Y-63950000D03*
%TD*%
D32*
%TO.C,J12*%
X144355000Y-94250000D03*
D33*
X140035000Y-92750000D03*
D24*
X140035000Y-95750000D03*
%TD*%
D34*
%TO.C,F1*%
X69250000Y-67612500D03*
X69250000Y-71387500D03*
%TD*%
D25*
%TO.C,C26*%
X133073625Y-108715600D03*
D26*
X133080525Y-106284400D03*
%TD*%
D35*
%TO.C,R18*%
X67597500Y-124717500D03*
X69902500Y-124717500D03*
%TD*%
D29*
%TO.C,C15*%
X73256900Y-54318800D03*
D30*
X73250000Y-56750000D03*
%TD*%
D19*
%TO.C,H4*%
X145000000Y-145000000D03*
%TD*%
D22*
%TO.C,J13*%
X51625000Y-128000000D03*
X51625000Y-119000000D03*
D23*
X53585000Y-125000000D03*
D24*
X53585000Y-122000000D03*
%TD*%
D17*
%TO.C,Q4*%
X63350000Y-126200000D03*
X63350000Y-124300000D03*
X61150000Y-125250000D03*
%TD*%
D28*
%TO.C,R30*%
X65032500Y-86597500D03*
X65032500Y-88902500D03*
%TD*%
D16*
%TO.C,R17*%
X60902500Y-128532500D03*
X58597500Y-128532500D03*
%TD*%
D36*
%TO.C,U9*%
X96190000Y-114155000D03*
X97460000Y-114155000D03*
D37*
X96190001Y-121380000D03*
X97460001Y-121380000D03*
D38*
X102540000Y-121380000D03*
X103810000Y-121380000D03*
D36*
X103810000Y-114155000D03*
%TD*%
D32*
%TO.C,J11*%
X124750000Y-55395000D03*
D39*
X123250000Y-59715000D03*
D40*
X126250000Y-59715000D03*
%TD*%
D41*
%TO.C,C12*%
X62000000Y-59800000D03*
X62000000Y-63700000D03*
%TD*%
D42*
%TO.C,U1*%
X80300000Y-92050000D03*
X79500000Y-92050000D03*
X78700000Y-92050000D03*
X77900000Y-92050000D03*
X77100000Y-92050000D03*
X76300000Y-92050000D03*
X75500000Y-92050000D03*
X74700000Y-92050000D03*
D43*
X73050000Y-93700000D03*
D44*
X73050000Y-94487500D03*
D45*
X73050000Y-95312500D03*
D43*
X73050000Y-96100000D03*
X73050000Y-96900000D03*
X73050000Y-97700000D03*
X73050000Y-98500000D03*
X73050000Y-99300000D03*
D42*
X74700000Y-100950000D03*
X75500000Y-100950000D03*
X76300000Y-100950000D03*
D46*
X77112500Y-100950000D03*
D42*
X77900000Y-100950000D03*
X78700000Y-100950000D03*
X79500000Y-100950000D03*
X80300000Y-100950000D03*
D43*
X81950000Y-99300000D03*
X81950000Y-98500000D03*
X81950000Y-97700000D03*
X81950000Y-96900000D03*
X81950000Y-96100000D03*
X81950000Y-95300000D03*
X81950000Y-94500000D03*
X81950000Y-93700000D03*
%TD*%
D16*
%TO.C,R13*%
X60902500Y-116782500D03*
X58597500Y-116782500D03*
%TD*%
D29*
%TO.C,C21*%
X106256900Y-116534400D03*
D30*
X106250000Y-118965600D03*
%TD*%
D20*
%TO.C,C35*%
X84034400Y-75493100D03*
D21*
X86465600Y-75500000D03*
%TD*%
D47*
%TO.C,U6*%
X58690000Y-83870000D03*
X59960000Y-83870000D03*
X61230000Y-83870000D03*
X62500000Y-83870000D03*
X63770000Y-83870000D03*
X65040000Y-83870000D03*
X66310000Y-83870000D03*
X66310000Y-78630000D03*
D48*
X65045000Y-78630000D03*
D47*
X63770000Y-78630000D03*
X62500000Y-78630000D03*
X61230000Y-78630000D03*
X59960000Y-78630000D03*
X58690000Y-78630000D03*
%TD*%
D18*
%TO.C,R38*%
X138717500Y-78402500D03*
X138717500Y-76097500D03*
%TD*%
D49*
%TO.C,D13*%
X63500000Y-66125000D03*
X63500000Y-68375000D03*
%TD*%
D28*
%TO.C,R33*%
X62282500Y-101597500D03*
X62282500Y-103902500D03*
%TD*%
D16*
%TO.C,R41*%
X127652500Y-80532500D03*
X125347500Y-80532500D03*
%TD*%
D22*
%TO.C,J5*%
X98000000Y-148375000D03*
X86000000Y-148375000D03*
D50*
X95000000Y-146415000D03*
D40*
X92000000Y-146415000D03*
X89000000Y-146415000D03*
%TD*%
D51*
%TO.C,U13*%
X90000000Y-73655000D03*
X90000000Y-72385000D03*
D52*
X90012500Y-71250000D03*
D51*
X90000000Y-69845000D03*
X84000000Y-69845000D03*
X84000000Y-71115000D03*
X84000000Y-72385000D03*
X84000000Y-73655000D03*
%TD*%
D35*
%TO.C,R11*%
X64847500Y-61467500D03*
X67152500Y-61467500D03*
%TD*%
D28*
%TO.C,R15*%
X65532500Y-112347500D03*
X65532500Y-114652500D03*
%TD*%
D53*
%TO.C,D9*%
X63125000Y-116750000D03*
X65375000Y-116750000D03*
%TD*%
D32*
%TO.C,J7*%
X144580525Y-107500000D03*
D33*
X140260525Y-106000000D03*
D24*
X140260525Y-109000000D03*
%TD*%
D35*
%TO.C,R14*%
X67597500Y-112967500D03*
X69902500Y-112967500D03*
%TD*%
D20*
%TO.C,C27*%
X109784400Y-75993100D03*
D21*
X112215600Y-76000000D03*
%TD*%
D54*
%TO.C,J17*%
X63750000Y-145475000D03*
D55*
X66250000Y-145475000D03*
%TD*%
D16*
%TO.C,R45*%
X137483025Y-106032500D03*
X135178025Y-106032500D03*
%TD*%
D56*
%TO.C,C23*%
X107715600Y-110006900D03*
D57*
X105284400Y-110000000D03*
%TD*%
D22*
%TO.C,J9*%
X98000000Y-56375000D03*
X77000000Y-56375000D03*
D50*
X95000000Y-54415000D03*
D40*
X92000000Y-54415000D03*
X89000000Y-54415000D03*
X86000000Y-54415000D03*
X83000000Y-54415000D03*
X80000000Y-54415000D03*
%TD*%
D25*
%TO.C,CA5*%
X58743100Y-75465600D03*
D26*
X58750000Y-73034400D03*
%TD*%
D18*
%TO.C,R9*%
X69217500Y-61902500D03*
X69217500Y-59597500D03*
%TD*%
D56*
%TO.C,C5*%
X80815600Y-83706900D03*
D57*
X78384400Y-83700000D03*
%TD*%
D16*
%TO.C,R47*%
X95652500Y-72532500D03*
X93347500Y-72532500D03*
%TD*%
D29*
%TO.C,C14*%
X64756900Y-55034400D03*
D30*
X64750000Y-57465600D03*
%TD*%
D20*
%TO.C,C6*%
X69384400Y-83693100D03*
D21*
X71815600Y-83700000D03*
%TD*%
D20*
%TO.C,C25*%
X109784400Y-93743100D03*
D21*
X112215600Y-93750000D03*
%TD*%
D25*
%TO.C,C13*%
X62743100Y-57465600D03*
D26*
X62750000Y-55034400D03*
%TD*%
D28*
%TO.C,R34*%
X64803646Y-101597500D03*
X64803646Y-103902500D03*
%TD*%
%TO.C,R32*%
X59782500Y-101597500D03*
X59782500Y-103902500D03*
%TD*%
D22*
%TO.C,J16*%
X51625000Y-116500000D03*
X51625000Y-107500000D03*
D23*
X53585000Y-113500000D03*
D24*
X53585000Y-110500000D03*
%TD*%
D18*
%TO.C,R37*%
X138717500Y-73902500D03*
X138717500Y-71597500D03*
%TD*%
D16*
%TO.C,R10*%
X67152500Y-59582500D03*
X64847500Y-59582500D03*
%TD*%
D56*
%TO.C,C20*%
X107715600Y-112006900D03*
D57*
X105284400Y-112000000D03*
%TD*%
D58*
%TO.C,U10*%
X105384800Y-107905000D03*
X105384800Y-106635000D03*
X105384800Y-105365000D03*
X105384800Y-104095000D03*
X94615200Y-104095000D03*
X94615200Y-105365000D03*
X94615200Y-106635000D03*
X94615200Y-107905000D03*
%TD*%
D16*
%TO.C,R46*%
X112152500Y-73532500D03*
X109847500Y-73532500D03*
%TD*%
D36*
%TO.C,U11*%
X96190000Y-89155000D03*
X97460000Y-89155000D03*
D37*
X96190001Y-96380000D03*
X97460001Y-96380000D03*
D38*
X102540000Y-96380000D03*
X103810000Y-96380000D03*
D36*
X103810000Y-89155000D03*
%TD*%
D53*
%TO.C,D10*%
X63125000Y-128500000D03*
X65375000Y-128500000D03*
%TD*%
D59*
%TO.C,U7*%
X67445000Y-91389200D03*
X66175000Y-91389200D03*
X64905000Y-91389200D03*
X63635000Y-91389200D03*
X62365000Y-91389200D03*
X61095000Y-91389200D03*
X59825000Y-91389200D03*
X58555000Y-91389200D03*
X58555000Y-99110800D03*
X59825000Y-99110800D03*
X61095000Y-99110800D03*
X62365000Y-99110800D03*
X63635000Y-99110800D03*
X64905000Y-99110800D03*
X66175000Y-99110800D03*
X67470400Y-99110800D03*
%TD*%
D16*
%TO.C,R8*%
X66152500Y-141282500D03*
X63847500Y-141282500D03*
%TD*%
D51*
%TO.C,U8*%
X115750000Y-82155000D03*
X115750000Y-80885000D03*
D52*
X115762500Y-79750000D03*
D51*
X115750000Y-78345000D03*
X109750000Y-78345000D03*
X109750000Y-79615000D03*
X109750000Y-80885000D03*
X109750000Y-82155000D03*
%TD*%
D60*
%TO.C,F2*%
X126250000Y-64000000D03*
X135750000Y-64000000D03*
%TD*%
D14*
%TO.C,Y2*%
X82693282Y-135250000D03*
D15*
X84606719Y-135241762D03*
X75793282Y-135250000D03*
D14*
X77613282Y-135250000D03*
%TD*%
D28*
%TO.C,R19*%
X65532500Y-124097500D03*
X65532500Y-126402500D03*
%TD*%
D61*
%TO.C,D11*%
X119250000Y-82350000D03*
X119250000Y-85150000D03*
%TD*%
D35*
%TO.C,R48*%
X96597500Y-130717500D03*
X98902500Y-130717500D03*
%TD*%
D16*
%TO.C,R44*%
X137483025Y-109032500D03*
X135178025Y-109032500D03*
%TD*%
D62*
%TO.C,U4*%
X67215000Y-55800000D03*
X67215000Y-56750000D03*
X67215000Y-57700000D03*
X70785000Y-57700000D03*
X70785000Y-56750000D03*
X70785000Y-55800000D03*
%TD*%
D63*
%TO.C,U12*%
X104835000Y-83937000D03*
X104835000Y-81397000D03*
X104835000Y-78857000D03*
D64*
X104835000Y-76321000D03*
D65*
X95260000Y-76317000D03*
X95260000Y-78857000D03*
X95260000Y-81397000D03*
X95260000Y-83937000D03*
%TD*%
D28*
%TO.C,R42*%
X123282500Y-82597500D03*
X123282500Y-84902500D03*
%TD*%
D66*
%TO.C,SW2*%
X92400000Y-96000000D03*
X84600000Y-96000000D03*
%TD*%
D67*
%TO.C,U2*%
X75325000Y-131412500D03*
X75975000Y-131412500D03*
X76625000Y-131412500D03*
D68*
X77275001Y-131412500D03*
D67*
X77925000Y-131412500D03*
X78575000Y-131412500D03*
X79225000Y-131412500D03*
X79875000Y-131412500D03*
X80525000Y-131412500D03*
X81175000Y-131412500D03*
X81175000Y-125587500D03*
X80525000Y-125587500D03*
X79875000Y-125587500D03*
X79225000Y-125587500D03*
X78575000Y-125587500D03*
X77925000Y-125587500D03*
X77275000Y-125587500D03*
D68*
X76625001Y-125587500D03*
X75975001Y-125587500D03*
X75325001Y-125587500D03*
%TD*%
D49*
%TO.C,D2*%
X86250000Y-88125000D03*
X86250000Y-90375000D03*
%TD*%
D19*
%TO.C,H1*%
X55000000Y-55000000D03*
%TD*%
D17*
%TO.C,Q1*%
X69850000Y-116700000D03*
X69850000Y-114800000D03*
X67650000Y-115750000D03*
%TD*%
D35*
%TO.C,R2*%
X73947500Y-83667500D03*
X76252500Y-83667500D03*
%TD*%
D49*
%TO.C,D3*%
X84250000Y-88125000D03*
X84250000Y-90375000D03*
%TD*%
D20*
%TO.C,C28*%
X93284400Y-74493100D03*
D21*
X95715600Y-74500000D03*
%TD*%
D22*
%TO.C,J4*%
X83250000Y-148375000D03*
X71250000Y-148375000D03*
D50*
X80250000Y-146415000D03*
D40*
X77250000Y-146415000D03*
X74250000Y-146415000D03*
%TD*%
M02*
