M48
; DRILL file KiCad 10.0.3 date 2026-09-17T12:35:33
; FORMAT={-:-/ absolute / metric / decimal}
; #@! TF.CreationDate,2026-09-17T12:35:33+08:00
; #@! TF.GenerationSoftware,Kicad,Pcbnew,10.0.3
; #@! TF.FileFunction,Plated,1,2,PTH
FMAT,2
METRIC
; #@! TA.AperFunction,Plated,PTH,ViaDrill
T1C0.300
; #@! TA.AperFunction,Plated,PTH,ComponentDrill
T2C1.000
; #@! TA.AperFunction,Plated,PTH,ComponentDrill
T3C1.020
%
G90
G05
T1
X55.5Y-111.25
X58.5Y-110.25
X58.5Y-112.5
X58.5Y-115.0
X58.5Y-126.75
X58.555Y-99.111
X58.597Y-116.782
X58.597Y-128.532
X58.69Y-83.87
X59.782Y-103.902
X61.095Y-91.389
X61.095Y-99.111
X61.23Y-83.87
X62.0Y-63.7
X62.282Y-103.902
X62.75Y-55.034
X63.35Y-112.55
X63.35Y-124.3
X63.5Y-110.25
X63.5Y-122.0
X63.635Y-91.389
X63.635Y-99.111
X63.77Y-83.87
X63.784Y-135.25
X64.25Y-63.25
X64.757Y-55.034
X64.804Y-103.902
X64.847Y-59.582
X65.25Y-63.25
X65.5Y-110.25
X65.5Y-122.0
X65.532Y-112.347
X65.532Y-124.097
X66.175Y-91.389
X66.175Y-99.111
X66.216Y-135.243
X66.25Y-65.75
X66.25Y-66.5
X66.25Y-67.25
X66.25Y-68.0
X66.25Y-68.75
X66.25Y-69.5
X66.25Y-70.25
X66.25Y-71.0
X66.25Y-71.75
X66.25Y-72.5
X66.25Y-73.25
X66.25Y-74.0
X66.784Y-63.943
X67.153Y-61.467
X67.215Y-56.75
X69.0Y-57.7
X69.25Y-75.0
X69.75Y-105.0
X69.75Y-106.25
X69.903Y-111.25
X69.903Y-123.0
X71.25Y-59.534
X71.25Y-128.45
X72.0Y-116.7
X72.242Y-106.25
X72.25Y-65.75
X72.25Y-66.5
X72.25Y-67.25
X72.25Y-68.0
X72.25Y-68.75
X72.25Y-69.5
X72.25Y-70.25
X72.25Y-71.0
X72.25Y-71.75
X72.25Y-72.5
X72.25Y-73.25
X72.25Y-74.0
X72.25Y-76.25
X72.25Y-105.011
X72.5Y-118.5
X72.5Y-123.75
X73.05Y-96.1
X73.05Y-96.9
X73.25Y-56.75
X73.25Y-59.534
X73.5Y-125.5
X73.75Y-74.0
X73.75Y-76.25
X73.75Y-100.25
X74.5Y-118.5
X74.5Y-123.75
X75.0Y-59.5
X75.216Y-98.75
X75.25Y-74.0
X75.25Y-76.25
X75.25Y-87.5
X75.5Y-118.5
X75.5Y-123.75
X75.782Y-127.805
X75.966Y-94.25
X76.75Y-74.0
X76.75Y-76.25
X77.275Y-107.0
X77.284Y-98.75
X77.5Y-128.0
X77.925Y-108.5
X78.25Y-74.0
X78.25Y-76.25
X78.284Y-94.25
X79.225Y-109.75
X79.716Y-98.743
X79.75Y-74.0
X79.75Y-76.25
X80.25Y-105.25
X80.25Y-118.5
X80.25Y-123.75
X82.0Y-105.25
X82.5Y-124.25
X82.5Y-126.75
X82.5Y-130.5
X83.25Y-113.5
X83.75Y-93.25
X84.034Y-75.493
X84.5Y-105.25
X84.6Y-96.0
X85.0Y-124.25
X85.0Y-126.75
X85.0Y-130.5
X85.75Y-111.0
X85.75Y-113.5
X86.25Y-93.25
X86.25Y-95.0
X87.0Y-100.75
X87.5Y-127.5
X87.67Y-132.17
X87.67Y-132.83
X87.75Y-95.0
X87.75Y-101.75
X89.75Y-135.75
X89.75Y-138.25
X90.0Y-125.0
X90.25Y-95.0
X90.25Y-101.75
X91.0Y-97.784
X91.75Y-132.5
X92.0Y-135.75
X92.0Y-138.25
X92.4Y-96.0
X92.5Y-127.5
X93.0Y-97.784
X94.5Y-135.75
X94.5Y-138.25
X94.615Y-104.095
X94.615Y-107.905
X95.26Y-78.857
X96.0Y-132.83
X96.19Y-89.655
X96.19Y-95.88
X96.19Y-114.655
X96.19Y-120.88
X98.966Y-128.75
X104.835Y-80.25
X105.284Y-110.0
X105.284Y-112.0
X105.385Y-104.095
X106.25Y-118.966
X107.0Y-84.493
X109.784Y-91.243
X112.216Y-77.5
X112.216Y-83.0
T2
X63.75Y-145.475
X66.25Y-145.475
X72.607Y-87.7
X77.613Y-135.25
X77.687Y-87.7
X81.975Y-107.21
X81.975Y-109.75
X81.975Y-112.29
X82.693Y-135.25
X84.515Y-107.21
X84.515Y-109.75
X84.515Y-112.29
T3
X53.585Y-63.5
X53.585Y-66.5
X53.585Y-69.5
X53.585Y-72.5
X53.585Y-75.5
X53.585Y-78.5
X53.585Y-87.25
X53.585Y-90.25
X53.585Y-98.75
X53.585Y-101.75
X53.585Y-110.5
X53.585Y-113.5
X53.585Y-122.0
X53.585Y-125.0
X53.585Y-133.5
X53.585Y-136.5
X74.25Y-146.415
X77.25Y-146.415
X80.0Y-54.415
X80.25Y-146.415
X83.0Y-54.415
X86.0Y-54.415
X89.0Y-54.415
X89.0Y-146.415
X92.0Y-54.415
X92.0Y-146.415
X95.0Y-54.415
X95.0Y-146.415
X123.25Y-59.715
X126.25Y-59.715
X140.035Y-92.75
X140.035Y-95.75
X140.261Y-106.0
X140.261Y-109.0
M30
