%TF.GenerationSoftware,KiCad,Pcbnew,10.0.3*%
%TF.CreationDate,2026-09-17T12:35:28+08:00*%
%TF.ProjectId,Charger,43686172-6765-4722-9e6b-696361645f70,0.1.1 beta*%
%TF.SameCoordinates,Original*%
%TF.FileFunction,Legend,Bot*%
%TF.FilePolarity,Positive*%
%FSLAX46Y46*%
G04 Gerber Fmt 4.6, Leading zero omitted, Abs format (unit mm)*
G04 Created by KiCad (PCBNEW 10.0.3) date 2026-09-17 12:35:28*
%MOMM*%
%LPD*%
G01*
G04 APERTURE LIST*
%ADD10C,0.150000*%
%ADD11C,0.120000*%
G04 APERTURE END LIST*
D10*
X74166666Y-97359580D02*
X74214285Y-97407200D01*
X74214285Y-97407200D02*
X74357142Y-97454819D01*
X74357142Y-97454819D02*
X74452380Y-97454819D01*
X74452380Y-97454819D02*
X74595237Y-97407200D01*
X74595237Y-97407200D02*
X74690475Y-97311961D01*
X74690475Y-97311961D02*
X74738094Y-97216723D01*
X74738094Y-97216723D02*
X74785713Y-97026247D01*
X74785713Y-97026247D02*
X74785713Y-96883390D01*
X74785713Y-96883390D02*
X74738094Y-96692914D01*
X74738094Y-96692914D02*
X74690475Y-96597676D01*
X74690475Y-96597676D02*
X74595237Y-96502438D01*
X74595237Y-96502438D02*
X74452380Y-96454819D01*
X74452380Y-96454819D02*
X74357142Y-96454819D01*
X74357142Y-96454819D02*
X74214285Y-96502438D01*
X74214285Y-96502438D02*
X74166666Y-96550057D01*
X73214285Y-97454819D02*
X73785713Y-97454819D01*
X73499999Y-97454819D02*
X73499999Y-96454819D01*
X73499999Y-96454819D02*
X73595237Y-96597676D01*
X73595237Y-96597676D02*
X73690475Y-96692914D01*
X73690475Y-96692914D02*
X73785713Y-96740533D01*
X71054819Y-114857142D02*
X70578628Y-114523809D01*
X71054819Y-114285714D02*
X70054819Y-114285714D01*
X70054819Y-114285714D02*
X70054819Y-114666666D01*
X70054819Y-114666666D02*
X70102438Y-114761904D01*
X70102438Y-114761904D02*
X70150057Y-114809523D01*
X70150057Y-114809523D02*
X70245295Y-114857142D01*
X70245295Y-114857142D02*
X70388152Y-114857142D01*
X70388152Y-114857142D02*
X70483390Y-114809523D01*
X70483390Y-114809523D02*
X70531009Y-114761904D01*
X70531009Y-114761904D02*
X70578628Y-114666666D01*
X70578628Y-114666666D02*
X70578628Y-114285714D01*
X71054819Y-115809523D02*
X71054819Y-115238095D01*
X71054819Y-115523809D02*
X70054819Y-115523809D01*
X70054819Y-115523809D02*
X70197676Y-115428571D01*
X70197676Y-115428571D02*
X70292914Y-115333333D01*
X70292914Y-115333333D02*
X70340533Y-115238095D01*
X70150057Y-116190476D02*
X70102438Y-116238095D01*
X70102438Y-116238095D02*
X70054819Y-116333333D01*
X70054819Y-116333333D02*
X70054819Y-116571428D01*
X70054819Y-116571428D02*
X70102438Y-116666666D01*
X70102438Y-116666666D02*
X70150057Y-116714285D01*
X70150057Y-116714285D02*
X70245295Y-116761904D01*
X70245295Y-116761904D02*
X70340533Y-116761904D01*
X70340533Y-116761904D02*
X70483390Y-116714285D01*
X70483390Y-116714285D02*
X71054819Y-116142857D01*
X71054819Y-116142857D02*
X71054819Y-116761904D01*
X74392857Y-81704819D02*
X74726190Y-81228628D01*
X74964285Y-81704819D02*
X74964285Y-80704819D01*
X74964285Y-80704819D02*
X74583333Y-80704819D01*
X74583333Y-80704819D02*
X74488095Y-80752438D01*
X74488095Y-80752438D02*
X74440476Y-80800057D01*
X74440476Y-80800057D02*
X74392857Y-80895295D01*
X74392857Y-80895295D02*
X74392857Y-81038152D01*
X74392857Y-81038152D02*
X74440476Y-81133390D01*
X74440476Y-81133390D02*
X74488095Y-81181009D01*
X74488095Y-81181009D02*
X74583333Y-81228628D01*
X74583333Y-81228628D02*
X74964285Y-81228628D01*
X74011904Y-80800057D02*
X73964285Y-80752438D01*
X73964285Y-80752438D02*
X73869047Y-80704819D01*
X73869047Y-80704819D02*
X73630952Y-80704819D01*
X73630952Y-80704819D02*
X73535714Y-80752438D01*
X73535714Y-80752438D02*
X73488095Y-80800057D01*
X73488095Y-80800057D02*
X73440476Y-80895295D01*
X73440476Y-80895295D02*
X73440476Y-80990533D01*
X73440476Y-80990533D02*
X73488095Y-81133390D01*
X73488095Y-81133390D02*
X74059523Y-81704819D01*
X74059523Y-81704819D02*
X73440476Y-81704819D01*
X72488095Y-81704819D02*
X73059523Y-81704819D01*
X72773809Y-81704819D02*
X72773809Y-80704819D01*
X72773809Y-80704819D02*
X72869047Y-80847676D01*
X72869047Y-80847676D02*
X72964285Y-80942914D01*
X72964285Y-80942914D02*
X73059523Y-80990533D01*
X84766666Y-137859580D02*
X84814285Y-137907200D01*
X84814285Y-137907200D02*
X84957142Y-137954819D01*
X84957142Y-137954819D02*
X85052380Y-137954819D01*
X85052380Y-137954819D02*
X85195237Y-137907200D01*
X85195237Y-137907200D02*
X85290475Y-137811961D01*
X85290475Y-137811961D02*
X85338094Y-137716723D01*
X85338094Y-137716723D02*
X85385713Y-137526247D01*
X85385713Y-137526247D02*
X85385713Y-137383390D01*
X85385713Y-137383390D02*
X85338094Y-137192914D01*
X85338094Y-137192914D02*
X85290475Y-137097676D01*
X85290475Y-137097676D02*
X85195237Y-137002438D01*
X85195237Y-137002438D02*
X85052380Y-136954819D01*
X85052380Y-136954819D02*
X84957142Y-136954819D01*
X84957142Y-136954819D02*
X84814285Y-137002438D01*
X84814285Y-137002438D02*
X84766666Y-137050057D01*
X84290475Y-137954819D02*
X84099999Y-137954819D01*
X84099999Y-137954819D02*
X84004761Y-137907200D01*
X84004761Y-137907200D02*
X83957142Y-137859580D01*
X83957142Y-137859580D02*
X83861904Y-137716723D01*
X83861904Y-137716723D02*
X83814285Y-137526247D01*
X83814285Y-137526247D02*
X83814285Y-137145295D01*
X83814285Y-137145295D02*
X83861904Y-137050057D01*
X83861904Y-137050057D02*
X83909523Y-137002438D01*
X83909523Y-137002438D02*
X84004761Y-136954819D01*
X84004761Y-136954819D02*
X84195237Y-136954819D01*
X84195237Y-136954819D02*
X84290475Y-137002438D01*
X84290475Y-137002438D02*
X84338094Y-137050057D01*
X84338094Y-137050057D02*
X84385713Y-137145295D01*
X84385713Y-137145295D02*
X84385713Y-137383390D01*
X84385713Y-137383390D02*
X84338094Y-137478628D01*
X84338094Y-137478628D02*
X84290475Y-137526247D01*
X84290475Y-137526247D02*
X84195237Y-137573866D01*
X84195237Y-137573866D02*
X84004761Y-137573866D01*
X84004761Y-137573866D02*
X83909523Y-137526247D01*
X83909523Y-137526247D02*
X83861904Y-137478628D01*
X83861904Y-137478628D02*
X83814285Y-137383390D01*
X89166666Y-99609580D02*
X89214285Y-99657200D01*
X89214285Y-99657200D02*
X89357142Y-99704819D01*
X89357142Y-99704819D02*
X89452380Y-99704819D01*
X89452380Y-99704819D02*
X89595237Y-99657200D01*
X89595237Y-99657200D02*
X89690475Y-99561961D01*
X89690475Y-99561961D02*
X89738094Y-99466723D01*
X89738094Y-99466723D02*
X89785713Y-99276247D01*
X89785713Y-99276247D02*
X89785713Y-99133390D01*
X89785713Y-99133390D02*
X89738094Y-98942914D01*
X89738094Y-98942914D02*
X89690475Y-98847676D01*
X89690475Y-98847676D02*
X89595237Y-98752438D01*
X89595237Y-98752438D02*
X89452380Y-98704819D01*
X89452380Y-98704819D02*
X89357142Y-98704819D01*
X89357142Y-98704819D02*
X89214285Y-98752438D01*
X89214285Y-98752438D02*
X89166666Y-98800057D01*
X88309523Y-99038152D02*
X88309523Y-99704819D01*
X88547618Y-98657200D02*
X88785713Y-99371485D01*
X88785713Y-99371485D02*
X88166666Y-99371485D01*
X74345238Y-77609580D02*
X74392857Y-77657200D01*
X74392857Y-77657200D02*
X74535714Y-77704819D01*
X74535714Y-77704819D02*
X74630952Y-77704819D01*
X74630952Y-77704819D02*
X74773809Y-77657200D01*
X74773809Y-77657200D02*
X74869047Y-77561961D01*
X74869047Y-77561961D02*
X74916666Y-77466723D01*
X74916666Y-77466723D02*
X74964285Y-77276247D01*
X74964285Y-77276247D02*
X74964285Y-77133390D01*
X74964285Y-77133390D02*
X74916666Y-76942914D01*
X74916666Y-76942914D02*
X74869047Y-76847676D01*
X74869047Y-76847676D02*
X74773809Y-76752438D01*
X74773809Y-76752438D02*
X74630952Y-76704819D01*
X74630952Y-76704819D02*
X74535714Y-76704819D01*
X74535714Y-76704819D02*
X74392857Y-76752438D01*
X74392857Y-76752438D02*
X74345238Y-76800057D01*
X73964285Y-77419104D02*
X73488095Y-77419104D01*
X74059523Y-77704819D02*
X73726190Y-76704819D01*
X73726190Y-76704819D02*
X73392857Y-77704819D01*
X73107142Y-76800057D02*
X73059523Y-76752438D01*
X73059523Y-76752438D02*
X72964285Y-76704819D01*
X72964285Y-76704819D02*
X72726190Y-76704819D01*
X72726190Y-76704819D02*
X72630952Y-76752438D01*
X72630952Y-76752438D02*
X72583333Y-76800057D01*
X72583333Y-76800057D02*
X72535714Y-76895295D01*
X72535714Y-76895295D02*
X72535714Y-76990533D01*
X72535714Y-76990533D02*
X72583333Y-77133390D01*
X72583333Y-77133390D02*
X73154761Y-77704819D01*
X73154761Y-77704819D02*
X72535714Y-77704819D01*
X75954819Y-122583333D02*
X75478628Y-122250000D01*
X75954819Y-122011905D02*
X74954819Y-122011905D01*
X74954819Y-122011905D02*
X74954819Y-122392857D01*
X74954819Y-122392857D02*
X75002438Y-122488095D01*
X75002438Y-122488095D02*
X75050057Y-122535714D01*
X75050057Y-122535714D02*
X75145295Y-122583333D01*
X75145295Y-122583333D02*
X75288152Y-122583333D01*
X75288152Y-122583333D02*
X75383390Y-122535714D01*
X75383390Y-122535714D02*
X75431009Y-122488095D01*
X75431009Y-122488095D02*
X75478628Y-122392857D01*
X75478628Y-122392857D02*
X75478628Y-122011905D01*
X74954819Y-122916667D02*
X74954819Y-123583333D01*
X74954819Y-123583333D02*
X75954819Y-123154762D01*
X71392857Y-79704819D02*
X71726190Y-79228628D01*
X71964285Y-79704819D02*
X71964285Y-78704819D01*
X71964285Y-78704819D02*
X71583333Y-78704819D01*
X71583333Y-78704819D02*
X71488095Y-78752438D01*
X71488095Y-78752438D02*
X71440476Y-78800057D01*
X71440476Y-78800057D02*
X71392857Y-78895295D01*
X71392857Y-78895295D02*
X71392857Y-79038152D01*
X71392857Y-79038152D02*
X71440476Y-79133390D01*
X71440476Y-79133390D02*
X71488095Y-79181009D01*
X71488095Y-79181009D02*
X71583333Y-79228628D01*
X71583333Y-79228628D02*
X71964285Y-79228628D01*
X71011904Y-78800057D02*
X70964285Y-78752438D01*
X70964285Y-78752438D02*
X70869047Y-78704819D01*
X70869047Y-78704819D02*
X70630952Y-78704819D01*
X70630952Y-78704819D02*
X70535714Y-78752438D01*
X70535714Y-78752438D02*
X70488095Y-78800057D01*
X70488095Y-78800057D02*
X70440476Y-78895295D01*
X70440476Y-78895295D02*
X70440476Y-78990533D01*
X70440476Y-78990533D02*
X70488095Y-79133390D01*
X70488095Y-79133390D02*
X71059523Y-79704819D01*
X71059523Y-79704819D02*
X70440476Y-79704819D01*
X69583333Y-79038152D02*
X69583333Y-79704819D01*
X69821428Y-78657200D02*
X70059523Y-79371485D01*
X70059523Y-79371485D02*
X69440476Y-79371485D01*
X71345238Y-77609580D02*
X71392857Y-77657200D01*
X71392857Y-77657200D02*
X71535714Y-77704819D01*
X71535714Y-77704819D02*
X71630952Y-77704819D01*
X71630952Y-77704819D02*
X71773809Y-77657200D01*
X71773809Y-77657200D02*
X71869047Y-77561961D01*
X71869047Y-77561961D02*
X71916666Y-77466723D01*
X71916666Y-77466723D02*
X71964285Y-77276247D01*
X71964285Y-77276247D02*
X71964285Y-77133390D01*
X71964285Y-77133390D02*
X71916666Y-76942914D01*
X71916666Y-76942914D02*
X71869047Y-76847676D01*
X71869047Y-76847676D02*
X71773809Y-76752438D01*
X71773809Y-76752438D02*
X71630952Y-76704819D01*
X71630952Y-76704819D02*
X71535714Y-76704819D01*
X71535714Y-76704819D02*
X71392857Y-76752438D01*
X71392857Y-76752438D02*
X71345238Y-76800057D01*
X70964285Y-77419104D02*
X70488095Y-77419104D01*
X71059523Y-77704819D02*
X70726190Y-76704819D01*
X70726190Y-76704819D02*
X70392857Y-77704819D01*
X69535714Y-77704819D02*
X70107142Y-77704819D01*
X69821428Y-77704819D02*
X69821428Y-76704819D01*
X69821428Y-76704819D02*
X69916666Y-76847676D01*
X69916666Y-76847676D02*
X70011904Y-76942914D01*
X70011904Y-76942914D02*
X70107142Y-76990533D01*
X79666666Y-92859580D02*
X79714285Y-92907200D01*
X79714285Y-92907200D02*
X79857142Y-92954819D01*
X79857142Y-92954819D02*
X79952380Y-92954819D01*
X79952380Y-92954819D02*
X80095237Y-92907200D01*
X80095237Y-92907200D02*
X80190475Y-92811961D01*
X80190475Y-92811961D02*
X80238094Y-92716723D01*
X80238094Y-92716723D02*
X80285713Y-92526247D01*
X80285713Y-92526247D02*
X80285713Y-92383390D01*
X80285713Y-92383390D02*
X80238094Y-92192914D01*
X80238094Y-92192914D02*
X80190475Y-92097676D01*
X80190475Y-92097676D02*
X80095237Y-92002438D01*
X80095237Y-92002438D02*
X79952380Y-91954819D01*
X79952380Y-91954819D02*
X79857142Y-91954819D01*
X79857142Y-91954819D02*
X79714285Y-92002438D01*
X79714285Y-92002438D02*
X79666666Y-92050057D01*
X79333332Y-91954819D02*
X78714285Y-91954819D01*
X78714285Y-91954819D02*
X79047618Y-92335771D01*
X79047618Y-92335771D02*
X78904761Y-92335771D01*
X78904761Y-92335771D02*
X78809523Y-92383390D01*
X78809523Y-92383390D02*
X78761904Y-92431009D01*
X78761904Y-92431009D02*
X78714285Y-92526247D01*
X78714285Y-92526247D02*
X78714285Y-92764342D01*
X78714285Y-92764342D02*
X78761904Y-92859580D01*
X78761904Y-92859580D02*
X78809523Y-92907200D01*
X78809523Y-92907200D02*
X78904761Y-92954819D01*
X78904761Y-92954819D02*
X79190475Y-92954819D01*
X79190475Y-92954819D02*
X79285713Y-92907200D01*
X79285713Y-92907200D02*
X79333332Y-92859580D01*
X75966667Y-137859580D02*
X76014286Y-137907200D01*
X76014286Y-137907200D02*
X76157143Y-137954819D01*
X76157143Y-137954819D02*
X76252381Y-137954819D01*
X76252381Y-137954819D02*
X76395238Y-137907200D01*
X76395238Y-137907200D02*
X76490476Y-137811961D01*
X76490476Y-137811961D02*
X76538095Y-137716723D01*
X76538095Y-137716723D02*
X76585714Y-137526247D01*
X76585714Y-137526247D02*
X76585714Y-137383390D01*
X76585714Y-137383390D02*
X76538095Y-137192914D01*
X76538095Y-137192914D02*
X76490476Y-137097676D01*
X76490476Y-137097676D02*
X76395238Y-137002438D01*
X76395238Y-137002438D02*
X76252381Y-136954819D01*
X76252381Y-136954819D02*
X76157143Y-136954819D01*
X76157143Y-136954819D02*
X76014286Y-137002438D01*
X76014286Y-137002438D02*
X75966667Y-137050057D01*
X75395238Y-137383390D02*
X75490476Y-137335771D01*
X75490476Y-137335771D02*
X75538095Y-137288152D01*
X75538095Y-137288152D02*
X75585714Y-137192914D01*
X75585714Y-137192914D02*
X75585714Y-137145295D01*
X75585714Y-137145295D02*
X75538095Y-137050057D01*
X75538095Y-137050057D02*
X75490476Y-137002438D01*
X75490476Y-137002438D02*
X75395238Y-136954819D01*
X75395238Y-136954819D02*
X75204762Y-136954819D01*
X75204762Y-136954819D02*
X75109524Y-137002438D01*
X75109524Y-137002438D02*
X75061905Y-137050057D01*
X75061905Y-137050057D02*
X75014286Y-137145295D01*
X75014286Y-137145295D02*
X75014286Y-137192914D01*
X75014286Y-137192914D02*
X75061905Y-137288152D01*
X75061905Y-137288152D02*
X75109524Y-137335771D01*
X75109524Y-137335771D02*
X75204762Y-137383390D01*
X75204762Y-137383390D02*
X75395238Y-137383390D01*
X75395238Y-137383390D02*
X75490476Y-137431009D01*
X75490476Y-137431009D02*
X75538095Y-137478628D01*
X75538095Y-137478628D02*
X75585714Y-137573866D01*
X75585714Y-137573866D02*
X75585714Y-137764342D01*
X75585714Y-137764342D02*
X75538095Y-137859580D01*
X75538095Y-137859580D02*
X75490476Y-137907200D01*
X75490476Y-137907200D02*
X75395238Y-137954819D01*
X75395238Y-137954819D02*
X75204762Y-137954819D01*
X75204762Y-137954819D02*
X75109524Y-137907200D01*
X75109524Y-137907200D02*
X75061905Y-137859580D01*
X75061905Y-137859580D02*
X75014286Y-137764342D01*
X75014286Y-137764342D02*
X75014286Y-137573866D01*
X75014286Y-137573866D02*
X75061905Y-137478628D01*
X75061905Y-137478628D02*
X75109524Y-137431009D01*
X75109524Y-137431009D02*
X75204762Y-137383390D01*
X77954819Y-122583333D02*
X77478628Y-122250000D01*
X77954819Y-122011905D02*
X76954819Y-122011905D01*
X76954819Y-122011905D02*
X76954819Y-122392857D01*
X76954819Y-122392857D02*
X77002438Y-122488095D01*
X77002438Y-122488095D02*
X77050057Y-122535714D01*
X77050057Y-122535714D02*
X77145295Y-122583333D01*
X77145295Y-122583333D02*
X77288152Y-122583333D01*
X77288152Y-122583333D02*
X77383390Y-122535714D01*
X77383390Y-122535714D02*
X77431009Y-122488095D01*
X77431009Y-122488095D02*
X77478628Y-122392857D01*
X77478628Y-122392857D02*
X77478628Y-122011905D01*
X76954819Y-123488095D02*
X76954819Y-123011905D01*
X76954819Y-123011905D02*
X77431009Y-122964286D01*
X77431009Y-122964286D02*
X77383390Y-123011905D01*
X77383390Y-123011905D02*
X77335771Y-123107143D01*
X77335771Y-123107143D02*
X77335771Y-123345238D01*
X77335771Y-123345238D02*
X77383390Y-123440476D01*
X77383390Y-123440476D02*
X77431009Y-123488095D01*
X77431009Y-123488095D02*
X77526247Y-123535714D01*
X77526247Y-123535714D02*
X77764342Y-123535714D01*
X77764342Y-123535714D02*
X77859580Y-123488095D01*
X77859580Y-123488095D02*
X77907200Y-123440476D01*
X77907200Y-123440476D02*
X77954819Y-123345238D01*
X77954819Y-123345238D02*
X77954819Y-123107143D01*
X77954819Y-123107143D02*
X77907200Y-123011905D01*
X77907200Y-123011905D02*
X77859580Y-122964286D01*
X69804819Y-126607142D02*
X69328628Y-126273809D01*
X69804819Y-126035714D02*
X68804819Y-126035714D01*
X68804819Y-126035714D02*
X68804819Y-126416666D01*
X68804819Y-126416666D02*
X68852438Y-126511904D01*
X68852438Y-126511904D02*
X68900057Y-126559523D01*
X68900057Y-126559523D02*
X68995295Y-126607142D01*
X68995295Y-126607142D02*
X69138152Y-126607142D01*
X69138152Y-126607142D02*
X69233390Y-126559523D01*
X69233390Y-126559523D02*
X69281009Y-126511904D01*
X69281009Y-126511904D02*
X69328628Y-126416666D01*
X69328628Y-126416666D02*
X69328628Y-126035714D01*
X69804819Y-127559523D02*
X69804819Y-126988095D01*
X69804819Y-127273809D02*
X68804819Y-127273809D01*
X68804819Y-127273809D02*
X68947676Y-127178571D01*
X68947676Y-127178571D02*
X69042914Y-127083333D01*
X69042914Y-127083333D02*
X69090533Y-126988095D01*
X68804819Y-128416666D02*
X68804819Y-128226190D01*
X68804819Y-128226190D02*
X68852438Y-128130952D01*
X68852438Y-128130952D02*
X68900057Y-128083333D01*
X68900057Y-128083333D02*
X69042914Y-127988095D01*
X69042914Y-127988095D02*
X69233390Y-127940476D01*
X69233390Y-127940476D02*
X69614342Y-127940476D01*
X69614342Y-127940476D02*
X69709580Y-127988095D01*
X69709580Y-127988095D02*
X69757200Y-128035714D01*
X69757200Y-128035714D02*
X69804819Y-128130952D01*
X69804819Y-128130952D02*
X69804819Y-128321428D01*
X69804819Y-128321428D02*
X69757200Y-128416666D01*
X69757200Y-128416666D02*
X69709580Y-128464285D01*
X69709580Y-128464285D02*
X69614342Y-128511904D01*
X69614342Y-128511904D02*
X69376247Y-128511904D01*
X69376247Y-128511904D02*
X69281009Y-128464285D01*
X69281009Y-128464285D02*
X69233390Y-128416666D01*
X69233390Y-128416666D02*
X69185771Y-128321428D01*
X69185771Y-128321428D02*
X69185771Y-128130952D01*
X69185771Y-128130952D02*
X69233390Y-128035714D01*
X69233390Y-128035714D02*
X69281009Y-127988095D01*
X69281009Y-127988095D02*
X69376247Y-127940476D01*
X94609580Y-113357142D02*
X94657200Y-113309523D01*
X94657200Y-113309523D02*
X94704819Y-113166666D01*
X94704819Y-113166666D02*
X94704819Y-113071428D01*
X94704819Y-113071428D02*
X94657200Y-112928571D01*
X94657200Y-112928571D02*
X94561961Y-112833333D01*
X94561961Y-112833333D02*
X94466723Y-112785714D01*
X94466723Y-112785714D02*
X94276247Y-112738095D01*
X94276247Y-112738095D02*
X94133390Y-112738095D01*
X94133390Y-112738095D02*
X93942914Y-112785714D01*
X93942914Y-112785714D02*
X93847676Y-112833333D01*
X93847676Y-112833333D02*
X93752438Y-112928571D01*
X93752438Y-112928571D02*
X93704819Y-113071428D01*
X93704819Y-113071428D02*
X93704819Y-113166666D01*
X93704819Y-113166666D02*
X93752438Y-113309523D01*
X93752438Y-113309523D02*
X93800057Y-113357142D01*
X93800057Y-113738095D02*
X93752438Y-113785714D01*
X93752438Y-113785714D02*
X93704819Y-113880952D01*
X93704819Y-113880952D02*
X93704819Y-114119047D01*
X93704819Y-114119047D02*
X93752438Y-114214285D01*
X93752438Y-114214285D02*
X93800057Y-114261904D01*
X93800057Y-114261904D02*
X93895295Y-114309523D01*
X93895295Y-114309523D02*
X93990533Y-114309523D01*
X93990533Y-114309523D02*
X94133390Y-114261904D01*
X94133390Y-114261904D02*
X94704819Y-113690476D01*
X94704819Y-113690476D02*
X94704819Y-114309523D01*
X94704819Y-114785714D02*
X94704819Y-114976190D01*
X94704819Y-114976190D02*
X94657200Y-115071428D01*
X94657200Y-115071428D02*
X94609580Y-115119047D01*
X94609580Y-115119047D02*
X94466723Y-115214285D01*
X94466723Y-115214285D02*
X94276247Y-115261904D01*
X94276247Y-115261904D02*
X93895295Y-115261904D01*
X93895295Y-115261904D02*
X93800057Y-115214285D01*
X93800057Y-115214285D02*
X93752438Y-115166666D01*
X93752438Y-115166666D02*
X93704819Y-115071428D01*
X93704819Y-115071428D02*
X93704819Y-114880952D01*
X93704819Y-114880952D02*
X93752438Y-114785714D01*
X93752438Y-114785714D02*
X93800057Y-114738095D01*
X93800057Y-114738095D02*
X93895295Y-114690476D01*
X93895295Y-114690476D02*
X94133390Y-114690476D01*
X94133390Y-114690476D02*
X94228628Y-114738095D01*
X94228628Y-114738095D02*
X94276247Y-114785714D01*
X94276247Y-114785714D02*
X94323866Y-114880952D01*
X94323866Y-114880952D02*
X94323866Y-115071428D01*
X94323866Y-115071428D02*
X94276247Y-115166666D01*
X94276247Y-115166666D02*
X94228628Y-115214285D01*
X94228628Y-115214285D02*
X94133390Y-115261904D01*
X80416666Y-137954819D02*
X80749999Y-137478628D01*
X80988094Y-137954819D02*
X80988094Y-136954819D01*
X80988094Y-136954819D02*
X80607142Y-136954819D01*
X80607142Y-136954819D02*
X80511904Y-137002438D01*
X80511904Y-137002438D02*
X80464285Y-137050057D01*
X80464285Y-137050057D02*
X80416666Y-137145295D01*
X80416666Y-137145295D02*
X80416666Y-137288152D01*
X80416666Y-137288152D02*
X80464285Y-137383390D01*
X80464285Y-137383390D02*
X80511904Y-137431009D01*
X80511904Y-137431009D02*
X80607142Y-137478628D01*
X80607142Y-137478628D02*
X80988094Y-137478628D01*
X79559523Y-136954819D02*
X79749999Y-136954819D01*
X79749999Y-136954819D02*
X79845237Y-137002438D01*
X79845237Y-137002438D02*
X79892856Y-137050057D01*
X79892856Y-137050057D02*
X79988094Y-137192914D01*
X79988094Y-137192914D02*
X80035713Y-137383390D01*
X80035713Y-137383390D02*
X80035713Y-137764342D01*
X80035713Y-137764342D02*
X79988094Y-137859580D01*
X79988094Y-137859580D02*
X79940475Y-137907200D01*
X79940475Y-137907200D02*
X79845237Y-137954819D01*
X79845237Y-137954819D02*
X79654761Y-137954819D01*
X79654761Y-137954819D02*
X79559523Y-137907200D01*
X79559523Y-137907200D02*
X79511904Y-137859580D01*
X79511904Y-137859580D02*
X79464285Y-137764342D01*
X79464285Y-137764342D02*
X79464285Y-137526247D01*
X79464285Y-137526247D02*
X79511904Y-137431009D01*
X79511904Y-137431009D02*
X79559523Y-137383390D01*
X79559523Y-137383390D02*
X79654761Y-137335771D01*
X79654761Y-137335771D02*
X79845237Y-137335771D01*
X79845237Y-137335771D02*
X79940475Y-137383390D01*
X79940475Y-137383390D02*
X79988094Y-137431009D01*
X79988094Y-137431009D02*
X80035713Y-137526247D01*
X89166666Y-97704819D02*
X89499999Y-97228628D01*
X89738094Y-97704819D02*
X89738094Y-96704819D01*
X89738094Y-96704819D02*
X89357142Y-96704819D01*
X89357142Y-96704819D02*
X89261904Y-96752438D01*
X89261904Y-96752438D02*
X89214285Y-96800057D01*
X89214285Y-96800057D02*
X89166666Y-96895295D01*
X89166666Y-96895295D02*
X89166666Y-97038152D01*
X89166666Y-97038152D02*
X89214285Y-97133390D01*
X89214285Y-97133390D02*
X89261904Y-97181009D01*
X89261904Y-97181009D02*
X89357142Y-97228628D01*
X89357142Y-97228628D02*
X89738094Y-97228628D01*
X88309523Y-97038152D02*
X88309523Y-97704819D01*
X88547618Y-96657200D02*
X88785713Y-97371485D01*
X88785713Y-97371485D02*
X88166666Y-97371485D01*
X73859580Y-122107142D02*
X73907200Y-122059523D01*
X73907200Y-122059523D02*
X73954819Y-121916666D01*
X73954819Y-121916666D02*
X73954819Y-121821428D01*
X73954819Y-121821428D02*
X73907200Y-121678571D01*
X73907200Y-121678571D02*
X73811961Y-121583333D01*
X73811961Y-121583333D02*
X73716723Y-121535714D01*
X73716723Y-121535714D02*
X73526247Y-121488095D01*
X73526247Y-121488095D02*
X73383390Y-121488095D01*
X73383390Y-121488095D02*
X73192914Y-121535714D01*
X73192914Y-121535714D02*
X73097676Y-121583333D01*
X73097676Y-121583333D02*
X73002438Y-121678571D01*
X73002438Y-121678571D02*
X72954819Y-121821428D01*
X72954819Y-121821428D02*
X72954819Y-121916666D01*
X72954819Y-121916666D02*
X73002438Y-122059523D01*
X73002438Y-122059523D02*
X73050057Y-122107142D01*
X73954819Y-123059523D02*
X73954819Y-122488095D01*
X73954819Y-122773809D02*
X72954819Y-122773809D01*
X72954819Y-122773809D02*
X73097676Y-122678571D01*
X73097676Y-122678571D02*
X73192914Y-122583333D01*
X73192914Y-122583333D02*
X73240533Y-122488095D01*
X72954819Y-123678571D02*
X72954819Y-123773809D01*
X72954819Y-123773809D02*
X73002438Y-123869047D01*
X73002438Y-123869047D02*
X73050057Y-123916666D01*
X73050057Y-123916666D02*
X73145295Y-123964285D01*
X73145295Y-123964285D02*
X73335771Y-124011904D01*
X73335771Y-124011904D02*
X73573866Y-124011904D01*
X73573866Y-124011904D02*
X73764342Y-123964285D01*
X73764342Y-123964285D02*
X73859580Y-123916666D01*
X73859580Y-123916666D02*
X73907200Y-123869047D01*
X73907200Y-123869047D02*
X73954819Y-123773809D01*
X73954819Y-123773809D02*
X73954819Y-123678571D01*
X73954819Y-123678571D02*
X73907200Y-123583333D01*
X73907200Y-123583333D02*
X73859580Y-123535714D01*
X73859580Y-123535714D02*
X73764342Y-123488095D01*
X73764342Y-123488095D02*
X73573866Y-123440476D01*
X73573866Y-123440476D02*
X73335771Y-123440476D01*
X73335771Y-123440476D02*
X73145295Y-123488095D01*
X73145295Y-123488095D02*
X73050057Y-123535714D01*
X73050057Y-123535714D02*
X73002438Y-123583333D01*
X73002438Y-123583333D02*
X72954819Y-123678571D01*
X91359580Y-101607142D02*
X91407200Y-101559523D01*
X91407200Y-101559523D02*
X91454819Y-101416666D01*
X91454819Y-101416666D02*
X91454819Y-101321428D01*
X91454819Y-101321428D02*
X91407200Y-101178571D01*
X91407200Y-101178571D02*
X91311961Y-101083333D01*
X91311961Y-101083333D02*
X91216723Y-101035714D01*
X91216723Y-101035714D02*
X91026247Y-100988095D01*
X91026247Y-100988095D02*
X90883390Y-100988095D01*
X90883390Y-100988095D02*
X90692914Y-101035714D01*
X90692914Y-101035714D02*
X90597676Y-101083333D01*
X90597676Y-101083333D02*
X90502438Y-101178571D01*
X90502438Y-101178571D02*
X90454819Y-101321428D01*
X90454819Y-101321428D02*
X90454819Y-101416666D01*
X90454819Y-101416666D02*
X90502438Y-101559523D01*
X90502438Y-101559523D02*
X90550057Y-101607142D01*
X90454819Y-101940476D02*
X90454819Y-102559523D01*
X90454819Y-102559523D02*
X90835771Y-102226190D01*
X90835771Y-102226190D02*
X90835771Y-102369047D01*
X90835771Y-102369047D02*
X90883390Y-102464285D01*
X90883390Y-102464285D02*
X90931009Y-102511904D01*
X90931009Y-102511904D02*
X91026247Y-102559523D01*
X91026247Y-102559523D02*
X91264342Y-102559523D01*
X91264342Y-102559523D02*
X91359580Y-102511904D01*
X91359580Y-102511904D02*
X91407200Y-102464285D01*
X91407200Y-102464285D02*
X91454819Y-102369047D01*
X91454819Y-102369047D02*
X91454819Y-102083333D01*
X91454819Y-102083333D02*
X91407200Y-101988095D01*
X91407200Y-101988095D02*
X91359580Y-101940476D01*
X90788152Y-103416666D02*
X91454819Y-103416666D01*
X90407200Y-103178571D02*
X91121485Y-102940476D01*
X91121485Y-102940476D02*
X91121485Y-103559523D01*
X74916666Y-92859580D02*
X74964285Y-92907200D01*
X74964285Y-92907200D02*
X75107142Y-92954819D01*
X75107142Y-92954819D02*
X75202380Y-92954819D01*
X75202380Y-92954819D02*
X75345237Y-92907200D01*
X75345237Y-92907200D02*
X75440475Y-92811961D01*
X75440475Y-92811961D02*
X75488094Y-92716723D01*
X75488094Y-92716723D02*
X75535713Y-92526247D01*
X75535713Y-92526247D02*
X75535713Y-92383390D01*
X75535713Y-92383390D02*
X75488094Y-92192914D01*
X75488094Y-92192914D02*
X75440475Y-92097676D01*
X75440475Y-92097676D02*
X75345237Y-92002438D01*
X75345237Y-92002438D02*
X75202380Y-91954819D01*
X75202380Y-91954819D02*
X75107142Y-91954819D01*
X75107142Y-91954819D02*
X74964285Y-92002438D01*
X74964285Y-92002438D02*
X74916666Y-92050057D01*
X74583332Y-91954819D02*
X73916666Y-91954819D01*
X73916666Y-91954819D02*
X74345237Y-92954819D01*
X71392857Y-81704819D02*
X71726190Y-81228628D01*
X71964285Y-81704819D02*
X71964285Y-80704819D01*
X71964285Y-80704819D02*
X71583333Y-80704819D01*
X71583333Y-80704819D02*
X71488095Y-80752438D01*
X71488095Y-80752438D02*
X71440476Y-80800057D01*
X71440476Y-80800057D02*
X71392857Y-80895295D01*
X71392857Y-80895295D02*
X71392857Y-81038152D01*
X71392857Y-81038152D02*
X71440476Y-81133390D01*
X71440476Y-81133390D02*
X71488095Y-81181009D01*
X71488095Y-81181009D02*
X71583333Y-81228628D01*
X71583333Y-81228628D02*
X71964285Y-81228628D01*
X71011904Y-80800057D02*
X70964285Y-80752438D01*
X70964285Y-80752438D02*
X70869047Y-80704819D01*
X70869047Y-80704819D02*
X70630952Y-80704819D01*
X70630952Y-80704819D02*
X70535714Y-80752438D01*
X70535714Y-80752438D02*
X70488095Y-80800057D01*
X70488095Y-80800057D02*
X70440476Y-80895295D01*
X70440476Y-80895295D02*
X70440476Y-80990533D01*
X70440476Y-80990533D02*
X70488095Y-81133390D01*
X70488095Y-81133390D02*
X71059523Y-81704819D01*
X71059523Y-81704819D02*
X70440476Y-81704819D01*
X69821428Y-80704819D02*
X69726190Y-80704819D01*
X69726190Y-80704819D02*
X69630952Y-80752438D01*
X69630952Y-80752438D02*
X69583333Y-80800057D01*
X69583333Y-80800057D02*
X69535714Y-80895295D01*
X69535714Y-80895295D02*
X69488095Y-81085771D01*
X69488095Y-81085771D02*
X69488095Y-81323866D01*
X69488095Y-81323866D02*
X69535714Y-81514342D01*
X69535714Y-81514342D02*
X69583333Y-81609580D01*
X69583333Y-81609580D02*
X69630952Y-81657200D01*
X69630952Y-81657200D02*
X69726190Y-81704819D01*
X69726190Y-81704819D02*
X69821428Y-81704819D01*
X69821428Y-81704819D02*
X69916666Y-81657200D01*
X69916666Y-81657200D02*
X69964285Y-81609580D01*
X69964285Y-81609580D02*
X70011904Y-81514342D01*
X70011904Y-81514342D02*
X70059523Y-81323866D01*
X70059523Y-81323866D02*
X70059523Y-81085771D01*
X70059523Y-81085771D02*
X70011904Y-80895295D01*
X70011904Y-80895295D02*
X69964285Y-80800057D01*
X69964285Y-80800057D02*
X69916666Y-80752438D01*
X69916666Y-80752438D02*
X69821428Y-80704819D01*
X77345238Y-77609580D02*
X77392857Y-77657200D01*
X77392857Y-77657200D02*
X77535714Y-77704819D01*
X77535714Y-77704819D02*
X77630952Y-77704819D01*
X77630952Y-77704819D02*
X77773809Y-77657200D01*
X77773809Y-77657200D02*
X77869047Y-77561961D01*
X77869047Y-77561961D02*
X77916666Y-77466723D01*
X77916666Y-77466723D02*
X77964285Y-77276247D01*
X77964285Y-77276247D02*
X77964285Y-77133390D01*
X77964285Y-77133390D02*
X77916666Y-76942914D01*
X77916666Y-76942914D02*
X77869047Y-76847676D01*
X77869047Y-76847676D02*
X77773809Y-76752438D01*
X77773809Y-76752438D02*
X77630952Y-76704819D01*
X77630952Y-76704819D02*
X77535714Y-76704819D01*
X77535714Y-76704819D02*
X77392857Y-76752438D01*
X77392857Y-76752438D02*
X77345238Y-76800057D01*
X76964285Y-77419104D02*
X76488095Y-77419104D01*
X77059523Y-77704819D02*
X76726190Y-76704819D01*
X76726190Y-76704819D02*
X76392857Y-77704819D01*
X76154761Y-76704819D02*
X75535714Y-76704819D01*
X75535714Y-76704819D02*
X75869047Y-77085771D01*
X75869047Y-77085771D02*
X75726190Y-77085771D01*
X75726190Y-77085771D02*
X75630952Y-77133390D01*
X75630952Y-77133390D02*
X75583333Y-77181009D01*
X75583333Y-77181009D02*
X75535714Y-77276247D01*
X75535714Y-77276247D02*
X75535714Y-77514342D01*
X75535714Y-77514342D02*
X75583333Y-77609580D01*
X75583333Y-77609580D02*
X75630952Y-77657200D01*
X75630952Y-77657200D02*
X75726190Y-77704819D01*
X75726190Y-77704819D02*
X76011904Y-77704819D01*
X76011904Y-77704819D02*
X76107142Y-77657200D01*
X76107142Y-77657200D02*
X76154761Y-77609580D01*
X93359580Y-101607142D02*
X93407200Y-101559523D01*
X93407200Y-101559523D02*
X93454819Y-101416666D01*
X93454819Y-101416666D02*
X93454819Y-101321428D01*
X93454819Y-101321428D02*
X93407200Y-101178571D01*
X93407200Y-101178571D02*
X93311961Y-101083333D01*
X93311961Y-101083333D02*
X93216723Y-101035714D01*
X93216723Y-101035714D02*
X93026247Y-100988095D01*
X93026247Y-100988095D02*
X92883390Y-100988095D01*
X92883390Y-100988095D02*
X92692914Y-101035714D01*
X92692914Y-101035714D02*
X92597676Y-101083333D01*
X92597676Y-101083333D02*
X92502438Y-101178571D01*
X92502438Y-101178571D02*
X92454819Y-101321428D01*
X92454819Y-101321428D02*
X92454819Y-101416666D01*
X92454819Y-101416666D02*
X92502438Y-101559523D01*
X92502438Y-101559523D02*
X92550057Y-101607142D01*
X92454819Y-101940476D02*
X92454819Y-102559523D01*
X92454819Y-102559523D02*
X92835771Y-102226190D01*
X92835771Y-102226190D02*
X92835771Y-102369047D01*
X92835771Y-102369047D02*
X92883390Y-102464285D01*
X92883390Y-102464285D02*
X92931009Y-102511904D01*
X92931009Y-102511904D02*
X93026247Y-102559523D01*
X93026247Y-102559523D02*
X93264342Y-102559523D01*
X93264342Y-102559523D02*
X93359580Y-102511904D01*
X93359580Y-102511904D02*
X93407200Y-102464285D01*
X93407200Y-102464285D02*
X93454819Y-102369047D01*
X93454819Y-102369047D02*
X93454819Y-102083333D01*
X93454819Y-102083333D02*
X93407200Y-101988095D01*
X93407200Y-101988095D02*
X93359580Y-101940476D01*
X92454819Y-102892857D02*
X92454819Y-103511904D01*
X92454819Y-103511904D02*
X92835771Y-103178571D01*
X92835771Y-103178571D02*
X92835771Y-103321428D01*
X92835771Y-103321428D02*
X92883390Y-103416666D01*
X92883390Y-103416666D02*
X92931009Y-103464285D01*
X92931009Y-103464285D02*
X93026247Y-103511904D01*
X93026247Y-103511904D02*
X93264342Y-103511904D01*
X93264342Y-103511904D02*
X93359580Y-103464285D01*
X93359580Y-103464285D02*
X93407200Y-103416666D01*
X93407200Y-103416666D02*
X93454819Y-103321428D01*
X93454819Y-103321428D02*
X93454819Y-103035714D01*
X93454819Y-103035714D02*
X93407200Y-102940476D01*
X93407200Y-102940476D02*
X93359580Y-102892857D01*
X96609580Y-88357142D02*
X96657200Y-88309523D01*
X96657200Y-88309523D02*
X96704819Y-88166666D01*
X96704819Y-88166666D02*
X96704819Y-88071428D01*
X96704819Y-88071428D02*
X96657200Y-87928571D01*
X96657200Y-87928571D02*
X96561961Y-87833333D01*
X96561961Y-87833333D02*
X96466723Y-87785714D01*
X96466723Y-87785714D02*
X96276247Y-87738095D01*
X96276247Y-87738095D02*
X96133390Y-87738095D01*
X96133390Y-87738095D02*
X95942914Y-87785714D01*
X95942914Y-87785714D02*
X95847676Y-87833333D01*
X95847676Y-87833333D02*
X95752438Y-87928571D01*
X95752438Y-87928571D02*
X95704819Y-88071428D01*
X95704819Y-88071428D02*
X95704819Y-88166666D01*
X95704819Y-88166666D02*
X95752438Y-88309523D01*
X95752438Y-88309523D02*
X95800057Y-88357142D01*
X95704819Y-88690476D02*
X95704819Y-89309523D01*
X95704819Y-89309523D02*
X96085771Y-88976190D01*
X96085771Y-88976190D02*
X96085771Y-89119047D01*
X96085771Y-89119047D02*
X96133390Y-89214285D01*
X96133390Y-89214285D02*
X96181009Y-89261904D01*
X96181009Y-89261904D02*
X96276247Y-89309523D01*
X96276247Y-89309523D02*
X96514342Y-89309523D01*
X96514342Y-89309523D02*
X96609580Y-89261904D01*
X96609580Y-89261904D02*
X96657200Y-89214285D01*
X96657200Y-89214285D02*
X96704819Y-89119047D01*
X96704819Y-89119047D02*
X96704819Y-88833333D01*
X96704819Y-88833333D02*
X96657200Y-88738095D01*
X96657200Y-88738095D02*
X96609580Y-88690476D01*
X95800057Y-89690476D02*
X95752438Y-89738095D01*
X95752438Y-89738095D02*
X95704819Y-89833333D01*
X95704819Y-89833333D02*
X95704819Y-90071428D01*
X95704819Y-90071428D02*
X95752438Y-90166666D01*
X95752438Y-90166666D02*
X95800057Y-90214285D01*
X95800057Y-90214285D02*
X95895295Y-90261904D01*
X95895295Y-90261904D02*
X95990533Y-90261904D01*
X95990533Y-90261904D02*
X96133390Y-90214285D01*
X96133390Y-90214285D02*
X96704819Y-89642857D01*
X96704819Y-89642857D02*
X96704819Y-90261904D01*
X77392857Y-81704819D02*
X77726190Y-81228628D01*
X77964285Y-81704819D02*
X77964285Y-80704819D01*
X77964285Y-80704819D02*
X77583333Y-80704819D01*
X77583333Y-80704819D02*
X77488095Y-80752438D01*
X77488095Y-80752438D02*
X77440476Y-80800057D01*
X77440476Y-80800057D02*
X77392857Y-80895295D01*
X77392857Y-80895295D02*
X77392857Y-81038152D01*
X77392857Y-81038152D02*
X77440476Y-81133390D01*
X77440476Y-81133390D02*
X77488095Y-81181009D01*
X77488095Y-81181009D02*
X77583333Y-81228628D01*
X77583333Y-81228628D02*
X77964285Y-81228628D01*
X77011904Y-80800057D02*
X76964285Y-80752438D01*
X76964285Y-80752438D02*
X76869047Y-80704819D01*
X76869047Y-80704819D02*
X76630952Y-80704819D01*
X76630952Y-80704819D02*
X76535714Y-80752438D01*
X76535714Y-80752438D02*
X76488095Y-80800057D01*
X76488095Y-80800057D02*
X76440476Y-80895295D01*
X76440476Y-80895295D02*
X76440476Y-80990533D01*
X76440476Y-80990533D02*
X76488095Y-81133390D01*
X76488095Y-81133390D02*
X77059523Y-81704819D01*
X77059523Y-81704819D02*
X76440476Y-81704819D01*
X76059523Y-80800057D02*
X76011904Y-80752438D01*
X76011904Y-80752438D02*
X75916666Y-80704819D01*
X75916666Y-80704819D02*
X75678571Y-80704819D01*
X75678571Y-80704819D02*
X75583333Y-80752438D01*
X75583333Y-80752438D02*
X75535714Y-80800057D01*
X75535714Y-80800057D02*
X75488095Y-80895295D01*
X75488095Y-80895295D02*
X75488095Y-80990533D01*
X75488095Y-80990533D02*
X75535714Y-81133390D01*
X75535714Y-81133390D02*
X76107142Y-81704819D01*
X76107142Y-81704819D02*
X75488095Y-81704819D01*
X65642857Y-133929580D02*
X65690476Y-133977200D01*
X65690476Y-133977200D02*
X65833333Y-134024819D01*
X65833333Y-134024819D02*
X65928571Y-134024819D01*
X65928571Y-134024819D02*
X66071428Y-133977200D01*
X66071428Y-133977200D02*
X66166666Y-133881961D01*
X66166666Y-133881961D02*
X66214285Y-133786723D01*
X66214285Y-133786723D02*
X66261904Y-133596247D01*
X66261904Y-133596247D02*
X66261904Y-133453390D01*
X66261904Y-133453390D02*
X66214285Y-133262914D01*
X66214285Y-133262914D02*
X66166666Y-133167676D01*
X66166666Y-133167676D02*
X66071428Y-133072438D01*
X66071428Y-133072438D02*
X65928571Y-133024819D01*
X65928571Y-133024819D02*
X65833333Y-133024819D01*
X65833333Y-133024819D02*
X65690476Y-133072438D01*
X65690476Y-133072438D02*
X65642857Y-133120057D01*
X64690476Y-134024819D02*
X65261904Y-134024819D01*
X64976190Y-134024819D02*
X64976190Y-133024819D01*
X64976190Y-133024819D02*
X65071428Y-133167676D01*
X65071428Y-133167676D02*
X65166666Y-133262914D01*
X65166666Y-133262914D02*
X65261904Y-133310533D01*
X63738095Y-134024819D02*
X64309523Y-134024819D01*
X64023809Y-134024819D02*
X64023809Y-133024819D01*
X64023809Y-133024819D02*
X64119047Y-133167676D01*
X64119047Y-133167676D02*
X64214285Y-133262914D01*
X64214285Y-133262914D02*
X64309523Y-133310533D01*
X94609580Y-88357142D02*
X94657200Y-88309523D01*
X94657200Y-88309523D02*
X94704819Y-88166666D01*
X94704819Y-88166666D02*
X94704819Y-88071428D01*
X94704819Y-88071428D02*
X94657200Y-87928571D01*
X94657200Y-87928571D02*
X94561961Y-87833333D01*
X94561961Y-87833333D02*
X94466723Y-87785714D01*
X94466723Y-87785714D02*
X94276247Y-87738095D01*
X94276247Y-87738095D02*
X94133390Y-87738095D01*
X94133390Y-87738095D02*
X93942914Y-87785714D01*
X93942914Y-87785714D02*
X93847676Y-87833333D01*
X93847676Y-87833333D02*
X93752438Y-87928571D01*
X93752438Y-87928571D02*
X93704819Y-88071428D01*
X93704819Y-88071428D02*
X93704819Y-88166666D01*
X93704819Y-88166666D02*
X93752438Y-88309523D01*
X93752438Y-88309523D02*
X93800057Y-88357142D01*
X93704819Y-88690476D02*
X93704819Y-89309523D01*
X93704819Y-89309523D02*
X94085771Y-88976190D01*
X94085771Y-88976190D02*
X94085771Y-89119047D01*
X94085771Y-89119047D02*
X94133390Y-89214285D01*
X94133390Y-89214285D02*
X94181009Y-89261904D01*
X94181009Y-89261904D02*
X94276247Y-89309523D01*
X94276247Y-89309523D02*
X94514342Y-89309523D01*
X94514342Y-89309523D02*
X94609580Y-89261904D01*
X94609580Y-89261904D02*
X94657200Y-89214285D01*
X94657200Y-89214285D02*
X94704819Y-89119047D01*
X94704819Y-89119047D02*
X94704819Y-88833333D01*
X94704819Y-88833333D02*
X94657200Y-88738095D01*
X94657200Y-88738095D02*
X94609580Y-88690476D01*
X93704819Y-89928571D02*
X93704819Y-90023809D01*
X93704819Y-90023809D02*
X93752438Y-90119047D01*
X93752438Y-90119047D02*
X93800057Y-90166666D01*
X93800057Y-90166666D02*
X93895295Y-90214285D01*
X93895295Y-90214285D02*
X94085771Y-90261904D01*
X94085771Y-90261904D02*
X94323866Y-90261904D01*
X94323866Y-90261904D02*
X94514342Y-90214285D01*
X94514342Y-90214285D02*
X94609580Y-90166666D01*
X94609580Y-90166666D02*
X94657200Y-90119047D01*
X94657200Y-90119047D02*
X94704819Y-90023809D01*
X94704819Y-90023809D02*
X94704819Y-89928571D01*
X94704819Y-89928571D02*
X94657200Y-89833333D01*
X94657200Y-89833333D02*
X94609580Y-89785714D01*
X94609580Y-89785714D02*
X94514342Y-89738095D01*
X94514342Y-89738095D02*
X94323866Y-89690476D01*
X94323866Y-89690476D02*
X94085771Y-89690476D01*
X94085771Y-89690476D02*
X93895295Y-89738095D01*
X93895295Y-89738095D02*
X93800057Y-89785714D01*
X93800057Y-89785714D02*
X93752438Y-89833333D01*
X93752438Y-89833333D02*
X93704819Y-89928571D01*
X74392857Y-79704819D02*
X74726190Y-79228628D01*
X74964285Y-79704819D02*
X74964285Y-78704819D01*
X74964285Y-78704819D02*
X74583333Y-78704819D01*
X74583333Y-78704819D02*
X74488095Y-78752438D01*
X74488095Y-78752438D02*
X74440476Y-78800057D01*
X74440476Y-78800057D02*
X74392857Y-78895295D01*
X74392857Y-78895295D02*
X74392857Y-79038152D01*
X74392857Y-79038152D02*
X74440476Y-79133390D01*
X74440476Y-79133390D02*
X74488095Y-79181009D01*
X74488095Y-79181009D02*
X74583333Y-79228628D01*
X74583333Y-79228628D02*
X74964285Y-79228628D01*
X74011904Y-78800057D02*
X73964285Y-78752438D01*
X73964285Y-78752438D02*
X73869047Y-78704819D01*
X73869047Y-78704819D02*
X73630952Y-78704819D01*
X73630952Y-78704819D02*
X73535714Y-78752438D01*
X73535714Y-78752438D02*
X73488095Y-78800057D01*
X73488095Y-78800057D02*
X73440476Y-78895295D01*
X73440476Y-78895295D02*
X73440476Y-78990533D01*
X73440476Y-78990533D02*
X73488095Y-79133390D01*
X73488095Y-79133390D02*
X74059523Y-79704819D01*
X74059523Y-79704819D02*
X73440476Y-79704819D01*
X72535714Y-78704819D02*
X73011904Y-78704819D01*
X73011904Y-78704819D02*
X73059523Y-79181009D01*
X73059523Y-79181009D02*
X73011904Y-79133390D01*
X73011904Y-79133390D02*
X72916666Y-79085771D01*
X72916666Y-79085771D02*
X72678571Y-79085771D01*
X72678571Y-79085771D02*
X72583333Y-79133390D01*
X72583333Y-79133390D02*
X72535714Y-79181009D01*
X72535714Y-79181009D02*
X72488095Y-79276247D01*
X72488095Y-79276247D02*
X72488095Y-79514342D01*
X72488095Y-79514342D02*
X72535714Y-79609580D01*
X72535714Y-79609580D02*
X72583333Y-79657200D01*
X72583333Y-79657200D02*
X72678571Y-79704819D01*
X72678571Y-79704819D02*
X72916666Y-79704819D01*
X72916666Y-79704819D02*
X73011904Y-79657200D01*
X73011904Y-79657200D02*
X73059523Y-79609580D01*
X96609580Y-113357142D02*
X96657200Y-113309523D01*
X96657200Y-113309523D02*
X96704819Y-113166666D01*
X96704819Y-113166666D02*
X96704819Y-113071428D01*
X96704819Y-113071428D02*
X96657200Y-112928571D01*
X96657200Y-112928571D02*
X96561961Y-112833333D01*
X96561961Y-112833333D02*
X96466723Y-112785714D01*
X96466723Y-112785714D02*
X96276247Y-112738095D01*
X96276247Y-112738095D02*
X96133390Y-112738095D01*
X96133390Y-112738095D02*
X95942914Y-112785714D01*
X95942914Y-112785714D02*
X95847676Y-112833333D01*
X95847676Y-112833333D02*
X95752438Y-112928571D01*
X95752438Y-112928571D02*
X95704819Y-113071428D01*
X95704819Y-113071428D02*
X95704819Y-113166666D01*
X95704819Y-113166666D02*
X95752438Y-113309523D01*
X95752438Y-113309523D02*
X95800057Y-113357142D01*
X95704819Y-113690476D02*
X95704819Y-114309523D01*
X95704819Y-114309523D02*
X96085771Y-113976190D01*
X96085771Y-113976190D02*
X96085771Y-114119047D01*
X96085771Y-114119047D02*
X96133390Y-114214285D01*
X96133390Y-114214285D02*
X96181009Y-114261904D01*
X96181009Y-114261904D02*
X96276247Y-114309523D01*
X96276247Y-114309523D02*
X96514342Y-114309523D01*
X96514342Y-114309523D02*
X96609580Y-114261904D01*
X96609580Y-114261904D02*
X96657200Y-114214285D01*
X96657200Y-114214285D02*
X96704819Y-114119047D01*
X96704819Y-114119047D02*
X96704819Y-113833333D01*
X96704819Y-113833333D02*
X96657200Y-113738095D01*
X96657200Y-113738095D02*
X96609580Y-113690476D01*
X96704819Y-115261904D02*
X96704819Y-114690476D01*
X96704819Y-114976190D02*
X95704819Y-114976190D01*
X95704819Y-114976190D02*
X95847676Y-114880952D01*
X95847676Y-114880952D02*
X95942914Y-114785714D01*
X95942914Y-114785714D02*
X95990533Y-114690476D01*
X77392857Y-79704819D02*
X77726190Y-79228628D01*
X77964285Y-79704819D02*
X77964285Y-78704819D01*
X77964285Y-78704819D02*
X77583333Y-78704819D01*
X77583333Y-78704819D02*
X77488095Y-78752438D01*
X77488095Y-78752438D02*
X77440476Y-78800057D01*
X77440476Y-78800057D02*
X77392857Y-78895295D01*
X77392857Y-78895295D02*
X77392857Y-79038152D01*
X77392857Y-79038152D02*
X77440476Y-79133390D01*
X77440476Y-79133390D02*
X77488095Y-79181009D01*
X77488095Y-79181009D02*
X77583333Y-79228628D01*
X77583333Y-79228628D02*
X77964285Y-79228628D01*
X77011904Y-78800057D02*
X76964285Y-78752438D01*
X76964285Y-78752438D02*
X76869047Y-78704819D01*
X76869047Y-78704819D02*
X76630952Y-78704819D01*
X76630952Y-78704819D02*
X76535714Y-78752438D01*
X76535714Y-78752438D02*
X76488095Y-78800057D01*
X76488095Y-78800057D02*
X76440476Y-78895295D01*
X76440476Y-78895295D02*
X76440476Y-78990533D01*
X76440476Y-78990533D02*
X76488095Y-79133390D01*
X76488095Y-79133390D02*
X77059523Y-79704819D01*
X77059523Y-79704819D02*
X76440476Y-79704819D01*
X75583333Y-78704819D02*
X75773809Y-78704819D01*
X75773809Y-78704819D02*
X75869047Y-78752438D01*
X75869047Y-78752438D02*
X75916666Y-78800057D01*
X75916666Y-78800057D02*
X76011904Y-78942914D01*
X76011904Y-78942914D02*
X76059523Y-79133390D01*
X76059523Y-79133390D02*
X76059523Y-79514342D01*
X76059523Y-79514342D02*
X76011904Y-79609580D01*
X76011904Y-79609580D02*
X75964285Y-79657200D01*
X75964285Y-79657200D02*
X75869047Y-79704819D01*
X75869047Y-79704819D02*
X75678571Y-79704819D01*
X75678571Y-79704819D02*
X75583333Y-79657200D01*
X75583333Y-79657200D02*
X75535714Y-79609580D01*
X75535714Y-79609580D02*
X75488095Y-79514342D01*
X75488095Y-79514342D02*
X75488095Y-79276247D01*
X75488095Y-79276247D02*
X75535714Y-79181009D01*
X75535714Y-79181009D02*
X75583333Y-79133390D01*
X75583333Y-79133390D02*
X75678571Y-79085771D01*
X75678571Y-79085771D02*
X75869047Y-79085771D01*
X75869047Y-79085771D02*
X75964285Y-79133390D01*
X75964285Y-79133390D02*
X76011904Y-79181009D01*
X76011904Y-79181009D02*
X76059523Y-79276247D01*
X78666666Y-97359580D02*
X78714285Y-97407200D01*
X78714285Y-97407200D02*
X78857142Y-97454819D01*
X78857142Y-97454819D02*
X78952380Y-97454819D01*
X78952380Y-97454819D02*
X79095237Y-97407200D01*
X79095237Y-97407200D02*
X79190475Y-97311961D01*
X79190475Y-97311961D02*
X79238094Y-97216723D01*
X79238094Y-97216723D02*
X79285713Y-97026247D01*
X79285713Y-97026247D02*
X79285713Y-96883390D01*
X79285713Y-96883390D02*
X79238094Y-96692914D01*
X79238094Y-96692914D02*
X79190475Y-96597676D01*
X79190475Y-96597676D02*
X79095237Y-96502438D01*
X79095237Y-96502438D02*
X78952380Y-96454819D01*
X78952380Y-96454819D02*
X78857142Y-96454819D01*
X78857142Y-96454819D02*
X78714285Y-96502438D01*
X78714285Y-96502438D02*
X78666666Y-96550057D01*
X78285713Y-96550057D02*
X78238094Y-96502438D01*
X78238094Y-96502438D02*
X78142856Y-96454819D01*
X78142856Y-96454819D02*
X77904761Y-96454819D01*
X77904761Y-96454819D02*
X77809523Y-96502438D01*
X77809523Y-96502438D02*
X77761904Y-96550057D01*
X77761904Y-96550057D02*
X77714285Y-96645295D01*
X77714285Y-96645295D02*
X77714285Y-96740533D01*
X77714285Y-96740533D02*
X77761904Y-96883390D01*
X77761904Y-96883390D02*
X78333332Y-97454819D01*
X78333332Y-97454819D02*
X77714285Y-97454819D01*
%TO.C,C1*%
D11*
X73738748Y-98015000D02*
X74261252Y-98015000D01*
X73738748Y-99485000D02*
X74261252Y-99485000D01*
%TO.C,R12*%
X71515000Y-115272936D02*
X71515000Y-115727064D01*
X72985000Y-115272936D02*
X72985000Y-115727064D01*
%TO.C,R21*%
X62272936Y-80515000D02*
X62727064Y-80515000D01*
X62272936Y-81985000D02*
X62727064Y-81985000D01*
%TO.C,C9*%
X84861253Y-138282500D02*
X84338749Y-138282500D01*
X84861253Y-139752500D02*
X84338749Y-139752500D01*
%TO.C,C4*%
X86011252Y-98515000D02*
X85488748Y-98515000D01*
X86011252Y-99985000D02*
X85488748Y-99985000D01*
%TO.C,CA2*%
X62761252Y-76515000D02*
X62238748Y-76515000D01*
X62761252Y-77985000D02*
X62238748Y-77985000D01*
%TO.C,R7*%
X74765000Y-126879564D02*
X74765000Y-126425436D01*
X76235000Y-126879564D02*
X76235000Y-126425436D01*
%TO.C,R24*%
X57772936Y-78515000D02*
X58227064Y-78515000D01*
X57772936Y-79985000D02*
X58227064Y-79985000D01*
%TO.C,CA1*%
X57738748Y-76515000D02*
X58261252Y-76515000D01*
X57738748Y-77985000D02*
X58261252Y-77985000D01*
%TO.C,C3*%
X79761252Y-93515000D02*
X79238748Y-93515000D01*
X79761252Y-94985000D02*
X79238748Y-94985000D01*
%TO.C,C8*%
X75538749Y-138282500D02*
X76061253Y-138282500D01*
X75538749Y-139752500D02*
X76061253Y-139752500D01*
%TO.C,R5*%
X76765000Y-126879564D02*
X76765000Y-126425436D01*
X78235000Y-126879564D02*
X78235000Y-126425436D01*
%TO.C,R16*%
X70265000Y-127022936D02*
X70265000Y-127477064D01*
X71735000Y-127022936D02*
X71735000Y-127477064D01*
%TO.C,C29*%
X93515000Y-117488748D02*
X93515000Y-118011252D01*
X94985000Y-117488748D02*
X94985000Y-118011252D01*
%TO.C,R6*%
X80477064Y-138265000D02*
X80022936Y-138265000D01*
X80477064Y-139735000D02*
X80022936Y-139735000D01*
%TO.C,R4*%
X85522936Y-96515000D02*
X85977064Y-96515000D01*
X85522936Y-97985000D02*
X85977064Y-97985000D01*
%TO.C,C10*%
X72765000Y-126976852D02*
X72765000Y-126454348D01*
X74235000Y-126976852D02*
X74235000Y-126454348D01*
%TO.C,C34*%
X90265000Y-106261252D02*
X90265000Y-105738748D01*
X91735000Y-106261252D02*
X91735000Y-105738748D01*
%TO.C,C7*%
X74488748Y-93515000D02*
X75011252Y-93515000D01*
X74488748Y-94985000D02*
X75011252Y-94985000D01*
%TO.C,R20*%
X57772936Y-80515000D02*
X58227064Y-80515000D01*
X57772936Y-81985000D02*
X58227064Y-81985000D01*
%TO.C,CA3*%
X66738748Y-76515000D02*
X67261252Y-76515000D01*
X66738748Y-77985000D02*
X67261252Y-77985000D01*
%TO.C,C33*%
X92265000Y-106261252D02*
X92265000Y-105738748D01*
X93735000Y-106261252D02*
X93735000Y-105738748D01*
%TO.C,C32*%
X95515000Y-92488748D02*
X95515000Y-93011252D01*
X96985000Y-92488748D02*
X96985000Y-93011252D01*
%TO.C,R22*%
X67227064Y-80515000D02*
X66772936Y-80515000D01*
X67227064Y-81985000D02*
X66772936Y-81985000D01*
%TO.C,C11*%
X65261252Y-134515000D02*
X64738748Y-134515000D01*
X65261252Y-135985000D02*
X64738748Y-135985000D01*
%TO.C,C30*%
X93515000Y-92488748D02*
X93515000Y-93011252D01*
X94985000Y-92488748D02*
X94985000Y-93011252D01*
%TO.C,R25*%
X62727064Y-78515000D02*
X62272936Y-78515000D01*
X62727064Y-79985000D02*
X62272936Y-79985000D01*
%TO.C,C31*%
X95515000Y-117488748D02*
X95515000Y-118011252D01*
X96985000Y-117488748D02*
X96985000Y-118011252D01*
%TO.C,R26*%
X66772936Y-78515000D02*
X67227064Y-78515000D01*
X66772936Y-79985000D02*
X67227064Y-79985000D01*
%TO.C,C2*%
X78761252Y-98015000D02*
X78238748Y-98015000D01*
X78761252Y-99485000D02*
X78238748Y-99485000D01*
%TD*%
M02*
