%TF.GenerationSoftware,KiCad,Pcbnew,10.0.3*%
%TF.CreationDate,2026-09-17T12:35:28+08:00*%
%TF.ProjectId,Charger,43686172-6765-4722-9e6b-696361645f70,0.1.1 beta*%
%TF.SameCoordinates,Original*%
%TF.FileFunction,Copper,L2,Bot*%
%TF.FilePolarity,Positive*%
%FSLAX46Y46*%
G04 Gerber Fmt 4.6, Leading zero omitted, Abs format (unit mm)*
G04 Created by KiCad (PCBNEW 10.0.3) date 2026-09-17 12:35:28*
%MOMM*%
%LPD*%
G01*
G04 APERTURE LIST*
G04 Aperture macros list*
%AMRoundRect*
0 Rectangle with rounded corners*
0 $1 Rounding radius*
0 $2 $3 $4 $5 $6 $7 $8 $9 X,Y pos of 4 corners*
0 Add a 4 corners polygon primitive as box body*
4,1,4,$2,$3,$4,$5,$6,$7,$8,$9,$2,$3,0*
0 Add four circle primitives for the rounded corners*
1,1,$1+$1,$2,$3*
1,1,$1+$1,$4,$5*
1,1,$1+$1,$6,$7*
1,1,$1+$1,$8,$9*
0 Add four rect primitives between the rounded corners*
20,1,$1+$1,$2,$3,$4,$5,0*
20,1,$1+$1,$4,$5,$6,$7,0*
20,1,$1+$1,$6,$7,$8,$9,0*
20,1,$1+$1,$8,$9,$2,$3,0*%
G04 Aperture macros list end*
%TA.AperFunction,ComponentPad*%
%ADD10R,1.700000X1.700000*%
%TD*%
%TA.AperFunction,ComponentPad*%
%ADD11C,1.700000*%
%TD*%
%TA.AperFunction,ComponentPad*%
%ADD12C,2.400000*%
%TD*%
%TA.AperFunction,ComponentPad*%
%ADD13RoundRect,0.250001X0.759999X-0.499999X0.759999X0.499999X-0.759999X0.499999X-0.759999X-0.499999X0*%
%TD*%
%TA.AperFunction,ComponentPad*%
%ADD14O,2.020000X1.500000*%
%TD*%
%TA.AperFunction,ComponentPad*%
%ADD15RoundRect,0.250001X-0.759999X0.499999X-0.759999X-0.499999X0.759999X-0.499999X0.759999X0.499999X0*%
%TD*%
%TA.AperFunction,ComponentPad*%
%ADD16RoundRect,0.250001X-0.499999X-0.759999X0.499999X-0.759999X0.499999X0.759999X-0.499999X0.759999X0*%
%TD*%
%TA.AperFunction,ComponentPad*%
%ADD17O,1.500000X2.020000*%
%TD*%
%TA.AperFunction,ComponentPad*%
%ADD18RoundRect,0.250001X0.499999X0.759999X-0.499999X0.759999X-0.499999X-0.759999X0.499999X-0.759999X0*%
%TD*%
%TA.AperFunction,ComponentPad*%
%ADD19RoundRect,0.250000X-0.600000X-0.750000X0.600000X-0.750000X0.600000X0.750000X-0.600000X0.750000X0*%
%TD*%
%TA.AperFunction,ComponentPad*%
%ADD20O,1.700000X2.000000*%
%TD*%
%TA.AperFunction,SMDPad,CuDef*%
%ADD21RoundRect,0.305575X-0.460025X-0.412525X0.460025X-0.412525X0.460025X0.412525X-0.460025X0.412525X0*%
%TD*%
%TA.AperFunction,SMDPad,CuDef*%
%ADD22RoundRect,0.308511X-0.457089X-0.416489X0.457089X-0.416489X0.457089X0.416489X-0.457089X0.416489X0*%
%TD*%
%TA.AperFunction,SMDPad,CuDef*%
%ADD23RoundRect,0.278125X-0.389375X0.474375X-0.389375X-0.474375X0.389375X-0.474375X0.389375X0.474375X0*%
%TD*%
%TA.AperFunction,SMDPad,CuDef*%
%ADD24RoundRect,0.278125X-0.474375X-0.389375X0.474375X-0.389375X0.474375X0.389375X-0.474375X0.389375X0*%
%TD*%
%TA.AperFunction,SMDPad,CuDef*%
%ADD25RoundRect,0.305575X0.460025X0.412525X-0.460025X0.412525X-0.460025X-0.412525X0.460025X-0.412525X0*%
%TD*%
%TA.AperFunction,SMDPad,CuDef*%
%ADD26RoundRect,0.308511X0.457089X0.416489X-0.457089X0.416489X-0.457089X-0.416489X0.457089X-0.416489X0*%
%TD*%
%TA.AperFunction,SMDPad,CuDef*%
%ADD27RoundRect,0.278125X0.389375X-0.474375X0.389375X0.474375X-0.389375X0.474375X-0.389375X-0.474375X0*%
%TD*%
%TA.AperFunction,SMDPad,CuDef*%
%ADD28RoundRect,0.305575X-0.412525X0.460025X-0.412525X-0.460025X0.412525X-0.460025X0.412525X0.460025X0*%
%TD*%
%TA.AperFunction,SMDPad,CuDef*%
%ADD29RoundRect,0.308511X-0.416489X0.457089X-0.416489X-0.457089X0.416489X-0.457089X0.416489X0.457089X0*%
%TD*%
%TA.AperFunction,SMDPad,CuDef*%
%ADD30RoundRect,0.278125X0.474375X0.389375X-0.474375X0.389375X-0.474375X-0.389375X0.474375X-0.389375X0*%
%TD*%
%TA.AperFunction,SMDPad,CuDef*%
%ADD31RoundRect,0.305575X0.412525X-0.460025X0.412525X0.460025X-0.412525X0.460025X-0.412525X-0.460025X0*%
%TD*%
%TA.AperFunction,SMDPad,CuDef*%
%ADD32RoundRect,0.308511X0.416489X-0.457089X0.416489X0.457089X-0.416489X0.457089X-0.416489X-0.457089X0*%
%TD*%
%TA.AperFunction,ViaPad*%
%ADD33C,0.600000*%
%TD*%
%TA.AperFunction,Conductor*%
%ADD34C,0.250000*%
%TD*%
%TA.AperFunction,Conductor*%
%ADD35C,0.500000*%
%TD*%
%TA.AperFunction,Conductor*%
%ADD36C,0.200000*%
%TD*%
G04 APERTURE END LIST*
D10*
%TO.P,J8,1,MISO_1*%
%TO.N,MISO*%
X81975000Y-107210000D03*
D11*
%TO.P,J8,2,VCC_2*%
%TO.N,+5V*%
X84515000Y-107210000D03*
%TO.P,J8,3,SCK_3*%
%TO.N,SCK*%
X81975000Y-109750000D03*
%TO.P,J8,4,MOSI_4*%
%TO.N,MOSI*%
X84515000Y-109750000D03*
%TO.P,J8,5,~{RST}_5*%
%TO.N,RST*%
X81975000Y-112290000D03*
%TO.P,J8,6,GND_6*%
%TO.N,GND*%
X84515000Y-112290000D03*
%TD*%
D12*
%TO.P,Y1,1,1_1*%
%TO.N,XTAL2*%
X72606719Y-87700000D03*
%TO.P,Y1,2,2_2*%
%TO.N,XTAL1*%
X77686719Y-87700000D03*
%TD*%
D13*
%TO.P,J14,1,Pin_1_1*%
%TO.N,+12V*%
X53585000Y-136500000D03*
D14*
%TO.P,J14,2,Pin_2_2*%
%TO.N,CHARGER_ERR_12V*%
X53585000Y-133500000D03*
%TD*%
D13*
%TO.P,J6,1,Pin_1_1*%
%TO.N,CHARGING_ENABLE*%
X53585000Y-90250000D03*
D14*
%TO.P,J6,2,Pin_2_2*%
%TO.N,+12V*%
X53585000Y-87250000D03*
%TD*%
D13*
%TO.P,J10,1,Pin_1_1*%
%TO.N,+12V*%
X53585000Y-78500000D03*
D14*
%TO.P,J10,2,Pin_2_2*%
X53585000Y-75500000D03*
%TO.P,J10,3,Pin_3_3*%
X53585000Y-72500000D03*
%TO.P,J10,4,Pin_4_4*%
X53585000Y-69500000D03*
%TO.P,J10,5,Pin_5_5*%
X53585000Y-66500000D03*
%TO.P,J10,6,Pin_6_6*%
X53585000Y-63500000D03*
%TD*%
D13*
%TO.P,J15,1,Pin_1_1*%
%TO.N,SDC_IN*%
X53585000Y-101750000D03*
D14*
%TO.P,J15,2,Pin_2_2*%
X53585000Y-98750000D03*
%TD*%
D15*
%TO.P,J12,1,Pin_1_1*%
%TO.N,TS-*%
X140035000Y-92750000D03*
D14*
%TO.P,J12,2,Pin_2_2*%
X140035000Y-95750000D03*
%TD*%
D13*
%TO.P,J13,1,Pin_1_1*%
%TO.N,+12V*%
X53585000Y-125000000D03*
D14*
%TO.P,J13,2,Pin_2_2*%
%TO.N,HV_ON*%
X53585000Y-122000000D03*
%TD*%
D16*
%TO.P,J11,1,Pin_1_1*%
%TO.N,Net-(J11-Pin_1)*%
X123250000Y-59715000D03*
D17*
%TO.P,J11,2,Pin_2_2*%
X126250000Y-59715000D03*
%TD*%
D18*
%TO.P,J5,1,Pin_1_1*%
%TO.N,AMP_VCC*%
X95000000Y-146415000D03*
D17*
%TO.P,J5,2,Pin_2_2*%
%TO.N,AMP_SIGNAL*%
X92000000Y-146415000D03*
%TO.P,J5,3,Pin_3_3*%
%TO.N,AMP_GND*%
X89000000Y-146415000D03*
%TD*%
D15*
%TO.P,J7,1,Pin_1_1*%
%TO.N,RSNS-*%
X140260525Y-106000000D03*
D14*
%TO.P,J7,2,Pin_2_2*%
%TO.N,RSNS+*%
X140260525Y-109000000D03*
%TD*%
D19*
%TO.P,J17,1,Pin_1_1*%
%TO.N,CANL*%
X63750000Y-145475000D03*
D20*
%TO.P,J17,2,Pin_2_2*%
%TO.N,CANH*%
X66250000Y-145475000D03*
%TD*%
D18*
%TO.P,J9,1,Pin_1_1*%
%TO.N,GND*%
X95000000Y-54415000D03*
D17*
%TO.P,J9,2,Pin_2_2*%
X92000000Y-54415000D03*
%TO.P,J9,3,Pin_3_3*%
X89000000Y-54415000D03*
%TO.P,J9,4,Pin_4_4*%
X86000000Y-54415000D03*
%TO.P,J9,5,Pin_5_5*%
X83000000Y-54415000D03*
%TO.P,J9,6,Pin_6_6*%
X80000000Y-54415000D03*
%TD*%
D13*
%TO.P,J16,1,Pin_1_1*%
%TO.N,+12V*%
X53585000Y-113500000D03*
D14*
%TO.P,J16,2,Pin_2_2*%
%TO.N,HV_RELAY_AUX*%
X53585000Y-110500000D03*
%TD*%
D12*
%TO.P,Y2,1,1_1*%
%TO.N,Net-(U2-OSC1)*%
X82693282Y-135250000D03*
%TO.P,Y2,2,2_2*%
%TO.N,Net-(U2-OSC2)*%
X77613282Y-135250000D03*
%TD*%
D18*
%TO.P,J4,1,Pin_1_1*%
%TO.N,VOLT_VCC*%
X80250000Y-146415000D03*
D17*
%TO.P,J4,2,Pin_2_2*%
%TO.N,VOLT_SIGNAL*%
X77250000Y-146415000D03*
%TO.P,J4,3,Pin_3_3*%
%TO.N,VOLT_GND*%
X74250000Y-146415000D03*
%TD*%
D21*
%TO.P,C1,1*%
%TO.N,GND*%
X72784400Y-98756900D03*
D22*
%TO.P,C1,2*%
%TO.N,+5V*%
X75215600Y-98750000D03*
%TD*%
D23*
%TO.P,R12,1*%
%TO.N,HV_ON_5V*%
X72217500Y-114347500D03*
%TO.P,R12,2*%
%TO.N,Net-(Q1-B)*%
X72217500Y-116652500D03*
%TD*%
D24*
%TO.P,R21,1*%
%TO.N,SDC_IN*%
X61347500Y-81282500D03*
%TO.P,R21,2*%
%TO.N,Net-(CA2-Pad1)*%
X63652500Y-81282500D03*
%TD*%
D25*
%TO.P,C9,1*%
%TO.N,GND*%
X85815601Y-139010600D03*
D26*
%TO.P,C9,2*%
%TO.N,Net-(U2-OSC1)*%
X83384401Y-139017500D03*
%TD*%
D25*
%TO.P,C4,1*%
%TO.N,GND*%
X86965600Y-99243100D03*
D26*
%TO.P,C4,2*%
%TO.N,RST*%
X84534400Y-99250000D03*
%TD*%
D25*
%TO.P,CA2,1*%
%TO.N,Net-(CA2-Pad1)*%
X63715600Y-77243100D03*
D26*
%TO.P,CA2,2*%
%TO.N,GND*%
X61284400Y-77250000D03*
%TD*%
D27*
%TO.P,R7,1*%
%TO.N,Net-(U2-~{RESET})*%
X75532500Y-127805000D03*
%TO.P,R7,2*%
%TO.N,+5V*%
X75532500Y-125500000D03*
%TD*%
D24*
%TO.P,R24,1*%
%TO.N,GND*%
X56847500Y-79282500D03*
%TO.P,R24,2*%
%TO.N,Net-(CA1-Pad2)*%
X59152500Y-79282500D03*
%TD*%
D21*
%TO.P,CA1,1*%
%TO.N,GND*%
X56784400Y-77256900D03*
D22*
%TO.P,CA1,2*%
%TO.N,Net-(CA1-Pad2)*%
X59215600Y-77250000D03*
%TD*%
D25*
%TO.P,C3,1*%
%TO.N,GND*%
X80715600Y-94243100D03*
D26*
%TO.P,C3,2*%
%TO.N,+5V*%
X78284400Y-94250000D03*
%TD*%
D21*
%TO.P,C8,1*%
%TO.N,GND*%
X74584401Y-139024400D03*
D22*
%TO.P,C8,2*%
%TO.N,Net-(U2-OSC2)*%
X77015601Y-139017500D03*
%TD*%
D27*
%TO.P,R5,1*%
%TO.N,CAN0_CS*%
X77532500Y-127805000D03*
%TO.P,R5,2*%
%TO.N,+5V*%
X77532500Y-125500000D03*
%TD*%
D23*
%TO.P,R16,1*%
%TO.N,CHARGER_ERR*%
X70967500Y-126097500D03*
%TO.P,R16,2*%
%TO.N,Net-(Q3-B)*%
X70967500Y-128402500D03*
%TD*%
D28*
%TO.P,C29,1*%
%TO.N,+5V*%
X94243100Y-116534400D03*
D29*
%TO.P,C29,2*%
%TO.N,GND*%
X94250000Y-118965600D03*
%TD*%
D30*
%TO.P,R6,1*%
%TO.N,Net-(U2-OSC1)*%
X81402500Y-138967500D03*
%TO.P,R6,2*%
%TO.N,Net-(U2-OSC2)*%
X79097500Y-138967500D03*
%TD*%
D24*
%TO.P,R4,1*%
%TO.N,RST*%
X84597500Y-97282500D03*
%TO.P,R4,2*%
%TO.N,+5V*%
X86902500Y-97282500D03*
%TD*%
D31*
%TO.P,C10,1*%
%TO.N,GND*%
X73506900Y-127931200D03*
D32*
%TO.P,C10,2*%
%TO.N,+5V*%
X73500000Y-125500000D03*
%TD*%
D31*
%TO.P,C34,1*%
%TO.N,+5V*%
X91006900Y-107215600D03*
D32*
%TO.P,C34,2*%
%TO.N,GND*%
X91000000Y-104784400D03*
%TD*%
D21*
%TO.P,C7,1*%
%TO.N,GND*%
X73534400Y-94256900D03*
D22*
%TO.P,C7,2*%
%TO.N,+5V*%
X75965600Y-94250000D03*
%TD*%
D24*
%TO.P,R20,1*%
%TO.N,CHARGING_ENABLE*%
X56847500Y-81282500D03*
%TO.P,R20,2*%
%TO.N,Net-(CA1-Pad2)*%
X59152500Y-81282500D03*
%TD*%
D21*
%TO.P,CA3,1*%
%TO.N,Net-(CA3-Pad1)*%
X65784400Y-77256900D03*
D22*
%TO.P,CA3,2*%
%TO.N,GND*%
X68215600Y-77250000D03*
%TD*%
D31*
%TO.P,C33,1*%
%TO.N,+5V*%
X93006900Y-107215600D03*
D32*
%TO.P,C33,2*%
%TO.N,GND*%
X93000000Y-104784400D03*
%TD*%
D28*
%TO.P,C32,1*%
%TO.N,+5V*%
X96243100Y-91534400D03*
D29*
%TO.P,C32,2*%
%TO.N,GND*%
X96250000Y-93965600D03*
%TD*%
D30*
%TO.P,R22,1*%
%TO.N,HV_RELAY_AUX*%
X68152500Y-81217500D03*
%TO.P,R22,2*%
%TO.N,Net-(CA3-Pad1)*%
X65847500Y-81217500D03*
%TD*%
D25*
%TO.P,C11,1*%
%TO.N,GND*%
X66215600Y-135243100D03*
D26*
%TO.P,C11,2*%
%TO.N,+5V*%
X63784400Y-135250000D03*
%TD*%
D28*
%TO.P,C30,1*%
%TO.N,+5V*%
X94243100Y-91534400D03*
D29*
%TO.P,C30,2*%
%TO.N,GND*%
X94250000Y-93965600D03*
%TD*%
D30*
%TO.P,R25,1*%
%TO.N,Net-(CA2-Pad1)*%
X63652500Y-79217500D03*
%TO.P,R25,2*%
%TO.N,GND*%
X61347500Y-79217500D03*
%TD*%
D28*
%TO.P,C31,1*%
%TO.N,+5V*%
X96243100Y-116534400D03*
D29*
%TO.P,C31,2*%
%TO.N,GND*%
X96250000Y-118965600D03*
%TD*%
D24*
%TO.P,R26,1*%
%TO.N,Net-(CA3-Pad1)*%
X65847500Y-79282500D03*
%TO.P,R26,2*%
%TO.N,GND*%
X68152500Y-79282500D03*
%TD*%
D25*
%TO.P,C2,1*%
%TO.N,GND*%
X79715600Y-98743100D03*
D26*
%TO.P,C2,2*%
%TO.N,+5V*%
X77284400Y-98750000D03*
%TD*%
D33*
%TO.N,MISO*%
X77275000Y-107000000D03*
X73750000Y-100250000D03*
%TO.N,+5V*%
X84034400Y-75493100D03*
X64803646Y-103902500D03*
X73500000Y-125500000D03*
X96190000Y-89655000D03*
X98965600Y-128750000D03*
X75215600Y-98750000D03*
X69250000Y-75000000D03*
X59782500Y-103902500D03*
X78284400Y-94250000D03*
X95260000Y-78857000D03*
X62282500Y-103902500D03*
X63784400Y-135250000D03*
X96190000Y-114655000D03*
X96000000Y-132830200D03*
X75965600Y-94250000D03*
X94615200Y-107905000D03*
X77284400Y-98750000D03*
%TO.N,SCK*%
X79225000Y-109750000D03*
%TO.N,MOSI*%
X77925000Y-108500000D03*
%TO.N,RST*%
X80250000Y-105250000D03*
X84600000Y-96000000D03*
%TO.N,GND*%
X72250000Y-76250000D03*
X66250000Y-74000000D03*
X72250000Y-73250000D03*
X87500000Y-127500000D03*
X85750000Y-111000000D03*
X58500000Y-115000000D03*
X72250000Y-68750000D03*
X71250000Y-59534400D03*
X75500000Y-123750000D03*
X66250000Y-72500000D03*
X72250000Y-68000000D03*
X85750000Y-113500000D03*
X72250000Y-74000000D03*
X62750000Y-55034400D03*
X65500000Y-110250000D03*
X78250000Y-74000000D03*
X79750000Y-76250000D03*
X63635000Y-91389200D03*
X94500000Y-135750000D03*
X90000000Y-125000000D03*
X66215600Y-135243100D03*
X62000000Y-63700000D03*
X66250000Y-71000000D03*
X92000000Y-138250000D03*
X66250000Y-69500000D03*
X72250000Y-72500000D03*
X65532500Y-124097500D03*
X87750000Y-95000000D03*
X93000000Y-97784400D03*
X91000000Y-97784400D03*
X75000000Y-59500000D03*
X65500000Y-122000000D03*
X58555000Y-99110800D03*
X72500000Y-118500000D03*
X75250000Y-74000000D03*
X82500000Y-124250000D03*
X92400000Y-96000000D03*
X72500000Y-123750000D03*
X82000000Y-105250000D03*
X58597500Y-128532500D03*
X90250000Y-101750000D03*
X58500000Y-126750000D03*
X86250000Y-93250000D03*
X89750000Y-138250000D03*
X92000000Y-135750000D03*
X86250000Y-95000000D03*
X87669800Y-132169800D03*
X58597500Y-116782500D03*
X66175000Y-99110800D03*
X63500000Y-110250000D03*
X72250000Y-65750000D03*
X89750000Y-135750000D03*
X90250000Y-95000000D03*
X82500000Y-126750000D03*
X63500000Y-122000000D03*
X85000000Y-124250000D03*
X85000000Y-126750000D03*
X82500000Y-130500000D03*
X66175000Y-91389200D03*
X64756900Y-55034400D03*
X73750000Y-76250000D03*
X66250000Y-67250000D03*
X66250000Y-70250000D03*
X72250000Y-67250000D03*
X65250000Y-63250000D03*
X66784400Y-63943100D03*
X66250000Y-65750000D03*
X73250000Y-59534400D03*
X72242456Y-106250000D03*
X78250000Y-76250000D03*
X64250000Y-63250000D03*
X96190000Y-95880000D03*
X72250000Y-69500000D03*
X58500000Y-110250000D03*
X76750000Y-74000000D03*
X72250000Y-71750000D03*
X84500000Y-105250000D03*
X96190000Y-120880000D03*
X85000000Y-130500000D03*
X73750000Y-74000000D03*
X61095000Y-91389200D03*
X87750000Y-101750000D03*
X69750000Y-106250000D03*
X66250000Y-66500000D03*
X87000000Y-100750000D03*
X75500000Y-118500000D03*
X83750000Y-93250000D03*
X66250000Y-68000000D03*
X74500000Y-118500000D03*
X65532500Y-112347500D03*
X63350000Y-112550000D03*
X72250000Y-66500000D03*
X83250000Y-113500000D03*
X72250000Y-105011289D03*
X66250000Y-68750000D03*
X80250000Y-123750000D03*
X87669800Y-132830200D03*
X74500000Y-123750000D03*
X94615200Y-104095000D03*
X80250000Y-118500000D03*
X79715600Y-98743100D03*
X75250000Y-76250000D03*
X61095000Y-99110800D03*
X91750000Y-132500000D03*
X58500000Y-112500000D03*
X69750000Y-105000000D03*
X94500000Y-138250000D03*
X66250000Y-71750000D03*
X79750000Y-74000000D03*
X72250000Y-70250000D03*
X63350000Y-124300000D03*
X92500000Y-127500000D03*
X67152500Y-61467500D03*
X66250000Y-73250000D03*
X76750000Y-76250000D03*
X72250000Y-71000000D03*
X63635000Y-99110800D03*
X75250000Y-87500000D03*
%TO.N,+5VL*%
X109784400Y-91243100D03*
X107000000Y-84493100D03*
X104835000Y-80250000D03*
%TO.N,TS-*%
X112215600Y-77500000D03*
X112215600Y-83000000D03*
%TO.N,+12V*%
X69902500Y-111250000D03*
X55500000Y-111250000D03*
X69902500Y-123000000D03*
%TO.N,Net-(Q3-B)*%
X71250000Y-128450000D03*
%TO.N,Net-(U4-SW)*%
X73250000Y-56750000D03*
X67215000Y-56750000D03*
%TO.N,GND1*%
X105284400Y-112000000D03*
X105284400Y-110000000D03*
X105384800Y-104095000D03*
X106250000Y-118965600D03*
%TO.N,CHARGER_ERR*%
X73050000Y-96100000D03*
%TO.N,HV_ON_5V*%
X73050000Y-96900000D03*
%TO.N,CAN0_CS*%
X77500000Y-128000000D03*
%TO.N,Net-(CA1-Pad2)*%
X58690000Y-83870000D03*
%TO.N,Net-(CA2-Pad1)*%
X61230000Y-83870000D03*
%TO.N,Net-(CA3-Pad1)*%
X63770000Y-83870000D03*
%TO.N,Net-(U4-FB)*%
X69000000Y-57700000D03*
X64847500Y-59582500D03*
%TO.N,Net-(U2-~{RESET})*%
X75782500Y-127805000D03*
%TO.N,Net-(Q1-B)*%
X72000000Y-116700000D03*
%TD*%
%TO.N,MISO*%
D34*
X77275000Y-103775000D02*
X73750000Y-100250000D01*
X81765000Y-107000000D02*
X81975000Y-107210000D01*
X77275000Y-107000000D02*
X77275000Y-103775000D01*
X77275000Y-107000000D02*
X81765000Y-107000000D01*
%TO.N,+5V*%
D35*
X62282500Y-103902500D02*
X59782500Y-103902500D01*
X88000000Y-125500000D02*
X91250000Y-128750000D01*
X87750000Y-107210000D02*
X87750000Y-116500000D01*
D34*
X96243100Y-116534400D02*
X96243100Y-114708100D01*
X63784400Y-132465600D02*
X65000000Y-131250000D01*
D35*
X84034400Y-75493100D02*
X87398300Y-78857000D01*
D34*
X87784400Y-116534400D02*
X87750000Y-116500000D01*
D35*
X94243100Y-78857000D02*
X94243100Y-91534400D01*
D34*
X93006900Y-107215600D02*
X91006900Y-107215600D01*
X63784400Y-135250000D02*
X63784400Y-132465600D01*
D35*
X84515000Y-107210000D02*
X87750000Y-107210000D01*
X71500000Y-92000000D02*
X68250000Y-95250000D01*
D34*
X94615200Y-107905000D02*
X93925800Y-107215600D01*
X96000000Y-132830200D02*
X98965600Y-129864600D01*
D35*
X87750000Y-116500000D02*
X87750000Y-125500000D01*
X62282500Y-103902500D02*
X64803646Y-103902500D01*
D34*
X96243100Y-91534400D02*
X96190000Y-91481300D01*
D35*
X89000000Y-97250000D02*
X89000000Y-92000000D01*
D34*
X96243100Y-116534400D02*
X94243100Y-116534400D01*
X96190000Y-91481300D02*
X96190000Y-89655000D01*
X72250000Y-125750000D02*
X72500000Y-125500000D01*
D35*
X91250000Y-128750000D02*
X98965600Y-128750000D01*
X66097500Y-103902500D02*
X64803646Y-103902500D01*
X84034400Y-75493100D02*
X83541300Y-75000000D01*
X87750000Y-125500000D02*
X77532500Y-125500000D01*
D34*
X96250000Y-90820000D02*
X96190000Y-90880000D01*
D35*
X87750000Y-107210000D02*
X91001300Y-107210000D01*
X91001300Y-107210000D02*
X91006900Y-107215600D01*
D34*
X65000000Y-131250000D02*
X71750000Y-131250000D01*
D35*
X68250000Y-95250000D02*
X68250000Y-101750000D01*
D34*
X77284400Y-98750000D02*
X75215600Y-98750000D01*
X75215600Y-96884400D02*
X75215600Y-98750000D01*
X75965600Y-96134400D02*
X75215600Y-96884400D01*
D35*
X83541300Y-75000000D02*
X69250000Y-75000000D01*
X89465600Y-91534400D02*
X94243100Y-91534400D01*
D34*
X72500000Y-125500000D02*
X73500000Y-125500000D01*
X98965600Y-129864600D02*
X98965600Y-128750000D01*
D35*
X68250000Y-101750000D02*
X66097500Y-103902500D01*
D34*
X93925800Y-107215600D02*
X93006900Y-107215600D01*
X78284400Y-94250000D02*
X75965600Y-94250000D01*
D35*
X77532500Y-125500000D02*
X75532500Y-125500000D01*
D34*
X78284400Y-94250000D02*
X78284400Y-92000000D01*
X96243100Y-91534400D02*
X94243100Y-91534400D01*
D35*
X89000000Y-92000000D02*
X71500000Y-92000000D01*
D34*
X94243100Y-116534400D02*
X87784400Y-116534400D01*
X75965600Y-94250000D02*
X75965600Y-96134400D01*
D35*
X87750000Y-125500000D02*
X88000000Y-125500000D01*
D34*
X71750000Y-131250000D02*
X72250000Y-130750000D01*
X88967500Y-97282500D02*
X89000000Y-97250000D01*
D35*
X87398300Y-78857000D02*
X95260000Y-78857000D01*
X89000000Y-107215600D02*
X89000000Y-97250000D01*
X89000000Y-92000000D02*
X89465600Y-91534400D01*
D34*
X72250000Y-130750000D02*
X72250000Y-125750000D01*
D35*
X75532500Y-125500000D02*
X73500000Y-125500000D01*
D34*
X86902500Y-97282500D02*
X88967500Y-97282500D01*
%TO.N,SCK*%
X81975000Y-109750000D02*
X79225000Y-109750000D01*
%TO.N,MOSI*%
X83265000Y-108500000D02*
X77925000Y-108500000D01*
X84515000Y-109750000D02*
X83265000Y-108500000D01*
%TO.N,RST*%
X80250000Y-105250000D02*
X84534400Y-100965600D01*
X84534400Y-100965600D02*
X84534400Y-99250000D01*
X84597500Y-97282500D02*
X84597500Y-99186900D01*
X84597500Y-99186900D02*
X84534400Y-99250000D01*
X84600000Y-96000000D02*
X84600000Y-97280000D01*
X84600000Y-97280000D02*
X84597500Y-97282500D01*
%TO.N,GND*%
X96250000Y-118965600D02*
X96250000Y-120820000D01*
X93925800Y-104784400D02*
X94615200Y-104095000D01*
X93000000Y-104784400D02*
X93925800Y-104784400D01*
X96250000Y-93965600D02*
X96250000Y-95820000D01*
%TO.N,+5VL*%
D35*
X104835000Y-82328100D02*
X104835000Y-80250000D01*
X107000000Y-84493100D02*
X104835000Y-82328100D01*
X107000000Y-84493100D02*
X109784400Y-87277500D01*
X109784400Y-87277500D02*
X109784400Y-91243100D01*
%TO.N,TS-*%
X112215600Y-77500000D02*
X112215600Y-83000000D01*
%TO.N,+12V*%
X55000000Y-136500000D02*
X53585000Y-136500000D01*
X55500000Y-136000000D02*
X55000000Y-136500000D01*
X69902500Y-111250000D02*
X69902500Y-123000000D01*
X55500000Y-125000000D02*
X55500000Y-136000000D01*
X55500000Y-113500000D02*
X55500000Y-125000000D01*
X55500000Y-111250000D02*
X69902500Y-111250000D01*
X55500000Y-111250000D02*
X55500000Y-113500000D01*
X55500000Y-125000000D02*
X53585000Y-125000000D01*
X55500000Y-113500000D02*
X53585000Y-113500000D01*
%TO.N,CHARGING_ENABLE*%
D34*
X56750000Y-81380000D02*
X56750000Y-89000000D01*
X56815000Y-81250000D02*
X56847500Y-81282500D01*
X55500000Y-90250000D02*
X53585000Y-90250000D01*
X56750000Y-89000000D02*
X55500000Y-90250000D01*
X56847500Y-81282500D02*
X56750000Y-81380000D01*
%TO.N,Net-(U4-SW)*%
D36*
X67215000Y-56750000D02*
X73250000Y-56750000D01*
%TO.N,SDC_IN*%
D34*
X55500000Y-98750000D02*
X57250000Y-97000000D01*
X53585000Y-98750000D02*
X55500000Y-98750000D01*
X61347500Y-82237500D02*
X61347500Y-81282500D01*
X57250000Y-97000000D02*
X57250000Y-86335000D01*
X57250000Y-86335000D02*
X61347500Y-82237500D01*
%TO.N,GND1*%
X105284400Y-110000000D02*
X105384800Y-109899600D01*
X105384800Y-109899600D02*
X105384800Y-104095000D01*
X105284400Y-118000000D02*
X106250000Y-118965600D01*
X105284400Y-112000000D02*
X105284400Y-118000000D01*
%TO.N,CHARGER_ERR*%
X70967500Y-125847500D02*
X70750000Y-125630000D01*
X70750000Y-97375000D02*
X72025000Y-96100000D01*
X70750000Y-125630000D02*
X70750000Y-97375000D01*
X72025000Y-96100000D02*
X73050000Y-96100000D01*
X70967500Y-126097500D02*
X70967500Y-125847500D01*
%TO.N,HV_ON_5V*%
X71250000Y-97625000D02*
X71975000Y-96900000D01*
X72217500Y-112206104D02*
X71250000Y-111238604D01*
X72217500Y-114347500D02*
X72217500Y-112206104D01*
X71975000Y-96900000D02*
X73050000Y-96900000D01*
X71250000Y-111238604D02*
X71250000Y-97625000D01*
%TO.N,Net-(CA1-Pad2)*%
X59152500Y-81282500D02*
X59152500Y-83407500D01*
X59152500Y-77313100D02*
X59215600Y-77250000D01*
X59152500Y-83407500D02*
X58690000Y-83870000D01*
X59152500Y-79282500D02*
X59152500Y-81282500D01*
X59152500Y-79282500D02*
X59152500Y-77313100D01*
%TO.N,Net-(CA2-Pad1)*%
X63652500Y-77306200D02*
X63715600Y-77243100D01*
X63652500Y-81282500D02*
X63652500Y-82347500D01*
X63652500Y-79217500D02*
X63652500Y-81282500D01*
X62130000Y-83870000D02*
X61230000Y-83870000D01*
X63652500Y-82347500D02*
X62130000Y-83870000D01*
X63652500Y-79217500D02*
X63652500Y-77306200D01*
%TO.N,Net-(CA3-Pad1)*%
X65847500Y-77320000D02*
X65784400Y-77256900D01*
X65847500Y-79282500D02*
X65847500Y-77320000D01*
X65847500Y-82402500D02*
X64380000Y-83870000D01*
X65847500Y-81217500D02*
X65847500Y-82402500D01*
X65847500Y-79282500D02*
X65847500Y-81217500D01*
X64380000Y-83870000D02*
X63770000Y-83870000D01*
%TO.N,Net-(U4-FB)*%
D36*
X64847500Y-59582500D02*
X67117500Y-59582500D01*
X67117500Y-59582500D02*
X69000000Y-57700000D01*
%TO.N,HV_RELAY_AUX*%
D34*
X55500000Y-110500000D02*
X57750000Y-108250000D01*
X57750000Y-108250000D02*
X57750000Y-92850000D01*
X53585000Y-110500000D02*
X55500000Y-110500000D01*
X68152500Y-82447500D02*
X68152500Y-81217500D01*
X57750000Y-92850000D02*
X68152500Y-82447500D01*
%TO.N,Net-(U2-OSC1)*%
D36*
X83384401Y-135941119D02*
X82693282Y-135250000D01*
X83384401Y-139017500D02*
X83384401Y-135941119D01*
X81402500Y-138967500D02*
X83334401Y-138967500D01*
X83334401Y-138967500D02*
X83384401Y-139017500D01*
%TO.N,Net-(U2-OSC2)*%
X77015601Y-139017500D02*
X77015601Y-135847681D01*
X77015601Y-139017500D02*
X79047500Y-139017500D01*
X77015601Y-135847681D02*
X77613282Y-135250000D01*
X79047500Y-139017500D02*
X79097500Y-138967500D01*
%TD*%
%TA.AperFunction,Conductor*%
%TO.N,GND*%
G36*
X99943039Y-50520185D02*
G01*
X99988794Y-50572989D01*
X100000000Y-50624500D01*
X100000000Y-128588058D01*
X99980315Y-128655097D01*
X99927511Y-128700852D01*
X99858353Y-128710796D01*
X99794797Y-128681771D01*
X99757023Y-128622993D01*
X99754383Y-128612250D01*
X99735338Y-128516508D01*
X99735337Y-128516507D01*
X99735337Y-128516503D01*
X99695136Y-128419448D01*
X99674997Y-128370827D01*
X99674990Y-128370814D01*
X99587389Y-128239711D01*
X99587386Y-128239707D01*
X99475892Y-128128213D01*
X99475888Y-128128210D01*
X99344785Y-128040609D01*
X99344772Y-128040602D01*
X99199101Y-127980264D01*
X99199089Y-127980261D01*
X99044445Y-127949500D01*
X99044442Y-127949500D01*
X98886758Y-127949500D01*
X98886755Y-127949500D01*
X98732111Y-127980260D01*
X98732106Y-127980262D01*
X98732104Y-127980262D01*
X98732103Y-127980263D01*
X98708444Y-127990062D01*
X98660996Y-127999500D01*
X91612230Y-127999500D01*
X91545191Y-127979815D01*
X91524549Y-127963181D01*
X88536819Y-124975451D01*
X88503334Y-124914128D01*
X88500500Y-124887770D01*
X88500500Y-119468102D01*
X93025001Y-119468102D01*
X93040281Y-119603735D01*
X93100457Y-119775708D01*
X93197391Y-119929976D01*
X93326223Y-120058808D01*
X93480491Y-120155742D01*
X93652459Y-120215916D01*
X93652467Y-120215918D01*
X93788100Y-120231199D01*
X93999999Y-120231199D01*
X94500000Y-120231199D01*
X94711895Y-120231199D01*
X94711902Y-120231198D01*
X94847535Y-120215918D01*
X95019508Y-120155742D01*
X95179674Y-120055103D01*
X95180536Y-120056475D01*
X95237360Y-120033270D01*
X95306057Y-120046018D01*
X95320287Y-120055163D01*
X95320326Y-120055103D01*
X95480491Y-120155742D01*
X95652459Y-120215916D01*
X95652467Y-120215918D01*
X95788100Y-120231199D01*
X95999999Y-120231199D01*
X96500000Y-120231199D01*
X96711895Y-120231199D01*
X96711902Y-120231198D01*
X96847535Y-120215918D01*
X97019508Y-120155742D01*
X97173776Y-120058808D01*
X97302608Y-119929976D01*
X97399542Y-119775708D01*
X97459716Y-119603740D01*
X97459718Y-119603732D01*
X97474999Y-119468101D01*
X97475000Y-119468097D01*
X97475000Y-119215600D01*
X96500000Y-119215600D01*
X96500000Y-120231199D01*
X95999999Y-120231199D01*
X96000000Y-120231198D01*
X96000000Y-119215600D01*
X94500000Y-119215600D01*
X94500000Y-120231199D01*
X93999999Y-120231199D01*
X94000000Y-120231198D01*
X94000000Y-119215600D01*
X93025001Y-119215600D01*
X93025001Y-119468102D01*
X88500500Y-119468102D01*
X88500500Y-117283900D01*
X88520185Y-117216861D01*
X88572989Y-117171106D01*
X88624500Y-117159900D01*
X92946495Y-117159900D01*
X93013534Y-117179585D01*
X93059289Y-117232389D01*
X93063536Y-117242945D01*
X93099729Y-117346378D01*
X93099731Y-117346381D01*
X93196372Y-117500185D01*
X93324815Y-117628628D01*
X93345492Y-117641620D01*
X93352396Y-117645958D01*
X93398687Y-117698293D01*
X93409335Y-117767346D01*
X93380960Y-117831195D01*
X93352396Y-117855946D01*
X93326223Y-117872391D01*
X93197391Y-118001223D01*
X93100457Y-118155491D01*
X93040283Y-118327459D01*
X93040281Y-118327467D01*
X93025000Y-118463098D01*
X93025000Y-118715600D01*
X97474999Y-118715600D01*
X97474999Y-118463105D01*
X97474998Y-118463097D01*
X97459718Y-118327464D01*
X97399542Y-118155491D01*
X97302608Y-118001223D01*
X97173776Y-117872391D01*
X97140703Y-117851610D01*
X97094412Y-117799275D01*
X97083763Y-117730222D01*
X97112139Y-117666374D01*
X97140700Y-117641625D01*
X97161385Y-117628628D01*
X97289828Y-117500185D01*
X97386469Y-117346381D01*
X97446463Y-117174929D01*
X97446951Y-117170604D01*
X97461699Y-117039703D01*
X97461700Y-117039697D01*
X97461699Y-116029104D01*
X97451156Y-115935522D01*
X97446464Y-115893875D01*
X97446461Y-115893863D01*
X97386470Y-115722421D01*
X97340041Y-115648529D01*
X97289828Y-115568615D01*
X97161385Y-115440172D01*
X97007583Y-115343532D01*
X97007584Y-115343532D01*
X96951643Y-115323957D01*
X96932653Y-115310336D01*
X96911397Y-115300629D01*
X96904793Y-115290352D01*
X96894868Y-115283234D01*
X96886257Y-115261510D01*
X96873623Y-115241851D01*
X96870867Y-115222683D01*
X96869122Y-115218281D01*
X96868600Y-115206916D01*
X96868600Y-115117879D01*
X96888285Y-115050840D01*
X96889441Y-115049073D01*
X96899394Y-115034179D01*
X96959737Y-114888497D01*
X96990500Y-114733842D01*
X96990500Y-114576158D01*
X96990500Y-114576155D01*
X96990499Y-114576153D01*
X96959738Y-114421510D01*
X96959737Y-114421503D01*
X96917418Y-114319334D01*
X96899397Y-114275827D01*
X96899390Y-114275814D01*
X96811789Y-114144711D01*
X96811786Y-114144707D01*
X96700292Y-114033213D01*
X96700288Y-114033210D01*
X96569185Y-113945609D01*
X96569172Y-113945602D01*
X96423501Y-113885264D01*
X96423489Y-113885261D01*
X96268845Y-113854500D01*
X96268842Y-113854500D01*
X96111158Y-113854500D01*
X96111155Y-113854500D01*
X95956510Y-113885261D01*
X95956498Y-113885264D01*
X95810827Y-113945602D01*
X95810814Y-113945609D01*
X95679711Y-114033210D01*
X95679707Y-114033213D01*
X95568213Y-114144707D01*
X95568210Y-114144711D01*
X95480609Y-114275814D01*
X95480602Y-114275827D01*
X95420264Y-114421498D01*
X95420261Y-114421510D01*
X95389500Y-114576153D01*
X95389500Y-114733846D01*
X95420261Y-114888489D01*
X95420264Y-114888501D01*
X95480602Y-115034172D01*
X95480609Y-115034185D01*
X95558845Y-115151272D01*
X95579723Y-115217949D01*
X95561239Y-115285329D01*
X95519167Y-115326715D01*
X95508456Y-115333090D01*
X95478619Y-115343531D01*
X95324815Y-115440172D01*
X95319309Y-115445677D01*
X95306524Y-115453288D01*
X95280552Y-115459955D01*
X95255728Y-115470091D01*
X95247225Y-115468512D01*
X95238849Y-115470663D01*
X95213393Y-115462230D01*
X95187033Y-115457336D01*
X95174707Y-115449415D01*
X95172524Y-115448692D01*
X95171380Y-115447277D01*
X95165786Y-115443682D01*
X95161385Y-115440172D01*
X95007580Y-115343530D01*
X94836123Y-115283535D01*
X94700901Y-115268300D01*
X93785301Y-115268300D01*
X93785297Y-115268301D01*
X93650075Y-115283535D01*
X93650063Y-115283538D01*
X93478621Y-115343529D01*
X93324814Y-115440172D01*
X93196372Y-115568614D01*
X93099729Y-115722421D01*
X93063536Y-115825855D01*
X93022815Y-115882631D01*
X92957862Y-115908378D01*
X92946495Y-115908900D01*
X88624500Y-115908900D01*
X88557461Y-115889215D01*
X88511706Y-115836411D01*
X88500500Y-115784900D01*
X88500500Y-108084500D01*
X88520185Y-108017461D01*
X88572989Y-107971706D01*
X88624500Y-107960500D01*
X88897930Y-107960500D01*
X88926082Y-107966100D01*
X89073918Y-107966100D01*
X89102070Y-107960500D01*
X89753312Y-107960500D01*
X89820351Y-107980185D01*
X89858045Y-108022803D01*
X89859826Y-108021685D01*
X89922113Y-108120814D01*
X89960172Y-108181385D01*
X90088615Y-108309828D01*
X90242419Y-108406469D01*
X90413871Y-108466463D01*
X90413874Y-108466463D01*
X90413876Y-108466464D01*
X90481487Y-108474081D01*
X90549103Y-108481700D01*
X91464696Y-108481699D01*
X91464698Y-108481699D01*
X91464699Y-108481698D01*
X91522299Y-108475209D01*
X91599924Y-108466464D01*
X91599927Y-108466463D01*
X91599929Y-108466463D01*
X91599931Y-108466462D01*
X91599936Y-108466461D01*
X91771378Y-108406470D01*
X91771377Y-108406470D01*
X91771381Y-108406469D01*
X91925185Y-108309828D01*
X91925192Y-108309820D01*
X91929580Y-108306322D01*
X91994264Y-108279908D01*
X92062961Y-108292659D01*
X92084220Y-108306322D01*
X92088611Y-108309824D01*
X92088615Y-108309828D01*
X92242419Y-108406469D01*
X92413871Y-108466463D01*
X92413874Y-108466463D01*
X92413876Y-108466464D01*
X92481487Y-108474081D01*
X92549103Y-108481700D01*
X93464696Y-108481699D01*
X93464698Y-108481699D01*
X93464699Y-108481698D01*
X93522299Y-108475209D01*
X93599924Y-108466464D01*
X93599927Y-108466463D01*
X93599929Y-108466463D01*
X93599931Y-108466462D01*
X93599936Y-108466461D01*
X93697126Y-108432452D01*
X93771381Y-108406469D01*
X93821516Y-108374967D01*
X93888753Y-108355966D01*
X93955588Y-108376333D01*
X93990591Y-108411070D01*
X93993407Y-108415284D01*
X93993413Y-108415292D01*
X94104907Y-108526786D01*
X94104911Y-108526789D01*
X94236014Y-108614390D01*
X94236027Y-108614397D01*
X94381698Y-108674735D01*
X94381703Y-108674737D01*
X94536353Y-108705499D01*
X94536356Y-108705500D01*
X94536358Y-108705500D01*
X94694044Y-108705500D01*
X94694045Y-108705499D01*
X94848697Y-108674737D01*
X94994379Y-108614394D01*
X95125489Y-108526789D01*
X95236989Y-108415289D01*
X95324594Y-108284179D01*
X95384937Y-108138497D01*
X95415700Y-107983842D01*
X95415700Y-107826158D01*
X95415700Y-107826155D01*
X95415699Y-107826153D01*
X95402199Y-107758283D01*
X95384937Y-107671503D01*
X95367710Y-107629912D01*
X95324597Y-107525827D01*
X95324590Y-107525814D01*
X95236989Y-107394711D01*
X95236986Y-107394707D01*
X95125492Y-107283213D01*
X95125488Y-107283210D01*
X94994385Y-107195609D01*
X94994372Y-107195602D01*
X94848701Y-107135264D01*
X94848689Y-107135261D01*
X94737485Y-107113141D01*
X94675574Y-107080756D01*
X94673995Y-107079205D01*
X94419122Y-106824332D01*
X94411660Y-106816870D01*
X94411658Y-106816867D01*
X94324533Y-106729742D01*
X94267432Y-106691588D01*
X94261220Y-106687437D01*
X94255350Y-106682348D01*
X94240500Y-106659228D01*
X94222881Y-106638146D01*
X94219970Y-106627265D01*
X94217591Y-106623560D01*
X94217592Y-106618372D01*
X94213357Y-106602540D01*
X94210263Y-106575071D01*
X94210262Y-106575069D01*
X94210262Y-106575066D01*
X94150270Y-106403621D01*
X94130896Y-106372787D01*
X94053628Y-106249815D01*
X93925185Y-106121372D01*
X93897603Y-106104041D01*
X93851313Y-106051707D01*
X93840665Y-105982654D01*
X93869040Y-105918805D01*
X93897604Y-105894054D01*
X93923776Y-105877608D01*
X94052608Y-105748776D01*
X94149542Y-105594508D01*
X94209716Y-105422540D01*
X94209718Y-105422532D01*
X94224999Y-105286901D01*
X94225000Y-105286897D01*
X94225000Y-105034400D01*
X91124000Y-105034400D01*
X91056961Y-105014715D01*
X91011206Y-104961911D01*
X91000000Y-104910400D01*
X91000000Y-104784400D01*
X90874000Y-104784400D01*
X90806961Y-104764715D01*
X90761206Y-104711911D01*
X90750000Y-104660400D01*
X90750000Y-104534400D01*
X91250000Y-104534400D01*
X92750000Y-104534400D01*
X93250000Y-104534400D01*
X94224999Y-104534400D01*
X94224999Y-104281905D01*
X94224998Y-104281897D01*
X94209718Y-104146264D01*
X94149542Y-103974291D01*
X94052608Y-103820023D01*
X93923776Y-103691191D01*
X93769508Y-103594257D01*
X93597540Y-103534083D01*
X93597532Y-103534081D01*
X93461901Y-103518800D01*
X93250000Y-103518800D01*
X93250000Y-104534400D01*
X92750000Y-104534400D01*
X92750000Y-103518800D01*
X92538103Y-103518800D01*
X92538097Y-103518801D01*
X92402464Y-103534081D01*
X92230491Y-103594257D01*
X92070326Y-103694897D01*
X92069464Y-103693526D01*
X92012623Y-103716731D01*
X91943928Y-103703973D01*
X91929711Y-103694836D01*
X91929674Y-103694897D01*
X91769508Y-103594257D01*
X91597540Y-103534083D01*
X91597532Y-103534081D01*
X91461901Y-103518800D01*
X91250000Y-103518800D01*
X91250000Y-104534400D01*
X90750000Y-104534400D01*
X90750000Y-103518800D01*
X90538103Y-103518800D01*
X90538097Y-103518801D01*
X90402464Y-103534081D01*
X90230491Y-103594257D01*
X90076223Y-103691191D01*
X89962181Y-103805234D01*
X89900858Y-103838719D01*
X89831166Y-103833735D01*
X89775233Y-103791863D01*
X89750816Y-103726399D01*
X89750500Y-103717553D01*
X89750500Y-94468102D01*
X93025001Y-94468102D01*
X93040281Y-94603735D01*
X93100457Y-94775708D01*
X93197391Y-94929976D01*
X93326223Y-95058808D01*
X93480491Y-95155742D01*
X93652459Y-95215916D01*
X93652467Y-95215918D01*
X93788100Y-95231199D01*
X93999999Y-95231199D01*
X94500000Y-95231199D01*
X94711895Y-95231199D01*
X94711902Y-95231198D01*
X94847535Y-95215918D01*
X95019508Y-95155742D01*
X95179674Y-95055103D01*
X95180536Y-95056475D01*
X95237360Y-95033270D01*
X95306057Y-95046018D01*
X95320287Y-95055163D01*
X95320326Y-95055103D01*
X95480491Y-95155742D01*
X95652459Y-95215916D01*
X95652467Y-95215918D01*
X95788100Y-95231199D01*
X95999999Y-95231199D01*
X96500000Y-95231199D01*
X96711895Y-95231199D01*
X96711902Y-95231198D01*
X96847535Y-95215918D01*
X97019508Y-95155742D01*
X97173776Y-95058808D01*
X97302608Y-94929976D01*
X97399542Y-94775708D01*
X97459716Y-94603740D01*
X97459718Y-94603732D01*
X97474999Y-94468101D01*
X97475000Y-94468097D01*
X97475000Y-94215600D01*
X96500000Y-94215600D01*
X96500000Y-95231199D01*
X95999999Y-95231199D01*
X96000000Y-95231198D01*
X96000000Y-94215600D01*
X94500000Y-94215600D01*
X94500000Y-95231199D01*
X93999999Y-95231199D01*
X94000000Y-95231198D01*
X94000000Y-94215600D01*
X93025001Y-94215600D01*
X93025001Y-94468102D01*
X89750500Y-94468102D01*
X89750500Y-92408900D01*
X89770185Y-92341861D01*
X89822989Y-92296106D01*
X89874500Y-92284900D01*
X92992568Y-92284900D01*
X93059607Y-92304585D01*
X93097562Y-92342928D01*
X93099730Y-92346378D01*
X93099731Y-92346381D01*
X93196372Y-92500185D01*
X93324815Y-92628628D01*
X93345492Y-92641620D01*
X93352396Y-92645958D01*
X93398687Y-92698293D01*
X93409335Y-92767346D01*
X93380960Y-92831195D01*
X93352396Y-92855946D01*
X93326223Y-92872391D01*
X93197391Y-93001223D01*
X93100457Y-93155491D01*
X93040283Y-93327459D01*
X93040281Y-93327467D01*
X93025000Y-93463098D01*
X93025000Y-93715600D01*
X97474999Y-93715600D01*
X97474999Y-93463105D01*
X97474998Y-93463097D01*
X97459718Y-93327464D01*
X97399542Y-93155491D01*
X97302608Y-93001223D01*
X97173776Y-92872391D01*
X97140703Y-92851610D01*
X97094412Y-92799275D01*
X97083763Y-92730222D01*
X97112139Y-92666374D01*
X97140700Y-92641625D01*
X97161385Y-92628628D01*
X97289828Y-92500185D01*
X97386469Y-92346381D01*
X97446463Y-92174929D01*
X97461700Y-92039697D01*
X97461699Y-91029104D01*
X97453969Y-90960496D01*
X97446464Y-90893875D01*
X97446461Y-90893863D01*
X97386470Y-90722421D01*
X97340169Y-90648733D01*
X97289828Y-90568615D01*
X97161385Y-90440172D01*
X97007580Y-90343530D01*
X96934069Y-90317808D01*
X96903426Y-90307085D01*
X96846651Y-90266364D01*
X96820903Y-90201412D01*
X96834359Y-90132850D01*
X96841280Y-90121152D01*
X96899389Y-90034187D01*
X96899390Y-90034184D01*
X96899394Y-90034179D01*
X96959737Y-89888497D01*
X96990500Y-89733842D01*
X96990500Y-89576158D01*
X96990500Y-89576155D01*
X96990499Y-89576153D01*
X96983209Y-89539504D01*
X96959737Y-89421503D01*
X96938986Y-89371405D01*
X96899397Y-89275827D01*
X96899390Y-89275814D01*
X96811789Y-89144711D01*
X96811786Y-89144707D01*
X96700292Y-89033213D01*
X96700288Y-89033210D01*
X96569185Y-88945609D01*
X96569172Y-88945602D01*
X96423501Y-88885264D01*
X96423489Y-88885261D01*
X96268845Y-88854500D01*
X96268842Y-88854500D01*
X96111158Y-88854500D01*
X96111155Y-88854500D01*
X95956510Y-88885261D01*
X95956498Y-88885264D01*
X95810827Y-88945602D01*
X95810814Y-88945609D01*
X95679711Y-89033210D01*
X95679707Y-89033213D01*
X95568213Y-89144707D01*
X95568210Y-89144711D01*
X95480609Y-89275814D01*
X95480602Y-89275827D01*
X95420264Y-89421498D01*
X95420261Y-89421510D01*
X95389500Y-89576153D01*
X95389500Y-89733846D01*
X95420261Y-89888489D01*
X95420264Y-89888501D01*
X95480602Y-90034172D01*
X95480609Y-90034184D01*
X95543602Y-90128459D01*
X95549252Y-90146505D01*
X95559477Y-90162415D01*
X95563928Y-90193374D01*
X95564480Y-90195136D01*
X95564500Y-90197350D01*
X95564500Y-90225497D01*
X95544815Y-90292536D01*
X95492011Y-90338291D01*
X95481462Y-90342536D01*
X95478619Y-90343530D01*
X95478616Y-90343532D01*
X95324814Y-90440172D01*
X95320414Y-90443682D01*
X95298251Y-90452730D01*
X95278123Y-90465687D01*
X95266493Y-90465695D01*
X95255728Y-90470091D01*
X95232193Y-90465721D01*
X95208253Y-90465739D01*
X95194879Y-90458792D01*
X95187033Y-90457336D01*
X95176138Y-90451101D01*
X95165467Y-90444254D01*
X95161385Y-90440172D01*
X95051193Y-90370934D01*
X95050638Y-90370578D01*
X95028117Y-90344626D01*
X95005337Y-90318872D01*
X95005188Y-90318204D01*
X95004844Y-90317808D01*
X95004372Y-90314542D01*
X94993600Y-90266213D01*
X94993600Y-79771287D01*
X95013285Y-79704248D01*
X95066089Y-79658493D01*
X95135247Y-79648549D01*
X95141791Y-79649670D01*
X95181153Y-79657499D01*
X95181156Y-79657500D01*
X95181158Y-79657500D01*
X95338844Y-79657500D01*
X95338845Y-79657499D01*
X95493497Y-79626737D01*
X95639179Y-79566394D01*
X95770289Y-79478789D01*
X95881789Y-79367289D01*
X95969394Y-79236179D01*
X96029737Y-79090497D01*
X96060500Y-78935842D01*
X96060500Y-78778158D01*
X96060500Y-78778155D01*
X96060499Y-78778153D01*
X96048709Y-78718882D01*
X96029737Y-78623503D01*
X96001354Y-78554980D01*
X95969397Y-78477827D01*
X95969390Y-78477814D01*
X95881789Y-78346711D01*
X95881786Y-78346707D01*
X95770292Y-78235213D01*
X95770288Y-78235210D01*
X95639185Y-78147609D01*
X95639172Y-78147602D01*
X95493501Y-78087264D01*
X95493489Y-78087261D01*
X95338845Y-78056500D01*
X95338842Y-78056500D01*
X95181158Y-78056500D01*
X95181155Y-78056500D01*
X95026511Y-78087260D01*
X95026506Y-78087262D01*
X95026504Y-78087262D01*
X95026503Y-78087263D01*
X95002844Y-78097062D01*
X94955396Y-78106500D01*
X87760530Y-78106500D01*
X87693491Y-78086815D01*
X87672849Y-78070181D01*
X84780471Y-75177803D01*
X84753591Y-75137575D01*
X84743794Y-75113921D01*
X84720355Y-75078842D01*
X84656189Y-74982810D01*
X84544692Y-74871313D01*
X84544688Y-74871310D01*
X84413585Y-74783709D01*
X84413575Y-74783704D01*
X84389923Y-74773907D01*
X84349695Y-74747027D01*
X84019721Y-74417052D01*
X84019714Y-74417046D01*
X83946029Y-74367812D01*
X83946029Y-74367813D01*
X83896791Y-74334913D01*
X83760217Y-74278343D01*
X83760207Y-74278340D01*
X83615220Y-74249500D01*
X83615218Y-74249500D01*
X69554604Y-74249500D01*
X69507155Y-74240062D01*
X69483497Y-74230263D01*
X69483493Y-74230262D01*
X69483488Y-74230260D01*
X69328845Y-74199500D01*
X69328842Y-74199500D01*
X69171158Y-74199500D01*
X69171155Y-74199500D01*
X69016510Y-74230261D01*
X69016498Y-74230264D01*
X68870827Y-74290602D01*
X68870814Y-74290609D01*
X68739711Y-74378210D01*
X68739707Y-74378213D01*
X68628213Y-74489707D01*
X68628210Y-74489711D01*
X68540609Y-74620814D01*
X68540602Y-74620827D01*
X68480264Y-74766498D01*
X68480261Y-74766510D01*
X68449500Y-74921153D01*
X68449500Y-75078846D01*
X68480261Y-75233489D01*
X68480264Y-75233501D01*
X68540602Y-75379172D01*
X68540609Y-75379185D01*
X68628210Y-75510288D01*
X68628213Y-75510292D01*
X68739707Y-75621786D01*
X68739711Y-75621789D01*
X68870814Y-75709390D01*
X68870827Y-75709397D01*
X69016498Y-75769735D01*
X69016503Y-75769737D01*
X69171153Y-75800499D01*
X69171156Y-75800500D01*
X69171158Y-75800500D01*
X69328844Y-75800500D01*
X69328845Y-75800499D01*
X69405152Y-75785320D01*
X69483488Y-75769739D01*
X69483489Y-75769738D01*
X69483497Y-75769737D01*
X69507155Y-75759937D01*
X69554604Y-75750500D01*
X83179070Y-75750500D01*
X83208510Y-75759144D01*
X83238497Y-75765668D01*
X83243512Y-75769422D01*
X83246109Y-75770185D01*
X83266751Y-75786819D01*
X83288327Y-75808395D01*
X83315207Y-75848623D01*
X83325004Y-75872275D01*
X83325009Y-75872285D01*
X83412610Y-76003388D01*
X83412613Y-76003392D01*
X83524110Y-76114889D01*
X83584747Y-76155405D01*
X83655221Y-76202494D01*
X83678875Y-76212291D01*
X83719103Y-76239171D01*
X86919884Y-79439952D01*
X86967350Y-79471667D01*
X87042805Y-79522084D01*
X87042806Y-79522084D01*
X87042807Y-79522085D01*
X87149769Y-79566390D01*
X87179387Y-79578658D01*
X87179391Y-79578658D01*
X87179392Y-79578659D01*
X87324379Y-79607500D01*
X87324382Y-79607500D01*
X87324383Y-79607500D01*
X87472217Y-79607500D01*
X93368600Y-79607500D01*
X93435639Y-79627185D01*
X93481394Y-79679989D01*
X93492600Y-79731500D01*
X93492600Y-90266213D01*
X93472915Y-90333252D01*
X93434572Y-90371207D01*
X93324814Y-90440172D01*
X93196372Y-90568614D01*
X93150477Y-90641657D01*
X93099731Y-90722419D01*
X93099730Y-90722421D01*
X93097562Y-90725872D01*
X93045228Y-90772163D01*
X92992568Y-90783900D01*
X89391680Y-90783900D01*
X89246692Y-90812740D01*
X89246682Y-90812743D01*
X89110111Y-90869312D01*
X89110099Y-90869319D01*
X89073357Y-90893870D01*
X89073356Y-90893871D01*
X88987179Y-90951451D01*
X88987178Y-90951452D01*
X88725451Y-91213181D01*
X88664128Y-91246666D01*
X88637770Y-91249500D01*
X71426080Y-91249500D01*
X71281092Y-91278340D01*
X71281082Y-91278343D01*
X71144508Y-91334914D01*
X71098198Y-91365857D01*
X71021581Y-91417049D01*
X71021578Y-91417052D01*
X67667047Y-94771584D01*
X67667045Y-94771586D01*
X67630381Y-94826462D01*
X67630379Y-94826465D01*
X67584919Y-94894499D01*
X67584912Y-94894511D01*
X67528343Y-95031082D01*
X67528340Y-95031092D01*
X67499500Y-95176079D01*
X67499500Y-101387770D01*
X67479815Y-101454809D01*
X67463181Y-101475451D01*
X65822951Y-103115681D01*
X65761628Y-103149166D01*
X65735270Y-103152000D01*
X65108250Y-103152000D01*
X65060801Y-103142562D01*
X65037143Y-103132763D01*
X65037139Y-103132762D01*
X65037134Y-103132760D01*
X64882491Y-103102000D01*
X64882488Y-103102000D01*
X64724804Y-103102000D01*
X64724801Y-103102000D01*
X64570157Y-103132760D01*
X64570152Y-103132762D01*
X64570150Y-103132762D01*
X64570149Y-103132763D01*
X64546490Y-103142562D01*
X64499042Y-103152000D01*
X62587104Y-103152000D01*
X62539655Y-103142562D01*
X62515997Y-103132763D01*
X62515993Y-103132762D01*
X62515988Y-103132760D01*
X62361345Y-103102000D01*
X62361342Y-103102000D01*
X62203658Y-103102000D01*
X62203655Y-103102000D01*
X62049011Y-103132760D01*
X62049006Y-103132762D01*
X62049004Y-103132762D01*
X62049003Y-103132763D01*
X62025344Y-103142562D01*
X61977896Y-103152000D01*
X60087104Y-103152000D01*
X60039655Y-103142562D01*
X60015997Y-103132763D01*
X60015993Y-103132762D01*
X60015988Y-103132760D01*
X59861345Y-103102000D01*
X59861342Y-103102000D01*
X59703658Y-103102000D01*
X59703655Y-103102000D01*
X59549010Y-103132761D01*
X59548998Y-103132764D01*
X59403327Y-103193102D01*
X59403314Y-103193109D01*
X59272211Y-103280710D01*
X59272207Y-103280713D01*
X59160713Y-103392207D01*
X59160710Y-103392211D01*
X59073109Y-103523314D01*
X59073102Y-103523327D01*
X59012764Y-103668998D01*
X59012761Y-103669010D01*
X58982000Y-103823653D01*
X58982000Y-103981346D01*
X59012761Y-104135989D01*
X59012764Y-104136001D01*
X59073102Y-104281672D01*
X59073109Y-104281685D01*
X59160710Y-104412788D01*
X59160713Y-104412792D01*
X59272207Y-104524286D01*
X59272211Y-104524289D01*
X59403314Y-104611890D01*
X59403327Y-104611897D01*
X59526186Y-104662786D01*
X59549003Y-104672237D01*
X59703653Y-104702999D01*
X59703656Y-104703000D01*
X59703658Y-104703000D01*
X59861344Y-104703000D01*
X59861345Y-104702999D01*
X59969947Y-104681397D01*
X60015988Y-104672239D01*
X60015989Y-104672238D01*
X60015997Y-104672237D01*
X60039655Y-104662437D01*
X60087104Y-104653000D01*
X61977896Y-104653000D01*
X62025344Y-104662437D01*
X62049003Y-104672237D01*
X62049008Y-104672238D01*
X62049011Y-104672239D01*
X62203653Y-104702999D01*
X62203656Y-104703000D01*
X62203658Y-104703000D01*
X62361344Y-104703000D01*
X62361345Y-104702999D01*
X62469947Y-104681397D01*
X62515988Y-104672239D01*
X62515989Y-104672238D01*
X62515997Y-104672237D01*
X62539655Y-104662437D01*
X62587104Y-104653000D01*
X64499042Y-104653000D01*
X64546490Y-104662437D01*
X64570149Y-104672237D01*
X64570154Y-104672238D01*
X64570157Y-104672239D01*
X64724799Y-104702999D01*
X64724802Y-104703000D01*
X64724804Y-104703000D01*
X64882490Y-104703000D01*
X64882491Y-104702999D01*
X64991093Y-104681397D01*
X65037134Y-104672239D01*
X65037135Y-104672238D01*
X65037143Y-104672237D01*
X65060801Y-104662437D01*
X65108250Y-104653000D01*
X66171420Y-104653000D01*
X66289472Y-104629517D01*
X66316413Y-104624158D01*
X66452995Y-104567584D01*
X66517791Y-104524289D01*
X66517794Y-104524286D01*
X66517796Y-104524286D01*
X66566541Y-104491716D01*
X66575916Y-104485452D01*
X68832952Y-102228416D01*
X68882186Y-102154729D01*
X68915084Y-102105495D01*
X68940245Y-102044752D01*
X68971659Y-101968912D01*
X69000500Y-101823917D01*
X69000500Y-101676082D01*
X69000500Y-95612230D01*
X69020185Y-95545191D01*
X69036819Y-95524549D01*
X70762238Y-93799130D01*
X72268800Y-93799130D01*
X72268800Y-94006900D01*
X73284400Y-94006900D01*
X73284400Y-93038800D01*
X73029135Y-93038800D01*
X73029129Y-93038801D01*
X72893989Y-93054026D01*
X72893976Y-93054029D01*
X72722646Y-93113980D01*
X72722639Y-93113984D01*
X72568928Y-93210566D01*
X72440566Y-93338928D01*
X72343984Y-93492639D01*
X72343983Y-93492641D01*
X72284026Y-93663989D01*
X72268800Y-93799130D01*
X70762238Y-93799130D01*
X71774549Y-92786819D01*
X71835872Y-92753334D01*
X71862230Y-92750500D01*
X77534900Y-92750500D01*
X77601939Y-92770185D01*
X77647694Y-92822989D01*
X77658900Y-92874500D01*
X77658900Y-92947348D01*
X77639215Y-93014387D01*
X77586411Y-93060142D01*
X77575855Y-93064389D01*
X77474076Y-93100003D01*
X77474072Y-93100004D01*
X77319709Y-93196998D01*
X77212681Y-93304027D01*
X77151358Y-93337512D01*
X77081666Y-93332528D01*
X77037319Y-93304027D01*
X76930290Y-93196998D01*
X76775929Y-93100006D01*
X76775928Y-93100005D01*
X76775927Y-93100005D01*
X76721571Y-93080985D01*
X76603849Y-93039792D01*
X76603844Y-93039791D01*
X76468125Y-93024500D01*
X75463077Y-93024500D01*
X75463073Y-93024501D01*
X75327352Y-93039792D01*
X75155271Y-93100005D01*
X75000909Y-93196998D01*
X74871997Y-93325910D01*
X74871996Y-93325912D01*
X74851018Y-93359298D01*
X74798683Y-93405589D01*
X74729629Y-93416236D01*
X74665781Y-93387860D01*
X74641030Y-93359295D01*
X74628233Y-93338928D01*
X74499871Y-93210566D01*
X74346160Y-93113984D01*
X74346158Y-93113983D01*
X74174810Y-93054026D01*
X74039669Y-93038800D01*
X73784400Y-93038800D01*
X73784400Y-94132900D01*
X73764715Y-94199939D01*
X73711911Y-94245694D01*
X73660400Y-94256900D01*
X73534400Y-94256900D01*
X73534400Y-94382900D01*
X73514715Y-94449939D01*
X73461911Y-94495694D01*
X73410400Y-94506900D01*
X72268801Y-94506900D01*
X72268801Y-94714670D01*
X72284026Y-94849810D01*
X72284029Y-94849823D01*
X72343980Y-95021153D01*
X72343984Y-95021160D01*
X72440566Y-95174871D01*
X72528514Y-95262819D01*
X72561999Y-95324142D01*
X72557015Y-95393834D01*
X72515143Y-95449767D01*
X72449679Y-95474184D01*
X72440833Y-95474500D01*
X71963389Y-95474500D01*
X71907526Y-95485612D01*
X71902971Y-95486518D01*
X71859743Y-95495116D01*
X71842546Y-95498537D01*
X71728716Y-95545687D01*
X71728707Y-95545692D01*
X71626268Y-95614140D01*
X71582705Y-95657703D01*
X71539142Y-95701267D01*
X70354173Y-96886235D01*
X70354165Y-96886243D01*
X70351270Y-96889139D01*
X70351267Y-96889142D01*
X70264142Y-96976267D01*
X70232557Y-97023537D01*
X70195688Y-97078714D01*
X70195684Y-97078720D01*
X70168857Y-97143490D01*
X70162347Y-97159207D01*
X70148537Y-97192548D01*
X70145438Y-97208127D01*
X70131306Y-97279179D01*
X70131306Y-97279180D01*
X70124500Y-97313393D01*
X70124500Y-110326881D01*
X70104815Y-110393920D01*
X70052011Y-110439675D01*
X69987520Y-110448947D01*
X69987407Y-110450097D01*
X69981345Y-110449500D01*
X69981342Y-110449500D01*
X69823658Y-110449500D01*
X69823655Y-110449500D01*
X69669011Y-110480260D01*
X69669006Y-110480262D01*
X69669004Y-110480262D01*
X69669003Y-110480263D01*
X69645344Y-110490062D01*
X69597896Y-110499500D01*
X56684452Y-110499500D01*
X56617413Y-110479815D01*
X56571658Y-110427011D01*
X56561714Y-110357853D01*
X56590739Y-110294297D01*
X56596771Y-110287819D01*
X57338417Y-109546174D01*
X58235858Y-108648733D01*
X58304312Y-108546285D01*
X58340337Y-108459312D01*
X58351463Y-108432452D01*
X58358017Y-108399500D01*
X58375501Y-108311606D01*
X58375501Y-108188393D01*
X58375501Y-108183283D01*
X58375500Y-108183257D01*
X58375500Y-93160452D01*
X58395185Y-93093413D01*
X58411819Y-93072771D01*
X63896042Y-87588549D01*
X70906219Y-87588549D01*
X70906219Y-87811450D01*
X70906220Y-87811466D01*
X70935313Y-88032452D01*
X70935314Y-88032457D01*
X70935315Y-88032463D01*
X70943939Y-88064647D01*
X70993009Y-88247780D01*
X70993012Y-88247790D01*
X71078312Y-88453722D01*
X71078314Y-88453726D01*
X71189771Y-88646774D01*
X71189776Y-88646780D01*
X71189777Y-88646782D01*
X71325470Y-88823622D01*
X71325476Y-88823629D01*
X71483089Y-88981242D01*
X71483095Y-88981247D01*
X71659945Y-89116948D01*
X71852993Y-89228405D01*
X72058938Y-89313710D01*
X72274256Y-89371404D01*
X72495262Y-89400500D01*
X72495269Y-89400500D01*
X72718169Y-89400500D01*
X72718176Y-89400500D01*
X72939182Y-89371404D01*
X73154500Y-89313710D01*
X73360445Y-89228405D01*
X73553493Y-89116948D01*
X73730343Y-88981247D01*
X73887966Y-88823624D01*
X74023667Y-88646774D01*
X74135124Y-88453726D01*
X74220429Y-88247781D01*
X74278123Y-88032463D01*
X74307219Y-87811457D01*
X74307219Y-87588549D01*
X75986219Y-87588549D01*
X75986219Y-87811450D01*
X75986220Y-87811466D01*
X76015313Y-88032452D01*
X76015314Y-88032457D01*
X76015315Y-88032463D01*
X76023939Y-88064647D01*
X76073009Y-88247780D01*
X76073012Y-88247790D01*
X76158312Y-88453722D01*
X76158314Y-88453726D01*
X76269771Y-88646774D01*
X76269776Y-88646780D01*
X76269777Y-88646782D01*
X76405470Y-88823622D01*
X76405476Y-88823629D01*
X76563089Y-88981242D01*
X76563095Y-88981247D01*
X76739945Y-89116948D01*
X76932993Y-89228405D01*
X77138938Y-89313710D01*
X77354256Y-89371404D01*
X77575262Y-89400500D01*
X77575269Y-89400500D01*
X77798169Y-89400500D01*
X77798176Y-89400500D01*
X78019182Y-89371404D01*
X78234500Y-89313710D01*
X78440445Y-89228405D01*
X78633493Y-89116948D01*
X78810343Y-88981247D01*
X78967966Y-88823624D01*
X79103667Y-88646774D01*
X79215124Y-88453726D01*
X79300429Y-88247781D01*
X79358123Y-88032463D01*
X79387219Y-87811457D01*
X79387219Y-87588543D01*
X79358123Y-87367537D01*
X79300429Y-87152219D01*
X79215124Y-86946274D01*
X79103667Y-86753226D01*
X78981945Y-86594594D01*
X78967967Y-86576377D01*
X78967961Y-86576370D01*
X78810348Y-86418757D01*
X78810341Y-86418751D01*
X78633501Y-86283058D01*
X78633499Y-86283057D01*
X78633493Y-86283052D01*
X78440445Y-86171595D01*
X78440441Y-86171593D01*
X78234509Y-86086293D01*
X78234502Y-86086291D01*
X78234500Y-86086290D01*
X78019182Y-86028596D01*
X78019176Y-86028595D01*
X78019171Y-86028594D01*
X77798185Y-85999501D01*
X77798182Y-85999500D01*
X77798176Y-85999500D01*
X77575262Y-85999500D01*
X77575256Y-85999500D01*
X77575252Y-85999501D01*
X77354266Y-86028594D01*
X77354259Y-86028595D01*
X77354256Y-86028596D01*
X77138938Y-86086290D01*
X77138928Y-86086293D01*
X76932996Y-86171593D01*
X76932992Y-86171595D01*
X76739945Y-86283052D01*
X76739936Y-86283058D01*
X76563096Y-86418751D01*
X76563089Y-86418757D01*
X76405476Y-86576370D01*
X76405470Y-86576377D01*
X76269777Y-86753217D01*
X76269771Y-86753226D01*
X76158314Y-86946273D01*
X76158312Y-86946277D01*
X76073012Y-87152209D01*
X76073009Y-87152219D01*
X76015316Y-87367534D01*
X76015313Y-87367547D01*
X75986220Y-87588533D01*
X75986219Y-87588549D01*
X74307219Y-87588549D01*
X74307219Y-87588543D01*
X74278123Y-87367537D01*
X74220429Y-87152219D01*
X74135124Y-86946274D01*
X74023667Y-86753226D01*
X73901945Y-86594594D01*
X73887967Y-86576377D01*
X73887961Y-86576370D01*
X73730348Y-86418757D01*
X73730341Y-86418751D01*
X73553501Y-86283058D01*
X73553499Y-86283057D01*
X73553493Y-86283052D01*
X73360445Y-86171595D01*
X73360441Y-86171593D01*
X73154509Y-86086293D01*
X73154502Y-86086291D01*
X73154500Y-86086290D01*
X72939182Y-86028596D01*
X72939176Y-86028595D01*
X72939171Y-86028594D01*
X72718185Y-85999501D01*
X72718182Y-85999500D01*
X72718176Y-85999500D01*
X72495262Y-85999500D01*
X72495256Y-85999500D01*
X72495252Y-85999501D01*
X72274266Y-86028594D01*
X72274259Y-86028595D01*
X72274256Y-86028596D01*
X72058938Y-86086290D01*
X72058928Y-86086293D01*
X71852996Y-86171593D01*
X71852992Y-86171595D01*
X71659945Y-86283052D01*
X71659936Y-86283058D01*
X71483096Y-86418751D01*
X71483089Y-86418757D01*
X71325476Y-86576370D01*
X71325470Y-86576377D01*
X71189777Y-86753217D01*
X71189771Y-86753226D01*
X71078314Y-86946273D01*
X71078312Y-86946277D01*
X70993012Y-87152209D01*
X70993009Y-87152219D01*
X70935316Y-87367534D01*
X70935313Y-87367547D01*
X70906220Y-87588533D01*
X70906219Y-87588549D01*
X63896042Y-87588549D01*
X63987788Y-87496803D01*
X68638355Y-82846236D01*
X68638355Y-82846235D01*
X68638358Y-82846233D01*
X68706812Y-82743785D01*
X68734432Y-82677103D01*
X68753963Y-82629952D01*
X68762914Y-82584952D01*
X68775729Y-82520527D01*
X68778001Y-82509108D01*
X68778001Y-82466893D01*
X68797686Y-82399854D01*
X68850490Y-82354099D01*
X68861034Y-82349855D01*
X68966845Y-82312831D01*
X69115412Y-82219481D01*
X69239481Y-82095412D01*
X69332831Y-81946845D01*
X69390782Y-81781232D01*
X69405500Y-81650604D01*
X69405500Y-80784396D01*
X69390782Y-80653768D01*
X69332831Y-80488155D01*
X69239481Y-80339588D01*
X69237220Y-80337327D01*
X69236226Y-80335507D01*
X69235140Y-80334145D01*
X69235378Y-80333954D01*
X69203735Y-80276004D01*
X69208719Y-80206312D01*
X69234862Y-80165633D01*
X69234746Y-80165541D01*
X69235651Y-80164405D01*
X69237220Y-80161965D01*
X69239086Y-80160098D01*
X69239091Y-80160092D01*
X69332374Y-80011634D01*
X69332376Y-80011631D01*
X69390292Y-79846117D01*
X69404999Y-79715580D01*
X69405000Y-79715580D01*
X69405000Y-79532500D01*
X68276500Y-79532500D01*
X68209461Y-79512815D01*
X68163706Y-79460011D01*
X68152500Y-79408500D01*
X68152500Y-79282500D01*
X68026500Y-79282500D01*
X67959461Y-79262815D01*
X67913706Y-79210011D01*
X67902500Y-79158500D01*
X67902500Y-78605000D01*
X68402500Y-78605000D01*
X68402500Y-79032500D01*
X69405000Y-79032500D01*
X69405000Y-78849420D01*
X69404999Y-78849419D01*
X69390292Y-78718882D01*
X69332376Y-78553368D01*
X69332374Y-78553365D01*
X69239090Y-78404906D01*
X69236570Y-78401746D01*
X69235578Y-78399316D01*
X69235383Y-78399006D01*
X69235437Y-78398971D01*
X69210160Y-78337060D01*
X69222914Y-78268364D01*
X69245834Y-78236749D01*
X69308810Y-78173773D01*
X69405742Y-78019508D01*
X69465916Y-77847540D01*
X69465918Y-77847532D01*
X69481199Y-77711901D01*
X69481200Y-77711897D01*
X69481200Y-77500000D01*
X68465600Y-77500000D01*
X68465600Y-78490538D01*
X68456955Y-78519978D01*
X68450432Y-78549965D01*
X68446677Y-78554980D01*
X68445915Y-78557577D01*
X68429281Y-78578219D01*
X68402500Y-78605000D01*
X67902500Y-78605000D01*
X67902500Y-78099462D01*
X67922185Y-78032423D01*
X67938819Y-78011781D01*
X67965600Y-77985000D01*
X67965600Y-77000000D01*
X68465600Y-77000000D01*
X69481199Y-77000000D01*
X69481199Y-76788105D01*
X69481198Y-76788097D01*
X69465918Y-76652464D01*
X69405742Y-76480491D01*
X69308808Y-76326223D01*
X69179976Y-76197391D01*
X69025708Y-76100457D01*
X68853740Y-76040283D01*
X68853732Y-76040281D01*
X68718101Y-76025000D01*
X68465600Y-76025000D01*
X68465600Y-77000000D01*
X67965600Y-77000000D01*
X67965600Y-76025000D01*
X67713103Y-76025000D01*
X67713097Y-76025001D01*
X67577464Y-76040281D01*
X67405491Y-76100457D01*
X67251223Y-76197391D01*
X67122390Y-76326224D01*
X67122389Y-76326226D01*
X67101609Y-76359297D01*
X67049274Y-76405588D01*
X66980221Y-76416235D01*
X66916372Y-76387860D01*
X66891623Y-76359297D01*
X66878628Y-76338615D01*
X66750185Y-76210172D01*
X66740587Y-76204141D01*
X66596380Y-76113530D01*
X66424923Y-76053535D01*
X66289701Y-76038300D01*
X65279101Y-76038300D01*
X65279097Y-76038301D01*
X65143875Y-76053535D01*
X65143863Y-76053538D01*
X64972421Y-76113529D01*
X64826036Y-76205509D01*
X64758799Y-76224509D01*
X64691964Y-76204141D01*
X64682748Y-76197459D01*
X64681386Y-76196373D01*
X64681385Y-76196372D01*
X64550263Y-76113983D01*
X64527580Y-76099730D01*
X64357689Y-76040283D01*
X64356129Y-76039737D01*
X64356128Y-76039736D01*
X64356123Y-76039735D01*
X64220901Y-76024500D01*
X63210301Y-76024500D01*
X63210297Y-76024501D01*
X63075075Y-76039735D01*
X63075063Y-76039738D01*
X62903621Y-76099729D01*
X62749814Y-76196372D01*
X62621372Y-76324814D01*
X62621370Y-76324817D01*
X62604041Y-76352396D01*
X62551706Y-76398687D01*
X62482652Y-76409334D01*
X62418804Y-76380958D01*
X62394055Y-76352397D01*
X62377608Y-76326223D01*
X62248776Y-76197391D01*
X62094508Y-76100457D01*
X61922540Y-76040283D01*
X61922532Y-76040281D01*
X61786901Y-76025000D01*
X61534400Y-76025000D01*
X61534400Y-77920000D01*
X61561181Y-77946781D01*
X61594666Y-78008104D01*
X61597500Y-78034462D01*
X61597500Y-79093500D01*
X61577815Y-79160539D01*
X61525011Y-79206294D01*
X61473500Y-79217500D01*
X61221500Y-79217500D01*
X61154461Y-79197815D01*
X61108706Y-79145011D01*
X61097500Y-79093500D01*
X61097500Y-78605000D01*
X61070719Y-78578219D01*
X61037234Y-78516896D01*
X61034400Y-78490538D01*
X61034400Y-76025000D01*
X60781903Y-76025000D01*
X60781897Y-76025001D01*
X60646264Y-76040281D01*
X60474289Y-76100458D01*
X60316443Y-76199641D01*
X60249206Y-76218642D01*
X60184498Y-76199642D01*
X60025929Y-76100006D01*
X60025928Y-76100005D01*
X60025927Y-76100005D01*
X59971571Y-76080985D01*
X59853849Y-76039792D01*
X59853844Y-76039791D01*
X59718125Y-76024500D01*
X58713077Y-76024500D01*
X58713073Y-76024501D01*
X58577352Y-76039792D01*
X58405271Y-76100005D01*
X58250909Y-76196998D01*
X58121997Y-76325910D01*
X58121996Y-76325912D01*
X58101018Y-76359298D01*
X58048683Y-76405589D01*
X57979629Y-76416236D01*
X57915781Y-76387860D01*
X57891030Y-76359295D01*
X57878233Y-76338928D01*
X57749871Y-76210566D01*
X57596160Y-76113984D01*
X57596158Y-76113983D01*
X57424810Y-76054026D01*
X57289669Y-76038800D01*
X57034400Y-76038800D01*
X57034400Y-77985000D01*
X57061181Y-78011781D01*
X57094666Y-78073104D01*
X57097500Y-78099462D01*
X57097500Y-79158500D01*
X57077815Y-79225539D01*
X57025011Y-79271294D01*
X56973500Y-79282500D01*
X56847500Y-79282500D01*
X56847500Y-79408500D01*
X56827815Y-79475539D01*
X56775011Y-79521294D01*
X56723500Y-79532500D01*
X55595000Y-79532500D01*
X55595000Y-79715580D01*
X55609707Y-79846117D01*
X55667623Y-80011631D01*
X55667625Y-80011634D01*
X55760908Y-80160092D01*
X55760913Y-80160098D01*
X55795280Y-80194465D01*
X55828765Y-80255788D01*
X55823781Y-80325480D01*
X55795280Y-80369827D01*
X55760519Y-80404587D01*
X55667168Y-80553156D01*
X55667167Y-80553158D01*
X55609217Y-80718771D01*
X55609216Y-80718776D01*
X55594500Y-80849389D01*
X55594500Y-81715610D01*
X55609216Y-81846223D01*
X55609217Y-81846228D01*
X55667167Y-82011841D01*
X55667168Y-82011843D01*
X55667169Y-82011845D01*
X55760519Y-82160412D01*
X55884588Y-82284481D01*
X56033155Y-82377831D01*
X56041450Y-82380733D01*
X56098226Y-82421451D01*
X56123977Y-82486402D01*
X56124500Y-82497776D01*
X56124500Y-88689548D01*
X56104815Y-88756587D01*
X56088181Y-88777229D01*
X55277229Y-89588181D01*
X55250301Y-89602884D01*
X55224483Y-89619477D01*
X55218282Y-89620368D01*
X55215906Y-89621666D01*
X55189548Y-89624500D01*
X55183585Y-89624500D01*
X55116546Y-89604815D01*
X55070791Y-89552011D01*
X55065879Y-89539504D01*
X55029813Y-89430664D01*
X55029812Y-89430662D01*
X54937713Y-89281348D01*
X54937710Y-89281344D01*
X54813655Y-89157289D01*
X54813651Y-89157286D01*
X54664337Y-89065187D01*
X54664335Y-89065186D01*
X54567837Y-89033210D01*
X54497797Y-89010001D01*
X54497795Y-89010000D01*
X54395015Y-88999500D01*
X54395008Y-88999500D01*
X52774992Y-88999500D01*
X52774984Y-88999500D01*
X52672204Y-89010000D01*
X52672203Y-89010001D01*
X52505664Y-89065186D01*
X52505662Y-89065187D01*
X52356348Y-89157286D01*
X52356344Y-89157289D01*
X52232289Y-89281344D01*
X52232286Y-89281348D01*
X52140187Y-89430662D01*
X52140186Y-89430664D01*
X52085001Y-89597203D01*
X52085000Y-89597204D01*
X52074500Y-89699984D01*
X52074500Y-90800015D01*
X52085000Y-90902795D01*
X52085001Y-90902797D01*
X52101124Y-90951452D01*
X52140186Y-91069335D01*
X52140187Y-91069337D01*
X52232286Y-91218651D01*
X52232289Y-91218655D01*
X52356344Y-91342710D01*
X52356348Y-91342713D01*
X52505662Y-91434812D01*
X52505664Y-91434813D01*
X52505666Y-91434814D01*
X52672203Y-91489999D01*
X52774992Y-91500500D01*
X52774997Y-91500500D01*
X54395003Y-91500500D01*
X54395008Y-91500500D01*
X54497797Y-91489999D01*
X54664334Y-91434814D01*
X54813655Y-91342711D01*
X54937711Y-91218655D01*
X55029814Y-91069334D01*
X55065879Y-90960494D01*
X55105651Y-90903051D01*
X55170167Y-90876228D01*
X55183585Y-90875500D01*
X55561607Y-90875500D01*
X55622029Y-90863481D01*
X55682452Y-90851463D01*
X55715792Y-90837652D01*
X55796286Y-90804312D01*
X55865007Y-90758393D01*
X55898733Y-90735858D01*
X55985858Y-90648733D01*
X55985859Y-90648731D01*
X55992925Y-90641665D01*
X55992927Y-90641661D01*
X56412820Y-90221769D01*
X56474142Y-90188285D01*
X56543834Y-90193269D01*
X56599767Y-90235141D01*
X56624184Y-90300605D01*
X56624500Y-90309451D01*
X56624500Y-96689548D01*
X56604815Y-96756587D01*
X56588181Y-96777229D01*
X55277229Y-98088181D01*
X55250301Y-98102884D01*
X55224483Y-98119477D01*
X55218282Y-98120368D01*
X55215906Y-98121666D01*
X55189548Y-98124500D01*
X54999433Y-98124500D01*
X54932394Y-98104815D01*
X54899115Y-98073386D01*
X54853127Y-98010090D01*
X54798828Y-97935354D01*
X54659646Y-97796172D01*
X54500405Y-97680476D01*
X54325029Y-97591117D01*
X54137826Y-97530290D01*
X53943422Y-97499500D01*
X53943417Y-97499500D01*
X53226583Y-97499500D01*
X53226578Y-97499500D01*
X53032173Y-97530290D01*
X52844970Y-97591117D01*
X52669594Y-97680476D01*
X52578741Y-97746485D01*
X52510354Y-97796172D01*
X52510352Y-97796174D01*
X52510351Y-97796174D01*
X52371174Y-97935351D01*
X52371174Y-97935352D01*
X52371172Y-97935354D01*
X52339578Y-97978839D01*
X52255476Y-98094594D01*
X52166117Y-98269970D01*
X52105290Y-98457173D01*
X52074500Y-98651577D01*
X52074500Y-98848422D01*
X52105290Y-99042826D01*
X52166117Y-99230029D01*
X52235959Y-99367100D01*
X52255476Y-99405405D01*
X52371172Y-99564646D01*
X52510354Y-99703828D01*
X52669595Y-99819524D01*
X52724790Y-99847647D01*
X52844970Y-99908882D01*
X52844972Y-99908882D01*
X52844975Y-99908884D01*
X52945317Y-99941487D01*
X53032173Y-99969709D01*
X53226578Y-100000500D01*
X53226583Y-100000500D01*
X53943422Y-100000500D01*
X54137826Y-99969709D01*
X54167070Y-99960207D01*
X54325025Y-99908884D01*
X54500405Y-99819524D01*
X54659646Y-99703828D01*
X54798828Y-99564646D01*
X54899115Y-99426614D01*
X54954446Y-99383949D01*
X54999433Y-99375500D01*
X55561607Y-99375500D01*
X55622029Y-99363481D01*
X55682452Y-99351463D01*
X55715792Y-99337652D01*
X55796286Y-99304312D01*
X55862169Y-99260289D01*
X55898733Y-99235858D01*
X55985858Y-99148733D01*
X55985859Y-99148731D01*
X55992925Y-99141665D01*
X55992927Y-99141661D01*
X56912820Y-98221769D01*
X56974142Y-98188285D01*
X57043834Y-98193269D01*
X57099767Y-98235141D01*
X57124184Y-98300605D01*
X57124500Y-98309451D01*
X57124500Y-107939547D01*
X57104815Y-108006586D01*
X57088181Y-108027228D01*
X55277229Y-109838181D01*
X55250301Y-109852884D01*
X55224483Y-109869477D01*
X55218282Y-109870368D01*
X55215906Y-109871666D01*
X55189548Y-109874500D01*
X54999433Y-109874500D01*
X54932394Y-109854815D01*
X54899115Y-109823386D01*
X54861668Y-109771846D01*
X54798828Y-109685354D01*
X54659646Y-109546172D01*
X54500405Y-109430476D01*
X54325029Y-109341117D01*
X54137826Y-109280290D01*
X53943422Y-109249500D01*
X53943417Y-109249500D01*
X53226583Y-109249500D01*
X53226578Y-109249500D01*
X53032173Y-109280290D01*
X52844970Y-109341117D01*
X52669594Y-109430476D01*
X52578741Y-109496485D01*
X52510354Y-109546172D01*
X52510352Y-109546174D01*
X52510351Y-109546174D01*
X52371174Y-109685351D01*
X52371174Y-109685352D01*
X52371172Y-109685354D01*
X52321485Y-109753741D01*
X52255476Y-109844594D01*
X52166117Y-110019970D01*
X52105290Y-110207173D01*
X52074500Y-110401577D01*
X52074500Y-110598422D01*
X52105290Y-110792826D01*
X52166117Y-110980029D01*
X52242778Y-111130484D01*
X52255476Y-111155405D01*
X52371172Y-111314646D01*
X52510354Y-111453828D01*
X52669595Y-111569524D01*
X52752455Y-111611743D01*
X52844970Y-111658882D01*
X52844972Y-111658882D01*
X52844975Y-111658884D01*
X52945317Y-111691487D01*
X53032173Y-111719709D01*
X53226578Y-111750500D01*
X53226583Y-111750500D01*
X53943422Y-111750500D01*
X54137826Y-111719709D01*
X54325025Y-111658884D01*
X54500405Y-111569524D01*
X54552614Y-111531592D01*
X54618420Y-111508111D01*
X54686474Y-111523936D01*
X54735169Y-111574041D01*
X54749500Y-111631909D01*
X54749500Y-112171687D01*
X54729815Y-112238726D01*
X54677011Y-112284481D01*
X54607853Y-112294425D01*
X54586496Y-112289393D01*
X54497797Y-112260001D01*
X54497795Y-112260000D01*
X54395015Y-112249500D01*
X54395008Y-112249500D01*
X52774992Y-112249500D01*
X52774984Y-112249500D01*
X52672204Y-112260000D01*
X52672203Y-112260001D01*
X52505664Y-112315186D01*
X52505662Y-112315187D01*
X52356348Y-112407286D01*
X52356344Y-112407289D01*
X52232289Y-112531344D01*
X52232286Y-112531348D01*
X52140187Y-112680662D01*
X52140186Y-112680664D01*
X52085001Y-112847203D01*
X52085000Y-112847204D01*
X52074500Y-112949984D01*
X52074500Y-114050015D01*
X52085000Y-114152795D01*
X52085001Y-114152796D01*
X52140186Y-114319335D01*
X52140187Y-114319337D01*
X52232286Y-114468651D01*
X52232289Y-114468655D01*
X52356344Y-114592710D01*
X52356348Y-114592713D01*
X52505662Y-114684812D01*
X52505664Y-114684813D01*
X52505666Y-114684814D01*
X52672203Y-114739999D01*
X52774992Y-114750500D01*
X52774997Y-114750500D01*
X54395003Y-114750500D01*
X54395008Y-114750500D01*
X54497797Y-114739999D01*
X54586499Y-114710605D01*
X54656324Y-114708204D01*
X54716366Y-114743935D01*
X54747559Y-114806456D01*
X54749500Y-114828312D01*
X54749500Y-120868090D01*
X54729815Y-120935129D01*
X54677011Y-120980884D01*
X54607853Y-120990828D01*
X54552615Y-120968408D01*
X54500408Y-120930478D01*
X54500407Y-120930477D01*
X54500405Y-120930476D01*
X54445636Y-120902569D01*
X54325029Y-120841117D01*
X54137826Y-120780290D01*
X53943422Y-120749500D01*
X53943417Y-120749500D01*
X53226583Y-120749500D01*
X53226578Y-120749500D01*
X53032173Y-120780290D01*
X52844970Y-120841117D01*
X52669594Y-120930476D01*
X52586528Y-120990828D01*
X52510354Y-121046172D01*
X52510352Y-121046174D01*
X52510351Y-121046174D01*
X52371174Y-121185351D01*
X52371174Y-121185352D01*
X52371172Y-121185354D01*
X52321485Y-121253741D01*
X52255476Y-121344594D01*
X52166117Y-121519970D01*
X52105290Y-121707173D01*
X52074500Y-121901577D01*
X52074500Y-122098422D01*
X52105290Y-122292826D01*
X52166117Y-122480029D01*
X52255476Y-122655405D01*
X52371172Y-122814646D01*
X52510354Y-122953828D01*
X52669595Y-123069524D01*
X52687883Y-123078842D01*
X52844970Y-123158882D01*
X52844972Y-123158882D01*
X52844975Y-123158884D01*
X52945317Y-123191487D01*
X53032173Y-123219709D01*
X53226578Y-123250500D01*
X53226583Y-123250500D01*
X53943422Y-123250500D01*
X54137826Y-123219709D01*
X54325025Y-123158884D01*
X54500405Y-123069524D01*
X54552614Y-123031592D01*
X54618420Y-123008111D01*
X54686474Y-123023936D01*
X54735169Y-123074041D01*
X54749500Y-123131909D01*
X54749500Y-123671687D01*
X54729815Y-123738726D01*
X54677011Y-123784481D01*
X54607853Y-123794425D01*
X54586496Y-123789393D01*
X54497797Y-123760001D01*
X54497795Y-123760000D01*
X54395015Y-123749500D01*
X54395008Y-123749500D01*
X52774992Y-123749500D01*
X52774984Y-123749500D01*
X52672204Y-123760000D01*
X52672203Y-123760001D01*
X52505664Y-123815186D01*
X52505662Y-123815187D01*
X52356348Y-123907286D01*
X52356344Y-123907289D01*
X52232289Y-124031344D01*
X52232286Y-124031348D01*
X52140187Y-124180662D01*
X52140186Y-124180664D01*
X52085001Y-124347203D01*
X52085000Y-124347204D01*
X52074500Y-124449984D01*
X52074500Y-125550015D01*
X52085000Y-125652795D01*
X52085001Y-125652796D01*
X52140186Y-125819335D01*
X52140187Y-125819337D01*
X52232286Y-125968651D01*
X52232289Y-125968655D01*
X52356344Y-126092710D01*
X52356348Y-126092713D01*
X52505662Y-126184812D01*
X52505664Y-126184813D01*
X52505666Y-126184814D01*
X52672203Y-126239999D01*
X52774992Y-126250500D01*
X52774997Y-126250500D01*
X54395003Y-126250500D01*
X54395008Y-126250500D01*
X54497797Y-126239999D01*
X54586499Y-126210605D01*
X54656324Y-126208204D01*
X54716366Y-126243935D01*
X54747559Y-126306456D01*
X54749500Y-126328312D01*
X54749500Y-132368090D01*
X54729815Y-132435129D01*
X54677011Y-132480884D01*
X54607853Y-132490828D01*
X54552615Y-132468408D01*
X54500408Y-132430478D01*
X54500407Y-132430477D01*
X54500405Y-132430476D01*
X54445636Y-132402569D01*
X54325029Y-132341117D01*
X54137826Y-132280290D01*
X53943422Y-132249500D01*
X53943417Y-132249500D01*
X53226583Y-132249500D01*
X53226578Y-132249500D01*
X53032173Y-132280290D01*
X52844970Y-132341117D01*
X52669594Y-132430476D01*
X52586528Y-132490828D01*
X52510354Y-132546172D01*
X52510352Y-132546174D01*
X52510351Y-132546174D01*
X52371174Y-132685351D01*
X52371174Y-132685352D01*
X52371172Y-132685354D01*
X52353983Y-132709013D01*
X52255476Y-132844594D01*
X52166117Y-133019970D01*
X52105290Y-133207173D01*
X52074500Y-133401577D01*
X52074500Y-133598422D01*
X52105290Y-133792826D01*
X52166117Y-133980029D01*
X52255476Y-134155405D01*
X52371172Y-134314646D01*
X52510354Y-134453828D01*
X52669595Y-134569524D01*
X52752455Y-134611743D01*
X52844970Y-134658882D01*
X52844972Y-134658882D01*
X52844975Y-134658884D01*
X52945317Y-134691487D01*
X53032173Y-134719709D01*
X53226578Y-134750500D01*
X53226583Y-134750500D01*
X53943422Y-134750500D01*
X54137826Y-134719709D01*
X54191685Y-134702209D01*
X54325025Y-134658884D01*
X54500405Y-134569524D01*
X54552614Y-134531592D01*
X54618420Y-134508111D01*
X54686474Y-134523936D01*
X54735169Y-134574041D01*
X54749500Y-134631909D01*
X54749500Y-135171687D01*
X54729815Y-135238726D01*
X54677011Y-135284481D01*
X54607853Y-135294425D01*
X54586496Y-135289393D01*
X54497797Y-135260001D01*
X54497795Y-135260000D01*
X54395015Y-135249500D01*
X54395008Y-135249500D01*
X52774992Y-135249500D01*
X52774984Y-135249500D01*
X52672204Y-135260000D01*
X52672203Y-135260001D01*
X52505664Y-135315186D01*
X52505662Y-135315187D01*
X52356348Y-135407286D01*
X52356344Y-135407289D01*
X52232289Y-135531344D01*
X52232286Y-135531348D01*
X52140187Y-135680662D01*
X52140186Y-135680664D01*
X52085001Y-135847203D01*
X52085000Y-135847204D01*
X52074500Y-135949984D01*
X52074500Y-137050015D01*
X52085000Y-137152795D01*
X52085001Y-137152796D01*
X52140186Y-137319335D01*
X52140187Y-137319337D01*
X52232286Y-137468651D01*
X52232289Y-137468655D01*
X52356344Y-137592710D01*
X52356348Y-137592713D01*
X52505662Y-137684812D01*
X52505664Y-137684813D01*
X52505666Y-137684814D01*
X52672203Y-137739999D01*
X52774992Y-137750500D01*
X52774997Y-137750500D01*
X54395003Y-137750500D01*
X54395008Y-137750500D01*
X54497797Y-137739999D01*
X54664334Y-137684814D01*
X54813655Y-137592711D01*
X54937711Y-137468655D01*
X55029814Y-137319334D01*
X55029817Y-137319324D01*
X55032864Y-137312791D01*
X55035143Y-137313854D01*
X55068145Y-137266149D01*
X55121924Y-137240950D01*
X55218913Y-137221658D01*
X55355495Y-137165084D01*
X55404729Y-137132186D01*
X55478416Y-137082952D01*
X56082952Y-136478416D01*
X56135350Y-136399995D01*
X56165084Y-136355495D01*
X56221658Y-136218913D01*
X56237216Y-136140702D01*
X56250500Y-136073920D01*
X56250500Y-112124500D01*
X56270185Y-112057461D01*
X56322989Y-112011706D01*
X56374500Y-112000500D01*
X69028000Y-112000500D01*
X69095039Y-112020185D01*
X69140794Y-112072989D01*
X69152000Y-112124500D01*
X69152000Y-122695396D01*
X69142562Y-122742844D01*
X69132763Y-122766503D01*
X69132762Y-122766506D01*
X69132760Y-122766511D01*
X69102000Y-122921153D01*
X69102000Y-123078846D01*
X69132761Y-123233489D01*
X69132764Y-123233501D01*
X69193102Y-123379172D01*
X69193109Y-123379185D01*
X69280710Y-123510288D01*
X69280713Y-123510292D01*
X69392207Y-123621786D01*
X69392211Y-123621789D01*
X69523314Y-123709390D01*
X69523327Y-123709397D01*
X69645498Y-123760001D01*
X69669003Y-123769737D01*
X69820657Y-123799903D01*
X69823653Y-123800499D01*
X69823656Y-123800500D01*
X69823658Y-123800500D01*
X69981344Y-123800500D01*
X69987407Y-123799903D01*
X69987666Y-123802536D01*
X70045803Y-123807690D01*
X70101017Y-123850507D01*
X70124317Y-123916377D01*
X70124500Y-123923118D01*
X70124500Y-124924245D01*
X70104815Y-124991284D01*
X70088181Y-125011926D01*
X69965519Y-125134587D01*
X69872168Y-125283156D01*
X69872167Y-125283158D01*
X69814217Y-125448771D01*
X69814216Y-125448776D01*
X69799500Y-125579389D01*
X69799500Y-126615610D01*
X69814216Y-126746223D01*
X69814217Y-126746228D01*
X69872167Y-126911841D01*
X69872168Y-126911843D01*
X69965519Y-127060412D01*
X70067426Y-127162319D01*
X70100911Y-127223642D01*
X70095927Y-127293334D01*
X70067426Y-127337681D01*
X69965519Y-127439587D01*
X69872168Y-127588156D01*
X69872167Y-127588158D01*
X69814217Y-127753771D01*
X69814216Y-127753776D01*
X69799500Y-127884389D01*
X69799500Y-128920610D01*
X69814216Y-129051223D01*
X69814217Y-129051228D01*
X69814217Y-129051230D01*
X69814218Y-129051232D01*
X69837378Y-129117419D01*
X69872167Y-129216841D01*
X69872168Y-129216843D01*
X69872169Y-129216845D01*
X69965519Y-129365412D01*
X70089588Y-129489481D01*
X70238155Y-129582831D01*
X70403768Y-129640782D01*
X70403774Y-129640782D01*
X70403776Y-129640783D01*
X70445341Y-129645466D01*
X70534390Y-129655499D01*
X70534393Y-129655500D01*
X70534396Y-129655500D01*
X71400607Y-129655500D01*
X71400607Y-129655499D01*
X71477346Y-129646853D01*
X71486616Y-129645809D01*
X71555438Y-129657863D01*
X71606818Y-129705212D01*
X71624500Y-129769029D01*
X71624500Y-130439548D01*
X71615855Y-130468988D01*
X71609332Y-130498975D01*
X71605577Y-130503990D01*
X71604815Y-130506587D01*
X71588181Y-130527229D01*
X71527229Y-130588181D01*
X71465906Y-130621666D01*
X71439548Y-130624500D01*
X64938389Y-130624500D01*
X64877971Y-130636518D01*
X64840259Y-130644019D01*
X64817550Y-130648536D01*
X64817548Y-130648537D01*
X64784207Y-130662347D01*
X64703719Y-130695684D01*
X64703705Y-130695692D01*
X64601272Y-130764138D01*
X64601264Y-130764144D01*
X63298544Y-132066864D01*
X63298538Y-132066872D01*
X63230090Y-132169308D01*
X63230088Y-132169313D01*
X63213894Y-132208410D01*
X63182938Y-132283144D01*
X63182935Y-132283156D01*
X63158900Y-132403989D01*
X63158900Y-133947348D01*
X63139215Y-134014387D01*
X63086411Y-134060142D01*
X63075855Y-134064389D01*
X62974076Y-134100003D01*
X62974072Y-134100004D01*
X62819709Y-134196998D01*
X62690798Y-134325909D01*
X62593806Y-134480270D01*
X62533592Y-134652350D01*
X62533591Y-134652355D01*
X62518300Y-134788072D01*
X62518300Y-135711922D01*
X62518301Y-135711926D01*
X62533592Y-135847647D01*
X62593805Y-136019728D01*
X62690798Y-136174090D01*
X62690799Y-136174091D01*
X62819709Y-136303001D01*
X62974073Y-136399995D01*
X63136099Y-136456690D01*
X63146150Y-136460207D01*
X63146155Y-136460208D01*
X63214014Y-136467853D01*
X63281879Y-136475500D01*
X64286920Y-136475499D01*
X64286922Y-136475499D01*
X64286923Y-136475498D01*
X64422650Y-136460207D01*
X64594727Y-136399995D01*
X64749091Y-136303001D01*
X64878001Y-136174091D01*
X64898980Y-136140704D01*
X64951314Y-136094412D01*
X65020367Y-136083763D01*
X65084216Y-136112138D01*
X65108967Y-136140702D01*
X65121764Y-136161069D01*
X65250128Y-136289433D01*
X65403839Y-136386015D01*
X65403841Y-136386016D01*
X65575189Y-136445973D01*
X65710332Y-136461199D01*
X65965599Y-136461199D01*
X66465600Y-136461199D01*
X66720865Y-136461199D01*
X66720870Y-136461198D01*
X66856010Y-136445973D01*
X66856023Y-136445970D01*
X67027353Y-136386019D01*
X67027360Y-136386015D01*
X67181071Y-136289433D01*
X67309433Y-136161071D01*
X67406015Y-136007360D01*
X67406016Y-136007358D01*
X67465973Y-135836010D01*
X67481199Y-135700869D01*
X67481200Y-135700865D01*
X67481200Y-135493100D01*
X66465600Y-135493100D01*
X66465600Y-136461199D01*
X65965599Y-136461199D01*
X65965600Y-136461198D01*
X65965600Y-134993100D01*
X66465600Y-134993100D01*
X67481199Y-134993100D01*
X67481199Y-134785335D01*
X67481198Y-134785329D01*
X67465973Y-134650189D01*
X67465970Y-134650176D01*
X67406019Y-134478846D01*
X67406015Y-134478839D01*
X67309433Y-134325128D01*
X67181071Y-134196766D01*
X67027360Y-134100184D01*
X67027358Y-134100183D01*
X66856010Y-134040226D01*
X66720869Y-134025000D01*
X66465600Y-134025000D01*
X66465600Y-134993100D01*
X65965600Y-134993100D01*
X65965600Y-134025000D01*
X65710335Y-134025000D01*
X65710329Y-134025001D01*
X65575189Y-134040226D01*
X65575176Y-134040229D01*
X65403846Y-134100180D01*
X65403839Y-134100184D01*
X65250128Y-134196766D01*
X65121766Y-134325128D01*
X65121765Y-134325130D01*
X65104630Y-134352399D01*
X65052294Y-134398689D01*
X64983240Y-134409335D01*
X64919393Y-134380958D01*
X64894644Y-134352395D01*
X64878004Y-134325913D01*
X64878002Y-134325910D01*
X64749090Y-134196998D01*
X64594727Y-134100004D01*
X64594723Y-134100003D01*
X64492945Y-134064389D01*
X64436169Y-134023668D01*
X64410422Y-133958715D01*
X64409900Y-133947348D01*
X64409900Y-132776052D01*
X64429585Y-132709013D01*
X64446219Y-132688371D01*
X65222771Y-131911819D01*
X65284094Y-131878334D01*
X65310452Y-131875500D01*
X71811607Y-131875500D01*
X71872029Y-131863481D01*
X71932452Y-131851463D01*
X71965792Y-131837652D01*
X72046286Y-131804312D01*
X72097509Y-131770084D01*
X72148733Y-131735858D01*
X72235858Y-131648733D01*
X72235859Y-131648731D01*
X72242925Y-131641665D01*
X72242928Y-131641661D01*
X72648729Y-131235860D01*
X72648733Y-131235858D01*
X72735858Y-131148733D01*
X72787256Y-131071809D01*
X72792156Y-131064477D01*
X72804310Y-131046288D01*
X72804310Y-131046287D01*
X72804312Y-131046285D01*
X72851463Y-130932451D01*
X72875500Y-130811607D01*
X72875500Y-130688393D01*
X72875500Y-129315992D01*
X72895185Y-129248953D01*
X72947989Y-129203198D01*
X73013384Y-129192772D01*
X73049133Y-129196799D01*
X73256899Y-129196799D01*
X73256900Y-129196798D01*
X73256900Y-128055200D01*
X73276585Y-127988161D01*
X73329389Y-127942406D01*
X73380900Y-127931200D01*
X73632900Y-127931200D01*
X73699939Y-127950885D01*
X73745694Y-128003689D01*
X73756900Y-128055200D01*
X73756900Y-129196799D01*
X73964665Y-129196799D01*
X73964670Y-129196798D01*
X74099810Y-129181573D01*
X74099823Y-129181570D01*
X74271153Y-129121619D01*
X74271160Y-129121615D01*
X74424871Y-129025033D01*
X74525301Y-128924604D01*
X74586624Y-128891119D01*
X74656316Y-128896103D01*
X74678953Y-128907291D01*
X74803151Y-128985329D01*
X74803153Y-128985330D01*
X74803155Y-128985331D01*
X74968768Y-129043282D01*
X74968774Y-129043282D01*
X74968776Y-129043283D01*
X75010341Y-129047966D01*
X75099390Y-129057999D01*
X75099393Y-129058000D01*
X75099396Y-129058000D01*
X75965607Y-129058000D01*
X75965608Y-129057999D01*
X76096232Y-129043282D01*
X76261845Y-128985331D01*
X76410412Y-128891981D01*
X76444819Y-128857574D01*
X76506142Y-128824089D01*
X76575834Y-128829073D01*
X76620181Y-128857574D01*
X76654588Y-128891981D01*
X76803155Y-128985331D01*
X76968768Y-129043282D01*
X76968774Y-129043282D01*
X76968776Y-129043283D01*
X77010341Y-129047966D01*
X77099390Y-129057999D01*
X77099393Y-129058000D01*
X77099396Y-129058000D01*
X77965607Y-129058000D01*
X77965608Y-129057999D01*
X78096232Y-129043282D01*
X78261845Y-128985331D01*
X78410412Y-128891981D01*
X78534481Y-128767912D01*
X78627831Y-128619345D01*
X78685782Y-128453732D01*
X78700500Y-128323104D01*
X78700500Y-127286896D01*
X78685782Y-127156268D01*
X78627831Y-126990655D01*
X78534481Y-126842088D01*
X78432574Y-126740181D01*
X78399089Y-126678858D01*
X78404073Y-126609166D01*
X78432574Y-126564819D01*
X78534481Y-126462912D01*
X78627831Y-126314345D01*
X78627831Y-126314344D01*
X78631486Y-126308528D01*
X78683820Y-126262237D01*
X78736480Y-126250500D01*
X87637770Y-126250500D01*
X87704809Y-126270185D01*
X87725451Y-126286819D01*
X90771584Y-129332952D01*
X90820165Y-129365412D01*
X90894505Y-129415084D01*
X91031087Y-129471658D01*
X91031091Y-129471658D01*
X91031092Y-129471659D01*
X91176079Y-129500500D01*
X91176082Y-129500500D01*
X91176083Y-129500500D01*
X91323917Y-129500500D01*
X98145748Y-129500500D01*
X98212787Y-129520185D01*
X98258542Y-129572989D01*
X98268486Y-129642147D01*
X98239461Y-129705703D01*
X98233429Y-129712181D01*
X95941203Y-132004405D01*
X95879880Y-132037890D01*
X95877714Y-132038341D01*
X95766508Y-132060461D01*
X95766498Y-132060464D01*
X95620827Y-132120802D01*
X95620814Y-132120809D01*
X95489711Y-132208410D01*
X95489707Y-132208413D01*
X95378213Y-132319907D01*
X95378210Y-132319911D01*
X95290609Y-132451014D01*
X95290602Y-132451027D01*
X95230264Y-132596698D01*
X95230261Y-132596710D01*
X95199500Y-132751353D01*
X95199500Y-132909046D01*
X95230261Y-133063689D01*
X95230264Y-133063701D01*
X95290602Y-133209372D01*
X95290609Y-133209385D01*
X95378210Y-133340488D01*
X95378213Y-133340492D01*
X95489707Y-133451986D01*
X95489711Y-133451989D01*
X95620814Y-133539590D01*
X95620827Y-133539597D01*
X95714983Y-133578597D01*
X95766503Y-133599937D01*
X95921153Y-133630699D01*
X95921156Y-133630700D01*
X95921158Y-133630700D01*
X96078844Y-133630700D01*
X96078845Y-133630699D01*
X96233497Y-133599937D01*
X96379179Y-133539594D01*
X96510289Y-133451989D01*
X96621789Y-133340489D01*
X96709394Y-133209379D01*
X96769737Y-133063697D01*
X96791858Y-132952482D01*
X96824240Y-132890575D01*
X96825735Y-132889053D01*
X99364329Y-130350460D01*
X99364333Y-130350458D01*
X99451458Y-130263333D01*
X99519911Y-130160886D01*
X99519912Y-130160885D01*
X99519913Y-130160882D01*
X99519915Y-130160879D01*
X99530272Y-130135872D01*
X99567063Y-130047051D01*
X99591100Y-129926206D01*
X99591100Y-129802993D01*
X99591100Y-129292350D01*
X99610785Y-129225311D01*
X99611998Y-129223459D01*
X99625536Y-129203198D01*
X99674994Y-129129179D01*
X99678126Y-129121619D01*
X99735335Y-128983501D01*
X99735337Y-128983497D01*
X99747847Y-128920604D01*
X99754383Y-128887750D01*
X99786768Y-128825839D01*
X99847484Y-128791264D01*
X99917253Y-128795004D01*
X99973925Y-128835871D01*
X99999506Y-128900889D01*
X100000000Y-128911941D01*
X100000000Y-149375500D01*
X99980315Y-149442539D01*
X99927511Y-149488294D01*
X99876000Y-149499500D01*
X98144674Y-149499500D01*
X98077635Y-149479815D01*
X98031880Y-149427011D01*
X98021936Y-149357853D01*
X98050961Y-149294297D01*
X98109739Y-149256523D01*
X98120483Y-149253883D01*
X98186963Y-149240658D01*
X98258291Y-149226471D01*
X98419442Y-149159720D01*
X98564474Y-149062813D01*
X98687813Y-148939474D01*
X98784720Y-148794442D01*
X98851471Y-148633291D01*
X98885500Y-148462214D01*
X98885500Y-148287786D01*
X98851471Y-148116709D01*
X98784720Y-147955558D01*
X98784719Y-147955557D01*
X98784716Y-147955551D01*
X98687813Y-147810526D01*
X98687810Y-147810522D01*
X98564477Y-147687189D01*
X98564473Y-147687186D01*
X98419448Y-147590283D01*
X98419439Y-147590278D01*
X98258291Y-147523529D01*
X98258283Y-147523527D01*
X98087218Y-147489500D01*
X98087214Y-147489500D01*
X97912786Y-147489500D01*
X97912781Y-147489500D01*
X97741716Y-147523527D01*
X97741708Y-147523529D01*
X97580560Y-147590278D01*
X97580551Y-147590283D01*
X97435526Y-147687186D01*
X97435522Y-147687189D01*
X97312189Y-147810522D01*
X97312186Y-147810526D01*
X97215283Y-147955551D01*
X97215278Y-147955560D01*
X97148529Y-148116708D01*
X97148527Y-148116716D01*
X97114500Y-148287781D01*
X97114500Y-148462218D01*
X97148527Y-148633283D01*
X97148529Y-148633291D01*
X97215278Y-148794439D01*
X97215283Y-148794448D01*
X97312186Y-148939473D01*
X97312189Y-148939477D01*
X97435522Y-149062810D01*
X97435526Y-149062813D01*
X97580551Y-149159716D01*
X97580557Y-149159719D01*
X97580558Y-149159720D01*
X97741709Y-149226471D01*
X97799020Y-149237870D01*
X97879517Y-149253883D01*
X97941428Y-149286268D01*
X97976002Y-149346983D01*
X97972263Y-149416753D01*
X97931397Y-149473425D01*
X97866378Y-149499006D01*
X97855326Y-149499500D01*
X86144674Y-149499500D01*
X86077635Y-149479815D01*
X86031880Y-149427011D01*
X86021936Y-149357853D01*
X86050961Y-149294297D01*
X86109739Y-149256523D01*
X86120483Y-149253883D01*
X86186963Y-149240658D01*
X86258291Y-149226471D01*
X86419442Y-149159720D01*
X86564474Y-149062813D01*
X86687813Y-148939474D01*
X86784720Y-148794442D01*
X86851471Y-148633291D01*
X86885500Y-148462214D01*
X86885500Y-148287786D01*
X86851471Y-148116709D01*
X86784720Y-147955558D01*
X86784719Y-147955557D01*
X86784716Y-147955551D01*
X86687813Y-147810526D01*
X86687810Y-147810522D01*
X86564477Y-147687189D01*
X86564473Y-147687186D01*
X86419448Y-147590283D01*
X86419439Y-147590278D01*
X86258291Y-147523529D01*
X86258283Y-147523527D01*
X86087218Y-147489500D01*
X86087214Y-147489500D01*
X85912786Y-147489500D01*
X85912781Y-147489500D01*
X85741716Y-147523527D01*
X85741708Y-147523529D01*
X85580560Y-147590278D01*
X85580551Y-147590283D01*
X85435526Y-147687186D01*
X85435522Y-147687189D01*
X85312189Y-147810522D01*
X85312186Y-147810526D01*
X85215283Y-147955551D01*
X85215278Y-147955560D01*
X85148529Y-148116708D01*
X85148527Y-148116716D01*
X85114500Y-148287781D01*
X85114500Y-148462218D01*
X85148527Y-148633283D01*
X85148529Y-148633291D01*
X85215278Y-148794439D01*
X85215283Y-148794448D01*
X85312186Y-148939473D01*
X85312189Y-148939477D01*
X85435522Y-149062810D01*
X85435526Y-149062813D01*
X85580551Y-149159716D01*
X85580557Y-149159719D01*
X85580558Y-149159720D01*
X85741709Y-149226471D01*
X85799020Y-149237870D01*
X85879517Y-149253883D01*
X85941428Y-149286268D01*
X85976002Y-149346983D01*
X85972263Y-149416753D01*
X85931397Y-149473425D01*
X85866378Y-149499006D01*
X85855326Y-149499500D01*
X83394674Y-149499500D01*
X83327635Y-149479815D01*
X83281880Y-149427011D01*
X83271936Y-149357853D01*
X83300961Y-149294297D01*
X83359739Y-149256523D01*
X83370483Y-149253883D01*
X83436963Y-149240658D01*
X83508291Y-149226471D01*
X83669442Y-149159720D01*
X83814474Y-149062813D01*
X83937813Y-148939474D01*
X84034720Y-148794442D01*
X84101471Y-148633291D01*
X84135500Y-148462214D01*
X84135500Y-148287786D01*
X84101471Y-148116709D01*
X84034720Y-147955558D01*
X84034719Y-147955557D01*
X84034716Y-147955551D01*
X83937813Y-147810526D01*
X83937810Y-147810522D01*
X83814477Y-147687189D01*
X83814473Y-147687186D01*
X83669448Y-147590283D01*
X83669439Y-147590278D01*
X83508291Y-147523529D01*
X83508283Y-147523527D01*
X83337218Y-147489500D01*
X83337214Y-147489500D01*
X83162786Y-147489500D01*
X83162781Y-147489500D01*
X82991716Y-147523527D01*
X82991708Y-147523529D01*
X82830560Y-147590278D01*
X82830551Y-147590283D01*
X82685526Y-147687186D01*
X82685522Y-147687189D01*
X82562189Y-147810522D01*
X82562186Y-147810526D01*
X82465283Y-147955551D01*
X82465278Y-147955560D01*
X82398529Y-148116708D01*
X82398527Y-148116716D01*
X82364500Y-148287781D01*
X82364500Y-148462218D01*
X82398527Y-148633283D01*
X82398529Y-148633291D01*
X82465278Y-148794439D01*
X82465283Y-148794448D01*
X82562186Y-148939473D01*
X82562189Y-148939477D01*
X82685522Y-149062810D01*
X82685526Y-149062813D01*
X82830551Y-149159716D01*
X82830557Y-149159719D01*
X82830558Y-149159720D01*
X82991709Y-149226471D01*
X83049020Y-149237870D01*
X83129517Y-149253883D01*
X83191428Y-149286268D01*
X83226002Y-149346983D01*
X83222263Y-149416753D01*
X83181397Y-149473425D01*
X83116378Y-149499006D01*
X83105326Y-149499500D01*
X71394674Y-149499500D01*
X71327635Y-149479815D01*
X71281880Y-149427011D01*
X71271936Y-149357853D01*
X71300961Y-149294297D01*
X71359739Y-149256523D01*
X71370483Y-149253883D01*
X71436963Y-149240658D01*
X71508291Y-149226471D01*
X71669442Y-149159720D01*
X71814474Y-149062813D01*
X71937813Y-148939474D01*
X72034720Y-148794442D01*
X72101471Y-148633291D01*
X72135500Y-148462214D01*
X72135500Y-148287786D01*
X72101471Y-148116709D01*
X72034720Y-147955558D01*
X72034719Y-147955557D01*
X72034716Y-147955551D01*
X71937813Y-147810526D01*
X71937810Y-147810522D01*
X71814477Y-147687189D01*
X71814473Y-147687186D01*
X71669448Y-147590283D01*
X71669439Y-147590278D01*
X71508291Y-147523529D01*
X71508283Y-147523527D01*
X71337218Y-147489500D01*
X71337214Y-147489500D01*
X71162786Y-147489500D01*
X71162781Y-147489500D01*
X70991716Y-147523527D01*
X70991708Y-147523529D01*
X70830560Y-147590278D01*
X70830551Y-147590283D01*
X70685526Y-147687186D01*
X70685522Y-147687189D01*
X70562189Y-147810522D01*
X70562186Y-147810526D01*
X70465283Y-147955551D01*
X70465278Y-147955560D01*
X70398529Y-148116708D01*
X70398527Y-148116716D01*
X70364500Y-148287781D01*
X70364500Y-148462218D01*
X70398527Y-148633283D01*
X70398529Y-148633291D01*
X70465278Y-148794439D01*
X70465283Y-148794448D01*
X70562186Y-148939473D01*
X70562189Y-148939477D01*
X70685522Y-149062810D01*
X70685526Y-149062813D01*
X70830551Y-149159716D01*
X70830557Y-149159719D01*
X70830558Y-149159720D01*
X70991709Y-149226471D01*
X71049020Y-149237870D01*
X71129517Y-149253883D01*
X71191428Y-149286268D01*
X71226002Y-149346983D01*
X71222263Y-149416753D01*
X71181397Y-149473425D01*
X71116378Y-149499006D01*
X71105326Y-149499500D01*
X50624500Y-149499500D01*
X50557461Y-149479815D01*
X50511706Y-149427011D01*
X50500500Y-149375500D01*
X50500500Y-144865186D01*
X52599500Y-144865186D01*
X52599500Y-145134813D01*
X52629686Y-145402719D01*
X52629688Y-145402731D01*
X52689684Y-145665594D01*
X52689687Y-145665602D01*
X52778734Y-145920082D01*
X52895714Y-146162994D01*
X52895716Y-146162997D01*
X53039162Y-146391289D01*
X53207266Y-146602085D01*
X53397915Y-146792734D01*
X53608711Y-146960838D01*
X53837003Y-147104284D01*
X54079921Y-147221267D01*
X54271049Y-147288145D01*
X54334397Y-147310312D01*
X54334405Y-147310315D01*
X54334408Y-147310315D01*
X54334409Y-147310316D01*
X54597268Y-147370312D01*
X54865187Y-147400499D01*
X54865188Y-147400500D01*
X54865191Y-147400500D01*
X55134812Y-147400500D01*
X55134812Y-147400499D01*
X55402732Y-147370312D01*
X55665591Y-147310316D01*
X55920079Y-147221267D01*
X56162997Y-147104284D01*
X56391289Y-146960838D01*
X56602085Y-146792734D01*
X56792734Y-146602085D01*
X56960838Y-146391289D01*
X57104284Y-146162997D01*
X57221267Y-145920079D01*
X57310316Y-145665591D01*
X57370312Y-145402732D01*
X57400500Y-145134809D01*
X57400500Y-144865191D01*
X57380278Y-144685717D01*
X57379069Y-144674983D01*
X62399500Y-144674983D01*
X62399500Y-146275001D01*
X62399501Y-146275018D01*
X62410000Y-146377796D01*
X62410001Y-146377799D01*
X62455894Y-146516294D01*
X62465186Y-146544334D01*
X62557288Y-146693656D01*
X62681344Y-146817712D01*
X62830666Y-146909814D01*
X62997203Y-146964999D01*
X63099991Y-146975500D01*
X64400008Y-146975499D01*
X64502797Y-146964999D01*
X64669334Y-146909814D01*
X64818656Y-146817712D01*
X64942712Y-146693656D01*
X65034814Y-146544334D01*
X65034814Y-146544331D01*
X65038178Y-146538879D01*
X65090126Y-146492154D01*
X65159088Y-146480931D01*
X65223170Y-146508774D01*
X65231398Y-146516294D01*
X65370213Y-146655109D01*
X65542179Y-146780048D01*
X65542181Y-146780049D01*
X65542184Y-146780051D01*
X65731588Y-146876557D01*
X65933757Y-146942246D01*
X66143713Y-146975500D01*
X66143714Y-146975500D01*
X66356286Y-146975500D01*
X66356287Y-146975500D01*
X66566243Y-146942246D01*
X66768412Y-146876557D01*
X66957816Y-146780051D01*
X66979789Y-146764086D01*
X67129786Y-146655109D01*
X67129788Y-146655106D01*
X67129792Y-146655104D01*
X67280104Y-146504792D01*
X67280106Y-146504788D01*
X67280109Y-146504786D01*
X67405048Y-146332820D01*
X67405047Y-146332820D01*
X67405051Y-146332816D01*
X67501557Y-146143412D01*
X67529772Y-146056577D01*
X72999500Y-146056577D01*
X72999500Y-146773422D01*
X73030290Y-146967826D01*
X73091117Y-147155029D01*
X73126777Y-147225015D01*
X73180476Y-147330405D01*
X73296172Y-147489646D01*
X73435354Y-147628828D01*
X73594595Y-147744524D01*
X73677455Y-147786743D01*
X73769970Y-147833882D01*
X73769972Y-147833882D01*
X73769975Y-147833884D01*
X73849773Y-147859812D01*
X73957173Y-147894709D01*
X74151578Y-147925500D01*
X74151583Y-147925500D01*
X74348422Y-147925500D01*
X74542826Y-147894709D01*
X74730025Y-147833884D01*
X74905405Y-147744524D01*
X75064646Y-147628828D01*
X75203828Y-147489646D01*
X75319524Y-147330405D01*
X75408884Y-147155025D01*
X75469709Y-146967826D01*
X75470816Y-146960838D01*
X75500500Y-146773422D01*
X75500500Y-146056577D01*
X75999500Y-146056577D01*
X75999500Y-146773422D01*
X76030290Y-146967826D01*
X76091117Y-147155029D01*
X76126777Y-147225015D01*
X76180476Y-147330405D01*
X76296172Y-147489646D01*
X76435354Y-147628828D01*
X76594595Y-147744524D01*
X76677455Y-147786743D01*
X76769970Y-147833882D01*
X76769972Y-147833882D01*
X76769975Y-147833884D01*
X76849773Y-147859812D01*
X76957173Y-147894709D01*
X77151578Y-147925500D01*
X77151583Y-147925500D01*
X77348422Y-147925500D01*
X77542826Y-147894709D01*
X77730025Y-147833884D01*
X77905405Y-147744524D01*
X78064646Y-147628828D01*
X78203828Y-147489646D01*
X78319524Y-147330405D01*
X78408884Y-147155025D01*
X78469709Y-146967826D01*
X78470816Y-146960838D01*
X78500500Y-146773422D01*
X78500500Y-146056577D01*
X78469709Y-145862173D01*
X78427181Y-145731287D01*
X78408884Y-145674975D01*
X78408881Y-145674971D01*
X78408881Y-145674968D01*
X78400302Y-145658131D01*
X78400301Y-145658130D01*
X78373222Y-145604984D01*
X78999500Y-145604984D01*
X78999500Y-147225015D01*
X79010000Y-147327795D01*
X79010001Y-147327797D01*
X79034092Y-147400499D01*
X79065186Y-147494335D01*
X79065187Y-147494337D01*
X79157286Y-147643651D01*
X79157289Y-147643655D01*
X79281344Y-147767710D01*
X79281348Y-147767713D01*
X79430662Y-147859812D01*
X79430664Y-147859813D01*
X79430666Y-147859814D01*
X79597203Y-147914999D01*
X79699992Y-147925500D01*
X79699997Y-147925500D01*
X80800003Y-147925500D01*
X80800008Y-147925500D01*
X80902797Y-147914999D01*
X81069334Y-147859814D01*
X81218655Y-147767711D01*
X81342711Y-147643655D01*
X81434814Y-147494334D01*
X81489999Y-147327797D01*
X81500500Y-147225008D01*
X81500500Y-146056577D01*
X87749500Y-146056577D01*
X87749500Y-146773422D01*
X87780290Y-146967826D01*
X87841117Y-147155029D01*
X87876777Y-147225015D01*
X87930476Y-147330405D01*
X88046172Y-147489646D01*
X88185354Y-147628828D01*
X88344595Y-147744524D01*
X88427455Y-147786743D01*
X88519970Y-147833882D01*
X88519972Y-147833882D01*
X88519975Y-147833884D01*
X88599773Y-147859812D01*
X88707173Y-147894709D01*
X88901578Y-147925500D01*
X88901583Y-147925500D01*
X89098422Y-147925500D01*
X89292826Y-147894709D01*
X89480025Y-147833884D01*
X89655405Y-147744524D01*
X89814646Y-147628828D01*
X89953828Y-147489646D01*
X90069524Y-147330405D01*
X90158884Y-147155025D01*
X90219709Y-146967826D01*
X90220816Y-146960838D01*
X90250500Y-146773422D01*
X90250500Y-146056577D01*
X90749500Y-146056577D01*
X90749500Y-146773422D01*
X90780290Y-146967826D01*
X90841117Y-147155029D01*
X90876777Y-147225015D01*
X90930476Y-147330405D01*
X91046172Y-147489646D01*
X91185354Y-147628828D01*
X91344595Y-147744524D01*
X91427455Y-147786743D01*
X91519970Y-147833882D01*
X91519972Y-147833882D01*
X91519975Y-147833884D01*
X91599773Y-147859812D01*
X91707173Y-147894709D01*
X91901578Y-147925500D01*
X91901583Y-147925500D01*
X92098422Y-147925500D01*
X92292826Y-147894709D01*
X92480025Y-147833884D01*
X92655405Y-147744524D01*
X92814646Y-147628828D01*
X92953828Y-147489646D01*
X93069524Y-147330405D01*
X93158884Y-147155025D01*
X93219709Y-146967826D01*
X93220816Y-146960838D01*
X93250500Y-146773422D01*
X93250500Y-146056577D01*
X93219709Y-145862173D01*
X93177181Y-145731287D01*
X93158884Y-145674975D01*
X93158881Y-145674971D01*
X93158881Y-145674968D01*
X93150302Y-145658131D01*
X93150301Y-145658130D01*
X93123222Y-145604984D01*
X93749500Y-145604984D01*
X93749500Y-147225015D01*
X93760000Y-147327795D01*
X93760001Y-147327797D01*
X93784092Y-147400499D01*
X93815186Y-147494335D01*
X93815187Y-147494337D01*
X93907286Y-147643651D01*
X93907289Y-147643655D01*
X94031344Y-147767710D01*
X94031348Y-147767713D01*
X94180662Y-147859812D01*
X94180664Y-147859813D01*
X94180666Y-147859814D01*
X94347203Y-147914999D01*
X94449992Y-147925500D01*
X94449997Y-147925500D01*
X95550003Y-147925500D01*
X95550008Y-147925500D01*
X95652797Y-147914999D01*
X95819334Y-147859814D01*
X95968655Y-147767711D01*
X96092711Y-147643655D01*
X96184814Y-147494334D01*
X96239999Y-147327797D01*
X96250500Y-147225008D01*
X96250500Y-145604992D01*
X96239999Y-145502203D01*
X96184814Y-145335666D01*
X96101856Y-145201172D01*
X96092713Y-145186348D01*
X96092710Y-145186344D01*
X95968655Y-145062289D01*
X95968651Y-145062286D01*
X95819337Y-144970187D01*
X95819335Y-144970186D01*
X95714025Y-144935290D01*
X95652797Y-144915001D01*
X95652795Y-144915000D01*
X95550015Y-144904500D01*
X95550008Y-144904500D01*
X94449992Y-144904500D01*
X94449984Y-144904500D01*
X94347204Y-144915000D01*
X94347203Y-144915001D01*
X94180664Y-144970186D01*
X94180662Y-144970187D01*
X94031348Y-145062286D01*
X94031344Y-145062289D01*
X93907289Y-145186344D01*
X93907286Y-145186348D01*
X93815187Y-145335662D01*
X93815186Y-145335664D01*
X93760001Y-145502203D01*
X93760000Y-145502204D01*
X93749500Y-145604984D01*
X93123222Y-145604984D01*
X93069524Y-145499595D01*
X92953828Y-145340354D01*
X92814646Y-145201172D01*
X92655405Y-145085476D01*
X92609892Y-145062286D01*
X92480029Y-144996117D01*
X92292826Y-144935290D01*
X92098422Y-144904500D01*
X92098417Y-144904500D01*
X91901583Y-144904500D01*
X91901578Y-144904500D01*
X91707173Y-144935290D01*
X91519970Y-144996117D01*
X91344594Y-145085476D01*
X91276689Y-145134813D01*
X91185354Y-145201172D01*
X91185352Y-145201174D01*
X91185351Y-145201174D01*
X91046174Y-145340351D01*
X91046174Y-145340352D01*
X91046172Y-145340354D01*
X90996485Y-145408741D01*
X90930476Y-145499594D01*
X90841117Y-145674970D01*
X90780290Y-145862173D01*
X90749500Y-146056577D01*
X90250500Y-146056577D01*
X90219709Y-145862173D01*
X90177181Y-145731287D01*
X90158884Y-145674975D01*
X90158882Y-145674972D01*
X90158882Y-145674970D01*
X90070853Y-145502204D01*
X90069524Y-145499595D01*
X89953828Y-145340354D01*
X89814646Y-145201172D01*
X89655405Y-145085476D01*
X89609892Y-145062286D01*
X89480029Y-144996117D01*
X89292826Y-144935290D01*
X89098422Y-144904500D01*
X89098417Y-144904500D01*
X88901583Y-144904500D01*
X88901578Y-144904500D01*
X88707173Y-144935290D01*
X88519970Y-144996117D01*
X88344594Y-145085476D01*
X88276689Y-145134813D01*
X88185354Y-145201172D01*
X88185352Y-145201174D01*
X88185351Y-145201174D01*
X88046174Y-145340351D01*
X88046174Y-145340352D01*
X88046172Y-145340354D01*
X87996485Y-145408741D01*
X87930476Y-145499594D01*
X87841117Y-145674970D01*
X87780290Y-145862173D01*
X87749500Y-146056577D01*
X81500500Y-146056577D01*
X81500500Y-145604992D01*
X81489999Y-145502203D01*
X81434814Y-145335666D01*
X81351856Y-145201172D01*
X81342713Y-145186348D01*
X81342710Y-145186344D01*
X81218655Y-145062289D01*
X81218651Y-145062286D01*
X81069337Y-144970187D01*
X81069335Y-144970186D01*
X80964025Y-144935290D01*
X80902797Y-144915001D01*
X80902795Y-144915000D01*
X80800015Y-144904500D01*
X80800008Y-144904500D01*
X79699992Y-144904500D01*
X79699984Y-144904500D01*
X79597204Y-144915000D01*
X79597203Y-144915001D01*
X79430664Y-144970186D01*
X79430662Y-144970187D01*
X79281348Y-145062286D01*
X79281344Y-145062289D01*
X79157289Y-145186344D01*
X79157286Y-145186348D01*
X79065187Y-145335662D01*
X79065186Y-145335664D01*
X79010001Y-145502203D01*
X79010000Y-145502204D01*
X78999500Y-145604984D01*
X78373222Y-145604984D01*
X78319524Y-145499595D01*
X78203828Y-145340354D01*
X78064646Y-145201172D01*
X77905405Y-145085476D01*
X77859892Y-145062286D01*
X77730029Y-144996117D01*
X77542826Y-144935290D01*
X77348422Y-144904500D01*
X77348417Y-144904500D01*
X77151583Y-144904500D01*
X77151578Y-144904500D01*
X76957173Y-144935290D01*
X76769970Y-144996117D01*
X76594594Y-145085476D01*
X76526689Y-145134813D01*
X76435354Y-145201172D01*
X76435352Y-145201174D01*
X76435351Y-145201174D01*
X76296174Y-145340351D01*
X76296174Y-145340352D01*
X76296172Y-145340354D01*
X76246485Y-145408741D01*
X76180476Y-145499594D01*
X76091117Y-145674970D01*
X76030290Y-145862173D01*
X75999500Y-146056577D01*
X75500500Y-146056577D01*
X75469709Y-145862173D01*
X75427181Y-145731287D01*
X75408884Y-145674975D01*
X75408882Y-145674972D01*
X75408882Y-145674970D01*
X75320853Y-145502204D01*
X75319524Y-145499595D01*
X75203828Y-145340354D01*
X75064646Y-145201172D01*
X74905405Y-145085476D01*
X74859892Y-145062286D01*
X74730029Y-144996117D01*
X74542826Y-144935290D01*
X74348422Y-144904500D01*
X74348417Y-144904500D01*
X74151583Y-144904500D01*
X74151578Y-144904500D01*
X73957173Y-144935290D01*
X73769970Y-144996117D01*
X73594594Y-145085476D01*
X73526689Y-145134813D01*
X73435354Y-145201172D01*
X73435352Y-145201174D01*
X73435351Y-145201174D01*
X73296174Y-145340351D01*
X73296174Y-145340352D01*
X73296172Y-145340354D01*
X73246485Y-145408741D01*
X73180476Y-145499594D01*
X73091117Y-145674970D01*
X73030290Y-145862173D01*
X72999500Y-146056577D01*
X67529772Y-146056577D01*
X67567246Y-145941243D01*
X67600500Y-145731287D01*
X67600500Y-145218713D01*
X67567246Y-145008757D01*
X67501557Y-144806588D01*
X67405051Y-144617184D01*
X67405049Y-144617181D01*
X67405048Y-144617179D01*
X67280109Y-144445213D01*
X67129786Y-144294890D01*
X66957820Y-144169951D01*
X66768414Y-144073444D01*
X66768413Y-144073443D01*
X66768412Y-144073443D01*
X66566243Y-144007754D01*
X66566241Y-144007753D01*
X66566240Y-144007753D01*
X66404957Y-143982208D01*
X66356287Y-143974500D01*
X66143713Y-143974500D01*
X66095042Y-143982208D01*
X65933760Y-144007753D01*
X65731585Y-144073444D01*
X65542179Y-144169951D01*
X65370215Y-144294889D01*
X65231398Y-144433706D01*
X65170075Y-144467190D01*
X65100383Y-144462206D01*
X65044450Y-144420334D01*
X65038178Y-144411120D01*
X64942712Y-144256344D01*
X64818657Y-144132289D01*
X64818656Y-144132288D01*
X64669334Y-144040186D01*
X64502797Y-143985001D01*
X64502795Y-143985000D01*
X64400010Y-143974500D01*
X63099998Y-143974500D01*
X63099981Y-143974501D01*
X62997203Y-143985000D01*
X62997200Y-143985001D01*
X62830668Y-144040185D01*
X62830663Y-144040187D01*
X62681342Y-144132289D01*
X62557289Y-144256342D01*
X62465187Y-144405663D01*
X62465185Y-144405668D01*
X62460325Y-144420334D01*
X62410001Y-144572203D01*
X62410001Y-144572204D01*
X62410000Y-144572204D01*
X62399500Y-144674983D01*
X57379069Y-144674983D01*
X57370314Y-144597281D01*
X57370312Y-144597276D01*
X57370312Y-144597268D01*
X57310316Y-144334409D01*
X57221267Y-144079921D01*
X57104284Y-143837003D01*
X56960838Y-143608711D01*
X56792734Y-143397915D01*
X56602085Y-143207266D01*
X56391289Y-143039162D01*
X56162997Y-142895716D01*
X56162994Y-142895714D01*
X55920082Y-142778734D01*
X55665602Y-142689687D01*
X55665594Y-142689684D01*
X55468446Y-142644687D01*
X55402732Y-142629688D01*
X55402728Y-142629687D01*
X55402719Y-142629686D01*
X55134813Y-142599500D01*
X55134809Y-142599500D01*
X54865191Y-142599500D01*
X54865186Y-142599500D01*
X54597280Y-142629686D01*
X54597268Y-142629688D01*
X54334405Y-142689684D01*
X54334397Y-142689687D01*
X54079917Y-142778734D01*
X53837005Y-142895714D01*
X53608712Y-143039161D01*
X53397915Y-143207265D01*
X53207265Y-143397915D01*
X53039161Y-143608712D01*
X52895714Y-143837005D01*
X52778734Y-144079917D01*
X52689687Y-144334397D01*
X52689684Y-144334405D01*
X52629688Y-144597268D01*
X52629686Y-144597280D01*
X52599500Y-144865186D01*
X50500500Y-144865186D01*
X50500500Y-139644673D01*
X50520185Y-139577634D01*
X50572989Y-139531879D01*
X50642147Y-139521935D01*
X50705703Y-139550960D01*
X50743477Y-139609738D01*
X50746117Y-139620482D01*
X50773527Y-139758283D01*
X50773529Y-139758291D01*
X50840278Y-139919439D01*
X50840283Y-139919448D01*
X50937186Y-140064473D01*
X50937189Y-140064477D01*
X51060522Y-140187810D01*
X51060526Y-140187813D01*
X51205551Y-140284716D01*
X51205557Y-140284719D01*
X51205558Y-140284720D01*
X51366709Y-140351471D01*
X51537781Y-140385499D01*
X51537785Y-140385500D01*
X51537786Y-140385500D01*
X51712215Y-140385500D01*
X51712216Y-140385499D01*
X51883291Y-140351471D01*
X52044442Y-140284720D01*
X52189474Y-140187813D01*
X52312813Y-140064474D01*
X52409720Y-139919442D01*
X52476471Y-139758291D01*
X52510500Y-139587214D01*
X52510500Y-139482170D01*
X73318802Y-139482170D01*
X73334027Y-139617310D01*
X73334030Y-139617323D01*
X73393981Y-139788653D01*
X73393985Y-139788660D01*
X73490567Y-139942371D01*
X73618929Y-140070733D01*
X73772640Y-140167315D01*
X73772642Y-140167316D01*
X73943990Y-140227273D01*
X74079133Y-140242499D01*
X74334400Y-140242499D01*
X74334401Y-140242498D01*
X74334401Y-139274400D01*
X73318802Y-139274400D01*
X73318802Y-139482170D01*
X52510500Y-139482170D01*
X52510500Y-139412786D01*
X52477568Y-139247224D01*
X52476472Y-139241713D01*
X52476471Y-139241711D01*
X52476471Y-139241709D01*
X52409720Y-139080558D01*
X52409719Y-139080557D01*
X52409716Y-139080551D01*
X52312813Y-138935526D01*
X52312810Y-138935522D01*
X52189477Y-138812189D01*
X52189473Y-138812186D01*
X52044448Y-138715283D01*
X52044439Y-138715278D01*
X51953762Y-138677719D01*
X51953760Y-138677718D01*
X51883295Y-138648530D01*
X51883283Y-138648527D01*
X51712218Y-138614500D01*
X51712214Y-138614500D01*
X51537786Y-138614500D01*
X51537781Y-138614500D01*
X51366716Y-138648527D01*
X51366708Y-138648529D01*
X51205560Y-138715278D01*
X51205551Y-138715283D01*
X51060526Y-138812186D01*
X51060522Y-138812189D01*
X50937189Y-138935522D01*
X50937186Y-138935526D01*
X50840283Y-139080551D01*
X50840278Y-139080560D01*
X50773529Y-139241708D01*
X50773527Y-139241716D01*
X50746117Y-139379517D01*
X50713732Y-139441428D01*
X50653017Y-139476002D01*
X50583247Y-139472263D01*
X50526575Y-139431397D01*
X50500994Y-139366378D01*
X50500500Y-139355326D01*
X50500500Y-138566630D01*
X73318801Y-138566630D01*
X73318801Y-138774400D01*
X74334401Y-138774400D01*
X74334401Y-137806300D01*
X74834401Y-137806300D01*
X74834401Y-140242499D01*
X75089666Y-140242499D01*
X75089671Y-140242498D01*
X75224811Y-140227273D01*
X75224824Y-140227270D01*
X75396154Y-140167319D01*
X75396161Y-140167315D01*
X75549872Y-140070733D01*
X75678237Y-139942368D01*
X75695368Y-139915104D01*
X75747702Y-139868812D01*
X75816755Y-139858163D01*
X75880604Y-139886538D01*
X75905356Y-139915103D01*
X75921998Y-139941589D01*
X75922000Y-139941591D01*
X76050910Y-140070501D01*
X76205274Y-140167495D01*
X76376102Y-140227270D01*
X76377351Y-140227707D01*
X76377356Y-140227708D01*
X76445215Y-140235353D01*
X76513080Y-140243000D01*
X77518121Y-140242999D01*
X77518123Y-140242999D01*
X77518124Y-140242998D01*
X77653851Y-140227707D01*
X77825928Y-140167495D01*
X77980292Y-140070501D01*
X78031947Y-140018845D01*
X78093268Y-139985361D01*
X78162960Y-139990345D01*
X78185598Y-140001533D01*
X78283151Y-140062829D01*
X78283153Y-140062830D01*
X78283155Y-140062831D01*
X78448768Y-140120782D01*
X78448774Y-140120782D01*
X78448776Y-140120783D01*
X78490341Y-140125466D01*
X78579390Y-140135499D01*
X78579393Y-140135500D01*
X78579396Y-140135500D01*
X79615607Y-140135500D01*
X79615608Y-140135499D01*
X79746232Y-140120782D01*
X79911845Y-140062831D01*
X80060412Y-139969481D01*
X80162319Y-139867574D01*
X80223642Y-139834089D01*
X80293334Y-139839073D01*
X80337681Y-139867574D01*
X80439588Y-139969481D01*
X80588155Y-140062831D01*
X80753768Y-140120782D01*
X80753774Y-140120782D01*
X80753776Y-140120783D01*
X80795341Y-140125466D01*
X80884390Y-140135499D01*
X80884393Y-140135500D01*
X80884396Y-140135500D01*
X81920607Y-140135500D01*
X81920608Y-140135499D01*
X82051232Y-140120782D01*
X82216845Y-140062831D01*
X82252991Y-140040118D01*
X82320222Y-140021119D01*
X82387058Y-140041485D01*
X82406641Y-140057432D01*
X82419710Y-140070501D01*
X82574074Y-140167495D01*
X82744902Y-140227270D01*
X82746151Y-140227707D01*
X82746156Y-140227708D01*
X82814015Y-140235353D01*
X82881880Y-140243000D01*
X83886921Y-140242999D01*
X83886923Y-140242999D01*
X83886924Y-140242998D01*
X84022651Y-140227707D01*
X84194728Y-140167495D01*
X84349092Y-140070501D01*
X84478002Y-139941591D01*
X84486184Y-139928569D01*
X84498981Y-139908204D01*
X84551315Y-139861912D01*
X84620368Y-139851263D01*
X84684217Y-139879638D01*
X84708968Y-139908202D01*
X84721765Y-139928569D01*
X84850129Y-140056933D01*
X85003840Y-140153515D01*
X85003842Y-140153516D01*
X85175190Y-140213473D01*
X85310333Y-140228699D01*
X85565600Y-140228699D01*
X86065601Y-140228699D01*
X86320866Y-140228699D01*
X86320871Y-140228698D01*
X86456011Y-140213473D01*
X86456024Y-140213470D01*
X86627354Y-140153519D01*
X86627361Y-140153515D01*
X86781072Y-140056933D01*
X86909434Y-139928571D01*
X87006016Y-139774860D01*
X87006017Y-139774858D01*
X87065974Y-139603510D01*
X87081200Y-139468369D01*
X87081201Y-139468365D01*
X87081201Y-139260600D01*
X86065601Y-139260600D01*
X86065601Y-140228699D01*
X85565600Y-140228699D01*
X85565601Y-140228698D01*
X85565601Y-138760600D01*
X86065601Y-138760600D01*
X87081200Y-138760600D01*
X87081200Y-138552835D01*
X87081199Y-138552829D01*
X87065974Y-138417689D01*
X87065971Y-138417676D01*
X87006020Y-138246346D01*
X87006016Y-138246339D01*
X86909434Y-138092628D01*
X86781072Y-137964266D01*
X86627361Y-137867684D01*
X86627359Y-137867683D01*
X86456011Y-137807726D01*
X86320870Y-137792500D01*
X86065601Y-137792500D01*
X86065601Y-138760600D01*
X85565601Y-138760600D01*
X85565601Y-137792500D01*
X85310336Y-137792500D01*
X85310330Y-137792501D01*
X85175190Y-137807726D01*
X85175177Y-137807729D01*
X85003847Y-137867680D01*
X85003840Y-137867684D01*
X84850129Y-137964266D01*
X84721767Y-138092628D01*
X84721766Y-138092630D01*
X84704631Y-138119899D01*
X84652295Y-138166189D01*
X84583241Y-138176835D01*
X84519394Y-138148458D01*
X84494645Y-138119895D01*
X84478005Y-138093413D01*
X84478003Y-138093410D01*
X84349091Y-137964498D01*
X84194729Y-137867505D01*
X84129986Y-137844851D01*
X84067946Y-137823142D01*
X84011171Y-137782421D01*
X83985423Y-137717469D01*
X83984901Y-137706101D01*
X83984901Y-136402198D01*
X84004586Y-136335159D01*
X84010515Y-136326724D01*
X84110230Y-136196774D01*
X84221687Y-136003726D01*
X84306992Y-135797781D01*
X84364686Y-135582463D01*
X84393782Y-135361457D01*
X84393782Y-135138543D01*
X84364686Y-134917537D01*
X84306992Y-134702219D01*
X84221687Y-134496274D01*
X84110230Y-134303226D01*
X83974529Y-134126376D01*
X83974524Y-134126370D01*
X83816911Y-133968757D01*
X83816904Y-133968751D01*
X83640064Y-133833058D01*
X83640062Y-133833057D01*
X83640056Y-133833052D01*
X83447008Y-133721595D01*
X83447004Y-133721593D01*
X83241072Y-133636293D01*
X83241065Y-133636291D01*
X83241063Y-133636290D01*
X83025745Y-133578596D01*
X83025739Y-133578595D01*
X83025734Y-133578594D01*
X82804748Y-133549501D01*
X82804745Y-133549500D01*
X82804739Y-133549500D01*
X82581825Y-133549500D01*
X82581819Y-133549500D01*
X82581815Y-133549501D01*
X82360829Y-133578594D01*
X82360822Y-133578595D01*
X82360819Y-133578596D01*
X82166367Y-133630699D01*
X82145501Y-133636290D01*
X82145491Y-133636293D01*
X81939559Y-133721593D01*
X81939555Y-133721595D01*
X81746508Y-133833052D01*
X81746499Y-133833058D01*
X81569659Y-133968751D01*
X81569652Y-133968757D01*
X81412039Y-134126370D01*
X81412033Y-134126377D01*
X81276340Y-134303217D01*
X81276334Y-134303226D01*
X81164877Y-134496273D01*
X81164875Y-134496277D01*
X81079575Y-134702209D01*
X81079572Y-134702219D01*
X81021879Y-134917534D01*
X81021876Y-134917547D01*
X80992783Y-135138533D01*
X80992782Y-135138549D01*
X80992782Y-135361450D01*
X80992783Y-135361466D01*
X81021876Y-135582452D01*
X81021877Y-135582457D01*
X81021878Y-135582463D01*
X81079572Y-135797780D01*
X81079575Y-135797790D01*
X81164875Y-136003722D01*
X81164877Y-136003726D01*
X81276334Y-136196774D01*
X81276339Y-136196780D01*
X81276340Y-136196782D01*
X81412033Y-136373622D01*
X81412039Y-136373629D01*
X81569652Y-136531242D01*
X81569658Y-136531247D01*
X81746508Y-136666948D01*
X81939556Y-136778405D01*
X82145501Y-136863710D01*
X82360819Y-136921404D01*
X82581825Y-136950500D01*
X82659901Y-136950500D01*
X82726940Y-136970185D01*
X82772695Y-137022989D01*
X82783901Y-137074500D01*
X82783901Y-137706101D01*
X82764216Y-137773140D01*
X82711412Y-137818895D01*
X82700861Y-137823140D01*
X82659786Y-137837512D01*
X82574072Y-137867505D01*
X82457720Y-137940614D01*
X82390483Y-137959614D01*
X82325777Y-137940614D01*
X82216848Y-137872170D01*
X82216841Y-137872167D01*
X82117419Y-137837378D01*
X82051232Y-137814218D01*
X82051230Y-137814217D01*
X82051228Y-137814217D01*
X82051223Y-137814216D01*
X81920610Y-137799500D01*
X81920604Y-137799500D01*
X80884396Y-137799500D01*
X80884389Y-137799500D01*
X80753776Y-137814216D01*
X80753771Y-137814217D01*
X80588158Y-137872167D01*
X80588156Y-137872168D01*
X80439587Y-137965519D01*
X80337681Y-138067426D01*
X80276358Y-138100911D01*
X80206666Y-138095927D01*
X80162319Y-138067426D01*
X80060412Y-137965519D01*
X80051014Y-137959614D01*
X79911845Y-137872169D01*
X79911844Y-137872168D01*
X79911843Y-137872168D01*
X79911841Y-137872167D01*
X79812419Y-137837378D01*
X79746232Y-137814218D01*
X79746230Y-137814217D01*
X79746228Y-137814217D01*
X79746223Y-137814216D01*
X79615610Y-137799500D01*
X79615604Y-137799500D01*
X78579396Y-137799500D01*
X78579389Y-137799500D01*
X78448776Y-137814216D01*
X78448771Y-137814217D01*
X78283158Y-137872167D01*
X78283156Y-137872168D01*
X78268330Y-137881484D01*
X78135617Y-137964873D01*
X78128692Y-137969224D01*
X78127888Y-137967944D01*
X78070688Y-137991287D01*
X78001994Y-137978521D01*
X77980761Y-137964873D01*
X77980290Y-137964497D01*
X77825929Y-137867505D01*
X77761186Y-137844851D01*
X77699146Y-137823142D01*
X77642371Y-137782421D01*
X77616623Y-137717469D01*
X77616101Y-137706101D01*
X77616101Y-137073547D01*
X77635786Y-137006508D01*
X77688590Y-136960753D01*
X77723916Y-136950608D01*
X77724736Y-136950500D01*
X77724739Y-136950500D01*
X77945745Y-136921404D01*
X78161063Y-136863710D01*
X78367008Y-136778405D01*
X78560056Y-136666948D01*
X78736906Y-136531247D01*
X78894529Y-136373624D01*
X79030230Y-136196774D01*
X79141687Y-136003726D01*
X79226992Y-135797781D01*
X79284686Y-135582463D01*
X79313782Y-135361457D01*
X79313782Y-135138543D01*
X79284686Y-134917537D01*
X79226992Y-134702219D01*
X79141687Y-134496274D01*
X79030230Y-134303226D01*
X78894529Y-134126376D01*
X78894524Y-134126370D01*
X78736911Y-133968757D01*
X78736904Y-133968751D01*
X78560064Y-133833058D01*
X78560062Y-133833057D01*
X78560056Y-133833052D01*
X78367008Y-133721595D01*
X78367004Y-133721593D01*
X78161072Y-133636293D01*
X78161065Y-133636291D01*
X78161063Y-133636290D01*
X77945745Y-133578596D01*
X77945739Y-133578595D01*
X77945734Y-133578594D01*
X77724748Y-133549501D01*
X77724745Y-133549500D01*
X77724739Y-133549500D01*
X77501825Y-133549500D01*
X77501819Y-133549500D01*
X77501815Y-133549501D01*
X77280829Y-133578594D01*
X77280822Y-133578595D01*
X77280819Y-133578596D01*
X77086367Y-133630699D01*
X77065501Y-133636290D01*
X77065491Y-133636293D01*
X76859559Y-133721593D01*
X76859555Y-133721595D01*
X76666508Y-133833052D01*
X76666499Y-133833058D01*
X76489659Y-133968751D01*
X76489652Y-133968757D01*
X76332039Y-134126370D01*
X76332033Y-134126377D01*
X76196340Y-134303217D01*
X76196334Y-134303226D01*
X76084877Y-134496273D01*
X76084875Y-134496277D01*
X75999575Y-134702209D01*
X75999572Y-134702219D01*
X75941879Y-134917534D01*
X75941876Y-134917547D01*
X75912783Y-135138533D01*
X75912782Y-135138549D01*
X75912782Y-135361450D01*
X75912783Y-135361466D01*
X75941876Y-135582452D01*
X75941877Y-135582457D01*
X75941878Y-135582463D01*
X75999572Y-135797780D01*
X75999575Y-135797790D01*
X76084875Y-136003722D01*
X76084877Y-136003726D01*
X76196334Y-136196774D01*
X76196339Y-136196780D01*
X76196340Y-136196782D01*
X76332033Y-136373622D01*
X76332038Y-136373628D01*
X76378781Y-136420370D01*
X76412267Y-136481693D01*
X76415101Y-136508052D01*
X76415101Y-137706101D01*
X76395416Y-137773140D01*
X76342612Y-137818895D01*
X76332061Y-137823140D01*
X76290986Y-137837512D01*
X76205272Y-137867505D01*
X76050910Y-137964498D01*
X75921998Y-138093410D01*
X75921997Y-138093412D01*
X75901019Y-138126798D01*
X75848684Y-138173089D01*
X75779630Y-138183736D01*
X75715782Y-138155360D01*
X75691031Y-138126795D01*
X75678234Y-138106428D01*
X75549872Y-137978066D01*
X75396161Y-137881484D01*
X75396159Y-137881483D01*
X75224811Y-137821526D01*
X75089670Y-137806300D01*
X74834401Y-137806300D01*
X74334401Y-137806300D01*
X74079136Y-137806300D01*
X74079130Y-137806301D01*
X73943990Y-137821526D01*
X73943977Y-137821529D01*
X73772647Y-137881480D01*
X73772640Y-137881484D01*
X73618929Y-137978066D01*
X73490567Y-138106428D01*
X73393985Y-138260139D01*
X73393984Y-138260141D01*
X73334027Y-138431489D01*
X73318801Y-138566630D01*
X50500500Y-138566630D01*
X50500500Y-130644673D01*
X50520185Y-130577634D01*
X50572989Y-130531879D01*
X50642147Y-130521935D01*
X50705703Y-130550960D01*
X50743477Y-130609738D01*
X50746117Y-130620482D01*
X50773527Y-130758283D01*
X50773529Y-130758291D01*
X50840278Y-130919439D01*
X50840283Y-130919448D01*
X50937186Y-131064473D01*
X50937189Y-131064477D01*
X51060522Y-131187810D01*
X51060526Y-131187813D01*
X51205551Y-131284716D01*
X51205557Y-131284719D01*
X51205558Y-131284720D01*
X51366709Y-131351471D01*
X51537781Y-131385499D01*
X51537785Y-131385500D01*
X51537786Y-131385500D01*
X51712215Y-131385500D01*
X51712216Y-131385499D01*
X51883291Y-131351471D01*
X52044442Y-131284720D01*
X52189474Y-131187813D01*
X52312813Y-131064474D01*
X52409720Y-130919442D01*
X52476471Y-130758291D01*
X52510500Y-130587214D01*
X52510500Y-130412786D01*
X52476471Y-130241709D01*
X52409720Y-130080558D01*
X52409719Y-130080557D01*
X52409716Y-130080551D01*
X52312813Y-129935526D01*
X52312810Y-129935522D01*
X52189477Y-129812189D01*
X52189473Y-129812186D01*
X52044448Y-129715283D01*
X52044439Y-129715278D01*
X51883291Y-129648529D01*
X51883283Y-129648527D01*
X51712218Y-129614500D01*
X51712214Y-129614500D01*
X51537786Y-129614500D01*
X51537781Y-129614500D01*
X51366716Y-129648527D01*
X51366708Y-129648529D01*
X51205560Y-129715278D01*
X51205551Y-129715283D01*
X51060526Y-129812186D01*
X51060522Y-129812189D01*
X50937189Y-129935522D01*
X50937186Y-129935526D01*
X50840283Y-130080551D01*
X50840278Y-130080560D01*
X50773529Y-130241708D01*
X50773527Y-130241716D01*
X50746117Y-130379517D01*
X50713732Y-130441428D01*
X50653017Y-130476002D01*
X50583247Y-130472263D01*
X50526575Y-130431397D01*
X50500994Y-130366378D01*
X50500500Y-130355326D01*
X50500500Y-128144673D01*
X50520185Y-128077634D01*
X50572989Y-128031879D01*
X50642147Y-128021935D01*
X50705703Y-128050960D01*
X50743477Y-128109738D01*
X50746117Y-128120482D01*
X50773527Y-128258283D01*
X50773529Y-128258291D01*
X50840278Y-128419439D01*
X50840283Y-128419448D01*
X50937186Y-128564473D01*
X50937189Y-128564477D01*
X51060522Y-128687810D01*
X51060526Y-128687813D01*
X51205551Y-128784716D01*
X51205560Y-128784721D01*
X51230386Y-128795004D01*
X51366709Y-128851471D01*
X51537781Y-128885499D01*
X51537785Y-128885500D01*
X51537786Y-128885500D01*
X51712215Y-128885500D01*
X51712216Y-128885499D01*
X51883291Y-128851471D01*
X52044442Y-128784720D01*
X52189474Y-128687813D01*
X52312813Y-128564474D01*
X52409720Y-128419442D01*
X52476471Y-128258291D01*
X52510500Y-128087214D01*
X52510500Y-127912786D01*
X52476471Y-127741709D01*
X52409720Y-127580558D01*
X52409719Y-127580557D01*
X52409716Y-127580551D01*
X52312813Y-127435526D01*
X52312810Y-127435522D01*
X52189477Y-127312189D01*
X52189473Y-127312186D01*
X52044448Y-127215283D01*
X52044439Y-127215278D01*
X51883291Y-127148529D01*
X51883283Y-127148527D01*
X51712218Y-127114500D01*
X51712214Y-127114500D01*
X51537786Y-127114500D01*
X51537781Y-127114500D01*
X51366716Y-127148527D01*
X51366708Y-127148529D01*
X51205560Y-127215278D01*
X51205551Y-127215283D01*
X51060526Y-127312186D01*
X51060522Y-127312189D01*
X50937189Y-127435522D01*
X50937186Y-127435526D01*
X50840283Y-127580551D01*
X50840278Y-127580560D01*
X50773529Y-127741708D01*
X50773527Y-127741716D01*
X50746117Y-127879517D01*
X50713732Y-127941428D01*
X50653017Y-127976002D01*
X50583247Y-127972263D01*
X50526575Y-127931397D01*
X50500994Y-127866378D01*
X50500500Y-127855326D01*
X50500500Y-119144673D01*
X50520185Y-119077634D01*
X50572989Y-119031879D01*
X50642147Y-119021935D01*
X50705703Y-119050960D01*
X50743477Y-119109738D01*
X50746117Y-119120482D01*
X50773527Y-119258283D01*
X50773529Y-119258291D01*
X50840278Y-119419439D01*
X50840283Y-119419448D01*
X50937186Y-119564473D01*
X50937189Y-119564477D01*
X51060522Y-119687810D01*
X51060526Y-119687813D01*
X51205551Y-119784716D01*
X51205557Y-119784719D01*
X51205558Y-119784720D01*
X51366709Y-119851471D01*
X51537781Y-119885499D01*
X51537785Y-119885500D01*
X51537786Y-119885500D01*
X51712215Y-119885500D01*
X51712216Y-119885499D01*
X51883291Y-119851471D01*
X52044442Y-119784720D01*
X52189474Y-119687813D01*
X52312813Y-119564474D01*
X52409720Y-119419442D01*
X52476471Y-119258291D01*
X52510500Y-119087214D01*
X52510500Y-118912786D01*
X52476471Y-118741709D01*
X52409720Y-118580558D01*
X52409719Y-118580557D01*
X52409716Y-118580551D01*
X52312813Y-118435526D01*
X52312810Y-118435522D01*
X52189477Y-118312189D01*
X52189473Y-118312186D01*
X52044448Y-118215283D01*
X52044439Y-118215278D01*
X51883291Y-118148529D01*
X51883283Y-118148527D01*
X51712218Y-118114500D01*
X51712214Y-118114500D01*
X51537786Y-118114500D01*
X51537781Y-118114500D01*
X51366716Y-118148527D01*
X51366708Y-118148529D01*
X51205560Y-118215278D01*
X51205551Y-118215283D01*
X51060526Y-118312186D01*
X51060522Y-118312189D01*
X50937189Y-118435522D01*
X50937186Y-118435526D01*
X50840283Y-118580551D01*
X50840278Y-118580560D01*
X50773529Y-118741708D01*
X50773527Y-118741716D01*
X50746117Y-118879517D01*
X50713732Y-118941428D01*
X50653017Y-118976002D01*
X50583247Y-118972263D01*
X50526575Y-118931397D01*
X50500994Y-118866378D01*
X50500500Y-118855326D01*
X50500500Y-116644673D01*
X50520185Y-116577634D01*
X50572989Y-116531879D01*
X50642147Y-116521935D01*
X50705703Y-116550960D01*
X50743477Y-116609738D01*
X50746117Y-116620482D01*
X50773527Y-116758283D01*
X50773529Y-116758291D01*
X50840278Y-116919439D01*
X50840283Y-116919448D01*
X50937186Y-117064473D01*
X50937189Y-117064477D01*
X51060522Y-117187810D01*
X51060526Y-117187813D01*
X51205551Y-117284716D01*
X51205557Y-117284719D01*
X51205558Y-117284720D01*
X51366709Y-117351471D01*
X51537781Y-117385499D01*
X51537785Y-117385500D01*
X51537786Y-117385500D01*
X51712215Y-117385500D01*
X51712216Y-117385499D01*
X51883291Y-117351471D01*
X52044442Y-117284720D01*
X52189474Y-117187813D01*
X52312813Y-117064474D01*
X52409720Y-116919442D01*
X52476471Y-116758291D01*
X52510500Y-116587214D01*
X52510500Y-116412786D01*
X52476471Y-116241709D01*
X52409720Y-116080558D01*
X52409719Y-116080557D01*
X52409716Y-116080551D01*
X52312813Y-115935526D01*
X52312810Y-115935522D01*
X52189477Y-115812189D01*
X52189473Y-115812186D01*
X52044448Y-115715283D01*
X52044439Y-115715278D01*
X51883291Y-115648529D01*
X51883283Y-115648527D01*
X51712218Y-115614500D01*
X51712214Y-115614500D01*
X51537786Y-115614500D01*
X51537781Y-115614500D01*
X51366716Y-115648527D01*
X51366708Y-115648529D01*
X51205560Y-115715278D01*
X51205551Y-115715283D01*
X51060526Y-115812186D01*
X51060522Y-115812189D01*
X50937189Y-115935522D01*
X50937186Y-115935526D01*
X50840283Y-116080551D01*
X50840278Y-116080560D01*
X50773529Y-116241708D01*
X50773527Y-116241716D01*
X50746117Y-116379517D01*
X50713732Y-116441428D01*
X50653017Y-116476002D01*
X50583247Y-116472263D01*
X50526575Y-116431397D01*
X50500994Y-116366378D01*
X50500500Y-116355326D01*
X50500500Y-107644673D01*
X50520185Y-107577634D01*
X50572989Y-107531879D01*
X50642147Y-107521935D01*
X50705703Y-107550960D01*
X50743477Y-107609738D01*
X50746117Y-107620482D01*
X50773527Y-107758283D01*
X50773529Y-107758291D01*
X50840278Y-107919439D01*
X50840283Y-107919448D01*
X50937186Y-108064473D01*
X50937189Y-108064477D01*
X51060522Y-108187810D01*
X51060526Y-108187813D01*
X51205551Y-108284716D01*
X51205557Y-108284719D01*
X51205558Y-108284720D01*
X51366709Y-108351471D01*
X51484833Y-108374967D01*
X51537781Y-108385499D01*
X51537785Y-108385500D01*
X51537786Y-108385500D01*
X51712215Y-108385500D01*
X51712216Y-108385499D01*
X51883291Y-108351471D01*
X52044442Y-108284720D01*
X52189474Y-108187813D01*
X52312813Y-108064474D01*
X52409720Y-107919442D01*
X52476471Y-107758291D01*
X52510500Y-107587214D01*
X52510500Y-107412786D01*
X52476471Y-107241709D01*
X52409720Y-107080558D01*
X52409719Y-107080557D01*
X52409716Y-107080551D01*
X52312813Y-106935526D01*
X52312810Y-106935522D01*
X52189477Y-106812189D01*
X52189473Y-106812186D01*
X52044448Y-106715283D01*
X52044439Y-106715278D01*
X51883291Y-106648529D01*
X51883283Y-106648527D01*
X51712218Y-106614500D01*
X51712214Y-106614500D01*
X51537786Y-106614500D01*
X51537781Y-106614500D01*
X51366716Y-106648527D01*
X51366708Y-106648529D01*
X51205560Y-106715278D01*
X51205551Y-106715283D01*
X51060526Y-106812186D01*
X51060522Y-106812189D01*
X50937189Y-106935522D01*
X50937186Y-106935526D01*
X50840283Y-107080551D01*
X50840278Y-107080560D01*
X50773529Y-107241708D01*
X50773527Y-107241716D01*
X50746117Y-107379517D01*
X50713732Y-107441428D01*
X50653017Y-107476002D01*
X50583247Y-107472263D01*
X50526575Y-107431397D01*
X50500994Y-107366378D01*
X50500500Y-107355326D01*
X50500500Y-104894673D01*
X50520185Y-104827634D01*
X50572989Y-104781879D01*
X50642147Y-104771935D01*
X50705703Y-104800960D01*
X50743477Y-104859738D01*
X50746117Y-104870482D01*
X50773527Y-105008283D01*
X50773529Y-105008291D01*
X50840278Y-105169439D01*
X50840283Y-105169448D01*
X50937186Y-105314473D01*
X50937189Y-105314477D01*
X51060522Y-105437810D01*
X51060526Y-105437813D01*
X51205551Y-105534716D01*
X51205557Y-105534719D01*
X51205558Y-105534720D01*
X51366709Y-105601471D01*
X51505973Y-105629172D01*
X51537781Y-105635499D01*
X51537785Y-105635500D01*
X51537786Y-105635500D01*
X51712215Y-105635500D01*
X51712216Y-105635499D01*
X51883291Y-105601471D01*
X52044442Y-105534720D01*
X52189474Y-105437813D01*
X52312813Y-105314474D01*
X52409720Y-105169442D01*
X52476471Y-105008291D01*
X52510500Y-104837214D01*
X52510500Y-104662786D01*
X52476471Y-104491709D01*
X52409720Y-104330558D01*
X52409719Y-104330557D01*
X52409716Y-104330551D01*
X52312813Y-104185526D01*
X52312810Y-104185522D01*
X52189477Y-104062189D01*
X52189473Y-104062186D01*
X52044448Y-103965283D01*
X52044439Y-103965278D01*
X51883291Y-103898529D01*
X51883283Y-103898527D01*
X51712218Y-103864500D01*
X51712214Y-103864500D01*
X51537786Y-103864500D01*
X51537781Y-103864500D01*
X51366716Y-103898527D01*
X51366708Y-103898529D01*
X51205560Y-103965278D01*
X51205551Y-103965283D01*
X51060526Y-104062186D01*
X51060522Y-104062189D01*
X50937189Y-104185522D01*
X50937186Y-104185526D01*
X50840283Y-104330551D01*
X50840278Y-104330560D01*
X50773529Y-104491708D01*
X50773527Y-104491716D01*
X50746117Y-104629517D01*
X50713732Y-104691428D01*
X50653017Y-104726002D01*
X50583247Y-104722263D01*
X50526575Y-104681397D01*
X50500994Y-104616378D01*
X50500500Y-104605326D01*
X50500500Y-101199984D01*
X52074500Y-101199984D01*
X52074500Y-102300015D01*
X52085000Y-102402795D01*
X52085001Y-102402796D01*
X52140186Y-102569335D01*
X52140187Y-102569337D01*
X52232286Y-102718651D01*
X52232289Y-102718655D01*
X52356344Y-102842710D01*
X52356348Y-102842713D01*
X52505662Y-102934812D01*
X52505664Y-102934813D01*
X52505666Y-102934814D01*
X52672203Y-102989999D01*
X52774992Y-103000500D01*
X52774997Y-103000500D01*
X54395003Y-103000500D01*
X54395008Y-103000500D01*
X54497797Y-102989999D01*
X54664334Y-102934814D01*
X54813655Y-102842711D01*
X54937711Y-102718655D01*
X55029814Y-102569334D01*
X55084999Y-102402797D01*
X55095500Y-102300008D01*
X55095500Y-101199992D01*
X55084999Y-101097203D01*
X55029814Y-100930666D01*
X54937711Y-100781345D01*
X54813655Y-100657289D01*
X54813651Y-100657286D01*
X54664337Y-100565187D01*
X54664335Y-100565186D01*
X54521079Y-100517716D01*
X54497797Y-100510001D01*
X54497795Y-100510000D01*
X54395015Y-100499500D01*
X54395008Y-100499500D01*
X52774992Y-100499500D01*
X52774984Y-100499500D01*
X52672204Y-100510000D01*
X52672203Y-100510001D01*
X52505664Y-100565186D01*
X52505662Y-100565187D01*
X52356348Y-100657286D01*
X52356344Y-100657289D01*
X52232289Y-100781344D01*
X52232286Y-100781348D01*
X52140187Y-100930662D01*
X52140186Y-100930664D01*
X52085001Y-101097203D01*
X52085000Y-101097204D01*
X52074500Y-101199984D01*
X50500500Y-101199984D01*
X50500500Y-95894673D01*
X50520185Y-95827634D01*
X50572989Y-95781879D01*
X50642147Y-95771935D01*
X50705703Y-95800960D01*
X50743477Y-95859738D01*
X50746117Y-95870482D01*
X50773527Y-96008283D01*
X50773529Y-96008291D01*
X50840278Y-96169439D01*
X50840283Y-96169448D01*
X50937186Y-96314473D01*
X50937189Y-96314477D01*
X51060522Y-96437810D01*
X51060526Y-96437813D01*
X51205551Y-96534716D01*
X51205560Y-96534721D01*
X51236296Y-96547452D01*
X51366709Y-96601471D01*
X51537781Y-96635499D01*
X51537785Y-96635500D01*
X51537786Y-96635500D01*
X51712215Y-96635500D01*
X51712216Y-96635499D01*
X51883291Y-96601471D01*
X52044442Y-96534720D01*
X52189474Y-96437813D01*
X52312813Y-96314474D01*
X52409720Y-96169442D01*
X52476471Y-96008291D01*
X52510500Y-95837214D01*
X52510500Y-95662786D01*
X52476471Y-95491709D01*
X52409720Y-95330558D01*
X52409719Y-95330557D01*
X52409716Y-95330551D01*
X52312813Y-95185526D01*
X52312810Y-95185522D01*
X52189477Y-95062189D01*
X52189473Y-95062186D01*
X52044448Y-94965283D01*
X52044439Y-94965278D01*
X51883291Y-94898529D01*
X51883283Y-94898527D01*
X51712218Y-94864500D01*
X51712214Y-94864500D01*
X51537786Y-94864500D01*
X51537781Y-94864500D01*
X51366716Y-94898527D01*
X51366708Y-94898529D01*
X51205560Y-94965278D01*
X51205551Y-94965283D01*
X51060526Y-95062186D01*
X51060522Y-95062189D01*
X50937189Y-95185522D01*
X50937186Y-95185526D01*
X50840283Y-95330551D01*
X50840278Y-95330560D01*
X50773529Y-95491708D01*
X50773527Y-95491716D01*
X50746117Y-95629517D01*
X50713732Y-95691428D01*
X50653017Y-95726002D01*
X50583247Y-95722263D01*
X50526575Y-95681397D01*
X50500994Y-95616378D01*
X50500500Y-95605326D01*
X50500500Y-93394673D01*
X50520185Y-93327634D01*
X50572989Y-93281879D01*
X50642147Y-93271935D01*
X50705703Y-93300960D01*
X50743477Y-93359738D01*
X50746117Y-93370482D01*
X50773527Y-93508283D01*
X50773529Y-93508291D01*
X50840278Y-93669439D01*
X50840283Y-93669448D01*
X50937186Y-93814473D01*
X50937189Y-93814477D01*
X51060522Y-93937810D01*
X51060526Y-93937813D01*
X51205551Y-94034716D01*
X51205557Y-94034719D01*
X51205558Y-94034720D01*
X51366709Y-94101471D01*
X51524715Y-94132900D01*
X51537781Y-94135499D01*
X51537785Y-94135500D01*
X51537786Y-94135500D01*
X51712215Y-94135500D01*
X51712216Y-94135499D01*
X51883291Y-94101471D01*
X52044442Y-94034720D01*
X52189474Y-93937813D01*
X52312813Y-93814474D01*
X52409720Y-93669442D01*
X52476471Y-93508291D01*
X52510500Y-93337214D01*
X52510500Y-93162786D01*
X52476471Y-92991709D01*
X52409720Y-92830558D01*
X52409719Y-92830557D01*
X52409716Y-92830551D01*
X52312813Y-92685526D01*
X52312810Y-92685522D01*
X52189477Y-92562189D01*
X52189473Y-92562186D01*
X52044448Y-92465283D01*
X52044439Y-92465278D01*
X51883291Y-92398529D01*
X51883283Y-92398527D01*
X51712218Y-92364500D01*
X51712214Y-92364500D01*
X51537786Y-92364500D01*
X51537781Y-92364500D01*
X51366716Y-92398527D01*
X51366708Y-92398529D01*
X51205560Y-92465278D01*
X51205551Y-92465283D01*
X51060526Y-92562186D01*
X51060522Y-92562189D01*
X50937189Y-92685522D01*
X50937186Y-92685526D01*
X50840283Y-92830551D01*
X50840278Y-92830560D01*
X50773529Y-92991708D01*
X50773527Y-92991716D01*
X50746117Y-93129517D01*
X50713732Y-93191428D01*
X50653017Y-93226002D01*
X50583247Y-93222263D01*
X50526575Y-93181397D01*
X50500994Y-93116378D01*
X50500500Y-93105326D01*
X50500500Y-87151577D01*
X52074500Y-87151577D01*
X52074500Y-87348422D01*
X52105290Y-87542826D01*
X52166117Y-87730029D01*
X52255476Y-87905405D01*
X52371172Y-88064646D01*
X52510354Y-88203828D01*
X52669595Y-88319524D01*
X52752455Y-88361743D01*
X52844970Y-88408882D01*
X52844972Y-88408882D01*
X52844975Y-88408884D01*
X52945317Y-88441487D01*
X53032173Y-88469709D01*
X53226578Y-88500500D01*
X53226583Y-88500500D01*
X53943422Y-88500500D01*
X54137826Y-88469709D01*
X54187016Y-88453726D01*
X54325025Y-88408884D01*
X54500405Y-88319524D01*
X54659646Y-88203828D01*
X54798828Y-88064646D01*
X54914524Y-87905405D01*
X55003884Y-87730025D01*
X55064709Y-87542826D01*
X55071998Y-87496803D01*
X55095500Y-87348422D01*
X55095500Y-87151577D01*
X55064709Y-86957173D01*
X55003882Y-86769970D01*
X54914523Y-86594594D01*
X54902766Y-86578412D01*
X54798828Y-86435354D01*
X54659646Y-86296172D01*
X54500405Y-86180476D01*
X54482971Y-86171593D01*
X54325029Y-86091117D01*
X54137826Y-86030290D01*
X53943422Y-85999500D01*
X53943417Y-85999500D01*
X53226583Y-85999500D01*
X53226578Y-85999500D01*
X53032173Y-86030290D01*
X52844970Y-86091117D01*
X52669594Y-86180476D01*
X52578741Y-86246485D01*
X52510354Y-86296172D01*
X52510352Y-86296174D01*
X52510351Y-86296174D01*
X52371174Y-86435351D01*
X52371174Y-86435352D01*
X52371172Y-86435354D01*
X52321485Y-86503741D01*
X52255476Y-86594594D01*
X52166117Y-86769970D01*
X52105290Y-86957173D01*
X52074500Y-87151577D01*
X50500500Y-87151577D01*
X50500500Y-84394673D01*
X50520185Y-84327634D01*
X50572989Y-84281879D01*
X50642147Y-84271935D01*
X50705703Y-84300960D01*
X50743477Y-84359738D01*
X50746117Y-84370482D01*
X50773527Y-84508283D01*
X50773529Y-84508291D01*
X50840278Y-84669439D01*
X50840283Y-84669448D01*
X50937186Y-84814473D01*
X50937189Y-84814477D01*
X51060522Y-84937810D01*
X51060526Y-84937813D01*
X51205551Y-85034716D01*
X51205557Y-85034719D01*
X51205558Y-85034720D01*
X51366709Y-85101471D01*
X51537781Y-85135499D01*
X51537785Y-85135500D01*
X51537786Y-85135500D01*
X51712215Y-85135500D01*
X51712216Y-85135499D01*
X51883291Y-85101471D01*
X52044442Y-85034720D01*
X52189474Y-84937813D01*
X52312813Y-84814474D01*
X52409720Y-84669442D01*
X52476471Y-84508291D01*
X52510500Y-84337214D01*
X52510500Y-84162786D01*
X52476471Y-83991709D01*
X52409720Y-83830558D01*
X52409719Y-83830557D01*
X52409716Y-83830551D01*
X52312813Y-83685526D01*
X52312810Y-83685522D01*
X52189477Y-83562189D01*
X52189473Y-83562186D01*
X52044448Y-83465283D01*
X52044439Y-83465278D01*
X51883291Y-83398529D01*
X51883283Y-83398527D01*
X51712218Y-83364500D01*
X51712214Y-83364500D01*
X51537786Y-83364500D01*
X51537781Y-83364500D01*
X51366716Y-83398527D01*
X51366708Y-83398529D01*
X51205560Y-83465278D01*
X51205551Y-83465283D01*
X51060526Y-83562186D01*
X51060522Y-83562189D01*
X50937189Y-83685522D01*
X50937186Y-83685526D01*
X50840283Y-83830551D01*
X50840278Y-83830560D01*
X50773529Y-83991708D01*
X50773527Y-83991716D01*
X50746117Y-84129517D01*
X50713732Y-84191428D01*
X50653017Y-84226002D01*
X50583247Y-84222263D01*
X50526575Y-84181397D01*
X50500994Y-84116378D01*
X50500500Y-84105326D01*
X50500500Y-81644673D01*
X50520185Y-81577634D01*
X50572989Y-81531879D01*
X50642147Y-81521935D01*
X50705703Y-81550960D01*
X50743477Y-81609738D01*
X50746117Y-81620482D01*
X50773527Y-81758283D01*
X50773529Y-81758291D01*
X50840278Y-81919439D01*
X50840283Y-81919448D01*
X50937186Y-82064473D01*
X50937189Y-82064477D01*
X51060522Y-82187810D01*
X51060526Y-82187813D01*
X51205551Y-82284716D01*
X51205557Y-82284719D01*
X51205558Y-82284720D01*
X51366709Y-82351471D01*
X51537781Y-82385499D01*
X51537785Y-82385500D01*
X51537786Y-82385500D01*
X51712215Y-82385500D01*
X51712216Y-82385499D01*
X51883291Y-82351471D01*
X52044442Y-82284720D01*
X52189474Y-82187813D01*
X52312813Y-82064474D01*
X52409720Y-81919442D01*
X52476471Y-81758291D01*
X52510500Y-81587214D01*
X52510500Y-81412786D01*
X52476471Y-81241709D01*
X52409720Y-81080558D01*
X52409719Y-81080557D01*
X52409716Y-81080551D01*
X52312813Y-80935526D01*
X52312810Y-80935522D01*
X52189477Y-80812189D01*
X52189473Y-80812186D01*
X52044448Y-80715283D01*
X52044439Y-80715278D01*
X51883291Y-80648529D01*
X51883283Y-80648527D01*
X51712218Y-80614500D01*
X51712214Y-80614500D01*
X51537786Y-80614500D01*
X51537781Y-80614500D01*
X51366716Y-80648527D01*
X51366708Y-80648529D01*
X51205560Y-80715278D01*
X51205551Y-80715283D01*
X51060526Y-80812186D01*
X51060522Y-80812189D01*
X50937189Y-80935522D01*
X50937186Y-80935526D01*
X50840283Y-81080551D01*
X50840278Y-81080560D01*
X50773529Y-81241708D01*
X50773527Y-81241716D01*
X50746117Y-81379517D01*
X50713732Y-81441428D01*
X50653017Y-81476002D01*
X50583247Y-81472263D01*
X50526575Y-81431397D01*
X50500994Y-81366378D01*
X50500500Y-81355326D01*
X50500500Y-77949984D01*
X52074500Y-77949984D01*
X52074500Y-79050015D01*
X52085000Y-79152795D01*
X52085001Y-79152797D01*
X52109105Y-79225539D01*
X52140186Y-79319335D01*
X52140187Y-79319337D01*
X52232286Y-79468651D01*
X52232289Y-79468655D01*
X52356344Y-79592710D01*
X52356348Y-79592713D01*
X52505662Y-79684812D01*
X52505664Y-79684813D01*
X52505666Y-79684814D01*
X52672203Y-79739999D01*
X52774992Y-79750500D01*
X52774997Y-79750500D01*
X54395003Y-79750500D01*
X54395008Y-79750500D01*
X54497797Y-79739999D01*
X54664334Y-79684814D01*
X54813655Y-79592711D01*
X54937711Y-79468655D01*
X55029814Y-79319334D01*
X55084999Y-79152797D01*
X55095500Y-79050008D01*
X55095500Y-77949992D01*
X55084999Y-77847203D01*
X55041082Y-77714670D01*
X55518801Y-77714670D01*
X55534026Y-77849810D01*
X55534029Y-77849823D01*
X55593980Y-78021153D01*
X55593984Y-78021160D01*
X55690566Y-78174871D01*
X55753401Y-78237706D01*
X55786886Y-78299029D01*
X55781902Y-78368721D01*
X55762681Y-78402682D01*
X55760915Y-78404896D01*
X55667625Y-78553365D01*
X55667623Y-78553368D01*
X55609707Y-78718882D01*
X55595000Y-78849419D01*
X55595000Y-79032500D01*
X56597500Y-79032500D01*
X56597500Y-78605000D01*
X56570719Y-78578219D01*
X56537234Y-78516896D01*
X56534400Y-78490538D01*
X56534400Y-77506900D01*
X55518801Y-77506900D01*
X55518801Y-77714670D01*
X55041082Y-77714670D01*
X55029814Y-77680666D01*
X54937711Y-77531345D01*
X54813655Y-77407289D01*
X54813651Y-77407286D01*
X54664337Y-77315187D01*
X54664335Y-77315186D01*
X54581065Y-77287593D01*
X54497797Y-77260001D01*
X54497795Y-77260000D01*
X54395015Y-77249500D01*
X54395008Y-77249500D01*
X52774992Y-77249500D01*
X52774984Y-77249500D01*
X52672204Y-77260000D01*
X52672203Y-77260001D01*
X52505664Y-77315186D01*
X52505662Y-77315187D01*
X52356348Y-77407286D01*
X52356344Y-77407289D01*
X52232289Y-77531344D01*
X52232286Y-77531348D01*
X52140187Y-77680662D01*
X52140186Y-77680664D01*
X52085001Y-77847203D01*
X52085000Y-77847204D01*
X52074500Y-77949984D01*
X50500500Y-77949984D01*
X50500500Y-76799130D01*
X55518800Y-76799130D01*
X55518800Y-77006900D01*
X56534400Y-77006900D01*
X56534400Y-76038800D01*
X56279135Y-76038800D01*
X56279129Y-76038801D01*
X56143989Y-76054026D01*
X56143976Y-76054029D01*
X55972646Y-76113980D01*
X55972639Y-76113984D01*
X55818928Y-76210566D01*
X55690566Y-76338928D01*
X55593984Y-76492639D01*
X55593983Y-76492641D01*
X55534026Y-76663989D01*
X55518800Y-76799130D01*
X50500500Y-76799130D01*
X50500500Y-75401577D01*
X52074500Y-75401577D01*
X52074500Y-75598422D01*
X52105290Y-75792826D01*
X52166117Y-75980029D01*
X52234371Y-76113984D01*
X52255476Y-76155405D01*
X52371172Y-76314646D01*
X52510354Y-76453828D01*
X52669595Y-76569524D01*
X52752455Y-76611743D01*
X52844970Y-76658882D01*
X52844972Y-76658882D01*
X52844975Y-76658884D01*
X52945317Y-76691487D01*
X53032173Y-76719709D01*
X53226578Y-76750500D01*
X53226583Y-76750500D01*
X53943422Y-76750500D01*
X54137826Y-76719709D01*
X54325025Y-76658884D01*
X54500405Y-76569524D01*
X54659646Y-76453828D01*
X54798828Y-76314646D01*
X54914524Y-76155405D01*
X55003884Y-75980025D01*
X55064709Y-75792826D01*
X55077923Y-75709397D01*
X55095500Y-75598422D01*
X55095500Y-75401577D01*
X55064709Y-75207173D01*
X55003882Y-75019970D01*
X54914523Y-74844594D01*
X54870285Y-74783706D01*
X54798828Y-74685354D01*
X54659646Y-74546172D01*
X54500405Y-74430476D01*
X54474047Y-74417046D01*
X54325029Y-74341117D01*
X54137826Y-74280290D01*
X53943422Y-74249500D01*
X53943417Y-74249500D01*
X53226583Y-74249500D01*
X53226578Y-74249500D01*
X53032173Y-74280290D01*
X52844970Y-74341117D01*
X52669594Y-74430476D01*
X52588071Y-74489707D01*
X52510354Y-74546172D01*
X52510352Y-74546174D01*
X52510351Y-74546174D01*
X52371174Y-74685351D01*
X52371174Y-74685352D01*
X52371172Y-74685354D01*
X52326364Y-74747027D01*
X52255476Y-74844594D01*
X52166117Y-75019970D01*
X52105290Y-75207173D01*
X52074500Y-75401577D01*
X50500500Y-75401577D01*
X50500500Y-72401577D01*
X52074500Y-72401577D01*
X52074500Y-72598422D01*
X52105290Y-72792826D01*
X52166117Y-72980029D01*
X52255476Y-73155405D01*
X52371172Y-73314646D01*
X52510354Y-73453828D01*
X52669595Y-73569524D01*
X52752455Y-73611743D01*
X52844970Y-73658882D01*
X52844972Y-73658882D01*
X52844975Y-73658884D01*
X52945317Y-73691487D01*
X53032173Y-73719709D01*
X53226578Y-73750500D01*
X53226583Y-73750500D01*
X53943422Y-73750500D01*
X54137826Y-73719709D01*
X54325025Y-73658884D01*
X54500405Y-73569524D01*
X54659646Y-73453828D01*
X54798828Y-73314646D01*
X54914524Y-73155405D01*
X55003884Y-72980025D01*
X55064709Y-72792826D01*
X55095500Y-72598422D01*
X55095500Y-72401577D01*
X55064709Y-72207173D01*
X55003882Y-72019970D01*
X54914523Y-71844594D01*
X54798828Y-71685354D01*
X54659646Y-71546172D01*
X54500405Y-71430476D01*
X54325029Y-71341117D01*
X54137826Y-71280290D01*
X53943422Y-71249500D01*
X53943417Y-71249500D01*
X53226583Y-71249500D01*
X53226578Y-71249500D01*
X53032173Y-71280290D01*
X52844970Y-71341117D01*
X52669594Y-71430476D01*
X52578741Y-71496485D01*
X52510354Y-71546172D01*
X52510352Y-71546174D01*
X52510351Y-71546174D01*
X52371174Y-71685351D01*
X52371174Y-71685352D01*
X52371172Y-71685354D01*
X52321485Y-71753741D01*
X52255476Y-71844594D01*
X52166117Y-72019970D01*
X52105290Y-72207173D01*
X52074500Y-72401577D01*
X50500500Y-72401577D01*
X50500500Y-69401577D01*
X52074500Y-69401577D01*
X52074500Y-69598422D01*
X52105290Y-69792826D01*
X52166117Y-69980029D01*
X52255476Y-70155405D01*
X52371172Y-70314646D01*
X52510354Y-70453828D01*
X52669595Y-70569524D01*
X52752455Y-70611743D01*
X52844970Y-70658882D01*
X52844972Y-70658882D01*
X52844975Y-70658884D01*
X52945317Y-70691487D01*
X53032173Y-70719709D01*
X53226578Y-70750500D01*
X53226583Y-70750500D01*
X53943422Y-70750500D01*
X54137826Y-70719709D01*
X54325025Y-70658884D01*
X54500405Y-70569524D01*
X54659646Y-70453828D01*
X54798828Y-70314646D01*
X54914524Y-70155405D01*
X55003884Y-69980025D01*
X55064709Y-69792826D01*
X55095500Y-69598422D01*
X55095500Y-69401577D01*
X55064709Y-69207173D01*
X55003882Y-69019970D01*
X54914523Y-68844594D01*
X54798828Y-68685354D01*
X54659646Y-68546172D01*
X54500405Y-68430476D01*
X54325029Y-68341117D01*
X54137826Y-68280290D01*
X53943422Y-68249500D01*
X53943417Y-68249500D01*
X53226583Y-68249500D01*
X53226578Y-68249500D01*
X53032173Y-68280290D01*
X52844970Y-68341117D01*
X52669594Y-68430476D01*
X52578741Y-68496485D01*
X52510354Y-68546172D01*
X52510352Y-68546174D01*
X52510351Y-68546174D01*
X52371174Y-68685351D01*
X52371174Y-68685352D01*
X52371172Y-68685354D01*
X52321485Y-68753741D01*
X52255476Y-68844594D01*
X52166117Y-69019970D01*
X52105290Y-69207173D01*
X52074500Y-69401577D01*
X50500500Y-69401577D01*
X50500500Y-66401577D01*
X52074500Y-66401577D01*
X52074500Y-66598422D01*
X52105290Y-66792826D01*
X52166117Y-66980029D01*
X52255476Y-67155405D01*
X52371172Y-67314646D01*
X52510354Y-67453828D01*
X52669595Y-67569524D01*
X52752455Y-67611743D01*
X52844970Y-67658882D01*
X52844972Y-67658882D01*
X52844975Y-67658884D01*
X52945317Y-67691487D01*
X53032173Y-67719709D01*
X53226578Y-67750500D01*
X53226583Y-67750500D01*
X53943422Y-67750500D01*
X54137826Y-67719709D01*
X54325025Y-67658884D01*
X54500405Y-67569524D01*
X54659646Y-67453828D01*
X54798828Y-67314646D01*
X54914524Y-67155405D01*
X55003884Y-66980025D01*
X55064709Y-66792826D01*
X55095500Y-66598422D01*
X55095500Y-66401577D01*
X55064709Y-66207173D01*
X55003882Y-66019970D01*
X54914523Y-65844594D01*
X54798828Y-65685354D01*
X54659646Y-65546172D01*
X54500405Y-65430476D01*
X54325029Y-65341117D01*
X54137826Y-65280290D01*
X53943422Y-65249500D01*
X53943417Y-65249500D01*
X53226583Y-65249500D01*
X53226578Y-65249500D01*
X53032173Y-65280290D01*
X52844970Y-65341117D01*
X52669594Y-65430476D01*
X52578741Y-65496485D01*
X52510354Y-65546172D01*
X52510352Y-65546174D01*
X52510351Y-65546174D01*
X52371174Y-65685351D01*
X52371174Y-65685352D01*
X52371172Y-65685354D01*
X52321485Y-65753741D01*
X52255476Y-65844594D01*
X52166117Y-66019970D01*
X52105290Y-66207173D01*
X52074500Y-66401577D01*
X50500500Y-66401577D01*
X50500500Y-63401577D01*
X52074500Y-63401577D01*
X52074500Y-63598422D01*
X52105290Y-63792826D01*
X52166117Y-63980029D01*
X52255476Y-64155405D01*
X52371172Y-64314646D01*
X52510354Y-64453828D01*
X52669595Y-64569524D01*
X52752455Y-64611743D01*
X52844970Y-64658882D01*
X52844972Y-64658882D01*
X52844975Y-64658884D01*
X52945317Y-64691487D01*
X53032173Y-64719709D01*
X53226578Y-64750500D01*
X53226583Y-64750500D01*
X53943422Y-64750500D01*
X54137826Y-64719709D01*
X54325025Y-64658884D01*
X54500405Y-64569524D01*
X54659646Y-64453828D01*
X54798828Y-64314646D01*
X54914524Y-64155405D01*
X55003884Y-63980025D01*
X55064709Y-63792826D01*
X55095500Y-63598422D01*
X55095500Y-63401577D01*
X55064709Y-63207173D01*
X55003882Y-63019970D01*
X54914523Y-62844594D01*
X54798828Y-62685354D01*
X54659646Y-62546172D01*
X54500405Y-62430476D01*
X54325029Y-62341117D01*
X54137826Y-62280290D01*
X53943422Y-62249500D01*
X53943417Y-62249500D01*
X53226583Y-62249500D01*
X53226578Y-62249500D01*
X53032173Y-62280290D01*
X52844970Y-62341117D01*
X52669594Y-62430476D01*
X52578741Y-62496485D01*
X52510354Y-62546172D01*
X52510352Y-62546174D01*
X52510351Y-62546174D01*
X52371174Y-62685351D01*
X52371174Y-62685352D01*
X52371172Y-62685354D01*
X52321485Y-62753741D01*
X52255476Y-62844594D01*
X52166117Y-63019970D01*
X52105290Y-63207173D01*
X52074500Y-63401577D01*
X50500500Y-63401577D01*
X50500500Y-60644673D01*
X50520185Y-60577634D01*
X50572989Y-60531879D01*
X50642147Y-60521935D01*
X50705703Y-60550960D01*
X50743477Y-60609738D01*
X50746117Y-60620482D01*
X50773527Y-60758283D01*
X50773529Y-60758291D01*
X50840278Y-60919439D01*
X50840283Y-60919448D01*
X50937186Y-61064473D01*
X50937189Y-61064477D01*
X51060522Y-61187810D01*
X51060526Y-61187813D01*
X51205551Y-61284716D01*
X51205557Y-61284719D01*
X51205558Y-61284720D01*
X51366709Y-61351471D01*
X51537781Y-61385499D01*
X51537785Y-61385500D01*
X51537786Y-61385500D01*
X51712215Y-61385500D01*
X51712216Y-61385499D01*
X51883291Y-61351471D01*
X52044442Y-61284720D01*
X52189474Y-61187813D01*
X52312813Y-61064474D01*
X52409720Y-60919442D01*
X52476471Y-60758291D01*
X52510500Y-60587214D01*
X52510500Y-60412786D01*
X52476471Y-60241709D01*
X52423216Y-60113139D01*
X52409721Y-60080560D01*
X52409716Y-60080551D01*
X52312813Y-59935526D01*
X52312810Y-59935522D01*
X52189477Y-59812189D01*
X52189473Y-59812186D01*
X52044448Y-59715283D01*
X52044439Y-59715278D01*
X51883291Y-59648529D01*
X51883283Y-59648527D01*
X51735760Y-59619183D01*
X51712218Y-59614500D01*
X51712214Y-59614500D01*
X51537786Y-59614500D01*
X51537781Y-59614500D01*
X51366716Y-59648527D01*
X51366708Y-59648529D01*
X51205560Y-59715278D01*
X51205551Y-59715283D01*
X51060526Y-59812186D01*
X51060522Y-59812189D01*
X50937189Y-59935522D01*
X50937186Y-59935526D01*
X50840283Y-60080551D01*
X50840278Y-60080560D01*
X50773529Y-60241708D01*
X50773527Y-60241716D01*
X50746117Y-60379517D01*
X50713732Y-60441428D01*
X50653017Y-60476002D01*
X50583247Y-60472263D01*
X50526575Y-60431397D01*
X50500994Y-60366378D01*
X50500500Y-60355326D01*
X50500500Y-59503653D01*
X64047000Y-59503653D01*
X64047000Y-59661346D01*
X64077761Y-59815989D01*
X64077764Y-59816001D01*
X64138102Y-59961672D01*
X64138109Y-59961685D01*
X64225710Y-60092788D01*
X64225713Y-60092792D01*
X64337207Y-60204286D01*
X64337211Y-60204289D01*
X64468314Y-60291890D01*
X64468327Y-60291897D01*
X64613998Y-60352235D01*
X64614003Y-60352237D01*
X64751148Y-60379517D01*
X64768653Y-60382999D01*
X64768656Y-60383000D01*
X64768658Y-60383000D01*
X64926344Y-60383000D01*
X64926345Y-60382999D01*
X65080997Y-60352237D01*
X65226679Y-60291894D01*
X65301776Y-60241716D01*
X65358375Y-60203898D01*
X65425053Y-60183020D01*
X65427266Y-60183000D01*
X67030831Y-60183000D01*
X67030847Y-60183001D01*
X67038443Y-60183001D01*
X67196554Y-60183001D01*
X67196557Y-60183001D01*
X67349285Y-60142077D01*
X67399404Y-60113139D01*
X67486216Y-60063020D01*
X67598020Y-59951216D01*
X67598020Y-59951214D01*
X67608228Y-59941007D01*
X67608229Y-59941004D01*
X69014662Y-58534572D01*
X69075983Y-58501089D01*
X69078150Y-58500638D01*
X69136085Y-58489113D01*
X69233497Y-58469737D01*
X69379179Y-58409394D01*
X69510289Y-58321789D01*
X69621789Y-58210289D01*
X69709394Y-58079179D01*
X69769737Y-57933497D01*
X69800500Y-57778842D01*
X69800500Y-57621158D01*
X69800500Y-57621155D01*
X69776140Y-57498692D01*
X69782367Y-57429100D01*
X69825230Y-57373923D01*
X69891120Y-57350678D01*
X69897757Y-57350500D01*
X72670234Y-57350500D01*
X72737273Y-57370185D01*
X72739125Y-57371398D01*
X72870814Y-57459390D01*
X72870827Y-57459397D01*
X72940476Y-57488246D01*
X73016503Y-57519737D01*
X73171153Y-57550499D01*
X73171156Y-57550500D01*
X73171158Y-57550500D01*
X73328844Y-57550500D01*
X73328845Y-57550499D01*
X73483497Y-57519737D01*
X73629179Y-57459394D01*
X73760289Y-57371789D01*
X73871789Y-57260289D01*
X73959394Y-57129179D01*
X74019737Y-56983497D01*
X74050500Y-56828842D01*
X74050500Y-56671158D01*
X74050500Y-56671155D01*
X74050499Y-56671153D01*
X74019738Y-56516510D01*
X74019737Y-56516503D01*
X73997252Y-56462218D01*
X73959397Y-56370827D01*
X73959389Y-56370812D01*
X73945874Y-56350586D01*
X73945873Y-56350585D01*
X73903909Y-56287781D01*
X76114500Y-56287781D01*
X76114500Y-56462218D01*
X76148527Y-56633283D01*
X76148529Y-56633291D01*
X76215278Y-56794439D01*
X76215283Y-56794448D01*
X76312186Y-56939473D01*
X76312189Y-56939477D01*
X76435522Y-57062810D01*
X76435526Y-57062813D01*
X76580551Y-57159716D01*
X76580557Y-57159719D01*
X76580558Y-57159720D01*
X76741709Y-57226471D01*
X76911720Y-57260288D01*
X76912781Y-57260499D01*
X76912785Y-57260500D01*
X76912786Y-57260500D01*
X77087215Y-57260500D01*
X77087216Y-57260499D01*
X77258291Y-57226471D01*
X77419442Y-57159720D01*
X77564474Y-57062813D01*
X77687813Y-56939474D01*
X77784720Y-56794442D01*
X77851471Y-56633291D01*
X77885500Y-56462214D01*
X77885500Y-56287786D01*
X77885499Y-56287781D01*
X97114500Y-56287781D01*
X97114500Y-56462218D01*
X97148527Y-56633283D01*
X97148529Y-56633291D01*
X97215278Y-56794439D01*
X97215283Y-56794448D01*
X97312186Y-56939473D01*
X97312189Y-56939477D01*
X97435522Y-57062810D01*
X97435526Y-57062813D01*
X97580551Y-57159716D01*
X97580557Y-57159719D01*
X97580558Y-57159720D01*
X97741709Y-57226471D01*
X97911720Y-57260288D01*
X97912781Y-57260499D01*
X97912785Y-57260500D01*
X97912786Y-57260500D01*
X98087215Y-57260500D01*
X98087216Y-57260499D01*
X98258291Y-57226471D01*
X98419442Y-57159720D01*
X98564474Y-57062813D01*
X98687813Y-56939474D01*
X98784720Y-56794442D01*
X98851471Y-56633291D01*
X98885500Y-56462214D01*
X98885500Y-56287786D01*
X98851471Y-56116709D01*
X98784720Y-55955558D01*
X98784719Y-55955557D01*
X98784716Y-55955551D01*
X98687813Y-55810526D01*
X98687810Y-55810522D01*
X98564477Y-55687189D01*
X98564473Y-55687186D01*
X98419448Y-55590283D01*
X98419439Y-55590278D01*
X98258291Y-55523529D01*
X98258283Y-55523527D01*
X98087218Y-55489500D01*
X98087214Y-55489500D01*
X97912786Y-55489500D01*
X97912781Y-55489500D01*
X97741716Y-55523527D01*
X97741708Y-55523529D01*
X97580560Y-55590278D01*
X97580551Y-55590283D01*
X97435526Y-55687186D01*
X97435522Y-55687189D01*
X97312189Y-55810522D01*
X97312186Y-55810526D01*
X97215283Y-55955551D01*
X97215278Y-55955560D01*
X97148529Y-56116708D01*
X97148527Y-56116716D01*
X97114500Y-56287781D01*
X77885499Y-56287781D01*
X77851471Y-56116709D01*
X77784720Y-55955558D01*
X77784719Y-55955557D01*
X77784716Y-55955551D01*
X77687813Y-55810526D01*
X77687810Y-55810522D01*
X77564477Y-55687189D01*
X77564473Y-55687186D01*
X77419448Y-55590283D01*
X77419439Y-55590278D01*
X77258291Y-55523529D01*
X77258283Y-55523527D01*
X77087218Y-55489500D01*
X77087214Y-55489500D01*
X76912786Y-55489500D01*
X76912781Y-55489500D01*
X76741716Y-55523527D01*
X76741708Y-55523529D01*
X76580560Y-55590278D01*
X76580551Y-55590283D01*
X76435526Y-55687186D01*
X76435522Y-55687189D01*
X76312189Y-55810522D01*
X76312186Y-55810526D01*
X76215283Y-55955551D01*
X76215278Y-55955560D01*
X76148529Y-56116708D01*
X76148527Y-56116716D01*
X76114500Y-56287781D01*
X73903909Y-56287781D01*
X73871789Y-56239711D01*
X73871786Y-56239707D01*
X73760292Y-56128213D01*
X73760288Y-56128210D01*
X73629185Y-56040609D01*
X73629172Y-56040602D01*
X73483501Y-55980264D01*
X73483489Y-55980261D01*
X73328845Y-55949500D01*
X73328842Y-55949500D01*
X73171158Y-55949500D01*
X73171155Y-55949500D01*
X73016510Y-55980261D01*
X73016498Y-55980264D01*
X72870827Y-56040602D01*
X72870814Y-56040609D01*
X72739125Y-56128602D01*
X72672447Y-56149480D01*
X72670234Y-56149500D01*
X67794766Y-56149500D01*
X67727727Y-56129815D01*
X67725875Y-56128602D01*
X67594185Y-56040609D01*
X67594172Y-56040602D01*
X67448501Y-55980264D01*
X67448489Y-55980261D01*
X67293845Y-55949500D01*
X67293842Y-55949500D01*
X67136158Y-55949500D01*
X67136155Y-55949500D01*
X66981510Y-55980261D01*
X66981498Y-55980264D01*
X66835827Y-56040602D01*
X66835814Y-56040609D01*
X66704711Y-56128210D01*
X66704707Y-56128213D01*
X66593213Y-56239707D01*
X66593210Y-56239711D01*
X66505609Y-56370814D01*
X66505602Y-56370827D01*
X66445264Y-56516498D01*
X66445261Y-56516510D01*
X66414500Y-56671153D01*
X66414500Y-56828846D01*
X66445261Y-56983489D01*
X66445264Y-56983501D01*
X66505602Y-57129172D01*
X66505609Y-57129185D01*
X66593210Y-57260288D01*
X66593213Y-57260292D01*
X66704707Y-57371786D01*
X66704711Y-57371789D01*
X66835814Y-57459390D01*
X66835827Y-57459397D01*
X66905476Y-57488246D01*
X66981503Y-57519737D01*
X67136153Y-57550499D01*
X67136156Y-57550500D01*
X67136158Y-57550500D01*
X67293844Y-57550500D01*
X67293845Y-57550499D01*
X67448497Y-57519737D01*
X67594179Y-57459394D01*
X67665133Y-57411984D01*
X67725875Y-57371398D01*
X67792553Y-57350520D01*
X67794766Y-57350500D01*
X68102243Y-57350500D01*
X68122458Y-57356435D01*
X68143497Y-57357564D01*
X68155309Y-57366082D01*
X68169282Y-57370185D01*
X68183078Y-57386106D01*
X68200169Y-57398431D01*
X68205501Y-57411984D01*
X68215037Y-57422989D01*
X68218035Y-57443840D01*
X68225750Y-57463449D01*
X68224420Y-57488246D01*
X68224981Y-57492147D01*
X68223860Y-57498692D01*
X68199361Y-57621850D01*
X68166975Y-57683761D01*
X68165425Y-57685339D01*
X66905084Y-58945681D01*
X66843761Y-58979166D01*
X66817403Y-58982000D01*
X65427266Y-58982000D01*
X65360227Y-58962315D01*
X65358375Y-58961102D01*
X65226685Y-58873109D01*
X65226672Y-58873102D01*
X65081001Y-58812764D01*
X65080989Y-58812761D01*
X64926345Y-58782000D01*
X64926342Y-58782000D01*
X64768658Y-58782000D01*
X64768655Y-58782000D01*
X64614010Y-58812761D01*
X64613998Y-58812764D01*
X64468327Y-58873102D01*
X64468314Y-58873109D01*
X64337211Y-58960710D01*
X64337207Y-58960713D01*
X64225713Y-59072207D01*
X64225710Y-59072211D01*
X64138109Y-59203314D01*
X64138102Y-59203327D01*
X64077764Y-59348998D01*
X64077761Y-59349010D01*
X64047000Y-59503653D01*
X50500500Y-59503653D01*
X50500500Y-54865186D01*
X52599500Y-54865186D01*
X52599500Y-55134813D01*
X52629686Y-55402719D01*
X52629688Y-55402731D01*
X52689684Y-55665594D01*
X52689687Y-55665602D01*
X52778734Y-55920082D01*
X52895714Y-56162994D01*
X52895716Y-56162997D01*
X53039162Y-56391289D01*
X53207266Y-56602085D01*
X53397915Y-56792734D01*
X53608711Y-56960838D01*
X53770998Y-57062810D01*
X53837005Y-57104285D01*
X53917975Y-57143278D01*
X54079921Y-57221267D01*
X54192043Y-57260500D01*
X54334397Y-57310312D01*
X54334405Y-57310315D01*
X54334408Y-57310315D01*
X54334409Y-57310316D01*
X54597268Y-57370312D01*
X54865187Y-57400499D01*
X54865188Y-57400500D01*
X54865191Y-57400500D01*
X55134812Y-57400500D01*
X55134812Y-57400499D01*
X55402732Y-57370312D01*
X55665591Y-57310316D01*
X55920079Y-57221267D01*
X56162997Y-57104284D01*
X56391289Y-56960838D01*
X56602085Y-56792734D01*
X56792734Y-56602085D01*
X56960838Y-56391289D01*
X57104284Y-56162997D01*
X57221267Y-55920079D01*
X57310316Y-55665591D01*
X57370312Y-55402732D01*
X57400500Y-55134809D01*
X57400500Y-54865191D01*
X57371955Y-54611853D01*
X57370314Y-54597283D01*
X57370313Y-54597279D01*
X57370312Y-54597268D01*
X57310316Y-54334409D01*
X57221267Y-54079921D01*
X57210044Y-54056617D01*
X78750000Y-54056617D01*
X78750000Y-54165000D01*
X79555440Y-54165000D01*
X79524755Y-54218147D01*
X79490000Y-54347857D01*
X79490000Y-54482143D01*
X79524755Y-54611853D01*
X79555440Y-54665000D01*
X78750000Y-54665000D01*
X78750000Y-54773382D01*
X78780778Y-54967705D01*
X78841581Y-55154835D01*
X78930904Y-55330143D01*
X79046555Y-55489321D01*
X79185678Y-55628444D01*
X79344856Y-55744095D01*
X79520162Y-55833418D01*
X79707283Y-55894218D01*
X79750000Y-55900984D01*
X79750000Y-54859560D01*
X79803147Y-54890245D01*
X79932857Y-54925000D01*
X80067143Y-54925000D01*
X80196853Y-54890245D01*
X80250000Y-54859560D01*
X80250000Y-55900983D01*
X80292716Y-55894218D01*
X80479837Y-55833418D01*
X80655143Y-55744095D01*
X80814321Y-55628444D01*
X80953444Y-55489321D01*
X81069095Y-55330143D01*
X81158418Y-55154835D01*
X81219221Y-54967705D01*
X81250000Y-54773382D01*
X81250000Y-54665000D01*
X80444560Y-54665000D01*
X80475245Y-54611853D01*
X80510000Y-54482143D01*
X80510000Y-54347857D01*
X80475245Y-54218147D01*
X80444560Y-54165000D01*
X81250000Y-54165000D01*
X81250000Y-54056617D01*
X81750000Y-54056617D01*
X81750000Y-54165000D01*
X82555440Y-54165000D01*
X82524755Y-54218147D01*
X82490000Y-54347857D01*
X82490000Y-54482143D01*
X82524755Y-54611853D01*
X82555440Y-54665000D01*
X81750000Y-54665000D01*
X81750000Y-54773382D01*
X81780778Y-54967705D01*
X81841581Y-55154835D01*
X81930904Y-55330143D01*
X82046555Y-55489321D01*
X82185678Y-55628444D01*
X82344856Y-55744095D01*
X82520162Y-55833418D01*
X82707283Y-55894218D01*
X82750000Y-55900984D01*
X82750000Y-54859560D01*
X82803147Y-54890245D01*
X82932857Y-54925000D01*
X83067143Y-54925000D01*
X83196853Y-54890245D01*
X83250000Y-54859560D01*
X83250000Y-55900983D01*
X83292716Y-55894218D01*
X83479837Y-55833418D01*
X83655143Y-55744095D01*
X83814321Y-55628444D01*
X83953444Y-55489321D01*
X84069095Y-55330143D01*
X84158418Y-55154835D01*
X84219221Y-54967705D01*
X84250000Y-54773382D01*
X84250000Y-54665000D01*
X83444560Y-54665000D01*
X83475245Y-54611853D01*
X83510000Y-54482143D01*
X83510000Y-54347857D01*
X83475245Y-54218147D01*
X83444560Y-54165000D01*
X84250000Y-54165000D01*
X84250000Y-54056617D01*
X84750000Y-54056617D01*
X84750000Y-54165000D01*
X85555440Y-54165000D01*
X85524755Y-54218147D01*
X85490000Y-54347857D01*
X85490000Y-54482143D01*
X85524755Y-54611853D01*
X85555440Y-54665000D01*
X84750000Y-54665000D01*
X84750000Y-54773382D01*
X84780778Y-54967705D01*
X84841581Y-55154835D01*
X84930904Y-55330143D01*
X85046555Y-55489321D01*
X85185678Y-55628444D01*
X85344856Y-55744095D01*
X85520162Y-55833418D01*
X85707283Y-55894218D01*
X85750000Y-55900984D01*
X85750000Y-54859560D01*
X85803147Y-54890245D01*
X85932857Y-54925000D01*
X86067143Y-54925000D01*
X86196853Y-54890245D01*
X86250000Y-54859560D01*
X86250000Y-55900983D01*
X86292716Y-55894218D01*
X86479837Y-55833418D01*
X86655143Y-55744095D01*
X86814321Y-55628444D01*
X86953444Y-55489321D01*
X87069095Y-55330143D01*
X87158418Y-55154835D01*
X87219221Y-54967705D01*
X87250000Y-54773382D01*
X87250000Y-54665000D01*
X86444560Y-54665000D01*
X86475245Y-54611853D01*
X86510000Y-54482143D01*
X86510000Y-54347857D01*
X86475245Y-54218147D01*
X86444560Y-54165000D01*
X87250000Y-54165000D01*
X87250000Y-54056617D01*
X87750000Y-54056617D01*
X87750000Y-54165000D01*
X88555440Y-54165000D01*
X88524755Y-54218147D01*
X88490000Y-54347857D01*
X88490000Y-54482143D01*
X88524755Y-54611853D01*
X88555440Y-54665000D01*
X87750000Y-54665000D01*
X87750000Y-54773382D01*
X87780778Y-54967705D01*
X87841581Y-55154835D01*
X87930904Y-55330143D01*
X88046555Y-55489321D01*
X88185678Y-55628444D01*
X88344856Y-55744095D01*
X88520162Y-55833418D01*
X88707283Y-55894218D01*
X88750000Y-55900984D01*
X88750000Y-54859560D01*
X88803147Y-54890245D01*
X88932857Y-54925000D01*
X89067143Y-54925000D01*
X89196853Y-54890245D01*
X89250000Y-54859560D01*
X89250000Y-55900983D01*
X89292716Y-55894218D01*
X89479837Y-55833418D01*
X89655143Y-55744095D01*
X89814321Y-55628444D01*
X89953444Y-55489321D01*
X90069095Y-55330143D01*
X90158418Y-55154835D01*
X90219221Y-54967705D01*
X90250000Y-54773382D01*
X90250000Y-54665000D01*
X89444560Y-54665000D01*
X89475245Y-54611853D01*
X89510000Y-54482143D01*
X89510000Y-54347857D01*
X89475245Y-54218147D01*
X89444560Y-54165000D01*
X90250000Y-54165000D01*
X90250000Y-54056617D01*
X90750000Y-54056617D01*
X90750000Y-54165000D01*
X91555440Y-54165000D01*
X91524755Y-54218147D01*
X91490000Y-54347857D01*
X91490000Y-54482143D01*
X91524755Y-54611853D01*
X91555440Y-54665000D01*
X90750000Y-54665000D01*
X90750000Y-54773382D01*
X90780778Y-54967705D01*
X90841581Y-55154835D01*
X90930904Y-55330143D01*
X91046555Y-55489321D01*
X91185678Y-55628444D01*
X91344856Y-55744095D01*
X91520162Y-55833418D01*
X91707283Y-55894218D01*
X91750000Y-55900984D01*
X91750000Y-54859560D01*
X91803147Y-54890245D01*
X91932857Y-54925000D01*
X92067143Y-54925000D01*
X92196853Y-54890245D01*
X92250000Y-54859560D01*
X92250000Y-55900983D01*
X92292716Y-55894218D01*
X92479837Y-55833418D01*
X92655143Y-55744095D01*
X92814321Y-55628444D01*
X92953444Y-55489321D01*
X93069095Y-55330143D01*
X93158418Y-55154835D01*
X93219221Y-54967705D01*
X93250000Y-54773382D01*
X93250000Y-54665000D01*
X92444560Y-54665000D01*
X92475245Y-54611853D01*
X92510000Y-54482143D01*
X92510000Y-54347857D01*
X92475245Y-54218147D01*
X92444560Y-54165000D01*
X93250000Y-54165000D01*
X93250000Y-54056617D01*
X93219221Y-53862294D01*
X93158418Y-53675164D01*
X93149754Y-53658158D01*
X93122676Y-53605014D01*
X93750000Y-53605014D01*
X93750000Y-54165000D01*
X94555440Y-54165000D01*
X94524755Y-54218147D01*
X94490000Y-54347857D01*
X94490000Y-54482143D01*
X94524755Y-54611853D01*
X94555440Y-54665000D01*
X93750000Y-54665000D01*
X93750000Y-55224985D01*
X93760493Y-55327689D01*
X93760494Y-55327696D01*
X93815641Y-55494118D01*
X93815643Y-55494123D01*
X93907684Y-55643344D01*
X94031655Y-55767315D01*
X94180876Y-55859356D01*
X94180881Y-55859358D01*
X94347303Y-55914505D01*
X94347310Y-55914506D01*
X94450014Y-55924999D01*
X94450027Y-55925000D01*
X94750000Y-55925000D01*
X94750000Y-54859560D01*
X94803147Y-54890245D01*
X94932857Y-54925000D01*
X95067143Y-54925000D01*
X95196853Y-54890245D01*
X95250000Y-54859560D01*
X95250000Y-55925000D01*
X95549973Y-55925000D01*
X95549985Y-55924999D01*
X95652689Y-55914506D01*
X95652696Y-55914505D01*
X95819118Y-55859358D01*
X95819123Y-55859356D01*
X95968344Y-55767315D01*
X96092315Y-55643344D01*
X96184356Y-55494123D01*
X96184358Y-55494118D01*
X96239505Y-55327696D01*
X96239506Y-55327689D01*
X96249999Y-55224985D01*
X96250000Y-55224972D01*
X96250000Y-54665000D01*
X95444560Y-54665000D01*
X95475245Y-54611853D01*
X95510000Y-54482143D01*
X95510000Y-54347857D01*
X95475245Y-54218147D01*
X95444560Y-54165000D01*
X96250000Y-54165000D01*
X96250000Y-53605027D01*
X96249999Y-53605014D01*
X96239506Y-53502310D01*
X96239505Y-53502303D01*
X96184358Y-53335881D01*
X96184356Y-53335876D01*
X96092315Y-53186655D01*
X95968344Y-53062684D01*
X95819123Y-52970643D01*
X95819118Y-52970641D01*
X95652696Y-52915494D01*
X95652689Y-52915493D01*
X95549985Y-52905000D01*
X95250000Y-52905000D01*
X95250000Y-53970439D01*
X95196853Y-53939755D01*
X95067143Y-53905000D01*
X94932857Y-53905000D01*
X94803147Y-53939755D01*
X94750000Y-53970439D01*
X94750000Y-52905000D01*
X94450014Y-52905000D01*
X94347310Y-52915493D01*
X94347303Y-52915494D01*
X94180881Y-52970641D01*
X94180876Y-52970643D01*
X94031655Y-53062684D01*
X93907684Y-53186655D01*
X93815643Y-53335876D01*
X93815641Y-53335881D01*
X93760494Y-53502303D01*
X93760493Y-53502310D01*
X93750000Y-53605014D01*
X93122676Y-53605014D01*
X93069095Y-53499856D01*
X92953444Y-53340678D01*
X92814321Y-53201555D01*
X92655143Y-53085904D01*
X92479835Y-52996581D01*
X92292705Y-52935778D01*
X92250000Y-52929014D01*
X92250000Y-53970439D01*
X92196853Y-53939755D01*
X92067143Y-53905000D01*
X91932857Y-53905000D01*
X91803147Y-53939755D01*
X91750000Y-53970439D01*
X91750000Y-52929014D01*
X91749999Y-52929014D01*
X91707294Y-52935778D01*
X91520164Y-52996581D01*
X91344856Y-53085904D01*
X91185678Y-53201555D01*
X91046555Y-53340678D01*
X90930904Y-53499856D01*
X90841581Y-53675164D01*
X90780778Y-53862294D01*
X90750000Y-54056617D01*
X90250000Y-54056617D01*
X90219221Y-53862294D01*
X90158418Y-53675164D01*
X90069095Y-53499856D01*
X89953444Y-53340678D01*
X89814321Y-53201555D01*
X89655143Y-53085904D01*
X89479835Y-52996581D01*
X89292705Y-52935778D01*
X89250000Y-52929014D01*
X89250000Y-53970439D01*
X89196853Y-53939755D01*
X89067143Y-53905000D01*
X88932857Y-53905000D01*
X88803147Y-53939755D01*
X88750000Y-53970439D01*
X88750000Y-52929014D01*
X88749999Y-52929014D01*
X88707294Y-52935778D01*
X88520164Y-52996581D01*
X88344856Y-53085904D01*
X88185678Y-53201555D01*
X88046555Y-53340678D01*
X87930904Y-53499856D01*
X87841581Y-53675164D01*
X87780778Y-53862294D01*
X87750000Y-54056617D01*
X87250000Y-54056617D01*
X87219221Y-53862294D01*
X87158418Y-53675164D01*
X87069095Y-53499856D01*
X86953444Y-53340678D01*
X86814321Y-53201555D01*
X86655143Y-53085904D01*
X86479835Y-52996581D01*
X86292705Y-52935778D01*
X86250000Y-52929014D01*
X86250000Y-53970439D01*
X86196853Y-53939755D01*
X86067143Y-53905000D01*
X85932857Y-53905000D01*
X85803147Y-53939755D01*
X85750000Y-53970439D01*
X85750000Y-52929014D01*
X85749999Y-52929014D01*
X85707294Y-52935778D01*
X85520164Y-52996581D01*
X85344856Y-53085904D01*
X85185678Y-53201555D01*
X85046555Y-53340678D01*
X84930904Y-53499856D01*
X84841581Y-53675164D01*
X84780778Y-53862294D01*
X84750000Y-54056617D01*
X84250000Y-54056617D01*
X84219221Y-53862294D01*
X84158418Y-53675164D01*
X84069095Y-53499856D01*
X83953444Y-53340678D01*
X83814321Y-53201555D01*
X83655143Y-53085904D01*
X83479835Y-52996581D01*
X83292705Y-52935778D01*
X83250000Y-52929014D01*
X83250000Y-53970439D01*
X83196853Y-53939755D01*
X83067143Y-53905000D01*
X82932857Y-53905000D01*
X82803147Y-53939755D01*
X82750000Y-53970439D01*
X82750000Y-52929014D01*
X82749999Y-52929014D01*
X82707294Y-52935778D01*
X82520164Y-52996581D01*
X82344856Y-53085904D01*
X82185678Y-53201555D01*
X82046555Y-53340678D01*
X81930904Y-53499856D01*
X81841581Y-53675164D01*
X81780778Y-53862294D01*
X81750000Y-54056617D01*
X81250000Y-54056617D01*
X81219221Y-53862294D01*
X81158418Y-53675164D01*
X81069095Y-53499856D01*
X80953444Y-53340678D01*
X80814321Y-53201555D01*
X80655143Y-53085904D01*
X80479835Y-52996581D01*
X80292705Y-52935778D01*
X80250000Y-52929014D01*
X80250000Y-53970439D01*
X80196853Y-53939755D01*
X80067143Y-53905000D01*
X79932857Y-53905000D01*
X79803147Y-53939755D01*
X79750000Y-53970439D01*
X79750000Y-52929014D01*
X79749999Y-52929014D01*
X79707294Y-52935778D01*
X79520164Y-52996581D01*
X79344856Y-53085904D01*
X79185678Y-53201555D01*
X79046555Y-53340678D01*
X78930904Y-53499856D01*
X78841581Y-53675164D01*
X78780778Y-53862294D01*
X78750000Y-54056617D01*
X57210044Y-54056617D01*
X57104284Y-53837003D01*
X56960838Y-53608711D01*
X56792734Y-53397915D01*
X56602085Y-53207266D01*
X56391289Y-53039162D01*
X56162997Y-52895716D01*
X56162994Y-52895714D01*
X55920082Y-52778734D01*
X55665602Y-52689687D01*
X55665594Y-52689684D01*
X55468446Y-52644687D01*
X55402732Y-52629688D01*
X55402728Y-52629687D01*
X55402719Y-52629686D01*
X55134813Y-52599500D01*
X55134809Y-52599500D01*
X54865191Y-52599500D01*
X54865186Y-52599500D01*
X54597280Y-52629686D01*
X54597268Y-52629688D01*
X54334405Y-52689684D01*
X54334397Y-52689687D01*
X54079917Y-52778734D01*
X53837005Y-52895714D01*
X53608712Y-53039161D01*
X53397915Y-53207265D01*
X53207265Y-53397915D01*
X53039161Y-53608712D01*
X52895714Y-53837005D01*
X52778734Y-54079917D01*
X52689687Y-54334397D01*
X52689684Y-54334405D01*
X52629688Y-54597268D01*
X52629686Y-54597280D01*
X52599500Y-54865186D01*
X50500500Y-54865186D01*
X50500500Y-50624500D01*
X50520185Y-50557461D01*
X50572989Y-50511706D01*
X50624500Y-50500500D01*
X99876000Y-50500500D01*
X99943039Y-50520185D01*
G37*
%TD.AperFunction*%
%TA.AperFunction,Conductor*%
G36*
X72977439Y-98776585D02*
G01*
X73023194Y-98829389D01*
X73034400Y-98880900D01*
X73034400Y-99861139D01*
X73024961Y-99908591D01*
X72980263Y-100016501D01*
X72980260Y-100016511D01*
X72949500Y-100171153D01*
X72949500Y-100328846D01*
X72980261Y-100483489D01*
X72980264Y-100483501D01*
X73040602Y-100629172D01*
X73040609Y-100629185D01*
X73128210Y-100760288D01*
X73128213Y-100760292D01*
X73239707Y-100871786D01*
X73239711Y-100871789D01*
X73370814Y-100959390D01*
X73370827Y-100959397D01*
X73458230Y-100995599D01*
X73516503Y-101019737D01*
X73627716Y-101041858D01*
X73689623Y-101074241D01*
X73691203Y-101075793D01*
X76613181Y-103997771D01*
X76646666Y-104059094D01*
X76649500Y-104085452D01*
X76649500Y-106457650D01*
X76629815Y-106524689D01*
X76628602Y-106526541D01*
X76565609Y-106620815D01*
X76565602Y-106620828D01*
X76505264Y-106766498D01*
X76505261Y-106766510D01*
X76474500Y-106921153D01*
X76474500Y-107078846D01*
X76505261Y-107233489D01*
X76505264Y-107233501D01*
X76565602Y-107379172D01*
X76565609Y-107379185D01*
X76653210Y-107510288D01*
X76653213Y-107510292D01*
X76764707Y-107621786D01*
X76764711Y-107621789D01*
X76895814Y-107709390D01*
X76895827Y-107709397D01*
X77041498Y-107769735D01*
X77041503Y-107769737D01*
X77146418Y-107790606D01*
X77196153Y-107800499D01*
X77196156Y-107800500D01*
X77197650Y-107800500D01*
X77198404Y-107800721D01*
X77202218Y-107801097D01*
X77202146Y-107801820D01*
X77264689Y-107820185D01*
X77310444Y-107872989D01*
X77320388Y-107942147D01*
X77300752Y-107993391D01*
X77215609Y-108120814D01*
X77215602Y-108120827D01*
X77155264Y-108266498D01*
X77155261Y-108266510D01*
X77124500Y-108421153D01*
X77124500Y-108578846D01*
X77155261Y-108733489D01*
X77155264Y-108733501D01*
X77215602Y-108879172D01*
X77215609Y-108879185D01*
X77303210Y-109010288D01*
X77303213Y-109010292D01*
X77414707Y-109121786D01*
X77414711Y-109121789D01*
X77545814Y-109209390D01*
X77545827Y-109209397D01*
X77599402Y-109231588D01*
X77691503Y-109269737D01*
X77846153Y-109300499D01*
X77846156Y-109300500D01*
X77846158Y-109300500D01*
X78003844Y-109300500D01*
X78003845Y-109300499D01*
X78158497Y-109269737D01*
X78304179Y-109209394D01*
X78362664Y-109170315D01*
X78429339Y-109149438D01*
X78496720Y-109167922D01*
X78543410Y-109219900D01*
X78554587Y-109288870D01*
X78534657Y-109342308D01*
X78515608Y-109370816D01*
X78515602Y-109370827D01*
X78455264Y-109516498D01*
X78455261Y-109516510D01*
X78424500Y-109671153D01*
X78424500Y-109828846D01*
X78455261Y-109983489D01*
X78455264Y-109983501D01*
X78515602Y-110129172D01*
X78515609Y-110129185D01*
X78603210Y-110260288D01*
X78603213Y-110260292D01*
X78714707Y-110371786D01*
X78714711Y-110371789D01*
X78845814Y-110459390D01*
X78845827Y-110459397D01*
X78942646Y-110499500D01*
X78991503Y-110519737D01*
X79146153Y-110550499D01*
X79146156Y-110550500D01*
X79146158Y-110550500D01*
X79303844Y-110550500D01*
X79303845Y-110550499D01*
X79458497Y-110519737D01*
X79604179Y-110459394D01*
X79698459Y-110396398D01*
X79765136Y-110375520D01*
X79767350Y-110375500D01*
X80702019Y-110375500D01*
X80769058Y-110395185D01*
X80812503Y-110443203D01*
X80819950Y-110457819D01*
X80944890Y-110629786D01*
X81095213Y-110780109D01*
X81267182Y-110905050D01*
X81275946Y-110909516D01*
X81326742Y-110957491D01*
X81343536Y-111025312D01*
X81320998Y-111091447D01*
X81275946Y-111130484D01*
X81267182Y-111134949D01*
X81095213Y-111259890D01*
X80944890Y-111410213D01*
X80819951Y-111582179D01*
X80723446Y-111771581D01*
X80723445Y-111771584D01*
X80723443Y-111771588D01*
X80706389Y-111824075D01*
X80657753Y-111973760D01*
X80624500Y-112183713D01*
X80624500Y-112396286D01*
X80657735Y-112606127D01*
X80657754Y-112606243D01*
X80681934Y-112680662D01*
X80723444Y-112808414D01*
X80819951Y-112997820D01*
X80944890Y-113169786D01*
X81095213Y-113320109D01*
X81267179Y-113445048D01*
X81267181Y-113445049D01*
X81267184Y-113445051D01*
X81456588Y-113541557D01*
X81658757Y-113607246D01*
X81868713Y-113640500D01*
X81868714Y-113640500D01*
X82081286Y-113640500D01*
X82081287Y-113640500D01*
X82291243Y-113607246D01*
X82493412Y-113541557D01*
X82682816Y-113445051D01*
X82766037Y-113384588D01*
X82854786Y-113320109D01*
X82854788Y-113320106D01*
X82854792Y-113320104D01*
X83005104Y-113169792D01*
X83005106Y-113169788D01*
X83005109Y-113169786D01*
X83090890Y-113051717D01*
X83130051Y-112997816D01*
X83134793Y-112988508D01*
X83182763Y-112937711D01*
X83250583Y-112920911D01*
X83316719Y-112943445D01*
X83355763Y-112988500D01*
X83360373Y-112997547D01*
X83399728Y-113051716D01*
X84032037Y-112419408D01*
X84049075Y-112482993D01*
X84114901Y-112597007D01*
X84207993Y-112690099D01*
X84322007Y-112755925D01*
X84385590Y-112772962D01*
X83753282Y-113405269D01*
X83753282Y-113405270D01*
X83807449Y-113444624D01*
X83996782Y-113541095D01*
X84198870Y-113606757D01*
X84408754Y-113640000D01*
X84621246Y-113640000D01*
X84831127Y-113606757D01*
X84831130Y-113606757D01*
X85033217Y-113541095D01*
X85222554Y-113444622D01*
X85276716Y-113405270D01*
X85276717Y-113405270D01*
X84644408Y-112772962D01*
X84707993Y-112755925D01*
X84822007Y-112690099D01*
X84915099Y-112597007D01*
X84980925Y-112482993D01*
X84997962Y-112419408D01*
X85630270Y-113051717D01*
X85630270Y-113051716D01*
X85669622Y-112997554D01*
X85766095Y-112808217D01*
X85831757Y-112606130D01*
X85831757Y-112606127D01*
X85865000Y-112396246D01*
X85865000Y-112183753D01*
X85831757Y-111973872D01*
X85831757Y-111973869D01*
X85766095Y-111771782D01*
X85669624Y-111582449D01*
X85630270Y-111528282D01*
X85630269Y-111528282D01*
X84997962Y-112160590D01*
X84980925Y-112097007D01*
X84915099Y-111982993D01*
X84822007Y-111889901D01*
X84707993Y-111824075D01*
X84644409Y-111807037D01*
X85276716Y-111174728D01*
X85222547Y-111135373D01*
X85222547Y-111135372D01*
X85213500Y-111130763D01*
X85162706Y-111082788D01*
X85145912Y-111014966D01*
X85168451Y-110948832D01*
X85213508Y-110909793D01*
X85222816Y-110905051D01*
X85377282Y-110792826D01*
X85394786Y-110780109D01*
X85394788Y-110780106D01*
X85394792Y-110780104D01*
X85545104Y-110629792D01*
X85545106Y-110629788D01*
X85545109Y-110629786D01*
X85668902Y-110459397D01*
X85670051Y-110457816D01*
X85766557Y-110268412D01*
X85832246Y-110066243D01*
X85865500Y-109856287D01*
X85865500Y-109643713D01*
X85832246Y-109433757D01*
X85766557Y-109231588D01*
X85670051Y-109042184D01*
X85670049Y-109042181D01*
X85670048Y-109042179D01*
X85545109Y-108870213D01*
X85394786Y-108719890D01*
X85222820Y-108594951D01*
X85222115Y-108594591D01*
X85214054Y-108590485D01*
X85163259Y-108542512D01*
X85146463Y-108474692D01*
X85168999Y-108408556D01*
X85214054Y-108369515D01*
X85222816Y-108365051D01*
X85244789Y-108349086D01*
X85394786Y-108240109D01*
X85394788Y-108240106D01*
X85394792Y-108240104D01*
X85545104Y-108089792D01*
X85548949Y-108084500D01*
X85601903Y-108011615D01*
X85657233Y-107968949D01*
X85702221Y-107960500D01*
X86875500Y-107960500D01*
X86942539Y-107980185D01*
X86988294Y-108032989D01*
X86999500Y-108084500D01*
X86999500Y-124625500D01*
X86979815Y-124692539D01*
X86927011Y-124738294D01*
X86875500Y-124749500D01*
X78736480Y-124749500D01*
X78669441Y-124729815D01*
X78631486Y-124691472D01*
X78534480Y-124537087D01*
X78410412Y-124413019D01*
X78305667Y-124347204D01*
X78261845Y-124319669D01*
X78261844Y-124319668D01*
X78261843Y-124319668D01*
X78261841Y-124319667D01*
X78162419Y-124284878D01*
X78096232Y-124261718D01*
X78096230Y-124261717D01*
X78096228Y-124261717D01*
X78096223Y-124261716D01*
X77965610Y-124247000D01*
X77965604Y-124247000D01*
X77099396Y-124247000D01*
X77099389Y-124247000D01*
X76968776Y-124261716D01*
X76968771Y-124261717D01*
X76803158Y-124319667D01*
X76803156Y-124319668D01*
X76654587Y-124413019D01*
X76620181Y-124447426D01*
X76558858Y-124480911D01*
X76489166Y-124475927D01*
X76444819Y-124447426D01*
X76410412Y-124413019D01*
X76305667Y-124347204D01*
X76261845Y-124319669D01*
X76261844Y-124319668D01*
X76261843Y-124319668D01*
X76261841Y-124319667D01*
X76162419Y-124284878D01*
X76096232Y-124261718D01*
X76096230Y-124261717D01*
X76096228Y-124261717D01*
X76096223Y-124261716D01*
X75965610Y-124247000D01*
X75965604Y-124247000D01*
X75099396Y-124247000D01*
X75099389Y-124247000D01*
X74968776Y-124261716D01*
X74968771Y-124261717D01*
X74803158Y-124319667D01*
X74803156Y-124319668D01*
X74654584Y-124413021D01*
X74654582Y-124413022D01*
X74630326Y-124437278D01*
X74569002Y-124470761D01*
X74499310Y-124465774D01*
X74454967Y-124437275D01*
X74424090Y-124406398D01*
X74269729Y-124309406D01*
X74269728Y-124309405D01*
X74269727Y-124309405D01*
X74215371Y-124290385D01*
X74097649Y-124249192D01*
X74097644Y-124249191D01*
X73961925Y-124233900D01*
X73038077Y-124233900D01*
X73038073Y-124233901D01*
X72902352Y-124249192D01*
X72730271Y-124309405D01*
X72575909Y-124406398D01*
X72446998Y-124535309D01*
X72350006Y-124689670D01*
X72288360Y-124865845D01*
X72247638Y-124922621D01*
X72236513Y-124930368D01*
X72228002Y-124935627D01*
X72203714Y-124945689D01*
X72106690Y-125010519D01*
X72104878Y-125011729D01*
X72104858Y-125011742D01*
X72101266Y-125014142D01*
X72101260Y-125014146D01*
X72062830Y-125052577D01*
X72001507Y-125086062D01*
X71931815Y-125081076D01*
X71887469Y-125052576D01*
X71845412Y-125010519D01*
X71789601Y-124975451D01*
X71696845Y-124917169D01*
X71696844Y-124917168D01*
X71696843Y-124917168D01*
X71696841Y-124917167D01*
X71597419Y-124882378D01*
X71531232Y-124859218D01*
X71531230Y-124859217D01*
X71531228Y-124859217D01*
X71531224Y-124859216D01*
X71485615Y-124854077D01*
X71421201Y-124827009D01*
X71381647Y-124769414D01*
X71375500Y-124730857D01*
X71375500Y-117968172D01*
X71395185Y-117901133D01*
X71447989Y-117855378D01*
X71517147Y-117845434D01*
X71540445Y-117851128D01*
X71653768Y-117890782D01*
X71653772Y-117890782D01*
X71653776Y-117890783D01*
X71695341Y-117895466D01*
X71784390Y-117905499D01*
X71784393Y-117905500D01*
X71784396Y-117905500D01*
X72650607Y-117905500D01*
X72650608Y-117905499D01*
X72781232Y-117890782D01*
X72946845Y-117832831D01*
X73095412Y-117739481D01*
X73219481Y-117615412D01*
X73312831Y-117466845D01*
X73370782Y-117301232D01*
X73385500Y-117170604D01*
X73385500Y-116134396D01*
X73370782Y-116003768D01*
X73312831Y-115838155D01*
X73219481Y-115689588D01*
X73117574Y-115587681D01*
X73084089Y-115526358D01*
X73089073Y-115456666D01*
X73117574Y-115412319D01*
X73219481Y-115310412D01*
X73312831Y-115161845D01*
X73370782Y-114996232D01*
X73385500Y-114865604D01*
X73385500Y-113829396D01*
X73370782Y-113698768D01*
X73312831Y-113533155D01*
X73219481Y-113384588D01*
X73095412Y-113260519D01*
X72951020Y-113169792D01*
X72946849Y-113167171D01*
X72946847Y-113167170D01*
X72946845Y-113167169D01*
X72926040Y-113159889D01*
X72869267Y-113119166D01*
X72843522Y-113054213D01*
X72843000Y-113042849D01*
X72843000Y-112273845D01*
X72843001Y-112273824D01*
X72843001Y-112144495D01*
X72818964Y-112023659D01*
X72818963Y-112023653D01*
X72771812Y-111909819D01*
X72703358Y-111807371D01*
X72703355Y-111807367D01*
X71911819Y-111015831D01*
X71878334Y-110954508D01*
X71875500Y-110928150D01*
X71875500Y-100040586D01*
X71895185Y-99973547D01*
X71947989Y-99927792D01*
X72017147Y-99917848D01*
X72040455Y-99923545D01*
X72143987Y-99959773D01*
X72279132Y-99974999D01*
X72534399Y-99974999D01*
X72534400Y-99974998D01*
X72534400Y-98880900D01*
X72554085Y-98813861D01*
X72606889Y-98768106D01*
X72658400Y-98756900D01*
X72910400Y-98756900D01*
X72977439Y-98776585D01*
G37*
%TD.AperFunction*%
%TA.AperFunction,Conductor*%
G36*
X83316444Y-110403999D02*
G01*
X83355486Y-110449056D01*
X83359951Y-110457820D01*
X83484890Y-110629786D01*
X83635213Y-110780109D01*
X83807179Y-110905048D01*
X83807181Y-110905049D01*
X83807184Y-110905051D01*
X83816493Y-110909794D01*
X83867290Y-110957766D01*
X83884087Y-111025587D01*
X83861552Y-111091722D01*
X83816505Y-111130760D01*
X83807446Y-111135376D01*
X83807440Y-111135380D01*
X83753282Y-111174727D01*
X83753282Y-111174728D01*
X84385591Y-111807037D01*
X84322007Y-111824075D01*
X84207993Y-111889901D01*
X84114901Y-111982993D01*
X84049075Y-112097007D01*
X84032037Y-112160591D01*
X83399728Y-111528282D01*
X83399727Y-111528282D01*
X83360380Y-111582440D01*
X83360376Y-111582446D01*
X83355760Y-111591505D01*
X83307781Y-111642297D01*
X83239959Y-111659087D01*
X83173826Y-111636543D01*
X83134794Y-111591493D01*
X83130051Y-111582184D01*
X83130049Y-111582181D01*
X83130048Y-111582179D01*
X83005109Y-111410213D01*
X82854786Y-111259890D01*
X82682820Y-111134951D01*
X82674600Y-111130763D01*
X82674054Y-111130485D01*
X82623259Y-111082512D01*
X82606463Y-111014692D01*
X82628999Y-110948556D01*
X82674054Y-110909515D01*
X82682816Y-110905051D01*
X82837282Y-110792826D01*
X82854786Y-110780109D01*
X82854788Y-110780106D01*
X82854792Y-110780104D01*
X83005104Y-110629792D01*
X83005106Y-110629788D01*
X83005109Y-110629786D01*
X83128902Y-110459397D01*
X83130051Y-110457816D01*
X83134514Y-110449054D01*
X83182488Y-110398259D01*
X83250308Y-110381463D01*
X83316444Y-110403999D01*
G37*
%TD.AperFunction*%
%TA.AperFunction,Conductor*%
G36*
X87158639Y-99262785D02*
G01*
X87204394Y-99315589D01*
X87215600Y-99367100D01*
X87215600Y-100461199D01*
X87470865Y-100461199D01*
X87470870Y-100461198D01*
X87606010Y-100445973D01*
X87606023Y-100445970D01*
X87777353Y-100386019D01*
X87777360Y-100386015D01*
X87931071Y-100289433D01*
X88037819Y-100182686D01*
X88099142Y-100149201D01*
X88168834Y-100154185D01*
X88224767Y-100196057D01*
X88249184Y-100261521D01*
X88249500Y-100270367D01*
X88249500Y-106335500D01*
X88229815Y-106402539D01*
X88177011Y-106448294D01*
X88125500Y-106459500D01*
X85702221Y-106459500D01*
X85635182Y-106439815D01*
X85601903Y-106408385D01*
X85545107Y-106330211D01*
X85394786Y-106179890D01*
X85222820Y-106054951D01*
X85033414Y-105958444D01*
X85033413Y-105958443D01*
X85033412Y-105958443D01*
X84831243Y-105892754D01*
X84831241Y-105892753D01*
X84831240Y-105892753D01*
X84669957Y-105867208D01*
X84621287Y-105859500D01*
X84408713Y-105859500D01*
X84360042Y-105867208D01*
X84198760Y-105892753D01*
X83996585Y-105958444D01*
X83807179Y-106054951D01*
X83635215Y-106179889D01*
X83521673Y-106293431D01*
X83460350Y-106326915D01*
X83390658Y-106321931D01*
X83334725Y-106280059D01*
X83317810Y-106249082D01*
X83268797Y-106117671D01*
X83268793Y-106117664D01*
X83182547Y-106002455D01*
X83182544Y-106002452D01*
X83067335Y-105916206D01*
X83067328Y-105916202D01*
X82932482Y-105865908D01*
X82932483Y-105865908D01*
X82872883Y-105859501D01*
X82872881Y-105859500D01*
X82872873Y-105859500D01*
X82872864Y-105859500D01*
X81077129Y-105859500D01*
X81077123Y-105859501D01*
X81048185Y-105862612D01*
X80979425Y-105850205D01*
X80928289Y-105802594D01*
X80911011Y-105734894D01*
X80931831Y-105670430D01*
X80959389Y-105629186D01*
X80959390Y-105629185D01*
X80959394Y-105629179D01*
X81019737Y-105483497D01*
X81041858Y-105372282D01*
X81074240Y-105310375D01*
X81075734Y-105308854D01*
X85020258Y-101364333D01*
X85088712Y-101261885D01*
X85116332Y-101195203D01*
X85135863Y-101148052D01*
X85139851Y-101128002D01*
X85159901Y-101027206D01*
X85159901Y-100903993D01*
X85159901Y-100898883D01*
X85159900Y-100898857D01*
X85159900Y-100552651D01*
X85179585Y-100485612D01*
X85232389Y-100439857D01*
X85242936Y-100435612D01*
X85344727Y-100399995D01*
X85499091Y-100303001D01*
X85628001Y-100174091D01*
X85648980Y-100140704D01*
X85701314Y-100094412D01*
X85770367Y-100083763D01*
X85834216Y-100112138D01*
X85858967Y-100140702D01*
X85871764Y-100161069D01*
X86000128Y-100289433D01*
X86153839Y-100386015D01*
X86153841Y-100386016D01*
X86325189Y-100445973D01*
X86460332Y-100461199D01*
X86715599Y-100461199D01*
X86715600Y-100461198D01*
X86715600Y-99367100D01*
X86735285Y-99300061D01*
X86788089Y-99254306D01*
X86839600Y-99243100D01*
X87091600Y-99243100D01*
X87158639Y-99262785D01*
G37*
%TD.AperFunction*%
%TA.AperFunction,Conductor*%
G36*
X88192539Y-92770185D02*
G01*
X88238294Y-92822989D01*
X88249500Y-92874500D01*
X88249500Y-96387992D01*
X88229815Y-96455031D01*
X88177011Y-96500786D01*
X88107853Y-96510730D01*
X88044297Y-96481705D01*
X88020506Y-96453964D01*
X88005877Y-96430683D01*
X87989481Y-96404588D01*
X87865412Y-96280519D01*
X87716845Y-96187169D01*
X87716844Y-96187168D01*
X87716843Y-96187168D01*
X87716841Y-96187167D01*
X87615907Y-96151849D01*
X87551232Y-96129218D01*
X87551230Y-96129217D01*
X87551228Y-96129217D01*
X87551223Y-96129216D01*
X87420610Y-96114500D01*
X87420604Y-96114500D01*
X86384396Y-96114500D01*
X86384389Y-96114500D01*
X86253776Y-96129216D01*
X86253771Y-96129217D01*
X86088158Y-96187167D01*
X86088156Y-96187168D01*
X85939587Y-96280519D01*
X85837681Y-96382426D01*
X85776358Y-96415911D01*
X85706666Y-96410927D01*
X85662319Y-96382426D01*
X85560412Y-96280519D01*
X85454911Y-96214229D01*
X85408620Y-96161895D01*
X85397971Y-96092841D01*
X85399268Y-96085034D01*
X85400500Y-96078842D01*
X85400500Y-95921155D01*
X85400499Y-95921153D01*
X85383803Y-95837218D01*
X85369737Y-95766503D01*
X85352961Y-95726002D01*
X85309397Y-95620827D01*
X85309390Y-95620814D01*
X85221789Y-95489711D01*
X85221786Y-95489707D01*
X85110292Y-95378213D01*
X85110288Y-95378210D01*
X84979185Y-95290609D01*
X84979172Y-95290602D01*
X84833501Y-95230264D01*
X84833489Y-95230261D01*
X84678845Y-95199500D01*
X84678842Y-95199500D01*
X84521158Y-95199500D01*
X84521155Y-95199500D01*
X84366510Y-95230261D01*
X84366498Y-95230264D01*
X84220827Y-95290602D01*
X84220814Y-95290609D01*
X84089711Y-95378210D01*
X84089707Y-95378213D01*
X83978213Y-95489707D01*
X83978210Y-95489711D01*
X83890609Y-95620814D01*
X83890602Y-95620827D01*
X83830264Y-95766498D01*
X83830261Y-95766510D01*
X83799500Y-95921153D01*
X83799500Y-96078843D01*
X83800179Y-96082258D01*
X83800015Y-96084080D01*
X83800097Y-96084905D01*
X83799940Y-96084920D01*
X83793947Y-96151849D01*
X83751081Y-96207024D01*
X83744533Y-96211435D01*
X83634589Y-96280517D01*
X83510519Y-96404587D01*
X83417168Y-96553156D01*
X83417167Y-96553158D01*
X83359217Y-96718771D01*
X83359216Y-96718776D01*
X83344500Y-96849389D01*
X83344500Y-97715610D01*
X83359216Y-97846223D01*
X83359217Y-97846228D01*
X83359217Y-97846230D01*
X83359218Y-97846232D01*
X83377574Y-97898689D01*
X83417167Y-98011841D01*
X83417170Y-98011848D01*
X83494866Y-98135501D01*
X83513866Y-98202737D01*
X83493498Y-98269572D01*
X83477554Y-98289152D01*
X83440801Y-98325904D01*
X83440799Y-98325907D01*
X83343806Y-98480269D01*
X83283592Y-98652350D01*
X83283591Y-98652355D01*
X83268300Y-98788072D01*
X83268300Y-99711922D01*
X83268301Y-99711926D01*
X83283592Y-99847647D01*
X83343805Y-100019728D01*
X83440798Y-100174090D01*
X83569709Y-100303001D01*
X83701825Y-100386016D01*
X83724073Y-100399995D01*
X83825855Y-100435609D01*
X83844843Y-100449229D01*
X83866103Y-100458938D01*
X83872706Y-100469213D01*
X83882630Y-100476331D01*
X83891241Y-100498054D01*
X83903877Y-100517716D01*
X83906632Y-100536879D01*
X83908378Y-100541283D01*
X83908900Y-100552651D01*
X83908900Y-100655147D01*
X83889215Y-100722186D01*
X83872581Y-100742828D01*
X80191203Y-104424205D01*
X80129880Y-104457690D01*
X80127714Y-104458141D01*
X80016508Y-104480261D01*
X80016498Y-104480264D01*
X79870827Y-104540602D01*
X79870814Y-104540609D01*
X79739711Y-104628210D01*
X79739707Y-104628213D01*
X79628213Y-104739707D01*
X79628210Y-104739711D01*
X79540609Y-104870814D01*
X79540602Y-104870827D01*
X79480264Y-105016498D01*
X79480261Y-105016510D01*
X79449500Y-105171153D01*
X79449500Y-105328846D01*
X79480261Y-105483489D01*
X79480264Y-105483501D01*
X79540602Y-105629172D01*
X79540609Y-105629185D01*
X79628210Y-105760288D01*
X79628213Y-105760292D01*
X79739707Y-105871786D01*
X79739711Y-105871789D01*
X79870814Y-105959390D01*
X79870827Y-105959397D01*
X80016498Y-106019735D01*
X80016503Y-106019737D01*
X80171153Y-106050499D01*
X80171156Y-106050500D01*
X80171158Y-106050500D01*
X80328844Y-106050500D01*
X80328845Y-106050499D01*
X80483497Y-106019737D01*
X80497343Y-106014001D01*
X80514079Y-106012201D01*
X80529529Y-106005505D01*
X80548101Y-106008543D01*
X80566809Y-106006532D01*
X80581863Y-106014067D01*
X80598482Y-106016786D01*
X80612463Y-106029383D01*
X80629289Y-106037805D01*
X80637880Y-106052283D01*
X80650390Y-106063555D01*
X80655341Y-106081711D01*
X80664943Y-106097893D01*
X80664467Y-106115174D01*
X80668773Y-106130963D01*
X80663231Y-106160059D01*
X80663074Y-106165794D01*
X80662097Y-106168896D01*
X80630909Y-106252517D01*
X80628384Y-106275994D01*
X80624690Y-106287732D01*
X80611813Y-106306939D01*
X80602965Y-106328304D01*
X80592726Y-106335413D01*
X80585785Y-106345768D01*
X80564568Y-106354965D01*
X80545574Y-106368154D01*
X80527319Y-106371112D01*
X80521679Y-106373557D01*
X80516977Y-106372787D01*
X80506412Y-106374500D01*
X78024500Y-106374500D01*
X77957461Y-106354815D01*
X77911706Y-106302011D01*
X77900500Y-106250500D01*
X77900500Y-103713395D01*
X77898626Y-103703973D01*
X77894571Y-103683588D01*
X77891671Y-103669010D01*
X77887288Y-103646972D01*
X77876463Y-103592549D01*
X77829312Y-103478715D01*
X77829311Y-103478713D01*
X77829310Y-103478711D01*
X77792808Y-103424083D01*
X77792808Y-103424084D01*
X77760858Y-103376267D01*
X77760855Y-103376264D01*
X77760853Y-103376261D01*
X77670637Y-103286045D01*
X77670606Y-103286016D01*
X74575793Y-100191203D01*
X74566730Y-100174605D01*
X74553599Y-100160997D01*
X74543193Y-100131502D01*
X74542308Y-100129880D01*
X74541871Y-100127784D01*
X74540061Y-100118681D01*
X74546288Y-100049093D01*
X74589151Y-99993915D01*
X74655041Y-99970671D01*
X74675562Y-99971273D01*
X74683805Y-99972201D01*
X74713079Y-99975500D01*
X75718120Y-99975499D01*
X75718122Y-99975499D01*
X75718123Y-99975498D01*
X75853850Y-99960207D01*
X76025927Y-99899995D01*
X76180291Y-99803001D01*
X76180290Y-99803001D01*
X76184028Y-99800653D01*
X76251264Y-99781653D01*
X76315972Y-99800653D01*
X76319709Y-99803001D01*
X76474073Y-99899995D01*
X76644910Y-99959773D01*
X76646150Y-99960207D01*
X76646155Y-99960208D01*
X76714014Y-99967853D01*
X76781879Y-99975500D01*
X77786920Y-99975499D01*
X77786922Y-99975499D01*
X77786923Y-99975498D01*
X77922650Y-99960207D01*
X78094727Y-99899995D01*
X78249091Y-99803001D01*
X78378001Y-99674091D01*
X78398980Y-99640704D01*
X78451314Y-99594412D01*
X78520367Y-99583763D01*
X78584216Y-99612138D01*
X78608967Y-99640702D01*
X78621764Y-99661069D01*
X78750128Y-99789433D01*
X78903839Y-99886015D01*
X78903841Y-99886016D01*
X79075189Y-99945973D01*
X79210332Y-99961199D01*
X79465599Y-99961199D01*
X79965600Y-99961199D01*
X80220865Y-99961199D01*
X80220870Y-99961198D01*
X80356010Y-99945973D01*
X80356023Y-99945970D01*
X80527353Y-99886019D01*
X80527360Y-99886015D01*
X80681071Y-99789433D01*
X80809433Y-99661071D01*
X80906015Y-99507360D01*
X80906016Y-99507358D01*
X80965973Y-99336010D01*
X80981199Y-99200869D01*
X80981200Y-99200865D01*
X80981200Y-98993100D01*
X79965600Y-98993100D01*
X79965600Y-99961199D01*
X79465599Y-99961199D01*
X79465600Y-99961198D01*
X79465600Y-98493100D01*
X79965600Y-98493100D01*
X80981199Y-98493100D01*
X80981199Y-98285335D01*
X80981198Y-98285329D01*
X80965973Y-98150189D01*
X80965970Y-98150176D01*
X80906019Y-97978846D01*
X80906015Y-97978839D01*
X80809433Y-97825128D01*
X80681071Y-97696766D01*
X80527360Y-97600184D01*
X80527358Y-97600183D01*
X80356010Y-97540226D01*
X80220869Y-97525000D01*
X79965600Y-97525000D01*
X79965600Y-98493100D01*
X79465600Y-98493100D01*
X79465600Y-97525000D01*
X79210335Y-97525000D01*
X79210329Y-97525001D01*
X79075189Y-97540226D01*
X79075176Y-97540229D01*
X78903846Y-97600180D01*
X78903839Y-97600184D01*
X78750128Y-97696766D01*
X78621766Y-97825128D01*
X78621765Y-97825130D01*
X78604630Y-97852399D01*
X78552294Y-97898689D01*
X78483240Y-97909335D01*
X78419393Y-97880958D01*
X78394644Y-97852395D01*
X78378004Y-97825913D01*
X78378002Y-97825910D01*
X78249090Y-97696998D01*
X78094729Y-97600006D01*
X78094728Y-97600005D01*
X78094727Y-97600005D01*
X77992942Y-97564389D01*
X77922649Y-97539792D01*
X77922644Y-97539791D01*
X77786925Y-97524500D01*
X76781877Y-97524500D01*
X76781873Y-97524501D01*
X76646152Y-97539792D01*
X76474071Y-97600005D01*
X76315972Y-97699346D01*
X76248735Y-97718346D01*
X76184028Y-97699346D01*
X76025927Y-97600005D01*
X76025923Y-97600003D01*
X75924145Y-97564389D01*
X75867369Y-97523668D01*
X75841622Y-97458715D01*
X75841100Y-97447348D01*
X75841100Y-97194851D01*
X75860785Y-97127812D01*
X75877415Y-97107174D01*
X76364329Y-96620260D01*
X76364333Y-96620258D01*
X76451458Y-96533133D01*
X76519911Y-96430686D01*
X76567063Y-96316852D01*
X76591100Y-96196006D01*
X76591100Y-95552651D01*
X76610785Y-95485612D01*
X76663589Y-95439857D01*
X76674136Y-95435612D01*
X76775927Y-95399995D01*
X76930291Y-95303001D01*
X77037319Y-95195973D01*
X77098642Y-95162488D01*
X77168334Y-95167472D01*
X77212681Y-95195973D01*
X77319709Y-95303001D01*
X77474073Y-95399995D01*
X77616314Y-95449767D01*
X77646150Y-95460207D01*
X77646155Y-95460208D01*
X77714014Y-95467853D01*
X77781879Y-95475500D01*
X78786920Y-95475499D01*
X78786922Y-95475499D01*
X78786923Y-95475498D01*
X78922650Y-95460207D01*
X79094727Y-95399995D01*
X79249091Y-95303001D01*
X79378001Y-95174091D01*
X79398980Y-95140704D01*
X79451314Y-95094412D01*
X79520367Y-95083763D01*
X79584216Y-95112138D01*
X79608967Y-95140702D01*
X79621764Y-95161069D01*
X79750128Y-95289433D01*
X79903839Y-95386015D01*
X79903841Y-95386016D01*
X80075189Y-95445973D01*
X80210332Y-95461199D01*
X80465599Y-95461199D01*
X80965600Y-95461199D01*
X81220865Y-95461199D01*
X81220870Y-95461198D01*
X81356010Y-95445973D01*
X81356023Y-95445970D01*
X81527353Y-95386019D01*
X81527360Y-95386015D01*
X81681071Y-95289433D01*
X81809433Y-95161071D01*
X81906015Y-95007360D01*
X81906016Y-95007358D01*
X81965973Y-94836010D01*
X81981199Y-94700869D01*
X81981200Y-94700865D01*
X81981200Y-94493100D01*
X80965600Y-94493100D01*
X80965600Y-95461199D01*
X80465599Y-95461199D01*
X80465600Y-95461198D01*
X80465600Y-93993100D01*
X80965600Y-93993100D01*
X81981199Y-93993100D01*
X81981199Y-93785335D01*
X81981198Y-93785329D01*
X81965973Y-93650189D01*
X81965970Y-93650176D01*
X81906019Y-93478846D01*
X81906015Y-93478839D01*
X81809433Y-93325128D01*
X81681071Y-93196766D01*
X81527360Y-93100184D01*
X81527358Y-93100183D01*
X81356010Y-93040226D01*
X81220869Y-93025000D01*
X80965600Y-93025000D01*
X80965600Y-93993100D01*
X80465600Y-93993100D01*
X80465600Y-93025000D01*
X80210335Y-93025000D01*
X80210329Y-93025001D01*
X80075189Y-93040226D01*
X80075176Y-93040229D01*
X79903846Y-93100180D01*
X79903839Y-93100184D01*
X79750128Y-93196766D01*
X79621766Y-93325128D01*
X79621765Y-93325130D01*
X79604630Y-93352399D01*
X79552294Y-93398689D01*
X79483240Y-93409335D01*
X79419393Y-93380958D01*
X79394644Y-93352395D01*
X79378004Y-93325913D01*
X79378002Y-93325910D01*
X79249090Y-93196998D01*
X79094727Y-93100004D01*
X79094723Y-93100003D01*
X78992945Y-93064389D01*
X78936169Y-93023668D01*
X78910422Y-92958715D01*
X78909900Y-92947348D01*
X78909900Y-92874500D01*
X78929585Y-92807461D01*
X78982389Y-92761706D01*
X79033900Y-92750500D01*
X88125500Y-92750500D01*
X88192539Y-92770185D01*
G37*
%TD.AperFunction*%
%TD*%
M02*
