%TF.GenerationSoftware,KiCad,Pcbnew,7.0.11-rc3*%
%TF.CreationDate,2025-12-05T17:25:17+08:00*%
%TF.ProjectId,seg_pcb_1,7365675f-7063-4625-9f31-2e6b69636164,rev?*%
%TF.SameCoordinates,Original*%
%TF.FileFunction,Copper,L3,Inr*%
%TF.FilePolarity,Positive*%
%FSLAX46Y46*%
G04 Gerber Fmt 4.6, Leading zero omitted, Abs format (unit mm)*
G04 Created by KiCad (PCBNEW 7.0.11-rc3) date 2025-12-05 17:25:17*
%MOMM*%
%LPD*%
G01*
G04 APERTURE LIST*
%TA.AperFunction,ComponentPad*%
%ADD10C,4.400000*%
%TD*%
%TA.AperFunction,ViaPad*%
%ADD11C,0.600000*%
%TD*%
%TA.AperFunction,Conductor*%
%ADD12C,0.200000*%
%TD*%
G04 APERTURE END LIST*
D10*
%TO.N,Net-(J1-Pin_6)*%
%TO.C,TP4*%
X94400000Y-67500000D03*
%TD*%
%TO.N,Net-(J1-Pin_15)*%
%TO.C,TP5*%
X103600000Y-96500000D03*
%TD*%
%TO.N,Net-(J1-Pin_12)*%
%TO.C,TP11*%
X158800000Y-96500000D03*
%TD*%
%TO.N,Net-(J1-Pin_2)*%
%TO.C,TP12*%
X168000000Y-67500000D03*
%TD*%
%TO.N,Net-(J1-Pin_3)*%
%TO.C,TP10*%
X149600000Y-67500000D03*
%TD*%
%TO.N,Net-(J1-Pin_13)*%
%TO.C,TP9*%
X140400000Y-96500000D03*
%TD*%
%TO.N,Net-(J1-Pin_17)*%
%TO.C,TP1*%
X66800000Y-96500000D03*
%TD*%
%TO.N,Net-(J1-Pin_1)*%
%TO.C,TP14*%
X188400000Y-67500000D03*
%TD*%
%TO.N,Net-(J1-Pin_5)*%
%TO.C,TP6*%
X112800000Y-67500000D03*
%TD*%
%TO.N,Net-(J1-Pin_11)*%
%TO.C,TP13*%
X177200000Y-96500000D03*
%TD*%
%TO.N,Net-(J1-Pin_4)*%
%TO.C,TP8*%
X131200000Y-67500000D03*
%TD*%
%TO.N,Net-(J1-Pin_7)*%
%TO.C,TP2*%
X76000000Y-67500000D03*
%TD*%
%TO.N,Net-(J1-Pin_16)*%
%TO.C,TP3*%
X85200000Y-96500000D03*
%TD*%
%TO.N,Net-(J1-Pin_14)*%
%TO.C,TP7*%
X122000000Y-96500000D03*
%TD*%
%TO.N,GND*%
%TO.C,TP0*%
X55600000Y-67500000D03*
%TD*%
D11*
%TO.N,GND*%
X148050000Y-51250000D03*
X123550000Y-112650000D03*
X178750000Y-112650000D03*
X92850000Y-51250000D03*
X120030000Y-81540000D03*
X68350000Y-112650000D03*
%TO.N,Net-(J1-Pin_9)*%
X119010000Y-81530000D03*
X151150000Y-51250000D03*
%TO.N,Net-(J1-Pin_10)*%
X117780000Y-79640000D03*
X95950000Y-51250000D03*
%TO.N,Net-(J1-Pin_18)*%
X120100000Y-82400000D03*
X175650000Y-112650000D03*
%TO.N,Net-(J1-Pin_19)*%
X120450000Y-112650000D03*
X119000000Y-82500000D03*
%TO.N,Net-(J1-Pin_1)*%
X124857500Y-81590000D03*
%TO.N,Net-(J1-Pin_2)*%
X124230000Y-77910000D03*
%TO.N,Net-(J1-Pin_3)*%
X123570000Y-81540000D03*
%TO.N,Net-(J1-Pin_4)*%
X122950000Y-77900000D03*
%TO.N,Net-(J1-Pin_5)*%
X122330000Y-81550000D03*
%TO.N,Net-(J1-Pin_6)*%
X121630000Y-77900000D03*
%TO.N,Net-(J1-Pin_7)*%
X121040000Y-81540000D03*
%TO.N,Net-(J1-Pin_20)*%
X117500000Y-84100000D03*
X65250000Y-110900000D03*
%TO.N,Net-(J1-Pin_11)*%
X126700000Y-84350000D03*
%TO.N,Net-(J1-Pin_12)*%
X124610000Y-82570000D03*
%TO.N,Net-(J1-Pin_13)*%
X123610000Y-82560000D03*
%TO.N,Net-(J1-Pin_14)*%
X123000000Y-86250000D03*
%TO.N,Net-(J1-Pin_15)*%
X122700000Y-82550000D03*
%TO.N,Net-(J1-Pin_16)*%
X121750000Y-82550000D03*
%TO.N,Net-(J1-Pin_17)*%
X120950000Y-82550000D03*
%TD*%
D12*
%TO.N,GND*%
X55600000Y-53550000D02*
X57900000Y-51250000D01*
X68350000Y-112650000D02*
X112650000Y-112650000D01*
X55600000Y-110950000D02*
X55600000Y-67500000D01*
X148050000Y-50050000D02*
X148050000Y-51250000D01*
X92850000Y-51250000D02*
X94650000Y-49450000D01*
X57000000Y-112650000D02*
X55450000Y-111100000D01*
X94650000Y-49450000D02*
X94650000Y-49300000D01*
X114500000Y-114500000D02*
X123550000Y-114500000D01*
X55600000Y-67500000D02*
X55600000Y-53550000D01*
X177900000Y-114500000D02*
X178750000Y-113650000D01*
X57900000Y-51250000D02*
X92850000Y-51250000D01*
X68350000Y-112650000D02*
X57000000Y-112650000D01*
X112650000Y-112650000D02*
X114500000Y-114500000D01*
X55450000Y-111100000D02*
X55600000Y-110950000D01*
X123550000Y-114500000D02*
X123550000Y-112650000D01*
X178750000Y-113650000D02*
X178750000Y-112650000D01*
X123550000Y-114500000D02*
X177900000Y-114500000D01*
X147300000Y-49300000D02*
X148050000Y-50050000D01*
X94650000Y-49300000D02*
X147300000Y-49300000D01*
%TO.N,Net-(J1-Pin_9)*%
X121480000Y-53150000D02*
X149250000Y-53150000D01*
X119010000Y-80670000D02*
X121030000Y-78650000D01*
X121030000Y-53600000D02*
X121480000Y-53150000D01*
X119010000Y-81530000D02*
X119010000Y-80670000D01*
X149250000Y-53150000D02*
X151150000Y-51250000D01*
X121030000Y-78650000D02*
X121030000Y-53600000D01*
%TO.N,Net-(J1-Pin_10)*%
X120580000Y-78300000D02*
X120580000Y-53590000D01*
X120580000Y-53590000D02*
X118240000Y-51250000D01*
X117780000Y-79640000D02*
X119240000Y-79640000D01*
X119240000Y-79640000D02*
X120580000Y-78300000D01*
X118240000Y-51250000D02*
X95950000Y-51250000D01*
%TO.N,Net-(J1-Pin_18)*%
X168250000Y-108950000D02*
X171950000Y-112650000D01*
X165050000Y-85050000D02*
X168250000Y-88250000D01*
X168250000Y-88250000D02*
X168250000Y-108950000D01*
X120100000Y-82400000D02*
X120100000Y-84300000D01*
X120100000Y-84300000D02*
X120850000Y-85050000D01*
X171950000Y-112650000D02*
X175650000Y-112650000D01*
X120850000Y-85050000D02*
X165050000Y-85050000D01*
%TO.N,Net-(J1-Pin_19)*%
X113900000Y-112650000D02*
X120450000Y-112650000D01*
X117900000Y-85800000D02*
X114250000Y-85800000D01*
X119000000Y-84700000D02*
X117900000Y-85800000D01*
X119000000Y-82500000D02*
X119000000Y-84700000D01*
X114250000Y-85800000D02*
X113200000Y-86850000D01*
X113200000Y-86850000D02*
X113200000Y-111950000D01*
X113200000Y-111950000D02*
X113900000Y-112650000D01*
%TO.N,Net-(J1-Pin_20)*%
X76700000Y-86350000D02*
X76700000Y-109600000D01*
X75400000Y-110900000D02*
X65250000Y-110900000D01*
X76700000Y-109600000D02*
X75400000Y-110900000D01*
X117500000Y-84100000D02*
X78950000Y-84100000D01*
X78950000Y-84100000D02*
X76700000Y-86350000D01*
%TD*%
M02*
