%TF.GenerationSoftware,KiCad,Pcbnew,7.0.11-rc3*%
%TF.CreationDate,2025-12-05T17:25:17+08:00*%
%TF.ProjectId,seg_pcb_1,7365675f-7063-4625-9f31-2e6b69636164,rev?*%
%TF.SameCoordinates,Original*%
%TF.FileFunction,Legend,Top*%
%TF.FilePolarity,Positive*%
%FSLAX46Y46*%
G04 Gerber Fmt 4.6, Leading zero omitted, Abs format (unit mm)*
G04 Created by KiCad (PCBNEW 7.0.11-rc3) date 2025-12-05 17:25:17*
%MOMM*%
%LPD*%
G01*
G04 APERTURE LIST*
%ADD10C,0.300000*%
%ADD11C,1.000000*%
%ADD12C,0.100000*%
%ADD13C,0.150000*%
%ADD14C,0.152400*%
%ADD15C,0.120000*%
G04 APERTURE END LIST*
D10*
X140240225Y-82735828D02*
X139383082Y-82735828D01*
X139811653Y-82735828D02*
X139811653Y-81235828D01*
X139811653Y-81235828D02*
X139668796Y-81450114D01*
X139668796Y-81450114D02*
X139525939Y-81592971D01*
X139525939Y-81592971D02*
X139383082Y-81664400D01*
X141525939Y-81735828D02*
X141525939Y-82735828D01*
X141168796Y-81164400D02*
X140811653Y-82235828D01*
X140811653Y-82235828D02*
X141740224Y-82235828D01*
X142240224Y-82664400D02*
X142454510Y-82735828D01*
X142454510Y-82735828D02*
X142811652Y-82735828D01*
X142811652Y-82735828D02*
X142954510Y-82664400D01*
X142954510Y-82664400D02*
X143025938Y-82592971D01*
X143025938Y-82592971D02*
X143097367Y-82450114D01*
X143097367Y-82450114D02*
X143097367Y-82307257D01*
X143097367Y-82307257D02*
X143025938Y-82164400D01*
X143025938Y-82164400D02*
X142954510Y-82092971D01*
X142954510Y-82092971D02*
X142811652Y-82021542D01*
X142811652Y-82021542D02*
X142525938Y-81950114D01*
X142525938Y-81950114D02*
X142383081Y-81878685D01*
X142383081Y-81878685D02*
X142311652Y-81807257D01*
X142311652Y-81807257D02*
X142240224Y-81664400D01*
X142240224Y-81664400D02*
X142240224Y-81521542D01*
X142240224Y-81521542D02*
X142311652Y-81378685D01*
X142311652Y-81378685D02*
X142383081Y-81307257D01*
X142383081Y-81307257D02*
X142525938Y-81235828D01*
X142525938Y-81235828D02*
X142883081Y-81235828D01*
X142883081Y-81235828D02*
X143097367Y-81307257D01*
X144668795Y-81235828D02*
X145168795Y-82735828D01*
X145168795Y-82735828D02*
X145668795Y-81235828D01*
X146383080Y-82735828D02*
X146240223Y-82664400D01*
X146240223Y-82664400D02*
X146168794Y-82592971D01*
X146168794Y-82592971D02*
X146097366Y-82450114D01*
X146097366Y-82450114D02*
X146097366Y-82021542D01*
X146097366Y-82021542D02*
X146168794Y-81878685D01*
X146168794Y-81878685D02*
X146240223Y-81807257D01*
X146240223Y-81807257D02*
X146383080Y-81735828D01*
X146383080Y-81735828D02*
X146597366Y-81735828D01*
X146597366Y-81735828D02*
X146740223Y-81807257D01*
X146740223Y-81807257D02*
X146811652Y-81878685D01*
X146811652Y-81878685D02*
X146883080Y-82021542D01*
X146883080Y-82021542D02*
X146883080Y-82450114D01*
X146883080Y-82450114D02*
X146811652Y-82592971D01*
X146811652Y-82592971D02*
X146740223Y-82664400D01*
X146740223Y-82664400D02*
X146597366Y-82735828D01*
X146597366Y-82735828D02*
X146383080Y-82735828D01*
X147740223Y-82735828D02*
X147597366Y-82664400D01*
X147597366Y-82664400D02*
X147525937Y-82521542D01*
X147525937Y-82521542D02*
X147525937Y-81235828D01*
X148097366Y-81735828D02*
X148668794Y-81735828D01*
X148311651Y-81235828D02*
X148311651Y-82521542D01*
X148311651Y-82521542D02*
X148383080Y-82664400D01*
X148383080Y-82664400D02*
X148525937Y-82735828D01*
X148525937Y-82735828D02*
X148668794Y-82735828D01*
X149811652Y-82735828D02*
X149811652Y-81950114D01*
X149811652Y-81950114D02*
X149740223Y-81807257D01*
X149740223Y-81807257D02*
X149597366Y-81735828D01*
X149597366Y-81735828D02*
X149311652Y-81735828D01*
X149311652Y-81735828D02*
X149168794Y-81807257D01*
X149811652Y-82664400D02*
X149668794Y-82735828D01*
X149668794Y-82735828D02*
X149311652Y-82735828D01*
X149311652Y-82735828D02*
X149168794Y-82664400D01*
X149168794Y-82664400D02*
X149097366Y-82521542D01*
X149097366Y-82521542D02*
X149097366Y-82378685D01*
X149097366Y-82378685D02*
X149168794Y-82235828D01*
X149168794Y-82235828D02*
X149311652Y-82164400D01*
X149311652Y-82164400D02*
X149668794Y-82164400D01*
X149668794Y-82164400D02*
X149811652Y-82092971D01*
X151168795Y-81735828D02*
X151168795Y-82950114D01*
X151168795Y-82950114D02*
X151097366Y-83092971D01*
X151097366Y-83092971D02*
X151025937Y-83164400D01*
X151025937Y-83164400D02*
X150883080Y-83235828D01*
X150883080Y-83235828D02*
X150668795Y-83235828D01*
X150668795Y-83235828D02*
X150525937Y-83164400D01*
X151168795Y-82664400D02*
X151025937Y-82735828D01*
X151025937Y-82735828D02*
X150740223Y-82735828D01*
X150740223Y-82735828D02*
X150597366Y-82664400D01*
X150597366Y-82664400D02*
X150525937Y-82592971D01*
X150525937Y-82592971D02*
X150454509Y-82450114D01*
X150454509Y-82450114D02*
X150454509Y-82021542D01*
X150454509Y-82021542D02*
X150525937Y-81878685D01*
X150525937Y-81878685D02*
X150597366Y-81807257D01*
X150597366Y-81807257D02*
X150740223Y-81735828D01*
X150740223Y-81735828D02*
X151025937Y-81735828D01*
X151025937Y-81735828D02*
X151168795Y-81807257D01*
X152454509Y-82664400D02*
X152311652Y-82735828D01*
X152311652Y-82735828D02*
X152025938Y-82735828D01*
X152025938Y-82735828D02*
X151883080Y-82664400D01*
X151883080Y-82664400D02*
X151811652Y-82521542D01*
X151811652Y-82521542D02*
X151811652Y-81950114D01*
X151811652Y-81950114D02*
X151883080Y-81807257D01*
X151883080Y-81807257D02*
X152025938Y-81735828D01*
X152025938Y-81735828D02*
X152311652Y-81735828D01*
X152311652Y-81735828D02*
X152454509Y-81807257D01*
X152454509Y-81807257D02*
X152525938Y-81950114D01*
X152525938Y-81950114D02*
X152525938Y-82092971D01*
X152525938Y-82092971D02*
X151811652Y-82235828D01*
X154097366Y-81235828D02*
X154954509Y-81235828D01*
X154525937Y-82735828D02*
X154525937Y-81235828D01*
X156097366Y-82735828D02*
X156097366Y-81950114D01*
X156097366Y-81950114D02*
X156025937Y-81807257D01*
X156025937Y-81807257D02*
X155883080Y-81735828D01*
X155883080Y-81735828D02*
X155597366Y-81735828D01*
X155597366Y-81735828D02*
X155454508Y-81807257D01*
X156097366Y-82664400D02*
X155954508Y-82735828D01*
X155954508Y-82735828D02*
X155597366Y-82735828D01*
X155597366Y-82735828D02*
X155454508Y-82664400D01*
X155454508Y-82664400D02*
X155383080Y-82521542D01*
X155383080Y-82521542D02*
X155383080Y-82378685D01*
X155383080Y-82378685D02*
X155454508Y-82235828D01*
X155454508Y-82235828D02*
X155597366Y-82164400D01*
X155597366Y-82164400D02*
X155954508Y-82164400D01*
X155954508Y-82164400D02*
X156097366Y-82092971D01*
X156811651Y-81735828D02*
X156811651Y-83235828D01*
X156811651Y-81807257D02*
X156954509Y-81735828D01*
X156954509Y-81735828D02*
X157240223Y-81735828D01*
X157240223Y-81735828D02*
X157383080Y-81807257D01*
X157383080Y-81807257D02*
X157454509Y-81878685D01*
X157454509Y-81878685D02*
X157525937Y-82021542D01*
X157525937Y-82021542D02*
X157525937Y-82450114D01*
X157525937Y-82450114D02*
X157454509Y-82592971D01*
X157454509Y-82592971D02*
X157383080Y-82664400D01*
X157383080Y-82664400D02*
X157240223Y-82735828D01*
X157240223Y-82735828D02*
X156954509Y-82735828D01*
X156954509Y-82735828D02*
X156811651Y-82664400D01*
X139311653Y-84150828D02*
X139668796Y-85150828D01*
X139668796Y-85150828D02*
X140025939Y-84150828D01*
X141383082Y-85150828D02*
X140525939Y-85150828D01*
X140954510Y-85150828D02*
X140954510Y-83650828D01*
X140954510Y-83650828D02*
X140811653Y-83865114D01*
X140811653Y-83865114D02*
X140668796Y-84007971D01*
X140668796Y-84007971D02*
X140525939Y-84079400D01*
X142025938Y-85007971D02*
X142097367Y-85079400D01*
X142097367Y-85079400D02*
X142025938Y-85150828D01*
X142025938Y-85150828D02*
X141954510Y-85079400D01*
X141954510Y-85079400D02*
X142025938Y-85007971D01*
X142025938Y-85007971D02*
X142025938Y-85150828D01*
X143025939Y-83650828D02*
X143168796Y-83650828D01*
X143168796Y-83650828D02*
X143311653Y-83722257D01*
X143311653Y-83722257D02*
X143383082Y-83793685D01*
X143383082Y-83793685D02*
X143454510Y-83936542D01*
X143454510Y-83936542D02*
X143525939Y-84222257D01*
X143525939Y-84222257D02*
X143525939Y-84579400D01*
X143525939Y-84579400D02*
X143454510Y-84865114D01*
X143454510Y-84865114D02*
X143383082Y-85007971D01*
X143383082Y-85007971D02*
X143311653Y-85079400D01*
X143311653Y-85079400D02*
X143168796Y-85150828D01*
X143168796Y-85150828D02*
X143025939Y-85150828D01*
X143025939Y-85150828D02*
X142883082Y-85079400D01*
X142883082Y-85079400D02*
X142811653Y-85007971D01*
X142811653Y-85007971D02*
X142740224Y-84865114D01*
X142740224Y-84865114D02*
X142668796Y-84579400D01*
X142668796Y-84579400D02*
X142668796Y-84222257D01*
X142668796Y-84222257D02*
X142740224Y-83936542D01*
X142740224Y-83936542D02*
X142811653Y-83793685D01*
X142811653Y-83793685D02*
X142883082Y-83722257D01*
X142883082Y-83722257D02*
X143025939Y-83650828D01*
X145240224Y-83793685D02*
X145311652Y-83722257D01*
X145311652Y-83722257D02*
X145454510Y-83650828D01*
X145454510Y-83650828D02*
X145811652Y-83650828D01*
X145811652Y-83650828D02*
X145954510Y-83722257D01*
X145954510Y-83722257D02*
X146025938Y-83793685D01*
X146025938Y-83793685D02*
X146097367Y-83936542D01*
X146097367Y-83936542D02*
X146097367Y-84079400D01*
X146097367Y-84079400D02*
X146025938Y-84293685D01*
X146025938Y-84293685D02*
X145168795Y-85150828D01*
X145168795Y-85150828D02*
X146097367Y-85150828D01*
X147025938Y-83650828D02*
X147168795Y-83650828D01*
X147168795Y-83650828D02*
X147311652Y-83722257D01*
X147311652Y-83722257D02*
X147383081Y-83793685D01*
X147383081Y-83793685D02*
X147454509Y-83936542D01*
X147454509Y-83936542D02*
X147525938Y-84222257D01*
X147525938Y-84222257D02*
X147525938Y-84579400D01*
X147525938Y-84579400D02*
X147454509Y-84865114D01*
X147454509Y-84865114D02*
X147383081Y-85007971D01*
X147383081Y-85007971D02*
X147311652Y-85079400D01*
X147311652Y-85079400D02*
X147168795Y-85150828D01*
X147168795Y-85150828D02*
X147025938Y-85150828D01*
X147025938Y-85150828D02*
X146883081Y-85079400D01*
X146883081Y-85079400D02*
X146811652Y-85007971D01*
X146811652Y-85007971D02*
X146740223Y-84865114D01*
X146740223Y-84865114D02*
X146668795Y-84579400D01*
X146668795Y-84579400D02*
X146668795Y-84222257D01*
X146668795Y-84222257D02*
X146740223Y-83936542D01*
X146740223Y-83936542D02*
X146811652Y-83793685D01*
X146811652Y-83793685D02*
X146883081Y-83722257D01*
X146883081Y-83722257D02*
X147025938Y-83650828D01*
X148097366Y-83793685D02*
X148168794Y-83722257D01*
X148168794Y-83722257D02*
X148311652Y-83650828D01*
X148311652Y-83650828D02*
X148668794Y-83650828D01*
X148668794Y-83650828D02*
X148811652Y-83722257D01*
X148811652Y-83722257D02*
X148883080Y-83793685D01*
X148883080Y-83793685D02*
X148954509Y-83936542D01*
X148954509Y-83936542D02*
X148954509Y-84079400D01*
X148954509Y-84079400D02*
X148883080Y-84293685D01*
X148883080Y-84293685D02*
X148025937Y-85150828D01*
X148025937Y-85150828D02*
X148954509Y-85150828D01*
X150311651Y-83650828D02*
X149597365Y-83650828D01*
X149597365Y-83650828D02*
X149525937Y-84365114D01*
X149525937Y-84365114D02*
X149597365Y-84293685D01*
X149597365Y-84293685D02*
X149740223Y-84222257D01*
X149740223Y-84222257D02*
X150097365Y-84222257D01*
X150097365Y-84222257D02*
X150240223Y-84293685D01*
X150240223Y-84293685D02*
X150311651Y-84365114D01*
X150311651Y-84365114D02*
X150383080Y-84507971D01*
X150383080Y-84507971D02*
X150383080Y-84865114D01*
X150383080Y-84865114D02*
X150311651Y-85007971D01*
X150311651Y-85007971D02*
X150240223Y-85079400D01*
X150240223Y-85079400D02*
X150097365Y-85150828D01*
X150097365Y-85150828D02*
X149740223Y-85150828D01*
X149740223Y-85150828D02*
X149597365Y-85079400D01*
X149597365Y-85079400D02*
X149525937Y-85007971D01*
X152097365Y-83579400D02*
X150811651Y-85507971D01*
X153383080Y-85150828D02*
X152525937Y-85150828D01*
X152954508Y-85150828D02*
X152954508Y-83650828D01*
X152954508Y-83650828D02*
X152811651Y-83865114D01*
X152811651Y-83865114D02*
X152668794Y-84007971D01*
X152668794Y-84007971D02*
X152525937Y-84079400D01*
X153954508Y-83793685D02*
X154025936Y-83722257D01*
X154025936Y-83722257D02*
X154168794Y-83650828D01*
X154168794Y-83650828D02*
X154525936Y-83650828D01*
X154525936Y-83650828D02*
X154668794Y-83722257D01*
X154668794Y-83722257D02*
X154740222Y-83793685D01*
X154740222Y-83793685D02*
X154811651Y-83936542D01*
X154811651Y-83936542D02*
X154811651Y-84079400D01*
X154811651Y-84079400D02*
X154740222Y-84293685D01*
X154740222Y-84293685D02*
X153883079Y-85150828D01*
X153883079Y-85150828D02*
X154811651Y-85150828D01*
X156525936Y-83579400D02*
X155240222Y-85507971D01*
X157311651Y-83650828D02*
X157454508Y-83650828D01*
X157454508Y-83650828D02*
X157597365Y-83722257D01*
X157597365Y-83722257D02*
X157668794Y-83793685D01*
X157668794Y-83793685D02*
X157740222Y-83936542D01*
X157740222Y-83936542D02*
X157811651Y-84222257D01*
X157811651Y-84222257D02*
X157811651Y-84579400D01*
X157811651Y-84579400D02*
X157740222Y-84865114D01*
X157740222Y-84865114D02*
X157668794Y-85007971D01*
X157668794Y-85007971D02*
X157597365Y-85079400D01*
X157597365Y-85079400D02*
X157454508Y-85150828D01*
X157454508Y-85150828D02*
X157311651Y-85150828D01*
X157311651Y-85150828D02*
X157168794Y-85079400D01*
X157168794Y-85079400D02*
X157097365Y-85007971D01*
X157097365Y-85007971D02*
X157025936Y-84865114D01*
X157025936Y-84865114D02*
X156954508Y-84579400D01*
X156954508Y-84579400D02*
X156954508Y-84222257D01*
X156954508Y-84222257D02*
X157025936Y-83936542D01*
X157025936Y-83936542D02*
X157097365Y-83793685D01*
X157097365Y-83793685D02*
X157168794Y-83722257D01*
X157168794Y-83722257D02*
X157311651Y-83650828D01*
X159168793Y-83650828D02*
X158454507Y-83650828D01*
X158454507Y-83650828D02*
X158383079Y-84365114D01*
X158383079Y-84365114D02*
X158454507Y-84293685D01*
X158454507Y-84293685D02*
X158597365Y-84222257D01*
X158597365Y-84222257D02*
X158954507Y-84222257D01*
X158954507Y-84222257D02*
X159097365Y-84293685D01*
X159097365Y-84293685D02*
X159168793Y-84365114D01*
X159168793Y-84365114D02*
X159240222Y-84507971D01*
X159240222Y-84507971D02*
X159240222Y-84865114D01*
X159240222Y-84865114D02*
X159168793Y-85007971D01*
X159168793Y-85007971D02*
X159097365Y-85079400D01*
X159097365Y-85079400D02*
X158954507Y-85150828D01*
X158954507Y-85150828D02*
X158597365Y-85150828D01*
X158597365Y-85150828D02*
X158454507Y-85079400D01*
X158454507Y-85079400D02*
X158383079Y-85007971D01*
D11*
X186445238Y-78206333D02*
X190254762Y-78206333D01*
X188350000Y-80111095D02*
X188350000Y-76301571D01*
D12*
X93138095Y-58257419D02*
X93709523Y-58257419D01*
X93423809Y-59257419D02*
X93423809Y-58257419D01*
X94042857Y-59257419D02*
X94042857Y-58257419D01*
X94042857Y-58257419D02*
X94423809Y-58257419D01*
X94423809Y-58257419D02*
X94519047Y-58305038D01*
X94519047Y-58305038D02*
X94566666Y-58352657D01*
X94566666Y-58352657D02*
X94614285Y-58447895D01*
X94614285Y-58447895D02*
X94614285Y-58590752D01*
X94614285Y-58590752D02*
X94566666Y-58685990D01*
X94566666Y-58685990D02*
X94519047Y-58733609D01*
X94519047Y-58733609D02*
X94423809Y-58781228D01*
X94423809Y-58781228D02*
X94042857Y-58781228D01*
X95471428Y-58590752D02*
X95471428Y-59257419D01*
X95233333Y-58209800D02*
X94995238Y-58924085D01*
X94995238Y-58924085D02*
X95614285Y-58924085D01*
X102338095Y-107207419D02*
X102909523Y-107207419D01*
X102623809Y-108207419D02*
X102623809Y-107207419D01*
X103242857Y-108207419D02*
X103242857Y-107207419D01*
X103242857Y-107207419D02*
X103623809Y-107207419D01*
X103623809Y-107207419D02*
X103719047Y-107255038D01*
X103719047Y-107255038D02*
X103766666Y-107302657D01*
X103766666Y-107302657D02*
X103814285Y-107397895D01*
X103814285Y-107397895D02*
X103814285Y-107540752D01*
X103814285Y-107540752D02*
X103766666Y-107635990D01*
X103766666Y-107635990D02*
X103719047Y-107683609D01*
X103719047Y-107683609D02*
X103623809Y-107731228D01*
X103623809Y-107731228D02*
X103242857Y-107731228D01*
X104719047Y-107207419D02*
X104242857Y-107207419D01*
X104242857Y-107207419D02*
X104195238Y-107683609D01*
X104195238Y-107683609D02*
X104242857Y-107635990D01*
X104242857Y-107635990D02*
X104338095Y-107588371D01*
X104338095Y-107588371D02*
X104576190Y-107588371D01*
X104576190Y-107588371D02*
X104671428Y-107635990D01*
X104671428Y-107635990D02*
X104719047Y-107683609D01*
X104719047Y-107683609D02*
X104766666Y-107778847D01*
X104766666Y-107778847D02*
X104766666Y-108016942D01*
X104766666Y-108016942D02*
X104719047Y-108112180D01*
X104719047Y-108112180D02*
X104671428Y-108159800D01*
X104671428Y-108159800D02*
X104576190Y-108207419D01*
X104576190Y-108207419D02*
X104338095Y-108207419D01*
X104338095Y-108207419D02*
X104242857Y-108159800D01*
X104242857Y-108159800D02*
X104195238Y-108112180D01*
D13*
X129900016Y-84129818D02*
X129900016Y-84844103D01*
X129900016Y-84844103D02*
X129852397Y-84986960D01*
X129852397Y-84986960D02*
X129757159Y-85082199D01*
X129757159Y-85082199D02*
X129614302Y-85129818D01*
X129614302Y-85129818D02*
X129519064Y-85129818D01*
X130900016Y-85129818D02*
X130328588Y-85129818D01*
X130614302Y-85129818D02*
X130614302Y-84129818D01*
X130614302Y-84129818D02*
X130519064Y-84272675D01*
X130519064Y-84272675D02*
X130423826Y-84367913D01*
X130423826Y-84367913D02*
X130328588Y-84415532D01*
D12*
X157061905Y-107207419D02*
X157633333Y-107207419D01*
X157347619Y-108207419D02*
X157347619Y-107207419D01*
X157966667Y-108207419D02*
X157966667Y-107207419D01*
X157966667Y-107207419D02*
X158347619Y-107207419D01*
X158347619Y-107207419D02*
X158442857Y-107255038D01*
X158442857Y-107255038D02*
X158490476Y-107302657D01*
X158490476Y-107302657D02*
X158538095Y-107397895D01*
X158538095Y-107397895D02*
X158538095Y-107540752D01*
X158538095Y-107540752D02*
X158490476Y-107635990D01*
X158490476Y-107635990D02*
X158442857Y-107683609D01*
X158442857Y-107683609D02*
X158347619Y-107731228D01*
X158347619Y-107731228D02*
X157966667Y-107731228D01*
X159490476Y-108207419D02*
X158919048Y-108207419D01*
X159204762Y-108207419D02*
X159204762Y-107207419D01*
X159204762Y-107207419D02*
X159109524Y-107350276D01*
X159109524Y-107350276D02*
X159014286Y-107445514D01*
X159014286Y-107445514D02*
X158919048Y-107493133D01*
X160442857Y-108207419D02*
X159871429Y-108207419D01*
X160157143Y-108207419D02*
X160157143Y-107207419D01*
X160157143Y-107207419D02*
X160061905Y-107350276D01*
X160061905Y-107350276D02*
X159966667Y-107445514D01*
X159966667Y-107445514D02*
X159871429Y-107493133D01*
D13*
X177033333Y-111284819D02*
X176700000Y-110808628D01*
X176461905Y-111284819D02*
X176461905Y-110284819D01*
X176461905Y-110284819D02*
X176842857Y-110284819D01*
X176842857Y-110284819D02*
X176938095Y-110332438D01*
X176938095Y-110332438D02*
X176985714Y-110380057D01*
X176985714Y-110380057D02*
X177033333Y-110475295D01*
X177033333Y-110475295D02*
X177033333Y-110618152D01*
X177033333Y-110618152D02*
X176985714Y-110713390D01*
X176985714Y-110713390D02*
X176938095Y-110761009D01*
X176938095Y-110761009D02*
X176842857Y-110808628D01*
X176842857Y-110808628D02*
X176461905Y-110808628D01*
X177985714Y-111284819D02*
X177414286Y-111284819D01*
X177700000Y-111284819D02*
X177700000Y-110284819D01*
X177700000Y-110284819D02*
X177604762Y-110427676D01*
X177604762Y-110427676D02*
X177509524Y-110522914D01*
X177509524Y-110522914D02*
X177414286Y-110570533D01*
D12*
X166261905Y-58257419D02*
X166833333Y-58257419D01*
X166547619Y-59257419D02*
X166547619Y-58257419D01*
X167166667Y-59257419D02*
X167166667Y-58257419D01*
X167166667Y-58257419D02*
X167547619Y-58257419D01*
X167547619Y-58257419D02*
X167642857Y-58305038D01*
X167642857Y-58305038D02*
X167690476Y-58352657D01*
X167690476Y-58352657D02*
X167738095Y-58447895D01*
X167738095Y-58447895D02*
X167738095Y-58590752D01*
X167738095Y-58590752D02*
X167690476Y-58685990D01*
X167690476Y-58685990D02*
X167642857Y-58733609D01*
X167642857Y-58733609D02*
X167547619Y-58781228D01*
X167547619Y-58781228D02*
X167166667Y-58781228D01*
X168690476Y-59257419D02*
X168119048Y-59257419D01*
X168404762Y-59257419D02*
X168404762Y-58257419D01*
X168404762Y-58257419D02*
X168309524Y-58400276D01*
X168309524Y-58400276D02*
X168214286Y-58495514D01*
X168214286Y-58495514D02*
X168119048Y-58543133D01*
X169071429Y-58352657D02*
X169119048Y-58305038D01*
X169119048Y-58305038D02*
X169214286Y-58257419D01*
X169214286Y-58257419D02*
X169452381Y-58257419D01*
X169452381Y-58257419D02*
X169547619Y-58305038D01*
X169547619Y-58305038D02*
X169595238Y-58352657D01*
X169595238Y-58352657D02*
X169642857Y-58447895D01*
X169642857Y-58447895D02*
X169642857Y-58543133D01*
X169642857Y-58543133D02*
X169595238Y-58685990D01*
X169595238Y-58685990D02*
X169023810Y-59257419D01*
X169023810Y-59257419D02*
X169642857Y-59257419D01*
X147861905Y-58257419D02*
X148433333Y-58257419D01*
X148147619Y-59257419D02*
X148147619Y-58257419D01*
X148766667Y-59257419D02*
X148766667Y-58257419D01*
X148766667Y-58257419D02*
X149147619Y-58257419D01*
X149147619Y-58257419D02*
X149242857Y-58305038D01*
X149242857Y-58305038D02*
X149290476Y-58352657D01*
X149290476Y-58352657D02*
X149338095Y-58447895D01*
X149338095Y-58447895D02*
X149338095Y-58590752D01*
X149338095Y-58590752D02*
X149290476Y-58685990D01*
X149290476Y-58685990D02*
X149242857Y-58733609D01*
X149242857Y-58733609D02*
X149147619Y-58781228D01*
X149147619Y-58781228D02*
X148766667Y-58781228D01*
X150290476Y-59257419D02*
X149719048Y-59257419D01*
X150004762Y-59257419D02*
X150004762Y-58257419D01*
X150004762Y-58257419D02*
X149909524Y-58400276D01*
X149909524Y-58400276D02*
X149814286Y-58495514D01*
X149814286Y-58495514D02*
X149719048Y-58543133D01*
X150909524Y-58257419D02*
X151004762Y-58257419D01*
X151004762Y-58257419D02*
X151100000Y-58305038D01*
X151100000Y-58305038D02*
X151147619Y-58352657D01*
X151147619Y-58352657D02*
X151195238Y-58447895D01*
X151195238Y-58447895D02*
X151242857Y-58638371D01*
X151242857Y-58638371D02*
X151242857Y-58876466D01*
X151242857Y-58876466D02*
X151195238Y-59066942D01*
X151195238Y-59066942D02*
X151147619Y-59162180D01*
X151147619Y-59162180D02*
X151100000Y-59209800D01*
X151100000Y-59209800D02*
X151004762Y-59257419D01*
X151004762Y-59257419D02*
X150909524Y-59257419D01*
X150909524Y-59257419D02*
X150814286Y-59209800D01*
X150814286Y-59209800D02*
X150766667Y-59162180D01*
X150766667Y-59162180D02*
X150719048Y-59066942D01*
X150719048Y-59066942D02*
X150671429Y-58876466D01*
X150671429Y-58876466D02*
X150671429Y-58638371D01*
X150671429Y-58638371D02*
X150719048Y-58447895D01*
X150719048Y-58447895D02*
X150766667Y-58352657D01*
X150766667Y-58352657D02*
X150814286Y-58305038D01*
X150814286Y-58305038D02*
X150909524Y-58257419D01*
X139138095Y-107207419D02*
X139709523Y-107207419D01*
X139423809Y-108207419D02*
X139423809Y-107207419D01*
X140042857Y-108207419D02*
X140042857Y-107207419D01*
X140042857Y-107207419D02*
X140423809Y-107207419D01*
X140423809Y-107207419D02*
X140519047Y-107255038D01*
X140519047Y-107255038D02*
X140566666Y-107302657D01*
X140566666Y-107302657D02*
X140614285Y-107397895D01*
X140614285Y-107397895D02*
X140614285Y-107540752D01*
X140614285Y-107540752D02*
X140566666Y-107635990D01*
X140566666Y-107635990D02*
X140519047Y-107683609D01*
X140519047Y-107683609D02*
X140423809Y-107731228D01*
X140423809Y-107731228D02*
X140042857Y-107731228D01*
X141090476Y-108207419D02*
X141280952Y-108207419D01*
X141280952Y-108207419D02*
X141376190Y-108159800D01*
X141376190Y-108159800D02*
X141423809Y-108112180D01*
X141423809Y-108112180D02*
X141519047Y-107969323D01*
X141519047Y-107969323D02*
X141566666Y-107778847D01*
X141566666Y-107778847D02*
X141566666Y-107397895D01*
X141566666Y-107397895D02*
X141519047Y-107302657D01*
X141519047Y-107302657D02*
X141471428Y-107255038D01*
X141471428Y-107255038D02*
X141376190Y-107207419D01*
X141376190Y-107207419D02*
X141185714Y-107207419D01*
X141185714Y-107207419D02*
X141090476Y-107255038D01*
X141090476Y-107255038D02*
X141042857Y-107302657D01*
X141042857Y-107302657D02*
X140995238Y-107397895D01*
X140995238Y-107397895D02*
X140995238Y-107635990D01*
X140995238Y-107635990D02*
X141042857Y-107731228D01*
X141042857Y-107731228D02*
X141090476Y-107778847D01*
X141090476Y-107778847D02*
X141185714Y-107826466D01*
X141185714Y-107826466D02*
X141376190Y-107826466D01*
X141376190Y-107826466D02*
X141471428Y-107778847D01*
X141471428Y-107778847D02*
X141519047Y-107731228D01*
X141519047Y-107731228D02*
X141566666Y-107635990D01*
X65538095Y-104507419D02*
X66109523Y-104507419D01*
X65823809Y-105507419D02*
X65823809Y-104507419D01*
X66442857Y-105507419D02*
X66442857Y-104507419D01*
X66442857Y-104507419D02*
X66823809Y-104507419D01*
X66823809Y-104507419D02*
X66919047Y-104555038D01*
X66919047Y-104555038D02*
X66966666Y-104602657D01*
X66966666Y-104602657D02*
X67014285Y-104697895D01*
X67014285Y-104697895D02*
X67014285Y-104840752D01*
X67014285Y-104840752D02*
X66966666Y-104935990D01*
X66966666Y-104935990D02*
X66919047Y-104983609D01*
X66919047Y-104983609D02*
X66823809Y-105031228D01*
X66823809Y-105031228D02*
X66442857Y-105031228D01*
X67966666Y-105507419D02*
X67395238Y-105507419D01*
X67680952Y-105507419D02*
X67680952Y-104507419D01*
X67680952Y-104507419D02*
X67585714Y-104650276D01*
X67585714Y-104650276D02*
X67490476Y-104745514D01*
X67490476Y-104745514D02*
X67395238Y-104793133D01*
D13*
X94233333Y-49884819D02*
X93900000Y-49408628D01*
X93661905Y-49884819D02*
X93661905Y-48884819D01*
X93661905Y-48884819D02*
X94042857Y-48884819D01*
X94042857Y-48884819D02*
X94138095Y-48932438D01*
X94138095Y-48932438D02*
X94185714Y-48980057D01*
X94185714Y-48980057D02*
X94233333Y-49075295D01*
X94233333Y-49075295D02*
X94233333Y-49218152D01*
X94233333Y-49218152D02*
X94185714Y-49313390D01*
X94185714Y-49313390D02*
X94138095Y-49361009D01*
X94138095Y-49361009D02*
X94042857Y-49408628D01*
X94042857Y-49408628D02*
X93661905Y-49408628D01*
X95138095Y-48884819D02*
X94661905Y-48884819D01*
X94661905Y-48884819D02*
X94614286Y-49361009D01*
X94614286Y-49361009D02*
X94661905Y-49313390D01*
X94661905Y-49313390D02*
X94757143Y-49265771D01*
X94757143Y-49265771D02*
X94995238Y-49265771D01*
X94995238Y-49265771D02*
X95090476Y-49313390D01*
X95090476Y-49313390D02*
X95138095Y-49361009D01*
X95138095Y-49361009D02*
X95185714Y-49456247D01*
X95185714Y-49456247D02*
X95185714Y-49694342D01*
X95185714Y-49694342D02*
X95138095Y-49789580D01*
X95138095Y-49789580D02*
X95090476Y-49837200D01*
X95090476Y-49837200D02*
X94995238Y-49884819D01*
X94995238Y-49884819D02*
X94757143Y-49884819D01*
X94757143Y-49884819D02*
X94661905Y-49837200D01*
X94661905Y-49837200D02*
X94614286Y-49789580D01*
X121833333Y-111284819D02*
X121500000Y-110808628D01*
X121261905Y-111284819D02*
X121261905Y-110284819D01*
X121261905Y-110284819D02*
X121642857Y-110284819D01*
X121642857Y-110284819D02*
X121738095Y-110332438D01*
X121738095Y-110332438D02*
X121785714Y-110380057D01*
X121785714Y-110380057D02*
X121833333Y-110475295D01*
X121833333Y-110475295D02*
X121833333Y-110618152D01*
X121833333Y-110618152D02*
X121785714Y-110713390D01*
X121785714Y-110713390D02*
X121738095Y-110761009D01*
X121738095Y-110761009D02*
X121642857Y-110808628D01*
X121642857Y-110808628D02*
X121261905Y-110808628D01*
X122214286Y-110380057D02*
X122261905Y-110332438D01*
X122261905Y-110332438D02*
X122357143Y-110284819D01*
X122357143Y-110284819D02*
X122595238Y-110284819D01*
X122595238Y-110284819D02*
X122690476Y-110332438D01*
X122690476Y-110332438D02*
X122738095Y-110380057D01*
X122738095Y-110380057D02*
X122785714Y-110475295D01*
X122785714Y-110475295D02*
X122785714Y-110570533D01*
X122785714Y-110570533D02*
X122738095Y-110713390D01*
X122738095Y-110713390D02*
X122166667Y-111284819D01*
X122166667Y-111284819D02*
X122785714Y-111284819D01*
D12*
X186661905Y-58257419D02*
X187233333Y-58257419D01*
X186947619Y-59257419D02*
X186947619Y-58257419D01*
X187566667Y-59257419D02*
X187566667Y-58257419D01*
X187566667Y-58257419D02*
X187947619Y-58257419D01*
X187947619Y-58257419D02*
X188042857Y-58305038D01*
X188042857Y-58305038D02*
X188090476Y-58352657D01*
X188090476Y-58352657D02*
X188138095Y-58447895D01*
X188138095Y-58447895D02*
X188138095Y-58590752D01*
X188138095Y-58590752D02*
X188090476Y-58685990D01*
X188090476Y-58685990D02*
X188042857Y-58733609D01*
X188042857Y-58733609D02*
X187947619Y-58781228D01*
X187947619Y-58781228D02*
X187566667Y-58781228D01*
X189090476Y-59257419D02*
X188519048Y-59257419D01*
X188804762Y-59257419D02*
X188804762Y-58257419D01*
X188804762Y-58257419D02*
X188709524Y-58400276D01*
X188709524Y-58400276D02*
X188614286Y-58495514D01*
X188614286Y-58495514D02*
X188519048Y-58543133D01*
X189947619Y-58590752D02*
X189947619Y-59257419D01*
X189709524Y-58209800D02*
X189471429Y-58924085D01*
X189471429Y-58924085D02*
X190090476Y-58924085D01*
X111538095Y-58257419D02*
X112109523Y-58257419D01*
X111823809Y-59257419D02*
X111823809Y-58257419D01*
X112442857Y-59257419D02*
X112442857Y-58257419D01*
X112442857Y-58257419D02*
X112823809Y-58257419D01*
X112823809Y-58257419D02*
X112919047Y-58305038D01*
X112919047Y-58305038D02*
X112966666Y-58352657D01*
X112966666Y-58352657D02*
X113014285Y-58447895D01*
X113014285Y-58447895D02*
X113014285Y-58590752D01*
X113014285Y-58590752D02*
X112966666Y-58685990D01*
X112966666Y-58685990D02*
X112919047Y-58733609D01*
X112919047Y-58733609D02*
X112823809Y-58781228D01*
X112823809Y-58781228D02*
X112442857Y-58781228D01*
X113871428Y-58257419D02*
X113680952Y-58257419D01*
X113680952Y-58257419D02*
X113585714Y-58305038D01*
X113585714Y-58305038D02*
X113538095Y-58352657D01*
X113538095Y-58352657D02*
X113442857Y-58495514D01*
X113442857Y-58495514D02*
X113395238Y-58685990D01*
X113395238Y-58685990D02*
X113395238Y-59066942D01*
X113395238Y-59066942D02*
X113442857Y-59162180D01*
X113442857Y-59162180D02*
X113490476Y-59209800D01*
X113490476Y-59209800D02*
X113585714Y-59257419D01*
X113585714Y-59257419D02*
X113776190Y-59257419D01*
X113776190Y-59257419D02*
X113871428Y-59209800D01*
X113871428Y-59209800D02*
X113919047Y-59162180D01*
X113919047Y-59162180D02*
X113966666Y-59066942D01*
X113966666Y-59066942D02*
X113966666Y-58828847D01*
X113966666Y-58828847D02*
X113919047Y-58733609D01*
X113919047Y-58733609D02*
X113871428Y-58685990D01*
X113871428Y-58685990D02*
X113776190Y-58638371D01*
X113776190Y-58638371D02*
X113585714Y-58638371D01*
X113585714Y-58638371D02*
X113490476Y-58685990D01*
X113490476Y-58685990D02*
X113442857Y-58733609D01*
X113442857Y-58733609D02*
X113395238Y-58828847D01*
X175461905Y-107207419D02*
X176033333Y-107207419D01*
X175747619Y-108207419D02*
X175747619Y-107207419D01*
X176366667Y-108207419D02*
X176366667Y-107207419D01*
X176366667Y-107207419D02*
X176747619Y-107207419D01*
X176747619Y-107207419D02*
X176842857Y-107255038D01*
X176842857Y-107255038D02*
X176890476Y-107302657D01*
X176890476Y-107302657D02*
X176938095Y-107397895D01*
X176938095Y-107397895D02*
X176938095Y-107540752D01*
X176938095Y-107540752D02*
X176890476Y-107635990D01*
X176890476Y-107635990D02*
X176842857Y-107683609D01*
X176842857Y-107683609D02*
X176747619Y-107731228D01*
X176747619Y-107731228D02*
X176366667Y-107731228D01*
X177890476Y-108207419D02*
X177319048Y-108207419D01*
X177604762Y-108207419D02*
X177604762Y-107207419D01*
X177604762Y-107207419D02*
X177509524Y-107350276D01*
X177509524Y-107350276D02*
X177414286Y-107445514D01*
X177414286Y-107445514D02*
X177319048Y-107493133D01*
X178223810Y-107207419D02*
X178842857Y-107207419D01*
X178842857Y-107207419D02*
X178509524Y-107588371D01*
X178509524Y-107588371D02*
X178652381Y-107588371D01*
X178652381Y-107588371D02*
X178747619Y-107635990D01*
X178747619Y-107635990D02*
X178795238Y-107683609D01*
X178795238Y-107683609D02*
X178842857Y-107778847D01*
X178842857Y-107778847D02*
X178842857Y-108016942D01*
X178842857Y-108016942D02*
X178795238Y-108112180D01*
X178795238Y-108112180D02*
X178747619Y-108159800D01*
X178747619Y-108159800D02*
X178652381Y-108207419D01*
X178652381Y-108207419D02*
X178366667Y-108207419D01*
X178366667Y-108207419D02*
X178271429Y-108159800D01*
X178271429Y-108159800D02*
X178223810Y-108112180D01*
X129938095Y-58257419D02*
X130509523Y-58257419D01*
X130223809Y-59257419D02*
X130223809Y-58257419D01*
X130842857Y-59257419D02*
X130842857Y-58257419D01*
X130842857Y-58257419D02*
X131223809Y-58257419D01*
X131223809Y-58257419D02*
X131319047Y-58305038D01*
X131319047Y-58305038D02*
X131366666Y-58352657D01*
X131366666Y-58352657D02*
X131414285Y-58447895D01*
X131414285Y-58447895D02*
X131414285Y-58590752D01*
X131414285Y-58590752D02*
X131366666Y-58685990D01*
X131366666Y-58685990D02*
X131319047Y-58733609D01*
X131319047Y-58733609D02*
X131223809Y-58781228D01*
X131223809Y-58781228D02*
X130842857Y-58781228D01*
X131985714Y-58685990D02*
X131890476Y-58638371D01*
X131890476Y-58638371D02*
X131842857Y-58590752D01*
X131842857Y-58590752D02*
X131795238Y-58495514D01*
X131795238Y-58495514D02*
X131795238Y-58447895D01*
X131795238Y-58447895D02*
X131842857Y-58352657D01*
X131842857Y-58352657D02*
X131890476Y-58305038D01*
X131890476Y-58305038D02*
X131985714Y-58257419D01*
X131985714Y-58257419D02*
X132176190Y-58257419D01*
X132176190Y-58257419D02*
X132271428Y-58305038D01*
X132271428Y-58305038D02*
X132319047Y-58352657D01*
X132319047Y-58352657D02*
X132366666Y-58447895D01*
X132366666Y-58447895D02*
X132366666Y-58495514D01*
X132366666Y-58495514D02*
X132319047Y-58590752D01*
X132319047Y-58590752D02*
X132271428Y-58638371D01*
X132271428Y-58638371D02*
X132176190Y-58685990D01*
X132176190Y-58685990D02*
X131985714Y-58685990D01*
X131985714Y-58685990D02*
X131890476Y-58733609D01*
X131890476Y-58733609D02*
X131842857Y-58781228D01*
X131842857Y-58781228D02*
X131795238Y-58876466D01*
X131795238Y-58876466D02*
X131795238Y-59066942D01*
X131795238Y-59066942D02*
X131842857Y-59162180D01*
X131842857Y-59162180D02*
X131890476Y-59209800D01*
X131890476Y-59209800D02*
X131985714Y-59257419D01*
X131985714Y-59257419D02*
X132176190Y-59257419D01*
X132176190Y-59257419D02*
X132271428Y-59209800D01*
X132271428Y-59209800D02*
X132319047Y-59162180D01*
X132319047Y-59162180D02*
X132366666Y-59066942D01*
X132366666Y-59066942D02*
X132366666Y-58876466D01*
X132366666Y-58876466D02*
X132319047Y-58781228D01*
X132319047Y-58781228D02*
X132271428Y-58733609D01*
X132271428Y-58733609D02*
X132176190Y-58685990D01*
D13*
X149433333Y-49884819D02*
X149100000Y-49408628D01*
X148861905Y-49884819D02*
X148861905Y-48884819D01*
X148861905Y-48884819D02*
X149242857Y-48884819D01*
X149242857Y-48884819D02*
X149338095Y-48932438D01*
X149338095Y-48932438D02*
X149385714Y-48980057D01*
X149385714Y-48980057D02*
X149433333Y-49075295D01*
X149433333Y-49075295D02*
X149433333Y-49218152D01*
X149433333Y-49218152D02*
X149385714Y-49313390D01*
X149385714Y-49313390D02*
X149338095Y-49361009D01*
X149338095Y-49361009D02*
X149242857Y-49408628D01*
X149242857Y-49408628D02*
X148861905Y-49408628D01*
X150290476Y-49218152D02*
X150290476Y-49884819D01*
X150052381Y-48837200D02*
X149814286Y-49551485D01*
X149814286Y-49551485D02*
X150433333Y-49551485D01*
D12*
X74738095Y-58257419D02*
X75309523Y-58257419D01*
X75023809Y-59257419D02*
X75023809Y-58257419D01*
X75642857Y-59257419D02*
X75642857Y-58257419D01*
X75642857Y-58257419D02*
X76023809Y-58257419D01*
X76023809Y-58257419D02*
X76119047Y-58305038D01*
X76119047Y-58305038D02*
X76166666Y-58352657D01*
X76166666Y-58352657D02*
X76214285Y-58447895D01*
X76214285Y-58447895D02*
X76214285Y-58590752D01*
X76214285Y-58590752D02*
X76166666Y-58685990D01*
X76166666Y-58685990D02*
X76119047Y-58733609D01*
X76119047Y-58733609D02*
X76023809Y-58781228D01*
X76023809Y-58781228D02*
X75642857Y-58781228D01*
X76595238Y-58352657D02*
X76642857Y-58305038D01*
X76642857Y-58305038D02*
X76738095Y-58257419D01*
X76738095Y-58257419D02*
X76976190Y-58257419D01*
X76976190Y-58257419D02*
X77071428Y-58305038D01*
X77071428Y-58305038D02*
X77119047Y-58352657D01*
X77119047Y-58352657D02*
X77166666Y-58447895D01*
X77166666Y-58447895D02*
X77166666Y-58543133D01*
X77166666Y-58543133D02*
X77119047Y-58685990D01*
X77119047Y-58685990D02*
X76547619Y-59257419D01*
X76547619Y-59257419D02*
X77166666Y-59257419D01*
X83938095Y-107207419D02*
X84509523Y-107207419D01*
X84223809Y-108207419D02*
X84223809Y-107207419D01*
X84842857Y-108207419D02*
X84842857Y-107207419D01*
X84842857Y-107207419D02*
X85223809Y-107207419D01*
X85223809Y-107207419D02*
X85319047Y-107255038D01*
X85319047Y-107255038D02*
X85366666Y-107302657D01*
X85366666Y-107302657D02*
X85414285Y-107397895D01*
X85414285Y-107397895D02*
X85414285Y-107540752D01*
X85414285Y-107540752D02*
X85366666Y-107635990D01*
X85366666Y-107635990D02*
X85319047Y-107683609D01*
X85319047Y-107683609D02*
X85223809Y-107731228D01*
X85223809Y-107731228D02*
X84842857Y-107731228D01*
X85747619Y-107207419D02*
X86366666Y-107207419D01*
X86366666Y-107207419D02*
X86033333Y-107588371D01*
X86033333Y-107588371D02*
X86176190Y-107588371D01*
X86176190Y-107588371D02*
X86271428Y-107635990D01*
X86271428Y-107635990D02*
X86319047Y-107683609D01*
X86319047Y-107683609D02*
X86366666Y-107778847D01*
X86366666Y-107778847D02*
X86366666Y-108016942D01*
X86366666Y-108016942D02*
X86319047Y-108112180D01*
X86319047Y-108112180D02*
X86271428Y-108159800D01*
X86271428Y-108159800D02*
X86176190Y-108207419D01*
X86176190Y-108207419D02*
X85890476Y-108207419D01*
X85890476Y-108207419D02*
X85795238Y-108159800D01*
X85795238Y-108159800D02*
X85747619Y-108112180D01*
D13*
X66633333Y-111284819D02*
X66300000Y-110808628D01*
X66061905Y-111284819D02*
X66061905Y-110284819D01*
X66061905Y-110284819D02*
X66442857Y-110284819D01*
X66442857Y-110284819D02*
X66538095Y-110332438D01*
X66538095Y-110332438D02*
X66585714Y-110380057D01*
X66585714Y-110380057D02*
X66633333Y-110475295D01*
X66633333Y-110475295D02*
X66633333Y-110618152D01*
X66633333Y-110618152D02*
X66585714Y-110713390D01*
X66585714Y-110713390D02*
X66538095Y-110761009D01*
X66538095Y-110761009D02*
X66442857Y-110808628D01*
X66442857Y-110808628D02*
X66061905Y-110808628D01*
X66966667Y-110284819D02*
X67585714Y-110284819D01*
X67585714Y-110284819D02*
X67252381Y-110665771D01*
X67252381Y-110665771D02*
X67395238Y-110665771D01*
X67395238Y-110665771D02*
X67490476Y-110713390D01*
X67490476Y-110713390D02*
X67538095Y-110761009D01*
X67538095Y-110761009D02*
X67585714Y-110856247D01*
X67585714Y-110856247D02*
X67585714Y-111094342D01*
X67585714Y-111094342D02*
X67538095Y-111189580D01*
X67538095Y-111189580D02*
X67490476Y-111237200D01*
X67490476Y-111237200D02*
X67395238Y-111284819D01*
X67395238Y-111284819D02*
X67109524Y-111284819D01*
X67109524Y-111284819D02*
X67014286Y-111237200D01*
X67014286Y-111237200D02*
X66966667Y-111189580D01*
D12*
X120738095Y-107207419D02*
X121309523Y-107207419D01*
X121023809Y-108207419D02*
X121023809Y-107207419D01*
X121642857Y-108207419D02*
X121642857Y-107207419D01*
X121642857Y-107207419D02*
X122023809Y-107207419D01*
X122023809Y-107207419D02*
X122119047Y-107255038D01*
X122119047Y-107255038D02*
X122166666Y-107302657D01*
X122166666Y-107302657D02*
X122214285Y-107397895D01*
X122214285Y-107397895D02*
X122214285Y-107540752D01*
X122214285Y-107540752D02*
X122166666Y-107635990D01*
X122166666Y-107635990D02*
X122119047Y-107683609D01*
X122119047Y-107683609D02*
X122023809Y-107731228D01*
X122023809Y-107731228D02*
X121642857Y-107731228D01*
X122547619Y-107207419D02*
X123214285Y-107207419D01*
X123214285Y-107207419D02*
X122785714Y-108207419D01*
X54338095Y-58257419D02*
X54909523Y-58257419D01*
X54623809Y-59257419D02*
X54623809Y-58257419D01*
X55242857Y-59257419D02*
X55242857Y-58257419D01*
X55242857Y-58257419D02*
X55623809Y-58257419D01*
X55623809Y-58257419D02*
X55719047Y-58305038D01*
X55719047Y-58305038D02*
X55766666Y-58352657D01*
X55766666Y-58352657D02*
X55814285Y-58447895D01*
X55814285Y-58447895D02*
X55814285Y-58590752D01*
X55814285Y-58590752D02*
X55766666Y-58685990D01*
X55766666Y-58685990D02*
X55719047Y-58733609D01*
X55719047Y-58733609D02*
X55623809Y-58781228D01*
X55623809Y-58781228D02*
X55242857Y-58781228D01*
X56433333Y-58257419D02*
X56528571Y-58257419D01*
X56528571Y-58257419D02*
X56623809Y-58305038D01*
X56623809Y-58305038D02*
X56671428Y-58352657D01*
X56671428Y-58352657D02*
X56719047Y-58447895D01*
X56719047Y-58447895D02*
X56766666Y-58638371D01*
X56766666Y-58638371D02*
X56766666Y-58876466D01*
X56766666Y-58876466D02*
X56719047Y-59066942D01*
X56719047Y-59066942D02*
X56671428Y-59162180D01*
X56671428Y-59162180D02*
X56623809Y-59209800D01*
X56623809Y-59209800D02*
X56528571Y-59257419D01*
X56528571Y-59257419D02*
X56433333Y-59257419D01*
X56433333Y-59257419D02*
X56338095Y-59209800D01*
X56338095Y-59209800D02*
X56290476Y-59162180D01*
X56290476Y-59162180D02*
X56242857Y-59066942D01*
X56242857Y-59066942D02*
X56195238Y-58876466D01*
X56195238Y-58876466D02*
X56195238Y-58638371D01*
X56195238Y-58638371D02*
X56242857Y-58447895D01*
X56242857Y-58447895D02*
X56290476Y-58352657D01*
X56290476Y-58352657D02*
X56338095Y-58305038D01*
X56338095Y-58305038D02*
X56433333Y-58257419D01*
%TO.C,G\u002A\u002A\u002A*%
G36*
X141597365Y-78269671D02*
G01*
X142348766Y-78269685D01*
X142347180Y-78271146D01*
X142346789Y-78271510D01*
X142345958Y-78272292D01*
X142344694Y-78273483D01*
X142343004Y-78275077D01*
X142340896Y-78277066D01*
X142338378Y-78279444D01*
X142335456Y-78282202D01*
X142332139Y-78285334D01*
X142328435Y-78288832D01*
X142324351Y-78292690D01*
X142319894Y-78296900D01*
X142315073Y-78301455D01*
X142309894Y-78306348D01*
X142304365Y-78311571D01*
X142298495Y-78317118D01*
X142292290Y-78322981D01*
X142285759Y-78329153D01*
X142278908Y-78335627D01*
X142271746Y-78342395D01*
X142264279Y-78349451D01*
X142256517Y-78356787D01*
X142248465Y-78364396D01*
X142240133Y-78372271D01*
X142231527Y-78380405D01*
X142222655Y-78388790D01*
X142213525Y-78397419D01*
X142204144Y-78406286D01*
X142194520Y-78415382D01*
X142184660Y-78424701D01*
X142174573Y-78434236D01*
X142164265Y-78443979D01*
X142153745Y-78453923D01*
X142143019Y-78464061D01*
X142132096Y-78474385D01*
X142120983Y-78484890D01*
X142109688Y-78495566D01*
X142098219Y-78506408D01*
X142086582Y-78517408D01*
X142074786Y-78528558D01*
X142062838Y-78539853D01*
X142050746Y-78551283D01*
X142038517Y-78562843D01*
X142026159Y-78574525D01*
X142013680Y-78586321D01*
X142001088Y-78598226D01*
X141988388Y-78610230D01*
X141975591Y-78622328D01*
X141962702Y-78634512D01*
X141949730Y-78646775D01*
X141936683Y-78659110D01*
X141923567Y-78671509D01*
X141910391Y-78683965D01*
X141897162Y-78696471D01*
X141883887Y-78709020D01*
X141870575Y-78721605D01*
X141857233Y-78734219D01*
X141843868Y-78746854D01*
X141830488Y-78759503D01*
X141817101Y-78772159D01*
X141803715Y-78784814D01*
X141790336Y-78797463D01*
X141776973Y-78810096D01*
X141763633Y-78822708D01*
X141750324Y-78835291D01*
X141737053Y-78847837D01*
X141723828Y-78860340D01*
X141710657Y-78872793D01*
X141697547Y-78885188D01*
X141684506Y-78897518D01*
X141671541Y-78909775D01*
X141658660Y-78921953D01*
X141645871Y-78934045D01*
X141633181Y-78946043D01*
X141620598Y-78957940D01*
X141608130Y-78969729D01*
X141595783Y-78981403D01*
X141583566Y-78992954D01*
X141571487Y-79004375D01*
X141559552Y-79015659D01*
X141547770Y-79026800D01*
X141536147Y-79037789D01*
X141524693Y-79048619D01*
X141513414Y-79059284D01*
X141502318Y-79069776D01*
X141491412Y-79080088D01*
X141480704Y-79090213D01*
X141470202Y-79100143D01*
X141459914Y-79109872D01*
X141449846Y-79119392D01*
X141440007Y-79128696D01*
X141430405Y-79137777D01*
X141421045Y-79146627D01*
X141411938Y-79155240D01*
X141403089Y-79163608D01*
X141394507Y-79171723D01*
X141386199Y-79179580D01*
X141378173Y-79187171D01*
X141370437Y-79194488D01*
X141362997Y-79201524D01*
X141355862Y-79208272D01*
X141349039Y-79214725D01*
X141342536Y-79220876D01*
X141336361Y-79226717D01*
X141330521Y-79232241D01*
X141325023Y-79237442D01*
X141319875Y-79242312D01*
X141315086Y-79246843D01*
X141310662Y-79251029D01*
X141306611Y-79254862D01*
X141302941Y-79258335D01*
X141299659Y-79261442D01*
X141296773Y-79264174D01*
X141294291Y-79266524D01*
X141292219Y-79268486D01*
X141290567Y-79270052D01*
X141289341Y-79271215D01*
X141288548Y-79271968D01*
X141288198Y-79272304D01*
X141288180Y-79272322D01*
X141288405Y-79272540D01*
X141289076Y-79273178D01*
X141290185Y-79274232D01*
X141291727Y-79275694D01*
X141293696Y-79277559D01*
X141296085Y-79279821D01*
X141298887Y-79282474D01*
X141302098Y-79285513D01*
X141305710Y-79288931D01*
X141309718Y-79292722D01*
X141314114Y-79296882D01*
X141318893Y-79301402D01*
X141324049Y-79306279D01*
X141329575Y-79311506D01*
X141335466Y-79317076D01*
X141341714Y-79322985D01*
X141348314Y-79329226D01*
X141355259Y-79335794D01*
X141362543Y-79342682D01*
X141370160Y-79349884D01*
X141378104Y-79357395D01*
X141386369Y-79365209D01*
X141394948Y-79373320D01*
X141403834Y-79381722D01*
X141413023Y-79390409D01*
X141422507Y-79399375D01*
X141432280Y-79408614D01*
X141442337Y-79418121D01*
X141452670Y-79427889D01*
X141463274Y-79437913D01*
X141474142Y-79448187D01*
X141485268Y-79458704D01*
X141496646Y-79469460D01*
X141508270Y-79480447D01*
X141520133Y-79491661D01*
X141532229Y-79503095D01*
X141544553Y-79514743D01*
X141557097Y-79526600D01*
X141569855Y-79538659D01*
X141582822Y-79550916D01*
X141595991Y-79563362D01*
X141609355Y-79575994D01*
X141622909Y-79588805D01*
X141636646Y-79601789D01*
X141650561Y-79614940D01*
X141664646Y-79628252D01*
X141678896Y-79641720D01*
X141693304Y-79655337D01*
X141707864Y-79669098D01*
X141722570Y-79682997D01*
X141737416Y-79697028D01*
X141752396Y-79711184D01*
X141767502Y-79725461D01*
X141782729Y-79739852D01*
X141798072Y-79754351D01*
X141813522Y-79768952D01*
X141818384Y-79773547D01*
X141833867Y-79788179D01*
X141849244Y-79802711D01*
X141864508Y-79817136D01*
X141879653Y-79831450D01*
X141894673Y-79845645D01*
X141909561Y-79859716D01*
X141924312Y-79873657D01*
X141938919Y-79887462D01*
X141953375Y-79901125D01*
X141967676Y-79914641D01*
X141981813Y-79928003D01*
X141995782Y-79941206D01*
X142009575Y-79954243D01*
X142023187Y-79967109D01*
X142036612Y-79979798D01*
X142049843Y-79992304D01*
X142062873Y-80004621D01*
X142075698Y-80016744D01*
X142088310Y-80028665D01*
X142100703Y-80040380D01*
X142112871Y-80051883D01*
X142124808Y-80063167D01*
X142136508Y-80074227D01*
X142147963Y-80085056D01*
X142159169Y-80095650D01*
X142170119Y-80106001D01*
X142180806Y-80116105D01*
X142191225Y-80125955D01*
X142201368Y-80135545D01*
X142211231Y-80144870D01*
X142220806Y-80153923D01*
X142230088Y-80162699D01*
X142239070Y-80171192D01*
X142247746Y-80179396D01*
X142256109Y-80187304D01*
X142264155Y-80194912D01*
X142271875Y-80202213D01*
X142279264Y-80209201D01*
X142286316Y-80215870D01*
X142293025Y-80222215D01*
X142299384Y-80228230D01*
X142305387Y-80233908D01*
X142311028Y-80239245D01*
X142316300Y-80244233D01*
X142321198Y-80248867D01*
X142325715Y-80253141D01*
X142329845Y-80257050D01*
X142333581Y-80260587D01*
X142336918Y-80263746D01*
X142339850Y-80266522D01*
X142342369Y-80268908D01*
X142344469Y-80270900D01*
X142346146Y-80272490D01*
X142347391Y-80273673D01*
X142348200Y-80274443D01*
X142348565Y-80274795D01*
X142348588Y-80274818D01*
X142348279Y-80274824D01*
X142347358Y-80274831D01*
X142345833Y-80274838D01*
X142343712Y-80274844D01*
X142341004Y-80274851D01*
X142337717Y-80274857D01*
X142333860Y-80274863D01*
X142329440Y-80274870D01*
X142324468Y-80274876D01*
X142318950Y-80274882D01*
X142312896Y-80274888D01*
X142306314Y-80274894D01*
X142299212Y-80274900D01*
X142291599Y-80274906D01*
X142283483Y-80274912D01*
X142274873Y-80274918D01*
X142265777Y-80274924D01*
X142256203Y-80274929D01*
X142246161Y-80274935D01*
X142235658Y-80274940D01*
X142224704Y-80274945D01*
X142213305Y-80274950D01*
X142201472Y-80274956D01*
X142189212Y-80274961D01*
X142176533Y-80274965D01*
X142163445Y-80274970D01*
X142149956Y-80274975D01*
X142136074Y-80274979D01*
X142121807Y-80274984D01*
X142107164Y-80274988D01*
X142092154Y-80274992D01*
X142076785Y-80274997D01*
X142061065Y-80275000D01*
X142045003Y-80275004D01*
X142028607Y-80275008D01*
X142011887Y-80275012D01*
X141994849Y-80275015D01*
X141977503Y-80275018D01*
X141959857Y-80275021D01*
X141941919Y-80275024D01*
X141923699Y-80275027D01*
X141905204Y-80275030D01*
X141886443Y-80275032D01*
X141867424Y-80275035D01*
X141848156Y-80275037D01*
X141828648Y-80275039D01*
X141808907Y-80275041D01*
X141788942Y-80275043D01*
X141768762Y-80275044D01*
X141748375Y-80275046D01*
X141727789Y-80275047D01*
X141707014Y-80275048D01*
X141686057Y-80275049D01*
X141664927Y-80275050D01*
X141643632Y-80275050D01*
X141622181Y-80275050D01*
X141600582Y-80275050D01*
X141597287Y-80275050D01*
X140845963Y-80275050D01*
X140845963Y-79272353D01*
X140845963Y-78398836D01*
X140975143Y-78398836D01*
X140975143Y-79272198D01*
X140975143Y-80145560D01*
X141499386Y-80145560D01*
X142023629Y-80145560D01*
X142022859Y-80144808D01*
X142022611Y-80144572D01*
X142021917Y-80143916D01*
X142020786Y-80142846D01*
X142019223Y-80141368D01*
X142017236Y-80139489D01*
X142014831Y-80137215D01*
X142012015Y-80134553D01*
X142008794Y-80131508D01*
X142005176Y-80128087D01*
X142001166Y-80124297D01*
X141996773Y-80120143D01*
X141992001Y-80115633D01*
X141986859Y-80110771D01*
X141981352Y-80105566D01*
X141975488Y-80100022D01*
X141969272Y-80094147D01*
X141962713Y-80087947D01*
X141955816Y-80081428D01*
X141948589Y-80074596D01*
X141941037Y-80067457D01*
X141933168Y-80060019D01*
X141924988Y-80052287D01*
X141916504Y-80044268D01*
X141907723Y-80035968D01*
X141898652Y-80027393D01*
X141889296Y-80018550D01*
X141879664Y-80009445D01*
X141869761Y-80000084D01*
X141859594Y-79990474D01*
X141849170Y-79980621D01*
X141838495Y-79970532D01*
X141827577Y-79960212D01*
X141816422Y-79949668D01*
X141805037Y-79938906D01*
X141793428Y-79927933D01*
X141781602Y-79916755D01*
X141769566Y-79905379D01*
X141757326Y-79893810D01*
X141744890Y-79882055D01*
X141732264Y-79870121D01*
X141719454Y-79858013D01*
X141706467Y-79845738D01*
X141693311Y-79833303D01*
X141679991Y-79820713D01*
X141666514Y-79807975D01*
X141652888Y-79795096D01*
X141639118Y-79782081D01*
X141625212Y-79768937D01*
X141611176Y-79755670D01*
X141597017Y-79742288D01*
X141582742Y-79728795D01*
X141568357Y-79715198D01*
X141560955Y-79708202D01*
X141546519Y-79694558D01*
X141532191Y-79681014D01*
X141517976Y-79667578D01*
X141503882Y-79654255D01*
X141489915Y-79641052D01*
X141476082Y-79627976D01*
X141462389Y-79615031D01*
X141448844Y-79602226D01*
X141435452Y-79589566D01*
X141422221Y-79577057D01*
X141409157Y-79564706D01*
X141396268Y-79552519D01*
X141383558Y-79540503D01*
X141371037Y-79528663D01*
X141358709Y-79517007D01*
X141346581Y-79505539D01*
X141334662Y-79494268D01*
X141322956Y-79483198D01*
X141311471Y-79472337D01*
X141300213Y-79461691D01*
X141289190Y-79451265D01*
X141278407Y-79441067D01*
X141267871Y-79431103D01*
X141257590Y-79421378D01*
X141247570Y-79411900D01*
X141237817Y-79402674D01*
X141228338Y-79393708D01*
X141219140Y-79385006D01*
X141210230Y-79376576D01*
X141201613Y-79368424D01*
X141193298Y-79360557D01*
X141185291Y-79352979D01*
X141177597Y-79345699D01*
X141170225Y-79338722D01*
X141163180Y-79332054D01*
X141156469Y-79325702D01*
X141150100Y-79319672D01*
X141144078Y-79313971D01*
X141138411Y-79308604D01*
X141133104Y-79303579D01*
X141128165Y-79298901D01*
X141123601Y-79294576D01*
X141119418Y-79290612D01*
X141115622Y-79287014D01*
X141112222Y-79283789D01*
X141109222Y-79280943D01*
X141106630Y-79278482D01*
X141104452Y-79276413D01*
X141102696Y-79274742D01*
X141101367Y-79273475D01*
X141100473Y-79272619D01*
X141100021Y-79272180D01*
X141099962Y-79272118D01*
X141100191Y-79271899D01*
X141100864Y-79271259D01*
X141101976Y-79270205D01*
X141103519Y-79268744D01*
X141105487Y-79266881D01*
X141107872Y-79264624D01*
X141110669Y-79261978D01*
X141113870Y-79258950D01*
X141117468Y-79255545D01*
X141121458Y-79251771D01*
X141125833Y-79247634D01*
X141130585Y-79243140D01*
X141135708Y-79238296D01*
X141141195Y-79233107D01*
X141147040Y-79227580D01*
X141153236Y-79221721D01*
X141159776Y-79215538D01*
X141166653Y-79209035D01*
X141173861Y-79202220D01*
X141181394Y-79195098D01*
X141189243Y-79187677D01*
X141197404Y-79179962D01*
X141205868Y-79171959D01*
X141214630Y-79163676D01*
X141223683Y-79155118D01*
X141233019Y-79146292D01*
X141242632Y-79137203D01*
X141252516Y-79127860D01*
X141262664Y-79118267D01*
X141273069Y-79108431D01*
X141283725Y-79098358D01*
X141294624Y-79088055D01*
X141305760Y-79077528D01*
X141317127Y-79066783D01*
X141328717Y-79055828D01*
X141340524Y-79044667D01*
X141352541Y-79033307D01*
X141364762Y-79021756D01*
X141377179Y-79010018D01*
X141389787Y-78998101D01*
X141402578Y-78986010D01*
X141415546Y-78973752D01*
X141428684Y-78961334D01*
X141441986Y-78948762D01*
X141455444Y-78936041D01*
X141469052Y-78923179D01*
X141482803Y-78910182D01*
X141496690Y-78897055D01*
X141510708Y-78883806D01*
X141524849Y-78870441D01*
X141539106Y-78856966D01*
X141553473Y-78843387D01*
X141559699Y-78837502D01*
X141574120Y-78823872D01*
X141588435Y-78810342D01*
X141602638Y-78796918D01*
X141616723Y-78783605D01*
X141630683Y-78770411D01*
X141644511Y-78757341D01*
X141658200Y-78744402D01*
X141671744Y-78731601D01*
X141685135Y-78718943D01*
X141698368Y-78706436D01*
X141711435Y-78694085D01*
X141724329Y-78681896D01*
X141737045Y-78669877D01*
X141749574Y-78658034D01*
X141761911Y-78646373D01*
X141774049Y-78634900D01*
X141785980Y-78623622D01*
X141797699Y-78612544D01*
X141809198Y-78601675D01*
X141820471Y-78591019D01*
X141831511Y-78580583D01*
X141842311Y-78570374D01*
X141852864Y-78560397D01*
X141863165Y-78550660D01*
X141873205Y-78541169D01*
X141882978Y-78531930D01*
X141892479Y-78522949D01*
X141901699Y-78514233D01*
X141910632Y-78505788D01*
X141919271Y-78497620D01*
X141927610Y-78489737D01*
X141935642Y-78482143D01*
X141943360Y-78474847D01*
X141950757Y-78467853D01*
X141957827Y-78461169D01*
X141964563Y-78454800D01*
X141970958Y-78448754D01*
X141977005Y-78443035D01*
X141982698Y-78437652D01*
X141988031Y-78432610D01*
X141992995Y-78427916D01*
X141997585Y-78423575D01*
X142001793Y-78419595D01*
X142005614Y-78415982D01*
X142009040Y-78412741D01*
X142012064Y-78409880D01*
X142014680Y-78407405D01*
X142016881Y-78405322D01*
X142018661Y-78403637D01*
X142020012Y-78402357D01*
X142020928Y-78401489D01*
X142021402Y-78401038D01*
X142021466Y-78400976D01*
X142023637Y-78398836D01*
X141499390Y-78398836D01*
X140975143Y-78398836D01*
X140845963Y-78398836D01*
X140845963Y-78269657D01*
X141597365Y-78269671D01*
G37*
G36*
X139411786Y-78210908D02*
G01*
X139417483Y-78219282D01*
X139423444Y-78228046D01*
X139429667Y-78237194D01*
X139436146Y-78246720D01*
X139442878Y-78256617D01*
X139449857Y-78266878D01*
X139457080Y-78277497D01*
X139464541Y-78288467D01*
X139472238Y-78299783D01*
X139480164Y-78311437D01*
X139488316Y-78323423D01*
X139496690Y-78335735D01*
X139505280Y-78348366D01*
X139514083Y-78361309D01*
X139523094Y-78374558D01*
X139532309Y-78388107D01*
X139541723Y-78401949D01*
X139551331Y-78416077D01*
X139561130Y-78430485D01*
X139571115Y-78445167D01*
X139581282Y-78460116D01*
X139591626Y-78475326D01*
X139602142Y-78490789D01*
X139612827Y-78506500D01*
X139623675Y-78522453D01*
X139634683Y-78538639D01*
X139645846Y-78555054D01*
X139657160Y-78571691D01*
X139668620Y-78588542D01*
X139680222Y-78605602D01*
X139691961Y-78622864D01*
X139703833Y-78640322D01*
X139715833Y-78657969D01*
X139727958Y-78675798D01*
X139740203Y-78693803D01*
X139752562Y-78711978D01*
X139765033Y-78730317D01*
X139777610Y-78748811D01*
X139790289Y-78767456D01*
X139803066Y-78786245D01*
X139815936Y-78805170D01*
X139828894Y-78824226D01*
X139841937Y-78843407D01*
X139855060Y-78862704D01*
X139868259Y-78882113D01*
X139881528Y-78901627D01*
X139894865Y-78921239D01*
X139908263Y-78940942D01*
X139921720Y-78960731D01*
X139935230Y-78980598D01*
X139948788Y-79000537D01*
X139962392Y-79020542D01*
X139976036Y-79040606D01*
X139989715Y-79060723D01*
X140003426Y-79080886D01*
X140017164Y-79101088D01*
X140030924Y-79121324D01*
X140044702Y-79141586D01*
X140058494Y-79161869D01*
X140072295Y-79182165D01*
X140086102Y-79202468D01*
X140099908Y-79222772D01*
X140113711Y-79243071D01*
X140127505Y-79263356D01*
X140141286Y-79283623D01*
X140155050Y-79303865D01*
X140168793Y-79324075D01*
X140182509Y-79344247D01*
X140196195Y-79364374D01*
X140209846Y-79384449D01*
X140223457Y-79404467D01*
X140237025Y-79424420D01*
X140250545Y-79444303D01*
X140264012Y-79464108D01*
X140277422Y-79483830D01*
X140290770Y-79503461D01*
X140304053Y-79522995D01*
X140317266Y-79542426D01*
X140330404Y-79561748D01*
X140343462Y-79580953D01*
X140356438Y-79600035D01*
X140369325Y-79618988D01*
X140382120Y-79637806D01*
X140394818Y-79656481D01*
X140407415Y-79675007D01*
X140419907Y-79693378D01*
X140432288Y-79711588D01*
X140444555Y-79729629D01*
X140456703Y-79747495D01*
X140468728Y-79765180D01*
X140480625Y-79782677D01*
X140492390Y-79799980D01*
X140504019Y-79817083D01*
X140515506Y-79833978D01*
X140526848Y-79850659D01*
X140538041Y-79867121D01*
X140549079Y-79883355D01*
X140559959Y-79899356D01*
X140570675Y-79915118D01*
X140581224Y-79930633D01*
X140591602Y-79945896D01*
X140601803Y-79960899D01*
X140611823Y-79975637D01*
X140621658Y-79990102D01*
X140631304Y-80004289D01*
X140640755Y-80018191D01*
X140650009Y-80031801D01*
X140659059Y-80045112D01*
X140667902Y-80058119D01*
X140676534Y-80070815D01*
X140684950Y-80083194D01*
X140693145Y-80095248D01*
X140701115Y-80106971D01*
X140708856Y-80118357D01*
X140716363Y-80129400D01*
X140723632Y-80140092D01*
X140730659Y-80150428D01*
X140737438Y-80160400D01*
X140743967Y-80170003D01*
X140750239Y-80179230D01*
X140756251Y-80188074D01*
X140761999Y-80196529D01*
X140767477Y-80204588D01*
X140772682Y-80212245D01*
X140777609Y-80219494D01*
X140782254Y-80226327D01*
X140786612Y-80232739D01*
X140790679Y-80238723D01*
X140794450Y-80244272D01*
X140797922Y-80249379D01*
X140801089Y-80254040D01*
X140803947Y-80258246D01*
X140806492Y-80261991D01*
X140808719Y-80265270D01*
X140810624Y-80268075D01*
X140812203Y-80270399D01*
X140813451Y-80272238D01*
X140814363Y-80273583D01*
X140814936Y-80274428D01*
X140815165Y-80274767D01*
X140815169Y-80274774D01*
X140814863Y-80274783D01*
X140813943Y-80274792D01*
X140812415Y-80274801D01*
X140810287Y-80274809D01*
X140807565Y-80274818D01*
X140804257Y-80274826D01*
X140800369Y-80274834D01*
X140795907Y-80274842D01*
X140790880Y-80274850D01*
X140785293Y-80274858D01*
X140779154Y-80274866D01*
X140772470Y-80274874D01*
X140765246Y-80274881D01*
X140757491Y-80274889D01*
X140749211Y-80274896D01*
X140740413Y-80274903D01*
X140731103Y-80274910D01*
X140721289Y-80274917D01*
X140710978Y-80274924D01*
X140700176Y-80274930D01*
X140688890Y-80274937D01*
X140677127Y-80274943D01*
X140664894Y-80274949D01*
X140652198Y-80274955D01*
X140639046Y-80274961D01*
X140625444Y-80274967D01*
X140611400Y-80274972D01*
X140596920Y-80274977D01*
X140582011Y-80274983D01*
X140566680Y-80274988D01*
X140550934Y-80274992D01*
X140534779Y-80274997D01*
X140518223Y-80275002D01*
X140501273Y-80275006D01*
X140483935Y-80275010D01*
X140466216Y-80275014D01*
X140448123Y-80275018D01*
X140429663Y-80275021D01*
X140410843Y-80275025D01*
X140391669Y-80275028D01*
X140372149Y-80275031D01*
X140352289Y-80275034D01*
X140332097Y-80275036D01*
X140311578Y-80275039D01*
X140290741Y-80275041D01*
X140269591Y-80275043D01*
X140248136Y-80275044D01*
X140226383Y-80275046D01*
X140204338Y-80275047D01*
X140182008Y-80275048D01*
X140159400Y-80275049D01*
X140136521Y-80275050D01*
X140113379Y-80275050D01*
X140089978Y-80275050D01*
X140084097Y-80275050D01*
X140057446Y-80275050D01*
X140031410Y-80275050D01*
X140005983Y-80275050D01*
X139981157Y-80275050D01*
X139956927Y-80275049D01*
X139933287Y-80275048D01*
X139910229Y-80275048D01*
X139887748Y-80275047D01*
X139865837Y-80275046D01*
X139844489Y-80275044D01*
X139823700Y-80275043D01*
X139803461Y-80275042D01*
X139783768Y-80275040D01*
X139764612Y-80275038D01*
X139745989Y-80275036D01*
X139727892Y-80275034D01*
X139710314Y-80275032D01*
X139693248Y-80275029D01*
X139676690Y-80275027D01*
X139660632Y-80275024D01*
X139645068Y-80275021D01*
X139629991Y-80275018D01*
X139615396Y-80275014D01*
X139601275Y-80275011D01*
X139587623Y-80275007D01*
X139574434Y-80275003D01*
X139561700Y-80274999D01*
X139549415Y-80274995D01*
X139537574Y-80274990D01*
X139526169Y-80274986D01*
X139515195Y-80274981D01*
X139504645Y-80274976D01*
X139494512Y-80274970D01*
X139484791Y-80274965D01*
X139475475Y-80274959D01*
X139466557Y-80274953D01*
X139458032Y-80274946D01*
X139449892Y-80274940D01*
X139442132Y-80274933D01*
X139434746Y-80274926D01*
X139427726Y-80274919D01*
X139421066Y-80274912D01*
X139414761Y-80274904D01*
X139408804Y-80274896D01*
X139403187Y-80274888D01*
X139397906Y-80274879D01*
X139392954Y-80274870D01*
X139388324Y-80274861D01*
X139384010Y-80274852D01*
X139380006Y-80274842D01*
X139376305Y-80274832D01*
X139372901Y-80274822D01*
X139369787Y-80274812D01*
X139366958Y-80274801D01*
X139364406Y-80274790D01*
X139362126Y-80274779D01*
X139360111Y-80274767D01*
X139358355Y-80274755D01*
X139356852Y-80274743D01*
X139355594Y-80274731D01*
X139354576Y-80274718D01*
X139353792Y-80274705D01*
X139353234Y-80274691D01*
X139352898Y-80274677D01*
X139352775Y-80274663D01*
X139352775Y-80274662D01*
X139352771Y-80274344D01*
X139352768Y-80273411D01*
X139352764Y-80271871D01*
X139352761Y-80269732D01*
X139352758Y-80267000D01*
X139352754Y-80263682D01*
X139352751Y-80259785D01*
X139352748Y-80255317D01*
X139352745Y-80250284D01*
X139352742Y-80244694D01*
X139352740Y-80238553D01*
X139352737Y-80231870D01*
X139352734Y-80224650D01*
X139352731Y-80216900D01*
X139352729Y-80208629D01*
X139352726Y-80199843D01*
X139352724Y-80190549D01*
X139352722Y-80180754D01*
X139352719Y-80170465D01*
X139352717Y-80159689D01*
X139352715Y-80148434D01*
X139352715Y-80145560D01*
X139482121Y-80145560D01*
X140026493Y-80145560D01*
X140570864Y-80145560D01*
X140569965Y-80144240D01*
X140569768Y-80143951D01*
X140569226Y-80143154D01*
X140568343Y-80141856D01*
X140567124Y-80140063D01*
X140565572Y-80137781D01*
X140563692Y-80135017D01*
X140561488Y-80131776D01*
X140558965Y-80128064D01*
X140556125Y-80123889D01*
X140552974Y-80119255D01*
X140549516Y-80114170D01*
X140545755Y-80108639D01*
X140541695Y-80102669D01*
X140537341Y-80096265D01*
X140532696Y-80089434D01*
X140527765Y-80082183D01*
X140522552Y-80074516D01*
X140517061Y-80066441D01*
X140511296Y-80057964D01*
X140505262Y-80049090D01*
X140498963Y-80039827D01*
X140492403Y-80030179D01*
X140485586Y-80020154D01*
X140478516Y-80009758D01*
X140471198Y-79998996D01*
X140463636Y-79987875D01*
X140455834Y-79976401D01*
X140447796Y-79964580D01*
X140439526Y-79952419D01*
X140431029Y-79939923D01*
X140422309Y-79927099D01*
X140413370Y-79913953D01*
X140404215Y-79900491D01*
X140394851Y-79886719D01*
X140385280Y-79872644D01*
X140375506Y-79858271D01*
X140365535Y-79843608D01*
X140355370Y-79828659D01*
X140345015Y-79813431D01*
X140334475Y-79797931D01*
X140323754Y-79782164D01*
X140312856Y-79766137D01*
X140301784Y-79749856D01*
X140290545Y-79733327D01*
X140279141Y-79716556D01*
X140267576Y-79699549D01*
X140255856Y-79682313D01*
X140243984Y-79664854D01*
X140231964Y-79647178D01*
X140219801Y-79629291D01*
X140207499Y-79611199D01*
X140195062Y-79592909D01*
X140182493Y-79574426D01*
X140169799Y-79555757D01*
X140156982Y-79536908D01*
X140144047Y-79517886D01*
X140130997Y-79498696D01*
X140117838Y-79479344D01*
X140104574Y-79459837D01*
X140091208Y-79440181D01*
X140077744Y-79420382D01*
X140064188Y-79400446D01*
X140050543Y-79380379D01*
X140036814Y-79360188D01*
X140025864Y-79344086D01*
X140012072Y-79323804D01*
X139998362Y-79303642D01*
X139984738Y-79283606D01*
X139971204Y-79263703D01*
X139957764Y-79243939D01*
X139944423Y-79224319D01*
X139931184Y-79204850D01*
X139918052Y-79185538D01*
X139905030Y-79166390D01*
X139892125Y-79147411D01*
X139879338Y-79128608D01*
X139866675Y-79109986D01*
X139854140Y-79091553D01*
X139841737Y-79073313D01*
X139829469Y-79055274D01*
X139817343Y-79037441D01*
X139805361Y-79019821D01*
X139793527Y-79002420D01*
X139781846Y-78985243D01*
X139770323Y-78968298D01*
X139758961Y-78951590D01*
X139747764Y-78935126D01*
X139736738Y-78918911D01*
X139725885Y-78902951D01*
X139715210Y-78887254D01*
X139704717Y-78871825D01*
X139694411Y-78856670D01*
X139684295Y-78841796D01*
X139674375Y-78827208D01*
X139664653Y-78812914D01*
X139655135Y-78798918D01*
X139645824Y-78785227D01*
X139636725Y-78771847D01*
X139627842Y-78758785D01*
X139619179Y-78746047D01*
X139610740Y-78733638D01*
X139602529Y-78721565D01*
X139594551Y-78709835D01*
X139586810Y-78698452D01*
X139579309Y-78687425D01*
X139572054Y-78676757D01*
X139565049Y-78666457D01*
X139558297Y-78656529D01*
X139551802Y-78646981D01*
X139545570Y-78637818D01*
X139539604Y-78629046D01*
X139533908Y-78620672D01*
X139528487Y-78612702D01*
X139523345Y-78605142D01*
X139518485Y-78597998D01*
X139513913Y-78591276D01*
X139509632Y-78584982D01*
X139505646Y-78579124D01*
X139501960Y-78573706D01*
X139498578Y-78568735D01*
X139495505Y-78564217D01*
X139492743Y-78560158D01*
X139490298Y-78556565D01*
X139488174Y-78553444D01*
X139486375Y-78550800D01*
X139484904Y-78548640D01*
X139483767Y-78546971D01*
X139482967Y-78545797D01*
X139482510Y-78545126D01*
X139482392Y-78544956D01*
X139482384Y-78545256D01*
X139482376Y-78546171D01*
X139482368Y-78547691D01*
X139482361Y-78549811D01*
X139482353Y-78552523D01*
X139482345Y-78555819D01*
X139482338Y-78559692D01*
X139482330Y-78564136D01*
X139482323Y-78569141D01*
X139482316Y-78574702D01*
X139482309Y-78580811D01*
X139482301Y-78587460D01*
X139482294Y-78594643D01*
X139482288Y-78602352D01*
X139482281Y-78610579D01*
X139482274Y-78619317D01*
X139482268Y-78628560D01*
X139482261Y-78638299D01*
X139482255Y-78648528D01*
X139482249Y-78659238D01*
X139482243Y-78670424D01*
X139482237Y-78682077D01*
X139482231Y-78694190D01*
X139482225Y-78706756D01*
X139482219Y-78719767D01*
X139482214Y-78733216D01*
X139482208Y-78747096D01*
X139482203Y-78761400D01*
X139482198Y-78776120D01*
X139482193Y-78791249D01*
X139482188Y-78806780D01*
X139482184Y-78822704D01*
X139482179Y-78839016D01*
X139482175Y-78855707D01*
X139482171Y-78872771D01*
X139482167Y-78890200D01*
X139482163Y-78907986D01*
X139482159Y-78926123D01*
X139482155Y-78944603D01*
X139482152Y-78963418D01*
X139482149Y-78982562D01*
X139482146Y-79002027D01*
X139482143Y-79021806D01*
X139482140Y-79041892D01*
X139482137Y-79062276D01*
X139482135Y-79082953D01*
X139482133Y-79103913D01*
X139482131Y-79125152D01*
X139482129Y-79146660D01*
X139482127Y-79168430D01*
X139482126Y-79190456D01*
X139482125Y-79212730D01*
X139482123Y-79235245D01*
X139482123Y-79257992D01*
X139482122Y-79280966D01*
X139482121Y-79304159D01*
X139482121Y-79327563D01*
X139482121Y-79345110D01*
X139482121Y-80145560D01*
X139352715Y-80145560D01*
X139352713Y-80136706D01*
X139352711Y-80124512D01*
X139352709Y-80111860D01*
X139352707Y-80098757D01*
X139352705Y-80085209D01*
X139352704Y-80071224D01*
X139352702Y-80056809D01*
X139352701Y-80041971D01*
X139352699Y-80026717D01*
X139352698Y-80011053D01*
X139352697Y-79994988D01*
X139352695Y-79978528D01*
X139352694Y-79961680D01*
X139352693Y-79944452D01*
X139352692Y-79926849D01*
X139352691Y-79908881D01*
X139352690Y-79890552D01*
X139352690Y-79871872D01*
X139352689Y-79852846D01*
X139352689Y-79833481D01*
X139352688Y-79813786D01*
X139352688Y-79793766D01*
X139352687Y-79773429D01*
X139352687Y-79752783D01*
X139352687Y-79731833D01*
X139352687Y-79710587D01*
X139352687Y-79689053D01*
X139352687Y-79667237D01*
X139352687Y-79645146D01*
X139352687Y-79622787D01*
X139352688Y-79600168D01*
X139352688Y-79577296D01*
X139352689Y-79554177D01*
X139352689Y-79530819D01*
X139352690Y-79507229D01*
X139352691Y-79483413D01*
X139352692Y-79459379D01*
X139352693Y-79435134D01*
X139352694Y-79410686D01*
X139352695Y-79386040D01*
X139352696Y-79361205D01*
X139352698Y-79336186D01*
X139352699Y-79310992D01*
X139352701Y-79285630D01*
X139352702Y-79260106D01*
X139352704Y-79234427D01*
X139352706Y-79208601D01*
X139352707Y-79199225D01*
X139352786Y-78124175D01*
X139411786Y-78210908D01*
G37*
D14*
%TO.C,J1*%
X130633985Y-80285000D02*
X130633985Y-79015000D01*
X130633985Y-79015000D02*
X129363985Y-79650000D01*
X129363985Y-79650000D02*
X130633985Y-80285000D01*
X129109985Y-85199999D02*
X129109985Y-83320040D01*
X129109985Y-80679960D02*
X129109985Y-78799999D01*
X129109985Y-78799999D02*
X125352540Y-78799999D01*
X125352540Y-85199999D02*
X129109985Y-85199999D01*
X118647460Y-78799999D02*
X114890015Y-78799999D01*
X114890015Y-85199999D02*
X118647460Y-85199999D01*
X114890015Y-83320040D02*
X114890015Y-85199999D01*
X114890015Y-78799999D02*
X114890015Y-80679960D01*
D15*
%TO.C,R1*%
X176472936Y-111740000D02*
X177927064Y-111740000D01*
X176472936Y-113560000D02*
X177927064Y-113560000D01*
%TO.C,R5*%
X93672936Y-50340000D02*
X95127064Y-50340000D01*
X93672936Y-52160000D02*
X95127064Y-52160000D01*
%TO.C,R2*%
X121272936Y-111740000D02*
X122727064Y-111740000D01*
X121272936Y-113560000D02*
X122727064Y-113560000D01*
%TO.C,R4*%
X148872936Y-50340000D02*
X150327064Y-50340000D01*
X148872936Y-52160000D02*
X150327064Y-52160000D01*
%TO.C,R3*%
X66072936Y-111740000D02*
X67527064Y-111740000D01*
X66072936Y-113560000D02*
X67527064Y-113560000D01*
%TD*%
M02*
