%TF.GenerationSoftware,KiCad,Pcbnew,7.0.11-rc3*%
%TF.CreationDate,2025-12-05T17:25:17+08:00*%
%TF.ProjectId,seg_pcb_1,7365675f-7063-4625-9f31-2e6b69636164,rev?*%
%TF.SameCoordinates,Original*%
%TF.FileFunction,Copper,L4,Bot*%
%TF.FilePolarity,Positive*%
%FSLAX46Y46*%
G04 Gerber Fmt 4.6, Leading zero omitted, Abs format (unit mm)*
G04 Created by KiCad (PCBNEW 7.0.11-rc3) date 2025-12-05 17:25:17*
%MOMM*%
%LPD*%
G01*
G04 APERTURE LIST*
%TA.AperFunction,ComponentPad*%
%ADD10C,4.400000*%
%TD*%
%TA.AperFunction,ViaPad*%
%ADD11C,0.600000*%
%TD*%
G04 APERTURE END LIST*
D10*
%TO.P,TP4,1,1*%
%TO.N,Net-(J1-Pin_6)*%
X94400000Y-67500000D03*
%TD*%
%TO.P,TP5,1,1*%
%TO.N,Net-(J1-Pin_15)*%
X103600000Y-96500000D03*
%TD*%
%TO.P,TP11,1,1*%
%TO.N,Net-(J1-Pin_12)*%
X158800000Y-96500000D03*
%TD*%
%TO.P,TP12,1,1*%
%TO.N,Net-(J1-Pin_2)*%
X168000000Y-67500000D03*
%TD*%
%TO.P,TP10,1,1*%
%TO.N,Net-(J1-Pin_3)*%
X149600000Y-67500000D03*
%TD*%
%TO.P,TP9,1,1*%
%TO.N,Net-(J1-Pin_13)*%
X140400000Y-96500000D03*
%TD*%
%TO.P,TP1,1,1*%
%TO.N,Net-(J1-Pin_17)*%
X66800000Y-96500000D03*
%TD*%
%TO.P,TP14,1,1*%
%TO.N,Net-(J1-Pin_1)*%
X188400000Y-67500000D03*
%TD*%
%TO.P,TP6,1,1*%
%TO.N,Net-(J1-Pin_5)*%
X112800000Y-67500000D03*
%TD*%
%TO.P,TP13,1,1*%
%TO.N,Net-(J1-Pin_11)*%
X177200000Y-96500000D03*
%TD*%
%TO.P,TP8,1,1*%
%TO.N,Net-(J1-Pin_4)*%
X131200000Y-67500000D03*
%TD*%
%TO.P,TP2,1,1*%
%TO.N,Net-(J1-Pin_7)*%
X76000000Y-67500000D03*
%TD*%
%TO.P,TP3,1,1*%
%TO.N,Net-(J1-Pin_16)*%
X85200000Y-96500000D03*
%TD*%
%TO.P,TP7,1,1*%
%TO.N,Net-(J1-Pin_14)*%
X122000000Y-96500000D03*
%TD*%
%TO.P,TP0,1,1*%
%TO.N,GND*%
X55600000Y-67500000D03*
%TD*%
D11*
%TO.N,GND*%
X148050000Y-51250000D03*
X123550000Y-112650000D03*
X178750000Y-112650000D03*
X92850000Y-51250000D03*
X120030000Y-81540000D03*
X68350000Y-112650000D03*
%TO.N,Net-(J1-Pin_9)*%
X119010000Y-81530000D03*
X151150000Y-51250000D03*
%TO.N,Net-(J1-Pin_10)*%
X117780000Y-79640000D03*
X95950000Y-51250000D03*
%TO.N,Net-(J1-Pin_18)*%
X120100000Y-82400000D03*
X175650000Y-112650000D03*
%TO.N,Net-(J1-Pin_19)*%
X120450000Y-112650000D03*
X119000000Y-82500000D03*
%TO.N,Net-(J1-Pin_1)*%
X124857500Y-81590000D03*
%TO.N,Net-(J1-Pin_2)*%
X124230000Y-77910000D03*
%TO.N,Net-(J1-Pin_3)*%
X123570000Y-81540000D03*
%TO.N,Net-(J1-Pin_4)*%
X122950000Y-77900000D03*
%TO.N,Net-(J1-Pin_5)*%
X122330000Y-81550000D03*
%TO.N,Net-(J1-Pin_6)*%
X121630000Y-77900000D03*
%TO.N,Net-(J1-Pin_7)*%
X121040000Y-81540000D03*
%TO.N,Net-(J1-Pin_20)*%
X117500000Y-84100000D03*
X65250000Y-110900000D03*
%TO.N,Net-(J1-Pin_11)*%
X126700000Y-84350000D03*
%TO.N,Net-(J1-Pin_12)*%
X124610000Y-82570000D03*
%TO.N,Net-(J1-Pin_13)*%
X123610000Y-82560000D03*
%TO.N,Net-(J1-Pin_14)*%
X123000000Y-86250000D03*
%TO.N,Net-(J1-Pin_15)*%
X122700000Y-82550000D03*
%TO.N,Net-(J1-Pin_16)*%
X121750000Y-82550000D03*
%TO.N,Net-(J1-Pin_17)*%
X120950000Y-82550000D03*
%TD*%
M02*
