%TF.GenerationSoftware,KiCad,Pcbnew,7.0.11-rc3*%
%TF.CreationDate,2025-12-05T17:25:17+08:00*%
%TF.ProjectId,seg_pcb_1,7365675f-7063-4625-9f31-2e6b69636164,rev?*%
%TF.SameCoordinates,Original*%
%TF.FileFunction,Copper,L2,Inr*%
%TF.FilePolarity,Positive*%
%FSLAX46Y46*%
G04 Gerber Fmt 4.6, Leading zero omitted, Abs format (unit mm)*
G04 Created by KiCad (PCBNEW 7.0.11-rc3) date 2025-12-05 17:25:17*
%MOMM*%
%LPD*%
G01*
G04 APERTURE LIST*
%TA.AperFunction,ComponentPad*%
%ADD10C,4.400000*%
%TD*%
%TA.AperFunction,ViaPad*%
%ADD11C,0.600000*%
%TD*%
%TA.AperFunction,Conductor*%
%ADD12C,0.200000*%
%TD*%
G04 APERTURE END LIST*
D10*
%TO.N,Net-(J1-Pin_6)*%
%TO.C,TP4*%
X94400000Y-67500000D03*
%TD*%
%TO.N,Net-(J1-Pin_15)*%
%TO.C,TP5*%
X103600000Y-96500000D03*
%TD*%
%TO.N,Net-(J1-Pin_12)*%
%TO.C,TP11*%
X158800000Y-96500000D03*
%TD*%
%TO.N,Net-(J1-Pin_2)*%
%TO.C,TP12*%
X168000000Y-67500000D03*
%TD*%
%TO.N,Net-(J1-Pin_3)*%
%TO.C,TP10*%
X149600000Y-67500000D03*
%TD*%
%TO.N,Net-(J1-Pin_13)*%
%TO.C,TP9*%
X140400000Y-96500000D03*
%TD*%
%TO.N,Net-(J1-Pin_17)*%
%TO.C,TP1*%
X66800000Y-96500000D03*
%TD*%
%TO.N,Net-(J1-Pin_1)*%
%TO.C,TP14*%
X188400000Y-67500000D03*
%TD*%
%TO.N,Net-(J1-Pin_5)*%
%TO.C,TP6*%
X112800000Y-67500000D03*
%TD*%
%TO.N,Net-(J1-Pin_11)*%
%TO.C,TP13*%
X177200000Y-96500000D03*
%TD*%
%TO.N,Net-(J1-Pin_4)*%
%TO.C,TP8*%
X131200000Y-67500000D03*
%TD*%
%TO.N,Net-(J1-Pin_7)*%
%TO.C,TP2*%
X76000000Y-67500000D03*
%TD*%
%TO.N,Net-(J1-Pin_16)*%
%TO.C,TP3*%
X85200000Y-96500000D03*
%TD*%
%TO.N,Net-(J1-Pin_14)*%
%TO.C,TP7*%
X122000000Y-96500000D03*
%TD*%
%TO.N,GND*%
%TO.C,TP0*%
X55600000Y-67500000D03*
%TD*%
D11*
%TO.N,GND*%
X148050000Y-51250000D03*
X123550000Y-112650000D03*
X178750000Y-112650000D03*
X92850000Y-51250000D03*
X120030000Y-81540000D03*
X68350000Y-112650000D03*
%TO.N,Net-(J1-Pin_9)*%
X119010000Y-81530000D03*
X151150000Y-51250000D03*
%TO.N,Net-(J1-Pin_10)*%
X117780000Y-79640000D03*
X95950000Y-51250000D03*
%TO.N,Net-(J1-Pin_18)*%
X120100000Y-82400000D03*
X175650000Y-112650000D03*
%TO.N,Net-(J1-Pin_19)*%
X120450000Y-112650000D03*
X119000000Y-82500000D03*
%TO.N,Net-(J1-Pin_1)*%
X124857500Y-81590000D03*
%TO.N,Net-(J1-Pin_2)*%
X124230000Y-77910000D03*
%TO.N,Net-(J1-Pin_3)*%
X123570000Y-81540000D03*
%TO.N,Net-(J1-Pin_4)*%
X122950000Y-77900000D03*
%TO.N,Net-(J1-Pin_5)*%
X122330000Y-81550000D03*
%TO.N,Net-(J1-Pin_6)*%
X121630000Y-77900000D03*
%TO.N,Net-(J1-Pin_7)*%
X121040000Y-81540000D03*
%TO.N,Net-(J1-Pin_20)*%
X117500000Y-84100000D03*
X65250000Y-110900000D03*
%TO.N,Net-(J1-Pin_11)*%
X126700000Y-84350000D03*
%TO.N,Net-(J1-Pin_12)*%
X124610000Y-82570000D03*
%TO.N,Net-(J1-Pin_13)*%
X123610000Y-82560000D03*
%TO.N,Net-(J1-Pin_14)*%
X123000000Y-86250000D03*
%TO.N,Net-(J1-Pin_15)*%
X122700000Y-82550000D03*
%TO.N,Net-(J1-Pin_16)*%
X121750000Y-82550000D03*
%TO.N,Net-(J1-Pin_17)*%
X120950000Y-82550000D03*
%TD*%
D12*
%TO.N,GND*%
X120030000Y-81540000D02*
X120030000Y-79560000D01*
X119420000Y-78950000D02*
X58700000Y-78950000D01*
X120030000Y-79560000D02*
X119420000Y-78950000D01*
X58700000Y-78950000D02*
X55600000Y-75850000D01*
X55600000Y-75850000D02*
X55600000Y-67500000D01*
%TO.N,Net-(J1-Pin_1)*%
X124857500Y-80642500D02*
X125660000Y-79840000D01*
X125660000Y-79840000D02*
X185310000Y-79840000D01*
X185310000Y-79840000D02*
X188400000Y-76750000D01*
X124857500Y-81590000D02*
X124857500Y-80642500D01*
X188400000Y-76750000D02*
X188400000Y-67500000D01*
%TO.N,Net-(J1-Pin_2)*%
X124230000Y-77910000D02*
X124230000Y-78850000D01*
X124820000Y-79440000D02*
X164070000Y-79440000D01*
X124230000Y-78850000D02*
X124820000Y-79440000D01*
X168000000Y-75510000D02*
X168000000Y-67500000D01*
X164070000Y-79440000D02*
X168000000Y-75510000D01*
%TO.N,Net-(J1-Pin_3)*%
X148160000Y-79040000D02*
X149600000Y-77600000D01*
X123570000Y-77721471D02*
X123981471Y-77310000D01*
X123570000Y-81540000D02*
X123570000Y-77721471D01*
X124478529Y-77310000D02*
X126208529Y-79040000D01*
X123981471Y-77310000D02*
X124478529Y-77310000D01*
X126208529Y-79040000D02*
X148160000Y-79040000D01*
X149600000Y-77600000D02*
X149600000Y-67500000D01*
%TO.N,Net-(J1-Pin_4)*%
X124644215Y-76910000D02*
X126374215Y-78640000D01*
X130160000Y-78640000D02*
X131200000Y-77600000D01*
X122950000Y-77900000D02*
X122950000Y-77450000D01*
X131200000Y-77600000D02*
X131200000Y-67500000D01*
X126374215Y-78640000D02*
X130160000Y-78640000D01*
X122950000Y-77450000D02*
X123490000Y-76910000D01*
X123490000Y-76910000D02*
X124644215Y-76910000D01*
%TO.N,Net-(J1-Pin_5)*%
X120720000Y-77300000D02*
X120270000Y-77750000D01*
X112800000Y-76200000D02*
X112800000Y-67500000D01*
X121950000Y-77300000D02*
X120720000Y-77300000D01*
X120270000Y-77750000D02*
X114350000Y-77750000D01*
X122330000Y-77680000D02*
X121950000Y-77300000D01*
X114350000Y-77750000D02*
X112800000Y-76200000D01*
X122330000Y-81550000D02*
X122330000Y-77680000D01*
%TO.N,Net-(J1-Pin_6)*%
X120600000Y-78150000D02*
X97650000Y-78150000D01*
X120850000Y-77900000D02*
X120600000Y-78150000D01*
X97650000Y-78150000D02*
X94400000Y-74900000D01*
X94400000Y-74900000D02*
X94400000Y-67500000D01*
X121630000Y-77900000D02*
X120850000Y-77900000D01*
%TO.N,Net-(J1-Pin_7)*%
X77790000Y-78550000D02*
X76000000Y-76760000D01*
X121040000Y-81540000D02*
X121040000Y-79050000D01*
X76000000Y-76760000D02*
X76000000Y-67500000D01*
X121040000Y-79050000D02*
X120540000Y-78550000D01*
X120540000Y-78550000D02*
X77790000Y-78550000D01*
%TO.N,Net-(J1-Pin_11)*%
X175850000Y-86400000D02*
X177620000Y-88170000D01*
X126700000Y-84350000D02*
X173800000Y-84350000D01*
X173800000Y-84350000D02*
X175850000Y-86400000D01*
X177620000Y-88170000D02*
X177620000Y-98560000D01*
%TO.N,Net-(J1-Pin_12)*%
X156440000Y-84950000D02*
X158800000Y-87310000D01*
X124610000Y-82570000D02*
X124610000Y-83108529D01*
X158800000Y-87310000D02*
X158800000Y-96500000D01*
X124610000Y-83108529D02*
X126451471Y-84950000D01*
X126451471Y-84950000D02*
X156440000Y-84950000D01*
%TO.N,Net-(J1-Pin_13)*%
X123610000Y-82560000D02*
X123610000Y-83610000D01*
X138600000Y-85640000D02*
X140400000Y-87440000D01*
X140400000Y-87440000D02*
X140400000Y-96500000D01*
X123610000Y-83610000D02*
X125640000Y-85640000D01*
X125640000Y-85640000D02*
X138600000Y-85640000D01*
%TO.N,Net-(J1-Pin_14)*%
X123000000Y-86250000D02*
X122000000Y-87250000D01*
X122000000Y-87250000D02*
X122000000Y-96500000D01*
%TO.N,Net-(J1-Pin_15)*%
X122700000Y-82550000D02*
X122700000Y-84350000D01*
X121100000Y-85950000D02*
X105200000Y-85950000D01*
X103600000Y-87550000D02*
X103600000Y-96500000D01*
X122700000Y-84350000D02*
X121100000Y-85950000D01*
X105200000Y-85950000D02*
X103600000Y-87550000D01*
%TO.N,Net-(J1-Pin_16)*%
X85200000Y-87400000D02*
X85200000Y-96500000D01*
X121750000Y-84450000D02*
X120650000Y-85550000D01*
X87050000Y-85550000D02*
X85200000Y-87400000D01*
X120650000Y-85550000D02*
X87050000Y-85550000D01*
X121750000Y-82550000D02*
X121750000Y-84450000D01*
%TO.N,Net-(J1-Pin_17)*%
X67800000Y-85150000D02*
X66950000Y-86000000D01*
X66950000Y-86000000D02*
X66950000Y-89601472D01*
X66950000Y-89601472D02*
X66800000Y-89751472D01*
X120950000Y-82550000D02*
X120950000Y-84550000D01*
X120350000Y-85150000D02*
X67800000Y-85150000D01*
X66800000Y-89751472D02*
X66800000Y-96500000D01*
X120950000Y-84550000D02*
X120350000Y-85150000D01*
%TD*%
M02*
