M48
; DRILL file {KiCad 7.0.11-rc3} date Fri Dec  5 17:25:19 2025
; FORMAT={-:-/ absolute / inch / decimal}
; #@! TF.CreationDate,2025-12-05T17:25:19+08:00
; #@! TF.GenerationSoftware,Kicad,Pcbnew,7.0.11-rc3
; #@! TF.FileFunction,Plated,1,4,PTH
FMAT,2
INCH
; #@! TA.AperFunction,Plated,PTH,ViaDrill
T1C0.0118
; #@! TA.AperFunction,Plated,PTH,ComponentDrill
T2C0.1654
%
G90
G05
T1
X2.5689Y-4.3661
X2.6909Y-4.435
X3.6555Y-2.0177
X3.7776Y-2.0177
X4.626Y-3.311
X4.637Y-3.1354
X4.685Y-3.248
X4.6854Y-3.2098
X4.7256Y-3.2102
X4.7283Y-3.2441
X4.7421Y-4.435
X4.7618Y-3.25
X4.7654Y-3.2102
X4.7886Y-3.0669
X4.7933Y-3.25
X4.8161Y-3.2106
X4.8307Y-3.25
X4.8406Y-3.0669
X4.8425Y-3.3957
X4.8642Y-4.435
X4.865Y-3.2102
X4.8665Y-3.2504
X4.8909Y-3.0673
X4.9059Y-3.2508
X4.9156Y-3.2122
X4.9882Y-3.3209
X5.8287Y-2.0177
X5.9508Y-2.0177
X6.9154Y-4.435
X7.0374Y-4.435
T2
X2.189Y-2.6575
X2.6299Y-3.7992
X2.9921Y-2.6575
X3.3543Y-3.7992
X3.7165Y-2.6575
X4.0787Y-3.7992
X4.4409Y-2.6575
X4.8031Y-3.7992
X5.1654Y-2.6575
X5.5276Y-3.7992
X5.8898Y-2.6575
X6.252Y-3.7992
X6.6142Y-2.6575
X6.9764Y-3.7992
X7.4173Y-2.6575
M30
