%TF.GenerationSoftware,KiCad,Pcbnew,7.0.11-rc3*%
%TF.CreationDate,2025-12-05T17:25:19+08:00*%
%TF.ProjectId,seg_pcb_1,7365675f-7063-4625-9f31-2e6b69636164,rev?*%
%TF.SameCoordinates,Original*%
%TF.FileFunction,Drillmap*%
%TF.FilePolarity,Positive*%
%FSLAX45Y45*%
G04 Gerber Fmt 4.5, Leading zero omitted, Abs format (unit mm)*
G04 Created by KiCad (PCBNEW 7.0.11-rc3) date 2025-12-05 17:25:19*
%MOMM*%
%LPD*%
G01*
G04 APERTURE LIST*
%ADD10C,0.050000*%
%ADD11C,0.200000*%
%ADD12C,0.100000*%
G04 APERTURE END LIST*
D10*
X6120000Y-8700000D02*
X6320000Y-8700000D01*
X6320000Y-10950000D01*
X6120000Y-10950000D01*
X6120000Y-8700000D01*
X14400000Y-5450000D02*
X14600000Y-5450000D01*
X14600000Y-7700000D01*
X14400000Y-7700000D01*
X14400000Y-5450000D01*
X7040000Y-5450000D02*
X7240000Y-5450000D01*
X7240000Y-7700000D01*
X7040000Y-7700000D01*
X7040000Y-5450000D01*
X9800000Y-8700000D02*
X10000000Y-8700000D01*
X10000000Y-10950000D01*
X9800000Y-10950000D01*
X9800000Y-8700000D01*
X18080000Y-5450000D02*
X18280000Y-5450000D01*
X18280000Y-7700000D01*
X18080000Y-7700000D01*
X18080000Y-5450000D01*
X12560000Y-5450000D02*
X12760000Y-5450000D01*
X12760000Y-7700000D01*
X12560000Y-7700000D01*
X12560000Y-5450000D01*
X13480000Y-8700000D02*
X13680000Y-8700000D01*
X13680000Y-10950000D01*
X13480000Y-10950000D01*
X13480000Y-8700000D01*
X10720000Y-5450000D02*
X10920000Y-5450000D01*
X10920000Y-7700000D01*
X10720000Y-7700000D01*
X10720000Y-5450000D01*
X5025000Y-11150000D02*
G75*
G03*
X4575000Y-11150000I-225000J0D01*
G01*
X4575000Y-11150000D02*
G75*
G03*
X5025000Y-11150000I225000J0D01*
G01*
X7960000Y-5450000D02*
X8160000Y-5450000D01*
X8160000Y-7700000D01*
X7960000Y-7700000D01*
X7960000Y-5450000D01*
X7040000Y-8700000D02*
X7240000Y-8700000D01*
X7240000Y-10950000D01*
X7040000Y-10950000D01*
X7040000Y-8700000D01*
X15320000Y-5450000D02*
X15520000Y-5450000D01*
X15520000Y-7700000D01*
X15320000Y-7700000D01*
X15320000Y-5450000D01*
X16240000Y-5450000D02*
X16440000Y-5450000D01*
X16440000Y-7700000D01*
X16240000Y-7700000D01*
X16240000Y-5450000D01*
X6120000Y-5450000D02*
X6320000Y-5450000D01*
X6320000Y-7700000D01*
X6120000Y-7700000D01*
X6120000Y-5450000D01*
X12560000Y-8700000D02*
X12760000Y-8700000D01*
X12760000Y-10950000D01*
X12560000Y-10950000D01*
X12560000Y-8700000D01*
X18080000Y-8700000D02*
X18280000Y-8700000D01*
X18280000Y-10950000D01*
X18080000Y-10950000D01*
X18080000Y-8700000D01*
X16240000Y-8700000D02*
X16440000Y-8700000D01*
X16440000Y-10950000D01*
X16240000Y-10950000D01*
X16240000Y-8700000D01*
X17160000Y-5450000D02*
X17360000Y-5450000D01*
X17360000Y-7700000D01*
X17160000Y-7700000D01*
X17160000Y-5450000D01*
X8880000Y-5450000D02*
X9080000Y-5450000D01*
X9080000Y-7700000D01*
X8880000Y-7700000D01*
X8880000Y-5450000D01*
X19825000Y-5250000D02*
G75*
G03*
X19375000Y-5250000I-225000J0D01*
G01*
X19375000Y-5250000D02*
G75*
G03*
X19825000Y-5250000I225000J0D01*
G01*
X10720000Y-8700000D02*
X10920000Y-8700000D01*
X10920000Y-10950000D01*
X10720000Y-10950000D01*
X10720000Y-8700000D01*
X5025000Y-5250000D02*
G75*
G03*
X4575000Y-5250000I-225000J0D01*
G01*
X4575000Y-5250000D02*
G75*
G03*
X5025000Y-5250000I225000J0D01*
G01*
X11640000Y-5450000D02*
X11840000Y-5450000D01*
X11840000Y-7700000D01*
X11640000Y-7700000D01*
X11640000Y-5450000D01*
X11640000Y-8700000D02*
X11840000Y-8700000D01*
X11840000Y-10950000D01*
X11640000Y-10950000D01*
X11640000Y-8700000D01*
X19825000Y-11150000D02*
G75*
G03*
X19375000Y-11150000I-225000J0D01*
G01*
X19375000Y-11150000D02*
G75*
G03*
X19825000Y-11150000I225000J0D01*
G01*
X14400000Y-8700000D02*
X14600000Y-8700000D01*
X14600000Y-10950000D01*
X14400000Y-10950000D01*
X14400000Y-8700000D01*
X15320000Y-8700000D02*
X15520000Y-8700000D01*
X15520000Y-10950000D01*
X15320000Y-10950000D01*
X15320000Y-8700000D01*
X17160000Y-8700000D02*
X17360000Y-8700000D01*
X17360000Y-10950000D01*
X17160000Y-10950000D01*
X17160000Y-8700000D01*
X7960000Y-8700000D02*
X8160000Y-8700000D01*
X8160000Y-10950000D01*
X7960000Y-10950000D01*
X7960000Y-8700000D01*
X9800000Y-5450000D02*
X10000000Y-5450000D01*
X10000000Y-7700000D01*
X9800000Y-7700000D01*
X9800000Y-5450000D01*
X4400000Y-4800000D02*
X20000000Y-4800000D01*
X20000000Y-11600000D01*
X4400000Y-11600000D01*
X4400000Y-4800000D01*
X8880000Y-8700000D02*
X9080000Y-8700000D01*
X9080000Y-10950000D01*
X8880000Y-10950000D01*
X8880000Y-8700000D01*
X13480000Y-5450000D02*
X13680000Y-5450000D01*
X13680000Y-7700000D01*
X13480000Y-7700000D01*
X13480000Y-5450000D01*
D11*
D12*
X11714001Y-8165000D02*
X11784001Y-8235000D01*
X11784001Y-8165000D02*
X11714001Y-8235000D01*
X12695999Y-8200000D02*
G75*
G03*
X12605999Y-8200000I-45000J0D01*
G01*
X12605999Y-8200000D02*
G75*
G03*
X12695999Y-8200000I45000J0D01*
G01*
D11*
X4658277Y-11913984D02*
X4658277Y-11713984D01*
X4658277Y-11713984D02*
X4705896Y-11713984D01*
X4705896Y-11713984D02*
X4734467Y-11723508D01*
X4734467Y-11723508D02*
X4753515Y-11742555D01*
X4753515Y-11742555D02*
X4763039Y-11761603D01*
X4763039Y-11761603D02*
X4772563Y-11799698D01*
X4772563Y-11799698D02*
X4772563Y-11828269D01*
X4772563Y-11828269D02*
X4763039Y-11866365D01*
X4763039Y-11866365D02*
X4753515Y-11885412D01*
X4753515Y-11885412D02*
X4734467Y-11904460D01*
X4734467Y-11904460D02*
X4705896Y-11913984D01*
X4705896Y-11913984D02*
X4658277Y-11913984D01*
X4858277Y-11913984D02*
X4858277Y-11780650D01*
X4858277Y-11818746D02*
X4867801Y-11799698D01*
X4867801Y-11799698D02*
X4877324Y-11790174D01*
X4877324Y-11790174D02*
X4896372Y-11780650D01*
X4896372Y-11780650D02*
X4915420Y-11780650D01*
X4982086Y-11913984D02*
X4982086Y-11780650D01*
X4982086Y-11713984D02*
X4972563Y-11723508D01*
X4972563Y-11723508D02*
X4982086Y-11733031D01*
X4982086Y-11733031D02*
X4991610Y-11723508D01*
X4991610Y-11723508D02*
X4982086Y-11713984D01*
X4982086Y-11713984D02*
X4982086Y-11733031D01*
X5105896Y-11913984D02*
X5086848Y-11904460D01*
X5086848Y-11904460D02*
X5077324Y-11885412D01*
X5077324Y-11885412D02*
X5077324Y-11713984D01*
X5210658Y-11913984D02*
X5191610Y-11904460D01*
X5191610Y-11904460D02*
X5182086Y-11885412D01*
X5182086Y-11885412D02*
X5182086Y-11713984D01*
X5439229Y-11913984D02*
X5439229Y-11713984D01*
X5439229Y-11713984D02*
X5505896Y-11856841D01*
X5505896Y-11856841D02*
X5572563Y-11713984D01*
X5572563Y-11713984D02*
X5572563Y-11913984D01*
X5753515Y-11913984D02*
X5753515Y-11809222D01*
X5753515Y-11809222D02*
X5743991Y-11790174D01*
X5743991Y-11790174D02*
X5724943Y-11780650D01*
X5724943Y-11780650D02*
X5686848Y-11780650D01*
X5686848Y-11780650D02*
X5667801Y-11790174D01*
X5753515Y-11904460D02*
X5734467Y-11913984D01*
X5734467Y-11913984D02*
X5686848Y-11913984D01*
X5686848Y-11913984D02*
X5667801Y-11904460D01*
X5667801Y-11904460D02*
X5658277Y-11885412D01*
X5658277Y-11885412D02*
X5658277Y-11866365D01*
X5658277Y-11866365D02*
X5667801Y-11847317D01*
X5667801Y-11847317D02*
X5686848Y-11837793D01*
X5686848Y-11837793D02*
X5734467Y-11837793D01*
X5734467Y-11837793D02*
X5753515Y-11828269D01*
X5848753Y-11780650D02*
X5848753Y-11980650D01*
X5848753Y-11790174D02*
X5867801Y-11780650D01*
X5867801Y-11780650D02*
X5905896Y-11780650D01*
X5905896Y-11780650D02*
X5924943Y-11790174D01*
X5924943Y-11790174D02*
X5934467Y-11799698D01*
X5934467Y-11799698D02*
X5943991Y-11818746D01*
X5943991Y-11818746D02*
X5943991Y-11875888D01*
X5943991Y-11875888D02*
X5934467Y-11894936D01*
X5934467Y-11894936D02*
X5924943Y-11904460D01*
X5924943Y-11904460D02*
X5905896Y-11913984D01*
X5905896Y-11913984D02*
X5867801Y-11913984D01*
X5867801Y-11913984D02*
X5848753Y-11904460D01*
X6029705Y-11894936D02*
X6039229Y-11904460D01*
X6039229Y-11904460D02*
X6029705Y-11913984D01*
X6029705Y-11913984D02*
X6020182Y-11904460D01*
X6020182Y-11904460D02*
X6029705Y-11894936D01*
X6029705Y-11894936D02*
X6029705Y-11913984D01*
X6029705Y-11790174D02*
X6039229Y-11799698D01*
X6039229Y-11799698D02*
X6029705Y-11809222D01*
X6029705Y-11809222D02*
X6020182Y-11799698D01*
X6020182Y-11799698D02*
X6029705Y-11790174D01*
X6029705Y-11790174D02*
X6029705Y-11809222D01*
D12*
X4327500Y-12207500D02*
X4397500Y-12277500D01*
X4397500Y-12207500D02*
X4327500Y-12277500D01*
D11*
X4696372Y-12133984D02*
X4715420Y-12133984D01*
X4715420Y-12133984D02*
X4734467Y-12143508D01*
X4734467Y-12143508D02*
X4743991Y-12153031D01*
X4743991Y-12153031D02*
X4753515Y-12172079D01*
X4753515Y-12172079D02*
X4763039Y-12210174D01*
X4763039Y-12210174D02*
X4763039Y-12257793D01*
X4763039Y-12257793D02*
X4753515Y-12295888D01*
X4753515Y-12295888D02*
X4743991Y-12314936D01*
X4743991Y-12314936D02*
X4734467Y-12324460D01*
X4734467Y-12324460D02*
X4715420Y-12333984D01*
X4715420Y-12333984D02*
X4696372Y-12333984D01*
X4696372Y-12333984D02*
X4677324Y-12324460D01*
X4677324Y-12324460D02*
X4667801Y-12314936D01*
X4667801Y-12314936D02*
X4658277Y-12295888D01*
X4658277Y-12295888D02*
X4648753Y-12257793D01*
X4648753Y-12257793D02*
X4648753Y-12210174D01*
X4648753Y-12210174D02*
X4658277Y-12172079D01*
X4658277Y-12172079D02*
X4667801Y-12153031D01*
X4667801Y-12153031D02*
X4677324Y-12143508D01*
X4677324Y-12143508D02*
X4696372Y-12133984D01*
X4848753Y-12314936D02*
X4858277Y-12324460D01*
X4858277Y-12324460D02*
X4848753Y-12333984D01*
X4848753Y-12333984D02*
X4839229Y-12324460D01*
X4839229Y-12324460D02*
X4848753Y-12314936D01*
X4848753Y-12314936D02*
X4848753Y-12333984D01*
X4924944Y-12133984D02*
X5058277Y-12133984D01*
X5058277Y-12133984D02*
X4972563Y-12333984D01*
X5172563Y-12133984D02*
X5191610Y-12133984D01*
X5191610Y-12133984D02*
X5210658Y-12143508D01*
X5210658Y-12143508D02*
X5220182Y-12153031D01*
X5220182Y-12153031D02*
X5229705Y-12172079D01*
X5229705Y-12172079D02*
X5239229Y-12210174D01*
X5239229Y-12210174D02*
X5239229Y-12257793D01*
X5239229Y-12257793D02*
X5229705Y-12295888D01*
X5229705Y-12295888D02*
X5220182Y-12314936D01*
X5220182Y-12314936D02*
X5210658Y-12324460D01*
X5210658Y-12324460D02*
X5191610Y-12333984D01*
X5191610Y-12333984D02*
X5172563Y-12333984D01*
X5172563Y-12333984D02*
X5153515Y-12324460D01*
X5153515Y-12324460D02*
X5143991Y-12314936D01*
X5143991Y-12314936D02*
X5134467Y-12295888D01*
X5134467Y-12295888D02*
X5124944Y-12257793D01*
X5124944Y-12257793D02*
X5124944Y-12210174D01*
X5124944Y-12210174D02*
X5134467Y-12172079D01*
X5134467Y-12172079D02*
X5143991Y-12153031D01*
X5143991Y-12153031D02*
X5153515Y-12143508D01*
X5153515Y-12143508D02*
X5172563Y-12133984D01*
X5363039Y-12133984D02*
X5382086Y-12133984D01*
X5382086Y-12133984D02*
X5401134Y-12143508D01*
X5401134Y-12143508D02*
X5410658Y-12153031D01*
X5410658Y-12153031D02*
X5420182Y-12172079D01*
X5420182Y-12172079D02*
X5429705Y-12210174D01*
X5429705Y-12210174D02*
X5429705Y-12257793D01*
X5429705Y-12257793D02*
X5420182Y-12295888D01*
X5420182Y-12295888D02*
X5410658Y-12314936D01*
X5410658Y-12314936D02*
X5401134Y-12324460D01*
X5401134Y-12324460D02*
X5382086Y-12333984D01*
X5382086Y-12333984D02*
X5363039Y-12333984D01*
X5363039Y-12333984D02*
X5343991Y-12324460D01*
X5343991Y-12324460D02*
X5334467Y-12314936D01*
X5334467Y-12314936D02*
X5324944Y-12295888D01*
X5324944Y-12295888D02*
X5315420Y-12257793D01*
X5315420Y-12257793D02*
X5315420Y-12210174D01*
X5315420Y-12210174D02*
X5324944Y-12172079D01*
X5324944Y-12172079D02*
X5334467Y-12153031D01*
X5334467Y-12153031D02*
X5343991Y-12143508D01*
X5343991Y-12143508D02*
X5363039Y-12133984D01*
X5515420Y-12333984D02*
X5515420Y-12200650D01*
X5515420Y-12219698D02*
X5524944Y-12210174D01*
X5524944Y-12210174D02*
X5543991Y-12200650D01*
X5543991Y-12200650D02*
X5572563Y-12200650D01*
X5572563Y-12200650D02*
X5591610Y-12210174D01*
X5591610Y-12210174D02*
X5601134Y-12229222D01*
X5601134Y-12229222D02*
X5601134Y-12333984D01*
X5601134Y-12229222D02*
X5610658Y-12210174D01*
X5610658Y-12210174D02*
X5629705Y-12200650D01*
X5629705Y-12200650D02*
X5658277Y-12200650D01*
X5658277Y-12200650D02*
X5677324Y-12210174D01*
X5677324Y-12210174D02*
X5686848Y-12229222D01*
X5686848Y-12229222D02*
X5686848Y-12333984D01*
X5782086Y-12333984D02*
X5782086Y-12200650D01*
X5782086Y-12219698D02*
X5791610Y-12210174D01*
X5791610Y-12210174D02*
X5810658Y-12200650D01*
X5810658Y-12200650D02*
X5839229Y-12200650D01*
X5839229Y-12200650D02*
X5858277Y-12210174D01*
X5858277Y-12210174D02*
X5867801Y-12229222D01*
X5867801Y-12229222D02*
X5867801Y-12333984D01*
X5867801Y-12229222D02*
X5877324Y-12210174D01*
X5877324Y-12210174D02*
X5896372Y-12200650D01*
X5896372Y-12200650D02*
X5924943Y-12200650D01*
X5924943Y-12200650D02*
X5943991Y-12210174D01*
X5943991Y-12210174D02*
X5953515Y-12229222D01*
X5953515Y-12229222D02*
X5953515Y-12333984D01*
X6343991Y-12124460D02*
X6172563Y-12381603D01*
X6601134Y-12133984D02*
X6620182Y-12133984D01*
X6620182Y-12133984D02*
X6639229Y-12143508D01*
X6639229Y-12143508D02*
X6648753Y-12153031D01*
X6648753Y-12153031D02*
X6658277Y-12172079D01*
X6658277Y-12172079D02*
X6667801Y-12210174D01*
X6667801Y-12210174D02*
X6667801Y-12257793D01*
X6667801Y-12257793D02*
X6658277Y-12295888D01*
X6658277Y-12295888D02*
X6648753Y-12314936D01*
X6648753Y-12314936D02*
X6639229Y-12324460D01*
X6639229Y-12324460D02*
X6620182Y-12333984D01*
X6620182Y-12333984D02*
X6601134Y-12333984D01*
X6601134Y-12333984D02*
X6582086Y-12324460D01*
X6582086Y-12324460D02*
X6572563Y-12314936D01*
X6572563Y-12314936D02*
X6563039Y-12295888D01*
X6563039Y-12295888D02*
X6553515Y-12257793D01*
X6553515Y-12257793D02*
X6553515Y-12210174D01*
X6553515Y-12210174D02*
X6563039Y-12172079D01*
X6563039Y-12172079D02*
X6572563Y-12153031D01*
X6572563Y-12153031D02*
X6582086Y-12143508D01*
X6582086Y-12143508D02*
X6601134Y-12133984D01*
X6753515Y-12314936D02*
X6763039Y-12324460D01*
X6763039Y-12324460D02*
X6753515Y-12333984D01*
X6753515Y-12333984D02*
X6743991Y-12324460D01*
X6743991Y-12324460D02*
X6753515Y-12314936D01*
X6753515Y-12314936D02*
X6753515Y-12333984D01*
X6886848Y-12133984D02*
X6905896Y-12133984D01*
X6905896Y-12133984D02*
X6924944Y-12143508D01*
X6924944Y-12143508D02*
X6934467Y-12153031D01*
X6934467Y-12153031D02*
X6943991Y-12172079D01*
X6943991Y-12172079D02*
X6953515Y-12210174D01*
X6953515Y-12210174D02*
X6953515Y-12257793D01*
X6953515Y-12257793D02*
X6943991Y-12295888D01*
X6943991Y-12295888D02*
X6934467Y-12314936D01*
X6934467Y-12314936D02*
X6924944Y-12324460D01*
X6924944Y-12324460D02*
X6905896Y-12333984D01*
X6905896Y-12333984D02*
X6886848Y-12333984D01*
X6886848Y-12333984D02*
X6867801Y-12324460D01*
X6867801Y-12324460D02*
X6858277Y-12314936D01*
X6858277Y-12314936D02*
X6848753Y-12295888D01*
X6848753Y-12295888D02*
X6839229Y-12257793D01*
X6839229Y-12257793D02*
X6839229Y-12210174D01*
X6839229Y-12210174D02*
X6848753Y-12172079D01*
X6848753Y-12172079D02*
X6858277Y-12153031D01*
X6858277Y-12153031D02*
X6867801Y-12143508D01*
X6867801Y-12143508D02*
X6886848Y-12133984D01*
X7029706Y-12153031D02*
X7039229Y-12143508D01*
X7039229Y-12143508D02*
X7058277Y-12133984D01*
X7058277Y-12133984D02*
X7105896Y-12133984D01*
X7105896Y-12133984D02*
X7124944Y-12143508D01*
X7124944Y-12143508D02*
X7134467Y-12153031D01*
X7134467Y-12153031D02*
X7143991Y-12172079D01*
X7143991Y-12172079D02*
X7143991Y-12191127D01*
X7143991Y-12191127D02*
X7134467Y-12219698D01*
X7134467Y-12219698D02*
X7020182Y-12333984D01*
X7020182Y-12333984D02*
X7143991Y-12333984D01*
X7210658Y-12133984D02*
X7343991Y-12133984D01*
X7343991Y-12133984D02*
X7258277Y-12333984D01*
X7505896Y-12133984D02*
X7467801Y-12133984D01*
X7467801Y-12133984D02*
X7448753Y-12143508D01*
X7448753Y-12143508D02*
X7439229Y-12153031D01*
X7439229Y-12153031D02*
X7420182Y-12181603D01*
X7420182Y-12181603D02*
X7410658Y-12219698D01*
X7410658Y-12219698D02*
X7410658Y-12295888D01*
X7410658Y-12295888D02*
X7420182Y-12314936D01*
X7420182Y-12314936D02*
X7429706Y-12324460D01*
X7429706Y-12324460D02*
X7448753Y-12333984D01*
X7448753Y-12333984D02*
X7486848Y-12333984D01*
X7486848Y-12333984D02*
X7505896Y-12324460D01*
X7505896Y-12324460D02*
X7515420Y-12314936D01*
X7515420Y-12314936D02*
X7524944Y-12295888D01*
X7524944Y-12295888D02*
X7524944Y-12248269D01*
X7524944Y-12248269D02*
X7515420Y-12229222D01*
X7515420Y-12229222D02*
X7505896Y-12219698D01*
X7505896Y-12219698D02*
X7486848Y-12210174D01*
X7486848Y-12210174D02*
X7448753Y-12210174D01*
X7448753Y-12210174D02*
X7429706Y-12219698D01*
X7429706Y-12219698D02*
X7420182Y-12229222D01*
X7420182Y-12229222D02*
X7410658Y-12248269D01*
X7601134Y-12133984D02*
X7601134Y-12172079D01*
X7677325Y-12133984D02*
X7677325Y-12172079D01*
X7972563Y-12410174D02*
X7963039Y-12400650D01*
X7963039Y-12400650D02*
X7943991Y-12372079D01*
X7943991Y-12372079D02*
X7934468Y-12353031D01*
X7934468Y-12353031D02*
X7924944Y-12324460D01*
X7924944Y-12324460D02*
X7915420Y-12276841D01*
X7915420Y-12276841D02*
X7915420Y-12238746D01*
X7915420Y-12238746D02*
X7924944Y-12191127D01*
X7924944Y-12191127D02*
X7934468Y-12162555D01*
X7934468Y-12162555D02*
X7943991Y-12143508D01*
X7943991Y-12143508D02*
X7963039Y-12114936D01*
X7963039Y-12114936D02*
X7972563Y-12105412D01*
X8153515Y-12333984D02*
X8039229Y-12333984D01*
X8096372Y-12333984D02*
X8096372Y-12133984D01*
X8096372Y-12133984D02*
X8077325Y-12162555D01*
X8077325Y-12162555D02*
X8058277Y-12181603D01*
X8058277Y-12181603D02*
X8039229Y-12191127D01*
X8391611Y-12333984D02*
X8391611Y-12133984D01*
X8477325Y-12333984D02*
X8477325Y-12229222D01*
X8477325Y-12229222D02*
X8467801Y-12210174D01*
X8467801Y-12210174D02*
X8448753Y-12200650D01*
X8448753Y-12200650D02*
X8420182Y-12200650D01*
X8420182Y-12200650D02*
X8401134Y-12210174D01*
X8401134Y-12210174D02*
X8391611Y-12219698D01*
X8601134Y-12333984D02*
X8582087Y-12324460D01*
X8582087Y-12324460D02*
X8572563Y-12314936D01*
X8572563Y-12314936D02*
X8563039Y-12295888D01*
X8563039Y-12295888D02*
X8563039Y-12238746D01*
X8563039Y-12238746D02*
X8572563Y-12219698D01*
X8572563Y-12219698D02*
X8582087Y-12210174D01*
X8582087Y-12210174D02*
X8601134Y-12200650D01*
X8601134Y-12200650D02*
X8629706Y-12200650D01*
X8629706Y-12200650D02*
X8648753Y-12210174D01*
X8648753Y-12210174D02*
X8658277Y-12219698D01*
X8658277Y-12219698D02*
X8667801Y-12238746D01*
X8667801Y-12238746D02*
X8667801Y-12295888D01*
X8667801Y-12295888D02*
X8658277Y-12314936D01*
X8658277Y-12314936D02*
X8648753Y-12324460D01*
X8648753Y-12324460D02*
X8629706Y-12333984D01*
X8629706Y-12333984D02*
X8601134Y-12333984D01*
X8782087Y-12333984D02*
X8763039Y-12324460D01*
X8763039Y-12324460D02*
X8753515Y-12305412D01*
X8753515Y-12305412D02*
X8753515Y-12133984D01*
X8934468Y-12324460D02*
X8915420Y-12333984D01*
X8915420Y-12333984D02*
X8877325Y-12333984D01*
X8877325Y-12333984D02*
X8858277Y-12324460D01*
X8858277Y-12324460D02*
X8848753Y-12305412D01*
X8848753Y-12305412D02*
X8848753Y-12229222D01*
X8848753Y-12229222D02*
X8858277Y-12210174D01*
X8858277Y-12210174D02*
X8877325Y-12200650D01*
X8877325Y-12200650D02*
X8915420Y-12200650D01*
X8915420Y-12200650D02*
X8934468Y-12210174D01*
X8934468Y-12210174D02*
X8943992Y-12229222D01*
X8943992Y-12229222D02*
X8943992Y-12248269D01*
X8943992Y-12248269D02*
X8848753Y-12267317D01*
X9010658Y-12410174D02*
X9020182Y-12400650D01*
X9020182Y-12400650D02*
X9039230Y-12372079D01*
X9039230Y-12372079D02*
X9048753Y-12353031D01*
X9048753Y-12353031D02*
X9058277Y-12324460D01*
X9058277Y-12324460D02*
X9067801Y-12276841D01*
X9067801Y-12276841D02*
X9067801Y-12238746D01*
X9067801Y-12238746D02*
X9058277Y-12191127D01*
X9058277Y-12191127D02*
X9048753Y-12162555D01*
X9048753Y-12162555D02*
X9039230Y-12143508D01*
X9039230Y-12143508D02*
X9020182Y-12114936D01*
X9020182Y-12114936D02*
X9010658Y-12105412D01*
X9372563Y-12410174D02*
X9363039Y-12400650D01*
X9363039Y-12400650D02*
X9343992Y-12372079D01*
X9343992Y-12372079D02*
X9334468Y-12353031D01*
X9334468Y-12353031D02*
X9324944Y-12324460D01*
X9324944Y-12324460D02*
X9315420Y-12276841D01*
X9315420Y-12276841D02*
X9315420Y-12238746D01*
X9315420Y-12238746D02*
X9324944Y-12191127D01*
X9324944Y-12191127D02*
X9334468Y-12162555D01*
X9334468Y-12162555D02*
X9343992Y-12143508D01*
X9343992Y-12143508D02*
X9363039Y-12114936D01*
X9363039Y-12114936D02*
X9372563Y-12105412D01*
X9448753Y-12200650D02*
X9448753Y-12333984D01*
X9448753Y-12219698D02*
X9458277Y-12210174D01*
X9458277Y-12210174D02*
X9477325Y-12200650D01*
X9477325Y-12200650D02*
X9505896Y-12200650D01*
X9505896Y-12200650D02*
X9524944Y-12210174D01*
X9524944Y-12210174D02*
X9534468Y-12229222D01*
X9534468Y-12229222D02*
X9534468Y-12333984D01*
X9658277Y-12333984D02*
X9639230Y-12324460D01*
X9639230Y-12324460D02*
X9629706Y-12314936D01*
X9629706Y-12314936D02*
X9620182Y-12295888D01*
X9620182Y-12295888D02*
X9620182Y-12238746D01*
X9620182Y-12238746D02*
X9629706Y-12219698D01*
X9629706Y-12219698D02*
X9639230Y-12210174D01*
X9639230Y-12210174D02*
X9658277Y-12200650D01*
X9658277Y-12200650D02*
X9686849Y-12200650D01*
X9686849Y-12200650D02*
X9705896Y-12210174D01*
X9705896Y-12210174D02*
X9715420Y-12219698D01*
X9715420Y-12219698D02*
X9724944Y-12238746D01*
X9724944Y-12238746D02*
X9724944Y-12295888D01*
X9724944Y-12295888D02*
X9715420Y-12314936D01*
X9715420Y-12314936D02*
X9705896Y-12324460D01*
X9705896Y-12324460D02*
X9686849Y-12333984D01*
X9686849Y-12333984D02*
X9658277Y-12333984D01*
X9782087Y-12200650D02*
X9858277Y-12200650D01*
X9810658Y-12133984D02*
X9810658Y-12305412D01*
X9810658Y-12305412D02*
X9820182Y-12324460D01*
X9820182Y-12324460D02*
X9839230Y-12333984D01*
X9839230Y-12333984D02*
X9858277Y-12333984D01*
X10077325Y-12200650D02*
X10077325Y-12400650D01*
X10077325Y-12210174D02*
X10096373Y-12200650D01*
X10096373Y-12200650D02*
X10134468Y-12200650D01*
X10134468Y-12200650D02*
X10153515Y-12210174D01*
X10153515Y-12210174D02*
X10163039Y-12219698D01*
X10163039Y-12219698D02*
X10172563Y-12238746D01*
X10172563Y-12238746D02*
X10172563Y-12295888D01*
X10172563Y-12295888D02*
X10163039Y-12314936D01*
X10163039Y-12314936D02*
X10153515Y-12324460D01*
X10153515Y-12324460D02*
X10134468Y-12333984D01*
X10134468Y-12333984D02*
X10096373Y-12333984D01*
X10096373Y-12333984D02*
X10077325Y-12324460D01*
X10286849Y-12333984D02*
X10267801Y-12324460D01*
X10267801Y-12324460D02*
X10258277Y-12305412D01*
X10258277Y-12305412D02*
X10258277Y-12133984D01*
X10448754Y-12333984D02*
X10448754Y-12229222D01*
X10448754Y-12229222D02*
X10439230Y-12210174D01*
X10439230Y-12210174D02*
X10420182Y-12200650D01*
X10420182Y-12200650D02*
X10382087Y-12200650D01*
X10382087Y-12200650D02*
X10363039Y-12210174D01*
X10448754Y-12324460D02*
X10429706Y-12333984D01*
X10429706Y-12333984D02*
X10382087Y-12333984D01*
X10382087Y-12333984D02*
X10363039Y-12324460D01*
X10363039Y-12324460D02*
X10353515Y-12305412D01*
X10353515Y-12305412D02*
X10353515Y-12286365D01*
X10353515Y-12286365D02*
X10363039Y-12267317D01*
X10363039Y-12267317D02*
X10382087Y-12257793D01*
X10382087Y-12257793D02*
X10429706Y-12257793D01*
X10429706Y-12257793D02*
X10448754Y-12248269D01*
X10515420Y-12200650D02*
X10591611Y-12200650D01*
X10543992Y-12133984D02*
X10543992Y-12305412D01*
X10543992Y-12305412D02*
X10553515Y-12324460D01*
X10553515Y-12324460D02*
X10572563Y-12333984D01*
X10572563Y-12333984D02*
X10591611Y-12333984D01*
X10734468Y-12324460D02*
X10715420Y-12333984D01*
X10715420Y-12333984D02*
X10677325Y-12333984D01*
X10677325Y-12333984D02*
X10658277Y-12324460D01*
X10658277Y-12324460D02*
X10648754Y-12305412D01*
X10648754Y-12305412D02*
X10648754Y-12229222D01*
X10648754Y-12229222D02*
X10658277Y-12210174D01*
X10658277Y-12210174D02*
X10677325Y-12200650D01*
X10677325Y-12200650D02*
X10715420Y-12200650D01*
X10715420Y-12200650D02*
X10734468Y-12210174D01*
X10734468Y-12210174D02*
X10743992Y-12229222D01*
X10743992Y-12229222D02*
X10743992Y-12248269D01*
X10743992Y-12248269D02*
X10648754Y-12267317D01*
X10915420Y-12333984D02*
X10915420Y-12133984D01*
X10915420Y-12324460D02*
X10896373Y-12333984D01*
X10896373Y-12333984D02*
X10858277Y-12333984D01*
X10858277Y-12333984D02*
X10839230Y-12324460D01*
X10839230Y-12324460D02*
X10829706Y-12314936D01*
X10829706Y-12314936D02*
X10820182Y-12295888D01*
X10820182Y-12295888D02*
X10820182Y-12238746D01*
X10820182Y-12238746D02*
X10829706Y-12219698D01*
X10829706Y-12219698D02*
X10839230Y-12210174D01*
X10839230Y-12210174D02*
X10858277Y-12200650D01*
X10858277Y-12200650D02*
X10896373Y-12200650D01*
X10896373Y-12200650D02*
X10915420Y-12210174D01*
X10991611Y-12410174D02*
X11001135Y-12400650D01*
X11001135Y-12400650D02*
X11020182Y-12372079D01*
X11020182Y-12372079D02*
X11029706Y-12353031D01*
X11029706Y-12353031D02*
X11039230Y-12324460D01*
X11039230Y-12324460D02*
X11048754Y-12276841D01*
X11048754Y-12276841D02*
X11048754Y-12238746D01*
X11048754Y-12238746D02*
X11039230Y-12191127D01*
X11039230Y-12191127D02*
X11029706Y-12162555D01*
X11029706Y-12162555D02*
X11020182Y-12143508D01*
X11020182Y-12143508D02*
X11001135Y-12114936D01*
X11001135Y-12114936D02*
X10991611Y-12105412D01*
D12*
X4397500Y-12506500D02*
G75*
G03*
X4307500Y-12506500I-45000J0D01*
G01*
X4307500Y-12506500D02*
G75*
G03*
X4397500Y-12506500I45000J0D01*
G01*
D11*
X4696372Y-12397984D02*
X4715420Y-12397984D01*
X4715420Y-12397984D02*
X4734467Y-12407508D01*
X4734467Y-12407508D02*
X4743991Y-12417031D01*
X4743991Y-12417031D02*
X4753515Y-12436079D01*
X4753515Y-12436079D02*
X4763039Y-12474174D01*
X4763039Y-12474174D02*
X4763039Y-12521793D01*
X4763039Y-12521793D02*
X4753515Y-12559888D01*
X4753515Y-12559888D02*
X4743991Y-12578936D01*
X4743991Y-12578936D02*
X4734467Y-12588460D01*
X4734467Y-12588460D02*
X4715420Y-12597984D01*
X4715420Y-12597984D02*
X4696372Y-12597984D01*
X4696372Y-12597984D02*
X4677324Y-12588460D01*
X4677324Y-12588460D02*
X4667801Y-12578936D01*
X4667801Y-12578936D02*
X4658277Y-12559888D01*
X4658277Y-12559888D02*
X4648753Y-12521793D01*
X4648753Y-12521793D02*
X4648753Y-12474174D01*
X4648753Y-12474174D02*
X4658277Y-12436079D01*
X4658277Y-12436079D02*
X4667801Y-12417031D01*
X4667801Y-12417031D02*
X4677324Y-12407508D01*
X4677324Y-12407508D02*
X4696372Y-12397984D01*
X4848753Y-12578936D02*
X4858277Y-12588460D01*
X4858277Y-12588460D02*
X4848753Y-12597984D01*
X4848753Y-12597984D02*
X4839229Y-12588460D01*
X4839229Y-12588460D02*
X4848753Y-12578936D01*
X4848753Y-12578936D02*
X4848753Y-12597984D01*
X4953515Y-12597984D02*
X4991610Y-12597984D01*
X4991610Y-12597984D02*
X5010658Y-12588460D01*
X5010658Y-12588460D02*
X5020182Y-12578936D01*
X5020182Y-12578936D02*
X5039229Y-12550365D01*
X5039229Y-12550365D02*
X5048753Y-12512269D01*
X5048753Y-12512269D02*
X5048753Y-12436079D01*
X5048753Y-12436079D02*
X5039229Y-12417031D01*
X5039229Y-12417031D02*
X5029705Y-12407508D01*
X5029705Y-12407508D02*
X5010658Y-12397984D01*
X5010658Y-12397984D02*
X4972563Y-12397984D01*
X4972563Y-12397984D02*
X4953515Y-12407508D01*
X4953515Y-12407508D02*
X4943991Y-12417031D01*
X4943991Y-12417031D02*
X4934467Y-12436079D01*
X4934467Y-12436079D02*
X4934467Y-12483698D01*
X4934467Y-12483698D02*
X4943991Y-12502746D01*
X4943991Y-12502746D02*
X4953515Y-12512269D01*
X4953515Y-12512269D02*
X4972563Y-12521793D01*
X4972563Y-12521793D02*
X5010658Y-12521793D01*
X5010658Y-12521793D02*
X5029705Y-12512269D01*
X5029705Y-12512269D02*
X5039229Y-12502746D01*
X5039229Y-12502746D02*
X5048753Y-12483698D01*
X5172563Y-12397984D02*
X5191610Y-12397984D01*
X5191610Y-12397984D02*
X5210658Y-12407508D01*
X5210658Y-12407508D02*
X5220182Y-12417031D01*
X5220182Y-12417031D02*
X5229705Y-12436079D01*
X5229705Y-12436079D02*
X5239229Y-12474174D01*
X5239229Y-12474174D02*
X5239229Y-12521793D01*
X5239229Y-12521793D02*
X5229705Y-12559888D01*
X5229705Y-12559888D02*
X5220182Y-12578936D01*
X5220182Y-12578936D02*
X5210658Y-12588460D01*
X5210658Y-12588460D02*
X5191610Y-12597984D01*
X5191610Y-12597984D02*
X5172563Y-12597984D01*
X5172563Y-12597984D02*
X5153515Y-12588460D01*
X5153515Y-12588460D02*
X5143991Y-12578936D01*
X5143991Y-12578936D02*
X5134467Y-12559888D01*
X5134467Y-12559888D02*
X5124944Y-12521793D01*
X5124944Y-12521793D02*
X5124944Y-12474174D01*
X5124944Y-12474174D02*
X5134467Y-12436079D01*
X5134467Y-12436079D02*
X5143991Y-12417031D01*
X5143991Y-12417031D02*
X5153515Y-12407508D01*
X5153515Y-12407508D02*
X5172563Y-12397984D01*
X5363039Y-12397984D02*
X5382086Y-12397984D01*
X5382086Y-12397984D02*
X5401134Y-12407508D01*
X5401134Y-12407508D02*
X5410658Y-12417031D01*
X5410658Y-12417031D02*
X5420182Y-12436079D01*
X5420182Y-12436079D02*
X5429705Y-12474174D01*
X5429705Y-12474174D02*
X5429705Y-12521793D01*
X5429705Y-12521793D02*
X5420182Y-12559888D01*
X5420182Y-12559888D02*
X5410658Y-12578936D01*
X5410658Y-12578936D02*
X5401134Y-12588460D01*
X5401134Y-12588460D02*
X5382086Y-12597984D01*
X5382086Y-12597984D02*
X5363039Y-12597984D01*
X5363039Y-12597984D02*
X5343991Y-12588460D01*
X5343991Y-12588460D02*
X5334467Y-12578936D01*
X5334467Y-12578936D02*
X5324944Y-12559888D01*
X5324944Y-12559888D02*
X5315420Y-12521793D01*
X5315420Y-12521793D02*
X5315420Y-12474174D01*
X5315420Y-12474174D02*
X5324944Y-12436079D01*
X5324944Y-12436079D02*
X5334467Y-12417031D01*
X5334467Y-12417031D02*
X5343991Y-12407508D01*
X5343991Y-12407508D02*
X5363039Y-12397984D01*
X5515420Y-12597984D02*
X5515420Y-12464650D01*
X5515420Y-12483698D02*
X5524944Y-12474174D01*
X5524944Y-12474174D02*
X5543991Y-12464650D01*
X5543991Y-12464650D02*
X5572563Y-12464650D01*
X5572563Y-12464650D02*
X5591610Y-12474174D01*
X5591610Y-12474174D02*
X5601134Y-12493222D01*
X5601134Y-12493222D02*
X5601134Y-12597984D01*
X5601134Y-12493222D02*
X5610658Y-12474174D01*
X5610658Y-12474174D02*
X5629705Y-12464650D01*
X5629705Y-12464650D02*
X5658277Y-12464650D01*
X5658277Y-12464650D02*
X5677324Y-12474174D01*
X5677324Y-12474174D02*
X5686848Y-12493222D01*
X5686848Y-12493222D02*
X5686848Y-12597984D01*
X5782086Y-12597984D02*
X5782086Y-12464650D01*
X5782086Y-12483698D02*
X5791610Y-12474174D01*
X5791610Y-12474174D02*
X5810658Y-12464650D01*
X5810658Y-12464650D02*
X5839229Y-12464650D01*
X5839229Y-12464650D02*
X5858277Y-12474174D01*
X5858277Y-12474174D02*
X5867801Y-12493222D01*
X5867801Y-12493222D02*
X5867801Y-12597984D01*
X5867801Y-12493222D02*
X5877324Y-12474174D01*
X5877324Y-12474174D02*
X5896372Y-12464650D01*
X5896372Y-12464650D02*
X5924943Y-12464650D01*
X5924943Y-12464650D02*
X5943991Y-12474174D01*
X5943991Y-12474174D02*
X5953515Y-12493222D01*
X5953515Y-12493222D02*
X5953515Y-12597984D01*
X6343991Y-12388460D02*
X6172563Y-12645603D01*
X6601134Y-12397984D02*
X6620182Y-12397984D01*
X6620182Y-12397984D02*
X6639229Y-12407508D01*
X6639229Y-12407508D02*
X6648753Y-12417031D01*
X6648753Y-12417031D02*
X6658277Y-12436079D01*
X6658277Y-12436079D02*
X6667801Y-12474174D01*
X6667801Y-12474174D02*
X6667801Y-12521793D01*
X6667801Y-12521793D02*
X6658277Y-12559888D01*
X6658277Y-12559888D02*
X6648753Y-12578936D01*
X6648753Y-12578936D02*
X6639229Y-12588460D01*
X6639229Y-12588460D02*
X6620182Y-12597984D01*
X6620182Y-12597984D02*
X6601134Y-12597984D01*
X6601134Y-12597984D02*
X6582086Y-12588460D01*
X6582086Y-12588460D02*
X6572563Y-12578936D01*
X6572563Y-12578936D02*
X6563039Y-12559888D01*
X6563039Y-12559888D02*
X6553515Y-12521793D01*
X6553515Y-12521793D02*
X6553515Y-12474174D01*
X6553515Y-12474174D02*
X6563039Y-12436079D01*
X6563039Y-12436079D02*
X6572563Y-12417031D01*
X6572563Y-12417031D02*
X6582086Y-12407508D01*
X6582086Y-12407508D02*
X6601134Y-12397984D01*
X6753515Y-12578936D02*
X6763039Y-12588460D01*
X6763039Y-12588460D02*
X6753515Y-12597984D01*
X6753515Y-12597984D02*
X6743991Y-12588460D01*
X6743991Y-12588460D02*
X6753515Y-12578936D01*
X6753515Y-12578936D02*
X6753515Y-12597984D01*
X6886848Y-12397984D02*
X6905896Y-12397984D01*
X6905896Y-12397984D02*
X6924944Y-12407508D01*
X6924944Y-12407508D02*
X6934467Y-12417031D01*
X6934467Y-12417031D02*
X6943991Y-12436079D01*
X6943991Y-12436079D02*
X6953515Y-12474174D01*
X6953515Y-12474174D02*
X6953515Y-12521793D01*
X6953515Y-12521793D02*
X6943991Y-12559888D01*
X6943991Y-12559888D02*
X6934467Y-12578936D01*
X6934467Y-12578936D02*
X6924944Y-12588460D01*
X6924944Y-12588460D02*
X6905896Y-12597984D01*
X6905896Y-12597984D02*
X6886848Y-12597984D01*
X6886848Y-12597984D02*
X6867801Y-12588460D01*
X6867801Y-12588460D02*
X6858277Y-12578936D01*
X6858277Y-12578936D02*
X6848753Y-12559888D01*
X6848753Y-12559888D02*
X6839229Y-12521793D01*
X6839229Y-12521793D02*
X6839229Y-12474174D01*
X6839229Y-12474174D02*
X6848753Y-12436079D01*
X6848753Y-12436079D02*
X6858277Y-12417031D01*
X6858277Y-12417031D02*
X6867801Y-12407508D01*
X6867801Y-12407508D02*
X6886848Y-12397984D01*
X7020182Y-12397984D02*
X7143991Y-12397984D01*
X7143991Y-12397984D02*
X7077325Y-12474174D01*
X7077325Y-12474174D02*
X7105896Y-12474174D01*
X7105896Y-12474174D02*
X7124944Y-12483698D01*
X7124944Y-12483698D02*
X7134467Y-12493222D01*
X7134467Y-12493222D02*
X7143991Y-12512269D01*
X7143991Y-12512269D02*
X7143991Y-12559888D01*
X7143991Y-12559888D02*
X7134467Y-12578936D01*
X7134467Y-12578936D02*
X7124944Y-12588460D01*
X7124944Y-12588460D02*
X7105896Y-12597984D01*
X7105896Y-12597984D02*
X7048753Y-12597984D01*
X7048753Y-12597984D02*
X7029706Y-12588460D01*
X7029706Y-12588460D02*
X7020182Y-12578936D01*
X7324944Y-12397984D02*
X7229706Y-12397984D01*
X7229706Y-12397984D02*
X7220182Y-12493222D01*
X7220182Y-12493222D02*
X7229706Y-12483698D01*
X7229706Y-12483698D02*
X7248753Y-12474174D01*
X7248753Y-12474174D02*
X7296372Y-12474174D01*
X7296372Y-12474174D02*
X7315420Y-12483698D01*
X7315420Y-12483698D02*
X7324944Y-12493222D01*
X7324944Y-12493222D02*
X7334467Y-12512269D01*
X7334467Y-12512269D02*
X7334467Y-12559888D01*
X7334467Y-12559888D02*
X7324944Y-12578936D01*
X7324944Y-12578936D02*
X7315420Y-12588460D01*
X7315420Y-12588460D02*
X7296372Y-12597984D01*
X7296372Y-12597984D02*
X7248753Y-12597984D01*
X7248753Y-12597984D02*
X7229706Y-12588460D01*
X7229706Y-12588460D02*
X7220182Y-12578936D01*
X7505896Y-12464650D02*
X7505896Y-12597984D01*
X7458277Y-12388460D02*
X7410658Y-12531317D01*
X7410658Y-12531317D02*
X7534467Y-12531317D01*
X7601134Y-12397984D02*
X7601134Y-12436079D01*
X7677325Y-12397984D02*
X7677325Y-12436079D01*
X7972563Y-12674174D02*
X7963039Y-12664650D01*
X7963039Y-12664650D02*
X7943991Y-12636079D01*
X7943991Y-12636079D02*
X7934468Y-12617031D01*
X7934468Y-12617031D02*
X7924944Y-12588460D01*
X7924944Y-12588460D02*
X7915420Y-12540841D01*
X7915420Y-12540841D02*
X7915420Y-12502746D01*
X7915420Y-12502746D02*
X7924944Y-12455127D01*
X7924944Y-12455127D02*
X7934468Y-12426555D01*
X7934468Y-12426555D02*
X7943991Y-12407508D01*
X7943991Y-12407508D02*
X7963039Y-12378936D01*
X7963039Y-12378936D02*
X7972563Y-12369412D01*
X8153515Y-12597984D02*
X8039229Y-12597984D01*
X8096372Y-12597984D02*
X8096372Y-12397984D01*
X8096372Y-12397984D02*
X8077325Y-12426555D01*
X8077325Y-12426555D02*
X8058277Y-12445603D01*
X8058277Y-12445603D02*
X8039229Y-12455127D01*
X8391611Y-12597984D02*
X8391611Y-12397984D01*
X8477325Y-12597984D02*
X8477325Y-12493222D01*
X8477325Y-12493222D02*
X8467801Y-12474174D01*
X8467801Y-12474174D02*
X8448753Y-12464650D01*
X8448753Y-12464650D02*
X8420182Y-12464650D01*
X8420182Y-12464650D02*
X8401134Y-12474174D01*
X8401134Y-12474174D02*
X8391611Y-12483698D01*
X8601134Y-12597984D02*
X8582087Y-12588460D01*
X8582087Y-12588460D02*
X8572563Y-12578936D01*
X8572563Y-12578936D02*
X8563039Y-12559888D01*
X8563039Y-12559888D02*
X8563039Y-12502746D01*
X8563039Y-12502746D02*
X8572563Y-12483698D01*
X8572563Y-12483698D02*
X8582087Y-12474174D01*
X8582087Y-12474174D02*
X8601134Y-12464650D01*
X8601134Y-12464650D02*
X8629706Y-12464650D01*
X8629706Y-12464650D02*
X8648753Y-12474174D01*
X8648753Y-12474174D02*
X8658277Y-12483698D01*
X8658277Y-12483698D02*
X8667801Y-12502746D01*
X8667801Y-12502746D02*
X8667801Y-12559888D01*
X8667801Y-12559888D02*
X8658277Y-12578936D01*
X8658277Y-12578936D02*
X8648753Y-12588460D01*
X8648753Y-12588460D02*
X8629706Y-12597984D01*
X8629706Y-12597984D02*
X8601134Y-12597984D01*
X8782087Y-12597984D02*
X8763039Y-12588460D01*
X8763039Y-12588460D02*
X8753515Y-12569412D01*
X8753515Y-12569412D02*
X8753515Y-12397984D01*
X8934468Y-12588460D02*
X8915420Y-12597984D01*
X8915420Y-12597984D02*
X8877325Y-12597984D01*
X8877325Y-12597984D02*
X8858277Y-12588460D01*
X8858277Y-12588460D02*
X8848753Y-12569412D01*
X8848753Y-12569412D02*
X8848753Y-12493222D01*
X8848753Y-12493222D02*
X8858277Y-12474174D01*
X8858277Y-12474174D02*
X8877325Y-12464650D01*
X8877325Y-12464650D02*
X8915420Y-12464650D01*
X8915420Y-12464650D02*
X8934468Y-12474174D01*
X8934468Y-12474174D02*
X8943992Y-12493222D01*
X8943992Y-12493222D02*
X8943992Y-12512269D01*
X8943992Y-12512269D02*
X8848753Y-12531317D01*
X9010658Y-12674174D02*
X9020182Y-12664650D01*
X9020182Y-12664650D02*
X9039230Y-12636079D01*
X9039230Y-12636079D02*
X9048753Y-12617031D01*
X9048753Y-12617031D02*
X9058277Y-12588460D01*
X9058277Y-12588460D02*
X9067801Y-12540841D01*
X9067801Y-12540841D02*
X9067801Y-12502746D01*
X9067801Y-12502746D02*
X9058277Y-12455127D01*
X9058277Y-12455127D02*
X9048753Y-12426555D01*
X9048753Y-12426555D02*
X9039230Y-12407508D01*
X9039230Y-12407508D02*
X9020182Y-12378936D01*
X9020182Y-12378936D02*
X9010658Y-12369412D01*
X9372563Y-12674174D02*
X9363039Y-12664650D01*
X9363039Y-12664650D02*
X9343992Y-12636079D01*
X9343992Y-12636079D02*
X9334468Y-12617031D01*
X9334468Y-12617031D02*
X9324944Y-12588460D01*
X9324944Y-12588460D02*
X9315420Y-12540841D01*
X9315420Y-12540841D02*
X9315420Y-12502746D01*
X9315420Y-12502746D02*
X9324944Y-12455127D01*
X9324944Y-12455127D02*
X9334468Y-12426555D01*
X9334468Y-12426555D02*
X9343992Y-12407508D01*
X9343992Y-12407508D02*
X9363039Y-12378936D01*
X9363039Y-12378936D02*
X9372563Y-12369412D01*
X9448753Y-12464650D02*
X9448753Y-12597984D01*
X9448753Y-12483698D02*
X9458277Y-12474174D01*
X9458277Y-12474174D02*
X9477325Y-12464650D01*
X9477325Y-12464650D02*
X9505896Y-12464650D01*
X9505896Y-12464650D02*
X9524944Y-12474174D01*
X9524944Y-12474174D02*
X9534468Y-12493222D01*
X9534468Y-12493222D02*
X9534468Y-12597984D01*
X9658277Y-12597984D02*
X9639230Y-12588460D01*
X9639230Y-12588460D02*
X9629706Y-12578936D01*
X9629706Y-12578936D02*
X9620182Y-12559888D01*
X9620182Y-12559888D02*
X9620182Y-12502746D01*
X9620182Y-12502746D02*
X9629706Y-12483698D01*
X9629706Y-12483698D02*
X9639230Y-12474174D01*
X9639230Y-12474174D02*
X9658277Y-12464650D01*
X9658277Y-12464650D02*
X9686849Y-12464650D01*
X9686849Y-12464650D02*
X9705896Y-12474174D01*
X9705896Y-12474174D02*
X9715420Y-12483698D01*
X9715420Y-12483698D02*
X9724944Y-12502746D01*
X9724944Y-12502746D02*
X9724944Y-12559888D01*
X9724944Y-12559888D02*
X9715420Y-12578936D01*
X9715420Y-12578936D02*
X9705896Y-12588460D01*
X9705896Y-12588460D02*
X9686849Y-12597984D01*
X9686849Y-12597984D02*
X9658277Y-12597984D01*
X9782087Y-12464650D02*
X9858277Y-12464650D01*
X9810658Y-12397984D02*
X9810658Y-12569412D01*
X9810658Y-12569412D02*
X9820182Y-12588460D01*
X9820182Y-12588460D02*
X9839230Y-12597984D01*
X9839230Y-12597984D02*
X9858277Y-12597984D01*
X10077325Y-12464650D02*
X10077325Y-12664650D01*
X10077325Y-12474174D02*
X10096373Y-12464650D01*
X10096373Y-12464650D02*
X10134468Y-12464650D01*
X10134468Y-12464650D02*
X10153515Y-12474174D01*
X10153515Y-12474174D02*
X10163039Y-12483698D01*
X10163039Y-12483698D02*
X10172563Y-12502746D01*
X10172563Y-12502746D02*
X10172563Y-12559888D01*
X10172563Y-12559888D02*
X10163039Y-12578936D01*
X10163039Y-12578936D02*
X10153515Y-12588460D01*
X10153515Y-12588460D02*
X10134468Y-12597984D01*
X10134468Y-12597984D02*
X10096373Y-12597984D01*
X10096373Y-12597984D02*
X10077325Y-12588460D01*
X10286849Y-12597984D02*
X10267801Y-12588460D01*
X10267801Y-12588460D02*
X10258277Y-12569412D01*
X10258277Y-12569412D02*
X10258277Y-12397984D01*
X10448754Y-12597984D02*
X10448754Y-12493222D01*
X10448754Y-12493222D02*
X10439230Y-12474174D01*
X10439230Y-12474174D02*
X10420182Y-12464650D01*
X10420182Y-12464650D02*
X10382087Y-12464650D01*
X10382087Y-12464650D02*
X10363039Y-12474174D01*
X10448754Y-12588460D02*
X10429706Y-12597984D01*
X10429706Y-12597984D02*
X10382087Y-12597984D01*
X10382087Y-12597984D02*
X10363039Y-12588460D01*
X10363039Y-12588460D02*
X10353515Y-12569412D01*
X10353515Y-12569412D02*
X10353515Y-12550365D01*
X10353515Y-12550365D02*
X10363039Y-12531317D01*
X10363039Y-12531317D02*
X10382087Y-12521793D01*
X10382087Y-12521793D02*
X10429706Y-12521793D01*
X10429706Y-12521793D02*
X10448754Y-12512269D01*
X10515420Y-12464650D02*
X10591611Y-12464650D01*
X10543992Y-12397984D02*
X10543992Y-12569412D01*
X10543992Y-12569412D02*
X10553515Y-12588460D01*
X10553515Y-12588460D02*
X10572563Y-12597984D01*
X10572563Y-12597984D02*
X10591611Y-12597984D01*
X10734468Y-12588460D02*
X10715420Y-12597984D01*
X10715420Y-12597984D02*
X10677325Y-12597984D01*
X10677325Y-12597984D02*
X10658277Y-12588460D01*
X10658277Y-12588460D02*
X10648754Y-12569412D01*
X10648754Y-12569412D02*
X10648754Y-12493222D01*
X10648754Y-12493222D02*
X10658277Y-12474174D01*
X10658277Y-12474174D02*
X10677325Y-12464650D01*
X10677325Y-12464650D02*
X10715420Y-12464650D01*
X10715420Y-12464650D02*
X10734468Y-12474174D01*
X10734468Y-12474174D02*
X10743992Y-12493222D01*
X10743992Y-12493222D02*
X10743992Y-12512269D01*
X10743992Y-12512269D02*
X10648754Y-12531317D01*
X10915420Y-12597984D02*
X10915420Y-12397984D01*
X10915420Y-12588460D02*
X10896373Y-12597984D01*
X10896373Y-12597984D02*
X10858277Y-12597984D01*
X10858277Y-12597984D02*
X10839230Y-12588460D01*
X10839230Y-12588460D02*
X10829706Y-12578936D01*
X10829706Y-12578936D02*
X10820182Y-12559888D01*
X10820182Y-12559888D02*
X10820182Y-12502746D01*
X10820182Y-12502746D02*
X10829706Y-12483698D01*
X10829706Y-12483698D02*
X10839230Y-12474174D01*
X10839230Y-12474174D02*
X10858277Y-12464650D01*
X10858277Y-12464650D02*
X10896373Y-12464650D01*
X10896373Y-12464650D02*
X10915420Y-12474174D01*
X10991611Y-12674174D02*
X11001135Y-12664650D01*
X11001135Y-12664650D02*
X11020182Y-12636079D01*
X11020182Y-12636079D02*
X11029706Y-12617031D01*
X11029706Y-12617031D02*
X11039230Y-12588460D01*
X11039230Y-12588460D02*
X11048754Y-12540841D01*
X11048754Y-12540841D02*
X11048754Y-12502746D01*
X11048754Y-12502746D02*
X11039230Y-12455127D01*
X11039230Y-12455127D02*
X11029706Y-12426555D01*
X11029706Y-12426555D02*
X11020182Y-12407508D01*
X11020182Y-12407508D02*
X11001135Y-12378936D01*
X11001135Y-12378936D02*
X10991611Y-12369412D01*
M02*
