%TF.GenerationSoftware,KiCad,Pcbnew,7.0.11-rc3*%
%TF.CreationDate,2025-12-05T17:25:19+08:00*%
%TF.ProjectId,seg_pcb_1,7365675f-7063-4625-9f31-2e6b69636164,rev?*%
%TF.SameCoordinates,Original*%
%TF.FileFunction,Drillmap*%
%TF.FilePolarity,Positive*%
%FSLAX45Y45*%
G04 Gerber Fmt 4.5, Leading zero omitted, Abs format (unit mm)*
G04 Created by KiCad (PCBNEW 7.0.11-rc3) date 2025-12-05 17:25:19*
%MOMM*%
%LPD*%
G01*
G04 APERTURE LIST*
%ADD10C,0.050000*%
%ADD11C,0.200000*%
%ADD12C,0.100000*%
%ADD13C,0.420000*%
G04 APERTURE END LIST*
D10*
X6120000Y-8700000D02*
X6320000Y-8700000D01*
X6320000Y-10950000D01*
X6120000Y-10950000D01*
X6120000Y-8700000D01*
X14400000Y-5450000D02*
X14600000Y-5450000D01*
X14600000Y-7700000D01*
X14400000Y-7700000D01*
X14400000Y-5450000D01*
X7040000Y-5450000D02*
X7240000Y-5450000D01*
X7240000Y-7700000D01*
X7040000Y-7700000D01*
X7040000Y-5450000D01*
X9800000Y-8700000D02*
X10000000Y-8700000D01*
X10000000Y-10950000D01*
X9800000Y-10950000D01*
X9800000Y-8700000D01*
X18080000Y-5450000D02*
X18280000Y-5450000D01*
X18280000Y-7700000D01*
X18080000Y-7700000D01*
X18080000Y-5450000D01*
X12560000Y-5450000D02*
X12760000Y-5450000D01*
X12760000Y-7700000D01*
X12560000Y-7700000D01*
X12560000Y-5450000D01*
X13480000Y-8700000D02*
X13680000Y-8700000D01*
X13680000Y-10950000D01*
X13480000Y-10950000D01*
X13480000Y-8700000D01*
X10720000Y-5450000D02*
X10920000Y-5450000D01*
X10920000Y-7700000D01*
X10720000Y-7700000D01*
X10720000Y-5450000D01*
X5025000Y-11150000D02*
G75*
G03*
X4575000Y-11150000I-225000J0D01*
G01*
X4575000Y-11150000D02*
G75*
G03*
X5025000Y-11150000I225000J0D01*
G01*
X7960000Y-5450000D02*
X8160000Y-5450000D01*
X8160000Y-7700000D01*
X7960000Y-7700000D01*
X7960000Y-5450000D01*
X7040000Y-8700000D02*
X7240000Y-8700000D01*
X7240000Y-10950000D01*
X7040000Y-10950000D01*
X7040000Y-8700000D01*
X15320000Y-5450000D02*
X15520000Y-5450000D01*
X15520000Y-7700000D01*
X15320000Y-7700000D01*
X15320000Y-5450000D01*
X16240000Y-5450000D02*
X16440000Y-5450000D01*
X16440000Y-7700000D01*
X16240000Y-7700000D01*
X16240000Y-5450000D01*
X6120000Y-5450000D02*
X6320000Y-5450000D01*
X6320000Y-7700000D01*
X6120000Y-7700000D01*
X6120000Y-5450000D01*
X12560000Y-8700000D02*
X12760000Y-8700000D01*
X12760000Y-10950000D01*
X12560000Y-10950000D01*
X12560000Y-8700000D01*
X18080000Y-8700000D02*
X18280000Y-8700000D01*
X18280000Y-10950000D01*
X18080000Y-10950000D01*
X18080000Y-8700000D01*
X16240000Y-8700000D02*
X16440000Y-8700000D01*
X16440000Y-10950000D01*
X16240000Y-10950000D01*
X16240000Y-8700000D01*
X17160000Y-5450000D02*
X17360000Y-5450000D01*
X17360000Y-7700000D01*
X17160000Y-7700000D01*
X17160000Y-5450000D01*
X8880000Y-5450000D02*
X9080000Y-5450000D01*
X9080000Y-7700000D01*
X8880000Y-7700000D01*
X8880000Y-5450000D01*
X19825000Y-5250000D02*
G75*
G03*
X19375000Y-5250000I-225000J0D01*
G01*
X19375000Y-5250000D02*
G75*
G03*
X19825000Y-5250000I225000J0D01*
G01*
X10720000Y-8700000D02*
X10920000Y-8700000D01*
X10920000Y-10950000D01*
X10720000Y-10950000D01*
X10720000Y-8700000D01*
X5025000Y-5250000D02*
G75*
G03*
X4575000Y-5250000I-225000J0D01*
G01*
X4575000Y-5250000D02*
G75*
G03*
X5025000Y-5250000I225000J0D01*
G01*
X11640000Y-5450000D02*
X11840000Y-5450000D01*
X11840000Y-7700000D01*
X11640000Y-7700000D01*
X11640000Y-5450000D01*
X11640000Y-8700000D02*
X11840000Y-8700000D01*
X11840000Y-10950000D01*
X11640000Y-10950000D01*
X11640000Y-8700000D01*
X19825000Y-11150000D02*
G75*
G03*
X19375000Y-11150000I-225000J0D01*
G01*
X19375000Y-11150000D02*
G75*
G03*
X19825000Y-11150000I225000J0D01*
G01*
X14400000Y-8700000D02*
X14600000Y-8700000D01*
X14600000Y-10950000D01*
X14400000Y-10950000D01*
X14400000Y-8700000D01*
X15320000Y-8700000D02*
X15520000Y-8700000D01*
X15520000Y-10950000D01*
X15320000Y-10950000D01*
X15320000Y-8700000D01*
X17160000Y-8700000D02*
X17360000Y-8700000D01*
X17360000Y-10950000D01*
X17160000Y-10950000D01*
X17160000Y-8700000D01*
X7960000Y-8700000D02*
X8160000Y-8700000D01*
X8160000Y-10950000D01*
X7960000Y-10950000D01*
X7960000Y-8700000D01*
X9800000Y-5450000D02*
X10000000Y-5450000D01*
X10000000Y-7700000D01*
X9800000Y-7700000D01*
X9800000Y-5450000D01*
X4400000Y-4800000D02*
X20000000Y-4800000D01*
X20000000Y-11600000D01*
X4400000Y-11600000D01*
X4400000Y-4800000D01*
X8880000Y-8700000D02*
X9080000Y-8700000D01*
X9080000Y-10950000D01*
X8880000Y-10950000D01*
X8880000Y-8700000D01*
X13480000Y-5450000D02*
X13680000Y-5450000D01*
X13680000Y-7700000D01*
X13480000Y-7700000D01*
X13480000Y-5450000D01*
D11*
D12*
X6510000Y-11075000D02*
X6540000Y-11105000D01*
X6540000Y-11075000D02*
X6510000Y-11105000D01*
X6820000Y-11250000D02*
X6850000Y-11280000D01*
X6850000Y-11250000D02*
X6820000Y-11280000D01*
X9270000Y-5110000D02*
X9300000Y-5140000D01*
X9300000Y-5110000D02*
X9270000Y-5140000D01*
X9580000Y-5110000D02*
X9610000Y-5140000D01*
X9610000Y-5110000D02*
X9580000Y-5140000D01*
X11735000Y-8395000D02*
X11765000Y-8425000D01*
X11765000Y-8395000D02*
X11735000Y-8425000D01*
X11763000Y-7949000D02*
X11793000Y-7979000D01*
X11793000Y-7949000D02*
X11763000Y-7979000D01*
X11885000Y-8235000D02*
X11915000Y-8265000D01*
X11915000Y-8235000D02*
X11885000Y-8265000D01*
X11886000Y-8138000D02*
X11916000Y-8168000D01*
X11916000Y-8138000D02*
X11886000Y-8168000D01*
X11988000Y-8139000D02*
X12018000Y-8169000D01*
X12018000Y-8139000D02*
X11988000Y-8169000D01*
X11995000Y-8225000D02*
X12025000Y-8255000D01*
X12025000Y-8225000D02*
X11995000Y-8255000D01*
X12030000Y-11250000D02*
X12060000Y-11280000D01*
X12060000Y-11250000D02*
X12030000Y-11280000D01*
X12080000Y-8240000D02*
X12110000Y-8270000D01*
X12110000Y-8240000D02*
X12080000Y-8270000D01*
X12089000Y-8139000D02*
X12119000Y-8169000D01*
X12119000Y-8139000D02*
X12089000Y-8169000D01*
X12148000Y-7775000D02*
X12178000Y-7805000D01*
X12178000Y-7775000D02*
X12148000Y-7805000D01*
X12160000Y-8240000D02*
X12190000Y-8270000D01*
X12190000Y-8240000D02*
X12160000Y-8270000D01*
X12218000Y-8140000D02*
X12248000Y-8170000D01*
X12248000Y-8140000D02*
X12218000Y-8170000D01*
X12255000Y-8240000D02*
X12285000Y-8270000D01*
X12285000Y-8240000D02*
X12255000Y-8270000D01*
X12280000Y-7775000D02*
X12310000Y-7805000D01*
X12310000Y-7775000D02*
X12280000Y-7805000D01*
X12285000Y-8610000D02*
X12315000Y-8640000D01*
X12315000Y-8610000D02*
X12285000Y-8640000D01*
X12340000Y-11250000D02*
X12370000Y-11280000D01*
X12370000Y-11250000D02*
X12340000Y-11280000D01*
X12342000Y-8139000D02*
X12372000Y-8169000D01*
X12372000Y-8139000D02*
X12342000Y-8169000D01*
X12346000Y-8241000D02*
X12376000Y-8271000D01*
X12376000Y-8241000D02*
X12346000Y-8271000D01*
X12408000Y-7776000D02*
X12438000Y-7806000D01*
X12438000Y-7776000D02*
X12408000Y-7806000D01*
X12446000Y-8242000D02*
X12476000Y-8272000D01*
X12476000Y-8242000D02*
X12446000Y-8272000D01*
X12470750Y-8144000D02*
X12500750Y-8174000D01*
X12500750Y-8144000D02*
X12470750Y-8174000D01*
X12655000Y-8420000D02*
X12685000Y-8450000D01*
X12685000Y-8420000D02*
X12655000Y-8450000D01*
X14790000Y-5110000D02*
X14820000Y-5140000D01*
X14820000Y-5110000D02*
X14790000Y-5140000D01*
X15100000Y-5110000D02*
X15130000Y-5140000D01*
X15130000Y-5110000D02*
X15100000Y-5140000D01*
X17550000Y-11250000D02*
X17580000Y-11280000D01*
X17580000Y-11250000D02*
X17550000Y-11280000D01*
X17860000Y-11250000D02*
X17890000Y-11280000D01*
X17890000Y-11250000D02*
X17860000Y-11280000D01*
D13*
X5770000Y-6750000D02*
G75*
G03*
X5350000Y-6750000I-210000J0D01*
G01*
X5350000Y-6750000D02*
G75*
G03*
X5770000Y-6750000I210000J0D01*
G01*
X6890000Y-9650000D02*
G75*
G03*
X6470000Y-9650000I-210000J0D01*
G01*
X6470000Y-9650000D02*
G75*
G03*
X6890000Y-9650000I210000J0D01*
G01*
X7810000Y-6750000D02*
G75*
G03*
X7390000Y-6750000I-210000J0D01*
G01*
X7390000Y-6750000D02*
G75*
G03*
X7810000Y-6750000I210000J0D01*
G01*
X8730000Y-9650000D02*
G75*
G03*
X8310000Y-9650000I-210000J0D01*
G01*
X8310000Y-9650000D02*
G75*
G03*
X8730000Y-9650000I210000J0D01*
G01*
X9650000Y-6750000D02*
G75*
G03*
X9230000Y-6750000I-210000J0D01*
G01*
X9230000Y-6750000D02*
G75*
G03*
X9650000Y-6750000I210000J0D01*
G01*
X10570000Y-9650000D02*
G75*
G03*
X10150000Y-9650000I-210000J0D01*
G01*
X10150000Y-9650000D02*
G75*
G03*
X10570000Y-9650000I210000J0D01*
G01*
X11490000Y-6750000D02*
G75*
G03*
X11070000Y-6750000I-210000J0D01*
G01*
X11070000Y-6750000D02*
G75*
G03*
X11490000Y-6750000I210000J0D01*
G01*
X12410000Y-9650000D02*
G75*
G03*
X11990000Y-9650000I-210000J0D01*
G01*
X11990000Y-9650000D02*
G75*
G03*
X12410000Y-9650000I210000J0D01*
G01*
X13330000Y-6750000D02*
G75*
G03*
X12910000Y-6750000I-210000J0D01*
G01*
X12910000Y-6750000D02*
G75*
G03*
X13330000Y-6750000I210000J0D01*
G01*
X14250000Y-9650000D02*
G75*
G03*
X13830000Y-9650000I-210000J0D01*
G01*
X13830000Y-9650000D02*
G75*
G03*
X14250000Y-9650000I210000J0D01*
G01*
X15170000Y-6750000D02*
G75*
G03*
X14750000Y-6750000I-210000J0D01*
G01*
X14750000Y-6750000D02*
G75*
G03*
X15170000Y-6750000I210000J0D01*
G01*
X16090000Y-9650000D02*
G75*
G03*
X15670000Y-9650000I-210000J0D01*
G01*
X15670000Y-9650000D02*
G75*
G03*
X16090000Y-9650000I210000J0D01*
G01*
X17010000Y-6750000D02*
G75*
G03*
X16590000Y-6750000I-210000J0D01*
G01*
X16590000Y-6750000D02*
G75*
G03*
X17010000Y-6750000I210000J0D01*
G01*
X17930000Y-9650000D02*
G75*
G03*
X17510000Y-9650000I-210000J0D01*
G01*
X17510000Y-9650000D02*
G75*
G03*
X17930000Y-9650000I210000J0D01*
G01*
X19050000Y-6750000D02*
G75*
G03*
X18630000Y-6750000I-210000J0D01*
G01*
X18630000Y-6750000D02*
G75*
G03*
X19050000Y-6750000I210000J0D01*
G01*
D11*
X4658277Y-11913984D02*
X4658277Y-11713984D01*
X4658277Y-11713984D02*
X4705896Y-11713984D01*
X4705896Y-11713984D02*
X4734467Y-11723508D01*
X4734467Y-11723508D02*
X4753515Y-11742555D01*
X4753515Y-11742555D02*
X4763039Y-11761603D01*
X4763039Y-11761603D02*
X4772563Y-11799698D01*
X4772563Y-11799698D02*
X4772563Y-11828269D01*
X4772563Y-11828269D02*
X4763039Y-11866365D01*
X4763039Y-11866365D02*
X4753515Y-11885412D01*
X4753515Y-11885412D02*
X4734467Y-11904460D01*
X4734467Y-11904460D02*
X4705896Y-11913984D01*
X4705896Y-11913984D02*
X4658277Y-11913984D01*
X4858277Y-11913984D02*
X4858277Y-11780650D01*
X4858277Y-11818746D02*
X4867801Y-11799698D01*
X4867801Y-11799698D02*
X4877324Y-11790174D01*
X4877324Y-11790174D02*
X4896372Y-11780650D01*
X4896372Y-11780650D02*
X4915420Y-11780650D01*
X4982086Y-11913984D02*
X4982086Y-11780650D01*
X4982086Y-11713984D02*
X4972563Y-11723508D01*
X4972563Y-11723508D02*
X4982086Y-11733031D01*
X4982086Y-11733031D02*
X4991610Y-11723508D01*
X4991610Y-11723508D02*
X4982086Y-11713984D01*
X4982086Y-11713984D02*
X4982086Y-11733031D01*
X5105896Y-11913984D02*
X5086848Y-11904460D01*
X5086848Y-11904460D02*
X5077324Y-11885412D01*
X5077324Y-11885412D02*
X5077324Y-11713984D01*
X5210658Y-11913984D02*
X5191610Y-11904460D01*
X5191610Y-11904460D02*
X5182086Y-11885412D01*
X5182086Y-11885412D02*
X5182086Y-11713984D01*
X5439229Y-11913984D02*
X5439229Y-11713984D01*
X5439229Y-11713984D02*
X5505896Y-11856841D01*
X5505896Y-11856841D02*
X5572563Y-11713984D01*
X5572563Y-11713984D02*
X5572563Y-11913984D01*
X5753515Y-11913984D02*
X5753515Y-11809222D01*
X5753515Y-11809222D02*
X5743991Y-11790174D01*
X5743991Y-11790174D02*
X5724943Y-11780650D01*
X5724943Y-11780650D02*
X5686848Y-11780650D01*
X5686848Y-11780650D02*
X5667801Y-11790174D01*
X5753515Y-11904460D02*
X5734467Y-11913984D01*
X5734467Y-11913984D02*
X5686848Y-11913984D01*
X5686848Y-11913984D02*
X5667801Y-11904460D01*
X5667801Y-11904460D02*
X5658277Y-11885412D01*
X5658277Y-11885412D02*
X5658277Y-11866365D01*
X5658277Y-11866365D02*
X5667801Y-11847317D01*
X5667801Y-11847317D02*
X5686848Y-11837793D01*
X5686848Y-11837793D02*
X5734467Y-11837793D01*
X5734467Y-11837793D02*
X5753515Y-11828269D01*
X5848753Y-11780650D02*
X5848753Y-11980650D01*
X5848753Y-11790174D02*
X5867801Y-11780650D01*
X5867801Y-11780650D02*
X5905896Y-11780650D01*
X5905896Y-11780650D02*
X5924943Y-11790174D01*
X5924943Y-11790174D02*
X5934467Y-11799698D01*
X5934467Y-11799698D02*
X5943991Y-11818746D01*
X5943991Y-11818746D02*
X5943991Y-11875888D01*
X5943991Y-11875888D02*
X5934467Y-11894936D01*
X5934467Y-11894936D02*
X5924943Y-11904460D01*
X5924943Y-11904460D02*
X5905896Y-11913984D01*
X5905896Y-11913984D02*
X5867801Y-11913984D01*
X5867801Y-11913984D02*
X5848753Y-11904460D01*
X6029705Y-11894936D02*
X6039229Y-11904460D01*
X6039229Y-11904460D02*
X6029705Y-11913984D01*
X6029705Y-11913984D02*
X6020182Y-11904460D01*
X6020182Y-11904460D02*
X6029705Y-11894936D01*
X6029705Y-11894936D02*
X6029705Y-11913984D01*
X6029705Y-11790174D02*
X6039229Y-11799698D01*
X6039229Y-11799698D02*
X6029705Y-11809222D01*
X6029705Y-11809222D02*
X6020182Y-11799698D01*
X6020182Y-11799698D02*
X6029705Y-11790174D01*
X6029705Y-11790174D02*
X6029705Y-11809222D01*
D12*
X4367500Y-12227500D02*
X4397500Y-12257500D01*
X4397500Y-12227500D02*
X4367500Y-12257500D01*
D11*
X4696372Y-12133984D02*
X4715420Y-12133984D01*
X4715420Y-12133984D02*
X4734467Y-12143508D01*
X4734467Y-12143508D02*
X4743991Y-12153031D01*
X4743991Y-12153031D02*
X4753515Y-12172079D01*
X4753515Y-12172079D02*
X4763039Y-12210174D01*
X4763039Y-12210174D02*
X4763039Y-12257793D01*
X4763039Y-12257793D02*
X4753515Y-12295888D01*
X4753515Y-12295888D02*
X4743991Y-12314936D01*
X4743991Y-12314936D02*
X4734467Y-12324460D01*
X4734467Y-12324460D02*
X4715420Y-12333984D01*
X4715420Y-12333984D02*
X4696372Y-12333984D01*
X4696372Y-12333984D02*
X4677324Y-12324460D01*
X4677324Y-12324460D02*
X4667801Y-12314936D01*
X4667801Y-12314936D02*
X4658277Y-12295888D01*
X4658277Y-12295888D02*
X4648753Y-12257793D01*
X4648753Y-12257793D02*
X4648753Y-12210174D01*
X4648753Y-12210174D02*
X4658277Y-12172079D01*
X4658277Y-12172079D02*
X4667801Y-12153031D01*
X4667801Y-12153031D02*
X4677324Y-12143508D01*
X4677324Y-12143508D02*
X4696372Y-12133984D01*
X4848753Y-12314936D02*
X4858277Y-12324460D01*
X4858277Y-12324460D02*
X4848753Y-12333984D01*
X4848753Y-12333984D02*
X4839229Y-12324460D01*
X4839229Y-12324460D02*
X4848753Y-12314936D01*
X4848753Y-12314936D02*
X4848753Y-12333984D01*
X4924944Y-12133984D02*
X5048753Y-12133984D01*
X5048753Y-12133984D02*
X4982086Y-12210174D01*
X4982086Y-12210174D02*
X5010658Y-12210174D01*
X5010658Y-12210174D02*
X5029705Y-12219698D01*
X5029705Y-12219698D02*
X5039229Y-12229222D01*
X5039229Y-12229222D02*
X5048753Y-12248269D01*
X5048753Y-12248269D02*
X5048753Y-12295888D01*
X5048753Y-12295888D02*
X5039229Y-12314936D01*
X5039229Y-12314936D02*
X5029705Y-12324460D01*
X5029705Y-12324460D02*
X5010658Y-12333984D01*
X5010658Y-12333984D02*
X4953515Y-12333984D01*
X4953515Y-12333984D02*
X4934467Y-12324460D01*
X4934467Y-12324460D02*
X4924944Y-12314936D01*
X5172563Y-12133984D02*
X5191610Y-12133984D01*
X5191610Y-12133984D02*
X5210658Y-12143508D01*
X5210658Y-12143508D02*
X5220182Y-12153031D01*
X5220182Y-12153031D02*
X5229705Y-12172079D01*
X5229705Y-12172079D02*
X5239229Y-12210174D01*
X5239229Y-12210174D02*
X5239229Y-12257793D01*
X5239229Y-12257793D02*
X5229705Y-12295888D01*
X5229705Y-12295888D02*
X5220182Y-12314936D01*
X5220182Y-12314936D02*
X5210658Y-12324460D01*
X5210658Y-12324460D02*
X5191610Y-12333984D01*
X5191610Y-12333984D02*
X5172563Y-12333984D01*
X5172563Y-12333984D02*
X5153515Y-12324460D01*
X5153515Y-12324460D02*
X5143991Y-12314936D01*
X5143991Y-12314936D02*
X5134467Y-12295888D01*
X5134467Y-12295888D02*
X5124944Y-12257793D01*
X5124944Y-12257793D02*
X5124944Y-12210174D01*
X5124944Y-12210174D02*
X5134467Y-12172079D01*
X5134467Y-12172079D02*
X5143991Y-12153031D01*
X5143991Y-12153031D02*
X5153515Y-12143508D01*
X5153515Y-12143508D02*
X5172563Y-12133984D01*
X5363039Y-12133984D02*
X5382086Y-12133984D01*
X5382086Y-12133984D02*
X5401134Y-12143508D01*
X5401134Y-12143508D02*
X5410658Y-12153031D01*
X5410658Y-12153031D02*
X5420182Y-12172079D01*
X5420182Y-12172079D02*
X5429705Y-12210174D01*
X5429705Y-12210174D02*
X5429705Y-12257793D01*
X5429705Y-12257793D02*
X5420182Y-12295888D01*
X5420182Y-12295888D02*
X5410658Y-12314936D01*
X5410658Y-12314936D02*
X5401134Y-12324460D01*
X5401134Y-12324460D02*
X5382086Y-12333984D01*
X5382086Y-12333984D02*
X5363039Y-12333984D01*
X5363039Y-12333984D02*
X5343991Y-12324460D01*
X5343991Y-12324460D02*
X5334467Y-12314936D01*
X5334467Y-12314936D02*
X5324944Y-12295888D01*
X5324944Y-12295888D02*
X5315420Y-12257793D01*
X5315420Y-12257793D02*
X5315420Y-12210174D01*
X5315420Y-12210174D02*
X5324944Y-12172079D01*
X5324944Y-12172079D02*
X5334467Y-12153031D01*
X5334467Y-12153031D02*
X5343991Y-12143508D01*
X5343991Y-12143508D02*
X5363039Y-12133984D01*
X5515420Y-12333984D02*
X5515420Y-12200650D01*
X5515420Y-12219698D02*
X5524944Y-12210174D01*
X5524944Y-12210174D02*
X5543991Y-12200650D01*
X5543991Y-12200650D02*
X5572563Y-12200650D01*
X5572563Y-12200650D02*
X5591610Y-12210174D01*
X5591610Y-12210174D02*
X5601134Y-12229222D01*
X5601134Y-12229222D02*
X5601134Y-12333984D01*
X5601134Y-12229222D02*
X5610658Y-12210174D01*
X5610658Y-12210174D02*
X5629705Y-12200650D01*
X5629705Y-12200650D02*
X5658277Y-12200650D01*
X5658277Y-12200650D02*
X5677324Y-12210174D01*
X5677324Y-12210174D02*
X5686848Y-12229222D01*
X5686848Y-12229222D02*
X5686848Y-12333984D01*
X5782086Y-12333984D02*
X5782086Y-12200650D01*
X5782086Y-12219698D02*
X5791610Y-12210174D01*
X5791610Y-12210174D02*
X5810658Y-12200650D01*
X5810658Y-12200650D02*
X5839229Y-12200650D01*
X5839229Y-12200650D02*
X5858277Y-12210174D01*
X5858277Y-12210174D02*
X5867801Y-12229222D01*
X5867801Y-12229222D02*
X5867801Y-12333984D01*
X5867801Y-12229222D02*
X5877324Y-12210174D01*
X5877324Y-12210174D02*
X5896372Y-12200650D01*
X5896372Y-12200650D02*
X5924943Y-12200650D01*
X5924943Y-12200650D02*
X5943991Y-12210174D01*
X5943991Y-12210174D02*
X5953515Y-12229222D01*
X5953515Y-12229222D02*
X5953515Y-12333984D01*
X6343991Y-12124460D02*
X6172563Y-12381603D01*
X6601134Y-12133984D02*
X6620182Y-12133984D01*
X6620182Y-12133984D02*
X6639229Y-12143508D01*
X6639229Y-12143508D02*
X6648753Y-12153031D01*
X6648753Y-12153031D02*
X6658277Y-12172079D01*
X6658277Y-12172079D02*
X6667801Y-12210174D01*
X6667801Y-12210174D02*
X6667801Y-12257793D01*
X6667801Y-12257793D02*
X6658277Y-12295888D01*
X6658277Y-12295888D02*
X6648753Y-12314936D01*
X6648753Y-12314936D02*
X6639229Y-12324460D01*
X6639229Y-12324460D02*
X6620182Y-12333984D01*
X6620182Y-12333984D02*
X6601134Y-12333984D01*
X6601134Y-12333984D02*
X6582086Y-12324460D01*
X6582086Y-12324460D02*
X6572563Y-12314936D01*
X6572563Y-12314936D02*
X6563039Y-12295888D01*
X6563039Y-12295888D02*
X6553515Y-12257793D01*
X6553515Y-12257793D02*
X6553515Y-12210174D01*
X6553515Y-12210174D02*
X6563039Y-12172079D01*
X6563039Y-12172079D02*
X6572563Y-12153031D01*
X6572563Y-12153031D02*
X6582086Y-12143508D01*
X6582086Y-12143508D02*
X6601134Y-12133984D01*
X6753515Y-12314936D02*
X6763039Y-12324460D01*
X6763039Y-12324460D02*
X6753515Y-12333984D01*
X6753515Y-12333984D02*
X6743991Y-12324460D01*
X6743991Y-12324460D02*
X6753515Y-12314936D01*
X6753515Y-12314936D02*
X6753515Y-12333984D01*
X6886848Y-12133984D02*
X6905896Y-12133984D01*
X6905896Y-12133984D02*
X6924944Y-12143508D01*
X6924944Y-12143508D02*
X6934467Y-12153031D01*
X6934467Y-12153031D02*
X6943991Y-12172079D01*
X6943991Y-12172079D02*
X6953515Y-12210174D01*
X6953515Y-12210174D02*
X6953515Y-12257793D01*
X6953515Y-12257793D02*
X6943991Y-12295888D01*
X6943991Y-12295888D02*
X6934467Y-12314936D01*
X6934467Y-12314936D02*
X6924944Y-12324460D01*
X6924944Y-12324460D02*
X6905896Y-12333984D01*
X6905896Y-12333984D02*
X6886848Y-12333984D01*
X6886848Y-12333984D02*
X6867801Y-12324460D01*
X6867801Y-12324460D02*
X6858277Y-12314936D01*
X6858277Y-12314936D02*
X6848753Y-12295888D01*
X6848753Y-12295888D02*
X6839229Y-12257793D01*
X6839229Y-12257793D02*
X6839229Y-12210174D01*
X6839229Y-12210174D02*
X6848753Y-12172079D01*
X6848753Y-12172079D02*
X6858277Y-12153031D01*
X6858277Y-12153031D02*
X6867801Y-12143508D01*
X6867801Y-12143508D02*
X6886848Y-12133984D01*
X7143991Y-12333984D02*
X7029706Y-12333984D01*
X7086848Y-12333984D02*
X7086848Y-12133984D01*
X7086848Y-12133984D02*
X7067801Y-12162555D01*
X7067801Y-12162555D02*
X7048753Y-12181603D01*
X7048753Y-12181603D02*
X7029706Y-12191127D01*
X7334467Y-12333984D02*
X7220182Y-12333984D01*
X7277325Y-12333984D02*
X7277325Y-12133984D01*
X7277325Y-12133984D02*
X7258277Y-12162555D01*
X7258277Y-12162555D02*
X7239229Y-12181603D01*
X7239229Y-12181603D02*
X7220182Y-12191127D01*
X7448753Y-12219698D02*
X7429706Y-12210174D01*
X7429706Y-12210174D02*
X7420182Y-12200650D01*
X7420182Y-12200650D02*
X7410658Y-12181603D01*
X7410658Y-12181603D02*
X7410658Y-12172079D01*
X7410658Y-12172079D02*
X7420182Y-12153031D01*
X7420182Y-12153031D02*
X7429706Y-12143508D01*
X7429706Y-12143508D02*
X7448753Y-12133984D01*
X7448753Y-12133984D02*
X7486848Y-12133984D01*
X7486848Y-12133984D02*
X7505896Y-12143508D01*
X7505896Y-12143508D02*
X7515420Y-12153031D01*
X7515420Y-12153031D02*
X7524944Y-12172079D01*
X7524944Y-12172079D02*
X7524944Y-12181603D01*
X7524944Y-12181603D02*
X7515420Y-12200650D01*
X7515420Y-12200650D02*
X7505896Y-12210174D01*
X7505896Y-12210174D02*
X7486848Y-12219698D01*
X7486848Y-12219698D02*
X7448753Y-12219698D01*
X7448753Y-12219698D02*
X7429706Y-12229222D01*
X7429706Y-12229222D02*
X7420182Y-12238746D01*
X7420182Y-12238746D02*
X7410658Y-12257793D01*
X7410658Y-12257793D02*
X7410658Y-12295888D01*
X7410658Y-12295888D02*
X7420182Y-12314936D01*
X7420182Y-12314936D02*
X7429706Y-12324460D01*
X7429706Y-12324460D02*
X7448753Y-12333984D01*
X7448753Y-12333984D02*
X7486848Y-12333984D01*
X7486848Y-12333984D02*
X7505896Y-12324460D01*
X7505896Y-12324460D02*
X7515420Y-12314936D01*
X7515420Y-12314936D02*
X7524944Y-12295888D01*
X7524944Y-12295888D02*
X7524944Y-12257793D01*
X7524944Y-12257793D02*
X7515420Y-12238746D01*
X7515420Y-12238746D02*
X7505896Y-12229222D01*
X7505896Y-12229222D02*
X7486848Y-12219698D01*
X7601134Y-12133984D02*
X7601134Y-12172079D01*
X7677325Y-12133984D02*
X7677325Y-12172079D01*
X7972563Y-12410174D02*
X7963039Y-12400650D01*
X7963039Y-12400650D02*
X7943991Y-12372079D01*
X7943991Y-12372079D02*
X7934468Y-12353031D01*
X7934468Y-12353031D02*
X7924944Y-12324460D01*
X7924944Y-12324460D02*
X7915420Y-12276841D01*
X7915420Y-12276841D02*
X7915420Y-12238746D01*
X7915420Y-12238746D02*
X7924944Y-12191127D01*
X7924944Y-12191127D02*
X7934468Y-12162555D01*
X7934468Y-12162555D02*
X7943991Y-12143508D01*
X7943991Y-12143508D02*
X7963039Y-12114936D01*
X7963039Y-12114936D02*
X7972563Y-12105412D01*
X8029706Y-12133984D02*
X8153515Y-12133984D01*
X8153515Y-12133984D02*
X8086848Y-12210174D01*
X8086848Y-12210174D02*
X8115420Y-12210174D01*
X8115420Y-12210174D02*
X8134468Y-12219698D01*
X8134468Y-12219698D02*
X8143991Y-12229222D01*
X8143991Y-12229222D02*
X8153515Y-12248269D01*
X8153515Y-12248269D02*
X8153515Y-12295888D01*
X8153515Y-12295888D02*
X8143991Y-12314936D01*
X8143991Y-12314936D02*
X8134468Y-12324460D01*
X8134468Y-12324460D02*
X8115420Y-12333984D01*
X8115420Y-12333984D02*
X8058277Y-12333984D01*
X8058277Y-12333984D02*
X8039229Y-12324460D01*
X8039229Y-12324460D02*
X8029706Y-12314936D01*
X8277325Y-12133984D02*
X8296372Y-12133984D01*
X8296372Y-12133984D02*
X8315420Y-12143508D01*
X8315420Y-12143508D02*
X8324944Y-12153031D01*
X8324944Y-12153031D02*
X8334468Y-12172079D01*
X8334468Y-12172079D02*
X8343991Y-12210174D01*
X8343991Y-12210174D02*
X8343991Y-12257793D01*
X8343991Y-12257793D02*
X8334468Y-12295888D01*
X8334468Y-12295888D02*
X8324944Y-12314936D01*
X8324944Y-12314936D02*
X8315420Y-12324460D01*
X8315420Y-12324460D02*
X8296372Y-12333984D01*
X8296372Y-12333984D02*
X8277325Y-12333984D01*
X8277325Y-12333984D02*
X8258277Y-12324460D01*
X8258277Y-12324460D02*
X8248753Y-12314936D01*
X8248753Y-12314936D02*
X8239229Y-12295888D01*
X8239229Y-12295888D02*
X8229706Y-12257793D01*
X8229706Y-12257793D02*
X8229706Y-12210174D01*
X8229706Y-12210174D02*
X8239229Y-12172079D01*
X8239229Y-12172079D02*
X8248753Y-12153031D01*
X8248753Y-12153031D02*
X8258277Y-12143508D01*
X8258277Y-12143508D02*
X8277325Y-12133984D01*
X8582087Y-12333984D02*
X8582087Y-12133984D01*
X8667801Y-12333984D02*
X8667801Y-12229222D01*
X8667801Y-12229222D02*
X8658277Y-12210174D01*
X8658277Y-12210174D02*
X8639230Y-12200650D01*
X8639230Y-12200650D02*
X8610658Y-12200650D01*
X8610658Y-12200650D02*
X8591611Y-12210174D01*
X8591611Y-12210174D02*
X8582087Y-12219698D01*
X8791611Y-12333984D02*
X8772563Y-12324460D01*
X8772563Y-12324460D02*
X8763039Y-12314936D01*
X8763039Y-12314936D02*
X8753515Y-12295888D01*
X8753515Y-12295888D02*
X8753515Y-12238746D01*
X8753515Y-12238746D02*
X8763039Y-12219698D01*
X8763039Y-12219698D02*
X8772563Y-12210174D01*
X8772563Y-12210174D02*
X8791611Y-12200650D01*
X8791611Y-12200650D02*
X8820182Y-12200650D01*
X8820182Y-12200650D02*
X8839230Y-12210174D01*
X8839230Y-12210174D02*
X8848753Y-12219698D01*
X8848753Y-12219698D02*
X8858277Y-12238746D01*
X8858277Y-12238746D02*
X8858277Y-12295888D01*
X8858277Y-12295888D02*
X8848753Y-12314936D01*
X8848753Y-12314936D02*
X8839230Y-12324460D01*
X8839230Y-12324460D02*
X8820182Y-12333984D01*
X8820182Y-12333984D02*
X8791611Y-12333984D01*
X8972563Y-12333984D02*
X8953515Y-12324460D01*
X8953515Y-12324460D02*
X8943992Y-12305412D01*
X8943992Y-12305412D02*
X8943992Y-12133984D01*
X9124944Y-12324460D02*
X9105896Y-12333984D01*
X9105896Y-12333984D02*
X9067801Y-12333984D01*
X9067801Y-12333984D02*
X9048753Y-12324460D01*
X9048753Y-12324460D02*
X9039230Y-12305412D01*
X9039230Y-12305412D02*
X9039230Y-12229222D01*
X9039230Y-12229222D02*
X9048753Y-12210174D01*
X9048753Y-12210174D02*
X9067801Y-12200650D01*
X9067801Y-12200650D02*
X9105896Y-12200650D01*
X9105896Y-12200650D02*
X9124944Y-12210174D01*
X9124944Y-12210174D02*
X9134468Y-12229222D01*
X9134468Y-12229222D02*
X9134468Y-12248269D01*
X9134468Y-12248269D02*
X9039230Y-12267317D01*
X9210658Y-12324460D02*
X9229706Y-12333984D01*
X9229706Y-12333984D02*
X9267801Y-12333984D01*
X9267801Y-12333984D02*
X9286849Y-12324460D01*
X9286849Y-12324460D02*
X9296373Y-12305412D01*
X9296373Y-12305412D02*
X9296373Y-12295888D01*
X9296373Y-12295888D02*
X9286849Y-12276841D01*
X9286849Y-12276841D02*
X9267801Y-12267317D01*
X9267801Y-12267317D02*
X9239230Y-12267317D01*
X9239230Y-12267317D02*
X9220182Y-12257793D01*
X9220182Y-12257793D02*
X9210658Y-12238746D01*
X9210658Y-12238746D02*
X9210658Y-12229222D01*
X9210658Y-12229222D02*
X9220182Y-12210174D01*
X9220182Y-12210174D02*
X9239230Y-12200650D01*
X9239230Y-12200650D02*
X9267801Y-12200650D01*
X9267801Y-12200650D02*
X9286849Y-12210174D01*
X9363039Y-12410174D02*
X9372563Y-12400650D01*
X9372563Y-12400650D02*
X9391611Y-12372079D01*
X9391611Y-12372079D02*
X9401134Y-12353031D01*
X9401134Y-12353031D02*
X9410658Y-12324460D01*
X9410658Y-12324460D02*
X9420182Y-12276841D01*
X9420182Y-12276841D02*
X9420182Y-12238746D01*
X9420182Y-12238746D02*
X9410658Y-12191127D01*
X9410658Y-12191127D02*
X9401134Y-12162555D01*
X9401134Y-12162555D02*
X9391611Y-12143508D01*
X9391611Y-12143508D02*
X9372563Y-12114936D01*
X9372563Y-12114936D02*
X9363039Y-12105412D01*
X4397500Y-12506500D02*
G75*
G03*
X4197500Y-12506500I-100000J0D01*
G01*
X4197500Y-12506500D02*
G75*
G03*
X4397500Y-12506500I100000J0D01*
G01*
X4743991Y-12464650D02*
X4743991Y-12597984D01*
X4696372Y-12388460D02*
X4648753Y-12531317D01*
X4648753Y-12531317D02*
X4772563Y-12531317D01*
X4848753Y-12578936D02*
X4858277Y-12588460D01*
X4858277Y-12588460D02*
X4848753Y-12597984D01*
X4848753Y-12597984D02*
X4839229Y-12588460D01*
X4839229Y-12588460D02*
X4848753Y-12578936D01*
X4848753Y-12578936D02*
X4848753Y-12597984D01*
X4934467Y-12417031D02*
X4943991Y-12407508D01*
X4943991Y-12407508D02*
X4963039Y-12397984D01*
X4963039Y-12397984D02*
X5010658Y-12397984D01*
X5010658Y-12397984D02*
X5029705Y-12407508D01*
X5029705Y-12407508D02*
X5039229Y-12417031D01*
X5039229Y-12417031D02*
X5048753Y-12436079D01*
X5048753Y-12436079D02*
X5048753Y-12455127D01*
X5048753Y-12455127D02*
X5039229Y-12483698D01*
X5039229Y-12483698D02*
X4924944Y-12597984D01*
X4924944Y-12597984D02*
X5048753Y-12597984D01*
X5172563Y-12397984D02*
X5191610Y-12397984D01*
X5191610Y-12397984D02*
X5210658Y-12407508D01*
X5210658Y-12407508D02*
X5220182Y-12417031D01*
X5220182Y-12417031D02*
X5229705Y-12436079D01*
X5229705Y-12436079D02*
X5239229Y-12474174D01*
X5239229Y-12474174D02*
X5239229Y-12521793D01*
X5239229Y-12521793D02*
X5229705Y-12559888D01*
X5229705Y-12559888D02*
X5220182Y-12578936D01*
X5220182Y-12578936D02*
X5210658Y-12588460D01*
X5210658Y-12588460D02*
X5191610Y-12597984D01*
X5191610Y-12597984D02*
X5172563Y-12597984D01*
X5172563Y-12597984D02*
X5153515Y-12588460D01*
X5153515Y-12588460D02*
X5143991Y-12578936D01*
X5143991Y-12578936D02*
X5134467Y-12559888D01*
X5134467Y-12559888D02*
X5124944Y-12521793D01*
X5124944Y-12521793D02*
X5124944Y-12474174D01*
X5124944Y-12474174D02*
X5134467Y-12436079D01*
X5134467Y-12436079D02*
X5143991Y-12417031D01*
X5143991Y-12417031D02*
X5153515Y-12407508D01*
X5153515Y-12407508D02*
X5172563Y-12397984D01*
X5363039Y-12397984D02*
X5382086Y-12397984D01*
X5382086Y-12397984D02*
X5401134Y-12407508D01*
X5401134Y-12407508D02*
X5410658Y-12417031D01*
X5410658Y-12417031D02*
X5420182Y-12436079D01*
X5420182Y-12436079D02*
X5429705Y-12474174D01*
X5429705Y-12474174D02*
X5429705Y-12521793D01*
X5429705Y-12521793D02*
X5420182Y-12559888D01*
X5420182Y-12559888D02*
X5410658Y-12578936D01*
X5410658Y-12578936D02*
X5401134Y-12588460D01*
X5401134Y-12588460D02*
X5382086Y-12597984D01*
X5382086Y-12597984D02*
X5363039Y-12597984D01*
X5363039Y-12597984D02*
X5343991Y-12588460D01*
X5343991Y-12588460D02*
X5334467Y-12578936D01*
X5334467Y-12578936D02*
X5324944Y-12559888D01*
X5324944Y-12559888D02*
X5315420Y-12521793D01*
X5315420Y-12521793D02*
X5315420Y-12474174D01*
X5315420Y-12474174D02*
X5324944Y-12436079D01*
X5324944Y-12436079D02*
X5334467Y-12417031D01*
X5334467Y-12417031D02*
X5343991Y-12407508D01*
X5343991Y-12407508D02*
X5363039Y-12397984D01*
X5515420Y-12597984D02*
X5515420Y-12464650D01*
X5515420Y-12483698D02*
X5524944Y-12474174D01*
X5524944Y-12474174D02*
X5543991Y-12464650D01*
X5543991Y-12464650D02*
X5572563Y-12464650D01*
X5572563Y-12464650D02*
X5591610Y-12474174D01*
X5591610Y-12474174D02*
X5601134Y-12493222D01*
X5601134Y-12493222D02*
X5601134Y-12597984D01*
X5601134Y-12493222D02*
X5610658Y-12474174D01*
X5610658Y-12474174D02*
X5629705Y-12464650D01*
X5629705Y-12464650D02*
X5658277Y-12464650D01*
X5658277Y-12464650D02*
X5677324Y-12474174D01*
X5677324Y-12474174D02*
X5686848Y-12493222D01*
X5686848Y-12493222D02*
X5686848Y-12597984D01*
X5782086Y-12597984D02*
X5782086Y-12464650D01*
X5782086Y-12483698D02*
X5791610Y-12474174D01*
X5791610Y-12474174D02*
X5810658Y-12464650D01*
X5810658Y-12464650D02*
X5839229Y-12464650D01*
X5839229Y-12464650D02*
X5858277Y-12474174D01*
X5858277Y-12474174D02*
X5867801Y-12493222D01*
X5867801Y-12493222D02*
X5867801Y-12597984D01*
X5867801Y-12493222D02*
X5877324Y-12474174D01*
X5877324Y-12474174D02*
X5896372Y-12464650D01*
X5896372Y-12464650D02*
X5924943Y-12464650D01*
X5924943Y-12464650D02*
X5943991Y-12474174D01*
X5943991Y-12474174D02*
X5953515Y-12493222D01*
X5953515Y-12493222D02*
X5953515Y-12597984D01*
X6343991Y-12388460D02*
X6172563Y-12645603D01*
X6601134Y-12397984D02*
X6620182Y-12397984D01*
X6620182Y-12397984D02*
X6639229Y-12407508D01*
X6639229Y-12407508D02*
X6648753Y-12417031D01*
X6648753Y-12417031D02*
X6658277Y-12436079D01*
X6658277Y-12436079D02*
X6667801Y-12474174D01*
X6667801Y-12474174D02*
X6667801Y-12521793D01*
X6667801Y-12521793D02*
X6658277Y-12559888D01*
X6658277Y-12559888D02*
X6648753Y-12578936D01*
X6648753Y-12578936D02*
X6639229Y-12588460D01*
X6639229Y-12588460D02*
X6620182Y-12597984D01*
X6620182Y-12597984D02*
X6601134Y-12597984D01*
X6601134Y-12597984D02*
X6582086Y-12588460D01*
X6582086Y-12588460D02*
X6572563Y-12578936D01*
X6572563Y-12578936D02*
X6563039Y-12559888D01*
X6563039Y-12559888D02*
X6553515Y-12521793D01*
X6553515Y-12521793D02*
X6553515Y-12474174D01*
X6553515Y-12474174D02*
X6563039Y-12436079D01*
X6563039Y-12436079D02*
X6572563Y-12417031D01*
X6572563Y-12417031D02*
X6582086Y-12407508D01*
X6582086Y-12407508D02*
X6601134Y-12397984D01*
X6753515Y-12578936D02*
X6763039Y-12588460D01*
X6763039Y-12588460D02*
X6753515Y-12597984D01*
X6753515Y-12597984D02*
X6743991Y-12588460D01*
X6743991Y-12588460D02*
X6753515Y-12578936D01*
X6753515Y-12578936D02*
X6753515Y-12597984D01*
X6953515Y-12597984D02*
X6839229Y-12597984D01*
X6896372Y-12597984D02*
X6896372Y-12397984D01*
X6896372Y-12397984D02*
X6877325Y-12426555D01*
X6877325Y-12426555D02*
X6858277Y-12445603D01*
X6858277Y-12445603D02*
X6839229Y-12455127D01*
X7124944Y-12397984D02*
X7086848Y-12397984D01*
X7086848Y-12397984D02*
X7067801Y-12407508D01*
X7067801Y-12407508D02*
X7058277Y-12417031D01*
X7058277Y-12417031D02*
X7039229Y-12445603D01*
X7039229Y-12445603D02*
X7029706Y-12483698D01*
X7029706Y-12483698D02*
X7029706Y-12559888D01*
X7029706Y-12559888D02*
X7039229Y-12578936D01*
X7039229Y-12578936D02*
X7048753Y-12588460D01*
X7048753Y-12588460D02*
X7067801Y-12597984D01*
X7067801Y-12597984D02*
X7105896Y-12597984D01*
X7105896Y-12597984D02*
X7124944Y-12588460D01*
X7124944Y-12588460D02*
X7134467Y-12578936D01*
X7134467Y-12578936D02*
X7143991Y-12559888D01*
X7143991Y-12559888D02*
X7143991Y-12512269D01*
X7143991Y-12512269D02*
X7134467Y-12493222D01*
X7134467Y-12493222D02*
X7124944Y-12483698D01*
X7124944Y-12483698D02*
X7105896Y-12474174D01*
X7105896Y-12474174D02*
X7067801Y-12474174D01*
X7067801Y-12474174D02*
X7048753Y-12483698D01*
X7048753Y-12483698D02*
X7039229Y-12493222D01*
X7039229Y-12493222D02*
X7029706Y-12512269D01*
X7324944Y-12397984D02*
X7229706Y-12397984D01*
X7229706Y-12397984D02*
X7220182Y-12493222D01*
X7220182Y-12493222D02*
X7229706Y-12483698D01*
X7229706Y-12483698D02*
X7248753Y-12474174D01*
X7248753Y-12474174D02*
X7296372Y-12474174D01*
X7296372Y-12474174D02*
X7315420Y-12483698D01*
X7315420Y-12483698D02*
X7324944Y-12493222D01*
X7324944Y-12493222D02*
X7334467Y-12512269D01*
X7334467Y-12512269D02*
X7334467Y-12559888D01*
X7334467Y-12559888D02*
X7324944Y-12578936D01*
X7324944Y-12578936D02*
X7315420Y-12588460D01*
X7315420Y-12588460D02*
X7296372Y-12597984D01*
X7296372Y-12597984D02*
X7248753Y-12597984D01*
X7248753Y-12597984D02*
X7229706Y-12588460D01*
X7229706Y-12588460D02*
X7220182Y-12578936D01*
X7505896Y-12464650D02*
X7505896Y-12597984D01*
X7458277Y-12388460D02*
X7410658Y-12531317D01*
X7410658Y-12531317D02*
X7534467Y-12531317D01*
X7601134Y-12397984D02*
X7601134Y-12436079D01*
X7677325Y-12397984D02*
X7677325Y-12436079D01*
X7972563Y-12674174D02*
X7963039Y-12664650D01*
X7963039Y-12664650D02*
X7943991Y-12636079D01*
X7943991Y-12636079D02*
X7934468Y-12617031D01*
X7934468Y-12617031D02*
X7924944Y-12588460D01*
X7924944Y-12588460D02*
X7915420Y-12540841D01*
X7915420Y-12540841D02*
X7915420Y-12502746D01*
X7915420Y-12502746D02*
X7924944Y-12455127D01*
X7924944Y-12455127D02*
X7934468Y-12426555D01*
X7934468Y-12426555D02*
X7943991Y-12407508D01*
X7943991Y-12407508D02*
X7963039Y-12378936D01*
X7963039Y-12378936D02*
X7972563Y-12369412D01*
X8153515Y-12597984D02*
X8039229Y-12597984D01*
X8096372Y-12597984D02*
X8096372Y-12397984D01*
X8096372Y-12397984D02*
X8077325Y-12426555D01*
X8077325Y-12426555D02*
X8058277Y-12445603D01*
X8058277Y-12445603D02*
X8039229Y-12455127D01*
X8334468Y-12397984D02*
X8239229Y-12397984D01*
X8239229Y-12397984D02*
X8229706Y-12493222D01*
X8229706Y-12493222D02*
X8239229Y-12483698D01*
X8239229Y-12483698D02*
X8258277Y-12474174D01*
X8258277Y-12474174D02*
X8305896Y-12474174D01*
X8305896Y-12474174D02*
X8324944Y-12483698D01*
X8324944Y-12483698D02*
X8334468Y-12493222D01*
X8334468Y-12493222D02*
X8343991Y-12512269D01*
X8343991Y-12512269D02*
X8343991Y-12559888D01*
X8343991Y-12559888D02*
X8334468Y-12578936D01*
X8334468Y-12578936D02*
X8324944Y-12588460D01*
X8324944Y-12588460D02*
X8305896Y-12597984D01*
X8305896Y-12597984D02*
X8258277Y-12597984D01*
X8258277Y-12597984D02*
X8239229Y-12588460D01*
X8239229Y-12588460D02*
X8229706Y-12578936D01*
X8582087Y-12597984D02*
X8582087Y-12397984D01*
X8667801Y-12597984D02*
X8667801Y-12493222D01*
X8667801Y-12493222D02*
X8658277Y-12474174D01*
X8658277Y-12474174D02*
X8639230Y-12464650D01*
X8639230Y-12464650D02*
X8610658Y-12464650D01*
X8610658Y-12464650D02*
X8591611Y-12474174D01*
X8591611Y-12474174D02*
X8582087Y-12483698D01*
X8791611Y-12597984D02*
X8772563Y-12588460D01*
X8772563Y-12588460D02*
X8763039Y-12578936D01*
X8763039Y-12578936D02*
X8753515Y-12559888D01*
X8753515Y-12559888D02*
X8753515Y-12502746D01*
X8753515Y-12502746D02*
X8763039Y-12483698D01*
X8763039Y-12483698D02*
X8772563Y-12474174D01*
X8772563Y-12474174D02*
X8791611Y-12464650D01*
X8791611Y-12464650D02*
X8820182Y-12464650D01*
X8820182Y-12464650D02*
X8839230Y-12474174D01*
X8839230Y-12474174D02*
X8848753Y-12483698D01*
X8848753Y-12483698D02*
X8858277Y-12502746D01*
X8858277Y-12502746D02*
X8858277Y-12559888D01*
X8858277Y-12559888D02*
X8848753Y-12578936D01*
X8848753Y-12578936D02*
X8839230Y-12588460D01*
X8839230Y-12588460D02*
X8820182Y-12597984D01*
X8820182Y-12597984D02*
X8791611Y-12597984D01*
X8972563Y-12597984D02*
X8953515Y-12588460D01*
X8953515Y-12588460D02*
X8943992Y-12569412D01*
X8943992Y-12569412D02*
X8943992Y-12397984D01*
X9124944Y-12588460D02*
X9105896Y-12597984D01*
X9105896Y-12597984D02*
X9067801Y-12597984D01*
X9067801Y-12597984D02*
X9048753Y-12588460D01*
X9048753Y-12588460D02*
X9039230Y-12569412D01*
X9039230Y-12569412D02*
X9039230Y-12493222D01*
X9039230Y-12493222D02*
X9048753Y-12474174D01*
X9048753Y-12474174D02*
X9067801Y-12464650D01*
X9067801Y-12464650D02*
X9105896Y-12464650D01*
X9105896Y-12464650D02*
X9124944Y-12474174D01*
X9124944Y-12474174D02*
X9134468Y-12493222D01*
X9134468Y-12493222D02*
X9134468Y-12512269D01*
X9134468Y-12512269D02*
X9039230Y-12531317D01*
X9210658Y-12588460D02*
X9229706Y-12597984D01*
X9229706Y-12597984D02*
X9267801Y-12597984D01*
X9267801Y-12597984D02*
X9286849Y-12588460D01*
X9286849Y-12588460D02*
X9296373Y-12569412D01*
X9296373Y-12569412D02*
X9296373Y-12559888D01*
X9296373Y-12559888D02*
X9286849Y-12540841D01*
X9286849Y-12540841D02*
X9267801Y-12531317D01*
X9267801Y-12531317D02*
X9239230Y-12531317D01*
X9239230Y-12531317D02*
X9220182Y-12521793D01*
X9220182Y-12521793D02*
X9210658Y-12502746D01*
X9210658Y-12502746D02*
X9210658Y-12493222D01*
X9210658Y-12493222D02*
X9220182Y-12474174D01*
X9220182Y-12474174D02*
X9239230Y-12464650D01*
X9239230Y-12464650D02*
X9267801Y-12464650D01*
X9267801Y-12464650D02*
X9286849Y-12474174D01*
X9363039Y-12674174D02*
X9372563Y-12664650D01*
X9372563Y-12664650D02*
X9391611Y-12636079D01*
X9391611Y-12636079D02*
X9401134Y-12617031D01*
X9401134Y-12617031D02*
X9410658Y-12588460D01*
X9410658Y-12588460D02*
X9420182Y-12540841D01*
X9420182Y-12540841D02*
X9420182Y-12502746D01*
X9420182Y-12502746D02*
X9410658Y-12455127D01*
X9410658Y-12455127D02*
X9401134Y-12426555D01*
X9401134Y-12426555D02*
X9391611Y-12407508D01*
X9391611Y-12407508D02*
X9372563Y-12378936D01*
X9372563Y-12378936D02*
X9363039Y-12369412D01*
M02*
