%TF.GenerationSoftware,KiCad,Pcbnew,7.0.11-rc3*%
%TF.CreationDate,2025-12-05T17:25:17+08:00*%
%TF.ProjectId,seg_pcb_1,7365675f-7063-4625-9f31-2e6b69636164,rev?*%
%TF.SameCoordinates,Original*%
%TF.FileFunction,Copper,L1,Top*%
%TF.FilePolarity,Positive*%
%FSLAX46Y46*%
G04 Gerber Fmt 4.6, Leading zero omitted, Abs format (unit mm)*
G04 Created by KiCad (PCBNEW 7.0.11-rc3) date 2025-12-05 17:25:17*
%MOMM*%
%LPD*%
G01*
G04 APERTURE LIST*
G04 Aperture macros list*
%AMRoundRect*
0 Rectangle with rounded corners*
0 $1 Rounding radius*
0 $2 $3 $4 $5 $6 $7 $8 $9 X,Y pos of 4 corners*
0 Add a 4 corners polygon primitive as box body*
4,1,4,$2,$3,$4,$5,$6,$7,$8,$9,$2,$3,0*
0 Add four circle primitives for the rounded corners*
1,1,$1+$1,$2,$3*
1,1,$1+$1,$4,$5*
1,1,$1+$1,$6,$7*
1,1,$1+$1,$8,$9*
0 Add four rect primitives between the rounded corners*
20,1,$1+$1,$2,$3,$4,$5,0*
20,1,$1+$1,$4,$5,$6,$7,0*
20,1,$1+$1,$6,$7,$8,$9,0*
20,1,$1+$1,$8,$9,$2,$3,0*%
G04 Aperture macros list end*
%TA.AperFunction,ComponentPad*%
%ADD10C,4.400000*%
%TD*%
%TA.AperFunction,SMDPad,CuDef*%
%ADD11R,6.000000X15.000000*%
%TD*%
%TA.AperFunction,SMDPad,CuDef*%
%ADD12R,0.350000X2.500000*%
%TD*%
%TA.AperFunction,SMDPad,CuDef*%
%ADD13R,2.500000X2.000000*%
%TD*%
%TA.AperFunction,SMDPad,CuDef*%
%ADD14RoundRect,0.250000X-0.400000X-0.625000X0.400000X-0.625000X0.400000X0.625000X-0.400000X0.625000X0*%
%TD*%
%TA.AperFunction,ViaPad*%
%ADD15C,0.600000*%
%TD*%
%TA.AperFunction,Conductor*%
%ADD16C,0.200000*%
%TD*%
G04 APERTURE END LIST*
D10*
%TO.P,TP4,1,1*%
%TO.N,Net-(J1-Pin_6)*%
X94400000Y-67500000D03*
D11*
X94400000Y-67500000D03*
%TD*%
D10*
%TO.P,TP5,1,1*%
%TO.N,Net-(J1-Pin_15)*%
X103600000Y-96500000D03*
D11*
X103600000Y-96500000D03*
%TD*%
D12*
%TO.P,J1,1,Pin_1*%
%TO.N,Net-(J1-Pin_1)*%
X124857500Y-79650000D03*
%TO.P,J1,2,Pin_2*%
%TO.N,Net-(J1-Pin_2)*%
X124222500Y-79650000D03*
%TO.P,J1,3,Pin_3*%
%TO.N,Net-(J1-Pin_3)*%
X123587500Y-79650000D03*
%TO.P,J1,4,Pin_4*%
%TO.N,Net-(J1-Pin_4)*%
X122952500Y-79650000D03*
%TO.P,J1,5,Pin_5*%
%TO.N,Net-(J1-Pin_5)*%
X122317500Y-79650000D03*
%TO.P,J1,6,Pin_6*%
%TO.N,Net-(J1-Pin_6)*%
X121682500Y-79650000D03*
%TO.P,J1,7,Pin_7*%
%TO.N,Net-(J1-Pin_7)*%
X121047500Y-79650000D03*
%TO.P,J1,8,Pin_8*%
%TO.N,GND*%
X120412500Y-79650000D03*
%TO.P,J1,9,Pin_9*%
%TO.N,Net-(J1-Pin_9)*%
X119777500Y-79650000D03*
%TO.P,J1,10,Pin_10*%
%TO.N,Net-(J1-Pin_10)*%
X119142500Y-79650000D03*
%TO.P,J1,11,Pin_11*%
%TO.N,Net-(J1-Pin_11)*%
X124857500Y-84350000D03*
%TO.P,J1,12,Pin_12*%
%TO.N,Net-(J1-Pin_12)*%
X124222500Y-84350000D03*
%TO.P,J1,13,Pin_13*%
%TO.N,Net-(J1-Pin_13)*%
X123587500Y-84350000D03*
%TO.P,J1,14,Pin_14*%
%TO.N,Net-(J1-Pin_14)*%
X122952500Y-84350000D03*
%TO.P,J1,15,Pin_15*%
%TO.N,Net-(J1-Pin_15)*%
X122317500Y-84350000D03*
%TO.P,J1,16,Pin_16*%
%TO.N,Net-(J1-Pin_16)*%
X121682500Y-84350000D03*
%TO.P,J1,17,Pin_17*%
%TO.N,Net-(J1-Pin_17)*%
X121047500Y-84350000D03*
%TO.P,J1,18,Pin_18*%
%TO.N,Net-(J1-Pin_18)*%
X120412500Y-84350000D03*
%TO.P,J1,19,Pin_19*%
%TO.N,Net-(J1-Pin_19)*%
X119777500Y-84350000D03*
%TO.P,J1,20,Pin_20*%
%TO.N,Net-(J1-Pin_20)*%
X119142500Y-84350000D03*
D13*
%TO.P,J1,P1*%
%TO.N,N/C*%
X128559991Y-82000000D03*
%TO.P,J1,P2*%
X115440009Y-82000000D03*
%TD*%
D10*
%TO.P,TP11,1,1*%
%TO.N,Net-(J1-Pin_12)*%
X158800000Y-96500000D03*
D11*
X158800000Y-96500000D03*
%TD*%
D14*
%TO.P,R1,1*%
%TO.N,Net-(J1-Pin_18)*%
X175650000Y-112650000D03*
%TO.P,R1,2*%
%TO.N,GND*%
X178750000Y-112650000D03*
%TD*%
D10*
%TO.P,TP12,1,1*%
%TO.N,Net-(J1-Pin_2)*%
X168000000Y-67500000D03*
D11*
X168000000Y-67500000D03*
%TD*%
D10*
%TO.P,TP10,1,1*%
%TO.N,Net-(J1-Pin_3)*%
X149600000Y-67500000D03*
D11*
X149600000Y-67500000D03*
%TD*%
D10*
%TO.P,TP9,1,1*%
%TO.N,Net-(J1-Pin_13)*%
X140400000Y-96500000D03*
D11*
X140400000Y-96500000D03*
%TD*%
D10*
%TO.P,TP1,1,1*%
%TO.N,Net-(J1-Pin_17)*%
X66800000Y-96500000D03*
D11*
X66800000Y-96500000D03*
%TD*%
D14*
%TO.P,R5,1*%
%TO.N,GND*%
X92850000Y-51250000D03*
%TO.P,R5,2*%
%TO.N,Net-(J1-Pin_10)*%
X95950000Y-51250000D03*
%TD*%
%TO.P,R2,1*%
%TO.N,Net-(J1-Pin_19)*%
X120450000Y-112650000D03*
%TO.P,R2,2*%
%TO.N,GND*%
X123550000Y-112650000D03*
%TD*%
D10*
%TO.P,TP14,1,1*%
%TO.N,Net-(J1-Pin_1)*%
X188400000Y-67500000D03*
D11*
X188400000Y-67500000D03*
%TD*%
D10*
%TO.P,TP6,1,1*%
%TO.N,Net-(J1-Pin_5)*%
X112800000Y-67500000D03*
D11*
X112800000Y-67500000D03*
%TD*%
D10*
%TO.P,TP13,1,1*%
%TO.N,Net-(J1-Pin_11)*%
X177200000Y-96500000D03*
D11*
X177200000Y-96500000D03*
%TD*%
D10*
%TO.P,TP8,1,1*%
%TO.N,Net-(J1-Pin_4)*%
X131200000Y-67500000D03*
D11*
X131200000Y-67500000D03*
%TD*%
D14*
%TO.P,R4,1*%
%TO.N,GND*%
X148050000Y-51250000D03*
%TO.P,R4,2*%
%TO.N,Net-(J1-Pin_9)*%
X151150000Y-51250000D03*
%TD*%
D10*
%TO.P,TP2,1,1*%
%TO.N,Net-(J1-Pin_7)*%
X76000000Y-67500000D03*
D11*
X76000000Y-67500000D03*
%TD*%
D10*
%TO.P,TP3,1,1*%
%TO.N,Net-(J1-Pin_16)*%
X85200000Y-96500000D03*
D11*
X85200000Y-96500000D03*
%TD*%
D14*
%TO.P,R3,1*%
%TO.N,Net-(J1-Pin_20)*%
X65250000Y-112650000D03*
%TO.P,R3,2*%
%TO.N,GND*%
X68350000Y-112650000D03*
%TD*%
D10*
%TO.P,TP7,1,1*%
%TO.N,Net-(J1-Pin_14)*%
X122000000Y-96500000D03*
D11*
X122000000Y-96500000D03*
%TD*%
D10*
%TO.P,TP0,1,1*%
%TO.N,GND*%
X55600000Y-67500000D03*
D11*
X55600000Y-67500000D03*
%TD*%
D15*
%TO.N,GND*%
X148050000Y-51250000D03*
X123550000Y-112650000D03*
X178750000Y-112650000D03*
X92850000Y-51250000D03*
X120030000Y-81540000D03*
X68350000Y-112650000D03*
%TO.N,Net-(J1-Pin_9)*%
X119010000Y-81530000D03*
X151150000Y-51250000D03*
%TO.N,Net-(J1-Pin_10)*%
X117780000Y-79640000D03*
X95950000Y-51250000D03*
%TO.N,Net-(J1-Pin_18)*%
X120100000Y-82400000D03*
X175650000Y-112650000D03*
%TO.N,Net-(J1-Pin_19)*%
X120450000Y-112650000D03*
X119000000Y-82500000D03*
%TO.N,Net-(J1-Pin_1)*%
X124857500Y-81590000D03*
%TO.N,Net-(J1-Pin_2)*%
X124230000Y-77910000D03*
%TO.N,Net-(J1-Pin_3)*%
X123570000Y-81540000D03*
%TO.N,Net-(J1-Pin_4)*%
X122950000Y-77900000D03*
%TO.N,Net-(J1-Pin_5)*%
X122330000Y-81550000D03*
%TO.N,Net-(J1-Pin_6)*%
X121630000Y-77900000D03*
%TO.N,Net-(J1-Pin_7)*%
X121040000Y-81540000D03*
%TO.N,Net-(J1-Pin_20)*%
X117500000Y-84100000D03*
X65250000Y-110900000D03*
%TO.N,Net-(J1-Pin_11)*%
X126700000Y-84350000D03*
%TO.N,Net-(J1-Pin_12)*%
X124610000Y-82570000D03*
%TO.N,Net-(J1-Pin_13)*%
X123610000Y-82560000D03*
%TO.N,Net-(J1-Pin_14)*%
X123000000Y-86250000D03*
%TO.N,Net-(J1-Pin_15)*%
X122700000Y-82550000D03*
%TO.N,Net-(J1-Pin_16)*%
X121750000Y-82550000D03*
%TO.N,Net-(J1-Pin_17)*%
X120950000Y-82550000D03*
%TD*%
D16*
%TO.N,GND*%
X120030000Y-81540000D02*
X120412500Y-81157500D01*
X120412500Y-81157500D02*
X120412500Y-79650000D01*
%TO.N,Net-(J1-Pin_9)*%
X119777500Y-79650000D02*
X119777500Y-80943971D01*
X119777500Y-80943971D02*
X119191471Y-81530000D01*
X119191471Y-81530000D02*
X119010000Y-81530000D01*
%TO.N,Net-(J1-Pin_10)*%
X117790000Y-79650000D02*
X117780000Y-79640000D01*
X119142500Y-79650000D02*
X117790000Y-79650000D01*
%TO.N,Net-(J1-Pin_18)*%
X120100000Y-82587500D02*
X120100000Y-82400000D01*
X120412500Y-84350000D02*
X120412500Y-82900000D01*
X120412500Y-82900000D02*
X120100000Y-82587500D01*
%TO.N,Net-(J1-Pin_19)*%
X119000000Y-82500000D02*
X119317500Y-82500000D01*
X119777500Y-82960000D02*
X119777500Y-84350000D01*
X119317500Y-82500000D02*
X119777500Y-82960000D01*
%TO.N,Net-(J1-Pin_1)*%
X124857500Y-81590000D02*
X124857500Y-79650000D01*
%TO.N,Net-(J1-Pin_2)*%
X124222500Y-79650000D02*
X124222500Y-77917500D01*
X124222500Y-77917500D02*
X124230000Y-77910000D01*
%TO.N,Net-(J1-Pin_3)*%
X123570000Y-81540000D02*
X123570000Y-79667500D01*
X123570000Y-79667500D02*
X123587500Y-79650000D01*
%TO.N,Net-(J1-Pin_4)*%
X122952500Y-77902500D02*
X122952500Y-79650000D01*
X122950000Y-77900000D02*
X122952500Y-77902500D01*
%TO.N,Net-(J1-Pin_5)*%
X122317500Y-81537500D02*
X122330000Y-81550000D01*
X122317500Y-79650000D02*
X122317500Y-81537500D01*
%TO.N,Net-(J1-Pin_6)*%
X121682500Y-77952500D02*
X121682500Y-79650000D01*
X121630000Y-77900000D02*
X121682500Y-77952500D01*
%TO.N,Net-(J1-Pin_7)*%
X121047500Y-81532500D02*
X121040000Y-81540000D01*
X121047500Y-79650000D02*
X121047500Y-81532500D01*
%TO.N,Net-(J1-Pin_20)*%
X117750000Y-84350000D02*
X117500000Y-84100000D01*
X119142500Y-84350000D02*
X117750000Y-84350000D01*
X65250000Y-112650000D02*
X65250000Y-110900000D01*
%TO.N,Net-(J1-Pin_11)*%
X124857500Y-84350000D02*
X126700000Y-84350000D01*
%TO.N,Net-(J1-Pin_12)*%
X124610000Y-82570000D02*
X124222500Y-82957500D01*
X124222500Y-82957500D02*
X124222500Y-84350000D01*
%TO.N,Net-(J1-Pin_13)*%
X123587500Y-82582500D02*
X123587500Y-84350000D01*
X123610000Y-82560000D02*
X123587500Y-82582500D01*
%TO.N,Net-(J1-Pin_14)*%
X122952500Y-86202500D02*
X122952500Y-84350000D01*
X123000000Y-86250000D02*
X122952500Y-86202500D01*
%TO.N,Net-(J1-Pin_15)*%
X122700000Y-82550000D02*
X122317500Y-82932500D01*
X122317500Y-82932500D02*
X122317500Y-84350000D01*
%TO.N,Net-(J1-Pin_16)*%
X121682500Y-82617500D02*
X121682500Y-84350000D01*
X121750000Y-82550000D02*
X121682500Y-82617500D01*
%TO.N,Net-(J1-Pin_17)*%
X121047500Y-84350000D02*
X121047500Y-82647500D01*
X121047500Y-82647500D02*
X120950000Y-82550000D01*
%TD*%
M02*
