%TF.GenerationSoftware,KiCad,Pcbnew,9.0.1*%
%TF.CreationDate,2026-09-27T23:18:37+08:00*%
%TF.ProjectId,BSPD,42535044-2e6b-4696-9361-645f70636258,rev?*%
%TF.SameCoordinates,Original*%
%TF.FileFunction,Copper,L2,Bot*%
%TF.FilePolarity,Positive*%
%FSLAX46Y46*%
G04 Gerber Fmt 4.6, Leading zero omitted, Abs format (unit mm)*
G04 Created by KiCad (PCBNEW 9.0.1) date 2026-09-27 23:18:37*
%MOMM*%
%LPD*%
G01*
G04 APERTURE LIST*
G04 Aperture macros list*
%AMRoundRect*
0 Rectangle with rounded corners*
0 $1 Rounding radius*
0 $2 $3 $4 $5 $6 $7 $8 $9 X,Y pos of 4 corners*
0 Add a 4 corners polygon primitive as box body*
4,1,4,$2,$3,$4,$5,$6,$7,$8,$9,$2,$3,0*
0 Add four circle primitives for the rounded corners*
1,1,$1+$1,$2,$3*
1,1,$1+$1,$4,$5*
1,1,$1+$1,$6,$7*
1,1,$1+$1,$8,$9*
0 Add four rect primitives between the rounded corners*
20,1,$1+$1,$2,$3,$4,$5,0*
20,1,$1+$1,$4,$5,$6,$7,0*
20,1,$1+$1,$6,$7,$8,$9,0*
20,1,$1+$1,$8,$9,$2,$3,0*%
%AMRotRect*
0 Rectangle, with rotation*
0 The origin of the aperture is its center*
0 $1 length*
0 $2 width*
0 $3 Rotation angle, in degrees counterclockwise*
0 Add horizontal line*
21,1,$1,$2,0,0,$3*%
G04 Aperture macros list end*
%TA.AperFunction,ComponentPad*%
%ADD10RoundRect,0.250001X-0.759999X0.499999X-0.759999X-0.499999X0.759999X-0.499999X0.759999X0.499999X0*%
%TD*%
%TA.AperFunction,ComponentPad*%
%ADD11O,2.020000X1.500000*%
%TD*%
%TA.AperFunction,ComponentPad*%
%ADD12C,3.000000*%
%TD*%
%TA.AperFunction,ComponentPad*%
%ADD13C,2.500000*%
%TD*%
%TA.AperFunction,ComponentPad*%
%ADD14RotRect,1.600000X1.600000X225.000000*%
%TD*%
%TA.AperFunction,ComponentPad*%
%ADD15C,1.600000*%
%TD*%
%TA.AperFunction,ComponentPad*%
%ADD16R,1.600000X1.600000*%
%TD*%
%TA.AperFunction,ComponentPad*%
%ADD17O,1.600000X1.600000*%
%TD*%
%TA.AperFunction,ComponentPad*%
%ADD18C,1.440000*%
%TD*%
%TA.AperFunction,SMDPad,CuDef*%
%ADD19RoundRect,0.250000X0.337500X0.475000X-0.337500X0.475000X-0.337500X-0.475000X0.337500X-0.475000X0*%
%TD*%
%TA.AperFunction,SMDPad,CuDef*%
%ADD20RoundRect,0.250000X-0.325000X-0.450000X0.325000X-0.450000X0.325000X0.450000X-0.325000X0.450000X0*%
%TD*%
%TA.AperFunction,SMDPad,CuDef*%
%ADD21RoundRect,0.250000X-0.337500X-0.475000X0.337500X-0.475000X0.337500X0.475000X-0.337500X0.475000X0*%
%TD*%
%TA.AperFunction,SMDPad,CuDef*%
%ADD22RoundRect,0.250000X0.350000X-0.850000X0.350000X0.850000X-0.350000X0.850000X-0.350000X-0.850000X0*%
%TD*%
%TA.AperFunction,SMDPad,CuDef*%
%ADD23RoundRect,0.249997X2.650003X-2.950003X2.650003X2.950003X-2.650003X2.950003X-2.650003X-2.950003X0*%
%TD*%
%TA.AperFunction,ViaPad*%
%ADD24C,0.600000*%
%TD*%
%TA.AperFunction,ViaPad*%
%ADD25C,1.016000*%
%TD*%
%TA.AperFunction,ViaPad*%
%ADD26C,1.000000*%
%TD*%
%TA.AperFunction,Conductor*%
%ADD27C,0.508000*%
%TD*%
%TA.AperFunction,Conductor*%
%ADD28C,0.762000*%
%TD*%
%TA.AperFunction,Conductor*%
%ADD29C,0.381000*%
%TD*%
%TA.AperFunction,Conductor*%
%ADD30C,1.016000*%
%TD*%
%TA.AperFunction,Conductor*%
%ADD31C,0.200000*%
%TD*%
G04 APERTURE END LIST*
D10*
%TO.P,J3,1,Pin_1*%
%TO.N,GND*%
X178384200Y-66164200D03*
D11*
%TO.P,J3,2,Pin_2*%
%TO.N,Net-(J3-Pin_2)*%
X178384200Y-69164200D03*
%TD*%
D12*
%TO.P,K1,1*%
%TO.N,/SC1*%
X154364800Y-102209600D03*
D13*
%TO.P,K1,2*%
%TO.N,/relay-*%
X156314800Y-108259600D03*
D12*
%TO.P,K1,3*%
%TO.N,/SC2*%
X168514800Y-108259600D03*
%TO.P,K1,4*%
%TO.N,unconnected-(K1-Pad4)*%
X168564800Y-96209600D03*
D13*
%TO.P,K1,5*%
%TO.N,+12V*%
X156314800Y-96259600D03*
%TD*%
D10*
%TO.P,J6,1,Pin_1*%
%TO.N,+5V*%
X178384200Y-77032600D03*
D11*
%TO.P,J6,2,Pin_2*%
X178384200Y-80032600D03*
%TO.P,J6,3,Pin_3*%
%TO.N,GND*%
X178384200Y-83032600D03*
%TO.P,J6,4,Pin_4*%
X178384200Y-86032600D03*
%TD*%
D14*
%TO.P,C1,1*%
%TO.N,+5V*%
X165216767Y-75448233D03*
D15*
%TO.P,C1,2*%
%TO.N,GND*%
X163449000Y-77216000D03*
%TD*%
D10*
%TO.P,J2,1,Pin_1*%
%TO.N,/SC1*%
X178380000Y-104955600D03*
D11*
%TO.P,J2,2,Pin_2*%
%TO.N,/SC2*%
X178380000Y-107955600D03*
%TD*%
D16*
%TO.P,D1,1,K*%
%TO.N,+12V*%
X149860000Y-98399600D03*
D17*
%TO.P,D1,2,A*%
%TO.N,/relay-*%
X149860000Y-106019600D03*
%TD*%
D18*
%TO.P,RV2,1,1*%
%TO.N,Net-(U6A-+)*%
X142341603Y-82803999D03*
%TO.P,RV2,2,2*%
%TO.N,GND*%
X139801603Y-82803999D03*
%TO.P,RV2,3,3*%
%TO.N,unconnected-(RV2-Pad3)*%
X137261604Y-82803999D03*
%TD*%
D16*
%TO.P,C2,1*%
%TO.N,+12V*%
X170042200Y-75209400D03*
D15*
%TO.P,C2,2*%
%TO.N,GND*%
X170042200Y-77709400D03*
%TD*%
D18*
%TO.P,RV1,1,1*%
%TO.N,Net-(U6B-+)*%
X142367000Y-65176400D03*
%TO.P,RV1,2,2*%
%TO.N,GND*%
X139827000Y-65176400D03*
%TO.P,RV1,3,3*%
%TO.N,unconnected-(RV1-Pad3)*%
X137287001Y-65176400D03*
%TD*%
D10*
%TO.P,J1,1,Pin_1*%
%TO.N,Net-(J1-Pin_1)*%
X178380000Y-93898200D03*
D11*
%TO.P,J1,2,Pin_2*%
%TO.N,Net-(J1-Pin_2)*%
X178380000Y-96898200D03*
%TD*%
D19*
%TO.P,C5,1*%
%TO.N,+12V*%
X153742300Y-86055200D03*
%TO.P,C5,2*%
%TO.N,GND*%
X151667300Y-86055200D03*
%TD*%
%TO.P,C7,1*%
%TO.N,+5V*%
X149779900Y-72964799D03*
%TO.P,C7,2*%
%TO.N,GND*%
X147704900Y-72964799D03*
%TD*%
D20*
%TO.P,F1,1*%
%TO.N,+12V*%
X172879802Y-76377800D03*
%TO.P,F1,2*%
%TO.N,Net-(J3-Pin_2)*%
X174929800Y-76377800D03*
%TD*%
D19*
%TO.P,C6,1*%
%TO.N,+12V*%
X165375500Y-86918800D03*
%TO.P,C6,2*%
%TO.N,GND*%
X163300500Y-86918800D03*
%TD*%
D21*
%TO.P,C3,1*%
%TO.N,+12V*%
X172139700Y-72364600D03*
%TO.P,C3,2*%
%TO.N,GND*%
X174214700Y-72364600D03*
%TD*%
D19*
%TO.P,C4,1*%
%TO.N,+5V*%
X163089500Y-73812400D03*
%TO.P,C4,2*%
%TO.N,GND*%
X161014500Y-73812400D03*
%TD*%
%TO.P,C9,1*%
%TO.N,+5V*%
X138984900Y-89548700D03*
%TO.P,C9,2*%
%TO.N,GND*%
X136909900Y-89548700D03*
%TD*%
D22*
%TO.P,U5,1,VI*%
%TO.N,+12V*%
X169996200Y-72568601D03*
D23*
%TO.P,U5,2,GND*%
%TO.N,GND*%
X167716200Y-66268600D03*
D22*
%TO.P,U5,3,VO*%
%TO.N,+5V*%
X165436200Y-72568601D03*
%TD*%
D19*
%TO.P,C8,1*%
%TO.N,+5V*%
X140127900Y-69164200D03*
%TO.P,C8,2*%
%TO.N,GND*%
X138052900Y-69164200D03*
%TD*%
D24*
%TO.N,GND*%
X153543000Y-65989200D03*
X153238200Y-63601600D03*
X151028400Y-63881000D03*
X151460200Y-65760600D03*
X154965400Y-66040000D03*
X154330400Y-68351400D03*
X152069800Y-68275200D03*
X149580600Y-67995800D03*
X149656800Y-65608200D03*
X149682200Y-63576200D03*
X147345400Y-63601600D03*
X142341600Y-63322200D03*
X138150600Y-63373000D03*
%TO.N,Net-(U6A-+)*%
X142875000Y-79070200D03*
%TO.N,+5V*%
X140234106Y-69088000D03*
X149779900Y-72964799D03*
X167995600Y-83362800D03*
X168300400Y-86614000D03*
D25*
X151206200Y-83820000D03*
D24*
X132943600Y-104140000D03*
X150596600Y-90779600D03*
X139039600Y-91338400D03*
X140335000Y-108077000D03*
D25*
X132562600Y-74904597D03*
D24*
%TO.N,GND*%
X147704900Y-72964799D03*
X154254200Y-77241400D03*
X178536600Y-99187000D03*
X126365000Y-66649600D03*
X133604000Y-95681800D03*
X148056600Y-82626200D03*
X131165600Y-64490600D03*
X182854600Y-90119200D03*
X167538400Y-68656200D03*
X160045400Y-76885800D03*
X147142200Y-95707200D03*
X126263400Y-102184200D03*
X126339600Y-64414400D03*
X130683000Y-67157600D03*
X127304800Y-106248200D03*
X182753000Y-109626400D03*
X147193000Y-91135200D03*
X161417000Y-67284600D03*
X168833800Y-63652400D03*
X143535400Y-95021400D03*
X166293800Y-105689400D03*
X126263400Y-81661000D03*
X133578600Y-101269800D03*
X169265600Y-64719200D03*
X131978400Y-107594400D03*
X126187200Y-86360000D03*
X167665400Y-67208400D03*
X165912800Y-67284600D03*
X147574000Y-110007400D03*
X132410200Y-90957400D03*
X159385000Y-69900800D03*
X147523200Y-79425800D03*
X163220400Y-70002400D03*
X129463800Y-63398400D03*
X174117000Y-66344800D03*
X126949200Y-74498200D03*
X127685800Y-63373000D03*
X174580000Y-100728200D03*
X133197600Y-85877400D03*
X179425600Y-102743000D03*
X172059600Y-97917000D03*
X167487600Y-63601600D03*
X146837400Y-81407000D03*
X145872200Y-79502000D03*
X166116000Y-68681600D03*
X151460200Y-95808800D03*
X129743200Y-102387400D03*
X185039000Y-108966000D03*
X133883400Y-102641400D03*
X172364400Y-66040000D03*
X155625800Y-78536800D03*
X172288200Y-63855600D03*
X182854600Y-100634800D03*
X161315400Y-78536800D03*
X181305200Y-74498200D03*
X140004800Y-74320400D03*
X162280600Y-64084200D03*
X126263400Y-83947000D03*
X162814000Y-105892600D03*
X147853400Y-103022400D03*
X128625600Y-72161400D03*
X140367000Y-103403400D03*
X130124200Y-106705400D03*
X135915400Y-84099400D03*
X167436800Y-64719200D03*
X151460200Y-80975200D03*
X133197600Y-81381600D03*
X169367200Y-67233800D03*
X135580600Y-103581200D03*
X149072600Y-87833200D03*
X183083200Y-87426800D03*
X169214800Y-65887600D03*
X141401800Y-110667800D03*
X184531000Y-64770000D03*
X160477200Y-92481400D03*
X163195000Y-98831400D03*
X165811200Y-98831400D03*
X133781800Y-109270800D03*
X157454600Y-63881000D03*
X141071600Y-85369400D03*
X170484800Y-86233000D03*
X180594000Y-81076800D03*
X138455400Y-99491800D03*
X184785000Y-96748600D03*
X159842200Y-79121000D03*
X144881600Y-86360000D03*
X163093400Y-65862200D03*
X156540200Y-67716400D03*
X167792400Y-88519000D03*
X150012400Y-86944200D03*
X168224200Y-79019400D03*
X161036000Y-75920600D03*
X163245800Y-68072000D03*
X158978600Y-105765600D03*
X184861200Y-104444800D03*
X151282400Y-109245400D03*
X129993300Y-93522800D03*
X130149600Y-81127600D03*
X146710400Y-83845400D03*
X133121400Y-79095600D03*
X161239200Y-69926200D03*
X130098800Y-83185000D03*
X126263400Y-79552800D03*
X163449000Y-109296200D03*
X166827200Y-78587600D03*
X151612600Y-78181200D03*
X158546800Y-110566200D03*
X144830800Y-95961200D03*
X128168400Y-68199000D03*
X181635400Y-64033400D03*
X166141400Y-63627000D03*
X134188200Y-69392800D03*
X158724600Y-75488800D03*
X176834800Y-91567000D03*
X181940200Y-103225600D03*
X159562800Y-64389000D03*
X130124200Y-85852000D03*
X159918400Y-98958400D03*
X175310800Y-98806000D03*
X183007000Y-71577200D03*
X130073400Y-78917800D03*
X133578600Y-99314000D03*
X133045200Y-83388200D03*
X133604000Y-97612200D03*
X138277600Y-85064600D03*
X184861200Y-77978000D03*
X174574200Y-68148200D03*
X136169400Y-110109000D03*
X126263400Y-77393800D03*
X131445000Y-71475600D03*
X170688000Y-110617000D03*
X150215600Y-92176600D03*
X147853400Y-99568000D03*
X165811200Y-65862200D03*
X185039000Y-68808600D03*
X170307000Y-92430600D03*
X163245800Y-80162400D03*
X148005800Y-67233800D03*
X185191400Y-86055200D03*
X170078400Y-82778600D03*
X149148800Y-95808800D03*
X151790400Y-75971400D03*
X167538400Y-65862200D03*
X130022600Y-90881200D03*
X172110400Y-69621400D03*
X165760400Y-64668400D03*
X148818600Y-91186000D03*
X168884600Y-68630800D03*
X185674000Y-82092800D03*
X173075600Y-92862400D03*
X158699200Y-67310000D03*
X159867600Y-80441800D03*
X184226200Y-92862400D03*
X174066200Y-63906400D03*
D26*
%TO.N,+12V*%
X155651200Y-86029800D03*
X166272300Y-88493600D03*
%TD*%
D27*
%TO.N,Net-(U6A-+)*%
X144119600Y-80289400D02*
X142900400Y-79070200D01*
X144119600Y-81026002D02*
X144119600Y-80289400D01*
X142900400Y-79070200D02*
X142875000Y-79070200D01*
X142341603Y-82803999D02*
X144119600Y-81026002D01*
D28*
%TO.N,+5V*%
X139319710Y-73096399D02*
X140204806Y-72211303D01*
X134370798Y-73096399D02*
X139319710Y-73096399D01*
X132562600Y-74904597D02*
X134370798Y-73096399D01*
X140204806Y-72211303D02*
X140204806Y-69302400D01*
X140335000Y-108077000D02*
X136880600Y-108077000D01*
D29*
X168300400Y-86614000D02*
X168300400Y-84836000D01*
D28*
X136880600Y-108077000D02*
X132943600Y-104140000D01*
D30*
X147421600Y-87604600D02*
X145477500Y-89548700D01*
X145477500Y-89548700D02*
X138984900Y-89548700D01*
D28*
X138984900Y-89548700D02*
X138984900Y-91283700D01*
D30*
X151206200Y-83820000D02*
X147421600Y-87604600D01*
X149779900Y-72239799D02*
X148650699Y-71110598D01*
D28*
X132638800Y-103835200D02*
X132943600Y-104140000D01*
D30*
X149779900Y-82038100D02*
X149779900Y-72964799D01*
X151206200Y-83464400D02*
X149779900Y-82038100D01*
D28*
X138984900Y-91283700D02*
X139039600Y-91338400D01*
D30*
X165436200Y-75228800D02*
X165216767Y-75448233D01*
D29*
X168300400Y-84836000D02*
X165379400Y-81915000D01*
D30*
X149821299Y-72923400D02*
X157505400Y-72923400D01*
D28*
X134315200Y-91338400D02*
X132181600Y-93472000D01*
X132181600Y-103378000D02*
X132638800Y-103835200D01*
D29*
X167995600Y-83540600D02*
X167640000Y-83896200D01*
D30*
X164978199Y-72110600D02*
X165436200Y-72568601D01*
X165436200Y-72568601D02*
X165436200Y-75228800D01*
X163089500Y-72343100D02*
X163089500Y-73812400D01*
D28*
X132181600Y-93472000D02*
X132181600Y-103378000D01*
D30*
X163322000Y-72110600D02*
X164978199Y-72110600D01*
X151206200Y-83820000D02*
X151206200Y-83464400D01*
X163322000Y-72110600D02*
X163089500Y-72343100D01*
X158318200Y-72110600D02*
X163322000Y-72110600D01*
D29*
X167995600Y-83362800D02*
X167995600Y-83540600D01*
D30*
X149779900Y-72964799D02*
X149779900Y-72239799D01*
D29*
X165379400Y-81915000D02*
X165379400Y-75158600D01*
D30*
X149779900Y-72964799D02*
X149821299Y-72923400D01*
D29*
X150596600Y-90779600D02*
X147421600Y-87604600D01*
D30*
X157505400Y-72923400D02*
X158318200Y-72110600D01*
D28*
X139039600Y-91338400D02*
X134315200Y-91338400D01*
D30*
X148650699Y-71110598D02*
X140204099Y-71110598D01*
%TO.N,+12V*%
X169996200Y-72568601D02*
X171935699Y-72568601D01*
X171935699Y-72568601D02*
X172139700Y-72364600D01*
X163709400Y-96259600D02*
X156314800Y-96259600D01*
X149860000Y-98399600D02*
X154174800Y-98399600D01*
X155648200Y-95593000D02*
X156314800Y-96259600D01*
X153742300Y-86055200D02*
X155625800Y-86055200D01*
X166290800Y-88671400D02*
X166290800Y-90751200D01*
X166290800Y-90751200D02*
X167754300Y-92214700D01*
X166319200Y-87862500D02*
X165375500Y-86918800D01*
X170042200Y-75209400D02*
X171711402Y-75209400D01*
X172796200Y-87172800D02*
X167754300Y-92214700D01*
D27*
X166272300Y-88493600D02*
X166319200Y-88493600D01*
D31*
X155625800Y-86055200D02*
X155651200Y-86029800D01*
D30*
X172796200Y-76294198D02*
X172796200Y-87172800D01*
X171711402Y-75209400D02*
X172796200Y-76294198D01*
X155648200Y-86055200D02*
X155648200Y-95593000D01*
X154174800Y-98399600D02*
X156314800Y-96259600D01*
X167754300Y-92214700D02*
X163709400Y-96259600D01*
X166319200Y-88493600D02*
X166319200Y-87862500D01*
%TD*%
%TA.AperFunction,Conductor*%
%TO.N,GND*%
G36*
X164673797Y-62470785D02*
G01*
X164719552Y-62523589D01*
X164729496Y-62592747D01*
X164700471Y-62656303D01*
X164671855Y-62680639D01*
X164597853Y-62726283D01*
X164473883Y-62850253D01*
X164381842Y-62999474D01*
X164381840Y-62999479D01*
X164326694Y-63165901D01*
X164316200Y-63268611D01*
X164316200Y-66018600D01*
X171116199Y-66018600D01*
X171116199Y-63268626D01*
X171116198Y-63268611D01*
X171105705Y-63165900D01*
X171050559Y-62999479D01*
X171050557Y-62999474D01*
X170958516Y-62850253D01*
X170834546Y-62726283D01*
X170760545Y-62680639D01*
X170713821Y-62628691D01*
X170702598Y-62559728D01*
X170730442Y-62495646D01*
X170788510Y-62456790D01*
X170825642Y-62451100D01*
X186183600Y-62451100D01*
X186250639Y-62470785D01*
X186296394Y-62523589D01*
X186307600Y-62575100D01*
X186307600Y-111580100D01*
X186287915Y-111647139D01*
X186235111Y-111692894D01*
X186183600Y-111704100D01*
X125784400Y-111704100D01*
X125717361Y-111684415D01*
X125671606Y-111631611D01*
X125660400Y-111580100D01*
X125660400Y-108616111D01*
X126775100Y-108616111D01*
X126775100Y-108858688D01*
X126798375Y-109035488D01*
X126806762Y-109099189D01*
X126827158Y-109175309D01*
X126869547Y-109333504D01*
X126903830Y-109416270D01*
X126962376Y-109557612D01*
X127083664Y-109767689D01*
X127083666Y-109767692D01*
X127083667Y-109767693D01*
X127231333Y-109960136D01*
X127231339Y-109960143D01*
X127402856Y-110131660D01*
X127402863Y-110131666D01*
X127437180Y-110157998D01*
X127595311Y-110279336D01*
X127805388Y-110400624D01*
X128029500Y-110493454D01*
X128263811Y-110556238D01*
X128444186Y-110579984D01*
X128504311Y-110587900D01*
X128504312Y-110587900D01*
X128746889Y-110587900D01*
X128794988Y-110581567D01*
X128987389Y-110556238D01*
X129221700Y-110493454D01*
X129445812Y-110400624D01*
X129655889Y-110279336D01*
X129848338Y-110131665D01*
X130019865Y-109960138D01*
X130167536Y-109767689D01*
X130288824Y-109557612D01*
X130381654Y-109333500D01*
X130444438Y-109099189D01*
X130476100Y-108858688D01*
X130476100Y-108616112D01*
X130444438Y-108375611D01*
X130381654Y-108141300D01*
X130376340Y-108128472D01*
X130288896Y-107917362D01*
X130288824Y-107917188D01*
X130167536Y-107707111D01*
X130094755Y-107612261D01*
X130019866Y-107514663D01*
X130019860Y-107514656D01*
X129848343Y-107343139D01*
X129848336Y-107343133D01*
X129655893Y-107195467D01*
X129655892Y-107195466D01*
X129655889Y-107195464D01*
X129445812Y-107074176D01*
X129445805Y-107074173D01*
X129221704Y-106981347D01*
X128987385Y-106918561D01*
X128746889Y-106886900D01*
X128746888Y-106886900D01*
X128504312Y-106886900D01*
X128504311Y-106886900D01*
X128263814Y-106918561D01*
X128029495Y-106981347D01*
X127805394Y-107074173D01*
X127805385Y-107074177D01*
X127595306Y-107195467D01*
X127402863Y-107343133D01*
X127402856Y-107343139D01*
X127231339Y-107514656D01*
X127231333Y-107514663D01*
X127083667Y-107707106D01*
X126962377Y-107917185D01*
X126962373Y-107917194D01*
X126869547Y-108141295D01*
X126806761Y-108375614D01*
X126775100Y-108616111D01*
X125660400Y-108616111D01*
X125660400Y-103464823D01*
X131300099Y-103464823D01*
X131333974Y-103635118D01*
X131333977Y-103635128D01*
X131400422Y-103795543D01*
X131496895Y-103939926D01*
X131496896Y-103939927D01*
X131949753Y-104392783D01*
X131949763Y-104392793D01*
X131954093Y-104397123D01*
X131954094Y-104397124D01*
X132254563Y-104697592D01*
X132254582Y-104697613D01*
X136195894Y-108638923D01*
X136318674Y-108761703D01*
X136318678Y-108761707D01*
X136463046Y-108858171D01*
X136463050Y-108858173D01*
X136463053Y-108858175D01*
X136509706Y-108877499D01*
X136509707Y-108877500D01*
X136509708Y-108877500D01*
X136623476Y-108924625D01*
X136793774Y-108958499D01*
X136793778Y-108958500D01*
X136793779Y-108958500D01*
X140421822Y-108958500D01*
X140536394Y-108935709D01*
X140592124Y-108924624D01*
X140752547Y-108858175D01*
X140896923Y-108761706D01*
X141019706Y-108638923D01*
X141116175Y-108494547D01*
X141182624Y-108334124D01*
X141214048Y-108176148D01*
X141216500Y-108163822D01*
X141216500Y-108144858D01*
X154564300Y-108144858D01*
X154564300Y-108374341D01*
X154580127Y-108494553D01*
X154594252Y-108601838D01*
X154598077Y-108616112D01*
X154653642Y-108823487D01*
X154741450Y-109035476D01*
X154741457Y-109035490D01*
X154856192Y-109234217D01*
X154995881Y-109416261D01*
X154995889Y-109416270D01*
X155158130Y-109578511D01*
X155158138Y-109578518D01*
X155340182Y-109718207D01*
X155340185Y-109718208D01*
X155340188Y-109718211D01*
X155538912Y-109832944D01*
X155538917Y-109832946D01*
X155538923Y-109832949D01*
X155630280Y-109870790D01*
X155750913Y-109920758D01*
X155972562Y-109980148D01*
X156200066Y-110010100D01*
X156200073Y-110010100D01*
X156429527Y-110010100D01*
X156429534Y-110010100D01*
X156657038Y-109980148D01*
X156878687Y-109920758D01*
X157090688Y-109832944D01*
X157289412Y-109718211D01*
X157471461Y-109578519D01*
X157471465Y-109578514D01*
X157471470Y-109578511D01*
X157633711Y-109416270D01*
X157633714Y-109416265D01*
X157633719Y-109416261D01*
X157773411Y-109234212D01*
X157888144Y-109035488D01*
X157975958Y-108823487D01*
X158035348Y-108601838D01*
X158065300Y-108374334D01*
X158065300Y-108144866D01*
X158063142Y-108128472D01*
X166514300Y-108128472D01*
X166514300Y-108390727D01*
X166527969Y-108494547D01*
X166548530Y-108650716D01*
X166616402Y-108904018D01*
X166616405Y-108904028D01*
X166716753Y-109146290D01*
X166716758Y-109146300D01*
X166847875Y-109373403D01*
X167007518Y-109581451D01*
X167007526Y-109581460D01*
X167192940Y-109766874D01*
X167192948Y-109766881D01*
X167400996Y-109926524D01*
X167628099Y-110057641D01*
X167628109Y-110057646D01*
X167870371Y-110157994D01*
X167870381Y-110157998D01*
X168123684Y-110225870D01*
X168383680Y-110260100D01*
X168383687Y-110260100D01*
X168645913Y-110260100D01*
X168645920Y-110260100D01*
X168905916Y-110225870D01*
X169159219Y-110157998D01*
X169401497Y-110057643D01*
X169628603Y-109926524D01*
X169836651Y-109766882D01*
X169836655Y-109766877D01*
X169836660Y-109766874D01*
X170022074Y-109581460D01*
X170022077Y-109581455D01*
X170022082Y-109581451D01*
X170181724Y-109373403D01*
X170312843Y-109146297D01*
X170413198Y-108904019D01*
X170481070Y-108650716D01*
X170515300Y-108390720D01*
X170515300Y-108128480D01*
X170481070Y-107868484D01*
X170478040Y-107857177D01*
X176869500Y-107857177D01*
X176869500Y-108054022D01*
X176900290Y-108248421D01*
X176900290Y-108248426D01*
X176961117Y-108435629D01*
X177045801Y-108601829D01*
X177050476Y-108611005D01*
X177166172Y-108770246D01*
X177305354Y-108909428D01*
X177464595Y-109025124D01*
X177484936Y-109035488D01*
X177639970Y-109114482D01*
X177639972Y-109114482D01*
X177639975Y-109114484D01*
X177737863Y-109146290D01*
X177827173Y-109175309D01*
X178021578Y-109206100D01*
X178021583Y-109206100D01*
X178738422Y-109206100D01*
X178932826Y-109175309D01*
X179120025Y-109114484D01*
X179295405Y-109025124D01*
X179454646Y-108909428D01*
X179593828Y-108770246D01*
X179709524Y-108611005D01*
X179798884Y-108435625D01*
X179859709Y-108248426D01*
X179873109Y-108163822D01*
X179890500Y-108054022D01*
X179890500Y-107857177D01*
X179859709Y-107662773D01*
X179811718Y-107515073D01*
X179798884Y-107475575D01*
X179798882Y-107475572D01*
X179798882Y-107475570D01*
X179709523Y-107300194D01*
X179706346Y-107295821D01*
X179593828Y-107140954D01*
X179454646Y-107001772D01*
X179295405Y-106886076D01*
X179257599Y-106866813D01*
X179120029Y-106796717D01*
X178932826Y-106735890D01*
X178738422Y-106705100D01*
X178738417Y-106705100D01*
X178021583Y-106705100D01*
X178021578Y-106705100D01*
X177827173Y-106735890D01*
X177639970Y-106796717D01*
X177464594Y-106886076D01*
X177389438Y-106940681D01*
X177305354Y-107001772D01*
X177305352Y-107001774D01*
X177305351Y-107001774D01*
X177166174Y-107140951D01*
X177166174Y-107140952D01*
X177166172Y-107140954D01*
X177140844Y-107175815D01*
X177050476Y-107300194D01*
X176961117Y-107475570D01*
X176900290Y-107662773D01*
X176869500Y-107857177D01*
X170478040Y-107857177D01*
X170413198Y-107615181D01*
X170411992Y-107612270D01*
X170312846Y-107372909D01*
X170312841Y-107372899D01*
X170181724Y-107145796D01*
X170022081Y-106937748D01*
X170022074Y-106937740D01*
X169836660Y-106752326D01*
X169836651Y-106752318D01*
X169628603Y-106592675D01*
X169401500Y-106461558D01*
X169401485Y-106461551D01*
X169376900Y-106451368D01*
X169376899Y-106451368D01*
X169159228Y-106361205D01*
X169159221Y-106361203D01*
X169159219Y-106361202D01*
X169083294Y-106340858D01*
X180949500Y-106340858D01*
X180949500Y-106570341D01*
X180971296Y-106735890D01*
X180979452Y-106797838D01*
X181028622Y-106981346D01*
X181038842Y-107019487D01*
X181126650Y-107231476D01*
X181126657Y-107231490D01*
X181241392Y-107430217D01*
X181381081Y-107612261D01*
X181381089Y-107612270D01*
X181543330Y-107774511D01*
X181543338Y-107774518D01*
X181725382Y-107914207D01*
X181725385Y-107914208D01*
X181725388Y-107914211D01*
X181924112Y-108028944D01*
X181924117Y-108028946D01*
X181924123Y-108028949D01*
X181984643Y-108054017D01*
X182136113Y-108116758D01*
X182357762Y-108176148D01*
X182585266Y-108206100D01*
X182585273Y-108206100D01*
X182814727Y-108206100D01*
X182814734Y-108206100D01*
X183042238Y-108176148D01*
X183263887Y-108116758D01*
X183475888Y-108028944D01*
X183674612Y-107914211D01*
X183856661Y-107774519D01*
X183856665Y-107774514D01*
X183856670Y-107774511D01*
X184018911Y-107612270D01*
X184018914Y-107612265D01*
X184018919Y-107612261D01*
X184158611Y-107430212D01*
X184273344Y-107231488D01*
X184361158Y-107019487D01*
X184420548Y-106797838D01*
X184450500Y-106570334D01*
X184450500Y-106340866D01*
X184420548Y-106113362D01*
X184361158Y-105891713D01*
X184273344Y-105679712D01*
X184158611Y-105480988D01*
X184158608Y-105480985D01*
X184158607Y-105480982D01*
X184018918Y-105298938D01*
X184018911Y-105298930D01*
X183856670Y-105136689D01*
X183856661Y-105136681D01*
X183674617Y-104996992D01*
X183475890Y-104882257D01*
X183475876Y-104882250D01*
X183263887Y-104794442D01*
X183042238Y-104735052D01*
X183004215Y-104730046D01*
X182814741Y-104705100D01*
X182814734Y-104705100D01*
X182585266Y-104705100D01*
X182585258Y-104705100D01*
X182368715Y-104733609D01*
X182357762Y-104735052D01*
X182297784Y-104751123D01*
X182136112Y-104794442D01*
X181924123Y-104882250D01*
X181924109Y-104882257D01*
X181725382Y-104996992D01*
X181543338Y-105136681D01*
X181381081Y-105298938D01*
X181241392Y-105480982D01*
X181126657Y-105679709D01*
X181126650Y-105679723D01*
X181038842Y-105891712D01*
X180979453Y-106113359D01*
X180979451Y-106113370D01*
X180949500Y-106340858D01*
X169083294Y-106340858D01*
X168905916Y-106293330D01*
X168848139Y-106285723D01*
X168645927Y-106259100D01*
X168645920Y-106259100D01*
X168383680Y-106259100D01*
X168383672Y-106259100D01*
X168152572Y-106289526D01*
X168123684Y-106293330D01*
X167946254Y-106340872D01*
X167870381Y-106361202D01*
X167870371Y-106361205D01*
X167628109Y-106461553D01*
X167628099Y-106461558D01*
X167400996Y-106592675D01*
X167192948Y-106752318D01*
X167007518Y-106937748D01*
X166847875Y-107145796D01*
X166716758Y-107372899D01*
X166716753Y-107372909D01*
X166616405Y-107615171D01*
X166616402Y-107615181D01*
X166561555Y-107819876D01*
X166548530Y-107868485D01*
X166514300Y-108128472D01*
X158063142Y-108128472D01*
X158035348Y-107917362D01*
X157975958Y-107695713D01*
X157901134Y-107515073D01*
X157888149Y-107483723D01*
X157888146Y-107483717D01*
X157888144Y-107483712D01*
X157773411Y-107284988D01*
X157773408Y-107284985D01*
X157773407Y-107284982D01*
X157633718Y-107102938D01*
X157633711Y-107102930D01*
X157471470Y-106940689D01*
X157471461Y-106940681D01*
X157289417Y-106800992D01*
X157282012Y-106796717D01*
X157123327Y-106705100D01*
X157090690Y-106686257D01*
X157090676Y-106686250D01*
X156878687Y-106598442D01*
X156773785Y-106570334D01*
X156657038Y-106539052D01*
X156619015Y-106534046D01*
X156429541Y-106509100D01*
X156429534Y-106509100D01*
X156200066Y-106509100D01*
X156200058Y-106509100D01*
X155983515Y-106537609D01*
X155972562Y-106539052D01*
X155878876Y-106564154D01*
X155750912Y-106598442D01*
X155538923Y-106686250D01*
X155538909Y-106686257D01*
X155340182Y-106800992D01*
X155158138Y-106940681D01*
X154995881Y-107102938D01*
X154856192Y-107284982D01*
X154741457Y-107483709D01*
X154741450Y-107483723D01*
X154653642Y-107695712D01*
X154632526Y-107774519D01*
X154594300Y-107917185D01*
X154594253Y-107917359D01*
X154594251Y-107917370D01*
X154564300Y-108144858D01*
X141216500Y-108144858D01*
X141216500Y-107990177D01*
X141182625Y-107819881D01*
X141182624Y-107819880D01*
X141182624Y-107819876D01*
X141163836Y-107774518D01*
X141116178Y-107659459D01*
X141116171Y-107659446D01*
X141019706Y-107515077D01*
X141019703Y-107515073D01*
X140896926Y-107392296D01*
X140896922Y-107392293D01*
X140752553Y-107295828D01*
X140752540Y-107295821D01*
X140592128Y-107229377D01*
X140592118Y-107229374D01*
X140421822Y-107195500D01*
X140421820Y-107195500D01*
X137297091Y-107195500D01*
X137230052Y-107175815D01*
X137209410Y-107159181D01*
X136050287Y-106000057D01*
X135967478Y-105917248D01*
X148559500Y-105917248D01*
X148559500Y-106121951D01*
X148591522Y-106324134D01*
X148654781Y-106518823D01*
X148692412Y-106592676D01*
X148740090Y-106686250D01*
X148747715Y-106701213D01*
X148868028Y-106866813D01*
X149012786Y-107011571D01*
X149138546Y-107102939D01*
X149178390Y-107131887D01*
X149294607Y-107191103D01*
X149360776Y-107224818D01*
X149360778Y-107224818D01*
X149360781Y-107224820D01*
X149465137Y-107258727D01*
X149555465Y-107288077D01*
X149604384Y-107295825D01*
X149757648Y-107320100D01*
X149757649Y-107320100D01*
X149962351Y-107320100D01*
X149962352Y-107320100D01*
X150164534Y-107288077D01*
X150359219Y-107224820D01*
X150541610Y-107131887D01*
X150696317Y-107019487D01*
X150707213Y-107011571D01*
X150707215Y-107011568D01*
X150707219Y-107011566D01*
X150851966Y-106866819D01*
X150851968Y-106866815D01*
X150851971Y-106866813D01*
X150935155Y-106752318D01*
X150972287Y-106701210D01*
X151065220Y-106518819D01*
X151128477Y-106324134D01*
X151160500Y-106121952D01*
X151160500Y-105917248D01*
X151137960Y-105774937D01*
X151128477Y-105715065D01*
X151065218Y-105520376D01*
X151031503Y-105454207D01*
X150972287Y-105337990D01*
X150943915Y-105298939D01*
X150851971Y-105172386D01*
X150707213Y-105027628D01*
X150541613Y-104907315D01*
X150541612Y-104907314D01*
X150541610Y-104907313D01*
X150484653Y-104878291D01*
X150359223Y-104814381D01*
X150164534Y-104751122D01*
X149989995Y-104723478D01*
X149962352Y-104719100D01*
X149757648Y-104719100D01*
X149733329Y-104722951D01*
X149555465Y-104751122D01*
X149360776Y-104814381D01*
X149178386Y-104907315D01*
X149012786Y-105027628D01*
X148868028Y-105172386D01*
X148747715Y-105337986D01*
X148654781Y-105520376D01*
X148591522Y-105715065D01*
X148559500Y-105917248D01*
X135967478Y-105917248D01*
X134540347Y-104490116D01*
X134455815Y-104405584D01*
X176869500Y-104405584D01*
X176869500Y-105505615D01*
X176880000Y-105608395D01*
X176880001Y-105608397D01*
X176903636Y-105679723D01*
X176935186Y-105774935D01*
X176935187Y-105774937D01*
X177027286Y-105924251D01*
X177027289Y-105924255D01*
X177151344Y-106048310D01*
X177151348Y-106048313D01*
X177300662Y-106140412D01*
X177300664Y-106140413D01*
X177300666Y-106140414D01*
X177467203Y-106195599D01*
X177569992Y-106206100D01*
X177569997Y-106206100D01*
X179190003Y-106206100D01*
X179190008Y-106206100D01*
X179292797Y-106195599D01*
X179459334Y-106140414D01*
X179608655Y-106048311D01*
X179732711Y-105924255D01*
X179824814Y-105774934D01*
X179879999Y-105608397D01*
X179890500Y-105505608D01*
X179890500Y-104405592D01*
X179879999Y-104302803D01*
X179824814Y-104136266D01*
X179807377Y-104107997D01*
X179732713Y-103986948D01*
X179732710Y-103986944D01*
X179608655Y-103862889D01*
X179608651Y-103862886D01*
X179459337Y-103770787D01*
X179459335Y-103770786D01*
X179376065Y-103743193D01*
X179292797Y-103715601D01*
X179292795Y-103715600D01*
X179190015Y-103705100D01*
X179190008Y-103705100D01*
X177569992Y-103705100D01*
X177569984Y-103705100D01*
X177467204Y-103715600D01*
X177467203Y-103715601D01*
X177300664Y-103770786D01*
X177300662Y-103770787D01*
X177151348Y-103862886D01*
X177151344Y-103862889D01*
X177027289Y-103986944D01*
X177027286Y-103986948D01*
X176935187Y-104136262D01*
X176935186Y-104136264D01*
X176880001Y-104302803D01*
X176880000Y-104302804D01*
X176869500Y-104405584D01*
X134455815Y-104405584D01*
X133501213Y-103450982D01*
X133501192Y-103450963D01*
X133200724Y-103150494D01*
X133200723Y-103150493D01*
X133196398Y-103146168D01*
X133196387Y-103146158D01*
X133099418Y-103049188D01*
X133065934Y-102987864D01*
X133063100Y-102961507D01*
X133063100Y-102078472D01*
X152364300Y-102078472D01*
X152364300Y-102340727D01*
X152390923Y-102542939D01*
X152398530Y-102600716D01*
X152466402Y-102854018D01*
X152466405Y-102854028D01*
X152566753Y-103096290D01*
X152566758Y-103096300D01*
X152697875Y-103323403D01*
X152857518Y-103531451D01*
X152857526Y-103531460D01*
X153042940Y-103716874D01*
X153042948Y-103716881D01*
X153250996Y-103876524D01*
X153478099Y-104007641D01*
X153478109Y-104007646D01*
X153720371Y-104107994D01*
X153720381Y-104107998D01*
X153973684Y-104175870D01*
X154233680Y-104210100D01*
X154233687Y-104210100D01*
X154495913Y-104210100D01*
X154495920Y-104210100D01*
X154755916Y-104175870D01*
X155009219Y-104107998D01*
X155251497Y-104007643D01*
X155478603Y-103876524D01*
X155686651Y-103716882D01*
X155686655Y-103716877D01*
X155686660Y-103716874D01*
X155872074Y-103531460D01*
X155872077Y-103531455D01*
X155872082Y-103531451D01*
X156031724Y-103323403D01*
X156162843Y-103096297D01*
X156263198Y-102854019D01*
X156331070Y-102600716D01*
X156365300Y-102340720D01*
X156365300Y-102078480D01*
X156331070Y-101818484D01*
X156263198Y-101565181D01*
X156263194Y-101565171D01*
X156162846Y-101322909D01*
X156162841Y-101322899D01*
X156031724Y-101095796D01*
X155872081Y-100887748D01*
X155872074Y-100887740D01*
X155686660Y-100702326D01*
X155686651Y-100702318D01*
X155478603Y-100542675D01*
X155251500Y-100411558D01*
X155251490Y-100411553D01*
X155009228Y-100311205D01*
X155009221Y-100311203D01*
X155009219Y-100311202D01*
X154755916Y-100243330D01*
X154698139Y-100235723D01*
X154495927Y-100209100D01*
X154495920Y-100209100D01*
X154233680Y-100209100D01*
X154233672Y-100209100D01*
X154002572Y-100239526D01*
X153973684Y-100243330D01*
X153720381Y-100311202D01*
X153720371Y-100311205D01*
X153478109Y-100411553D01*
X153478099Y-100411558D01*
X153250996Y-100542675D01*
X153042948Y-100702318D01*
X152857518Y-100887748D01*
X152697875Y-101095796D01*
X152566758Y-101322899D01*
X152566753Y-101322909D01*
X152466405Y-101565171D01*
X152466402Y-101565181D01*
X152398530Y-101818485D01*
X152364300Y-102078472D01*
X133063100Y-102078472D01*
X133063100Y-93888492D01*
X133082785Y-93821453D01*
X133099419Y-93800811D01*
X134644011Y-92256219D01*
X134705334Y-92222734D01*
X134731692Y-92219900D01*
X139126422Y-92219900D01*
X139240994Y-92197109D01*
X139296724Y-92186024D01*
X139420796Y-92134631D01*
X139457140Y-92119578D01*
X139457140Y-92119577D01*
X139457147Y-92119575D01*
X139601523Y-92023106D01*
X139724306Y-91900323D01*
X139820775Y-91755947D01*
X139887224Y-91595524D01*
X139908414Y-91488997D01*
X139921100Y-91425222D01*
X139921100Y-91251577D01*
X139887225Y-91081281D01*
X139887224Y-91081280D01*
X139887224Y-91081276D01*
X139875839Y-91053789D01*
X139866400Y-91006337D01*
X139866400Y-90681200D01*
X139886085Y-90614161D01*
X139938889Y-90568406D01*
X139990400Y-90557200D01*
X145576830Y-90557200D01*
X145576831Y-90557199D01*
X145771669Y-90518444D01*
X145955204Y-90442421D01*
X146120381Y-90332053D01*
X146260853Y-90191581D01*
X146319412Y-90133022D01*
X146319424Y-90133008D01*
X147558428Y-88894005D01*
X147619747Y-88860523D01*
X147689439Y-88865507D01*
X147733786Y-88894008D01*
X149793805Y-90954027D01*
X149823190Y-91007842D01*
X149825094Y-91007265D01*
X149826864Y-91013101D01*
X149887202Y-91158772D01*
X149887209Y-91158785D01*
X149974810Y-91289888D01*
X149974813Y-91289892D01*
X150086307Y-91401386D01*
X150086311Y-91401389D01*
X150217414Y-91488990D01*
X150217427Y-91488997D01*
X150363098Y-91549335D01*
X150363103Y-91549337D01*
X150517753Y-91580099D01*
X150517756Y-91580100D01*
X150517758Y-91580100D01*
X150675444Y-91580100D01*
X150675445Y-91580099D01*
X150830097Y-91549337D01*
X150975779Y-91488994D01*
X151106889Y-91401389D01*
X151218389Y-91289889D01*
X151305994Y-91158779D01*
X151366337Y-91013097D01*
X151397100Y-90858442D01*
X151397100Y-90700758D01*
X151397100Y-90700755D01*
X151397099Y-90700753D01*
X151393210Y-90681200D01*
X151366337Y-90546103D01*
X151354881Y-90518445D01*
X151305997Y-90400427D01*
X151305990Y-90400414D01*
X151218389Y-90269311D01*
X151218386Y-90269307D01*
X151106892Y-90157813D01*
X151106888Y-90157810D01*
X150975785Y-90070209D01*
X150975772Y-90070202D01*
X150830101Y-90009864D01*
X150824265Y-90008094D01*
X150824972Y-90005760D01*
X150772568Y-89978319D01*
X150771027Y-89976805D01*
X148711009Y-87916787D01*
X148677524Y-87855464D01*
X148682508Y-87785772D01*
X148711009Y-87741425D01*
X149872249Y-86580186D01*
X150579801Y-86580186D01*
X150590294Y-86682897D01*
X150645441Y-86849319D01*
X150645443Y-86849324D01*
X150737484Y-86998545D01*
X150861454Y-87122515D01*
X151010675Y-87214556D01*
X151010680Y-87214558D01*
X151177102Y-87269705D01*
X151177109Y-87269706D01*
X151279819Y-87280199D01*
X151417299Y-87280199D01*
X151417300Y-87280198D01*
X151417300Y-86305200D01*
X150579801Y-86305200D01*
X150579801Y-86580186D01*
X149872249Y-86580186D01*
X150286278Y-86166157D01*
X150610916Y-85841519D01*
X150672239Y-85808034D01*
X150698597Y-85805200D01*
X151543300Y-85805200D01*
X151610339Y-85824885D01*
X151656094Y-85877689D01*
X151667300Y-85929200D01*
X151667300Y-86055200D01*
X151793300Y-86055200D01*
X151860339Y-86074885D01*
X151906094Y-86127689D01*
X151917300Y-86179200D01*
X151917300Y-87280199D01*
X152054772Y-87280199D01*
X152054786Y-87280198D01*
X152157497Y-87269705D01*
X152323919Y-87214558D01*
X152323924Y-87214556D01*
X152473145Y-87122515D01*
X152597118Y-86998542D01*
X152598965Y-86995548D01*
X152600769Y-86993924D01*
X152601598Y-86992877D01*
X152601776Y-86993018D01*
X152650910Y-86948821D01*
X152719873Y-86937596D01*
X152783956Y-86965436D01*
X152810043Y-86995541D01*
X152812088Y-86998856D01*
X152936144Y-87122912D01*
X153085466Y-87215014D01*
X153252003Y-87270199D01*
X153354791Y-87280700D01*
X154129808Y-87280699D01*
X154129816Y-87280698D01*
X154129819Y-87280698D01*
X154186102Y-87274948D01*
X154232597Y-87270199D01*
X154399134Y-87215014D01*
X154450605Y-87183266D01*
X154517995Y-87164827D01*
X154584659Y-87185749D01*
X154629429Y-87239391D01*
X154639700Y-87288806D01*
X154639700Y-95692332D01*
X154640386Y-95695780D01*
X154638543Y-95752060D01*
X154594254Y-95917351D01*
X154594252Y-95917363D01*
X154564300Y-96144858D01*
X154564300Y-96374327D01*
X154564301Y-96374344D01*
X154580694Y-96498862D01*
X154569928Y-96567897D01*
X154545436Y-96602728D01*
X153793385Y-97354781D01*
X153732062Y-97388266D01*
X153705704Y-97391100D01*
X151191192Y-97391100D01*
X151124153Y-97371415D01*
X151091926Y-97341412D01*
X151037043Y-97268099D01*
X151017546Y-97242054D01*
X151017544Y-97242053D01*
X151017544Y-97242052D01*
X150902335Y-97155806D01*
X150902328Y-97155802D01*
X150767482Y-97105508D01*
X150767483Y-97105508D01*
X150707883Y-97099101D01*
X150707881Y-97099100D01*
X150707873Y-97099100D01*
X150707864Y-97099100D01*
X149012129Y-97099100D01*
X149012123Y-97099101D01*
X148952516Y-97105508D01*
X148817671Y-97155802D01*
X148817664Y-97155806D01*
X148702455Y-97242052D01*
X148702452Y-97242055D01*
X148616206Y-97357264D01*
X148616202Y-97357271D01*
X148565908Y-97492117D01*
X148559501Y-97551716D01*
X148559500Y-97551735D01*
X148559500Y-99247470D01*
X148559501Y-99247476D01*
X148565908Y-99307083D01*
X148616202Y-99441928D01*
X148616206Y-99441935D01*
X148702452Y-99557144D01*
X148702455Y-99557147D01*
X148817664Y-99643393D01*
X148817671Y-99643397D01*
X148952517Y-99693691D01*
X148952516Y-99693691D01*
X148959444Y-99694435D01*
X149012127Y-99700100D01*
X150707872Y-99700099D01*
X150767483Y-99693691D01*
X150902331Y-99643396D01*
X151017546Y-99557146D01*
X151069009Y-99488399D01*
X151091926Y-99457788D01*
X151147860Y-99415918D01*
X151191192Y-99408100D01*
X154274130Y-99408100D01*
X154274131Y-99408099D01*
X154468969Y-99369344D01*
X154652504Y-99293321D01*
X154817681Y-99182953D01*
X154958153Y-99042481D01*
X155971672Y-98028960D01*
X156032993Y-97995477D01*
X156075531Y-97993704D01*
X156200066Y-98010100D01*
X156200073Y-98010100D01*
X156429527Y-98010100D01*
X156429534Y-98010100D01*
X156657038Y-97980148D01*
X156878687Y-97920758D01*
X157090688Y-97832944D01*
X157289412Y-97718211D01*
X157471461Y-97578519D01*
X157471465Y-97578514D01*
X157471470Y-97578511D01*
X157633710Y-97416270D01*
X157633719Y-97416261D01*
X157710183Y-97316610D01*
X157766609Y-97275411D01*
X157808557Y-97268100D01*
X163808730Y-97268100D01*
X163808731Y-97268099D01*
X164003569Y-97229344D01*
X164187104Y-97153321D01*
X164352281Y-97042953D01*
X164492753Y-96902481D01*
X165316762Y-96078472D01*
X166564300Y-96078472D01*
X166564300Y-96340727D01*
X166574497Y-96418175D01*
X166598530Y-96600716D01*
X166641965Y-96762817D01*
X166666402Y-96854018D01*
X166666405Y-96854028D01*
X166766753Y-97096290D01*
X166766758Y-97096300D01*
X166897875Y-97323403D01*
X167057518Y-97531451D01*
X167057526Y-97531460D01*
X167242940Y-97716874D01*
X167242948Y-97716881D01*
X167450996Y-97876524D01*
X167678099Y-98007641D01*
X167678109Y-98007646D01*
X167920371Y-98107994D01*
X167920381Y-98107998D01*
X168173684Y-98175870D01*
X168433680Y-98210100D01*
X168433687Y-98210100D01*
X168695913Y-98210100D01*
X168695920Y-98210100D01*
X168955916Y-98175870D01*
X169209219Y-98107998D01*
X169386140Y-98034714D01*
X169451490Y-98007646D01*
X169451491Y-98007645D01*
X169451497Y-98007643D01*
X169678603Y-97876524D01*
X169886651Y-97716882D01*
X169886655Y-97716877D01*
X169886660Y-97716874D01*
X170072074Y-97531460D01*
X170072077Y-97531455D01*
X170072082Y-97531451D01*
X170231724Y-97323403D01*
X170362843Y-97096297D01*
X170463198Y-96854019D01*
X170477732Y-96799777D01*
X176869500Y-96799777D01*
X176869500Y-96996622D01*
X176900290Y-97191026D01*
X176961117Y-97378229D01*
X177039188Y-97531451D01*
X177050476Y-97553605D01*
X177166172Y-97712846D01*
X177305354Y-97852028D01*
X177464595Y-97967724D01*
X177515584Y-97993704D01*
X177639970Y-98057082D01*
X177639972Y-98057082D01*
X177639975Y-98057084D01*
X177740317Y-98089687D01*
X177827173Y-98117909D01*
X178021578Y-98148700D01*
X178021583Y-98148700D01*
X178738422Y-98148700D01*
X178932826Y-98117909D01*
X179120025Y-98057084D01*
X179295405Y-97967724D01*
X179454646Y-97852028D01*
X179593828Y-97712846D01*
X179709524Y-97553605D01*
X179798884Y-97378225D01*
X179859709Y-97191026D01*
X179865681Y-97153321D01*
X179890500Y-96996622D01*
X179890500Y-96799777D01*
X179859709Y-96605373D01*
X179798882Y-96418170D01*
X179709523Y-96242794D01*
X179593828Y-96083554D01*
X179454646Y-95944372D01*
X179295405Y-95828676D01*
X179275402Y-95818484D01*
X179120029Y-95739317D01*
X178932826Y-95678490D01*
X178738422Y-95647700D01*
X178738417Y-95647700D01*
X178021583Y-95647700D01*
X178021578Y-95647700D01*
X177827173Y-95678490D01*
X177639970Y-95739317D01*
X177464594Y-95828676D01*
X177373741Y-95894685D01*
X177305354Y-95944372D01*
X177305352Y-95944374D01*
X177305351Y-95944374D01*
X177166174Y-96083551D01*
X177166174Y-96083552D01*
X177166172Y-96083554D01*
X177121632Y-96144858D01*
X177050476Y-96242794D01*
X176961117Y-96418170D01*
X176900290Y-96605373D01*
X176869500Y-96799777D01*
X170477732Y-96799777D01*
X170531070Y-96600716D01*
X170565300Y-96340720D01*
X170565300Y-96078480D01*
X170531070Y-95818484D01*
X170463198Y-95565181D01*
X170441559Y-95512941D01*
X170364482Y-95326860D01*
X170362843Y-95322903D01*
X170340078Y-95283472D01*
X170340070Y-95283458D01*
X180949500Y-95283458D01*
X180949500Y-95512941D01*
X180971296Y-95678490D01*
X180979452Y-95740438D01*
X181003095Y-95828676D01*
X181038842Y-95962087D01*
X181126650Y-96174076D01*
X181126657Y-96174090D01*
X181241392Y-96372817D01*
X181381081Y-96554861D01*
X181381089Y-96554870D01*
X181543330Y-96717111D01*
X181543338Y-96717118D01*
X181725382Y-96856807D01*
X181725385Y-96856808D01*
X181725388Y-96856811D01*
X181924112Y-96971544D01*
X181924117Y-96971546D01*
X181924123Y-96971549D01*
X181984643Y-96996617D01*
X182136113Y-97059358D01*
X182357762Y-97118748D01*
X182585266Y-97148700D01*
X182585273Y-97148700D01*
X182814727Y-97148700D01*
X182814734Y-97148700D01*
X183042238Y-97118748D01*
X183263887Y-97059358D01*
X183475888Y-96971544D01*
X183674612Y-96856811D01*
X183856661Y-96717119D01*
X183856665Y-96717114D01*
X183856670Y-96717111D01*
X184018911Y-96554870D01*
X184018914Y-96554865D01*
X184018919Y-96554861D01*
X184158611Y-96372812D01*
X184273344Y-96174088D01*
X184361158Y-95962087D01*
X184420548Y-95740438D01*
X184450500Y-95512934D01*
X184450500Y-95283466D01*
X184420548Y-95055962D01*
X184361158Y-94834313D01*
X184273344Y-94622312D01*
X184158611Y-94423588D01*
X184158608Y-94423585D01*
X184158607Y-94423582D01*
X184018918Y-94241538D01*
X184018911Y-94241530D01*
X183856670Y-94079289D01*
X183856661Y-94079281D01*
X183674617Y-93939592D01*
X183475890Y-93824857D01*
X183475876Y-93824850D01*
X183263887Y-93737042D01*
X183042238Y-93677652D01*
X183004215Y-93672646D01*
X182814741Y-93647700D01*
X182814734Y-93647700D01*
X182585266Y-93647700D01*
X182585258Y-93647700D01*
X182368715Y-93676209D01*
X182357762Y-93677652D01*
X182264076Y-93702754D01*
X182136112Y-93737042D01*
X181924123Y-93824850D01*
X181924109Y-93824857D01*
X181725382Y-93939592D01*
X181543338Y-94079281D01*
X181381081Y-94241538D01*
X181241392Y-94423582D01*
X181126657Y-94622309D01*
X181126650Y-94622323D01*
X181038842Y-94834312D01*
X180979453Y-95055959D01*
X180979451Y-95055970D01*
X180949500Y-95283458D01*
X170340070Y-95283458D01*
X170231724Y-95095796D01*
X170072081Y-94887748D01*
X170072074Y-94887740D01*
X169886660Y-94702326D01*
X169886651Y-94702318D01*
X169678603Y-94542675D01*
X169451500Y-94411558D01*
X169451490Y-94411553D01*
X169209228Y-94311205D01*
X169209221Y-94311203D01*
X169209219Y-94311202D01*
X168955916Y-94243330D01*
X168898139Y-94235723D01*
X168695927Y-94209100D01*
X168695920Y-94209100D01*
X168433680Y-94209100D01*
X168433672Y-94209100D01*
X168202572Y-94239526D01*
X168173684Y-94243330D01*
X167920381Y-94311202D01*
X167920371Y-94311205D01*
X167678109Y-94411553D01*
X167678099Y-94411558D01*
X167450996Y-94542675D01*
X167242948Y-94702318D01*
X167057518Y-94887748D01*
X166897875Y-95095796D01*
X166766758Y-95322899D01*
X166766753Y-95322909D01*
X166666405Y-95565171D01*
X166666402Y-95565181D01*
X166598530Y-95818485D01*
X166564300Y-96078472D01*
X165316762Y-96078472D01*
X168047049Y-93348184D01*
X176869500Y-93348184D01*
X176869500Y-94448215D01*
X176880000Y-94550995D01*
X176880001Y-94550997D01*
X176903636Y-94622323D01*
X176935186Y-94717535D01*
X176935187Y-94717537D01*
X177027286Y-94866851D01*
X177027289Y-94866855D01*
X177151344Y-94990910D01*
X177151348Y-94990913D01*
X177300662Y-95083012D01*
X177300664Y-95083013D01*
X177300666Y-95083014D01*
X177467203Y-95138199D01*
X177569992Y-95148700D01*
X177569997Y-95148700D01*
X179190003Y-95148700D01*
X179190008Y-95148700D01*
X179292797Y-95138199D01*
X179459334Y-95083014D01*
X179608655Y-94990911D01*
X179732711Y-94866855D01*
X179824814Y-94717534D01*
X179879999Y-94550997D01*
X179890500Y-94448208D01*
X179890500Y-93348192D01*
X179879999Y-93245403D01*
X179824814Y-93078866D01*
X179774969Y-92998056D01*
X179732713Y-92929548D01*
X179732710Y-92929544D01*
X179608655Y-92805489D01*
X179608651Y-92805486D01*
X179459337Y-92713387D01*
X179459335Y-92713386D01*
X179376065Y-92685793D01*
X179292797Y-92658201D01*
X179292795Y-92658200D01*
X179190015Y-92647700D01*
X179190008Y-92647700D01*
X177569992Y-92647700D01*
X177569984Y-92647700D01*
X177467204Y-92658200D01*
X177467203Y-92658201D01*
X177300664Y-92713386D01*
X177300662Y-92713387D01*
X177151348Y-92805486D01*
X177151344Y-92805489D01*
X177027289Y-92929544D01*
X177027286Y-92929548D01*
X176935187Y-93078862D01*
X176935186Y-93078864D01*
X176880001Y-93245403D01*
X176880000Y-93245404D01*
X176869500Y-93348184D01*
X168047049Y-93348184D01*
X168397177Y-92998056D01*
X168397181Y-92998054D01*
X168537654Y-92857581D01*
X168537656Y-92857577D01*
X173579553Y-87815681D01*
X173689921Y-87650504D01*
X173765944Y-87466969D01*
X173770551Y-87443808D01*
X173804700Y-87272129D01*
X173804700Y-85782600D01*
X176898216Y-85782600D01*
X177939640Y-85782600D01*
X177908955Y-85835747D01*
X177874200Y-85965457D01*
X177874200Y-86099743D01*
X177908955Y-86229453D01*
X177939640Y-86282600D01*
X176898216Y-86282600D01*
X176904981Y-86325316D01*
X176965781Y-86512437D01*
X177055104Y-86687743D01*
X177170755Y-86846921D01*
X177309878Y-86986044D01*
X177469056Y-87101695D01*
X177644364Y-87191018D01*
X177831494Y-87251821D01*
X178025818Y-87282600D01*
X178134200Y-87282600D01*
X178134200Y-86477160D01*
X178187347Y-86507845D01*
X178317057Y-86542600D01*
X178451343Y-86542600D01*
X178581053Y-86507845D01*
X178634200Y-86477160D01*
X178634200Y-87282600D01*
X178742582Y-87282600D01*
X178936905Y-87251821D01*
X179124035Y-87191018D01*
X179299343Y-87101695D01*
X179458521Y-86986044D01*
X179597644Y-86846921D01*
X179713295Y-86687743D01*
X179802618Y-86512437D01*
X179863418Y-86325316D01*
X179870184Y-86282600D01*
X178828760Y-86282600D01*
X178859445Y-86229453D01*
X178894200Y-86099743D01*
X178894200Y-85965457D01*
X178859445Y-85835747D01*
X178828760Y-85782600D01*
X179870184Y-85782600D01*
X179863418Y-85739883D01*
X179802618Y-85552762D01*
X179713295Y-85377456D01*
X179597644Y-85218278D01*
X179458521Y-85079155D01*
X179299343Y-84963504D01*
X179124035Y-84874181D01*
X178936905Y-84813378D01*
X178742582Y-84782600D01*
X178634200Y-84782600D01*
X178634200Y-85588039D01*
X178581053Y-85557355D01*
X178451343Y-85522600D01*
X178317057Y-85522600D01*
X178187347Y-85557355D01*
X178134200Y-85588039D01*
X178134200Y-84782600D01*
X178025818Y-84782600D01*
X177831494Y-84813378D01*
X177644364Y-84874181D01*
X177469056Y-84963504D01*
X177309878Y-85079155D01*
X177170755Y-85218278D01*
X177055104Y-85377456D01*
X176965781Y-85552762D01*
X176904981Y-85739883D01*
X176898216Y-85782600D01*
X173804700Y-85782600D01*
X173804700Y-82782600D01*
X176898216Y-82782600D01*
X177939640Y-82782600D01*
X177908955Y-82835747D01*
X177874200Y-82965457D01*
X177874200Y-83099743D01*
X177908955Y-83229453D01*
X177939640Y-83282600D01*
X176898216Y-83282600D01*
X176904981Y-83325316D01*
X176965781Y-83512437D01*
X177055104Y-83687743D01*
X177170755Y-83846921D01*
X177309878Y-83986044D01*
X177469056Y-84101695D01*
X177644364Y-84191018D01*
X177831494Y-84251821D01*
X178025818Y-84282600D01*
X178134200Y-84282600D01*
X178134200Y-83477160D01*
X178187347Y-83507845D01*
X178317057Y-83542600D01*
X178451343Y-83542600D01*
X178581053Y-83507845D01*
X178634200Y-83477160D01*
X178634200Y-84282600D01*
X178742582Y-84282600D01*
X178936905Y-84251821D01*
X179124035Y-84191018D01*
X179299343Y-84101695D01*
X179458521Y-83986044D01*
X179597644Y-83846921D01*
X179655088Y-83767858D01*
X180953700Y-83767858D01*
X180953700Y-83997341D01*
X180973141Y-84145000D01*
X180983652Y-84224838D01*
X180983653Y-84224840D01*
X181043042Y-84446487D01*
X181130850Y-84658476D01*
X181130857Y-84658490D01*
X181245592Y-84857217D01*
X181385281Y-85039261D01*
X181385289Y-85039270D01*
X181547530Y-85201511D01*
X181547538Y-85201518D01*
X181729582Y-85341207D01*
X181729585Y-85341208D01*
X181729588Y-85341211D01*
X181928312Y-85455944D01*
X181928317Y-85455946D01*
X181928323Y-85455949D01*
X182019680Y-85493790D01*
X182140313Y-85543758D01*
X182361962Y-85603148D01*
X182589466Y-85633100D01*
X182589473Y-85633100D01*
X182818927Y-85633100D01*
X182818934Y-85633100D01*
X183046438Y-85603148D01*
X183268087Y-85543758D01*
X183480088Y-85455944D01*
X183678812Y-85341211D01*
X183860861Y-85201519D01*
X183860865Y-85201514D01*
X183860870Y-85201511D01*
X184023111Y-85039270D01*
X184023114Y-85039265D01*
X184023119Y-85039261D01*
X184162811Y-84857212D01*
X184277544Y-84658488D01*
X184365358Y-84446487D01*
X184424748Y-84224838D01*
X184454700Y-83997334D01*
X184454700Y-83767866D01*
X184424748Y-83540362D01*
X184365358Y-83318713D01*
X184306551Y-83176740D01*
X184277549Y-83106723D01*
X184277546Y-83106717D01*
X184277544Y-83106712D01*
X184162811Y-82907988D01*
X184162808Y-82907985D01*
X184162807Y-82907982D01*
X184023118Y-82725938D01*
X184023111Y-82725930D01*
X183860870Y-82563689D01*
X183860861Y-82563681D01*
X183678817Y-82423992D01*
X183480090Y-82309257D01*
X183480076Y-82309250D01*
X183268087Y-82221442D01*
X183256279Y-82218278D01*
X183046438Y-82162052D01*
X183008415Y-82157046D01*
X182818941Y-82132100D01*
X182818934Y-82132100D01*
X182589466Y-82132100D01*
X182589458Y-82132100D01*
X182372915Y-82160609D01*
X182361962Y-82162052D01*
X182268276Y-82187154D01*
X182140312Y-82221442D01*
X181928323Y-82309250D01*
X181928309Y-82309257D01*
X181729582Y-82423992D01*
X181547538Y-82563681D01*
X181385281Y-82725938D01*
X181245592Y-82907982D01*
X181130857Y-83106709D01*
X181130850Y-83106723D01*
X181043042Y-83318712D01*
X181010356Y-83440702D01*
X180991135Y-83512437D01*
X180983653Y-83540359D01*
X180983651Y-83540370D01*
X180953700Y-83767858D01*
X179655088Y-83767858D01*
X179710987Y-83690921D01*
X179713295Y-83687743D01*
X179802618Y-83512437D01*
X179863418Y-83325316D01*
X179870184Y-83282600D01*
X178828760Y-83282600D01*
X178859445Y-83229453D01*
X178894200Y-83099743D01*
X178894200Y-82965457D01*
X178859445Y-82835747D01*
X178828760Y-82782600D01*
X179870184Y-82782600D01*
X179863418Y-82739883D01*
X179802618Y-82552762D01*
X179713295Y-82377456D01*
X179597644Y-82218278D01*
X179458521Y-82079155D01*
X179299343Y-81963504D01*
X179124035Y-81874181D01*
X178936905Y-81813378D01*
X178742582Y-81782600D01*
X178634200Y-81782600D01*
X178634200Y-82588039D01*
X178581053Y-82557355D01*
X178451343Y-82522600D01*
X178317057Y-82522600D01*
X178187347Y-82557355D01*
X178134200Y-82588039D01*
X178134200Y-81782600D01*
X178025818Y-81782600D01*
X177831494Y-81813378D01*
X177644364Y-81874181D01*
X177469056Y-81963504D01*
X177309878Y-82079155D01*
X177170755Y-82218278D01*
X177055104Y-82377456D01*
X176965781Y-82552762D01*
X176904981Y-82739883D01*
X176898216Y-82782600D01*
X173804700Y-82782600D01*
X173804700Y-79934177D01*
X176873700Y-79934177D01*
X176873700Y-80131022D01*
X176904490Y-80325426D01*
X176965317Y-80512629D01*
X177023556Y-80626928D01*
X177054676Y-80688005D01*
X177170372Y-80847246D01*
X177309554Y-80986428D01*
X177468795Y-81102124D01*
X177551655Y-81144343D01*
X177644170Y-81191482D01*
X177644172Y-81191482D01*
X177644175Y-81191484D01*
X177744517Y-81224087D01*
X177831373Y-81252309D01*
X178025778Y-81283100D01*
X178025783Y-81283100D01*
X178742622Y-81283100D01*
X178937026Y-81252309D01*
X179124225Y-81191484D01*
X179299605Y-81102124D01*
X179458846Y-80986428D01*
X179598028Y-80847246D01*
X179713724Y-80688005D01*
X179803084Y-80512625D01*
X179863909Y-80325426D01*
X179881385Y-80215087D01*
X179894700Y-80131022D01*
X179894700Y-79934177D01*
X179863909Y-79739773D01*
X179812154Y-79580489D01*
X179803084Y-79552575D01*
X179803082Y-79552572D01*
X179803082Y-79552570D01*
X179713723Y-79377194D01*
X179598028Y-79217954D01*
X179458846Y-79078772D01*
X179443824Y-79067858D01*
X180953700Y-79067858D01*
X180953700Y-79297341D01*
X180973717Y-79449379D01*
X180983652Y-79524838D01*
X181030318Y-79699000D01*
X181043042Y-79746487D01*
X181130850Y-79958476D01*
X181130857Y-79958490D01*
X181245592Y-80157217D01*
X181385281Y-80339261D01*
X181385289Y-80339270D01*
X181547530Y-80501511D01*
X181547538Y-80501518D01*
X181729582Y-80641207D01*
X181729585Y-80641208D01*
X181729588Y-80641211D01*
X181928312Y-80755944D01*
X181928317Y-80755946D01*
X181928323Y-80755949D01*
X182019680Y-80793790D01*
X182140313Y-80843758D01*
X182361962Y-80903148D01*
X182589466Y-80933100D01*
X182589473Y-80933100D01*
X182818927Y-80933100D01*
X182818934Y-80933100D01*
X183046438Y-80903148D01*
X183268087Y-80843758D01*
X183480088Y-80755944D01*
X183678812Y-80641211D01*
X183860861Y-80501519D01*
X183860865Y-80501514D01*
X183860870Y-80501511D01*
X184023111Y-80339270D01*
X184023114Y-80339265D01*
X184023119Y-80339261D01*
X184162811Y-80157212D01*
X184277544Y-79958488D01*
X184365358Y-79746487D01*
X184424748Y-79524838D01*
X184454700Y-79297334D01*
X184454700Y-79067866D01*
X184424748Y-78840362D01*
X184365358Y-78618713D01*
X184294817Y-78448413D01*
X184277549Y-78406723D01*
X184277546Y-78406717D01*
X184277544Y-78406712D01*
X184162811Y-78207988D01*
X184162808Y-78207985D01*
X184162807Y-78207982D01*
X184051521Y-78062953D01*
X184023119Y-78025939D01*
X184023118Y-78025938D01*
X184023111Y-78025930D01*
X183860870Y-77863689D01*
X183860861Y-77863681D01*
X183678817Y-77723992D01*
X183480090Y-77609257D01*
X183480076Y-77609250D01*
X183268087Y-77521442D01*
X183264247Y-77520413D01*
X183046438Y-77462052D01*
X183008415Y-77457046D01*
X182818941Y-77432100D01*
X182818934Y-77432100D01*
X182589466Y-77432100D01*
X182589458Y-77432100D01*
X182372915Y-77460609D01*
X182361962Y-77462052D01*
X182268276Y-77487154D01*
X182140312Y-77521442D01*
X181928323Y-77609250D01*
X181928309Y-77609257D01*
X181729582Y-77723992D01*
X181547538Y-77863681D01*
X181385281Y-78025938D01*
X181245592Y-78207982D01*
X181130857Y-78406709D01*
X181130850Y-78406723D01*
X181043042Y-78618712D01*
X181043042Y-78618713D01*
X180984633Y-78836703D01*
X180983653Y-78840359D01*
X180983651Y-78840370D01*
X180953700Y-79067858D01*
X179443824Y-79067858D01*
X179299605Y-78963076D01*
X179124229Y-78873717D01*
X178937026Y-78812890D01*
X178742622Y-78782100D01*
X178742617Y-78782100D01*
X178025783Y-78782100D01*
X178025778Y-78782100D01*
X177831373Y-78812890D01*
X177644170Y-78873717D01*
X177468794Y-78963076D01*
X177429875Y-78991353D01*
X177309554Y-79078772D01*
X177309552Y-79078774D01*
X177309551Y-79078774D01*
X177170374Y-79217951D01*
X177170374Y-79217952D01*
X177170372Y-79217954D01*
X177120685Y-79286341D01*
X177054676Y-79377194D01*
X176965317Y-79552570D01*
X176904490Y-79739773D01*
X176873700Y-79934177D01*
X173804700Y-79934177D01*
X173804700Y-77867289D01*
X173811311Y-77844774D01*
X173813500Y-77821409D01*
X173820972Y-77811871D01*
X173824385Y-77800250D01*
X173842115Y-77784886D01*
X173856592Y-77766410D01*
X173873500Y-77757691D01*
X173877189Y-77754495D01*
X173887934Y-77750182D01*
X173888254Y-77750070D01*
X173931600Y-77735145D01*
X173932121Y-77734799D01*
X173939935Y-77732080D01*
X173967462Y-77730719D01*
X173994614Y-77725970D01*
X174001863Y-77729018D01*
X174009719Y-77728630D01*
X174033611Y-77742367D01*
X174059022Y-77753052D01*
X174059267Y-77753253D01*
X174091654Y-77779777D01*
X174091656Y-77779778D01*
X174139998Y-77800250D01*
X174224144Y-77835885D01*
X174291705Y-77853698D01*
X174291712Y-77853698D01*
X174291713Y-77853699D01*
X174301801Y-77854864D01*
X174434632Y-77870207D01*
X175693074Y-77835212D01*
X175824021Y-77814165D01*
X175885816Y-77795662D01*
X176006783Y-77741279D01*
X176117119Y-77648934D01*
X176163772Y-77596922D01*
X176243622Y-77477235D01*
X176637805Y-76651835D01*
X176684458Y-76599824D01*
X176751825Y-76581291D01*
X176818518Y-76602122D01*
X176863361Y-76655702D01*
X176873700Y-76705273D01*
X176873700Y-77582615D01*
X176884200Y-77685395D01*
X176884201Y-77685397D01*
X176903079Y-77742367D01*
X176939386Y-77851935D01*
X176939387Y-77851937D01*
X177031486Y-78001251D01*
X177031489Y-78001255D01*
X177155544Y-78125310D01*
X177155548Y-78125313D01*
X177304862Y-78217412D01*
X177304864Y-78217413D01*
X177304866Y-78217414D01*
X177471403Y-78272599D01*
X177574192Y-78283100D01*
X177574197Y-78283100D01*
X179194203Y-78283100D01*
X179194208Y-78283100D01*
X179296997Y-78272599D01*
X179463534Y-78217414D01*
X179612855Y-78125311D01*
X179736911Y-78001255D01*
X179829014Y-77851934D01*
X179884199Y-77685397D01*
X179894700Y-77582608D01*
X179894700Y-76482592D01*
X179884199Y-76379803D01*
X179829014Y-76213266D01*
X179819595Y-76197996D01*
X179736913Y-76063948D01*
X179736910Y-76063944D01*
X179612855Y-75939889D01*
X179612851Y-75939886D01*
X179463537Y-75847787D01*
X179463535Y-75847786D01*
X179380265Y-75820193D01*
X179296997Y-75792601D01*
X179296995Y-75792600D01*
X179194215Y-75782100D01*
X179194208Y-75782100D01*
X177574192Y-75782100D01*
X177574184Y-75782100D01*
X177471404Y-75792600D01*
X177471403Y-75792601D01*
X177304864Y-75847786D01*
X177262111Y-75874157D01*
X177194719Y-75892597D01*
X177128055Y-75871674D01*
X177083286Y-75818032D01*
X177074625Y-75748701D01*
X177085120Y-75715181D01*
X177092041Y-75700690D01*
X180298314Y-68986921D01*
X180300056Y-68983111D01*
X180305378Y-68971465D01*
X180305398Y-68971422D01*
X180308740Y-68963771D01*
X180315280Y-68948083D01*
X180348838Y-68808171D01*
X180354884Y-68743060D01*
X180355168Y-68740869D01*
X180355299Y-68738600D01*
X180355300Y-68738594D01*
X180348079Y-68594895D01*
X180300666Y-68459052D01*
X180268887Y-68397802D01*
X180268531Y-68397102D01*
X180268488Y-68397032D01*
X180268486Y-68397029D01*
X180268485Y-68397027D01*
X180184719Y-68280045D01*
X180184718Y-68280044D01*
X180184717Y-68280043D01*
X180071386Y-68191398D01*
X180010784Y-68156621D01*
X179877077Y-68103499D01*
X179877073Y-68103498D01*
X178052882Y-67665988D01*
X178052877Y-67665988D01*
X178022824Y-67658780D01*
X177962226Y-67624004D01*
X177930048Y-67561985D01*
X177931211Y-67549458D01*
X180953700Y-67549458D01*
X180953700Y-67778941D01*
X180974734Y-67938700D01*
X180983652Y-68006438D01*
X180983653Y-68006440D01*
X181043042Y-68228087D01*
X181130850Y-68440076D01*
X181130857Y-68440090D01*
X181245592Y-68638817D01*
X181385281Y-68820861D01*
X181385289Y-68820870D01*
X181547530Y-68983111D01*
X181547538Y-68983118D01*
X181729582Y-69122807D01*
X181729585Y-69122808D01*
X181729588Y-69122811D01*
X181928312Y-69237544D01*
X181928317Y-69237546D01*
X181928323Y-69237549D01*
X182019680Y-69275390D01*
X182140313Y-69325358D01*
X182361962Y-69384748D01*
X182589466Y-69414700D01*
X182589473Y-69414700D01*
X182818927Y-69414700D01*
X182818934Y-69414700D01*
X183046438Y-69384748D01*
X183268087Y-69325358D01*
X183480088Y-69237544D01*
X183678812Y-69122811D01*
X183860861Y-68983119D01*
X183860865Y-68983114D01*
X183860870Y-68983111D01*
X184023111Y-68820870D01*
X184023114Y-68820865D01*
X184023119Y-68820861D01*
X184162811Y-68638812D01*
X184277544Y-68440088D01*
X184365358Y-68228087D01*
X184424748Y-68006438D01*
X184454700Y-67778934D01*
X184454700Y-67549466D01*
X184424748Y-67321962D01*
X184365358Y-67100313D01*
X184277544Y-66888312D01*
X184162811Y-66689588D01*
X184162808Y-66689585D01*
X184162807Y-66689582D01*
X184023118Y-66507538D01*
X184023111Y-66507530D01*
X183860870Y-66345289D01*
X183860861Y-66345281D01*
X183678817Y-66205592D01*
X183666706Y-66198600D01*
X183508643Y-66107342D01*
X183480090Y-66090857D01*
X183480076Y-66090850D01*
X183268087Y-66003042D01*
X183046438Y-65943652D01*
X183008415Y-65938646D01*
X182818941Y-65913700D01*
X182818934Y-65913700D01*
X182589466Y-65913700D01*
X182589458Y-65913700D01*
X182372915Y-65942209D01*
X182361962Y-65943652D01*
X182273530Y-65967347D01*
X182140312Y-66003042D01*
X181928323Y-66090850D01*
X181928309Y-66090857D01*
X181729582Y-66205592D01*
X181547538Y-66345281D01*
X181385281Y-66507538D01*
X181245592Y-66689582D01*
X181130857Y-66888309D01*
X181130850Y-66888323D01*
X181043042Y-67100312D01*
X181031222Y-67144426D01*
X180989527Y-67300038D01*
X180983653Y-67321959D01*
X180983651Y-67321970D01*
X180953700Y-67549458D01*
X177931211Y-67549458D01*
X177936507Y-67492415D01*
X177979554Y-67437381D01*
X178045521Y-67414356D01*
X178051745Y-67414200D01*
X178134200Y-67414200D01*
X178134200Y-66608760D01*
X178187347Y-66639445D01*
X178317057Y-66674200D01*
X178451343Y-66674200D01*
X178581053Y-66639445D01*
X178634200Y-66608760D01*
X178634200Y-67414200D01*
X179194173Y-67414200D01*
X179194185Y-67414199D01*
X179296889Y-67403706D01*
X179296896Y-67403705D01*
X179463318Y-67348558D01*
X179463323Y-67348556D01*
X179612544Y-67256515D01*
X179736515Y-67132544D01*
X179828556Y-66983323D01*
X179828558Y-66983318D01*
X179883705Y-66816896D01*
X179883706Y-66816889D01*
X179894199Y-66714185D01*
X179894200Y-66714172D01*
X179894200Y-66414200D01*
X178828760Y-66414200D01*
X178859445Y-66361053D01*
X178894200Y-66231343D01*
X178894200Y-66097057D01*
X178859445Y-65967347D01*
X178828760Y-65914200D01*
X179894200Y-65914200D01*
X179894200Y-65614227D01*
X179894199Y-65614214D01*
X179883706Y-65511510D01*
X179883705Y-65511503D01*
X179828558Y-65345081D01*
X179828556Y-65345076D01*
X179736515Y-65195855D01*
X179612544Y-65071884D01*
X179463323Y-64979843D01*
X179463318Y-64979841D01*
X179296896Y-64924694D01*
X179296889Y-64924693D01*
X179194185Y-64914200D01*
X178634200Y-64914200D01*
X178634200Y-65719639D01*
X178581053Y-65688955D01*
X178451343Y-65654200D01*
X178317057Y-65654200D01*
X178187347Y-65688955D01*
X178134200Y-65719639D01*
X178134200Y-64914200D01*
X177574214Y-64914200D01*
X177471510Y-64924693D01*
X177471503Y-64924694D01*
X177305081Y-64979841D01*
X177305076Y-64979843D01*
X177155855Y-65071884D01*
X177031884Y-65195855D01*
X176939843Y-65345076D01*
X176939841Y-65345081D01*
X176884694Y-65511503D01*
X176884693Y-65511510D01*
X176874200Y-65614214D01*
X176874200Y-65914200D01*
X177939640Y-65914200D01*
X177908955Y-65967347D01*
X177874200Y-66097057D01*
X177874200Y-66231343D01*
X177908955Y-66361053D01*
X177939640Y-66414200D01*
X176874200Y-66414200D01*
X176874200Y-66714185D01*
X176884693Y-66816889D01*
X176884694Y-66816896D01*
X176939841Y-66983318D01*
X176939843Y-66983323D01*
X177031884Y-67132544D01*
X177155855Y-67256515D01*
X177305076Y-67348556D01*
X177305081Y-67348558D01*
X177464276Y-67401310D01*
X177521721Y-67441082D01*
X177548544Y-67505598D01*
X177536229Y-67574374D01*
X177488686Y-67625574D01*
X177473034Y-67633098D01*
X177473073Y-67633183D01*
X177338320Y-67695102D01*
X177338317Y-67695104D01*
X177229802Y-67789573D01*
X177187153Y-67839024D01*
X177185643Y-67840649D01*
X177184166Y-67842486D01*
X177106657Y-67963711D01*
X175465870Y-71578778D01*
X175420238Y-71631688D01*
X175353245Y-71651529D01*
X175286160Y-71632000D01*
X175240282Y-71579303D01*
X175238156Y-71573908D01*
X175236556Y-71570475D01*
X175144515Y-71421254D01*
X175020545Y-71297284D01*
X174871324Y-71205243D01*
X174871319Y-71205241D01*
X174704897Y-71150094D01*
X174704890Y-71150093D01*
X174602186Y-71139600D01*
X174464700Y-71139600D01*
X174464700Y-73589599D01*
X174464851Y-73589750D01*
X174498336Y-73651073D01*
X174493352Y-73720765D01*
X174490084Y-73728680D01*
X174004372Y-74798825D01*
X173958740Y-74851735D01*
X173891747Y-74871576D01*
X173845945Y-74862921D01*
X173835997Y-74858996D01*
X173819870Y-74852632D01*
X173751902Y-74836501D01*
X173751904Y-74836501D01*
X173751901Y-74836500D01*
X173608596Y-74823537D01*
X173608594Y-74823537D01*
X173608593Y-74823537D01*
X173600435Y-74823966D01*
X173562352Y-74825970D01*
X173521048Y-74821160D01*
X173237981Y-74738417D01*
X173237972Y-74738415D01*
X172461125Y-74511336D01*
X172408233Y-74479997D01*
X172354286Y-74426049D01*
X172354283Y-74426046D01*
X172189104Y-74315677D01*
X172155882Y-74301917D01*
X172105956Y-74281237D01*
X172051553Y-74237396D01*
X172047030Y-74230388D01*
X171799716Y-73817122D01*
X171776169Y-73777774D01*
X171758635Y-73710140D01*
X171780450Y-73643763D01*
X171834688Y-73599718D01*
X171882567Y-73590099D01*
X172527208Y-73590099D01*
X172527216Y-73590098D01*
X172527219Y-73590098D01*
X172605660Y-73582085D01*
X172629997Y-73579599D01*
X172796534Y-73524414D01*
X172945856Y-73432312D01*
X173069912Y-73308256D01*
X173071952Y-73304947D01*
X173073945Y-73303155D01*
X173074393Y-73302589D01*
X173074489Y-73302665D01*
X173123894Y-73258223D01*
X173192856Y-73246995D01*
X173256940Y-73274834D01*
X173283029Y-73304939D01*
X173284881Y-73307941D01*
X173284883Y-73307944D01*
X173408854Y-73431915D01*
X173558075Y-73523956D01*
X173558080Y-73523958D01*
X173724502Y-73579105D01*
X173724509Y-73579106D01*
X173827219Y-73589599D01*
X173964699Y-73589599D01*
X173964700Y-73589598D01*
X173964700Y-71139600D01*
X173827227Y-71139600D01*
X173827212Y-71139601D01*
X173724502Y-71150094D01*
X173558080Y-71205241D01*
X173558075Y-71205243D01*
X173408854Y-71297284D01*
X173284883Y-71421255D01*
X173284879Y-71421260D01*
X173283026Y-71424265D01*
X173281218Y-71425890D01*
X173280402Y-71426923D01*
X173280225Y-71426783D01*
X173231074Y-71470985D01*
X173162111Y-71482201D01*
X173098031Y-71454352D01*
X173071953Y-71424253D01*
X173071937Y-71424228D01*
X173069912Y-71420944D01*
X172945856Y-71296888D01*
X172816140Y-71216879D01*
X172796536Y-71204787D01*
X172796531Y-71204785D01*
X172785890Y-71201259D01*
X172629997Y-71149601D01*
X172629995Y-71149600D01*
X172527210Y-71139100D01*
X171752198Y-71139100D01*
X171752180Y-71139101D01*
X171649403Y-71149600D01*
X171649400Y-71149601D01*
X171482866Y-71204786D01*
X171473003Y-71210869D01*
X171405609Y-71229304D01*
X171338947Y-71208376D01*
X171305352Y-71175017D01*
X171271566Y-71125294D01*
X171242685Y-71093640D01*
X171224470Y-71073676D01*
X171224464Y-71073671D01*
X171113351Y-70982272D01*
X170980992Y-70925881D01*
X170980986Y-70925879D01*
X170980984Y-70925878D01*
X170913463Y-70907919D01*
X170913461Y-70907918D01*
X170913459Y-70907918D01*
X170770568Y-70891100D01*
X169040358Y-70935465D01*
X169040340Y-70935467D01*
X168924882Y-70951886D01*
X168869911Y-70966325D01*
X168869906Y-70966327D01*
X168761284Y-71008769D01*
X168761278Y-71008772D01*
X168645101Y-71093640D01*
X168595113Y-71142473D01*
X168507556Y-71256628D01*
X168507552Y-71256636D01*
X168455700Y-71390843D01*
X168440050Y-71458940D01*
X168439712Y-71461917D01*
X168439623Y-71464079D01*
X168428110Y-71602311D01*
X168428110Y-71602325D01*
X168677662Y-75776691D01*
X168677664Y-75776701D01*
X168705994Y-75915940D01*
X168729119Y-75980952D01*
X168730873Y-75984962D01*
X168729421Y-75985596D01*
X168741700Y-76035478D01*
X168741700Y-76057267D01*
X168741701Y-76057277D01*
X168748108Y-76116883D01*
X168798402Y-76251728D01*
X168798406Y-76251735D01*
X168884652Y-76366944D01*
X168884655Y-76366947D01*
X168999864Y-76453193D01*
X168999871Y-76453197D01*
X169044818Y-76469961D01*
X169134717Y-76503491D01*
X169194327Y-76509900D01*
X169194353Y-76509899D01*
X169197653Y-76510078D01*
X169197565Y-76511708D01*
X169258438Y-76529467D01*
X169304284Y-76582191D01*
X169312004Y-76625651D01*
X169995754Y-77309400D01*
X169989539Y-77309400D01*
X169887806Y-77336659D01*
X169796594Y-77389320D01*
X169722120Y-77463794D01*
X169669459Y-77555006D01*
X169642200Y-77656739D01*
X169642200Y-77662953D01*
X168962724Y-76983477D01*
X168962723Y-76983477D01*
X168930343Y-77028044D01*
X168837444Y-77210368D01*
X168774209Y-77404982D01*
X168742200Y-77607082D01*
X168742200Y-77811717D01*
X168774209Y-78013817D01*
X168837444Y-78208431D01*
X168930341Y-78390750D01*
X168930347Y-78390759D01*
X168962723Y-78435321D01*
X168962724Y-78435322D01*
X169642200Y-77755846D01*
X169642200Y-77762061D01*
X169669459Y-77863794D01*
X169722120Y-77955006D01*
X169796594Y-78029480D01*
X169887806Y-78082141D01*
X169989539Y-78109400D01*
X169995753Y-78109400D01*
X169316276Y-78788874D01*
X169360850Y-78821259D01*
X169543168Y-78914155D01*
X169737782Y-78977390D01*
X169939883Y-79009400D01*
X170144517Y-79009400D01*
X170346617Y-78977390D01*
X170541231Y-78914155D01*
X170723549Y-78821259D01*
X170768121Y-78788874D01*
X170088647Y-78109400D01*
X170094861Y-78109400D01*
X170196594Y-78082141D01*
X170287806Y-78029480D01*
X170362280Y-77955006D01*
X170414941Y-77863794D01*
X170442200Y-77762061D01*
X170442200Y-77755846D01*
X171121674Y-78435321D01*
X171154059Y-78390749D01*
X171246955Y-78208431D01*
X171310190Y-78013817D01*
X171342200Y-77811717D01*
X171342200Y-77607082D01*
X171310658Y-77407939D01*
X171319612Y-77338646D01*
X171364608Y-77285194D01*
X171431360Y-77264554D01*
X171478644Y-77273196D01*
X171709217Y-77364182D01*
X171764350Y-77407100D01*
X171787529Y-77473013D01*
X171787700Y-77479526D01*
X171787700Y-86703703D01*
X171768015Y-86770742D01*
X171751381Y-86791384D01*
X167841981Y-90700784D01*
X167780658Y-90734269D01*
X167710966Y-90729285D01*
X167666619Y-90700784D01*
X167335619Y-90369784D01*
X167302134Y-90308461D01*
X167299300Y-90282103D01*
X167299300Y-88747916D01*
X167301683Y-88723724D01*
X167327700Y-88592931D01*
X167327700Y-87763170D01*
X167327699Y-87763166D01*
X167305289Y-87650504D01*
X167288944Y-87568331D01*
X167212921Y-87384796D01*
X167212920Y-87384795D01*
X167212917Y-87384789D01*
X167102554Y-87219620D01*
X167047761Y-87164827D01*
X166962081Y-87079147D01*
X166499818Y-86616884D01*
X166466333Y-86555561D01*
X166463499Y-86529203D01*
X166463499Y-86393798D01*
X166463498Y-86393781D01*
X166452999Y-86291003D01*
X166452998Y-86291000D01*
X166397814Y-86124466D01*
X166305712Y-85975144D01*
X166181656Y-85851088D01*
X166070619Y-85782600D01*
X166032336Y-85758987D01*
X166032331Y-85758985D01*
X166017396Y-85754036D01*
X165865797Y-85703801D01*
X165865795Y-85703800D01*
X165763010Y-85693300D01*
X164987998Y-85693300D01*
X164987980Y-85693301D01*
X164885203Y-85703800D01*
X164885200Y-85703801D01*
X164718668Y-85758985D01*
X164718663Y-85758987D01*
X164569342Y-85851089D01*
X164445288Y-85975143D01*
X164445283Y-85975149D01*
X164443241Y-85978461D01*
X164441247Y-85980253D01*
X164440807Y-85980811D01*
X164440711Y-85980735D01*
X164391291Y-86025183D01*
X164322328Y-86036402D01*
X164258247Y-86008555D01*
X164232168Y-85978456D01*
X164230319Y-85975459D01*
X164230316Y-85975455D01*
X164106345Y-85851484D01*
X163957124Y-85759443D01*
X163957119Y-85759441D01*
X163790697Y-85704294D01*
X163790690Y-85704293D01*
X163687986Y-85693800D01*
X163550500Y-85693800D01*
X163550500Y-88143799D01*
X163687972Y-88143799D01*
X163687986Y-88143798D01*
X163790697Y-88133305D01*
X163957119Y-88078158D01*
X163957124Y-88078156D01*
X164106345Y-87986115D01*
X164230318Y-87862142D01*
X164232165Y-87859148D01*
X164233969Y-87857524D01*
X164234798Y-87856477D01*
X164234976Y-87856618D01*
X164284110Y-87812421D01*
X164353073Y-87801196D01*
X164417156Y-87829036D01*
X164443243Y-87859141D01*
X164445288Y-87862456D01*
X164569344Y-87986512D01*
X164718666Y-88078614D01*
X164885203Y-88133799D01*
X164987991Y-88144300D01*
X165123402Y-88144299D01*
X165152847Y-88152944D01*
X165182830Y-88159467D01*
X165187843Y-88163219D01*
X165190442Y-88163983D01*
X165211084Y-88180618D01*
X165250437Y-88219971D01*
X165283922Y-88281294D01*
X165284374Y-88331842D01*
X165283906Y-88334194D01*
X165272938Y-88389341D01*
X165271800Y-88395060D01*
X165271800Y-88592142D01*
X165279917Y-88632946D01*
X165282300Y-88657139D01*
X165282300Y-90850533D01*
X165321054Y-91045361D01*
X165321056Y-91045369D01*
X165345716Y-91104903D01*
X165397077Y-91228901D01*
X165397082Y-91228910D01*
X165507446Y-91394080D01*
X165507449Y-91394084D01*
X166240384Y-92127019D01*
X166273869Y-92188342D01*
X166268885Y-92258034D01*
X166240384Y-92302381D01*
X163327985Y-95214781D01*
X163266662Y-95248266D01*
X163240304Y-95251100D01*
X157808557Y-95251100D01*
X157741518Y-95231415D01*
X157710185Y-95202591D01*
X157633719Y-95102939D01*
X157633713Y-95102933D01*
X157633710Y-95102929D01*
X157471470Y-94940689D01*
X157471461Y-94940681D01*
X157289417Y-94800992D01*
X157090690Y-94686257D01*
X157090676Y-94686250D01*
X156878689Y-94598443D01*
X156878690Y-94598443D01*
X156878687Y-94598442D01*
X156799119Y-94577122D01*
X156748606Y-94563587D01*
X156688946Y-94527222D01*
X156658417Y-94464374D01*
X156656700Y-94443812D01*
X156656700Y-87443786D01*
X162213001Y-87443786D01*
X162223494Y-87546497D01*
X162278641Y-87712919D01*
X162278643Y-87712924D01*
X162370684Y-87862145D01*
X162494654Y-87986115D01*
X162643875Y-88078156D01*
X162643880Y-88078158D01*
X162810302Y-88133305D01*
X162810309Y-88133306D01*
X162913019Y-88143799D01*
X163050499Y-88143799D01*
X163050500Y-88143798D01*
X163050500Y-87168800D01*
X162213001Y-87168800D01*
X162213001Y-87443786D01*
X156656700Y-87443786D01*
X156656700Y-86393813D01*
X162213000Y-86393813D01*
X162213000Y-86668800D01*
X163050500Y-86668800D01*
X163050500Y-85693800D01*
X162913027Y-85693800D01*
X162913012Y-85693801D01*
X162810302Y-85704294D01*
X162643880Y-85759441D01*
X162643875Y-85759443D01*
X162494654Y-85851484D01*
X162370684Y-85975454D01*
X162278643Y-86124675D01*
X162278641Y-86124680D01*
X162223494Y-86291102D01*
X162223493Y-86291109D01*
X162213000Y-86393813D01*
X156656700Y-86393813D01*
X156656700Y-85955870D01*
X156656699Y-85955866D01*
X156616958Y-85756073D01*
X156616449Y-85754046D01*
X156613251Y-85737965D01*
X156569815Y-85633100D01*
X156537835Y-85555892D01*
X156537828Y-85555879D01*
X156428339Y-85392018D01*
X156428336Y-85392014D01*
X156288985Y-85252663D01*
X156288981Y-85252660D01*
X156125120Y-85143171D01*
X156125107Y-85143164D01*
X155943039Y-85067750D01*
X155943029Y-85067747D01*
X155749743Y-85029300D01*
X155749741Y-85029300D01*
X155552659Y-85029300D01*
X155552657Y-85029300D01*
X155502582Y-85039261D01*
X155477163Y-85044317D01*
X155452973Y-85046700D01*
X154659030Y-85046700D01*
X154591991Y-85027015D01*
X154571349Y-85010381D01*
X154548457Y-84987489D01*
X154548456Y-84987488D01*
X154399134Y-84895386D01*
X154232597Y-84840201D01*
X154232595Y-84840200D01*
X154129810Y-84829700D01*
X153354798Y-84829700D01*
X153354780Y-84829701D01*
X153252003Y-84840200D01*
X153252000Y-84840201D01*
X153085468Y-84895385D01*
X153085463Y-84895387D01*
X152936142Y-84987489D01*
X152812088Y-85111543D01*
X152812083Y-85111549D01*
X152810041Y-85114861D01*
X152808047Y-85116653D01*
X152807607Y-85117211D01*
X152807511Y-85117135D01*
X152758091Y-85161583D01*
X152689128Y-85172802D01*
X152625047Y-85144955D01*
X152598968Y-85114856D01*
X152597119Y-85111859D01*
X152597116Y-85111855D01*
X152473145Y-84987884D01*
X152323924Y-84895843D01*
X152323919Y-84895841D01*
X152157497Y-84840694D01*
X152157490Y-84840693D01*
X152054786Y-84830200D01*
X151921597Y-84830200D01*
X151854558Y-84810515D01*
X151808803Y-84757711D01*
X151798859Y-84688553D01*
X151827884Y-84624997D01*
X151833903Y-84618531D01*
X151989554Y-84462881D01*
X152099922Y-84297703D01*
X152163173Y-84145000D01*
X152175944Y-84114169D01*
X152214700Y-83919329D01*
X152214700Y-83365071D01*
X152175944Y-83170231D01*
X152153677Y-83116475D01*
X152099922Y-82986696D01*
X152099919Y-82986691D01*
X152099918Y-82986689D01*
X151989554Y-82821519D01*
X151989551Y-82821515D01*
X150824719Y-81656683D01*
X150791234Y-81595360D01*
X150788400Y-81569002D01*
X150788400Y-74337386D01*
X159927001Y-74337386D01*
X159937494Y-74440097D01*
X159992641Y-74606519D01*
X159992643Y-74606524D01*
X160084684Y-74755745D01*
X160208654Y-74879715D01*
X160357875Y-74971756D01*
X160357880Y-74971758D01*
X160524302Y-75026905D01*
X160524309Y-75026906D01*
X160627019Y-75037399D01*
X160764499Y-75037399D01*
X160764500Y-75037398D01*
X160764500Y-74062400D01*
X159927001Y-74062400D01*
X159927001Y-74337386D01*
X150788400Y-74337386D01*
X150788400Y-74055900D01*
X150808085Y-73988861D01*
X150860889Y-73943106D01*
X150912400Y-73931900D01*
X157604730Y-73931900D01*
X157604731Y-73931899D01*
X157799569Y-73893144D01*
X157983104Y-73817121D01*
X158148281Y-73706753D01*
X158288753Y-73566281D01*
X158347303Y-73507731D01*
X158347311Y-73507721D01*
X158699617Y-73155416D01*
X158760939Y-73121934D01*
X158787297Y-73119100D01*
X159806882Y-73119100D01*
X159873921Y-73138785D01*
X159919676Y-73191589D01*
X159930240Y-73255702D01*
X159927000Y-73287411D01*
X159927000Y-73562400D01*
X160890500Y-73562400D01*
X160957539Y-73582085D01*
X161003294Y-73634889D01*
X161014500Y-73686400D01*
X161014500Y-73812400D01*
X161140500Y-73812400D01*
X161207539Y-73832085D01*
X161253294Y-73884889D01*
X161264500Y-73936400D01*
X161264500Y-75037399D01*
X161401972Y-75037399D01*
X161401986Y-75037398D01*
X161504697Y-75026905D01*
X161671119Y-74971758D01*
X161671124Y-74971756D01*
X161820345Y-74879715D01*
X161944318Y-74755742D01*
X161946165Y-74752748D01*
X161947969Y-74751124D01*
X161948798Y-74750077D01*
X161948976Y-74750218D01*
X161998110Y-74706021D01*
X162067073Y-74694796D01*
X162131156Y-74722636D01*
X162157243Y-74752741D01*
X162159288Y-74756056D01*
X162283344Y-74880112D01*
X162432666Y-74972214D01*
X162599203Y-75027399D01*
X162701991Y-75037900D01*
X163477008Y-75037899D01*
X163519283Y-75033580D01*
X163587974Y-75046349D01*
X163638859Y-75094229D01*
X163655780Y-75162019D01*
X163644678Y-75208450D01*
X163600231Y-75305772D01*
X163600230Y-75305777D01*
X163579750Y-75448233D01*
X163600230Y-75590688D01*
X163600231Y-75590693D01*
X163650466Y-75700690D01*
X163661657Y-75754154D01*
X163656941Y-76053692D01*
X163656941Y-76053696D01*
X163664845Y-76151045D01*
X163673282Y-76197996D01*
X163677583Y-76213266D01*
X163687253Y-76247601D01*
X163694356Y-76272818D01*
X163699000Y-76306435D01*
X163699000Y-76900314D01*
X163694606Y-76895920D01*
X163603394Y-76843259D01*
X163501661Y-76816000D01*
X163396339Y-76816000D01*
X163294606Y-76843259D01*
X163203394Y-76895920D01*
X163199000Y-76900314D01*
X163199000Y-75939390D01*
X163144586Y-75948009D01*
X162949970Y-76011244D01*
X162767650Y-76104140D01*
X162602105Y-76224417D01*
X162602104Y-76224417D01*
X162457417Y-76369104D01*
X162457417Y-76369105D01*
X162337140Y-76534650D01*
X162244244Y-76716970D01*
X162181009Y-76911586D01*
X162172391Y-76966000D01*
X163133314Y-76966000D01*
X163128920Y-76970394D01*
X163076259Y-77061606D01*
X163049000Y-77163339D01*
X163049000Y-77268661D01*
X163076259Y-77370394D01*
X163128920Y-77461606D01*
X163133314Y-77466000D01*
X162172391Y-77466000D01*
X162181009Y-77520413D01*
X162244244Y-77715029D01*
X162337140Y-77897349D01*
X162457417Y-78062894D01*
X162457417Y-78062895D01*
X162602104Y-78207582D01*
X162767650Y-78327859D01*
X162949968Y-78420754D01*
X163144578Y-78483988D01*
X163199000Y-78492607D01*
X163199000Y-77531686D01*
X163203394Y-77536080D01*
X163294606Y-77588741D01*
X163396339Y-77616000D01*
X163501661Y-77616000D01*
X163603394Y-77588741D01*
X163694606Y-77536080D01*
X163699000Y-77531686D01*
X163699000Y-78492606D01*
X163753421Y-78483988D01*
X163948031Y-78420754D01*
X164130349Y-78327859D01*
X164295894Y-78207582D01*
X164295895Y-78207582D01*
X164440582Y-78062895D01*
X164440587Y-78062889D01*
X164464082Y-78030552D01*
X164519412Y-77987886D01*
X164589025Y-77981907D01*
X164650820Y-78014512D01*
X164685177Y-78075351D01*
X164688400Y-78103437D01*
X164688400Y-81846943D01*
X164688400Y-81983057D01*
X164688400Y-81983059D01*
X164688399Y-81983059D01*
X164714953Y-82116551D01*
X164714956Y-82116561D01*
X164767042Y-82242309D01*
X164767044Y-82242312D01*
X164842663Y-82355485D01*
X164842669Y-82355492D01*
X167573081Y-85085902D01*
X167606566Y-85147225D01*
X167609400Y-85173583D01*
X167609400Y-86169677D01*
X167592124Y-86228509D01*
X167593879Y-86229447D01*
X167591002Y-86234828D01*
X167530664Y-86380498D01*
X167530661Y-86380510D01*
X167499900Y-86535153D01*
X167499900Y-86692846D01*
X167530661Y-86847489D01*
X167530664Y-86847501D01*
X167591002Y-86993172D01*
X167591009Y-86993185D01*
X167678610Y-87124288D01*
X167678613Y-87124292D01*
X167790107Y-87235786D01*
X167790111Y-87235789D01*
X167921214Y-87323390D01*
X167921227Y-87323397D01*
X168066898Y-87383735D01*
X168066903Y-87383737D01*
X168221553Y-87414499D01*
X168221556Y-87414500D01*
X168221558Y-87414500D01*
X168379244Y-87414500D01*
X168379245Y-87414499D01*
X168533897Y-87383737D01*
X168679579Y-87323394D01*
X168810689Y-87235789D01*
X168922189Y-87124289D01*
X169009794Y-86993179D01*
X169070137Y-86847497D01*
X169100900Y-86692842D01*
X169100900Y-86535158D01*
X169100900Y-86535155D01*
X169100899Y-86535153D01*
X169082111Y-86440702D01*
X169070137Y-86380503D01*
X169009794Y-86234821D01*
X169009790Y-86234815D01*
X169006921Y-86229447D01*
X169009076Y-86228294D01*
X168991419Y-86171869D01*
X168991400Y-86169677D01*
X168991400Y-84767939D01*
X168964846Y-84634448D01*
X168964845Y-84634447D01*
X168964845Y-84634443D01*
X168912756Y-84508689D01*
X168899352Y-84488629D01*
X168837135Y-84395514D01*
X168837133Y-84395511D01*
X168837132Y-84395510D01*
X168560382Y-84118761D01*
X168545166Y-84090895D01*
X168528482Y-84063888D01*
X168528543Y-84060452D01*
X168526897Y-84057438D01*
X168529161Y-84025767D01*
X168529728Y-83994030D01*
X168531731Y-83989842D01*
X168531881Y-83987747D01*
X168544956Y-83962197D01*
X168571755Y-83922089D01*
X168587168Y-83903308D01*
X168617389Y-83873089D01*
X168704994Y-83741979D01*
X168765337Y-83596297D01*
X168796100Y-83441642D01*
X168796100Y-83283958D01*
X168796100Y-83283955D01*
X168796099Y-83283953D01*
X168774773Y-83176740D01*
X168765337Y-83129303D01*
X168748975Y-83089801D01*
X168704997Y-82983627D01*
X168704990Y-82983614D01*
X168617389Y-82852511D01*
X168617386Y-82852507D01*
X168505892Y-82741013D01*
X168505888Y-82741010D01*
X168374785Y-82653409D01*
X168374772Y-82653402D01*
X168229101Y-82593064D01*
X168229089Y-82593061D01*
X168074445Y-82562300D01*
X168074442Y-82562300D01*
X167916758Y-82562300D01*
X167916755Y-82562300D01*
X167762110Y-82593061D01*
X167762098Y-82593064D01*
X167616427Y-82653402D01*
X167616414Y-82653409D01*
X167485311Y-82741010D01*
X167421652Y-82804669D01*
X167360328Y-82838153D01*
X167290637Y-82833168D01*
X167246290Y-82804668D01*
X166106719Y-81665097D01*
X166073234Y-81603774D01*
X166070400Y-81577416D01*
X166070400Y-76871575D01*
X166090085Y-76804536D01*
X166142889Y-76758781D01*
X166196952Y-76747601D01*
X166483036Y-76753501D01*
X166603471Y-76741491D01*
X166661010Y-76728661D01*
X166775143Y-76688365D01*
X166893713Y-76606863D01*
X166945073Y-76559493D01*
X167035877Y-76447889D01*
X167091561Y-76315221D01*
X167109158Y-76247604D01*
X167125210Y-76104624D01*
X167122314Y-76011244D01*
X166976250Y-71300688D01*
X166972992Y-71275834D01*
X166963218Y-71201269D01*
X166952073Y-71153602D01*
X166919667Y-71058696D01*
X166919666Y-71058694D01*
X166841883Y-70937662D01*
X166841874Y-70937651D01*
X166796130Y-70884859D01*
X166796126Y-70884856D01*
X166796124Y-70884853D01*
X166687390Y-70790633D01*
X166687387Y-70790631D01*
X166687385Y-70790630D01*
X166556519Y-70730864D01*
X166556514Y-70730862D01*
X166556513Y-70730862D01*
X166511820Y-70717738D01*
X166489471Y-70711176D01*
X166421635Y-70701423D01*
X166347054Y-70690700D01*
X164361063Y-70690700D01*
X164296335Y-70697401D01*
X164257496Y-70701423D01*
X164224740Y-70708279D01*
X164207770Y-70711832D01*
X164207767Y-70711832D01*
X164207762Y-70711834D01*
X164108611Y-70743539D01*
X164108609Y-70743540D01*
X163986365Y-70819406D01*
X163986360Y-70819409D01*
X163932850Y-70864320D01*
X163932832Y-70864339D01*
X163893851Y-70907920D01*
X163836920Y-70971568D01*
X163819218Y-71008769D01*
X163808457Y-71031382D01*
X163761876Y-71083459D01*
X163696488Y-71102100D01*
X158218866Y-71102100D01*
X158024038Y-71140854D01*
X158024026Y-71140857D01*
X158002918Y-71149601D01*
X157840495Y-71216878D01*
X157840492Y-71216879D01*
X157675319Y-71327245D01*
X157675315Y-71327248D01*
X157123985Y-71878581D01*
X157062662Y-71912066D01*
X157036304Y-71914900D01*
X150819769Y-71914900D01*
X150752730Y-71895215D01*
X150706975Y-71842411D01*
X150705208Y-71838352D01*
X150673624Y-71762101D01*
X150673617Y-71762088D01*
X150563254Y-71596919D01*
X150536601Y-71570266D01*
X150422781Y-71456446D01*
X149874253Y-70907918D01*
X149293583Y-70327247D01*
X149293579Y-70327244D01*
X149128409Y-70216880D01*
X149128400Y-70216875D01*
X149026579Y-70174700D01*
X148944868Y-70140854D01*
X148944860Y-70140852D01*
X148750032Y-70102098D01*
X148750028Y-70102098D01*
X141274361Y-70102098D01*
X141207322Y-70082413D01*
X141161567Y-70029609D01*
X141151623Y-69960451D01*
X141156653Y-69939102D01*
X141205399Y-69791997D01*
X141215900Y-69689209D01*
X141215900Y-69268588D01*
X164316201Y-69268588D01*
X164326694Y-69371299D01*
X164381840Y-69537720D01*
X164381842Y-69537725D01*
X164473883Y-69686946D01*
X164597853Y-69810916D01*
X164747074Y-69902957D01*
X164747079Y-69902959D01*
X164913501Y-69958105D01*
X165016217Y-69968599D01*
X167466199Y-69968599D01*
X167966200Y-69968599D01*
X170416174Y-69968599D01*
X170416188Y-69968598D01*
X170518899Y-69958105D01*
X170685320Y-69902959D01*
X170685325Y-69902957D01*
X170834546Y-69810916D01*
X170958516Y-69686946D01*
X171050557Y-69537725D01*
X171050559Y-69537720D01*
X171105705Y-69371298D01*
X171116199Y-69268588D01*
X171116200Y-69268575D01*
X171116200Y-66518600D01*
X167966200Y-66518600D01*
X167966200Y-69968599D01*
X167466199Y-69968599D01*
X167466200Y-69968598D01*
X167466200Y-66518600D01*
X164316201Y-66518600D01*
X164316201Y-69268588D01*
X141215900Y-69268588D01*
X141215899Y-68639192D01*
X141205399Y-68536403D01*
X141150214Y-68369866D01*
X141058112Y-68220544D01*
X140934056Y-68096488D01*
X140788061Y-68006438D01*
X140784736Y-68004387D01*
X140784731Y-68004385D01*
X140783262Y-68003898D01*
X140618197Y-67949201D01*
X140618195Y-67949200D01*
X140515410Y-67938700D01*
X139740398Y-67938700D01*
X139740380Y-67938701D01*
X139637603Y-67949200D01*
X139637600Y-67949201D01*
X139471068Y-68004385D01*
X139471063Y-68004387D01*
X139321742Y-68096489D01*
X139197688Y-68220543D01*
X139197683Y-68220549D01*
X139195641Y-68223861D01*
X139193647Y-68225653D01*
X139193207Y-68226211D01*
X139193111Y-68226135D01*
X139143691Y-68270583D01*
X139074728Y-68281802D01*
X139010647Y-68253955D01*
X138984568Y-68223856D01*
X138982719Y-68220859D01*
X138982716Y-68220855D01*
X138858745Y-68096884D01*
X138709524Y-68004843D01*
X138709519Y-68004841D01*
X138543097Y-67949694D01*
X138543090Y-67949693D01*
X138440386Y-67939200D01*
X138302900Y-67939200D01*
X138302900Y-70389199D01*
X138440372Y-70389199D01*
X138440386Y-70389198D01*
X138543097Y-70378705D01*
X138709519Y-70323558D01*
X138709524Y-70323556D01*
X138858745Y-70231515D01*
X138982718Y-70107542D01*
X138984565Y-70104548D01*
X138986369Y-70102924D01*
X138987198Y-70101877D01*
X138987376Y-70102018D01*
X139036510Y-70057821D01*
X139105473Y-70046596D01*
X139169556Y-70074436D01*
X139180098Y-70084332D01*
X139188915Y-70093634D01*
X139197688Y-70107856D01*
X139288168Y-70198336D01*
X139289298Y-70199528D01*
X139304495Y-70229219D01*
X139320472Y-70258478D01*
X139320738Y-70260952D01*
X139321133Y-70261724D01*
X139320983Y-70263238D01*
X139323306Y-70284836D01*
X139323306Y-70577647D01*
X139311051Y-70626580D01*
X139312709Y-70627267D01*
X139234355Y-70816428D01*
X139234353Y-70816436D01*
X139195599Y-71011264D01*
X139195599Y-71209931D01*
X139234353Y-71404759D01*
X139234355Y-71404767D01*
X139312709Y-71593930D01*
X139311047Y-71594618D01*
X139312170Y-71599103D01*
X139318283Y-71608614D01*
X139323306Y-71643549D01*
X139323306Y-71794811D01*
X139303621Y-71861850D01*
X139286987Y-71882492D01*
X138990899Y-72178580D01*
X138929576Y-72212065D01*
X138903218Y-72214899D01*
X134283975Y-72214899D01*
X134113679Y-72248773D01*
X134113669Y-72248776D01*
X133953254Y-72315221D01*
X133808871Y-72411694D01*
X132315201Y-73905364D01*
X132273233Y-73930531D01*
X132274058Y-73932522D01*
X132084899Y-74010874D01*
X132084889Y-74010879D01*
X131919719Y-74121243D01*
X131919715Y-74121246D01*
X131779249Y-74261712D01*
X131779246Y-74261716D01*
X131668882Y-74426886D01*
X131668877Y-74426895D01*
X131592856Y-74610427D01*
X131592854Y-74610435D01*
X131554100Y-74805263D01*
X131554100Y-75003930D01*
X131592854Y-75198758D01*
X131592856Y-75198766D01*
X131668877Y-75382298D01*
X131668882Y-75382307D01*
X131779246Y-75547477D01*
X131779249Y-75547481D01*
X131919715Y-75687947D01*
X131919719Y-75687950D01*
X132084889Y-75798314D01*
X132084895Y-75798317D01*
X132084896Y-75798318D01*
X132268431Y-75874341D01*
X132463266Y-75913096D01*
X132463270Y-75913097D01*
X132463271Y-75913097D01*
X132661930Y-75913097D01*
X132661931Y-75913096D01*
X132856769Y-75874341D01*
X133040304Y-75798318D01*
X133205481Y-75687950D01*
X133345953Y-75547478D01*
X133456321Y-75382301D01*
X133532344Y-75198766D01*
X133534676Y-75193137D01*
X133536685Y-75193969D01*
X133561832Y-75151993D01*
X134699609Y-74014218D01*
X134760932Y-73980733D01*
X134787290Y-73977899D01*
X139406533Y-73977899D01*
X139523460Y-73954640D01*
X139576834Y-73944023D01*
X139670166Y-73905364D01*
X139737253Y-73877576D01*
X139737254Y-73877575D01*
X139737257Y-73877574D01*
X139881634Y-73781105D01*
X140172954Y-73489785D01*
X146617401Y-73489785D01*
X146627894Y-73592496D01*
X146683041Y-73758918D01*
X146683043Y-73758923D01*
X146775084Y-73908144D01*
X146899054Y-74032114D01*
X147048275Y-74124155D01*
X147048280Y-74124157D01*
X147214702Y-74179304D01*
X147214709Y-74179305D01*
X147317419Y-74189798D01*
X147454899Y-74189798D01*
X147454900Y-74189797D01*
X147454900Y-73214799D01*
X146617401Y-73214799D01*
X146617401Y-73489785D01*
X140172954Y-73489785D01*
X140375348Y-73287391D01*
X140586983Y-73075756D01*
X140889509Y-72773229D01*
X140889512Y-72773226D01*
X140917525Y-72731302D01*
X140928552Y-72714799D01*
X140985981Y-72628850D01*
X141025072Y-72534476D01*
X141052431Y-72468427D01*
X141086306Y-72298124D01*
X141086306Y-72243098D01*
X141105991Y-72176059D01*
X141158795Y-72130304D01*
X141210306Y-72119098D01*
X146528414Y-72119098D01*
X146595453Y-72138783D01*
X146641208Y-72191587D01*
X146651152Y-72260745D01*
X146646120Y-72282102D01*
X146627894Y-72337101D01*
X146627893Y-72337108D01*
X146617400Y-72439812D01*
X146617400Y-72714799D01*
X147580900Y-72714799D01*
X147647939Y-72734484D01*
X147693694Y-72787288D01*
X147704900Y-72838799D01*
X147704900Y-72964799D01*
X147830900Y-72964799D01*
X147897939Y-72984484D01*
X147943694Y-73037288D01*
X147954900Y-73088799D01*
X147954900Y-74189798D01*
X148092372Y-74189798D01*
X148092386Y-74189797D01*
X148195097Y-74179304D01*
X148361519Y-74124157D01*
X148361524Y-74124155D01*
X148510745Y-74032114D01*
X148559719Y-73983141D01*
X148621042Y-73949656D01*
X148690734Y-73954640D01*
X148746667Y-73996512D01*
X148771084Y-74061976D01*
X148771400Y-74070822D01*
X148771400Y-82137433D01*
X148810154Y-82332261D01*
X148810156Y-82332269D01*
X148848148Y-82423989D01*
X148886177Y-82515801D01*
X148886182Y-82515810D01*
X148996546Y-82680980D01*
X148996549Y-82680984D01*
X149870083Y-83554518D01*
X149903568Y-83615841D01*
X149898584Y-83685533D01*
X149870083Y-83729880D01*
X146778721Y-86821244D01*
X146778719Y-86821246D01*
X145096085Y-88503881D01*
X145034762Y-88537366D01*
X145008404Y-88540200D01*
X139901630Y-88540200D01*
X139834591Y-88520515D01*
X139813949Y-88503881D01*
X139791057Y-88480989D01*
X139791056Y-88480988D01*
X139641734Y-88388886D01*
X139475197Y-88333701D01*
X139475195Y-88333700D01*
X139372410Y-88323200D01*
X138597398Y-88323200D01*
X138597380Y-88323201D01*
X138494603Y-88333700D01*
X138494600Y-88333701D01*
X138328068Y-88388885D01*
X138328063Y-88388887D01*
X138178742Y-88480989D01*
X138054688Y-88605043D01*
X138054683Y-88605049D01*
X138052641Y-88608361D01*
X138050647Y-88610153D01*
X138050207Y-88610711D01*
X138050111Y-88610635D01*
X138000691Y-88655083D01*
X137931728Y-88666302D01*
X137867647Y-88638455D01*
X137841568Y-88608356D01*
X137839719Y-88605359D01*
X137839716Y-88605355D01*
X137715745Y-88481384D01*
X137566524Y-88389343D01*
X137566519Y-88389341D01*
X137400097Y-88334194D01*
X137400090Y-88334193D01*
X137297386Y-88323700D01*
X137159900Y-88323700D01*
X137159900Y-89424700D01*
X137140215Y-89491739D01*
X137087411Y-89537494D01*
X137035900Y-89548700D01*
X136909900Y-89548700D01*
X136909900Y-89674700D01*
X136890215Y-89741739D01*
X136837411Y-89787494D01*
X136785900Y-89798700D01*
X135822401Y-89798700D01*
X135822401Y-90073686D01*
X135832894Y-90176397D01*
X135871830Y-90293896D01*
X135874232Y-90363724D01*
X135838500Y-90423766D01*
X135775980Y-90454959D01*
X135754124Y-90456900D01*
X134228377Y-90456900D01*
X134058081Y-90490774D01*
X134058071Y-90490777D01*
X133897656Y-90557222D01*
X133753273Y-90653695D01*
X131496895Y-92910073D01*
X131400422Y-93054456D01*
X131333977Y-93214871D01*
X131333974Y-93214881D01*
X131300100Y-93385177D01*
X131300100Y-93385180D01*
X131300100Y-103291179D01*
X131300100Y-103464821D01*
X131300100Y-103464823D01*
X131300099Y-103464823D01*
X125660400Y-103464823D01*
X125660400Y-89023713D01*
X135822400Y-89023713D01*
X135822400Y-89298700D01*
X136659900Y-89298700D01*
X136659900Y-88323700D01*
X136522427Y-88323700D01*
X136522412Y-88323701D01*
X136419702Y-88334194D01*
X136253280Y-88389341D01*
X136253275Y-88389343D01*
X136104054Y-88481384D01*
X135980084Y-88605354D01*
X135888043Y-88754575D01*
X135888041Y-88754580D01*
X135832894Y-88921002D01*
X135832893Y-88921009D01*
X135822400Y-89023713D01*
X125660400Y-89023713D01*
X125660400Y-82707944D01*
X136041104Y-82707944D01*
X136041104Y-82900053D01*
X136071157Y-83089801D01*
X136130520Y-83272505D01*
X136157429Y-83325316D01*
X136217739Y-83443680D01*
X136330659Y-83599101D01*
X136466502Y-83734944D01*
X136621923Y-83847864D01*
X136762180Y-83919329D01*
X136793097Y-83935082D01*
X136876535Y-83962192D01*
X136975803Y-83994446D01*
X137165549Y-84024499D01*
X137165550Y-84024499D01*
X137357658Y-84024499D01*
X137357659Y-84024499D01*
X137547405Y-83994446D01*
X137730113Y-83935081D01*
X137901285Y-83847864D01*
X138056706Y-83734944D01*
X138192549Y-83599101D01*
X138305469Y-83443680D01*
X138392686Y-83272508D01*
X138413935Y-83207107D01*
X138453371Y-83149434D01*
X138517729Y-83122235D01*
X138586575Y-83134148D01*
X138638052Y-83181391D01*
X138649797Y-83207106D01*
X138670987Y-83272321D01*
X138758164Y-83443414D01*
X138779401Y-83472645D01*
X139401603Y-82850444D01*
X139401603Y-82856660D01*
X139428862Y-82958393D01*
X139481523Y-83049605D01*
X139555997Y-83124079D01*
X139647209Y-83176740D01*
X139748942Y-83203999D01*
X139755157Y-83203999D01*
X139132954Y-83826199D01*
X139132955Y-83826200D01*
X139162180Y-83847433D01*
X139333281Y-83934615D01*
X139515918Y-83993958D01*
X139705588Y-84023999D01*
X139897618Y-84023999D01*
X140087287Y-83993958D01*
X140269924Y-83934615D01*
X140441022Y-83847435D01*
X140470249Y-83826200D01*
X140470249Y-83826199D01*
X139848050Y-83203999D01*
X139854264Y-83203999D01*
X139955997Y-83176740D01*
X140047209Y-83124079D01*
X140121683Y-83049605D01*
X140174344Y-82958393D01*
X140201603Y-82856660D01*
X140201603Y-82850445D01*
X140823803Y-83472645D01*
X140823804Y-83472645D01*
X140845039Y-83443418D01*
X140932219Y-83272318D01*
X140953408Y-83207107D01*
X140992845Y-83149432D01*
X141057203Y-83122233D01*
X141126050Y-83134147D01*
X141177526Y-83181391D01*
X141189270Y-83207107D01*
X141210519Y-83272504D01*
X141210520Y-83272505D01*
X141210521Y-83272508D01*
X141297738Y-83443680D01*
X141410658Y-83599101D01*
X141546501Y-83734944D01*
X141701922Y-83847864D01*
X141842179Y-83919329D01*
X141873096Y-83935082D01*
X141956534Y-83962192D01*
X142055802Y-83994446D01*
X142245548Y-84024499D01*
X142245549Y-84024499D01*
X142437657Y-84024499D01*
X142437658Y-84024499D01*
X142627404Y-83994446D01*
X142810112Y-83935081D01*
X142981284Y-83847864D01*
X143136705Y-83734944D01*
X143272548Y-83599101D01*
X143385468Y-83443680D01*
X143472685Y-83272508D01*
X143479883Y-83250352D01*
X143486001Y-83235066D01*
X143945486Y-82277068D01*
X143969605Y-82243019D01*
X144600563Y-81612062D01*
X144600566Y-81612061D01*
X144705659Y-81506968D01*
X144788229Y-81383392D01*
X144845105Y-81246082D01*
X144874100Y-81100314D01*
X144874100Y-80215088D01*
X144845105Y-80069320D01*
X144788229Y-79932010D01*
X144705659Y-79808434D01*
X144705654Y-79808428D01*
X144596247Y-79699021D01*
X144596224Y-79699000D01*
X143585274Y-78688049D01*
X143569853Y-78669259D01*
X143496789Y-78559910D01*
X143385292Y-78448413D01*
X143385288Y-78448410D01*
X143254185Y-78360809D01*
X143254172Y-78360802D01*
X143108501Y-78300464D01*
X143108489Y-78300461D01*
X142953845Y-78269700D01*
X142953842Y-78269700D01*
X142796158Y-78269700D01*
X142796155Y-78269700D01*
X142641510Y-78300461D01*
X142641498Y-78300464D01*
X142495827Y-78360802D01*
X142495814Y-78360809D01*
X142364711Y-78448410D01*
X142364707Y-78448413D01*
X142253213Y-78559907D01*
X142253210Y-78559911D01*
X142165609Y-78691014D01*
X142165602Y-78691027D01*
X142105264Y-78836698D01*
X142105261Y-78836710D01*
X142074500Y-78991353D01*
X142074500Y-79149046D01*
X142105261Y-79303689D01*
X142105264Y-79303701D01*
X142165602Y-79449372D01*
X142165609Y-79449385D01*
X142253210Y-79580488D01*
X142253213Y-79580492D01*
X142364710Y-79691989D01*
X142436226Y-79739774D01*
X142495821Y-79779594D01*
X142495823Y-79779595D01*
X142495827Y-79779597D01*
X142553179Y-79803352D01*
X142593408Y-79830232D01*
X143328781Y-80565605D01*
X143343484Y-80592532D01*
X143360077Y-80618351D01*
X143360968Y-80624551D01*
X143362266Y-80626928D01*
X143365100Y-80653286D01*
X143365100Y-80662114D01*
X143345415Y-80729153D01*
X143328781Y-80749795D01*
X142902588Y-81175987D01*
X142868532Y-81200111D01*
X141910534Y-81659599D01*
X141895231Y-81665724D01*
X141873085Y-81672920D01*
X141701924Y-81760132D01*
X141701922Y-81760133D01*
X141672104Y-81781797D01*
X141669094Y-81783984D01*
X141628669Y-81812014D01*
X141625177Y-81815889D01*
X141615274Y-81823085D01*
X141615262Y-81823095D01*
X141546497Y-81873057D01*
X141410660Y-82008894D01*
X141410660Y-82008895D01*
X141410658Y-82008897D01*
X141362163Y-82075644D01*
X141297738Y-82164317D01*
X141210520Y-82335491D01*
X141189270Y-82400891D01*
X141149832Y-82458566D01*
X141085473Y-82485764D01*
X141016627Y-82473849D01*
X140965151Y-82426604D01*
X140953408Y-82400890D01*
X140932219Y-82335679D01*
X140845037Y-82164576D01*
X140823804Y-82135351D01*
X140823803Y-82135350D01*
X140201603Y-82757551D01*
X140201603Y-82751338D01*
X140174344Y-82649605D01*
X140121683Y-82558393D01*
X140047209Y-82483919D01*
X139955997Y-82431258D01*
X139854264Y-82403999D01*
X139848050Y-82403999D01*
X140470249Y-81781797D01*
X140441018Y-81760560D01*
X140269924Y-81673382D01*
X140087287Y-81614039D01*
X139897618Y-81583999D01*
X139705588Y-81583999D01*
X139515918Y-81614039D01*
X139333281Y-81673382D01*
X139162181Y-81760563D01*
X139132955Y-81781797D01*
X139132954Y-81781797D01*
X139755157Y-82403999D01*
X139748942Y-82403999D01*
X139647209Y-82431258D01*
X139555997Y-82483919D01*
X139481523Y-82558393D01*
X139428862Y-82649605D01*
X139401603Y-82751338D01*
X139401603Y-82757552D01*
X138779401Y-82135350D01*
X138779401Y-82135351D01*
X138758167Y-82164577D01*
X138670984Y-82335681D01*
X138649796Y-82400891D01*
X138610358Y-82458566D01*
X138545999Y-82485763D01*
X138477153Y-82473847D01*
X138425678Y-82426603D01*
X138413936Y-82400891D01*
X138392686Y-82335490D01*
X138305469Y-82164318D01*
X138192549Y-82008897D01*
X138056706Y-81873054D01*
X137901285Y-81760134D01*
X137901281Y-81760132D01*
X137730110Y-81672915D01*
X137547406Y-81613552D01*
X137432546Y-81595360D01*
X137357659Y-81583499D01*
X137165549Y-81583499D01*
X137102300Y-81593516D01*
X136975801Y-81613552D01*
X136793097Y-81672915D01*
X136621922Y-81760134D01*
X136535278Y-81823085D01*
X136466502Y-81873054D01*
X136466500Y-81873056D01*
X136466499Y-81873056D01*
X136330661Y-82008894D01*
X136330661Y-82008895D01*
X136330659Y-82008897D01*
X136282164Y-82075644D01*
X136217739Y-82164317D01*
X136130520Y-82335492D01*
X136071157Y-82518196D01*
X136041104Y-82707944D01*
X125660400Y-82707944D01*
X125660400Y-69689186D01*
X136965401Y-69689186D01*
X136975894Y-69791897D01*
X137031041Y-69958319D01*
X137031043Y-69958324D01*
X137123084Y-70107545D01*
X137247054Y-70231515D01*
X137396275Y-70323556D01*
X137396280Y-70323558D01*
X137562702Y-70378705D01*
X137562709Y-70378706D01*
X137665419Y-70389199D01*
X137802899Y-70389199D01*
X137802900Y-70389198D01*
X137802900Y-69414200D01*
X136965401Y-69414200D01*
X136965401Y-69689186D01*
X125660400Y-69689186D01*
X125660400Y-68639213D01*
X136965400Y-68639213D01*
X136965400Y-68914200D01*
X137802900Y-68914200D01*
X137802900Y-67939200D01*
X137665427Y-67939200D01*
X137665412Y-67939201D01*
X137562702Y-67949694D01*
X137396280Y-68004841D01*
X137396275Y-68004843D01*
X137247054Y-68096884D01*
X137123084Y-68220854D01*
X137031043Y-68370075D01*
X137031041Y-68370080D01*
X136975894Y-68536502D01*
X136975893Y-68536509D01*
X136965400Y-68639213D01*
X125660400Y-68639213D01*
X125660400Y-65359911D01*
X126749700Y-65359911D01*
X126749700Y-65602488D01*
X126781361Y-65842985D01*
X126844147Y-66077304D01*
X126936973Y-66301405D01*
X126936977Y-66301414D01*
X126940481Y-66307483D01*
X127058264Y-66511489D01*
X127058266Y-66511492D01*
X127058267Y-66511493D01*
X127205933Y-66703936D01*
X127205939Y-66703943D01*
X127377456Y-66875460D01*
X127377463Y-66875466D01*
X127394219Y-66888323D01*
X127569911Y-67023136D01*
X127779988Y-67144424D01*
X128004100Y-67237254D01*
X128238411Y-67300038D01*
X128404943Y-67321962D01*
X128478911Y-67331700D01*
X128478912Y-67331700D01*
X128721489Y-67331700D01*
X128769588Y-67325367D01*
X128961989Y-67300038D01*
X129196300Y-67237254D01*
X129420412Y-67144424D01*
X129630489Y-67023136D01*
X129822938Y-66875465D01*
X129994465Y-66703938D01*
X130142136Y-66511489D01*
X130263424Y-66301412D01*
X130356254Y-66077300D01*
X130419038Y-65842989D01*
X130450700Y-65602488D01*
X130450700Y-65359912D01*
X130448747Y-65345081D01*
X130433473Y-65229061D01*
X130419038Y-65119411D01*
X130408570Y-65080345D01*
X136066501Y-65080345D01*
X136066501Y-65272454D01*
X136096554Y-65462202D01*
X136155917Y-65644906D01*
X136212573Y-65756098D01*
X136243136Y-65816081D01*
X136356056Y-65971502D01*
X136491899Y-66107345D01*
X136647320Y-66220265D01*
X136806565Y-66301405D01*
X136818494Y-66307483D01*
X136909846Y-66337164D01*
X137001200Y-66366847D01*
X137190946Y-66396900D01*
X137190947Y-66396900D01*
X137383055Y-66396900D01*
X137383056Y-66396900D01*
X137572802Y-66366847D01*
X137755510Y-66307482D01*
X137926682Y-66220265D01*
X138082103Y-66107345D01*
X138217946Y-65971502D01*
X138330866Y-65816081D01*
X138418083Y-65644909D01*
X138439332Y-65579508D01*
X138478768Y-65521835D01*
X138543126Y-65494636D01*
X138611972Y-65506549D01*
X138663449Y-65553792D01*
X138675194Y-65579507D01*
X138696384Y-65644722D01*
X138783561Y-65815815D01*
X138804798Y-65845046D01*
X139427000Y-65222845D01*
X139427000Y-65229061D01*
X139454259Y-65330794D01*
X139506920Y-65422006D01*
X139581394Y-65496480D01*
X139672606Y-65549141D01*
X139774339Y-65576400D01*
X139780554Y-65576400D01*
X139158351Y-66198600D01*
X139158352Y-66198601D01*
X139187577Y-66219834D01*
X139358678Y-66307016D01*
X139541315Y-66366359D01*
X139730985Y-66396400D01*
X139923015Y-66396400D01*
X140112684Y-66366359D01*
X140295321Y-66307016D01*
X140466419Y-66219836D01*
X140495646Y-66198601D01*
X140495646Y-66198600D01*
X139873447Y-65576400D01*
X139879661Y-65576400D01*
X139981394Y-65549141D01*
X140072606Y-65496480D01*
X140147080Y-65422006D01*
X140199741Y-65330794D01*
X140227000Y-65229061D01*
X140227000Y-65222846D01*
X140849200Y-65845046D01*
X140849201Y-65845046D01*
X140870436Y-65815819D01*
X140957616Y-65644719D01*
X140978805Y-65579508D01*
X141018242Y-65521833D01*
X141082600Y-65494634D01*
X141151447Y-65506548D01*
X141202923Y-65553792D01*
X141214667Y-65579508D01*
X141235916Y-65644905D01*
X141235917Y-65644906D01*
X141235918Y-65644909D01*
X141323135Y-65816081D01*
X141436055Y-65971502D01*
X141571898Y-66107345D01*
X141727319Y-66220265D01*
X141886564Y-66301405D01*
X141898493Y-66307483D01*
X141989845Y-66337164D01*
X142081199Y-66366847D01*
X142270945Y-66396900D01*
X142270946Y-66396900D01*
X142463054Y-66396900D01*
X142463055Y-66396900D01*
X142652801Y-66366847D01*
X142688757Y-66355163D01*
X142706785Y-66349307D01*
X142835506Y-66307483D01*
X142835506Y-66307482D01*
X142835509Y-66307482D01*
X143006681Y-66220265D01*
X143162102Y-66107345D01*
X143297945Y-65971502D01*
X143410865Y-65816081D01*
X143498082Y-65644909D01*
X143557447Y-65462201D01*
X143587500Y-65272455D01*
X143587500Y-65080345D01*
X143557447Y-64890599D01*
X143498144Y-64708082D01*
X143498083Y-64707893D01*
X143498082Y-64707891D01*
X143410865Y-64536719D01*
X143297945Y-64381298D01*
X143162102Y-64245455D01*
X143006681Y-64132535D01*
X142835506Y-64045316D01*
X142652802Y-63985953D01*
X142557928Y-63970926D01*
X142463055Y-63955900D01*
X142270945Y-63955900D01*
X142207696Y-63965917D01*
X142081197Y-63985953D01*
X141898493Y-64045316D01*
X141727318Y-64132535D01*
X141697502Y-64154198D01*
X141571898Y-64245455D01*
X141571896Y-64245457D01*
X141571895Y-64245457D01*
X141436057Y-64381295D01*
X141436057Y-64381296D01*
X141436055Y-64381298D01*
X141387560Y-64448045D01*
X141323135Y-64536718D01*
X141235917Y-64707892D01*
X141214667Y-64773292D01*
X141175229Y-64830967D01*
X141110870Y-64858165D01*
X141042024Y-64846250D01*
X140990548Y-64799005D01*
X140978805Y-64773291D01*
X140957616Y-64708080D01*
X140870434Y-64536977D01*
X140849201Y-64507752D01*
X140849200Y-64507751D01*
X140227000Y-65129952D01*
X140227000Y-65123739D01*
X140199741Y-65022006D01*
X140147080Y-64930794D01*
X140072606Y-64856320D01*
X139981394Y-64803659D01*
X139879661Y-64776400D01*
X139873447Y-64776400D01*
X140495646Y-64154198D01*
X140466415Y-64132961D01*
X140295321Y-64045783D01*
X140112684Y-63986440D01*
X139923015Y-63956400D01*
X139730985Y-63956400D01*
X139541315Y-63986440D01*
X139358678Y-64045783D01*
X139187578Y-64132964D01*
X139158352Y-64154198D01*
X139158351Y-64154198D01*
X139780554Y-64776400D01*
X139774339Y-64776400D01*
X139672606Y-64803659D01*
X139581394Y-64856320D01*
X139506920Y-64930794D01*
X139454259Y-65022006D01*
X139427000Y-65123739D01*
X139427000Y-65129953D01*
X138804798Y-64507751D01*
X138804798Y-64507752D01*
X138783564Y-64536978D01*
X138696381Y-64708082D01*
X138675193Y-64773292D01*
X138635755Y-64830967D01*
X138571396Y-64858164D01*
X138502550Y-64846248D01*
X138451075Y-64799004D01*
X138439333Y-64773292D01*
X138418083Y-64707891D01*
X138330866Y-64536719D01*
X138217946Y-64381298D01*
X138082103Y-64245455D01*
X137926682Y-64132535D01*
X137755507Y-64045316D01*
X137572803Y-63985953D01*
X137477929Y-63970926D01*
X137383056Y-63955900D01*
X137190946Y-63955900D01*
X137127697Y-63965917D01*
X137001198Y-63985953D01*
X136818494Y-64045316D01*
X136647319Y-64132535D01*
X136617503Y-64154198D01*
X136491899Y-64245455D01*
X136491897Y-64245457D01*
X136491896Y-64245457D01*
X136356058Y-64381295D01*
X136356058Y-64381296D01*
X136356056Y-64381298D01*
X136307561Y-64448045D01*
X136243136Y-64536718D01*
X136155917Y-64707893D01*
X136096554Y-64890597D01*
X136066501Y-65080345D01*
X130408570Y-65080345D01*
X130356254Y-64885100D01*
X130263424Y-64660988D01*
X130142136Y-64450911D01*
X129994465Y-64258462D01*
X129994460Y-64258456D01*
X129822943Y-64086939D01*
X129822936Y-64086933D01*
X129630493Y-63939267D01*
X129630492Y-63939266D01*
X129630489Y-63939264D01*
X129420412Y-63817976D01*
X129420405Y-63817973D01*
X129196304Y-63725147D01*
X128961985Y-63662361D01*
X128721489Y-63630700D01*
X128721488Y-63630700D01*
X128478912Y-63630700D01*
X128478911Y-63630700D01*
X128238414Y-63662361D01*
X128004095Y-63725147D01*
X127779994Y-63817973D01*
X127779985Y-63817977D01*
X127569906Y-63939267D01*
X127377463Y-64086933D01*
X127377456Y-64086939D01*
X127205939Y-64258456D01*
X127205933Y-64258463D01*
X127058267Y-64450906D01*
X126936977Y-64660985D01*
X126936973Y-64660994D01*
X126844147Y-64885095D01*
X126781361Y-65119414D01*
X126749700Y-65359911D01*
X125660400Y-65359911D01*
X125660400Y-62575100D01*
X125680085Y-62508061D01*
X125732889Y-62462306D01*
X125784400Y-62451100D01*
X164606758Y-62451100D01*
X164673797Y-62470785D01*
G37*
%TD.AperFunction*%
%TD*%
%TA.AperFunction,Conductor*%
%TO.N,+5V*%
G36*
X166414093Y-71215885D02*
G01*
X166459848Y-71268689D01*
X166470993Y-71316356D01*
X166544113Y-73674453D01*
X166619953Y-76120291D01*
X166602356Y-76187908D01*
X166550996Y-76235278D01*
X166493457Y-76248108D01*
X164305017Y-76202985D01*
X164285910Y-76196944D01*
X164265903Y-76195800D01*
X164241403Y-76182872D01*
X164238397Y-76181922D01*
X164234688Y-76179329D01*
X164213478Y-76163919D01*
X164170812Y-76108589D01*
X164162378Y-76061651D01*
X164237078Y-71318247D01*
X164257816Y-71251526D01*
X164311334Y-71206609D01*
X164361063Y-71196200D01*
X166347054Y-71196200D01*
X166414093Y-71215885D01*
G37*
%TD.AperFunction*%
%TD*%
%TA.AperFunction,Conductor*%
%TO.N,+12V*%
G36*
X170851050Y-71414394D02*
G01*
X170898143Y-71466008D01*
X170910698Y-71519001D01*
X170934684Y-73653811D01*
X171246195Y-73893434D01*
X171276993Y-73928044D01*
X171830998Y-74853798D01*
X171830999Y-74853799D01*
X171831000Y-74853800D01*
X171831001Y-74853800D01*
X171831002Y-74853801D01*
X173104626Y-75226090D01*
X173454419Y-75328338D01*
X173481997Y-75336399D01*
X173482000Y-75336400D01*
X173635164Y-75328338D01*
X173703144Y-75344472D01*
X173751611Y-75394798D01*
X173765176Y-75463338D01*
X173765102Y-75464122D01*
X173764308Y-75472315D01*
X173764307Y-75472327D01*
X173786571Y-77164392D01*
X173767770Y-77231684D01*
X173715573Y-77278130D01*
X173662807Y-77290023D01*
X172925629Y-77291363D01*
X172879888Y-77282707D01*
X169260525Y-75854471D01*
X169205391Y-75811553D01*
X169182262Y-75746529D01*
X168932709Y-71572158D01*
X168948358Y-71504064D01*
X168998337Y-71455240D01*
X169053309Y-71440800D01*
X170783529Y-71396435D01*
X170851050Y-71414394D01*
G37*
%TD.AperFunction*%
%TD*%
%TA.AperFunction,Conductor*%
%TO.N,Net-(J3-Pin_2)*%
G36*
X177708796Y-68103300D02*
G01*
X179759187Y-68595061D01*
X179819787Y-68629837D01*
X179851965Y-68691856D01*
X179845504Y-68761427D01*
X179842162Y-68769078D01*
X175787470Y-77259392D01*
X175740817Y-77311404D01*
X175679022Y-77329907D01*
X174420580Y-77364902D01*
X174353019Y-77347089D01*
X174305814Y-77295577D01*
X174293144Y-77242581D01*
X174269764Y-75465676D01*
X174280839Y-75412796D01*
X177566967Y-68172629D01*
X177612597Y-68119722D01*
X177679590Y-68099881D01*
X177708796Y-68103300D01*
G37*
%TD.AperFunction*%
%TD*%
%TA.AperFunction,Conductor*%
%TO.N,Net-(U6A-+)*%
G36*
X143176309Y-81621802D02*
G01*
X143523799Y-81969292D01*
X143527226Y-81977565D01*
X143526075Y-81982625D01*
X142946086Y-83191864D01*
X142939419Y-83197841D01*
X142930477Y-83197353D01*
X142929050Y-83196541D01*
X142342846Y-82806005D01*
X142339596Y-82802755D01*
X141949060Y-82216551D01*
X141947325Y-82207766D01*
X141952310Y-82200327D01*
X141953727Y-82199520D01*
X143162976Y-81619525D01*
X143171918Y-81619038D01*
X143176309Y-81621802D01*
G37*
%TD.AperFunction*%
%TD*%
M02*
