%TF.GenerationSoftware,KiCad,Pcbnew,9.0.1*%
%TF.CreationDate,2026-02-02T10:45:02+08:00*%
%TF.ProjectId,BSPD,42535044-2e6b-4696-9361-645f70636258,rev?*%
%TF.SameCoordinates,Original*%
%TF.FileFunction,Drillmap*%
%TF.FilePolarity,Positive*%
%FSLAX45Y45*%
G04 Gerber Fmt 4.5, Leading zero omitted, Abs format (unit mm)*
G04 Created by KiCad (PCBNEW 9.0.1) date 2026-02-02 10:45:02*
%MOMM*%
%LPD*%
G01*
G04 APERTURE LIST*
%ADD10C,0.050000*%
%ADD11C,0.200000*%
%ADD12C,0.127000*%
%ADD13C,0.320000*%
G04 APERTURE END LIST*
D10*
X12515990Y-6220460D02*
X18215990Y-6220460D01*
X18215990Y-11220460D01*
X12515990Y-11220460D01*
X12515990Y-6220460D01*
D11*
D12*
X17451920Y-6981900D02*
X17578920Y-7108900D01*
X17578920Y-6981900D02*
X17451920Y-7108900D01*
X17451920Y-7881900D02*
X17578920Y-8008900D01*
X17578920Y-7881900D02*
X17451920Y-8008900D01*
X17451920Y-8219160D02*
X17578920Y-8346160D01*
X17578920Y-8219160D02*
X17451920Y-8346160D01*
X17451920Y-9119160D02*
X17578920Y-9246160D01*
X17578920Y-9119160D02*
X17451920Y-9246160D01*
X17453600Y-9450920D02*
X17580600Y-9577920D01*
X17580600Y-9450920D02*
X17453600Y-9577920D01*
X17453600Y-10350920D02*
X17580600Y-10477920D01*
X17580600Y-10350920D02*
X17453600Y-10477920D01*
D13*
X13022560Y-6565900D02*
G75*
G02*
X12702560Y-6565900I-160000J0D01*
G01*
X12702560Y-6565900D02*
G75*
G02*
X13022560Y-6565900I160000J0D01*
G01*
X13022560Y-10873740D02*
G75*
G02*
X12702560Y-10873740I-160000J0D01*
G01*
X12702560Y-10873740D02*
G75*
G02*
X13022560Y-10873740I160000J0D01*
G01*
X18028900Y-10876280D02*
G75*
G02*
X17708900Y-10876280I-160000J0D01*
G01*
X17708900Y-10876280D02*
G75*
G02*
X18028900Y-10876280I160000J0D01*
G01*
X18031440Y-6568440D02*
G75*
G02*
X17711440Y-6568440I-160000J0D01*
G01*
X17711440Y-6568440D02*
G75*
G02*
X18031440Y-6568440I160000J0D01*
G01*
D11*
X12774267Y-11534444D02*
X12774267Y-11334444D01*
X12774267Y-11334444D02*
X12821886Y-11334444D01*
X12821886Y-11334444D02*
X12850457Y-11343968D01*
X12850457Y-11343968D02*
X12869505Y-11363015D01*
X12869505Y-11363015D02*
X12879029Y-11382063D01*
X12879029Y-11382063D02*
X12888552Y-11420158D01*
X12888552Y-11420158D02*
X12888552Y-11448729D01*
X12888552Y-11448729D02*
X12879029Y-11486825D01*
X12879029Y-11486825D02*
X12869505Y-11505872D01*
X12869505Y-11505872D02*
X12850457Y-11524920D01*
X12850457Y-11524920D02*
X12821886Y-11534444D01*
X12821886Y-11534444D02*
X12774267Y-11534444D01*
X12974267Y-11534444D02*
X12974267Y-11401110D01*
X12974267Y-11439206D02*
X12983791Y-11420158D01*
X12983791Y-11420158D02*
X12993314Y-11410634D01*
X12993314Y-11410634D02*
X13012362Y-11401110D01*
X13012362Y-11401110D02*
X13031410Y-11401110D01*
X13098076Y-11534444D02*
X13098076Y-11401110D01*
X13098076Y-11334444D02*
X13088552Y-11343968D01*
X13088552Y-11343968D02*
X13098076Y-11353491D01*
X13098076Y-11353491D02*
X13107600Y-11343968D01*
X13107600Y-11343968D02*
X13098076Y-11334444D01*
X13098076Y-11334444D02*
X13098076Y-11353491D01*
X13221886Y-11534444D02*
X13202838Y-11524920D01*
X13202838Y-11524920D02*
X13193314Y-11505872D01*
X13193314Y-11505872D02*
X13193314Y-11334444D01*
X13326648Y-11534444D02*
X13307600Y-11524920D01*
X13307600Y-11524920D02*
X13298076Y-11505872D01*
X13298076Y-11505872D02*
X13298076Y-11334444D01*
X13555219Y-11534444D02*
X13555219Y-11334444D01*
X13555219Y-11334444D02*
X13621886Y-11477301D01*
X13621886Y-11477301D02*
X13688552Y-11334444D01*
X13688552Y-11334444D02*
X13688552Y-11534444D01*
X13869505Y-11534444D02*
X13869505Y-11429682D01*
X13869505Y-11429682D02*
X13859981Y-11410634D01*
X13859981Y-11410634D02*
X13840933Y-11401110D01*
X13840933Y-11401110D02*
X13802838Y-11401110D01*
X13802838Y-11401110D02*
X13783791Y-11410634D01*
X13869505Y-11524920D02*
X13850457Y-11534444D01*
X13850457Y-11534444D02*
X13802838Y-11534444D01*
X13802838Y-11534444D02*
X13783791Y-11524920D01*
X13783791Y-11524920D02*
X13774267Y-11505872D01*
X13774267Y-11505872D02*
X13774267Y-11486825D01*
X13774267Y-11486825D02*
X13783791Y-11467777D01*
X13783791Y-11467777D02*
X13802838Y-11458253D01*
X13802838Y-11458253D02*
X13850457Y-11458253D01*
X13850457Y-11458253D02*
X13869505Y-11448729D01*
X13964743Y-11401110D02*
X13964743Y-11601110D01*
X13964743Y-11410634D02*
X13983791Y-11401110D01*
X13983791Y-11401110D02*
X14021886Y-11401110D01*
X14021886Y-11401110D02*
X14040933Y-11410634D01*
X14040933Y-11410634D02*
X14050457Y-11420158D01*
X14050457Y-11420158D02*
X14059981Y-11439206D01*
X14059981Y-11439206D02*
X14059981Y-11496348D01*
X14059981Y-11496348D02*
X14050457Y-11515396D01*
X14050457Y-11515396D02*
X14040933Y-11524920D01*
X14040933Y-11524920D02*
X14021886Y-11534444D01*
X14021886Y-11534444D02*
X13983791Y-11534444D01*
X13983791Y-11534444D02*
X13964743Y-11524920D01*
X14145695Y-11515396D02*
X14155219Y-11524920D01*
X14155219Y-11524920D02*
X14145695Y-11534444D01*
X14145695Y-11534444D02*
X14136172Y-11524920D01*
X14136172Y-11524920D02*
X14145695Y-11515396D01*
X14145695Y-11515396D02*
X14145695Y-11534444D01*
X14145695Y-11410634D02*
X14155219Y-11420158D01*
X14155219Y-11420158D02*
X14145695Y-11429682D01*
X14145695Y-11429682D02*
X14136172Y-11420158D01*
X14136172Y-11420158D02*
X14145695Y-11410634D01*
X14145695Y-11410634D02*
X14145695Y-11429682D01*
D12*
X12386490Y-11799460D02*
X12513490Y-11926460D01*
X12513490Y-11799460D02*
X12386490Y-11926460D01*
D11*
X12879029Y-11954444D02*
X12764743Y-11954444D01*
X12821886Y-11954444D02*
X12821886Y-11754444D01*
X12821886Y-11754444D02*
X12802838Y-11783015D01*
X12802838Y-11783015D02*
X12783791Y-11802063D01*
X12783791Y-11802063D02*
X12764743Y-11811587D01*
X12964743Y-11935396D02*
X12974267Y-11944920D01*
X12974267Y-11944920D02*
X12964743Y-11954444D01*
X12964743Y-11954444D02*
X12955219Y-11944920D01*
X12955219Y-11944920D02*
X12964743Y-11935396D01*
X12964743Y-11935396D02*
X12964743Y-11954444D01*
X13050457Y-11773491D02*
X13059981Y-11763968D01*
X13059981Y-11763968D02*
X13079029Y-11754444D01*
X13079029Y-11754444D02*
X13126648Y-11754444D01*
X13126648Y-11754444D02*
X13145695Y-11763968D01*
X13145695Y-11763968D02*
X13155219Y-11773491D01*
X13155219Y-11773491D02*
X13164743Y-11792539D01*
X13164743Y-11792539D02*
X13164743Y-11811587D01*
X13164743Y-11811587D02*
X13155219Y-11840158D01*
X13155219Y-11840158D02*
X13040933Y-11954444D01*
X13040933Y-11954444D02*
X13164743Y-11954444D01*
X13231410Y-11754444D02*
X13364743Y-11754444D01*
X13364743Y-11754444D02*
X13279029Y-11954444D01*
X13479029Y-11754444D02*
X13498076Y-11754444D01*
X13498076Y-11754444D02*
X13517124Y-11763968D01*
X13517124Y-11763968D02*
X13526648Y-11773491D01*
X13526648Y-11773491D02*
X13536172Y-11792539D01*
X13536172Y-11792539D02*
X13545695Y-11830634D01*
X13545695Y-11830634D02*
X13545695Y-11878253D01*
X13545695Y-11878253D02*
X13536172Y-11916348D01*
X13536172Y-11916348D02*
X13526648Y-11935396D01*
X13526648Y-11935396D02*
X13517124Y-11944920D01*
X13517124Y-11944920D02*
X13498076Y-11954444D01*
X13498076Y-11954444D02*
X13479029Y-11954444D01*
X13479029Y-11954444D02*
X13459981Y-11944920D01*
X13459981Y-11944920D02*
X13450457Y-11935396D01*
X13450457Y-11935396D02*
X13440933Y-11916348D01*
X13440933Y-11916348D02*
X13431410Y-11878253D01*
X13431410Y-11878253D02*
X13431410Y-11830634D01*
X13431410Y-11830634D02*
X13440933Y-11792539D01*
X13440933Y-11792539D02*
X13450457Y-11773491D01*
X13450457Y-11773491D02*
X13459981Y-11763968D01*
X13459981Y-11763968D02*
X13479029Y-11754444D01*
X13631410Y-11954444D02*
X13631410Y-11821110D01*
X13631410Y-11840158D02*
X13640933Y-11830634D01*
X13640933Y-11830634D02*
X13659981Y-11821110D01*
X13659981Y-11821110D02*
X13688553Y-11821110D01*
X13688553Y-11821110D02*
X13707600Y-11830634D01*
X13707600Y-11830634D02*
X13717124Y-11849682D01*
X13717124Y-11849682D02*
X13717124Y-11954444D01*
X13717124Y-11849682D02*
X13726648Y-11830634D01*
X13726648Y-11830634D02*
X13745695Y-11821110D01*
X13745695Y-11821110D02*
X13774267Y-11821110D01*
X13774267Y-11821110D02*
X13793314Y-11830634D01*
X13793314Y-11830634D02*
X13802838Y-11849682D01*
X13802838Y-11849682D02*
X13802838Y-11954444D01*
X13898076Y-11954444D02*
X13898076Y-11821110D01*
X13898076Y-11840158D02*
X13907600Y-11830634D01*
X13907600Y-11830634D02*
X13926648Y-11821110D01*
X13926648Y-11821110D02*
X13955219Y-11821110D01*
X13955219Y-11821110D02*
X13974267Y-11830634D01*
X13974267Y-11830634D02*
X13983791Y-11849682D01*
X13983791Y-11849682D02*
X13983791Y-11954444D01*
X13983791Y-11849682D02*
X13993314Y-11830634D01*
X13993314Y-11830634D02*
X14012362Y-11821110D01*
X14012362Y-11821110D02*
X14040933Y-11821110D01*
X14040933Y-11821110D02*
X14059981Y-11830634D01*
X14059981Y-11830634D02*
X14069505Y-11849682D01*
X14069505Y-11849682D02*
X14069505Y-11954444D01*
X14459981Y-11744920D02*
X14288553Y-12002063D01*
X14717124Y-11754444D02*
X14736172Y-11754444D01*
X14736172Y-11754444D02*
X14755219Y-11763968D01*
X14755219Y-11763968D02*
X14764743Y-11773491D01*
X14764743Y-11773491D02*
X14774267Y-11792539D01*
X14774267Y-11792539D02*
X14783791Y-11830634D01*
X14783791Y-11830634D02*
X14783791Y-11878253D01*
X14783791Y-11878253D02*
X14774267Y-11916348D01*
X14774267Y-11916348D02*
X14764743Y-11935396D01*
X14764743Y-11935396D02*
X14755219Y-11944920D01*
X14755219Y-11944920D02*
X14736172Y-11954444D01*
X14736172Y-11954444D02*
X14717124Y-11954444D01*
X14717124Y-11954444D02*
X14698076Y-11944920D01*
X14698076Y-11944920D02*
X14688553Y-11935396D01*
X14688553Y-11935396D02*
X14679029Y-11916348D01*
X14679029Y-11916348D02*
X14669505Y-11878253D01*
X14669505Y-11878253D02*
X14669505Y-11830634D01*
X14669505Y-11830634D02*
X14679029Y-11792539D01*
X14679029Y-11792539D02*
X14688553Y-11773491D01*
X14688553Y-11773491D02*
X14698076Y-11763968D01*
X14698076Y-11763968D02*
X14717124Y-11754444D01*
X14869505Y-11935396D02*
X14879029Y-11944920D01*
X14879029Y-11944920D02*
X14869505Y-11954444D01*
X14869505Y-11954444D02*
X14859981Y-11944920D01*
X14859981Y-11944920D02*
X14869505Y-11935396D01*
X14869505Y-11935396D02*
X14869505Y-11954444D01*
X15002838Y-11754444D02*
X15021886Y-11754444D01*
X15021886Y-11754444D02*
X15040934Y-11763968D01*
X15040934Y-11763968D02*
X15050457Y-11773491D01*
X15050457Y-11773491D02*
X15059981Y-11792539D01*
X15059981Y-11792539D02*
X15069505Y-11830634D01*
X15069505Y-11830634D02*
X15069505Y-11878253D01*
X15069505Y-11878253D02*
X15059981Y-11916348D01*
X15059981Y-11916348D02*
X15050457Y-11935396D01*
X15050457Y-11935396D02*
X15040934Y-11944920D01*
X15040934Y-11944920D02*
X15021886Y-11954444D01*
X15021886Y-11954444D02*
X15002838Y-11954444D01*
X15002838Y-11954444D02*
X14983791Y-11944920D01*
X14983791Y-11944920D02*
X14974267Y-11935396D01*
X14974267Y-11935396D02*
X14964743Y-11916348D01*
X14964743Y-11916348D02*
X14955219Y-11878253D01*
X14955219Y-11878253D02*
X14955219Y-11830634D01*
X14955219Y-11830634D02*
X14964743Y-11792539D01*
X14964743Y-11792539D02*
X14974267Y-11773491D01*
X14974267Y-11773491D02*
X14983791Y-11763968D01*
X14983791Y-11763968D02*
X15002838Y-11754444D01*
X15250457Y-11754444D02*
X15155219Y-11754444D01*
X15155219Y-11754444D02*
X15145696Y-11849682D01*
X15145696Y-11849682D02*
X15155219Y-11840158D01*
X15155219Y-11840158D02*
X15174267Y-11830634D01*
X15174267Y-11830634D02*
X15221886Y-11830634D01*
X15221886Y-11830634D02*
X15240934Y-11840158D01*
X15240934Y-11840158D02*
X15250457Y-11849682D01*
X15250457Y-11849682D02*
X15259981Y-11868729D01*
X15259981Y-11868729D02*
X15259981Y-11916348D01*
X15259981Y-11916348D02*
X15250457Y-11935396D01*
X15250457Y-11935396D02*
X15240934Y-11944920D01*
X15240934Y-11944920D02*
X15221886Y-11954444D01*
X15221886Y-11954444D02*
X15174267Y-11954444D01*
X15174267Y-11954444D02*
X15155219Y-11944920D01*
X15155219Y-11944920D02*
X15145696Y-11935396D01*
X15383791Y-11754444D02*
X15402838Y-11754444D01*
X15402838Y-11754444D02*
X15421886Y-11763968D01*
X15421886Y-11763968D02*
X15431410Y-11773491D01*
X15431410Y-11773491D02*
X15440934Y-11792539D01*
X15440934Y-11792539D02*
X15450457Y-11830634D01*
X15450457Y-11830634D02*
X15450457Y-11878253D01*
X15450457Y-11878253D02*
X15440934Y-11916348D01*
X15440934Y-11916348D02*
X15431410Y-11935396D01*
X15431410Y-11935396D02*
X15421886Y-11944920D01*
X15421886Y-11944920D02*
X15402838Y-11954444D01*
X15402838Y-11954444D02*
X15383791Y-11954444D01*
X15383791Y-11954444D02*
X15364743Y-11944920D01*
X15364743Y-11944920D02*
X15355219Y-11935396D01*
X15355219Y-11935396D02*
X15345696Y-11916348D01*
X15345696Y-11916348D02*
X15336172Y-11878253D01*
X15336172Y-11878253D02*
X15336172Y-11830634D01*
X15336172Y-11830634D02*
X15345696Y-11792539D01*
X15345696Y-11792539D02*
X15355219Y-11773491D01*
X15355219Y-11773491D02*
X15364743Y-11763968D01*
X15364743Y-11763968D02*
X15383791Y-11754444D01*
X15574267Y-11754444D02*
X15593315Y-11754444D01*
X15593315Y-11754444D02*
X15612362Y-11763968D01*
X15612362Y-11763968D02*
X15621886Y-11773491D01*
X15621886Y-11773491D02*
X15631410Y-11792539D01*
X15631410Y-11792539D02*
X15640934Y-11830634D01*
X15640934Y-11830634D02*
X15640934Y-11878253D01*
X15640934Y-11878253D02*
X15631410Y-11916348D01*
X15631410Y-11916348D02*
X15621886Y-11935396D01*
X15621886Y-11935396D02*
X15612362Y-11944920D01*
X15612362Y-11944920D02*
X15593315Y-11954444D01*
X15593315Y-11954444D02*
X15574267Y-11954444D01*
X15574267Y-11954444D02*
X15555219Y-11944920D01*
X15555219Y-11944920D02*
X15545696Y-11935396D01*
X15545696Y-11935396D02*
X15536172Y-11916348D01*
X15536172Y-11916348D02*
X15526648Y-11878253D01*
X15526648Y-11878253D02*
X15526648Y-11830634D01*
X15526648Y-11830634D02*
X15536172Y-11792539D01*
X15536172Y-11792539D02*
X15545696Y-11773491D01*
X15545696Y-11773491D02*
X15555219Y-11763968D01*
X15555219Y-11763968D02*
X15574267Y-11754444D01*
X15717124Y-11754444D02*
X15717124Y-11792539D01*
X15793315Y-11754444D02*
X15793315Y-11792539D01*
X16088553Y-12030634D02*
X16079029Y-12021110D01*
X16079029Y-12021110D02*
X16059981Y-11992539D01*
X16059981Y-11992539D02*
X16050458Y-11973491D01*
X16050458Y-11973491D02*
X16040934Y-11944920D01*
X16040934Y-11944920D02*
X16031410Y-11897301D01*
X16031410Y-11897301D02*
X16031410Y-11859206D01*
X16031410Y-11859206D02*
X16040934Y-11811587D01*
X16040934Y-11811587D02*
X16050458Y-11783015D01*
X16050458Y-11783015D02*
X16059981Y-11763968D01*
X16059981Y-11763968D02*
X16079029Y-11735396D01*
X16079029Y-11735396D02*
X16088553Y-11725872D01*
X16250458Y-11754444D02*
X16212362Y-11754444D01*
X16212362Y-11754444D02*
X16193315Y-11763968D01*
X16193315Y-11763968D02*
X16183791Y-11773491D01*
X16183791Y-11773491D02*
X16164743Y-11802063D01*
X16164743Y-11802063D02*
X16155219Y-11840158D01*
X16155219Y-11840158D02*
X16155219Y-11916348D01*
X16155219Y-11916348D02*
X16164743Y-11935396D01*
X16164743Y-11935396D02*
X16174267Y-11944920D01*
X16174267Y-11944920D02*
X16193315Y-11954444D01*
X16193315Y-11954444D02*
X16231410Y-11954444D01*
X16231410Y-11954444D02*
X16250458Y-11944920D01*
X16250458Y-11944920D02*
X16259981Y-11935396D01*
X16259981Y-11935396D02*
X16269505Y-11916348D01*
X16269505Y-11916348D02*
X16269505Y-11868729D01*
X16269505Y-11868729D02*
X16259981Y-11849682D01*
X16259981Y-11849682D02*
X16250458Y-11840158D01*
X16250458Y-11840158D02*
X16231410Y-11830634D01*
X16231410Y-11830634D02*
X16193315Y-11830634D01*
X16193315Y-11830634D02*
X16174267Y-11840158D01*
X16174267Y-11840158D02*
X16164743Y-11849682D01*
X16164743Y-11849682D02*
X16155219Y-11868729D01*
X16507600Y-11954444D02*
X16507600Y-11754444D01*
X16593315Y-11954444D02*
X16593315Y-11849682D01*
X16593315Y-11849682D02*
X16583791Y-11830634D01*
X16583791Y-11830634D02*
X16564743Y-11821110D01*
X16564743Y-11821110D02*
X16536172Y-11821110D01*
X16536172Y-11821110D02*
X16517124Y-11830634D01*
X16517124Y-11830634D02*
X16507600Y-11840158D01*
X16717124Y-11954444D02*
X16698077Y-11944920D01*
X16698077Y-11944920D02*
X16688553Y-11935396D01*
X16688553Y-11935396D02*
X16679029Y-11916348D01*
X16679029Y-11916348D02*
X16679029Y-11859206D01*
X16679029Y-11859206D02*
X16688553Y-11840158D01*
X16688553Y-11840158D02*
X16698077Y-11830634D01*
X16698077Y-11830634D02*
X16717124Y-11821110D01*
X16717124Y-11821110D02*
X16745696Y-11821110D01*
X16745696Y-11821110D02*
X16764743Y-11830634D01*
X16764743Y-11830634D02*
X16774267Y-11840158D01*
X16774267Y-11840158D02*
X16783791Y-11859206D01*
X16783791Y-11859206D02*
X16783791Y-11916348D01*
X16783791Y-11916348D02*
X16774267Y-11935396D01*
X16774267Y-11935396D02*
X16764743Y-11944920D01*
X16764743Y-11944920D02*
X16745696Y-11954444D01*
X16745696Y-11954444D02*
X16717124Y-11954444D01*
X16898077Y-11954444D02*
X16879029Y-11944920D01*
X16879029Y-11944920D02*
X16869505Y-11925872D01*
X16869505Y-11925872D02*
X16869505Y-11754444D01*
X17050458Y-11944920D02*
X17031410Y-11954444D01*
X17031410Y-11954444D02*
X16993315Y-11954444D01*
X16993315Y-11954444D02*
X16974267Y-11944920D01*
X16974267Y-11944920D02*
X16964743Y-11925872D01*
X16964743Y-11925872D02*
X16964743Y-11849682D01*
X16964743Y-11849682D02*
X16974267Y-11830634D01*
X16974267Y-11830634D02*
X16993315Y-11821110D01*
X16993315Y-11821110D02*
X17031410Y-11821110D01*
X17031410Y-11821110D02*
X17050458Y-11830634D01*
X17050458Y-11830634D02*
X17059982Y-11849682D01*
X17059982Y-11849682D02*
X17059982Y-11868729D01*
X17059982Y-11868729D02*
X16964743Y-11887777D01*
X17136172Y-11944920D02*
X17155220Y-11954444D01*
X17155220Y-11954444D02*
X17193315Y-11954444D01*
X17193315Y-11954444D02*
X17212363Y-11944920D01*
X17212363Y-11944920D02*
X17221886Y-11925872D01*
X17221886Y-11925872D02*
X17221886Y-11916348D01*
X17221886Y-11916348D02*
X17212363Y-11897301D01*
X17212363Y-11897301D02*
X17193315Y-11887777D01*
X17193315Y-11887777D02*
X17164743Y-11887777D01*
X17164743Y-11887777D02*
X17145696Y-11878253D01*
X17145696Y-11878253D02*
X17136172Y-11859206D01*
X17136172Y-11859206D02*
X17136172Y-11849682D01*
X17136172Y-11849682D02*
X17145696Y-11830634D01*
X17145696Y-11830634D02*
X17164743Y-11821110D01*
X17164743Y-11821110D02*
X17193315Y-11821110D01*
X17193315Y-11821110D02*
X17212363Y-11830634D01*
X17288553Y-12030634D02*
X17298077Y-12021110D01*
X17298077Y-12021110D02*
X17317124Y-11992539D01*
X17317124Y-11992539D02*
X17326648Y-11973491D01*
X17326648Y-11973491D02*
X17336172Y-11944920D01*
X17336172Y-11944920D02*
X17345696Y-11897301D01*
X17345696Y-11897301D02*
X17345696Y-11859206D01*
X17345696Y-11859206D02*
X17336172Y-11811587D01*
X17336172Y-11811587D02*
X17326648Y-11783015D01*
X17326648Y-11783015D02*
X17317124Y-11763968D01*
X17317124Y-11763968D02*
X17298077Y-11735396D01*
X17298077Y-11735396D02*
X17288553Y-11725872D01*
X17650458Y-12030634D02*
X17640934Y-12021110D01*
X17640934Y-12021110D02*
X17621886Y-11992539D01*
X17621886Y-11992539D02*
X17612363Y-11973491D01*
X17612363Y-11973491D02*
X17602839Y-11944920D01*
X17602839Y-11944920D02*
X17593315Y-11897301D01*
X17593315Y-11897301D02*
X17593315Y-11859206D01*
X17593315Y-11859206D02*
X17602839Y-11811587D01*
X17602839Y-11811587D02*
X17612363Y-11783015D01*
X17612363Y-11783015D02*
X17621886Y-11763968D01*
X17621886Y-11763968D02*
X17640934Y-11735396D01*
X17640934Y-11735396D02*
X17650458Y-11725872D01*
X17726648Y-11821110D02*
X17726648Y-11954444D01*
X17726648Y-11840158D02*
X17736172Y-11830634D01*
X17736172Y-11830634D02*
X17755220Y-11821110D01*
X17755220Y-11821110D02*
X17783791Y-11821110D01*
X17783791Y-11821110D02*
X17802839Y-11830634D01*
X17802839Y-11830634D02*
X17812363Y-11849682D01*
X17812363Y-11849682D02*
X17812363Y-11954444D01*
X17936172Y-11954444D02*
X17917124Y-11944920D01*
X17917124Y-11944920D02*
X17907601Y-11935396D01*
X17907601Y-11935396D02*
X17898077Y-11916348D01*
X17898077Y-11916348D02*
X17898077Y-11859206D01*
X17898077Y-11859206D02*
X17907601Y-11840158D01*
X17907601Y-11840158D02*
X17917124Y-11830634D01*
X17917124Y-11830634D02*
X17936172Y-11821110D01*
X17936172Y-11821110D02*
X17964744Y-11821110D01*
X17964744Y-11821110D02*
X17983791Y-11830634D01*
X17983791Y-11830634D02*
X17993315Y-11840158D01*
X17993315Y-11840158D02*
X18002839Y-11859206D01*
X18002839Y-11859206D02*
X18002839Y-11916348D01*
X18002839Y-11916348D02*
X17993315Y-11935396D01*
X17993315Y-11935396D02*
X17983791Y-11944920D01*
X17983791Y-11944920D02*
X17964744Y-11954444D01*
X17964744Y-11954444D02*
X17936172Y-11954444D01*
X18059982Y-11821110D02*
X18136172Y-11821110D01*
X18088553Y-11754444D02*
X18088553Y-11925872D01*
X18088553Y-11925872D02*
X18098077Y-11944920D01*
X18098077Y-11944920D02*
X18117124Y-11954444D01*
X18117124Y-11954444D02*
X18136172Y-11954444D01*
X18355220Y-11821110D02*
X18355220Y-12021110D01*
X18355220Y-11830634D02*
X18374267Y-11821110D01*
X18374267Y-11821110D02*
X18412363Y-11821110D01*
X18412363Y-11821110D02*
X18431410Y-11830634D01*
X18431410Y-11830634D02*
X18440934Y-11840158D01*
X18440934Y-11840158D02*
X18450458Y-11859206D01*
X18450458Y-11859206D02*
X18450458Y-11916348D01*
X18450458Y-11916348D02*
X18440934Y-11935396D01*
X18440934Y-11935396D02*
X18431410Y-11944920D01*
X18431410Y-11944920D02*
X18412363Y-11954444D01*
X18412363Y-11954444D02*
X18374267Y-11954444D01*
X18374267Y-11954444D02*
X18355220Y-11944920D01*
X18564744Y-11954444D02*
X18545696Y-11944920D01*
X18545696Y-11944920D02*
X18536172Y-11925872D01*
X18536172Y-11925872D02*
X18536172Y-11754444D01*
X18726648Y-11954444D02*
X18726648Y-11849682D01*
X18726648Y-11849682D02*
X18717125Y-11830634D01*
X18717125Y-11830634D02*
X18698077Y-11821110D01*
X18698077Y-11821110D02*
X18659982Y-11821110D01*
X18659982Y-11821110D02*
X18640934Y-11830634D01*
X18726648Y-11944920D02*
X18707601Y-11954444D01*
X18707601Y-11954444D02*
X18659982Y-11954444D01*
X18659982Y-11954444D02*
X18640934Y-11944920D01*
X18640934Y-11944920D02*
X18631410Y-11925872D01*
X18631410Y-11925872D02*
X18631410Y-11906825D01*
X18631410Y-11906825D02*
X18640934Y-11887777D01*
X18640934Y-11887777D02*
X18659982Y-11878253D01*
X18659982Y-11878253D02*
X18707601Y-11878253D01*
X18707601Y-11878253D02*
X18726648Y-11868729D01*
X18793315Y-11821110D02*
X18869505Y-11821110D01*
X18821886Y-11754444D02*
X18821886Y-11925872D01*
X18821886Y-11925872D02*
X18831410Y-11944920D01*
X18831410Y-11944920D02*
X18850458Y-11954444D01*
X18850458Y-11954444D02*
X18869505Y-11954444D01*
X19012363Y-11944920D02*
X18993315Y-11954444D01*
X18993315Y-11954444D02*
X18955220Y-11954444D01*
X18955220Y-11954444D02*
X18936172Y-11944920D01*
X18936172Y-11944920D02*
X18926648Y-11925872D01*
X18926648Y-11925872D02*
X18926648Y-11849682D01*
X18926648Y-11849682D02*
X18936172Y-11830634D01*
X18936172Y-11830634D02*
X18955220Y-11821110D01*
X18955220Y-11821110D02*
X18993315Y-11821110D01*
X18993315Y-11821110D02*
X19012363Y-11830634D01*
X19012363Y-11830634D02*
X19021886Y-11849682D01*
X19021886Y-11849682D02*
X19021886Y-11868729D01*
X19021886Y-11868729D02*
X18926648Y-11887777D01*
X19193315Y-11954444D02*
X19193315Y-11754444D01*
X19193315Y-11944920D02*
X19174267Y-11954444D01*
X19174267Y-11954444D02*
X19136172Y-11954444D01*
X19136172Y-11954444D02*
X19117125Y-11944920D01*
X19117125Y-11944920D02*
X19107601Y-11935396D01*
X19107601Y-11935396D02*
X19098077Y-11916348D01*
X19098077Y-11916348D02*
X19098077Y-11859206D01*
X19098077Y-11859206D02*
X19107601Y-11840158D01*
X19107601Y-11840158D02*
X19117125Y-11830634D01*
X19117125Y-11830634D02*
X19136172Y-11821110D01*
X19136172Y-11821110D02*
X19174267Y-11821110D01*
X19174267Y-11821110D02*
X19193315Y-11830634D01*
X19269506Y-12030634D02*
X19279029Y-12021110D01*
X19279029Y-12021110D02*
X19298077Y-11992539D01*
X19298077Y-11992539D02*
X19307601Y-11973491D01*
X19307601Y-11973491D02*
X19317125Y-11944920D01*
X19317125Y-11944920D02*
X19326648Y-11897301D01*
X19326648Y-11897301D02*
X19326648Y-11859206D01*
X19326648Y-11859206D02*
X19317125Y-11811587D01*
X19317125Y-11811587D02*
X19307601Y-11783015D01*
X19307601Y-11783015D02*
X19298077Y-11763968D01*
X19298077Y-11763968D02*
X19279029Y-11735396D01*
X19279029Y-11735396D02*
X19269506Y-11725872D01*
X12513490Y-12126960D02*
G75*
G02*
X12313490Y-12126960I-100000J0D01*
G01*
X12313490Y-12126960D02*
G75*
G02*
X12513490Y-12126960I100000J0D01*
G01*
X12755219Y-12018444D02*
X12879029Y-12018444D01*
X12879029Y-12018444D02*
X12812362Y-12094634D01*
X12812362Y-12094634D02*
X12840933Y-12094634D01*
X12840933Y-12094634D02*
X12859981Y-12104158D01*
X12859981Y-12104158D02*
X12869505Y-12113682D01*
X12869505Y-12113682D02*
X12879029Y-12132729D01*
X12879029Y-12132729D02*
X12879029Y-12180348D01*
X12879029Y-12180348D02*
X12869505Y-12199396D01*
X12869505Y-12199396D02*
X12859981Y-12208920D01*
X12859981Y-12208920D02*
X12840933Y-12218444D01*
X12840933Y-12218444D02*
X12783791Y-12218444D01*
X12783791Y-12218444D02*
X12764743Y-12208920D01*
X12764743Y-12208920D02*
X12755219Y-12199396D01*
X12964743Y-12199396D02*
X12974267Y-12208920D01*
X12974267Y-12208920D02*
X12964743Y-12218444D01*
X12964743Y-12218444D02*
X12955219Y-12208920D01*
X12955219Y-12208920D02*
X12964743Y-12199396D01*
X12964743Y-12199396D02*
X12964743Y-12218444D01*
X13050457Y-12037491D02*
X13059981Y-12027968D01*
X13059981Y-12027968D02*
X13079029Y-12018444D01*
X13079029Y-12018444D02*
X13126648Y-12018444D01*
X13126648Y-12018444D02*
X13145695Y-12027968D01*
X13145695Y-12027968D02*
X13155219Y-12037491D01*
X13155219Y-12037491D02*
X13164743Y-12056539D01*
X13164743Y-12056539D02*
X13164743Y-12075587D01*
X13164743Y-12075587D02*
X13155219Y-12104158D01*
X13155219Y-12104158D02*
X13040933Y-12218444D01*
X13040933Y-12218444D02*
X13164743Y-12218444D01*
X13288552Y-12018444D02*
X13307600Y-12018444D01*
X13307600Y-12018444D02*
X13326648Y-12027968D01*
X13326648Y-12027968D02*
X13336172Y-12037491D01*
X13336172Y-12037491D02*
X13345695Y-12056539D01*
X13345695Y-12056539D02*
X13355219Y-12094634D01*
X13355219Y-12094634D02*
X13355219Y-12142253D01*
X13355219Y-12142253D02*
X13345695Y-12180348D01*
X13345695Y-12180348D02*
X13336172Y-12199396D01*
X13336172Y-12199396D02*
X13326648Y-12208920D01*
X13326648Y-12208920D02*
X13307600Y-12218444D01*
X13307600Y-12218444D02*
X13288552Y-12218444D01*
X13288552Y-12218444D02*
X13269505Y-12208920D01*
X13269505Y-12208920D02*
X13259981Y-12199396D01*
X13259981Y-12199396D02*
X13250457Y-12180348D01*
X13250457Y-12180348D02*
X13240933Y-12142253D01*
X13240933Y-12142253D02*
X13240933Y-12094634D01*
X13240933Y-12094634D02*
X13250457Y-12056539D01*
X13250457Y-12056539D02*
X13259981Y-12037491D01*
X13259981Y-12037491D02*
X13269505Y-12027968D01*
X13269505Y-12027968D02*
X13288552Y-12018444D01*
X13479029Y-12018444D02*
X13498076Y-12018444D01*
X13498076Y-12018444D02*
X13517124Y-12027968D01*
X13517124Y-12027968D02*
X13526648Y-12037491D01*
X13526648Y-12037491D02*
X13536172Y-12056539D01*
X13536172Y-12056539D02*
X13545695Y-12094634D01*
X13545695Y-12094634D02*
X13545695Y-12142253D01*
X13545695Y-12142253D02*
X13536172Y-12180348D01*
X13536172Y-12180348D02*
X13526648Y-12199396D01*
X13526648Y-12199396D02*
X13517124Y-12208920D01*
X13517124Y-12208920D02*
X13498076Y-12218444D01*
X13498076Y-12218444D02*
X13479029Y-12218444D01*
X13479029Y-12218444D02*
X13459981Y-12208920D01*
X13459981Y-12208920D02*
X13450457Y-12199396D01*
X13450457Y-12199396D02*
X13440933Y-12180348D01*
X13440933Y-12180348D02*
X13431410Y-12142253D01*
X13431410Y-12142253D02*
X13431410Y-12094634D01*
X13431410Y-12094634D02*
X13440933Y-12056539D01*
X13440933Y-12056539D02*
X13450457Y-12037491D01*
X13450457Y-12037491D02*
X13459981Y-12027968D01*
X13459981Y-12027968D02*
X13479029Y-12018444D01*
X13631410Y-12218444D02*
X13631410Y-12085110D01*
X13631410Y-12104158D02*
X13640933Y-12094634D01*
X13640933Y-12094634D02*
X13659981Y-12085110D01*
X13659981Y-12085110D02*
X13688553Y-12085110D01*
X13688553Y-12085110D02*
X13707600Y-12094634D01*
X13707600Y-12094634D02*
X13717124Y-12113682D01*
X13717124Y-12113682D02*
X13717124Y-12218444D01*
X13717124Y-12113682D02*
X13726648Y-12094634D01*
X13726648Y-12094634D02*
X13745695Y-12085110D01*
X13745695Y-12085110D02*
X13774267Y-12085110D01*
X13774267Y-12085110D02*
X13793314Y-12094634D01*
X13793314Y-12094634D02*
X13802838Y-12113682D01*
X13802838Y-12113682D02*
X13802838Y-12218444D01*
X13898076Y-12218444D02*
X13898076Y-12085110D01*
X13898076Y-12104158D02*
X13907600Y-12094634D01*
X13907600Y-12094634D02*
X13926648Y-12085110D01*
X13926648Y-12085110D02*
X13955219Y-12085110D01*
X13955219Y-12085110D02*
X13974267Y-12094634D01*
X13974267Y-12094634D02*
X13983791Y-12113682D01*
X13983791Y-12113682D02*
X13983791Y-12218444D01*
X13983791Y-12113682D02*
X13993314Y-12094634D01*
X13993314Y-12094634D02*
X14012362Y-12085110D01*
X14012362Y-12085110D02*
X14040933Y-12085110D01*
X14040933Y-12085110D02*
X14059981Y-12094634D01*
X14059981Y-12094634D02*
X14069505Y-12113682D01*
X14069505Y-12113682D02*
X14069505Y-12218444D01*
X14459981Y-12008920D02*
X14288553Y-12266063D01*
X14717124Y-12018444D02*
X14736172Y-12018444D01*
X14736172Y-12018444D02*
X14755219Y-12027968D01*
X14755219Y-12027968D02*
X14764743Y-12037491D01*
X14764743Y-12037491D02*
X14774267Y-12056539D01*
X14774267Y-12056539D02*
X14783791Y-12094634D01*
X14783791Y-12094634D02*
X14783791Y-12142253D01*
X14783791Y-12142253D02*
X14774267Y-12180348D01*
X14774267Y-12180348D02*
X14764743Y-12199396D01*
X14764743Y-12199396D02*
X14755219Y-12208920D01*
X14755219Y-12208920D02*
X14736172Y-12218444D01*
X14736172Y-12218444D02*
X14717124Y-12218444D01*
X14717124Y-12218444D02*
X14698076Y-12208920D01*
X14698076Y-12208920D02*
X14688553Y-12199396D01*
X14688553Y-12199396D02*
X14679029Y-12180348D01*
X14679029Y-12180348D02*
X14669505Y-12142253D01*
X14669505Y-12142253D02*
X14669505Y-12094634D01*
X14669505Y-12094634D02*
X14679029Y-12056539D01*
X14679029Y-12056539D02*
X14688553Y-12037491D01*
X14688553Y-12037491D02*
X14698076Y-12027968D01*
X14698076Y-12027968D02*
X14717124Y-12018444D01*
X14869505Y-12199396D02*
X14879029Y-12208920D01*
X14879029Y-12208920D02*
X14869505Y-12218444D01*
X14869505Y-12218444D02*
X14859981Y-12208920D01*
X14859981Y-12208920D02*
X14869505Y-12199396D01*
X14869505Y-12199396D02*
X14869505Y-12218444D01*
X15069505Y-12218444D02*
X14955219Y-12218444D01*
X15012362Y-12218444D02*
X15012362Y-12018444D01*
X15012362Y-12018444D02*
X14993315Y-12047015D01*
X14993315Y-12047015D02*
X14974267Y-12066063D01*
X14974267Y-12066063D02*
X14955219Y-12075587D01*
X15145696Y-12037491D02*
X15155219Y-12027968D01*
X15155219Y-12027968D02*
X15174267Y-12018444D01*
X15174267Y-12018444D02*
X15221886Y-12018444D01*
X15221886Y-12018444D02*
X15240934Y-12027968D01*
X15240934Y-12027968D02*
X15250457Y-12037491D01*
X15250457Y-12037491D02*
X15259981Y-12056539D01*
X15259981Y-12056539D02*
X15259981Y-12075587D01*
X15259981Y-12075587D02*
X15250457Y-12104158D01*
X15250457Y-12104158D02*
X15136172Y-12218444D01*
X15136172Y-12218444D02*
X15259981Y-12218444D01*
X15431410Y-12018444D02*
X15393315Y-12018444D01*
X15393315Y-12018444D02*
X15374267Y-12027968D01*
X15374267Y-12027968D02*
X15364743Y-12037491D01*
X15364743Y-12037491D02*
X15345696Y-12066063D01*
X15345696Y-12066063D02*
X15336172Y-12104158D01*
X15336172Y-12104158D02*
X15336172Y-12180348D01*
X15336172Y-12180348D02*
X15345696Y-12199396D01*
X15345696Y-12199396D02*
X15355219Y-12208920D01*
X15355219Y-12208920D02*
X15374267Y-12218444D01*
X15374267Y-12218444D02*
X15412362Y-12218444D01*
X15412362Y-12218444D02*
X15431410Y-12208920D01*
X15431410Y-12208920D02*
X15440934Y-12199396D01*
X15440934Y-12199396D02*
X15450457Y-12180348D01*
X15450457Y-12180348D02*
X15450457Y-12132729D01*
X15450457Y-12132729D02*
X15440934Y-12113682D01*
X15440934Y-12113682D02*
X15431410Y-12104158D01*
X15431410Y-12104158D02*
X15412362Y-12094634D01*
X15412362Y-12094634D02*
X15374267Y-12094634D01*
X15374267Y-12094634D02*
X15355219Y-12104158D01*
X15355219Y-12104158D02*
X15345696Y-12113682D01*
X15345696Y-12113682D02*
X15336172Y-12132729D01*
X15574267Y-12018444D02*
X15593315Y-12018444D01*
X15593315Y-12018444D02*
X15612362Y-12027968D01*
X15612362Y-12027968D02*
X15621886Y-12037491D01*
X15621886Y-12037491D02*
X15631410Y-12056539D01*
X15631410Y-12056539D02*
X15640934Y-12094634D01*
X15640934Y-12094634D02*
X15640934Y-12142253D01*
X15640934Y-12142253D02*
X15631410Y-12180348D01*
X15631410Y-12180348D02*
X15621886Y-12199396D01*
X15621886Y-12199396D02*
X15612362Y-12208920D01*
X15612362Y-12208920D02*
X15593315Y-12218444D01*
X15593315Y-12218444D02*
X15574267Y-12218444D01*
X15574267Y-12218444D02*
X15555219Y-12208920D01*
X15555219Y-12208920D02*
X15545696Y-12199396D01*
X15545696Y-12199396D02*
X15536172Y-12180348D01*
X15536172Y-12180348D02*
X15526648Y-12142253D01*
X15526648Y-12142253D02*
X15526648Y-12094634D01*
X15526648Y-12094634D02*
X15536172Y-12056539D01*
X15536172Y-12056539D02*
X15545696Y-12037491D01*
X15545696Y-12037491D02*
X15555219Y-12027968D01*
X15555219Y-12027968D02*
X15574267Y-12018444D01*
X15717124Y-12018444D02*
X15717124Y-12056539D01*
X15793315Y-12018444D02*
X15793315Y-12056539D01*
X16088553Y-12294634D02*
X16079029Y-12285110D01*
X16079029Y-12285110D02*
X16059981Y-12256539D01*
X16059981Y-12256539D02*
X16050458Y-12237491D01*
X16050458Y-12237491D02*
X16040934Y-12208920D01*
X16040934Y-12208920D02*
X16031410Y-12161301D01*
X16031410Y-12161301D02*
X16031410Y-12123206D01*
X16031410Y-12123206D02*
X16040934Y-12075587D01*
X16040934Y-12075587D02*
X16050458Y-12047015D01*
X16050458Y-12047015D02*
X16059981Y-12027968D01*
X16059981Y-12027968D02*
X16079029Y-11999396D01*
X16079029Y-11999396D02*
X16088553Y-11989872D01*
X16250458Y-12085110D02*
X16250458Y-12218444D01*
X16202838Y-12008920D02*
X16155219Y-12151777D01*
X16155219Y-12151777D02*
X16279029Y-12151777D01*
X16507600Y-12218444D02*
X16507600Y-12018444D01*
X16593315Y-12218444D02*
X16593315Y-12113682D01*
X16593315Y-12113682D02*
X16583791Y-12094634D01*
X16583791Y-12094634D02*
X16564743Y-12085110D01*
X16564743Y-12085110D02*
X16536172Y-12085110D01*
X16536172Y-12085110D02*
X16517124Y-12094634D01*
X16517124Y-12094634D02*
X16507600Y-12104158D01*
X16717124Y-12218444D02*
X16698077Y-12208920D01*
X16698077Y-12208920D02*
X16688553Y-12199396D01*
X16688553Y-12199396D02*
X16679029Y-12180348D01*
X16679029Y-12180348D02*
X16679029Y-12123206D01*
X16679029Y-12123206D02*
X16688553Y-12104158D01*
X16688553Y-12104158D02*
X16698077Y-12094634D01*
X16698077Y-12094634D02*
X16717124Y-12085110D01*
X16717124Y-12085110D02*
X16745696Y-12085110D01*
X16745696Y-12085110D02*
X16764743Y-12094634D01*
X16764743Y-12094634D02*
X16774267Y-12104158D01*
X16774267Y-12104158D02*
X16783791Y-12123206D01*
X16783791Y-12123206D02*
X16783791Y-12180348D01*
X16783791Y-12180348D02*
X16774267Y-12199396D01*
X16774267Y-12199396D02*
X16764743Y-12208920D01*
X16764743Y-12208920D02*
X16745696Y-12218444D01*
X16745696Y-12218444D02*
X16717124Y-12218444D01*
X16898077Y-12218444D02*
X16879029Y-12208920D01*
X16879029Y-12208920D02*
X16869505Y-12189872D01*
X16869505Y-12189872D02*
X16869505Y-12018444D01*
X17050458Y-12208920D02*
X17031410Y-12218444D01*
X17031410Y-12218444D02*
X16993315Y-12218444D01*
X16993315Y-12218444D02*
X16974267Y-12208920D01*
X16974267Y-12208920D02*
X16964743Y-12189872D01*
X16964743Y-12189872D02*
X16964743Y-12113682D01*
X16964743Y-12113682D02*
X16974267Y-12094634D01*
X16974267Y-12094634D02*
X16993315Y-12085110D01*
X16993315Y-12085110D02*
X17031410Y-12085110D01*
X17031410Y-12085110D02*
X17050458Y-12094634D01*
X17050458Y-12094634D02*
X17059982Y-12113682D01*
X17059982Y-12113682D02*
X17059982Y-12132729D01*
X17059982Y-12132729D02*
X16964743Y-12151777D01*
X17136172Y-12208920D02*
X17155220Y-12218444D01*
X17155220Y-12218444D02*
X17193315Y-12218444D01*
X17193315Y-12218444D02*
X17212363Y-12208920D01*
X17212363Y-12208920D02*
X17221886Y-12189872D01*
X17221886Y-12189872D02*
X17221886Y-12180348D01*
X17221886Y-12180348D02*
X17212363Y-12161301D01*
X17212363Y-12161301D02*
X17193315Y-12151777D01*
X17193315Y-12151777D02*
X17164743Y-12151777D01*
X17164743Y-12151777D02*
X17145696Y-12142253D01*
X17145696Y-12142253D02*
X17136172Y-12123206D01*
X17136172Y-12123206D02*
X17136172Y-12113682D01*
X17136172Y-12113682D02*
X17145696Y-12094634D01*
X17145696Y-12094634D02*
X17164743Y-12085110D01*
X17164743Y-12085110D02*
X17193315Y-12085110D01*
X17193315Y-12085110D02*
X17212363Y-12094634D01*
X17288553Y-12294634D02*
X17298077Y-12285110D01*
X17298077Y-12285110D02*
X17317124Y-12256539D01*
X17317124Y-12256539D02*
X17326648Y-12237491D01*
X17326648Y-12237491D02*
X17336172Y-12208920D01*
X17336172Y-12208920D02*
X17345696Y-12161301D01*
X17345696Y-12161301D02*
X17345696Y-12123206D01*
X17345696Y-12123206D02*
X17336172Y-12075587D01*
X17336172Y-12075587D02*
X17326648Y-12047015D01*
X17326648Y-12047015D02*
X17317124Y-12027968D01*
X17317124Y-12027968D02*
X17298077Y-11999396D01*
X17298077Y-11999396D02*
X17288553Y-11989872D01*
X17650458Y-12294634D02*
X17640934Y-12285110D01*
X17640934Y-12285110D02*
X17621886Y-12256539D01*
X17621886Y-12256539D02*
X17612363Y-12237491D01*
X17612363Y-12237491D02*
X17602839Y-12208920D01*
X17602839Y-12208920D02*
X17593315Y-12161301D01*
X17593315Y-12161301D02*
X17593315Y-12123206D01*
X17593315Y-12123206D02*
X17602839Y-12075587D01*
X17602839Y-12075587D02*
X17612363Y-12047015D01*
X17612363Y-12047015D02*
X17621886Y-12027968D01*
X17621886Y-12027968D02*
X17640934Y-11999396D01*
X17640934Y-11999396D02*
X17650458Y-11989872D01*
X17726648Y-12085110D02*
X17726648Y-12218444D01*
X17726648Y-12104158D02*
X17736172Y-12094634D01*
X17736172Y-12094634D02*
X17755220Y-12085110D01*
X17755220Y-12085110D02*
X17783791Y-12085110D01*
X17783791Y-12085110D02*
X17802839Y-12094634D01*
X17802839Y-12094634D02*
X17812363Y-12113682D01*
X17812363Y-12113682D02*
X17812363Y-12218444D01*
X17936172Y-12218444D02*
X17917124Y-12208920D01*
X17917124Y-12208920D02*
X17907601Y-12199396D01*
X17907601Y-12199396D02*
X17898077Y-12180348D01*
X17898077Y-12180348D02*
X17898077Y-12123206D01*
X17898077Y-12123206D02*
X17907601Y-12104158D01*
X17907601Y-12104158D02*
X17917124Y-12094634D01*
X17917124Y-12094634D02*
X17936172Y-12085110D01*
X17936172Y-12085110D02*
X17964744Y-12085110D01*
X17964744Y-12085110D02*
X17983791Y-12094634D01*
X17983791Y-12094634D02*
X17993315Y-12104158D01*
X17993315Y-12104158D02*
X18002839Y-12123206D01*
X18002839Y-12123206D02*
X18002839Y-12180348D01*
X18002839Y-12180348D02*
X17993315Y-12199396D01*
X17993315Y-12199396D02*
X17983791Y-12208920D01*
X17983791Y-12208920D02*
X17964744Y-12218444D01*
X17964744Y-12218444D02*
X17936172Y-12218444D01*
X18059982Y-12085110D02*
X18136172Y-12085110D01*
X18088553Y-12018444D02*
X18088553Y-12189872D01*
X18088553Y-12189872D02*
X18098077Y-12208920D01*
X18098077Y-12208920D02*
X18117124Y-12218444D01*
X18117124Y-12218444D02*
X18136172Y-12218444D01*
X18355220Y-12085110D02*
X18355220Y-12285110D01*
X18355220Y-12094634D02*
X18374267Y-12085110D01*
X18374267Y-12085110D02*
X18412363Y-12085110D01*
X18412363Y-12085110D02*
X18431410Y-12094634D01*
X18431410Y-12094634D02*
X18440934Y-12104158D01*
X18440934Y-12104158D02*
X18450458Y-12123206D01*
X18450458Y-12123206D02*
X18450458Y-12180348D01*
X18450458Y-12180348D02*
X18440934Y-12199396D01*
X18440934Y-12199396D02*
X18431410Y-12208920D01*
X18431410Y-12208920D02*
X18412363Y-12218444D01*
X18412363Y-12218444D02*
X18374267Y-12218444D01*
X18374267Y-12218444D02*
X18355220Y-12208920D01*
X18564744Y-12218444D02*
X18545696Y-12208920D01*
X18545696Y-12208920D02*
X18536172Y-12189872D01*
X18536172Y-12189872D02*
X18536172Y-12018444D01*
X18726648Y-12218444D02*
X18726648Y-12113682D01*
X18726648Y-12113682D02*
X18717125Y-12094634D01*
X18717125Y-12094634D02*
X18698077Y-12085110D01*
X18698077Y-12085110D02*
X18659982Y-12085110D01*
X18659982Y-12085110D02*
X18640934Y-12094634D01*
X18726648Y-12208920D02*
X18707601Y-12218444D01*
X18707601Y-12218444D02*
X18659982Y-12218444D01*
X18659982Y-12218444D02*
X18640934Y-12208920D01*
X18640934Y-12208920D02*
X18631410Y-12189872D01*
X18631410Y-12189872D02*
X18631410Y-12170825D01*
X18631410Y-12170825D02*
X18640934Y-12151777D01*
X18640934Y-12151777D02*
X18659982Y-12142253D01*
X18659982Y-12142253D02*
X18707601Y-12142253D01*
X18707601Y-12142253D02*
X18726648Y-12132729D01*
X18793315Y-12085110D02*
X18869505Y-12085110D01*
X18821886Y-12018444D02*
X18821886Y-12189872D01*
X18821886Y-12189872D02*
X18831410Y-12208920D01*
X18831410Y-12208920D02*
X18850458Y-12218444D01*
X18850458Y-12218444D02*
X18869505Y-12218444D01*
X19012363Y-12208920D02*
X18993315Y-12218444D01*
X18993315Y-12218444D02*
X18955220Y-12218444D01*
X18955220Y-12218444D02*
X18936172Y-12208920D01*
X18936172Y-12208920D02*
X18926648Y-12189872D01*
X18926648Y-12189872D02*
X18926648Y-12113682D01*
X18926648Y-12113682D02*
X18936172Y-12094634D01*
X18936172Y-12094634D02*
X18955220Y-12085110D01*
X18955220Y-12085110D02*
X18993315Y-12085110D01*
X18993315Y-12085110D02*
X19012363Y-12094634D01*
X19012363Y-12094634D02*
X19021886Y-12113682D01*
X19021886Y-12113682D02*
X19021886Y-12132729D01*
X19021886Y-12132729D02*
X18926648Y-12151777D01*
X19193315Y-12218444D02*
X19193315Y-12018444D01*
X19193315Y-12208920D02*
X19174267Y-12218444D01*
X19174267Y-12218444D02*
X19136172Y-12218444D01*
X19136172Y-12218444D02*
X19117125Y-12208920D01*
X19117125Y-12208920D02*
X19107601Y-12199396D01*
X19107601Y-12199396D02*
X19098077Y-12180348D01*
X19098077Y-12180348D02*
X19098077Y-12123206D01*
X19098077Y-12123206D02*
X19107601Y-12104158D01*
X19107601Y-12104158D02*
X19117125Y-12094634D01*
X19117125Y-12094634D02*
X19136172Y-12085110D01*
X19136172Y-12085110D02*
X19174267Y-12085110D01*
X19174267Y-12085110D02*
X19193315Y-12094634D01*
X19269506Y-12294634D02*
X19279029Y-12285110D01*
X19279029Y-12285110D02*
X19298077Y-12256539D01*
X19298077Y-12256539D02*
X19307601Y-12237491D01*
X19307601Y-12237491D02*
X19317125Y-12208920D01*
X19317125Y-12208920D02*
X19326648Y-12161301D01*
X19326648Y-12161301D02*
X19326648Y-12123206D01*
X19326648Y-12123206D02*
X19317125Y-12075587D01*
X19317125Y-12075587D02*
X19307601Y-12047015D01*
X19307601Y-12047015D02*
X19298077Y-12027968D01*
X19298077Y-12027968D02*
X19279029Y-11999396D01*
X19279029Y-11999396D02*
X19269506Y-11989872D01*
M02*
