%TF.GenerationSoftware,KiCad,Pcbnew,9.0.1*%
%TF.CreationDate,2026-07-20T13:33:29+08:00*%
%TF.ProjectId,BSPD,42535044-2e6b-4696-9361-645f70636258,rev?*%
%TF.SameCoordinates,Original*%
%TF.FileFunction,Copper,L2,Bot*%
%TF.FilePolarity,Positive*%
%FSLAX46Y46*%
G04 Gerber Fmt 4.6, Leading zero omitted, Abs format (unit mm)*
G04 Created by KiCad (PCBNEW 9.0.1) date 2026-07-20 13:33:29*
%MOMM*%
%LPD*%
G01*
G04 APERTURE LIST*
G04 Aperture macros list*
%AMRoundRect*
0 Rectangle with rounded corners*
0 $1 Rounding radius*
0 $2 $3 $4 $5 $6 $7 $8 $9 X,Y pos of 4 corners*
0 Add a 4 corners polygon primitive as box body*
4,1,4,$2,$3,$4,$5,$6,$7,$8,$9,$2,$3,0*
0 Add four circle primitives for the rounded corners*
1,1,$1+$1,$2,$3*
1,1,$1+$1,$4,$5*
1,1,$1+$1,$6,$7*
1,1,$1+$1,$8,$9*
0 Add four rect primitives between the rounded corners*
20,1,$1+$1,$2,$3,$4,$5,0*
20,1,$1+$1,$4,$5,$6,$7,0*
20,1,$1+$1,$6,$7,$8,$9,0*
20,1,$1+$1,$8,$9,$2,$3,0*%
%AMRotRect*
0 Rectangle, with rotation*
0 The origin of the aperture is its center*
0 $1 length*
0 $2 width*
0 $3 Rotation angle, in degrees counterclockwise*
0 Add horizontal line*
21,1,$1,$2,0,0,$3*%
G04 Aperture macros list end*
%TA.AperFunction,ComponentPad*%
%ADD10RoundRect,0.250001X0.759999X-0.499999X0.759999X0.499999X-0.759999X0.499999X-0.759999X-0.499999X0*%
%TD*%
%TA.AperFunction,ComponentPad*%
%ADD11O,2.020000X1.500000*%
%TD*%
%TA.AperFunction,ComponentPad*%
%ADD12C,3.000000*%
%TD*%
%TA.AperFunction,ComponentPad*%
%ADD13C,2.500000*%
%TD*%
%TA.AperFunction,ComponentPad*%
%ADD14RotRect,1.600000X1.600000X225.000000*%
%TD*%
%TA.AperFunction,ComponentPad*%
%ADD15C,1.600000*%
%TD*%
%TA.AperFunction,ComponentPad*%
%ADD16R,1.600000X1.600000*%
%TD*%
%TA.AperFunction,ComponentPad*%
%ADD17O,1.600000X1.600000*%
%TD*%
%TA.AperFunction,ComponentPad*%
%ADD18C,1.440000*%
%TD*%
%TA.AperFunction,SMDPad,CuDef*%
%ADD19RoundRect,0.250000X0.337500X0.475000X-0.337500X0.475000X-0.337500X-0.475000X0.337500X-0.475000X0*%
%TD*%
%TA.AperFunction,SMDPad,CuDef*%
%ADD20RoundRect,0.250000X-0.325000X-0.450000X0.325000X-0.450000X0.325000X0.450000X-0.325000X0.450000X0*%
%TD*%
%TA.AperFunction,SMDPad,CuDef*%
%ADD21RoundRect,0.250000X-0.337500X-0.475000X0.337500X-0.475000X0.337500X0.475000X-0.337500X0.475000X0*%
%TD*%
%TA.AperFunction,SMDPad,CuDef*%
%ADD22RoundRect,0.250000X0.350000X-0.850000X0.350000X0.850000X-0.350000X0.850000X-0.350000X-0.850000X0*%
%TD*%
%TA.AperFunction,SMDPad,CuDef*%
%ADD23RoundRect,0.249997X2.650003X-2.950003X2.650003X2.950003X-2.650003X2.950003X-2.650003X-2.950003X0*%
%TD*%
%TA.AperFunction,ViaPad*%
%ADD24C,0.600000*%
%TD*%
%TA.AperFunction,ViaPad*%
%ADD25C,1.016000*%
%TD*%
%TA.AperFunction,ViaPad*%
%ADD26C,1.000000*%
%TD*%
%TA.AperFunction,Conductor*%
%ADD27C,0.762000*%
%TD*%
%TA.AperFunction,Conductor*%
%ADD28C,1.016000*%
%TD*%
%TA.AperFunction,Conductor*%
%ADD29C,0.381000*%
%TD*%
%TA.AperFunction,Conductor*%
%ADD30C,0.508000*%
%TD*%
%TA.AperFunction,Conductor*%
%ADD31C,0.200000*%
%TD*%
G04 APERTURE END LIST*
D10*
%TO.P,J3,1,Pin_1*%
%TO.N,Net-(J3-Pin_1)*%
X177114200Y-76454000D03*
D11*
%TO.P,J3,2,Pin_2*%
%TO.N,GND*%
X177114200Y-73454000D03*
%TD*%
D12*
%TO.P,K1,1*%
%TO.N,/SC1*%
X154364800Y-102209600D03*
D13*
%TO.P,K1,2*%
%TO.N,/relay-*%
X156314800Y-108259600D03*
D12*
%TO.P,K1,3*%
%TO.N,unconnected-(K1-Pad3)*%
X168514800Y-108259600D03*
%TO.P,K1,4*%
%TO.N,unconnected-(K1-Pad4)*%
X168564800Y-96209600D03*
D13*
%TO.P,K1,5*%
%TO.N,+12V*%
X156314800Y-96259600D03*
%TD*%
D14*
%TO.P,C1,1*%
%TO.N,+5V*%
X165216767Y-75448233D03*
D15*
%TO.P,C1,2*%
%TO.N,GND*%
X163449000Y-77216000D03*
%TD*%
D10*
%TO.P,J2,1,Pin_1*%
%TO.N,unconnected-(J2-Pin_1-Pad1)*%
X177131000Y-101144200D03*
D11*
%TO.P,J2,2,Pin_2*%
%TO.N,/SC1*%
X177131000Y-98144200D03*
%TD*%
D16*
%TO.P,D1,1,K*%
%TO.N,+12V*%
X149860000Y-98399600D03*
D17*
%TO.P,D1,2,A*%
%TO.N,/relay-*%
X149860000Y-106019600D03*
%TD*%
D18*
%TO.P,RV2,1,1*%
%TO.N,Net-(U6A--)*%
X142341603Y-82803999D03*
%TO.P,RV2,2,2*%
%TO.N,GND*%
X139801603Y-82803999D03*
%TO.P,RV2,3,3*%
%TO.N,unconnected-(RV2-Pad3)*%
X137261604Y-82803999D03*
%TD*%
D16*
%TO.P,C2,1*%
%TO.N,+12V*%
X170042200Y-75209400D03*
D15*
%TO.P,C2,2*%
%TO.N,GND*%
X170042200Y-77709400D03*
%TD*%
D18*
%TO.P,RV1,1,1*%
%TO.N,Net-(U6B--)*%
X142341604Y-68859399D03*
%TO.P,RV1,2,2*%
%TO.N,GND*%
X139801604Y-68859399D03*
%TO.P,RV1,3,3*%
%TO.N,unconnected-(RV1-Pad3)*%
X137261605Y-68859399D03*
%TD*%
D10*
%TO.P,J1,1,Pin_1*%
%TO.N,Net-(J1-Pin_1)*%
X177114200Y-88826600D03*
D11*
%TO.P,J1,2,Pin_2*%
%TO.N,Net-(J1-Pin_2)*%
X177114200Y-85826600D03*
%TD*%
D19*
%TO.P,C5,1*%
%TO.N,+12V*%
X153742300Y-86055200D03*
%TO.P,C5,2*%
%TO.N,GND*%
X151667300Y-86055200D03*
%TD*%
%TO.P,C7,1*%
%TO.N,+5V*%
X149779900Y-72964799D03*
%TO.P,C7,2*%
%TO.N,GND*%
X147704900Y-72964799D03*
%TD*%
D20*
%TO.P,F1,1*%
%TO.N,+12V*%
X172879802Y-76377800D03*
%TO.P,F1,2*%
%TO.N,Net-(J3-Pin_1)*%
X174929800Y-76377800D03*
%TD*%
D19*
%TO.P,C6,1*%
%TO.N,+12V*%
X165375500Y-86918800D03*
%TO.P,C6,2*%
%TO.N,GND*%
X163300500Y-86918800D03*
%TD*%
D21*
%TO.P,C3,1*%
%TO.N,+12V*%
X172139700Y-72364600D03*
%TO.P,C3,2*%
%TO.N,GND*%
X174214700Y-72364600D03*
%TD*%
D19*
%TO.P,C4,1*%
%TO.N,+5V*%
X163089500Y-73812400D03*
%TO.P,C4,2*%
%TO.N,GND*%
X161014500Y-73812400D03*
%TD*%
%TO.P,C9,1*%
%TO.N,+5V*%
X138984900Y-89548700D03*
%TO.P,C9,2*%
%TO.N,GND*%
X136909900Y-89548700D03*
%TD*%
D22*
%TO.P,U5,1,VI*%
%TO.N,+12V*%
X169996200Y-72568601D03*
D23*
%TO.P,U5,2,GND*%
%TO.N,GND*%
X167716200Y-66268600D03*
D22*
%TO.P,U5,3,VO*%
%TO.N,+5V*%
X165436200Y-72568601D03*
%TD*%
D19*
%TO.P,C8,1*%
%TO.N,+5V*%
X140204099Y-71110598D03*
%TO.P,C8,2*%
%TO.N,GND*%
X138129099Y-71110598D03*
%TD*%
D24*
%TO.N,GND*%
X144830800Y-95961200D03*
X129463800Y-63398400D03*
X127685800Y-63373000D03*
X126339600Y-64414400D03*
X126365000Y-66649600D03*
X130683000Y-67157600D03*
X131165600Y-64490600D03*
X128168400Y-68199000D03*
X126187200Y-86360000D03*
X126263400Y-83947000D03*
X133197600Y-85877400D03*
X133045200Y-83388200D03*
X133197600Y-81381600D03*
X133121400Y-79095600D03*
X129743200Y-102387400D03*
X132410200Y-90957400D03*
X129993300Y-93522800D03*
X177774600Y-95885000D03*
X133781800Y-109270800D03*
X130124200Y-106705400D03*
X127304800Y-106248200D03*
X126263400Y-102184200D03*
X131165600Y-90779600D03*
X126212600Y-91338400D03*
X126263400Y-81661000D03*
X130124200Y-85852000D03*
X130098800Y-83185000D03*
X130149600Y-81127600D03*
X130073400Y-78917800D03*
X126263400Y-79552800D03*
X126263400Y-77393800D03*
X126949200Y-74498200D03*
X140367000Y-103403400D03*
X179933600Y-103606600D03*
X179933600Y-98831400D03*
%TO.N,+5V*%
X149779900Y-72964799D03*
X167995600Y-83362800D03*
X168300400Y-86614000D03*
X151561800Y-83820000D03*
X132943600Y-104140000D03*
X150596600Y-90779600D03*
X139039600Y-91338400D03*
X140335000Y-108077000D03*
D25*
X132562600Y-74904597D03*
D24*
%TO.N,GND*%
X147704900Y-72964799D03*
X154254200Y-77241400D03*
X133604000Y-95681800D03*
X148056600Y-82626200D03*
X167538400Y-68656200D03*
X160045400Y-76885800D03*
X147142200Y-95707200D03*
X147193000Y-91135200D03*
X161417000Y-67284600D03*
X168833800Y-63652400D03*
X143535400Y-95021400D03*
X146024600Y-73329800D03*
X180111400Y-89458800D03*
X180009800Y-71983600D03*
X166293800Y-105689400D03*
X133578600Y-101269800D03*
X169265600Y-64719200D03*
X131978400Y-107594400D03*
X167665400Y-67208400D03*
X165912800Y-67284600D03*
X147574000Y-110007400D03*
X151892000Y-74041000D03*
X159385000Y-69900800D03*
X147523200Y-79425800D03*
X163220400Y-70002400D03*
X174117000Y-66344800D03*
X176555400Y-68783200D03*
X133858000Y-64389000D03*
X167487600Y-63601600D03*
X146837400Y-81407000D03*
X167741600Y-72872600D03*
X180213000Y-85140800D03*
X145872200Y-79502000D03*
X166116000Y-68681600D03*
X151460200Y-95808800D03*
X133883400Y-102641400D03*
X172364400Y-66040000D03*
X155625800Y-78536800D03*
X172288200Y-63855600D03*
X161315400Y-78536800D03*
X140258800Y-75768200D03*
X162280600Y-64084200D03*
X155575000Y-72644000D03*
X162814000Y-105892600D03*
X147853400Y-103022400D03*
X128625600Y-72161400D03*
X157429200Y-74320400D03*
X135915400Y-84099400D03*
X167436800Y-64719200D03*
X151460200Y-80975200D03*
X169367200Y-67233800D03*
X135580600Y-103581200D03*
X149072600Y-87833200D03*
X169214800Y-65887600D03*
X141401800Y-110667800D03*
X167741600Y-71043800D03*
X160477200Y-92481400D03*
X174294800Y-107365800D03*
X163195000Y-98831400D03*
X165811200Y-98831400D03*
X153949400Y-63982600D03*
X141071600Y-85369400D03*
X170484800Y-86233000D03*
X180289200Y-79476600D03*
X138455400Y-99491800D03*
X159842200Y-79121000D03*
X144881600Y-86360000D03*
X163093400Y-65862200D03*
X153492200Y-67284600D03*
X167792400Y-88519000D03*
X150012400Y-86944200D03*
X168224200Y-79019400D03*
X161036000Y-75920600D03*
X163245800Y-68072000D03*
X158978600Y-105765600D03*
X151282400Y-109245400D03*
X146710400Y-83845400D03*
X161239200Y-69926200D03*
X163449000Y-109296200D03*
X166827200Y-78587600D03*
X151612600Y-78181200D03*
X158546800Y-110566200D03*
X166141400Y-63627000D03*
X133781800Y-71170800D03*
X158724600Y-75488800D03*
X179908200Y-93929200D03*
X159562800Y-64389000D03*
X159918400Y-98958400D03*
X133578600Y-99314000D03*
X143713200Y-63931800D03*
X133604000Y-97612200D03*
X138277600Y-85064600D03*
X174574200Y-68148200D03*
X136169400Y-110109000D03*
X131445000Y-71475600D03*
X170688000Y-110617000D03*
X150215600Y-92176600D03*
X147853400Y-99568000D03*
X165811200Y-65862200D03*
X170307000Y-92430600D03*
X163245800Y-80162400D03*
X148005800Y-67233800D03*
X170078400Y-82778600D03*
X149148800Y-95808800D03*
X151790400Y-75971400D03*
X167538400Y-65862200D03*
X172110400Y-69621400D03*
X165760400Y-64668400D03*
X148818600Y-91186000D03*
X168884600Y-68630800D03*
X174726600Y-86614000D03*
X173075600Y-92862400D03*
X158699200Y-67310000D03*
X159867600Y-80441800D03*
X174066200Y-63906400D03*
D26*
%TO.N,+12V*%
X155651200Y-86029800D03*
X166272300Y-88493600D03*
D24*
%TO.N,GND*%
X142646400Y-80949800D03*
%TD*%
D27*
%TO.N,+5V*%
X139319003Y-74904597D02*
X140204099Y-74019501D01*
X140204099Y-74019501D02*
X140204099Y-71110598D01*
X132562600Y-74904597D02*
X139319003Y-74904597D01*
X136880600Y-108077000D02*
X132943600Y-104140000D01*
X140335000Y-108077000D02*
X136880600Y-108077000D01*
D28*
X149779900Y-72964799D02*
X149779900Y-82038100D01*
D29*
X168300400Y-86614000D02*
X168300400Y-84836000D01*
D28*
X147421600Y-87604600D02*
X145477500Y-89548700D01*
X145477500Y-89548700D02*
X138984900Y-89548700D01*
X149779900Y-72964799D02*
X151980299Y-70764400D01*
D27*
X138984900Y-89548700D02*
X138984900Y-91283700D01*
D28*
X149779900Y-72239799D02*
X148650699Y-71110598D01*
X156972000Y-70764400D02*
X158318200Y-72110600D01*
D27*
X132638800Y-103835200D02*
X132943600Y-104140000D01*
X138984900Y-91283700D02*
X139039600Y-91338400D01*
D28*
X165436200Y-72568601D02*
X164333299Y-72568601D01*
X165436200Y-75228800D02*
X165216767Y-75448233D01*
X149779900Y-82038100D02*
X151561800Y-83820000D01*
D29*
X168300400Y-84836000D02*
X165379400Y-81915000D01*
D27*
X134315200Y-91338400D02*
X132181600Y-93472000D01*
X132181600Y-103378000D02*
X132638800Y-103835200D01*
D29*
X167995600Y-83540600D02*
X167640000Y-83896200D01*
D28*
X151980299Y-70764400D02*
X156972000Y-70764400D01*
X151561800Y-83820000D02*
X151206200Y-83820000D01*
X165436200Y-72568601D02*
X165436200Y-75228800D01*
D27*
X132181600Y-93472000D02*
X132181600Y-103378000D01*
D28*
X158318200Y-72110600D02*
X164978199Y-72110600D01*
X151206200Y-83820000D02*
X147421600Y-87604600D01*
D29*
X167995600Y-83362800D02*
X167995600Y-83540600D01*
D28*
X149779900Y-72964799D02*
X149779900Y-72239799D01*
X164978199Y-72110600D02*
X165436200Y-72568601D01*
D29*
X165379400Y-81915000D02*
X165379400Y-75158600D01*
X150596600Y-90779600D02*
X147421600Y-87604600D01*
D27*
X139039600Y-91338400D02*
X134315200Y-91338400D01*
D28*
X148650699Y-71110598D02*
X140204099Y-71110598D01*
X164333299Y-72568601D02*
X163089500Y-73812400D01*
%TO.N,+12V*%
X169996200Y-72568601D02*
X171935699Y-72568601D01*
X171935699Y-72568601D02*
X172139700Y-72364600D01*
X163709400Y-96259600D02*
X156314800Y-96259600D01*
X149860000Y-98399600D02*
X154174800Y-98399600D01*
X155648200Y-95593000D02*
X156314800Y-96259600D01*
X153742300Y-86055200D02*
X155625800Y-86055200D01*
X166290800Y-88671400D02*
X166290800Y-90751200D01*
X166290800Y-90751200D02*
X167754300Y-92214700D01*
X166319200Y-87862500D02*
X165375500Y-86918800D01*
X170042200Y-75209400D02*
X171711402Y-75209400D01*
X172796200Y-87172800D02*
X167754300Y-92214700D01*
D30*
X166272300Y-88493600D02*
X166319200Y-88493600D01*
D31*
X155625800Y-86055200D02*
X155651200Y-86029800D01*
D28*
X172796200Y-76294198D02*
X172796200Y-87172800D01*
X171711402Y-75209400D02*
X172796200Y-76294198D01*
X155648200Y-86055200D02*
X155648200Y-95593000D01*
X154174800Y-98399600D02*
X156314800Y-96259600D01*
X167754300Y-92214700D02*
X163709400Y-96259600D01*
X166319200Y-88493600D02*
X166319200Y-87862500D01*
%TD*%
%TA.AperFunction,Conductor*%
%TO.N,GND*%
G36*
X140823804Y-69528045D02*
G01*
X140823805Y-69528045D01*
X140845040Y-69498818D01*
X140932220Y-69327718D01*
X140953409Y-69262507D01*
X140992846Y-69204832D01*
X141057204Y-69177633D01*
X141126051Y-69189547D01*
X141177527Y-69236791D01*
X141189271Y-69262507D01*
X141210520Y-69327904D01*
X141210521Y-69327905D01*
X141210522Y-69327908D01*
X141297739Y-69499080D01*
X141410659Y-69654501D01*
X141546502Y-69790344D01*
X141546505Y-69790346D01*
X141666847Y-69877780D01*
X141709513Y-69933110D01*
X141715492Y-70002723D01*
X141682886Y-70064518D01*
X141622047Y-70098876D01*
X141593962Y-70102098D01*
X141120829Y-70102098D01*
X141053790Y-70082413D01*
X141033148Y-70065779D01*
X141010256Y-70042887D01*
X141010255Y-70042886D01*
X140876606Y-69960451D01*
X140860935Y-69950785D01*
X140860930Y-69950783D01*
X140859461Y-69950296D01*
X140694396Y-69895599D01*
X140694394Y-69895598D01*
X140591615Y-69885098D01*
X140525111Y-69885098D01*
X140458072Y-69865413D01*
X140437430Y-69848779D01*
X139848051Y-69259399D01*
X139854265Y-69259399D01*
X139955998Y-69232140D01*
X140047210Y-69179479D01*
X140121684Y-69105005D01*
X140174345Y-69013793D01*
X140201604Y-68912060D01*
X140201604Y-68905845D01*
X140823804Y-69528045D01*
G37*
%TD.AperFunction*%
%TA.AperFunction,Conductor*%
G36*
X164408279Y-62724785D02*
G01*
X164454034Y-62777589D01*
X164463978Y-62846747D01*
X164446779Y-62894197D01*
X164381842Y-62999474D01*
X164381840Y-62999479D01*
X164326694Y-63165901D01*
X164316200Y-63268611D01*
X164316200Y-66018600D01*
X171116199Y-66018600D01*
X171116199Y-65563111D01*
X176863900Y-65563111D01*
X176863900Y-65805688D01*
X176895561Y-66046185D01*
X176958347Y-66280504D01*
X177040652Y-66479205D01*
X177051176Y-66504612D01*
X177172464Y-66714689D01*
X177172466Y-66714692D01*
X177172467Y-66714693D01*
X177320133Y-66907136D01*
X177320139Y-66907143D01*
X177491656Y-67078660D01*
X177491662Y-67078665D01*
X177684111Y-67226336D01*
X177894188Y-67347624D01*
X178118300Y-67440454D01*
X178352611Y-67503238D01*
X178532986Y-67526984D01*
X178593111Y-67534900D01*
X178593112Y-67534900D01*
X178835689Y-67534900D01*
X178883788Y-67528567D01*
X179076189Y-67503238D01*
X179310500Y-67440454D01*
X179534612Y-67347624D01*
X179744689Y-67226336D01*
X179937138Y-67078665D01*
X180108665Y-66907138D01*
X180256336Y-66714689D01*
X180377624Y-66504612D01*
X180470454Y-66280500D01*
X180533238Y-66046189D01*
X180564900Y-65805688D01*
X180564900Y-65563112D01*
X180533238Y-65322611D01*
X180470454Y-65088300D01*
X180377624Y-64864188D01*
X180256336Y-64654111D01*
X180108665Y-64461662D01*
X180108660Y-64461656D01*
X179937143Y-64290139D01*
X179937136Y-64290133D01*
X179744693Y-64142467D01*
X179744692Y-64142466D01*
X179744689Y-64142464D01*
X179534612Y-64021176D01*
X179534605Y-64021173D01*
X179310504Y-63928347D01*
X179076185Y-63865561D01*
X178835689Y-63833900D01*
X178835688Y-63833900D01*
X178593112Y-63833900D01*
X178593111Y-63833900D01*
X178352614Y-63865561D01*
X178118295Y-63928347D01*
X177894194Y-64021173D01*
X177894185Y-64021177D01*
X177684106Y-64142467D01*
X177491663Y-64290133D01*
X177491656Y-64290139D01*
X177320139Y-64461656D01*
X177320133Y-64461663D01*
X177172467Y-64654106D01*
X177051177Y-64864185D01*
X177051173Y-64864194D01*
X176958347Y-65088295D01*
X176895561Y-65322614D01*
X176863900Y-65563111D01*
X171116199Y-65563111D01*
X171116199Y-63268626D01*
X171116198Y-63268611D01*
X171105705Y-63165900D01*
X171050559Y-62999479D01*
X171050557Y-62999474D01*
X170985621Y-62894197D01*
X170967181Y-62826805D01*
X170988103Y-62760141D01*
X171041745Y-62715371D01*
X171091160Y-62705100D01*
X181535400Y-62705100D01*
X181602439Y-62724785D01*
X181648194Y-62777589D01*
X181659400Y-62829100D01*
X181659400Y-111580100D01*
X181639715Y-111647139D01*
X181586911Y-111692894D01*
X181535400Y-111704100D01*
X125784400Y-111704100D01*
X125717361Y-111684415D01*
X125671606Y-111631611D01*
X125660400Y-111580100D01*
X125660400Y-108616111D01*
X126775100Y-108616111D01*
X126775100Y-108858688D01*
X126798375Y-109035488D01*
X126806762Y-109099189D01*
X126838154Y-109216344D01*
X126869547Y-109333504D01*
X126903830Y-109416270D01*
X126962376Y-109557612D01*
X127083664Y-109767689D01*
X127083666Y-109767692D01*
X127083667Y-109767693D01*
X127231333Y-109960136D01*
X127231339Y-109960143D01*
X127402856Y-110131660D01*
X127402863Y-110131666D01*
X127437180Y-110157998D01*
X127595311Y-110279336D01*
X127805388Y-110400624D01*
X128029500Y-110493454D01*
X128263811Y-110556238D01*
X128444186Y-110579984D01*
X128504311Y-110587900D01*
X128504312Y-110587900D01*
X128746889Y-110587900D01*
X128794988Y-110581567D01*
X128987389Y-110556238D01*
X129221700Y-110493454D01*
X129445812Y-110400624D01*
X129655889Y-110279336D01*
X129848338Y-110131665D01*
X130019865Y-109960138D01*
X130167536Y-109767689D01*
X130288824Y-109557612D01*
X130381654Y-109333500D01*
X130444438Y-109099189D01*
X130476100Y-108858688D01*
X130476100Y-108616112D01*
X130444438Y-108375611D01*
X130381654Y-108141300D01*
X130376340Y-108128472D01*
X130299345Y-107942588D01*
X130288824Y-107917188D01*
X130167536Y-107707111D01*
X130039355Y-107540062D01*
X130019866Y-107514663D01*
X130019860Y-107514656D01*
X129848343Y-107343139D01*
X129848336Y-107343133D01*
X129655893Y-107195467D01*
X129655892Y-107195466D01*
X129655889Y-107195464D01*
X129445812Y-107074176D01*
X129445805Y-107074173D01*
X129221704Y-106981347D01*
X129082182Y-106943962D01*
X128987389Y-106918562D01*
X128987388Y-106918561D01*
X128987385Y-106918561D01*
X128746889Y-106886900D01*
X128746888Y-106886900D01*
X128504312Y-106886900D01*
X128504311Y-106886900D01*
X128263814Y-106918561D01*
X128029495Y-106981347D01*
X127805394Y-107074173D01*
X127805385Y-107074177D01*
X127595306Y-107195467D01*
X127402863Y-107343133D01*
X127402856Y-107343139D01*
X127231339Y-107514656D01*
X127231333Y-107514663D01*
X127083667Y-107707106D01*
X126962377Y-107917185D01*
X126962373Y-107917194D01*
X126869547Y-108141295D01*
X126806761Y-108375614D01*
X126775100Y-108616111D01*
X125660400Y-108616111D01*
X125660400Y-103464823D01*
X131300099Y-103464823D01*
X131333974Y-103635118D01*
X131333977Y-103635128D01*
X131400422Y-103795543D01*
X131496895Y-103939926D01*
X131496896Y-103939927D01*
X131949753Y-104392783D01*
X131949763Y-104392793D01*
X131954093Y-104397123D01*
X131954094Y-104397124D01*
X132254563Y-104697592D01*
X132254582Y-104697613D01*
X136195894Y-108638923D01*
X136318674Y-108761703D01*
X136318678Y-108761707D01*
X136463046Y-108858171D01*
X136463050Y-108858173D01*
X136463053Y-108858175D01*
X136509706Y-108877499D01*
X136509707Y-108877500D01*
X136509708Y-108877500D01*
X136623476Y-108924625D01*
X136793774Y-108958499D01*
X136793778Y-108958500D01*
X136793779Y-108958500D01*
X140421822Y-108958500D01*
X140536394Y-108935709D01*
X140592124Y-108924624D01*
X140752547Y-108858175D01*
X140896923Y-108761706D01*
X141019706Y-108638923D01*
X141116175Y-108494547D01*
X141182624Y-108334124D01*
X141193709Y-108278394D01*
X141216500Y-108163822D01*
X141216500Y-108144858D01*
X154564300Y-108144858D01*
X154564300Y-108374341D01*
X154580127Y-108494553D01*
X154594252Y-108601838D01*
X154607348Y-108650714D01*
X154653642Y-108823487D01*
X154741450Y-109035476D01*
X154741457Y-109035490D01*
X154856192Y-109234217D01*
X154995881Y-109416261D01*
X154995889Y-109416270D01*
X155158130Y-109578511D01*
X155158138Y-109578518D01*
X155158139Y-109578519D01*
X155163997Y-109583014D01*
X155340182Y-109718207D01*
X155340185Y-109718208D01*
X155340188Y-109718211D01*
X155538912Y-109832944D01*
X155538917Y-109832946D01*
X155538923Y-109832949D01*
X155630280Y-109870790D01*
X155750913Y-109920758D01*
X155972562Y-109980148D01*
X156200066Y-110010100D01*
X156200073Y-110010100D01*
X156429527Y-110010100D01*
X156429534Y-110010100D01*
X156657038Y-109980148D01*
X156878687Y-109920758D01*
X157090688Y-109832944D01*
X157289412Y-109718211D01*
X157471461Y-109578519D01*
X157471465Y-109578514D01*
X157471470Y-109578511D01*
X157633711Y-109416270D01*
X157633714Y-109416265D01*
X157633719Y-109416261D01*
X157773411Y-109234212D01*
X157888144Y-109035488D01*
X157975958Y-108823487D01*
X158035348Y-108601838D01*
X158065300Y-108374334D01*
X158065300Y-108144866D01*
X158063142Y-108128472D01*
X166514300Y-108128472D01*
X166514300Y-108390727D01*
X166527969Y-108494547D01*
X166548530Y-108650716D01*
X166611062Y-108884088D01*
X166616402Y-108904018D01*
X166616405Y-108904028D01*
X166716753Y-109146290D01*
X166716758Y-109146300D01*
X166847875Y-109373403D01*
X167007518Y-109581451D01*
X167007526Y-109581460D01*
X167192940Y-109766874D01*
X167192948Y-109766881D01*
X167400996Y-109926524D01*
X167628099Y-110057641D01*
X167628109Y-110057646D01*
X167868131Y-110157066D01*
X167870381Y-110157998D01*
X168123684Y-110225870D01*
X168383680Y-110260100D01*
X168383687Y-110260100D01*
X168645913Y-110260100D01*
X168645920Y-110260100D01*
X168905916Y-110225870D01*
X169159219Y-110157998D01*
X169401497Y-110057643D01*
X169628603Y-109926524D01*
X169836651Y-109766882D01*
X169836655Y-109766877D01*
X169836660Y-109766874D01*
X170022074Y-109581460D01*
X170022077Y-109581455D01*
X170022082Y-109581451D01*
X170181724Y-109373403D01*
X170312843Y-109146297D01*
X170413198Y-108904019D01*
X170481070Y-108650716D01*
X170482282Y-108641511D01*
X176838500Y-108641511D01*
X176838500Y-108884088D01*
X176866817Y-109099185D01*
X176870162Y-109124589D01*
X176899536Y-109234212D01*
X176932947Y-109358904D01*
X177023915Y-109578519D01*
X177025776Y-109583012D01*
X177147064Y-109793089D01*
X177147066Y-109793092D01*
X177147067Y-109793093D01*
X177294733Y-109985536D01*
X177294739Y-109985543D01*
X177466256Y-110157060D01*
X177466263Y-110157066D01*
X177467478Y-110157998D01*
X177658711Y-110304736D01*
X177868788Y-110426024D01*
X178092900Y-110518854D01*
X178327211Y-110581638D01*
X178507586Y-110605384D01*
X178567711Y-110613300D01*
X178567712Y-110613300D01*
X178810289Y-110613300D01*
X178858388Y-110606967D01*
X179050789Y-110581638D01*
X179285100Y-110518854D01*
X179509212Y-110426024D01*
X179719289Y-110304736D01*
X179911738Y-110157065D01*
X180083265Y-109985538D01*
X180230936Y-109793089D01*
X180352224Y-109583012D01*
X180445054Y-109358900D01*
X180507838Y-109124589D01*
X180539500Y-108884088D01*
X180539500Y-108641512D01*
X180507838Y-108401011D01*
X180445054Y-108166700D01*
X180352224Y-107942588D01*
X180230936Y-107732511D01*
X180083265Y-107540062D01*
X180083260Y-107540056D01*
X179911743Y-107368539D01*
X179911736Y-107368533D01*
X179719293Y-107220867D01*
X179719292Y-107220866D01*
X179719289Y-107220864D01*
X179515035Y-107102938D01*
X179509214Y-107099577D01*
X179509205Y-107099573D01*
X179285104Y-107006747D01*
X179050785Y-106943961D01*
X178810289Y-106912300D01*
X178810288Y-106912300D01*
X178567712Y-106912300D01*
X178567711Y-106912300D01*
X178327214Y-106943961D01*
X178092895Y-107006747D01*
X177868794Y-107099573D01*
X177868785Y-107099577D01*
X177658706Y-107220867D01*
X177466263Y-107368533D01*
X177466256Y-107368539D01*
X177294739Y-107540056D01*
X177294733Y-107540063D01*
X177147067Y-107732506D01*
X177025777Y-107942585D01*
X177025773Y-107942594D01*
X176932947Y-108166695D01*
X176870161Y-108401014D01*
X176838500Y-108641511D01*
X170482282Y-108641511D01*
X170515300Y-108390720D01*
X170515300Y-108128480D01*
X170481070Y-107868484D01*
X170413198Y-107615181D01*
X170382080Y-107540056D01*
X170312846Y-107372909D01*
X170312841Y-107372899D01*
X170181724Y-107145796D01*
X170026849Y-106943962D01*
X170022082Y-106937749D01*
X170022081Y-106937748D01*
X170022074Y-106937740D01*
X169836660Y-106752326D01*
X169836651Y-106752318D01*
X169628603Y-106592675D01*
X169401500Y-106461558D01*
X169401490Y-106461553D01*
X169159228Y-106361205D01*
X169159221Y-106361203D01*
X169159219Y-106361202D01*
X168905916Y-106293330D01*
X168848139Y-106285723D01*
X168645927Y-106259100D01*
X168645920Y-106259100D01*
X168383680Y-106259100D01*
X168383672Y-106259100D01*
X168152572Y-106289526D01*
X168123684Y-106293330D01*
X167870381Y-106361202D01*
X167870371Y-106361205D01*
X167628109Y-106461553D01*
X167628099Y-106461558D01*
X167400996Y-106592675D01*
X167192948Y-106752318D01*
X167007518Y-106937748D01*
X166847875Y-107145796D01*
X166716758Y-107372899D01*
X166716753Y-107372909D01*
X166616405Y-107615171D01*
X166616402Y-107615181D01*
X166561555Y-107819876D01*
X166548530Y-107868485D01*
X166514300Y-108128472D01*
X158063142Y-108128472D01*
X158035348Y-107917362D01*
X157975958Y-107695713D01*
X157925990Y-107575080D01*
X157888149Y-107483723D01*
X157888146Y-107483717D01*
X157888144Y-107483712D01*
X157773411Y-107284988D01*
X157773408Y-107284985D01*
X157773407Y-107284982D01*
X157633718Y-107102938D01*
X157633711Y-107102930D01*
X157471470Y-106940689D01*
X157471461Y-106940681D01*
X157289417Y-106800992D01*
X157090690Y-106686257D01*
X157090676Y-106686250D01*
X156878687Y-106598442D01*
X156857164Y-106592675D01*
X156657038Y-106539052D01*
X156619015Y-106534046D01*
X156429541Y-106509100D01*
X156429534Y-106509100D01*
X156200066Y-106509100D01*
X156200058Y-106509100D01*
X155983515Y-106537609D01*
X155972562Y-106539052D01*
X155878876Y-106564154D01*
X155750912Y-106598442D01*
X155538923Y-106686250D01*
X155538909Y-106686257D01*
X155340182Y-106800992D01*
X155158138Y-106940681D01*
X154995881Y-107102938D01*
X154856192Y-107284982D01*
X154741457Y-107483709D01*
X154741450Y-107483723D01*
X154653642Y-107695712D01*
X154653642Y-107695713D01*
X154594300Y-107917185D01*
X154594253Y-107917359D01*
X154594251Y-107917370D01*
X154564300Y-108144858D01*
X141216500Y-108144858D01*
X141216500Y-107990177D01*
X141182625Y-107819881D01*
X141182624Y-107819880D01*
X141182624Y-107819876D01*
X141182622Y-107819871D01*
X141116178Y-107659459D01*
X141116171Y-107659446D01*
X141019706Y-107515077D01*
X141019703Y-107515073D01*
X140896926Y-107392296D01*
X140896922Y-107392293D01*
X140752553Y-107295828D01*
X140752540Y-107295821D01*
X140592128Y-107229377D01*
X140592118Y-107229374D01*
X140421822Y-107195500D01*
X140421820Y-107195500D01*
X137297091Y-107195500D01*
X137230052Y-107175815D01*
X137209410Y-107159181D01*
X136050287Y-106000057D01*
X135967478Y-105917248D01*
X148559500Y-105917248D01*
X148559500Y-106121951D01*
X148591522Y-106324134D01*
X148654781Y-106518823D01*
X148692412Y-106592676D01*
X148740090Y-106686250D01*
X148747715Y-106701213D01*
X148868028Y-106866813D01*
X149012786Y-107011571D01*
X149138546Y-107102939D01*
X149178390Y-107131887D01*
X149294607Y-107191103D01*
X149360776Y-107224818D01*
X149360778Y-107224818D01*
X149360781Y-107224820D01*
X149465137Y-107258727D01*
X149555465Y-107288077D01*
X149604384Y-107295825D01*
X149757648Y-107320100D01*
X149757649Y-107320100D01*
X149962351Y-107320100D01*
X149962352Y-107320100D01*
X150164534Y-107288077D01*
X150359219Y-107224820D01*
X150541610Y-107131887D01*
X150634590Y-107064332D01*
X150707213Y-107011571D01*
X150707215Y-107011568D01*
X150707219Y-107011566D01*
X150851966Y-106866819D01*
X150851968Y-106866815D01*
X150851971Y-106866813D01*
X150935155Y-106752318D01*
X150972287Y-106701210D01*
X151065220Y-106518819D01*
X151128477Y-106324134D01*
X151160500Y-106121952D01*
X151160500Y-105917248D01*
X151128477Y-105715066D01*
X151065220Y-105520381D01*
X151065218Y-105520378D01*
X151065218Y-105520376D01*
X151031503Y-105454207D01*
X150972287Y-105337990D01*
X150964556Y-105327349D01*
X150851971Y-105172386D01*
X150707213Y-105027628D01*
X150541613Y-104907315D01*
X150541612Y-104907314D01*
X150541610Y-104907313D01*
X150484653Y-104878291D01*
X150359223Y-104814381D01*
X150164534Y-104751122D01*
X149989995Y-104723478D01*
X149962352Y-104719100D01*
X149757648Y-104719100D01*
X149733329Y-104722951D01*
X149555465Y-104751122D01*
X149360776Y-104814381D01*
X149178386Y-104907315D01*
X149012786Y-105027628D01*
X148868028Y-105172386D01*
X148747715Y-105337986D01*
X148654781Y-105520376D01*
X148591522Y-105715065D01*
X148559500Y-105917248D01*
X135967478Y-105917248D01*
X133501213Y-103450982D01*
X133501192Y-103450963D01*
X133200724Y-103150494D01*
X133200723Y-103150493D01*
X133196398Y-103146168D01*
X133196387Y-103146158D01*
X133099418Y-103049188D01*
X133065934Y-102987864D01*
X133063100Y-102961507D01*
X133063100Y-102078472D01*
X152364300Y-102078472D01*
X152364300Y-102340727D01*
X152390923Y-102542939D01*
X152398530Y-102600716D01*
X152466402Y-102854018D01*
X152466405Y-102854028D01*
X152566753Y-103096290D01*
X152566758Y-103096300D01*
X152697875Y-103323403D01*
X152857518Y-103531451D01*
X152857526Y-103531460D01*
X153042940Y-103716874D01*
X153042948Y-103716881D01*
X153250996Y-103876524D01*
X153478099Y-104007641D01*
X153478109Y-104007646D01*
X153597227Y-104056986D01*
X153720381Y-104107998D01*
X153973684Y-104175870D01*
X154233680Y-104210100D01*
X154233687Y-104210100D01*
X154495913Y-104210100D01*
X154495920Y-104210100D01*
X154755916Y-104175870D01*
X155009219Y-104107998D01*
X155132385Y-104056981D01*
X174285500Y-104056981D01*
X174285500Y-104231418D01*
X174319527Y-104402483D01*
X174319529Y-104402491D01*
X174386278Y-104563639D01*
X174386283Y-104563648D01*
X174483186Y-104708673D01*
X174483189Y-104708677D01*
X174606522Y-104832010D01*
X174606526Y-104832013D01*
X174751551Y-104928916D01*
X174751557Y-104928919D01*
X174751558Y-104928920D01*
X174912709Y-104995671D01*
X175083781Y-105029699D01*
X175083785Y-105029700D01*
X175083786Y-105029700D01*
X175258215Y-105029700D01*
X175258216Y-105029699D01*
X175429291Y-104995671D01*
X175590442Y-104928920D01*
X175735474Y-104832013D01*
X175858813Y-104708674D01*
X175955720Y-104563642D01*
X176022471Y-104402491D01*
X176056500Y-104231414D01*
X176056500Y-104056986D01*
X176022471Y-103885909D01*
X175955720Y-103724758D01*
X175955719Y-103724757D01*
X175955716Y-103724751D01*
X175858813Y-103579726D01*
X175858810Y-103579722D01*
X175735477Y-103456389D01*
X175735473Y-103456386D01*
X175590448Y-103359483D01*
X175590439Y-103359478D01*
X175429291Y-103292729D01*
X175429283Y-103292727D01*
X175258218Y-103258700D01*
X175258214Y-103258700D01*
X175083786Y-103258700D01*
X175083781Y-103258700D01*
X174912716Y-103292727D01*
X174912708Y-103292729D01*
X174751560Y-103359478D01*
X174751551Y-103359483D01*
X174606526Y-103456386D01*
X174606522Y-103456389D01*
X174483189Y-103579722D01*
X174483186Y-103579726D01*
X174386283Y-103724751D01*
X174386278Y-103724760D01*
X174319529Y-103885908D01*
X174319527Y-103885916D01*
X174285500Y-104056981D01*
X155132385Y-104056981D01*
X155251497Y-104007643D01*
X155300517Y-103979341D01*
X155362585Y-103943507D01*
X155478603Y-103876524D01*
X155686651Y-103716882D01*
X155686655Y-103716877D01*
X155686660Y-103716874D01*
X155872074Y-103531460D01*
X155872077Y-103531455D01*
X155872082Y-103531451D01*
X156031724Y-103323403D01*
X156162843Y-103096297D01*
X156263198Y-102854019D01*
X156331070Y-102600716D01*
X156365300Y-102340720D01*
X156365300Y-102078480D01*
X156331070Y-101818484D01*
X156263198Y-101565181D01*
X156263194Y-101565171D01*
X156162846Y-101322909D01*
X156162841Y-101322899D01*
X156031724Y-101095796D01*
X155872081Y-100887748D01*
X155872074Y-100887740D01*
X155686660Y-100702326D01*
X155686651Y-100702318D01*
X155669829Y-100689410D01*
X155545730Y-100594184D01*
X175620500Y-100594184D01*
X175620500Y-101694215D01*
X175631000Y-101796995D01*
X175631001Y-101796997D01*
X175658593Y-101880265D01*
X175686186Y-101963535D01*
X175686187Y-101963537D01*
X175778286Y-102112851D01*
X175778289Y-102112855D01*
X175902344Y-102236910D01*
X175902348Y-102236913D01*
X176051662Y-102329012D01*
X176051664Y-102329013D01*
X176051666Y-102329014D01*
X176218203Y-102384199D01*
X176320992Y-102394700D01*
X176320997Y-102394700D01*
X177941003Y-102394700D01*
X177941008Y-102394700D01*
X178043797Y-102384199D01*
X178210334Y-102329014D01*
X178359655Y-102236911D01*
X178483711Y-102112855D01*
X178575814Y-101963534D01*
X178630999Y-101796997D01*
X178641500Y-101694208D01*
X178641500Y-100594192D01*
X178630999Y-100491403D01*
X178575814Y-100324866D01*
X178483711Y-100175545D01*
X178359655Y-100051489D01*
X178359651Y-100051486D01*
X178210337Y-99959387D01*
X178210335Y-99959386D01*
X178127065Y-99931793D01*
X178043797Y-99904201D01*
X178043795Y-99904200D01*
X177941015Y-99893700D01*
X177941008Y-99893700D01*
X176320992Y-99893700D01*
X176320984Y-99893700D01*
X176218204Y-99904200D01*
X176218203Y-99904201D01*
X176051664Y-99959386D01*
X176051662Y-99959387D01*
X175902348Y-100051486D01*
X175902344Y-100051489D01*
X175778289Y-100175544D01*
X175778286Y-100175548D01*
X175686187Y-100324862D01*
X175686186Y-100324864D01*
X175631001Y-100491403D01*
X175631000Y-100491404D01*
X175620500Y-100594184D01*
X155545730Y-100594184D01*
X155478603Y-100542675D01*
X155251500Y-100411558D01*
X155251490Y-100411553D01*
X155009228Y-100311205D01*
X155009221Y-100311203D01*
X155009219Y-100311202D01*
X154755916Y-100243330D01*
X154698139Y-100235723D01*
X154495927Y-100209100D01*
X154495920Y-100209100D01*
X154233680Y-100209100D01*
X154233672Y-100209100D01*
X154002572Y-100239526D01*
X153973684Y-100243330D01*
X153720381Y-100311202D01*
X153720371Y-100311205D01*
X153478109Y-100411553D01*
X153478099Y-100411558D01*
X153250996Y-100542675D01*
X153042948Y-100702318D01*
X152857518Y-100887748D01*
X152697875Y-101095796D01*
X152566758Y-101322899D01*
X152566753Y-101322909D01*
X152466405Y-101565171D01*
X152466402Y-101565181D01*
X152404288Y-101796997D01*
X152398530Y-101818485D01*
X152364300Y-102078472D01*
X133063100Y-102078472D01*
X133063100Y-93888492D01*
X133082785Y-93821453D01*
X133099419Y-93800811D01*
X134644011Y-92256219D01*
X134705334Y-92222734D01*
X134731692Y-92219900D01*
X139126422Y-92219900D01*
X139240994Y-92197109D01*
X139296724Y-92186024D01*
X139420796Y-92134631D01*
X139457140Y-92119578D01*
X139457140Y-92119577D01*
X139457147Y-92119575D01*
X139601523Y-92023106D01*
X139724306Y-91900323D01*
X139820775Y-91755947D01*
X139887224Y-91595524D01*
X139908414Y-91488997D01*
X139921100Y-91425222D01*
X139921100Y-91251577D01*
X139887225Y-91081281D01*
X139887224Y-91081280D01*
X139887224Y-91081276D01*
X139875839Y-91053789D01*
X139866400Y-91006337D01*
X139866400Y-90681200D01*
X139886085Y-90614161D01*
X139938889Y-90568406D01*
X139990400Y-90557200D01*
X145576830Y-90557200D01*
X145576831Y-90557199D01*
X145771669Y-90518444D01*
X145955204Y-90442421D01*
X146120381Y-90332053D01*
X146260853Y-90191581D01*
X146319412Y-90133022D01*
X146319424Y-90133008D01*
X147558428Y-88894005D01*
X147619747Y-88860523D01*
X147689439Y-88865507D01*
X147733786Y-88894008D01*
X149793805Y-90954027D01*
X149823190Y-91007842D01*
X149825094Y-91007265D01*
X149826864Y-91013101D01*
X149887202Y-91158772D01*
X149887209Y-91158785D01*
X149974810Y-91289888D01*
X149974813Y-91289892D01*
X150086307Y-91401386D01*
X150086311Y-91401389D01*
X150217414Y-91488990D01*
X150217427Y-91488997D01*
X150363098Y-91549335D01*
X150363103Y-91549337D01*
X150517753Y-91580099D01*
X150517756Y-91580100D01*
X150517758Y-91580100D01*
X150675444Y-91580100D01*
X150675445Y-91580099D01*
X150830097Y-91549337D01*
X150975779Y-91488994D01*
X151106889Y-91401389D01*
X151218389Y-91289889D01*
X151305994Y-91158779D01*
X151366337Y-91013097D01*
X151397100Y-90858442D01*
X151397100Y-90700758D01*
X151397100Y-90700755D01*
X151397099Y-90700753D01*
X151393210Y-90681200D01*
X151366337Y-90546103D01*
X151354881Y-90518445D01*
X151305997Y-90400427D01*
X151305990Y-90400414D01*
X151218389Y-90269311D01*
X151218386Y-90269307D01*
X151106892Y-90157813D01*
X151106888Y-90157810D01*
X150975785Y-90070209D01*
X150975772Y-90070202D01*
X150830101Y-90009864D01*
X150824265Y-90008094D01*
X150824972Y-90005760D01*
X150772568Y-89978319D01*
X150771027Y-89976805D01*
X148711009Y-87916787D01*
X148677524Y-87855464D01*
X148682508Y-87785772D01*
X148711009Y-87741425D01*
X149872249Y-86580186D01*
X150579801Y-86580186D01*
X150590294Y-86682897D01*
X150645441Y-86849319D01*
X150645443Y-86849324D01*
X150737484Y-86998545D01*
X150861454Y-87122515D01*
X151010675Y-87214556D01*
X151010680Y-87214558D01*
X151177102Y-87269705D01*
X151177109Y-87269706D01*
X151279819Y-87280199D01*
X151417299Y-87280199D01*
X151417300Y-87280198D01*
X151417300Y-86305200D01*
X150579801Y-86305200D01*
X150579801Y-86580186D01*
X149872249Y-86580186D01*
X150286278Y-86166157D01*
X150610916Y-85841519D01*
X150672239Y-85808034D01*
X150698597Y-85805200D01*
X151543300Y-85805200D01*
X151610339Y-85824885D01*
X151656094Y-85877689D01*
X151667300Y-85929200D01*
X151667300Y-86055200D01*
X151793300Y-86055200D01*
X151860339Y-86074885D01*
X151906094Y-86127689D01*
X151917300Y-86179200D01*
X151917300Y-87280199D01*
X152054772Y-87280199D01*
X152054786Y-87280198D01*
X152157497Y-87269705D01*
X152323919Y-87214558D01*
X152323924Y-87214556D01*
X152473145Y-87122515D01*
X152597118Y-86998542D01*
X152598965Y-86995548D01*
X152600769Y-86993924D01*
X152601598Y-86992877D01*
X152601776Y-86993018D01*
X152650910Y-86948821D01*
X152719873Y-86937596D01*
X152783956Y-86965436D01*
X152810043Y-86995541D01*
X152812088Y-86998856D01*
X152936144Y-87122912D01*
X153085466Y-87215014D01*
X153252003Y-87270199D01*
X153354791Y-87280700D01*
X154129808Y-87280699D01*
X154129816Y-87280698D01*
X154129819Y-87280698D01*
X154186102Y-87274948D01*
X154232597Y-87270199D01*
X154399134Y-87215014D01*
X154450605Y-87183266D01*
X154517995Y-87164827D01*
X154584659Y-87185749D01*
X154629429Y-87239391D01*
X154639700Y-87288806D01*
X154639700Y-95692332D01*
X154640386Y-95695780D01*
X154638543Y-95752060D01*
X154594254Y-95917351D01*
X154594252Y-95917363D01*
X154564300Y-96144858D01*
X154564300Y-96374327D01*
X154564301Y-96374344D01*
X154580694Y-96498862D01*
X154569928Y-96567897D01*
X154545436Y-96602728D01*
X153793385Y-97354781D01*
X153732062Y-97388266D01*
X153705704Y-97391100D01*
X151191192Y-97391100D01*
X151124153Y-97371415D01*
X151091926Y-97341412D01*
X151037043Y-97268099D01*
X151017546Y-97242054D01*
X151017544Y-97242053D01*
X151017544Y-97242052D01*
X150902335Y-97155806D01*
X150902328Y-97155802D01*
X150767482Y-97105508D01*
X150767483Y-97105508D01*
X150707883Y-97099101D01*
X150707881Y-97099100D01*
X150707873Y-97099100D01*
X150707864Y-97099100D01*
X149012129Y-97099100D01*
X149012123Y-97099101D01*
X148952516Y-97105508D01*
X148817671Y-97155802D01*
X148817664Y-97155806D01*
X148702455Y-97242052D01*
X148702452Y-97242055D01*
X148616206Y-97357264D01*
X148616202Y-97357271D01*
X148565908Y-97492117D01*
X148559501Y-97551716D01*
X148559500Y-97551735D01*
X148559500Y-99247470D01*
X148559501Y-99247476D01*
X148565908Y-99307083D01*
X148616202Y-99441928D01*
X148616206Y-99441935D01*
X148702452Y-99557144D01*
X148702455Y-99557147D01*
X148817664Y-99643393D01*
X148817671Y-99643397D01*
X148952517Y-99693691D01*
X148952516Y-99693691D01*
X148959444Y-99694435D01*
X149012127Y-99700100D01*
X150707872Y-99700099D01*
X150767483Y-99693691D01*
X150902331Y-99643396D01*
X151017546Y-99557146D01*
X151069009Y-99488399D01*
X151091926Y-99457788D01*
X151147860Y-99415918D01*
X151191192Y-99408100D01*
X154274130Y-99408100D01*
X154274131Y-99408099D01*
X154468969Y-99369344D01*
X154652504Y-99293321D01*
X154817681Y-99182953D01*
X154958153Y-99042481D01*
X155971672Y-98028960D01*
X156032993Y-97995477D01*
X156075531Y-97993704D01*
X156200066Y-98010100D01*
X156200073Y-98010100D01*
X156429527Y-98010100D01*
X156429534Y-98010100D01*
X156657038Y-97980148D01*
X156878687Y-97920758D01*
X157090688Y-97832944D01*
X157289412Y-97718211D01*
X157471461Y-97578519D01*
X157471465Y-97578514D01*
X157471470Y-97578511D01*
X157633710Y-97416270D01*
X157633719Y-97416261D01*
X157710183Y-97316610D01*
X157766609Y-97275411D01*
X157808557Y-97268100D01*
X163808730Y-97268100D01*
X163808731Y-97268099D01*
X164003569Y-97229344D01*
X164187104Y-97153321D01*
X164352281Y-97042953D01*
X164492753Y-96902481D01*
X165316762Y-96078472D01*
X166564300Y-96078472D01*
X166564300Y-96340727D01*
X166585120Y-96498862D01*
X166598530Y-96600716D01*
X166666402Y-96854018D01*
X166666405Y-96854028D01*
X166766753Y-97096290D01*
X166766758Y-97096300D01*
X166897875Y-97323403D01*
X167057518Y-97531451D01*
X167057526Y-97531460D01*
X167242940Y-97716874D01*
X167242948Y-97716881D01*
X167450996Y-97876524D01*
X167678099Y-98007641D01*
X167678109Y-98007646D01*
X167920371Y-98107994D01*
X167920381Y-98107998D01*
X168173684Y-98175870D01*
X168433680Y-98210100D01*
X168433687Y-98210100D01*
X168695913Y-98210100D01*
X168695920Y-98210100D01*
X168955916Y-98175870D01*
X169209219Y-98107998D01*
X169359432Y-98045777D01*
X175620500Y-98045777D01*
X175620500Y-98242622D01*
X175651290Y-98437026D01*
X175712117Y-98624229D01*
X175801476Y-98799605D01*
X175917172Y-98958846D01*
X176056354Y-99098028D01*
X176215595Y-99213724D01*
X176298455Y-99255943D01*
X176390970Y-99303082D01*
X176390972Y-99303082D01*
X176390975Y-99303084D01*
X176491317Y-99335687D01*
X176578173Y-99363909D01*
X176772578Y-99394700D01*
X176772583Y-99394700D01*
X177489422Y-99394700D01*
X177683826Y-99363909D01*
X177871025Y-99303084D01*
X178046405Y-99213724D01*
X178205646Y-99098028D01*
X178344828Y-98958846D01*
X178460524Y-98799605D01*
X178549884Y-98624225D01*
X178610709Y-98437026D01*
X178641500Y-98242622D01*
X178641500Y-98045777D01*
X178610709Y-97851373D01*
X178567440Y-97718207D01*
X178549884Y-97664175D01*
X178549882Y-97664172D01*
X178549882Y-97664170D01*
X178482258Y-97531451D01*
X178460524Y-97488795D01*
X178344828Y-97329554D01*
X178205646Y-97190372D01*
X178046405Y-97074676D01*
X177984145Y-97042953D01*
X177871029Y-96985317D01*
X177683826Y-96924490D01*
X177489422Y-96893700D01*
X177489417Y-96893700D01*
X176772583Y-96893700D01*
X176772578Y-96893700D01*
X176578173Y-96924490D01*
X176390970Y-96985317D01*
X176215594Y-97074676D01*
X176173157Y-97105509D01*
X176056354Y-97190372D01*
X176056352Y-97190374D01*
X176056351Y-97190374D01*
X175917174Y-97329551D01*
X175917174Y-97329552D01*
X175917172Y-97329554D01*
X175886758Y-97371415D01*
X175801476Y-97488794D01*
X175712117Y-97664170D01*
X175651290Y-97851373D01*
X175620500Y-98045777D01*
X169359432Y-98045777D01*
X169386140Y-98034714D01*
X169451490Y-98007646D01*
X169451491Y-98007645D01*
X169451497Y-98007643D01*
X169678603Y-97876524D01*
X169886651Y-97716882D01*
X169886655Y-97716877D01*
X169886660Y-97716874D01*
X170072074Y-97531460D01*
X170072077Y-97531455D01*
X170072082Y-97531451D01*
X170231724Y-97323403D01*
X170362843Y-97096297D01*
X170463198Y-96854019D01*
X170531070Y-96600716D01*
X170565300Y-96340720D01*
X170565300Y-96078480D01*
X170531070Y-95818484D01*
X170463198Y-95565181D01*
X170462559Y-95563639D01*
X170362846Y-95322909D01*
X170362841Y-95322899D01*
X170241595Y-95112894D01*
X170241594Y-95112893D01*
X170235841Y-95102929D01*
X170231724Y-95095797D01*
X170201939Y-95056981D01*
X174285500Y-95056981D01*
X174285500Y-95231415D01*
X174319527Y-95402483D01*
X174319529Y-95402491D01*
X174386278Y-95563639D01*
X174386283Y-95563648D01*
X174483186Y-95708673D01*
X174483189Y-95708677D01*
X174606522Y-95832010D01*
X174606526Y-95832013D01*
X174751551Y-95928916D01*
X174751557Y-95928919D01*
X174751558Y-95928920D01*
X174912709Y-95995671D01*
X175083781Y-96029699D01*
X175083785Y-96029700D01*
X175083786Y-96029700D01*
X175258215Y-96029700D01*
X175258216Y-96029699D01*
X175429291Y-95995671D01*
X175590442Y-95928920D01*
X175735474Y-95832013D01*
X175858813Y-95708674D01*
X175955720Y-95563642D01*
X176022471Y-95402491D01*
X176056500Y-95231414D01*
X176056500Y-95056986D01*
X176022471Y-94885909D01*
X175955720Y-94724758D01*
X175955719Y-94724757D01*
X175955716Y-94724751D01*
X175858813Y-94579726D01*
X175858810Y-94579722D01*
X175735477Y-94456389D01*
X175735473Y-94456386D01*
X175590448Y-94359483D01*
X175590439Y-94359478D01*
X175429291Y-94292729D01*
X175429283Y-94292727D01*
X175258218Y-94258700D01*
X175258214Y-94258700D01*
X175083786Y-94258700D01*
X175083781Y-94258700D01*
X174912716Y-94292727D01*
X174912708Y-94292729D01*
X174751560Y-94359478D01*
X174751551Y-94359483D01*
X174606526Y-94456386D01*
X174606522Y-94456389D01*
X174483189Y-94579722D01*
X174483186Y-94579726D01*
X174386283Y-94724751D01*
X174386278Y-94724760D01*
X174319529Y-94885908D01*
X174319527Y-94885916D01*
X174285500Y-95056981D01*
X170201939Y-95056981D01*
X170072082Y-94887749D01*
X170072081Y-94887748D01*
X170072074Y-94887740D01*
X169886660Y-94702326D01*
X169886651Y-94702318D01*
X169678603Y-94542675D01*
X169451500Y-94411558D01*
X169451490Y-94411553D01*
X169209228Y-94311205D01*
X169209221Y-94311203D01*
X169209219Y-94311202D01*
X168955916Y-94243330D01*
X168898139Y-94235723D01*
X168695927Y-94209100D01*
X168695920Y-94209100D01*
X168433680Y-94209100D01*
X168433672Y-94209100D01*
X168202572Y-94239526D01*
X168173684Y-94243330D01*
X167989331Y-94292727D01*
X167920381Y-94311202D01*
X167920371Y-94311205D01*
X167678109Y-94411553D01*
X167678099Y-94411558D01*
X167450996Y-94542675D01*
X167242948Y-94702318D01*
X167057518Y-94887748D01*
X166897875Y-95095796D01*
X166766758Y-95322899D01*
X166766753Y-95322909D01*
X166666405Y-95565171D01*
X166666402Y-95565181D01*
X166627954Y-95708674D01*
X166598530Y-95818485D01*
X166564300Y-96078472D01*
X165316762Y-96078472D01*
X168397177Y-92998056D01*
X168397181Y-92998054D01*
X168537654Y-92857581D01*
X168537656Y-92857577D01*
X169655852Y-91739381D01*
X174268700Y-91739381D01*
X174268700Y-91913818D01*
X174302727Y-92084883D01*
X174302729Y-92084891D01*
X174369478Y-92246039D01*
X174369483Y-92246048D01*
X174466386Y-92391073D01*
X174466389Y-92391077D01*
X174589722Y-92514410D01*
X174589726Y-92514413D01*
X174734751Y-92611316D01*
X174734757Y-92611319D01*
X174734758Y-92611320D01*
X174895909Y-92678071D01*
X175066981Y-92712099D01*
X175066985Y-92712100D01*
X175066986Y-92712100D01*
X175241415Y-92712100D01*
X175241416Y-92712099D01*
X175412491Y-92678071D01*
X175573642Y-92611320D01*
X175718674Y-92514413D01*
X175842013Y-92391074D01*
X175938920Y-92246042D01*
X176005671Y-92084891D01*
X176039700Y-91913814D01*
X176039700Y-91739386D01*
X176005671Y-91568309D01*
X175938920Y-91407158D01*
X175938919Y-91407157D01*
X175938916Y-91407151D01*
X175842013Y-91262126D01*
X175842010Y-91262122D01*
X175718677Y-91138789D01*
X175718673Y-91138786D01*
X175573648Y-91041883D01*
X175573639Y-91041878D01*
X175412491Y-90975129D01*
X175412483Y-90975127D01*
X175241418Y-90941100D01*
X175241414Y-90941100D01*
X175066986Y-90941100D01*
X175066981Y-90941100D01*
X174895916Y-90975127D01*
X174895908Y-90975129D01*
X174734760Y-91041878D01*
X174734751Y-91041883D01*
X174589726Y-91138786D01*
X174589722Y-91138789D01*
X174466389Y-91262122D01*
X174466386Y-91262126D01*
X174369483Y-91407151D01*
X174369478Y-91407160D01*
X174302729Y-91568308D01*
X174302727Y-91568316D01*
X174268700Y-91739381D01*
X169655852Y-91739381D01*
X170606768Y-90788465D01*
X173118651Y-88276584D01*
X175603700Y-88276584D01*
X175603700Y-89376615D01*
X175614200Y-89479395D01*
X175614201Y-89479397D01*
X175637166Y-89548700D01*
X175669386Y-89645935D01*
X175669387Y-89645937D01*
X175761486Y-89795251D01*
X175761489Y-89795255D01*
X175885544Y-89919310D01*
X175885548Y-89919313D01*
X176034862Y-90011412D01*
X176034864Y-90011413D01*
X176034866Y-90011414D01*
X176201403Y-90066599D01*
X176304192Y-90077100D01*
X176304197Y-90077100D01*
X177924203Y-90077100D01*
X177924208Y-90077100D01*
X178026997Y-90066599D01*
X178193534Y-90011414D01*
X178342855Y-89919311D01*
X178466911Y-89795255D01*
X178559014Y-89645934D01*
X178614199Y-89479397D01*
X178624700Y-89376608D01*
X178624700Y-88276592D01*
X178614199Y-88173803D01*
X178559014Y-88007266D01*
X178546211Y-87986510D01*
X178466913Y-87857948D01*
X178466910Y-87857944D01*
X178342855Y-87733889D01*
X178342851Y-87733886D01*
X178193537Y-87641787D01*
X178193535Y-87641786D01*
X178110265Y-87614193D01*
X178026997Y-87586601D01*
X178026995Y-87586600D01*
X177924215Y-87576100D01*
X177924208Y-87576100D01*
X176304192Y-87576100D01*
X176304184Y-87576100D01*
X176201404Y-87586600D01*
X176201403Y-87586601D01*
X176034864Y-87641786D01*
X176034862Y-87641787D01*
X175885548Y-87733886D01*
X175885544Y-87733889D01*
X175761489Y-87857944D01*
X175761486Y-87857948D01*
X175669387Y-88007262D01*
X175669386Y-88007264D01*
X175614201Y-88173803D01*
X175614200Y-88173804D01*
X175603700Y-88276584D01*
X173118651Y-88276584D01*
X173209481Y-88185754D01*
X173579550Y-87815684D01*
X173579550Y-87815683D01*
X173579553Y-87815681D01*
X173689921Y-87650504D01*
X173765944Y-87466969D01*
X173770551Y-87443808D01*
X173804700Y-87272129D01*
X173804700Y-85728177D01*
X175603700Y-85728177D01*
X175603700Y-85925022D01*
X175634490Y-86119426D01*
X175695317Y-86306629D01*
X175739740Y-86393813D01*
X175784676Y-86482005D01*
X175900372Y-86641246D01*
X176039554Y-86780428D01*
X176198795Y-86896124D01*
X176280189Y-86937596D01*
X176374170Y-86985482D01*
X176374172Y-86985482D01*
X176374175Y-86985484D01*
X176415330Y-86998856D01*
X176561373Y-87046309D01*
X176755778Y-87077100D01*
X176755783Y-87077100D01*
X177472622Y-87077100D01*
X177667026Y-87046309D01*
X177854225Y-86985484D01*
X178029605Y-86896124D01*
X178188846Y-86780428D01*
X178328028Y-86641246D01*
X178443724Y-86482005D01*
X178533084Y-86306625D01*
X178593909Y-86119426D01*
X178600964Y-86074885D01*
X178624700Y-85925022D01*
X178624700Y-85728177D01*
X178593909Y-85533773D01*
X178533082Y-85346570D01*
X178485232Y-85252660D01*
X178443724Y-85171195D01*
X178328028Y-85011954D01*
X178188846Y-84872772D01*
X178029605Y-84757076D01*
X177854229Y-84667717D01*
X177667026Y-84606890D01*
X177472622Y-84576100D01*
X177472617Y-84576100D01*
X176755783Y-84576100D01*
X176755778Y-84576100D01*
X176561373Y-84606890D01*
X176374170Y-84667717D01*
X176198794Y-84757076D01*
X176122494Y-84812512D01*
X176039554Y-84872772D01*
X176039552Y-84872774D01*
X176039551Y-84872774D01*
X175900374Y-85011951D01*
X175900374Y-85011952D01*
X175900372Y-85011954D01*
X175859836Y-85067747D01*
X175784676Y-85171194D01*
X175695317Y-85346570D01*
X175634490Y-85533773D01*
X175603700Y-85728177D01*
X173804700Y-85728177D01*
X173804700Y-82739381D01*
X174268700Y-82739381D01*
X174268700Y-82913818D01*
X174302727Y-83084883D01*
X174302729Y-83084891D01*
X174369478Y-83246039D01*
X174369483Y-83246048D01*
X174466386Y-83391073D01*
X174466389Y-83391077D01*
X174589722Y-83514410D01*
X174589726Y-83514413D01*
X174734751Y-83611316D01*
X174734760Y-83611321D01*
X174771266Y-83626442D01*
X174895909Y-83678071D01*
X175066981Y-83712099D01*
X175066985Y-83712100D01*
X175066986Y-83712100D01*
X175241415Y-83712100D01*
X175241416Y-83712099D01*
X175412491Y-83678071D01*
X175573642Y-83611320D01*
X175718674Y-83514413D01*
X175842013Y-83391074D01*
X175938920Y-83246042D01*
X176005671Y-83084891D01*
X176039700Y-82913814D01*
X176039700Y-82739386D01*
X176005671Y-82568309D01*
X175938920Y-82407158D01*
X175938919Y-82407157D01*
X175938916Y-82407151D01*
X175842013Y-82262126D01*
X175842010Y-82262122D01*
X175718677Y-82138789D01*
X175718673Y-82138786D01*
X175573648Y-82041883D01*
X175573639Y-82041878D01*
X175412491Y-81975129D01*
X175412483Y-81975127D01*
X175241418Y-81941100D01*
X175241414Y-81941100D01*
X175066986Y-81941100D01*
X175066981Y-81941100D01*
X174895916Y-81975127D01*
X174895908Y-81975129D01*
X174734760Y-82041878D01*
X174734751Y-82041883D01*
X174589726Y-82138786D01*
X174589722Y-82138789D01*
X174466389Y-82262122D01*
X174466386Y-82262126D01*
X174369483Y-82407151D01*
X174369478Y-82407160D01*
X174302729Y-82568308D01*
X174302727Y-82568316D01*
X174268700Y-82739381D01*
X173804700Y-82739381D01*
X173804700Y-79366781D01*
X174268700Y-79366781D01*
X174268700Y-79541218D01*
X174302727Y-79712283D01*
X174302729Y-79712291D01*
X174369478Y-79873439D01*
X174369483Y-79873448D01*
X174466386Y-80018473D01*
X174466389Y-80018477D01*
X174589722Y-80141810D01*
X174589726Y-80141813D01*
X174734751Y-80238716D01*
X174734757Y-80238719D01*
X174734758Y-80238720D01*
X174895909Y-80305471D01*
X175066981Y-80339499D01*
X175066985Y-80339500D01*
X175066986Y-80339500D01*
X175241415Y-80339500D01*
X175241416Y-80339499D01*
X175412491Y-80305471D01*
X175573642Y-80238720D01*
X175718674Y-80141813D01*
X175842013Y-80018474D01*
X175938920Y-79873442D01*
X176005671Y-79712291D01*
X176039700Y-79541214D01*
X176039700Y-79366786D01*
X176005671Y-79195709D01*
X175938920Y-79034558D01*
X175938919Y-79034557D01*
X175938916Y-79034551D01*
X175842013Y-78889526D01*
X175842010Y-78889522D01*
X175718677Y-78766189D01*
X175718673Y-78766186D01*
X175573648Y-78669283D01*
X175573639Y-78669278D01*
X175412491Y-78602529D01*
X175412483Y-78602527D01*
X175241418Y-78568500D01*
X175241414Y-78568500D01*
X175066986Y-78568500D01*
X175066981Y-78568500D01*
X174895916Y-78602527D01*
X174895908Y-78602529D01*
X174734760Y-78669278D01*
X174734751Y-78669283D01*
X174589726Y-78766186D01*
X174589722Y-78766189D01*
X174466389Y-78889522D01*
X174466386Y-78889526D01*
X174369483Y-79034551D01*
X174369478Y-79034560D01*
X174302729Y-79195708D01*
X174302727Y-79195716D01*
X174268700Y-79366781D01*
X173804700Y-79366781D01*
X173804700Y-77841903D01*
X173824385Y-77774864D01*
X173877189Y-77729109D01*
X173883849Y-77726299D01*
X173893022Y-77722739D01*
X173898245Y-77720713D01*
X173921977Y-77703201D01*
X173987606Y-77679240D01*
X174047820Y-77690515D01*
X174136349Y-77731625D01*
X174136353Y-77731626D01*
X174136354Y-77731627D01*
X174202346Y-77751459D01*
X174203220Y-77751728D01*
X174203262Y-77751734D01*
X174203266Y-77751736D01*
X174345550Y-77773113D01*
X178119030Y-77796996D01*
X178182742Y-77792532D01*
X178195876Y-77791613D01*
X178223829Y-77787496D01*
X178233148Y-77786124D01*
X178308261Y-77769133D01*
X178438345Y-77707654D01*
X178496623Y-77669113D01*
X178604116Y-77573477D01*
X178680311Y-77451429D01*
X178705661Y-77393938D01*
X178707959Y-77389438D01*
X178708501Y-77387499D01*
X178708502Y-77387498D01*
X178747226Y-77248927D01*
X178747228Y-77248915D01*
X178943828Y-75741646D01*
X178943828Y-75741641D01*
X178943323Y-75607114D01*
X178943323Y-75607113D01*
X178935088Y-75547481D01*
X178934375Y-75542314D01*
X178898398Y-75412670D01*
X178879903Y-75382298D01*
X178823568Y-75289784D01*
X178823568Y-75289783D01*
X178805781Y-75268222D01*
X178779104Y-75235884D01*
X178748952Y-75208450D01*
X178672693Y-75139064D01*
X178672692Y-75139063D01*
X178543302Y-75076136D01*
X178477465Y-75055056D01*
X178476825Y-75054847D01*
X178476753Y-75054829D01*
X178426459Y-75046349D01*
X178334875Y-75030907D01*
X178334880Y-75030907D01*
X176908078Y-74996318D01*
X174451226Y-74936758D01*
X174451223Y-74936758D01*
X174451217Y-74936758D01*
X174351101Y-74944306D01*
X174351092Y-74944307D01*
X174302845Y-74952824D01*
X174302830Y-74952828D01*
X174235539Y-74971756D01*
X174206985Y-74979788D01*
X174198950Y-74982048D01*
X174198314Y-74979788D01*
X174140278Y-74986171D01*
X174085833Y-74961939D01*
X174009482Y-74902509D01*
X174009479Y-74902507D01*
X173875645Y-74849699D01*
X173875640Y-74849697D01*
X173808373Y-74833732D01*
X173807742Y-74833578D01*
X173807660Y-74833564D01*
X173664368Y-74820602D01*
X173664365Y-74820602D01*
X173664364Y-74820602D01*
X173641732Y-74821793D01*
X173562353Y-74825970D01*
X173521048Y-74821160D01*
X172461125Y-74511336D01*
X172408233Y-74479997D01*
X172354286Y-74426049D01*
X172354283Y-74426046D01*
X172189104Y-74315677D01*
X172155882Y-74301917D01*
X172105956Y-74281237D01*
X172051553Y-74237396D01*
X172047030Y-74230388D01*
X171808670Y-73832085D01*
X171776169Y-73777774D01*
X171758635Y-73710140D01*
X171780450Y-73643763D01*
X171834688Y-73599718D01*
X171882567Y-73590099D01*
X172527208Y-73590099D01*
X172527216Y-73590098D01*
X172527219Y-73590098D01*
X172605660Y-73582085D01*
X172629997Y-73579599D01*
X172796534Y-73524414D01*
X172945856Y-73432312D01*
X173069912Y-73308256D01*
X173071952Y-73304947D01*
X173073945Y-73303155D01*
X173074393Y-73302589D01*
X173074489Y-73302665D01*
X173123894Y-73258223D01*
X173192856Y-73246995D01*
X173256940Y-73274834D01*
X173283029Y-73304939D01*
X173284881Y-73307941D01*
X173284883Y-73307944D01*
X173408854Y-73431915D01*
X173558075Y-73523956D01*
X173558080Y-73523958D01*
X173724502Y-73579105D01*
X173724509Y-73579106D01*
X173827219Y-73589599D01*
X173964699Y-73589599D01*
X174464700Y-73589599D01*
X174602172Y-73589599D01*
X174602186Y-73589598D01*
X174704897Y-73579105D01*
X174795056Y-73549230D01*
X174871319Y-73523958D01*
X174871324Y-73523956D01*
X175020545Y-73431915D01*
X175144515Y-73307945D01*
X175208630Y-73204000D01*
X175628216Y-73204000D01*
X176669640Y-73204000D01*
X176638955Y-73257147D01*
X176604200Y-73386857D01*
X176604200Y-73521143D01*
X176638955Y-73650853D01*
X176669640Y-73704000D01*
X175628216Y-73704000D01*
X175634981Y-73746716D01*
X175695781Y-73933837D01*
X175785104Y-74109143D01*
X175900755Y-74268321D01*
X176039878Y-74407444D01*
X176199056Y-74523095D01*
X176374364Y-74612418D01*
X176561494Y-74673221D01*
X176755818Y-74704000D01*
X176864200Y-74704000D01*
X176864200Y-73898560D01*
X176917347Y-73929245D01*
X177047057Y-73964000D01*
X177181343Y-73964000D01*
X177311053Y-73929245D01*
X177364200Y-73898560D01*
X177364200Y-74704000D01*
X177472582Y-74704000D01*
X177666905Y-74673221D01*
X177854035Y-74612418D01*
X178029343Y-74523095D01*
X178188521Y-74407444D01*
X178327644Y-74268321D01*
X178443295Y-74109143D01*
X178532618Y-73933837D01*
X178593418Y-73746716D01*
X178600184Y-73704000D01*
X177558760Y-73704000D01*
X177589445Y-73650853D01*
X177624200Y-73521143D01*
X177624200Y-73386857D01*
X177589445Y-73257147D01*
X177558760Y-73204000D01*
X178600184Y-73204000D01*
X178593418Y-73161283D01*
X178532618Y-72974162D01*
X178443295Y-72798856D01*
X178327644Y-72639678D01*
X178188521Y-72500555D01*
X178029343Y-72384904D01*
X177854035Y-72295581D01*
X177666905Y-72234778D01*
X177472582Y-72204000D01*
X177364200Y-72204000D01*
X177364200Y-73009439D01*
X177311053Y-72978755D01*
X177181343Y-72944000D01*
X177047057Y-72944000D01*
X176917347Y-72978755D01*
X176864200Y-73009439D01*
X176864200Y-72204000D01*
X176755818Y-72204000D01*
X176561494Y-72234778D01*
X176374364Y-72295581D01*
X176199056Y-72384904D01*
X176039878Y-72500555D01*
X175900755Y-72639678D01*
X175785104Y-72798856D01*
X175695781Y-72974162D01*
X175634981Y-73161283D01*
X175628216Y-73204000D01*
X175208630Y-73204000D01*
X175225921Y-73175967D01*
X175225922Y-73175965D01*
X175236553Y-73158728D01*
X175236558Y-73158719D01*
X175291705Y-72992297D01*
X175291706Y-72992290D01*
X175302199Y-72889586D01*
X175302200Y-72889573D01*
X175302200Y-72614600D01*
X174464700Y-72614600D01*
X174464700Y-73589599D01*
X173964699Y-73589599D01*
X173964700Y-73589598D01*
X173964700Y-71139600D01*
X173827227Y-71139600D01*
X173827212Y-71139601D01*
X173724502Y-71150094D01*
X173558080Y-71205241D01*
X173558075Y-71205243D01*
X173408854Y-71297284D01*
X173284883Y-71421255D01*
X173284879Y-71421260D01*
X173283026Y-71424265D01*
X173281218Y-71425890D01*
X173280402Y-71426923D01*
X173280225Y-71426783D01*
X173231074Y-71470985D01*
X173162111Y-71482201D01*
X173098031Y-71454352D01*
X173071953Y-71424253D01*
X173071937Y-71424228D01*
X173069912Y-71420944D01*
X172945856Y-71296888D01*
X172806396Y-71210869D01*
X172796536Y-71204787D01*
X172796531Y-71204785D01*
X172785890Y-71201259D01*
X172629997Y-71149601D01*
X172629995Y-71149600D01*
X172527210Y-71139100D01*
X171752198Y-71139100D01*
X171752180Y-71139101D01*
X171649403Y-71149600D01*
X171649400Y-71149601D01*
X171482866Y-71204786D01*
X171473003Y-71210869D01*
X171405609Y-71229304D01*
X171338947Y-71208376D01*
X171305352Y-71175017D01*
X171271566Y-71125294D01*
X171237888Y-71088383D01*
X171224470Y-71073676D01*
X171224464Y-71073671D01*
X171113351Y-70982272D01*
X170980992Y-70925881D01*
X170980986Y-70925879D01*
X170980984Y-70925878D01*
X170913463Y-70907919D01*
X170913461Y-70907918D01*
X170913459Y-70907918D01*
X170770568Y-70891100D01*
X169040358Y-70935465D01*
X169040340Y-70935467D01*
X168924882Y-70951886D01*
X168869911Y-70966325D01*
X168869906Y-70966327D01*
X168761284Y-71008769D01*
X168761278Y-71008772D01*
X168645101Y-71093640D01*
X168645097Y-71093644D01*
X168595789Y-71141813D01*
X168595113Y-71142473D01*
X168507556Y-71256628D01*
X168507552Y-71256636D01*
X168455700Y-71390843D01*
X168440050Y-71458940D01*
X168439712Y-71461917D01*
X168439623Y-71464079D01*
X168428110Y-71602311D01*
X168428110Y-71602325D01*
X168677662Y-75776691D01*
X168677664Y-75776701D01*
X168705994Y-75915940D01*
X168729119Y-75980952D01*
X168730873Y-75984962D01*
X168729421Y-75985596D01*
X168741700Y-76035478D01*
X168741700Y-76057267D01*
X168741701Y-76057277D01*
X168748108Y-76116883D01*
X168798402Y-76251728D01*
X168798406Y-76251735D01*
X168884652Y-76366944D01*
X168884655Y-76366947D01*
X168999864Y-76453193D01*
X168999871Y-76453197D01*
X169044818Y-76469961D01*
X169134717Y-76503491D01*
X169194327Y-76509900D01*
X169194353Y-76509899D01*
X169197653Y-76510078D01*
X169197565Y-76511708D01*
X169258438Y-76529467D01*
X169304284Y-76582191D01*
X169312004Y-76625651D01*
X169995754Y-77309400D01*
X169989539Y-77309400D01*
X169887806Y-77336659D01*
X169796594Y-77389320D01*
X169722120Y-77463794D01*
X169669459Y-77555006D01*
X169642200Y-77656739D01*
X169642200Y-77662953D01*
X168962724Y-76983477D01*
X168962723Y-76983477D01*
X168930343Y-77028044D01*
X168837444Y-77210368D01*
X168774209Y-77404982D01*
X168742200Y-77607082D01*
X168742200Y-77811717D01*
X168774209Y-78013817D01*
X168837444Y-78208431D01*
X168930341Y-78390750D01*
X168930347Y-78390759D01*
X168962723Y-78435321D01*
X168962724Y-78435322D01*
X169642200Y-77755846D01*
X169642200Y-77762061D01*
X169669459Y-77863794D01*
X169722120Y-77955006D01*
X169796594Y-78029480D01*
X169887806Y-78082141D01*
X169989539Y-78109400D01*
X169995753Y-78109400D01*
X169316276Y-78788874D01*
X169360850Y-78821259D01*
X169543168Y-78914155D01*
X169737782Y-78977390D01*
X169939883Y-79009400D01*
X170144517Y-79009400D01*
X170346617Y-78977390D01*
X170541231Y-78914155D01*
X170723549Y-78821259D01*
X170768121Y-78788874D01*
X170088647Y-78109400D01*
X170094861Y-78109400D01*
X170196594Y-78082141D01*
X170287806Y-78029480D01*
X170362280Y-77955006D01*
X170414941Y-77863794D01*
X170442200Y-77762061D01*
X170442200Y-77755846D01*
X171121674Y-78435321D01*
X171154059Y-78390749D01*
X171246955Y-78208431D01*
X171310190Y-78013817D01*
X171342200Y-77811717D01*
X171342200Y-77607082D01*
X171310658Y-77407939D01*
X171319612Y-77338646D01*
X171364608Y-77285194D01*
X171431360Y-77264554D01*
X171478644Y-77273196D01*
X171709217Y-77364182D01*
X171764350Y-77407100D01*
X171787529Y-77473013D01*
X171787700Y-77479526D01*
X171787700Y-86703703D01*
X171768015Y-86770742D01*
X171751381Y-86791384D01*
X167841981Y-90700784D01*
X167780658Y-90734269D01*
X167710966Y-90729285D01*
X167666619Y-90700784D01*
X167335619Y-90369784D01*
X167302134Y-90308461D01*
X167299300Y-90282103D01*
X167299300Y-88747916D01*
X167301683Y-88723724D01*
X167327700Y-88592931D01*
X167327700Y-87763170D01*
X167327699Y-87763166D01*
X167305289Y-87650504D01*
X167288944Y-87568331D01*
X167212921Y-87384796D01*
X167212920Y-87384795D01*
X167212917Y-87384789D01*
X167102554Y-87219620D01*
X167047761Y-87164827D01*
X166962081Y-87079147D01*
X166499818Y-86616884D01*
X166466333Y-86555561D01*
X166463499Y-86529203D01*
X166463499Y-86393798D01*
X166463498Y-86393781D01*
X166452999Y-86291003D01*
X166452998Y-86291000D01*
X166432601Y-86229447D01*
X166397814Y-86124466D01*
X166305712Y-85975144D01*
X166181656Y-85851088D01*
X166088888Y-85793869D01*
X166032336Y-85758987D01*
X166032331Y-85758985D01*
X166017396Y-85754036D01*
X165865797Y-85703801D01*
X165865795Y-85703800D01*
X165763010Y-85693300D01*
X164987998Y-85693300D01*
X164987980Y-85693301D01*
X164885203Y-85703800D01*
X164885200Y-85703801D01*
X164718668Y-85758985D01*
X164718663Y-85758987D01*
X164569342Y-85851089D01*
X164445288Y-85975143D01*
X164445283Y-85975149D01*
X164443241Y-85978461D01*
X164441247Y-85980253D01*
X164440807Y-85980811D01*
X164440711Y-85980735D01*
X164391291Y-86025183D01*
X164322328Y-86036402D01*
X164258247Y-86008555D01*
X164232168Y-85978456D01*
X164230319Y-85975459D01*
X164230316Y-85975455D01*
X164106345Y-85851484D01*
X163957124Y-85759443D01*
X163957119Y-85759441D01*
X163790697Y-85704294D01*
X163790690Y-85704293D01*
X163687986Y-85693800D01*
X163550500Y-85693800D01*
X163550500Y-88143799D01*
X163687972Y-88143799D01*
X163687986Y-88143798D01*
X163790697Y-88133305D01*
X163957119Y-88078158D01*
X163957124Y-88078156D01*
X164106345Y-87986115D01*
X164230318Y-87862142D01*
X164232165Y-87859148D01*
X164233969Y-87857524D01*
X164234798Y-87856477D01*
X164234976Y-87856618D01*
X164284110Y-87812421D01*
X164353073Y-87801196D01*
X164417156Y-87829036D01*
X164443243Y-87859141D01*
X164445288Y-87862456D01*
X164569344Y-87986512D01*
X164718666Y-88078614D01*
X164885203Y-88133799D01*
X164987991Y-88144300D01*
X165123402Y-88144299D01*
X165152847Y-88152944D01*
X165182830Y-88159467D01*
X165187843Y-88163219D01*
X165190442Y-88163983D01*
X165211084Y-88180618D01*
X165250437Y-88219971D01*
X165283922Y-88281294D01*
X165284374Y-88331842D01*
X165283906Y-88334194D01*
X165272938Y-88389341D01*
X165271800Y-88395060D01*
X165271800Y-88592142D01*
X165279917Y-88632946D01*
X165282300Y-88657139D01*
X165282300Y-90850533D01*
X165321054Y-91045361D01*
X165321056Y-91045369D01*
X165345716Y-91104903D01*
X165397077Y-91228901D01*
X165397082Y-91228910D01*
X165507446Y-91394080D01*
X165507449Y-91394084D01*
X166240384Y-92127019D01*
X166273869Y-92188342D01*
X166268885Y-92258034D01*
X166240384Y-92302381D01*
X163327985Y-95214781D01*
X163266662Y-95248266D01*
X163240304Y-95251100D01*
X157808557Y-95251100D01*
X157741518Y-95231415D01*
X157710185Y-95202591D01*
X157633719Y-95102939D01*
X157633713Y-95102933D01*
X157633710Y-95102929D01*
X157471470Y-94940689D01*
X157471461Y-94940681D01*
X157289417Y-94800992D01*
X157090690Y-94686257D01*
X157090676Y-94686250D01*
X156878689Y-94598443D01*
X156878690Y-94598443D01*
X156878687Y-94598442D01*
X156799119Y-94577122D01*
X156748606Y-94563587D01*
X156688946Y-94527222D01*
X156658417Y-94464374D01*
X156656700Y-94443812D01*
X156656700Y-87443786D01*
X162213001Y-87443786D01*
X162223494Y-87546497D01*
X162278641Y-87712919D01*
X162278643Y-87712924D01*
X162370684Y-87862145D01*
X162494654Y-87986115D01*
X162643875Y-88078156D01*
X162643880Y-88078158D01*
X162810302Y-88133305D01*
X162810309Y-88133306D01*
X162913019Y-88143799D01*
X163050499Y-88143799D01*
X163050500Y-88143798D01*
X163050500Y-87168800D01*
X162213001Y-87168800D01*
X162213001Y-87443786D01*
X156656700Y-87443786D01*
X156656700Y-86393813D01*
X162213000Y-86393813D01*
X162213000Y-86668800D01*
X163050500Y-86668800D01*
X163050500Y-85693800D01*
X162913027Y-85693800D01*
X162913012Y-85693801D01*
X162810302Y-85704294D01*
X162643880Y-85759441D01*
X162643875Y-85759443D01*
X162494654Y-85851484D01*
X162370684Y-85975454D01*
X162278643Y-86124675D01*
X162278641Y-86124680D01*
X162223494Y-86291102D01*
X162223493Y-86291109D01*
X162213000Y-86393813D01*
X156656700Y-86393813D01*
X156656700Y-85955870D01*
X156656699Y-85955866D01*
X156616958Y-85756073D01*
X156616449Y-85754046D01*
X156613251Y-85737965D01*
X156583083Y-85665133D01*
X156537835Y-85555892D01*
X156537828Y-85555879D01*
X156428339Y-85392018D01*
X156428336Y-85392014D01*
X156288985Y-85252663D01*
X156288981Y-85252660D01*
X156125120Y-85143171D01*
X156125107Y-85143164D01*
X155943039Y-85067750D01*
X155943029Y-85067747D01*
X155749743Y-85029300D01*
X155749741Y-85029300D01*
X155552659Y-85029300D01*
X155552657Y-85029300D01*
X155501421Y-85039491D01*
X155477163Y-85044317D01*
X155452973Y-85046700D01*
X154659030Y-85046700D01*
X154591991Y-85027015D01*
X154571349Y-85010381D01*
X154548457Y-84987489D01*
X154548456Y-84987488D01*
X154399134Y-84895386D01*
X154232597Y-84840201D01*
X154232595Y-84840200D01*
X154129810Y-84829700D01*
X153354798Y-84829700D01*
X153354780Y-84829701D01*
X153252003Y-84840200D01*
X153252000Y-84840201D01*
X153085468Y-84895385D01*
X153085463Y-84895387D01*
X152936142Y-84987489D01*
X152812088Y-85111543D01*
X152812083Y-85111549D01*
X152810041Y-85114861D01*
X152808047Y-85116653D01*
X152807607Y-85117211D01*
X152807511Y-85117135D01*
X152758091Y-85161583D01*
X152689128Y-85172802D01*
X152625047Y-85144955D01*
X152598968Y-85114856D01*
X152597119Y-85111859D01*
X152597116Y-85111855D01*
X152473145Y-84987884D01*
X152323924Y-84895843D01*
X152323919Y-84895841D01*
X152192476Y-84852285D01*
X152135031Y-84812512D01*
X152108208Y-84747996D01*
X152120523Y-84679220D01*
X152162587Y-84631479D01*
X152204681Y-84603353D01*
X152345153Y-84462881D01*
X152455521Y-84297704D01*
X152531544Y-84114169D01*
X152570300Y-83919329D01*
X152570300Y-83720671D01*
X152531544Y-83525831D01*
X152455521Y-83342296D01*
X152455520Y-83342295D01*
X152455517Y-83342289D01*
X152345154Y-83177120D01*
X152290267Y-83122233D01*
X152204681Y-83036647D01*
X152204680Y-83036646D01*
X150824719Y-81656685D01*
X150791234Y-81595362D01*
X150788400Y-81569004D01*
X150788400Y-74337386D01*
X159927001Y-74337386D01*
X159937494Y-74440097D01*
X159992641Y-74606519D01*
X159992643Y-74606524D01*
X160084684Y-74755745D01*
X160208654Y-74879715D01*
X160357875Y-74971756D01*
X160357880Y-74971758D01*
X160524302Y-75026905D01*
X160524309Y-75026906D01*
X160627019Y-75037399D01*
X160764499Y-75037399D01*
X160764500Y-75037398D01*
X160764500Y-74062400D01*
X159927001Y-74062400D01*
X159927001Y-74337386D01*
X150788400Y-74337386D01*
X150788400Y-73816247D01*
X150800017Y-73763845D01*
X150802212Y-73759137D01*
X150802212Y-73759135D01*
X150802214Y-73759133D01*
X150857399Y-73592596D01*
X150867900Y-73489808D01*
X150867899Y-73354394D01*
X150887583Y-73287355D01*
X150904213Y-73266718D01*
X152361714Y-71809219D01*
X152423037Y-71775734D01*
X152449395Y-71772900D01*
X156502904Y-71772900D01*
X156569943Y-71792585D01*
X156590585Y-71809219D01*
X157534847Y-72753481D01*
X157620165Y-72838799D01*
X157675320Y-72893954D01*
X157840489Y-73004317D01*
X157840495Y-73004320D01*
X157840496Y-73004321D01*
X158024031Y-73080344D01*
X158218866Y-73119099D01*
X158218870Y-73119100D01*
X158218871Y-73119100D01*
X159806882Y-73119100D01*
X159873921Y-73138785D01*
X159919676Y-73191589D01*
X159930240Y-73255702D01*
X159927000Y-73287411D01*
X159927000Y-73562400D01*
X160890500Y-73562400D01*
X160957539Y-73582085D01*
X161003294Y-73634889D01*
X161014500Y-73686400D01*
X161014500Y-73812400D01*
X161140500Y-73812400D01*
X161207539Y-73832085D01*
X161253294Y-73884889D01*
X161264500Y-73936400D01*
X161264500Y-75037399D01*
X161401972Y-75037399D01*
X161401986Y-75037398D01*
X161504697Y-75026905D01*
X161671119Y-74971758D01*
X161671124Y-74971756D01*
X161820345Y-74879715D01*
X161944318Y-74755742D01*
X161946165Y-74752748D01*
X161947969Y-74751124D01*
X161948798Y-74750077D01*
X161948976Y-74750218D01*
X161998110Y-74706021D01*
X162067073Y-74694796D01*
X162131156Y-74722636D01*
X162157243Y-74752741D01*
X162159288Y-74756056D01*
X162283344Y-74880112D01*
X162432666Y-74972214D01*
X162599203Y-75027399D01*
X162701991Y-75037900D01*
X163477008Y-75037899D01*
X163519283Y-75033580D01*
X163587974Y-75046349D01*
X163638859Y-75094229D01*
X163655780Y-75162019D01*
X163644678Y-75208450D01*
X163600231Y-75305772D01*
X163600230Y-75305777D01*
X163579750Y-75448233D01*
X163600230Y-75590688D01*
X163600231Y-75590693D01*
X163650466Y-75700690D01*
X163661657Y-75754154D01*
X163656941Y-76053692D01*
X163656941Y-76053696D01*
X163664845Y-76151045D01*
X163673282Y-76197996D01*
X163680724Y-76224417D01*
X163687253Y-76247601D01*
X163694356Y-76272818D01*
X163699000Y-76306435D01*
X163699000Y-76900314D01*
X163694606Y-76895920D01*
X163603394Y-76843259D01*
X163501661Y-76816000D01*
X163396339Y-76816000D01*
X163294606Y-76843259D01*
X163203394Y-76895920D01*
X163199000Y-76900314D01*
X163199000Y-75939390D01*
X163144586Y-75948009D01*
X162949970Y-76011244D01*
X162767650Y-76104140D01*
X162602105Y-76224417D01*
X162602104Y-76224417D01*
X162457417Y-76369104D01*
X162457417Y-76369105D01*
X162337140Y-76534650D01*
X162244244Y-76716970D01*
X162181009Y-76911586D01*
X162172391Y-76966000D01*
X163133314Y-76966000D01*
X163128920Y-76970394D01*
X163076259Y-77061606D01*
X163049000Y-77163339D01*
X163049000Y-77268661D01*
X163076259Y-77370394D01*
X163128920Y-77461606D01*
X163133314Y-77466000D01*
X162172391Y-77466000D01*
X162181009Y-77520413D01*
X162244244Y-77715029D01*
X162337140Y-77897349D01*
X162457417Y-78062894D01*
X162457417Y-78062895D01*
X162602104Y-78207582D01*
X162767650Y-78327859D01*
X162949968Y-78420754D01*
X163144578Y-78483988D01*
X163199000Y-78492607D01*
X163199000Y-77531686D01*
X163203394Y-77536080D01*
X163294606Y-77588741D01*
X163396339Y-77616000D01*
X163501661Y-77616000D01*
X163603394Y-77588741D01*
X163694606Y-77536080D01*
X163699000Y-77531686D01*
X163699000Y-78492606D01*
X163753421Y-78483988D01*
X163948031Y-78420754D01*
X164130349Y-78327859D01*
X164295894Y-78207582D01*
X164295895Y-78207582D01*
X164440582Y-78062895D01*
X164440587Y-78062889D01*
X164464082Y-78030552D01*
X164519412Y-77987886D01*
X164589025Y-77981907D01*
X164650820Y-78014512D01*
X164685177Y-78075351D01*
X164688400Y-78103437D01*
X164688400Y-81846943D01*
X164688400Y-81983057D01*
X164688400Y-81983059D01*
X164688399Y-81983059D01*
X164714953Y-82116551D01*
X164714956Y-82116561D01*
X164767042Y-82242309D01*
X164767044Y-82242312D01*
X164842663Y-82355485D01*
X164842669Y-82355492D01*
X167573081Y-85085902D01*
X167606566Y-85147225D01*
X167609400Y-85173583D01*
X167609400Y-86169677D01*
X167592124Y-86228509D01*
X167593879Y-86229447D01*
X167591002Y-86234828D01*
X167530664Y-86380498D01*
X167530661Y-86380510D01*
X167499900Y-86535153D01*
X167499900Y-86692846D01*
X167530661Y-86847489D01*
X167530664Y-86847501D01*
X167591002Y-86993172D01*
X167591009Y-86993185D01*
X167678610Y-87124288D01*
X167678613Y-87124292D01*
X167790107Y-87235786D01*
X167790111Y-87235789D01*
X167921214Y-87323390D01*
X167921227Y-87323397D01*
X168066898Y-87383735D01*
X168066903Y-87383737D01*
X168221553Y-87414499D01*
X168221556Y-87414500D01*
X168221558Y-87414500D01*
X168379244Y-87414500D01*
X168379245Y-87414499D01*
X168533897Y-87383737D01*
X168679579Y-87323394D01*
X168810689Y-87235789D01*
X168922189Y-87124289D01*
X169009794Y-86993179D01*
X169070137Y-86847497D01*
X169100900Y-86692842D01*
X169100900Y-86535158D01*
X169100900Y-86535155D01*
X169100899Y-86535153D01*
X169090327Y-86482005D01*
X169070137Y-86380503D01*
X169009794Y-86234821D01*
X169009790Y-86234815D01*
X169006921Y-86229447D01*
X169009076Y-86228294D01*
X168991419Y-86171869D01*
X168991400Y-86169677D01*
X168991400Y-84767939D01*
X168964846Y-84634448D01*
X168964845Y-84634447D01*
X168964845Y-84634443D01*
X168951967Y-84603353D01*
X168912759Y-84508695D01*
X168912752Y-84508682D01*
X168837135Y-84395514D01*
X168837134Y-84395513D01*
X168740887Y-84299266D01*
X168560382Y-84118761D01*
X168545166Y-84090895D01*
X168528482Y-84063888D01*
X168528543Y-84060452D01*
X168526897Y-84057438D01*
X168529161Y-84025767D01*
X168529728Y-83994030D01*
X168531731Y-83989842D01*
X168531881Y-83987746D01*
X168544956Y-83962197D01*
X168571755Y-83922089D01*
X168587168Y-83903308D01*
X168617389Y-83873089D01*
X168704994Y-83741979D01*
X168765337Y-83596297D01*
X168796100Y-83441642D01*
X168796100Y-83283958D01*
X168796100Y-83283955D01*
X168796099Y-83283953D01*
X168769341Y-83149432D01*
X168765337Y-83129303D01*
X168748975Y-83089801D01*
X168704997Y-82983627D01*
X168704990Y-82983614D01*
X168617389Y-82852511D01*
X168617386Y-82852507D01*
X168505892Y-82741013D01*
X168505888Y-82741010D01*
X168374785Y-82653409D01*
X168374772Y-82653402D01*
X168229101Y-82593064D01*
X168229089Y-82593061D01*
X168074445Y-82562300D01*
X168074442Y-82562300D01*
X167916758Y-82562300D01*
X167916755Y-82562300D01*
X167762110Y-82593061D01*
X167762098Y-82593064D01*
X167616427Y-82653402D01*
X167616414Y-82653409D01*
X167485311Y-82741010D01*
X167421652Y-82804669D01*
X167360328Y-82838153D01*
X167290637Y-82833168D01*
X167246290Y-82804668D01*
X166106719Y-81665097D01*
X166073234Y-81603774D01*
X166070400Y-81577416D01*
X166070400Y-76871575D01*
X166090085Y-76804536D01*
X166142889Y-76758781D01*
X166196952Y-76747601D01*
X166483036Y-76753501D01*
X166603471Y-76741491D01*
X166661010Y-76728661D01*
X166775143Y-76688365D01*
X166893713Y-76606863D01*
X166945073Y-76559493D01*
X167035877Y-76447889D01*
X167091561Y-76315221D01*
X167109158Y-76247604D01*
X167125210Y-76104624D01*
X167122314Y-76011244D01*
X166976250Y-71300688D01*
X166972992Y-71275834D01*
X166963218Y-71201269D01*
X166952073Y-71153602D01*
X166919667Y-71058696D01*
X166919666Y-71058694D01*
X166841883Y-70937662D01*
X166841874Y-70937651D01*
X166796130Y-70884859D01*
X166796126Y-70884856D01*
X166796124Y-70884853D01*
X166687390Y-70790633D01*
X166687387Y-70790631D01*
X166687385Y-70790630D01*
X166556519Y-70730864D01*
X166556514Y-70730862D01*
X166556513Y-70730862D01*
X166493241Y-70712283D01*
X166489471Y-70711176D01*
X166421635Y-70701423D01*
X166347054Y-70690700D01*
X164361063Y-70690700D01*
X164296335Y-70697401D01*
X164257496Y-70701423D01*
X164224740Y-70708279D01*
X164207770Y-70711832D01*
X164207767Y-70711832D01*
X164207762Y-70711834D01*
X164108611Y-70743539D01*
X164108609Y-70743540D01*
X163986365Y-70819406D01*
X163986360Y-70819409D01*
X163932850Y-70864320D01*
X163932832Y-70864339D01*
X163893851Y-70907920D01*
X163836920Y-70971568D01*
X163819218Y-71008769D01*
X163808457Y-71031382D01*
X163761876Y-71083459D01*
X163696488Y-71102100D01*
X158787296Y-71102100D01*
X158720257Y-71082415D01*
X158699615Y-71065781D01*
X158082210Y-70448375D01*
X158000616Y-70366781D01*
X174268700Y-70366781D01*
X174268700Y-70541218D01*
X174302727Y-70712283D01*
X174302729Y-70712291D01*
X174369478Y-70873439D01*
X174369483Y-70873448D01*
X174457690Y-71005458D01*
X174478568Y-71072135D01*
X174464700Y-71122688D01*
X174464700Y-72114600D01*
X175302199Y-72114600D01*
X175302199Y-71839628D01*
X175302198Y-71839613D01*
X175291705Y-71736902D01*
X175236558Y-71570480D01*
X175236556Y-71570475D01*
X175203880Y-71517499D01*
X175185440Y-71450106D01*
X175206363Y-71383443D01*
X175260005Y-71338673D01*
X175285228Y-71330785D01*
X175302513Y-71327346D01*
X175412491Y-71305471D01*
X175573642Y-71238720D01*
X175718674Y-71141813D01*
X175842013Y-71018474D01*
X175938920Y-70873442D01*
X176005671Y-70712291D01*
X176039700Y-70541214D01*
X176039700Y-70366786D01*
X176005671Y-70195709D01*
X175938920Y-70034558D01*
X175938919Y-70034557D01*
X175938916Y-70034551D01*
X175842013Y-69889526D01*
X175842010Y-69889522D01*
X175718677Y-69766189D01*
X175718673Y-69766186D01*
X175573648Y-69669283D01*
X175573639Y-69669278D01*
X175412491Y-69602529D01*
X175412483Y-69602527D01*
X175241418Y-69568500D01*
X175241414Y-69568500D01*
X175066986Y-69568500D01*
X175066981Y-69568500D01*
X174895916Y-69602527D01*
X174895908Y-69602529D01*
X174734760Y-69669278D01*
X174734751Y-69669283D01*
X174589726Y-69766186D01*
X174589722Y-69766189D01*
X174466389Y-69889522D01*
X174466386Y-69889526D01*
X174369483Y-70034551D01*
X174369478Y-70034560D01*
X174302729Y-70195708D01*
X174302729Y-70195709D01*
X174268700Y-70366781D01*
X158000616Y-70366781D01*
X157614884Y-69981049D01*
X157614880Y-69981046D01*
X157449710Y-69870682D01*
X157449701Y-69870677D01*
X157266169Y-69794656D01*
X157266161Y-69794654D01*
X157071333Y-69755900D01*
X157071329Y-69755900D01*
X152079628Y-69755900D01*
X151880970Y-69755900D01*
X151880965Y-69755900D01*
X151686137Y-69794654D01*
X151686129Y-69794656D01*
X151502597Y-69870677D01*
X151502588Y-69870682D01*
X151337418Y-69981046D01*
X151337414Y-69981049D01*
X150230081Y-71088383D01*
X150168758Y-71121868D01*
X150099066Y-71116884D01*
X150054719Y-71088383D01*
X149293583Y-70327247D01*
X149293579Y-70327244D01*
X149128409Y-70216880D01*
X149128396Y-70216873D01*
X149077300Y-70195709D01*
X149077299Y-70195709D01*
X148944868Y-70140854D01*
X148944860Y-70140852D01*
X148750032Y-70102098D01*
X148750028Y-70102098D01*
X143089246Y-70102098D01*
X143022207Y-70082413D01*
X142976452Y-70029609D01*
X142966508Y-69960451D01*
X142995533Y-69896895D01*
X143016361Y-69877780D01*
X143056277Y-69848779D01*
X143136706Y-69790344D01*
X143272549Y-69654501D01*
X143385469Y-69499080D01*
X143472686Y-69327908D01*
X143491960Y-69268588D01*
X164316201Y-69268588D01*
X164326694Y-69371299D01*
X164381840Y-69537720D01*
X164381842Y-69537725D01*
X164473883Y-69686946D01*
X164597853Y-69810916D01*
X164747074Y-69902957D01*
X164747079Y-69902959D01*
X164913501Y-69958105D01*
X165016217Y-69968599D01*
X167466199Y-69968599D01*
X167966200Y-69968599D01*
X170416174Y-69968599D01*
X170416188Y-69968598D01*
X170518899Y-69958105D01*
X170685320Y-69902959D01*
X170685325Y-69902957D01*
X170834546Y-69810916D01*
X170958516Y-69686946D01*
X171050557Y-69537725D01*
X171050559Y-69537720D01*
X171105705Y-69371298D01*
X171116199Y-69268588D01*
X171116200Y-69268575D01*
X171116200Y-66518600D01*
X167966200Y-66518600D01*
X167966200Y-69968599D01*
X167466199Y-69968599D01*
X167466200Y-69968598D01*
X167466200Y-66518600D01*
X164316201Y-66518600D01*
X164316201Y-69268588D01*
X143491960Y-69268588D01*
X143532051Y-69145200D01*
X143562104Y-68955454D01*
X143562104Y-68763344D01*
X143532051Y-68573598D01*
X143472748Y-68391081D01*
X143472687Y-68390892D01*
X143472686Y-68390890D01*
X143385469Y-68219718D01*
X143272549Y-68064297D01*
X143136706Y-67928454D01*
X142981285Y-67815534D01*
X142810110Y-67728315D01*
X142627406Y-67668952D01*
X142532532Y-67653925D01*
X142437659Y-67638899D01*
X142245549Y-67638899D01*
X142182300Y-67648916D01*
X142055801Y-67668952D01*
X141873097Y-67728315D01*
X141701922Y-67815534D01*
X141672106Y-67837197D01*
X141546502Y-67928454D01*
X141546500Y-67928456D01*
X141546499Y-67928456D01*
X141410661Y-68064294D01*
X141410661Y-68064295D01*
X141410659Y-68064297D01*
X141362164Y-68131044D01*
X141297739Y-68219717D01*
X141210521Y-68390891D01*
X141189271Y-68456291D01*
X141149833Y-68513966D01*
X141085474Y-68541164D01*
X141016628Y-68529249D01*
X140965152Y-68482004D01*
X140953409Y-68456290D01*
X140932220Y-68391079D01*
X140845038Y-68219976D01*
X140823805Y-68190751D01*
X140823804Y-68190750D01*
X140201604Y-68812951D01*
X140201604Y-68806738D01*
X140174345Y-68705005D01*
X140121684Y-68613793D01*
X140047210Y-68539319D01*
X139955998Y-68486658D01*
X139854265Y-68459399D01*
X139848051Y-68459399D01*
X140470250Y-67837197D01*
X140441019Y-67815960D01*
X140269925Y-67728782D01*
X140087288Y-67669439D01*
X139897619Y-67639399D01*
X139705589Y-67639399D01*
X139515919Y-67669439D01*
X139333282Y-67728782D01*
X139162182Y-67815963D01*
X139132956Y-67837197D01*
X139132955Y-67837197D01*
X139755158Y-68459399D01*
X139748943Y-68459399D01*
X139647210Y-68486658D01*
X139555998Y-68539319D01*
X139481524Y-68613793D01*
X139428863Y-68705005D01*
X139401604Y-68806738D01*
X139401604Y-68812952D01*
X138779402Y-68190750D01*
X138779402Y-68190751D01*
X138758168Y-68219977D01*
X138670985Y-68391081D01*
X138649797Y-68456291D01*
X138610359Y-68513966D01*
X138546000Y-68541163D01*
X138477154Y-68529247D01*
X138425679Y-68482003D01*
X138413937Y-68456291D01*
X138392687Y-68390890D01*
X138305470Y-68219718D01*
X138192550Y-68064297D01*
X138056707Y-67928454D01*
X137901286Y-67815534D01*
X137730111Y-67728315D01*
X137547407Y-67668952D01*
X137452533Y-67653925D01*
X137357660Y-67638899D01*
X137165550Y-67638899D01*
X137102301Y-67648916D01*
X136975802Y-67668952D01*
X136793098Y-67728315D01*
X136621923Y-67815534D01*
X136592107Y-67837197D01*
X136466503Y-67928454D01*
X136466501Y-67928456D01*
X136466500Y-67928456D01*
X136330662Y-68064294D01*
X136330662Y-68064295D01*
X136330660Y-68064297D01*
X136282165Y-68131044D01*
X136217740Y-68219717D01*
X136130521Y-68390892D01*
X136071158Y-68573596D01*
X136041105Y-68763344D01*
X136041105Y-68955453D01*
X136071158Y-69145201D01*
X136130521Y-69327905D01*
X136130523Y-69327908D01*
X136217740Y-69499080D01*
X136330660Y-69654501D01*
X136466503Y-69790344D01*
X136621924Y-69903264D01*
X136774579Y-69981046D01*
X136793098Y-69990482D01*
X136830773Y-70002723D01*
X136975804Y-70049846D01*
X137049451Y-70061510D01*
X137061493Y-70063418D01*
X137124628Y-70093347D01*
X137161559Y-70152659D01*
X137160561Y-70222521D01*
X137147634Y-70250987D01*
X137107244Y-70316469D01*
X137107240Y-70316478D01*
X137052093Y-70482900D01*
X137052092Y-70482907D01*
X137041599Y-70585611D01*
X137041599Y-70860598D01*
X137879099Y-70860598D01*
X137879099Y-69982564D01*
X137898784Y-69915525D01*
X137930212Y-69882247D01*
X138056707Y-69790344D01*
X138192550Y-69654501D01*
X138305470Y-69499080D01*
X138392687Y-69327908D01*
X138413936Y-69262507D01*
X138453372Y-69204834D01*
X138517730Y-69177635D01*
X138586576Y-69189548D01*
X138638053Y-69236791D01*
X138649798Y-69262506D01*
X138670988Y-69327721D01*
X138758165Y-69498814D01*
X138779402Y-69528045D01*
X139401604Y-68905844D01*
X139401604Y-68912060D01*
X139428863Y-69013793D01*
X139481524Y-69105005D01*
X139555998Y-69179479D01*
X139647210Y-69232140D01*
X139748943Y-69259399D01*
X139755158Y-69259399D01*
X139132955Y-69881599D01*
X139137378Y-69937794D01*
X139123013Y-70006171D01*
X139073962Y-70055927D01*
X139005797Y-70071266D01*
X138940160Y-70047317D01*
X138936850Y-70044789D01*
X138934945Y-70043282D01*
X138785723Y-69951241D01*
X138785718Y-69951239D01*
X138619296Y-69896092D01*
X138619289Y-69896091D01*
X138516585Y-69885598D01*
X138379099Y-69885598D01*
X138379099Y-72335597D01*
X138516571Y-72335597D01*
X138516585Y-72335596D01*
X138619296Y-72325103D01*
X138785718Y-72269956D01*
X138785723Y-72269954D01*
X138934944Y-72177913D01*
X139058917Y-72053940D01*
X139060764Y-72050946D01*
X139062568Y-72049322D01*
X139063397Y-72048275D01*
X139063575Y-72048416D01*
X139112709Y-72004219D01*
X139181672Y-71992994D01*
X139245755Y-72020834D01*
X139261093Y-72036093D01*
X139267019Y-72043119D01*
X139273887Y-72054254D01*
X139289999Y-72070366D01*
X139293387Y-72074383D01*
X139305440Y-72101736D01*
X139319765Y-72127970D01*
X139320657Y-72136269D01*
X139321561Y-72138320D01*
X139321155Y-72140898D01*
X139322599Y-72154328D01*
X139322599Y-73603009D01*
X139302914Y-73670048D01*
X139286280Y-73690690D01*
X138990192Y-73986778D01*
X138928869Y-74020263D01*
X138902511Y-74023097D01*
X133094229Y-74023097D01*
X133046759Y-74011209D01*
X133045932Y-74013207D01*
X132856769Y-73934853D01*
X132856761Y-73934851D01*
X132661933Y-73896097D01*
X132661929Y-73896097D01*
X132463271Y-73896097D01*
X132463266Y-73896097D01*
X132268438Y-73934851D01*
X132268430Y-73934853D01*
X132084898Y-74010874D01*
X132084889Y-74010879D01*
X131919719Y-74121243D01*
X131919715Y-74121246D01*
X131779249Y-74261712D01*
X131779246Y-74261716D01*
X131668882Y-74426886D01*
X131668877Y-74426895D01*
X131592856Y-74610427D01*
X131592854Y-74610435D01*
X131554100Y-74805263D01*
X131554100Y-75003930D01*
X131592854Y-75198758D01*
X131592856Y-75198766D01*
X131668877Y-75382298D01*
X131668882Y-75382307D01*
X131779246Y-75547477D01*
X131779249Y-75547481D01*
X131919715Y-75687947D01*
X131919719Y-75687950D01*
X132084889Y-75798314D01*
X132084895Y-75798317D01*
X132084896Y-75798318D01*
X132268431Y-75874341D01*
X132463266Y-75913096D01*
X132463270Y-75913097D01*
X132463271Y-75913097D01*
X132661930Y-75913097D01*
X132661931Y-75913096D01*
X132856769Y-75874341D01*
X133040304Y-75798318D01*
X133040303Y-75798318D01*
X133045932Y-75795987D01*
X133046759Y-75797984D01*
X133094229Y-75786097D01*
X139405826Y-75786097D01*
X139566409Y-75754154D01*
X139576127Y-75752221D01*
X139700535Y-75700690D01*
X139736546Y-75685774D01*
X139736547Y-75685773D01*
X139736550Y-75685772D01*
X139880927Y-75589303D01*
X140888805Y-74581424D01*
X140898764Y-74566519D01*
X140985274Y-74437048D01*
X141016556Y-74361527D01*
X141051724Y-74276625D01*
X141085599Y-74106322D01*
X141085599Y-73932680D01*
X141085599Y-73489785D01*
X146617401Y-73489785D01*
X146627894Y-73592496D01*
X146683041Y-73758918D01*
X146683043Y-73758923D01*
X146775084Y-73908144D01*
X146899054Y-74032114D01*
X147048275Y-74124155D01*
X147048280Y-74124157D01*
X147214702Y-74179304D01*
X147214709Y-74179305D01*
X147317419Y-74189798D01*
X147454899Y-74189798D01*
X147454900Y-74189797D01*
X147454900Y-73214799D01*
X146617401Y-73214799D01*
X146617401Y-73489785D01*
X141085599Y-73489785D01*
X141085599Y-72243098D01*
X141105284Y-72176059D01*
X141158088Y-72130304D01*
X141209599Y-72119098D01*
X146528414Y-72119098D01*
X146595453Y-72138783D01*
X146641208Y-72191587D01*
X146651152Y-72260745D01*
X146646120Y-72282102D01*
X146627894Y-72337101D01*
X146627893Y-72337108D01*
X146617400Y-72439812D01*
X146617400Y-72714799D01*
X147580900Y-72714799D01*
X147647939Y-72734484D01*
X147693694Y-72787288D01*
X147704900Y-72838799D01*
X147704900Y-72964799D01*
X147830900Y-72964799D01*
X147897939Y-72984484D01*
X147943694Y-73037288D01*
X147954900Y-73088799D01*
X147954900Y-74189798D01*
X148092372Y-74189798D01*
X148092386Y-74189797D01*
X148195097Y-74179304D01*
X148361519Y-74124157D01*
X148361524Y-74124155D01*
X148510745Y-74032114D01*
X148559719Y-73983141D01*
X148621042Y-73949656D01*
X148690734Y-73954640D01*
X148746667Y-73996512D01*
X148771084Y-74061976D01*
X148771400Y-74070822D01*
X148771400Y-82137433D01*
X148810154Y-82332261D01*
X148810157Y-82332273D01*
X148841176Y-82407158D01*
X148886177Y-82515800D01*
X148886182Y-82515810D01*
X148996546Y-82680980D01*
X148996549Y-82680984D01*
X149870083Y-83554518D01*
X149903568Y-83615841D01*
X149898584Y-83685533D01*
X149870083Y-83729880D01*
X146778721Y-86821244D01*
X146778719Y-86821246D01*
X145096085Y-88503881D01*
X145034762Y-88537366D01*
X145008404Y-88540200D01*
X139901630Y-88540200D01*
X139834591Y-88520515D01*
X139813949Y-88503881D01*
X139791057Y-88480989D01*
X139791056Y-88480988D01*
X139641734Y-88388886D01*
X139475197Y-88333701D01*
X139475195Y-88333700D01*
X139372410Y-88323200D01*
X138597398Y-88323200D01*
X138597380Y-88323201D01*
X138494603Y-88333700D01*
X138494600Y-88333701D01*
X138328068Y-88388885D01*
X138328063Y-88388887D01*
X138178742Y-88480989D01*
X138054688Y-88605043D01*
X138054683Y-88605049D01*
X138052641Y-88608361D01*
X138050647Y-88610153D01*
X138050207Y-88610711D01*
X138050111Y-88610635D01*
X138000691Y-88655083D01*
X137931728Y-88666302D01*
X137867647Y-88638455D01*
X137841568Y-88608356D01*
X137839719Y-88605359D01*
X137839716Y-88605355D01*
X137715745Y-88481384D01*
X137566524Y-88389343D01*
X137566519Y-88389341D01*
X137400097Y-88334194D01*
X137400090Y-88334193D01*
X137297386Y-88323700D01*
X137159900Y-88323700D01*
X137159900Y-89424700D01*
X137140215Y-89491739D01*
X137087411Y-89537494D01*
X137035900Y-89548700D01*
X136909900Y-89548700D01*
X136909900Y-89674700D01*
X136890215Y-89741739D01*
X136837411Y-89787494D01*
X136785900Y-89798700D01*
X135822401Y-89798700D01*
X135822401Y-90073686D01*
X135832894Y-90176397D01*
X135871830Y-90293896D01*
X135874232Y-90363724D01*
X135838500Y-90423766D01*
X135775980Y-90454959D01*
X135754124Y-90456900D01*
X134228377Y-90456900D01*
X134058081Y-90490774D01*
X134058071Y-90490777D01*
X133897656Y-90557222D01*
X133753273Y-90653695D01*
X131496895Y-92910073D01*
X131400422Y-93054456D01*
X131333977Y-93214871D01*
X131333974Y-93214881D01*
X131300100Y-93385177D01*
X131300100Y-93385180D01*
X131300100Y-103291179D01*
X131300100Y-103464821D01*
X131300100Y-103464823D01*
X131300099Y-103464823D01*
X125660400Y-103464823D01*
X125660400Y-89023713D01*
X135822400Y-89023713D01*
X135822400Y-89298700D01*
X136659900Y-89298700D01*
X136659900Y-88323700D01*
X136522427Y-88323700D01*
X136522412Y-88323701D01*
X136419702Y-88334194D01*
X136253280Y-88389341D01*
X136253275Y-88389343D01*
X136104054Y-88481384D01*
X135980084Y-88605354D01*
X135888043Y-88754575D01*
X135888041Y-88754580D01*
X135832894Y-88921002D01*
X135832893Y-88921009D01*
X135822400Y-89023713D01*
X125660400Y-89023713D01*
X125660400Y-82707944D01*
X136041104Y-82707944D01*
X136041104Y-82900054D01*
X136043284Y-82913815D01*
X136071157Y-83089801D01*
X136130520Y-83272505D01*
X136136356Y-83283958D01*
X136217739Y-83443680D01*
X136330659Y-83599101D01*
X136466502Y-83734944D01*
X136621923Y-83847864D01*
X136762180Y-83919329D01*
X136793097Y-83935082D01*
X136876535Y-83962192D01*
X136975803Y-83994446D01*
X137165549Y-84024499D01*
X137165550Y-84024499D01*
X137357658Y-84024499D01*
X137357659Y-84024499D01*
X137547405Y-83994446D01*
X137730113Y-83935081D01*
X137901285Y-83847864D01*
X138056706Y-83734944D01*
X138192549Y-83599101D01*
X138305469Y-83443680D01*
X138392686Y-83272508D01*
X138413935Y-83207107D01*
X138453371Y-83149434D01*
X138517729Y-83122235D01*
X138586575Y-83134148D01*
X138638052Y-83181391D01*
X138649797Y-83207106D01*
X138670987Y-83272321D01*
X138758164Y-83443414D01*
X138779401Y-83472645D01*
X139401603Y-82850444D01*
X139401603Y-82856660D01*
X139428862Y-82958393D01*
X139481523Y-83049605D01*
X139555997Y-83124079D01*
X139647209Y-83176740D01*
X139748942Y-83203999D01*
X139755157Y-83203999D01*
X139132954Y-83826199D01*
X139132955Y-83826200D01*
X139162180Y-83847433D01*
X139333281Y-83934615D01*
X139515918Y-83993958D01*
X139705588Y-84023999D01*
X139897618Y-84023999D01*
X140087287Y-83993958D01*
X140269924Y-83934615D01*
X140441022Y-83847435D01*
X140470249Y-83826200D01*
X140470249Y-83826199D01*
X139848050Y-83203999D01*
X139854264Y-83203999D01*
X139955997Y-83176740D01*
X140047209Y-83124079D01*
X140121683Y-83049605D01*
X140174344Y-82958393D01*
X140201603Y-82856660D01*
X140201603Y-82850445D01*
X140823803Y-83472645D01*
X140823804Y-83472645D01*
X140845039Y-83443418D01*
X140932219Y-83272318D01*
X140953408Y-83207107D01*
X140992845Y-83149432D01*
X141057203Y-83122233D01*
X141126050Y-83134147D01*
X141177526Y-83181391D01*
X141189270Y-83207107D01*
X141210519Y-83272504D01*
X141210520Y-83272505D01*
X141210521Y-83272508D01*
X141297738Y-83443680D01*
X141410658Y-83599101D01*
X141546501Y-83734944D01*
X141701922Y-83847864D01*
X141842179Y-83919329D01*
X141873096Y-83935082D01*
X141956534Y-83962192D01*
X142055802Y-83994446D01*
X142245548Y-84024499D01*
X142245549Y-84024499D01*
X142437657Y-84024499D01*
X142437658Y-84024499D01*
X142627404Y-83994446D01*
X142810112Y-83935081D01*
X142981284Y-83847864D01*
X143136705Y-83734944D01*
X143272548Y-83599101D01*
X143385468Y-83443680D01*
X143472685Y-83272508D01*
X143532050Y-83089800D01*
X143562103Y-82900054D01*
X143562103Y-82707944D01*
X143532050Y-82518198D01*
X143479184Y-82355492D01*
X143472686Y-82335492D01*
X143425208Y-82242312D01*
X143385468Y-82164318D01*
X143272548Y-82008897D01*
X143136705Y-81873054D01*
X142981284Y-81760134D01*
X142810109Y-81672915D01*
X142627405Y-81613552D01*
X142532531Y-81598525D01*
X142437658Y-81583499D01*
X142245548Y-81583499D01*
X142182299Y-81593516D01*
X142055800Y-81613552D01*
X141873096Y-81672915D01*
X141701921Y-81760134D01*
X141672105Y-81781797D01*
X141546501Y-81873054D01*
X141546499Y-81873056D01*
X141546498Y-81873056D01*
X141410660Y-82008894D01*
X141410660Y-82008895D01*
X141410658Y-82008897D01*
X141362163Y-82075644D01*
X141297738Y-82164317D01*
X141210520Y-82335491D01*
X141189270Y-82400891D01*
X141149832Y-82458566D01*
X141085473Y-82485764D01*
X141016627Y-82473849D01*
X140965151Y-82426604D01*
X140953408Y-82400890D01*
X140932219Y-82335679D01*
X140845037Y-82164576D01*
X140823804Y-82135351D01*
X140823803Y-82135350D01*
X140201603Y-82757551D01*
X140201603Y-82751338D01*
X140174344Y-82649605D01*
X140121683Y-82558393D01*
X140047209Y-82483919D01*
X139955997Y-82431258D01*
X139854264Y-82403999D01*
X139848050Y-82403999D01*
X140470249Y-81781797D01*
X140441018Y-81760560D01*
X140269924Y-81673382D01*
X140087287Y-81614039D01*
X139897618Y-81583999D01*
X139705588Y-81583999D01*
X139515918Y-81614039D01*
X139333281Y-81673382D01*
X139162181Y-81760563D01*
X139132955Y-81781797D01*
X139132954Y-81781797D01*
X139755157Y-82403999D01*
X139748942Y-82403999D01*
X139647209Y-82431258D01*
X139555997Y-82483919D01*
X139481523Y-82558393D01*
X139428862Y-82649605D01*
X139401603Y-82751338D01*
X139401603Y-82757552D01*
X138779401Y-82135350D01*
X138779401Y-82135351D01*
X138758167Y-82164577D01*
X138670984Y-82335681D01*
X138649796Y-82400891D01*
X138610358Y-82458566D01*
X138545999Y-82485763D01*
X138477153Y-82473847D01*
X138425678Y-82426603D01*
X138413936Y-82400891D01*
X138392686Y-82335490D01*
X138305469Y-82164318D01*
X138192549Y-82008897D01*
X138056706Y-81873054D01*
X137901285Y-81760134D01*
X137730110Y-81672915D01*
X137547406Y-81613552D01*
X137452532Y-81598525D01*
X137357659Y-81583499D01*
X137165549Y-81583499D01*
X137102300Y-81593516D01*
X136975801Y-81613552D01*
X136793097Y-81672915D01*
X136621922Y-81760134D01*
X136592106Y-81781797D01*
X136466502Y-81873054D01*
X136466500Y-81873056D01*
X136466499Y-81873056D01*
X136330661Y-82008894D01*
X136330661Y-82008895D01*
X136330659Y-82008897D01*
X136282164Y-82075644D01*
X136217739Y-82164317D01*
X136130520Y-82335492D01*
X136071157Y-82518196D01*
X136045375Y-82680980D01*
X136041104Y-82707944D01*
X125660400Y-82707944D01*
X125660400Y-71635584D01*
X137041600Y-71635584D01*
X137052093Y-71738295D01*
X137107240Y-71904717D01*
X137107242Y-71904722D01*
X137199283Y-72053943D01*
X137323253Y-72177913D01*
X137472474Y-72269954D01*
X137472479Y-72269956D01*
X137638901Y-72325103D01*
X137638908Y-72325104D01*
X137741618Y-72335597D01*
X137879098Y-72335597D01*
X137879099Y-72335596D01*
X137879099Y-71360598D01*
X137041600Y-71360598D01*
X137041600Y-71635584D01*
X125660400Y-71635584D01*
X125660400Y-65537711D01*
X126775100Y-65537711D01*
X126775100Y-65780288D01*
X126806761Y-66020785D01*
X126869547Y-66255104D01*
X126962373Y-66479205D01*
X126962376Y-66479212D01*
X127083664Y-66689289D01*
X127083666Y-66689292D01*
X127083667Y-66689293D01*
X127231333Y-66881736D01*
X127231339Y-66881743D01*
X127402856Y-67053260D01*
X127402862Y-67053265D01*
X127595311Y-67200936D01*
X127805388Y-67322224D01*
X128029500Y-67415054D01*
X128263811Y-67477838D01*
X128444186Y-67501584D01*
X128504311Y-67509500D01*
X128504312Y-67509500D01*
X128746889Y-67509500D01*
X128794988Y-67503167D01*
X128987389Y-67477838D01*
X129221700Y-67415054D01*
X129445812Y-67322224D01*
X129655889Y-67200936D01*
X129848338Y-67053265D01*
X130019865Y-66881738D01*
X130167536Y-66689289D01*
X130288824Y-66479212D01*
X130288827Y-66479205D01*
X130313440Y-66419785D01*
X130313440Y-66419783D01*
X130381651Y-66255107D01*
X130381652Y-66255104D01*
X130381654Y-66255100D01*
X130444438Y-66020789D01*
X130476100Y-65780288D01*
X130476100Y-65537712D01*
X130444438Y-65297211D01*
X130381654Y-65062900D01*
X130288824Y-64838788D01*
X130167536Y-64628711D01*
X130039355Y-64461662D01*
X130019866Y-64436263D01*
X130019860Y-64436256D01*
X129848343Y-64264739D01*
X129848336Y-64264733D01*
X129655893Y-64117067D01*
X129655892Y-64117066D01*
X129655889Y-64117064D01*
X129445812Y-63995776D01*
X129445805Y-63995773D01*
X129221704Y-63902947D01*
X129082182Y-63865562D01*
X128987389Y-63840162D01*
X128987388Y-63840161D01*
X128987385Y-63840161D01*
X128746889Y-63808500D01*
X128746888Y-63808500D01*
X128504312Y-63808500D01*
X128504311Y-63808500D01*
X128263814Y-63840161D01*
X128029495Y-63902947D01*
X127805394Y-63995773D01*
X127805385Y-63995777D01*
X127595306Y-64117067D01*
X127402863Y-64264733D01*
X127402856Y-64264739D01*
X127231339Y-64436256D01*
X127231333Y-64436263D01*
X127083667Y-64628706D01*
X126962377Y-64838785D01*
X126962373Y-64838794D01*
X126869547Y-65062895D01*
X126806761Y-65297214D01*
X126775100Y-65537711D01*
X125660400Y-65537711D01*
X125660400Y-62829100D01*
X125680085Y-62762061D01*
X125732889Y-62716306D01*
X125784400Y-62705100D01*
X164341240Y-62705100D01*
X164408279Y-62724785D01*
G37*
%TD.AperFunction*%
%TD*%
%TA.AperFunction,Conductor*%
%TO.N,+5V*%
G36*
X166414093Y-71215885D02*
G01*
X166459848Y-71268689D01*
X166470993Y-71316356D01*
X166544113Y-73674453D01*
X166619953Y-76120291D01*
X166602356Y-76187908D01*
X166550996Y-76235278D01*
X166493457Y-76248108D01*
X164305017Y-76202985D01*
X164285910Y-76196944D01*
X164265903Y-76195800D01*
X164241403Y-76182872D01*
X164238397Y-76181922D01*
X164234688Y-76179329D01*
X164213478Y-76163919D01*
X164170812Y-76108589D01*
X164162378Y-76061651D01*
X164237078Y-71318247D01*
X164257816Y-71251526D01*
X164311334Y-71206609D01*
X164361063Y-71196200D01*
X166347054Y-71196200D01*
X166414093Y-71215885D01*
G37*
%TD.AperFunction*%
%TD*%
%TA.AperFunction,Conductor*%
%TO.N,+12V*%
G36*
X170851050Y-71414394D02*
G01*
X170898143Y-71466008D01*
X170910698Y-71519001D01*
X170934684Y-73653811D01*
X171246195Y-73893434D01*
X171276993Y-73928044D01*
X171830998Y-74853798D01*
X171830999Y-74853799D01*
X171831000Y-74853800D01*
X171831001Y-74853800D01*
X171831002Y-74853801D01*
X172656500Y-75095100D01*
X173482000Y-75336400D01*
X173690934Y-75325403D01*
X173758914Y-75341537D01*
X173807381Y-75391863D01*
X173820946Y-75460404D01*
X173819039Y-75473567D01*
X173807418Y-75531625D01*
X173807417Y-75531638D01*
X173720976Y-77109175D01*
X173720977Y-77109202D01*
X173724137Y-77158147D01*
X173708813Y-77226315D01*
X173659066Y-77275377D01*
X173600620Y-77290136D01*
X172925629Y-77291363D01*
X172879888Y-77282707D01*
X169260525Y-75854471D01*
X169205391Y-75811553D01*
X169182262Y-75746529D01*
X168932709Y-71572158D01*
X168948358Y-71504064D01*
X168998337Y-71455240D01*
X169053309Y-71440800D01*
X170783529Y-71396435D01*
X170851050Y-71414394D01*
G37*
%TD.AperFunction*%
%TD*%
%TA.AperFunction,Conductor*%
%TO.N,Net-(J3-Pin_1)*%
G36*
X178322624Y-75536259D02*
G01*
X178389164Y-75557563D01*
X178433626Y-75611460D01*
X178442574Y-75676261D01*
X178245972Y-77183546D01*
X178217782Y-77247476D01*
X178159504Y-77286017D01*
X178122229Y-77291506D01*
X174348749Y-77267623D01*
X174281836Y-77247514D01*
X174236416Y-77194422D01*
X174225720Y-77136845D01*
X174312161Y-75559288D01*
X174335484Y-75493428D01*
X174390712Y-75450630D01*
X174438975Y-75442110D01*
X178322624Y-75536259D01*
G37*
%TD.AperFunction*%
%TD*%
M02*
