%TF.GenerationSoftware,KiCad,Pcbnew,9.0.1*%
%TF.CreationDate,2026-09-27T23:22:34+08:00*%
%TF.ProjectId,BSPD,42535044-2e6b-4696-9361-645f70636258,rev?*%
%TF.SameCoordinates,Original*%
%TF.FileFunction,Copper,L1,Top*%
%TF.FilePolarity,Positive*%
%FSLAX46Y46*%
G04 Gerber Fmt 4.6, Leading zero omitted, Abs format (unit mm)*
G04 Created by KiCad (PCBNEW 9.0.1) date 2026-09-27 23:22:34*
%MOMM*%
%LPD*%
G01*
G04 APERTURE LIST*
G04 Aperture macros list*
%AMRoundRect*
0 Rectangle with rounded corners*
0 $1 Rounding radius*
0 $2 $3 $4 $5 $6 $7 $8 $9 X,Y pos of 4 corners*
0 Add a 4 corners polygon primitive as box body*
4,1,4,$2,$3,$4,$5,$6,$7,$8,$9,$2,$3,0*
0 Add four circle primitives for the rounded corners*
1,1,$1+$1,$2,$3*
1,1,$1+$1,$4,$5*
1,1,$1+$1,$6,$7*
1,1,$1+$1,$8,$9*
0 Add four rect primitives between the rounded corners*
20,1,$1+$1,$2,$3,$4,$5,0*
20,1,$1+$1,$4,$5,$6,$7,0*
20,1,$1+$1,$6,$7,$8,$9,0*
20,1,$1+$1,$8,$9,$2,$3,0*%
%AMRotRect*
0 Rectangle, with rotation*
0 The origin of the aperture is its center*
0 $1 length*
0 $2 width*
0 $3 Rotation angle, in degrees counterclockwise*
0 Add horizontal line*
21,1,$1,$2,0,0,$3*%
G04 Aperture macros list end*
%TA.AperFunction,SMDPad,CuDef*%
%ADD10RoundRect,0.250000X0.475000X-0.337500X0.475000X0.337500X-0.475000X0.337500X-0.475000X-0.337500X0*%
%TD*%
%TA.AperFunction,ComponentPad*%
%ADD11RoundRect,0.250001X-0.759999X0.499999X-0.759999X-0.499999X0.759999X-0.499999X0.759999X0.499999X0*%
%TD*%
%TA.AperFunction,ComponentPad*%
%ADD12O,2.020000X1.500000*%
%TD*%
%TA.AperFunction,SMDPad,CuDef*%
%ADD13RoundRect,0.150000X-0.825000X-0.150000X0.825000X-0.150000X0.825000X0.150000X-0.825000X0.150000X0*%
%TD*%
%TA.AperFunction,ComponentPad*%
%ADD14C,3.000000*%
%TD*%
%TA.AperFunction,ComponentPad*%
%ADD15C,2.500000*%
%TD*%
%TA.AperFunction,SMDPad,CuDef*%
%ADD16RoundRect,0.250000X0.350000X0.450000X-0.350000X0.450000X-0.350000X-0.450000X0.350000X-0.450000X0*%
%TD*%
%TA.AperFunction,SMDPad,CuDef*%
%ADD17RoundRect,0.250000X-0.350000X-0.450000X0.350000X-0.450000X0.350000X0.450000X-0.350000X0.450000X0*%
%TD*%
%TA.AperFunction,SMDPad,CuDef*%
%ADD18RoundRect,0.250000X0.337500X0.475000X-0.337500X0.475000X-0.337500X-0.475000X0.337500X-0.475000X0*%
%TD*%
%TA.AperFunction,ComponentPad*%
%ADD19RotRect,1.600000X1.600000X225.000000*%
%TD*%
%TA.AperFunction,ComponentPad*%
%ADD20C,1.600000*%
%TD*%
%TA.AperFunction,SMDPad,CuDef*%
%ADD21RoundRect,0.250000X-0.450000X0.350000X-0.450000X-0.350000X0.450000X-0.350000X0.450000X0.350000X0*%
%TD*%
%TA.AperFunction,SMDPad,CuDef*%
%ADD22RoundRect,0.150000X-0.587500X-0.150000X0.587500X-0.150000X0.587500X0.150000X-0.587500X0.150000X0*%
%TD*%
%TA.AperFunction,SMDPad,CuDef*%
%ADD23RoundRect,0.250000X0.450000X-0.350000X0.450000X0.350000X-0.450000X0.350000X-0.450000X-0.350000X0*%
%TD*%
%TA.AperFunction,SMDPad,CuDef*%
%ADD24RoundRect,0.150000X-0.150000X0.587500X-0.150000X-0.587500X0.150000X-0.587500X0.150000X0.587500X0*%
%TD*%
%TA.AperFunction,ComponentPad*%
%ADD25R,1.600000X1.600000*%
%TD*%
%TA.AperFunction,ComponentPad*%
%ADD26O,1.600000X1.600000*%
%TD*%
%TA.AperFunction,ComponentPad*%
%ADD27C,1.440000*%
%TD*%
%TA.AperFunction,SMDPad,CuDef*%
%ADD28RoundRect,0.150000X0.825000X0.150000X-0.825000X0.150000X-0.825000X-0.150000X0.825000X-0.150000X0*%
%TD*%
%TA.AperFunction,SMDPad,CuDef*%
%ADD29RoundRect,0.162500X0.617500X0.162500X-0.617500X0.162500X-0.617500X-0.162500X0.617500X-0.162500X0*%
%TD*%
%TA.AperFunction,SMDPad,CuDef*%
%ADD30RoundRect,0.150000X0.150000X-0.587500X0.150000X0.587500X-0.150000X0.587500X-0.150000X-0.587500X0*%
%TD*%
%TA.AperFunction,SMDPad,CuDef*%
%ADD31RoundRect,0.150000X0.150000X-0.825000X0.150000X0.825000X-0.150000X0.825000X-0.150000X-0.825000X0*%
%TD*%
%TA.AperFunction,SMDPad,CuDef*%
%ADD32RoundRect,0.250000X-0.475000X0.337500X-0.475000X-0.337500X0.475000X-0.337500X0.475000X0.337500X0*%
%TD*%
%TA.AperFunction,SMDPad,CuDef*%
%ADD33RoundRect,0.162500X-0.617500X-0.162500X0.617500X-0.162500X0.617500X0.162500X-0.617500X0.162500X0*%
%TD*%
%TA.AperFunction,ViaPad*%
%ADD34C,0.600000*%
%TD*%
%TA.AperFunction,ViaPad*%
%ADD35C,1.016000*%
%TD*%
%TA.AperFunction,ViaPad*%
%ADD36C,1.000000*%
%TD*%
%TA.AperFunction,Conductor*%
%ADD37C,0.304800*%
%TD*%
%TA.AperFunction,Conductor*%
%ADD38C,0.508000*%
%TD*%
%TA.AperFunction,Conductor*%
%ADD39C,0.762000*%
%TD*%
%TA.AperFunction,Conductor*%
%ADD40C,1.016000*%
%TD*%
%TA.AperFunction,Conductor*%
%ADD41C,0.381000*%
%TD*%
%TA.AperFunction,Conductor*%
%ADD42C,0.635000*%
%TD*%
%TA.AperFunction,Conductor*%
%ADD43C,0.609600*%
%TD*%
%TA.AperFunction,Conductor*%
%ADD44C,0.200000*%
%TD*%
%TA.AperFunction,Conductor*%
%ADD45C,0.400000*%
%TD*%
%TA.AperFunction,Conductor*%
%ADD46C,0.254000*%
%TD*%
%TA.AperFunction,Conductor*%
%ADD47C,1.524000*%
%TD*%
G04 APERTURE END LIST*
D10*
%TO.P,C11,1*%
%TO.N,+5V*%
X141111200Y-95449300D03*
%TO.P,C11,2*%
%TO.N,GND*%
X141111200Y-93374300D03*
%TD*%
D11*
%TO.P,J3,1,Pin_1*%
%TO.N,GND*%
X178384200Y-66164200D03*
D12*
%TO.P,J3,2,Pin_2*%
%TO.N,Net-(J3-Pin_2)*%
X178384200Y-69164200D03*
%TD*%
D13*
%TO.P,U7,1*%
%TO.N,/delay_trigger*%
X136056600Y-97282000D03*
%TO.P,U7,2,-*%
%TO.N,Net-(U7A--)*%
X136056600Y-98552000D03*
%TO.P,U7,3,+*%
%TO.N,Net-(U7A-+)*%
X136056600Y-99822000D03*
%TO.P,U7,4,V-*%
%TO.N,GND*%
X136056600Y-101092000D03*
%TO.P,U7,5,+*%
%TO.N,Net-(Q4-D)*%
X141006600Y-101092000D03*
%TO.P,U7,6,-*%
%TO.N,Net-(U7B--)*%
X141006600Y-99822000D03*
%TO.P,U7,7*%
%TO.N,/relay_trigger*%
X141006600Y-98552000D03*
%TO.P,U7,8,V+*%
%TO.N,+5V*%
X141006600Y-97282000D03*
%TD*%
D14*
%TO.P,K1,1*%
%TO.N,/SC1*%
X154364800Y-102209600D03*
D15*
%TO.P,K1,2*%
%TO.N,/relay-*%
X156314800Y-108259600D03*
D14*
%TO.P,K1,3*%
%TO.N,/SC2*%
X168514800Y-108259600D03*
%TO.P,K1,4*%
%TO.N,unconnected-(K1-Pad4)*%
X168564800Y-96209600D03*
D15*
%TO.P,K1,5*%
%TO.N,+12V*%
X156314800Y-96259600D03*
%TD*%
D16*
%TO.P,R8,1*%
%TO.N,Net-(U2A-+)*%
X154508200Y-91897200D03*
%TO.P,R8,2*%
%TO.N,GND*%
X152508200Y-91897200D03*
%TD*%
D17*
%TO.P,R25,1*%
%TO.N,Net-(Q3-G)*%
X144322800Y-101222600D03*
%TO.P,R25,2*%
%TO.N,GND*%
X146322800Y-101222600D03*
%TD*%
D11*
%TO.P,J6,1,Pin_1*%
%TO.N,+5V*%
X178384200Y-77032600D03*
D12*
%TO.P,J6,2,Pin_2*%
X178384200Y-80032600D03*
%TO.P,J6,3,Pin_3*%
%TO.N,GND*%
X178384200Y-83032600D03*
%TO.P,J6,4,Pin_4*%
X178384200Y-86032600D03*
%TD*%
D16*
%TO.P,R9,1*%
%TO.N,+5V*%
X168300400Y-86614000D03*
%TO.P,R9,2*%
%TO.N,/SCS*%
X166300400Y-86614000D03*
%TD*%
D17*
%TO.P,R1,1*%
%TO.N,+5V*%
X153635200Y-84019600D03*
%TO.P,R1,2*%
%TO.N,Net-(U1B--)*%
X155635200Y-84019600D03*
%TD*%
%TO.P,R19,1*%
%TO.N,+5V*%
X133763000Y-93522800D03*
%TO.P,R19,2*%
%TO.N,/delay_trigger*%
X135763000Y-93522800D03*
%TD*%
%TO.P,R29,1*%
%TO.N,GND*%
X170770800Y-80822800D03*
%TO.P,R29,2*%
%TO.N,/SIGN1*%
X172770800Y-80822800D03*
%TD*%
%TO.P,R28,1*%
%TO.N,/SIGN2*%
X170881800Y-90322400D03*
%TO.P,R28,2*%
%TO.N,GND*%
X172881800Y-90322400D03*
%TD*%
D16*
%TO.P,R22,1*%
%TO.N,+5V*%
X129879600Y-96520000D03*
%TO.P,R22,2*%
%TO.N,Net-(Q4-D)*%
X127879600Y-96520000D03*
%TD*%
D17*
%TO.P,R15,1*%
%TO.N,+5V*%
X135606000Y-106248200D03*
%TO.P,R15,2*%
%TO.N,Net-(U7A-+)*%
X137606000Y-106248200D03*
%TD*%
D18*
%TO.P,C12,1*%
%TO.N,GND*%
X129993300Y-93522800D03*
%TO.P,C12,2*%
%TO.N,Net-(Q4-G)*%
X127918300Y-93522800D03*
%TD*%
D19*
%TO.P,C1,1*%
%TO.N,+5V*%
X165216767Y-75448233D03*
D20*
%TO.P,C1,2*%
%TO.N,GND*%
X163449000Y-77216000D03*
%TD*%
D16*
%TO.P,R27,1*%
%TO.N,Net-(J1-Pin_2)*%
X172872400Y-88214200D03*
%TO.P,R27,2*%
%TO.N,/SIGN2*%
X170872400Y-88214200D03*
%TD*%
D21*
%TO.P,R13,1*%
%TO.N,+5V*%
X138075111Y-75160401D03*
%TO.P,R13,2*%
%TO.N,Net-(R13-Pad2)*%
X138075111Y-77160401D03*
%TD*%
D16*
%TO.P,R5,1*%
%TO.N,+5V*%
X168732200Y-90297000D03*
%TO.P,R5,2*%
%TO.N,Net-(U2B--)*%
X166732200Y-90297000D03*
%TD*%
D22*
%TO.P,Q3,1,G*%
%TO.N,Net-(Q3-G)*%
X144385300Y-104282200D03*
%TO.P,Q3,2,S*%
%TO.N,GND*%
X144385300Y-106182200D03*
%TO.P,Q3,3,D*%
%TO.N,/relay-*%
X146260300Y-105232200D03*
%TD*%
D11*
%TO.P,J2,1,Pin_1*%
%TO.N,/SC1*%
X178380000Y-104955600D03*
D12*
%TO.P,J2,2,Pin_2*%
%TO.N,/SC2*%
X178380000Y-107955600D03*
%TD*%
D16*
%TO.P,R2,1*%
%TO.N,Net-(U1B--)*%
X155609800Y-81838800D03*
%TO.P,R2,2*%
%TO.N,GND*%
X153609800Y-81838800D03*
%TD*%
D17*
%TO.P,R4,1*%
%TO.N,Net-(U1A-+)*%
X165985601Y-81178400D03*
%TO.P,R4,2*%
%TO.N,GND*%
X167985601Y-81178400D03*
%TD*%
D23*
%TO.P,R26,1*%
%TO.N,Net-(J1-Pin_1)*%
X172694600Y-84778600D03*
%TO.P,R26,2*%
%TO.N,/SIGN1*%
X172694600Y-82778600D03*
%TD*%
D24*
%TO.P,Q5,1,G*%
%TO.N,/delay_trigger*%
X128751501Y-88699100D03*
%TO.P,Q5,2,S*%
%TO.N,Net-(Q4-G)*%
X126851501Y-88699100D03*
%TO.P,Q5,3,D*%
%TO.N,+5V*%
X127801501Y-90574101D03*
%TD*%
D23*
%TO.P,R10,1*%
%TO.N,+5V*%
X135789107Y-73096399D03*
%TO.P,R10,2*%
%TO.N,Net-(U6B-+)*%
X135789107Y-71096399D03*
%TD*%
%TO.P,R14,1*%
%TO.N,Net-(R14-Pad1)*%
X138912600Y-89722200D03*
%TO.P,R14,2*%
%TO.N,Net-(U7A--)*%
X138912600Y-87722200D03*
%TD*%
D17*
%TO.P,R6,1*%
%TO.N,Net-(U2B--)*%
X166764200Y-92532200D03*
%TO.P,R6,2*%
%TO.N,GND*%
X168764200Y-92532200D03*
%TD*%
%TO.P,R7,1*%
%TO.N,+5V*%
X152508200Y-89484200D03*
%TO.P,R7,2*%
%TO.N,Net-(U2A-+)*%
X154508200Y-89484200D03*
%TD*%
%TO.P,R21,1*%
%TO.N,Net-(Q4-G)*%
X127879600Y-103911400D03*
%TO.P,R21,2*%
%TO.N,GND*%
X129879600Y-103911400D03*
%TD*%
D25*
%TO.P,D1,1,K*%
%TO.N,+12V*%
X149860000Y-98399600D03*
D26*
%TO.P,D1,2,A*%
%TO.N,/relay-*%
X149860000Y-106019600D03*
%TD*%
D21*
%TO.P,R11,1*%
%TO.N,+5V*%
X135763707Y-75160399D03*
%TO.P,R11,2*%
%TO.N,Net-(U6A-+)*%
X135763707Y-77160399D03*
%TD*%
D27*
%TO.P,RV2,1,1*%
%TO.N,Net-(U6A-+)*%
X142341603Y-82803999D03*
%TO.P,RV2,2,2*%
%TO.N,GND*%
X139801603Y-82803999D03*
%TO.P,RV2,3,3*%
%TO.N,unconnected-(RV2-Pad3)*%
X137261604Y-82803999D03*
%TD*%
D23*
%TO.P,R12,1*%
%TO.N,+5V*%
X138075107Y-73096402D03*
%TO.P,R12,2*%
%TO.N,Net-(R12-Pad2)*%
X138075107Y-71096402D03*
%TD*%
D25*
%TO.P,C2,1*%
%TO.N,+12V*%
X170042200Y-75209400D03*
D20*
%TO.P,C2,2*%
%TO.N,GND*%
X170042200Y-77709400D03*
%TD*%
D16*
%TO.P,R16,1*%
%TO.N,Net-(U7A-+)*%
X137580600Y-103581200D03*
%TO.P,R16,2*%
%TO.N,GND*%
X135580600Y-103581200D03*
%TD*%
D28*
%TO.P,U1,1*%
%TO.N,/SCS*%
X163420600Y-86207600D03*
%TO.P,U1,2,-*%
%TO.N,/SIGN1*%
X163420600Y-84937600D03*
%TO.P,U1,3,+*%
%TO.N,Net-(U1A-+)*%
X163420600Y-83667600D03*
%TO.P,U1,4,V-*%
%TO.N,GND*%
X163420600Y-82397600D03*
%TO.P,U1,5,+*%
%TO.N,/SIGN1*%
X158470600Y-82397600D03*
%TO.P,U1,6,-*%
%TO.N,Net-(U1B--)*%
X158470600Y-83667600D03*
%TO.P,U1,7*%
%TO.N,/SCS*%
X158470600Y-84937600D03*
%TO.P,U1,8,V+*%
%TO.N,+12V*%
X158470600Y-86207600D03*
%TD*%
D29*
%TO.P,U3,1*%
%TO.N,/SCS*%
X143869400Y-89660500D03*
%TO.P,U3,2*%
%TO.N,/OVERLIMIT*%
X143869400Y-88710500D03*
%TO.P,U3,3,GND*%
%TO.N,GND*%
X143869400Y-87760500D03*
%TO.P,U3,4*%
%TO.N,Net-(R14-Pad1)*%
X141169400Y-87760500D03*
%TO.P,U3,5,VCC*%
%TO.N,+5V*%
X141169400Y-89660500D03*
%TD*%
D17*
%TO.P,R24,1*%
%TO.N,/relay_trigger*%
X144322800Y-98272600D03*
%TO.P,R24,2*%
%TO.N,Net-(Q3-G)*%
X146322800Y-98272600D03*
%TD*%
D30*
%TO.P,Q4,1,G*%
%TO.N,Net-(Q4-G)*%
X127828000Y-100935001D03*
%TO.P,Q4,2,S*%
%TO.N,GND*%
X129728000Y-100935001D03*
%TO.P,Q4,3,D*%
%TO.N,Net-(Q4-D)*%
X128778000Y-99060000D03*
%TD*%
D27*
%TO.P,RV1,1,1*%
%TO.N,Net-(U6B-+)*%
X142367000Y-65176400D03*
%TO.P,RV1,2,2*%
%TO.N,GND*%
X139827000Y-65176400D03*
%TO.P,RV1,3,3*%
%TO.N,unconnected-(RV1-Pad3)*%
X137287001Y-65176400D03*
%TD*%
D16*
%TO.P,R3,1*%
%TO.N,+5V*%
X167995600Y-83362800D03*
%TO.P,R3,2*%
%TO.N,Net-(U1A-+)*%
X165995600Y-83362800D03*
%TD*%
D31*
%TO.P,U6,1*%
%TO.N,Net-(R13-Pad2)*%
X140234106Y-76781200D03*
%TO.P,U6,2,-*%
%TO.N,/SIGN2*%
X141504106Y-76781200D03*
%TO.P,U6,3,+*%
%TO.N,Net-(U6A-+)*%
X142774106Y-76781200D03*
%TO.P,U6,4,V-*%
%TO.N,GND*%
X144044106Y-76781200D03*
%TO.P,U6,5,+*%
%TO.N,Net-(U6B-+)*%
X144044106Y-71831200D03*
%TO.P,U6,6,-*%
%TO.N,/SIGN1*%
X142774106Y-71831200D03*
%TO.P,U6,7*%
%TO.N,Net-(R12-Pad2)*%
X141504106Y-71831200D03*
%TO.P,U6,8,V+*%
%TO.N,+5V*%
X140234106Y-71831200D03*
%TD*%
D13*
%TO.P,U2,1*%
%TO.N,/SCS*%
X158481800Y-88519000D03*
%TO.P,U2,2,-*%
%TO.N,/SIGN2*%
X158481800Y-89789000D03*
%TO.P,U2,3,+*%
%TO.N,Net-(U2A-+)*%
X158481800Y-91059000D03*
%TO.P,U2,4,V-*%
%TO.N,GND*%
X158481800Y-92329000D03*
%TO.P,U2,5,+*%
%TO.N,/SIGN2*%
X163431800Y-92329000D03*
%TO.P,U2,6,-*%
%TO.N,Net-(U2B--)*%
X163431800Y-91059000D03*
%TO.P,U2,7*%
%TO.N,/SCS*%
X163431800Y-89789000D03*
%TO.P,U2,8,V+*%
%TO.N,+12V*%
X163431800Y-88519000D03*
%TD*%
D32*
%TO.P,C10,1*%
%TO.N,GND*%
X135686800Y-87630000D03*
%TO.P,C10,2*%
%TO.N,Net-(U7A--)*%
X135686800Y-89705000D03*
%TD*%
D21*
%TO.P,R20,1*%
%TO.N,+5V*%
X138988800Y-93411800D03*
%TO.P,R20,2*%
%TO.N,/relay_trigger*%
X138988800Y-95411800D03*
%TD*%
D33*
%TO.P,U4,1*%
%TO.N,Net-(R12-Pad2)*%
X146884401Y-75062799D03*
%TO.P,U4,2*%
%TO.N,Net-(R13-Pad2)*%
X146884401Y-76012799D03*
%TO.P,U4,3,GND*%
%TO.N,GND*%
X146884401Y-76962799D03*
%TO.P,U4,4*%
%TO.N,/OVERLIMIT*%
X149584401Y-76962799D03*
%TO.P,U4,5,VCC*%
%TO.N,+5V*%
X149584401Y-75062799D03*
%TD*%
D17*
%TO.P,R17,1*%
%TO.N,+5V*%
X140367000Y-106121200D03*
%TO.P,R17,2*%
%TO.N,Net-(U7B--)*%
X142367000Y-106121200D03*
%TD*%
D11*
%TO.P,J1,1,Pin_1*%
%TO.N,Net-(J1-Pin_1)*%
X178380000Y-93898200D03*
D12*
%TO.P,J1,2,Pin_2*%
%TO.N,Net-(J1-Pin_2)*%
X178380000Y-96898200D03*
%TD*%
D16*
%TO.P,R18,1*%
%TO.N,Net-(U7B--)*%
X142367000Y-103403400D03*
%TO.P,R18,2*%
%TO.N,GND*%
X140367000Y-103403400D03*
%TD*%
D34*
%TO.N,GND*%
X153035000Y-66268600D03*
X153238200Y-63601600D03*
X151028400Y-63881000D03*
X151460200Y-65760600D03*
X158292800Y-65735200D03*
X154330400Y-68351400D03*
X152069800Y-68275200D03*
X149580600Y-67995800D03*
X149656800Y-65608200D03*
X149682200Y-63576200D03*
X147345400Y-63601600D03*
X142341600Y-63322200D03*
X138150600Y-63373000D03*
%TO.N,Net-(U6A-+)*%
X142875000Y-79070200D03*
%TO.N,+5V*%
X140234106Y-69088000D03*
X149779900Y-72964799D03*
X167995600Y-83362800D03*
X168300400Y-86614000D03*
D35*
X151206200Y-83820000D03*
D34*
X132943600Y-104140000D03*
X150596600Y-90779600D03*
X139039600Y-91338400D03*
X140335000Y-108077000D03*
D35*
X132562600Y-74904597D03*
D34*
%TO.N,GND*%
X147704900Y-72964799D03*
X154254200Y-77241400D03*
X178536600Y-99187000D03*
X126365000Y-66649600D03*
X133604000Y-95681800D03*
X148056600Y-82626200D03*
X131165600Y-64490600D03*
X182854600Y-90119200D03*
X167538400Y-68656200D03*
X160045400Y-76885800D03*
X147142200Y-95707200D03*
X126263400Y-102184200D03*
X126339600Y-64414400D03*
X130683000Y-67157600D03*
X127304800Y-106248200D03*
X182753000Y-109626400D03*
X147193000Y-91135200D03*
X161417000Y-67284600D03*
X168833800Y-63652400D03*
X143535400Y-95021400D03*
X166293800Y-105689400D03*
X126263400Y-81661000D03*
X133578600Y-101269800D03*
X169265600Y-64719200D03*
X131978400Y-107594400D03*
X126187200Y-86360000D03*
X167665400Y-67208400D03*
X165912800Y-67284600D03*
X147574000Y-110007400D03*
X132410200Y-90957400D03*
X159385000Y-69900800D03*
X147523200Y-79425800D03*
X163220400Y-70002400D03*
X129463800Y-63398400D03*
X174117000Y-66344800D03*
X126949200Y-74498200D03*
X127685800Y-63373000D03*
X174580000Y-100728200D03*
X133197600Y-85877400D03*
X179425600Y-102743000D03*
X172059600Y-97917000D03*
X167487600Y-63601600D03*
X146837400Y-81407000D03*
X145872200Y-79502000D03*
X166116000Y-68681600D03*
X151460200Y-95808800D03*
X129743200Y-102387400D03*
X185039000Y-108966000D03*
X133883400Y-102641400D03*
X172364400Y-66040000D03*
X155625800Y-78536800D03*
X172288200Y-63855600D03*
X182854600Y-100634800D03*
X161315400Y-78536800D03*
X181305200Y-74498200D03*
X140004800Y-74320400D03*
X162280600Y-64084200D03*
X126263400Y-83947000D03*
X162814000Y-105892600D03*
X147853400Y-103022400D03*
X128625600Y-72161400D03*
X140367000Y-103403400D03*
X130124200Y-106705400D03*
X135915400Y-84099400D03*
X167436800Y-64719200D03*
X151460200Y-80975200D03*
X133197600Y-81381600D03*
X169367200Y-67233800D03*
X135580600Y-103581200D03*
X149072600Y-87833200D03*
X183083200Y-87426800D03*
X169214800Y-65887600D03*
X141401800Y-110667800D03*
X184531000Y-64770000D03*
X160477200Y-92481400D03*
X163195000Y-98831400D03*
X165811200Y-98831400D03*
X133781800Y-109270800D03*
X157454600Y-63881000D03*
X141071600Y-85369400D03*
X170484800Y-86233000D03*
X180594000Y-81076800D03*
X138455400Y-99491800D03*
X184785000Y-96748600D03*
X159842200Y-79121000D03*
X144881600Y-86360000D03*
X163093400Y-65862200D03*
X156540200Y-67716400D03*
X167792400Y-88519000D03*
X150012400Y-86944200D03*
X168224200Y-79019400D03*
X161036000Y-75920600D03*
X163245800Y-68072000D03*
X158978600Y-105765600D03*
X184861200Y-104444800D03*
X151282400Y-109245400D03*
X129993300Y-93522800D03*
X130149600Y-81127600D03*
X146710400Y-83845400D03*
X133121400Y-79095600D03*
X161239200Y-69926200D03*
X130098800Y-83185000D03*
X126263400Y-79552800D03*
X163449000Y-109296200D03*
X166827200Y-78587600D03*
X151612600Y-78181200D03*
X158546800Y-110566200D03*
X144830800Y-95961200D03*
X128168400Y-68199000D03*
X181635400Y-64033400D03*
X166141400Y-63627000D03*
X134188200Y-69392800D03*
X158724600Y-75488800D03*
X176834800Y-91567000D03*
X181940200Y-103225600D03*
X159562800Y-64389000D03*
X130124200Y-85852000D03*
X159918400Y-98958400D03*
X175310800Y-98806000D03*
X183007000Y-71577200D03*
X130073400Y-78917800D03*
X133578600Y-99314000D03*
X133045200Y-83388200D03*
X133604000Y-97612200D03*
X138277600Y-85064600D03*
X184861200Y-77978000D03*
X174574200Y-68148200D03*
X136169400Y-110109000D03*
X126263400Y-77393800D03*
X131445000Y-71475600D03*
X170688000Y-110617000D03*
X150215600Y-92176600D03*
X147853400Y-99568000D03*
X165811200Y-65862200D03*
X185039000Y-68808600D03*
X170307000Y-92430600D03*
X163245800Y-80162400D03*
X148005800Y-67233800D03*
X185191400Y-86055200D03*
X170078400Y-82778600D03*
X149148800Y-95808800D03*
X151790400Y-75971400D03*
X167538400Y-65862200D03*
X130022600Y-90881200D03*
X172110400Y-69621400D03*
X165760400Y-64668400D03*
X148818600Y-91186000D03*
X168884600Y-68630800D03*
X185674000Y-82092800D03*
X173075600Y-92862400D03*
X158699200Y-67310000D03*
X159867600Y-80441800D03*
X184226200Y-92862400D03*
X174066200Y-63906400D03*
D36*
%TO.N,+12V*%
X155651200Y-86029800D03*
X166272300Y-88493600D03*
%TD*%
D37*
%TO.N,/SIGN2*%
X144424400Y-82397600D02*
X141504106Y-79477306D01*
X144424400Y-84505800D02*
X144424400Y-82397600D01*
X142494000Y-86436200D02*
X144424400Y-84505800D01*
X142494000Y-91440000D02*
X142494000Y-86436200D01*
X141504106Y-79477306D02*
X141504106Y-76781200D01*
X144780000Y-93726000D02*
X142494000Y-91440000D01*
X164676400Y-93726000D02*
X144780000Y-93726000D01*
D38*
%TO.N,Net-(U6A-+)*%
X142774106Y-78969306D02*
X142774106Y-76781200D01*
X142875000Y-79070200D02*
X142774106Y-78969306D01*
X139090404Y-79552800D02*
X142341603Y-82803999D01*
X137201709Y-79552800D02*
X139090404Y-79552800D01*
X135763707Y-78114798D02*
X137201709Y-79552800D01*
X135763707Y-77160400D02*
X135763707Y-78114798D01*
D37*
%TO.N,Net-(R12-Pad2)*%
X145344599Y-75062799D02*
X146884401Y-75062799D01*
X144678400Y-74396600D02*
X145344599Y-75062799D01*
X142468600Y-74396600D02*
X144678400Y-74396600D01*
X141504106Y-73432106D02*
X142468600Y-74396600D01*
X141504106Y-71831200D02*
X141504106Y-73432106D01*
%TO.N,Net-(R13-Pad2)*%
X140754707Y-75285600D02*
X144475200Y-75285600D01*
X144475200Y-75285600D02*
X145202399Y-76012799D01*
X145202399Y-76012799D02*
X146884401Y-76012799D01*
X140234107Y-75806200D02*
X140754707Y-75285600D01*
X140234107Y-76781200D02*
X140234107Y-75806200D01*
%TO.N,/SIGN1*%
X142774106Y-73101906D02*
X142774106Y-71831200D01*
X143179800Y-73507600D02*
X142774106Y-73101906D01*
X145669000Y-72694800D02*
X144856200Y-73507600D01*
X144856200Y-73507600D02*
X143179800Y-73507600D01*
X146380200Y-71170800D02*
X145669000Y-71882000D01*
X151434800Y-71170800D02*
X146380200Y-71170800D01*
X157937200Y-77673200D02*
X151434800Y-71170800D01*
X157937200Y-81864200D02*
X157937200Y-77673200D01*
X145669000Y-71882000D02*
X145669000Y-72694800D01*
X158470600Y-82397600D02*
X157937200Y-81864200D01*
%TO.N,Net-(U6B-+)*%
X136829800Y-66649600D02*
X135789107Y-67690293D01*
X140893800Y-66649600D02*
X136829800Y-66649600D01*
X135789107Y-67690293D02*
X135789107Y-71096399D01*
X142367000Y-65176400D02*
X140893800Y-66649600D01*
X144044106Y-66853506D02*
X142367000Y-65176400D01*
X144044106Y-71831200D02*
X144044106Y-66853506D01*
D38*
%TO.N,+5V*%
X140234106Y-69088000D02*
X140234106Y-71831200D01*
%TO.N,Net-(R12-Pad2)*%
X139192000Y-67589400D02*
X138075106Y-68706294D01*
X138075106Y-68706294D02*
X138075106Y-71096402D01*
X141503400Y-67589400D02*
X139192000Y-67589400D01*
X142341600Y-68427600D02*
X141503400Y-67589400D01*
X141504106Y-70421401D02*
X142341600Y-69583907D01*
X142341600Y-69583907D02*
X142341600Y-68427600D01*
X141504106Y-71831200D02*
X141504106Y-70421401D01*
D39*
%TO.N,+5V*%
X129971800Y-96520000D02*
X129879600Y-96520000D01*
D40*
X172923200Y-71297800D02*
X178384200Y-76758800D01*
D39*
X129879600Y-96520000D02*
X129879600Y-96542100D01*
D41*
X168732200Y-87045800D02*
X168732200Y-90297000D01*
D42*
X127828000Y-77607200D02*
X127828000Y-90573001D01*
D39*
X139039600Y-91338400D02*
X139039600Y-93361000D01*
D38*
X140234106Y-71831200D02*
X140234106Y-72029603D01*
D40*
X178384200Y-76758800D02*
X178384200Y-80032600D01*
D38*
X140234106Y-72029603D02*
X139167307Y-73096402D01*
D39*
X132943600Y-104140000D02*
X135051800Y-106248200D01*
D40*
X153543000Y-83927400D02*
X153635200Y-84019600D01*
D38*
X139167307Y-73096402D02*
X138075107Y-73096402D01*
D39*
X138075107Y-75160397D02*
X138075111Y-75160401D01*
X141026300Y-95449300D02*
X138988800Y-93411800D01*
X132969000Y-93522800D02*
X129971800Y-96520000D01*
D40*
X165216767Y-75448233D02*
X165216767Y-73213033D01*
D39*
X141111200Y-95449300D02*
X141111200Y-97177400D01*
D41*
X168300400Y-86614000D02*
X168732200Y-87045800D01*
D39*
X139065000Y-91313000D02*
X140411200Y-91313000D01*
X133763000Y-93522800D02*
X132969000Y-93522800D01*
X138075104Y-73096399D02*
X138075107Y-73096402D01*
X129879600Y-96542100D02*
X132168900Y-98831400D01*
X133712200Y-93472000D02*
X133604000Y-93472000D01*
X138075107Y-73096402D02*
X138075107Y-75160397D01*
X135789107Y-75134999D02*
X135763707Y-75160399D01*
D43*
X130530603Y-74904597D02*
X127828000Y-77607200D01*
D40*
X141111200Y-95449300D02*
X141026300Y-95449300D01*
D39*
X140335000Y-106830200D02*
X140367000Y-106830200D01*
D40*
X165216767Y-73213033D02*
X167132000Y-71297800D01*
D39*
X140335000Y-108077000D02*
X140335000Y-106830200D01*
X135789107Y-73096399D02*
X135789107Y-75134999D01*
X132168900Y-98831400D02*
X132168900Y-103365300D01*
D43*
X132562600Y-74904597D02*
X130530603Y-74904597D01*
D44*
X152508200Y-89484200D02*
X151892000Y-89484200D01*
D39*
X132943600Y-104140000D02*
X132168900Y-103365300D01*
X140411200Y-91313000D02*
X141169400Y-90554800D01*
D41*
X151892000Y-89484200D02*
X150596600Y-90779600D01*
D39*
X139039600Y-91338400D02*
X139065000Y-91313000D01*
D40*
X151313600Y-83927400D02*
X153543000Y-83927400D01*
D39*
X135051800Y-106248200D02*
X135606000Y-106248200D01*
X135789107Y-73096399D02*
X138075104Y-73096399D01*
X141169400Y-90554800D02*
X141169400Y-89660500D01*
D40*
X167132000Y-71297800D02*
X172923200Y-71297800D01*
X151206200Y-83820000D02*
X151313600Y-83927400D01*
D43*
X135788400Y-74904597D02*
X132562600Y-74904597D01*
D39*
X139039600Y-93361000D02*
X138988800Y-93411800D01*
X133763000Y-93522800D02*
X133712200Y-93472000D01*
D40*
X149779900Y-72964799D02*
X149584401Y-73160298D01*
X149584401Y-73160298D02*
X149584401Y-75062799D01*
D38*
%TO.N,GND*%
X160324800Y-92329000D02*
X160477200Y-92481400D01*
D40*
X178460400Y-83616800D02*
X178460400Y-85651600D01*
D38*
X144348200Y-86360000D02*
X144881600Y-86360000D01*
X150215600Y-92176600D02*
X150495000Y-91897200D01*
X150495000Y-91897200D02*
X152508200Y-91897200D01*
X158481800Y-92329000D02*
X160324800Y-92329000D01*
D45*
X172881800Y-92668600D02*
X172881800Y-90322400D01*
D38*
X168764200Y-92532200D02*
X170205400Y-92532200D01*
D46*
X140367000Y-103403400D02*
X140665200Y-103403400D01*
D45*
X173075600Y-92862400D02*
X172881800Y-92668600D01*
D38*
X143869400Y-86838800D02*
X144348200Y-86360000D01*
X170205400Y-92532200D02*
X170307000Y-92430600D01*
X143869400Y-87760500D02*
X143869400Y-86838800D01*
%TO.N,+12V*%
X166246900Y-88519000D02*
X166272300Y-88493600D01*
X155829000Y-86207600D02*
X158470600Y-86207600D01*
X163431800Y-88519000D02*
X166246900Y-88519000D01*
%TO.N,Net-(U7A--)*%
X137871200Y-98196400D02*
X137515600Y-98552000D01*
X137871200Y-96647000D02*
X137871200Y-98196400D01*
X135704501Y-89730001D02*
X137287000Y-91312500D01*
X137287000Y-96062800D02*
X137871200Y-96647000D01*
X135686800Y-89705000D02*
X136887098Y-89705000D01*
X137515600Y-98552000D02*
X136056600Y-98552000D01*
X138556600Y-87655001D02*
X138583499Y-87681900D01*
X136904799Y-89687299D02*
X138869898Y-87722200D01*
X138869898Y-87722200D02*
X138912600Y-87722200D01*
X137287000Y-91312500D02*
X137287000Y-96062800D01*
D41*
%TO.N,Net-(Q4-G)*%
X127279400Y-93522800D02*
X127918300Y-93522800D01*
X126771400Y-88779201D02*
X126771400Y-92329000D01*
X126851501Y-88699100D02*
X126771400Y-88779201D01*
X126441200Y-94361000D02*
X127279400Y-93522800D01*
X127828000Y-103859800D02*
X127879600Y-103911400D01*
X127918300Y-93475900D02*
X127918300Y-93522800D01*
X127828000Y-100935001D02*
X127828000Y-103859800D01*
X126441200Y-99548201D02*
X126441200Y-94361000D01*
X126771400Y-92329000D02*
X127918300Y-93475900D01*
X127828000Y-100935001D02*
X126441200Y-99548201D01*
D43*
%TO.N,/relay-*%
X146260300Y-105232200D02*
X149072600Y-105232200D01*
X154074800Y-106019600D02*
X156314800Y-108259600D01*
X149072600Y-105232200D02*
X149860000Y-106019600D01*
X149860000Y-106019600D02*
X154074800Y-106019600D01*
D38*
%TO.N,/SIGN1*%
X172694600Y-82778600D02*
X172288200Y-82778600D01*
X158470600Y-82397600D02*
X159751800Y-82397600D01*
X170129200Y-84937600D02*
X163420600Y-84937600D01*
X162291800Y-84937600D02*
X163420600Y-84937600D01*
X172288200Y-82778600D02*
X170129200Y-84937600D01*
X159751800Y-82397600D02*
X162291800Y-84937600D01*
X172694600Y-82778600D02*
X172694600Y-80899000D01*
D44*
X172694600Y-80899000D02*
X172770800Y-80822800D01*
D38*
%TO.N,Net-(U6A-+)*%
X141808200Y-82270600D02*
X141503400Y-81965800D01*
D37*
%TO.N,/SIGN2*%
X164676400Y-93726000D02*
X163431800Y-92481400D01*
X170637200Y-93802200D02*
X171450000Y-92989400D01*
D38*
%TO.N,Net-(U6A-+)*%
X141808204Y-82270600D02*
X141808200Y-82270600D01*
D37*
%TO.N,/SIGN2*%
X171450000Y-90890600D02*
X170881800Y-90322400D01*
X164752600Y-93802200D02*
X170637200Y-93802200D01*
D38*
X141504107Y-76781201D02*
X141504106Y-76781200D01*
X158481800Y-89789000D02*
X159382000Y-89789000D01*
D44*
X170881800Y-90052400D02*
X170872400Y-90043000D01*
D38*
X161922000Y-92329000D02*
X163431800Y-92329000D01*
D37*
X163431800Y-92481400D02*
X163431800Y-92329000D01*
X164676400Y-93726000D02*
X164752600Y-93802200D01*
D38*
%TO.N,Net-(U6A-+)*%
X142341603Y-82803999D02*
X141808204Y-82270600D01*
%TO.N,/SIGN2*%
X163431800Y-92329000D02*
X163449000Y-92329000D01*
X170872400Y-90043000D02*
X170872400Y-88214200D01*
D37*
X171450000Y-92989400D02*
X171450000Y-90890600D01*
D44*
X170881800Y-90322400D02*
X170881800Y-90052400D01*
X170872400Y-90313000D02*
X170881800Y-90322400D01*
D38*
X159382000Y-89789000D02*
X161922000Y-92329000D01*
D47*
%TO.N,/SC1*%
X178380000Y-104955600D02*
X172646600Y-104955600D01*
X172646600Y-104955600D02*
X169900600Y-102209600D01*
X169900600Y-102209600D02*
X154364800Y-102209600D01*
D38*
%TO.N,Net-(Q3-G)*%
X146322800Y-98711000D02*
X146322800Y-98272600D01*
X144385300Y-104282200D02*
X144385300Y-101285100D01*
X144322800Y-100711000D02*
X146322800Y-98711000D01*
X144322800Y-101222600D02*
X144322800Y-100711000D01*
X144385300Y-101285100D02*
X144322800Y-101222600D01*
%TO.N,Net-(U1B--)*%
X155609800Y-81838800D02*
X157438600Y-83667600D01*
X155635200Y-84019600D02*
X155635200Y-81864200D01*
X155635200Y-81864200D02*
X155609800Y-81838800D01*
X157438600Y-83667600D02*
X158470600Y-83667600D01*
%TO.N,Net-(U1A-+)*%
X165956000Y-83667600D02*
X163420600Y-83667600D01*
X165995600Y-81188399D02*
X165985601Y-81178400D01*
X165995600Y-83362800D02*
X165741600Y-83616800D01*
X165995600Y-83362800D02*
X165995600Y-81188399D01*
%TO.N,Net-(U2B--)*%
X166732200Y-92500200D02*
X166764200Y-92532200D01*
X163431800Y-91059000D02*
X165240000Y-91059000D01*
X165970200Y-91059000D02*
X166732200Y-90297000D01*
X165240000Y-91059000D02*
X165970200Y-91059000D01*
X166732200Y-90297000D02*
X166732200Y-92500200D01*
%TO.N,Net-(U2A-+)*%
X154508200Y-89484200D02*
X154508200Y-91897200D01*
X156724400Y-91059000D02*
X158481800Y-91059000D01*
X154508200Y-91897200D02*
X155886200Y-91897200D01*
X155886200Y-91897200D02*
X156724400Y-91059000D01*
%TO.N,/SCS*%
X160118600Y-88519000D02*
X161388600Y-89789000D01*
X165894000Y-86207600D02*
X166246600Y-86560200D01*
X143869400Y-89660500D02*
X149556700Y-89660500D01*
X155549600Y-87706200D02*
X156337000Y-88493600D01*
X163420600Y-86207600D02*
X165894000Y-86207600D01*
X161453600Y-86207600D02*
X163420600Y-86207600D01*
X158481800Y-88519000D02*
X160118600Y-88519000D01*
X161439400Y-87198200D02*
X160118600Y-88519000D01*
X151511000Y-87706200D02*
X155549600Y-87706200D01*
X158470600Y-84937600D02*
X160183600Y-84937600D01*
X158456400Y-88493600D02*
X158481800Y-88519000D01*
X156337000Y-88493600D02*
X158456400Y-88493600D01*
X166300400Y-86614000D02*
X165716200Y-87198200D01*
X161388600Y-89789000D02*
X163431800Y-89789000D01*
X160183600Y-84937600D02*
X161453600Y-86207600D01*
X166237200Y-86969600D02*
X166186400Y-86918800D01*
X165716200Y-87198200D02*
X161439400Y-87198200D01*
X149556700Y-89660500D02*
X151511000Y-87706200D01*
D41*
%TO.N,Net-(R12-Pad2)*%
X146814000Y-75133200D02*
X146884401Y-75062798D01*
D38*
%TO.N,Net-(R13-Pad2)*%
X139854905Y-77160400D02*
X140234106Y-76781200D01*
X138075111Y-77160401D02*
X139854905Y-77160400D01*
%TO.N,Net-(R14-Pad1)*%
X140941100Y-87760500D02*
X141169400Y-87760500D01*
X139019700Y-89681900D02*
X140941100Y-87760500D01*
X138583499Y-89681900D02*
X139019700Y-89681900D01*
%TO.N,Net-(U7A-+)*%
X137580600Y-103581200D02*
X137580600Y-106222800D01*
X136056600Y-99822000D02*
X137031599Y-99822000D01*
X137031599Y-99822000D02*
X137580600Y-100371001D01*
X137580600Y-106222800D02*
X137606000Y-106248200D01*
X137580600Y-100371001D02*
X137580600Y-103581200D01*
D41*
%TO.N,Net-(Q4-D)*%
X139319000Y-101092000D02*
X141006600Y-101092000D01*
X131064000Y-99949000D02*
X131064000Y-104241600D01*
X131064000Y-104241600D02*
X135128000Y-108305600D01*
X127879600Y-96520000D02*
X127879600Y-98161600D01*
X127879600Y-98161600D02*
X128778000Y-99060000D01*
X128803400Y-99034600D02*
X130149600Y-99034600D01*
X135128000Y-108305600D02*
X138049000Y-108305600D01*
X138049000Y-108305600D02*
X138912600Y-107442000D01*
X130149600Y-99034600D02*
X131064000Y-99949000D01*
X138912600Y-107442000D02*
X138912600Y-101498400D01*
X128778000Y-99060000D02*
X128803400Y-99034600D01*
X138912600Y-101498400D02*
X139319000Y-101092000D01*
%TO.N,/delay_trigger*%
X135763000Y-96988400D02*
X136056600Y-97282000D01*
X135763000Y-93786200D02*
X135763000Y-96988400D01*
X129336800Y-87528400D02*
X128751501Y-88113699D01*
X135772400Y-92465400D02*
X130835400Y-87528400D01*
X130835400Y-87528400D02*
X129336800Y-87528400D01*
X128751501Y-88113699D02*
X128751501Y-88699100D01*
X135772400Y-93776800D02*
X135772400Y-92465400D01*
X135763000Y-93522800D02*
X135753600Y-93532200D01*
D38*
%TO.N,/relay_trigger*%
X144043400Y-98552000D02*
X144322800Y-98272600D01*
X138988800Y-97866200D02*
X139674600Y-98552000D01*
X141006600Y-98552000D02*
X144043400Y-98552000D01*
X138988800Y-95411800D02*
X138988800Y-97866200D01*
X139674600Y-98552000D02*
X141006600Y-98552000D01*
%TO.N,/OVERLIMIT*%
X143869400Y-88710500D02*
X144664700Y-88710500D01*
X144664700Y-88710500D02*
X149584401Y-83790799D01*
X149584401Y-83790799D02*
X149584401Y-76962799D01*
%TO.N,Net-(J1-Pin_1)*%
X172865800Y-84778600D02*
X178380000Y-90292800D01*
X178231800Y-93599000D02*
X178435000Y-93599000D01*
X178380000Y-90292800D02*
X178380000Y-93898200D01*
X172694600Y-84778600D02*
X172865800Y-84778600D01*
%TO.N,Net-(J1-Pin_2)*%
X175260000Y-95681800D02*
X175488600Y-95681800D01*
X176705000Y-96898200D02*
X178380000Y-96898200D01*
X175488600Y-95681800D02*
X176705000Y-96898200D01*
X172872400Y-88214200D02*
X172872400Y-88239600D01*
X175260000Y-89433400D02*
X175260000Y-95681800D01*
X174040800Y-88214200D02*
X175260000Y-89433400D01*
X172872400Y-88214200D02*
X174040800Y-88214200D01*
D41*
%TO.N,Net-(U7B--)*%
X142900400Y-101701600D02*
X142900400Y-100126800D01*
X142900400Y-100126800D02*
X142595600Y-99822000D01*
X142367000Y-106121200D02*
X142367000Y-103403400D01*
X142367000Y-103403400D02*
X142367000Y-102235000D01*
X142595600Y-99822000D02*
X141006600Y-99822000D01*
X142367000Y-102235000D02*
X142900400Y-101701600D01*
D47*
%TO.N,/SC2*%
X178380000Y-107955600D02*
X178374400Y-107950000D01*
X168514800Y-108259600D02*
X168818800Y-107955600D01*
X168818800Y-107955600D02*
X178380000Y-107955600D01*
D44*
X178076000Y-108259600D02*
X178380000Y-107955600D01*
%TD*%
%TA.AperFunction,Conductor*%
%TO.N,GND*%
G36*
X186250639Y-62470785D02*
G01*
X186296394Y-62523589D01*
X186307600Y-62575100D01*
X186307600Y-111580100D01*
X186287915Y-111647139D01*
X186235111Y-111692894D01*
X186183600Y-111704100D01*
X125784400Y-111704100D01*
X125717361Y-111684415D01*
X125671606Y-111631611D01*
X125660400Y-111580100D01*
X125660400Y-108616111D01*
X126775100Y-108616111D01*
X126775100Y-108858687D01*
X126798375Y-109035488D01*
X126806762Y-109099189D01*
X126827158Y-109175309D01*
X126869547Y-109333504D01*
X126903830Y-109416270D01*
X126962376Y-109557612D01*
X127083664Y-109767689D01*
X127083666Y-109767692D01*
X127083667Y-109767693D01*
X127231333Y-109960136D01*
X127231339Y-109960143D01*
X127402856Y-110131660D01*
X127402863Y-110131666D01*
X127437180Y-110157998D01*
X127595311Y-110279336D01*
X127805388Y-110400624D01*
X128029500Y-110493454D01*
X128263811Y-110556238D01*
X128444186Y-110579984D01*
X128504311Y-110587900D01*
X128504312Y-110587900D01*
X128746889Y-110587900D01*
X128794988Y-110581567D01*
X128987389Y-110556238D01*
X129221700Y-110493454D01*
X129445812Y-110400624D01*
X129655889Y-110279336D01*
X129848338Y-110131665D01*
X130019865Y-109960138D01*
X130167536Y-109767689D01*
X130288824Y-109557612D01*
X130381654Y-109333500D01*
X130444438Y-109099189D01*
X130476100Y-108858688D01*
X130476100Y-108616112D01*
X130444438Y-108375611D01*
X130381654Y-108141300D01*
X130376340Y-108128472D01*
X130348312Y-108060805D01*
X130288824Y-107917188D01*
X130167536Y-107707111D01*
X130019865Y-107514662D01*
X130019860Y-107514656D01*
X129848343Y-107343139D01*
X129848336Y-107343133D01*
X129655893Y-107195467D01*
X129655892Y-107195466D01*
X129655889Y-107195464D01*
X129445812Y-107074176D01*
X129445329Y-107073976D01*
X129221704Y-106981347D01*
X128987385Y-106918561D01*
X128746889Y-106886900D01*
X128746888Y-106886900D01*
X128504312Y-106886900D01*
X128504311Y-106886900D01*
X128263814Y-106918561D01*
X128029495Y-106981347D01*
X127805394Y-107074173D01*
X127805385Y-107074177D01*
X127641584Y-107168748D01*
X127614423Y-107184430D01*
X127595306Y-107195467D01*
X127402863Y-107343133D01*
X127402856Y-107343139D01*
X127231339Y-107514656D01*
X127231333Y-107514663D01*
X127083667Y-107707106D01*
X126962377Y-107917185D01*
X126962373Y-107917194D01*
X126869547Y-108141295D01*
X126806761Y-108375614D01*
X126775100Y-108616111D01*
X125660400Y-108616111D01*
X125660400Y-100032191D01*
X125680085Y-99965152D01*
X125732889Y-99919397D01*
X125802047Y-99909453D01*
X125865603Y-99938478D01*
X125887499Y-99963296D01*
X125904465Y-99988688D01*
X125904469Y-99988692D01*
X125904469Y-99988693D01*
X126767601Y-100851824D01*
X126781917Y-100868989D01*
X126962233Y-101129813D01*
X127005498Y-101192394D01*
X127027430Y-101258733D01*
X127027500Y-101262909D01*
X127027500Y-101588202D01*
X127030401Y-101625068D01*
X127030402Y-101625071D01*
X127044634Y-101674056D01*
X127048913Y-101696022D01*
X127049970Y-101706348D01*
X127049971Y-101706353D01*
X127133302Y-102039900D01*
X127137000Y-102069955D01*
X127137000Y-102465366D01*
X127126111Y-102516179D01*
X126848648Y-103133810D01*
X126845357Y-103141138D01*
X126844786Y-103142066D01*
X126844352Y-103143373D01*
X126841761Y-103149143D01*
X126841761Y-103149144D01*
X126840940Y-103150971D01*
X126840936Y-103150982D01*
X126817571Y-103224167D01*
X126817151Y-103225456D01*
X126789601Y-103308598D01*
X126779100Y-103411383D01*
X126779100Y-104411401D01*
X126779101Y-104411419D01*
X126789600Y-104514196D01*
X126789601Y-104514199D01*
X126844785Y-104680731D01*
X126844787Y-104680736D01*
X126858457Y-104702898D01*
X126936888Y-104830056D01*
X127060944Y-104954112D01*
X127210266Y-105046214D01*
X127376803Y-105101399D01*
X127479591Y-105111900D01*
X128279608Y-105111899D01*
X128279616Y-105111898D01*
X128279619Y-105111898D01*
X128335902Y-105106148D01*
X128382397Y-105101399D01*
X128548934Y-105046214D01*
X128698256Y-104954112D01*
X128792275Y-104860092D01*
X128853594Y-104826610D01*
X128923286Y-104831594D01*
X128967634Y-104860095D01*
X129061254Y-104953715D01*
X129210475Y-105045756D01*
X129210480Y-105045758D01*
X129376902Y-105100905D01*
X129376909Y-105100906D01*
X129479619Y-105111399D01*
X129629599Y-105111399D01*
X129629600Y-105111398D01*
X129629600Y-102711400D01*
X129479627Y-102711400D01*
X129479612Y-102711401D01*
X129376902Y-102721894D01*
X129210480Y-102777041D01*
X129210475Y-102777043D01*
X129061257Y-102869082D01*
X128981796Y-102948543D01*
X128920472Y-102982027D01*
X128850781Y-102977043D01*
X128794847Y-102935171D01*
X128787115Y-102923527D01*
X128775322Y-102903391D01*
X128618113Y-102634962D01*
X128536000Y-102494756D01*
X128519000Y-102432090D01*
X128519000Y-102069957D01*
X128522697Y-102039902D01*
X128606029Y-101706345D01*
X128611235Y-101683211D01*
X128611235Y-101683202D01*
X128611945Y-101678104D01*
X128612489Y-101678179D01*
X128615783Y-101658850D01*
X128620226Y-101643561D01*
X128625598Y-101625070D01*
X128628500Y-101588195D01*
X128628500Y-101588150D01*
X128928000Y-101588150D01*
X128930899Y-101624990D01*
X128930900Y-101624996D01*
X128976716Y-101782694D01*
X128976717Y-101782697D01*
X129060314Y-101924053D01*
X129060321Y-101924062D01*
X129176438Y-102040179D01*
X129176447Y-102040186D01*
X129317801Y-102123782D01*
X129475514Y-102169601D01*
X129475511Y-102169601D01*
X129477998Y-102169796D01*
X129478000Y-102169796D01*
X129478000Y-101185001D01*
X128928000Y-101185001D01*
X128928000Y-101588150D01*
X128628500Y-101588150D01*
X128628500Y-100422000D01*
X128648185Y-100354961D01*
X128700989Y-100309206D01*
X128752500Y-100298000D01*
X128804000Y-100298000D01*
X128871039Y-100317685D01*
X128916794Y-100370489D01*
X128928000Y-100422000D01*
X128928000Y-100685001D01*
X129604000Y-100685001D01*
X129671039Y-100704686D01*
X129716794Y-100757490D01*
X129728000Y-100809001D01*
X129728000Y-100935001D01*
X129854000Y-100935001D01*
X129921039Y-100954686D01*
X129966794Y-101007490D01*
X129978000Y-101059001D01*
X129978000Y-102169796D01*
X129978001Y-102169796D01*
X129980486Y-102169601D01*
X130138196Y-102123783D01*
X130185878Y-102095584D01*
X130253602Y-102078401D01*
X130319865Y-102100561D01*
X130363629Y-102155026D01*
X130373000Y-102202316D01*
X130373000Y-102587400D01*
X130353315Y-102654439D01*
X130300511Y-102700194D01*
X130249000Y-102711400D01*
X130129600Y-102711400D01*
X130129600Y-105111399D01*
X130279572Y-105111399D01*
X130279586Y-105111398D01*
X130382297Y-105100905D01*
X130548719Y-105045758D01*
X130548726Y-105045755D01*
X130676932Y-104966676D01*
X130744325Y-104948235D01*
X130810988Y-104969157D01*
X130829711Y-104984533D01*
X134687511Y-108842333D01*
X134687514Y-108842335D01*
X134711220Y-108858175D01*
X134711987Y-108858687D01*
X134711988Y-108858688D01*
X134800682Y-108917952D01*
X134800695Y-108917959D01*
X134926438Y-108970043D01*
X134926443Y-108970045D01*
X134926447Y-108970045D01*
X134926448Y-108970046D01*
X135059939Y-108996600D01*
X135059942Y-108996600D01*
X138117060Y-108996600D01*
X138206870Y-108978734D01*
X138250557Y-108970045D01*
X138376311Y-108917956D01*
X138407101Y-108897383D01*
X138434563Y-108879033D01*
X138489487Y-108842335D01*
X139242515Y-108089305D01*
X139303838Y-108055821D01*
X139373529Y-108060805D01*
X139429463Y-108102676D01*
X139450990Y-108158107D01*
X139452311Y-108157845D01*
X139487374Y-108334118D01*
X139487377Y-108334128D01*
X139553821Y-108494540D01*
X139553828Y-108494553D01*
X139650293Y-108638922D01*
X139650296Y-108638926D01*
X139773073Y-108761703D01*
X139773077Y-108761706D01*
X139917446Y-108858171D01*
X139917459Y-108858178D01*
X140061778Y-108917956D01*
X140077876Y-108924624D01*
X140077880Y-108924624D01*
X140077881Y-108924625D01*
X140248177Y-108958500D01*
X140248180Y-108958500D01*
X140421822Y-108958500D01*
X140536394Y-108935709D01*
X140592124Y-108924624D01*
X140752547Y-108858175D01*
X140896923Y-108761706D01*
X141019706Y-108638923D01*
X141116175Y-108494547D01*
X141182624Y-108334124D01*
X141214048Y-108176148D01*
X141216500Y-108163822D01*
X141216500Y-107184430D01*
X141225144Y-107154989D01*
X141231668Y-107125003D01*
X141235422Y-107119987D01*
X141236185Y-107117391D01*
X141252819Y-107096749D01*
X141279319Y-107070249D01*
X141340642Y-107036764D01*
X141410334Y-107041748D01*
X141454681Y-107070249D01*
X141548344Y-107163912D01*
X141697666Y-107256014D01*
X141864203Y-107311199D01*
X141966991Y-107321700D01*
X142767008Y-107321699D01*
X142767016Y-107321698D01*
X142767019Y-107321698D01*
X142823302Y-107315948D01*
X142869797Y-107311199D01*
X143036334Y-107256014D01*
X143185656Y-107163912D01*
X143309712Y-107039856D01*
X143354803Y-106966751D01*
X143406746Y-106920029D01*
X143475709Y-106908806D01*
X143523461Y-106925118D01*
X143537607Y-106933484D01*
X143695304Y-106979299D01*
X143695310Y-106979300D01*
X143732150Y-106982199D01*
X143732166Y-106982200D01*
X144135300Y-106982200D01*
X144635300Y-106982200D01*
X145038434Y-106982200D01*
X145038449Y-106982199D01*
X145075289Y-106979300D01*
X145075295Y-106979299D01*
X145232993Y-106933483D01*
X145232996Y-106933482D01*
X145374352Y-106849885D01*
X145374361Y-106849878D01*
X145490478Y-106733761D01*
X145490485Y-106733752D01*
X145574081Y-106592398D01*
X145619900Y-106434686D01*
X145620095Y-106432201D01*
X145620095Y-106432200D01*
X144635300Y-106432200D01*
X144635300Y-106982200D01*
X144135300Y-106982200D01*
X144135300Y-105382200D01*
X143732150Y-105382200D01*
X143695310Y-105385099D01*
X143695304Y-105385100D01*
X143552356Y-105426631D01*
X143482486Y-105426432D01*
X143423816Y-105388490D01*
X143406371Y-105357706D01*
X143404864Y-105358409D01*
X143401815Y-105351870D01*
X143401814Y-105351866D01*
X143309712Y-105202544D01*
X143261601Y-105154433D01*
X143228116Y-105093110D01*
X143233100Y-105023418D01*
X143274972Y-104967485D01*
X143340436Y-104943068D01*
X143408709Y-104957920D01*
X143412398Y-104960017D01*
X143537402Y-105033944D01*
X143544751Y-105036079D01*
X143695226Y-105079797D01*
X143695229Y-105079797D01*
X143695231Y-105079798D01*
X143732106Y-105082700D01*
X144898300Y-105082700D01*
X144906985Y-105085250D01*
X144915947Y-105083962D01*
X144939987Y-105094940D01*
X144965339Y-105102385D01*
X144971266Y-105109225D01*
X144979503Y-105112987D01*
X144993792Y-105135221D01*
X145011094Y-105155189D01*
X145013381Y-105165703D01*
X145017277Y-105171765D01*
X145022300Y-105206700D01*
X145022300Y-105258200D01*
X145002615Y-105325239D01*
X144949811Y-105370994D01*
X144898300Y-105382200D01*
X144635300Y-105382200D01*
X144635300Y-105932200D01*
X145290985Y-105932200D01*
X145354106Y-105949468D01*
X145412402Y-105983944D01*
X145454024Y-105996036D01*
X145570226Y-106029797D01*
X145570229Y-106029797D01*
X145570231Y-106029798D01*
X145607106Y-106032700D01*
X146144642Y-106032700D01*
X146168831Y-106035082D01*
X146180985Y-106037500D01*
X148440219Y-106037500D01*
X148507258Y-106057185D01*
X148553013Y-106109989D01*
X148562690Y-106142098D01*
X148586644Y-106293330D01*
X148591523Y-106324134D01*
X148654781Y-106518823D01*
X148692412Y-106592676D01*
X148740727Y-106687500D01*
X148747715Y-106701213D01*
X148868028Y-106866813D01*
X149012786Y-107011571D01*
X149138546Y-107102939D01*
X149178390Y-107131887D01*
X149250734Y-107168748D01*
X149360776Y-107224818D01*
X149360778Y-107224818D01*
X149360781Y-107224820D01*
X149456780Y-107256012D01*
X149555465Y-107288077D01*
X149631968Y-107300194D01*
X149757648Y-107320100D01*
X149757649Y-107320100D01*
X149962351Y-107320100D01*
X149962352Y-107320100D01*
X150164534Y-107288077D01*
X150359219Y-107224820D01*
X150541610Y-107131887D01*
X150665677Y-107041748D01*
X150707213Y-107011571D01*
X150707215Y-107011568D01*
X150707219Y-107011566D01*
X150851966Y-106866819D01*
X150851966Y-106866818D01*
X150855411Y-106863374D01*
X150856547Y-106864510D01*
X150909164Y-106830171D01*
X150944933Y-106824900D01*
X153689872Y-106824900D01*
X153756911Y-106844585D01*
X153777553Y-106861219D01*
X154594229Y-107677895D01*
X154627714Y-107739218D01*
X154626323Y-107797668D01*
X154610378Y-107857177D01*
X154594252Y-107917362D01*
X154594251Y-107917370D01*
X154564300Y-108144858D01*
X154564300Y-108374341D01*
X154580127Y-108494553D01*
X154594252Y-108601838D01*
X154598077Y-108616112D01*
X154653642Y-108823487D01*
X154741450Y-109035476D01*
X154741457Y-109035490D01*
X154856192Y-109234217D01*
X154995881Y-109416261D01*
X154995889Y-109416270D01*
X155158130Y-109578511D01*
X155158138Y-109578518D01*
X155340182Y-109718207D01*
X155340185Y-109718208D01*
X155340188Y-109718211D01*
X155538912Y-109832944D01*
X155538917Y-109832946D01*
X155538923Y-109832949D01*
X155630280Y-109870790D01*
X155750913Y-109920758D01*
X155972562Y-109980148D01*
X156200066Y-110010100D01*
X156200073Y-110010100D01*
X156429527Y-110010100D01*
X156429534Y-110010100D01*
X156657038Y-109980148D01*
X156878687Y-109920758D01*
X157090688Y-109832944D01*
X157289412Y-109718211D01*
X157471461Y-109578519D01*
X157471465Y-109578514D01*
X157471470Y-109578511D01*
X157633711Y-109416270D01*
X157633714Y-109416265D01*
X157633719Y-109416261D01*
X157773411Y-109234212D01*
X157888144Y-109035488D01*
X157975958Y-108823487D01*
X158035348Y-108601838D01*
X158065300Y-108374334D01*
X158065300Y-108144866D01*
X158063142Y-108128472D01*
X166514300Y-108128472D01*
X166514300Y-108390727D01*
X166527969Y-108494547D01*
X166548530Y-108650716D01*
X166604256Y-108858688D01*
X166616402Y-108904018D01*
X166616405Y-108904028D01*
X166716753Y-109146290D01*
X166716758Y-109146300D01*
X166847875Y-109373403D01*
X167007518Y-109581451D01*
X167007526Y-109581460D01*
X167192940Y-109766874D01*
X167192948Y-109766881D01*
X167400996Y-109926524D01*
X167628099Y-110057641D01*
X167628109Y-110057646D01*
X167870371Y-110157994D01*
X167870381Y-110157998D01*
X168123684Y-110225870D01*
X168383680Y-110260100D01*
X168383687Y-110260100D01*
X168645913Y-110260100D01*
X168645920Y-110260100D01*
X168905916Y-110225870D01*
X169159219Y-110157998D01*
X169401497Y-110057643D01*
X169628603Y-109926524D01*
X169836651Y-109766882D01*
X169836655Y-109766877D01*
X169836660Y-109766874D01*
X170022074Y-109581460D01*
X170022077Y-109581455D01*
X170022082Y-109581451D01*
X170181724Y-109373403D01*
X170235592Y-109280099D01*
X170286159Y-109231884D01*
X170342979Y-109218100D01*
X178275505Y-109218100D01*
X178275529Y-109218101D01*
X178280640Y-109218101D01*
X178479360Y-109218101D01*
X178479361Y-109218101D01*
X178545489Y-109207626D01*
X178564887Y-109206100D01*
X178738422Y-109206100D01*
X178932826Y-109175309D01*
X179120025Y-109114484D01*
X179295405Y-109025124D01*
X179454646Y-108909428D01*
X179593828Y-108770246D01*
X179709524Y-108611005D01*
X179798884Y-108435625D01*
X179859709Y-108248426D01*
X179873109Y-108163822D01*
X179890500Y-108054022D01*
X179890500Y-107857177D01*
X179859709Y-107662773D01*
X179820503Y-107542111D01*
X179798884Y-107475575D01*
X179798882Y-107475572D01*
X179798882Y-107475570D01*
X179720481Y-107321700D01*
X179709524Y-107300195D01*
X179593828Y-107140954D01*
X179454646Y-107001772D01*
X179295405Y-106886076D01*
X179257599Y-106866813D01*
X179120029Y-106796717D01*
X178932826Y-106735890D01*
X178738422Y-106705100D01*
X178738417Y-106705100D01*
X178594640Y-106705100D01*
X178575242Y-106703573D01*
X178560341Y-106701213D01*
X178473761Y-106687500D01*
X178275039Y-106687500D01*
X178249322Y-106691573D01*
X178229925Y-106693100D01*
X169801570Y-106693100D01*
X169734531Y-106673415D01*
X169726083Y-106667476D01*
X169628598Y-106592672D01*
X169401500Y-106461558D01*
X169401490Y-106461553D01*
X169159228Y-106361205D01*
X169159221Y-106361203D01*
X169159219Y-106361202D01*
X169083294Y-106340858D01*
X180949500Y-106340858D01*
X180949500Y-106570341D01*
X180969730Y-106723997D01*
X180979452Y-106797838D01*
X181019413Y-106946976D01*
X181038842Y-107019487D01*
X181126650Y-107231476D01*
X181126657Y-107231490D01*
X181160964Y-107290911D01*
X181229371Y-107409397D01*
X181241392Y-107430217D01*
X181381081Y-107612261D01*
X181381089Y-107612270D01*
X181543330Y-107774511D01*
X181543338Y-107774518D01*
X181725382Y-107914207D01*
X181725385Y-107914208D01*
X181725388Y-107914211D01*
X181924112Y-108028944D01*
X181924117Y-108028946D01*
X181924123Y-108028949D01*
X182001031Y-108060805D01*
X182136113Y-108116758D01*
X182357762Y-108176148D01*
X182585266Y-108206100D01*
X182585273Y-108206100D01*
X182814727Y-108206100D01*
X182814734Y-108206100D01*
X183042238Y-108176148D01*
X183263887Y-108116758D01*
X183475888Y-108028944D01*
X183674612Y-107914211D01*
X183856661Y-107774519D01*
X183856665Y-107774514D01*
X183856670Y-107774511D01*
X184018911Y-107612270D01*
X184018914Y-107612265D01*
X184018919Y-107612261D01*
X184158611Y-107430212D01*
X184273344Y-107231488D01*
X184361158Y-107019487D01*
X184420548Y-106797838D01*
X184450500Y-106570334D01*
X184450500Y-106340866D01*
X184420548Y-106113362D01*
X184361158Y-105891713D01*
X184273344Y-105679712D01*
X184158611Y-105480988D01*
X184158608Y-105480985D01*
X184158607Y-105480982D01*
X184039100Y-105325239D01*
X184018919Y-105298939D01*
X184018918Y-105298938D01*
X184018911Y-105298930D01*
X183856670Y-105136689D01*
X183856661Y-105136681D01*
X183674617Y-104996992D01*
X183653037Y-104984533D01*
X183565063Y-104933741D01*
X183475890Y-104882257D01*
X183475876Y-104882250D01*
X183263887Y-104794442D01*
X183175298Y-104770705D01*
X183042238Y-104735052D01*
X183004215Y-104730046D01*
X182814741Y-104705100D01*
X182814734Y-104705100D01*
X182585266Y-104705100D01*
X182585258Y-104705100D01*
X182375703Y-104732690D01*
X182357762Y-104735052D01*
X182297784Y-104751123D01*
X182136112Y-104794442D01*
X181924123Y-104882250D01*
X181924109Y-104882257D01*
X181725382Y-104996992D01*
X181543338Y-105136681D01*
X181381081Y-105298938D01*
X181241392Y-105480982D01*
X181126657Y-105679709D01*
X181126650Y-105679723D01*
X181038842Y-105891712D01*
X180979453Y-106113359D01*
X180979451Y-106113370D01*
X180949500Y-106340858D01*
X169083294Y-106340858D01*
X168905916Y-106293330D01*
X168848139Y-106285723D01*
X168645927Y-106259100D01*
X168645920Y-106259100D01*
X168383680Y-106259100D01*
X168383672Y-106259100D01*
X168152572Y-106289526D01*
X168123684Y-106293330D01*
X167946254Y-106340872D01*
X167870381Y-106361202D01*
X167870371Y-106361205D01*
X167628109Y-106461553D01*
X167628099Y-106461558D01*
X167400996Y-106592675D01*
X167192948Y-106752318D01*
X167007518Y-106937748D01*
X166847875Y-107145796D01*
X166716758Y-107372899D01*
X166716753Y-107372909D01*
X166616405Y-107615171D01*
X166616402Y-107615181D01*
X166548530Y-107868485D01*
X166514300Y-108128472D01*
X158063142Y-108128472D01*
X158035348Y-107917362D01*
X157975958Y-107695713D01*
X157912334Y-107542111D01*
X157888149Y-107483723D01*
X157888146Y-107483717D01*
X157888144Y-107483712D01*
X157773411Y-107284988D01*
X157773408Y-107284985D01*
X157773407Y-107284982D01*
X157633718Y-107102938D01*
X157633711Y-107102930D01*
X157471470Y-106940689D01*
X157471461Y-106940681D01*
X157289417Y-106800992D01*
X157282012Y-106796717D01*
X157120682Y-106703573D01*
X157090690Y-106686257D01*
X157090676Y-106686250D01*
X156878687Y-106598442D01*
X156845882Y-106589652D01*
X156657038Y-106539052D01*
X156619015Y-106534046D01*
X156429541Y-106509100D01*
X156429534Y-106509100D01*
X156200066Y-106509100D01*
X156200058Y-106509100D01*
X155983515Y-106537609D01*
X155972562Y-106539052D01*
X155972555Y-106539054D01*
X155852868Y-106571123D01*
X155783019Y-106569460D01*
X155733095Y-106539029D01*
X154704658Y-105510592D01*
X154704638Y-105510570D01*
X154588152Y-105394084D01*
X154588148Y-105394081D01*
X154456259Y-105305955D01*
X154456246Y-105305948D01*
X154309701Y-105245248D01*
X154309691Y-105245245D01*
X154154117Y-105214299D01*
X154154115Y-105214299D01*
X153995485Y-105214299D01*
X153989371Y-105214299D01*
X153989351Y-105214300D01*
X150944933Y-105214300D01*
X150877894Y-105194615D01*
X150855854Y-105175382D01*
X150855411Y-105175826D01*
X150707213Y-105027628D01*
X150541613Y-104907315D01*
X150541612Y-104907314D01*
X150541610Y-104907313D01*
X150442699Y-104856915D01*
X150359223Y-104814381D01*
X150164534Y-104751122D01*
X149989995Y-104723478D01*
X149962352Y-104719100D01*
X149757648Y-104719100D01*
X149752776Y-104719100D01*
X149752776Y-104717492D01*
X149691294Y-104704570D01*
X149662271Y-104683003D01*
X149585952Y-104606684D01*
X149585948Y-104606681D01*
X149454059Y-104518555D01*
X149454046Y-104518548D01*
X149307501Y-104457848D01*
X149307491Y-104457845D01*
X149151917Y-104426899D01*
X149151915Y-104426899D01*
X148993285Y-104426899D01*
X148987171Y-104426899D01*
X148987151Y-104426900D01*
X146180985Y-104426900D01*
X146168831Y-104429317D01*
X146144642Y-104431700D01*
X145747300Y-104431700D01*
X145680261Y-104412015D01*
X145634506Y-104359211D01*
X145623300Y-104307700D01*
X145623300Y-104066513D01*
X145623299Y-104066498D01*
X145620398Y-104029632D01*
X145620397Y-104029626D01*
X145574545Y-103871806D01*
X145574544Y-103871803D01*
X145574544Y-103871802D01*
X145490881Y-103730335D01*
X145490879Y-103730333D01*
X145490876Y-103730329D01*
X145374670Y-103614123D01*
X145374662Y-103614117D01*
X145233197Y-103530455D01*
X145229202Y-103529295D01*
X145226441Y-103527531D01*
X145226035Y-103527356D01*
X145226063Y-103527290D01*
X145170317Y-103491687D01*
X145141113Y-103428214D01*
X145139800Y-103410219D01*
X145139800Y-102318330D01*
X145148443Y-102288893D01*
X145154967Y-102258904D01*
X145158722Y-102253886D01*
X145159485Y-102251291D01*
X145176113Y-102230654D01*
X145235475Y-102171292D01*
X145296794Y-102137810D01*
X145366486Y-102142794D01*
X145410834Y-102171295D01*
X145504454Y-102264915D01*
X145653675Y-102356956D01*
X145653680Y-102356958D01*
X145820102Y-102412105D01*
X145820109Y-102412106D01*
X145922819Y-102422599D01*
X146072799Y-102422599D01*
X146572800Y-102422599D01*
X146722772Y-102422599D01*
X146722786Y-102422598D01*
X146825497Y-102412105D01*
X146991919Y-102356958D01*
X146991924Y-102356956D01*
X147141145Y-102264915D01*
X147265115Y-102140945D01*
X147303649Y-102078472D01*
X152364300Y-102078472D01*
X152364300Y-102340727D01*
X152383715Y-102488189D01*
X152398530Y-102600716D01*
X152455165Y-102812080D01*
X152466402Y-102854018D01*
X152466405Y-102854028D01*
X152566753Y-103096290D01*
X152566758Y-103096300D01*
X152697875Y-103323403D01*
X152857518Y-103531451D01*
X152857526Y-103531460D01*
X153042940Y-103716874D01*
X153042948Y-103716881D01*
X153042949Y-103716882D01*
X153060481Y-103730335D01*
X153250996Y-103876524D01*
X153478099Y-104007641D01*
X153478109Y-104007646D01*
X153655663Y-104081191D01*
X153720381Y-104107998D01*
X153973684Y-104175870D01*
X154233680Y-104210100D01*
X154233687Y-104210100D01*
X154495913Y-104210100D01*
X154495920Y-104210100D01*
X154755916Y-104175870D01*
X155009219Y-104107998D01*
X155251497Y-104007643D01*
X155478603Y-103876524D01*
X155686651Y-103716882D01*
X155686655Y-103716877D01*
X155686660Y-103716874D01*
X155872074Y-103531460D01*
X155872079Y-103531454D01*
X155872082Y-103531451D01*
X155880398Y-103520613D01*
X155936825Y-103479411D01*
X155978773Y-103472100D01*
X169326294Y-103472100D01*
X169393333Y-103491785D01*
X169413974Y-103508418D01*
X171683618Y-105778063D01*
X171683619Y-105778064D01*
X171824136Y-105918581D01*
X171984906Y-106035387D01*
X172109586Y-106098915D01*
X172137955Y-106113370D01*
X172161970Y-106125606D01*
X172256465Y-106156309D01*
X172350963Y-106187013D01*
X172441866Y-106201410D01*
X172547234Y-106218100D01*
X172547239Y-106218100D01*
X178479360Y-106218100D01*
X178479361Y-106218100D01*
X178545485Y-106207627D01*
X178564883Y-106206100D01*
X179190003Y-106206100D01*
X179190008Y-106206100D01*
X179292797Y-106195599D01*
X179459334Y-106140414D01*
X179608655Y-106048311D01*
X179732711Y-105924255D01*
X179824814Y-105774934D01*
X179879999Y-105608397D01*
X179890500Y-105505608D01*
X179890500Y-104405592D01*
X179879999Y-104302803D01*
X179824814Y-104136266D01*
X179807377Y-104107997D01*
X179732713Y-103986948D01*
X179732710Y-103986944D01*
X179608655Y-103862889D01*
X179608651Y-103862886D01*
X179459337Y-103770787D01*
X179459335Y-103770786D01*
X179337243Y-103730329D01*
X179292797Y-103715601D01*
X179292795Y-103715600D01*
X179190015Y-103705100D01*
X179190008Y-103705100D01*
X178564883Y-103705100D01*
X178545485Y-103703573D01*
X178539679Y-103702653D01*
X178479361Y-103693100D01*
X178479360Y-103693100D01*
X173220907Y-103693100D01*
X173153868Y-103673415D01*
X173133226Y-103656781D01*
X170867921Y-101391477D01*
X170867912Y-101391467D01*
X170799344Y-101322899D01*
X170723064Y-101246619D01*
X170562294Y-101129813D01*
X170385232Y-101039594D01*
X170385229Y-101039593D01*
X170196237Y-100978187D01*
X170098098Y-100962643D01*
X169999961Y-100947100D01*
X169999960Y-100947100D01*
X155978773Y-100947100D01*
X155911734Y-100927415D01*
X155880399Y-100898587D01*
X155872082Y-100887749D01*
X155872081Y-100887748D01*
X155872079Y-100887745D01*
X155686660Y-100702326D01*
X155686651Y-100702318D01*
X155478603Y-100542675D01*
X155251500Y-100411558D01*
X155251490Y-100411553D01*
X155009228Y-100311205D01*
X155009221Y-100311203D01*
X155009219Y-100311202D01*
X154755916Y-100243330D01*
X154694324Y-100235221D01*
X154495927Y-100209100D01*
X154495920Y-100209100D01*
X154233680Y-100209100D01*
X154233672Y-100209100D01*
X154002572Y-100239526D01*
X153973684Y-100243330D01*
X153727830Y-100309206D01*
X153720381Y-100311202D01*
X153720371Y-100311205D01*
X153478109Y-100411553D01*
X153478099Y-100411558D01*
X153250996Y-100542675D01*
X153042948Y-100702318D01*
X152857518Y-100887748D01*
X152697875Y-101095796D01*
X152566758Y-101322899D01*
X152566753Y-101322909D01*
X152466405Y-101565171D01*
X152466402Y-101565181D01*
X152428578Y-101706345D01*
X152398530Y-101818485D01*
X152364300Y-102078472D01*
X147303649Y-102078472D01*
X147346300Y-102009324D01*
X147346300Y-102009323D01*
X147357155Y-101991725D01*
X147357158Y-101991719D01*
X147412305Y-101825297D01*
X147412306Y-101825290D01*
X147422799Y-101722586D01*
X147422800Y-101722573D01*
X147422800Y-101472600D01*
X146572800Y-101472600D01*
X146572800Y-102422599D01*
X146072799Y-102422599D01*
X146072800Y-102422598D01*
X146072800Y-100972600D01*
X146572800Y-100972600D01*
X147422799Y-100972600D01*
X147422799Y-100722628D01*
X147422798Y-100722613D01*
X147412305Y-100619902D01*
X147357158Y-100453480D01*
X147357156Y-100453475D01*
X147265115Y-100304254D01*
X147141145Y-100180284D01*
X146991924Y-100088243D01*
X146991919Y-100088241D01*
X146825497Y-100033094D01*
X146825490Y-100033093D01*
X146722786Y-100022600D01*
X146572800Y-100022600D01*
X146572800Y-100972600D01*
X146072800Y-100972600D01*
X146072800Y-100079385D01*
X146081443Y-100049949D01*
X146087963Y-100019966D01*
X146091722Y-100014943D01*
X146092485Y-100012346D01*
X146109107Y-99991715D01*
X146115645Y-99985177D01*
X146130241Y-99973240D01*
X146130078Y-99973029D01*
X146259545Y-99873083D01*
X146758052Y-99488246D01*
X146821227Y-99463045D01*
X146825597Y-99462599D01*
X146992134Y-99407414D01*
X147141456Y-99315312D01*
X147265512Y-99191256D01*
X147357614Y-99041934D01*
X147412799Y-98875397D01*
X147423300Y-98772609D01*
X147423299Y-97772592D01*
X147420026Y-97740556D01*
X147412799Y-97669803D01*
X147412798Y-97669800D01*
X147385497Y-97587410D01*
X147373675Y-97551735D01*
X148559500Y-97551735D01*
X148559500Y-99247470D01*
X148559501Y-99247476D01*
X148565908Y-99307083D01*
X148616202Y-99441928D01*
X148616206Y-99441935D01*
X148702452Y-99557144D01*
X148702455Y-99557147D01*
X148817664Y-99643393D01*
X148817671Y-99643397D01*
X148952517Y-99693691D01*
X148952516Y-99693691D01*
X148959444Y-99694435D01*
X149012127Y-99700100D01*
X150707872Y-99700099D01*
X150767483Y-99693691D01*
X150902331Y-99643396D01*
X151017546Y-99557146D01*
X151103796Y-99441931D01*
X151154091Y-99307083D01*
X151160500Y-99247473D01*
X151160499Y-97551728D01*
X151154091Y-97492117D01*
X151151160Y-97484259D01*
X151103797Y-97357271D01*
X151103793Y-97357264D01*
X151017547Y-97242055D01*
X151017544Y-97242052D01*
X150902335Y-97155806D01*
X150902328Y-97155802D01*
X150767482Y-97105508D01*
X150767483Y-97105508D01*
X150707883Y-97099101D01*
X150707881Y-97099100D01*
X150707873Y-97099100D01*
X150707864Y-97099100D01*
X149012129Y-97099100D01*
X149012123Y-97099101D01*
X148952516Y-97105508D01*
X148817671Y-97155802D01*
X148817664Y-97155806D01*
X148702455Y-97242052D01*
X148702452Y-97242055D01*
X148616206Y-97357264D01*
X148616202Y-97357271D01*
X148565908Y-97492117D01*
X148561344Y-97534573D01*
X148559501Y-97551723D01*
X148559500Y-97551735D01*
X147373675Y-97551735D01*
X147367988Y-97534573D01*
X147357614Y-97503266D01*
X147265512Y-97353944D01*
X147141456Y-97229888D01*
X146992134Y-97137786D01*
X146825597Y-97082601D01*
X146825595Y-97082600D01*
X146722810Y-97072100D01*
X145922798Y-97072100D01*
X145922780Y-97072101D01*
X145820003Y-97082600D01*
X145820000Y-97082601D01*
X145653468Y-97137785D01*
X145653463Y-97137787D01*
X145504142Y-97229889D01*
X145410481Y-97323551D01*
X145349158Y-97357036D01*
X145279466Y-97352052D01*
X145235119Y-97323551D01*
X145141457Y-97229889D01*
X145141456Y-97229888D01*
X144992134Y-97137786D01*
X144825597Y-97082601D01*
X144825595Y-97082600D01*
X144722810Y-97072100D01*
X143922798Y-97072100D01*
X143922780Y-97072101D01*
X143820003Y-97082600D01*
X143820000Y-97082601D01*
X143653468Y-97137785D01*
X143653463Y-97137787D01*
X143504142Y-97229889D01*
X143380089Y-97353942D01*
X143287987Y-97503263D01*
X143287985Y-97503268D01*
X143266924Y-97566828D01*
X143238469Y-97652700D01*
X143232801Y-97669804D01*
X143232800Y-97669806D01*
X143231136Y-97686101D01*
X143204741Y-97750793D01*
X143147560Y-97790945D01*
X143107778Y-97797500D01*
X142567962Y-97797500D01*
X142500923Y-97777815D01*
X142455168Y-97725011D01*
X142445224Y-97655853D01*
X142448886Y-97638905D01*
X142479197Y-97534573D01*
X142479198Y-97534567D01*
X142482100Y-97497694D01*
X142482100Y-97066306D01*
X142479198Y-97029431D01*
X142433344Y-96871602D01*
X142349681Y-96730135D01*
X142349679Y-96730133D01*
X142349676Y-96730129D01*
X142233470Y-96613923D01*
X142233461Y-96613916D01*
X142111532Y-96541808D01*
X142063849Y-96490739D01*
X142051345Y-96421997D01*
X142077990Y-96357408D01*
X142086954Y-96347413D01*
X142178912Y-96255456D01*
X142271014Y-96106134D01*
X142326199Y-95939597D01*
X142336700Y-95836809D01*
X142336699Y-95061792D01*
X142336103Y-95055962D01*
X142326199Y-94959003D01*
X142326198Y-94959000D01*
X142307045Y-94901201D01*
X142271014Y-94792466D01*
X142178912Y-94643144D01*
X142054856Y-94519088D01*
X142051542Y-94517043D01*
X142049746Y-94515048D01*
X142049189Y-94514607D01*
X142049264Y-94514511D01*
X142004818Y-94465097D01*
X141993597Y-94396134D01*
X142021440Y-94332052D01*
X142051548Y-94305965D01*
X142054542Y-94304118D01*
X142178515Y-94180145D01*
X142270556Y-94030924D01*
X142270558Y-94030919D01*
X142325705Y-93864497D01*
X142325706Y-93864490D01*
X142336199Y-93761786D01*
X142336200Y-93761773D01*
X142336200Y-93624300D01*
X141235200Y-93624300D01*
X141168161Y-93604615D01*
X141122406Y-93551811D01*
X141111200Y-93500300D01*
X141111200Y-93374300D01*
X140985200Y-93374300D01*
X140918161Y-93354615D01*
X140872406Y-93301811D01*
X140861200Y-93250300D01*
X140861200Y-93124300D01*
X141361200Y-93124300D01*
X142336199Y-93124300D01*
X142336199Y-92986828D01*
X142336198Y-92986813D01*
X142325705Y-92884102D01*
X142270558Y-92717680D01*
X142270556Y-92717675D01*
X142178515Y-92568454D01*
X142054545Y-92444484D01*
X141905324Y-92352443D01*
X141905319Y-92352441D01*
X141738897Y-92297294D01*
X141738890Y-92297293D01*
X141636186Y-92286800D01*
X141361200Y-92286800D01*
X141361200Y-93124300D01*
X140861200Y-93124300D01*
X140861200Y-92286800D01*
X140839570Y-92265170D01*
X140823335Y-92235438D01*
X140806085Y-92203848D01*
X140807186Y-92188459D01*
X140811069Y-92134155D01*
X140849727Y-92082515D01*
X140852940Y-92078223D01*
X140858336Y-92074404D01*
X140973124Y-91997706D01*
X141629419Y-91341409D01*
X141690742Y-91307925D01*
X141760433Y-91312909D01*
X141816367Y-91354780D01*
X141840784Y-91420245D01*
X141841100Y-91429091D01*
X141841100Y-91504305D01*
X141841100Y-91504307D01*
X141841099Y-91504307D01*
X141862828Y-91613541D01*
X141866190Y-91630440D01*
X141866191Y-91630444D01*
X141903157Y-91719689D01*
X141915408Y-91749264D01*
X141986859Y-91856200D01*
X141986862Y-91856204D01*
X141986863Y-91856205D01*
X144363796Y-94233137D01*
X144363801Y-94233141D01*
X144376370Y-94241539D01*
X144453302Y-94292943D01*
X144470027Y-94304118D01*
X144470733Y-94304590D01*
X144470738Y-94304593D01*
X144482189Y-94309336D01*
X144589556Y-94353809D01*
X144589560Y-94353809D01*
X144589561Y-94353810D01*
X144715692Y-94378900D01*
X144715695Y-94378900D01*
X155657545Y-94378900D01*
X155724584Y-94398585D01*
X155770339Y-94451389D01*
X155780283Y-94520547D01*
X155751258Y-94584103D01*
X155704999Y-94617460D01*
X155642998Y-94643142D01*
X155538918Y-94686253D01*
X155538909Y-94686257D01*
X155340182Y-94800992D01*
X155158138Y-94940681D01*
X154995881Y-95102938D01*
X154856192Y-95284982D01*
X154741457Y-95483709D01*
X154741450Y-95483723D01*
X154653642Y-95695712D01*
X154637458Y-95756112D01*
X154598401Y-95901880D01*
X154594253Y-95917359D01*
X154594251Y-95917370D01*
X154564300Y-96144858D01*
X154564300Y-96374341D01*
X154583565Y-96520663D01*
X154594252Y-96601838D01*
X154602851Y-96633930D01*
X154653642Y-96823487D01*
X154741450Y-97035476D01*
X154741457Y-97035490D01*
X154856192Y-97234217D01*
X154995881Y-97416261D01*
X154995889Y-97416270D01*
X155158130Y-97578511D01*
X155158138Y-97578518D01*
X155340182Y-97718207D01*
X155340185Y-97718208D01*
X155340188Y-97718211D01*
X155538912Y-97832944D01*
X155538917Y-97832946D01*
X155538923Y-97832949D01*
X155630198Y-97870756D01*
X155750913Y-97920758D01*
X155972562Y-97980148D01*
X156200066Y-98010100D01*
X156200073Y-98010100D01*
X156429527Y-98010100D01*
X156429534Y-98010100D01*
X156657038Y-97980148D01*
X156878687Y-97920758D01*
X157090688Y-97832944D01*
X157289412Y-97718211D01*
X157471461Y-97578519D01*
X157471465Y-97578514D01*
X157471470Y-97578511D01*
X157633711Y-97416270D01*
X157633714Y-97416265D01*
X157633719Y-97416261D01*
X157773411Y-97234212D01*
X157888144Y-97035488D01*
X157975958Y-96823487D01*
X158035348Y-96601838D01*
X158065300Y-96374334D01*
X158065300Y-96144866D01*
X158065146Y-96143700D01*
X158059633Y-96101824D01*
X158035348Y-95917362D01*
X157975958Y-95695713D01*
X157900248Y-95512934D01*
X157888149Y-95483723D01*
X157888146Y-95483717D01*
X157888144Y-95483712D01*
X157773411Y-95284988D01*
X157773408Y-95284985D01*
X157773407Y-95284982D01*
X157660774Y-95138198D01*
X157633719Y-95102939D01*
X157633718Y-95102938D01*
X157633711Y-95102930D01*
X157471470Y-94940689D01*
X157471461Y-94940681D01*
X157289417Y-94800992D01*
X157090690Y-94686257D01*
X157090681Y-94686253D01*
X157021540Y-94657614D01*
X156924601Y-94617460D01*
X156870199Y-94573620D01*
X156848134Y-94507326D01*
X156865413Y-94439627D01*
X156916550Y-94392016D01*
X156972055Y-94378900D01*
X164414102Y-94378900D01*
X164461554Y-94388339D01*
X164546654Y-94423588D01*
X164562156Y-94430009D01*
X164562160Y-94430009D01*
X164562161Y-94430010D01*
X164688292Y-94455100D01*
X164688295Y-94455100D01*
X167199838Y-94455100D01*
X167266877Y-94474785D01*
X167312632Y-94527589D01*
X167322576Y-94596747D01*
X167293551Y-94660303D01*
X167275331Y-94677469D01*
X167243168Y-94702150D01*
X167242939Y-94702326D01*
X167057526Y-94887740D01*
X167057518Y-94887748D01*
X166897875Y-95095796D01*
X166766758Y-95322899D01*
X166766753Y-95322909D01*
X166666405Y-95565171D01*
X166666402Y-95565181D01*
X166598530Y-95818484D01*
X166594726Y-95847372D01*
X166564300Y-96078472D01*
X166564300Y-96340727D01*
X166590774Y-96541808D01*
X166598530Y-96600716D01*
X166629718Y-96717111D01*
X166666402Y-96854018D01*
X166666405Y-96854028D01*
X166766753Y-97096290D01*
X166766758Y-97096300D01*
X166897875Y-97323403D01*
X167057518Y-97531451D01*
X167057526Y-97531460D01*
X167242940Y-97716874D01*
X167242948Y-97716881D01*
X167242949Y-97716882D01*
X167273801Y-97740556D01*
X167450996Y-97876524D01*
X167678099Y-98007641D01*
X167678109Y-98007646D01*
X167920371Y-98107994D01*
X167920381Y-98107998D01*
X168173684Y-98175870D01*
X168433680Y-98210100D01*
X168433687Y-98210100D01*
X168695913Y-98210100D01*
X168695920Y-98210100D01*
X168955916Y-98175870D01*
X169209219Y-98107998D01*
X169386140Y-98034714D01*
X169451490Y-98007646D01*
X169451491Y-98007645D01*
X169451497Y-98007643D01*
X169678603Y-97876524D01*
X169886651Y-97716882D01*
X169886655Y-97716877D01*
X169886660Y-97716874D01*
X170072074Y-97531460D01*
X170072077Y-97531455D01*
X170072082Y-97531451D01*
X170231724Y-97323403D01*
X170362843Y-97096297D01*
X170368517Y-97082600D01*
X170455915Y-96871602D01*
X170463198Y-96854019D01*
X170531070Y-96600716D01*
X170565300Y-96340720D01*
X170565300Y-96078480D01*
X170531070Y-95818484D01*
X170463198Y-95565181D01*
X170463194Y-95565171D01*
X170362846Y-95322909D01*
X170362841Y-95322899D01*
X170231724Y-95095796D01*
X170072081Y-94887748D01*
X170072074Y-94887740D01*
X169886660Y-94702326D01*
X169886655Y-94702322D01*
X169886651Y-94702318D01*
X169854273Y-94677473D01*
X169813073Y-94621047D01*
X169808918Y-94551301D01*
X169843131Y-94490381D01*
X169904848Y-94457629D01*
X169929762Y-94455100D01*
X170701507Y-94455100D01*
X170786365Y-94438219D01*
X170827644Y-94430009D01*
X170946464Y-94380792D01*
X171053400Y-94309341D01*
X171957141Y-93405599D01*
X172028592Y-93298664D01*
X172077809Y-93179844D01*
X172080000Y-93168829D01*
X172097895Y-93078866D01*
X172102900Y-93053707D01*
X172102900Y-91592100D01*
X172122585Y-91525061D01*
X172175389Y-91479306D01*
X172244547Y-91469362D01*
X172265905Y-91474394D01*
X172379105Y-91511905D01*
X172379109Y-91511906D01*
X172481819Y-91522399D01*
X172631799Y-91522399D01*
X173131800Y-91522399D01*
X173281772Y-91522399D01*
X173281786Y-91522398D01*
X173384497Y-91511905D01*
X173550919Y-91456758D01*
X173550924Y-91456756D01*
X173700145Y-91364715D01*
X173824115Y-91240745D01*
X173916156Y-91091524D01*
X173916158Y-91091519D01*
X173971305Y-90925097D01*
X173971306Y-90925090D01*
X173981799Y-90822386D01*
X173981800Y-90822373D01*
X173981800Y-90572400D01*
X173131800Y-90572400D01*
X173131800Y-91522399D01*
X172631799Y-91522399D01*
X172631800Y-91522398D01*
X172631800Y-90446400D01*
X172651485Y-90379361D01*
X172704289Y-90333606D01*
X172755800Y-90322400D01*
X172881800Y-90322400D01*
X172881800Y-90196400D01*
X172901485Y-90129361D01*
X172954289Y-90083606D01*
X173005800Y-90072400D01*
X173981799Y-90072400D01*
X173981799Y-89822428D01*
X173981798Y-89822413D01*
X173971305Y-89719702D01*
X173916158Y-89553280D01*
X173916156Y-89553275D01*
X173834551Y-89420973D01*
X173816111Y-89353580D01*
X173837034Y-89286917D01*
X173890675Y-89242147D01*
X173960006Y-89233486D01*
X174023014Y-89263682D01*
X174027771Y-89268195D01*
X174469181Y-89709605D01*
X174502666Y-89770928D01*
X174505500Y-89797286D01*
X174505500Y-95756116D01*
X174534493Y-95901872D01*
X174534495Y-95901880D01*
X174591371Y-96039191D01*
X174673939Y-96162764D01*
X174673945Y-96162771D01*
X174779028Y-96267854D01*
X174779035Y-96267860D01*
X174902608Y-96350428D01*
X174902609Y-96350428D01*
X174902610Y-96350429D01*
X175039920Y-96407305D01*
X175136798Y-96426575D01*
X175198705Y-96458958D01*
X175200285Y-96460510D01*
X176114600Y-97374824D01*
X176114621Y-97374847D01*
X176224028Y-97484254D01*
X176224035Y-97484260D01*
X176347608Y-97566828D01*
X176347609Y-97566828D01*
X176347610Y-97566829D01*
X176484920Y-97623705D01*
X176630683Y-97652699D01*
X176630687Y-97652700D01*
X176630688Y-97652700D01*
X176779312Y-97652700D01*
X177059292Y-97652700D01*
X177126331Y-97672385D01*
X177159608Y-97703812D01*
X177164512Y-97710561D01*
X177166172Y-97712846D01*
X177305354Y-97852028D01*
X177464595Y-97967724D01*
X177516104Y-97993969D01*
X177639970Y-98057082D01*
X177639972Y-98057082D01*
X177639975Y-98057084D01*
X177681687Y-98070637D01*
X177827173Y-98117909D01*
X178021578Y-98148700D01*
X178021583Y-98148700D01*
X178738422Y-98148700D01*
X178932826Y-98117909D01*
X178938166Y-98116174D01*
X179120025Y-98057084D01*
X179295405Y-97967724D01*
X179454646Y-97852028D01*
X179593828Y-97712846D01*
X179709524Y-97553605D01*
X179798884Y-97378225D01*
X179859709Y-97191026D01*
X179868141Y-97137787D01*
X179890500Y-96996622D01*
X179890500Y-96799777D01*
X179859709Y-96605373D01*
X179831487Y-96518517D01*
X179798884Y-96418175D01*
X179798882Y-96418172D01*
X179798882Y-96418170D01*
X179722295Y-96267860D01*
X179709524Y-96242795D01*
X179593828Y-96083554D01*
X179454646Y-95944372D01*
X179295405Y-95828676D01*
X179275402Y-95818484D01*
X179120029Y-95739317D01*
X178932826Y-95678490D01*
X178738422Y-95647700D01*
X178738417Y-95647700D01*
X178021583Y-95647700D01*
X178021578Y-95647700D01*
X177827173Y-95678490D01*
X177639970Y-95739317D01*
X177464594Y-95828676D01*
X177373741Y-95894685D01*
X177305354Y-95944372D01*
X177305352Y-95944374D01*
X177305351Y-95944374D01*
X177166174Y-96083551D01*
X177166169Y-96083557D01*
X177163641Y-96087037D01*
X177108307Y-96129698D01*
X177038693Y-96135671D01*
X176976901Y-96103060D01*
X176975648Y-96101824D01*
X176240913Y-95367088D01*
X176157283Y-95283458D01*
X180949500Y-95283458D01*
X180949500Y-95512941D01*
X180971296Y-95678490D01*
X180979452Y-95740438D01*
X181005276Y-95836816D01*
X181038842Y-95962087D01*
X181126650Y-96174076D01*
X181126657Y-96174090D01*
X181241392Y-96372817D01*
X181381081Y-96554861D01*
X181381089Y-96554870D01*
X181543330Y-96717111D01*
X181543338Y-96717118D01*
X181725382Y-96856807D01*
X181725385Y-96856808D01*
X181725388Y-96856811D01*
X181924112Y-96971544D01*
X181924117Y-96971546D01*
X181924123Y-96971549D01*
X181984643Y-96996617D01*
X182136113Y-97059358D01*
X182357762Y-97118748D01*
X182585266Y-97148700D01*
X182585273Y-97148700D01*
X182814727Y-97148700D01*
X182814734Y-97148700D01*
X183042238Y-97118748D01*
X183263887Y-97059358D01*
X183475888Y-96971544D01*
X183674612Y-96856811D01*
X183856661Y-96717119D01*
X183856665Y-96717114D01*
X183856670Y-96717111D01*
X184018911Y-96554870D01*
X184018914Y-96554865D01*
X184018919Y-96554861D01*
X184158611Y-96372812D01*
X184273344Y-96174088D01*
X184361158Y-95962087D01*
X184420548Y-95740438D01*
X184450500Y-95512934D01*
X184450500Y-95283466D01*
X184420548Y-95055962D01*
X184361158Y-94834313D01*
X184307541Y-94704870D01*
X184273349Y-94622323D01*
X184273346Y-94622317D01*
X184273344Y-94622312D01*
X184158611Y-94423588D01*
X184158608Y-94423585D01*
X184158607Y-94423582D01*
X184018918Y-94241538D01*
X184018911Y-94241530D01*
X183856670Y-94079289D01*
X183856661Y-94079281D01*
X183674617Y-93939592D01*
X183475890Y-93824857D01*
X183475876Y-93824850D01*
X183263887Y-93737042D01*
X183042238Y-93677652D01*
X183004215Y-93672646D01*
X182814741Y-93647700D01*
X182814734Y-93647700D01*
X182585266Y-93647700D01*
X182585258Y-93647700D01*
X182368715Y-93676209D01*
X182357762Y-93677652D01*
X182264076Y-93702754D01*
X182136112Y-93737042D01*
X181924123Y-93824850D01*
X181924109Y-93824857D01*
X181725382Y-93939592D01*
X181543338Y-94079281D01*
X181381081Y-94241538D01*
X181241392Y-94423582D01*
X181126657Y-94622309D01*
X181126650Y-94622323D01*
X181038842Y-94834312D01*
X180979453Y-95055959D01*
X180979451Y-95055970D01*
X180949500Y-95283458D01*
X176157283Y-95283458D01*
X176050819Y-95176994D01*
X176017334Y-95115671D01*
X176014500Y-95089313D01*
X176014500Y-89359087D01*
X176014499Y-89359084D01*
X176013148Y-89352294D01*
X176006226Y-89317491D01*
X176003676Y-89304670D01*
X176009903Y-89235079D01*
X176052766Y-89179901D01*
X176118656Y-89156657D01*
X176186653Y-89172725D01*
X176212974Y-89192798D01*
X177589181Y-90569005D01*
X177622666Y-90630328D01*
X177625500Y-90656686D01*
X177625500Y-92530051D01*
X177605815Y-92597090D01*
X177553011Y-92642845D01*
X177514104Y-92653409D01*
X177467204Y-92658200D01*
X177467203Y-92658201D01*
X177300664Y-92713386D01*
X177300662Y-92713387D01*
X177151348Y-92805486D01*
X177151344Y-92805489D01*
X177027289Y-92929544D01*
X177027286Y-92929548D01*
X176935187Y-93078862D01*
X176935186Y-93078864D01*
X176880001Y-93245403D01*
X176880000Y-93245404D01*
X176869500Y-93348184D01*
X176869500Y-94448215D01*
X176880000Y-94550995D01*
X176880001Y-94550997D01*
X176903636Y-94622323D01*
X176935186Y-94717535D01*
X176935187Y-94717537D01*
X177027286Y-94866851D01*
X177027289Y-94866855D01*
X177151344Y-94990910D01*
X177151348Y-94990913D01*
X177300662Y-95083012D01*
X177300664Y-95083013D01*
X177300666Y-95083014D01*
X177467203Y-95138199D01*
X177569992Y-95148700D01*
X177569997Y-95148700D01*
X179190003Y-95148700D01*
X179190008Y-95148700D01*
X179292797Y-95138199D01*
X179459334Y-95083014D01*
X179608655Y-94990911D01*
X179732711Y-94866855D01*
X179824814Y-94717534D01*
X179879999Y-94550997D01*
X179890500Y-94448208D01*
X179890500Y-93348192D01*
X179879999Y-93245403D01*
X179824814Y-93078866D01*
X179823546Y-93076811D01*
X179732713Y-92929548D01*
X179732710Y-92929544D01*
X179608655Y-92805489D01*
X179608651Y-92805486D01*
X179459337Y-92713387D01*
X179459335Y-92713386D01*
X179317944Y-92666534D01*
X179292797Y-92658201D01*
X179292795Y-92658200D01*
X179245896Y-92653409D01*
X179181205Y-92627012D01*
X179141054Y-92569831D01*
X179134500Y-92530051D01*
X179134500Y-90218487D01*
X179134499Y-90218483D01*
X179125284Y-90172158D01*
X179105505Y-90072720D01*
X179048629Y-89935410D01*
X179047819Y-89934198D01*
X178966060Y-89811835D01*
X178966054Y-89811828D01*
X178856647Y-89702421D01*
X178856624Y-89702400D01*
X175487442Y-86333217D01*
X174936825Y-85782600D01*
X176898216Y-85782600D01*
X177939640Y-85782600D01*
X177908955Y-85835747D01*
X177874200Y-85965457D01*
X177874200Y-86099743D01*
X177908955Y-86229453D01*
X177939640Y-86282600D01*
X176898216Y-86282600D01*
X176904981Y-86325316D01*
X176965781Y-86512437D01*
X177055104Y-86687743D01*
X177170755Y-86846921D01*
X177309878Y-86986044D01*
X177469056Y-87101695D01*
X177644364Y-87191018D01*
X177831494Y-87251821D01*
X178025818Y-87282600D01*
X178134200Y-87282600D01*
X178134200Y-86477160D01*
X178187347Y-86507845D01*
X178317057Y-86542600D01*
X178451343Y-86542600D01*
X178581053Y-86507845D01*
X178634200Y-86477160D01*
X178634200Y-87282600D01*
X178742582Y-87282600D01*
X178936905Y-87251821D01*
X179124035Y-87191018D01*
X179299343Y-87101695D01*
X179458521Y-86986044D01*
X179597644Y-86846921D01*
X179713295Y-86687743D01*
X179802618Y-86512437D01*
X179863418Y-86325316D01*
X179870184Y-86282600D01*
X178828760Y-86282600D01*
X178859445Y-86229453D01*
X178894200Y-86099743D01*
X178894200Y-85965457D01*
X178859445Y-85835747D01*
X178828760Y-85782600D01*
X179870184Y-85782600D01*
X179863418Y-85739883D01*
X179802618Y-85552762D01*
X179713295Y-85377456D01*
X179597644Y-85218278D01*
X179458521Y-85079155D01*
X179299343Y-84963504D01*
X179124035Y-84874181D01*
X178936905Y-84813378D01*
X178742582Y-84782600D01*
X178634200Y-84782600D01*
X178634200Y-85588039D01*
X178581053Y-85557355D01*
X178451343Y-85522600D01*
X178317057Y-85522600D01*
X178187347Y-85557355D01*
X178134200Y-85588039D01*
X178134200Y-84782600D01*
X178025818Y-84782600D01*
X177831494Y-84813378D01*
X177644364Y-84874181D01*
X177469056Y-84963504D01*
X177309878Y-85079155D01*
X177170755Y-85218278D01*
X177055104Y-85377456D01*
X176965781Y-85552762D01*
X176904981Y-85739883D01*
X176898216Y-85782600D01*
X174936825Y-85782600D01*
X174375981Y-85221756D01*
X174357580Y-85198282D01*
X173913011Y-84463661D01*
X173895099Y-84399463D01*
X173895099Y-84378598D01*
X173895098Y-84378581D01*
X173884599Y-84275803D01*
X173884598Y-84275800D01*
X173877261Y-84253659D01*
X173829414Y-84109266D01*
X173737312Y-83959944D01*
X173643649Y-83866281D01*
X173610164Y-83804958D01*
X173615148Y-83735266D01*
X173643649Y-83690919D01*
X173675644Y-83658924D01*
X173737312Y-83597256D01*
X173829414Y-83447934D01*
X173884599Y-83281397D01*
X173895100Y-83178609D01*
X173895099Y-82782600D01*
X176898216Y-82782600D01*
X177939640Y-82782600D01*
X177908955Y-82835747D01*
X177874200Y-82965457D01*
X177874200Y-83099743D01*
X177908955Y-83229453D01*
X177939640Y-83282600D01*
X176898216Y-83282600D01*
X176904981Y-83325316D01*
X176965781Y-83512437D01*
X177055104Y-83687743D01*
X177170755Y-83846921D01*
X177309878Y-83986044D01*
X177469056Y-84101695D01*
X177644364Y-84191018D01*
X177831494Y-84251821D01*
X178025818Y-84282600D01*
X178134200Y-84282600D01*
X178134200Y-83477160D01*
X178187347Y-83507845D01*
X178317057Y-83542600D01*
X178451343Y-83542600D01*
X178581053Y-83507845D01*
X178634200Y-83477160D01*
X178634200Y-84282600D01*
X178742582Y-84282600D01*
X178936905Y-84251821D01*
X179124035Y-84191018D01*
X179299343Y-84101695D01*
X179458521Y-83986044D01*
X179597644Y-83846921D01*
X179655088Y-83767858D01*
X180953700Y-83767858D01*
X180953700Y-83997341D01*
X180975565Y-84163415D01*
X180983652Y-84224838D01*
X181030442Y-84399463D01*
X181043042Y-84446487D01*
X181130850Y-84658476D01*
X181130857Y-84658490D01*
X181146181Y-84685032D01*
X181243106Y-84852912D01*
X181245592Y-84857217D01*
X181385281Y-85039261D01*
X181385289Y-85039270D01*
X181547530Y-85201511D01*
X181547538Y-85201518D01*
X181547539Y-85201519D01*
X181571753Y-85220099D01*
X181729582Y-85341207D01*
X181729585Y-85341208D01*
X181729588Y-85341211D01*
X181928312Y-85455944D01*
X181928317Y-85455946D01*
X181928323Y-85455949D01*
X182019680Y-85493790D01*
X182140313Y-85543758D01*
X182361962Y-85603148D01*
X182589466Y-85633100D01*
X182589473Y-85633100D01*
X182818927Y-85633100D01*
X182818934Y-85633100D01*
X183046438Y-85603148D01*
X183268087Y-85543758D01*
X183480088Y-85455944D01*
X183678812Y-85341211D01*
X183860861Y-85201519D01*
X183860865Y-85201514D01*
X183860870Y-85201511D01*
X184023111Y-85039270D01*
X184023114Y-85039265D01*
X184023119Y-85039261D01*
X184162811Y-84857212D01*
X184277544Y-84658488D01*
X184365358Y-84446487D01*
X184424748Y-84224838D01*
X184454700Y-83997334D01*
X184454700Y-83767866D01*
X184424748Y-83540362D01*
X184365358Y-83318713D01*
X184294881Y-83148566D01*
X184277549Y-83106723D01*
X184277546Y-83106717D01*
X184277544Y-83106712D01*
X184162811Y-82907988D01*
X184162808Y-82907985D01*
X184162807Y-82907982D01*
X184023118Y-82725938D01*
X184023111Y-82725930D01*
X183860870Y-82563689D01*
X183860861Y-82563681D01*
X183678817Y-82423992D01*
X183480090Y-82309257D01*
X183480076Y-82309250D01*
X183268087Y-82221442D01*
X183214770Y-82207156D01*
X183046438Y-82162052D01*
X183008415Y-82157046D01*
X182818941Y-82132100D01*
X182818934Y-82132100D01*
X182589466Y-82132100D01*
X182589458Y-82132100D01*
X182386002Y-82158887D01*
X182361962Y-82162052D01*
X182268276Y-82187154D01*
X182140312Y-82221442D01*
X181928323Y-82309250D01*
X181928309Y-82309257D01*
X181729582Y-82423992D01*
X181547538Y-82563681D01*
X181385281Y-82725938D01*
X181245592Y-82907982D01*
X181130857Y-83106709D01*
X181130850Y-83106723D01*
X181043042Y-83318712D01*
X181035798Y-83345747D01*
X180986335Y-83530351D01*
X180983653Y-83540359D01*
X180983651Y-83540370D01*
X180953700Y-83767858D01*
X179655088Y-83767858D01*
X179710987Y-83690921D01*
X179713295Y-83687743D01*
X179802618Y-83512437D01*
X179863418Y-83325316D01*
X179870184Y-83282600D01*
X178828760Y-83282600D01*
X178859445Y-83229453D01*
X178894200Y-83099743D01*
X178894200Y-82965457D01*
X178859445Y-82835747D01*
X178828760Y-82782600D01*
X179870184Y-82782600D01*
X179863418Y-82739883D01*
X179802618Y-82552762D01*
X179713295Y-82377456D01*
X179597644Y-82218278D01*
X179458521Y-82079155D01*
X179299343Y-81963504D01*
X179124035Y-81874181D01*
X178936905Y-81813378D01*
X178742582Y-81782600D01*
X178634200Y-81782600D01*
X178634200Y-82588039D01*
X178581053Y-82557355D01*
X178451343Y-82522600D01*
X178317057Y-82522600D01*
X178187347Y-82557355D01*
X178134200Y-82588039D01*
X178134200Y-81782600D01*
X178025818Y-81782600D01*
X177831494Y-81813378D01*
X177644364Y-81874181D01*
X177469056Y-81963504D01*
X177309878Y-82079155D01*
X177170755Y-82218278D01*
X177055104Y-82377456D01*
X176965781Y-82552762D01*
X176904981Y-82739883D01*
X176898216Y-82782600D01*
X173895099Y-82782600D01*
X173895099Y-82760003D01*
X173895099Y-82378598D01*
X173895098Y-82378580D01*
X173884599Y-82275803D01*
X173884598Y-82275800D01*
X173868754Y-82227986D01*
X173829414Y-82109266D01*
X173737312Y-81959944D01*
X173703849Y-81926481D01*
X173670364Y-81865158D01*
X173675348Y-81795466D01*
X173703849Y-81751119D01*
X173713512Y-81741456D01*
X173805614Y-81592134D01*
X173860799Y-81425597D01*
X173871300Y-81322809D01*
X173871299Y-80322792D01*
X173869716Y-80307300D01*
X173860799Y-80220003D01*
X173860798Y-80220000D01*
X173845388Y-80173495D01*
X173805614Y-80053466D01*
X173713512Y-79904144D01*
X173589456Y-79780088D01*
X173440134Y-79687986D01*
X173273597Y-79632801D01*
X173273595Y-79632800D01*
X173170810Y-79622300D01*
X172370798Y-79622300D01*
X172370780Y-79622301D01*
X172268003Y-79632800D01*
X172268000Y-79632801D01*
X172101468Y-79687985D01*
X172101463Y-79687987D01*
X171952145Y-79780087D01*
X171858127Y-79874105D01*
X171796803Y-79907589D01*
X171727112Y-79902605D01*
X171682765Y-79874104D01*
X171589145Y-79780484D01*
X171439924Y-79688443D01*
X171439919Y-79688441D01*
X171273497Y-79633294D01*
X171273490Y-79633293D01*
X171170786Y-79622800D01*
X171020800Y-79622800D01*
X171020800Y-82022799D01*
X171170772Y-82022799D01*
X171170786Y-82022798D01*
X171273495Y-82012306D01*
X171396817Y-81971440D01*
X171466645Y-81969038D01*
X171526687Y-82004769D01*
X171557881Y-82067289D01*
X171553528Y-82128149D01*
X171504601Y-82275800D01*
X171504600Y-82275804D01*
X171494100Y-82378583D01*
X171494100Y-82454312D01*
X171474415Y-82521351D01*
X171457781Y-82541993D01*
X169852994Y-84146781D01*
X169791671Y-84180266D01*
X169765313Y-84183100D01*
X169185245Y-84183100D01*
X169118206Y-84163415D01*
X169072451Y-84110611D01*
X169062507Y-84041453D01*
X169067536Y-84020106D01*
X169085599Y-83965597D01*
X169096100Y-83862809D01*
X169096099Y-82862792D01*
X169094818Y-82850256D01*
X169085599Y-82760003D01*
X169085598Y-82760000D01*
X169049176Y-82650086D01*
X169030414Y-82593466D01*
X168938312Y-82444144D01*
X168847096Y-82352928D01*
X168813611Y-82291605D01*
X168818595Y-82221913D01*
X168847096Y-82177566D01*
X168927916Y-82096745D01*
X169019957Y-81947524D01*
X169019959Y-81947519D01*
X169075106Y-81781097D01*
X169075107Y-81781090D01*
X169085600Y-81678386D01*
X169085601Y-81678373D01*
X169085601Y-81428400D01*
X168109601Y-81428400D01*
X168042562Y-81408715D01*
X167996807Y-81355911D01*
X167989601Y-81322786D01*
X169670801Y-81322786D01*
X169681294Y-81425497D01*
X169736441Y-81591919D01*
X169736443Y-81591924D01*
X169828484Y-81741145D01*
X169952454Y-81865115D01*
X170101675Y-81957156D01*
X170101680Y-81957158D01*
X170268102Y-82012305D01*
X170268109Y-82012306D01*
X170370819Y-82022799D01*
X170520799Y-82022799D01*
X170520800Y-82022798D01*
X170520800Y-81072800D01*
X169670801Y-81072800D01*
X169670801Y-81322786D01*
X167989601Y-81322786D01*
X167985601Y-81304400D01*
X167985601Y-81178400D01*
X167859601Y-81178400D01*
X167792562Y-81158715D01*
X167746807Y-81105911D01*
X167735601Y-81054400D01*
X167735601Y-80928400D01*
X168235601Y-80928400D01*
X169085600Y-80928400D01*
X169085600Y-80678428D01*
X169085599Y-80678413D01*
X169075106Y-80575702D01*
X169019959Y-80409280D01*
X169019956Y-80409273D01*
X169004837Y-80384762D01*
X169004836Y-80384761D01*
X168966626Y-80322813D01*
X169670800Y-80322813D01*
X169670800Y-80572800D01*
X170520800Y-80572800D01*
X170520800Y-79622800D01*
X170370827Y-79622800D01*
X170370812Y-79622801D01*
X170268102Y-79633294D01*
X170101680Y-79688441D01*
X170101675Y-79688443D01*
X169952454Y-79780484D01*
X169828484Y-79904454D01*
X169736443Y-80053675D01*
X169736441Y-80053680D01*
X169681294Y-80220102D01*
X169681293Y-80220109D01*
X169670800Y-80322813D01*
X168966626Y-80322813D01*
X168927916Y-80260054D01*
X168803946Y-80136084D01*
X168654725Y-80044043D01*
X168654720Y-80044041D01*
X168488298Y-79988894D01*
X168488291Y-79988893D01*
X168385587Y-79978400D01*
X168235601Y-79978400D01*
X168235601Y-80928400D01*
X167735601Y-80928400D01*
X167735601Y-79978400D01*
X167585628Y-79978400D01*
X167585613Y-79978401D01*
X167482903Y-79988894D01*
X167316481Y-80044041D01*
X167316476Y-80044043D01*
X167167258Y-80136082D01*
X167073635Y-80229705D01*
X167012311Y-80263189D01*
X166942620Y-80258205D01*
X166898273Y-80229704D01*
X166804258Y-80135689D01*
X166804257Y-80135688D01*
X166671292Y-80053675D01*
X166654937Y-80043587D01*
X166654932Y-80043585D01*
X166612266Y-80029447D01*
X166488398Y-79988401D01*
X166488396Y-79988400D01*
X166385611Y-79977900D01*
X165585599Y-79977900D01*
X165585581Y-79977901D01*
X165482804Y-79988400D01*
X165482801Y-79988401D01*
X165316269Y-80043585D01*
X165316264Y-80043587D01*
X165166943Y-80135689D01*
X165042890Y-80259742D01*
X164950788Y-80409063D01*
X164950787Y-80409066D01*
X164895602Y-80575603D01*
X164895602Y-80575604D01*
X164895601Y-80575604D01*
X164885101Y-80678383D01*
X164885101Y-81668499D01*
X164865416Y-81735538D01*
X164812612Y-81781293D01*
X164743454Y-81791237D01*
X164679898Y-81762212D01*
X164673420Y-81756180D01*
X164647161Y-81729921D01*
X164647152Y-81729914D01*
X164505796Y-81646317D01*
X164505793Y-81646316D01*
X164348095Y-81600500D01*
X164348089Y-81600499D01*
X164311249Y-81597600D01*
X163670600Y-81597600D01*
X163670600Y-82147600D01*
X164892895Y-82147600D01*
X164901680Y-82138096D01*
X164911541Y-82132197D01*
X164918427Y-82122999D01*
X164940980Y-82114586D01*
X164961641Y-82102228D01*
X164973126Y-82102597D01*
X164983891Y-82098582D01*
X165007412Y-82103698D01*
X165031475Y-82104472D01*
X165042692Y-82111373D01*
X165052164Y-82113434D01*
X165080418Y-82134585D01*
X165133751Y-82187918D01*
X165167236Y-82249241D01*
X165162252Y-82318933D01*
X165133752Y-82363280D01*
X165052888Y-82444144D01*
X164979153Y-82563689D01*
X164963728Y-82588697D01*
X164911780Y-82635421D01*
X164858189Y-82647600D01*
X161948305Y-82647600D01*
X161948304Y-82647601D01*
X161948499Y-82650086D01*
X161994318Y-82807798D01*
X162077914Y-82949152D01*
X162082700Y-82955322D01*
X162080240Y-82957229D01*
X162106810Y-83005888D01*
X162101826Y-83075580D01*
X162080762Y-83108381D01*
X162082299Y-83109574D01*
X162077515Y-83115740D01*
X161993855Y-83257203D01*
X161981341Y-83300275D01*
X161943733Y-83359160D01*
X161880260Y-83388365D01*
X161811074Y-83378618D01*
X161774584Y-83353359D01*
X160700851Y-82279625D01*
X160568824Y-82147598D01*
X161948304Y-82147598D01*
X161948305Y-82147600D01*
X163170600Y-82147600D01*
X163170600Y-81597600D01*
X162529950Y-81597600D01*
X162493110Y-81600499D01*
X162493104Y-81600500D01*
X162335406Y-81646316D01*
X162335403Y-81646317D01*
X162194047Y-81729914D01*
X162194038Y-81729921D01*
X162077921Y-81846038D01*
X162077914Y-81846047D01*
X161994318Y-81987401D01*
X161948499Y-82145113D01*
X161948304Y-82147598D01*
X160568824Y-82147598D01*
X160232768Y-81811542D01*
X160109192Y-81728972D01*
X160109191Y-81728971D01*
X160109189Y-81728970D01*
X160109186Y-81728968D01*
X160109181Y-81728966D01*
X160029007Y-81695757D01*
X160028995Y-81695753D01*
X160025118Y-81694147D01*
X159971880Y-81672095D01*
X159947694Y-81667284D01*
X159939864Y-81665726D01*
X159939860Y-81665725D01*
X159826114Y-81643099D01*
X159826112Y-81643099D01*
X159677488Y-81643099D01*
X159671374Y-81643099D01*
X159671354Y-81643100D01*
X159564159Y-81643100D01*
X159529564Y-81638176D01*
X159398173Y-81600002D01*
X159398167Y-81600001D01*
X159361301Y-81597100D01*
X159361294Y-81597100D01*
X158714100Y-81597100D01*
X158647061Y-81577415D01*
X158601306Y-81524611D01*
X158590100Y-81473100D01*
X158590100Y-77608892D01*
X158565010Y-77482761D01*
X158565009Y-77482760D01*
X158565009Y-77482756D01*
X158558068Y-77466000D01*
X158523378Y-77382250D01*
X158515792Y-77363936D01*
X158444340Y-77257000D01*
X158444338Y-77256997D01*
X158153341Y-76966000D01*
X162172391Y-76966000D01*
X163133314Y-76966000D01*
X163128920Y-76970394D01*
X163076259Y-77061606D01*
X163049000Y-77163339D01*
X163049000Y-77268661D01*
X163076259Y-77370394D01*
X163128920Y-77461606D01*
X163133314Y-77466000D01*
X162172391Y-77466000D01*
X162181009Y-77520413D01*
X162244244Y-77715029D01*
X162337140Y-77897349D01*
X162457417Y-78062894D01*
X162457417Y-78062895D01*
X162602104Y-78207582D01*
X162767650Y-78327859D01*
X162949968Y-78420754D01*
X163144578Y-78483988D01*
X163199000Y-78492607D01*
X163199000Y-77531686D01*
X163203394Y-77536080D01*
X163294606Y-77588741D01*
X163396339Y-77616000D01*
X163501661Y-77616000D01*
X163603394Y-77588741D01*
X163694606Y-77536080D01*
X163699000Y-77531686D01*
X163699000Y-78492606D01*
X163753421Y-78483988D01*
X163948031Y-78420754D01*
X164130349Y-78327859D01*
X164295894Y-78207582D01*
X164295895Y-78207582D01*
X164440582Y-78062895D01*
X164440582Y-78062894D01*
X164560859Y-77897349D01*
X164653755Y-77715029D01*
X164702862Y-77563898D01*
X164716990Y-77520414D01*
X164716990Y-77520413D01*
X164725609Y-77466000D01*
X163764686Y-77466000D01*
X163769080Y-77461606D01*
X163821741Y-77370394D01*
X163849000Y-77268661D01*
X163849000Y-77163339D01*
X163821741Y-77061606D01*
X163769080Y-76970394D01*
X163764686Y-76966000D01*
X164732694Y-76966000D01*
X164775188Y-76938260D01*
X164845056Y-76937760D01*
X164893318Y-76966163D01*
X164894238Y-76965139D01*
X164896700Y-76967350D01*
X164896711Y-76967361D01*
X164943394Y-77004981D01*
X164943395Y-77004981D01*
X164943397Y-77004983D01*
X165074307Y-77064768D01*
X165074308Y-77064768D01*
X165074310Y-77064769D01*
X165216767Y-77085250D01*
X165359224Y-77064769D01*
X165490140Y-77004981D01*
X165536823Y-76967362D01*
X166735895Y-75768289D01*
X166773515Y-75721606D01*
X166778863Y-75709897D01*
X166833302Y-75590692D01*
X166833301Y-75590692D01*
X166833303Y-75590690D01*
X166853784Y-75448233D01*
X166833303Y-75305776D01*
X166821024Y-75278890D01*
X166773516Y-75174862D01*
X166773515Y-75174861D01*
X166773515Y-75174860D01*
X166735896Y-75128177D01*
X166735891Y-75128172D01*
X166735887Y-75128167D01*
X166261586Y-74653866D01*
X166246882Y-74626938D01*
X166230290Y-74601120D01*
X166229398Y-74594919D01*
X166228101Y-74592543D01*
X166225267Y-74566185D01*
X166225267Y-74361535D01*
X168741700Y-74361535D01*
X168741700Y-76057270D01*
X168741701Y-76057276D01*
X168748108Y-76116883D01*
X168798402Y-76251728D01*
X168798406Y-76251735D01*
X168884652Y-76366944D01*
X168884655Y-76366947D01*
X168999864Y-76453193D01*
X168999871Y-76453197D01*
X169006494Y-76455667D01*
X169134717Y-76503491D01*
X169194327Y-76509900D01*
X169194353Y-76509899D01*
X169197653Y-76510078D01*
X169197565Y-76511708D01*
X169258438Y-76529467D01*
X169304284Y-76582191D01*
X169312004Y-76625651D01*
X169995754Y-77309400D01*
X169989539Y-77309400D01*
X169887806Y-77336659D01*
X169796594Y-77389320D01*
X169722120Y-77463794D01*
X169669459Y-77555006D01*
X169642200Y-77656739D01*
X169642200Y-77662953D01*
X168962724Y-76983477D01*
X168962723Y-76983477D01*
X168930343Y-77028044D01*
X168837444Y-77210368D01*
X168774209Y-77404982D01*
X168742200Y-77607082D01*
X168742200Y-77811717D01*
X168774209Y-78013817D01*
X168837444Y-78208431D01*
X168930341Y-78390750D01*
X168930347Y-78390759D01*
X168962723Y-78435321D01*
X168962724Y-78435322D01*
X169642200Y-77755846D01*
X169642200Y-77762061D01*
X169669459Y-77863794D01*
X169722120Y-77955006D01*
X169796594Y-78029480D01*
X169887806Y-78082141D01*
X169989539Y-78109400D01*
X169995753Y-78109400D01*
X169316276Y-78788874D01*
X169360850Y-78821259D01*
X169543168Y-78914155D01*
X169737782Y-78977390D01*
X169939883Y-79009400D01*
X170144517Y-79009400D01*
X170346617Y-78977390D01*
X170541231Y-78914155D01*
X170723549Y-78821259D01*
X170768121Y-78788874D01*
X170088647Y-78109400D01*
X170094861Y-78109400D01*
X170196594Y-78082141D01*
X170287806Y-78029480D01*
X170362280Y-77955006D01*
X170414941Y-77863794D01*
X170442200Y-77762061D01*
X170442200Y-77755847D01*
X171121674Y-78435321D01*
X171154059Y-78390749D01*
X171246955Y-78208431D01*
X171310190Y-78013817D01*
X171342200Y-77811717D01*
X171342200Y-77607082D01*
X171310190Y-77404982D01*
X171246955Y-77210368D01*
X171154059Y-77028050D01*
X171121674Y-76983477D01*
X171121674Y-76983476D01*
X170442200Y-77662951D01*
X170442200Y-77656739D01*
X170414941Y-77555006D01*
X170362280Y-77463794D01*
X170287806Y-77389320D01*
X170196594Y-77336659D01*
X170094861Y-77309400D01*
X170088646Y-77309400D01*
X170773131Y-76624915D01*
X170783564Y-76575252D01*
X170832615Y-76525494D01*
X170886837Y-76511448D01*
X170886776Y-76510300D01*
X170886771Y-76510254D01*
X170886773Y-76510253D01*
X170886764Y-76510076D01*
X170890057Y-76509899D01*
X170890072Y-76509899D01*
X170949683Y-76503491D01*
X171084531Y-76453196D01*
X171199746Y-76366946D01*
X171285996Y-76251731D01*
X171336291Y-76116883D01*
X171342700Y-76057273D01*
X171342699Y-74361528D01*
X171337499Y-74313157D01*
X171336291Y-74301916D01*
X171285997Y-74167071D01*
X171285993Y-74167064D01*
X171199747Y-74051855D01*
X171199744Y-74051852D01*
X171084535Y-73965606D01*
X171084528Y-73965602D01*
X170949682Y-73915308D01*
X170949683Y-73915308D01*
X170890083Y-73908901D01*
X170890081Y-73908900D01*
X170890073Y-73908900D01*
X170890064Y-73908900D01*
X169194329Y-73908900D01*
X169194323Y-73908901D01*
X169134716Y-73915308D01*
X168999871Y-73965602D01*
X168999864Y-73965606D01*
X168884655Y-74051852D01*
X168884652Y-74051855D01*
X168798406Y-74167064D01*
X168798402Y-74167071D01*
X168748108Y-74301917D01*
X168741701Y-74361516D01*
X168741701Y-74361523D01*
X168741700Y-74361535D01*
X166225267Y-74361535D01*
X166225267Y-73682129D01*
X166244952Y-73615090D01*
X166261586Y-73594448D01*
X167513415Y-72342619D01*
X167574738Y-72309134D01*
X167601096Y-72306300D01*
X172454104Y-72306300D01*
X172521143Y-72325985D01*
X172541785Y-72342619D01*
X176837381Y-76638215D01*
X176870866Y-76699538D01*
X176873700Y-76725896D01*
X176873700Y-77582615D01*
X176884200Y-77685395D01*
X176884201Y-77685397D01*
X176900416Y-77734330D01*
X176939386Y-77851935D01*
X176939387Y-77851937D01*
X177031486Y-78001251D01*
X177031489Y-78001255D01*
X177155544Y-78125310D01*
X177155548Y-78125313D01*
X177311013Y-78221206D01*
X177310237Y-78222462D01*
X177356533Y-78263213D01*
X177375700Y-78329440D01*
X177375700Y-78967532D01*
X177356015Y-79034571D01*
X177324587Y-79067849D01*
X177309557Y-79078769D01*
X177309554Y-79078771D01*
X177170374Y-79217951D01*
X177170374Y-79217952D01*
X177170372Y-79217954D01*
X177120685Y-79286341D01*
X177054676Y-79377194D01*
X176965317Y-79552570D01*
X176904490Y-79739773D01*
X176873700Y-79934177D01*
X176873700Y-80131022D01*
X176904490Y-80325426D01*
X176965317Y-80512629D01*
X177034951Y-80649293D01*
X177054676Y-80688005D01*
X177170372Y-80847246D01*
X177309554Y-80986428D01*
X177468795Y-81102124D01*
X177537520Y-81137141D01*
X177644170Y-81191482D01*
X177644172Y-81191482D01*
X177644175Y-81191484D01*
X177744517Y-81224087D01*
X177831373Y-81252309D01*
X178025778Y-81283100D01*
X178025783Y-81283100D01*
X178742622Y-81283100D01*
X178937026Y-81252309D01*
X178986884Y-81236109D01*
X179124225Y-81191484D01*
X179299605Y-81102124D01*
X179458846Y-80986428D01*
X179598028Y-80847246D01*
X179713724Y-80688005D01*
X179803084Y-80512625D01*
X179863909Y-80325426D01*
X179871372Y-80278305D01*
X179894700Y-80131022D01*
X179894700Y-79934177D01*
X179863909Y-79739773D01*
X179812154Y-79580489D01*
X179803084Y-79552575D01*
X179803082Y-79552572D01*
X179803082Y-79552570D01*
X179713723Y-79377194D01*
X179598028Y-79217954D01*
X179458846Y-79078772D01*
X179443836Y-79067866D01*
X180953700Y-79067866D01*
X180953700Y-79067872D01*
X180953700Y-79297341D01*
X180973717Y-79449379D01*
X180983652Y-79524838D01*
X181041243Y-79739773D01*
X181043042Y-79746487D01*
X181130850Y-79958476D01*
X181130857Y-79958490D01*
X181245592Y-80157217D01*
X181385281Y-80339261D01*
X181385289Y-80339270D01*
X181547530Y-80501511D01*
X181547538Y-80501518D01*
X181729582Y-80641207D01*
X181729585Y-80641208D01*
X181729588Y-80641211D01*
X181928312Y-80755944D01*
X181928317Y-80755946D01*
X181928323Y-80755949D01*
X182019680Y-80793790D01*
X182140313Y-80843758D01*
X182361962Y-80903148D01*
X182589466Y-80933100D01*
X182589473Y-80933100D01*
X182818927Y-80933100D01*
X182818934Y-80933100D01*
X183046438Y-80903148D01*
X183268087Y-80843758D01*
X183480088Y-80755944D01*
X183678812Y-80641211D01*
X183860861Y-80501519D01*
X183860865Y-80501514D01*
X183860870Y-80501511D01*
X184023111Y-80339270D01*
X184023114Y-80339265D01*
X184023119Y-80339261D01*
X184162811Y-80157212D01*
X184277544Y-79958488D01*
X184365358Y-79746487D01*
X184424748Y-79524838D01*
X184454700Y-79297334D01*
X184454700Y-79067866D01*
X184424748Y-78840362D01*
X184365358Y-78618713D01*
X184304665Y-78472187D01*
X184277549Y-78406723D01*
X184277546Y-78406717D01*
X184277544Y-78406712D01*
X184162811Y-78207988D01*
X184162808Y-78207985D01*
X184162807Y-78207982D01*
X184051521Y-78062953D01*
X184023119Y-78025939D01*
X184023118Y-78025938D01*
X184023111Y-78025930D01*
X183860870Y-77863689D01*
X183860861Y-77863681D01*
X183678817Y-77723992D01*
X183652311Y-77708689D01*
X183480088Y-77609256D01*
X183480076Y-77609250D01*
X183268087Y-77521442D01*
X183264247Y-77520413D01*
X183046438Y-77462052D01*
X183008415Y-77457046D01*
X182818941Y-77432100D01*
X182818934Y-77432100D01*
X182589466Y-77432100D01*
X182589458Y-77432100D01*
X182372915Y-77460609D01*
X182361962Y-77462052D01*
X182284693Y-77482756D01*
X182140312Y-77521442D01*
X181928323Y-77609250D01*
X181928309Y-77609257D01*
X181729582Y-77723992D01*
X181547538Y-77863681D01*
X181385281Y-78025938D01*
X181245592Y-78207982D01*
X181130857Y-78406709D01*
X181130850Y-78406723D01*
X181048785Y-78604848D01*
X181043042Y-78618713D01*
X180984633Y-78836703D01*
X180983653Y-78840359D01*
X180983651Y-78840370D01*
X180965612Y-78977390D01*
X180953700Y-79067866D01*
X179443836Y-79067866D01*
X179437508Y-79063268D01*
X179431825Y-79057933D01*
X179417913Y-79034260D01*
X179401148Y-79012518D01*
X179399275Y-79002544D01*
X179396425Y-78997695D01*
X179396764Y-78989177D01*
X179392700Y-78967532D01*
X179392700Y-78329440D01*
X179412385Y-78262401D01*
X179458145Y-78222435D01*
X179457387Y-78221206D01*
X179534172Y-78173843D01*
X179612855Y-78125311D01*
X179736911Y-78001255D01*
X179829014Y-77851934D01*
X179884199Y-77685397D01*
X179894700Y-77582608D01*
X179894700Y-76482592D01*
X179884199Y-76379803D01*
X179829014Y-76213266D01*
X179828189Y-76211929D01*
X179736913Y-76063948D01*
X179736910Y-76063944D01*
X179612855Y-75939889D01*
X179612851Y-75939886D01*
X179463537Y-75847787D01*
X179463535Y-75847786D01*
X179346869Y-75809127D01*
X179296997Y-75792601D01*
X179296995Y-75792600D01*
X179194215Y-75782100D01*
X179194208Y-75782100D01*
X178885096Y-75782100D01*
X178818057Y-75762415D01*
X178797415Y-75745781D01*
X173566084Y-70514449D01*
X173566080Y-70514446D01*
X173400910Y-70404082D01*
X173400901Y-70404077D01*
X173217369Y-70328056D01*
X173217361Y-70328054D01*
X173022533Y-70289300D01*
X173022529Y-70289300D01*
X167032671Y-70289300D01*
X167032666Y-70289300D01*
X166837838Y-70328054D01*
X166837830Y-70328056D01*
X166654298Y-70404077D01*
X166654289Y-70404082D01*
X166489119Y-70514446D01*
X166489115Y-70514449D01*
X165051440Y-71952126D01*
X164573886Y-72429680D01*
X164516477Y-72487089D01*
X164433412Y-72570153D01*
X164323049Y-72735322D01*
X164323044Y-72735331D01*
X164247023Y-72918863D01*
X164247021Y-72918871D01*
X164208267Y-73113699D01*
X164208267Y-74566186D01*
X164188582Y-74633225D01*
X164171948Y-74653867D01*
X163697646Y-75128169D01*
X163697640Y-75128176D01*
X163660018Y-75174861D01*
X163660016Y-75174863D01*
X163600231Y-75305773D01*
X163600230Y-75305777D01*
X163579750Y-75448233D01*
X163600230Y-75590688D01*
X163600231Y-75590692D01*
X163660017Y-75721603D01*
X163660018Y-75721604D01*
X163660019Y-75721606D01*
X163697638Y-75768289D01*
X163697644Y-75768295D01*
X163697653Y-75768306D01*
X163699867Y-75770772D01*
X163698688Y-75771829D01*
X163729180Y-75827670D01*
X163724196Y-75897362D01*
X163699000Y-75933376D01*
X163699000Y-76900314D01*
X163694606Y-76895920D01*
X163603394Y-76843259D01*
X163501661Y-76816000D01*
X163396339Y-76816000D01*
X163294606Y-76843259D01*
X163203394Y-76895920D01*
X163199000Y-76900314D01*
X163199000Y-75939390D01*
X163144586Y-75948009D01*
X162949970Y-76011244D01*
X162767650Y-76104140D01*
X162602105Y-76224417D01*
X162602104Y-76224417D01*
X162457417Y-76369104D01*
X162457417Y-76369105D01*
X162337140Y-76534650D01*
X162244244Y-76716970D01*
X162181009Y-76911586D01*
X162172391Y-76966000D01*
X158153341Y-76966000D01*
X156714387Y-75527046D01*
X151851005Y-70663663D01*
X151851004Y-70663662D01*
X151851000Y-70663659D01*
X151744064Y-70592208D01*
X151650262Y-70553354D01*
X151625244Y-70542991D01*
X151625238Y-70542989D01*
X151499107Y-70517900D01*
X151499105Y-70517900D01*
X146315895Y-70517900D01*
X146315893Y-70517900D01*
X146189761Y-70542989D01*
X146189755Y-70542991D01*
X146070936Y-70592207D01*
X145963998Y-70663660D01*
X145963995Y-70663663D01*
X145161863Y-71465794D01*
X145161862Y-71465795D01*
X145102824Y-71554154D01*
X145102823Y-71554153D01*
X145090407Y-71572735D01*
X145090405Y-71572739D01*
X145083166Y-71590217D01*
X145039325Y-71644620D01*
X144973030Y-71666684D01*
X144905331Y-71649404D01*
X144857721Y-71598266D01*
X144844606Y-71542763D01*
X144844606Y-70940513D01*
X144844605Y-70940498D01*
X144841704Y-70903632D01*
X144841703Y-70903626D01*
X144795851Y-70745806D01*
X144795850Y-70745803D01*
X144795850Y-70745802D01*
X144747271Y-70663659D01*
X144714274Y-70607863D01*
X144697006Y-70544742D01*
X144697006Y-69065777D01*
X176873700Y-69065777D01*
X176873700Y-69262622D01*
X176904490Y-69457026D01*
X176965317Y-69644229D01*
X176988690Y-69690100D01*
X177054676Y-69819605D01*
X177170372Y-69978846D01*
X177309554Y-70118028D01*
X177468795Y-70233724D01*
X177551655Y-70275943D01*
X177644170Y-70323082D01*
X177644172Y-70323082D01*
X177644175Y-70323084D01*
X177744517Y-70355687D01*
X177831373Y-70383909D01*
X178025778Y-70414700D01*
X178025783Y-70414700D01*
X178742622Y-70414700D01*
X178937026Y-70383909D01*
X179124225Y-70323084D01*
X179299605Y-70233724D01*
X179458846Y-70118028D01*
X179598028Y-69978846D01*
X179713724Y-69819605D01*
X179803084Y-69644225D01*
X179863909Y-69457026D01*
X179875642Y-69382947D01*
X179894700Y-69262622D01*
X179894700Y-69065777D01*
X179863909Y-68871373D01*
X179811092Y-68708821D01*
X179803084Y-68684175D01*
X179803082Y-68684172D01*
X179803082Y-68684170D01*
X179748836Y-68577707D01*
X179713724Y-68508795D01*
X179598028Y-68349554D01*
X179458846Y-68210372D01*
X179299605Y-68094676D01*
X179124229Y-68005317D01*
X178937026Y-67944490D01*
X178742622Y-67913700D01*
X178742617Y-67913700D01*
X178025783Y-67913700D01*
X178025778Y-67913700D01*
X177831373Y-67944490D01*
X177644170Y-68005317D01*
X177468794Y-68094676D01*
X177377941Y-68160685D01*
X177309554Y-68210372D01*
X177309552Y-68210374D01*
X177309551Y-68210374D01*
X177170374Y-68349551D01*
X177170374Y-68349552D01*
X177170372Y-68349554D01*
X177143386Y-68386697D01*
X177054676Y-68508794D01*
X176965317Y-68684170D01*
X176904490Y-68871373D01*
X176873700Y-69065777D01*
X144697006Y-69065777D01*
X144697006Y-67549458D01*
X180953700Y-67549458D01*
X180953700Y-67778941D01*
X180977635Y-67960733D01*
X180983652Y-68006438D01*
X181007295Y-68094676D01*
X181043042Y-68228087D01*
X181130850Y-68440076D01*
X181130857Y-68440090D01*
X181145938Y-68466211D01*
X181220318Y-68595042D01*
X181245592Y-68638817D01*
X181385281Y-68820861D01*
X181385289Y-68820870D01*
X181547530Y-68983111D01*
X181547538Y-68983118D01*
X181547539Y-68983119D01*
X181594063Y-69018818D01*
X181729582Y-69122807D01*
X181729585Y-69122808D01*
X181729588Y-69122811D01*
X181928312Y-69237544D01*
X181928317Y-69237546D01*
X181928323Y-69237549D01*
X181988843Y-69262617D01*
X182140313Y-69325358D01*
X182361962Y-69384748D01*
X182589466Y-69414700D01*
X182589473Y-69414700D01*
X182818927Y-69414700D01*
X182818934Y-69414700D01*
X183046438Y-69384748D01*
X183268087Y-69325358D01*
X183480088Y-69237544D01*
X183678812Y-69122811D01*
X183860861Y-68983119D01*
X183860865Y-68983114D01*
X183860870Y-68983111D01*
X184023111Y-68820870D01*
X184023114Y-68820865D01*
X184023119Y-68820861D01*
X184162811Y-68638812D01*
X184277544Y-68440088D01*
X184365358Y-68228087D01*
X184424748Y-68006438D01*
X184454700Y-67778934D01*
X184454700Y-67549466D01*
X184424748Y-67321962D01*
X184365358Y-67100313D01*
X184315390Y-66979680D01*
X184277549Y-66888323D01*
X184277546Y-66888317D01*
X184277544Y-66888312D01*
X184162811Y-66689588D01*
X184162808Y-66689585D01*
X184162807Y-66689582D01*
X184026150Y-66511489D01*
X184023119Y-66507539D01*
X184023118Y-66507538D01*
X184023111Y-66507530D01*
X183860870Y-66345289D01*
X183860861Y-66345281D01*
X183678817Y-66205592D01*
X183480090Y-66090857D01*
X183480076Y-66090850D01*
X183268087Y-66003042D01*
X183244418Y-65996700D01*
X183046438Y-65943652D01*
X183008415Y-65938646D01*
X182818941Y-65913700D01*
X182818934Y-65913700D01*
X182589466Y-65913700D01*
X182589458Y-65913700D01*
X182372915Y-65942209D01*
X182361962Y-65943652D01*
X182273530Y-65967347D01*
X182140312Y-66003042D01*
X181928323Y-66090850D01*
X181928309Y-66090857D01*
X181729582Y-66205592D01*
X181547538Y-66345281D01*
X181385281Y-66507538D01*
X181245592Y-66689582D01*
X181130857Y-66888309D01*
X181130850Y-66888323D01*
X181043042Y-67100312D01*
X181031222Y-67144426D01*
X180988108Y-67305334D01*
X180983653Y-67321959D01*
X180983651Y-67321970D01*
X180953700Y-67549458D01*
X144697006Y-67549458D01*
X144697006Y-66789198D01*
X144671916Y-66663067D01*
X144671915Y-66663066D01*
X144671915Y-66663062D01*
X144622698Y-66544242D01*
X144598174Y-66507539D01*
X144551246Y-66437306D01*
X144551244Y-66437303D01*
X143604678Y-65490737D01*
X143602056Y-65485935D01*
X143597495Y-65482911D01*
X143585488Y-65455593D01*
X143571193Y-65429414D01*
X143570999Y-65422628D01*
X143569381Y-65418947D01*
X143569885Y-65383664D01*
X143573647Y-65359911D01*
X153749900Y-65359911D01*
X153749900Y-65602488D01*
X153781561Y-65842985D01*
X153844347Y-66077304D01*
X153937173Y-66301405D01*
X153937176Y-66301412D01*
X154058464Y-66511489D01*
X154058466Y-66511492D01*
X154058467Y-66511493D01*
X154206133Y-66703936D01*
X154206139Y-66703943D01*
X154377656Y-66875460D01*
X154377663Y-66875466D01*
X154394419Y-66888323D01*
X154570111Y-67023136D01*
X154780188Y-67144424D01*
X155004300Y-67237254D01*
X155238611Y-67300038D01*
X155405143Y-67321962D01*
X155479111Y-67331700D01*
X155479112Y-67331700D01*
X155721689Y-67331700D01*
X155769788Y-67325367D01*
X155962189Y-67300038D01*
X156196500Y-67237254D01*
X156420612Y-67144424D01*
X156630689Y-67023136D01*
X156823138Y-66875465D01*
X156994665Y-66703938D01*
X157142336Y-66511489D01*
X157263624Y-66301412D01*
X157356454Y-66077300D01*
X157419238Y-65842989D01*
X157449356Y-65614214D01*
X176874200Y-65614214D01*
X176874200Y-65914200D01*
X177939640Y-65914200D01*
X177908955Y-65967347D01*
X177874200Y-66097057D01*
X177874200Y-66231343D01*
X177908955Y-66361053D01*
X177939640Y-66414200D01*
X176874200Y-66414200D01*
X176874200Y-66714185D01*
X176884693Y-66816889D01*
X176884694Y-66816896D01*
X176939841Y-66983318D01*
X176939843Y-66983323D01*
X177031884Y-67132544D01*
X177155855Y-67256515D01*
X177305076Y-67348556D01*
X177305081Y-67348558D01*
X177471503Y-67403705D01*
X177471510Y-67403706D01*
X177574214Y-67414199D01*
X177574227Y-67414200D01*
X178134200Y-67414200D01*
X178134200Y-66608760D01*
X178187347Y-66639445D01*
X178317057Y-66674200D01*
X178451343Y-66674200D01*
X178581053Y-66639445D01*
X178634200Y-66608760D01*
X178634200Y-67414200D01*
X179194173Y-67414200D01*
X179194185Y-67414199D01*
X179296889Y-67403706D01*
X179296896Y-67403705D01*
X179463318Y-67348558D01*
X179463323Y-67348556D01*
X179612544Y-67256515D01*
X179736515Y-67132544D01*
X179828556Y-66983323D01*
X179828558Y-66983318D01*
X179883705Y-66816896D01*
X179883706Y-66816889D01*
X179894199Y-66714185D01*
X179894200Y-66714172D01*
X179894200Y-66414200D01*
X178828760Y-66414200D01*
X178859445Y-66361053D01*
X178894200Y-66231343D01*
X178894200Y-66097057D01*
X178859445Y-65967347D01*
X178828760Y-65914200D01*
X179894200Y-65914200D01*
X179894200Y-65614227D01*
X179894199Y-65614214D01*
X179883706Y-65511510D01*
X179883705Y-65511503D01*
X179828558Y-65345081D01*
X179828556Y-65345076D01*
X179736515Y-65195855D01*
X179612544Y-65071884D01*
X179463323Y-64979843D01*
X179463318Y-64979841D01*
X179296896Y-64924694D01*
X179296889Y-64924693D01*
X179194185Y-64914200D01*
X178634200Y-64914200D01*
X178634200Y-65719639D01*
X178581053Y-65688955D01*
X178451343Y-65654200D01*
X178317057Y-65654200D01*
X178187347Y-65688955D01*
X178134200Y-65719639D01*
X178134200Y-64914200D01*
X177574214Y-64914200D01*
X177471510Y-64924693D01*
X177471503Y-64924694D01*
X177305081Y-64979841D01*
X177305076Y-64979843D01*
X177155855Y-65071884D01*
X177031884Y-65195855D01*
X176939843Y-65345076D01*
X176939841Y-65345081D01*
X176884694Y-65511503D01*
X176884693Y-65511510D01*
X176874200Y-65614214D01*
X157449356Y-65614214D01*
X157450900Y-65602488D01*
X157450900Y-65359912D01*
X157448947Y-65345081D01*
X157429302Y-65195855D01*
X157419238Y-65119411D01*
X157356454Y-64885100D01*
X157263624Y-64660988D01*
X157142336Y-64450911D01*
X156994665Y-64258462D01*
X156994660Y-64258456D01*
X156823143Y-64086939D01*
X156823136Y-64086933D01*
X156630693Y-63939267D01*
X156630692Y-63939266D01*
X156630689Y-63939264D01*
X156420612Y-63817976D01*
X156420605Y-63817973D01*
X156196504Y-63725147D01*
X155962185Y-63662361D01*
X155721689Y-63630700D01*
X155721688Y-63630700D01*
X155479112Y-63630700D01*
X155479111Y-63630700D01*
X155238614Y-63662361D01*
X155004295Y-63725147D01*
X154780194Y-63817973D01*
X154780185Y-63817977D01*
X154570106Y-63939267D01*
X154377663Y-64086933D01*
X154377656Y-64086939D01*
X154206139Y-64258456D01*
X154206133Y-64258463D01*
X154058467Y-64450906D01*
X153937177Y-64660985D01*
X153937173Y-64660994D01*
X153844347Y-64885095D01*
X153781561Y-65119414D01*
X153749900Y-65359911D01*
X143573647Y-65359911D01*
X143587500Y-65272455D01*
X143587500Y-65080345D01*
X143557447Y-64890599D01*
X143498144Y-64708082D01*
X143498083Y-64707893D01*
X143498082Y-64707891D01*
X143410865Y-64536719D01*
X143297945Y-64381298D01*
X143162102Y-64245455D01*
X143006681Y-64132535D01*
X142835506Y-64045316D01*
X142652802Y-63985953D01*
X142557928Y-63970926D01*
X142463055Y-63955900D01*
X142270945Y-63955900D01*
X142207696Y-63965917D01*
X142081197Y-63985953D01*
X141898493Y-64045316D01*
X141727318Y-64132535D01*
X141697502Y-64154198D01*
X141571898Y-64245455D01*
X141571896Y-64245457D01*
X141571895Y-64245457D01*
X141436057Y-64381295D01*
X141436057Y-64381296D01*
X141436055Y-64381298D01*
X141387560Y-64448045D01*
X141323135Y-64536718D01*
X141235917Y-64707892D01*
X141214667Y-64773292D01*
X141175229Y-64830967D01*
X141110870Y-64858165D01*
X141042024Y-64846250D01*
X140990548Y-64799005D01*
X140978805Y-64773291D01*
X140957616Y-64708080D01*
X140870434Y-64536977D01*
X140849201Y-64507752D01*
X140849200Y-64507751D01*
X140227000Y-65129951D01*
X140227000Y-65123739D01*
X140199741Y-65022006D01*
X140147080Y-64930794D01*
X140072606Y-64856320D01*
X139981394Y-64803659D01*
X139879661Y-64776400D01*
X139873447Y-64776400D01*
X140495646Y-64154198D01*
X140466415Y-64132961D01*
X140295321Y-64045783D01*
X140112684Y-63986440D01*
X139923015Y-63956400D01*
X139730985Y-63956400D01*
X139541315Y-63986440D01*
X139358678Y-64045783D01*
X139187578Y-64132964D01*
X139158352Y-64154198D01*
X139158351Y-64154198D01*
X139780554Y-64776400D01*
X139774339Y-64776400D01*
X139672606Y-64803659D01*
X139581394Y-64856320D01*
X139506920Y-64930794D01*
X139454259Y-65022006D01*
X139427000Y-65123739D01*
X139427000Y-65129953D01*
X138804798Y-64507751D01*
X138804798Y-64507752D01*
X138783564Y-64536978D01*
X138696381Y-64708082D01*
X138675193Y-64773292D01*
X138635755Y-64830967D01*
X138571396Y-64858164D01*
X138502550Y-64846248D01*
X138451075Y-64799004D01*
X138439333Y-64773292D01*
X138418083Y-64707891D01*
X138330866Y-64536719D01*
X138217946Y-64381298D01*
X138082103Y-64245455D01*
X137926682Y-64132535D01*
X137755507Y-64045316D01*
X137572803Y-63985953D01*
X137477929Y-63970926D01*
X137383056Y-63955900D01*
X137190946Y-63955900D01*
X137127697Y-63965917D01*
X137001198Y-63985953D01*
X136818494Y-64045316D01*
X136647319Y-64132535D01*
X136617503Y-64154198D01*
X136491899Y-64245455D01*
X136491897Y-64245457D01*
X136491896Y-64245457D01*
X136356058Y-64381295D01*
X136356058Y-64381296D01*
X136356056Y-64381298D01*
X136307561Y-64448045D01*
X136243136Y-64536718D01*
X136155917Y-64707893D01*
X136096554Y-64890597D01*
X136066501Y-65080345D01*
X136066501Y-65272454D01*
X136096554Y-65462202D01*
X136155917Y-65644906D01*
X136212573Y-65756098D01*
X136243136Y-65816081D01*
X136356056Y-65971502D01*
X136356058Y-65971504D01*
X136382625Y-65998071D01*
X136416110Y-66059394D01*
X136411126Y-66129086D01*
X136382625Y-66173433D01*
X135281967Y-67274090D01*
X135281963Y-67274094D01*
X135218341Y-67369316D01*
X135218339Y-67369319D01*
X135210517Y-67381024D01*
X135210514Y-67381030D01*
X135161298Y-67499848D01*
X135161296Y-67499854D01*
X135136207Y-67625985D01*
X135136207Y-69933461D01*
X135116522Y-70000500D01*
X135063718Y-70046255D01*
X135051213Y-70051166D01*
X135019775Y-70061583D01*
X134870449Y-70153688D01*
X134746396Y-70277741D01*
X134654294Y-70427062D01*
X134654292Y-70427067D01*
X134634062Y-70488119D01*
X134599108Y-70593602D01*
X134599108Y-70593603D01*
X134599107Y-70593603D01*
X134588607Y-70696382D01*
X134588607Y-71496400D01*
X134588608Y-71496418D01*
X134599107Y-71599195D01*
X134599108Y-71599198D01*
X134614160Y-71644620D01*
X134654293Y-71765733D01*
X134741638Y-71907343D01*
X134746396Y-71915056D01*
X134840058Y-72008718D01*
X134873543Y-72070041D01*
X134868559Y-72139733D01*
X134840058Y-72184080D01*
X134746396Y-72277741D01*
X134654294Y-72427062D01*
X134654293Y-72427065D01*
X134599108Y-72593602D01*
X134599108Y-72593603D01*
X134599107Y-72593603D01*
X134588607Y-72696382D01*
X134588607Y-73496400D01*
X134588608Y-73496418D01*
X134599107Y-73599195D01*
X134599108Y-73599198D01*
X134626699Y-73682461D01*
X134654293Y-73765733D01*
X134743401Y-73910201D01*
X134761841Y-73977593D01*
X134740918Y-74044256D01*
X134687276Y-74089026D01*
X134637862Y-74099297D01*
X133210250Y-74099297D01*
X133143211Y-74079612D01*
X133141359Y-74078399D01*
X133040309Y-74010879D01*
X133040301Y-74010874D01*
X132856769Y-73934853D01*
X132856761Y-73934851D01*
X132661933Y-73896097D01*
X132661929Y-73896097D01*
X132463271Y-73896097D01*
X132463266Y-73896097D01*
X132268438Y-73934851D01*
X132268430Y-73934853D01*
X132084898Y-74010874D01*
X132084890Y-74010879D01*
X131983841Y-74078399D01*
X131917164Y-74099277D01*
X131914950Y-74099297D01*
X130616053Y-74099297D01*
X130616033Y-74099296D01*
X130609919Y-74099296D01*
X130451288Y-74099296D01*
X130451286Y-74099296D01*
X130295711Y-74130242D01*
X130295701Y-74130245D01*
X130149156Y-74190945D01*
X130149143Y-74190952D01*
X130017255Y-74279077D01*
X129967663Y-74328670D01*
X129905085Y-74391248D01*
X129905082Y-74391251D01*
X127369318Y-76927014D01*
X127350530Y-76942433D01*
X127306557Y-76971815D01*
X127306548Y-76971824D01*
X127192620Y-77085751D01*
X127192619Y-77085752D01*
X127103096Y-77219733D01*
X127041435Y-77368597D01*
X127041433Y-77368605D01*
X127010000Y-77526629D01*
X127010000Y-87337100D01*
X126990315Y-87404139D01*
X126937511Y-87449894D01*
X126886000Y-87461100D01*
X126635799Y-87461100D01*
X126598933Y-87464001D01*
X126598927Y-87464002D01*
X126441107Y-87509854D01*
X126441104Y-87509855D01*
X126299638Y-87593517D01*
X126299630Y-87593523D01*
X126183424Y-87709729D01*
X126183418Y-87709737D01*
X126099756Y-87851203D01*
X126099755Y-87851206D01*
X126053903Y-88009026D01*
X126053902Y-88009032D01*
X126051001Y-88045898D01*
X126051001Y-89352301D01*
X126053902Y-89389167D01*
X126053903Y-89389169D01*
X126075360Y-89463025D01*
X126075476Y-89463421D01*
X126080400Y-89498017D01*
X126080400Y-92397058D01*
X126080457Y-92397343D01*
X126080482Y-92397470D01*
X126106953Y-92530549D01*
X126106956Y-92530561D01*
X126159042Y-92656309D01*
X126159044Y-92656312D01*
X126234663Y-92769485D01*
X126234664Y-92769486D01*
X126234665Y-92769487D01*
X126374613Y-92909435D01*
X126399543Y-92945207D01*
X126508197Y-93180934D01*
X126510761Y-93198339D01*
X126518188Y-93214288D01*
X126515749Y-93232186D01*
X126518383Y-93250057D01*
X126511114Y-93266204D01*
X126508756Y-93283518D01*
X126490243Y-93312573D01*
X126489894Y-93313349D01*
X126489475Y-93313839D01*
X126390578Y-93428067D01*
X126368026Y-93456069D01*
X126367965Y-93456179D01*
X126366287Y-93458146D01*
X126365834Y-93458441D01*
X126359658Y-93465319D01*
X125904469Y-93920507D01*
X125904466Y-93920510D01*
X125887502Y-93945900D01*
X125833889Y-93990705D01*
X125764564Y-93999412D01*
X125701537Y-93969257D01*
X125664818Y-93909814D01*
X125660400Y-93877009D01*
X125660400Y-65359911D01*
X126749700Y-65359911D01*
X126749700Y-65602488D01*
X126781361Y-65842985D01*
X126844147Y-66077304D01*
X126936973Y-66301405D01*
X126936976Y-66301412D01*
X127058264Y-66511489D01*
X127058266Y-66511492D01*
X127058267Y-66511493D01*
X127205933Y-66703936D01*
X127205939Y-66703943D01*
X127377456Y-66875460D01*
X127377463Y-66875466D01*
X127394219Y-66888323D01*
X127569911Y-67023136D01*
X127779988Y-67144424D01*
X128004100Y-67237254D01*
X128238411Y-67300038D01*
X128404943Y-67321962D01*
X128478911Y-67331700D01*
X128478912Y-67331700D01*
X128721489Y-67331700D01*
X128769588Y-67325367D01*
X128961989Y-67300038D01*
X129196300Y-67237254D01*
X129420412Y-67144424D01*
X129630489Y-67023136D01*
X129822938Y-66875465D01*
X129994465Y-66703938D01*
X130142136Y-66511489D01*
X130263424Y-66301412D01*
X130356254Y-66077300D01*
X130419038Y-65842989D01*
X130450700Y-65602488D01*
X130450700Y-65359912D01*
X130448747Y-65345081D01*
X130429102Y-65195855D01*
X130419038Y-65119411D01*
X130356254Y-64885100D01*
X130263424Y-64660988D01*
X130142136Y-64450911D01*
X129994465Y-64258462D01*
X129994460Y-64258456D01*
X129822943Y-64086939D01*
X129822936Y-64086933D01*
X129630493Y-63939267D01*
X129630492Y-63939266D01*
X129630489Y-63939264D01*
X129420412Y-63817976D01*
X129420405Y-63817973D01*
X129196304Y-63725147D01*
X128961985Y-63662361D01*
X128721489Y-63630700D01*
X128721488Y-63630700D01*
X128478912Y-63630700D01*
X128478911Y-63630700D01*
X128238414Y-63662361D01*
X128004095Y-63725147D01*
X127779994Y-63817973D01*
X127779985Y-63817977D01*
X127569906Y-63939267D01*
X127377463Y-64086933D01*
X127377456Y-64086939D01*
X127205939Y-64258456D01*
X127205933Y-64258463D01*
X127058267Y-64450906D01*
X126936977Y-64660985D01*
X126936973Y-64660994D01*
X126844147Y-64885095D01*
X126781361Y-65119414D01*
X126749700Y-65359911D01*
X125660400Y-65359911D01*
X125660400Y-62575100D01*
X125680085Y-62508061D01*
X125732889Y-62462306D01*
X125784400Y-62451100D01*
X186183600Y-62451100D01*
X186250639Y-62470785D01*
G37*
%TD.AperFunction*%
%TA.AperFunction,Conductor*%
G36*
X134806334Y-94443348D02*
G01*
X134850681Y-94471849D01*
X134944344Y-94565512D01*
X135014028Y-94608493D01*
X135014816Y-94608997D01*
X135037115Y-94634621D01*
X135059821Y-94659864D01*
X135060081Y-94661010D01*
X135060684Y-94661703D01*
X135061483Y-94667177D01*
X135072000Y-94713456D01*
X135072000Y-96407869D01*
X135052315Y-96474908D01*
X134999511Y-96520663D01*
X134982597Y-96526945D01*
X134971203Y-96530255D01*
X134829737Y-96613917D01*
X134829729Y-96613923D01*
X134713523Y-96730129D01*
X134713517Y-96730137D01*
X134629855Y-96871603D01*
X134629854Y-96871606D01*
X134584002Y-97029426D01*
X134584001Y-97029432D01*
X134581100Y-97066298D01*
X134581100Y-97497701D01*
X134584001Y-97534567D01*
X134584002Y-97534573D01*
X134629854Y-97692393D01*
X134629855Y-97692396D01*
X134629856Y-97692398D01*
X134646476Y-97720501D01*
X134713517Y-97833862D01*
X134718302Y-97840031D01*
X134715856Y-97841927D01*
X134742457Y-97890642D01*
X134737473Y-97960334D01*
X134716669Y-97992703D01*
X134718302Y-97993969D01*
X134713517Y-98000137D01*
X134629855Y-98141603D01*
X134629854Y-98141606D01*
X134584002Y-98299426D01*
X134584001Y-98299432D01*
X134581100Y-98336298D01*
X134581100Y-98767701D01*
X134584001Y-98804567D01*
X134584002Y-98804573D01*
X134629854Y-98962393D01*
X134629855Y-98962396D01*
X134713517Y-99103862D01*
X134718302Y-99110031D01*
X134715856Y-99111927D01*
X134742457Y-99160642D01*
X134737473Y-99230334D01*
X134716669Y-99262703D01*
X134718302Y-99263969D01*
X134713517Y-99270137D01*
X134629855Y-99411603D01*
X134629854Y-99411606D01*
X134584002Y-99569426D01*
X134584001Y-99569432D01*
X134581100Y-99606298D01*
X134581100Y-100037701D01*
X134584001Y-100074567D01*
X134584002Y-100074573D01*
X134629854Y-100232393D01*
X134629855Y-100232396D01*
X134713517Y-100373862D01*
X134718302Y-100380031D01*
X134715969Y-100381840D01*
X134742810Y-100430995D01*
X134737826Y-100500687D01*
X134717070Y-100533021D01*
X134718697Y-100534283D01*
X134713913Y-100540449D01*
X134630318Y-100681801D01*
X134584499Y-100839513D01*
X134584304Y-100841998D01*
X134584305Y-100842000D01*
X135932600Y-100842000D01*
X135999639Y-100861685D01*
X136045394Y-100914489D01*
X136056600Y-100966000D01*
X136056600Y-101092000D01*
X136182600Y-101092000D01*
X136249639Y-101111685D01*
X136295394Y-101164489D01*
X136306600Y-101216000D01*
X136306600Y-101892000D01*
X136702100Y-101892000D01*
X136769139Y-101911685D01*
X136814894Y-101964489D01*
X136826100Y-102016000D01*
X136826100Y-102429709D01*
X136806415Y-102496748D01*
X136787253Y-102519848D01*
X136778014Y-102528575D01*
X136761944Y-102538488D01*
X136666682Y-102633749D01*
X136665399Y-102634962D01*
X136635764Y-102650066D01*
X136606603Y-102665989D01*
X136604780Y-102665858D01*
X136603149Y-102666690D01*
X136570064Y-102663375D01*
X136536912Y-102661005D01*
X136535160Y-102659879D01*
X136533627Y-102659726D01*
X136528124Y-102655357D01*
X136492565Y-102632504D01*
X136398945Y-102538884D01*
X136249724Y-102446843D01*
X136249719Y-102446841D01*
X136083297Y-102391694D01*
X136083290Y-102391693D01*
X135980586Y-102381200D01*
X135830600Y-102381200D01*
X135830600Y-104781199D01*
X135980572Y-104781199D01*
X135980586Y-104781198D01*
X136083297Y-104770705D01*
X136249719Y-104715558D01*
X136249724Y-104715556D01*
X136398942Y-104623517D01*
X136492564Y-104529895D01*
X136498950Y-104526407D01*
X136503143Y-104520462D01*
X136529203Y-104509888D01*
X136553887Y-104496410D01*
X136561143Y-104496928D01*
X136567887Y-104494193D01*
X136595530Y-104499388D01*
X136623579Y-104501394D01*
X136631088Y-104506070D01*
X136636555Y-104507098D01*
X136659423Y-104523715D01*
X136665399Y-104527437D01*
X136666664Y-104528632D01*
X136761944Y-104623912D01*
X136778016Y-104633825D01*
X136787253Y-104642551D01*
X136798712Y-104662188D01*
X136813918Y-104679092D01*
X136817325Y-104694086D01*
X136822468Y-104702898D01*
X136821968Y-104714513D01*
X136826100Y-104732690D01*
X136826100Y-105115370D01*
X136806415Y-105182409D01*
X136789781Y-105203051D01*
X136693681Y-105299151D01*
X136632358Y-105332636D01*
X136562666Y-105327652D01*
X136518319Y-105299151D01*
X136424657Y-105205489D01*
X136424656Y-105205488D01*
X136331888Y-105148269D01*
X136275336Y-105113387D01*
X136275331Y-105113385D01*
X136270847Y-105111899D01*
X136108797Y-105058201D01*
X136108795Y-105058200D01*
X136006010Y-105047700D01*
X135205998Y-105047700D01*
X135205978Y-105047702D01*
X135166562Y-105051728D01*
X135164640Y-105051370D01*
X135162808Y-105052054D01*
X135130430Y-105045010D01*
X135097869Y-105038957D01*
X135095840Y-105037485D01*
X135094535Y-105037202D01*
X135066281Y-105016051D01*
X135038160Y-104987930D01*
X135004675Y-104926607D01*
X135009659Y-104856915D01*
X135051531Y-104800982D01*
X135116995Y-104776565D01*
X135138444Y-104776891D01*
X135180619Y-104781199D01*
X135330599Y-104781199D01*
X135330600Y-104781198D01*
X135330600Y-103831200D01*
X134480601Y-103831200D01*
X134480601Y-104081171D01*
X134480602Y-104081191D01*
X134484909Y-104123359D01*
X134472139Y-104192052D01*
X134424257Y-104242935D01*
X134356467Y-104259855D01*
X134290291Y-104237438D01*
X134273870Y-104223640D01*
X133501205Y-103450974D01*
X133501182Y-103450953D01*
X133215975Y-103165745D01*
X133131443Y-103081213D01*
X134480600Y-103081213D01*
X134480600Y-103331200D01*
X135330600Y-103331200D01*
X135330600Y-102381200D01*
X135180627Y-102381200D01*
X135180612Y-102381201D01*
X135077902Y-102391694D01*
X134911480Y-102446841D01*
X134911475Y-102446843D01*
X134762254Y-102538884D01*
X134638284Y-102662854D01*
X134546243Y-102812075D01*
X134546241Y-102812080D01*
X134491094Y-102978502D01*
X134491093Y-102978509D01*
X134480600Y-103081213D01*
X133131443Y-103081213D01*
X133086719Y-103036489D01*
X133053234Y-102975166D01*
X133050400Y-102948808D01*
X133050400Y-101342001D01*
X134584304Y-101342001D01*
X134584499Y-101344486D01*
X134630318Y-101502198D01*
X134713914Y-101643552D01*
X134713921Y-101643561D01*
X134830038Y-101759678D01*
X134830047Y-101759685D01*
X134971403Y-101843282D01*
X134971406Y-101843283D01*
X135129104Y-101889099D01*
X135129110Y-101889100D01*
X135165950Y-101891999D01*
X135165966Y-101892000D01*
X135806600Y-101892000D01*
X135806600Y-101342000D01*
X134584305Y-101342000D01*
X134584304Y-101342001D01*
X133050400Y-101342001D01*
X133050400Y-98744577D01*
X133016525Y-98574281D01*
X133016524Y-98574280D01*
X133016524Y-98574276D01*
X133016522Y-98574271D01*
X132950078Y-98413859D01*
X132950074Y-98413852D01*
X132905516Y-98347166D01*
X132905516Y-98347165D01*
X132853607Y-98269477D01*
X132853601Y-98269470D01*
X131547037Y-96962907D01*
X131531482Y-96943915D01*
X131325261Y-96633927D01*
X131304520Y-96567210D01*
X131323141Y-96499868D01*
X131329040Y-96491201D01*
X131562384Y-96177887D01*
X131574135Y-96164293D01*
X133029932Y-94708496D01*
X133091253Y-94675013D01*
X133156614Y-94678472D01*
X133260203Y-94712799D01*
X133362991Y-94723300D01*
X134163008Y-94723299D01*
X134163016Y-94723298D01*
X134163019Y-94723298D01*
X134258435Y-94713551D01*
X134265797Y-94712799D01*
X134432334Y-94657614D01*
X134581656Y-94565512D01*
X134675319Y-94471849D01*
X134736642Y-94438364D01*
X134806334Y-94443348D01*
G37*
%TD.AperFunction*%
%TA.AperFunction,Conductor*%
G36*
X139847687Y-101800267D02*
G01*
X139921202Y-101843744D01*
X139962824Y-101855836D01*
X140079026Y-101889597D01*
X140079029Y-101889597D01*
X140079031Y-101889598D01*
X140115906Y-101892500D01*
X141579496Y-101892500D01*
X141596392Y-101897461D01*
X141614003Y-101897398D01*
X141629221Y-101907101D01*
X141646535Y-101912185D01*
X141658065Y-101925491D01*
X141672917Y-101934961D01*
X141680474Y-101951352D01*
X141692290Y-101964989D01*
X141694842Y-101982518D01*
X141702170Y-101998412D01*
X141701435Y-102027795D01*
X141702296Y-102033706D01*
X141701803Y-102037220D01*
X141676000Y-102166942D01*
X141676000Y-102221382D01*
X141674800Y-102229947D01*
X141663820Y-102254220D01*
X141656315Y-102279780D01*
X141649018Y-102286943D01*
X141646004Y-102293607D01*
X141634910Y-102300792D01*
X141617098Y-102318279D01*
X141548346Y-102360686D01*
X141454327Y-102454705D01*
X141393003Y-102488189D01*
X141323312Y-102483205D01*
X141278965Y-102454704D01*
X141185345Y-102361084D01*
X141036124Y-102269043D01*
X141036119Y-102269041D01*
X140869697Y-102213894D01*
X140869690Y-102213893D01*
X140766986Y-102203400D01*
X140617000Y-102203400D01*
X140617000Y-104603399D01*
X140766972Y-104603399D01*
X140766986Y-104603398D01*
X140869697Y-104592905D01*
X141036119Y-104537758D01*
X141036124Y-104537756D01*
X141185342Y-104445717D01*
X141278964Y-104352095D01*
X141281867Y-104350509D01*
X141283600Y-104347692D01*
X141312320Y-104333880D01*
X141340287Y-104318610D01*
X141343586Y-104318845D01*
X141346568Y-104317412D01*
X141378198Y-104321321D01*
X141409979Y-104323594D01*
X141413605Y-104325697D01*
X141415910Y-104325982D01*
X141426458Y-104333151D01*
X141445974Y-104344471D01*
X141450322Y-104348090D01*
X141548344Y-104446112D01*
X141624579Y-104493134D01*
X141631328Y-104498751D01*
X141646096Y-104520758D01*
X141663821Y-104540464D01*
X141666125Y-104550605D01*
X141670261Y-104556768D01*
X141670522Y-104569953D01*
X141676000Y-104594056D01*
X141676000Y-104930541D01*
X141656315Y-104997580D01*
X141617098Y-105036079D01*
X141548344Y-105078487D01*
X141548343Y-105078488D01*
X141454681Y-105172151D01*
X141393358Y-105205636D01*
X141323666Y-105200652D01*
X141279319Y-105172151D01*
X141185657Y-105078489D01*
X141185656Y-105078488D01*
X141057999Y-104999749D01*
X141036336Y-104986387D01*
X141036331Y-104986385D01*
X140984340Y-104969157D01*
X140869797Y-104931201D01*
X140869795Y-104931200D01*
X140767010Y-104920700D01*
X139966998Y-104920700D01*
X139966980Y-104920701D01*
X139864203Y-104931200D01*
X139864200Y-104931201D01*
X139766604Y-104963542D01*
X139738139Y-104964521D01*
X139709953Y-104968574D01*
X139703674Y-104965706D01*
X139696776Y-104965944D01*
X139672304Y-104951380D01*
X139646397Y-104939549D01*
X139642664Y-104933741D01*
X139636734Y-104930212D01*
X139624020Y-104904729D01*
X139608623Y-104880771D01*
X139607228Y-104871075D01*
X139605541Y-104867692D01*
X139603600Y-104845836D01*
X139603600Y-104678237D01*
X139623285Y-104611198D01*
X139676089Y-104565443D01*
X139745247Y-104555499D01*
X139766604Y-104560531D01*
X139864302Y-104592905D01*
X139864309Y-104592906D01*
X139967019Y-104603399D01*
X140116999Y-104603399D01*
X140117000Y-104603398D01*
X140117000Y-102203400D01*
X139967027Y-102203400D01*
X139967012Y-102203401D01*
X139864302Y-102213894D01*
X139766604Y-102246268D01*
X139738139Y-102247247D01*
X139709953Y-102251300D01*
X139703674Y-102248432D01*
X139696775Y-102248670D01*
X139672299Y-102234104D01*
X139646397Y-102222275D01*
X139642665Y-102216468D01*
X139636733Y-102212938D01*
X139624018Y-102187452D01*
X139608623Y-102163497D01*
X139607228Y-102153799D01*
X139605541Y-102150417D01*
X139603600Y-102128562D01*
X139603600Y-101907000D01*
X139623285Y-101839961D01*
X139676089Y-101794206D01*
X139727600Y-101783000D01*
X139784567Y-101783000D01*
X139847687Y-101800267D01*
G37*
%TD.AperFunction*%
%TA.AperFunction,Conductor*%
G36*
X138615049Y-98588230D02*
G01*
X138624328Y-98588430D01*
X138646059Y-98603066D01*
X138669702Y-98614378D01*
X138674521Y-98618946D01*
X139084200Y-99028624D01*
X139084221Y-99028647D01*
X139193631Y-99138057D01*
X139193634Y-99138059D01*
X139273250Y-99191256D01*
X139317211Y-99220630D01*
X139385573Y-99248946D01*
X139454520Y-99277505D01*
X139477228Y-99282021D01*
X139539138Y-99314402D01*
X139573716Y-99375116D01*
X139572118Y-99438233D01*
X139534001Y-99569432D01*
X139531100Y-99606298D01*
X139531100Y-100037701D01*
X139534001Y-100074567D01*
X139534002Y-100074573D01*
X139582032Y-100239890D01*
X139579438Y-100240643D01*
X139586402Y-100297111D01*
X139556106Y-100360070D01*
X139496580Y-100396655D01*
X139464044Y-100401000D01*
X139250938Y-100401000D01*
X139136438Y-100423776D01*
X139136437Y-100423776D01*
X139124998Y-100426051D01*
X139117440Y-100427555D01*
X139117439Y-100427555D01*
X138991694Y-100479640D01*
X138991681Y-100479647D01*
X138878513Y-100555264D01*
X138878509Y-100555267D01*
X138546781Y-100886996D01*
X138485458Y-100920481D01*
X138415766Y-100915497D01*
X138359833Y-100873625D01*
X138335416Y-100808161D01*
X138335100Y-100799315D01*
X138335100Y-100451447D01*
X138335101Y-100451426D01*
X138335101Y-100296686D01*
X138306106Y-100150926D01*
X138306104Y-100150920D01*
X138295354Y-100124966D01*
X138295342Y-100124939D01*
X138282546Y-100094046D01*
X138249230Y-100013612D01*
X138201191Y-99941716D01*
X138166659Y-99890035D01*
X138166656Y-99890031D01*
X138057247Y-99780622D01*
X138057224Y-99780601D01*
X137738528Y-99461904D01*
X137722810Y-99433119D01*
X137706062Y-99404894D01*
X137706143Y-99402597D01*
X137705043Y-99400581D01*
X137707383Y-99367855D01*
X137708553Y-99335069D01*
X137709863Y-99333182D01*
X137710027Y-99330889D01*
X137729693Y-99304618D01*
X137748399Y-99277675D01*
X137751033Y-99276111D01*
X137751899Y-99274956D01*
X137778749Y-99259664D01*
X137804627Y-99248946D01*
X137872989Y-99220630D01*
X137996566Y-99138059D01*
X138352163Y-98782460D01*
X138352166Y-98782459D01*
X138457259Y-98677366D01*
X138488793Y-98630170D01*
X138494897Y-98623426D01*
X138517241Y-98609736D01*
X138537349Y-98592932D01*
X138546558Y-98591775D01*
X138554475Y-98586925D01*
X138580672Y-98587489D01*
X138606674Y-98584223D01*
X138615049Y-98588230D01*
G37*
%TD.AperFunction*%
%TA.AperFunction,Conductor*%
G36*
X130564855Y-88239085D02*
G01*
X130585497Y-88255719D01*
X134489262Y-92159484D01*
X134522747Y-92220807D01*
X134517763Y-92290499D01*
X134475891Y-92346432D01*
X134410427Y-92370849D01*
X134362578Y-92364871D01*
X134265797Y-92332801D01*
X134265795Y-92332800D01*
X134163010Y-92322300D01*
X133362998Y-92322300D01*
X133362980Y-92322301D01*
X133260203Y-92332800D01*
X133260200Y-92332801D01*
X133093668Y-92387985D01*
X133093663Y-92387987D01*
X132944342Y-92480089D01*
X132820288Y-92604143D01*
X132820286Y-92604146D01*
X132813868Y-92614551D01*
X132761919Y-92661273D01*
X132750605Y-92666022D01*
X132741752Y-92669231D01*
X132711876Y-92675175D01*
X132619628Y-92713386D01*
X132617073Y-92714444D01*
X132617049Y-92714453D01*
X132551457Y-92741622D01*
X132551450Y-92741626D01*
X132483105Y-92787293D01*
X132407081Y-92838090D01*
X132407073Y-92838096D01*
X131292481Y-93952687D01*
X131231158Y-93986172D01*
X131161466Y-93981188D01*
X131105533Y-93939316D01*
X131081116Y-93873852D01*
X131080800Y-93865006D01*
X131080800Y-93772800D01*
X130243300Y-93772800D01*
X130243300Y-94747799D01*
X130265687Y-94770186D01*
X130299172Y-94831509D01*
X130294188Y-94901201D01*
X130252316Y-94957134D01*
X130239184Y-94965725D01*
X129643933Y-95303358D01*
X129582756Y-95319500D01*
X129479599Y-95319500D01*
X129479580Y-95319501D01*
X129376803Y-95330000D01*
X129376800Y-95330001D01*
X129210268Y-95385185D01*
X129210263Y-95385187D01*
X129060942Y-95477289D01*
X128967281Y-95570951D01*
X128905958Y-95604436D01*
X128836266Y-95599452D01*
X128791919Y-95570951D01*
X128698257Y-95477289D01*
X128698256Y-95477288D01*
X128548934Y-95385186D01*
X128382397Y-95330001D01*
X128382395Y-95330000D01*
X128279610Y-95319500D01*
X127479598Y-95319500D01*
X127479580Y-95319501D01*
X127376803Y-95330000D01*
X127376800Y-95330001D01*
X127295204Y-95357040D01*
X127225376Y-95359442D01*
X127165334Y-95323710D01*
X127134141Y-95261190D01*
X127132200Y-95239334D01*
X127132200Y-94814497D01*
X127138826Y-94791928D01*
X127141043Y-94768509D01*
X127148488Y-94759024D01*
X127151885Y-94747458D01*
X127169658Y-94732057D01*
X127184186Y-94713551D01*
X127195578Y-94709597D01*
X127204689Y-94701703D01*
X127227971Y-94698355D01*
X127250194Y-94690643D01*
X127266694Y-94692787D01*
X127273847Y-94691759D01*
X127285331Y-94693967D01*
X127291447Y-94695445D01*
X127293045Y-94696096D01*
X127318256Y-94701924D01*
X127318758Y-94702046D01*
X127318939Y-94702150D01*
X127328625Y-94704868D01*
X127428003Y-94737799D01*
X127530791Y-94748300D01*
X128305808Y-94748299D01*
X128305816Y-94748298D01*
X128305819Y-94748298D01*
X128362102Y-94742548D01*
X128408597Y-94737799D01*
X128575134Y-94682614D01*
X128724456Y-94590512D01*
X128848512Y-94466456D01*
X128850552Y-94463147D01*
X128852545Y-94461355D01*
X128852993Y-94460789D01*
X128853089Y-94460865D01*
X128902494Y-94416423D01*
X128971456Y-94405195D01*
X129035540Y-94433034D01*
X129061629Y-94463139D01*
X129063481Y-94466141D01*
X129063483Y-94466144D01*
X129187454Y-94590115D01*
X129336675Y-94682156D01*
X129336680Y-94682158D01*
X129503102Y-94737305D01*
X129503109Y-94737306D01*
X129605819Y-94747799D01*
X129743299Y-94747799D01*
X129743300Y-94747798D01*
X129743300Y-93272800D01*
X130243300Y-93272800D01*
X131080799Y-93272800D01*
X131080799Y-92997828D01*
X131080798Y-92997813D01*
X131070305Y-92895102D01*
X131015158Y-92728680D01*
X131015156Y-92728675D01*
X130923115Y-92579454D01*
X130799145Y-92455484D01*
X130649924Y-92363443D01*
X130649919Y-92363441D01*
X130483497Y-92308294D01*
X130483490Y-92308293D01*
X130380786Y-92297800D01*
X130243300Y-92297800D01*
X130243300Y-93272800D01*
X129743300Y-93272800D01*
X129743300Y-92297800D01*
X129605827Y-92297800D01*
X129605812Y-92297801D01*
X129503102Y-92308294D01*
X129336680Y-92363441D01*
X129336675Y-92363443D01*
X129187454Y-92455484D01*
X129063483Y-92579455D01*
X129063479Y-92579460D01*
X129061626Y-92582465D01*
X129059818Y-92584090D01*
X129059002Y-92585123D01*
X129058825Y-92584983D01*
X129009674Y-92629185D01*
X128940711Y-92640401D01*
X128876631Y-92612552D01*
X128850553Y-92582453D01*
X128850008Y-92581569D01*
X128848512Y-92579144D01*
X128724456Y-92455088D01*
X128575134Y-92362986D01*
X128408597Y-92307801D01*
X128408595Y-92307800D01*
X128305816Y-92297300D01*
X128305809Y-92297300D01*
X128183471Y-92297300D01*
X128133149Y-92286630D01*
X128081828Y-92263842D01*
X127819140Y-92147200D01*
X127598956Y-92049431D01*
X127545673Y-92004234D01*
X127525285Y-91937405D01*
X127544263Y-91870163D01*
X127596583Y-91823855D01*
X127649278Y-91812101D01*
X128017187Y-91812101D01*
X128017195Y-91812101D01*
X128054070Y-91809199D01*
X128054072Y-91809198D01*
X128054074Y-91809198D01*
X128095692Y-91797106D01*
X128211899Y-91763345D01*
X128353366Y-91679682D01*
X128469582Y-91563466D01*
X128553245Y-91421999D01*
X128595001Y-91278275D01*
X128599098Y-91264174D01*
X128599099Y-91264168D01*
X128600918Y-91241052D01*
X128602001Y-91227295D01*
X128602001Y-90866599D01*
X128611441Y-90819144D01*
X128614565Y-90811603D01*
X128646000Y-90653567D01*
X128646000Y-90061100D01*
X128665685Y-89994061D01*
X128718489Y-89948306D01*
X128770000Y-89937100D01*
X128967187Y-89937100D01*
X128967195Y-89937100D01*
X129004070Y-89934198D01*
X129004072Y-89934197D01*
X129004074Y-89934197D01*
X129045692Y-89922105D01*
X129161899Y-89888344D01*
X129303366Y-89804681D01*
X129419582Y-89688465D01*
X129503245Y-89546998D01*
X129539859Y-89420973D01*
X129549098Y-89389173D01*
X129549098Y-89389171D01*
X129549099Y-89389169D01*
X129552001Y-89352294D01*
X129552001Y-88343400D01*
X129571686Y-88276361D01*
X129624490Y-88230606D01*
X129676001Y-88219400D01*
X130497816Y-88219400D01*
X130564855Y-88239085D01*
G37*
%TD.AperFunction*%
%TA.AperFunction,Conductor*%
G36*
X169824647Y-91131758D02*
G01*
X169835670Y-91131904D01*
X169856124Y-91145434D01*
X169878618Y-91155207D01*
X169888984Y-91167170D01*
X169893944Y-91170451D01*
X169896136Y-91175424D01*
X169904704Y-91185312D01*
X169939085Y-91241052D01*
X169939088Y-91241056D01*
X170063144Y-91365112D01*
X170212466Y-91457214D01*
X170379003Y-91512399D01*
X170481791Y-91522900D01*
X170673100Y-91522899D01*
X170740139Y-91542583D01*
X170785894Y-91595387D01*
X170797100Y-91646899D01*
X170797100Y-92667597D01*
X170777415Y-92734636D01*
X170760781Y-92755278D01*
X170403078Y-93112981D01*
X170341755Y-93146466D01*
X170315397Y-93149300D01*
X169988200Y-93149300D01*
X169921161Y-93129615D01*
X169875406Y-93076811D01*
X169864200Y-93025300D01*
X169864200Y-92782200D01*
X168888200Y-92782200D01*
X168821161Y-92762515D01*
X168775406Y-92709711D01*
X168764200Y-92658200D01*
X168764200Y-92406200D01*
X168783885Y-92339161D01*
X168836689Y-92293406D01*
X168888200Y-92282200D01*
X169864199Y-92282200D01*
X169864199Y-92032228D01*
X169864198Y-92032213D01*
X169853705Y-91929502D01*
X169798558Y-91763080D01*
X169798556Y-91763075D01*
X169706515Y-91613854D01*
X169579295Y-91486634D01*
X169576706Y-91481893D01*
X169572198Y-91478911D01*
X169560136Y-91451547D01*
X169545810Y-91425311D01*
X169546195Y-91419921D01*
X169544016Y-91414977D01*
X169548661Y-91385444D01*
X169550794Y-91355619D01*
X169554256Y-91349870D01*
X169554872Y-91345956D01*
X169566917Y-91328849D01*
X169574344Y-91316519D01*
X169576728Y-91313839D01*
X169674912Y-91215656D01*
X169699325Y-91176075D01*
X169706534Y-91167975D01*
X169727337Y-91154990D01*
X169745573Y-91138588D01*
X169756455Y-91136816D01*
X169765806Y-91130981D01*
X169790325Y-91131304D01*
X169814536Y-91127365D01*
X169824647Y-91131758D01*
G37*
%TD.AperFunction*%
%TA.AperFunction,Conductor*%
G36*
X149723363Y-90409115D02*
G01*
X149749658Y-90411468D01*
X149756825Y-90417035D01*
X149765659Y-90419126D01*
X149783985Y-90438132D01*
X149804837Y-90454329D01*
X149807857Y-90462889D01*
X149814157Y-90469423D01*
X149819298Y-90495319D01*
X149828083Y-90520218D01*
X149827065Y-90534439D01*
X149827764Y-90537955D01*
X149826603Y-90540900D01*
X149825878Y-90551050D01*
X149796100Y-90700753D01*
X149796100Y-90858446D01*
X149826861Y-91013089D01*
X149826864Y-91013101D01*
X149887202Y-91158772D01*
X149887209Y-91158785D01*
X149974810Y-91289888D01*
X149974813Y-91289892D01*
X150086307Y-91401386D01*
X150086311Y-91401389D01*
X150217414Y-91488990D01*
X150217427Y-91488997D01*
X150346797Y-91542583D01*
X150363103Y-91549337D01*
X150517753Y-91580099D01*
X150517756Y-91580100D01*
X150517758Y-91580100D01*
X150675444Y-91580100D01*
X150675445Y-91580099D01*
X150830097Y-91549337D01*
X150967006Y-91492628D01*
X150975772Y-91488997D01*
X150975772Y-91488996D01*
X150975779Y-91488994D01*
X151106889Y-91401389D01*
X151143563Y-91364715D01*
X151196519Y-91311760D01*
X151257842Y-91278275D01*
X151327534Y-91283259D01*
X151383467Y-91325131D01*
X151407884Y-91390595D01*
X151408200Y-91399441D01*
X151408200Y-91647200D01*
X152384200Y-91647200D01*
X152451239Y-91666885D01*
X152496994Y-91719689D01*
X152508200Y-91771200D01*
X152508200Y-92023200D01*
X152488515Y-92090239D01*
X152435711Y-92135994D01*
X152384200Y-92147200D01*
X151408201Y-92147200D01*
X151408201Y-92397186D01*
X151418694Y-92499897D01*
X151473841Y-92666319D01*
X151473843Y-92666324D01*
X151565884Y-92815545D01*
X151611758Y-92861419D01*
X151645243Y-92922742D01*
X151640259Y-92992434D01*
X151598387Y-93048367D01*
X151532923Y-93072784D01*
X151524077Y-93073100D01*
X145101802Y-93073100D01*
X145034763Y-93053415D01*
X145014121Y-93036781D01*
X143183219Y-91205878D01*
X143149734Y-91144555D01*
X143146900Y-91118197D01*
X143146900Y-90609999D01*
X143166585Y-90542960D01*
X143219389Y-90497205D01*
X143270895Y-90485999D01*
X144540490Y-90485999D01*
X144540497Y-90485999D01*
X144607282Y-90479931D01*
X144607285Y-90479930D01*
X144607287Y-90479930D01*
X144761002Y-90432031D01*
X144761004Y-90432029D01*
X144767841Y-90428953D01*
X144768493Y-90430401D01*
X144823742Y-90415000D01*
X149482383Y-90415000D01*
X149482388Y-90415001D01*
X149631012Y-90415001D01*
X149688794Y-90403506D01*
X149697668Y-90403034D01*
X149723363Y-90409115D01*
G37*
%TD.AperFunction*%
%TA.AperFunction,Conductor*%
G36*
X159980795Y-91492884D02*
G01*
X159982452Y-91492628D01*
X160012967Y-91506156D01*
X160043834Y-91518890D01*
X160045930Y-91520770D01*
X160046326Y-91520946D01*
X160046614Y-91521383D01*
X160053849Y-91527873D01*
X161331600Y-92805624D01*
X161331621Y-92805647D01*
X161387393Y-92861419D01*
X161420878Y-92922742D01*
X161415894Y-92992434D01*
X161374022Y-93048367D01*
X161308558Y-93072784D01*
X161299712Y-93073100D01*
X159928008Y-93073100D01*
X159860969Y-93053415D01*
X159815214Y-93000611D01*
X159805270Y-92931453D01*
X159821276Y-92885979D01*
X159908081Y-92739198D01*
X159953900Y-92581486D01*
X159954095Y-92579001D01*
X159954095Y-92579000D01*
X157009505Y-92579000D01*
X157009504Y-92579001D01*
X157009699Y-92581486D01*
X157055518Y-92739198D01*
X157142324Y-92885979D01*
X157159507Y-92953703D01*
X157137347Y-93019966D01*
X157082881Y-93063729D01*
X157035592Y-93073100D01*
X155493030Y-93073100D01*
X155425991Y-93053415D01*
X155380236Y-93000611D01*
X155370292Y-92931453D01*
X155393360Y-92875330D01*
X155398834Y-92867933D01*
X155450912Y-92815856D01*
X155518584Y-92706140D01*
X155521701Y-92701930D01*
X155545547Y-92683876D01*
X155567780Y-92663879D01*
X155573752Y-92662521D01*
X155577407Y-92659755D01*
X155590291Y-92658763D01*
X155621371Y-92651700D01*
X155805754Y-92651700D01*
X155805774Y-92651701D01*
X155811888Y-92651701D01*
X155960513Y-92651701D01*
X155973896Y-92649038D01*
X156097879Y-92624376D01*
X156106280Y-92622705D01*
X156177646Y-92593144D01*
X156243589Y-92565830D01*
X156367166Y-92483259D01*
X156803947Y-92046476D01*
X156865270Y-92012992D01*
X156934961Y-92017976D01*
X156982683Y-92049986D01*
X157009504Y-92079000D01*
X159954095Y-92079000D01*
X159954095Y-92078998D01*
X159953900Y-92076513D01*
X159908081Y-91918801D01*
X159824485Y-91777447D01*
X159819700Y-91771278D01*
X159822166Y-91769364D01*
X159795602Y-91720776D01*
X159800549Y-91651082D01*
X159811701Y-91628475D01*
X159819150Y-91616595D01*
X159824881Y-91610865D01*
X159860287Y-91550994D01*
X159861115Y-91549676D01*
X159886114Y-91527522D01*
X159910503Y-91504751D01*
X159912151Y-91504451D01*
X159913408Y-91503338D01*
X159946398Y-91498220D01*
X159979244Y-91492245D01*
X159980795Y-91492884D01*
G37*
%TD.AperFunction*%
%TA.AperFunction,Conductor*%
G36*
X131981989Y-75729582D02*
G01*
X131983839Y-75730794D01*
X132084896Y-75798318D01*
X132268431Y-75874341D01*
X132434957Y-75907465D01*
X132463266Y-75913096D01*
X132463270Y-75913097D01*
X132463271Y-75913097D01*
X132661930Y-75913097D01*
X132661931Y-75913096D01*
X132856769Y-75874341D01*
X133040304Y-75798318D01*
X133141359Y-75730794D01*
X133208036Y-75709917D01*
X133210250Y-75709897D01*
X134499642Y-75709897D01*
X134566681Y-75729582D01*
X134612436Y-75782386D01*
X134617347Y-75794891D01*
X134618483Y-75798318D01*
X134628893Y-75829733D01*
X134713543Y-75966974D01*
X134720996Y-75979056D01*
X134814658Y-76072718D01*
X134848143Y-76134041D01*
X134843159Y-76203733D01*
X134814658Y-76248080D01*
X134720996Y-76341741D01*
X134628894Y-76491062D01*
X134628892Y-76491067D01*
X134608669Y-76552097D01*
X134573708Y-76657602D01*
X134573708Y-76657603D01*
X134573707Y-76657603D01*
X134563207Y-76760382D01*
X134563207Y-77560400D01*
X134563208Y-77560418D01*
X134573707Y-77663195D01*
X134573708Y-77663198D01*
X134628892Y-77829730D01*
X134628894Y-77829735D01*
X134642587Y-77851935D01*
X134720995Y-77979055D01*
X134845051Y-78103111D01*
X134938859Y-78160972D01*
X134966683Y-78178134D01*
X135013407Y-78230082D01*
X135023203Y-78259480D01*
X135038200Y-78334873D01*
X135038202Y-78334879D01*
X135095073Y-78472179D01*
X135095079Y-78472190D01*
X135177649Y-78595766D01*
X135177650Y-78595767D01*
X136611309Y-80029424D01*
X136611330Y-80029447D01*
X136720740Y-80138857D01*
X136720743Y-80138859D01*
X136772580Y-80173495D01*
X136844320Y-80221430D01*
X136924754Y-80254746D01*
X136981629Y-80278305D01*
X137005814Y-80283115D01*
X137054703Y-80292840D01*
X137127395Y-80307301D01*
X137127397Y-80307301D01*
X137282135Y-80307301D01*
X137282155Y-80307300D01*
X138726517Y-80307300D01*
X138793556Y-80326985D01*
X138814198Y-80343619D01*
X139842897Y-81372318D01*
X139876382Y-81433641D01*
X139871398Y-81503333D01*
X139829526Y-81559266D01*
X139764062Y-81583683D01*
X139755216Y-81583999D01*
X139705588Y-81583999D01*
X139515918Y-81614039D01*
X139333281Y-81673382D01*
X139162181Y-81760563D01*
X139132955Y-81781797D01*
X139132954Y-81781797D01*
X139755157Y-82403999D01*
X139748942Y-82403999D01*
X139647209Y-82431258D01*
X139555997Y-82483919D01*
X139481523Y-82558393D01*
X139428862Y-82649605D01*
X139401603Y-82751338D01*
X139401603Y-82757552D01*
X138779401Y-82135350D01*
X138779401Y-82135351D01*
X138758167Y-82164577D01*
X138670984Y-82335681D01*
X138649796Y-82400891D01*
X138610358Y-82458566D01*
X138545999Y-82485763D01*
X138477153Y-82473847D01*
X138425678Y-82426603D01*
X138413936Y-82400891D01*
X138392686Y-82335490D01*
X138305469Y-82164318D01*
X138192549Y-82008897D01*
X138056706Y-81873054D01*
X137901285Y-81760134D01*
X137841989Y-81729921D01*
X137730110Y-81672915D01*
X137547406Y-81613552D01*
X137443532Y-81597100D01*
X137357659Y-81583499D01*
X137165549Y-81583499D01*
X137102300Y-81593516D01*
X136975801Y-81613552D01*
X136793097Y-81672915D01*
X136621922Y-81760134D01*
X136551167Y-81811541D01*
X136466502Y-81873054D01*
X136466500Y-81873056D01*
X136466499Y-81873056D01*
X136330661Y-82008894D01*
X136330661Y-82008895D01*
X136330659Y-82008897D01*
X136311934Y-82034670D01*
X136217739Y-82164317D01*
X136130520Y-82335492D01*
X136071157Y-82518196D01*
X136041104Y-82707944D01*
X136041104Y-82900053D01*
X136071157Y-83089801D01*
X136130520Y-83272505D01*
X136209195Y-83426911D01*
X136217739Y-83443680D01*
X136330659Y-83599101D01*
X136466502Y-83734944D01*
X136621923Y-83847864D01*
X136691458Y-83883294D01*
X136793097Y-83935082D01*
X136869610Y-83959942D01*
X136975803Y-83994446D01*
X137165549Y-84024499D01*
X137165550Y-84024499D01*
X137357658Y-84024499D01*
X137357659Y-84024499D01*
X137547405Y-83994446D01*
X137730113Y-83935081D01*
X137901285Y-83847864D01*
X138056706Y-83734944D01*
X138192549Y-83599101D01*
X138305469Y-83443680D01*
X138392686Y-83272508D01*
X138413935Y-83207107D01*
X138453371Y-83149434D01*
X138517729Y-83122235D01*
X138586575Y-83134148D01*
X138638052Y-83181391D01*
X138649797Y-83207106D01*
X138670987Y-83272321D01*
X138758164Y-83443414D01*
X138779401Y-83472645D01*
X139401603Y-82850444D01*
X139401603Y-82856660D01*
X139428862Y-82958393D01*
X139481523Y-83049605D01*
X139555997Y-83124079D01*
X139647209Y-83176740D01*
X139748942Y-83203999D01*
X139755157Y-83203999D01*
X139132954Y-83826199D01*
X139132955Y-83826200D01*
X139162180Y-83847433D01*
X139333281Y-83934615D01*
X139515918Y-83993958D01*
X139705588Y-84023999D01*
X139897618Y-84023999D01*
X140087287Y-83993958D01*
X140269924Y-83934615D01*
X140441022Y-83847435D01*
X140470249Y-83826200D01*
X140470249Y-83826199D01*
X139848050Y-83203999D01*
X139854264Y-83203999D01*
X139955997Y-83176740D01*
X140047209Y-83124079D01*
X140121683Y-83049605D01*
X140174344Y-82958393D01*
X140201603Y-82856660D01*
X140201603Y-82850445D01*
X140823803Y-83472645D01*
X140823804Y-83472645D01*
X140845039Y-83443418D01*
X140932220Y-83272317D01*
X140950705Y-83215426D01*
X140964018Y-83195954D01*
X140973411Y-83174319D01*
X140983372Y-83167648D01*
X140990141Y-83157750D01*
X141011870Y-83148566D01*
X141031467Y-83135445D01*
X141043454Y-83135219D01*
X141054500Y-83130551D01*
X141077742Y-83134573D01*
X141101325Y-83134129D01*
X141111532Y-83140420D01*
X141123346Y-83142465D01*
X141140721Y-83158411D01*
X141160804Y-83170790D01*
X141171318Y-83186492D01*
X141174823Y-83189709D01*
X141180441Y-83200117D01*
X141194511Y-83229453D01*
X141197202Y-83235062D01*
X141203329Y-83250372D01*
X141210521Y-83272509D01*
X141297737Y-83443678D01*
X141297740Y-83443683D01*
X141321053Y-83475773D01*
X141321875Y-83476904D01*
X141349618Y-83516932D01*
X141353495Y-83520423D01*
X141359066Y-83528090D01*
X141410658Y-83599101D01*
X141546501Y-83734944D01*
X141701922Y-83847864D01*
X141771457Y-83883294D01*
X141873096Y-83935082D01*
X141949609Y-83959942D01*
X142055802Y-83994446D01*
X142245548Y-84024499D01*
X142245549Y-84024499D01*
X142437657Y-84024499D01*
X142437658Y-84024499D01*
X142627404Y-83994446D01*
X142810112Y-83935081D01*
X142981284Y-83847864D01*
X143136705Y-83734944D01*
X143272548Y-83599101D01*
X143385468Y-83443680D01*
X143472685Y-83272508D01*
X143500633Y-83186492D01*
X143529569Y-83097436D01*
X143569006Y-83039761D01*
X143633364Y-83012562D01*
X143702211Y-83024476D01*
X143753687Y-83071720D01*
X143771500Y-83135754D01*
X143771500Y-84183996D01*
X143751815Y-84251035D01*
X143735181Y-84271677D01*
X141986863Y-86019994D01*
X141986862Y-86019995D01*
X141986859Y-86020000D01*
X141924065Y-86113981D01*
X141924058Y-86113991D01*
X141915406Y-86126939D01*
X141866191Y-86245755D01*
X141866189Y-86245761D01*
X141841100Y-86371892D01*
X141841100Y-86811000D01*
X141821415Y-86878039D01*
X141768611Y-86923794D01*
X141717100Y-86935000D01*
X140498301Y-86935000D01*
X140431517Y-86941068D01*
X140431506Y-86941071D01*
X140277800Y-86988967D01*
X140277796Y-86988969D01*
X140186449Y-87044190D01*
X140118894Y-87062026D01*
X140052421Y-87040508D01*
X140016761Y-87003170D01*
X139955312Y-86903544D01*
X139831256Y-86779488D01*
X139702683Y-86700184D01*
X139681936Y-86687387D01*
X139681931Y-86687385D01*
X139630435Y-86670321D01*
X139515397Y-86632201D01*
X139515395Y-86632200D01*
X139412610Y-86621700D01*
X138412598Y-86621700D01*
X138412580Y-86621701D01*
X138309803Y-86632200D01*
X138309800Y-86632201D01*
X138143268Y-86687385D01*
X138143263Y-86687387D01*
X137993942Y-86779489D01*
X137869889Y-86903542D01*
X137777787Y-87052863D01*
X137777785Y-87052868D01*
X137771358Y-87072264D01*
X137722601Y-87219403D01*
X137722601Y-87219404D01*
X137722600Y-87219404D01*
X137712100Y-87322183D01*
X137712100Y-87761610D01*
X137692415Y-87828649D01*
X137675781Y-87849291D01*
X136964859Y-88560212D01*
X136903536Y-88593697D01*
X136833844Y-88588713D01*
X136777911Y-88546841D01*
X136753494Y-88481377D01*
X136768346Y-88413104D01*
X136771640Y-88407434D01*
X136846153Y-88286630D01*
X136846158Y-88286619D01*
X136901305Y-88120197D01*
X136901306Y-88120190D01*
X136911799Y-88017486D01*
X136911800Y-88017473D01*
X136911800Y-87880000D01*
X134461801Y-87880000D01*
X134461801Y-88017486D01*
X134472294Y-88120197D01*
X134527441Y-88286619D01*
X134527443Y-88286624D01*
X134619484Y-88435845D01*
X134743455Y-88559816D01*
X134743459Y-88559819D01*
X134746456Y-88561668D01*
X134748079Y-88563472D01*
X134749123Y-88564298D01*
X134748981Y-88564476D01*
X134793181Y-88613616D01*
X134804402Y-88682579D01*
X134776559Y-88746661D01*
X134746461Y-88772741D01*
X134743149Y-88774783D01*
X134743143Y-88774788D01*
X134619089Y-88898842D01*
X134526987Y-89048163D01*
X134526986Y-89048166D01*
X134471801Y-89214703D01*
X134471801Y-89214704D01*
X134471800Y-89214704D01*
X134461300Y-89317483D01*
X134461300Y-89877716D01*
X134441615Y-89944755D01*
X134388811Y-89990510D01*
X134319653Y-90000454D01*
X134256097Y-89971429D01*
X134249619Y-89965397D01*
X131611268Y-87327045D01*
X131526736Y-87242513D01*
X134461800Y-87242513D01*
X134461800Y-87380000D01*
X135436800Y-87380000D01*
X135936800Y-87380000D01*
X136911799Y-87380000D01*
X136911799Y-87242528D01*
X136911798Y-87242513D01*
X136901305Y-87139802D01*
X136846158Y-86973380D01*
X136846156Y-86973375D01*
X136754115Y-86824154D01*
X136630145Y-86700184D01*
X136480924Y-86608143D01*
X136480919Y-86608141D01*
X136314497Y-86552994D01*
X136314490Y-86552993D01*
X136211786Y-86542500D01*
X135936800Y-86542500D01*
X135936800Y-87380000D01*
X135436800Y-87380000D01*
X135436800Y-86542500D01*
X135161829Y-86542500D01*
X135161812Y-86542501D01*
X135059102Y-86552994D01*
X134892680Y-86608141D01*
X134892675Y-86608143D01*
X134743454Y-86700184D01*
X134619484Y-86824154D01*
X134527443Y-86973375D01*
X134527441Y-86973380D01*
X134472294Y-87139802D01*
X134472293Y-87139809D01*
X134461800Y-87242513D01*
X131526736Y-87242513D01*
X131275892Y-86991669D01*
X131275885Y-86991663D01*
X131162712Y-86916044D01*
X131162709Y-86916042D01*
X131036961Y-86863956D01*
X131036949Y-86863953D01*
X130939091Y-86844488D01*
X130939090Y-86844487D01*
X130921274Y-86840944D01*
X130903459Y-86837400D01*
X130903458Y-86837400D01*
X129268742Y-86837400D01*
X129268741Y-86837400D01*
X129250925Y-86840944D01*
X129233109Y-86844488D01*
X129233108Y-86844488D01*
X129135250Y-86863953D01*
X129135238Y-86863956D01*
X129009495Y-86916040D01*
X129009482Y-86916047D01*
X128896314Y-86991664D01*
X128896310Y-86991667D01*
X128857681Y-87030297D01*
X128796358Y-87063782D01*
X128726666Y-87058798D01*
X128670733Y-87016926D01*
X128646316Y-86951462D01*
X128646000Y-86942616D01*
X128646000Y-77979428D01*
X128665685Y-77912389D01*
X128682319Y-77891747D01*
X130827850Y-75746216D01*
X130889173Y-75712731D01*
X130915531Y-75709897D01*
X131914950Y-75709897D01*
X131981989Y-75729582D01*
G37*
%TD.AperFunction*%
%TA.AperFunction,Conductor*%
G36*
X171399998Y-84821942D02*
G01*
X171413433Y-84822903D01*
X171431160Y-84836173D01*
X171451302Y-84845372D01*
X171458583Y-84856701D01*
X171469367Y-84864774D01*
X171477105Y-84885522D01*
X171489077Y-84904150D01*
X171492228Y-84926068D01*
X171493784Y-84930239D01*
X171494100Y-84939084D01*
X171494100Y-85178600D01*
X171494101Y-85178619D01*
X171504600Y-85281396D01*
X171504601Y-85281399D01*
X171559785Y-85447931D01*
X171559787Y-85447936D01*
X171594669Y-85504488D01*
X171651888Y-85597256D01*
X171775944Y-85721312D01*
X171925266Y-85813414D01*
X172091803Y-85868599D01*
X172194591Y-85879100D01*
X172333087Y-85879099D01*
X172382665Y-85889441D01*
X172587537Y-85978805D01*
X173295789Y-86287741D01*
X173333892Y-86313717D01*
X174218026Y-87197851D01*
X174251511Y-87259174D01*
X174246527Y-87328866D01*
X174204655Y-87384799D01*
X174139191Y-87409216D01*
X174072406Y-87395164D01*
X173754528Y-87227169D01*
X173724786Y-87205218D01*
X173691057Y-87171489D01*
X173691056Y-87171488D01*
X173541734Y-87079386D01*
X173375197Y-87024201D01*
X173375195Y-87024200D01*
X173272410Y-87013700D01*
X172472398Y-87013700D01*
X172472380Y-87013701D01*
X172369603Y-87024200D01*
X172369600Y-87024201D01*
X172203068Y-87079385D01*
X172203063Y-87079387D01*
X172053742Y-87171489D01*
X171960081Y-87265151D01*
X171898758Y-87298636D01*
X171829066Y-87293652D01*
X171784719Y-87265151D01*
X171691057Y-87171489D01*
X171691056Y-87171488D01*
X171541734Y-87079386D01*
X171375197Y-87024201D01*
X171375195Y-87024200D01*
X171272410Y-87013700D01*
X170472398Y-87013700D01*
X170472380Y-87013701D01*
X170369603Y-87024200D01*
X170369600Y-87024201D01*
X170203068Y-87079385D01*
X170203063Y-87079387D01*
X170053742Y-87171489D01*
X169929689Y-87295542D01*
X169837587Y-87444863D01*
X169837585Y-87444868D01*
X169816051Y-87509854D01*
X169782401Y-87611403D01*
X169782401Y-87611404D01*
X169782400Y-87611404D01*
X169771900Y-87714183D01*
X169771900Y-88714201D01*
X169771901Y-88714219D01*
X169782400Y-88816996D01*
X169782401Y-88816999D01*
X169837585Y-88983531D01*
X169837587Y-88983536D01*
X169859395Y-89018893D01*
X169923833Y-89123364D01*
X169929689Y-89132857D01*
X169982151Y-89185319D01*
X169983686Y-89188130D01*
X169986420Y-89189806D01*
X170000320Y-89218593D01*
X170015636Y-89246642D01*
X170015407Y-89249838D01*
X170016801Y-89252725D01*
X170012932Y-89284448D01*
X170010652Y-89316334D01*
X170008614Y-89319853D01*
X170008343Y-89322081D01*
X170001409Y-89332299D01*
X169989903Y-89352175D01*
X169986231Y-89356600D01*
X169939088Y-89403744D01*
X169915813Y-89441478D01*
X169910266Y-89448165D01*
X169888197Y-89463025D01*
X169868422Y-89480812D01*
X169859669Y-89482236D01*
X169852311Y-89487191D01*
X169825711Y-89487761D01*
X169799459Y-89492033D01*
X169791325Y-89488498D01*
X169782457Y-89488689D01*
X169759772Y-89474788D01*
X169735378Y-89464189D01*
X169727344Y-89454917D01*
X169722883Y-89452184D01*
X169720249Y-89446730D01*
X169709294Y-89434087D01*
X169674912Y-89378344D01*
X169550856Y-89254288D01*
X169550855Y-89254287D01*
X169482102Y-89211879D01*
X169435378Y-89159930D01*
X169423200Y-89106341D01*
X169423200Y-86977740D01*
X169403282Y-86877612D01*
X169400899Y-86853419D01*
X169400899Y-86113991D01*
X169400898Y-86113981D01*
X169390399Y-86011203D01*
X169386503Y-85999447D01*
X169338671Y-85855101D01*
X169336270Y-85785276D01*
X169372001Y-85725234D01*
X169434522Y-85694041D01*
X169456378Y-85692100D01*
X170048754Y-85692100D01*
X170048774Y-85692101D01*
X170054888Y-85692101D01*
X170203514Y-85692101D01*
X170239066Y-85685028D01*
X170325094Y-85667915D01*
X170349280Y-85663105D01*
X170421718Y-85633100D01*
X170486589Y-85606230D01*
X170610166Y-85523659D01*
X171282421Y-84851402D01*
X171301852Y-84840792D01*
X171318588Y-84826291D01*
X171331920Y-84824373D01*
X171343742Y-84817919D01*
X171365828Y-84819498D01*
X171387747Y-84816347D01*
X171399998Y-84821942D01*
G37*
%TD.AperFunction*%
%TA.AperFunction,Conductor*%
G36*
X167312610Y-87532322D02*
G01*
X167343734Y-87534548D01*
X167347625Y-87537048D01*
X167350937Y-87537496D01*
X167358987Y-87544351D01*
X167388081Y-87563049D01*
X167481744Y-87656712D01*
X167631066Y-87748814D01*
X167797603Y-87803999D01*
X167900391Y-87814500D01*
X167917196Y-87814499D01*
X167984234Y-87834180D01*
X168029992Y-87886982D01*
X168041200Y-87938499D01*
X168041200Y-89106341D01*
X168040836Y-89107578D01*
X168041175Y-89108823D01*
X168031016Y-89141020D01*
X168021515Y-89173380D01*
X168020415Y-89174623D01*
X168020153Y-89175455D01*
X168016987Y-89178500D01*
X167996511Y-89201661D01*
X167989763Y-89207275D01*
X167913544Y-89254288D01*
X167815863Y-89351968D01*
X167811511Y-89355590D01*
X167784435Y-89367305D01*
X167758558Y-89381436D01*
X167752741Y-89381020D01*
X167747387Y-89383337D01*
X167718280Y-89378555D01*
X167688866Y-89376452D01*
X167683162Y-89372786D01*
X167678441Y-89372011D01*
X167669736Y-89364157D01*
X167644519Y-89347951D01*
X167550857Y-89254289D01*
X167550856Y-89254288D01*
X167430255Y-89179901D01*
X167401536Y-89162187D01*
X167401531Y-89162185D01*
X167243900Y-89109951D01*
X167186455Y-89070178D01*
X167159632Y-89005662D01*
X167168342Y-88944794D01*
X167234351Y-88785435D01*
X167248519Y-88714208D01*
X167272800Y-88592143D01*
X167272800Y-88395056D01*
X167234352Y-88201770D01*
X167234351Y-88201769D01*
X167234351Y-88201765D01*
X167200562Y-88120190D01*
X167158935Y-88019692D01*
X167158928Y-88019679D01*
X167046989Y-87852150D01*
X167026111Y-87785472D01*
X167044596Y-87718092D01*
X167068084Y-87690249D01*
X167076001Y-87683268D01*
X167119056Y-87656712D01*
X167215476Y-87560291D01*
X167218393Y-87557720D01*
X167246662Y-87544514D01*
X167274042Y-87529564D01*
X167278052Y-87529850D01*
X167281696Y-87528149D01*
X167312610Y-87532322D01*
G37*
%TD.AperFunction*%
%TA.AperFunction,Conductor*%
G36*
X150239519Y-84273224D02*
G01*
X150269379Y-84275360D01*
X150269380Y-84275360D01*
X150269381Y-84275361D01*
X150287872Y-84289204D01*
X150325312Y-84317232D01*
X150329147Y-84322651D01*
X150422846Y-84462880D01*
X150422849Y-84462884D01*
X150670715Y-84710751D01*
X150670723Y-84710757D01*
X150835886Y-84821115D01*
X150835890Y-84821117D01*
X150835897Y-84821122D01*
X150912646Y-84852912D01*
X151019431Y-84897144D01*
X151185811Y-84930239D01*
X151214266Y-84935899D01*
X151214270Y-84935900D01*
X151214271Y-84935900D01*
X151214272Y-84935900D01*
X151412929Y-84935900D01*
X152638770Y-84935900D01*
X152705809Y-84955585D01*
X152726451Y-84972219D01*
X152816544Y-85062312D01*
X152965866Y-85154414D01*
X153132403Y-85209599D01*
X153235191Y-85220100D01*
X154035208Y-85220099D01*
X154035216Y-85220098D01*
X154035219Y-85220098D01*
X154091502Y-85214348D01*
X154137997Y-85209599D01*
X154304534Y-85154414D01*
X154453856Y-85062312D01*
X154547519Y-84968649D01*
X154608842Y-84935164D01*
X154678534Y-84940148D01*
X154722881Y-84968649D01*
X154816544Y-85062312D01*
X154922567Y-85127707D01*
X154969291Y-85179653D01*
X154980514Y-85248616D01*
X154952671Y-85312698D01*
X154945152Y-85320926D01*
X154874060Y-85392018D01*
X154764571Y-85555879D01*
X154764564Y-85555892D01*
X154689150Y-85737960D01*
X154689147Y-85737970D01*
X154650700Y-85931256D01*
X154650700Y-85931259D01*
X154650700Y-86128341D01*
X154650700Y-86128343D01*
X154650699Y-86128343D01*
X154689147Y-86321629D01*
X154689150Y-86321639D01*
X154764564Y-86503707D01*
X154764571Y-86503720D01*
X154874060Y-86667581D01*
X154874063Y-86667585D01*
X154946497Y-86740019D01*
X154979982Y-86801342D01*
X154974998Y-86871034D01*
X154933126Y-86926967D01*
X154867662Y-86951384D01*
X154858816Y-86951700D01*
X151591446Y-86951700D01*
X151591426Y-86951699D01*
X151585312Y-86951699D01*
X151436688Y-86951699D01*
X151436686Y-86951699D01*
X151322212Y-86974470D01*
X151322209Y-86974470D01*
X151315105Y-86975884D01*
X151290920Y-86980695D01*
X151252293Y-86996695D01*
X151247745Y-86998578D01*
X151247729Y-86998584D01*
X151153617Y-87037566D01*
X151153602Y-87037574D01*
X151129666Y-87053569D01*
X151129665Y-87053570D01*
X151030033Y-87120141D01*
X150996678Y-87153497D01*
X150924941Y-87225234D01*
X149280494Y-88869681D01*
X149219171Y-88903166D01*
X149192813Y-88906000D01*
X145835587Y-88906000D01*
X145768548Y-88886315D01*
X145722793Y-88833511D01*
X145712849Y-88764353D01*
X145741874Y-88700797D01*
X145747906Y-88694319D01*
X146453206Y-87989019D01*
X150065364Y-84376859D01*
X150065367Y-84376858D01*
X150138367Y-84303857D01*
X150199689Y-84270375D01*
X150239519Y-84273224D01*
G37*
%TD.AperFunction*%
%TA.AperFunction,Conductor*%
G36*
X144832476Y-76550885D02*
G01*
X144834327Y-76552097D01*
X144847832Y-76561121D01*
X144847833Y-76561121D01*
X144847834Y-76561122D01*
X144893135Y-76591391D01*
X145011955Y-76640608D01*
X145011959Y-76640608D01*
X145011960Y-76640609D01*
X145138091Y-76665699D01*
X145138094Y-76665699D01*
X145509787Y-76665699D01*
X145576826Y-76685384D01*
X145601349Y-76706078D01*
X145607487Y-76712799D01*
X145839905Y-76712799D01*
X145904054Y-76730681D01*
X145992799Y-76784330D01*
X146146514Y-76832229D01*
X146213310Y-76838299D01*
X146760403Y-76838298D01*
X146827440Y-76857982D01*
X146873195Y-76910786D01*
X146884401Y-76962298D01*
X146884401Y-76962799D01*
X147010401Y-76962799D01*
X147077440Y-76982484D01*
X147123195Y-77035288D01*
X147134401Y-77086799D01*
X147134401Y-77787799D01*
X147555444Y-77787799D01*
X147622193Y-77781733D01*
X147775797Y-77733869D01*
X147913481Y-77650635D01*
X148027237Y-77536879D01*
X148110471Y-77399195D01*
X148115751Y-77382250D01*
X148154487Y-77324101D01*
X148218511Y-77296125D01*
X148287497Y-77307204D01*
X148339541Y-77353820D01*
X148352522Y-77382242D01*
X148357868Y-77399397D01*
X148357869Y-77399399D01*
X148357870Y-77399401D01*
X148440496Y-77536080D01*
X148441167Y-77537190D01*
X148555009Y-77651032D01*
X148555011Y-77651033D01*
X148555013Y-77651035D01*
X148692799Y-77734330D01*
X148742791Y-77749908D01*
X148800938Y-77788644D01*
X148828913Y-77852669D01*
X148829901Y-77868293D01*
X148829901Y-83426911D01*
X148810216Y-83493950D01*
X148793582Y-83514592D01*
X145154676Y-87153497D01*
X145093353Y-87186982D01*
X145023661Y-87181998D01*
X144979314Y-87153497D01*
X144898480Y-87072663D01*
X144760796Y-86989429D01*
X144607192Y-86941565D01*
X144540443Y-86935500D01*
X144119400Y-86935500D01*
X144119400Y-87636500D01*
X144099715Y-87703539D01*
X144046911Y-87749294D01*
X143995400Y-87760500D01*
X143743400Y-87760500D01*
X143676361Y-87740815D01*
X143630606Y-87688011D01*
X143619400Y-87636500D01*
X143619400Y-86935500D01*
X143270900Y-86935500D01*
X143262214Y-86932949D01*
X143253253Y-86934238D01*
X143229212Y-86923259D01*
X143203861Y-86915815D01*
X143197933Y-86908974D01*
X143189697Y-86905213D01*
X143175407Y-86882978D01*
X143158106Y-86863011D01*
X143155818Y-86852496D01*
X143151923Y-86846435D01*
X143146900Y-86811500D01*
X143146900Y-86758002D01*
X143166585Y-86690963D01*
X143183219Y-86670321D01*
X144931539Y-84922001D01*
X144931541Y-84921999D01*
X145002992Y-84815064D01*
X145052209Y-84696244D01*
X145061956Y-84647237D01*
X145066898Y-84622398D01*
X145066898Y-84622396D01*
X145077300Y-84570106D01*
X145077300Y-82333292D01*
X145052210Y-82207161D01*
X145052209Y-82207160D01*
X145052209Y-82207156D01*
X145002992Y-82088336D01*
X145000281Y-82084279D01*
X145000280Y-82084277D01*
X145000280Y-82084276D01*
X145000278Y-82084274D01*
X144935417Y-81987202D01*
X144931541Y-81981401D01*
X144931537Y-81981396D01*
X143006947Y-80056806D01*
X142973462Y-79995483D01*
X142978446Y-79925791D01*
X143020318Y-79869858D01*
X143070437Y-79847508D01*
X143084436Y-79844723D01*
X143108497Y-79839937D01*
X143237342Y-79786568D01*
X143254172Y-79779597D01*
X143254172Y-79779596D01*
X143254179Y-79779594D01*
X143385289Y-79691989D01*
X143496789Y-79580489D01*
X143584394Y-79449379D01*
X143644737Y-79303697D01*
X143675500Y-79149042D01*
X143675500Y-78991358D01*
X143675500Y-78991355D01*
X143675499Y-78991353D01*
X143670604Y-78966743D01*
X143644737Y-78836703D01*
X143584394Y-78691021D01*
X143584387Y-78691010D01*
X143549504Y-78638803D01*
X143543853Y-78620758D01*
X143533629Y-78604848D01*
X143529177Y-78573886D01*
X143528626Y-78572126D01*
X143528606Y-78569913D01*
X143528606Y-78342041D01*
X143548291Y-78275002D01*
X143601095Y-78229247D01*
X143670253Y-78219303D01*
X143687201Y-78222965D01*
X143791611Y-78253299D01*
X143791617Y-78253300D01*
X143794104Y-78253495D01*
X143794106Y-78253495D01*
X144294106Y-78253495D01*
X144294107Y-78253495D01*
X144296592Y-78253300D01*
X144454304Y-78207481D01*
X144595658Y-78123885D01*
X144595667Y-78123878D01*
X144711784Y-78007761D01*
X144711791Y-78007752D01*
X144795388Y-77866396D01*
X144795389Y-77866393D01*
X144841205Y-77708695D01*
X144841206Y-77708689D01*
X144844105Y-77671849D01*
X144844106Y-77671834D01*
X144844106Y-77212799D01*
X145607486Y-77212799D01*
X145610465Y-77245591D01*
X145610468Y-77245601D01*
X145658328Y-77399191D01*
X145741564Y-77536879D01*
X145855320Y-77650635D01*
X145993004Y-77733869D01*
X146146608Y-77781733D01*
X146213358Y-77787799D01*
X146634401Y-77787799D01*
X146634401Y-77212799D01*
X145607486Y-77212799D01*
X144844106Y-77212799D01*
X144844106Y-77031200D01*
X144294106Y-77031200D01*
X144294106Y-78253495D01*
X143794106Y-78253495D01*
X143794106Y-76905200D01*
X143813791Y-76838161D01*
X143866595Y-76792406D01*
X143918106Y-76781200D01*
X144044106Y-76781200D01*
X144044106Y-76655200D01*
X144063791Y-76588161D01*
X144116595Y-76542406D01*
X144168106Y-76531200D01*
X144765437Y-76531200D01*
X144832476Y-76550885D01*
G37*
%TD.AperFunction*%
%TA.AperFunction,Conductor*%
G36*
X151180036Y-71843385D02*
G01*
X151200678Y-71860019D01*
X157247981Y-77907321D01*
X157281466Y-77968644D01*
X157284300Y-77995002D01*
X157284300Y-81637591D01*
X157264615Y-81704630D01*
X157247981Y-81725272D01*
X157127523Y-81845729D01*
X157127516Y-81845738D01*
X157043983Y-81986986D01*
X157026167Y-82003620D01*
X157011561Y-82023132D01*
X157001087Y-82027038D01*
X156992914Y-82034670D01*
X156968930Y-82039032D01*
X156946096Y-82047549D01*
X156935171Y-82045172D01*
X156924172Y-82047173D01*
X156901640Y-82037878D01*
X156877824Y-82032697D01*
X156864004Y-82022351D01*
X156859583Y-82020528D01*
X156849583Y-82011559D01*
X156746615Y-81908591D01*
X156713133Y-81847270D01*
X156710299Y-81820912D01*
X156710299Y-81338798D01*
X156710298Y-81338781D01*
X156699799Y-81236003D01*
X156699798Y-81236000D01*
X156644614Y-81069466D01*
X156552512Y-80920144D01*
X156428456Y-80796088D01*
X156279134Y-80703986D01*
X156112597Y-80648801D01*
X156112595Y-80648800D01*
X156009810Y-80638300D01*
X155209798Y-80638300D01*
X155209780Y-80638301D01*
X155107003Y-80648800D01*
X155107000Y-80648801D01*
X154940468Y-80703985D01*
X154940463Y-80703987D01*
X154791145Y-80796087D01*
X154697127Y-80890105D01*
X154635803Y-80923589D01*
X154566112Y-80918605D01*
X154521765Y-80890104D01*
X154428145Y-80796484D01*
X154278924Y-80704443D01*
X154278919Y-80704441D01*
X154112497Y-80649294D01*
X154112490Y-80649293D01*
X154009786Y-80638800D01*
X153859800Y-80638800D01*
X153859800Y-81714800D01*
X153840115Y-81781839D01*
X153787311Y-81827594D01*
X153735800Y-81838800D01*
X153609800Y-81838800D01*
X153609800Y-81964800D01*
X153590115Y-82031839D01*
X153537311Y-82077594D01*
X153485800Y-82088800D01*
X152509801Y-82088800D01*
X152509801Y-82338786D01*
X152520294Y-82441497D01*
X152575441Y-82607919D01*
X152575443Y-82607924D01*
X152650619Y-82729803D01*
X152669059Y-82797196D01*
X152648136Y-82863859D01*
X152594494Y-82908629D01*
X152545080Y-82918900D01*
X151690755Y-82918900D01*
X151643302Y-82909461D01*
X151641293Y-82908629D01*
X151500369Y-82850256D01*
X151500361Y-82850254D01*
X151305533Y-82811500D01*
X151305529Y-82811500D01*
X151106871Y-82811500D01*
X151106866Y-82811500D01*
X150912038Y-82850254D01*
X150912030Y-82850256D01*
X150728498Y-82926277D01*
X150728489Y-82926282D01*
X150563319Y-83036646D01*
X150563315Y-83036649D01*
X150550582Y-83049383D01*
X150489259Y-83082868D01*
X150419567Y-83077884D01*
X150363634Y-83036012D01*
X150339217Y-82970548D01*
X150338901Y-82961702D01*
X150338901Y-81338813D01*
X152509800Y-81338813D01*
X152509800Y-81588800D01*
X153359800Y-81588800D01*
X153359800Y-80638800D01*
X153209827Y-80638800D01*
X153209812Y-80638801D01*
X153107102Y-80649294D01*
X152940680Y-80704441D01*
X152940675Y-80704443D01*
X152791454Y-80796484D01*
X152667484Y-80920454D01*
X152575443Y-81069675D01*
X152575441Y-81069680D01*
X152520294Y-81236102D01*
X152520293Y-81236109D01*
X152509800Y-81338813D01*
X150338901Y-81338813D01*
X150338901Y-77868293D01*
X150358586Y-77801254D01*
X150411390Y-77755499D01*
X150426004Y-77749910D01*
X150476003Y-77734330D01*
X150613789Y-77651035D01*
X150727637Y-77537187D01*
X150810932Y-77399401D01*
X150858831Y-77245686D01*
X150864901Y-77178890D01*
X150864900Y-76746709D01*
X150864900Y-76746708D01*
X150864900Y-76746700D01*
X150858832Y-76679916D01*
X150858829Y-76679905D01*
X150810933Y-76526200D01*
X150810932Y-76526199D01*
X150810932Y-76526197D01*
X150727637Y-76388411D01*
X150727635Y-76388409D01*
X150727634Y-76388407D01*
X150613792Y-76274565D01*
X150576015Y-76251728D01*
X150476003Y-76191268D01*
X150322288Y-76143369D01*
X150322286Y-76143368D01*
X150322284Y-76143368D01*
X150275518Y-76139118D01*
X150255492Y-76137299D01*
X150255489Y-76137299D01*
X150200322Y-76137299D01*
X150167813Y-76127753D01*
X150135126Y-76118776D01*
X150134369Y-76117932D01*
X150133283Y-76117614D01*
X150111116Y-76092032D01*
X150088450Y-76066785D01*
X150088268Y-76065664D01*
X150087528Y-76064810D01*
X150082706Y-76031280D01*
X150077293Y-75997811D01*
X150077745Y-75996772D01*
X150077584Y-75995652D01*
X150091669Y-75964808D01*
X150105197Y-75933756D01*
X150106305Y-75932761D01*
X150106609Y-75932096D01*
X150131460Y-75910178D01*
X150132959Y-75909177D01*
X150199642Y-75888317D01*
X150201821Y-75888298D01*
X150255498Y-75888298D01*
X150322283Y-75882230D01*
X150322286Y-75882229D01*
X150322288Y-75882229D01*
X150476003Y-75834330D01*
X150613789Y-75751035D01*
X150727637Y-75637187D01*
X150810932Y-75499401D01*
X150858831Y-75345686D01*
X150864901Y-75278890D01*
X150864900Y-74846709D01*
X150864900Y-74846708D01*
X150864900Y-74846700D01*
X150858832Y-74779916D01*
X150858829Y-74779905D01*
X150810933Y-74626200D01*
X150810932Y-74626199D01*
X150810932Y-74626197D01*
X150727637Y-74488411D01*
X150727635Y-74488409D01*
X150727634Y-74488407D01*
X150629220Y-74389993D01*
X150595735Y-74328670D01*
X150592901Y-74302312D01*
X150592901Y-73600923D01*
X150612586Y-73533884D01*
X150613799Y-73532032D01*
X150673621Y-73442503D01*
X150749644Y-73258968D01*
X150788399Y-73064128D01*
X150788399Y-72865471D01*
X150749644Y-72670631D01*
X150673621Y-72487096D01*
X150673620Y-72487095D01*
X150673617Y-72487089D01*
X150563253Y-72321918D01*
X150563250Y-72321914D01*
X150422784Y-72181448D01*
X150422780Y-72181445D01*
X150257609Y-72071081D01*
X150257596Y-72071074D01*
X150236318Y-72062261D01*
X150181914Y-72018420D01*
X150159849Y-71952126D01*
X150177128Y-71884427D01*
X150228265Y-71836816D01*
X150283770Y-71823700D01*
X151112997Y-71823700D01*
X151180036Y-71843385D01*
G37*
%TD.AperFunction*%
%TA.AperFunction,Conductor*%
G36*
X140798070Y-73251339D02*
G01*
X140841834Y-73305804D01*
X140851206Y-73353095D01*
X140851206Y-73496411D01*
X140866223Y-73571905D01*
X140866363Y-73572610D01*
X140866377Y-73572684D01*
X140876295Y-73622542D01*
X140876297Y-73622550D01*
X140900975Y-73682129D01*
X140925514Y-73741370D01*
X140982540Y-73826717D01*
X140996968Y-73848310D01*
X140996969Y-73848311D01*
X141569678Y-74421019D01*
X141603163Y-74482342D01*
X141598179Y-74552033D01*
X141556308Y-74607967D01*
X141490843Y-74632384D01*
X141481997Y-74632700D01*
X140690400Y-74632700D01*
X140564264Y-74657790D01*
X140564260Y-74657791D01*
X140515047Y-74678175D01*
X140515047Y-74678176D01*
X140496867Y-74685706D01*
X140445446Y-74707005D01*
X140445437Y-74707010D01*
X140338508Y-74778458D01*
X140338504Y-74778461D01*
X139726968Y-75389997D01*
X139726964Y-75390002D01*
X139718707Y-75402359D01*
X139687381Y-75432009D01*
X139688409Y-75433334D01*
X139682245Y-75438115D01*
X139566026Y-75554333D01*
X139566022Y-75554338D01*
X139503206Y-75660556D01*
X139452137Y-75708240D01*
X139383395Y-75720743D01*
X139318806Y-75694098D01*
X139278876Y-75636762D01*
X139273116Y-75584832D01*
X139275610Y-75560417D01*
X139275611Y-75560410D01*
X139275610Y-74760393D01*
X139265110Y-74657604D01*
X139209925Y-74491067D01*
X139117823Y-74341745D01*
X138993767Y-74217689D01*
X138993766Y-74217688D01*
X138992925Y-74216847D01*
X138978218Y-74189913D01*
X138961630Y-74164101D01*
X138960738Y-74157900D01*
X138959441Y-74155524D01*
X138956607Y-74129166D01*
X138956607Y-74127632D01*
X138976292Y-74060593D01*
X138992926Y-74039951D01*
X139055284Y-73977593D01*
X139117819Y-73915058D01*
X139121059Y-73909805D01*
X139173006Y-73863081D01*
X139206381Y-73852562D01*
X139216421Y-73850903D01*
X139241619Y-73850903D01*
X139363201Y-73826717D01*
X139387387Y-73821907D01*
X139423249Y-73807051D01*
X139444251Y-73798353D01*
X139444254Y-73798351D01*
X139444262Y-73798348D01*
X139524696Y-73765032D01*
X139648273Y-73682461D01*
X139987715Y-73343019D01*
X140049038Y-73309534D01*
X140075396Y-73306700D01*
X140449792Y-73306700D01*
X140449800Y-73306700D01*
X140486675Y-73303798D01*
X140486677Y-73303797D01*
X140486679Y-73303797D01*
X140528297Y-73291705D01*
X140644504Y-73257944D01*
X140664086Y-73246363D01*
X140731807Y-73229180D01*
X140798070Y-73251339D01*
G37*
%TD.AperFunction*%
%TA.AperFunction,Conductor*%
G36*
X149286840Y-71826874D02*
G01*
X149298046Y-71825670D01*
X149319767Y-71836543D01*
X149343068Y-71843385D01*
X149350446Y-71851899D01*
X149360525Y-71856945D01*
X149372919Y-71877835D01*
X149388823Y-71896189D01*
X149390426Y-71907343D01*
X149396177Y-71917035D01*
X149395310Y-71941305D01*
X149398767Y-71965347D01*
X149394085Y-71975598D01*
X149393683Y-71986860D01*
X149379831Y-72006809D01*
X149369742Y-72028903D01*
X149359228Y-72036484D01*
X149353835Y-72044252D01*
X149323481Y-72062261D01*
X149302202Y-72071074D01*
X149302189Y-72071081D01*
X149137019Y-72181445D01*
X149137015Y-72181448D01*
X148975846Y-72342619D01*
X148941520Y-72376945D01*
X148894106Y-72424359D01*
X148801046Y-72517418D01*
X148690683Y-72682587D01*
X148690678Y-72682596D01*
X148614657Y-72866128D01*
X148614655Y-72866136D01*
X148575901Y-73060964D01*
X148575901Y-74302312D01*
X148556216Y-74369351D01*
X148539582Y-74389993D01*
X148441168Y-74488406D01*
X148441167Y-74488407D01*
X148439559Y-74491067D01*
X148368891Y-74607967D01*
X148357869Y-74626199D01*
X148352786Y-74642511D01*
X148314048Y-74700659D01*
X148250022Y-74728632D01*
X148181037Y-74717550D01*
X148128995Y-74670931D01*
X148116016Y-74642511D01*
X148112860Y-74632384D01*
X148110932Y-74626197D01*
X148027637Y-74488411D01*
X148027635Y-74488409D01*
X148027634Y-74488407D01*
X147913792Y-74374565D01*
X147911509Y-74373185D01*
X147776003Y-74291268D01*
X147622288Y-74243369D01*
X147622286Y-74243368D01*
X147622284Y-74243368D01*
X147574507Y-74239027D01*
X147555492Y-74237299D01*
X147555489Y-74237299D01*
X146213302Y-74237299D01*
X146146518Y-74243367D01*
X146146507Y-74243370D01*
X145992802Y-74291266D01*
X145855009Y-74374565D01*
X145849104Y-74379192D01*
X145848089Y-74377896D01*
X145829067Y-74388283D01*
X145803249Y-74404876D01*
X145797048Y-74405767D01*
X145794672Y-74407065D01*
X145768314Y-74409899D01*
X145666401Y-74409899D01*
X145599362Y-74390214D01*
X145578720Y-74373580D01*
X145442439Y-74237299D01*
X145333820Y-74128679D01*
X145300336Y-74067358D01*
X145305320Y-73997666D01*
X145333819Y-73953321D01*
X146176141Y-73110999D01*
X146247592Y-73004064D01*
X146296809Y-72885244D01*
X146297894Y-72879791D01*
X146300743Y-72865471D01*
X146321899Y-72759109D01*
X146321900Y-72759107D01*
X146321900Y-72203802D01*
X146341585Y-72136763D01*
X146358219Y-72116121D01*
X146614321Y-71860019D01*
X146675644Y-71826534D01*
X146702002Y-71823700D01*
X149276029Y-71823700D01*
X149286840Y-71826874D01*
G37*
%TD.AperFunction*%
%TD*%
%TA.AperFunction,Conductor*%
%TO.N,Net-(U6A-+)*%
G36*
X141520229Y-81619526D02*
G01*
X141916368Y-81809526D01*
X142729468Y-82199515D01*
X142735445Y-82206182D01*
X142734957Y-82215124D01*
X142734145Y-82216551D01*
X142343609Y-82802755D01*
X142340359Y-82806005D01*
X141754155Y-83196541D01*
X141745370Y-83198276D01*
X141737931Y-83193291D01*
X141737119Y-83191864D01*
X141157130Y-81982625D01*
X141156642Y-81973683D01*
X141159404Y-81969294D01*
X141506897Y-81621801D01*
X141515169Y-81618375D01*
X141520229Y-81619526D01*
G37*
%TD.AperFunction*%
%TD*%
%TA.AperFunction,Conductor*%
%TO.N,+5V*%
G36*
X140485814Y-70559627D02*
G01*
X140489180Y-70566710D01*
X140533833Y-71003533D01*
X140533191Y-71008717D01*
X140245103Y-71801921D01*
X140239058Y-71808527D01*
X140230112Y-71808924D01*
X140223506Y-71802879D01*
X140223109Y-71801921D01*
X139935020Y-71008717D01*
X139934378Y-71003535D01*
X139979032Y-70566710D01*
X139983282Y-70558828D01*
X139990671Y-70556200D01*
X140477541Y-70556200D01*
X140485814Y-70559627D01*
G37*
%TD.AperFunction*%
%TD*%
%TA.AperFunction,Conductor*%
%TO.N,+5V*%
G36*
X139942769Y-71737356D02*
G01*
X140223817Y-71826986D01*
X140230658Y-71832765D01*
X140231456Y-71841535D01*
X139967669Y-72709446D01*
X139961985Y-72716365D01*
X139957235Y-72717719D01*
X139906867Y-72720996D01*
X139898388Y-72718114D01*
X139897834Y-72717594D01*
X139548946Y-72368706D01*
X139545519Y-72360433D01*
X139547292Y-72354241D01*
X139929291Y-71742307D01*
X139936578Y-71737105D01*
X139942769Y-71737356D01*
G37*
%TD.AperFunction*%
%TD*%
%TA.AperFunction,Conductor*%
%TO.N,+5V*%
G36*
X130631164Y-95334417D02*
G01*
X131156530Y-95859783D01*
X131159957Y-95868056D01*
X131157641Y-95875044D01*
X130485169Y-96777986D01*
X130477479Y-96782575D01*
X130471067Y-96781704D01*
X129884632Y-96523236D01*
X129878445Y-96516765D01*
X129877824Y-96514530D01*
X129759076Y-95828106D01*
X129761043Y-95819373D01*
X129764829Y-95815941D01*
X130617119Y-95332512D01*
X130626005Y-95331412D01*
X130631164Y-95334417D01*
G37*
%TD.AperFunction*%
%TD*%
%TA.AperFunction,Conductor*%
%TO.N,+5V*%
G36*
X130479703Y-96279041D02*
G01*
X130484891Y-96283339D01*
X131125942Y-97246957D01*
X131127672Y-97255743D01*
X131124474Y-97261710D01*
X130599192Y-97786992D01*
X130590919Y-97790419D01*
X130584465Y-97788478D01*
X129731636Y-97224428D01*
X129726626Y-97217006D01*
X129726662Y-97212162D01*
X129877572Y-96525304D01*
X129882693Y-96517961D01*
X129884592Y-96516978D01*
X130470748Y-96278979D01*
X130479703Y-96279041D01*
G37*
%TD.AperFunction*%
%TD*%
%TA.AperFunction,Conductor*%
%TO.N,Net-(Q4-G)*%
G36*
X127339433Y-93120370D02*
G01*
X127909909Y-93515787D01*
X127914756Y-93523316D01*
X127913215Y-93531525D01*
X127490410Y-94220168D01*
X127483161Y-94225425D01*
X127475845Y-94224806D01*
X127037104Y-94037471D01*
X127033425Y-94034984D01*
X126773316Y-93774875D01*
X126769889Y-93766602D01*
X126772744Y-93758944D01*
X127323924Y-93122327D01*
X127331929Y-93118316D01*
X127339433Y-93120370D01*
G37*
%TD.AperFunction*%
%TD*%
%TA.AperFunction,Conductor*%
%TO.N,Net-(Q4-G)*%
G36*
X128020066Y-102614827D02*
G01*
X128021889Y-102617187D01*
X128453565Y-103354257D01*
X128454789Y-103363128D01*
X128451531Y-103368649D01*
X127887620Y-103904774D01*
X127879263Y-103907991D01*
X127871540Y-103904816D01*
X127304699Y-103371440D01*
X127301023Y-103363276D01*
X127302044Y-103358128D01*
X127634398Y-102618306D01*
X127640915Y-102612163D01*
X127645071Y-102611400D01*
X128011793Y-102611400D01*
X128020066Y-102614827D01*
G37*
%TD.AperFunction*%
%TD*%
%TA.AperFunction,Conductor*%
%TO.N,Net-(Q4-G)*%
G36*
X127832773Y-100952000D02*
G01*
X127838682Y-100957909D01*
X128114933Y-101576214D01*
X128115602Y-101583823D01*
X128020714Y-101963637D01*
X128015384Y-101970833D01*
X128009363Y-101972501D01*
X127646637Y-101972501D01*
X127638364Y-101969074D01*
X127635286Y-101963637D01*
X127540397Y-101583823D01*
X127541065Y-101576215D01*
X127817318Y-100957908D01*
X127823821Y-100951754D01*
X127832773Y-100952000D01*
G37*
%TD.AperFunction*%
%TD*%
%TA.AperFunction,Conductor*%
%TO.N,Net-(Q4-G)*%
G36*
X127094351Y-92378463D02*
G01*
X128030466Y-92794128D01*
X128036637Y-92800617D01*
X128037262Y-92806726D01*
X127920082Y-93516990D01*
X127915354Y-93524595D01*
X127912871Y-93525953D01*
X127341112Y-93753894D01*
X127332158Y-93753775D01*
X127326153Y-93747924D01*
X126821018Y-92652017D01*
X126820667Y-92643069D01*
X126823369Y-92638848D01*
X127081334Y-92380883D01*
X127089606Y-92377457D01*
X127094351Y-92378463D01*
G37*
%TD.AperFunction*%
%TD*%
%TA.AperFunction,Conductor*%
%TO.N,Net-(Q4-G)*%
G36*
X127564927Y-100253552D02*
G01*
X127570633Y-100259847D01*
X127824636Y-100925048D01*
X127824386Y-100934000D01*
X127818153Y-100940044D01*
X127536713Y-101055684D01*
X127527758Y-101055659D01*
X127522642Y-101051515D01*
X127441400Y-100934000D01*
X127186712Y-100565597D01*
X127184827Y-100556845D01*
X127188062Y-100550675D01*
X127448625Y-100290112D01*
X127453184Y-100287292D01*
X127555994Y-100252925D01*
X127564927Y-100253552D01*
G37*
%TD.AperFunction*%
%TD*%
%TA.AperFunction,Conductor*%
%TO.N,Net-(U6A-+)*%
G36*
X141690121Y-81788971D02*
G01*
X142472941Y-82094274D01*
X142479404Y-82100472D01*
X142480168Y-82107443D01*
X142343830Y-82797017D01*
X142338863Y-82804469D01*
X142334621Y-82806226D01*
X141645047Y-82942564D01*
X141636267Y-82940807D01*
X141631878Y-82935337D01*
X141326572Y-82152523D01*
X141326758Y-82143573D01*
X141329196Y-82140005D01*
X141677603Y-81791598D01*
X141685875Y-81788172D01*
X141690121Y-81788971D01*
G37*
%TD.AperFunction*%
%TD*%
%TA.AperFunction,Conductor*%
%TO.N,Net-(Q3-G)*%
G36*
X145734468Y-98107675D02*
G01*
X146317890Y-98270327D01*
X146324939Y-98275849D01*
X146325638Y-98277319D01*
X146595569Y-98964426D01*
X146595404Y-98973379D01*
X146591829Y-98977965D01*
X145824688Y-99570180D01*
X145816045Y-99572523D01*
X145809265Y-99569192D01*
X145461956Y-99221883D01*
X145458529Y-99213610D01*
X145458847Y-99210902D01*
X145719981Y-98116237D01*
X145725233Y-98108988D01*
X145734076Y-98107574D01*
X145734468Y-98107675D01*
G37*
%TD.AperFunction*%
%TD*%
%TA.AperFunction,Conductor*%
%TO.N,Net-(Q4-D)*%
G36*
X127887616Y-96526543D02*
G01*
X128344548Y-96956499D01*
X128454136Y-97059617D01*
X128457813Y-97067782D01*
X128456508Y-97073516D01*
X128073372Y-97813678D01*
X128066526Y-97819450D01*
X128062982Y-97820000D01*
X127696218Y-97820000D01*
X127687945Y-97816573D01*
X127685828Y-97813679D01*
X127302691Y-97073517D01*
X127301931Y-97064594D01*
X127305061Y-97059618D01*
X127871583Y-96526543D01*
X127879956Y-96523370D01*
X127887616Y-96526543D01*
G37*
%TD.AperFunction*%
%TD*%
%TA.AperFunction,Conductor*%
%TO.N,Net-(Q4-D)*%
G36*
X128514927Y-98378551D02*
G01*
X128520633Y-98384846D01*
X128774636Y-99050047D01*
X128774386Y-99058999D01*
X128768153Y-99065043D01*
X128486713Y-99180683D01*
X128477758Y-99180658D01*
X128472642Y-99176514D01*
X128391400Y-99058999D01*
X128136712Y-98690596D01*
X128134827Y-98681844D01*
X128138062Y-98675674D01*
X128398625Y-98415111D01*
X128403184Y-98412291D01*
X128505994Y-98377924D01*
X128514927Y-98378551D01*
G37*
%TD.AperFunction*%
%TD*%
%TA.AperFunction,Conductor*%
%TO.N,Net-(Q4-D)*%
G36*
X129084961Y-98749264D02*
G01*
X129094299Y-98752286D01*
X129369902Y-98841479D01*
X129376719Y-98847287D01*
X129378000Y-98852611D01*
X129378000Y-99217238D01*
X129374573Y-99225511D01*
X129370721Y-99228070D01*
X129085020Y-99344680D01*
X129076066Y-99344634D01*
X129072517Y-99342308D01*
X128785488Y-99068108D01*
X128781873Y-99059915D01*
X128785109Y-99051567D01*
X129072927Y-98752285D01*
X129081131Y-98748698D01*
X129084961Y-98749264D01*
G37*
%TD.AperFunction*%
%TD*%
%TA.AperFunction,Conductor*%
%TO.N,Net-(J1-Pin_1)*%
G36*
X173394941Y-84586834D02*
G01*
X173399192Y-84590961D01*
X173949016Y-85499508D01*
X173950367Y-85508361D01*
X173947279Y-85513839D01*
X173600194Y-85860924D01*
X173591921Y-85864351D01*
X173587243Y-85863375D01*
X172485936Y-85382991D01*
X172479723Y-85376542D01*
X172479616Y-85368275D01*
X172691836Y-84783559D01*
X172697879Y-84776954D01*
X172699690Y-84776283D01*
X173386054Y-84585745D01*
X173394941Y-84586834D01*
G37*
%TD.AperFunction*%
%TD*%
%TA.AperFunction,Conductor*%
%TO.N,Net-(J1-Pin_2)*%
G36*
X173431553Y-87628232D02*
G01*
X174228734Y-88049533D01*
X174234446Y-88056427D01*
X174233610Y-88065343D01*
X174231539Y-88068149D01*
X173883846Y-88415842D01*
X173883213Y-88416430D01*
X173419259Y-88816477D01*
X173410756Y-88819284D01*
X173402847Y-88815358D01*
X172878731Y-88221468D01*
X172875826Y-88212997D01*
X172878963Y-88205729D01*
X173007797Y-88068149D01*
X173417550Y-87630578D01*
X173425704Y-87626883D01*
X173431553Y-87628232D01*
G37*
%TD.AperFunction*%
%TD*%
M02*
