%TF.GenerationSoftware,KiCad,Pcbnew,9.0.1*%
%TF.CreationDate,2026-07-20T13:33:29+08:00*%
%TF.ProjectId,BSPD,42535044-2e6b-4696-9361-645f70636258,rev?*%
%TF.SameCoordinates,Original*%
%TF.FileFunction,Soldermask,Top*%
%TF.FilePolarity,Negative*%
%FSLAX46Y46*%
G04 Gerber Fmt 4.6, Leading zero omitted, Abs format (unit mm)*
G04 Created by KiCad (PCBNEW 9.0.1) date 2026-07-20 13:33:29*
%MOMM*%
%LPD*%
G01*
G04 APERTURE LIST*
G04 Aperture macros list*
%AMRoundRect*
0 Rectangle with rounded corners*
0 $1 Rounding radius*
0 $2 $3 $4 $5 $6 $7 $8 $9 X,Y pos of 4 corners*
0 Add a 4 corners polygon primitive as box body*
4,1,4,$2,$3,$4,$5,$6,$7,$8,$9,$2,$3,0*
0 Add four circle primitives for the rounded corners*
1,1,$1+$1,$2,$3*
1,1,$1+$1,$4,$5*
1,1,$1+$1,$6,$7*
1,1,$1+$1,$8,$9*
0 Add four rect primitives between the rounded corners*
20,1,$1+$1,$2,$3,$4,$5,0*
20,1,$1+$1,$4,$5,$6,$7,0*
20,1,$1+$1,$6,$7,$8,$9,0*
20,1,$1+$1,$8,$9,$2,$3,0*%
%AMRotRect*
0 Rectangle, with rotation*
0 The origin of the aperture is its center*
0 $1 length*
0 $2 width*
0 $3 Rotation angle, in degrees counterclockwise*
0 Add horizontal line*
21,1,$1,$2,0,0,$3*%
G04 Aperture macros list end*
%ADD10RoundRect,0.150000X0.150000X-0.825000X0.150000X0.825000X-0.150000X0.825000X-0.150000X-0.825000X0*%
%ADD11RoundRect,0.250000X0.350000X0.450000X-0.350000X0.450000X-0.350000X-0.450000X0.350000X-0.450000X0*%
%ADD12RoundRect,0.250000X-0.350000X-0.450000X0.350000X-0.450000X0.350000X0.450000X-0.350000X0.450000X0*%
%ADD13RoundRect,0.150000X0.150000X-0.587500X0.150000X0.587500X-0.150000X0.587500X-0.150000X-0.587500X0*%
%ADD14RoundRect,0.150000X-0.150000X0.587500X-0.150000X-0.587500X0.150000X-0.587500X0.150000X0.587500X0*%
%ADD15RoundRect,0.250000X0.337500X0.475000X-0.337500X0.475000X-0.337500X-0.475000X0.337500X-0.475000X0*%
%ADD16RoundRect,0.250000X0.475000X-0.337500X0.475000X0.337500X-0.475000X0.337500X-0.475000X-0.337500X0*%
%ADD17C,1.270000*%
%ADD18RoundRect,0.250001X0.759999X-0.499999X0.759999X0.499999X-0.759999X0.499999X-0.759999X-0.499999X0*%
%ADD19O,2.020000X1.500000*%
%ADD20RoundRect,0.150000X-0.825000X-0.150000X0.825000X-0.150000X0.825000X0.150000X-0.825000X0.150000X0*%
%ADD21C,3.000000*%
%ADD22C,2.500000*%
%ADD23RotRect,1.600000X1.600000X225.000000*%
%ADD24C,1.600000*%
%ADD25RoundRect,0.250000X-0.450000X0.350000X-0.450000X-0.350000X0.450000X-0.350000X0.450000X0.350000X0*%
%ADD26RoundRect,0.150000X-0.587500X-0.150000X0.587500X-0.150000X0.587500X0.150000X-0.587500X0.150000X0*%
%ADD27RoundRect,0.250000X0.450000X-0.350000X0.450000X0.350000X-0.450000X0.350000X-0.450000X-0.350000X0*%
%ADD28C,3.200000*%
%ADD29R,1.600000X1.600000*%
%ADD30O,1.600000X1.600000*%
%ADD31C,1.440000*%
%ADD32RoundRect,0.150000X0.825000X0.150000X-0.825000X0.150000X-0.825000X-0.150000X0.825000X-0.150000X0*%
%ADD33RoundRect,0.162500X0.617500X0.162500X-0.617500X0.162500X-0.617500X-0.162500X0.617500X-0.162500X0*%
%ADD34RoundRect,0.250000X-0.475000X0.337500X-0.475000X-0.337500X0.475000X-0.337500X0.475000X0.337500X0*%
%ADD35RoundRect,0.162500X-0.617500X-0.162500X0.617500X-0.162500X0.617500X0.162500X-0.617500X0.162500X0*%
G04 APERTURE END LIST*
D10*
%TO.C,U6*%
X140233399Y-73639398D03*
X141503399Y-73639398D03*
X142773399Y-73639398D03*
X144043399Y-73639398D03*
X144043399Y-78589398D03*
X142773399Y-78589398D03*
X141503399Y-78589398D03*
X140233399Y-78589398D03*
%TD*%
D11*
%TO.C,R22*%
X129879600Y-96520000D03*
X127879600Y-96520000D03*
%TD*%
D12*
%TO.C,R21*%
X127879600Y-103911400D03*
X129879600Y-103911400D03*
%TD*%
D13*
%TO.C,Q4*%
X127828000Y-100935001D03*
X129728000Y-100935001D03*
X128778000Y-99060000D03*
%TD*%
D14*
%TO.C,Q1*%
X129728000Y-89361799D03*
X127828000Y-89361799D03*
X128778000Y-91236800D03*
%TD*%
D15*
%TO.C,C12*%
X129993300Y-93522800D03*
X127918300Y-93522800D03*
%TD*%
D16*
%TO.C,C11*%
X141111200Y-95449300D03*
X141111200Y-93374300D03*
%TD*%
D17*
%TO.C,J3*%
X175154200Y-79454000D03*
X175154200Y-70454000D03*
D18*
X177114200Y-76454000D03*
D19*
X177114200Y-73454000D03*
%TD*%
D20*
%TO.C,U7*%
X136056600Y-97282000D03*
X136056600Y-98552000D03*
X136056600Y-99822000D03*
X136056600Y-101092000D03*
X141006600Y-101092000D03*
X141006600Y-99822000D03*
X141006600Y-98552000D03*
X141006600Y-97282000D03*
%TD*%
D21*
%TO.C,K1*%
X154364800Y-102209600D03*
D22*
X156314800Y-108259600D03*
D21*
X168514800Y-108259600D03*
X168564800Y-96209600D03*
D22*
X156314800Y-96259600D03*
%TD*%
D11*
%TO.C,R8*%
X154508200Y-91897200D03*
X152508200Y-91897200D03*
%TD*%
D12*
%TO.C,R25*%
X144322800Y-101222600D03*
X146322800Y-101222600D03*
%TD*%
D11*
%TO.C,R9*%
X168300400Y-86614000D03*
X166300400Y-86614000D03*
%TD*%
D12*
%TO.C,R1*%
X153635200Y-84019600D03*
X155635200Y-84019600D03*
%TD*%
%TO.C,R19*%
X133763000Y-93522800D03*
X135763000Y-93522800D03*
%TD*%
%TO.C,R29*%
X170770800Y-80822800D03*
X172770800Y-80822800D03*
%TD*%
%TO.C,R28*%
X170881800Y-90322400D03*
X172881800Y-90322400D03*
%TD*%
%TO.C,R15*%
X135606000Y-106248200D03*
X137606000Y-106248200D03*
%TD*%
D23*
%TO.C,C1*%
X165216767Y-75448233D03*
D24*
X163449000Y-77216000D03*
%TD*%
D11*
%TO.C,R27*%
X172872400Y-88214200D03*
X170872400Y-88214200D03*
%TD*%
D25*
%TO.C,R13*%
X138074404Y-76968599D03*
X138074404Y-78968599D03*
%TD*%
D11*
%TO.C,R5*%
X168732200Y-90297000D03*
X166732200Y-90297000D03*
%TD*%
D26*
%TO.C,Q3*%
X144385300Y-104282200D03*
X144385300Y-106182200D03*
X146260300Y-105232200D03*
%TD*%
D17*
%TO.C,J2*%
X175171000Y-104144200D03*
X175171000Y-95144200D03*
D18*
X177131000Y-101144200D03*
D19*
X177131000Y-98144200D03*
%TD*%
D11*
%TO.C,R2*%
X155609800Y-81838800D03*
X153609800Y-81838800D03*
%TD*%
D12*
%TO.C,R4*%
X165985601Y-81178400D03*
X167985601Y-81178400D03*
%TD*%
D27*
%TO.C,R26*%
X172694600Y-84778600D03*
X172694600Y-82778600D03*
%TD*%
%TO.C,R10*%
X135788400Y-74904597D03*
X135788400Y-72904597D03*
%TD*%
%TO.C,R14*%
X138912600Y-89722200D03*
X138912600Y-87722200D03*
%TD*%
D28*
%TO.C,H3*%
X128625600Y-108737400D03*
%TD*%
D12*
%TO.C,R6*%
X166764200Y-92532200D03*
X168764200Y-92532200D03*
%TD*%
D28*
%TO.C,H1*%
X178714400Y-65684400D03*
%TD*%
D12*
%TO.C,R7*%
X152508200Y-89484200D03*
X154508200Y-89484200D03*
%TD*%
D29*
%TO.C,D1*%
X149860000Y-98399600D03*
D30*
X149860000Y-106019600D03*
%TD*%
D25*
%TO.C,R11*%
X135763000Y-76968597D03*
X135763000Y-78968597D03*
%TD*%
D28*
%TO.C,H4*%
X178689000Y-108762800D03*
%TD*%
D31*
%TO.C,RV2*%
X142341603Y-82803999D03*
X139801603Y-82803999D03*
X137261604Y-82803999D03*
%TD*%
D27*
%TO.C,R12*%
X138074400Y-74904600D03*
X138074400Y-72904600D03*
%TD*%
D29*
%TO.C,C2*%
X170042200Y-75209400D03*
D24*
X170042200Y-77709400D03*
%TD*%
D11*
%TO.C,R16*%
X137580600Y-103581200D03*
X135580600Y-103581200D03*
%TD*%
D32*
%TO.C,U1*%
X163420600Y-86207600D03*
X163420600Y-84937600D03*
X163420600Y-83667600D03*
X163420600Y-82397600D03*
X158470600Y-82397600D03*
X158470600Y-83667600D03*
X158470600Y-84937600D03*
X158470600Y-86207600D03*
%TD*%
D33*
%TO.C,U3*%
X143869400Y-89660500D03*
X143869400Y-88710500D03*
X143869400Y-87760500D03*
X141169400Y-87760500D03*
X141169400Y-89660500D03*
%TD*%
D12*
%TO.C,R24*%
X144322800Y-98272600D03*
X146322800Y-98272600D03*
%TD*%
D31*
%TO.C,RV1*%
X142341604Y-68859399D03*
X139801604Y-68859399D03*
X137261605Y-68859399D03*
%TD*%
D28*
%TO.C,H2*%
X128625600Y-65659000D03*
%TD*%
D11*
%TO.C,R3*%
X167995600Y-83362800D03*
X165995600Y-83362800D03*
%TD*%
D20*
%TO.C,U2*%
X158481800Y-88519000D03*
X158481800Y-89789000D03*
X158481800Y-91059000D03*
X158481800Y-92329000D03*
X163431800Y-92329000D03*
X163431800Y-91059000D03*
X163431800Y-89789000D03*
X163431800Y-88519000D03*
%TD*%
D34*
%TO.C,C10*%
X135686800Y-87630000D03*
X135686800Y-89705000D03*
%TD*%
D25*
%TO.C,R20*%
X138988800Y-93411800D03*
X138988800Y-95411800D03*
%TD*%
D35*
%TO.C,U4*%
X146884401Y-75062799D03*
X146884401Y-76012799D03*
X146884401Y-76962799D03*
X149584401Y-76962799D03*
X149584401Y-75062799D03*
%TD*%
D12*
%TO.C,R17*%
X140367000Y-106121200D03*
X142367000Y-106121200D03*
%TD*%
D17*
%TO.C,J1*%
X175154200Y-91826600D03*
X175154200Y-82826600D03*
D18*
X177114200Y-88826600D03*
D19*
X177114200Y-85826600D03*
%TD*%
D11*
%TO.C,R18*%
X142367000Y-103403400D03*
X140367000Y-103403400D03*
%TD*%
M02*
