%TF.GenerationSoftware,KiCad,Pcbnew,9.0.1*%
%TF.CreationDate,2026-07-20T13:33:29+08:00*%
%TF.ProjectId,BSPD,42535044-2e6b-4696-9361-645f70636258,rev?*%
%TF.SameCoordinates,Original*%
%TF.FileFunction,Legend,Top*%
%TF.FilePolarity,Positive*%
%FSLAX46Y46*%
G04 Gerber Fmt 4.6, Leading zero omitted, Abs format (unit mm)*
G04 Created by KiCad (PCBNEW 9.0.1) date 2026-07-20 13:33:29*
%MOMM*%
%LPD*%
G01*
G04 APERTURE LIST*
%ADD10C,0.150000*%
%ADD11C,0.120000*%
G04 APERTURE END LIST*
D10*
X141593218Y-76876302D02*
X142402741Y-76876302D01*
X142402741Y-76876302D02*
X142497979Y-76828683D01*
X142497979Y-76828683D02*
X142545599Y-76781064D01*
X142545599Y-76781064D02*
X142593218Y-76685826D01*
X142593218Y-76685826D02*
X142593218Y-76495350D01*
X142593218Y-76495350D02*
X142545599Y-76400112D01*
X142545599Y-76400112D02*
X142497979Y-76352493D01*
X142497979Y-76352493D02*
X142402741Y-76304874D01*
X142402741Y-76304874D02*
X141593218Y-76304874D01*
X141593218Y-75400112D02*
X141593218Y-75590588D01*
X141593218Y-75590588D02*
X141640837Y-75685826D01*
X141640837Y-75685826D02*
X141688456Y-75733445D01*
X141688456Y-75733445D02*
X141831313Y-75828683D01*
X141831313Y-75828683D02*
X142021789Y-75876302D01*
X142021789Y-75876302D02*
X142402741Y-75876302D01*
X142402741Y-75876302D02*
X142497979Y-75828683D01*
X142497979Y-75828683D02*
X142545599Y-75781064D01*
X142545599Y-75781064D02*
X142593218Y-75685826D01*
X142593218Y-75685826D02*
X142593218Y-75495350D01*
X142593218Y-75495350D02*
X142545599Y-75400112D01*
X142545599Y-75400112D02*
X142497979Y-75352493D01*
X142497979Y-75352493D02*
X142402741Y-75304874D01*
X142402741Y-75304874D02*
X142164646Y-75304874D01*
X142164646Y-75304874D02*
X142069408Y-75352493D01*
X142069408Y-75352493D02*
X142021789Y-75400112D01*
X142021789Y-75400112D02*
X141974170Y-75495350D01*
X141974170Y-75495350D02*
X141974170Y-75685826D01*
X141974170Y-75685826D02*
X142021789Y-75781064D01*
X142021789Y-75781064D02*
X142069408Y-75828683D01*
X142069408Y-75828683D02*
X142164646Y-75876302D01*
X132255419Y-97442257D02*
X131779228Y-97775590D01*
X132255419Y-98013685D02*
X131255419Y-98013685D01*
X131255419Y-98013685D02*
X131255419Y-97632733D01*
X131255419Y-97632733D02*
X131303038Y-97537495D01*
X131303038Y-97537495D02*
X131350657Y-97489876D01*
X131350657Y-97489876D02*
X131445895Y-97442257D01*
X131445895Y-97442257D02*
X131588752Y-97442257D01*
X131588752Y-97442257D02*
X131683990Y-97489876D01*
X131683990Y-97489876D02*
X131731609Y-97537495D01*
X131731609Y-97537495D02*
X131779228Y-97632733D01*
X131779228Y-97632733D02*
X131779228Y-98013685D01*
X131350657Y-97061304D02*
X131303038Y-97013685D01*
X131303038Y-97013685D02*
X131255419Y-96918447D01*
X131255419Y-96918447D02*
X131255419Y-96680352D01*
X131255419Y-96680352D02*
X131303038Y-96585114D01*
X131303038Y-96585114D02*
X131350657Y-96537495D01*
X131350657Y-96537495D02*
X131445895Y-96489876D01*
X131445895Y-96489876D02*
X131541133Y-96489876D01*
X131541133Y-96489876D02*
X131683990Y-96537495D01*
X131683990Y-96537495D02*
X132255419Y-97108923D01*
X132255419Y-97108923D02*
X132255419Y-96489876D01*
X131350657Y-96108923D02*
X131303038Y-96061304D01*
X131303038Y-96061304D02*
X131255419Y-95966066D01*
X131255419Y-95966066D02*
X131255419Y-95727971D01*
X131255419Y-95727971D02*
X131303038Y-95632733D01*
X131303038Y-95632733D02*
X131350657Y-95585114D01*
X131350657Y-95585114D02*
X131445895Y-95537495D01*
X131445895Y-95537495D02*
X131541133Y-95537495D01*
X131541133Y-95537495D02*
X131683990Y-95585114D01*
X131683990Y-95585114D02*
X132255419Y-96156542D01*
X132255419Y-96156542D02*
X132255419Y-95537495D01*
X132255419Y-104478057D02*
X131779228Y-104811390D01*
X132255419Y-105049485D02*
X131255419Y-105049485D01*
X131255419Y-105049485D02*
X131255419Y-104668533D01*
X131255419Y-104668533D02*
X131303038Y-104573295D01*
X131303038Y-104573295D02*
X131350657Y-104525676D01*
X131350657Y-104525676D02*
X131445895Y-104478057D01*
X131445895Y-104478057D02*
X131588752Y-104478057D01*
X131588752Y-104478057D02*
X131683990Y-104525676D01*
X131683990Y-104525676D02*
X131731609Y-104573295D01*
X131731609Y-104573295D02*
X131779228Y-104668533D01*
X131779228Y-104668533D02*
X131779228Y-105049485D01*
X131350657Y-104097104D02*
X131303038Y-104049485D01*
X131303038Y-104049485D02*
X131255419Y-103954247D01*
X131255419Y-103954247D02*
X131255419Y-103716152D01*
X131255419Y-103716152D02*
X131303038Y-103620914D01*
X131303038Y-103620914D02*
X131350657Y-103573295D01*
X131350657Y-103573295D02*
X131445895Y-103525676D01*
X131445895Y-103525676D02*
X131541133Y-103525676D01*
X131541133Y-103525676D02*
X131683990Y-103573295D01*
X131683990Y-103573295D02*
X132255419Y-104144723D01*
X132255419Y-104144723D02*
X132255419Y-103525676D01*
X132255419Y-102573295D02*
X132255419Y-103144723D01*
X132255419Y-102859009D02*
X131255419Y-102859009D01*
X131255419Y-102859009D02*
X131398276Y-102954247D01*
X131398276Y-102954247D02*
X131493514Y-103049485D01*
X131493514Y-103049485D02*
X131541133Y-103144723D01*
X132147457Y-100526838D02*
X132099838Y-100622076D01*
X132099838Y-100622076D02*
X132004600Y-100717314D01*
X132004600Y-100717314D02*
X131861742Y-100860171D01*
X131861742Y-100860171D02*
X131814123Y-100955409D01*
X131814123Y-100955409D02*
X131814123Y-101050647D01*
X132052219Y-101003028D02*
X132004600Y-101098266D01*
X132004600Y-101098266D02*
X131909361Y-101193504D01*
X131909361Y-101193504D02*
X131718885Y-101241123D01*
X131718885Y-101241123D02*
X131385552Y-101241123D01*
X131385552Y-101241123D02*
X131195076Y-101193504D01*
X131195076Y-101193504D02*
X131099838Y-101098266D01*
X131099838Y-101098266D02*
X131052219Y-101003028D01*
X131052219Y-101003028D02*
X131052219Y-100812552D01*
X131052219Y-100812552D02*
X131099838Y-100717314D01*
X131099838Y-100717314D02*
X131195076Y-100622076D01*
X131195076Y-100622076D02*
X131385552Y-100574457D01*
X131385552Y-100574457D02*
X131718885Y-100574457D01*
X131718885Y-100574457D02*
X131909361Y-100622076D01*
X131909361Y-100622076D02*
X132004600Y-100717314D01*
X132004600Y-100717314D02*
X132052219Y-100812552D01*
X132052219Y-100812552D02*
X132052219Y-101003028D01*
X131385552Y-99717314D02*
X132052219Y-99717314D01*
X131004600Y-99955409D02*
X131718885Y-100193504D01*
X131718885Y-100193504D02*
X131718885Y-99574457D01*
X131728057Y-90394537D02*
X131680438Y-90489775D01*
X131680438Y-90489775D02*
X131585200Y-90585013D01*
X131585200Y-90585013D02*
X131442342Y-90727870D01*
X131442342Y-90727870D02*
X131394723Y-90823108D01*
X131394723Y-90823108D02*
X131394723Y-90918346D01*
X131632819Y-90870727D02*
X131585200Y-90965965D01*
X131585200Y-90965965D02*
X131489961Y-91061203D01*
X131489961Y-91061203D02*
X131299485Y-91108822D01*
X131299485Y-91108822D02*
X130966152Y-91108822D01*
X130966152Y-91108822D02*
X130775676Y-91061203D01*
X130775676Y-91061203D02*
X130680438Y-90965965D01*
X130680438Y-90965965D02*
X130632819Y-90870727D01*
X130632819Y-90870727D02*
X130632819Y-90680251D01*
X130632819Y-90680251D02*
X130680438Y-90585013D01*
X130680438Y-90585013D02*
X130775676Y-90489775D01*
X130775676Y-90489775D02*
X130966152Y-90442156D01*
X130966152Y-90442156D02*
X131299485Y-90442156D01*
X131299485Y-90442156D02*
X131489961Y-90489775D01*
X131489961Y-90489775D02*
X131585200Y-90585013D01*
X131585200Y-90585013D02*
X131632819Y-90680251D01*
X131632819Y-90680251D02*
X131632819Y-90870727D01*
X131632819Y-89489775D02*
X131632819Y-90061203D01*
X131632819Y-89775489D02*
X130632819Y-89775489D01*
X130632819Y-89775489D02*
X130775676Y-89870727D01*
X130775676Y-89870727D02*
X130870914Y-89965965D01*
X130870914Y-89965965D02*
X130918533Y-90061203D01*
X132058580Y-94165657D02*
X132106200Y-94213276D01*
X132106200Y-94213276D02*
X132153819Y-94356133D01*
X132153819Y-94356133D02*
X132153819Y-94451371D01*
X132153819Y-94451371D02*
X132106200Y-94594228D01*
X132106200Y-94594228D02*
X132010961Y-94689466D01*
X132010961Y-94689466D02*
X131915723Y-94737085D01*
X131915723Y-94737085D02*
X131725247Y-94784704D01*
X131725247Y-94784704D02*
X131582390Y-94784704D01*
X131582390Y-94784704D02*
X131391914Y-94737085D01*
X131391914Y-94737085D02*
X131296676Y-94689466D01*
X131296676Y-94689466D02*
X131201438Y-94594228D01*
X131201438Y-94594228D02*
X131153819Y-94451371D01*
X131153819Y-94451371D02*
X131153819Y-94356133D01*
X131153819Y-94356133D02*
X131201438Y-94213276D01*
X131201438Y-94213276D02*
X131249057Y-94165657D01*
X132153819Y-93213276D02*
X132153819Y-93784704D01*
X132153819Y-93498990D02*
X131153819Y-93498990D01*
X131153819Y-93498990D02*
X131296676Y-93594228D01*
X131296676Y-93594228D02*
X131391914Y-93689466D01*
X131391914Y-93689466D02*
X131439533Y-93784704D01*
X131249057Y-92832323D02*
X131201438Y-92784704D01*
X131201438Y-92784704D02*
X131153819Y-92689466D01*
X131153819Y-92689466D02*
X131153819Y-92451371D01*
X131153819Y-92451371D02*
X131201438Y-92356133D01*
X131201438Y-92356133D02*
X131249057Y-92308514D01*
X131249057Y-92308514D02*
X131344295Y-92260895D01*
X131344295Y-92260895D02*
X131439533Y-92260895D01*
X131439533Y-92260895D02*
X131582390Y-92308514D01*
X131582390Y-92308514D02*
X132153819Y-92879942D01*
X132153819Y-92879942D02*
X132153819Y-92260895D01*
X140987542Y-92155180D02*
X140939923Y-92202800D01*
X140939923Y-92202800D02*
X140797066Y-92250419D01*
X140797066Y-92250419D02*
X140701828Y-92250419D01*
X140701828Y-92250419D02*
X140558971Y-92202800D01*
X140558971Y-92202800D02*
X140463733Y-92107561D01*
X140463733Y-92107561D02*
X140416114Y-92012323D01*
X140416114Y-92012323D02*
X140368495Y-91821847D01*
X140368495Y-91821847D02*
X140368495Y-91678990D01*
X140368495Y-91678990D02*
X140416114Y-91488514D01*
X140416114Y-91488514D02*
X140463733Y-91393276D01*
X140463733Y-91393276D02*
X140558971Y-91298038D01*
X140558971Y-91298038D02*
X140701828Y-91250419D01*
X140701828Y-91250419D02*
X140797066Y-91250419D01*
X140797066Y-91250419D02*
X140939923Y-91298038D01*
X140939923Y-91298038D02*
X140987542Y-91345657D01*
X141939923Y-92250419D02*
X141368495Y-92250419D01*
X141654209Y-92250419D02*
X141654209Y-91250419D01*
X141654209Y-91250419D02*
X141558971Y-91393276D01*
X141558971Y-91393276D02*
X141463733Y-91488514D01*
X141463733Y-91488514D02*
X141368495Y-91536133D01*
X142892304Y-92250419D02*
X142320876Y-92250419D01*
X142606590Y-92250419D02*
X142606590Y-91250419D01*
X142606590Y-91250419D02*
X142511352Y-91393276D01*
X142511352Y-91393276D02*
X142416114Y-91488514D01*
X142416114Y-91488514D02*
X142320876Y-91536133D01*
X179566219Y-75212533D02*
X180280504Y-75212533D01*
X180280504Y-75212533D02*
X180423361Y-75260152D01*
X180423361Y-75260152D02*
X180518600Y-75355390D01*
X180518600Y-75355390D02*
X180566219Y-75498247D01*
X180566219Y-75498247D02*
X180566219Y-75593485D01*
X179566219Y-74831580D02*
X179566219Y-74212533D01*
X179566219Y-74212533D02*
X179947171Y-74545866D01*
X179947171Y-74545866D02*
X179947171Y-74403009D01*
X179947171Y-74403009D02*
X179994790Y-74307771D01*
X179994790Y-74307771D02*
X180042409Y-74260152D01*
X180042409Y-74260152D02*
X180137647Y-74212533D01*
X180137647Y-74212533D02*
X180375742Y-74212533D01*
X180375742Y-74212533D02*
X180470980Y-74260152D01*
X180470980Y-74260152D02*
X180518600Y-74307771D01*
X180518600Y-74307771D02*
X180566219Y-74403009D01*
X180566219Y-74403009D02*
X180566219Y-74688723D01*
X180566219Y-74688723D02*
X180518600Y-74783961D01*
X180518600Y-74783961D02*
X180470980Y-74831580D01*
X137769695Y-98641819D02*
X137769695Y-99451342D01*
X137769695Y-99451342D02*
X137817314Y-99546580D01*
X137817314Y-99546580D02*
X137864933Y-99594200D01*
X137864933Y-99594200D02*
X137960171Y-99641819D01*
X137960171Y-99641819D02*
X138150647Y-99641819D01*
X138150647Y-99641819D02*
X138245885Y-99594200D01*
X138245885Y-99594200D02*
X138293504Y-99546580D01*
X138293504Y-99546580D02*
X138341123Y-99451342D01*
X138341123Y-99451342D02*
X138341123Y-98641819D01*
X138722076Y-98641819D02*
X139388742Y-98641819D01*
X139388742Y-98641819D02*
X138960171Y-99641819D01*
X161644105Y-111351219D02*
X161644105Y-110351219D01*
X162215533Y-111351219D02*
X161786962Y-110779790D01*
X162215533Y-110351219D02*
X161644105Y-110922647D01*
X163167914Y-111351219D02*
X162596486Y-111351219D01*
X162882200Y-111351219D02*
X162882200Y-110351219D01*
X162882200Y-110351219D02*
X162786962Y-110494076D01*
X162786962Y-110494076D02*
X162691724Y-110589314D01*
X162691724Y-110589314D02*
X162596486Y-110636933D01*
X150328333Y-92301219D02*
X149995000Y-91825028D01*
X149756905Y-92301219D02*
X149756905Y-91301219D01*
X149756905Y-91301219D02*
X150137857Y-91301219D01*
X150137857Y-91301219D02*
X150233095Y-91348838D01*
X150233095Y-91348838D02*
X150280714Y-91396457D01*
X150280714Y-91396457D02*
X150328333Y-91491695D01*
X150328333Y-91491695D02*
X150328333Y-91634552D01*
X150328333Y-91634552D02*
X150280714Y-91729790D01*
X150280714Y-91729790D02*
X150233095Y-91777409D01*
X150233095Y-91777409D02*
X150137857Y-91825028D01*
X150137857Y-91825028D02*
X149756905Y-91825028D01*
X150899762Y-91729790D02*
X150804524Y-91682171D01*
X150804524Y-91682171D02*
X150756905Y-91634552D01*
X150756905Y-91634552D02*
X150709286Y-91539314D01*
X150709286Y-91539314D02*
X150709286Y-91491695D01*
X150709286Y-91491695D02*
X150756905Y-91396457D01*
X150756905Y-91396457D02*
X150804524Y-91348838D01*
X150804524Y-91348838D02*
X150899762Y-91301219D01*
X150899762Y-91301219D02*
X151090238Y-91301219D01*
X151090238Y-91301219D02*
X151185476Y-91348838D01*
X151185476Y-91348838D02*
X151233095Y-91396457D01*
X151233095Y-91396457D02*
X151280714Y-91491695D01*
X151280714Y-91491695D02*
X151280714Y-91539314D01*
X151280714Y-91539314D02*
X151233095Y-91634552D01*
X151233095Y-91634552D02*
X151185476Y-91682171D01*
X151185476Y-91682171D02*
X151090238Y-91729790D01*
X151090238Y-91729790D02*
X150899762Y-91729790D01*
X150899762Y-91729790D02*
X150804524Y-91777409D01*
X150804524Y-91777409D02*
X150756905Y-91825028D01*
X150756905Y-91825028D02*
X150709286Y-91920266D01*
X150709286Y-91920266D02*
X150709286Y-92110742D01*
X150709286Y-92110742D02*
X150756905Y-92205980D01*
X150756905Y-92205980D02*
X150804524Y-92253600D01*
X150804524Y-92253600D02*
X150899762Y-92301219D01*
X150899762Y-92301219D02*
X151090238Y-92301219D01*
X151090238Y-92301219D02*
X151185476Y-92253600D01*
X151185476Y-92253600D02*
X151233095Y-92205980D01*
X151233095Y-92205980D02*
X151280714Y-92110742D01*
X151280714Y-92110742D02*
X151280714Y-91920266D01*
X151280714Y-91920266D02*
X151233095Y-91825028D01*
X151233095Y-91825028D02*
X151185476Y-91777409D01*
X151185476Y-91777409D02*
X151090238Y-91729790D01*
X148435219Y-101887257D02*
X147959028Y-102220590D01*
X148435219Y-102458685D02*
X147435219Y-102458685D01*
X147435219Y-102458685D02*
X147435219Y-102077733D01*
X147435219Y-102077733D02*
X147482838Y-101982495D01*
X147482838Y-101982495D02*
X147530457Y-101934876D01*
X147530457Y-101934876D02*
X147625695Y-101887257D01*
X147625695Y-101887257D02*
X147768552Y-101887257D01*
X147768552Y-101887257D02*
X147863790Y-101934876D01*
X147863790Y-101934876D02*
X147911409Y-101982495D01*
X147911409Y-101982495D02*
X147959028Y-102077733D01*
X147959028Y-102077733D02*
X147959028Y-102458685D01*
X147530457Y-101506304D02*
X147482838Y-101458685D01*
X147482838Y-101458685D02*
X147435219Y-101363447D01*
X147435219Y-101363447D02*
X147435219Y-101125352D01*
X147435219Y-101125352D02*
X147482838Y-101030114D01*
X147482838Y-101030114D02*
X147530457Y-100982495D01*
X147530457Y-100982495D02*
X147625695Y-100934876D01*
X147625695Y-100934876D02*
X147720933Y-100934876D01*
X147720933Y-100934876D02*
X147863790Y-100982495D01*
X147863790Y-100982495D02*
X148435219Y-101553923D01*
X148435219Y-101553923D02*
X148435219Y-100934876D01*
X147435219Y-100030114D02*
X147435219Y-100506304D01*
X147435219Y-100506304D02*
X147911409Y-100553923D01*
X147911409Y-100553923D02*
X147863790Y-100506304D01*
X147863790Y-100506304D02*
X147816171Y-100411066D01*
X147816171Y-100411066D02*
X147816171Y-100172971D01*
X147816171Y-100172971D02*
X147863790Y-100077733D01*
X147863790Y-100077733D02*
X147911409Y-100030114D01*
X147911409Y-100030114D02*
X148006647Y-99982495D01*
X148006647Y-99982495D02*
X148244742Y-99982495D01*
X148244742Y-99982495D02*
X148339980Y-100030114D01*
X148339980Y-100030114D02*
X148387600Y-100077733D01*
X148387600Y-100077733D02*
X148435219Y-100172971D01*
X148435219Y-100172971D02*
X148435219Y-100411066D01*
X148435219Y-100411066D02*
X148387600Y-100506304D01*
X148387600Y-100506304D02*
X148339980Y-100553923D01*
X168032133Y-88745219D02*
X167698800Y-88269028D01*
X167460705Y-88745219D02*
X167460705Y-87745219D01*
X167460705Y-87745219D02*
X167841657Y-87745219D01*
X167841657Y-87745219D02*
X167936895Y-87792838D01*
X167936895Y-87792838D02*
X167984514Y-87840457D01*
X167984514Y-87840457D02*
X168032133Y-87935695D01*
X168032133Y-87935695D02*
X168032133Y-88078552D01*
X168032133Y-88078552D02*
X167984514Y-88173790D01*
X167984514Y-88173790D02*
X167936895Y-88221409D01*
X167936895Y-88221409D02*
X167841657Y-88269028D01*
X167841657Y-88269028D02*
X167460705Y-88269028D01*
X168508324Y-88745219D02*
X168698800Y-88745219D01*
X168698800Y-88745219D02*
X168794038Y-88697600D01*
X168794038Y-88697600D02*
X168841657Y-88649980D01*
X168841657Y-88649980D02*
X168936895Y-88507123D01*
X168936895Y-88507123D02*
X168984514Y-88316647D01*
X168984514Y-88316647D02*
X168984514Y-87935695D01*
X168984514Y-87935695D02*
X168936895Y-87840457D01*
X168936895Y-87840457D02*
X168889276Y-87792838D01*
X168889276Y-87792838D02*
X168794038Y-87745219D01*
X168794038Y-87745219D02*
X168603562Y-87745219D01*
X168603562Y-87745219D02*
X168508324Y-87792838D01*
X168508324Y-87792838D02*
X168460705Y-87840457D01*
X168460705Y-87840457D02*
X168413086Y-87935695D01*
X168413086Y-87935695D02*
X168413086Y-88173790D01*
X168413086Y-88173790D02*
X168460705Y-88269028D01*
X168460705Y-88269028D02*
X168508324Y-88316647D01*
X168508324Y-88316647D02*
X168603562Y-88364266D01*
X168603562Y-88364266D02*
X168794038Y-88364266D01*
X168794038Y-88364266D02*
X168889276Y-88316647D01*
X168889276Y-88316647D02*
X168936895Y-88269028D01*
X168936895Y-88269028D02*
X168984514Y-88173790D01*
X151522133Y-84474419D02*
X151188800Y-83998228D01*
X150950705Y-84474419D02*
X150950705Y-83474419D01*
X150950705Y-83474419D02*
X151331657Y-83474419D01*
X151331657Y-83474419D02*
X151426895Y-83522038D01*
X151426895Y-83522038D02*
X151474514Y-83569657D01*
X151474514Y-83569657D02*
X151522133Y-83664895D01*
X151522133Y-83664895D02*
X151522133Y-83807752D01*
X151522133Y-83807752D02*
X151474514Y-83902990D01*
X151474514Y-83902990D02*
X151426895Y-83950609D01*
X151426895Y-83950609D02*
X151331657Y-83998228D01*
X151331657Y-83998228D02*
X150950705Y-83998228D01*
X152474514Y-84474419D02*
X151903086Y-84474419D01*
X152188800Y-84474419D02*
X152188800Y-83474419D01*
X152188800Y-83474419D02*
X152093562Y-83617276D01*
X152093562Y-83617276D02*
X151998324Y-83712514D01*
X151998324Y-83712514D02*
X151903086Y-83760133D01*
X134053342Y-95679419D02*
X133720009Y-95203228D01*
X133481914Y-95679419D02*
X133481914Y-94679419D01*
X133481914Y-94679419D02*
X133862866Y-94679419D01*
X133862866Y-94679419D02*
X133958104Y-94727038D01*
X133958104Y-94727038D02*
X134005723Y-94774657D01*
X134005723Y-94774657D02*
X134053342Y-94869895D01*
X134053342Y-94869895D02*
X134053342Y-95012752D01*
X134053342Y-95012752D02*
X134005723Y-95107990D01*
X134005723Y-95107990D02*
X133958104Y-95155609D01*
X133958104Y-95155609D02*
X133862866Y-95203228D01*
X133862866Y-95203228D02*
X133481914Y-95203228D01*
X135005723Y-95679419D02*
X134434295Y-95679419D01*
X134720009Y-95679419D02*
X134720009Y-94679419D01*
X134720009Y-94679419D02*
X134624771Y-94822276D01*
X134624771Y-94822276D02*
X134529533Y-94917514D01*
X134529533Y-94917514D02*
X134434295Y-94965133D01*
X135481914Y-95679419D02*
X135672390Y-95679419D01*
X135672390Y-95679419D02*
X135767628Y-95631800D01*
X135767628Y-95631800D02*
X135815247Y-95584180D01*
X135815247Y-95584180D02*
X135910485Y-95441323D01*
X135910485Y-95441323D02*
X135958104Y-95250847D01*
X135958104Y-95250847D02*
X135958104Y-94869895D01*
X135958104Y-94869895D02*
X135910485Y-94774657D01*
X135910485Y-94774657D02*
X135862866Y-94727038D01*
X135862866Y-94727038D02*
X135767628Y-94679419D01*
X135767628Y-94679419D02*
X135577152Y-94679419D01*
X135577152Y-94679419D02*
X135481914Y-94727038D01*
X135481914Y-94727038D02*
X135434295Y-94774657D01*
X135434295Y-94774657D02*
X135386676Y-94869895D01*
X135386676Y-94869895D02*
X135386676Y-95107990D01*
X135386676Y-95107990D02*
X135434295Y-95203228D01*
X135434295Y-95203228D02*
X135481914Y-95250847D01*
X135481914Y-95250847D02*
X135577152Y-95298466D01*
X135577152Y-95298466D02*
X135767628Y-95298466D01*
X135767628Y-95298466D02*
X135862866Y-95250847D01*
X135862866Y-95250847D02*
X135910485Y-95203228D01*
X135910485Y-95203228D02*
X135958104Y-95107990D01*
X174429942Y-81531619D02*
X174096609Y-81055428D01*
X173858514Y-81531619D02*
X173858514Y-80531619D01*
X173858514Y-80531619D02*
X174239466Y-80531619D01*
X174239466Y-80531619D02*
X174334704Y-80579238D01*
X174334704Y-80579238D02*
X174382323Y-80626857D01*
X174382323Y-80626857D02*
X174429942Y-80722095D01*
X174429942Y-80722095D02*
X174429942Y-80864952D01*
X174429942Y-80864952D02*
X174382323Y-80960190D01*
X174382323Y-80960190D02*
X174334704Y-81007809D01*
X174334704Y-81007809D02*
X174239466Y-81055428D01*
X174239466Y-81055428D02*
X173858514Y-81055428D01*
X174810895Y-80626857D02*
X174858514Y-80579238D01*
X174858514Y-80579238D02*
X174953752Y-80531619D01*
X174953752Y-80531619D02*
X175191847Y-80531619D01*
X175191847Y-80531619D02*
X175287085Y-80579238D01*
X175287085Y-80579238D02*
X175334704Y-80626857D01*
X175334704Y-80626857D02*
X175382323Y-80722095D01*
X175382323Y-80722095D02*
X175382323Y-80817333D01*
X175382323Y-80817333D02*
X175334704Y-80960190D01*
X175334704Y-80960190D02*
X174763276Y-81531619D01*
X174763276Y-81531619D02*
X175382323Y-81531619D01*
X175858514Y-81531619D02*
X176048990Y-81531619D01*
X176048990Y-81531619D02*
X176144228Y-81484000D01*
X176144228Y-81484000D02*
X176191847Y-81436380D01*
X176191847Y-81436380D02*
X176287085Y-81293523D01*
X176287085Y-81293523D02*
X176334704Y-81103047D01*
X176334704Y-81103047D02*
X176334704Y-80722095D01*
X176334704Y-80722095D02*
X176287085Y-80626857D01*
X176287085Y-80626857D02*
X176239466Y-80579238D01*
X176239466Y-80579238D02*
X176144228Y-80531619D01*
X176144228Y-80531619D02*
X175953752Y-80531619D01*
X175953752Y-80531619D02*
X175858514Y-80579238D01*
X175858514Y-80579238D02*
X175810895Y-80626857D01*
X175810895Y-80626857D02*
X175763276Y-80722095D01*
X175763276Y-80722095D02*
X175763276Y-80960190D01*
X175763276Y-80960190D02*
X175810895Y-81055428D01*
X175810895Y-81055428D02*
X175858514Y-81103047D01*
X175858514Y-81103047D02*
X175953752Y-81150666D01*
X175953752Y-81150666D02*
X176144228Y-81150666D01*
X176144228Y-81150666D02*
X176239466Y-81103047D01*
X176239466Y-81103047D02*
X176287085Y-81055428D01*
X176287085Y-81055428D02*
X176334704Y-80960190D01*
X171238942Y-92606019D02*
X170905609Y-92129828D01*
X170667514Y-92606019D02*
X170667514Y-91606019D01*
X170667514Y-91606019D02*
X171048466Y-91606019D01*
X171048466Y-91606019D02*
X171143704Y-91653638D01*
X171143704Y-91653638D02*
X171191323Y-91701257D01*
X171191323Y-91701257D02*
X171238942Y-91796495D01*
X171238942Y-91796495D02*
X171238942Y-91939352D01*
X171238942Y-91939352D02*
X171191323Y-92034590D01*
X171191323Y-92034590D02*
X171143704Y-92082209D01*
X171143704Y-92082209D02*
X171048466Y-92129828D01*
X171048466Y-92129828D02*
X170667514Y-92129828D01*
X171619895Y-91701257D02*
X171667514Y-91653638D01*
X171667514Y-91653638D02*
X171762752Y-91606019D01*
X171762752Y-91606019D02*
X172000847Y-91606019D01*
X172000847Y-91606019D02*
X172096085Y-91653638D01*
X172096085Y-91653638D02*
X172143704Y-91701257D01*
X172143704Y-91701257D02*
X172191323Y-91796495D01*
X172191323Y-91796495D02*
X172191323Y-91891733D01*
X172191323Y-91891733D02*
X172143704Y-92034590D01*
X172143704Y-92034590D02*
X171572276Y-92606019D01*
X171572276Y-92606019D02*
X172191323Y-92606019D01*
X172762752Y-92034590D02*
X172667514Y-91986971D01*
X172667514Y-91986971D02*
X172619895Y-91939352D01*
X172619895Y-91939352D02*
X172572276Y-91844114D01*
X172572276Y-91844114D02*
X172572276Y-91796495D01*
X172572276Y-91796495D02*
X172619895Y-91701257D01*
X172619895Y-91701257D02*
X172667514Y-91653638D01*
X172667514Y-91653638D02*
X172762752Y-91606019D01*
X172762752Y-91606019D02*
X172953228Y-91606019D01*
X172953228Y-91606019D02*
X173048466Y-91653638D01*
X173048466Y-91653638D02*
X173096085Y-91701257D01*
X173096085Y-91701257D02*
X173143704Y-91796495D01*
X173143704Y-91796495D02*
X173143704Y-91844114D01*
X173143704Y-91844114D02*
X173096085Y-91939352D01*
X173096085Y-91939352D02*
X173048466Y-91986971D01*
X173048466Y-91986971D02*
X172953228Y-92034590D01*
X172953228Y-92034590D02*
X172762752Y-92034590D01*
X172762752Y-92034590D02*
X172667514Y-92082209D01*
X172667514Y-92082209D02*
X172619895Y-92129828D01*
X172619895Y-92129828D02*
X172572276Y-92225066D01*
X172572276Y-92225066D02*
X172572276Y-92415542D01*
X172572276Y-92415542D02*
X172619895Y-92510780D01*
X172619895Y-92510780D02*
X172667514Y-92558400D01*
X172667514Y-92558400D02*
X172762752Y-92606019D01*
X172762752Y-92606019D02*
X172953228Y-92606019D01*
X172953228Y-92606019D02*
X173048466Y-92558400D01*
X173048466Y-92558400D02*
X173096085Y-92510780D01*
X173096085Y-92510780D02*
X173143704Y-92415542D01*
X173143704Y-92415542D02*
X173143704Y-92225066D01*
X173143704Y-92225066D02*
X173096085Y-92129828D01*
X173096085Y-92129828D02*
X173048466Y-92082209D01*
X173048466Y-92082209D02*
X172953228Y-92034590D01*
X135856742Y-110030419D02*
X135523409Y-109554228D01*
X135285314Y-110030419D02*
X135285314Y-109030419D01*
X135285314Y-109030419D02*
X135666266Y-109030419D01*
X135666266Y-109030419D02*
X135761504Y-109078038D01*
X135761504Y-109078038D02*
X135809123Y-109125657D01*
X135809123Y-109125657D02*
X135856742Y-109220895D01*
X135856742Y-109220895D02*
X135856742Y-109363752D01*
X135856742Y-109363752D02*
X135809123Y-109458990D01*
X135809123Y-109458990D02*
X135761504Y-109506609D01*
X135761504Y-109506609D02*
X135666266Y-109554228D01*
X135666266Y-109554228D02*
X135285314Y-109554228D01*
X136809123Y-110030419D02*
X136237695Y-110030419D01*
X136523409Y-110030419D02*
X136523409Y-109030419D01*
X136523409Y-109030419D02*
X136428171Y-109173276D01*
X136428171Y-109173276D02*
X136332933Y-109268514D01*
X136332933Y-109268514D02*
X136237695Y-109316133D01*
X137713885Y-109030419D02*
X137237695Y-109030419D01*
X137237695Y-109030419D02*
X137190076Y-109506609D01*
X137190076Y-109506609D02*
X137237695Y-109458990D01*
X137237695Y-109458990D02*
X137332933Y-109411371D01*
X137332933Y-109411371D02*
X137571028Y-109411371D01*
X137571028Y-109411371D02*
X137666266Y-109458990D01*
X137666266Y-109458990D02*
X137713885Y-109506609D01*
X137713885Y-109506609D02*
X137761504Y-109601847D01*
X137761504Y-109601847D02*
X137761504Y-109839942D01*
X137761504Y-109839942D02*
X137713885Y-109935180D01*
X137713885Y-109935180D02*
X137666266Y-109982800D01*
X137666266Y-109982800D02*
X137571028Y-110030419D01*
X137571028Y-110030419D02*
X137332933Y-110030419D01*
X137332933Y-110030419D02*
X137237695Y-109982800D01*
X137237695Y-109982800D02*
X137190076Y-109935180D01*
X161450117Y-78907339D02*
X161382773Y-78907339D01*
X161382773Y-78907339D02*
X161248086Y-78839995D01*
X161248086Y-78839995D02*
X161180743Y-78772652D01*
X161180743Y-78772652D02*
X161113399Y-78637965D01*
X161113399Y-78637965D02*
X161113399Y-78503278D01*
X161113399Y-78503278D02*
X161147071Y-78402263D01*
X161147071Y-78402263D02*
X161248086Y-78233904D01*
X161248086Y-78233904D02*
X161349101Y-78132889D01*
X161349101Y-78132889D02*
X161517460Y-78031873D01*
X161517460Y-78031873D02*
X161618475Y-77998202D01*
X161618475Y-77998202D02*
X161753162Y-77998202D01*
X161753162Y-77998202D02*
X161887849Y-78065545D01*
X161887849Y-78065545D02*
X161955193Y-78132889D01*
X161955193Y-78132889D02*
X162022536Y-78267576D01*
X162022536Y-78267576D02*
X162022536Y-78334919D01*
X162056208Y-79648117D02*
X161652147Y-79244056D01*
X161854178Y-79446087D02*
X162561284Y-78738980D01*
X162561284Y-78738980D02*
X162392926Y-78772652D01*
X162392926Y-78772652D02*
X162258239Y-78772652D01*
X162258239Y-78772652D02*
X162157223Y-78738980D01*
X171213542Y-86967219D02*
X170880209Y-86491028D01*
X170642114Y-86967219D02*
X170642114Y-85967219D01*
X170642114Y-85967219D02*
X171023066Y-85967219D01*
X171023066Y-85967219D02*
X171118304Y-86014838D01*
X171118304Y-86014838D02*
X171165923Y-86062457D01*
X171165923Y-86062457D02*
X171213542Y-86157695D01*
X171213542Y-86157695D02*
X171213542Y-86300552D01*
X171213542Y-86300552D02*
X171165923Y-86395790D01*
X171165923Y-86395790D02*
X171118304Y-86443409D01*
X171118304Y-86443409D02*
X171023066Y-86491028D01*
X171023066Y-86491028D02*
X170642114Y-86491028D01*
X171594495Y-86062457D02*
X171642114Y-86014838D01*
X171642114Y-86014838D02*
X171737352Y-85967219D01*
X171737352Y-85967219D02*
X171975447Y-85967219D01*
X171975447Y-85967219D02*
X172070685Y-86014838D01*
X172070685Y-86014838D02*
X172118304Y-86062457D01*
X172118304Y-86062457D02*
X172165923Y-86157695D01*
X172165923Y-86157695D02*
X172165923Y-86252933D01*
X172165923Y-86252933D02*
X172118304Y-86395790D01*
X172118304Y-86395790D02*
X171546876Y-86967219D01*
X171546876Y-86967219D02*
X172165923Y-86967219D01*
X172499257Y-85967219D02*
X173165923Y-85967219D01*
X173165923Y-85967219D02*
X172737352Y-86967219D01*
X134719219Y-78366857D02*
X134243028Y-78700190D01*
X134719219Y-78938285D02*
X133719219Y-78938285D01*
X133719219Y-78938285D02*
X133719219Y-78557333D01*
X133719219Y-78557333D02*
X133766838Y-78462095D01*
X133766838Y-78462095D02*
X133814457Y-78414476D01*
X133814457Y-78414476D02*
X133909695Y-78366857D01*
X133909695Y-78366857D02*
X134052552Y-78366857D01*
X134052552Y-78366857D02*
X134147790Y-78414476D01*
X134147790Y-78414476D02*
X134195409Y-78462095D01*
X134195409Y-78462095D02*
X134243028Y-78557333D01*
X134243028Y-78557333D02*
X134243028Y-78938285D01*
X134719219Y-77414476D02*
X134719219Y-77985904D01*
X134719219Y-77700190D02*
X133719219Y-77700190D01*
X133719219Y-77700190D02*
X133862076Y-77795428D01*
X133862076Y-77795428D02*
X133957314Y-77890666D01*
X133957314Y-77890666D02*
X134004933Y-77985904D01*
X133719219Y-77081142D02*
X133719219Y-76462095D01*
X133719219Y-76462095D02*
X134100171Y-76795428D01*
X134100171Y-76795428D02*
X134100171Y-76652571D01*
X134100171Y-76652571D02*
X134147790Y-76557333D01*
X134147790Y-76557333D02*
X134195409Y-76509714D01*
X134195409Y-76509714D02*
X134290647Y-76462095D01*
X134290647Y-76462095D02*
X134528742Y-76462095D01*
X134528742Y-76462095D02*
X134623980Y-76509714D01*
X134623980Y-76509714D02*
X134671600Y-76557333D01*
X134671600Y-76557333D02*
X134719219Y-76652571D01*
X134719219Y-76652571D02*
X134719219Y-76938285D01*
X134719219Y-76938285D02*
X134671600Y-77033523D01*
X134671600Y-77033523D02*
X134623980Y-77081142D01*
X165783419Y-90412866D02*
X165307228Y-90746199D01*
X165783419Y-90984294D02*
X164783419Y-90984294D01*
X164783419Y-90984294D02*
X164783419Y-90603342D01*
X164783419Y-90603342D02*
X164831038Y-90508104D01*
X164831038Y-90508104D02*
X164878657Y-90460485D01*
X164878657Y-90460485D02*
X164973895Y-90412866D01*
X164973895Y-90412866D02*
X165116752Y-90412866D01*
X165116752Y-90412866D02*
X165211990Y-90460485D01*
X165211990Y-90460485D02*
X165259609Y-90508104D01*
X165259609Y-90508104D02*
X165307228Y-90603342D01*
X165307228Y-90603342D02*
X165307228Y-90984294D01*
X164783419Y-89508104D02*
X164783419Y-89984294D01*
X164783419Y-89984294D02*
X165259609Y-90031913D01*
X165259609Y-90031913D02*
X165211990Y-89984294D01*
X165211990Y-89984294D02*
X165164371Y-89889056D01*
X165164371Y-89889056D02*
X165164371Y-89650961D01*
X165164371Y-89650961D02*
X165211990Y-89555723D01*
X165211990Y-89555723D02*
X165259609Y-89508104D01*
X165259609Y-89508104D02*
X165354847Y-89460485D01*
X165354847Y-89460485D02*
X165592942Y-89460485D01*
X165592942Y-89460485D02*
X165688180Y-89508104D01*
X165688180Y-89508104D02*
X165735800Y-89555723D01*
X165735800Y-89555723D02*
X165783419Y-89650961D01*
X165783419Y-89650961D02*
X165783419Y-89889056D01*
X165783419Y-89889056D02*
X165735800Y-89984294D01*
X165735800Y-89984294D02*
X165688180Y-90031913D01*
X145227561Y-108398457D02*
X145132323Y-108350838D01*
X145132323Y-108350838D02*
X145037085Y-108255600D01*
X145037085Y-108255600D02*
X144894228Y-108112742D01*
X144894228Y-108112742D02*
X144798990Y-108065123D01*
X144798990Y-108065123D02*
X144703752Y-108065123D01*
X144751371Y-108303219D02*
X144656133Y-108255600D01*
X144656133Y-108255600D02*
X144560895Y-108160361D01*
X144560895Y-108160361D02*
X144513276Y-107969885D01*
X144513276Y-107969885D02*
X144513276Y-107636552D01*
X144513276Y-107636552D02*
X144560895Y-107446076D01*
X144560895Y-107446076D02*
X144656133Y-107350838D01*
X144656133Y-107350838D02*
X144751371Y-107303219D01*
X144751371Y-107303219D02*
X144941847Y-107303219D01*
X144941847Y-107303219D02*
X145037085Y-107350838D01*
X145037085Y-107350838D02*
X145132323Y-107446076D01*
X145132323Y-107446076D02*
X145179942Y-107636552D01*
X145179942Y-107636552D02*
X145179942Y-107969885D01*
X145179942Y-107969885D02*
X145132323Y-108160361D01*
X145132323Y-108160361D02*
X145037085Y-108255600D01*
X145037085Y-108255600D02*
X144941847Y-108303219D01*
X144941847Y-108303219D02*
X144751371Y-108303219D01*
X145513276Y-107303219D02*
X146132323Y-107303219D01*
X146132323Y-107303219D02*
X145798990Y-107684171D01*
X145798990Y-107684171D02*
X145941847Y-107684171D01*
X145941847Y-107684171D02*
X146037085Y-107731790D01*
X146037085Y-107731790D02*
X146084704Y-107779409D01*
X146084704Y-107779409D02*
X146132323Y-107874647D01*
X146132323Y-107874647D02*
X146132323Y-108112742D01*
X146132323Y-108112742D02*
X146084704Y-108207980D01*
X146084704Y-108207980D02*
X146037085Y-108255600D01*
X146037085Y-108255600D02*
X145941847Y-108303219D01*
X145941847Y-108303219D02*
X145656133Y-108303219D01*
X145656133Y-108303219D02*
X145560895Y-108255600D01*
X145560895Y-108255600D02*
X145513276Y-108207980D01*
X179337619Y-99977533D02*
X180051904Y-99977533D01*
X180051904Y-99977533D02*
X180194761Y-100025152D01*
X180194761Y-100025152D02*
X180290000Y-100120390D01*
X180290000Y-100120390D02*
X180337619Y-100263247D01*
X180337619Y-100263247D02*
X180337619Y-100358485D01*
X179432857Y-99548961D02*
X179385238Y-99501342D01*
X179385238Y-99501342D02*
X179337619Y-99406104D01*
X179337619Y-99406104D02*
X179337619Y-99168009D01*
X179337619Y-99168009D02*
X179385238Y-99072771D01*
X179385238Y-99072771D02*
X179432857Y-99025152D01*
X179432857Y-99025152D02*
X179528095Y-98977533D01*
X179528095Y-98977533D02*
X179623333Y-98977533D01*
X179623333Y-98977533D02*
X179766190Y-99025152D01*
X179766190Y-99025152D02*
X180337619Y-99596580D01*
X180337619Y-99596580D02*
X180337619Y-98977533D01*
X151445933Y-82268219D02*
X151112600Y-81792028D01*
X150874505Y-82268219D02*
X150874505Y-81268219D01*
X150874505Y-81268219D02*
X151255457Y-81268219D01*
X151255457Y-81268219D02*
X151350695Y-81315838D01*
X151350695Y-81315838D02*
X151398314Y-81363457D01*
X151398314Y-81363457D02*
X151445933Y-81458695D01*
X151445933Y-81458695D02*
X151445933Y-81601552D01*
X151445933Y-81601552D02*
X151398314Y-81696790D01*
X151398314Y-81696790D02*
X151350695Y-81744409D01*
X151350695Y-81744409D02*
X151255457Y-81792028D01*
X151255457Y-81792028D02*
X150874505Y-81792028D01*
X151826886Y-81363457D02*
X151874505Y-81315838D01*
X151874505Y-81315838D02*
X151969743Y-81268219D01*
X151969743Y-81268219D02*
X152207838Y-81268219D01*
X152207838Y-81268219D02*
X152303076Y-81315838D01*
X152303076Y-81315838D02*
X152350695Y-81363457D01*
X152350695Y-81363457D02*
X152398314Y-81458695D01*
X152398314Y-81458695D02*
X152398314Y-81553933D01*
X152398314Y-81553933D02*
X152350695Y-81696790D01*
X152350695Y-81696790D02*
X151779267Y-82268219D01*
X151779267Y-82268219D02*
X152398314Y-82268219D01*
X163891933Y-80414019D02*
X163558600Y-79937828D01*
X163320505Y-80414019D02*
X163320505Y-79414019D01*
X163320505Y-79414019D02*
X163701457Y-79414019D01*
X163701457Y-79414019D02*
X163796695Y-79461638D01*
X163796695Y-79461638D02*
X163844314Y-79509257D01*
X163844314Y-79509257D02*
X163891933Y-79604495D01*
X163891933Y-79604495D02*
X163891933Y-79747352D01*
X163891933Y-79747352D02*
X163844314Y-79842590D01*
X163844314Y-79842590D02*
X163796695Y-79890209D01*
X163796695Y-79890209D02*
X163701457Y-79937828D01*
X163701457Y-79937828D02*
X163320505Y-79937828D01*
X164749076Y-79747352D02*
X164749076Y-80414019D01*
X164510981Y-79366400D02*
X164272886Y-80080685D01*
X164272886Y-80080685D02*
X164891933Y-80080685D01*
X171499419Y-84421457D02*
X171023228Y-84754790D01*
X171499419Y-84992885D02*
X170499419Y-84992885D01*
X170499419Y-84992885D02*
X170499419Y-84611933D01*
X170499419Y-84611933D02*
X170547038Y-84516695D01*
X170547038Y-84516695D02*
X170594657Y-84469076D01*
X170594657Y-84469076D02*
X170689895Y-84421457D01*
X170689895Y-84421457D02*
X170832752Y-84421457D01*
X170832752Y-84421457D02*
X170927990Y-84469076D01*
X170927990Y-84469076D02*
X170975609Y-84516695D01*
X170975609Y-84516695D02*
X171023228Y-84611933D01*
X171023228Y-84611933D02*
X171023228Y-84992885D01*
X170594657Y-84040504D02*
X170547038Y-83992885D01*
X170547038Y-83992885D02*
X170499419Y-83897647D01*
X170499419Y-83897647D02*
X170499419Y-83659552D01*
X170499419Y-83659552D02*
X170547038Y-83564314D01*
X170547038Y-83564314D02*
X170594657Y-83516695D01*
X170594657Y-83516695D02*
X170689895Y-83469076D01*
X170689895Y-83469076D02*
X170785133Y-83469076D01*
X170785133Y-83469076D02*
X170927990Y-83516695D01*
X170927990Y-83516695D02*
X171499419Y-84088123D01*
X171499419Y-84088123D02*
X171499419Y-83469076D01*
X170499419Y-82611933D02*
X170499419Y-82802409D01*
X170499419Y-82802409D02*
X170547038Y-82897647D01*
X170547038Y-82897647D02*
X170594657Y-82945266D01*
X170594657Y-82945266D02*
X170737514Y-83040504D01*
X170737514Y-83040504D02*
X170927990Y-83088123D01*
X170927990Y-83088123D02*
X171308942Y-83088123D01*
X171308942Y-83088123D02*
X171404180Y-83040504D01*
X171404180Y-83040504D02*
X171451800Y-82992885D01*
X171451800Y-82992885D02*
X171499419Y-82897647D01*
X171499419Y-82897647D02*
X171499419Y-82707171D01*
X171499419Y-82707171D02*
X171451800Y-82611933D01*
X171451800Y-82611933D02*
X171404180Y-82564314D01*
X171404180Y-82564314D02*
X171308942Y-82516695D01*
X171308942Y-82516695D02*
X171070847Y-82516695D01*
X171070847Y-82516695D02*
X170975609Y-82564314D01*
X170975609Y-82564314D02*
X170927990Y-82611933D01*
X170927990Y-82611933D02*
X170880371Y-82707171D01*
X170880371Y-82707171D02*
X170880371Y-82897647D01*
X170880371Y-82897647D02*
X170927990Y-82992885D01*
X170927990Y-82992885D02*
X170975609Y-83040504D01*
X170975609Y-83040504D02*
X171070847Y-83088123D01*
X132992019Y-74455257D02*
X132515828Y-74788590D01*
X132992019Y-75026685D02*
X131992019Y-75026685D01*
X131992019Y-75026685D02*
X131992019Y-74645733D01*
X131992019Y-74645733D02*
X132039638Y-74550495D01*
X132039638Y-74550495D02*
X132087257Y-74502876D01*
X132087257Y-74502876D02*
X132182495Y-74455257D01*
X132182495Y-74455257D02*
X132325352Y-74455257D01*
X132325352Y-74455257D02*
X132420590Y-74502876D01*
X132420590Y-74502876D02*
X132468209Y-74550495D01*
X132468209Y-74550495D02*
X132515828Y-74645733D01*
X132515828Y-74645733D02*
X132515828Y-75026685D01*
X132992019Y-73502876D02*
X132992019Y-74074304D01*
X132992019Y-73788590D02*
X131992019Y-73788590D01*
X131992019Y-73788590D02*
X132134876Y-73883828D01*
X132134876Y-73883828D02*
X132230114Y-73979066D01*
X132230114Y-73979066D02*
X132277733Y-74074304D01*
X131992019Y-72883828D02*
X131992019Y-72788590D01*
X131992019Y-72788590D02*
X132039638Y-72693352D01*
X132039638Y-72693352D02*
X132087257Y-72645733D01*
X132087257Y-72645733D02*
X132182495Y-72598114D01*
X132182495Y-72598114D02*
X132372971Y-72550495D01*
X132372971Y-72550495D02*
X132611066Y-72550495D01*
X132611066Y-72550495D02*
X132801542Y-72598114D01*
X132801542Y-72598114D02*
X132896780Y-72645733D01*
X132896780Y-72645733D02*
X132944400Y-72693352D01*
X132944400Y-72693352D02*
X132992019Y-72788590D01*
X132992019Y-72788590D02*
X132992019Y-72883828D01*
X132992019Y-72883828D02*
X132944400Y-72979066D01*
X132944400Y-72979066D02*
X132896780Y-73026685D01*
X132896780Y-73026685D02*
X132801542Y-73074304D01*
X132801542Y-73074304D02*
X132611066Y-73121923D01*
X132611066Y-73121923D02*
X132372971Y-73121923D01*
X132372971Y-73121923D02*
X132182495Y-73074304D01*
X132182495Y-73074304D02*
X132087257Y-73026685D01*
X132087257Y-73026685D02*
X132039638Y-72979066D01*
X132039638Y-72979066D02*
X131992019Y-72883828D01*
X138269742Y-86637019D02*
X137936409Y-86160828D01*
X137698314Y-86637019D02*
X137698314Y-85637019D01*
X137698314Y-85637019D02*
X138079266Y-85637019D01*
X138079266Y-85637019D02*
X138174504Y-85684638D01*
X138174504Y-85684638D02*
X138222123Y-85732257D01*
X138222123Y-85732257D02*
X138269742Y-85827495D01*
X138269742Y-85827495D02*
X138269742Y-85970352D01*
X138269742Y-85970352D02*
X138222123Y-86065590D01*
X138222123Y-86065590D02*
X138174504Y-86113209D01*
X138174504Y-86113209D02*
X138079266Y-86160828D01*
X138079266Y-86160828D02*
X137698314Y-86160828D01*
X139222123Y-86637019D02*
X138650695Y-86637019D01*
X138936409Y-86637019D02*
X138936409Y-85637019D01*
X138936409Y-85637019D02*
X138841171Y-85779876D01*
X138841171Y-85779876D02*
X138745933Y-85875114D01*
X138745933Y-85875114D02*
X138650695Y-85922733D01*
X140079266Y-85970352D02*
X140079266Y-86637019D01*
X139841171Y-85589400D02*
X139603076Y-86303685D01*
X139603076Y-86303685D02*
X140222123Y-86303685D01*
X165783419Y-92698866D02*
X165307228Y-93032199D01*
X165783419Y-93270294D02*
X164783419Y-93270294D01*
X164783419Y-93270294D02*
X164783419Y-92889342D01*
X164783419Y-92889342D02*
X164831038Y-92794104D01*
X164831038Y-92794104D02*
X164878657Y-92746485D01*
X164878657Y-92746485D02*
X164973895Y-92698866D01*
X164973895Y-92698866D02*
X165116752Y-92698866D01*
X165116752Y-92698866D02*
X165211990Y-92746485D01*
X165211990Y-92746485D02*
X165259609Y-92794104D01*
X165259609Y-92794104D02*
X165307228Y-92889342D01*
X165307228Y-92889342D02*
X165307228Y-93270294D01*
X164783419Y-91841723D02*
X164783419Y-92032199D01*
X164783419Y-92032199D02*
X164831038Y-92127437D01*
X164831038Y-92127437D02*
X164878657Y-92175056D01*
X164878657Y-92175056D02*
X165021514Y-92270294D01*
X165021514Y-92270294D02*
X165211990Y-92317913D01*
X165211990Y-92317913D02*
X165592942Y-92317913D01*
X165592942Y-92317913D02*
X165688180Y-92270294D01*
X165688180Y-92270294D02*
X165735800Y-92222675D01*
X165735800Y-92222675D02*
X165783419Y-92127437D01*
X165783419Y-92127437D02*
X165783419Y-91936961D01*
X165783419Y-91936961D02*
X165735800Y-91841723D01*
X165735800Y-91841723D02*
X165688180Y-91794104D01*
X165688180Y-91794104D02*
X165592942Y-91746485D01*
X165592942Y-91746485D02*
X165354847Y-91746485D01*
X165354847Y-91746485D02*
X165259609Y-91794104D01*
X165259609Y-91794104D02*
X165211990Y-91841723D01*
X165211990Y-91841723D02*
X165164371Y-91936961D01*
X165164371Y-91936961D02*
X165164371Y-92127437D01*
X165164371Y-92127437D02*
X165211990Y-92222675D01*
X165211990Y-92222675D02*
X165259609Y-92270294D01*
X165259609Y-92270294D02*
X165354847Y-92317913D01*
X150379133Y-89862819D02*
X150045800Y-89386628D01*
X149807705Y-89862819D02*
X149807705Y-88862819D01*
X149807705Y-88862819D02*
X150188657Y-88862819D01*
X150188657Y-88862819D02*
X150283895Y-88910438D01*
X150283895Y-88910438D02*
X150331514Y-88958057D01*
X150331514Y-88958057D02*
X150379133Y-89053295D01*
X150379133Y-89053295D02*
X150379133Y-89196152D01*
X150379133Y-89196152D02*
X150331514Y-89291390D01*
X150331514Y-89291390D02*
X150283895Y-89339009D01*
X150283895Y-89339009D02*
X150188657Y-89386628D01*
X150188657Y-89386628D02*
X149807705Y-89386628D01*
X150712467Y-88862819D02*
X151379133Y-88862819D01*
X151379133Y-88862819D02*
X150950562Y-89862819D01*
X150289419Y-103201694D02*
X149289419Y-103201694D01*
X149289419Y-103201694D02*
X149289419Y-102963599D01*
X149289419Y-102963599D02*
X149337038Y-102820742D01*
X149337038Y-102820742D02*
X149432276Y-102725504D01*
X149432276Y-102725504D02*
X149527514Y-102677885D01*
X149527514Y-102677885D02*
X149717990Y-102630266D01*
X149717990Y-102630266D02*
X149860847Y-102630266D01*
X149860847Y-102630266D02*
X150051323Y-102677885D01*
X150051323Y-102677885D02*
X150146561Y-102725504D01*
X150146561Y-102725504D02*
X150241800Y-102820742D01*
X150241800Y-102820742D02*
X150289419Y-102963599D01*
X150289419Y-102963599D02*
X150289419Y-103201694D01*
X150289419Y-101677885D02*
X150289419Y-102249313D01*
X150289419Y-101963599D02*
X149289419Y-101963599D01*
X149289419Y-101963599D02*
X149432276Y-102058837D01*
X149432276Y-102058837D02*
X149527514Y-102154075D01*
X149527514Y-102154075D02*
X149575133Y-102249313D01*
X150238619Y-96959704D02*
X149238619Y-96959704D01*
X150238619Y-96388276D02*
X149667190Y-96816847D01*
X149238619Y-96388276D02*
X149810047Y-96959704D01*
X145911961Y-83284219D02*
X145578628Y-82808028D01*
X145340533Y-83284219D02*
X145340533Y-82284219D01*
X145340533Y-82284219D02*
X145721485Y-82284219D01*
X145721485Y-82284219D02*
X145816723Y-82331838D01*
X145816723Y-82331838D02*
X145864342Y-82379457D01*
X145864342Y-82379457D02*
X145911961Y-82474695D01*
X145911961Y-82474695D02*
X145911961Y-82617552D01*
X145911961Y-82617552D02*
X145864342Y-82712790D01*
X145864342Y-82712790D02*
X145816723Y-82760409D01*
X145816723Y-82760409D02*
X145721485Y-82808028D01*
X145721485Y-82808028D02*
X145340533Y-82808028D01*
X146197676Y-82284219D02*
X146531009Y-83284219D01*
X146531009Y-83284219D02*
X146864342Y-82284219D01*
X147150057Y-82379457D02*
X147197676Y-82331838D01*
X147197676Y-82331838D02*
X147292914Y-82284219D01*
X147292914Y-82284219D02*
X147531009Y-82284219D01*
X147531009Y-82284219D02*
X147626247Y-82331838D01*
X147626247Y-82331838D02*
X147673866Y-82379457D01*
X147673866Y-82379457D02*
X147721485Y-82474695D01*
X147721485Y-82474695D02*
X147721485Y-82569933D01*
X147721485Y-82569933D02*
X147673866Y-82712790D01*
X147673866Y-82712790D02*
X147102438Y-83284219D01*
X147102438Y-83284219D02*
X147721485Y-83284219D01*
X134490619Y-74455257D02*
X134014428Y-74788590D01*
X134490619Y-75026685D02*
X133490619Y-75026685D01*
X133490619Y-75026685D02*
X133490619Y-74645733D01*
X133490619Y-74645733D02*
X133538238Y-74550495D01*
X133538238Y-74550495D02*
X133585857Y-74502876D01*
X133585857Y-74502876D02*
X133681095Y-74455257D01*
X133681095Y-74455257D02*
X133823952Y-74455257D01*
X133823952Y-74455257D02*
X133919190Y-74502876D01*
X133919190Y-74502876D02*
X133966809Y-74550495D01*
X133966809Y-74550495D02*
X134014428Y-74645733D01*
X134014428Y-74645733D02*
X134014428Y-75026685D01*
X134490619Y-73502876D02*
X134490619Y-74074304D01*
X134490619Y-73788590D02*
X133490619Y-73788590D01*
X133490619Y-73788590D02*
X133633476Y-73883828D01*
X133633476Y-73883828D02*
X133728714Y-73979066D01*
X133728714Y-73979066D02*
X133776333Y-74074304D01*
X133585857Y-73121923D02*
X133538238Y-73074304D01*
X133538238Y-73074304D02*
X133490619Y-72979066D01*
X133490619Y-72979066D02*
X133490619Y-72740971D01*
X133490619Y-72740971D02*
X133538238Y-72645733D01*
X133538238Y-72645733D02*
X133585857Y-72598114D01*
X133585857Y-72598114D02*
X133681095Y-72550495D01*
X133681095Y-72550495D02*
X133776333Y-72550495D01*
X133776333Y-72550495D02*
X133919190Y-72598114D01*
X133919190Y-72598114D02*
X134490619Y-73169542D01*
X134490619Y-73169542D02*
X134490619Y-72550495D01*
X174095580Y-76392066D02*
X174143200Y-76439685D01*
X174143200Y-76439685D02*
X174190819Y-76582542D01*
X174190819Y-76582542D02*
X174190819Y-76677780D01*
X174190819Y-76677780D02*
X174143200Y-76820637D01*
X174143200Y-76820637D02*
X174047961Y-76915875D01*
X174047961Y-76915875D02*
X173952723Y-76963494D01*
X173952723Y-76963494D02*
X173762247Y-77011113D01*
X173762247Y-77011113D02*
X173619390Y-77011113D01*
X173619390Y-77011113D02*
X173428914Y-76963494D01*
X173428914Y-76963494D02*
X173333676Y-76915875D01*
X173333676Y-76915875D02*
X173238438Y-76820637D01*
X173238438Y-76820637D02*
X173190819Y-76677780D01*
X173190819Y-76677780D02*
X173190819Y-76582542D01*
X173190819Y-76582542D02*
X173238438Y-76439685D01*
X173238438Y-76439685D02*
X173286057Y-76392066D01*
X173286057Y-76011113D02*
X173238438Y-75963494D01*
X173238438Y-75963494D02*
X173190819Y-75868256D01*
X173190819Y-75868256D02*
X173190819Y-75630161D01*
X173190819Y-75630161D02*
X173238438Y-75534923D01*
X173238438Y-75534923D02*
X173286057Y-75487304D01*
X173286057Y-75487304D02*
X173381295Y-75439685D01*
X173381295Y-75439685D02*
X173476533Y-75439685D01*
X173476533Y-75439685D02*
X173619390Y-75487304D01*
X173619390Y-75487304D02*
X174190819Y-76058732D01*
X174190819Y-76058732D02*
X174190819Y-75439685D01*
X135831342Y-108608019D02*
X135498009Y-108131828D01*
X135259914Y-108608019D02*
X135259914Y-107608019D01*
X135259914Y-107608019D02*
X135640866Y-107608019D01*
X135640866Y-107608019D02*
X135736104Y-107655638D01*
X135736104Y-107655638D02*
X135783723Y-107703257D01*
X135783723Y-107703257D02*
X135831342Y-107798495D01*
X135831342Y-107798495D02*
X135831342Y-107941352D01*
X135831342Y-107941352D02*
X135783723Y-108036590D01*
X135783723Y-108036590D02*
X135736104Y-108084209D01*
X135736104Y-108084209D02*
X135640866Y-108131828D01*
X135640866Y-108131828D02*
X135259914Y-108131828D01*
X136783723Y-108608019D02*
X136212295Y-108608019D01*
X136498009Y-108608019D02*
X136498009Y-107608019D01*
X136498009Y-107608019D02*
X136402771Y-107750876D01*
X136402771Y-107750876D02*
X136307533Y-107846114D01*
X136307533Y-107846114D02*
X136212295Y-107893733D01*
X137640866Y-107608019D02*
X137450390Y-107608019D01*
X137450390Y-107608019D02*
X137355152Y-107655638D01*
X137355152Y-107655638D02*
X137307533Y-107703257D01*
X137307533Y-107703257D02*
X137212295Y-107846114D01*
X137212295Y-107846114D02*
X137164676Y-108036590D01*
X137164676Y-108036590D02*
X137164676Y-108417542D01*
X137164676Y-108417542D02*
X137212295Y-108512780D01*
X137212295Y-108512780D02*
X137259914Y-108560400D01*
X137259914Y-108560400D02*
X137355152Y-108608019D01*
X137355152Y-108608019D02*
X137545628Y-108608019D01*
X137545628Y-108608019D02*
X137640866Y-108560400D01*
X137640866Y-108560400D02*
X137688485Y-108512780D01*
X137688485Y-108512780D02*
X137736104Y-108417542D01*
X137736104Y-108417542D02*
X137736104Y-108179447D01*
X137736104Y-108179447D02*
X137688485Y-108084209D01*
X137688485Y-108084209D02*
X137640866Y-108036590D01*
X137640866Y-108036590D02*
X137545628Y-107988971D01*
X137545628Y-107988971D02*
X137355152Y-107988971D01*
X137355152Y-107988971D02*
X137259914Y-108036590D01*
X137259914Y-108036590D02*
X137212295Y-108084209D01*
X137212295Y-108084209D02*
X137164676Y-108179447D01*
X160183695Y-83757419D02*
X160183695Y-84566942D01*
X160183695Y-84566942D02*
X160231314Y-84662180D01*
X160231314Y-84662180D02*
X160278933Y-84709800D01*
X160278933Y-84709800D02*
X160374171Y-84757419D01*
X160374171Y-84757419D02*
X160564647Y-84757419D01*
X160564647Y-84757419D02*
X160659885Y-84709800D01*
X160659885Y-84709800D02*
X160707504Y-84662180D01*
X160707504Y-84662180D02*
X160755123Y-84566942D01*
X160755123Y-84566942D02*
X160755123Y-83757419D01*
X161755123Y-84757419D02*
X161183695Y-84757419D01*
X161469409Y-84757419D02*
X161469409Y-83757419D01*
X161469409Y-83757419D02*
X161374171Y-83900276D01*
X161374171Y-83900276D02*
X161278933Y-83995514D01*
X161278933Y-83995514D02*
X161183695Y-84043133D01*
X141757495Y-85764019D02*
X141757495Y-86573542D01*
X141757495Y-86573542D02*
X141805114Y-86668780D01*
X141805114Y-86668780D02*
X141852733Y-86716400D01*
X141852733Y-86716400D02*
X141947971Y-86764019D01*
X141947971Y-86764019D02*
X142138447Y-86764019D01*
X142138447Y-86764019D02*
X142233685Y-86716400D01*
X142233685Y-86716400D02*
X142281304Y-86668780D01*
X142281304Y-86668780D02*
X142328923Y-86573542D01*
X142328923Y-86573542D02*
X142328923Y-85764019D01*
X142709876Y-85764019D02*
X143328923Y-85764019D01*
X143328923Y-85764019D02*
X142995590Y-86144971D01*
X142995590Y-86144971D02*
X143138447Y-86144971D01*
X143138447Y-86144971D02*
X143233685Y-86192590D01*
X143233685Y-86192590D02*
X143281304Y-86240209D01*
X143281304Y-86240209D02*
X143328923Y-86335447D01*
X143328923Y-86335447D02*
X143328923Y-86573542D01*
X143328923Y-86573542D02*
X143281304Y-86668780D01*
X143281304Y-86668780D02*
X143233685Y-86716400D01*
X143233685Y-86716400D02*
X143138447Y-86764019D01*
X143138447Y-86764019D02*
X142852733Y-86764019D01*
X142852733Y-86764019D02*
X142757495Y-86716400D01*
X142757495Y-86716400D02*
X142709876Y-86668780D01*
X148384419Y-98610657D02*
X147908228Y-98943990D01*
X148384419Y-99182085D02*
X147384419Y-99182085D01*
X147384419Y-99182085D02*
X147384419Y-98801133D01*
X147384419Y-98801133D02*
X147432038Y-98705895D01*
X147432038Y-98705895D02*
X147479657Y-98658276D01*
X147479657Y-98658276D02*
X147574895Y-98610657D01*
X147574895Y-98610657D02*
X147717752Y-98610657D01*
X147717752Y-98610657D02*
X147812990Y-98658276D01*
X147812990Y-98658276D02*
X147860609Y-98705895D01*
X147860609Y-98705895D02*
X147908228Y-98801133D01*
X147908228Y-98801133D02*
X147908228Y-99182085D01*
X147479657Y-98229704D02*
X147432038Y-98182085D01*
X147432038Y-98182085D02*
X147384419Y-98086847D01*
X147384419Y-98086847D02*
X147384419Y-97848752D01*
X147384419Y-97848752D02*
X147432038Y-97753514D01*
X147432038Y-97753514D02*
X147479657Y-97705895D01*
X147479657Y-97705895D02*
X147574895Y-97658276D01*
X147574895Y-97658276D02*
X147670133Y-97658276D01*
X147670133Y-97658276D02*
X147812990Y-97705895D01*
X147812990Y-97705895D02*
X148384419Y-98277323D01*
X148384419Y-98277323D02*
X148384419Y-97658276D01*
X147717752Y-96801133D02*
X148384419Y-96801133D01*
X147336800Y-97039228D02*
X148051085Y-97277323D01*
X148051085Y-97277323D02*
X148051085Y-96658276D01*
X145886561Y-69212619D02*
X145553228Y-68736428D01*
X145315133Y-69212619D02*
X145315133Y-68212619D01*
X145315133Y-68212619D02*
X145696085Y-68212619D01*
X145696085Y-68212619D02*
X145791323Y-68260238D01*
X145791323Y-68260238D02*
X145838942Y-68307857D01*
X145838942Y-68307857D02*
X145886561Y-68403095D01*
X145886561Y-68403095D02*
X145886561Y-68545952D01*
X145886561Y-68545952D02*
X145838942Y-68641190D01*
X145838942Y-68641190D02*
X145791323Y-68688809D01*
X145791323Y-68688809D02*
X145696085Y-68736428D01*
X145696085Y-68736428D02*
X145315133Y-68736428D01*
X146172276Y-68212619D02*
X146505609Y-69212619D01*
X146505609Y-69212619D02*
X146838942Y-68212619D01*
X147696085Y-69212619D02*
X147124657Y-69212619D01*
X147410371Y-69212619D02*
X147410371Y-68212619D01*
X147410371Y-68212619D02*
X147315133Y-68355476D01*
X147315133Y-68355476D02*
X147219895Y-68450714D01*
X147219895Y-68450714D02*
X147124657Y-68498333D01*
X163891933Y-81684019D02*
X163558600Y-81207828D01*
X163320505Y-81684019D02*
X163320505Y-80684019D01*
X163320505Y-80684019D02*
X163701457Y-80684019D01*
X163701457Y-80684019D02*
X163796695Y-80731638D01*
X163796695Y-80731638D02*
X163844314Y-80779257D01*
X163844314Y-80779257D02*
X163891933Y-80874495D01*
X163891933Y-80874495D02*
X163891933Y-81017352D01*
X163891933Y-81017352D02*
X163844314Y-81112590D01*
X163844314Y-81112590D02*
X163796695Y-81160209D01*
X163796695Y-81160209D02*
X163701457Y-81207828D01*
X163701457Y-81207828D02*
X163320505Y-81207828D01*
X164225267Y-80684019D02*
X164844314Y-80684019D01*
X164844314Y-80684019D02*
X164510981Y-81064971D01*
X164510981Y-81064971D02*
X164653838Y-81064971D01*
X164653838Y-81064971D02*
X164749076Y-81112590D01*
X164749076Y-81112590D02*
X164796695Y-81160209D01*
X164796695Y-81160209D02*
X164844314Y-81255447D01*
X164844314Y-81255447D02*
X164844314Y-81493542D01*
X164844314Y-81493542D02*
X164796695Y-81588780D01*
X164796695Y-81588780D02*
X164749076Y-81636400D01*
X164749076Y-81636400D02*
X164653838Y-81684019D01*
X164653838Y-81684019D02*
X164368124Y-81684019D01*
X164368124Y-81684019D02*
X164272886Y-81636400D01*
X164272886Y-81636400D02*
X164225267Y-81588780D01*
X160194895Y-89813819D02*
X160194895Y-90623342D01*
X160194895Y-90623342D02*
X160242514Y-90718580D01*
X160242514Y-90718580D02*
X160290133Y-90766200D01*
X160290133Y-90766200D02*
X160385371Y-90813819D01*
X160385371Y-90813819D02*
X160575847Y-90813819D01*
X160575847Y-90813819D02*
X160671085Y-90766200D01*
X160671085Y-90766200D02*
X160718704Y-90718580D01*
X160718704Y-90718580D02*
X160766323Y-90623342D01*
X160766323Y-90623342D02*
X160766323Y-89813819D01*
X161194895Y-89909057D02*
X161242514Y-89861438D01*
X161242514Y-89861438D02*
X161337752Y-89813819D01*
X161337752Y-89813819D02*
X161575847Y-89813819D01*
X161575847Y-89813819D02*
X161671085Y-89861438D01*
X161671085Y-89861438D02*
X161718704Y-89909057D01*
X161718704Y-89909057D02*
X161766323Y-90004295D01*
X161766323Y-90004295D02*
X161766323Y-90099533D01*
X161766323Y-90099533D02*
X161718704Y-90242390D01*
X161718704Y-90242390D02*
X161147276Y-90813819D01*
X161147276Y-90813819D02*
X161766323Y-90813819D01*
X135069342Y-86465580D02*
X135021723Y-86513200D01*
X135021723Y-86513200D02*
X134878866Y-86560819D01*
X134878866Y-86560819D02*
X134783628Y-86560819D01*
X134783628Y-86560819D02*
X134640771Y-86513200D01*
X134640771Y-86513200D02*
X134545533Y-86417961D01*
X134545533Y-86417961D02*
X134497914Y-86322723D01*
X134497914Y-86322723D02*
X134450295Y-86132247D01*
X134450295Y-86132247D02*
X134450295Y-85989390D01*
X134450295Y-85989390D02*
X134497914Y-85798914D01*
X134497914Y-85798914D02*
X134545533Y-85703676D01*
X134545533Y-85703676D02*
X134640771Y-85608438D01*
X134640771Y-85608438D02*
X134783628Y-85560819D01*
X134783628Y-85560819D02*
X134878866Y-85560819D01*
X134878866Y-85560819D02*
X135021723Y-85608438D01*
X135021723Y-85608438D02*
X135069342Y-85656057D01*
X136021723Y-86560819D02*
X135450295Y-86560819D01*
X135736009Y-86560819D02*
X135736009Y-85560819D01*
X135736009Y-85560819D02*
X135640771Y-85703676D01*
X135640771Y-85703676D02*
X135545533Y-85798914D01*
X135545533Y-85798914D02*
X135450295Y-85846533D01*
X136640771Y-85560819D02*
X136736009Y-85560819D01*
X136736009Y-85560819D02*
X136831247Y-85608438D01*
X136831247Y-85608438D02*
X136878866Y-85656057D01*
X136878866Y-85656057D02*
X136926485Y-85751295D01*
X136926485Y-85751295D02*
X136974104Y-85941771D01*
X136974104Y-85941771D02*
X136974104Y-86179866D01*
X136974104Y-86179866D02*
X136926485Y-86370342D01*
X136926485Y-86370342D02*
X136878866Y-86465580D01*
X136878866Y-86465580D02*
X136831247Y-86513200D01*
X136831247Y-86513200D02*
X136736009Y-86560819D01*
X136736009Y-86560819D02*
X136640771Y-86560819D01*
X136640771Y-86560819D02*
X136545533Y-86513200D01*
X136545533Y-86513200D02*
X136497914Y-86465580D01*
X136497914Y-86465580D02*
X136450295Y-86370342D01*
X136450295Y-86370342D02*
X136402676Y-86179866D01*
X136402676Y-86179866D02*
X136402676Y-85941771D01*
X136402676Y-85941771D02*
X136450295Y-85751295D01*
X136450295Y-85751295D02*
X136497914Y-85656057D01*
X136497914Y-85656057D02*
X136545533Y-85608438D01*
X136545533Y-85608438D02*
X136640771Y-85560819D01*
X138142742Y-92275819D02*
X137809409Y-91799628D01*
X137571314Y-92275819D02*
X137571314Y-91275819D01*
X137571314Y-91275819D02*
X137952266Y-91275819D01*
X137952266Y-91275819D02*
X138047504Y-91323438D01*
X138047504Y-91323438D02*
X138095123Y-91371057D01*
X138095123Y-91371057D02*
X138142742Y-91466295D01*
X138142742Y-91466295D02*
X138142742Y-91609152D01*
X138142742Y-91609152D02*
X138095123Y-91704390D01*
X138095123Y-91704390D02*
X138047504Y-91752009D01*
X138047504Y-91752009D02*
X137952266Y-91799628D01*
X137952266Y-91799628D02*
X137571314Y-91799628D01*
X138523695Y-91371057D02*
X138571314Y-91323438D01*
X138571314Y-91323438D02*
X138666552Y-91275819D01*
X138666552Y-91275819D02*
X138904647Y-91275819D01*
X138904647Y-91275819D02*
X138999885Y-91323438D01*
X138999885Y-91323438D02*
X139047504Y-91371057D01*
X139047504Y-91371057D02*
X139095123Y-91466295D01*
X139095123Y-91466295D02*
X139095123Y-91561533D01*
X139095123Y-91561533D02*
X139047504Y-91704390D01*
X139047504Y-91704390D02*
X138476076Y-92275819D01*
X138476076Y-92275819D02*
X139095123Y-92275819D01*
X139714171Y-91275819D02*
X139809409Y-91275819D01*
X139809409Y-91275819D02*
X139904647Y-91323438D01*
X139904647Y-91323438D02*
X139952266Y-91371057D01*
X139952266Y-91371057D02*
X139999885Y-91466295D01*
X139999885Y-91466295D02*
X140047504Y-91656771D01*
X140047504Y-91656771D02*
X140047504Y-91894866D01*
X140047504Y-91894866D02*
X139999885Y-92085342D01*
X139999885Y-92085342D02*
X139952266Y-92180580D01*
X139952266Y-92180580D02*
X139904647Y-92228200D01*
X139904647Y-92228200D02*
X139809409Y-92275819D01*
X139809409Y-92275819D02*
X139714171Y-92275819D01*
X139714171Y-92275819D02*
X139618933Y-92228200D01*
X139618933Y-92228200D02*
X139571314Y-92180580D01*
X139571314Y-92180580D02*
X139523695Y-92085342D01*
X139523695Y-92085342D02*
X139476076Y-91894866D01*
X139476076Y-91894866D02*
X139476076Y-91656771D01*
X139476076Y-91656771D02*
X139523695Y-91466295D01*
X139523695Y-91466295D02*
X139571314Y-91371057D01*
X139571314Y-91371057D02*
X139618933Y-91323438D01*
X139618933Y-91323438D02*
X139714171Y-91275819D01*
X147396295Y-72657619D02*
X147396295Y-73467142D01*
X147396295Y-73467142D02*
X147443914Y-73562380D01*
X147443914Y-73562380D02*
X147491533Y-73610000D01*
X147491533Y-73610000D02*
X147586771Y-73657619D01*
X147586771Y-73657619D02*
X147777247Y-73657619D01*
X147777247Y-73657619D02*
X147872485Y-73610000D01*
X147872485Y-73610000D02*
X147920104Y-73562380D01*
X147920104Y-73562380D02*
X147967723Y-73467142D01*
X147967723Y-73467142D02*
X147967723Y-72657619D01*
X148872485Y-72990952D02*
X148872485Y-73657619D01*
X148634390Y-72610000D02*
X148396295Y-73324285D01*
X148396295Y-73324285D02*
X149015342Y-73324285D01*
X141571742Y-110005019D02*
X141238409Y-109528828D01*
X141000314Y-110005019D02*
X141000314Y-109005019D01*
X141000314Y-109005019D02*
X141381266Y-109005019D01*
X141381266Y-109005019D02*
X141476504Y-109052638D01*
X141476504Y-109052638D02*
X141524123Y-109100257D01*
X141524123Y-109100257D02*
X141571742Y-109195495D01*
X141571742Y-109195495D02*
X141571742Y-109338352D01*
X141571742Y-109338352D02*
X141524123Y-109433590D01*
X141524123Y-109433590D02*
X141476504Y-109481209D01*
X141476504Y-109481209D02*
X141381266Y-109528828D01*
X141381266Y-109528828D02*
X141000314Y-109528828D01*
X142524123Y-110005019D02*
X141952695Y-110005019D01*
X142238409Y-110005019D02*
X142238409Y-109005019D01*
X142238409Y-109005019D02*
X142143171Y-109147876D01*
X142143171Y-109147876D02*
X142047933Y-109243114D01*
X142047933Y-109243114D02*
X141952695Y-109290733D01*
X142857457Y-109005019D02*
X143524123Y-109005019D01*
X143524123Y-109005019D02*
X143095552Y-110005019D01*
X179490019Y-87659933D02*
X180204304Y-87659933D01*
X180204304Y-87659933D02*
X180347161Y-87707552D01*
X180347161Y-87707552D02*
X180442400Y-87802790D01*
X180442400Y-87802790D02*
X180490019Y-87945647D01*
X180490019Y-87945647D02*
X180490019Y-88040885D01*
X180490019Y-86659933D02*
X180490019Y-87231361D01*
X180490019Y-86945647D02*
X179490019Y-86945647D01*
X179490019Y-86945647D02*
X179632876Y-87040885D01*
X179632876Y-87040885D02*
X179728114Y-87136123D01*
X179728114Y-87136123D02*
X179775733Y-87231361D01*
X141588742Y-108506419D02*
X141255409Y-108030228D01*
X141017314Y-108506419D02*
X141017314Y-107506419D01*
X141017314Y-107506419D02*
X141398266Y-107506419D01*
X141398266Y-107506419D02*
X141493504Y-107554038D01*
X141493504Y-107554038D02*
X141541123Y-107601657D01*
X141541123Y-107601657D02*
X141588742Y-107696895D01*
X141588742Y-107696895D02*
X141588742Y-107839752D01*
X141588742Y-107839752D02*
X141541123Y-107934990D01*
X141541123Y-107934990D02*
X141493504Y-107982609D01*
X141493504Y-107982609D02*
X141398266Y-108030228D01*
X141398266Y-108030228D02*
X141017314Y-108030228D01*
X142541123Y-108506419D02*
X141969695Y-108506419D01*
X142255409Y-108506419D02*
X142255409Y-107506419D01*
X142255409Y-107506419D02*
X142160171Y-107649276D01*
X142160171Y-107649276D02*
X142064933Y-107744514D01*
X142064933Y-107744514D02*
X141969695Y-107792133D01*
X143112552Y-107934990D02*
X143017314Y-107887371D01*
X143017314Y-107887371D02*
X142969695Y-107839752D01*
X142969695Y-107839752D02*
X142922076Y-107744514D01*
X142922076Y-107744514D02*
X142922076Y-107696895D01*
X142922076Y-107696895D02*
X142969695Y-107601657D01*
X142969695Y-107601657D02*
X143017314Y-107554038D01*
X143017314Y-107554038D02*
X143112552Y-107506419D01*
X143112552Y-107506419D02*
X143303028Y-107506419D01*
X143303028Y-107506419D02*
X143398266Y-107554038D01*
X143398266Y-107554038D02*
X143445885Y-107601657D01*
X143445885Y-107601657D02*
X143493504Y-107696895D01*
X143493504Y-107696895D02*
X143493504Y-107744514D01*
X143493504Y-107744514D02*
X143445885Y-107839752D01*
X143445885Y-107839752D02*
X143398266Y-107887371D01*
X143398266Y-107887371D02*
X143303028Y-107934990D01*
X143303028Y-107934990D02*
X143112552Y-107934990D01*
X143112552Y-107934990D02*
X143017314Y-107982609D01*
X143017314Y-107982609D02*
X142969695Y-108030228D01*
X142969695Y-108030228D02*
X142922076Y-108125466D01*
X142922076Y-108125466D02*
X142922076Y-108315942D01*
X142922076Y-108315942D02*
X142969695Y-108411180D01*
X142969695Y-108411180D02*
X143017314Y-108458800D01*
X143017314Y-108458800D02*
X143112552Y-108506419D01*
X143112552Y-108506419D02*
X143303028Y-108506419D01*
X143303028Y-108506419D02*
X143398266Y-108458800D01*
X143398266Y-108458800D02*
X143445885Y-108411180D01*
X143445885Y-108411180D02*
X143493504Y-108315942D01*
X143493504Y-108315942D02*
X143493504Y-108125466D01*
X143493504Y-108125466D02*
X143445885Y-108030228D01*
X143445885Y-108030228D02*
X143398266Y-107982609D01*
X143398266Y-107982609D02*
X143303028Y-107934990D01*
D11*
%TO.C,U6*%
X139673399Y-78814398D02*
X139343399Y-79054397D01*
X139343399Y-78574398D01*
X139673399Y-78814398D01*
G36*
X139673399Y-78814398D02*
G01*
X139343399Y-79054397D01*
X139343399Y-78574398D01*
X139673399Y-78814398D01*
G37*
X144698398Y-76114398D02*
X144698399Y-78064398D01*
X144698398Y-76114398D02*
X144698399Y-74164398D01*
X139578400Y-76114398D02*
X139578399Y-78064398D01*
X139578400Y-76114398D02*
X139578399Y-74164398D01*
%TO.C,R22*%
X129106664Y-97255000D02*
X128652536Y-97255000D01*
X129106664Y-95785000D02*
X128652536Y-95785000D01*
%TO.C,R21*%
X128652536Y-103176400D02*
X129106664Y-103176400D01*
X128652536Y-104646400D02*
X129106664Y-104646400D01*
%TO.C,Q4*%
X127217999Y-99997501D02*
X127218000Y-100647501D01*
X127217999Y-99997501D02*
X127218000Y-99347501D01*
X130338001Y-99997501D02*
X130338000Y-100647501D01*
X130338001Y-99997501D02*
X130338000Y-99347501D01*
X127268000Y-101160001D02*
X126938000Y-101400001D01*
X126938001Y-100920001D01*
X127268000Y-101160001D01*
G36*
X127268000Y-101160001D02*
G01*
X126938000Y-101400001D01*
X126938001Y-100920001D01*
X127268000Y-101160001D01*
G37*
%TO.C,Q1*%
X130338001Y-90299299D02*
X130338000Y-89649299D01*
X130338001Y-90299299D02*
X130338000Y-90949299D01*
X127217999Y-90299299D02*
X127218000Y-89649299D01*
X127217999Y-90299299D02*
X127218000Y-90949299D01*
X130617999Y-89376799D02*
X130288000Y-89136799D01*
X130618000Y-88896799D01*
X130617999Y-89376799D01*
G36*
X130617999Y-89376799D02*
G01*
X130288000Y-89136799D01*
X130618000Y-88896799D01*
X130617999Y-89376799D01*
G37*
%TO.C,C12*%
X129217053Y-94257800D02*
X128694547Y-94257800D01*
X129217053Y-92787800D02*
X128694547Y-92787800D01*
%TO.C,C11*%
X140376200Y-94673053D02*
X140376200Y-94150547D01*
X141846200Y-94673053D02*
X141846200Y-94150547D01*
%TO.C,J3*%
X174534200Y-71439000D02*
X174534200Y-71459000D01*
X174534200Y-78449001D02*
X174534200Y-78469000D01*
X174534200Y-78469000D02*
X175034200Y-78469000D01*
X175034199Y-71439000D02*
X174534200Y-71439000D01*
X175034200Y-78469000D02*
X175034199Y-71439000D01*
X176049200Y-79889000D02*
X179124200Y-79889000D01*
X179124200Y-70018999D02*
X176049200Y-70019000D01*
X179124200Y-79889000D02*
X179124200Y-70018999D01*
%TO.C,U7*%
X138531600Y-96627000D02*
X136581600Y-96627000D01*
X138531600Y-96627000D02*
X140481600Y-96627000D01*
X138531600Y-101747000D02*
X136581600Y-101747000D01*
X138531600Y-101747000D02*
X140481600Y-101747000D01*
X135831600Y-96722000D02*
X135591600Y-96392000D01*
X136071600Y-96392000D01*
X135831600Y-96722000D01*
G36*
X135831600Y-96722000D02*
G01*
X135591600Y-96392000D01*
X136071600Y-96392000D01*
X135831600Y-96722000D01*
G37*
%TO.C,K1*%
X152964800Y-94409600D02*
X152964800Y-101009600D01*
X152964800Y-94409600D02*
X172764800Y-94409600D01*
X152964800Y-103409600D02*
X152964800Y-110009600D01*
X157014800Y-102259600D02*
X156214800Y-102259600D01*
X157014800Y-102259600D02*
X157014800Y-105859600D01*
X157914800Y-108259600D02*
X160414800Y-108259600D01*
X158414800Y-100459600D02*
X162414800Y-100459600D01*
X158414800Y-104059600D02*
X158414800Y-100459600D01*
X160414800Y-96259600D02*
X157914800Y-96259600D01*
X160414800Y-96259600D02*
X160414800Y-100459600D01*
X160414800Y-104059600D02*
X160414800Y-108259600D01*
X162414800Y-100459600D02*
X162414800Y-104059600D01*
X162414800Y-104059600D02*
X158414800Y-100459600D01*
X162414800Y-104059600D02*
X158414800Y-104059600D01*
X163814800Y-102259600D02*
X163814800Y-105859600D01*
X163814800Y-102259600D02*
X165314800Y-102259600D01*
X163814800Y-105859600D02*
X157014800Y-105859600D01*
X165314800Y-102259600D02*
X169914800Y-99759600D01*
X168514800Y-98009600D02*
X168514800Y-100509600D01*
X168514800Y-106409600D02*
X168514800Y-103959600D01*
X172764800Y-94409600D02*
X172764800Y-110009600D01*
X172764800Y-110009600D02*
X152964800Y-110009600D01*
%TO.C,R8*%
X153735264Y-91162200D02*
X153281136Y-91162200D01*
X153735264Y-92632200D02*
X153281136Y-92632200D01*
%TO.C,R25*%
X145095736Y-100487600D02*
X145549864Y-100487600D01*
X145095736Y-101957600D02*
X145549864Y-101957600D01*
%TO.C,R9*%
X167527464Y-85879000D02*
X167073336Y-85879000D01*
X167527464Y-87349000D02*
X167073336Y-87349000D01*
%TO.C,R1*%
X154408136Y-83284600D02*
X154862264Y-83284600D01*
X154408136Y-84754600D02*
X154862264Y-84754600D01*
%TO.C,R19*%
X134535936Y-92787800D02*
X134990064Y-92787800D01*
X134535936Y-94257800D02*
X134990064Y-94257800D01*
%TO.C,R29*%
X171543736Y-80087800D02*
X171997864Y-80087800D01*
X171543736Y-81557800D02*
X171997864Y-81557800D01*
%TO.C,R28*%
X171654736Y-89587400D02*
X172108864Y-89587400D01*
X171654736Y-91057400D02*
X172108864Y-91057400D01*
%TO.C,R15*%
X136378936Y-105513200D02*
X136833064Y-105513200D01*
X136378936Y-106983200D02*
X136833064Y-106983200D01*
%TO.C,C1*%
X161985289Y-77208929D02*
X161836089Y-77059729D01*
X162013573Y-77180645D02*
X161816290Y-76983362D01*
X162041858Y-77152360D02*
X161799320Y-76909823D01*
X162070142Y-77124076D02*
X161785178Y-76839112D01*
X162098426Y-77095792D02*
X161773864Y-76771230D01*
X162126710Y-77067508D02*
X161763965Y-76704762D01*
X162154995Y-77039223D02*
X161756186Y-76640415D01*
X162183279Y-77010939D02*
X161750530Y-76578190D01*
X162211563Y-76982655D02*
X161745580Y-76516671D01*
X162239847Y-76954370D02*
X161742751Y-76457274D01*
X162268132Y-76926086D02*
X161741337Y-76399292D01*
X162296416Y-76897802D02*
X161741337Y-76342723D01*
X162324700Y-76869518D02*
X161742044Y-76286862D01*
X162352985Y-76841233D02*
X161744166Y-76232414D01*
X162381269Y-76812949D02*
X161747701Y-76179381D01*
X162409553Y-76784665D02*
X161751944Y-76127056D01*
X162437837Y-76756381D02*
X161756894Y-76075437D01*
X162466122Y-76728096D02*
X161762550Y-76024525D01*
X162494406Y-76699812D02*
X161769621Y-75975028D01*
X162522690Y-76671528D02*
X161777400Y-75926237D01*
X162550974Y-76643243D02*
X161785885Y-75878154D01*
X162579259Y-76614959D02*
X161795077Y-75830778D01*
X162607543Y-76586675D02*
X161804977Y-75784109D01*
X162635827Y-76558391D02*
X161816290Y-75738854D01*
X162664112Y-76530106D02*
X161827604Y-75693599D01*
X162692396Y-76501822D02*
X161839625Y-75649051D01*
X162694517Y-78370705D02*
X162294295Y-77970483D01*
X162720680Y-76473538D02*
X161852353Y-75605211D01*
X162748964Y-76445254D02*
X161865788Y-75562077D01*
X162777249Y-76416969D02*
X161879930Y-75519651D01*
X162805533Y-76388685D02*
X161894072Y-75477224D01*
X162833817Y-76360401D02*
X161909629Y-75436212D01*
X162862101Y-76332116D02*
X161925185Y-75395200D01*
X162888264Y-78507884D02*
X162157116Y-77776736D01*
X162890386Y-76303832D02*
X161941448Y-75354895D01*
X162918670Y-76275548D02*
X161958419Y-75315297D01*
X162946954Y-76247264D02*
X161976097Y-75276406D01*
X162975239Y-76218979D02*
X161993774Y-75237515D01*
X163003523Y-76190695D02*
X162012159Y-75199331D01*
X163029686Y-78592737D02*
X162072263Y-77635314D01*
X163031807Y-76162411D02*
X162031251Y-75161855D01*
X163060091Y-76134127D02*
X162051050Y-75125085D01*
X163088376Y-76105842D02*
X162070849Y-75088316D01*
X163116660Y-76077558D02*
X162091355Y-75052253D01*
X163144944Y-76049274D02*
X162111861Y-75016191D01*
X163148480Y-78654962D02*
X162010038Y-77516520D01*
X163173228Y-76020989D02*
X162133781Y-74981543D01*
X163201513Y-75992705D02*
X162155702Y-74946894D01*
X163229797Y-75964421D02*
X162177622Y-74912246D01*
X163253839Y-78703753D02*
X161961247Y-77411161D01*
X163258081Y-75936137D02*
X162200249Y-74878305D01*
X163286365Y-75907852D02*
X162223584Y-74845071D01*
X163314650Y-75879568D02*
X162247626Y-74812544D01*
X163342934Y-75851284D02*
X162271667Y-74780017D01*
X163350712Y-78744058D02*
X161920942Y-77314288D01*
X163371218Y-75823000D02*
X162296416Y-74748197D01*
X163399503Y-75794715D02*
X162321165Y-74716377D01*
X163427787Y-75766431D02*
X162346621Y-74685265D01*
X163440515Y-78777292D02*
X161887708Y-77224485D01*
X163524660Y-78804869D02*
X161860131Y-77140340D01*
X163605271Y-78828911D02*
X163456071Y-78679711D01*
X163681638Y-78848710D02*
X163484355Y-78651427D01*
X163755177Y-78865680D02*
X163512640Y-78623142D01*
X163825888Y-78879822D02*
X163540924Y-78594858D01*
X163893770Y-78891136D02*
X163569208Y-78566574D01*
X163960238Y-78901035D02*
X163597492Y-78538290D01*
X164024585Y-78908814D02*
X163625777Y-78510005D01*
X164086810Y-78914470D02*
X163654061Y-78481721D01*
X164148329Y-78919420D02*
X163682345Y-78453437D01*
X164207726Y-78922249D02*
X163710630Y-78425153D01*
X164265708Y-78923663D02*
X163738914Y-78396868D01*
X164322277Y-78923663D02*
X163767198Y-78368584D01*
X164378138Y-78922956D02*
X163795482Y-78340300D01*
X164432586Y-78920834D02*
X163823767Y-78312015D01*
X164485619Y-78917299D02*
X163852051Y-78283731D01*
X164537944Y-78913056D02*
X163880335Y-78255447D01*
X164589563Y-78908106D02*
X163908619Y-78227163D01*
X164640475Y-78902450D02*
X163936904Y-78198878D01*
X164689972Y-78895379D02*
X163965188Y-78170594D01*
X164738763Y-78887600D02*
X163993472Y-78142310D01*
X164786846Y-78879115D02*
X164021757Y-78114026D01*
X164834222Y-78869923D02*
X164050041Y-78085741D01*
X164880891Y-78860023D02*
X164078325Y-78057457D01*
X164926146Y-78848710D02*
X164106609Y-78029173D01*
X164971401Y-78837396D02*
X164134894Y-78000888D01*
X165015949Y-78825375D02*
X164163178Y-77972604D01*
X165059789Y-78812647D02*
X164191462Y-77944320D01*
X165102923Y-78799212D02*
X164219746Y-77916036D01*
X165145349Y-78785070D02*
X164248031Y-77887751D01*
X165187776Y-78770928D02*
X164276315Y-77859467D01*
X165228788Y-78755371D02*
X164304599Y-77831183D01*
X165269800Y-78739815D02*
X164332884Y-77802899D01*
X165310105Y-78723552D02*
X164361168Y-77774614D01*
X165349703Y-78706581D02*
X164389452Y-77746330D01*
X165388594Y-78688903D02*
X164417736Y-77718046D01*
X165427485Y-78671226D02*
X164446021Y-77689761D01*
X165465669Y-78652841D02*
X164474305Y-77661477D01*
X165503145Y-78633749D02*
X164502589Y-77633193D01*
X165539915Y-78613950D02*
X164530873Y-77604909D01*
X165576684Y-78594151D02*
X164559158Y-77576624D01*
X165612747Y-78573645D02*
X164587442Y-77548340D01*
X165648809Y-78553139D02*
X164615726Y-77520056D01*
X165683457Y-78531219D02*
X164644011Y-77491772D01*
X165718106Y-78509298D02*
X164672295Y-77463487D01*
X165752754Y-78487378D02*
X164700579Y-77435203D01*
X165786695Y-78464751D02*
X164728863Y-77406919D01*
X165819929Y-78441416D02*
X164757148Y-77378635D01*
X165852456Y-78417374D02*
X164785432Y-77350350D01*
X165884983Y-78393333D02*
X164813716Y-77322066D01*
X165916803Y-78368584D02*
X164842000Y-77293782D01*
X165948623Y-78343835D02*
X164870285Y-77265497D01*
X165979735Y-78318379D02*
X164898569Y-77237213D01*
X166010141Y-78292216D02*
X162372784Y-74654859D01*
X166040546Y-78266054D02*
X162398946Y-74624454D01*
X166070245Y-78239183D02*
X162425817Y-74594755D01*
X166099943Y-78212313D02*
X162452687Y-74565057D01*
X166128935Y-78184736D02*
X162480264Y-74536065D01*
X166157219Y-78156452D02*
X162508548Y-74507781D01*
X167359141Y-75391824D02*
X167005588Y-75745377D01*
X167359141Y-75745377D02*
X167005588Y-75391824D01*
X166952884Y-76332116D02*
G75*
G02*
X161712884Y-76332116I-2620000J0D01*
G01*
X161712884Y-76332116D02*
G75*
G02*
X166952884Y-76332116I2620000J0D01*
G01*
%TO.C,R27*%
X172099464Y-87479200D02*
X171645336Y-87479200D01*
X172099464Y-88949200D02*
X171645336Y-88949200D01*
%TO.C,R13*%
X137339404Y-77741535D02*
X137339404Y-78195663D01*
X138809404Y-77741535D02*
X138809404Y-78195663D01*
%TO.C,R5*%
X167959264Y-89562000D02*
X167505136Y-89562000D01*
X167959264Y-91032000D02*
X167505136Y-91032000D01*
%TO.C,Q3*%
X145322800Y-103672200D02*
X144672800Y-103672200D01*
X145322800Y-103672200D02*
X145972800Y-103672200D01*
X145322800Y-106792200D02*
X144672800Y-106792200D01*
X145322800Y-106792200D02*
X145972800Y-106792200D01*
X144160300Y-103722200D02*
X143920300Y-103392200D01*
X144400300Y-103392200D01*
X144160300Y-103722200D01*
G36*
X144160300Y-103722200D02*
G01*
X143920300Y-103392200D01*
X144400300Y-103392200D01*
X144160300Y-103722200D01*
G37*
%TO.C,J2*%
X174551000Y-96129200D02*
X174551000Y-96149200D01*
X174551000Y-103139201D02*
X174551000Y-103159200D01*
X174551000Y-103159200D02*
X175051000Y-103159200D01*
X175050999Y-96129200D02*
X174551000Y-96129200D01*
X175051000Y-103159200D02*
X175050999Y-96129200D01*
X176066000Y-104579200D02*
X179141000Y-104579200D01*
X179141000Y-94709199D02*
X176066000Y-94709200D01*
X179141000Y-104579200D02*
X179141000Y-94709199D01*
%TO.C,R2*%
X154836864Y-81103800D02*
X154382736Y-81103800D01*
X154836864Y-82573800D02*
X154382736Y-82573800D01*
%TO.C,R4*%
X166758537Y-80443400D02*
X167212665Y-80443400D01*
X166758537Y-81913400D02*
X167212665Y-81913400D01*
%TO.C,R26*%
X171959600Y-84005664D02*
X171959600Y-83551536D01*
X173429600Y-84005664D02*
X173429600Y-83551536D01*
%TO.C,R10*%
X135053400Y-74131661D02*
X135053400Y-73677533D01*
X136523400Y-74131661D02*
X136523400Y-73677533D01*
%TO.C,R14*%
X138177600Y-88949264D02*
X138177600Y-88495136D01*
X139647600Y-88949264D02*
X139647600Y-88495136D01*
%TO.C,R6*%
X167537136Y-91797200D02*
X167991264Y-91797200D01*
X167537136Y-93267200D02*
X167991264Y-93267200D01*
%TO.C,R7*%
X153281136Y-88749200D02*
X153735264Y-88749200D01*
X153281136Y-90219200D02*
X153735264Y-90219200D01*
%TO.C,D1*%
X148740000Y-100089600D02*
X148740000Y-104329600D01*
X148740000Y-104329600D02*
X150980000Y-104329600D01*
X149860000Y-99439600D02*
X149860000Y-100089599D01*
X149860000Y-104979601D02*
X149860000Y-104329600D01*
X150980000Y-100089600D02*
X148740000Y-100089600D01*
X150980000Y-100689600D02*
X148740000Y-100689600D01*
X150980000Y-100809600D02*
X148740000Y-100809600D01*
X150980000Y-100929600D02*
X148740000Y-100929600D01*
X150980000Y-104329600D02*
X150980000Y-100089600D01*
%TO.C,R11*%
X135028000Y-77741533D02*
X135028000Y-78195661D01*
X136498000Y-77741533D02*
X136498000Y-78195661D01*
%TO.C,RV2*%
X134926603Y-80283999D02*
X134926603Y-85333999D01*
X134926603Y-80283999D02*
X144676603Y-80283999D01*
X134926603Y-85333999D02*
X144676603Y-85333999D01*
X144676603Y-80283999D02*
X144676603Y-85333999D01*
%TO.C,R12*%
X137339400Y-74131664D02*
X137339400Y-73677536D01*
X138809400Y-74131664D02*
X138809400Y-73677536D01*
%TO.C,C2*%
X169002199Y-76899400D02*
X167499200Y-76899400D01*
X169002199Y-77059400D02*
X167532200Y-77059401D01*
X169002199Y-77499400D02*
X167677200Y-77499400D01*
X169002199Y-77939400D02*
X167920200Y-77939400D01*
X169002199Y-78379400D02*
X168299199Y-78379400D01*
X169002200Y-76699400D02*
X167473200Y-76699400D01*
X169002200Y-76739399D02*
X167477200Y-76739399D01*
X169002200Y-76779400D02*
X167482200Y-76779400D01*
X169002200Y-76819400D02*
X167487200Y-76819400D01*
X169002200Y-76859400D02*
X167493200Y-76859400D01*
X169002200Y-76939400D02*
X167506200Y-76939400D01*
X169002200Y-76979400D02*
X167514200Y-76979400D01*
X169002200Y-77019400D02*
X167523200Y-77019400D01*
X169002200Y-77099400D02*
X167541200Y-77099400D01*
X169002200Y-77139400D02*
X167552200Y-77139400D01*
X169002200Y-77179399D02*
X167563200Y-77179400D01*
X169002200Y-77219401D02*
X167575200Y-77219400D01*
X169002200Y-77259400D02*
X167587200Y-77259400D01*
X169002200Y-77299400D02*
X167600200Y-77299400D01*
X169002200Y-77339399D02*
X167614200Y-77339400D01*
X169002200Y-77379400D02*
X167629200Y-77379400D01*
X169002200Y-77419400D02*
X167644200Y-77419400D01*
X169002200Y-77459400D02*
X167660200Y-77459400D01*
X169002200Y-77539400D02*
X167695200Y-77539400D01*
X169002200Y-77579400D02*
X167713200Y-77579400D01*
X169002200Y-77619400D02*
X167733200Y-77619400D01*
X169002200Y-77659401D02*
X167753200Y-77659400D01*
X169002200Y-77699400D02*
X167774200Y-77699400D01*
X169002200Y-77739400D02*
X167796200Y-77739400D01*
X169002200Y-77779399D02*
X167819200Y-77779400D01*
X169002200Y-77819400D02*
X167843200Y-77819400D01*
X169002200Y-77859400D02*
X167867200Y-77859400D01*
X169002200Y-77899400D02*
X167893200Y-77899400D01*
X169002200Y-77979400D02*
X167948200Y-77979400D01*
X169002200Y-78019400D02*
X167977200Y-78019401D01*
X169002200Y-78059400D02*
X168007200Y-78059400D01*
X169002200Y-78099401D02*
X168039201Y-78099400D01*
X169002200Y-78139400D02*
X168072201Y-78139400D01*
X169002200Y-78179400D02*
X168106200Y-78179400D01*
X169002200Y-78219399D02*
X168141200Y-78219399D01*
X169002200Y-78259400D02*
X168178200Y-78259400D01*
X169002200Y-78299400D02*
X168217200Y-78299400D01*
X169002200Y-78339400D02*
X168257200Y-78339400D01*
X169002200Y-78419400D02*
X168343200Y-78419400D01*
X169002200Y-78459400D02*
X168390201Y-78459400D01*
X169002200Y-78499400D02*
X168438200Y-78499400D01*
X169002200Y-78539401D02*
X168489200Y-78539400D01*
X169002200Y-78579400D02*
X168543200Y-78579400D01*
X169002200Y-78619400D02*
X168599200Y-78619400D01*
X169002200Y-78659399D02*
X168659200Y-78659400D01*
X169002200Y-78699400D02*
X168723200Y-78699400D01*
X169002200Y-78739400D02*
X168791199Y-78739400D01*
X170325200Y-79059400D02*
X169759200Y-79059400D01*
X170559200Y-79019400D02*
X169525200Y-79019400D01*
X170719200Y-78979400D02*
X169365200Y-78979400D01*
X170847200Y-78939400D02*
X169237200Y-78939400D01*
X170956201Y-78899400D02*
X169128199Y-78899400D01*
X171053200Y-78859400D02*
X169031200Y-78859400D01*
X171140200Y-78819400D02*
X168944200Y-78819400D01*
X171219200Y-78779400D02*
X168865200Y-78779400D01*
X171293201Y-78739400D02*
X171082200Y-78739400D01*
X171361200Y-78699400D02*
X171082200Y-78699400D01*
X171425200Y-78659400D02*
X171082200Y-78659399D01*
X171485200Y-78619400D02*
X171082200Y-78619400D01*
X171517200Y-73654626D02*
X171517200Y-74154625D01*
X171541200Y-78579400D02*
X171082200Y-78579400D01*
X171595200Y-78539400D02*
X171082200Y-78539401D01*
X171646200Y-78499400D02*
X171082200Y-78499400D01*
X171694199Y-78459400D02*
X171082200Y-78459400D01*
X171741200Y-78419400D02*
X171082200Y-78419400D01*
X171767200Y-73904625D02*
X171267200Y-73904625D01*
X171785201Y-78379400D02*
X171082201Y-78379400D01*
X171827200Y-78339400D02*
X171082200Y-78339400D01*
X171867200Y-78299400D02*
X171082200Y-78299400D01*
X171906200Y-78259400D02*
X171082200Y-78259400D01*
X171943200Y-78219399D02*
X171082200Y-78219399D01*
X171978200Y-78179400D02*
X171082200Y-78179400D01*
X172012199Y-78139400D02*
X171082200Y-78139400D01*
X172045199Y-78099400D02*
X171082200Y-78099401D01*
X172077200Y-78059400D02*
X171082200Y-78059400D01*
X172107200Y-78019401D02*
X171082200Y-78019400D01*
X172136200Y-77979400D02*
X171082200Y-77979400D01*
X172164200Y-77939400D02*
X171082201Y-77939400D01*
X172191200Y-77899400D02*
X171082200Y-77899400D01*
X172217200Y-77859400D02*
X171082200Y-77859400D01*
X172241200Y-77819400D02*
X171082200Y-77819400D01*
X172265200Y-77779400D02*
X171082200Y-77779399D01*
X172288200Y-77739400D02*
X171082200Y-77739400D01*
X172310200Y-77699400D02*
X171082200Y-77699400D01*
X172331200Y-77659400D02*
X171082200Y-77659401D01*
X172351200Y-77619400D02*
X171082200Y-77619400D01*
X172371200Y-77579400D02*
X171082200Y-77579400D01*
X172389200Y-77539400D02*
X171082200Y-77539400D01*
X172407200Y-77499400D02*
X171082201Y-77499400D01*
X172424200Y-77459400D02*
X171082200Y-77459400D01*
X172440200Y-77419400D02*
X171082200Y-77419400D01*
X172455200Y-77379400D02*
X171082200Y-77379400D01*
X172470200Y-77339400D02*
X171082200Y-77339399D01*
X172484200Y-77299400D02*
X171082200Y-77299400D01*
X172497200Y-77259400D02*
X171082200Y-77259400D01*
X172509200Y-77219400D02*
X171082200Y-77219401D01*
X172521200Y-77179400D02*
X171082200Y-77179399D01*
X172532200Y-77139400D02*
X171082200Y-77139400D01*
X172543200Y-77099400D02*
X171082200Y-77099400D01*
X172552200Y-77059401D02*
X171082201Y-77059400D01*
X172561200Y-77019400D02*
X171082200Y-77019400D01*
X172570200Y-76979400D02*
X171082200Y-76979400D01*
X172578200Y-76939400D02*
X171082200Y-76939400D01*
X172585200Y-76899400D02*
X171082201Y-76899400D01*
X172591200Y-76859400D02*
X171082200Y-76859400D01*
X172597200Y-76819400D02*
X171082200Y-76819400D01*
X172602200Y-76779400D02*
X171082200Y-76779400D01*
X172607200Y-76739399D02*
X171082200Y-76739399D01*
X172611200Y-76699400D02*
X171082200Y-76699400D01*
X172614200Y-76659400D02*
X167470200Y-76659400D01*
X172617200Y-76619401D02*
X167467200Y-76619401D01*
X172619200Y-76579400D02*
X167465200Y-76579400D01*
X172621199Y-76539400D02*
X167463201Y-76539400D01*
X172622200Y-76459400D02*
X167462200Y-76459400D01*
X172622200Y-76499400D02*
X167462200Y-76499400D01*
X172662201Y-76459399D02*
G75*
G02*
X167422199Y-76459399I-2620001J0D01*
G01*
X167422199Y-76459399D02*
G75*
G02*
X172662201Y-76459399I2620001J0D01*
G01*
%TO.C,R16*%
X136807664Y-102846200D02*
X136353536Y-102846200D01*
X136807664Y-104316200D02*
X136353536Y-104316200D01*
%TO.C,U1*%
X160945600Y-81742601D02*
X158995600Y-81742600D01*
X160945600Y-81742601D02*
X162895600Y-81742600D01*
X160945600Y-86862599D02*
X158995600Y-86862600D01*
X160945600Y-86862599D02*
X162895600Y-86862600D01*
X163885599Y-87097600D02*
X163405600Y-87097600D01*
X163645600Y-86767600D01*
X163885599Y-87097600D01*
G36*
X163885599Y-87097600D02*
G01*
X163405600Y-87097600D01*
X163645600Y-86767600D01*
X163885599Y-87097600D01*
G37*
%TO.C,U3*%
X142419400Y-90320500D02*
X141619400Y-90320500D01*
X142419400Y-90320500D02*
X143219400Y-90320500D01*
X143419400Y-87100500D02*
X141619400Y-87100500D01*
X143959400Y-90600500D02*
X143479400Y-90600500D01*
X143719401Y-90270500D01*
X143959400Y-90600500D01*
G36*
X143959400Y-90600500D02*
G01*
X143479400Y-90600500D01*
X143719401Y-90270500D01*
X143959400Y-90600500D01*
G37*
%TO.C,R24*%
X145095736Y-97537600D02*
X145549864Y-97537600D01*
X145095736Y-99007600D02*
X145549864Y-99007600D01*
%TO.C,RV1*%
X134926604Y-66339399D02*
X134926604Y-71389399D01*
X134926604Y-66339399D02*
X144676604Y-66339399D01*
X134926604Y-71389399D02*
X144676604Y-71389399D01*
X144676604Y-66339399D02*
X144676604Y-71389399D01*
%TO.C,R3*%
X167222664Y-82627800D02*
X166768536Y-82627800D01*
X167222664Y-84097800D02*
X166768536Y-84097800D01*
%TO.C,U2*%
X160956800Y-87864000D02*
X159006800Y-87864000D01*
X160956800Y-87864000D02*
X162906800Y-87864000D01*
X160956800Y-92984000D02*
X159006800Y-92984000D01*
X160956800Y-92984000D02*
X162906800Y-92984000D01*
X158256800Y-87959000D02*
X158016800Y-87629000D01*
X158496800Y-87629000D01*
X158256800Y-87959000D01*
G36*
X158256800Y-87959000D02*
G01*
X158016800Y-87629000D01*
X158496800Y-87629000D01*
X158256800Y-87959000D01*
G37*
%TO.C,C10*%
X134951800Y-88406247D02*
X134951800Y-88928753D01*
X136421800Y-88406247D02*
X136421800Y-88928753D01*
%TO.C,R20*%
X138253800Y-94184736D02*
X138253800Y-94638864D01*
X139723800Y-94184736D02*
X139723800Y-94638864D01*
%TO.C,U4*%
X147334401Y-77622799D02*
X149134401Y-77622799D01*
X148334401Y-74402799D02*
X147534401Y-74402799D01*
X148334401Y-74402799D02*
X149134401Y-74402799D01*
X147034400Y-74452799D02*
X146794401Y-74122799D01*
X147274401Y-74122799D01*
X147034400Y-74452799D01*
G36*
X147034400Y-74452799D02*
G01*
X146794401Y-74122799D01*
X147274401Y-74122799D01*
X147034400Y-74452799D01*
G37*
%TO.C,R17*%
X141139936Y-106856200D02*
X141594064Y-106856200D01*
X141139936Y-105386200D02*
X141594064Y-105386200D01*
%TO.C,J1*%
X174534200Y-83811600D02*
X174534200Y-83831600D01*
X174534200Y-90821601D02*
X174534200Y-90841600D01*
X174534200Y-90841600D02*
X175034200Y-90841600D01*
X175034199Y-83811600D02*
X174534200Y-83811600D01*
X175034200Y-90841600D02*
X175034199Y-83811600D01*
X176049200Y-92261600D02*
X179124200Y-92261600D01*
X179124200Y-82391599D02*
X176049200Y-82391600D01*
X179124200Y-92261600D02*
X179124200Y-82391599D01*
%TO.C,R18*%
X141594064Y-104138400D02*
X141139936Y-104138400D01*
X141594064Y-102668400D02*
X141139936Y-102668400D01*
%TD*%
M02*
