%TF.GenerationSoftware,KiCad,Pcbnew,9.0.1*%
%TF.CreationDate,2026-07-20T13:33:29+08:00*%
%TF.ProjectId,BSPD,42535044-2e6b-4696-9361-645f70636258,rev?*%
%TF.SameCoordinates,Original*%
%TF.FileFunction,Legend,Bot*%
%TF.FilePolarity,Positive*%
%FSLAX46Y46*%
G04 Gerber Fmt 4.6, Leading zero omitted, Abs format (unit mm)*
G04 Created by KiCad (PCBNEW 9.0.1) date 2026-07-20 13:33:29*
%MOMM*%
%LPD*%
G01*
G04 APERTURE LIST*
%ADD10C,0.100000*%
%ADD11C,0.150000*%
%ADD12C,0.120000*%
G04 APERTURE END LIST*
D10*
X179387038Y-72379493D02*
X179339419Y-72284255D01*
X179339419Y-72284255D02*
X179339419Y-72141398D01*
X179339419Y-72141398D02*
X179387038Y-71998541D01*
X179387038Y-71998541D02*
X179482276Y-71903303D01*
X179482276Y-71903303D02*
X179577514Y-71855684D01*
X179577514Y-71855684D02*
X179767990Y-71808065D01*
X179767990Y-71808065D02*
X179910847Y-71808065D01*
X179910847Y-71808065D02*
X180101323Y-71855684D01*
X180101323Y-71855684D02*
X180196561Y-71903303D01*
X180196561Y-71903303D02*
X180291800Y-71998541D01*
X180291800Y-71998541D02*
X180339419Y-72141398D01*
X180339419Y-72141398D02*
X180339419Y-72236636D01*
X180339419Y-72236636D02*
X180291800Y-72379493D01*
X180291800Y-72379493D02*
X180244180Y-72427112D01*
X180244180Y-72427112D02*
X179910847Y-72427112D01*
X179910847Y-72427112D02*
X179910847Y-72236636D01*
X180339419Y-72855684D02*
X179339419Y-72855684D01*
X179339419Y-72855684D02*
X180339419Y-73427112D01*
X180339419Y-73427112D02*
X179339419Y-73427112D01*
X180339419Y-73903303D02*
X179339419Y-73903303D01*
X179339419Y-73903303D02*
X179339419Y-74141398D01*
X179339419Y-74141398D02*
X179387038Y-74284255D01*
X179387038Y-74284255D02*
X179482276Y-74379493D01*
X179482276Y-74379493D02*
X179577514Y-74427112D01*
X179577514Y-74427112D02*
X179767990Y-74474731D01*
X179767990Y-74474731D02*
X179910847Y-74474731D01*
X179910847Y-74474731D02*
X180101323Y-74427112D01*
X180101323Y-74427112D02*
X180196561Y-74379493D01*
X180196561Y-74379493D02*
X180291800Y-74284255D01*
X180291800Y-74284255D02*
X180339419Y-74141398D01*
X180339419Y-74141398D02*
X180339419Y-73903303D01*
X180241000Y-83746065D02*
X180288619Y-83888922D01*
X180288619Y-83888922D02*
X180288619Y-84127017D01*
X180288619Y-84127017D02*
X180241000Y-84222255D01*
X180241000Y-84222255D02*
X180193380Y-84269874D01*
X180193380Y-84269874D02*
X180098142Y-84317493D01*
X180098142Y-84317493D02*
X180002904Y-84317493D01*
X180002904Y-84317493D02*
X179907666Y-84269874D01*
X179907666Y-84269874D02*
X179860047Y-84222255D01*
X179860047Y-84222255D02*
X179812428Y-84127017D01*
X179812428Y-84127017D02*
X179764809Y-83936541D01*
X179764809Y-83936541D02*
X179717190Y-83841303D01*
X179717190Y-83841303D02*
X179669571Y-83793684D01*
X179669571Y-83793684D02*
X179574333Y-83746065D01*
X179574333Y-83746065D02*
X179479095Y-83746065D01*
X179479095Y-83746065D02*
X179383857Y-83793684D01*
X179383857Y-83793684D02*
X179336238Y-83841303D01*
X179336238Y-83841303D02*
X179288619Y-83936541D01*
X179288619Y-83936541D02*
X179288619Y-84174636D01*
X179288619Y-84174636D02*
X179336238Y-84317493D01*
X180288619Y-84746065D02*
X179288619Y-84746065D01*
X179336238Y-85746064D02*
X179288619Y-85650826D01*
X179288619Y-85650826D02*
X179288619Y-85507969D01*
X179288619Y-85507969D02*
X179336238Y-85365112D01*
X179336238Y-85365112D02*
X179431476Y-85269874D01*
X179431476Y-85269874D02*
X179526714Y-85222255D01*
X179526714Y-85222255D02*
X179717190Y-85174636D01*
X179717190Y-85174636D02*
X179860047Y-85174636D01*
X179860047Y-85174636D02*
X180050523Y-85222255D01*
X180050523Y-85222255D02*
X180145761Y-85269874D01*
X180145761Y-85269874D02*
X180241000Y-85365112D01*
X180241000Y-85365112D02*
X180288619Y-85507969D01*
X180288619Y-85507969D02*
X180288619Y-85603207D01*
X180288619Y-85603207D02*
X180241000Y-85746064D01*
X180241000Y-85746064D02*
X180193380Y-85793683D01*
X180193380Y-85793683D02*
X179860047Y-85793683D01*
X179860047Y-85793683D02*
X179860047Y-85603207D01*
X180288619Y-86746064D02*
X180288619Y-86174636D01*
X180288619Y-86460350D02*
X179288619Y-86460350D01*
X179288619Y-86460350D02*
X179431476Y-86365112D01*
X179431476Y-86365112D02*
X179526714Y-86269874D01*
X179526714Y-86269874D02*
X179574333Y-86174636D01*
X180364819Y-76214893D02*
X180364819Y-75643465D01*
X180364819Y-75929179D02*
X179364819Y-75929179D01*
X179364819Y-75929179D02*
X179507676Y-75833941D01*
X179507676Y-75833941D02*
X179602914Y-75738703D01*
X179602914Y-75738703D02*
X179650533Y-75643465D01*
X179460057Y-76595846D02*
X179412438Y-76643465D01*
X179412438Y-76643465D02*
X179364819Y-76738703D01*
X179364819Y-76738703D02*
X179364819Y-76976798D01*
X179364819Y-76976798D02*
X179412438Y-77072036D01*
X179412438Y-77072036D02*
X179460057Y-77119655D01*
X179460057Y-77119655D02*
X179555295Y-77167274D01*
X179555295Y-77167274D02*
X179650533Y-77167274D01*
X179650533Y-77167274D02*
X179793390Y-77119655D01*
X179793390Y-77119655D02*
X180364819Y-76548227D01*
X180364819Y-76548227D02*
X180364819Y-77167274D01*
X179364819Y-77452989D02*
X180364819Y-77786322D01*
X180364819Y-77786322D02*
X179364819Y-78119655D01*
X180444200Y-96877865D02*
X180491819Y-97020722D01*
X180491819Y-97020722D02*
X180491819Y-97258817D01*
X180491819Y-97258817D02*
X180444200Y-97354055D01*
X180444200Y-97354055D02*
X180396580Y-97401674D01*
X180396580Y-97401674D02*
X180301342Y-97449293D01*
X180301342Y-97449293D02*
X180206104Y-97449293D01*
X180206104Y-97449293D02*
X180110866Y-97401674D01*
X180110866Y-97401674D02*
X180063247Y-97354055D01*
X180063247Y-97354055D02*
X180015628Y-97258817D01*
X180015628Y-97258817D02*
X179968009Y-97068341D01*
X179968009Y-97068341D02*
X179920390Y-96973103D01*
X179920390Y-96973103D02*
X179872771Y-96925484D01*
X179872771Y-96925484D02*
X179777533Y-96877865D01*
X179777533Y-96877865D02*
X179682295Y-96877865D01*
X179682295Y-96877865D02*
X179587057Y-96925484D01*
X179587057Y-96925484D02*
X179539438Y-96973103D01*
X179539438Y-96973103D02*
X179491819Y-97068341D01*
X179491819Y-97068341D02*
X179491819Y-97306436D01*
X179491819Y-97306436D02*
X179539438Y-97449293D01*
X180396580Y-98449293D02*
X180444200Y-98401674D01*
X180444200Y-98401674D02*
X180491819Y-98258817D01*
X180491819Y-98258817D02*
X180491819Y-98163579D01*
X180491819Y-98163579D02*
X180444200Y-98020722D01*
X180444200Y-98020722D02*
X180348961Y-97925484D01*
X180348961Y-97925484D02*
X180253723Y-97877865D01*
X180253723Y-97877865D02*
X180063247Y-97830246D01*
X180063247Y-97830246D02*
X179920390Y-97830246D01*
X179920390Y-97830246D02*
X179729914Y-97877865D01*
X179729914Y-97877865D02*
X179634676Y-97925484D01*
X179634676Y-97925484D02*
X179539438Y-98020722D01*
X179539438Y-98020722D02*
X179491819Y-98163579D01*
X179491819Y-98163579D02*
X179491819Y-98258817D01*
X179491819Y-98258817D02*
X179539438Y-98401674D01*
X179539438Y-98401674D02*
X179587057Y-98449293D01*
X180491819Y-99401674D02*
X180491819Y-98830246D01*
X180491819Y-99115960D02*
X179491819Y-99115960D01*
X179491819Y-99115960D02*
X179634676Y-99020722D01*
X179634676Y-99020722D02*
X179729914Y-98925484D01*
X179729914Y-98925484D02*
X179777533Y-98830246D01*
X180241000Y-87810065D02*
X180288619Y-87952922D01*
X180288619Y-87952922D02*
X180288619Y-88191017D01*
X180288619Y-88191017D02*
X180241000Y-88286255D01*
X180241000Y-88286255D02*
X180193380Y-88333874D01*
X180193380Y-88333874D02*
X180098142Y-88381493D01*
X180098142Y-88381493D02*
X180002904Y-88381493D01*
X180002904Y-88381493D02*
X179907666Y-88333874D01*
X179907666Y-88333874D02*
X179860047Y-88286255D01*
X179860047Y-88286255D02*
X179812428Y-88191017D01*
X179812428Y-88191017D02*
X179764809Y-88000541D01*
X179764809Y-88000541D02*
X179717190Y-87905303D01*
X179717190Y-87905303D02*
X179669571Y-87857684D01*
X179669571Y-87857684D02*
X179574333Y-87810065D01*
X179574333Y-87810065D02*
X179479095Y-87810065D01*
X179479095Y-87810065D02*
X179383857Y-87857684D01*
X179383857Y-87857684D02*
X179336238Y-87905303D01*
X179336238Y-87905303D02*
X179288619Y-88000541D01*
X179288619Y-88000541D02*
X179288619Y-88238636D01*
X179288619Y-88238636D02*
X179336238Y-88381493D01*
X180288619Y-88810065D02*
X179288619Y-88810065D01*
X179336238Y-89810064D02*
X179288619Y-89714826D01*
X179288619Y-89714826D02*
X179288619Y-89571969D01*
X179288619Y-89571969D02*
X179336238Y-89429112D01*
X179336238Y-89429112D02*
X179431476Y-89333874D01*
X179431476Y-89333874D02*
X179526714Y-89286255D01*
X179526714Y-89286255D02*
X179717190Y-89238636D01*
X179717190Y-89238636D02*
X179860047Y-89238636D01*
X179860047Y-89238636D02*
X180050523Y-89286255D01*
X180050523Y-89286255D02*
X180145761Y-89333874D01*
X180145761Y-89333874D02*
X180241000Y-89429112D01*
X180241000Y-89429112D02*
X180288619Y-89571969D01*
X180288619Y-89571969D02*
X180288619Y-89667207D01*
X180288619Y-89667207D02*
X180241000Y-89810064D01*
X180241000Y-89810064D02*
X180193380Y-89857683D01*
X180193380Y-89857683D02*
X179860047Y-89857683D01*
X179860047Y-89857683D02*
X179860047Y-89667207D01*
X179383857Y-90238636D02*
X179336238Y-90286255D01*
X179336238Y-90286255D02*
X179288619Y-90381493D01*
X179288619Y-90381493D02*
X179288619Y-90619588D01*
X179288619Y-90619588D02*
X179336238Y-90714826D01*
X179336238Y-90714826D02*
X179383857Y-90762445D01*
X179383857Y-90762445D02*
X179479095Y-90810064D01*
X179479095Y-90810064D02*
X179574333Y-90810064D01*
X179574333Y-90810064D02*
X179717190Y-90762445D01*
X179717190Y-90762445D02*
X180288619Y-90191017D01*
X180288619Y-90191017D02*
X180288619Y-90810064D01*
X180469600Y-100281465D02*
X180517219Y-100424322D01*
X180517219Y-100424322D02*
X180517219Y-100662417D01*
X180517219Y-100662417D02*
X180469600Y-100757655D01*
X180469600Y-100757655D02*
X180421980Y-100805274D01*
X180421980Y-100805274D02*
X180326742Y-100852893D01*
X180326742Y-100852893D02*
X180231504Y-100852893D01*
X180231504Y-100852893D02*
X180136266Y-100805274D01*
X180136266Y-100805274D02*
X180088647Y-100757655D01*
X180088647Y-100757655D02*
X180041028Y-100662417D01*
X180041028Y-100662417D02*
X179993409Y-100471941D01*
X179993409Y-100471941D02*
X179945790Y-100376703D01*
X179945790Y-100376703D02*
X179898171Y-100329084D01*
X179898171Y-100329084D02*
X179802933Y-100281465D01*
X179802933Y-100281465D02*
X179707695Y-100281465D01*
X179707695Y-100281465D02*
X179612457Y-100329084D01*
X179612457Y-100329084D02*
X179564838Y-100376703D01*
X179564838Y-100376703D02*
X179517219Y-100471941D01*
X179517219Y-100471941D02*
X179517219Y-100710036D01*
X179517219Y-100710036D02*
X179564838Y-100852893D01*
X180421980Y-101852893D02*
X180469600Y-101805274D01*
X180469600Y-101805274D02*
X180517219Y-101662417D01*
X180517219Y-101662417D02*
X180517219Y-101567179D01*
X180517219Y-101567179D02*
X180469600Y-101424322D01*
X180469600Y-101424322D02*
X180374361Y-101329084D01*
X180374361Y-101329084D02*
X180279123Y-101281465D01*
X180279123Y-101281465D02*
X180088647Y-101233846D01*
X180088647Y-101233846D02*
X179945790Y-101233846D01*
X179945790Y-101233846D02*
X179755314Y-101281465D01*
X179755314Y-101281465D02*
X179660076Y-101329084D01*
X179660076Y-101329084D02*
X179564838Y-101424322D01*
X179564838Y-101424322D02*
X179517219Y-101567179D01*
X179517219Y-101567179D02*
X179517219Y-101662417D01*
X179517219Y-101662417D02*
X179564838Y-101805274D01*
X179564838Y-101805274D02*
X179612457Y-101852893D01*
X179612457Y-102233846D02*
X179564838Y-102281465D01*
X179564838Y-102281465D02*
X179517219Y-102376703D01*
X179517219Y-102376703D02*
X179517219Y-102614798D01*
X179517219Y-102614798D02*
X179564838Y-102710036D01*
X179564838Y-102710036D02*
X179612457Y-102757655D01*
X179612457Y-102757655D02*
X179707695Y-102805274D01*
X179707695Y-102805274D02*
X179802933Y-102805274D01*
X179802933Y-102805274D02*
X179945790Y-102757655D01*
X179945790Y-102757655D02*
X180517219Y-102186227D01*
X180517219Y-102186227D02*
X180517219Y-102805274D01*
D11*
X149772666Y-86389380D02*
X149820285Y-86437000D01*
X149820285Y-86437000D02*
X149963142Y-86484619D01*
X149963142Y-86484619D02*
X150058380Y-86484619D01*
X150058380Y-86484619D02*
X150201237Y-86437000D01*
X150201237Y-86437000D02*
X150296475Y-86341761D01*
X150296475Y-86341761D02*
X150344094Y-86246523D01*
X150344094Y-86246523D02*
X150391713Y-86056047D01*
X150391713Y-86056047D02*
X150391713Y-85913190D01*
X150391713Y-85913190D02*
X150344094Y-85722714D01*
X150344094Y-85722714D02*
X150296475Y-85627476D01*
X150296475Y-85627476D02*
X150201237Y-85532238D01*
X150201237Y-85532238D02*
X150058380Y-85484619D01*
X150058380Y-85484619D02*
X149963142Y-85484619D01*
X149963142Y-85484619D02*
X149820285Y-85532238D01*
X149820285Y-85532238D02*
X149772666Y-85579857D01*
X148867904Y-85484619D02*
X149344094Y-85484619D01*
X149344094Y-85484619D02*
X149391713Y-85960809D01*
X149391713Y-85960809D02*
X149344094Y-85913190D01*
X149344094Y-85913190D02*
X149248856Y-85865571D01*
X149248856Y-85865571D02*
X149010761Y-85865571D01*
X149010761Y-85865571D02*
X148915523Y-85913190D01*
X148915523Y-85913190D02*
X148867904Y-85960809D01*
X148867904Y-85960809D02*
X148820285Y-86056047D01*
X148820285Y-86056047D02*
X148820285Y-86294142D01*
X148820285Y-86294142D02*
X148867904Y-86389380D01*
X148867904Y-86389380D02*
X148915523Y-86437000D01*
X148915523Y-86437000D02*
X149010761Y-86484619D01*
X149010761Y-86484619D02*
X149248856Y-86484619D01*
X149248856Y-86484619D02*
X149344094Y-86437000D01*
X149344094Y-86437000D02*
X149391713Y-86389380D01*
X148909066Y-71644380D02*
X148956685Y-71692000D01*
X148956685Y-71692000D02*
X149099542Y-71739619D01*
X149099542Y-71739619D02*
X149194780Y-71739619D01*
X149194780Y-71739619D02*
X149337637Y-71692000D01*
X149337637Y-71692000D02*
X149432875Y-71596761D01*
X149432875Y-71596761D02*
X149480494Y-71501523D01*
X149480494Y-71501523D02*
X149528113Y-71311047D01*
X149528113Y-71311047D02*
X149528113Y-71168190D01*
X149528113Y-71168190D02*
X149480494Y-70977714D01*
X149480494Y-70977714D02*
X149432875Y-70882476D01*
X149432875Y-70882476D02*
X149337637Y-70787238D01*
X149337637Y-70787238D02*
X149194780Y-70739619D01*
X149194780Y-70739619D02*
X149099542Y-70739619D01*
X149099542Y-70739619D02*
X148956685Y-70787238D01*
X148956685Y-70787238D02*
X148909066Y-70834857D01*
X148575732Y-70739619D02*
X147909066Y-70739619D01*
X147909066Y-70739619D02*
X148337637Y-71739619D01*
X174238134Y-77958809D02*
X174571467Y-77958809D01*
X174571467Y-78482619D02*
X174571467Y-77482619D01*
X174571467Y-77482619D02*
X174095277Y-77482619D01*
X173190515Y-78482619D02*
X173761943Y-78482619D01*
X173476229Y-78482619D02*
X173476229Y-77482619D01*
X173476229Y-77482619D02*
X173571467Y-77625476D01*
X173571467Y-77625476D02*
X173666705Y-77720714D01*
X173666705Y-77720714D02*
X173761943Y-77768333D01*
X162294866Y-85627380D02*
X162342485Y-85675000D01*
X162342485Y-85675000D02*
X162485342Y-85722619D01*
X162485342Y-85722619D02*
X162580580Y-85722619D01*
X162580580Y-85722619D02*
X162723437Y-85675000D01*
X162723437Y-85675000D02*
X162818675Y-85579761D01*
X162818675Y-85579761D02*
X162866294Y-85484523D01*
X162866294Y-85484523D02*
X162913913Y-85294047D01*
X162913913Y-85294047D02*
X162913913Y-85151190D01*
X162913913Y-85151190D02*
X162866294Y-84960714D01*
X162866294Y-84960714D02*
X162818675Y-84865476D01*
X162818675Y-84865476D02*
X162723437Y-84770238D01*
X162723437Y-84770238D02*
X162580580Y-84722619D01*
X162580580Y-84722619D02*
X162485342Y-84722619D01*
X162485342Y-84722619D02*
X162342485Y-84770238D01*
X162342485Y-84770238D02*
X162294866Y-84817857D01*
X161437723Y-84722619D02*
X161628199Y-84722619D01*
X161628199Y-84722619D02*
X161723437Y-84770238D01*
X161723437Y-84770238D02*
X161771056Y-84817857D01*
X161771056Y-84817857D02*
X161866294Y-84960714D01*
X161866294Y-84960714D02*
X161913913Y-85151190D01*
X161913913Y-85151190D02*
X161913913Y-85532142D01*
X161913913Y-85532142D02*
X161866294Y-85627380D01*
X161866294Y-85627380D02*
X161818675Y-85675000D01*
X161818675Y-85675000D02*
X161723437Y-85722619D01*
X161723437Y-85722619D02*
X161532961Y-85722619D01*
X161532961Y-85722619D02*
X161437723Y-85675000D01*
X161437723Y-85675000D02*
X161390104Y-85627380D01*
X161390104Y-85627380D02*
X161342485Y-85532142D01*
X161342485Y-85532142D02*
X161342485Y-85294047D01*
X161342485Y-85294047D02*
X161390104Y-85198809D01*
X161390104Y-85198809D02*
X161437723Y-85151190D01*
X161437723Y-85151190D02*
X161532961Y-85103571D01*
X161532961Y-85103571D02*
X161723437Y-85103571D01*
X161723437Y-85103571D02*
X161818675Y-85151190D01*
X161818675Y-85151190D02*
X161866294Y-85198809D01*
X161866294Y-85198809D02*
X161913913Y-85294047D01*
X173369266Y-70946180D02*
X173416885Y-70993800D01*
X173416885Y-70993800D02*
X173559742Y-71041419D01*
X173559742Y-71041419D02*
X173654980Y-71041419D01*
X173654980Y-71041419D02*
X173797837Y-70993800D01*
X173797837Y-70993800D02*
X173893075Y-70898561D01*
X173893075Y-70898561D02*
X173940694Y-70803323D01*
X173940694Y-70803323D02*
X173988313Y-70612847D01*
X173988313Y-70612847D02*
X173988313Y-70469990D01*
X173988313Y-70469990D02*
X173940694Y-70279514D01*
X173940694Y-70279514D02*
X173893075Y-70184276D01*
X173893075Y-70184276D02*
X173797837Y-70089038D01*
X173797837Y-70089038D02*
X173654980Y-70041419D01*
X173654980Y-70041419D02*
X173559742Y-70041419D01*
X173559742Y-70041419D02*
X173416885Y-70089038D01*
X173416885Y-70089038D02*
X173369266Y-70136657D01*
X173035932Y-70041419D02*
X172416885Y-70041419D01*
X172416885Y-70041419D02*
X172750218Y-70422371D01*
X172750218Y-70422371D02*
X172607361Y-70422371D01*
X172607361Y-70422371D02*
X172512123Y-70469990D01*
X172512123Y-70469990D02*
X172464504Y-70517609D01*
X172464504Y-70517609D02*
X172416885Y-70612847D01*
X172416885Y-70612847D02*
X172416885Y-70850942D01*
X172416885Y-70850942D02*
X172464504Y-70946180D01*
X172464504Y-70946180D02*
X172512123Y-70993800D01*
X172512123Y-70993800D02*
X172607361Y-71041419D01*
X172607361Y-71041419D02*
X172893075Y-71041419D01*
X172893075Y-71041419D02*
X172988313Y-70993800D01*
X172988313Y-70993800D02*
X173035932Y-70946180D01*
X162218666Y-72491981D02*
X162266285Y-72539601D01*
X162266285Y-72539601D02*
X162409142Y-72587220D01*
X162409142Y-72587220D02*
X162504380Y-72587220D01*
X162504380Y-72587220D02*
X162647237Y-72539601D01*
X162647237Y-72539601D02*
X162742475Y-72444362D01*
X162742475Y-72444362D02*
X162790094Y-72349124D01*
X162790094Y-72349124D02*
X162837713Y-72158648D01*
X162837713Y-72158648D02*
X162837713Y-72015791D01*
X162837713Y-72015791D02*
X162790094Y-71825315D01*
X162790094Y-71825315D02*
X162742475Y-71730077D01*
X162742475Y-71730077D02*
X162647237Y-71634839D01*
X162647237Y-71634839D02*
X162504380Y-71587220D01*
X162504380Y-71587220D02*
X162409142Y-71587220D01*
X162409142Y-71587220D02*
X162266285Y-71634839D01*
X162266285Y-71634839D02*
X162218666Y-71682458D01*
X161361523Y-71920553D02*
X161361523Y-72587220D01*
X161599618Y-71539601D02*
X161837713Y-72253886D01*
X161837713Y-72253886D02*
X161218666Y-72253886D01*
X138114066Y-88228281D02*
X138161685Y-88275901D01*
X138161685Y-88275901D02*
X138304542Y-88323520D01*
X138304542Y-88323520D02*
X138399780Y-88323520D01*
X138399780Y-88323520D02*
X138542637Y-88275901D01*
X138542637Y-88275901D02*
X138637875Y-88180662D01*
X138637875Y-88180662D02*
X138685494Y-88085424D01*
X138685494Y-88085424D02*
X138733113Y-87894948D01*
X138733113Y-87894948D02*
X138733113Y-87752091D01*
X138733113Y-87752091D02*
X138685494Y-87561615D01*
X138685494Y-87561615D02*
X138637875Y-87466377D01*
X138637875Y-87466377D02*
X138542637Y-87371139D01*
X138542637Y-87371139D02*
X138399780Y-87323520D01*
X138399780Y-87323520D02*
X138304542Y-87323520D01*
X138304542Y-87323520D02*
X138161685Y-87371139D01*
X138161685Y-87371139D02*
X138114066Y-87418758D01*
X137637875Y-88323520D02*
X137447399Y-88323520D01*
X137447399Y-88323520D02*
X137352161Y-88275901D01*
X137352161Y-88275901D02*
X137304542Y-88228281D01*
X137304542Y-88228281D02*
X137209304Y-88085424D01*
X137209304Y-88085424D02*
X137161685Y-87894948D01*
X137161685Y-87894948D02*
X137161685Y-87513996D01*
X137161685Y-87513996D02*
X137209304Y-87418758D01*
X137209304Y-87418758D02*
X137256923Y-87371139D01*
X137256923Y-87371139D02*
X137352161Y-87323520D01*
X137352161Y-87323520D02*
X137542637Y-87323520D01*
X137542637Y-87323520D02*
X137637875Y-87371139D01*
X137637875Y-87371139D02*
X137685494Y-87418758D01*
X137685494Y-87418758D02*
X137733113Y-87513996D01*
X137733113Y-87513996D02*
X137733113Y-87752091D01*
X137733113Y-87752091D02*
X137685494Y-87847329D01*
X137685494Y-87847329D02*
X137637875Y-87894948D01*
X137637875Y-87894948D02*
X137542637Y-87942567D01*
X137542637Y-87942567D02*
X137352161Y-87942567D01*
X137352161Y-87942567D02*
X137256923Y-87894948D01*
X137256923Y-87894948D02*
X137209304Y-87847329D01*
X137209304Y-87847329D02*
X137161685Y-87752091D01*
X171671020Y-66766696D02*
X172480543Y-66766696D01*
X172480543Y-66766696D02*
X172575781Y-66814315D01*
X172575781Y-66814315D02*
X172623401Y-66861934D01*
X172623401Y-66861934D02*
X172671020Y-66957172D01*
X172671020Y-66957172D02*
X172671020Y-67147648D01*
X172671020Y-67147648D02*
X172623401Y-67242886D01*
X172623401Y-67242886D02*
X172575781Y-67290505D01*
X172575781Y-67290505D02*
X172480543Y-67338124D01*
X172480543Y-67338124D02*
X171671020Y-67338124D01*
X171671020Y-68290505D02*
X171671020Y-67814315D01*
X171671020Y-67814315D02*
X172147210Y-67766696D01*
X172147210Y-67766696D02*
X172099591Y-67814315D01*
X172099591Y-67814315D02*
X172051972Y-67909553D01*
X172051972Y-67909553D02*
X172051972Y-68147648D01*
X172051972Y-68147648D02*
X172099591Y-68242886D01*
X172099591Y-68242886D02*
X172147210Y-68290505D01*
X172147210Y-68290505D02*
X172242448Y-68338124D01*
X172242448Y-68338124D02*
X172480543Y-68338124D01*
X172480543Y-68338124D02*
X172575781Y-68290505D01*
X172575781Y-68290505D02*
X172623401Y-68242886D01*
X172623401Y-68242886D02*
X172671020Y-68147648D01*
X172671020Y-68147648D02*
X172671020Y-67909553D01*
X172671020Y-67909553D02*
X172623401Y-67814315D01*
X172623401Y-67814315D02*
X172575781Y-67766696D01*
X136310666Y-71377980D02*
X136358285Y-71425600D01*
X136358285Y-71425600D02*
X136501142Y-71473219D01*
X136501142Y-71473219D02*
X136596380Y-71473219D01*
X136596380Y-71473219D02*
X136739237Y-71425600D01*
X136739237Y-71425600D02*
X136834475Y-71330361D01*
X136834475Y-71330361D02*
X136882094Y-71235123D01*
X136882094Y-71235123D02*
X136929713Y-71044647D01*
X136929713Y-71044647D02*
X136929713Y-70901790D01*
X136929713Y-70901790D02*
X136882094Y-70711314D01*
X136882094Y-70711314D02*
X136834475Y-70616076D01*
X136834475Y-70616076D02*
X136739237Y-70520838D01*
X136739237Y-70520838D02*
X136596380Y-70473219D01*
X136596380Y-70473219D02*
X136501142Y-70473219D01*
X136501142Y-70473219D02*
X136358285Y-70520838D01*
X136358285Y-70520838D02*
X136310666Y-70568457D01*
X135739237Y-70901790D02*
X135834475Y-70854171D01*
X135834475Y-70854171D02*
X135882094Y-70806552D01*
X135882094Y-70806552D02*
X135929713Y-70711314D01*
X135929713Y-70711314D02*
X135929713Y-70663695D01*
X135929713Y-70663695D02*
X135882094Y-70568457D01*
X135882094Y-70568457D02*
X135834475Y-70520838D01*
X135834475Y-70520838D02*
X135739237Y-70473219D01*
X135739237Y-70473219D02*
X135548761Y-70473219D01*
X135548761Y-70473219D02*
X135453523Y-70520838D01*
X135453523Y-70520838D02*
X135405904Y-70568457D01*
X135405904Y-70568457D02*
X135358285Y-70663695D01*
X135358285Y-70663695D02*
X135358285Y-70711314D01*
X135358285Y-70711314D02*
X135405904Y-70806552D01*
X135405904Y-70806552D02*
X135453523Y-70854171D01*
X135453523Y-70854171D02*
X135548761Y-70901790D01*
X135548761Y-70901790D02*
X135739237Y-70901790D01*
X135739237Y-70901790D02*
X135834475Y-70949409D01*
X135834475Y-70949409D02*
X135882094Y-70997028D01*
X135882094Y-70997028D02*
X135929713Y-71092266D01*
X135929713Y-71092266D02*
X135929713Y-71282742D01*
X135929713Y-71282742D02*
X135882094Y-71377980D01*
X135882094Y-71377980D02*
X135834475Y-71425600D01*
X135834475Y-71425600D02*
X135739237Y-71473219D01*
X135739237Y-71473219D02*
X135548761Y-71473219D01*
X135548761Y-71473219D02*
X135453523Y-71425600D01*
X135453523Y-71425600D02*
X135405904Y-71377980D01*
X135405904Y-71377980D02*
X135358285Y-71282742D01*
X135358285Y-71282742D02*
X135358285Y-71092266D01*
X135358285Y-71092266D02*
X135405904Y-70997028D01*
X135405904Y-70997028D02*
X135453523Y-70949409D01*
X135453523Y-70949409D02*
X135548761Y-70901790D01*
D12*
%TO.C,C5*%
X152966053Y-85320200D02*
X152443547Y-85320200D01*
X152966053Y-86790200D02*
X152443547Y-86790200D01*
%TO.C,C7*%
X149003653Y-72229799D02*
X148481147Y-72229799D01*
X149003653Y-73699799D02*
X148481147Y-73699799D01*
%TO.C,F1*%
X173643549Y-75667800D02*
X174166053Y-75667800D01*
X173643549Y-77087800D02*
X174166053Y-77087800D01*
%TO.C,C6*%
X164599253Y-86183800D02*
X164076747Y-86183800D01*
X164599253Y-87653800D02*
X164076747Y-87653800D01*
%TO.C,C3*%
X172915947Y-71629600D02*
X173438453Y-71629600D01*
X172915947Y-73099600D02*
X173438453Y-73099600D01*
%TO.C,C4*%
X162313253Y-73077400D02*
X161790747Y-73077400D01*
X162313253Y-74547400D02*
X161790747Y-74547400D01*
%TO.C,C9*%
X138208653Y-88813700D02*
X137686147Y-88813700D01*
X138208653Y-90283700D02*
X137686147Y-90283700D01*
%TO.C,U5*%
X164266200Y-70838601D02*
X164536200Y-70838601D01*
X164266201Y-64418601D02*
X164266200Y-70838601D01*
X171166199Y-64418601D02*
X171166200Y-70838601D01*
X171166200Y-70838601D02*
X170896200Y-70838601D01*
X171326200Y-72908601D02*
X170856200Y-72568601D01*
X171326200Y-72228600D01*
X171326200Y-72908601D01*
G36*
X171326200Y-72908601D02*
G01*
X170856200Y-72568601D01*
X171326200Y-72228600D01*
X171326200Y-72908601D01*
G37*
%TO.C,C8*%
X139427852Y-70375598D02*
X138905346Y-70375598D01*
X139427852Y-71845598D02*
X138905346Y-71845598D01*
%TD*%
M02*
