M48
; DRILL file {KiCad 9.0.1} date 2026-07-20T13:33:51+0800
; FORMAT={-:-/ absolute / metric / decimal}
; #@! TF.CreationDate,2026-07-20T13:33:51+08:00
; #@! TF.GenerationSoftware,Kicad,Pcbnew,9.0.1
; #@! TF.FileFunction,Plated,1,2,PTH
FMAT,2
METRIC
; #@! TA.AperFunction,Plated,PTH,ViaDrill
T1C0.300
; #@! TA.AperFunction,Plated,PTH,ViaDrill
T2C0.500
; #@! TA.AperFunction,Plated,PTH,ViaDrill
T3C0.508
; #@! TA.AperFunction,Plated,PTH,ComponentDrill
T4C0.800
; #@! TA.AperFunction,Plated,PTH,ComponentDrill
T5C1.000
; #@! TA.AperFunction,Plated,PTH,ComponentDrill
T6C1.020
; #@! TA.AperFunction,Plated,PTH,ComponentDrill
T7C1.300
%
G90
G05
T1
X126.187Y-86.36
X126.213Y-91.338
X126.263Y-77.394
X126.263Y-79.553
X126.263Y-81.661
X126.263Y-83.947
X126.263Y-102.184
X126.34Y-64.414
X126.365Y-66.65
X126.949Y-74.498
X127.305Y-106.248
X127.686Y-63.373
X128.168Y-68.199
X128.626Y-72.161
X129.464Y-63.398
X129.743Y-102.387
X129.993Y-93.523
X130.073Y-78.918
X130.099Y-83.185
X130.124Y-85.852
X130.124Y-106.705
X130.15Y-81.128
X130.683Y-67.158
X131.166Y-64.491
X131.166Y-90.78
X131.445Y-71.476
X131.978Y-107.594
X132.41Y-90.957
X132.944Y-104.14
X133.045Y-83.388
X133.121Y-79.096
X133.198Y-81.382
X133.198Y-85.877
X133.579Y-99.314
X133.579Y-101.27
X133.604Y-95.682
X133.604Y-97.612
X133.782Y-71.171
X133.782Y-109.271
X133.858Y-64.389
X133.883Y-102.641
X135.581Y-103.581
X135.915Y-84.099
X136.169Y-110.109
X138.278Y-85.065
X138.455Y-99.492
X139.04Y-91.338
X140.259Y-75.768
X140.335Y-108.077
X140.367Y-103.403
X141.072Y-85.369
X141.402Y-110.668
X142.646Y-80.95
X143.535Y-95.021
X143.713Y-63.932
X144.831Y-95.961
X144.882Y-86.36
X145.872Y-79.502
X146.025Y-73.33
X146.71Y-83.845
X146.837Y-81.407
X147.142Y-95.707
X147.193Y-91.135
X147.523Y-79.426
X147.574Y-110.007
X147.705Y-72.965
X147.853Y-99.568
X147.853Y-103.022
X148.006Y-67.234
X148.057Y-82.626
X148.819Y-91.186
X149.073Y-87.833
X149.149Y-95.809
X149.78Y-72.965
X150.012Y-86.944
X150.216Y-92.177
X150.597Y-90.78
X151.282Y-109.245
X151.46Y-80.975
X151.46Y-95.809
X151.562Y-83.82
X151.613Y-78.181
X151.79Y-75.971
X151.892Y-74.041
X153.492Y-67.285
X153.949Y-63.983
X154.254Y-77.241
X155.575Y-72.644
X155.626Y-78.537
X157.429Y-74.32
X158.547Y-110.566
X158.699Y-67.31
X158.725Y-75.489
X158.979Y-105.766
X159.385Y-69.901
X159.563Y-64.389
X159.842Y-79.121
X159.868Y-80.442
X159.918Y-98.958
X160.045Y-76.886
X160.477Y-92.481
X161.036Y-75.921
X161.239Y-69.926
X161.315Y-78.537
X161.417Y-67.285
X162.281Y-64.084
X162.814Y-105.893
X163.093Y-65.862
X163.195Y-98.831
X163.22Y-70.002
X163.246Y-68.072
X163.246Y-80.162
X163.449Y-109.296
X165.76Y-64.668
X165.811Y-65.862
X165.811Y-98.831
X165.913Y-67.285
X166.116Y-68.682
X166.141Y-63.627
X166.294Y-105.689
X166.827Y-78.588
X167.437Y-64.719
X167.488Y-63.602
X167.538Y-65.862
X167.538Y-68.656
X167.665Y-67.208
X167.742Y-71.044
X167.742Y-72.873
X167.792Y-88.519
X167.996Y-83.363
X168.224Y-79.019
X168.3Y-86.614
X168.834Y-63.652
X168.885Y-68.631
X169.215Y-65.888
X169.266Y-64.719
X169.367Y-67.234
X170.078Y-82.779
X170.307Y-92.431
X170.485Y-86.233
X170.688Y-110.617
X172.11Y-69.621
X172.288Y-63.856
X172.364Y-66.04
X173.076Y-92.862
X174.066Y-63.906
X174.117Y-66.345
X174.295Y-107.366
X174.574Y-68.148
X174.727Y-86.614
X176.555Y-68.783
X177.775Y-95.885
X179.908Y-93.929
X179.934Y-98.831
X179.934Y-103.607
X180.01Y-71.984
X180.111Y-89.459
X180.213Y-85.141
X180.289Y-79.477
T2
X155.651Y-86.03
X166.272Y-88.494
T3
X132.563Y-74.905
T4
X137.262Y-82.804
X137.262Y-68.859
X139.802Y-82.804
X139.802Y-68.859
X142.342Y-82.804
X142.342Y-68.859
X149.86Y-98.4
X149.86Y-106.02
X163.449Y-77.216
X165.217Y-75.448
X170.042Y-75.209
X170.042Y-77.709
T5
X156.315Y-96.26
X156.315Y-108.26
T6
X177.114Y-73.454
X177.114Y-76.454
X177.114Y-85.827
X177.114Y-88.827
X177.131Y-98.144
X177.131Y-101.144
T7
X154.365Y-102.21
X168.515Y-108.26
X168.565Y-96.21
M30
