%TF.GenerationSoftware,KiCad,Pcbnew,9.0.1*%
%TF.CreationDate,2026-07-20T13:33:29+08:00*%
%TF.ProjectId,BSPD,42535044-2e6b-4696-9361-645f70636258,rev?*%
%TF.SameCoordinates,Original*%
%TF.FileFunction,Copper,L1,Top*%
%TF.FilePolarity,Positive*%
%FSLAX46Y46*%
G04 Gerber Fmt 4.6, Leading zero omitted, Abs format (unit mm)*
G04 Created by KiCad (PCBNEW 9.0.1) date 2026-07-20 13:33:29*
%MOMM*%
%LPD*%
G01*
G04 APERTURE LIST*
G04 Aperture macros list*
%AMRoundRect*
0 Rectangle with rounded corners*
0 $1 Rounding radius*
0 $2 $3 $4 $5 $6 $7 $8 $9 X,Y pos of 4 corners*
0 Add a 4 corners polygon primitive as box body*
4,1,4,$2,$3,$4,$5,$6,$7,$8,$9,$2,$3,0*
0 Add four circle primitives for the rounded corners*
1,1,$1+$1,$2,$3*
1,1,$1+$1,$4,$5*
1,1,$1+$1,$6,$7*
1,1,$1+$1,$8,$9*
0 Add four rect primitives between the rounded corners*
20,1,$1+$1,$2,$3,$4,$5,0*
20,1,$1+$1,$4,$5,$6,$7,0*
20,1,$1+$1,$6,$7,$8,$9,0*
20,1,$1+$1,$8,$9,$2,$3,0*%
%AMRotRect*
0 Rectangle, with rotation*
0 The origin of the aperture is its center*
0 $1 length*
0 $2 width*
0 $3 Rotation angle, in degrees counterclockwise*
0 Add horizontal line*
21,1,$1,$2,0,0,$3*%
G04 Aperture macros list end*
%TA.AperFunction,SMDPad,CuDef*%
%ADD10RoundRect,0.150000X0.150000X-0.825000X0.150000X0.825000X-0.150000X0.825000X-0.150000X-0.825000X0*%
%TD*%
%TA.AperFunction,SMDPad,CuDef*%
%ADD11RoundRect,0.250000X0.350000X0.450000X-0.350000X0.450000X-0.350000X-0.450000X0.350000X-0.450000X0*%
%TD*%
%TA.AperFunction,SMDPad,CuDef*%
%ADD12RoundRect,0.250000X-0.350000X-0.450000X0.350000X-0.450000X0.350000X0.450000X-0.350000X0.450000X0*%
%TD*%
%TA.AperFunction,SMDPad,CuDef*%
%ADD13RoundRect,0.150000X0.150000X-0.587500X0.150000X0.587500X-0.150000X0.587500X-0.150000X-0.587500X0*%
%TD*%
%TA.AperFunction,SMDPad,CuDef*%
%ADD14RoundRect,0.150000X-0.150000X0.587500X-0.150000X-0.587500X0.150000X-0.587500X0.150000X0.587500X0*%
%TD*%
%TA.AperFunction,SMDPad,CuDef*%
%ADD15RoundRect,0.250000X0.337500X0.475000X-0.337500X0.475000X-0.337500X-0.475000X0.337500X-0.475000X0*%
%TD*%
%TA.AperFunction,SMDPad,CuDef*%
%ADD16RoundRect,0.250000X0.475000X-0.337500X0.475000X0.337500X-0.475000X0.337500X-0.475000X-0.337500X0*%
%TD*%
%TA.AperFunction,ComponentPad*%
%ADD17RoundRect,0.250001X0.759999X-0.499999X0.759999X0.499999X-0.759999X0.499999X-0.759999X-0.499999X0*%
%TD*%
%TA.AperFunction,ComponentPad*%
%ADD18O,2.020000X1.500000*%
%TD*%
%TA.AperFunction,SMDPad,CuDef*%
%ADD19RoundRect,0.150000X-0.825000X-0.150000X0.825000X-0.150000X0.825000X0.150000X-0.825000X0.150000X0*%
%TD*%
%TA.AperFunction,ComponentPad*%
%ADD20C,3.000000*%
%TD*%
%TA.AperFunction,ComponentPad*%
%ADD21C,2.500000*%
%TD*%
%TA.AperFunction,ComponentPad*%
%ADD22RotRect,1.600000X1.600000X225.000000*%
%TD*%
%TA.AperFunction,ComponentPad*%
%ADD23C,1.600000*%
%TD*%
%TA.AperFunction,SMDPad,CuDef*%
%ADD24RoundRect,0.250000X-0.450000X0.350000X-0.450000X-0.350000X0.450000X-0.350000X0.450000X0.350000X0*%
%TD*%
%TA.AperFunction,SMDPad,CuDef*%
%ADD25RoundRect,0.150000X-0.587500X-0.150000X0.587500X-0.150000X0.587500X0.150000X-0.587500X0.150000X0*%
%TD*%
%TA.AperFunction,SMDPad,CuDef*%
%ADD26RoundRect,0.250000X0.450000X-0.350000X0.450000X0.350000X-0.450000X0.350000X-0.450000X-0.350000X0*%
%TD*%
%TA.AperFunction,ComponentPad*%
%ADD27R,1.600000X1.600000*%
%TD*%
%TA.AperFunction,ComponentPad*%
%ADD28O,1.600000X1.600000*%
%TD*%
%TA.AperFunction,ComponentPad*%
%ADD29C,1.440000*%
%TD*%
%TA.AperFunction,SMDPad,CuDef*%
%ADD30RoundRect,0.150000X0.825000X0.150000X-0.825000X0.150000X-0.825000X-0.150000X0.825000X-0.150000X0*%
%TD*%
%TA.AperFunction,SMDPad,CuDef*%
%ADD31RoundRect,0.162500X0.617500X0.162500X-0.617500X0.162500X-0.617500X-0.162500X0.617500X-0.162500X0*%
%TD*%
%TA.AperFunction,SMDPad,CuDef*%
%ADD32RoundRect,0.250000X-0.475000X0.337500X-0.475000X-0.337500X0.475000X-0.337500X0.475000X0.337500X0*%
%TD*%
%TA.AperFunction,SMDPad,CuDef*%
%ADD33RoundRect,0.162500X-0.617500X-0.162500X0.617500X-0.162500X0.617500X0.162500X-0.617500X0.162500X0*%
%TD*%
%TA.AperFunction,ViaPad*%
%ADD34C,0.600000*%
%TD*%
%TA.AperFunction,ViaPad*%
%ADD35C,1.016000*%
%TD*%
%TA.AperFunction,ViaPad*%
%ADD36C,1.000000*%
%TD*%
%TA.AperFunction,Conductor*%
%ADD37C,0.381000*%
%TD*%
%TA.AperFunction,Conductor*%
%ADD38C,0.508000*%
%TD*%
%TA.AperFunction,Conductor*%
%ADD39C,0.762000*%
%TD*%
%TA.AperFunction,Conductor*%
%ADD40C,0.254000*%
%TD*%
%TA.AperFunction,Conductor*%
%ADD41C,1.016000*%
%TD*%
%TA.AperFunction,Conductor*%
%ADD42C,0.200000*%
%TD*%
%TA.AperFunction,Conductor*%
%ADD43C,0.609600*%
%TD*%
%TA.AperFunction,Conductor*%
%ADD44C,1.524000*%
%TD*%
G04 APERTURE END LIST*
D10*
%TO.P,U6,8,V+*%
%TO.N,+5V*%
X140233399Y-73639398D03*
%TO.P,U6,7*%
%TO.N,Net-(R12-Pad2)*%
X141503399Y-73639398D03*
%TO.P,U6,6,-*%
%TO.N,Net-(U6B--)*%
X142773399Y-73639398D03*
%TO.P,U6,5,+*%
%TO.N,/SIGN1*%
X144043399Y-73639398D03*
%TO.P,U6,4,V-*%
%TO.N,GND*%
X144043399Y-78589398D03*
%TO.P,U6,3,+*%
%TO.N,/SIGN2*%
X142773399Y-78589398D03*
%TO.P,U6,2,-*%
%TO.N,Net-(U6A--)*%
X141503399Y-78589398D03*
%TO.P,U6,1*%
%TO.N,Net-(R13-Pad2)*%
X140233399Y-78589398D03*
%TD*%
D11*
%TO.P,R22,1*%
%TO.N,+5V*%
X129879600Y-96520000D03*
%TO.P,R22,2*%
%TO.N,Net-(Q4-D)*%
X127879600Y-96520000D03*
%TD*%
D12*
%TO.P,R21,1*%
%TO.N,Net-(Q1-D)*%
X127879600Y-103911400D03*
%TO.P,R21,2*%
%TO.N,GND*%
X129879600Y-103911400D03*
%TD*%
D13*
%TO.P,Q4,1,G*%
%TO.N,Net-(Q1-D)*%
X127828000Y-100935001D03*
%TO.P,Q4,2,S*%
%TO.N,GND*%
X129728000Y-100935001D03*
%TO.P,Q4,3,D*%
%TO.N,Net-(Q4-D)*%
X128778000Y-99060000D03*
%TD*%
D14*
%TO.P,Q1,1,G*%
%TO.N,/delay_trigger*%
X129728000Y-89361799D03*
%TO.P,Q1,2,S*%
%TO.N,+5V*%
X127828000Y-89361799D03*
%TO.P,Q1,3,D*%
%TO.N,Net-(Q1-D)*%
X128778000Y-91236800D03*
%TD*%
D15*
%TO.P,C12,1*%
%TO.N,GND*%
X129993300Y-93522800D03*
%TO.P,C12,2*%
%TO.N,Net-(Q1-D)*%
X127918300Y-93522800D03*
%TD*%
D16*
%TO.P,C11,1*%
%TO.N,+5V*%
X141111200Y-95449300D03*
%TO.P,C11,2*%
%TO.N,GND*%
X141111200Y-93374300D03*
%TD*%
D17*
%TO.P,J3,1,Pin_1*%
%TO.N,Net-(J3-Pin_1)*%
X177114200Y-76454000D03*
D18*
%TO.P,J3,2,Pin_2*%
%TO.N,GND*%
X177114200Y-73454000D03*
%TD*%
D19*
%TO.P,U7,1*%
%TO.N,/delay_trigger*%
X136056600Y-97282000D03*
%TO.P,U7,2,-*%
%TO.N,Net-(U7A--)*%
X136056600Y-98552000D03*
%TO.P,U7,3,+*%
%TO.N,Net-(U7A-+)*%
X136056600Y-99822000D03*
%TO.P,U7,4,V-*%
%TO.N,GND*%
X136056600Y-101092000D03*
%TO.P,U7,5,+*%
%TO.N,Net-(Q4-D)*%
X141006600Y-101092000D03*
%TO.P,U7,6,-*%
%TO.N,Net-(U7B--)*%
X141006600Y-99822000D03*
%TO.P,U7,7*%
%TO.N,/relay_trigger*%
X141006600Y-98552000D03*
%TO.P,U7,8,V+*%
%TO.N,+5V*%
X141006600Y-97282000D03*
%TD*%
D20*
%TO.P,K1,1*%
%TO.N,/SC1*%
X154364800Y-102209600D03*
D21*
%TO.P,K1,2*%
%TO.N,/relay-*%
X156314800Y-108259600D03*
D20*
%TO.P,K1,3*%
%TO.N,unconnected-(K1-Pad3)*%
X168514800Y-108259600D03*
%TO.P,K1,4*%
%TO.N,unconnected-(K1-Pad4)*%
X168564800Y-96209600D03*
D21*
%TO.P,K1,5*%
%TO.N,+12V*%
X156314800Y-96259600D03*
%TD*%
D11*
%TO.P,R8,1*%
%TO.N,Net-(U2A-+)*%
X154508200Y-91897200D03*
%TO.P,R8,2*%
%TO.N,GND*%
X152508200Y-91897200D03*
%TD*%
D12*
%TO.P,R25,1*%
%TO.N,Net-(Q3-G)*%
X144322800Y-101222600D03*
%TO.P,R25,2*%
%TO.N,GND*%
X146322800Y-101222600D03*
%TD*%
D11*
%TO.P,R9,1*%
%TO.N,+5V*%
X168300400Y-86614000D03*
%TO.P,R9,2*%
%TO.N,/SCS*%
X166300400Y-86614000D03*
%TD*%
D12*
%TO.P,R1,1*%
%TO.N,+5V*%
X153635200Y-84019600D03*
%TO.P,R1,2*%
%TO.N,Net-(U1B--)*%
X155635200Y-84019600D03*
%TD*%
%TO.P,R19,1*%
%TO.N,+5V*%
X133763000Y-93522800D03*
%TO.P,R19,2*%
%TO.N,/delay_trigger*%
X135763000Y-93522800D03*
%TD*%
%TO.P,R29,1*%
%TO.N,GND*%
X170770800Y-80822800D03*
%TO.P,R29,2*%
%TO.N,/SIGN1*%
X172770800Y-80822800D03*
%TD*%
%TO.P,R28,1*%
%TO.N,/SIGN2*%
X170881800Y-90322400D03*
%TO.P,R28,2*%
%TO.N,GND*%
X172881800Y-90322400D03*
%TD*%
%TO.P,R15,1*%
%TO.N,+5V*%
X135606000Y-106248200D03*
%TO.P,R15,2*%
%TO.N,Net-(U7A-+)*%
X137606000Y-106248200D03*
%TD*%
D22*
%TO.P,C1,1*%
%TO.N,+5V*%
X165216767Y-75448233D03*
D23*
%TO.P,C1,2*%
%TO.N,GND*%
X163449000Y-77216000D03*
%TD*%
D11*
%TO.P,R27,1*%
%TO.N,Net-(J1-Pin_1)*%
X172872400Y-88214200D03*
%TO.P,R27,2*%
%TO.N,/SIGN2*%
X170872400Y-88214200D03*
%TD*%
D24*
%TO.P,R13,1*%
%TO.N,+5V*%
X138074404Y-76968599D03*
%TO.P,R13,2*%
%TO.N,Net-(R13-Pad2)*%
X138074404Y-78968599D03*
%TD*%
D11*
%TO.P,R5,1*%
%TO.N,+5V*%
X168732200Y-90297000D03*
%TO.P,R5,2*%
%TO.N,Net-(U2B--)*%
X166732200Y-90297000D03*
%TD*%
D25*
%TO.P,Q3,1,G*%
%TO.N,Net-(Q3-G)*%
X144385300Y-104282200D03*
%TO.P,Q3,2,S*%
%TO.N,GND*%
X144385300Y-106182200D03*
%TO.P,Q3,3,D*%
%TO.N,/relay-*%
X146260300Y-105232200D03*
%TD*%
D17*
%TO.P,J2,1,Pin_1*%
%TO.N,unconnected-(J2-Pin_1-Pad1)*%
X177131000Y-101144200D03*
D18*
%TO.P,J2,2,Pin_2*%
%TO.N,/SC1*%
X177131000Y-98144200D03*
%TD*%
D11*
%TO.P,R2,1*%
%TO.N,Net-(U1B--)*%
X155609800Y-81838800D03*
%TO.P,R2,2*%
%TO.N,GND*%
X153609800Y-81838800D03*
%TD*%
D12*
%TO.P,R4,1*%
%TO.N,Net-(U1A-+)*%
X165985601Y-81178400D03*
%TO.P,R4,2*%
%TO.N,GND*%
X167985601Y-81178400D03*
%TD*%
D26*
%TO.P,R26,1*%
%TO.N,Net-(J1-Pin_2)*%
X172694600Y-84778600D03*
%TO.P,R26,2*%
%TO.N,/SIGN1*%
X172694600Y-82778600D03*
%TD*%
%TO.P,R10,1*%
%TO.N,+5V*%
X135788400Y-74904597D03*
%TO.P,R10,2*%
%TO.N,Net-(U6B--)*%
X135788400Y-72904597D03*
%TD*%
%TO.P,R14,1*%
%TO.N,Net-(R14-Pad1)*%
X138912600Y-89722200D03*
%TO.P,R14,2*%
%TO.N,Net-(U7A--)*%
X138912600Y-87722200D03*
%TD*%
D12*
%TO.P,R6,1*%
%TO.N,Net-(U2B--)*%
X166764200Y-92532200D03*
%TO.P,R6,2*%
%TO.N,GND*%
X168764200Y-92532200D03*
%TD*%
%TO.P,R7,1*%
%TO.N,+5V*%
X152508200Y-89484200D03*
%TO.P,R7,2*%
%TO.N,Net-(U2A-+)*%
X154508200Y-89484200D03*
%TD*%
D27*
%TO.P,D1,1,K*%
%TO.N,+12V*%
X149860000Y-98399600D03*
D28*
%TO.P,D1,2,A*%
%TO.N,/relay-*%
X149860000Y-106019600D03*
%TD*%
D24*
%TO.P,R11,1*%
%TO.N,+5V*%
X135763000Y-76968597D03*
%TO.P,R11,2*%
%TO.N,Net-(U6A--)*%
X135763000Y-78968597D03*
%TD*%
D29*
%TO.P,RV2,1,1*%
%TO.N,Net-(U6A--)*%
X142341603Y-82803999D03*
%TO.P,RV2,2,2*%
%TO.N,GND*%
X139801603Y-82803999D03*
%TO.P,RV2,3,3*%
%TO.N,unconnected-(RV2-Pad3)*%
X137261604Y-82803999D03*
%TD*%
D26*
%TO.P,R12,1*%
%TO.N,+5V*%
X138074400Y-74904600D03*
%TO.P,R12,2*%
%TO.N,Net-(R12-Pad2)*%
X138074400Y-72904600D03*
%TD*%
D27*
%TO.P,C2,1*%
%TO.N,+12V*%
X170042200Y-75209400D03*
D23*
%TO.P,C2,2*%
%TO.N,GND*%
X170042200Y-77709400D03*
%TD*%
D11*
%TO.P,R16,1*%
%TO.N,Net-(U7A-+)*%
X137580600Y-103581200D03*
%TO.P,R16,2*%
%TO.N,GND*%
X135580600Y-103581200D03*
%TD*%
D30*
%TO.P,U1,1*%
%TO.N,/SCS*%
X163420600Y-86207600D03*
%TO.P,U1,2,-*%
%TO.N,/SIGN1*%
X163420600Y-84937600D03*
%TO.P,U1,3,+*%
%TO.N,Net-(U1A-+)*%
X163420600Y-83667600D03*
%TO.P,U1,4,V-*%
%TO.N,GND*%
X163420600Y-82397600D03*
%TO.P,U1,5,+*%
%TO.N,/SIGN1*%
X158470600Y-82397600D03*
%TO.P,U1,6,-*%
%TO.N,Net-(U1B--)*%
X158470600Y-83667600D03*
%TO.P,U1,7*%
%TO.N,/SCS*%
X158470600Y-84937600D03*
%TO.P,U1,8,V+*%
%TO.N,+12V*%
X158470600Y-86207600D03*
%TD*%
D31*
%TO.P,U3,1*%
%TO.N,/SCS*%
X143869400Y-89660500D03*
%TO.P,U3,2*%
%TO.N,/OVERLIMIT*%
X143869400Y-88710500D03*
%TO.P,U3,3,GND*%
%TO.N,GND*%
X143869400Y-87760500D03*
%TO.P,U3,4*%
%TO.N,Net-(R14-Pad1)*%
X141169400Y-87760500D03*
%TO.P,U3,5,VCC*%
%TO.N,+5V*%
X141169400Y-89660500D03*
%TD*%
D12*
%TO.P,R24,1*%
%TO.N,/relay_trigger*%
X144322800Y-98272600D03*
%TO.P,R24,2*%
%TO.N,Net-(Q3-G)*%
X146322800Y-98272600D03*
%TD*%
D29*
%TO.P,RV1,1,1*%
%TO.N,Net-(U6B--)*%
X142341604Y-68859399D03*
%TO.P,RV1,2,2*%
%TO.N,GND*%
X139801604Y-68859399D03*
%TO.P,RV1,3,3*%
%TO.N,unconnected-(RV1-Pad3)*%
X137261605Y-68859399D03*
%TD*%
D11*
%TO.P,R3,1*%
%TO.N,+5V*%
X167995600Y-83362800D03*
%TO.P,R3,2*%
%TO.N,Net-(U1A-+)*%
X165995600Y-83362800D03*
%TD*%
D19*
%TO.P,U2,1*%
%TO.N,/SCS*%
X158481800Y-88519000D03*
%TO.P,U2,2,-*%
%TO.N,/SIGN2*%
X158481800Y-89789000D03*
%TO.P,U2,3,+*%
%TO.N,Net-(U2A-+)*%
X158481800Y-91059000D03*
%TO.P,U2,4,V-*%
%TO.N,GND*%
X158481800Y-92329000D03*
%TO.P,U2,5,+*%
%TO.N,/SIGN2*%
X163431800Y-92329000D03*
%TO.P,U2,6,-*%
%TO.N,Net-(U2B--)*%
X163431800Y-91059000D03*
%TO.P,U2,7*%
%TO.N,/SCS*%
X163431800Y-89789000D03*
%TO.P,U2,8,V+*%
%TO.N,+12V*%
X163431800Y-88519000D03*
%TD*%
D32*
%TO.P,C10,1*%
%TO.N,GND*%
X135686800Y-87630000D03*
%TO.P,C10,2*%
%TO.N,Net-(U7A--)*%
X135686800Y-89705000D03*
%TD*%
D24*
%TO.P,R20,1*%
%TO.N,+5V*%
X138988800Y-93411800D03*
%TO.P,R20,2*%
%TO.N,/relay_trigger*%
X138988800Y-95411800D03*
%TD*%
D33*
%TO.P,U4,1*%
%TO.N,Net-(R12-Pad2)*%
X146884401Y-75062799D03*
%TO.P,U4,2*%
%TO.N,Net-(R13-Pad2)*%
X146884401Y-76012799D03*
%TO.P,U4,3,GND*%
%TO.N,GND*%
X146884401Y-76962799D03*
%TO.P,U4,4*%
%TO.N,/OVERLIMIT*%
X149584401Y-76962799D03*
%TO.P,U4,5,VCC*%
%TO.N,+5V*%
X149584401Y-75062799D03*
%TD*%
D12*
%TO.P,R17,1*%
%TO.N,+5V*%
X140367000Y-106121200D03*
%TO.P,R17,2*%
%TO.N,Net-(U7B--)*%
X142367000Y-106121200D03*
%TD*%
D17*
%TO.P,J1,1,Pin_1*%
%TO.N,Net-(J1-Pin_1)*%
X177114200Y-88826600D03*
D18*
%TO.P,J1,2,Pin_2*%
%TO.N,Net-(J1-Pin_2)*%
X177114200Y-85826600D03*
%TD*%
D11*
%TO.P,R18,1*%
%TO.N,Net-(U7B--)*%
X142367000Y-103403400D03*
%TO.P,R18,2*%
%TO.N,GND*%
X140367000Y-103403400D03*
%TD*%
D34*
%TO.N,GND*%
X144830800Y-95961200D03*
X129463800Y-63398400D03*
X127685800Y-63373000D03*
X126339600Y-64414400D03*
X126365000Y-66649600D03*
X130683000Y-67157600D03*
X131165600Y-64490600D03*
X128168400Y-68199000D03*
X126187200Y-86360000D03*
X126263400Y-83947000D03*
X133197600Y-85877400D03*
X133045200Y-83388200D03*
X133197600Y-81381600D03*
X133121400Y-79095600D03*
X129743200Y-102387400D03*
X132410200Y-90957400D03*
X129993300Y-93522800D03*
X177774600Y-95885000D03*
X133781800Y-109270800D03*
X130124200Y-106705400D03*
X127304800Y-106248200D03*
X126263400Y-102184200D03*
X131165600Y-90779600D03*
X126212600Y-91338400D03*
X126263400Y-81661000D03*
X130124200Y-85852000D03*
X130098800Y-83185000D03*
X130149600Y-81127600D03*
X130073400Y-78917800D03*
X126263400Y-79552800D03*
X126263400Y-77393800D03*
X126949200Y-74498200D03*
X140367000Y-103403400D03*
X179933600Y-103606600D03*
X179933600Y-98831400D03*
%TO.N,+5V*%
X149779900Y-72964799D03*
X167995600Y-83362800D03*
X168300400Y-86614000D03*
X151561800Y-83820000D03*
X132943600Y-104140000D03*
X150596600Y-90779600D03*
X139039600Y-91338400D03*
X140335000Y-108077000D03*
D35*
X132562600Y-74904597D03*
D34*
%TO.N,GND*%
X147704900Y-72964799D03*
X154254200Y-77241400D03*
X133604000Y-95681800D03*
X148056600Y-82626200D03*
X167538400Y-68656200D03*
X160045400Y-76885800D03*
X147142200Y-95707200D03*
X147193000Y-91135200D03*
X161417000Y-67284600D03*
X168833800Y-63652400D03*
X143535400Y-95021400D03*
X146024600Y-73329800D03*
X180111400Y-89458800D03*
X180009800Y-71983600D03*
X166293800Y-105689400D03*
X133578600Y-101269800D03*
X169265600Y-64719200D03*
X131978400Y-107594400D03*
X167665400Y-67208400D03*
X165912800Y-67284600D03*
X147574000Y-110007400D03*
X151892000Y-74041000D03*
X159385000Y-69900800D03*
X147523200Y-79425800D03*
X163220400Y-70002400D03*
X174117000Y-66344800D03*
X176555400Y-68783200D03*
X133858000Y-64389000D03*
X167487600Y-63601600D03*
X146837400Y-81407000D03*
X167741600Y-72872600D03*
X180213000Y-85140800D03*
X145872200Y-79502000D03*
X166116000Y-68681600D03*
X151460200Y-95808800D03*
X133883400Y-102641400D03*
X172364400Y-66040000D03*
X155625800Y-78536800D03*
X172288200Y-63855600D03*
X161315400Y-78536800D03*
X140258800Y-75768200D03*
X162280600Y-64084200D03*
X155575000Y-72644000D03*
X162814000Y-105892600D03*
X147853400Y-103022400D03*
X128625600Y-72161400D03*
X157429200Y-74320400D03*
X135915400Y-84099400D03*
X167436800Y-64719200D03*
X151460200Y-80975200D03*
X169367200Y-67233800D03*
X135580600Y-103581200D03*
X149072600Y-87833200D03*
X169214800Y-65887600D03*
X141401800Y-110667800D03*
X167741600Y-71043800D03*
X160477200Y-92481400D03*
X174294800Y-107365800D03*
X163195000Y-98831400D03*
X165811200Y-98831400D03*
X153949400Y-63982600D03*
X141071600Y-85369400D03*
X170484800Y-86233000D03*
X180289200Y-79476600D03*
X138455400Y-99491800D03*
X159842200Y-79121000D03*
X144881600Y-86360000D03*
X163093400Y-65862200D03*
X153492200Y-67284600D03*
X167792400Y-88519000D03*
X150012400Y-86944200D03*
X168224200Y-79019400D03*
X161036000Y-75920600D03*
X163245800Y-68072000D03*
X158978600Y-105765600D03*
X151282400Y-109245400D03*
X146710400Y-83845400D03*
X161239200Y-69926200D03*
X163449000Y-109296200D03*
X166827200Y-78587600D03*
X151612600Y-78181200D03*
X158546800Y-110566200D03*
X166141400Y-63627000D03*
X133781800Y-71170800D03*
X158724600Y-75488800D03*
X179908200Y-93929200D03*
X159562800Y-64389000D03*
X159918400Y-98958400D03*
X133578600Y-99314000D03*
X143713200Y-63931800D03*
X133604000Y-97612200D03*
X138277600Y-85064600D03*
X174574200Y-68148200D03*
X136169400Y-110109000D03*
X131445000Y-71475600D03*
X170688000Y-110617000D03*
X150215600Y-92176600D03*
X147853400Y-99568000D03*
X165811200Y-65862200D03*
X170307000Y-92430600D03*
X163245800Y-80162400D03*
X148005800Y-67233800D03*
X170078400Y-82778600D03*
X149148800Y-95808800D03*
X151790400Y-75971400D03*
X167538400Y-65862200D03*
X172110400Y-69621400D03*
X165760400Y-64668400D03*
X148818600Y-91186000D03*
X168884600Y-68630800D03*
X174726600Y-86614000D03*
X173075600Y-92862400D03*
X158699200Y-67310000D03*
X159867600Y-80441800D03*
X174066200Y-63906400D03*
D36*
%TO.N,+12V*%
X155651200Y-86029800D03*
X166272300Y-88493600D03*
D34*
%TO.N,GND*%
X142646400Y-80949800D03*
%TD*%
D37*
%TO.N,Net-(Q4-D)*%
X138912600Y-101498400D02*
X139319000Y-101092000D01*
X138912600Y-107442000D02*
X138912600Y-101498400D01*
X139319000Y-101092000D02*
X141006600Y-101092000D01*
X131064000Y-104241600D02*
X135128000Y-108305600D01*
X131064000Y-99949000D02*
X131064000Y-104241600D01*
X135128000Y-108305600D02*
X138049000Y-108305600D01*
X138049000Y-108305600D02*
X138912600Y-107442000D01*
X130149600Y-99034600D02*
X131064000Y-99949000D01*
X128803400Y-99034600D02*
X130149600Y-99034600D01*
X128778000Y-99060000D02*
X128803400Y-99034600D01*
D38*
%TO.N,+5V*%
X139166600Y-74904600D02*
X138074400Y-74904600D01*
X140233399Y-73837801D02*
X139166600Y-74904600D01*
X140233399Y-73639398D02*
X140233399Y-73837801D01*
%TO.N,Net-(U6A--)*%
X141503399Y-81965795D02*
X142341603Y-82803999D01*
X141503399Y-78589398D02*
X141503399Y-81965795D01*
X135763000Y-79922996D02*
X136688204Y-80848200D01*
X136688204Y-80848200D02*
X140385800Y-80848200D01*
X140385800Y-80848200D02*
X141503400Y-81965800D01*
X135763000Y-78968598D02*
X135763000Y-79922996D01*
%TO.N,Net-(Q3-G)*%
X146322800Y-98711000D02*
X146322800Y-98272600D01*
X144322800Y-100711000D02*
X146322800Y-98711000D01*
X144322800Y-101222600D02*
X144322800Y-100711000D01*
D39*
%TO.N,+5V*%
X129971800Y-96520000D02*
X129879600Y-96520000D01*
X132969000Y-93522800D02*
X129971800Y-96520000D01*
X133763000Y-93522800D02*
X132969000Y-93522800D01*
X132168900Y-98831400D02*
X132168900Y-103365300D01*
X129879600Y-96542100D02*
X132168900Y-98831400D01*
X129879600Y-96520000D02*
X129879600Y-96542100D01*
X132943600Y-104140000D02*
X132168900Y-103365300D01*
X133712200Y-93472000D02*
X133604000Y-93472000D01*
X133763000Y-93522800D02*
X133712200Y-93472000D01*
X135788400Y-74904597D02*
X132562600Y-74904597D01*
X127828000Y-77607200D02*
X127828000Y-89361799D01*
X130530603Y-74904597D02*
X127828000Y-77607200D01*
X132562600Y-74904597D02*
X130530603Y-74904597D01*
D37*
%TO.N,Net-(U7B--)*%
X142595600Y-99822000D02*
X141006600Y-99822000D01*
X142900400Y-101701600D02*
X142900400Y-100126800D01*
X142367000Y-102235000D02*
X142900400Y-101701600D01*
X142900400Y-100126800D02*
X142595600Y-99822000D01*
X142367000Y-103403400D02*
X142367000Y-102235000D01*
X142367000Y-106121200D02*
X142367000Y-103403400D01*
D39*
%TO.N,+5V*%
X140335000Y-106830200D02*
X140367000Y-106830200D01*
X140335000Y-108077000D02*
X140335000Y-106830200D01*
D40*
%TO.N,GND*%
X140367000Y-103403400D02*
X140665200Y-103403400D01*
D37*
%TO.N,/delay_trigger*%
X132668799Y-89361799D02*
X129728000Y-89361799D01*
X135772400Y-92465400D02*
X132668799Y-89361799D01*
X135772400Y-92710000D02*
X135772400Y-93776800D01*
%TO.N,Net-(Q1-D)*%
X127828000Y-103859800D02*
X127879600Y-103911400D01*
X127828000Y-100935001D02*
X127828000Y-103859800D01*
X127279400Y-93522800D02*
X127918300Y-93522800D01*
X126441200Y-99548201D02*
X126441200Y-94361000D01*
X127828000Y-100935001D02*
X126441200Y-99548201D01*
X126441200Y-94361000D02*
X127279400Y-93522800D01*
X128778000Y-92663100D02*
X127918300Y-93522800D01*
X128778000Y-91236800D02*
X128778000Y-92663100D01*
%TO.N,Net-(Q4-D)*%
X127879600Y-98161600D02*
X128778000Y-99060000D01*
X127879600Y-96520000D02*
X127879600Y-98161600D01*
%TO.N,+5V*%
X168732200Y-87045800D02*
X168732200Y-90297000D01*
D39*
X139039600Y-91338400D02*
X139039600Y-93361000D01*
D41*
X151561800Y-83820000D02*
X153435600Y-83820000D01*
X153435600Y-83820000D02*
X153635200Y-84019600D01*
D39*
X138074400Y-76968595D02*
X138074404Y-76968599D01*
X141026300Y-95449300D02*
X138988800Y-93411800D01*
X141111200Y-95449300D02*
X141111200Y-97177400D01*
D37*
X168300400Y-86614000D02*
X168732200Y-87045800D01*
D39*
X139065000Y-91313000D02*
X140411200Y-91313000D01*
X138074397Y-74904597D02*
X138074400Y-74904600D01*
X138074400Y-74904600D02*
X138074400Y-76968595D01*
X135788400Y-76943197D02*
X135763000Y-76968597D01*
D41*
X141111200Y-95449300D02*
X141026300Y-95449300D01*
D39*
X135788400Y-74904597D02*
X135788400Y-76943197D01*
D42*
X152508200Y-89484200D02*
X151892000Y-89484200D01*
D39*
X140411200Y-91313000D02*
X141169400Y-90554800D01*
D37*
X151892000Y-89484200D02*
X150596600Y-90779600D01*
D39*
X139039600Y-91338400D02*
X139065000Y-91313000D01*
X135788400Y-74904597D02*
X138074397Y-74904597D01*
X141169400Y-90554800D02*
X141169400Y-89660500D01*
X139039600Y-93361000D02*
X138988800Y-93411800D01*
D41*
X149779900Y-72964799D02*
X149584401Y-73160298D01*
X149584401Y-73160298D02*
X149584401Y-75062799D01*
D38*
%TO.N,GND*%
X160324800Y-92329000D02*
X160477200Y-92481400D01*
X144348200Y-86360000D02*
X144881600Y-86360000D01*
X150215600Y-92176600D02*
X150495000Y-91897200D01*
X150495000Y-91897200D02*
X152508200Y-91897200D01*
X158481800Y-92329000D02*
X160324800Y-92329000D01*
X168764200Y-92532200D02*
X170205400Y-92532200D01*
X143869400Y-86838800D02*
X144348200Y-86360000D01*
X170205400Y-92532200D02*
X170307000Y-92430600D01*
X143869400Y-87760500D02*
X143869400Y-86838800D01*
%TO.N,+12V*%
X166246900Y-88519000D02*
X166272300Y-88493600D01*
X155829000Y-86207600D02*
X158470600Y-86207600D01*
X163431800Y-88519000D02*
X166246900Y-88519000D01*
%TO.N,Net-(U7A--)*%
X137871200Y-98196400D02*
X137515600Y-98552000D01*
X137871200Y-96647000D02*
X137871200Y-98196400D01*
X135704501Y-89730001D02*
X137287000Y-91312500D01*
X137287000Y-96062800D02*
X137871200Y-96647000D01*
X135686800Y-89705000D02*
X136887098Y-89705000D01*
X137515600Y-98552000D02*
X136056600Y-98552000D01*
X138556600Y-87655001D02*
X138583499Y-87681900D01*
X136904799Y-89687299D02*
X138869898Y-87722200D01*
X138869898Y-87722200D02*
X138912600Y-87722200D01*
X137287000Y-91312500D02*
X137287000Y-96062800D01*
D43*
%TO.N,/relay-*%
X146260300Y-105232200D02*
X149072600Y-105232200D01*
X154074800Y-106019600D02*
X156314800Y-108259600D01*
X149072600Y-105232200D02*
X149860000Y-106019600D01*
X149860000Y-106019600D02*
X154074800Y-106019600D01*
D38*
%TO.N,/SIGN1*%
X172694600Y-82778600D02*
X172288200Y-82778600D01*
X158470600Y-82397600D02*
X159751800Y-82397600D01*
X170129200Y-84937600D02*
X163420600Y-84937600D01*
X151434800Y-71170800D02*
X157937200Y-77673200D01*
X144043399Y-73639398D02*
X146511997Y-71170800D01*
X162291800Y-84937600D02*
X163420600Y-84937600D01*
X172288200Y-82778600D02*
X170129200Y-84937600D01*
X157937200Y-81864200D02*
X158470600Y-82397600D01*
X146511997Y-71170800D02*
X151434800Y-71170800D01*
X159751800Y-82397600D02*
X162291800Y-84937600D01*
X157937200Y-77673200D02*
X157937200Y-81864200D01*
X172694600Y-82778600D02*
X172694600Y-80899000D01*
D42*
X172694600Y-80899000D02*
X172770800Y-80822800D01*
D38*
%TO.N,/SIGN2*%
X143840200Y-80631198D02*
X143840200Y-85090000D01*
X164676400Y-93726000D02*
X163431800Y-92481400D01*
X142773399Y-78589398D02*
X142773399Y-79564397D01*
X142494000Y-86436200D02*
X142494000Y-91440000D01*
X170637200Y-93802200D02*
X171450000Y-92989400D01*
X142773399Y-79564397D02*
X143840200Y-80631198D01*
X171450000Y-90890600D02*
X170881800Y-90322400D01*
X164752600Y-93802200D02*
X170637200Y-93802200D01*
X158481800Y-89789000D02*
X159382000Y-89789000D01*
D42*
X170881800Y-90052400D02*
X170872400Y-90043000D01*
D38*
X161922000Y-92329000D02*
X163431800Y-92329000D01*
X163431800Y-92481400D02*
X163431800Y-92329000D01*
X164676400Y-93726000D02*
X164752600Y-93802200D01*
X142494000Y-91440000D02*
X144780000Y-93726000D01*
X163431800Y-92329000D02*
X163449000Y-92329000D01*
X144780000Y-93726000D02*
X164676400Y-93726000D01*
X170872400Y-90043000D02*
X170872400Y-88214200D01*
X171450000Y-92989400D02*
X171450000Y-90890600D01*
D42*
X170881800Y-90322400D02*
X170881800Y-90052400D01*
X170872400Y-90313000D02*
X170881800Y-90322400D01*
D38*
X159382000Y-89789000D02*
X161922000Y-92329000D01*
X143840200Y-85090000D02*
X142494000Y-86436200D01*
D44*
%TO.N,/SC1*%
X172442000Y-98144200D02*
X168376600Y-102209600D01*
X177131000Y-98144200D02*
X172442000Y-98144200D01*
X168376600Y-102209600D02*
X154364800Y-102209600D01*
D38*
%TO.N,Net-(Q3-G)*%
X144385300Y-104282200D02*
X144385300Y-101285100D01*
X144385300Y-101285100D02*
X144322800Y-101222600D01*
%TO.N,Net-(U1B--)*%
X155609800Y-81838800D02*
X157438600Y-83667600D01*
X155635200Y-84019600D02*
X155635200Y-81864200D01*
X155635200Y-81864200D02*
X155609800Y-81838800D01*
X157438600Y-83667600D02*
X158470600Y-83667600D01*
%TO.N,Net-(U1A-+)*%
X165956000Y-83667600D02*
X163420600Y-83667600D01*
X165995600Y-81188399D02*
X165985601Y-81178400D01*
X165995600Y-83362800D02*
X165741600Y-83616800D01*
X165995600Y-83362800D02*
X165995600Y-81188399D01*
%TO.N,Net-(U2B--)*%
X166732200Y-92500200D02*
X166764200Y-92532200D01*
X163431800Y-91059000D02*
X165240000Y-91059000D01*
X165970200Y-91059000D02*
X166732200Y-90297000D01*
X165240000Y-91059000D02*
X165970200Y-91059000D01*
X166732200Y-90297000D02*
X166732200Y-92500200D01*
%TO.N,Net-(U2A-+)*%
X154508200Y-89484200D02*
X154508200Y-91897200D01*
X156724400Y-91059000D02*
X158481800Y-91059000D01*
X154508200Y-91897200D02*
X155886200Y-91897200D01*
X155886200Y-91897200D02*
X156724400Y-91059000D01*
%TO.N,/SCS*%
X160118600Y-88519000D02*
X161388600Y-89789000D01*
X143869400Y-89660500D02*
X149556700Y-89660500D01*
X165894000Y-86207600D02*
X166246600Y-86560200D01*
X157669000Y-87706200D02*
X158481800Y-88519000D01*
X159802600Y-87198200D02*
X158481800Y-88519000D01*
X149556700Y-89660500D02*
X151511000Y-87706200D01*
X163420600Y-86207600D02*
X165894000Y-86207600D01*
X161453600Y-86207600D02*
X163420600Y-86207600D01*
X166300400Y-86614000D02*
X165716200Y-87198200D01*
X158481800Y-88519000D02*
X160118600Y-88519000D01*
X165716200Y-87198200D02*
X159802600Y-87198200D01*
X158470600Y-84937600D02*
X160183600Y-84937600D01*
X151511000Y-87706200D02*
X157669000Y-87706200D01*
X161388600Y-89789000D02*
X163431800Y-89789000D01*
X160183600Y-84937600D02*
X161453600Y-86207600D01*
X166237200Y-86969600D02*
X166186400Y-86918800D01*
%TO.N,Net-(U6B--)*%
X142773399Y-69291194D02*
X142341604Y-68859399D01*
X135788400Y-71289798D02*
X135788400Y-72904596D01*
X142773399Y-73639398D02*
X142773399Y-69291194D01*
X142341604Y-68859399D02*
X140522206Y-70678797D01*
X140522206Y-70678797D02*
X136399401Y-70678797D01*
X136399401Y-70678797D02*
X135788400Y-71289798D01*
D37*
%TO.N,Net-(R12-Pad2)*%
X146814000Y-75133200D02*
X146884401Y-75062798D01*
X142022200Y-75133200D02*
X146814000Y-75133200D01*
X141503399Y-74614399D02*
X142022200Y-75133200D01*
D38*
X141503399Y-72229599D02*
X141503399Y-73639398D01*
X138074399Y-72904600D02*
X138074400Y-72280398D01*
X141098401Y-71847197D02*
X141492101Y-72240897D01*
X141492101Y-72240897D02*
X141503399Y-72229599D01*
X138507601Y-71847197D02*
X141098401Y-71847197D01*
X138074400Y-72280398D02*
X138507601Y-71847197D01*
D37*
X141503399Y-73639398D02*
X141503399Y-74614399D01*
D38*
%TO.N,Net-(R13-Pad2)*%
X139854198Y-78968598D02*
X140233399Y-78589398D01*
X140233400Y-77614398D02*
X140233400Y-78589398D01*
X138074404Y-78968599D02*
X139854198Y-78968598D01*
X141835001Y-76012797D02*
X140233400Y-77614398D01*
X146884400Y-76012798D02*
X141835001Y-76012797D01*
%TO.N,Net-(R14-Pad1)*%
X140941100Y-87760500D02*
X141169400Y-87760500D01*
X139019700Y-89681900D02*
X140941100Y-87760500D01*
X138583499Y-89681900D02*
X139019700Y-89681900D01*
%TO.N,Net-(U7A-+)*%
X137580600Y-103581200D02*
X137580600Y-106222800D01*
X136056600Y-99822000D02*
X137031599Y-99822000D01*
X137031599Y-99822000D02*
X137580600Y-100371001D01*
X137580600Y-106222800D02*
X137606000Y-106248200D01*
X137580600Y-100371001D02*
X137580600Y-103581200D01*
D37*
%TO.N,/delay_trigger*%
X135763000Y-96988400D02*
X136056600Y-97282000D01*
X135763000Y-93786200D02*
X135763000Y-96988400D01*
X135772400Y-92465400D02*
X135772400Y-92710000D01*
X135763000Y-93522800D02*
X135753600Y-93532200D01*
D38*
%TO.N,/relay_trigger*%
X144043400Y-98552000D02*
X144322800Y-98272600D01*
X138988800Y-97866200D02*
X139674600Y-98552000D01*
X141006600Y-98552000D02*
X144043400Y-98552000D01*
X138988800Y-95411800D02*
X138988800Y-97866200D01*
X139674600Y-98552000D02*
X141006600Y-98552000D01*
%TO.N,/OVERLIMIT*%
X143869400Y-88710500D02*
X144664700Y-88710500D01*
X144664700Y-88710500D02*
X149584401Y-83790799D01*
X149584401Y-83790799D02*
X149584401Y-76962799D01*
%TO.N,Net-(J1-Pin_1)*%
X175790600Y-88826600D02*
X175178200Y-88214200D01*
X175178200Y-88214200D02*
X172872400Y-88214200D01*
X175790600Y-88826600D02*
X177114200Y-88826600D01*
%TO.N,Net-(J1-Pin_2)*%
X176066200Y-84778600D02*
X172694600Y-84778600D01*
X177114200Y-85826600D02*
X176066200Y-84778600D01*
D39*
%TO.N,+5V*%
X135051800Y-106248200D02*
X135606000Y-106248200D01*
X132943600Y-104140000D02*
X135051800Y-106248200D01*
D38*
%TO.N,Net-(U6A--)*%
X141503400Y-78589399D02*
X141503399Y-78589398D01*
X141808204Y-82270600D02*
X141808200Y-82270600D01*
X142341603Y-82803999D02*
X141808204Y-82270600D01*
X141808200Y-82270600D02*
X141503400Y-81965800D01*
%TD*%
%TA.AperFunction,Conductor*%
%TO.N,GND*%
G36*
X181602439Y-62724785D02*
G01*
X181648194Y-62777589D01*
X181659400Y-62829100D01*
X181659400Y-111580100D01*
X181639715Y-111647139D01*
X181586911Y-111692894D01*
X181535400Y-111704100D01*
X125784400Y-111704100D01*
X125717361Y-111684415D01*
X125671606Y-111631611D01*
X125660400Y-111580100D01*
X125660400Y-108616111D01*
X126775100Y-108616111D01*
X126775100Y-108858687D01*
X126798375Y-109035488D01*
X126806762Y-109099189D01*
X126838154Y-109216344D01*
X126869547Y-109333504D01*
X126903830Y-109416270D01*
X126962376Y-109557612D01*
X127083664Y-109767689D01*
X127083666Y-109767692D01*
X127083667Y-109767693D01*
X127231333Y-109960136D01*
X127231339Y-109960143D01*
X127402856Y-110131660D01*
X127402863Y-110131666D01*
X127437180Y-110157998D01*
X127595311Y-110279336D01*
X127805388Y-110400624D01*
X128029500Y-110493454D01*
X128263811Y-110556238D01*
X128444186Y-110579984D01*
X128504311Y-110587900D01*
X128504312Y-110587900D01*
X128746889Y-110587900D01*
X128794988Y-110581567D01*
X128987389Y-110556238D01*
X129221700Y-110493454D01*
X129445812Y-110400624D01*
X129655889Y-110279336D01*
X129848338Y-110131665D01*
X130019865Y-109960138D01*
X130167536Y-109767689D01*
X130288824Y-109557612D01*
X130381654Y-109333500D01*
X130444438Y-109099189D01*
X130476100Y-108858688D01*
X130476100Y-108616112D01*
X130444438Y-108375611D01*
X130381654Y-108141300D01*
X130376340Y-108128472D01*
X130348312Y-108060805D01*
X130288824Y-107917188D01*
X130167536Y-107707111D01*
X130039355Y-107540062D01*
X130019866Y-107514663D01*
X130019860Y-107514656D01*
X129848343Y-107343139D01*
X129848336Y-107343133D01*
X129655893Y-107195467D01*
X129655892Y-107195466D01*
X129655889Y-107195464D01*
X129445812Y-107074176D01*
X129445329Y-107073976D01*
X129221704Y-106981347D01*
X129082182Y-106943962D01*
X128987389Y-106918562D01*
X128987388Y-106918561D01*
X128987385Y-106918561D01*
X128746889Y-106886900D01*
X128746888Y-106886900D01*
X128504312Y-106886900D01*
X128504311Y-106886900D01*
X128263814Y-106918561D01*
X128029495Y-106981347D01*
X127805394Y-107074173D01*
X127805385Y-107074177D01*
X127641584Y-107168748D01*
X127614423Y-107184430D01*
X127595306Y-107195467D01*
X127402863Y-107343133D01*
X127402856Y-107343139D01*
X127231339Y-107514656D01*
X127231333Y-107514663D01*
X127083667Y-107707106D01*
X126962377Y-107917185D01*
X126962373Y-107917194D01*
X126869547Y-108141295D01*
X126806761Y-108375614D01*
X126775100Y-108616111D01*
X125660400Y-108616111D01*
X125660400Y-100032191D01*
X125680085Y-99965152D01*
X125732889Y-99919397D01*
X125802047Y-99909453D01*
X125865603Y-99938478D01*
X125887499Y-99963296D01*
X125904465Y-99988688D01*
X125904469Y-99988692D01*
X125904469Y-99988693D01*
X126767601Y-100851824D01*
X126781917Y-100868989D01*
X126938716Y-101095796D01*
X127005498Y-101192394D01*
X127027430Y-101258733D01*
X127027500Y-101262909D01*
X127027500Y-101588202D01*
X127030401Y-101625068D01*
X127030402Y-101625071D01*
X127044634Y-101674056D01*
X127048913Y-101696022D01*
X127049970Y-101706348D01*
X127049971Y-101706353D01*
X127133302Y-102039900D01*
X127137000Y-102069955D01*
X127137000Y-102465366D01*
X127126111Y-102516179D01*
X126848648Y-103133810D01*
X126845357Y-103141138D01*
X126844786Y-103142066D01*
X126844352Y-103143373D01*
X126841761Y-103149143D01*
X126841761Y-103149144D01*
X126840940Y-103150971D01*
X126840936Y-103150982D01*
X126817571Y-103224167D01*
X126817151Y-103225456D01*
X126789601Y-103308598D01*
X126779100Y-103411383D01*
X126779100Y-104411401D01*
X126779101Y-104411419D01*
X126789600Y-104514196D01*
X126789601Y-104514199D01*
X126844785Y-104680731D01*
X126844787Y-104680736D01*
X126858457Y-104702898D01*
X126936888Y-104830056D01*
X127060944Y-104954112D01*
X127210266Y-105046214D01*
X127376803Y-105101399D01*
X127479591Y-105111900D01*
X128279608Y-105111899D01*
X128279616Y-105111898D01*
X128279619Y-105111898D01*
X128335902Y-105106148D01*
X128382397Y-105101399D01*
X128548934Y-105046214D01*
X128698256Y-104954112D01*
X128792275Y-104860092D01*
X128853594Y-104826610D01*
X128923286Y-104831594D01*
X128967634Y-104860095D01*
X129061254Y-104953715D01*
X129210475Y-105045756D01*
X129210480Y-105045758D01*
X129376902Y-105100905D01*
X129376909Y-105100906D01*
X129479619Y-105111399D01*
X129629599Y-105111399D01*
X129629600Y-105111398D01*
X129629600Y-102711400D01*
X129479627Y-102711400D01*
X129479612Y-102711401D01*
X129376902Y-102721894D01*
X129210480Y-102777041D01*
X129210475Y-102777043D01*
X129061257Y-102869082D01*
X128981796Y-102948543D01*
X128920472Y-102982027D01*
X128850781Y-102977043D01*
X128794847Y-102935171D01*
X128787115Y-102923527D01*
X128775322Y-102903391D01*
X128618113Y-102634962D01*
X128536000Y-102494756D01*
X128519000Y-102432090D01*
X128519000Y-102069957D01*
X128522697Y-102039902D01*
X128606029Y-101706345D01*
X128611235Y-101683211D01*
X128611235Y-101683202D01*
X128611945Y-101678104D01*
X128612489Y-101678179D01*
X128615783Y-101658850D01*
X128620226Y-101643561D01*
X128625598Y-101625070D01*
X128628500Y-101588195D01*
X128628500Y-101588150D01*
X128928000Y-101588150D01*
X128930899Y-101624990D01*
X128930900Y-101624996D01*
X128976716Y-101782694D01*
X128976717Y-101782697D01*
X129060314Y-101924053D01*
X129060321Y-101924062D01*
X129176438Y-102040179D01*
X129176447Y-102040186D01*
X129317801Y-102123782D01*
X129475514Y-102169601D01*
X129475511Y-102169601D01*
X129477998Y-102169796D01*
X129478000Y-102169796D01*
X129478000Y-101185001D01*
X128928000Y-101185001D01*
X128928000Y-101588150D01*
X128628500Y-101588150D01*
X128628500Y-100422000D01*
X128648185Y-100354961D01*
X128700989Y-100309206D01*
X128752500Y-100298000D01*
X128804000Y-100298000D01*
X128871039Y-100317685D01*
X128916794Y-100370489D01*
X128928000Y-100422000D01*
X128928000Y-100685001D01*
X129604000Y-100685001D01*
X129671039Y-100704686D01*
X129716794Y-100757490D01*
X129728000Y-100809001D01*
X129728000Y-100935001D01*
X129854000Y-100935001D01*
X129921039Y-100954686D01*
X129966794Y-101007490D01*
X129978000Y-101059001D01*
X129978000Y-102169796D01*
X129978001Y-102169796D01*
X129980486Y-102169601D01*
X130138196Y-102123783D01*
X130185878Y-102095584D01*
X130253602Y-102078401D01*
X130319865Y-102100561D01*
X130363629Y-102155026D01*
X130373000Y-102202316D01*
X130373000Y-102587400D01*
X130353315Y-102654439D01*
X130300511Y-102700194D01*
X130249000Y-102711400D01*
X130129600Y-102711400D01*
X130129600Y-105111399D01*
X130279572Y-105111399D01*
X130279586Y-105111398D01*
X130382297Y-105100905D01*
X130548719Y-105045758D01*
X130548726Y-105045755D01*
X130676932Y-104966676D01*
X130744325Y-104948235D01*
X130810988Y-104969157D01*
X130829711Y-104984533D01*
X134687511Y-108842333D01*
X134687514Y-108842335D01*
X134711220Y-108858175D01*
X134711987Y-108858687D01*
X134711988Y-108858688D01*
X134800682Y-108917952D01*
X134800695Y-108917959D01*
X134926438Y-108970043D01*
X134926443Y-108970045D01*
X134926447Y-108970045D01*
X134926448Y-108970046D01*
X135059939Y-108996600D01*
X135059942Y-108996600D01*
X138117060Y-108996600D01*
X138206870Y-108978734D01*
X138250557Y-108970045D01*
X138376311Y-108917956D01*
X138407101Y-108897383D01*
X138434563Y-108879033D01*
X138489487Y-108842335D01*
X139242515Y-108089305D01*
X139303838Y-108055821D01*
X139373529Y-108060805D01*
X139429463Y-108102676D01*
X139450990Y-108158107D01*
X139452311Y-108157845D01*
X139487374Y-108334118D01*
X139487377Y-108334128D01*
X139553821Y-108494540D01*
X139553828Y-108494553D01*
X139650293Y-108638922D01*
X139650296Y-108638926D01*
X139773073Y-108761703D01*
X139773077Y-108761706D01*
X139917446Y-108858171D01*
X139917459Y-108858178D01*
X140061778Y-108917956D01*
X140077876Y-108924624D01*
X140077880Y-108924624D01*
X140077881Y-108924625D01*
X140248177Y-108958500D01*
X140248180Y-108958500D01*
X140421822Y-108958500D01*
X140536394Y-108935709D01*
X140592124Y-108924624D01*
X140752547Y-108858175D01*
X140896923Y-108761706D01*
X141019706Y-108638923D01*
X141116175Y-108494547D01*
X141182624Y-108334124D01*
X141193709Y-108278394D01*
X141216500Y-108163822D01*
X141216500Y-107184430D01*
X141225144Y-107154989D01*
X141231668Y-107125003D01*
X141235422Y-107119987D01*
X141236185Y-107117391D01*
X141252819Y-107096749D01*
X141279319Y-107070249D01*
X141340642Y-107036764D01*
X141410334Y-107041748D01*
X141454681Y-107070249D01*
X141548344Y-107163912D01*
X141697666Y-107256014D01*
X141864203Y-107311199D01*
X141966991Y-107321700D01*
X142767008Y-107321699D01*
X142767016Y-107321698D01*
X142767019Y-107321698D01*
X142823302Y-107315948D01*
X142869797Y-107311199D01*
X143036334Y-107256014D01*
X143185656Y-107163912D01*
X143309712Y-107039856D01*
X143354803Y-106966751D01*
X143406746Y-106920029D01*
X143475709Y-106908806D01*
X143523461Y-106925118D01*
X143537607Y-106933484D01*
X143695304Y-106979299D01*
X143695310Y-106979300D01*
X143732150Y-106982199D01*
X143732166Y-106982200D01*
X144135300Y-106982200D01*
X144635300Y-106982200D01*
X145038434Y-106982200D01*
X145038449Y-106982199D01*
X145075289Y-106979300D01*
X145075295Y-106979299D01*
X145232993Y-106933483D01*
X145232996Y-106933482D01*
X145374352Y-106849885D01*
X145374361Y-106849878D01*
X145490478Y-106733761D01*
X145490485Y-106733752D01*
X145574081Y-106592398D01*
X145619900Y-106434686D01*
X145620095Y-106432201D01*
X145620095Y-106432200D01*
X144635300Y-106432200D01*
X144635300Y-106982200D01*
X144135300Y-106982200D01*
X144135300Y-105382200D01*
X143732150Y-105382200D01*
X143695310Y-105385099D01*
X143695304Y-105385100D01*
X143552356Y-105426631D01*
X143482486Y-105426432D01*
X143423816Y-105388490D01*
X143406371Y-105357706D01*
X143404864Y-105358409D01*
X143401815Y-105351870D01*
X143401814Y-105351866D01*
X143309712Y-105202544D01*
X143261601Y-105154433D01*
X143228116Y-105093110D01*
X143233100Y-105023418D01*
X143274972Y-104967485D01*
X143340436Y-104943068D01*
X143408709Y-104957920D01*
X143412398Y-104960017D01*
X143537402Y-105033944D01*
X143544751Y-105036079D01*
X143695226Y-105079797D01*
X143695229Y-105079797D01*
X143695231Y-105079798D01*
X143732106Y-105082700D01*
X144898300Y-105082700D01*
X144906985Y-105085250D01*
X144915947Y-105083962D01*
X144939987Y-105094940D01*
X144965339Y-105102385D01*
X144971266Y-105109225D01*
X144979503Y-105112987D01*
X144993792Y-105135221D01*
X145011094Y-105155189D01*
X145013381Y-105165703D01*
X145017277Y-105171765D01*
X145022300Y-105206700D01*
X145022300Y-105258200D01*
X145002615Y-105325239D01*
X144949811Y-105370994D01*
X144898300Y-105382200D01*
X144635300Y-105382200D01*
X144635300Y-105932200D01*
X145290985Y-105932200D01*
X145354106Y-105949468D01*
X145412402Y-105983944D01*
X145454024Y-105996036D01*
X145570226Y-106029797D01*
X145570229Y-106029797D01*
X145570231Y-106029798D01*
X145607106Y-106032700D01*
X146144642Y-106032700D01*
X146168831Y-106035082D01*
X146180985Y-106037500D01*
X148440219Y-106037500D01*
X148507258Y-106057185D01*
X148553013Y-106109989D01*
X148562690Y-106142098D01*
X148586644Y-106293330D01*
X148591523Y-106324134D01*
X148654781Y-106518823D01*
X148692412Y-106592676D01*
X148740090Y-106686250D01*
X148747715Y-106701213D01*
X148868028Y-106866813D01*
X149012786Y-107011571D01*
X149138546Y-107102939D01*
X149178390Y-107131887D01*
X149250734Y-107168748D01*
X149360776Y-107224818D01*
X149360778Y-107224818D01*
X149360781Y-107224820D01*
X149456780Y-107256012D01*
X149555465Y-107288077D01*
X149656557Y-107304088D01*
X149757648Y-107320100D01*
X149757649Y-107320100D01*
X149962351Y-107320100D01*
X149962352Y-107320100D01*
X150164534Y-107288077D01*
X150359219Y-107224820D01*
X150541610Y-107131887D01*
X150665677Y-107041748D01*
X150707213Y-107011571D01*
X150707215Y-107011568D01*
X150707219Y-107011566D01*
X150851966Y-106866819D01*
X150851966Y-106866818D01*
X150855411Y-106863374D01*
X150856547Y-106864510D01*
X150909164Y-106830171D01*
X150944933Y-106824900D01*
X153689872Y-106824900D01*
X153756911Y-106844585D01*
X153777553Y-106861219D01*
X154594229Y-107677895D01*
X154627714Y-107739218D01*
X154626323Y-107797668D01*
X154607349Y-107868484D01*
X154594252Y-107917362D01*
X154594251Y-107917370D01*
X154564300Y-108144858D01*
X154564300Y-108374341D01*
X154580127Y-108494553D01*
X154594252Y-108601838D01*
X154607348Y-108650714D01*
X154653642Y-108823487D01*
X154741450Y-109035476D01*
X154741457Y-109035490D01*
X154856192Y-109234217D01*
X154995881Y-109416261D01*
X154995889Y-109416270D01*
X155158130Y-109578511D01*
X155158138Y-109578518D01*
X155158139Y-109578519D01*
X155163997Y-109583014D01*
X155340182Y-109718207D01*
X155340185Y-109718208D01*
X155340188Y-109718211D01*
X155538912Y-109832944D01*
X155538917Y-109832946D01*
X155538923Y-109832949D01*
X155630280Y-109870790D01*
X155750913Y-109920758D01*
X155972562Y-109980148D01*
X156200066Y-110010100D01*
X156200073Y-110010100D01*
X156429527Y-110010100D01*
X156429534Y-110010100D01*
X156657038Y-109980148D01*
X156878687Y-109920758D01*
X157090688Y-109832944D01*
X157289412Y-109718211D01*
X157471461Y-109578519D01*
X157471465Y-109578514D01*
X157471470Y-109578511D01*
X157633711Y-109416270D01*
X157633714Y-109416265D01*
X157633719Y-109416261D01*
X157773411Y-109234212D01*
X157888144Y-109035488D01*
X157975958Y-108823487D01*
X158035348Y-108601838D01*
X158065300Y-108374334D01*
X158065300Y-108144866D01*
X158063142Y-108128472D01*
X166514300Y-108128472D01*
X166514300Y-108390727D01*
X166527969Y-108494547D01*
X166548530Y-108650716D01*
X166604256Y-108858688D01*
X166616402Y-108904018D01*
X166616405Y-108904028D01*
X166716753Y-109146290D01*
X166716758Y-109146300D01*
X166847875Y-109373403D01*
X167007518Y-109581451D01*
X167007526Y-109581460D01*
X167192940Y-109766874D01*
X167192948Y-109766881D01*
X167400996Y-109926524D01*
X167628099Y-110057641D01*
X167628109Y-110057646D01*
X167868131Y-110157066D01*
X167870381Y-110157998D01*
X168123684Y-110225870D01*
X168383680Y-110260100D01*
X168383687Y-110260100D01*
X168645913Y-110260100D01*
X168645920Y-110260100D01*
X168905916Y-110225870D01*
X169159219Y-110157998D01*
X169401497Y-110057643D01*
X169628603Y-109926524D01*
X169836651Y-109766882D01*
X169836655Y-109766877D01*
X169836660Y-109766874D01*
X170022074Y-109581460D01*
X170022077Y-109581455D01*
X170022082Y-109581451D01*
X170181724Y-109373403D01*
X170312843Y-109146297D01*
X170413198Y-108904019D01*
X170481070Y-108650716D01*
X170482282Y-108641511D01*
X176838500Y-108641511D01*
X176838500Y-108884088D01*
X176866817Y-109099185D01*
X176870162Y-109124589D01*
X176899536Y-109234212D01*
X176932947Y-109358904D01*
X177023915Y-109578519D01*
X177025776Y-109583012D01*
X177147064Y-109793089D01*
X177147066Y-109793092D01*
X177147067Y-109793093D01*
X177294733Y-109985536D01*
X177294739Y-109985543D01*
X177466256Y-110157060D01*
X177466263Y-110157066D01*
X177467478Y-110157998D01*
X177658711Y-110304736D01*
X177868788Y-110426024D01*
X178092900Y-110518854D01*
X178327211Y-110581638D01*
X178507586Y-110605384D01*
X178567711Y-110613300D01*
X178567712Y-110613300D01*
X178810289Y-110613300D01*
X178858388Y-110606967D01*
X179050789Y-110581638D01*
X179285100Y-110518854D01*
X179509212Y-110426024D01*
X179719289Y-110304736D01*
X179911738Y-110157065D01*
X180083265Y-109985538D01*
X180230936Y-109793089D01*
X180352224Y-109583012D01*
X180445054Y-109358900D01*
X180507838Y-109124589D01*
X180539500Y-108884088D01*
X180539500Y-108641512D01*
X180507838Y-108401011D01*
X180445054Y-108166700D01*
X180352224Y-107942588D01*
X180230936Y-107732511D01*
X180083265Y-107540062D01*
X180083260Y-107540056D01*
X179911743Y-107368539D01*
X179911736Y-107368533D01*
X179719293Y-107220867D01*
X179719292Y-107220866D01*
X179719289Y-107220864D01*
X179544565Y-107119987D01*
X179509214Y-107099577D01*
X179509205Y-107099573D01*
X179285104Y-107006747D01*
X179050785Y-106943961D01*
X178810289Y-106912300D01*
X178810288Y-106912300D01*
X178567712Y-106912300D01*
X178567711Y-106912300D01*
X178327214Y-106943961D01*
X178092895Y-107006747D01*
X177868794Y-107099573D01*
X177868785Y-107099577D01*
X177658706Y-107220867D01*
X177466263Y-107368533D01*
X177466256Y-107368539D01*
X177294739Y-107540056D01*
X177294733Y-107540063D01*
X177147067Y-107732506D01*
X177025777Y-107942585D01*
X177025773Y-107942594D01*
X176932947Y-108166695D01*
X176870161Y-108401014D01*
X176838500Y-108641511D01*
X170482282Y-108641511D01*
X170515300Y-108390720D01*
X170515300Y-108128480D01*
X170481070Y-107868484D01*
X170413198Y-107615181D01*
X170412957Y-107614600D01*
X170312846Y-107372909D01*
X170312841Y-107372899D01*
X170181724Y-107145796D01*
X170026849Y-106943962D01*
X170022082Y-106937749D01*
X170022081Y-106937748D01*
X170022074Y-106937740D01*
X169836660Y-106752326D01*
X169836651Y-106752318D01*
X169628603Y-106592675D01*
X169401500Y-106461558D01*
X169401490Y-106461553D01*
X169159228Y-106361205D01*
X169159221Y-106361203D01*
X169159219Y-106361202D01*
X168905916Y-106293330D01*
X168848139Y-106285723D01*
X168645927Y-106259100D01*
X168645920Y-106259100D01*
X168383680Y-106259100D01*
X168383672Y-106259100D01*
X168152572Y-106289526D01*
X168123684Y-106293330D01*
X167870381Y-106361202D01*
X167870371Y-106361205D01*
X167628109Y-106461553D01*
X167628099Y-106461558D01*
X167400996Y-106592675D01*
X167192948Y-106752318D01*
X167007518Y-106937748D01*
X166847875Y-107145796D01*
X166716758Y-107372899D01*
X166716753Y-107372909D01*
X166616405Y-107615171D01*
X166616402Y-107615181D01*
X166548530Y-107868485D01*
X166514300Y-108128472D01*
X158063142Y-108128472D01*
X158035348Y-107917362D01*
X157975958Y-107695713D01*
X157912334Y-107542111D01*
X157888149Y-107483723D01*
X157888146Y-107483717D01*
X157888144Y-107483712D01*
X157773411Y-107284988D01*
X157773408Y-107284985D01*
X157773407Y-107284982D01*
X157633718Y-107102938D01*
X157633711Y-107102930D01*
X157471470Y-106940689D01*
X157471461Y-106940681D01*
X157289417Y-106800992D01*
X157090690Y-106686257D01*
X157090676Y-106686250D01*
X156878687Y-106598442D01*
X156845882Y-106589652D01*
X156657038Y-106539052D01*
X156619015Y-106534046D01*
X156429541Y-106509100D01*
X156429534Y-106509100D01*
X156200066Y-106509100D01*
X156200058Y-106509100D01*
X155983515Y-106537609D01*
X155972562Y-106539052D01*
X155972555Y-106539054D01*
X155852868Y-106571123D01*
X155783019Y-106569460D01*
X155733095Y-106539029D01*
X154704658Y-105510592D01*
X154704638Y-105510570D01*
X154588152Y-105394084D01*
X154588148Y-105394081D01*
X154456259Y-105305955D01*
X154456246Y-105305948D01*
X154309701Y-105245248D01*
X154309691Y-105245245D01*
X154154117Y-105214299D01*
X154154115Y-105214299D01*
X153995485Y-105214299D01*
X153989371Y-105214299D01*
X153989351Y-105214300D01*
X150944933Y-105214300D01*
X150877894Y-105194615D01*
X150855854Y-105175382D01*
X150855411Y-105175826D01*
X150707213Y-105027628D01*
X150541613Y-104907315D01*
X150541612Y-104907314D01*
X150541610Y-104907313D01*
X150442699Y-104856915D01*
X150359223Y-104814381D01*
X150164534Y-104751122D01*
X149989995Y-104723478D01*
X149962352Y-104719100D01*
X149757648Y-104719100D01*
X149752776Y-104719100D01*
X149752776Y-104717492D01*
X149691294Y-104704570D01*
X149662271Y-104683003D01*
X149585952Y-104606684D01*
X149585948Y-104606681D01*
X149454059Y-104518555D01*
X149454046Y-104518548D01*
X149307501Y-104457848D01*
X149307491Y-104457845D01*
X149151917Y-104426899D01*
X149151915Y-104426899D01*
X148993285Y-104426899D01*
X148987171Y-104426899D01*
X148987151Y-104426900D01*
X146180985Y-104426900D01*
X146168831Y-104429317D01*
X146144642Y-104431700D01*
X145747300Y-104431700D01*
X145680261Y-104412015D01*
X145634506Y-104359211D01*
X145623300Y-104307700D01*
X145623300Y-104066513D01*
X145623299Y-104066498D01*
X145622550Y-104056986D01*
X145620398Y-104029631D01*
X145614009Y-104007641D01*
X145583726Y-103903408D01*
X145574544Y-103871802D01*
X145490881Y-103730335D01*
X145490879Y-103730333D01*
X145490876Y-103730329D01*
X145374670Y-103614123D01*
X145374662Y-103614117D01*
X145233197Y-103530455D01*
X145229202Y-103529295D01*
X145226441Y-103527531D01*
X145226035Y-103527356D01*
X145226063Y-103527290D01*
X145170317Y-103491687D01*
X145141113Y-103428214D01*
X145139800Y-103410219D01*
X145139800Y-102318330D01*
X145148443Y-102288893D01*
X145154967Y-102258904D01*
X145158722Y-102253886D01*
X145159485Y-102251291D01*
X145176113Y-102230654D01*
X145235475Y-102171292D01*
X145296794Y-102137810D01*
X145366486Y-102142794D01*
X145410834Y-102171295D01*
X145504454Y-102264915D01*
X145653675Y-102356956D01*
X145653680Y-102356958D01*
X145820102Y-102412105D01*
X145820109Y-102412106D01*
X145922819Y-102422599D01*
X146072799Y-102422599D01*
X146572800Y-102422599D01*
X146722772Y-102422599D01*
X146722786Y-102422598D01*
X146825497Y-102412105D01*
X146991919Y-102356958D01*
X146991924Y-102356956D01*
X147141145Y-102264915D01*
X147265115Y-102140945D01*
X147303649Y-102078472D01*
X152364300Y-102078472D01*
X152364300Y-102340727D01*
X152383715Y-102488189D01*
X152398530Y-102600716D01*
X152455165Y-102812080D01*
X152466402Y-102854018D01*
X152466405Y-102854028D01*
X152566753Y-103096290D01*
X152566758Y-103096300D01*
X152697875Y-103323403D01*
X152857518Y-103531451D01*
X152857526Y-103531460D01*
X153042940Y-103716874D01*
X153042948Y-103716881D01*
X153042949Y-103716882D01*
X153060481Y-103730335D01*
X153250996Y-103876524D01*
X153478099Y-104007641D01*
X153478109Y-104007646D01*
X153655663Y-104081191D01*
X153720381Y-104107998D01*
X153973684Y-104175870D01*
X154233680Y-104210100D01*
X154233687Y-104210100D01*
X154495913Y-104210100D01*
X154495920Y-104210100D01*
X154755916Y-104175870D01*
X155009219Y-104107998D01*
X155132385Y-104056981D01*
X174285500Y-104056981D01*
X174285500Y-104231418D01*
X174319527Y-104402483D01*
X174319529Y-104402491D01*
X174386278Y-104563639D01*
X174386283Y-104563648D01*
X174483186Y-104708673D01*
X174483189Y-104708677D01*
X174606522Y-104832010D01*
X174606526Y-104832013D01*
X174751551Y-104928916D01*
X174751560Y-104928921D01*
X174763197Y-104933741D01*
X174912709Y-104995671D01*
X175083781Y-105029699D01*
X175083785Y-105029700D01*
X175083786Y-105029700D01*
X175258215Y-105029700D01*
X175258216Y-105029699D01*
X175429291Y-104995671D01*
X175590442Y-104928920D01*
X175735474Y-104832013D01*
X175858813Y-104708674D01*
X175955720Y-104563642D01*
X176022471Y-104402491D01*
X176056500Y-104231414D01*
X176056500Y-104056986D01*
X176022471Y-103885909D01*
X175955720Y-103724758D01*
X175955719Y-103724757D01*
X175955716Y-103724751D01*
X175858813Y-103579726D01*
X175858810Y-103579722D01*
X175735477Y-103456389D01*
X175735473Y-103456386D01*
X175590448Y-103359483D01*
X175590439Y-103359478D01*
X175429291Y-103292729D01*
X175429283Y-103292727D01*
X175258218Y-103258700D01*
X175258214Y-103258700D01*
X175083786Y-103258700D01*
X175083781Y-103258700D01*
X174912716Y-103292727D01*
X174912708Y-103292729D01*
X174751560Y-103359478D01*
X174751551Y-103359483D01*
X174606526Y-103456386D01*
X174606522Y-103456389D01*
X174483189Y-103579722D01*
X174483186Y-103579726D01*
X174386283Y-103724751D01*
X174386278Y-103724760D01*
X174319529Y-103885908D01*
X174319527Y-103885916D01*
X174285500Y-104056981D01*
X155132385Y-104056981D01*
X155251497Y-104007643D01*
X155300517Y-103979341D01*
X155362585Y-103943507D01*
X155478603Y-103876524D01*
X155537670Y-103831200D01*
X155686651Y-103716882D01*
X155686655Y-103716877D01*
X155686660Y-103716874D01*
X155872074Y-103531460D01*
X155872079Y-103531454D01*
X155872082Y-103531451D01*
X155880398Y-103520613D01*
X155936825Y-103479411D01*
X155978773Y-103472100D01*
X168475960Y-103472100D01*
X168475961Y-103472100D01*
X168672236Y-103441013D01*
X168861232Y-103379605D01*
X169038294Y-103289387D01*
X169071948Y-103264936D01*
X169199064Y-103172581D01*
X169339581Y-103032064D01*
X169339582Y-103032062D01*
X169346642Y-103025002D01*
X169346647Y-103024995D01*
X171777459Y-100594184D01*
X175620500Y-100594184D01*
X175620500Y-101694215D01*
X175631000Y-101796995D01*
X175631001Y-101796997D01*
X175646492Y-101843745D01*
X175686186Y-101963535D01*
X175686187Y-101963537D01*
X175778286Y-102112851D01*
X175778289Y-102112855D01*
X175902344Y-102236910D01*
X175902348Y-102236913D01*
X176051662Y-102329012D01*
X176051664Y-102329013D01*
X176051666Y-102329014D01*
X176218203Y-102384199D01*
X176320992Y-102394700D01*
X176320997Y-102394700D01*
X177941003Y-102394700D01*
X177941008Y-102394700D01*
X178043797Y-102384199D01*
X178210334Y-102329014D01*
X178359655Y-102236911D01*
X178483711Y-102112855D01*
X178575814Y-101963534D01*
X178630999Y-101796997D01*
X178641500Y-101694208D01*
X178641500Y-100594192D01*
X178630999Y-100491403D01*
X178575814Y-100324866D01*
X178563100Y-100304254D01*
X178483713Y-100175548D01*
X178483710Y-100175544D01*
X178359655Y-100051489D01*
X178359651Y-100051486D01*
X178210337Y-99959387D01*
X178210335Y-99959386D01*
X178059646Y-99909453D01*
X178043797Y-99904201D01*
X178043795Y-99904200D01*
X177941015Y-99893700D01*
X177941008Y-99893700D01*
X176320992Y-99893700D01*
X176320984Y-99893700D01*
X176218204Y-99904200D01*
X176218203Y-99904201D01*
X176051664Y-99959386D01*
X176051662Y-99959387D01*
X175902348Y-100051486D01*
X175902344Y-100051489D01*
X175778289Y-100175544D01*
X175778286Y-100175548D01*
X175686187Y-100324862D01*
X175686186Y-100324864D01*
X175631001Y-100491403D01*
X175631000Y-100491404D01*
X175620500Y-100594184D01*
X171777459Y-100594184D01*
X172928625Y-99443019D01*
X172989948Y-99409534D01*
X173016306Y-99406700D01*
X177230360Y-99406700D01*
X177230361Y-99406700D01*
X177296485Y-99396227D01*
X177315883Y-99394700D01*
X177489422Y-99394700D01*
X177683826Y-99363909D01*
X177871025Y-99303084D01*
X178046405Y-99213724D01*
X178205646Y-99098028D01*
X178344828Y-98958846D01*
X178460524Y-98799605D01*
X178549884Y-98624225D01*
X178610709Y-98437026D01*
X178624941Y-98347167D01*
X178641500Y-98242622D01*
X178641500Y-98045777D01*
X178610709Y-97851373D01*
X178569651Y-97725011D01*
X178549884Y-97664175D01*
X178549882Y-97664172D01*
X178549882Y-97664170D01*
X178467897Y-97503266D01*
X178460524Y-97488795D01*
X178344828Y-97329554D01*
X178205646Y-97190372D01*
X178046405Y-97074676D01*
X178026263Y-97064413D01*
X177871029Y-96985317D01*
X177683826Y-96924490D01*
X177489422Y-96893700D01*
X177489417Y-96893700D01*
X177315883Y-96893700D01*
X177296485Y-96892173D01*
X177290679Y-96891253D01*
X177230361Y-96881700D01*
X172342639Y-96881700D01*
X172277214Y-96892062D01*
X172146362Y-96912787D01*
X171957370Y-96974193D01*
X171957367Y-96974194D01*
X171780305Y-97064413D01*
X171619533Y-97181221D01*
X171479016Y-97321739D01*
X167889975Y-100910781D01*
X167828652Y-100944266D01*
X167802294Y-100947100D01*
X155978773Y-100947100D01*
X155911734Y-100927415D01*
X155880399Y-100898587D01*
X155872082Y-100887749D01*
X155872081Y-100887748D01*
X155872079Y-100887745D01*
X155686660Y-100702326D01*
X155686651Y-100702318D01*
X155478603Y-100542675D01*
X155251500Y-100411558D01*
X155251490Y-100411553D01*
X155009228Y-100311205D01*
X155009221Y-100311203D01*
X155009219Y-100311202D01*
X154755916Y-100243330D01*
X154694324Y-100235221D01*
X154495927Y-100209100D01*
X154495920Y-100209100D01*
X154233680Y-100209100D01*
X154233672Y-100209100D01*
X154002572Y-100239526D01*
X153973684Y-100243330D01*
X153727830Y-100309206D01*
X153720381Y-100311202D01*
X153720371Y-100311205D01*
X153478109Y-100411553D01*
X153478099Y-100411558D01*
X153250996Y-100542675D01*
X153042948Y-100702318D01*
X152857518Y-100887748D01*
X152697875Y-101095796D01*
X152566758Y-101322899D01*
X152566753Y-101322909D01*
X152466405Y-101565171D01*
X152466402Y-101565181D01*
X152404288Y-101796997D01*
X152398530Y-101818485D01*
X152364300Y-102078472D01*
X147303649Y-102078472D01*
X147346300Y-102009324D01*
X147346300Y-102009323D01*
X147357155Y-101991725D01*
X147357158Y-101991719D01*
X147412305Y-101825297D01*
X147412306Y-101825290D01*
X147422799Y-101722586D01*
X147422800Y-101722573D01*
X147422800Y-101472600D01*
X146572800Y-101472600D01*
X146572800Y-102422599D01*
X146072799Y-102422599D01*
X146072800Y-102422598D01*
X146072800Y-100972600D01*
X146572800Y-100972600D01*
X147422799Y-100972600D01*
X147422799Y-100722628D01*
X147422798Y-100722613D01*
X147412305Y-100619902D01*
X147357158Y-100453480D01*
X147357156Y-100453475D01*
X147265115Y-100304254D01*
X147141145Y-100180284D01*
X146991924Y-100088243D01*
X146991919Y-100088241D01*
X146825497Y-100033094D01*
X146825490Y-100033093D01*
X146722786Y-100022600D01*
X146572800Y-100022600D01*
X146572800Y-100972600D01*
X146072800Y-100972600D01*
X146072800Y-100079385D01*
X146081443Y-100049949D01*
X146087963Y-100019966D01*
X146091722Y-100014943D01*
X146092485Y-100012346D01*
X146109107Y-99991715D01*
X146115645Y-99985177D01*
X146130241Y-99973240D01*
X146130078Y-99973029D01*
X146219237Y-99904200D01*
X146758052Y-99488246D01*
X146821227Y-99463045D01*
X146825597Y-99462599D01*
X146992134Y-99407414D01*
X147141456Y-99315312D01*
X147265512Y-99191256D01*
X147357614Y-99041934D01*
X147412799Y-98875397D01*
X147423300Y-98772609D01*
X147423299Y-97772592D01*
X147420026Y-97740556D01*
X147412799Y-97669803D01*
X147412798Y-97669800D01*
X147385497Y-97587410D01*
X147373675Y-97551735D01*
X148559500Y-97551735D01*
X148559500Y-99247470D01*
X148559501Y-99247476D01*
X148565908Y-99307083D01*
X148616202Y-99441928D01*
X148616206Y-99441935D01*
X148702452Y-99557144D01*
X148702455Y-99557147D01*
X148817664Y-99643393D01*
X148817671Y-99643397D01*
X148952517Y-99693691D01*
X148952516Y-99693691D01*
X148959444Y-99694435D01*
X149012127Y-99700100D01*
X150707872Y-99700099D01*
X150767483Y-99693691D01*
X150902331Y-99643396D01*
X151017546Y-99557146D01*
X151103796Y-99441931D01*
X151154091Y-99307083D01*
X151160500Y-99247473D01*
X151160499Y-97551728D01*
X151154091Y-97492117D01*
X151137197Y-97446823D01*
X151103797Y-97357271D01*
X151103793Y-97357264D01*
X151017547Y-97242055D01*
X151017544Y-97242052D01*
X150902335Y-97155806D01*
X150902328Y-97155802D01*
X150767482Y-97105508D01*
X150767483Y-97105508D01*
X150707883Y-97099101D01*
X150707881Y-97099100D01*
X150707873Y-97099100D01*
X150707864Y-97099100D01*
X149012129Y-97099100D01*
X149012123Y-97099101D01*
X148952516Y-97105508D01*
X148817671Y-97155802D01*
X148817664Y-97155806D01*
X148702455Y-97242052D01*
X148702452Y-97242055D01*
X148616206Y-97357264D01*
X148616202Y-97357271D01*
X148565908Y-97492117D01*
X148561344Y-97534573D01*
X148559501Y-97551723D01*
X148559500Y-97551735D01*
X147373675Y-97551735D01*
X147367988Y-97534573D01*
X147357614Y-97503266D01*
X147265512Y-97353944D01*
X147141456Y-97229888D01*
X146992134Y-97137786D01*
X146825597Y-97082601D01*
X146825595Y-97082600D01*
X146722810Y-97072100D01*
X145922798Y-97072100D01*
X145922780Y-97072101D01*
X145820003Y-97082600D01*
X145820000Y-97082601D01*
X145653468Y-97137785D01*
X145653463Y-97137787D01*
X145504142Y-97229889D01*
X145410481Y-97323551D01*
X145349158Y-97357036D01*
X145279466Y-97352052D01*
X145235119Y-97323551D01*
X145141457Y-97229889D01*
X145141456Y-97229888D01*
X144992134Y-97137786D01*
X144825597Y-97082601D01*
X144825595Y-97082600D01*
X144722810Y-97072100D01*
X143922798Y-97072100D01*
X143922780Y-97072101D01*
X143820003Y-97082600D01*
X143820000Y-97082601D01*
X143653468Y-97137785D01*
X143653463Y-97137787D01*
X143504142Y-97229889D01*
X143380089Y-97353942D01*
X143287987Y-97503263D01*
X143287985Y-97503268D01*
X143232801Y-97669804D01*
X143232800Y-97669806D01*
X143231136Y-97686101D01*
X143204741Y-97750793D01*
X143147560Y-97790945D01*
X143107778Y-97797500D01*
X142567962Y-97797500D01*
X142500923Y-97777815D01*
X142455168Y-97725011D01*
X142445224Y-97655853D01*
X142448886Y-97638905D01*
X142479197Y-97534573D01*
X142479198Y-97534567D01*
X142482100Y-97497694D01*
X142482100Y-97066306D01*
X142479198Y-97029431D01*
X142466381Y-96985316D01*
X142433345Y-96871606D01*
X142433344Y-96871603D01*
X142433344Y-96871602D01*
X142349681Y-96730135D01*
X142349679Y-96730133D01*
X142349676Y-96730129D01*
X142233470Y-96613923D01*
X142233461Y-96613916D01*
X142111532Y-96541808D01*
X142063849Y-96490739D01*
X142051345Y-96421997D01*
X142077990Y-96357408D01*
X142086954Y-96347413D01*
X142178912Y-96255456D01*
X142271014Y-96106134D01*
X142326199Y-95939597D01*
X142336700Y-95836809D01*
X142336699Y-95061792D01*
X142326199Y-94959003D01*
X142271014Y-94792466D01*
X142178912Y-94643144D01*
X142054856Y-94519088D01*
X142051542Y-94517043D01*
X142049746Y-94515048D01*
X142049189Y-94514607D01*
X142049264Y-94514511D01*
X142004818Y-94465097D01*
X141993597Y-94396134D01*
X142021440Y-94332052D01*
X142051548Y-94305965D01*
X142054542Y-94304118D01*
X142178515Y-94180145D01*
X142270556Y-94030924D01*
X142270558Y-94030919D01*
X142325705Y-93864497D01*
X142325706Y-93864490D01*
X142336199Y-93761786D01*
X142336200Y-93761773D01*
X142336200Y-93624300D01*
X141235200Y-93624300D01*
X141168161Y-93604615D01*
X141122406Y-93551811D01*
X141111200Y-93500300D01*
X141111200Y-93374300D01*
X140985200Y-93374300D01*
X140918161Y-93354615D01*
X140872406Y-93301811D01*
X140861200Y-93250300D01*
X140861200Y-93124300D01*
X141361200Y-93124300D01*
X142336199Y-93124300D01*
X142336199Y-92986828D01*
X142336198Y-92986813D01*
X142325705Y-92884102D01*
X142270558Y-92717680D01*
X142270556Y-92717675D01*
X142178515Y-92568454D01*
X142054545Y-92444484D01*
X141905324Y-92352443D01*
X141905319Y-92352441D01*
X141738897Y-92297294D01*
X141738890Y-92297293D01*
X141636186Y-92286800D01*
X141361200Y-92286800D01*
X141361200Y-93124300D01*
X140861200Y-93124300D01*
X140861200Y-92286800D01*
X140839570Y-92265170D01*
X140823335Y-92235438D01*
X140806085Y-92203848D01*
X140807186Y-92188459D01*
X140811069Y-92134155D01*
X140849727Y-92082515D01*
X140852940Y-92078223D01*
X140858336Y-92074404D01*
X140973124Y-91997706D01*
X141528740Y-91442088D01*
X141537792Y-91437145D01*
X141544142Y-91429014D01*
X141567938Y-91420684D01*
X141590063Y-91408604D01*
X141600351Y-91409339D01*
X141610088Y-91405932D01*
X141634607Y-91411789D01*
X141659754Y-91413588D01*
X141668012Y-91419769D01*
X141678046Y-91422167D01*
X141695507Y-91440352D01*
X141715688Y-91455459D01*
X141720578Y-91466462D01*
X141726438Y-91472565D01*
X141732788Y-91493935D01*
X141738097Y-91505878D01*
X141739499Y-91513018D01*
X141739499Y-91514312D01*
X141759238Y-91613544D01*
X141759238Y-91613545D01*
X141768493Y-91660074D01*
X141768495Y-91660081D01*
X141775553Y-91677118D01*
X141775555Y-91677124D01*
X141825366Y-91797381D01*
X141825372Y-91797392D01*
X141907942Y-91920968D01*
X141907943Y-91920969D01*
X144189600Y-94202624D01*
X144189621Y-94202647D01*
X144299028Y-94312054D01*
X144299035Y-94312060D01*
X144422608Y-94394628D01*
X144422609Y-94394628D01*
X144422610Y-94394629D01*
X144559920Y-94451505D01*
X144705683Y-94480499D01*
X144705687Y-94480500D01*
X144705688Y-94480500D01*
X155432518Y-94480500D01*
X155499557Y-94500185D01*
X155545312Y-94552989D01*
X155555256Y-94622147D01*
X155526231Y-94685703D01*
X155494518Y-94711886D01*
X155472221Y-94724760D01*
X155340182Y-94800992D01*
X155158138Y-94940681D01*
X154995881Y-95102938D01*
X154856192Y-95284982D01*
X154741457Y-95483709D01*
X154741450Y-95483723D01*
X154653642Y-95695712D01*
X154594253Y-95917359D01*
X154594251Y-95917370D01*
X154564300Y-96144858D01*
X154564300Y-96374341D01*
X154583565Y-96520663D01*
X154594252Y-96601838D01*
X154602851Y-96633930D01*
X154653642Y-96823487D01*
X154741450Y-97035476D01*
X154741457Y-97035490D01*
X154856192Y-97234217D01*
X154995881Y-97416261D01*
X154995889Y-97416270D01*
X155158130Y-97578511D01*
X155158138Y-97578518D01*
X155340182Y-97718207D01*
X155340185Y-97718208D01*
X155340188Y-97718211D01*
X155538912Y-97832944D01*
X155538917Y-97832946D01*
X155538923Y-97832949D01*
X155630198Y-97870756D01*
X155750913Y-97920758D01*
X155972562Y-97980148D01*
X156200066Y-98010100D01*
X156200073Y-98010100D01*
X156429527Y-98010100D01*
X156429534Y-98010100D01*
X156657038Y-97980148D01*
X156878687Y-97920758D01*
X157090688Y-97832944D01*
X157289412Y-97718211D01*
X157471461Y-97578519D01*
X157471465Y-97578514D01*
X157471470Y-97578511D01*
X157633711Y-97416270D01*
X157633714Y-97416265D01*
X157633719Y-97416261D01*
X157773411Y-97234212D01*
X157888144Y-97035488D01*
X157975958Y-96823487D01*
X158035348Y-96601838D01*
X158065300Y-96374334D01*
X158065300Y-96144866D01*
X158035348Y-95917362D01*
X157975958Y-95695713D01*
X157888144Y-95483712D01*
X157773411Y-95284988D01*
X157773408Y-95284985D01*
X157773407Y-95284982D01*
X157633718Y-95102938D01*
X157633711Y-95102930D01*
X157471470Y-94940689D01*
X157471461Y-94940681D01*
X157289417Y-94800992D01*
X157274653Y-94792468D01*
X157135081Y-94711886D01*
X157086866Y-94661320D01*
X157073643Y-94592713D01*
X157099611Y-94527848D01*
X157156526Y-94487320D01*
X157197082Y-94480500D01*
X164393893Y-94480500D01*
X164402068Y-94482126D01*
X164407145Y-94481210D01*
X164441342Y-94489937D01*
X164469976Y-94501798D01*
X164469977Y-94501799D01*
X164487604Y-94509100D01*
X164532520Y-94527705D01*
X164532527Y-94527706D01*
X164532529Y-94527707D01*
X164556704Y-94532515D01*
X164556710Y-94532516D01*
X164678286Y-94556701D01*
X164678288Y-94556701D01*
X164833026Y-94556701D01*
X164833046Y-94556700D01*
X167089204Y-94556700D01*
X167156243Y-94576385D01*
X167201998Y-94629189D01*
X167211942Y-94698347D01*
X167182917Y-94761903D01*
X167176885Y-94768381D01*
X167057518Y-94887748D01*
X166897875Y-95095796D01*
X166766758Y-95322899D01*
X166766753Y-95322909D01*
X166666405Y-95565171D01*
X166666402Y-95565181D01*
X166598530Y-95818484D01*
X166594726Y-95847372D01*
X166564300Y-96078472D01*
X166564300Y-96340727D01*
X166590774Y-96541808D01*
X166598530Y-96600716D01*
X166633206Y-96730129D01*
X166666402Y-96854018D01*
X166666405Y-96854028D01*
X166766753Y-97096290D01*
X166766758Y-97096300D01*
X166897875Y-97323403D01*
X167057518Y-97531451D01*
X167057526Y-97531460D01*
X167242940Y-97716874D01*
X167242948Y-97716881D01*
X167242949Y-97716882D01*
X167273801Y-97740556D01*
X167450996Y-97876524D01*
X167678099Y-98007641D01*
X167678109Y-98007646D01*
X167920371Y-98107994D01*
X167920381Y-98107998D01*
X168173684Y-98175870D01*
X168433680Y-98210100D01*
X168433687Y-98210100D01*
X168695913Y-98210100D01*
X168695920Y-98210100D01*
X168955916Y-98175870D01*
X169209219Y-98107998D01*
X169386140Y-98034714D01*
X169451490Y-98007646D01*
X169451491Y-98007645D01*
X169451497Y-98007643D01*
X169678603Y-97876524D01*
X169886651Y-97716882D01*
X169886655Y-97716877D01*
X169886660Y-97716874D01*
X170072074Y-97531460D01*
X170072077Y-97531455D01*
X170072082Y-97531451D01*
X170231724Y-97323403D01*
X170362843Y-97096297D01*
X170368517Y-97082600D01*
X170438855Y-96912787D01*
X170463198Y-96854019D01*
X170531070Y-96600716D01*
X170565300Y-96340720D01*
X170565300Y-96078480D01*
X170531070Y-95818484D01*
X170463198Y-95565181D01*
X170429457Y-95483723D01*
X170362846Y-95322909D01*
X170362841Y-95322899D01*
X170241595Y-95112894D01*
X170241594Y-95112893D01*
X170231722Y-95095794D01*
X170201939Y-95056981D01*
X174285500Y-95056981D01*
X174285500Y-95231418D01*
X174319527Y-95402483D01*
X174319529Y-95402491D01*
X174386278Y-95563639D01*
X174386283Y-95563648D01*
X174483186Y-95708673D01*
X174483189Y-95708677D01*
X174606522Y-95832010D01*
X174606526Y-95832013D01*
X174751551Y-95928916D01*
X174751560Y-95928921D01*
X174788066Y-95944042D01*
X174912709Y-95995671D01*
X175083781Y-96029699D01*
X175083785Y-96029700D01*
X175083786Y-96029700D01*
X175258215Y-96029700D01*
X175258216Y-96029699D01*
X175429291Y-95995671D01*
X175590442Y-95928920D01*
X175735474Y-95832013D01*
X175858813Y-95708674D01*
X175955720Y-95563642D01*
X176022471Y-95402491D01*
X176056500Y-95231414D01*
X176056500Y-95056986D01*
X176022471Y-94885909D01*
X175965264Y-94747799D01*
X175955721Y-94724760D01*
X175955716Y-94724751D01*
X175858813Y-94579726D01*
X175858810Y-94579722D01*
X175735477Y-94456389D01*
X175735473Y-94456386D01*
X175590448Y-94359483D01*
X175590439Y-94359478D01*
X175429291Y-94292729D01*
X175429283Y-94292727D01*
X175258218Y-94258700D01*
X175258214Y-94258700D01*
X175083786Y-94258700D01*
X175083781Y-94258700D01*
X174912716Y-94292727D01*
X174912708Y-94292729D01*
X174751560Y-94359478D01*
X174751551Y-94359483D01*
X174606526Y-94456386D01*
X174606522Y-94456389D01*
X174483189Y-94579722D01*
X174483186Y-94579726D01*
X174386283Y-94724751D01*
X174386278Y-94724760D01*
X174319529Y-94885908D01*
X174319527Y-94885916D01*
X174285500Y-95056981D01*
X170201939Y-95056981D01*
X170141551Y-94978282D01*
X170072082Y-94887749D01*
X170072081Y-94887748D01*
X170072074Y-94887740D01*
X169952715Y-94768381D01*
X169919230Y-94707058D01*
X169924214Y-94637366D01*
X169966086Y-94581433D01*
X170031550Y-94557016D01*
X170040396Y-94556700D01*
X170556754Y-94556700D01*
X170556774Y-94556701D01*
X170562888Y-94556701D01*
X170711514Y-94556701D01*
X170767383Y-94545586D01*
X170833094Y-94532515D01*
X170857280Y-94527705D01*
X170919822Y-94501799D01*
X170994589Y-94470830D01*
X171118166Y-94388259D01*
X171930963Y-93575460D01*
X171930966Y-93575459D01*
X172036059Y-93470366D01*
X172104049Y-93368611D01*
X172118630Y-93346789D01*
X172160778Y-93245034D01*
X172175505Y-93209480D01*
X172180315Y-93185294D01*
X172204501Y-93063712D01*
X172204501Y-92915088D01*
X172204501Y-92909978D01*
X172204500Y-92909952D01*
X172204500Y-91739381D01*
X174268700Y-91739381D01*
X174268700Y-91913818D01*
X174302727Y-92084883D01*
X174302729Y-92084891D01*
X174369478Y-92246039D01*
X174369483Y-92246048D01*
X174466386Y-92391073D01*
X174466389Y-92391077D01*
X174589722Y-92514410D01*
X174589726Y-92514413D01*
X174734751Y-92611316D01*
X174734757Y-92611319D01*
X174734758Y-92611320D01*
X174895909Y-92678071D01*
X175054976Y-92709711D01*
X175066981Y-92712099D01*
X175066985Y-92712100D01*
X175066986Y-92712100D01*
X175241415Y-92712100D01*
X175241416Y-92712099D01*
X175412491Y-92678071D01*
X175573642Y-92611320D01*
X175718674Y-92514413D01*
X175842013Y-92391074D01*
X175938920Y-92246042D01*
X176005671Y-92084891D01*
X176039700Y-91913814D01*
X176039700Y-91739386D01*
X176005671Y-91568309D01*
X175942159Y-91414977D01*
X175938921Y-91407160D01*
X175938916Y-91407151D01*
X175842013Y-91262126D01*
X175842010Y-91262122D01*
X175718677Y-91138789D01*
X175718673Y-91138786D01*
X175573648Y-91041883D01*
X175573639Y-91041878D01*
X175412491Y-90975129D01*
X175412483Y-90975127D01*
X175241418Y-90941100D01*
X175241414Y-90941100D01*
X175066986Y-90941100D01*
X175066981Y-90941100D01*
X174895916Y-90975127D01*
X174895908Y-90975129D01*
X174734760Y-91041878D01*
X174734751Y-91041883D01*
X174589726Y-91138786D01*
X174589722Y-91138789D01*
X174466389Y-91262122D01*
X174466386Y-91262126D01*
X174369483Y-91407151D01*
X174369478Y-91407160D01*
X174302729Y-91568308D01*
X174302727Y-91568316D01*
X174268700Y-91739381D01*
X172204500Y-91739381D01*
X172204500Y-91625767D01*
X172224185Y-91558728D01*
X172276989Y-91512973D01*
X172346147Y-91503029D01*
X172367508Y-91508063D01*
X172379098Y-91511904D01*
X172379109Y-91511906D01*
X172481819Y-91522399D01*
X172631799Y-91522399D01*
X173131800Y-91522399D01*
X173281772Y-91522399D01*
X173281786Y-91522398D01*
X173384497Y-91511905D01*
X173550919Y-91456758D01*
X173550924Y-91456756D01*
X173700145Y-91364715D01*
X173824115Y-91240745D01*
X173916156Y-91091524D01*
X173916158Y-91091519D01*
X173971305Y-90925097D01*
X173971306Y-90925090D01*
X173981799Y-90822386D01*
X173981800Y-90822373D01*
X173981800Y-90572400D01*
X173131800Y-90572400D01*
X173131800Y-91522399D01*
X172631799Y-91522399D01*
X172631800Y-91522398D01*
X172631800Y-90446400D01*
X172651485Y-90379361D01*
X172704289Y-90333606D01*
X172755800Y-90322400D01*
X172881800Y-90322400D01*
X172881800Y-90196400D01*
X172901485Y-90129361D01*
X172954289Y-90083606D01*
X173005800Y-90072400D01*
X173981799Y-90072400D01*
X173981799Y-89822428D01*
X173981798Y-89822413D01*
X173971305Y-89719702D01*
X173916158Y-89553280D01*
X173916156Y-89553275D01*
X173824115Y-89404054D01*
X173771695Y-89351634D01*
X173738210Y-89290311D01*
X173743194Y-89220619D01*
X173759551Y-89190393D01*
X173765085Y-89182882D01*
X173815112Y-89132856D01*
X173882715Y-89023252D01*
X173885746Y-89019140D01*
X173909652Y-89000960D01*
X173931980Y-88980879D01*
X173937801Y-88979555D01*
X173941363Y-88976848D01*
X173954177Y-88975834D01*
X173985571Y-88968700D01*
X174814313Y-88968700D01*
X174881352Y-88988385D01*
X174901994Y-89005019D01*
X175200200Y-89303224D01*
X175200221Y-89303247D01*
X175309628Y-89412654D01*
X175309635Y-89412660D01*
X175433208Y-89495228D01*
X175433209Y-89495228D01*
X175433210Y-89495229D01*
X175570520Y-89552105D01*
X175572265Y-89552452D01*
X175573093Y-89552885D01*
X175576352Y-89553874D01*
X175576164Y-89554491D01*
X175634176Y-89584833D01*
X175665782Y-89635061D01*
X175669383Y-89645927D01*
X175669388Y-89645939D01*
X175761488Y-89795254D01*
X175885544Y-89919310D01*
X175885548Y-89919313D01*
X176034862Y-90011412D01*
X176034864Y-90011413D01*
X176034866Y-90011414D01*
X176201403Y-90066599D01*
X176304192Y-90077100D01*
X176304197Y-90077100D01*
X177924203Y-90077100D01*
X177924208Y-90077100D01*
X178026997Y-90066599D01*
X178193534Y-90011414D01*
X178342855Y-89919311D01*
X178466911Y-89795255D01*
X178559014Y-89645934D01*
X178614199Y-89479397D01*
X178624700Y-89376608D01*
X178624700Y-88276592D01*
X178614199Y-88173803D01*
X178559014Y-88007266D01*
X178484821Y-87886982D01*
X178466913Y-87857948D01*
X178466910Y-87857944D01*
X178342855Y-87733889D01*
X178342851Y-87733886D01*
X178193537Y-87641787D01*
X178193535Y-87641786D01*
X178101844Y-87611403D01*
X178026997Y-87586601D01*
X178026995Y-87586600D01*
X177924215Y-87576100D01*
X177924208Y-87576100D01*
X176304192Y-87576100D01*
X176304184Y-87576100D01*
X176201404Y-87586600D01*
X176201403Y-87586601D01*
X176034867Y-87641785D01*
X175894383Y-87728437D01*
X175826990Y-87746877D01*
X175760327Y-87725954D01*
X175741605Y-87710579D01*
X175659168Y-87628142D01*
X175535592Y-87545572D01*
X175535591Y-87545571D01*
X175535589Y-87545570D01*
X175535586Y-87545568D01*
X175535581Y-87545566D01*
X175435626Y-87504164D01*
X175435622Y-87504163D01*
X175430693Y-87502121D01*
X175398280Y-87488695D01*
X175374094Y-87483884D01*
X175367376Y-87482547D01*
X175367371Y-87482546D01*
X175252514Y-87459699D01*
X175252512Y-87459699D01*
X175103888Y-87459699D01*
X175097774Y-87459699D01*
X175097754Y-87459700D01*
X173985571Y-87459700D01*
X173918532Y-87440015D01*
X173880032Y-87400797D01*
X173872400Y-87388423D01*
X173815112Y-87295544D01*
X173691056Y-87171488D01*
X173598288Y-87114269D01*
X173541736Y-87079387D01*
X173541731Y-87079385D01*
X173520241Y-87072264D01*
X173375197Y-87024201D01*
X173375195Y-87024200D01*
X173272410Y-87013700D01*
X172472398Y-87013700D01*
X172472380Y-87013701D01*
X172369603Y-87024200D01*
X172369600Y-87024201D01*
X172203068Y-87079385D01*
X172203063Y-87079387D01*
X172053742Y-87171489D01*
X171960081Y-87265151D01*
X171898758Y-87298636D01*
X171829066Y-87293652D01*
X171784719Y-87265151D01*
X171691057Y-87171489D01*
X171691056Y-87171488D01*
X171598288Y-87114269D01*
X171541736Y-87079387D01*
X171541731Y-87079385D01*
X171520241Y-87072264D01*
X171375197Y-87024201D01*
X171375195Y-87024200D01*
X171272410Y-87013700D01*
X170472398Y-87013700D01*
X170472380Y-87013701D01*
X170369603Y-87024200D01*
X170369600Y-87024201D01*
X170203068Y-87079385D01*
X170203063Y-87079387D01*
X170053742Y-87171489D01*
X169929689Y-87295542D01*
X169837587Y-87444863D01*
X169837585Y-87444868D01*
X169810354Y-87527046D01*
X169782401Y-87611403D01*
X169782401Y-87611404D01*
X169782400Y-87611404D01*
X169771900Y-87714183D01*
X169771900Y-88714201D01*
X169771901Y-88714219D01*
X169782400Y-88816996D01*
X169782401Y-88816999D01*
X169837585Y-88983531D01*
X169837587Y-88983536D01*
X169859548Y-89019140D01*
X169914864Y-89108823D01*
X169929689Y-89132857D01*
X169982151Y-89185319D01*
X169983686Y-89188130D01*
X169986420Y-89189806D01*
X170000320Y-89218593D01*
X170015636Y-89246642D01*
X170015407Y-89249838D01*
X170016801Y-89252725D01*
X170012932Y-89284448D01*
X170010652Y-89316334D01*
X170008614Y-89319853D01*
X170008343Y-89322081D01*
X170001409Y-89332299D01*
X169989903Y-89352175D01*
X169986231Y-89356600D01*
X169939088Y-89403744D01*
X169915813Y-89441478D01*
X169910266Y-89448165D01*
X169888197Y-89463025D01*
X169868422Y-89480812D01*
X169859669Y-89482236D01*
X169852311Y-89487191D01*
X169825711Y-89487761D01*
X169799459Y-89492033D01*
X169791325Y-89488498D01*
X169782457Y-89488689D01*
X169759772Y-89474788D01*
X169735378Y-89464189D01*
X169727344Y-89454917D01*
X169722883Y-89452184D01*
X169720249Y-89446730D01*
X169709294Y-89434087D01*
X169674912Y-89378344D01*
X169550856Y-89254288D01*
X169550855Y-89254287D01*
X169482102Y-89211879D01*
X169435378Y-89159930D01*
X169423200Y-89106341D01*
X169423200Y-86977740D01*
X169403282Y-86877612D01*
X169400899Y-86853419D01*
X169400899Y-86113998D01*
X169400898Y-86113981D01*
X169390399Y-86011203D01*
X169386503Y-85999447D01*
X169338671Y-85855101D01*
X169336270Y-85785276D01*
X169372001Y-85725234D01*
X169434522Y-85694041D01*
X169456378Y-85692100D01*
X170048754Y-85692100D01*
X170048774Y-85692101D01*
X170054888Y-85692101D01*
X170203514Y-85692101D01*
X170240209Y-85684800D01*
X170325094Y-85667915D01*
X170349280Y-85663105D01*
X170406155Y-85639546D01*
X170486589Y-85606230D01*
X170610166Y-85523659D01*
X171282421Y-84851402D01*
X171343742Y-84817919D01*
X171413433Y-84822903D01*
X171469367Y-84864774D01*
X171493784Y-84930239D01*
X171494100Y-84939084D01*
X171494100Y-85178600D01*
X171494101Y-85178619D01*
X171504600Y-85281396D01*
X171504601Y-85281399D01*
X171526670Y-85347998D01*
X171559786Y-85447934D01*
X171651888Y-85597256D01*
X171775944Y-85721312D01*
X171925266Y-85813414D01*
X172091803Y-85868599D01*
X172194591Y-85879100D01*
X173194608Y-85879099D01*
X173194616Y-85879098D01*
X173194619Y-85879098D01*
X173250902Y-85873348D01*
X173297397Y-85868599D01*
X173463934Y-85813414D01*
X173613256Y-85721312D01*
X173737312Y-85597256D01*
X173740554Y-85592000D01*
X173792503Y-85545277D01*
X173846091Y-85533100D01*
X175489412Y-85533100D01*
X175556451Y-85552785D01*
X175602206Y-85605589D01*
X175612150Y-85674747D01*
X175611885Y-85676497D01*
X175603700Y-85728176D01*
X175603700Y-85925022D01*
X175634490Y-86119426D01*
X175695317Y-86306629D01*
X175764998Y-86443384D01*
X175784676Y-86482005D01*
X175900372Y-86641246D01*
X176039554Y-86780428D01*
X176198795Y-86896124D01*
X176275094Y-86935000D01*
X176374170Y-86985482D01*
X176374172Y-86985482D01*
X176374175Y-86985484D01*
X176474517Y-87018087D01*
X176561373Y-87046309D01*
X176755778Y-87077100D01*
X176755783Y-87077100D01*
X177472622Y-87077100D01*
X177667026Y-87046309D01*
X177854225Y-86985484D01*
X178029605Y-86896124D01*
X178188846Y-86780428D01*
X178328028Y-86641246D01*
X178443724Y-86482005D01*
X178533084Y-86306625D01*
X178593909Y-86119426D01*
X178616181Y-85978805D01*
X178624700Y-85925022D01*
X178624700Y-85728177D01*
X178593909Y-85533773D01*
X178533082Y-85346570D01*
X178468642Y-85220100D01*
X178443724Y-85171195D01*
X178328028Y-85011954D01*
X178188846Y-84872772D01*
X178029605Y-84757076D01*
X177854229Y-84667717D01*
X177667026Y-84606890D01*
X177472622Y-84576100D01*
X177472617Y-84576100D01*
X176982087Y-84576100D01*
X176915048Y-84556415D01*
X176894406Y-84539781D01*
X176547169Y-84192543D01*
X176547168Y-84192542D01*
X176423592Y-84109972D01*
X176423591Y-84109971D01*
X176423589Y-84109970D01*
X176423586Y-84109968D01*
X176423581Y-84109966D01*
X176336577Y-84073928D01*
X176336568Y-84073925D01*
X176332389Y-84072194D01*
X176286280Y-84053095D01*
X176262094Y-84048284D01*
X176254592Y-84046791D01*
X176254587Y-84046790D01*
X176140514Y-84024099D01*
X176140512Y-84024099D01*
X175991888Y-84024099D01*
X175985774Y-84024099D01*
X175985754Y-84024100D01*
X173846091Y-84024100D01*
X173779052Y-84004415D01*
X173755945Y-83985246D01*
X173747222Y-83976011D01*
X173737312Y-83959944D01*
X173642376Y-83865008D01*
X173641184Y-83863746D01*
X173626086Y-83834117D01*
X173610164Y-83804958D01*
X173610294Y-83803127D01*
X173609462Y-83801493D01*
X173612776Y-83768430D01*
X173615148Y-83735266D01*
X173616276Y-83733509D01*
X173616431Y-83731971D01*
X173620808Y-83726458D01*
X173643649Y-83690919D01*
X173678098Y-83656470D01*
X173737312Y-83597256D01*
X173829414Y-83447934D01*
X173884599Y-83281397D01*
X173895100Y-83178609D01*
X173895099Y-82739381D01*
X174268700Y-82739381D01*
X174268700Y-82913818D01*
X174302727Y-83084883D01*
X174302729Y-83084891D01*
X174369478Y-83246039D01*
X174369483Y-83246048D01*
X174466386Y-83391073D01*
X174466389Y-83391077D01*
X174589722Y-83514410D01*
X174589726Y-83514413D01*
X174734751Y-83611316D01*
X174734757Y-83611319D01*
X174734758Y-83611320D01*
X174895909Y-83678071D01*
X175066981Y-83712099D01*
X175066985Y-83712100D01*
X175066986Y-83712100D01*
X175241415Y-83712100D01*
X175241416Y-83712099D01*
X175412491Y-83678071D01*
X175573642Y-83611320D01*
X175718674Y-83514413D01*
X175842013Y-83391074D01*
X175938920Y-83246042D01*
X176005671Y-83084891D01*
X176039700Y-82913814D01*
X176039700Y-82739386D01*
X176005671Y-82568309D01*
X175938920Y-82407158D01*
X175938919Y-82407157D01*
X175938916Y-82407151D01*
X175842013Y-82262126D01*
X175842010Y-82262122D01*
X175718677Y-82138789D01*
X175718673Y-82138786D01*
X175573648Y-82041883D01*
X175573639Y-82041878D01*
X175412491Y-81975129D01*
X175412483Y-81975127D01*
X175241418Y-81941100D01*
X175241414Y-81941100D01*
X175066986Y-81941100D01*
X175066981Y-81941100D01*
X174895916Y-81975127D01*
X174895908Y-81975129D01*
X174734760Y-82041878D01*
X174734751Y-82041883D01*
X174589726Y-82138786D01*
X174589722Y-82138789D01*
X174466389Y-82262122D01*
X174466386Y-82262126D01*
X174369483Y-82407151D01*
X174369478Y-82407160D01*
X174302729Y-82568308D01*
X174302727Y-82568316D01*
X174268700Y-82739381D01*
X173895099Y-82739381D01*
X173895099Y-82378592D01*
X173892477Y-82352928D01*
X173884599Y-82275803D01*
X173884598Y-82275800D01*
X173880067Y-82262126D01*
X173829414Y-82109266D01*
X173737312Y-81959944D01*
X173703849Y-81926481D01*
X173670364Y-81865158D01*
X173675348Y-81795466D01*
X173703849Y-81751119D01*
X173713512Y-81741456D01*
X173805614Y-81592134D01*
X173860799Y-81425597D01*
X173871300Y-81322809D01*
X173871299Y-80322792D01*
X173866967Y-80280388D01*
X173860799Y-80220003D01*
X173860798Y-80220000D01*
X173835308Y-80143076D01*
X173805614Y-80053466D01*
X173713512Y-79904144D01*
X173589456Y-79780088D01*
X173440134Y-79687986D01*
X173273597Y-79632801D01*
X173273595Y-79632800D01*
X173170810Y-79622300D01*
X172370798Y-79622300D01*
X172370780Y-79622301D01*
X172268003Y-79632800D01*
X172268000Y-79632801D01*
X172101468Y-79687985D01*
X172101463Y-79687987D01*
X171952145Y-79780087D01*
X171858127Y-79874105D01*
X171796803Y-79907589D01*
X171727112Y-79902605D01*
X171682765Y-79874104D01*
X171589145Y-79780484D01*
X171439924Y-79688443D01*
X171439919Y-79688441D01*
X171273497Y-79633294D01*
X171273490Y-79633293D01*
X171170786Y-79622800D01*
X171020800Y-79622800D01*
X171020800Y-82022799D01*
X171170772Y-82022799D01*
X171170786Y-82022798D01*
X171273495Y-82012306D01*
X171396817Y-81971440D01*
X171466645Y-81969038D01*
X171526687Y-82004769D01*
X171557881Y-82067289D01*
X171553528Y-82128149D01*
X171504601Y-82275800D01*
X171504600Y-82275804D01*
X171494100Y-82378583D01*
X171494100Y-82454312D01*
X171474415Y-82521351D01*
X171457781Y-82541993D01*
X169852994Y-84146781D01*
X169791671Y-84180266D01*
X169765313Y-84183100D01*
X169185245Y-84183100D01*
X169118206Y-84163415D01*
X169072451Y-84110611D01*
X169062507Y-84041453D01*
X169067536Y-84020106D01*
X169085599Y-83965597D01*
X169096100Y-83862809D01*
X169096099Y-82862792D01*
X169094818Y-82850256D01*
X169085599Y-82760003D01*
X169085598Y-82760000D01*
X169078767Y-82739385D01*
X169030414Y-82593466D01*
X168938312Y-82444144D01*
X168847096Y-82352928D01*
X168813611Y-82291605D01*
X168818595Y-82221913D01*
X168847096Y-82177566D01*
X168927916Y-82096745D01*
X169019957Y-81947524D01*
X169019959Y-81947519D01*
X169075106Y-81781097D01*
X169075107Y-81781090D01*
X169085600Y-81678386D01*
X169085601Y-81678373D01*
X169085601Y-81428400D01*
X168109601Y-81428400D01*
X168042562Y-81408715D01*
X167996807Y-81355911D01*
X167989601Y-81322786D01*
X169670801Y-81322786D01*
X169681294Y-81425497D01*
X169736441Y-81591919D01*
X169736443Y-81591924D01*
X169828484Y-81741145D01*
X169952454Y-81865115D01*
X170101675Y-81957156D01*
X170101680Y-81957158D01*
X170268102Y-82012305D01*
X170268109Y-82012306D01*
X170370819Y-82022799D01*
X170520799Y-82022799D01*
X170520800Y-82022798D01*
X170520800Y-81072800D01*
X169670801Y-81072800D01*
X169670801Y-81322786D01*
X167989601Y-81322786D01*
X167985601Y-81304400D01*
X167985601Y-81178400D01*
X167859601Y-81178400D01*
X167792562Y-81158715D01*
X167746807Y-81105911D01*
X167735601Y-81054400D01*
X167735601Y-80928400D01*
X168235601Y-80928400D01*
X169085600Y-80928400D01*
X169085600Y-80678428D01*
X169085599Y-80678413D01*
X169075106Y-80575702D01*
X169019959Y-80409280D01*
X169019956Y-80409273D01*
X169004837Y-80384762D01*
X169004836Y-80384761D01*
X168966626Y-80322813D01*
X169670800Y-80322813D01*
X169670800Y-80572800D01*
X170520800Y-80572800D01*
X170520800Y-79622800D01*
X170370827Y-79622800D01*
X170370812Y-79622801D01*
X170268102Y-79633294D01*
X170101680Y-79688441D01*
X170101675Y-79688443D01*
X169952454Y-79780484D01*
X169828484Y-79904454D01*
X169736443Y-80053675D01*
X169736441Y-80053680D01*
X169681294Y-80220102D01*
X169681293Y-80220109D01*
X169670800Y-80322813D01*
X168966626Y-80322813D01*
X168927916Y-80260054D01*
X168803946Y-80136084D01*
X168654725Y-80044043D01*
X168654720Y-80044041D01*
X168488298Y-79988894D01*
X168488291Y-79988893D01*
X168385587Y-79978400D01*
X168235601Y-79978400D01*
X168235601Y-80928400D01*
X167735601Y-80928400D01*
X167735601Y-79978400D01*
X167585628Y-79978400D01*
X167585613Y-79978401D01*
X167482903Y-79988894D01*
X167316481Y-80044041D01*
X167316476Y-80044043D01*
X167167258Y-80136082D01*
X167073635Y-80229705D01*
X167012311Y-80263189D01*
X166942620Y-80258205D01*
X166898273Y-80229704D01*
X166804258Y-80135689D01*
X166804257Y-80135688D01*
X166699064Y-80070805D01*
X166654937Y-80043587D01*
X166654932Y-80043585D01*
X166644877Y-80040253D01*
X166488398Y-79988401D01*
X166488396Y-79988400D01*
X166385611Y-79977900D01*
X165585599Y-79977900D01*
X165585581Y-79977901D01*
X165482804Y-79988400D01*
X165482801Y-79988401D01*
X165316269Y-80043585D01*
X165316264Y-80043587D01*
X165166943Y-80135689D01*
X165042890Y-80259742D01*
X164950788Y-80409063D01*
X164950786Y-80409068D01*
X164948727Y-80415283D01*
X164895602Y-80575603D01*
X164895602Y-80575604D01*
X164895601Y-80575604D01*
X164885101Y-80678383D01*
X164885101Y-81668499D01*
X164865416Y-81735538D01*
X164812612Y-81781293D01*
X164743454Y-81791237D01*
X164679898Y-81762212D01*
X164673420Y-81756180D01*
X164647161Y-81729921D01*
X164647152Y-81729914D01*
X164505796Y-81646317D01*
X164505793Y-81646316D01*
X164348095Y-81600500D01*
X164348089Y-81600499D01*
X164311249Y-81597600D01*
X163670600Y-81597600D01*
X163670600Y-82147600D01*
X164892895Y-82147600D01*
X164901680Y-82138096D01*
X164911541Y-82132197D01*
X164918427Y-82122999D01*
X164940980Y-82114586D01*
X164961641Y-82102228D01*
X164973126Y-82102597D01*
X164983891Y-82098582D01*
X165007412Y-82103698D01*
X165031475Y-82104472D01*
X165042692Y-82111373D01*
X165052164Y-82113434D01*
X165080418Y-82134585D01*
X165133751Y-82187918D01*
X165167236Y-82249241D01*
X165162252Y-82318933D01*
X165133752Y-82363280D01*
X165052888Y-82444144D01*
X164976304Y-82568308D01*
X164963728Y-82588697D01*
X164911780Y-82635421D01*
X164858189Y-82647600D01*
X161948305Y-82647600D01*
X161948304Y-82647601D01*
X161948499Y-82650086D01*
X161994318Y-82807798D01*
X162077914Y-82949152D01*
X162082700Y-82955322D01*
X162080240Y-82957229D01*
X162106810Y-83005888D01*
X162101826Y-83075580D01*
X162080762Y-83108381D01*
X162082299Y-83109574D01*
X162077515Y-83115740D01*
X161993855Y-83257203D01*
X161981341Y-83300275D01*
X161943733Y-83359160D01*
X161880260Y-83388365D01*
X161811074Y-83378618D01*
X161774584Y-83353359D01*
X160700851Y-82279625D01*
X160568824Y-82147598D01*
X161948304Y-82147598D01*
X161948305Y-82147600D01*
X163170600Y-82147600D01*
X163170600Y-81597600D01*
X162529950Y-81597600D01*
X162493110Y-81600499D01*
X162493104Y-81600500D01*
X162335406Y-81646316D01*
X162335403Y-81646317D01*
X162194047Y-81729914D01*
X162194038Y-81729921D01*
X162077921Y-81846038D01*
X162077914Y-81846047D01*
X161994318Y-81987401D01*
X161948499Y-82145113D01*
X161948304Y-82147598D01*
X160568824Y-82147598D01*
X160232768Y-81811542D01*
X160109192Y-81728972D01*
X160109191Y-81728971D01*
X160109189Y-81728970D01*
X160109186Y-81728968D01*
X160109181Y-81728966D01*
X160029007Y-81695757D01*
X160028995Y-81695753D01*
X160025118Y-81694147D01*
X159971880Y-81672095D01*
X159947694Y-81667284D01*
X159939864Y-81665726D01*
X159939860Y-81665725D01*
X159826114Y-81643099D01*
X159826112Y-81643099D01*
X159677488Y-81643099D01*
X159671374Y-81643099D01*
X159671354Y-81643100D01*
X159564159Y-81643100D01*
X159529564Y-81638176D01*
X159398173Y-81600002D01*
X159398167Y-81600001D01*
X159361301Y-81597100D01*
X159361294Y-81597100D01*
X158815700Y-81597100D01*
X158748661Y-81577415D01*
X158702906Y-81524611D01*
X158691700Y-81473100D01*
X158691700Y-79366781D01*
X174268700Y-79366781D01*
X174268700Y-79541218D01*
X174302727Y-79712283D01*
X174302729Y-79712291D01*
X174369478Y-79873439D01*
X174369483Y-79873448D01*
X174466386Y-80018473D01*
X174466389Y-80018477D01*
X174589722Y-80141810D01*
X174589726Y-80141813D01*
X174734751Y-80238716D01*
X174734757Y-80238719D01*
X174734758Y-80238720D01*
X174895909Y-80305471D01*
X175066981Y-80339499D01*
X175066985Y-80339500D01*
X175066986Y-80339500D01*
X175241415Y-80339500D01*
X175241416Y-80339499D01*
X175412491Y-80305471D01*
X175573642Y-80238720D01*
X175718674Y-80141813D01*
X175842013Y-80018474D01*
X175938920Y-79873442D01*
X176005671Y-79712291D01*
X176039700Y-79541214D01*
X176039700Y-79366786D01*
X176005671Y-79195709D01*
X175938920Y-79034558D01*
X175938919Y-79034557D01*
X175938916Y-79034551D01*
X175842013Y-78889526D01*
X175842010Y-78889522D01*
X175718677Y-78766189D01*
X175718673Y-78766186D01*
X175573648Y-78669283D01*
X175573639Y-78669278D01*
X175412491Y-78602529D01*
X175412483Y-78602527D01*
X175241418Y-78568500D01*
X175241414Y-78568500D01*
X175066986Y-78568500D01*
X175066981Y-78568500D01*
X174895916Y-78602527D01*
X174895908Y-78602529D01*
X174734760Y-78669278D01*
X174734751Y-78669283D01*
X174589726Y-78766186D01*
X174589722Y-78766189D01*
X174466389Y-78889522D01*
X174466386Y-78889526D01*
X174369483Y-79034551D01*
X174369478Y-79034560D01*
X174302729Y-79195708D01*
X174302727Y-79195716D01*
X174268700Y-79366781D01*
X158691700Y-79366781D01*
X158691700Y-77598887D01*
X158691699Y-77598884D01*
X158689681Y-77588741D01*
X158676091Y-77520414D01*
X158662707Y-77453128D01*
X158662706Y-77453126D01*
X158662705Y-77453120D01*
X158605829Y-77315810D01*
X158578731Y-77275255D01*
X158523260Y-77192235D01*
X158523254Y-77192228D01*
X158421781Y-77090755D01*
X158413835Y-77082811D01*
X158297024Y-76966000D01*
X162172391Y-76966000D01*
X163133314Y-76966000D01*
X163128920Y-76970394D01*
X163076259Y-77061606D01*
X163049000Y-77163339D01*
X163049000Y-77268661D01*
X163076259Y-77370394D01*
X163128920Y-77461606D01*
X163133314Y-77466000D01*
X162172391Y-77466000D01*
X162181009Y-77520413D01*
X162244244Y-77715029D01*
X162337140Y-77897349D01*
X162457417Y-78062894D01*
X162457417Y-78062895D01*
X162602104Y-78207582D01*
X162767650Y-78327859D01*
X162949968Y-78420754D01*
X163144578Y-78483988D01*
X163199000Y-78492607D01*
X163199000Y-77531686D01*
X163203394Y-77536080D01*
X163294606Y-77588741D01*
X163396339Y-77616000D01*
X163501661Y-77616000D01*
X163603394Y-77588741D01*
X163694606Y-77536080D01*
X163699000Y-77531686D01*
X163699000Y-78492606D01*
X163753421Y-78483988D01*
X163948031Y-78420754D01*
X164130349Y-78327859D01*
X164295894Y-78207582D01*
X164295895Y-78207582D01*
X164440582Y-78062895D01*
X164440582Y-78062894D01*
X164560859Y-77897349D01*
X164653755Y-77715029D01*
X164702862Y-77563898D01*
X164716990Y-77520414D01*
X164716990Y-77520413D01*
X164725609Y-77466000D01*
X163764686Y-77466000D01*
X163769080Y-77461606D01*
X163821741Y-77370394D01*
X163849000Y-77268661D01*
X163849000Y-77163339D01*
X163821741Y-77061606D01*
X163769080Y-76970394D01*
X163764686Y-76966000D01*
X164732694Y-76966000D01*
X164775188Y-76938260D01*
X164845056Y-76937760D01*
X164893318Y-76966163D01*
X164894238Y-76965139D01*
X164896700Y-76967350D01*
X164896711Y-76967361D01*
X164943394Y-77004981D01*
X164943395Y-77004981D01*
X164943397Y-77004983D01*
X165074307Y-77064768D01*
X165074308Y-77064768D01*
X165074310Y-77064769D01*
X165216767Y-77085250D01*
X165359224Y-77064769D01*
X165490140Y-77004981D01*
X165536823Y-76967362D01*
X166735895Y-75768289D01*
X166773515Y-75721606D01*
X166801301Y-75660765D01*
X166833303Y-75590690D01*
X166840907Y-75537799D01*
X166853784Y-75448233D01*
X166833303Y-75305776D01*
X166821024Y-75278890D01*
X166773516Y-75174862D01*
X166773515Y-75174861D01*
X166773515Y-75174860D01*
X166735896Y-75128177D01*
X166735891Y-75128172D01*
X166735887Y-75128167D01*
X166053606Y-74445887D01*
X165969254Y-74361535D01*
X168741700Y-74361535D01*
X168741700Y-76057270D01*
X168741701Y-76057276D01*
X168748108Y-76116883D01*
X168798402Y-76251728D01*
X168798406Y-76251735D01*
X168884652Y-76366944D01*
X168884655Y-76366947D01*
X168999864Y-76453193D01*
X168999871Y-76453197D01*
X169006494Y-76455667D01*
X169134717Y-76503491D01*
X169194327Y-76509900D01*
X169194353Y-76509899D01*
X169197653Y-76510078D01*
X169197565Y-76511708D01*
X169258438Y-76529467D01*
X169304284Y-76582191D01*
X169312004Y-76625651D01*
X169995754Y-77309400D01*
X169989539Y-77309400D01*
X169887806Y-77336659D01*
X169796594Y-77389320D01*
X169722120Y-77463794D01*
X169669459Y-77555006D01*
X169642200Y-77656739D01*
X169642200Y-77662953D01*
X168962724Y-76983477D01*
X168962723Y-76983477D01*
X168930343Y-77028044D01*
X168837444Y-77210368D01*
X168774209Y-77404982D01*
X168742200Y-77607082D01*
X168742200Y-77811717D01*
X168774209Y-78013817D01*
X168837444Y-78208431D01*
X168930341Y-78390750D01*
X168930347Y-78390759D01*
X168962723Y-78435321D01*
X168962724Y-78435322D01*
X169642200Y-77755846D01*
X169642200Y-77762061D01*
X169669459Y-77863794D01*
X169722120Y-77955006D01*
X169796594Y-78029480D01*
X169887806Y-78082141D01*
X169989539Y-78109400D01*
X169995753Y-78109400D01*
X169316276Y-78788874D01*
X169360850Y-78821259D01*
X169543168Y-78914155D01*
X169737782Y-78977390D01*
X169939883Y-79009400D01*
X170144517Y-79009400D01*
X170346617Y-78977390D01*
X170541231Y-78914155D01*
X170723549Y-78821259D01*
X170768121Y-78788874D01*
X170088647Y-78109400D01*
X170094861Y-78109400D01*
X170196594Y-78082141D01*
X170287806Y-78029480D01*
X170362280Y-77955006D01*
X170414941Y-77863794D01*
X170442200Y-77762061D01*
X170442200Y-77755847D01*
X171121674Y-78435321D01*
X171154059Y-78390749D01*
X171246955Y-78208431D01*
X171310190Y-78013817D01*
X171342200Y-77811717D01*
X171342200Y-77607082D01*
X171310190Y-77404982D01*
X171246955Y-77210368D01*
X171154059Y-77028050D01*
X171121674Y-76983477D01*
X171121674Y-76983476D01*
X170442200Y-77662951D01*
X170442200Y-77656739D01*
X170414941Y-77555006D01*
X170362280Y-77463794D01*
X170287806Y-77389320D01*
X170196594Y-77336659D01*
X170094861Y-77309400D01*
X170088646Y-77309400D01*
X170773131Y-76624915D01*
X170783564Y-76575252D01*
X170832615Y-76525494D01*
X170886837Y-76511448D01*
X170886776Y-76510300D01*
X170886771Y-76510254D01*
X170886773Y-76510253D01*
X170886764Y-76510076D01*
X170890057Y-76509899D01*
X170890072Y-76509899D01*
X170949683Y-76503491D01*
X171084531Y-76453196D01*
X171199746Y-76366946D01*
X171285996Y-76251731D01*
X171336291Y-76116883D01*
X171342700Y-76057273D01*
X171342700Y-75903984D01*
X175603700Y-75903984D01*
X175603700Y-77004015D01*
X175614200Y-77106795D01*
X175614201Y-77106797D01*
X175617681Y-77117298D01*
X175669386Y-77273335D01*
X175669387Y-77273337D01*
X175761486Y-77422651D01*
X175761489Y-77422655D01*
X175885544Y-77546710D01*
X175885548Y-77546713D01*
X176034862Y-77638812D01*
X176034864Y-77638813D01*
X176034866Y-77638814D01*
X176201403Y-77693999D01*
X176304192Y-77704500D01*
X176304197Y-77704500D01*
X177924203Y-77704500D01*
X177924208Y-77704500D01*
X178026997Y-77693999D01*
X178193534Y-77638814D01*
X178342855Y-77546711D01*
X178466911Y-77422655D01*
X178559014Y-77273334D01*
X178614199Y-77106797D01*
X178624700Y-77004008D01*
X178624700Y-75903992D01*
X178614199Y-75801203D01*
X178559014Y-75634666D01*
X178559013Y-75634665D01*
X178559013Y-75634663D01*
X178559012Y-75634662D01*
X178466913Y-75485348D01*
X178466910Y-75485344D01*
X178342855Y-75361289D01*
X178342851Y-75361286D01*
X178193537Y-75269187D01*
X178193535Y-75269186D01*
X178110265Y-75241593D01*
X178026997Y-75214001D01*
X178026995Y-75214000D01*
X177924215Y-75203500D01*
X177924208Y-75203500D01*
X176304192Y-75203500D01*
X176304184Y-75203500D01*
X176201404Y-75214000D01*
X176201403Y-75214001D01*
X176034864Y-75269186D01*
X176034862Y-75269187D01*
X175885548Y-75361286D01*
X175885544Y-75361289D01*
X175761489Y-75485344D01*
X175761486Y-75485348D01*
X175669387Y-75634662D01*
X175669387Y-75634663D01*
X175614201Y-75801203D01*
X175614200Y-75801204D01*
X175603700Y-75903984D01*
X171342700Y-75903984D01*
X171342699Y-75203500D01*
X171342699Y-74361529D01*
X171342698Y-74361523D01*
X171342697Y-74361516D01*
X171337499Y-74313157D01*
X171336291Y-74301916D01*
X171285997Y-74167071D01*
X171285993Y-74167064D01*
X171199747Y-74051855D01*
X171199744Y-74051852D01*
X171084535Y-73965606D01*
X171084528Y-73965602D01*
X170949682Y-73915308D01*
X170949683Y-73915308D01*
X170890083Y-73908901D01*
X170890081Y-73908900D01*
X170890073Y-73908900D01*
X170890064Y-73908900D01*
X169194329Y-73908900D01*
X169194323Y-73908901D01*
X169134716Y-73915308D01*
X168999871Y-73965602D01*
X168999864Y-73965606D01*
X168884655Y-74051852D01*
X168884652Y-74051855D01*
X168798406Y-74167064D01*
X168798402Y-74167071D01*
X168748108Y-74301917D01*
X168741701Y-74361516D01*
X168741701Y-74361523D01*
X168741700Y-74361535D01*
X165969254Y-74361535D01*
X165536830Y-73929112D01*
X165536823Y-73929105D01*
X165490140Y-73891485D01*
X165490138Y-73891484D01*
X165490136Y-73891482D01*
X165359226Y-73831697D01*
X165359222Y-73831696D01*
X165216767Y-73811216D01*
X165074311Y-73831696D01*
X165074307Y-73831697D01*
X164943396Y-73891483D01*
X164896701Y-73929112D01*
X163697646Y-75128169D01*
X163697640Y-75128176D01*
X163660018Y-75174861D01*
X163660016Y-75174863D01*
X163600231Y-75305773D01*
X163600230Y-75305777D01*
X163579750Y-75448233D01*
X163600230Y-75590690D01*
X163660017Y-75721603D01*
X163660018Y-75721604D01*
X163660019Y-75721606D01*
X163697638Y-75768289D01*
X163697644Y-75768295D01*
X163697653Y-75768306D01*
X163699867Y-75770772D01*
X163698688Y-75771829D01*
X163729180Y-75827670D01*
X163724196Y-75897362D01*
X163699000Y-75933376D01*
X163699000Y-76900314D01*
X163694606Y-76895920D01*
X163603394Y-76843259D01*
X163501661Y-76816000D01*
X163396339Y-76816000D01*
X163294606Y-76843259D01*
X163203394Y-76895920D01*
X163199000Y-76900314D01*
X163199000Y-75939390D01*
X163144586Y-75948009D01*
X162949970Y-76011244D01*
X162767650Y-76104140D01*
X162602105Y-76224417D01*
X162602104Y-76224417D01*
X162457417Y-76369104D01*
X162457417Y-76369105D01*
X162337140Y-76534650D01*
X162244244Y-76716970D01*
X162181009Y-76911586D01*
X162172391Y-76966000D01*
X158297024Y-76966000D01*
X156858070Y-75527046D01*
X155085642Y-73754617D01*
X154659770Y-73328745D01*
X154535025Y-73204000D01*
X175628216Y-73204000D01*
X176669640Y-73204000D01*
X176638955Y-73257147D01*
X176604200Y-73386857D01*
X176604200Y-73521143D01*
X176638955Y-73650853D01*
X176669640Y-73704000D01*
X175628216Y-73704000D01*
X175634981Y-73746716D01*
X175695781Y-73933837D01*
X175785104Y-74109143D01*
X175900755Y-74268321D01*
X176039878Y-74407444D01*
X176199056Y-74523095D01*
X176374364Y-74612418D01*
X176561494Y-74673221D01*
X176755818Y-74704000D01*
X176864200Y-74704000D01*
X176864200Y-73898560D01*
X176917347Y-73929245D01*
X177047057Y-73964000D01*
X177181343Y-73964000D01*
X177311053Y-73929245D01*
X177364200Y-73898560D01*
X177364200Y-74704000D01*
X177472582Y-74704000D01*
X177666905Y-74673221D01*
X177854035Y-74612418D01*
X178029343Y-74523095D01*
X178188521Y-74407444D01*
X178327644Y-74268321D01*
X178443295Y-74109143D01*
X178532618Y-73933837D01*
X178593418Y-73746716D01*
X178600184Y-73704000D01*
X177558760Y-73704000D01*
X177589445Y-73650853D01*
X177624200Y-73521143D01*
X177624200Y-73386857D01*
X177589445Y-73257147D01*
X177558760Y-73204000D01*
X178600184Y-73204000D01*
X178593418Y-73161283D01*
X178532618Y-72974162D01*
X178443295Y-72798856D01*
X178327644Y-72639678D01*
X178188521Y-72500555D01*
X178029343Y-72384904D01*
X177854035Y-72295581D01*
X177666905Y-72234778D01*
X177472582Y-72204000D01*
X177364200Y-72204000D01*
X177364200Y-73009439D01*
X177311053Y-72978755D01*
X177181343Y-72944000D01*
X177047057Y-72944000D01*
X176917347Y-72978755D01*
X176864200Y-73009439D01*
X176864200Y-72204000D01*
X176755818Y-72204000D01*
X176561494Y-72234778D01*
X176374364Y-72295581D01*
X176199056Y-72384904D01*
X176039878Y-72500555D01*
X175900755Y-72639678D01*
X175785104Y-72798856D01*
X175695781Y-72974162D01*
X175634981Y-73161283D01*
X175628216Y-73204000D01*
X154535025Y-73204000D01*
X151915769Y-70584743D01*
X151915768Y-70584742D01*
X151848273Y-70539644D01*
X151792189Y-70502170D01*
X151792186Y-70502168D01*
X151792185Y-70502168D01*
X151730462Y-70476601D01*
X151730450Y-70476597D01*
X151711755Y-70468853D01*
X151654880Y-70445295D01*
X151630694Y-70440484D01*
X151622192Y-70438792D01*
X151622190Y-70438792D01*
X151509114Y-70416299D01*
X151509112Y-70416299D01*
X151360488Y-70416299D01*
X151354374Y-70416299D01*
X151354354Y-70416300D01*
X146592443Y-70416300D01*
X146592423Y-70416299D01*
X146586309Y-70416299D01*
X146437685Y-70416299D01*
X146437683Y-70416299D01*
X146357204Y-70432308D01*
X146316102Y-70440484D01*
X146301537Y-70443381D01*
X146291915Y-70445295D01*
X146291914Y-70445295D01*
X146235042Y-70468852D01*
X146235042Y-70468853D01*
X146154613Y-70502168D01*
X146154606Y-70502171D01*
X146031030Y-70584741D01*
X145978484Y-70637287D01*
X145925938Y-70689834D01*
X145925936Y-70689836D01*
X144466381Y-72149390D01*
X144405058Y-72182875D01*
X144344104Y-72180785D01*
X144295969Y-72166800D01*
X144295966Y-72166799D01*
X144259100Y-72163898D01*
X144259093Y-72163898D01*
X143827705Y-72163898D01*
X143827697Y-72163898D01*
X143790831Y-72166799D01*
X143790825Y-72166800D01*
X143686494Y-72197112D01*
X143616625Y-72196913D01*
X143557955Y-72158971D01*
X143529111Y-72095332D01*
X143527899Y-72078036D01*
X143527899Y-70366781D01*
X174268700Y-70366781D01*
X174268700Y-70541218D01*
X174302727Y-70712283D01*
X174302729Y-70712291D01*
X174369478Y-70873439D01*
X174369483Y-70873448D01*
X174466386Y-71018473D01*
X174466389Y-71018477D01*
X174589722Y-71141810D01*
X174589726Y-71141813D01*
X174734751Y-71238716D01*
X174734757Y-71238719D01*
X174734758Y-71238720D01*
X174895909Y-71305471D01*
X175066981Y-71339499D01*
X175066985Y-71339500D01*
X175066986Y-71339500D01*
X175241415Y-71339500D01*
X175241416Y-71339499D01*
X175412491Y-71305471D01*
X175573642Y-71238720D01*
X175718674Y-71141813D01*
X175842013Y-71018474D01*
X175938920Y-70873442D01*
X176005671Y-70712291D01*
X176039700Y-70541214D01*
X176039700Y-70366786D01*
X176005671Y-70195709D01*
X175938920Y-70034558D01*
X175938919Y-70034557D01*
X175938916Y-70034551D01*
X175842013Y-69889526D01*
X175842010Y-69889522D01*
X175718677Y-69766189D01*
X175718673Y-69766186D01*
X175573648Y-69669283D01*
X175573639Y-69669278D01*
X175412491Y-69602529D01*
X175412483Y-69602527D01*
X175241418Y-69568500D01*
X175241414Y-69568500D01*
X175066986Y-69568500D01*
X175066981Y-69568500D01*
X174895916Y-69602527D01*
X174895908Y-69602529D01*
X174734760Y-69669278D01*
X174734751Y-69669283D01*
X174589726Y-69766186D01*
X174589722Y-69766189D01*
X174466389Y-69889522D01*
X174466386Y-69889526D01*
X174369483Y-70034551D01*
X174369478Y-70034560D01*
X174302729Y-70195708D01*
X174302727Y-70195716D01*
X174268700Y-70366781D01*
X143527899Y-70366781D01*
X143527899Y-69216880D01*
X143526945Y-69212086D01*
X143530632Y-69149564D01*
X143532051Y-69145200D01*
X143562104Y-68955454D01*
X143562104Y-68763344D01*
X143532051Y-68573598D01*
X143472748Y-68391081D01*
X143472687Y-68390892D01*
X143472686Y-68390890D01*
X143385469Y-68219718D01*
X143272549Y-68064297D01*
X143136706Y-67928454D01*
X142981285Y-67815534D01*
X142810110Y-67728315D01*
X142627406Y-67668952D01*
X142532532Y-67653925D01*
X142437659Y-67638899D01*
X142245549Y-67638899D01*
X142182300Y-67648916D01*
X142055801Y-67668952D01*
X141873097Y-67728315D01*
X141701922Y-67815534D01*
X141672106Y-67837197D01*
X141546502Y-67928454D01*
X141546500Y-67928456D01*
X141546499Y-67928456D01*
X141410661Y-68064294D01*
X141410661Y-68064295D01*
X141410659Y-68064297D01*
X141362164Y-68131044D01*
X141297739Y-68219717D01*
X141210521Y-68390891D01*
X141189271Y-68456291D01*
X141149833Y-68513966D01*
X141085474Y-68541164D01*
X141016628Y-68529249D01*
X140965152Y-68482004D01*
X140953409Y-68456290D01*
X140932220Y-68391079D01*
X140845038Y-68219976D01*
X140823805Y-68190751D01*
X140823804Y-68190750D01*
X140201604Y-68812952D01*
X140201604Y-68806738D01*
X140174345Y-68705005D01*
X140121684Y-68613793D01*
X140047210Y-68539319D01*
X139955998Y-68486658D01*
X139854265Y-68459399D01*
X139848051Y-68459399D01*
X140470250Y-67837197D01*
X140441019Y-67815960D01*
X140269925Y-67728782D01*
X140087288Y-67669439D01*
X139897619Y-67639399D01*
X139705589Y-67639399D01*
X139515919Y-67669439D01*
X139333282Y-67728782D01*
X139162182Y-67815963D01*
X139132956Y-67837197D01*
X139132955Y-67837197D01*
X139755158Y-68459399D01*
X139748943Y-68459399D01*
X139647210Y-68486658D01*
X139555998Y-68539319D01*
X139481524Y-68613793D01*
X139428863Y-68705005D01*
X139401604Y-68806738D01*
X139401604Y-68812952D01*
X138779402Y-68190750D01*
X138779402Y-68190751D01*
X138758168Y-68219977D01*
X138670985Y-68391081D01*
X138649797Y-68456291D01*
X138610359Y-68513966D01*
X138546000Y-68541163D01*
X138477154Y-68529247D01*
X138425679Y-68482003D01*
X138413937Y-68456291D01*
X138392687Y-68390890D01*
X138305470Y-68219718D01*
X138192550Y-68064297D01*
X138056707Y-67928454D01*
X137901286Y-67815534D01*
X137730111Y-67728315D01*
X137547407Y-67668952D01*
X137452533Y-67653925D01*
X137357660Y-67638899D01*
X137165550Y-67638899D01*
X137102301Y-67648916D01*
X136975802Y-67668952D01*
X136793098Y-67728315D01*
X136621923Y-67815534D01*
X136592107Y-67837197D01*
X136466503Y-67928454D01*
X136466501Y-67928456D01*
X136466500Y-67928456D01*
X136330662Y-68064294D01*
X136330662Y-68064295D01*
X136330660Y-68064297D01*
X136282165Y-68131044D01*
X136217740Y-68219717D01*
X136130521Y-68390892D01*
X136071158Y-68573596D01*
X136041105Y-68763344D01*
X136041105Y-68955453D01*
X136071158Y-69145201D01*
X136130521Y-69327905D01*
X136130523Y-69327908D01*
X136217740Y-69499080D01*
X136330660Y-69654501D01*
X136330662Y-69654503D01*
X136390728Y-69714569D01*
X136395597Y-69723487D01*
X136403624Y-69729722D01*
X136412061Y-69753637D01*
X136424213Y-69775892D01*
X136423488Y-69786027D01*
X136426869Y-69795611D01*
X136421038Y-69820288D01*
X136419229Y-69845584D01*
X136413138Y-69853719D01*
X136410802Y-69863608D01*
X136392553Y-69881217D01*
X136377357Y-69901517D01*
X136366499Y-69906359D01*
X136360524Y-69912125D01*
X136327240Y-69923867D01*
X136222052Y-69944791D01*
X136203506Y-69948481D01*
X136188941Y-69951378D01*
X136179319Y-69953292D01*
X136179318Y-69953292D01*
X136122446Y-69976850D01*
X136042017Y-70010164D01*
X136042013Y-70010166D01*
X136042012Y-70010167D01*
X136005508Y-70034558D01*
X135953310Y-70069434D01*
X135918434Y-70092738D01*
X135865888Y-70145284D01*
X135813342Y-70197831D01*
X135813340Y-70197833D01*
X135202343Y-70808828D01*
X135202342Y-70808829D01*
X135119772Y-70932405D01*
X135119771Y-70932407D01*
X135119770Y-70932409D01*
X135112185Y-70950721D01*
X135076785Y-71036185D01*
X135076785Y-71036186D01*
X135062894Y-71069720D01*
X135062893Y-71069724D01*
X135033899Y-71215483D01*
X135033899Y-71370223D01*
X135033900Y-71370244D01*
X135033900Y-71791425D01*
X135014215Y-71858464D01*
X134974997Y-71896963D01*
X134869747Y-71961882D01*
X134869743Y-71961885D01*
X134745689Y-72085939D01*
X134653587Y-72235260D01*
X134653585Y-72235265D01*
X134625749Y-72319267D01*
X134598401Y-72401800D01*
X134598401Y-72401801D01*
X134598400Y-72401801D01*
X134587900Y-72504580D01*
X134587900Y-73304598D01*
X134587901Y-73304616D01*
X134598400Y-73407393D01*
X134598401Y-73407396D01*
X134653585Y-73573928D01*
X134653587Y-73573933D01*
X134745689Y-73723254D01*
X134833851Y-73811416D01*
X134867336Y-73872739D01*
X134862352Y-73942431D01*
X134820480Y-73998364D01*
X134755016Y-74022781D01*
X134746170Y-74023097D01*
X133094229Y-74023097D01*
X133046759Y-74011209D01*
X133045932Y-74013207D01*
X132856769Y-73934853D01*
X132856761Y-73934851D01*
X132661933Y-73896097D01*
X132661929Y-73896097D01*
X132463271Y-73896097D01*
X132463266Y-73896097D01*
X132268438Y-73934851D01*
X132268430Y-73934853D01*
X132079268Y-74013207D01*
X132078440Y-74011209D01*
X132030971Y-74023097D01*
X130443777Y-74023097D01*
X130273486Y-74056970D01*
X130273478Y-74056972D01*
X130160043Y-74103959D01*
X130113057Y-74123421D01*
X130113053Y-74123423D01*
X130029739Y-74179092D01*
X129968684Y-74219887D01*
X129968676Y-74219893D01*
X127143296Y-77045272D01*
X127143295Y-77045273D01*
X127046823Y-77189656D01*
X126980377Y-77350072D01*
X126980374Y-77350082D01*
X126970564Y-77399403D01*
X126946500Y-77520377D01*
X126946500Y-77520380D01*
X126946500Y-89448619D01*
X126946500Y-89448621D01*
X126946499Y-89448621D01*
X126980374Y-89618917D01*
X126980377Y-89618927D01*
X127018061Y-89709904D01*
X127027500Y-89757356D01*
X127027500Y-90015000D01*
X127030401Y-90051866D01*
X127030402Y-90051872D01*
X127076254Y-90209692D01*
X127076255Y-90209695D01*
X127076256Y-90209697D01*
X127092887Y-90237819D01*
X127159917Y-90351161D01*
X127159923Y-90351169D01*
X127276129Y-90467375D01*
X127276133Y-90467378D01*
X127276135Y-90467380D01*
X127417602Y-90551043D01*
X127429704Y-90554559D01*
X127575426Y-90596896D01*
X127575429Y-90596896D01*
X127575431Y-90596897D01*
X127612306Y-90599799D01*
X127853500Y-90599799D01*
X127920539Y-90619484D01*
X127966294Y-90672288D01*
X127977500Y-90723799D01*
X127977500Y-91890001D01*
X127980401Y-91926867D01*
X127980402Y-91926873D01*
X128013195Y-92039745D01*
X128012996Y-92109615D01*
X127975054Y-92168285D01*
X127937590Y-92190470D01*
X127673227Y-92289430D01*
X127629757Y-92297300D01*
X127530799Y-92297300D01*
X127530780Y-92297301D01*
X127428003Y-92307800D01*
X127428000Y-92307801D01*
X127261468Y-92362985D01*
X127261463Y-92362987D01*
X127112142Y-92455089D01*
X126988089Y-92579142D01*
X126895987Y-92728463D01*
X126895986Y-92728466D01*
X126841571Y-92892679D01*
X126817611Y-92934839D01*
X126390566Y-93428080D01*
X126368549Y-93455418D01*
X126359657Y-93465320D01*
X125904467Y-93920509D01*
X125904464Y-93920513D01*
X125887502Y-93945899D01*
X125833889Y-93990704D01*
X125764564Y-93999411D01*
X125701537Y-93969256D01*
X125664818Y-93909813D01*
X125660400Y-93877008D01*
X125660400Y-65537711D01*
X126775100Y-65537711D01*
X126775100Y-65780288D01*
X126806761Y-66020785D01*
X126869547Y-66255104D01*
X126962373Y-66479205D01*
X126962376Y-66479212D01*
X127083664Y-66689289D01*
X127083666Y-66689292D01*
X127083667Y-66689293D01*
X127231333Y-66881736D01*
X127231339Y-66881743D01*
X127402856Y-67053260D01*
X127402862Y-67053265D01*
X127595311Y-67200936D01*
X127805388Y-67322224D01*
X128029500Y-67415054D01*
X128263811Y-67477838D01*
X128444186Y-67501584D01*
X128504311Y-67509500D01*
X128504312Y-67509500D01*
X128746889Y-67509500D01*
X128794988Y-67503167D01*
X128987389Y-67477838D01*
X129221700Y-67415054D01*
X129445812Y-67322224D01*
X129655889Y-67200936D01*
X129848338Y-67053265D01*
X130019865Y-66881738D01*
X130167536Y-66689289D01*
X130288824Y-66479212D01*
X130381654Y-66255100D01*
X130444438Y-66020789D01*
X130476100Y-65780288D01*
X130476100Y-65563111D01*
X176863900Y-65563111D01*
X176863900Y-65805688D01*
X176895561Y-66046185D01*
X176958347Y-66280504D01*
X177040652Y-66479205D01*
X177051176Y-66504612D01*
X177172464Y-66714689D01*
X177172466Y-66714692D01*
X177172467Y-66714693D01*
X177320133Y-66907136D01*
X177320139Y-66907143D01*
X177491656Y-67078660D01*
X177491662Y-67078665D01*
X177684111Y-67226336D01*
X177894188Y-67347624D01*
X178118300Y-67440454D01*
X178352611Y-67503238D01*
X178532986Y-67526984D01*
X178593111Y-67534900D01*
X178593112Y-67534900D01*
X178835689Y-67534900D01*
X178883788Y-67528567D01*
X179076189Y-67503238D01*
X179310500Y-67440454D01*
X179534612Y-67347624D01*
X179744689Y-67226336D01*
X179937138Y-67078665D01*
X180108665Y-66907138D01*
X180256336Y-66714689D01*
X180377624Y-66504612D01*
X180470454Y-66280500D01*
X180533238Y-66046189D01*
X180564900Y-65805688D01*
X180564900Y-65563112D01*
X180533238Y-65322611D01*
X180470454Y-65088300D01*
X180377624Y-64864188D01*
X180256336Y-64654111D01*
X180108665Y-64461662D01*
X180108660Y-64461656D01*
X179937143Y-64290139D01*
X179937136Y-64290133D01*
X179744693Y-64142467D01*
X179744692Y-64142466D01*
X179744689Y-64142464D01*
X179534612Y-64021176D01*
X179534605Y-64021173D01*
X179310504Y-63928347D01*
X179076185Y-63865561D01*
X178835689Y-63833900D01*
X178835688Y-63833900D01*
X178593112Y-63833900D01*
X178593111Y-63833900D01*
X178352614Y-63865561D01*
X178118295Y-63928347D01*
X177894194Y-64021173D01*
X177894185Y-64021177D01*
X177684106Y-64142467D01*
X177491663Y-64290133D01*
X177491656Y-64290139D01*
X177320139Y-64461656D01*
X177320133Y-64461663D01*
X177172467Y-64654106D01*
X177051177Y-64864185D01*
X177051173Y-64864194D01*
X176958347Y-65088295D01*
X176895561Y-65322614D01*
X176863900Y-65563111D01*
X130476100Y-65563111D01*
X130476100Y-65537712D01*
X130444438Y-65297211D01*
X130381654Y-65062900D01*
X130288824Y-64838788D01*
X130167536Y-64628711D01*
X130039355Y-64461662D01*
X130019866Y-64436263D01*
X130019860Y-64436256D01*
X129848343Y-64264739D01*
X129848336Y-64264733D01*
X129655893Y-64117067D01*
X129655892Y-64117066D01*
X129655889Y-64117064D01*
X129445812Y-63995776D01*
X129445805Y-63995773D01*
X129221704Y-63902947D01*
X129082182Y-63865562D01*
X128987389Y-63840162D01*
X128987388Y-63840161D01*
X128987385Y-63840161D01*
X128746889Y-63808500D01*
X128746888Y-63808500D01*
X128504312Y-63808500D01*
X128504311Y-63808500D01*
X128263814Y-63840161D01*
X128029495Y-63902947D01*
X127805394Y-63995773D01*
X127805385Y-63995777D01*
X127595306Y-64117067D01*
X127402863Y-64264733D01*
X127402856Y-64264739D01*
X127231339Y-64436256D01*
X127231333Y-64436263D01*
X127083667Y-64628706D01*
X126962377Y-64838785D01*
X126962373Y-64838794D01*
X126869547Y-65062895D01*
X126806761Y-65297214D01*
X126775100Y-65537711D01*
X125660400Y-65537711D01*
X125660400Y-62829100D01*
X125680085Y-62762061D01*
X125732889Y-62716306D01*
X125784400Y-62705100D01*
X181535400Y-62705100D01*
X181602439Y-62724785D01*
G37*
%TD.AperFunction*%
%TA.AperFunction,Conductor*%
G36*
X134806334Y-94443348D02*
G01*
X134850681Y-94471849D01*
X134944344Y-94565512D01*
X135014028Y-94608493D01*
X135014816Y-94608997D01*
X135037115Y-94634621D01*
X135059821Y-94659864D01*
X135060081Y-94661010D01*
X135060684Y-94661703D01*
X135061483Y-94667177D01*
X135072000Y-94713456D01*
X135072000Y-96407869D01*
X135052315Y-96474908D01*
X134999511Y-96520663D01*
X134982597Y-96526945D01*
X134971203Y-96530255D01*
X134829737Y-96613917D01*
X134829729Y-96613923D01*
X134713523Y-96730129D01*
X134713517Y-96730137D01*
X134629855Y-96871603D01*
X134629854Y-96871606D01*
X134584002Y-97029426D01*
X134584001Y-97029432D01*
X134581100Y-97066298D01*
X134581100Y-97497701D01*
X134584001Y-97534567D01*
X134584002Y-97534573D01*
X134629854Y-97692393D01*
X134629855Y-97692396D01*
X134629856Y-97692398D01*
X134646476Y-97720501D01*
X134713517Y-97833862D01*
X134718302Y-97840031D01*
X134715856Y-97841927D01*
X134742457Y-97890642D01*
X134737473Y-97960334D01*
X134716669Y-97992703D01*
X134718302Y-97993969D01*
X134713517Y-98000137D01*
X134629855Y-98141603D01*
X134629854Y-98141606D01*
X134584002Y-98299426D01*
X134584001Y-98299432D01*
X134581100Y-98336298D01*
X134581100Y-98767701D01*
X134584001Y-98804567D01*
X134584002Y-98804573D01*
X134629854Y-98962393D01*
X134629855Y-98962396D01*
X134713517Y-99103862D01*
X134718302Y-99110031D01*
X134715856Y-99111927D01*
X134742457Y-99160642D01*
X134737473Y-99230334D01*
X134716669Y-99262703D01*
X134718302Y-99263969D01*
X134713517Y-99270137D01*
X134629855Y-99411603D01*
X134629854Y-99411606D01*
X134584002Y-99569426D01*
X134584001Y-99569432D01*
X134581100Y-99606298D01*
X134581100Y-100037701D01*
X134584001Y-100074567D01*
X134584002Y-100074573D01*
X134629854Y-100232393D01*
X134629855Y-100232396D01*
X134713517Y-100373862D01*
X134718302Y-100380031D01*
X134715969Y-100381840D01*
X134742810Y-100430995D01*
X134737826Y-100500687D01*
X134717070Y-100533021D01*
X134718697Y-100534283D01*
X134713913Y-100540449D01*
X134630318Y-100681801D01*
X134584499Y-100839513D01*
X134584304Y-100841998D01*
X134584305Y-100842000D01*
X135932600Y-100842000D01*
X135999639Y-100861685D01*
X136045394Y-100914489D01*
X136056600Y-100966000D01*
X136056600Y-101092000D01*
X136182600Y-101092000D01*
X136249639Y-101111685D01*
X136295394Y-101164489D01*
X136306600Y-101216000D01*
X136306600Y-101892000D01*
X136702100Y-101892000D01*
X136769139Y-101911685D01*
X136814894Y-101964489D01*
X136826100Y-102016000D01*
X136826100Y-102429709D01*
X136806415Y-102496748D01*
X136787253Y-102519848D01*
X136778014Y-102528575D01*
X136761944Y-102538488D01*
X136666682Y-102633749D01*
X136665399Y-102634962D01*
X136635764Y-102650066D01*
X136606603Y-102665989D01*
X136604780Y-102665858D01*
X136603149Y-102666690D01*
X136570064Y-102663375D01*
X136536912Y-102661005D01*
X136535160Y-102659879D01*
X136533627Y-102659726D01*
X136528124Y-102655357D01*
X136492565Y-102632504D01*
X136398945Y-102538884D01*
X136249724Y-102446843D01*
X136249719Y-102446841D01*
X136083297Y-102391694D01*
X136083290Y-102391693D01*
X135980586Y-102381200D01*
X135830600Y-102381200D01*
X135830600Y-104781199D01*
X135980572Y-104781199D01*
X135980586Y-104781198D01*
X136083297Y-104770705D01*
X136249719Y-104715558D01*
X136249724Y-104715556D01*
X136398942Y-104623517D01*
X136492564Y-104529895D01*
X136498950Y-104526407D01*
X136503143Y-104520462D01*
X136529203Y-104509888D01*
X136553887Y-104496410D01*
X136561143Y-104496928D01*
X136567887Y-104494193D01*
X136595530Y-104499388D01*
X136623579Y-104501394D01*
X136631088Y-104506070D01*
X136636555Y-104507098D01*
X136659423Y-104523715D01*
X136665399Y-104527437D01*
X136666664Y-104528632D01*
X136761944Y-104623912D01*
X136778016Y-104633825D01*
X136787253Y-104642551D01*
X136798712Y-104662188D01*
X136813918Y-104679092D01*
X136817325Y-104694086D01*
X136822468Y-104702898D01*
X136821968Y-104714513D01*
X136826100Y-104732690D01*
X136826100Y-105115370D01*
X136806415Y-105182409D01*
X136789781Y-105203051D01*
X136693681Y-105299151D01*
X136632358Y-105332636D01*
X136562666Y-105327652D01*
X136518319Y-105299151D01*
X136424657Y-105205489D01*
X136424656Y-105205488D01*
X136331888Y-105148269D01*
X136275336Y-105113387D01*
X136275331Y-105113385D01*
X136270847Y-105111899D01*
X136108797Y-105058201D01*
X136108795Y-105058200D01*
X136006010Y-105047700D01*
X135205998Y-105047700D01*
X135205978Y-105047702D01*
X135166562Y-105051728D01*
X135164640Y-105051370D01*
X135162808Y-105052054D01*
X135130430Y-105045010D01*
X135097869Y-105038957D01*
X135095840Y-105037485D01*
X135094535Y-105037202D01*
X135066281Y-105016051D01*
X135038160Y-104987930D01*
X135004675Y-104926607D01*
X135009659Y-104856915D01*
X135051531Y-104800982D01*
X135116995Y-104776565D01*
X135138444Y-104776891D01*
X135180619Y-104781199D01*
X135330599Y-104781199D01*
X135330600Y-104781198D01*
X135330600Y-103831200D01*
X134480601Y-103831200D01*
X134480601Y-104081171D01*
X134480602Y-104081191D01*
X134484909Y-104123359D01*
X134472139Y-104192052D01*
X134424257Y-104242935D01*
X134356467Y-104259855D01*
X134290291Y-104237438D01*
X134273870Y-104223640D01*
X133501205Y-103450974D01*
X133501182Y-103450953D01*
X133215975Y-103165745D01*
X133131443Y-103081213D01*
X134480600Y-103081213D01*
X134480600Y-103331200D01*
X135330600Y-103331200D01*
X135330600Y-102381200D01*
X135180627Y-102381200D01*
X135180612Y-102381201D01*
X135077902Y-102391694D01*
X134911480Y-102446841D01*
X134911475Y-102446843D01*
X134762254Y-102538884D01*
X134638284Y-102662854D01*
X134546243Y-102812075D01*
X134546241Y-102812080D01*
X134491094Y-102978502D01*
X134491093Y-102978509D01*
X134480600Y-103081213D01*
X133131443Y-103081213D01*
X133086719Y-103036489D01*
X133053234Y-102975166D01*
X133050400Y-102948808D01*
X133050400Y-101342001D01*
X134584304Y-101342001D01*
X134584499Y-101344486D01*
X134630318Y-101502198D01*
X134713914Y-101643552D01*
X134713921Y-101643561D01*
X134830038Y-101759678D01*
X134830047Y-101759685D01*
X134971403Y-101843282D01*
X134971406Y-101843283D01*
X135129104Y-101889099D01*
X135129110Y-101889100D01*
X135165950Y-101891999D01*
X135165966Y-101892000D01*
X135806600Y-101892000D01*
X135806600Y-101342000D01*
X134584305Y-101342000D01*
X134584304Y-101342001D01*
X133050400Y-101342001D01*
X133050400Y-98744577D01*
X133016525Y-98574281D01*
X133016524Y-98574280D01*
X133016524Y-98574276D01*
X133016522Y-98574271D01*
X132950078Y-98413859D01*
X132950074Y-98413852D01*
X132905516Y-98347166D01*
X132905516Y-98347165D01*
X132853607Y-98269477D01*
X132853601Y-98269470D01*
X131547037Y-96962907D01*
X131531482Y-96943915D01*
X131325261Y-96633927D01*
X131304520Y-96567210D01*
X131323141Y-96499868D01*
X131329040Y-96491201D01*
X131562384Y-96177887D01*
X131574135Y-96164293D01*
X133029932Y-94708496D01*
X133091253Y-94675013D01*
X133156614Y-94678472D01*
X133260203Y-94712799D01*
X133362991Y-94723300D01*
X134163008Y-94723299D01*
X134163016Y-94723298D01*
X134163019Y-94723298D01*
X134258435Y-94713551D01*
X134265797Y-94712799D01*
X134432334Y-94657614D01*
X134581656Y-94565512D01*
X134675319Y-94471849D01*
X134736642Y-94438364D01*
X134806334Y-94443348D01*
G37*
%TD.AperFunction*%
%TA.AperFunction,Conductor*%
G36*
X139847687Y-101800267D02*
G01*
X139921202Y-101843744D01*
X139962824Y-101855836D01*
X140079026Y-101889597D01*
X140079029Y-101889597D01*
X140079031Y-101889598D01*
X140115906Y-101892500D01*
X141579496Y-101892500D01*
X141596392Y-101897461D01*
X141614003Y-101897398D01*
X141629221Y-101907101D01*
X141646535Y-101912185D01*
X141658065Y-101925491D01*
X141672917Y-101934961D01*
X141680474Y-101951352D01*
X141692290Y-101964989D01*
X141694842Y-101982518D01*
X141702170Y-101998412D01*
X141701435Y-102027795D01*
X141702296Y-102033706D01*
X141701803Y-102037220D01*
X141676000Y-102166942D01*
X141676000Y-102221382D01*
X141674800Y-102229947D01*
X141663820Y-102254220D01*
X141656315Y-102279780D01*
X141649018Y-102286943D01*
X141646004Y-102293607D01*
X141634910Y-102300792D01*
X141617098Y-102318279D01*
X141548346Y-102360686D01*
X141454327Y-102454705D01*
X141393003Y-102488189D01*
X141323312Y-102483205D01*
X141278965Y-102454704D01*
X141185345Y-102361084D01*
X141036124Y-102269043D01*
X141036119Y-102269041D01*
X140869697Y-102213894D01*
X140869690Y-102213893D01*
X140766986Y-102203400D01*
X140617000Y-102203400D01*
X140617000Y-104603399D01*
X140766972Y-104603399D01*
X140766986Y-104603398D01*
X140869697Y-104592905D01*
X141036119Y-104537758D01*
X141036124Y-104537756D01*
X141185342Y-104445717D01*
X141278964Y-104352095D01*
X141281867Y-104350509D01*
X141283600Y-104347692D01*
X141312320Y-104333880D01*
X141340287Y-104318610D01*
X141343586Y-104318845D01*
X141346568Y-104317412D01*
X141378198Y-104321321D01*
X141409979Y-104323594D01*
X141413605Y-104325697D01*
X141415910Y-104325982D01*
X141426458Y-104333151D01*
X141445974Y-104344471D01*
X141450322Y-104348090D01*
X141548344Y-104446112D01*
X141624579Y-104493134D01*
X141631328Y-104498751D01*
X141646096Y-104520758D01*
X141663821Y-104540464D01*
X141666125Y-104550605D01*
X141670261Y-104556768D01*
X141670522Y-104569953D01*
X141676000Y-104594056D01*
X141676000Y-104930541D01*
X141656315Y-104997580D01*
X141617098Y-105036079D01*
X141548344Y-105078487D01*
X141548343Y-105078488D01*
X141454681Y-105172151D01*
X141393358Y-105205636D01*
X141323666Y-105200652D01*
X141279319Y-105172151D01*
X141185657Y-105078489D01*
X141185656Y-105078488D01*
X141057999Y-104999749D01*
X141036336Y-104986387D01*
X141036331Y-104986385D01*
X140984340Y-104969157D01*
X140869797Y-104931201D01*
X140869795Y-104931200D01*
X140767010Y-104920700D01*
X139966998Y-104920700D01*
X139966980Y-104920701D01*
X139864203Y-104931200D01*
X139864200Y-104931201D01*
X139766604Y-104963542D01*
X139738139Y-104964521D01*
X139709953Y-104968574D01*
X139703674Y-104965706D01*
X139696776Y-104965944D01*
X139672304Y-104951380D01*
X139646397Y-104939549D01*
X139642664Y-104933741D01*
X139636734Y-104930212D01*
X139624020Y-104904729D01*
X139608623Y-104880771D01*
X139607228Y-104871075D01*
X139605541Y-104867692D01*
X139603600Y-104845836D01*
X139603600Y-104678237D01*
X139623285Y-104611198D01*
X139676089Y-104565443D01*
X139745247Y-104555499D01*
X139766604Y-104560531D01*
X139864302Y-104592905D01*
X139864309Y-104592906D01*
X139967019Y-104603399D01*
X140116999Y-104603399D01*
X140117000Y-104603398D01*
X140117000Y-102203400D01*
X139967027Y-102203400D01*
X139967012Y-102203401D01*
X139864302Y-102213894D01*
X139766604Y-102246268D01*
X139738139Y-102247247D01*
X139709953Y-102251300D01*
X139703674Y-102248432D01*
X139696775Y-102248670D01*
X139672299Y-102234104D01*
X139646397Y-102222275D01*
X139642665Y-102216468D01*
X139636733Y-102212938D01*
X139624018Y-102187452D01*
X139608623Y-102163497D01*
X139607228Y-102153799D01*
X139605541Y-102150417D01*
X139603600Y-102128562D01*
X139603600Y-101907000D01*
X139623285Y-101839961D01*
X139676089Y-101794206D01*
X139727600Y-101783000D01*
X139784567Y-101783000D01*
X139847687Y-101800267D01*
G37*
%TD.AperFunction*%
%TA.AperFunction,Conductor*%
G36*
X138615049Y-98588230D02*
G01*
X138624328Y-98588430D01*
X138646059Y-98603066D01*
X138669702Y-98614378D01*
X138674521Y-98618946D01*
X139084200Y-99028624D01*
X139084221Y-99028647D01*
X139193631Y-99138057D01*
X139193634Y-99138059D01*
X139273250Y-99191256D01*
X139317211Y-99220630D01*
X139385573Y-99248946D01*
X139454520Y-99277505D01*
X139477228Y-99282021D01*
X139539138Y-99314402D01*
X139573716Y-99375116D01*
X139572118Y-99438233D01*
X139534001Y-99569432D01*
X139531100Y-99606298D01*
X139531100Y-100037701D01*
X139534001Y-100074567D01*
X139534002Y-100074573D01*
X139582032Y-100239890D01*
X139579438Y-100240643D01*
X139586402Y-100297111D01*
X139556106Y-100360070D01*
X139496580Y-100396655D01*
X139464044Y-100401000D01*
X139250938Y-100401000D01*
X139136438Y-100423776D01*
X139136437Y-100423776D01*
X139124998Y-100426051D01*
X139117440Y-100427555D01*
X139117439Y-100427555D01*
X138991694Y-100479640D01*
X138991681Y-100479647D01*
X138878513Y-100555264D01*
X138878509Y-100555267D01*
X138546781Y-100886996D01*
X138485458Y-100920481D01*
X138415766Y-100915497D01*
X138359833Y-100873625D01*
X138335416Y-100808161D01*
X138335100Y-100799315D01*
X138335100Y-100451447D01*
X138335101Y-100451426D01*
X138335101Y-100296686D01*
X138306106Y-100150926D01*
X138306104Y-100150920D01*
X138298972Y-100133703D01*
X138298970Y-100133698D01*
X138282546Y-100094047D01*
X138282546Y-100094046D01*
X138249230Y-100013612D01*
X138201191Y-99941716D01*
X138178595Y-99907898D01*
X138166660Y-99890036D01*
X138166656Y-99890031D01*
X138057247Y-99780622D01*
X138057224Y-99780601D01*
X137738528Y-99461904D01*
X137722810Y-99433119D01*
X137706062Y-99404894D01*
X137706143Y-99402597D01*
X137705043Y-99400581D01*
X137707383Y-99367855D01*
X137708553Y-99335069D01*
X137709863Y-99333182D01*
X137710027Y-99330889D01*
X137729693Y-99304618D01*
X137748399Y-99277675D01*
X137751033Y-99276111D01*
X137751899Y-99274956D01*
X137778749Y-99259664D01*
X137804627Y-99248946D01*
X137872989Y-99220630D01*
X137996566Y-99138059D01*
X138352163Y-98782460D01*
X138352166Y-98782459D01*
X138457259Y-98677366D01*
X138488793Y-98630170D01*
X138494897Y-98623426D01*
X138517241Y-98609736D01*
X138537349Y-98592932D01*
X138546558Y-98591775D01*
X138554475Y-98586925D01*
X138580672Y-98587489D01*
X138606674Y-98584223D01*
X138615049Y-98588230D01*
G37*
%TD.AperFunction*%
%TA.AperFunction,Conductor*%
G36*
X132398254Y-90072484D02*
G01*
X132418896Y-90089118D01*
X133627897Y-91298119D01*
X134489263Y-92159484D01*
X134522748Y-92220807D01*
X134517764Y-92290499D01*
X134475892Y-92346432D01*
X134410428Y-92370849D01*
X134362579Y-92364871D01*
X134265799Y-92332801D01*
X134265795Y-92332800D01*
X134163010Y-92322300D01*
X133362998Y-92322300D01*
X133362980Y-92322301D01*
X133260203Y-92332800D01*
X133260200Y-92332801D01*
X133093668Y-92387985D01*
X133093663Y-92387987D01*
X132944342Y-92480089D01*
X132820288Y-92604143D01*
X132820286Y-92604146D01*
X132813868Y-92614551D01*
X132761919Y-92661273D01*
X132750481Y-92666067D01*
X132741688Y-92669244D01*
X132711876Y-92675175D01*
X132622733Y-92712100D01*
X132620125Y-92713180D01*
X132620098Y-92713190D01*
X132551454Y-92741624D01*
X132533730Y-92753465D01*
X132533731Y-92753466D01*
X132407073Y-92838095D01*
X131292481Y-93952687D01*
X131231158Y-93986172D01*
X131161466Y-93981188D01*
X131105533Y-93939316D01*
X131081116Y-93873852D01*
X131080800Y-93865006D01*
X131080800Y-93772800D01*
X130243300Y-93772800D01*
X130243300Y-94747799D01*
X130265687Y-94770186D01*
X130299172Y-94831509D01*
X130294188Y-94901201D01*
X130252316Y-94957134D01*
X130239184Y-94965725D01*
X129643933Y-95303358D01*
X129582756Y-95319500D01*
X129479599Y-95319500D01*
X129479580Y-95319501D01*
X129376803Y-95330000D01*
X129376800Y-95330001D01*
X129210268Y-95385185D01*
X129210263Y-95385187D01*
X129060942Y-95477289D01*
X128967281Y-95570951D01*
X128905958Y-95604436D01*
X128836266Y-95599452D01*
X128791919Y-95570951D01*
X128698257Y-95477289D01*
X128698256Y-95477288D01*
X128548934Y-95385186D01*
X128382397Y-95330001D01*
X128382395Y-95330000D01*
X128279610Y-95319500D01*
X127479598Y-95319500D01*
X127479580Y-95319501D01*
X127376803Y-95330000D01*
X127376800Y-95330001D01*
X127295204Y-95357040D01*
X127225376Y-95359442D01*
X127165334Y-95323710D01*
X127134141Y-95261190D01*
X127132200Y-95239334D01*
X127132200Y-94814497D01*
X127138826Y-94791928D01*
X127141043Y-94768509D01*
X127148488Y-94759024D01*
X127151885Y-94747458D01*
X127169658Y-94732057D01*
X127184186Y-94713551D01*
X127195578Y-94709597D01*
X127204689Y-94701703D01*
X127227971Y-94698355D01*
X127250194Y-94690643D01*
X127266694Y-94692787D01*
X127273847Y-94691759D01*
X127285331Y-94693967D01*
X127291447Y-94695445D01*
X127293045Y-94696096D01*
X127318256Y-94701924D01*
X127318758Y-94702046D01*
X127318939Y-94702150D01*
X127328625Y-94704868D01*
X127428003Y-94737799D01*
X127530791Y-94748300D01*
X128305808Y-94748299D01*
X128305816Y-94748298D01*
X128305819Y-94748298D01*
X128362102Y-94742548D01*
X128408597Y-94737799D01*
X128575134Y-94682614D01*
X128724456Y-94590512D01*
X128848512Y-94466456D01*
X128850552Y-94463147D01*
X128852545Y-94461355D01*
X128852993Y-94460789D01*
X128853089Y-94460865D01*
X128902494Y-94416423D01*
X128971456Y-94405195D01*
X129035540Y-94433034D01*
X129061629Y-94463139D01*
X129063481Y-94466141D01*
X129063483Y-94466144D01*
X129187454Y-94590115D01*
X129336675Y-94682156D01*
X129336680Y-94682158D01*
X129503102Y-94737305D01*
X129503109Y-94737306D01*
X129605819Y-94747799D01*
X129743299Y-94747799D01*
X129743300Y-94747798D01*
X129743300Y-93272800D01*
X130243300Y-93272800D01*
X131080799Y-93272800D01*
X131080799Y-92997828D01*
X131080798Y-92997813D01*
X131070305Y-92895102D01*
X131015158Y-92728680D01*
X131015156Y-92728675D01*
X130923115Y-92579454D01*
X130799145Y-92455484D01*
X130649924Y-92363443D01*
X130649919Y-92363441D01*
X130483497Y-92308294D01*
X130483490Y-92308293D01*
X130380786Y-92297800D01*
X130243300Y-92297800D01*
X130243300Y-93272800D01*
X129743300Y-93272800D01*
X129743300Y-92297800D01*
X129621110Y-92297800D01*
X129554071Y-92278115D01*
X129508316Y-92225311D01*
X129498372Y-92156153D01*
X129514377Y-92110681D01*
X129529744Y-92084698D01*
X129575598Y-91926869D01*
X129578500Y-91889994D01*
X129578500Y-90723799D01*
X129598185Y-90656760D01*
X129650989Y-90611005D01*
X129702500Y-90599799D01*
X129943686Y-90599799D01*
X129943694Y-90599799D01*
X129980569Y-90596897D01*
X129980571Y-90596896D01*
X129980573Y-90596896D01*
X130077791Y-90568651D01*
X130138398Y-90551043D01*
X130279865Y-90467380D01*
X130396081Y-90351164D01*
X130479744Y-90209697D01*
X130499353Y-90142204D01*
X130536959Y-90083319D01*
X130600431Y-90054112D01*
X130618429Y-90052799D01*
X132331215Y-90052799D01*
X132398254Y-90072484D01*
G37*
%TD.AperFunction*%
%TA.AperFunction,Conductor*%
G36*
X169824647Y-91131758D02*
G01*
X169835670Y-91131904D01*
X169856124Y-91145434D01*
X169878618Y-91155207D01*
X169888984Y-91167170D01*
X169893944Y-91170451D01*
X169896136Y-91175424D01*
X169904704Y-91185312D01*
X169939085Y-91241052D01*
X169939088Y-91241056D01*
X170063144Y-91365112D01*
X170212466Y-91457214D01*
X170379003Y-91512399D01*
X170481791Y-91522900D01*
X170571500Y-91522899D01*
X170638538Y-91542583D01*
X170684294Y-91595386D01*
X170695500Y-91646899D01*
X170695500Y-92625513D01*
X170675815Y-92692552D01*
X170659181Y-92713194D01*
X170360994Y-93011381D01*
X170299671Y-93044866D01*
X170273313Y-93047700D01*
X169988200Y-93047700D01*
X169921161Y-93028015D01*
X169875406Y-92975211D01*
X169864200Y-92923700D01*
X169864200Y-92782200D01*
X168888200Y-92782200D01*
X168821161Y-92762515D01*
X168775406Y-92709711D01*
X168764200Y-92658200D01*
X168764200Y-92406200D01*
X168783885Y-92339161D01*
X168836689Y-92293406D01*
X168888200Y-92282200D01*
X169864199Y-92282200D01*
X169864199Y-92032228D01*
X169864198Y-92032213D01*
X169853705Y-91929502D01*
X169798558Y-91763080D01*
X169798556Y-91763075D01*
X169706515Y-91613854D01*
X169579295Y-91486634D01*
X169576706Y-91481893D01*
X169572198Y-91478911D01*
X169560136Y-91451547D01*
X169545810Y-91425311D01*
X169546195Y-91419921D01*
X169544016Y-91414977D01*
X169548661Y-91385444D01*
X169550794Y-91355619D01*
X169554256Y-91349870D01*
X169554872Y-91345956D01*
X169566917Y-91328849D01*
X169574344Y-91316519D01*
X169576728Y-91313839D01*
X169674912Y-91215656D01*
X169699325Y-91176075D01*
X169706534Y-91167975D01*
X169727337Y-91154990D01*
X169745573Y-91138588D01*
X169756455Y-91136816D01*
X169765806Y-91130981D01*
X169790325Y-91131304D01*
X169814536Y-91127365D01*
X169824647Y-91131758D01*
G37*
%TD.AperFunction*%
%TA.AperFunction,Conductor*%
G36*
X149723363Y-90409115D02*
G01*
X149749658Y-90411468D01*
X149756825Y-90417035D01*
X149765659Y-90419126D01*
X149783985Y-90438132D01*
X149804837Y-90454329D01*
X149807857Y-90462889D01*
X149814157Y-90469423D01*
X149819298Y-90495319D01*
X149828083Y-90520218D01*
X149827065Y-90534439D01*
X149827764Y-90537955D01*
X149826603Y-90540900D01*
X149825878Y-90551050D01*
X149796100Y-90700753D01*
X149796100Y-90858446D01*
X149826861Y-91013089D01*
X149826864Y-91013101D01*
X149887202Y-91158772D01*
X149887209Y-91158785D01*
X149974810Y-91289888D01*
X149974813Y-91289892D01*
X150086307Y-91401386D01*
X150086311Y-91401389D01*
X150217414Y-91488990D01*
X150217427Y-91488997D01*
X150346797Y-91542583D01*
X150363103Y-91549337D01*
X150517753Y-91580099D01*
X150517756Y-91580100D01*
X150517758Y-91580100D01*
X150675444Y-91580100D01*
X150675445Y-91580099D01*
X150830097Y-91549337D01*
X150967006Y-91492628D01*
X150975772Y-91488997D01*
X150975772Y-91488996D01*
X150975779Y-91488994D01*
X151106889Y-91401389D01*
X151143563Y-91364715D01*
X151196519Y-91311760D01*
X151257842Y-91278275D01*
X151327534Y-91283259D01*
X151383467Y-91325131D01*
X151407884Y-91390595D01*
X151408200Y-91399441D01*
X151408200Y-91647200D01*
X152384200Y-91647200D01*
X152451239Y-91666885D01*
X152496994Y-91719689D01*
X152508200Y-91771200D01*
X152508200Y-92023200D01*
X152488515Y-92090239D01*
X152435711Y-92135994D01*
X152384200Y-92147200D01*
X151408201Y-92147200D01*
X151408201Y-92397186D01*
X151418694Y-92499897D01*
X151473841Y-92666319D01*
X151473843Y-92666324D01*
X151545442Y-92782403D01*
X151563882Y-92849796D01*
X151542960Y-92916459D01*
X151489318Y-92961229D01*
X151439903Y-92971500D01*
X145143886Y-92971500D01*
X145076847Y-92951815D01*
X145056205Y-92935181D01*
X143284819Y-91163794D01*
X143251334Y-91102471D01*
X143248500Y-91076113D01*
X143248500Y-90609999D01*
X143268185Y-90542960D01*
X143320989Y-90497205D01*
X143372500Y-90485999D01*
X144540497Y-90485999D01*
X144607282Y-90479931D01*
X144607285Y-90479930D01*
X144607287Y-90479930D01*
X144761002Y-90432031D01*
X144761004Y-90432029D01*
X144767841Y-90428953D01*
X144768493Y-90430401D01*
X144823742Y-90415000D01*
X149482383Y-90415000D01*
X149482388Y-90415001D01*
X149631012Y-90415001D01*
X149688794Y-90403506D01*
X149697668Y-90403034D01*
X149723363Y-90409115D01*
G37*
%TD.AperFunction*%
%TA.AperFunction,Conductor*%
G36*
X159980795Y-91492884D02*
G01*
X159982452Y-91492628D01*
X160012967Y-91506156D01*
X160043834Y-91518890D01*
X160045930Y-91520770D01*
X160046326Y-91520946D01*
X160046614Y-91521383D01*
X160053849Y-91527873D01*
X161285795Y-92759819D01*
X161319280Y-92821142D01*
X161314296Y-92890834D01*
X161272424Y-92946767D01*
X161206960Y-92971184D01*
X161198114Y-92971500D01*
X159988094Y-92971500D01*
X159921055Y-92951815D01*
X159875300Y-92899011D01*
X159865356Y-92829853D01*
X159881362Y-92784379D01*
X159908081Y-92739198D01*
X159953900Y-92581486D01*
X159954095Y-92579001D01*
X159954095Y-92579000D01*
X157009505Y-92579000D01*
X157009504Y-92579001D01*
X157009699Y-92581486D01*
X157055518Y-92739198D01*
X157082238Y-92784379D01*
X157099421Y-92852103D01*
X157077261Y-92918366D01*
X157022795Y-92962129D01*
X156975506Y-92971500D01*
X155577084Y-92971500D01*
X155569505Y-92969274D01*
X155561712Y-92970543D01*
X155536460Y-92959571D01*
X155510045Y-92951815D01*
X155504874Y-92945847D01*
X155497630Y-92942700D01*
X155482317Y-92919815D01*
X155464290Y-92899011D01*
X155463166Y-92891194D01*
X155458774Y-92884631D01*
X155458264Y-92857105D01*
X155454346Y-92829853D01*
X155457594Y-92820891D01*
X155457481Y-92814773D01*
X155471546Y-92782403D01*
X155515833Y-92710603D01*
X155567781Y-92663878D01*
X155621371Y-92651700D01*
X155805754Y-92651700D01*
X155805774Y-92651701D01*
X155811888Y-92651701D01*
X155960513Y-92651701D01*
X155974363Y-92648945D01*
X156097879Y-92624376D01*
X156106280Y-92622705D01*
X156180403Y-92592002D01*
X156243589Y-92565830D01*
X156367166Y-92483259D01*
X156803947Y-92046476D01*
X156865270Y-92012992D01*
X156934961Y-92017976D01*
X156982683Y-92049986D01*
X157009504Y-92079000D01*
X159954095Y-92079000D01*
X159954095Y-92078998D01*
X159953900Y-92076513D01*
X159908081Y-91918801D01*
X159824485Y-91777447D01*
X159819700Y-91771278D01*
X159822166Y-91769364D01*
X159795602Y-91720776D01*
X159800549Y-91651082D01*
X159811701Y-91628475D01*
X159819150Y-91616595D01*
X159824881Y-91610865D01*
X159860287Y-91550994D01*
X159861115Y-91549676D01*
X159886114Y-91527522D01*
X159910503Y-91504751D01*
X159912151Y-91504451D01*
X159913408Y-91503338D01*
X159946398Y-91498220D01*
X159979244Y-91492245D01*
X159980795Y-91492884D01*
G37*
%TD.AperFunction*%
%TA.AperFunction,Conductor*%
G36*
X132078440Y-75797984D02*
G01*
X132079268Y-75795987D01*
X132128048Y-75816192D01*
X132268431Y-75874341D01*
X132434957Y-75907465D01*
X132463266Y-75913096D01*
X132463270Y-75913097D01*
X132463271Y-75913097D01*
X132661930Y-75913097D01*
X132661931Y-75913096D01*
X132856769Y-75874341D01*
X133013939Y-75809238D01*
X133045932Y-75795987D01*
X133046759Y-75797984D01*
X133094229Y-75786097D01*
X134757169Y-75786097D01*
X134786609Y-75794741D01*
X134816596Y-75801265D01*
X134821611Y-75805019D01*
X134824208Y-75805782D01*
X134844850Y-75822416D01*
X134859725Y-75837291D01*
X134893210Y-75898614D01*
X134888226Y-75968306D01*
X134848961Y-76022233D01*
X134844347Y-76025881D01*
X134720289Y-76149939D01*
X134628187Y-76299260D01*
X134628185Y-76299265D01*
X134607298Y-76362299D01*
X134573001Y-76465800D01*
X134573001Y-76465801D01*
X134573000Y-76465801D01*
X134562500Y-76568580D01*
X134562500Y-77368598D01*
X134562501Y-77368616D01*
X134573000Y-77471393D01*
X134573001Y-77471396D01*
X134628185Y-77637928D01*
X134628187Y-77637933D01*
X134639787Y-77656739D01*
X134716883Y-77781733D01*
X134720289Y-77787254D01*
X134813951Y-77880916D01*
X134847436Y-77942239D01*
X134842452Y-78011931D01*
X134813951Y-78056278D01*
X134720289Y-78149939D01*
X134628187Y-78299260D01*
X134628185Y-78299265D01*
X134607298Y-78362299D01*
X134573001Y-78465800D01*
X134573001Y-78465801D01*
X134573000Y-78465801D01*
X134562500Y-78568580D01*
X134562500Y-79368598D01*
X134562501Y-79368616D01*
X134573000Y-79471393D01*
X134573001Y-79471396D01*
X134596137Y-79541214D01*
X134628186Y-79637931D01*
X134720288Y-79787253D01*
X134844344Y-79911309D01*
X134965977Y-79986332D01*
X134987944Y-80010755D01*
X135010755Y-80034395D01*
X135011754Y-80037227D01*
X135012701Y-80038280D01*
X135022497Y-80067679D01*
X135032684Y-80118890D01*
X135036026Y-80135689D01*
X135037495Y-80143076D01*
X135052612Y-80179571D01*
X135052612Y-80179572D01*
X135094366Y-80280377D01*
X135094372Y-80280388D01*
X135176942Y-80403964D01*
X136207235Y-81434257D01*
X136207238Y-81434259D01*
X136330815Y-81516830D01*
X136376587Y-81535789D01*
X136468124Y-81573705D01*
X136492309Y-81578515D01*
X136511047Y-81582242D01*
X136512271Y-81582486D01*
X136574182Y-81614870D01*
X136608756Y-81675586D01*
X136605017Y-81745355D01*
X136564151Y-81802028D01*
X136560966Y-81804420D01*
X136466508Y-81873049D01*
X136466499Y-81873056D01*
X136330661Y-82008894D01*
X136330661Y-82008895D01*
X136330659Y-82008897D01*
X136304304Y-82045172D01*
X136217739Y-82164317D01*
X136130520Y-82335492D01*
X136071157Y-82518196D01*
X136050662Y-82647600D01*
X136041104Y-82707944D01*
X136041104Y-82900054D01*
X136043284Y-82913815D01*
X136071157Y-83089801D01*
X136130520Y-83272505D01*
X136209195Y-83426911D01*
X136217739Y-83443680D01*
X136330659Y-83599101D01*
X136466502Y-83734944D01*
X136621923Y-83847864D01*
X136724061Y-83899906D01*
X136793097Y-83935082D01*
X136860592Y-83957012D01*
X136975803Y-83994446D01*
X137165549Y-84024499D01*
X137165550Y-84024499D01*
X137357658Y-84024499D01*
X137357659Y-84024499D01*
X137547405Y-83994446D01*
X137730113Y-83935081D01*
X137901285Y-83847864D01*
X138056706Y-83734944D01*
X138192549Y-83599101D01*
X138305469Y-83443680D01*
X138392686Y-83272508D01*
X138413935Y-83207107D01*
X138453371Y-83149434D01*
X138517729Y-83122235D01*
X138586575Y-83134148D01*
X138638052Y-83181391D01*
X138649797Y-83207106D01*
X138670987Y-83272321D01*
X138758164Y-83443414D01*
X138779401Y-83472645D01*
X139401603Y-82850444D01*
X139401603Y-82856660D01*
X139428862Y-82958393D01*
X139481523Y-83049605D01*
X139555997Y-83124079D01*
X139647209Y-83176740D01*
X139748942Y-83203999D01*
X139755157Y-83203999D01*
X139132954Y-83826199D01*
X139132955Y-83826200D01*
X139162180Y-83847433D01*
X139333281Y-83934615D01*
X139515918Y-83993958D01*
X139705588Y-84023999D01*
X139897618Y-84023999D01*
X140087287Y-83993958D01*
X140269924Y-83934615D01*
X140441022Y-83847435D01*
X140470249Y-83826200D01*
X140470249Y-83826199D01*
X139848050Y-83203999D01*
X139854264Y-83203999D01*
X139955997Y-83176740D01*
X140047209Y-83124079D01*
X140121683Y-83049605D01*
X140174344Y-82958393D01*
X140201603Y-82856660D01*
X140201603Y-82850445D01*
X140823803Y-83472645D01*
X140823804Y-83472645D01*
X140845039Y-83443418D01*
X140932219Y-83272318D01*
X140953408Y-83207107D01*
X140992845Y-83149432D01*
X141057203Y-83122233D01*
X141126050Y-83134147D01*
X141177526Y-83181391D01*
X141189270Y-83207107D01*
X141210519Y-83272504D01*
X141210520Y-83272505D01*
X141210521Y-83272508D01*
X141297738Y-83443680D01*
X141410658Y-83599101D01*
X141546501Y-83734944D01*
X141701922Y-83847864D01*
X141804060Y-83899906D01*
X141873096Y-83935082D01*
X141940591Y-83957012D01*
X142055802Y-83994446D01*
X142245548Y-84024499D01*
X142245549Y-84024499D01*
X142437657Y-84024499D01*
X142437658Y-84024499D01*
X142627404Y-83994446D01*
X142810112Y-83935081D01*
X142905404Y-83886526D01*
X142974073Y-83873630D01*
X143038814Y-83899906D01*
X143079072Y-83957012D01*
X143085700Y-83997011D01*
X143085700Y-84726112D01*
X143066015Y-84793151D01*
X143049381Y-84813793D01*
X141907943Y-85955230D01*
X141907942Y-85955231D01*
X141825370Y-86078810D01*
X141825370Y-86078811D01*
X141802805Y-86133288D01*
X141775451Y-86199328D01*
X141775449Y-86199334D01*
X141768495Y-86216119D01*
X141768493Y-86216125D01*
X141739499Y-86361885D01*
X141739499Y-86516625D01*
X141739500Y-86516646D01*
X141739500Y-86811000D01*
X141719815Y-86878039D01*
X141667011Y-86923794D01*
X141615500Y-86935000D01*
X140498301Y-86935000D01*
X140431517Y-86941068D01*
X140431506Y-86941071D01*
X140277800Y-86988967D01*
X140277796Y-86988969D01*
X140186449Y-87044190D01*
X140118894Y-87062026D01*
X140052421Y-87040508D01*
X140016761Y-87003170D01*
X139955312Y-86903544D01*
X139831256Y-86779488D01*
X139681934Y-86687386D01*
X139515397Y-86632201D01*
X139515395Y-86632200D01*
X139412610Y-86621700D01*
X138412598Y-86621700D01*
X138412580Y-86621701D01*
X138309803Y-86632200D01*
X138309800Y-86632201D01*
X138143268Y-86687385D01*
X138143263Y-86687387D01*
X137993942Y-86779489D01*
X137869889Y-86903542D01*
X137777787Y-87052863D01*
X137777785Y-87052868D01*
X137768998Y-87079385D01*
X137722601Y-87219403D01*
X137722601Y-87219404D01*
X137722600Y-87219404D01*
X137712100Y-87322183D01*
X137712100Y-87761610D01*
X137692415Y-87828649D01*
X137675781Y-87849291D01*
X136964859Y-88560212D01*
X136903536Y-88593697D01*
X136833844Y-88588713D01*
X136777911Y-88546841D01*
X136753494Y-88481377D01*
X136768346Y-88413104D01*
X136771640Y-88407434D01*
X136846153Y-88286630D01*
X136846158Y-88286619D01*
X136901305Y-88120197D01*
X136901306Y-88120190D01*
X136911799Y-88017486D01*
X136911800Y-88017473D01*
X136911800Y-87880000D01*
X134461801Y-87880000D01*
X134461801Y-88017486D01*
X134472294Y-88120197D01*
X134527441Y-88286619D01*
X134527443Y-88286624D01*
X134619484Y-88435845D01*
X134743455Y-88559816D01*
X134743459Y-88559819D01*
X134746456Y-88561668D01*
X134748079Y-88563472D01*
X134749123Y-88564298D01*
X134748981Y-88564476D01*
X134793181Y-88613616D01*
X134804402Y-88682579D01*
X134776559Y-88746661D01*
X134746461Y-88772741D01*
X134743149Y-88774783D01*
X134743143Y-88774788D01*
X134619089Y-88898842D01*
X134526987Y-89048163D01*
X134526986Y-89048166D01*
X134471801Y-89214703D01*
X134471801Y-89214704D01*
X134471800Y-89214704D01*
X134461300Y-89317483D01*
X134461300Y-89877717D01*
X134441615Y-89944756D01*
X134388811Y-89990511D01*
X134319653Y-90000455D01*
X134256097Y-89971430D01*
X134249619Y-89965398D01*
X133109291Y-88825068D01*
X133109284Y-88825062D01*
X132996111Y-88749443D01*
X132996108Y-88749441D01*
X132870360Y-88697355D01*
X132870348Y-88697352D01*
X132796617Y-88682686D01*
X132796616Y-88682686D01*
X132736859Y-88670799D01*
X132736857Y-88670799D01*
X130618429Y-88670799D01*
X130551390Y-88651114D01*
X130505635Y-88598310D01*
X130499353Y-88581394D01*
X130479745Y-88513905D01*
X130479744Y-88513902D01*
X130479744Y-88513901D01*
X130396081Y-88372434D01*
X130396079Y-88372432D01*
X130396076Y-88372428D01*
X130279870Y-88256222D01*
X130279862Y-88256216D01*
X130138396Y-88172554D01*
X130138393Y-88172553D01*
X129980573Y-88126701D01*
X129980567Y-88126700D01*
X129943701Y-88123799D01*
X129943694Y-88123799D01*
X129512306Y-88123799D01*
X129512298Y-88123799D01*
X129475432Y-88126700D01*
X129475426Y-88126701D01*
X129317606Y-88172553D01*
X129317603Y-88172554D01*
X129176137Y-88256216D01*
X129176129Y-88256222D01*
X129059923Y-88372428D01*
X129059917Y-88372436D01*
X128976255Y-88513902D01*
X128976253Y-88513905D01*
X128952576Y-88595405D01*
X128914970Y-88654291D01*
X128851497Y-88683497D01*
X128782311Y-88673751D01*
X128729376Y-88628147D01*
X128709501Y-88561164D01*
X128709500Y-88560810D01*
X128709500Y-87242513D01*
X134461800Y-87242513D01*
X134461800Y-87380000D01*
X135436800Y-87380000D01*
X135936800Y-87380000D01*
X136911799Y-87380000D01*
X136911799Y-87242528D01*
X136911798Y-87242513D01*
X136901305Y-87139802D01*
X136846158Y-86973380D01*
X136846156Y-86973375D01*
X136754115Y-86824154D01*
X136630145Y-86700184D01*
X136480924Y-86608143D01*
X136480919Y-86608141D01*
X136314497Y-86552994D01*
X136314490Y-86552993D01*
X136211786Y-86542500D01*
X135936800Y-86542500D01*
X135936800Y-87380000D01*
X135436800Y-87380000D01*
X135436800Y-86542500D01*
X135161829Y-86542500D01*
X135161812Y-86542501D01*
X135059102Y-86552994D01*
X134892680Y-86608141D01*
X134892675Y-86608143D01*
X134743454Y-86700184D01*
X134619484Y-86824154D01*
X134527443Y-86973375D01*
X134527441Y-86973380D01*
X134472294Y-87139802D01*
X134472293Y-87139809D01*
X134461800Y-87242513D01*
X128709500Y-87242513D01*
X128709500Y-78023691D01*
X128729185Y-77956652D01*
X128745819Y-77936010D01*
X130859413Y-75822416D01*
X130920736Y-75788931D01*
X130947094Y-75786097D01*
X132030971Y-75786097D01*
X132078440Y-75797984D01*
G37*
%TD.AperFunction*%
%TA.AperFunction,Conductor*%
G36*
X167317374Y-87532662D02*
G01*
X167343734Y-87534548D01*
X167352787Y-87540366D01*
X167359827Y-87541898D01*
X167388081Y-87563049D01*
X167481744Y-87656712D01*
X167631066Y-87748814D01*
X167797603Y-87803999D01*
X167900391Y-87814500D01*
X167917196Y-87814499D01*
X167984234Y-87834180D01*
X168029992Y-87886982D01*
X168041200Y-87938499D01*
X168041200Y-89106341D01*
X168040836Y-89107578D01*
X168041175Y-89108823D01*
X168031016Y-89141020D01*
X168021515Y-89173380D01*
X168020415Y-89174623D01*
X168020153Y-89175455D01*
X168016987Y-89178500D01*
X167996511Y-89201661D01*
X167989763Y-89207275D01*
X167913544Y-89254288D01*
X167815863Y-89351968D01*
X167811511Y-89355590D01*
X167784435Y-89367305D01*
X167758558Y-89381436D01*
X167752741Y-89381020D01*
X167747387Y-89383337D01*
X167718280Y-89378555D01*
X167688866Y-89376452D01*
X167683162Y-89372786D01*
X167678441Y-89372011D01*
X167669736Y-89364157D01*
X167644519Y-89347951D01*
X167550857Y-89254289D01*
X167550856Y-89254288D01*
X167439039Y-89185319D01*
X167401536Y-89162187D01*
X167401531Y-89162185D01*
X167243900Y-89109951D01*
X167186455Y-89070178D01*
X167159632Y-89005662D01*
X167168342Y-88944794D01*
X167234351Y-88785435D01*
X167248519Y-88714208D01*
X167272800Y-88592143D01*
X167272800Y-88395056D01*
X167234352Y-88201770D01*
X167234351Y-88201769D01*
X167234351Y-88201765D01*
X167203259Y-88126701D01*
X167158935Y-88019692D01*
X167158928Y-88019679D01*
X167046989Y-87852150D01*
X167026111Y-87785472D01*
X167044596Y-87718092D01*
X167084992Y-87677722D01*
X167119056Y-87656712D01*
X167212719Y-87563049D01*
X167220664Y-87558710D01*
X167226090Y-87551463D01*
X167250849Y-87542228D01*
X167274042Y-87529564D01*
X167283071Y-87530209D01*
X167291554Y-87527046D01*
X167317374Y-87532662D01*
G37*
%TD.AperFunction*%
%TA.AperFunction,Conductor*%
G36*
X150481959Y-83871957D02*
G01*
X150538632Y-83912822D01*
X150562325Y-83964703D01*
X150592054Y-84114161D01*
X150592056Y-84114169D01*
X150668077Y-84297701D01*
X150668082Y-84297710D01*
X150778446Y-84462880D01*
X150778449Y-84462884D01*
X150918915Y-84603350D01*
X150918919Y-84603353D01*
X151084089Y-84713717D01*
X151084095Y-84713720D01*
X151084096Y-84713721D01*
X151267631Y-84789744D01*
X151409277Y-84817919D01*
X151462466Y-84828499D01*
X151462470Y-84828500D01*
X151462471Y-84828500D01*
X152555583Y-84828500D01*
X152622622Y-84848185D01*
X152661121Y-84887402D01*
X152692488Y-84938256D01*
X152816544Y-85062312D01*
X152965866Y-85154414D01*
X153132403Y-85209599D01*
X153235191Y-85220100D01*
X154035208Y-85220099D01*
X154035216Y-85220098D01*
X154035219Y-85220098D01*
X154091502Y-85214348D01*
X154137997Y-85209599D01*
X154304534Y-85154414D01*
X154453856Y-85062312D01*
X154547519Y-84968649D01*
X154608842Y-84935164D01*
X154678534Y-84940148D01*
X154722881Y-84968649D01*
X154816544Y-85062312D01*
X154922567Y-85127707D01*
X154969291Y-85179653D01*
X154980514Y-85248616D01*
X154952671Y-85312698D01*
X154945152Y-85320926D01*
X154874060Y-85392018D01*
X154764571Y-85555879D01*
X154764564Y-85555892D01*
X154689150Y-85737960D01*
X154689147Y-85737970D01*
X154650700Y-85931256D01*
X154650700Y-85931259D01*
X154650700Y-86128341D01*
X154650700Y-86128343D01*
X154650699Y-86128343D01*
X154689147Y-86321629D01*
X154689150Y-86321639D01*
X154764564Y-86503707D01*
X154764571Y-86503720D01*
X154874060Y-86667581D01*
X154874063Y-86667585D01*
X154946497Y-86740019D01*
X154979982Y-86801342D01*
X154974998Y-86871034D01*
X154933126Y-86926967D01*
X154867662Y-86951384D01*
X154858816Y-86951700D01*
X151591446Y-86951700D01*
X151591426Y-86951699D01*
X151585312Y-86951699D01*
X151436688Y-86951699D01*
X151436686Y-86951699D01*
X151322212Y-86974470D01*
X151322209Y-86974470D01*
X151315105Y-86975884D01*
X151290920Y-86980695D01*
X151252293Y-86996695D01*
X151247745Y-86998578D01*
X151247729Y-86998584D01*
X151153617Y-87037566D01*
X151153602Y-87037574D01*
X151129666Y-87053569D01*
X151129665Y-87053570D01*
X151030033Y-87120141D01*
X151000428Y-87149747D01*
X150924941Y-87225234D01*
X149280494Y-88869681D01*
X149219171Y-88903166D01*
X149192813Y-88906000D01*
X145835587Y-88906000D01*
X145768548Y-88886315D01*
X145722793Y-88833511D01*
X145712849Y-88764353D01*
X145741874Y-88700797D01*
X145747906Y-88694319D01*
X146464792Y-87977433D01*
X150065364Y-84376859D01*
X150065367Y-84376858D01*
X150170460Y-84271765D01*
X150227862Y-84185856D01*
X150253031Y-84148188D01*
X150304264Y-84024499D01*
X150309906Y-84010879D01*
X150319091Y-83964701D01*
X150351475Y-83902793D01*
X150412190Y-83868218D01*
X150481959Y-83871957D01*
G37*
%TD.AperFunction*%
%TA.AperFunction,Conductor*%
G36*
X145946310Y-76771828D02*
G01*
X145961712Y-76771406D01*
X145985795Y-76781615D01*
X145985959Y-76781252D01*
X145992793Y-76784327D01*
X145992795Y-76784327D01*
X145992799Y-76784330D01*
X146146514Y-76832229D01*
X146213310Y-76838299D01*
X146760403Y-76838298D01*
X146827440Y-76857982D01*
X146873195Y-76910786D01*
X146884401Y-76962298D01*
X146884401Y-76962799D01*
X147010401Y-76962799D01*
X147077440Y-76982484D01*
X147123195Y-77035288D01*
X147134401Y-77086799D01*
X147134401Y-77787799D01*
X147555444Y-77787799D01*
X147622193Y-77781733D01*
X147775797Y-77733869D01*
X147913481Y-77650635D01*
X148027237Y-77536879D01*
X148110471Y-77399195D01*
X148115751Y-77382250D01*
X148154487Y-77324101D01*
X148218511Y-77296125D01*
X148287497Y-77307204D01*
X148339541Y-77353820D01*
X148352522Y-77382242D01*
X148357868Y-77399397D01*
X148357869Y-77399399D01*
X148357870Y-77399401D01*
X148440496Y-77536080D01*
X148441167Y-77537190D01*
X148555009Y-77651032D01*
X148555011Y-77651033D01*
X148555013Y-77651035D01*
X148692799Y-77734330D01*
X148742791Y-77749908D01*
X148800938Y-77788644D01*
X148828913Y-77852669D01*
X148829901Y-77868293D01*
X148829901Y-83426911D01*
X148810216Y-83493950D01*
X148793582Y-83514592D01*
X145154676Y-87153497D01*
X145093353Y-87186982D01*
X145023661Y-87181998D01*
X144979314Y-87153497D01*
X144898480Y-87072663D01*
X144760796Y-86989429D01*
X144607192Y-86941565D01*
X144540443Y-86935500D01*
X144119400Y-86935500D01*
X144119400Y-87636500D01*
X144099715Y-87703539D01*
X144046911Y-87749294D01*
X143995400Y-87760500D01*
X143743400Y-87760500D01*
X143676361Y-87740815D01*
X143630606Y-87688011D01*
X143619400Y-87636500D01*
X143619400Y-86935500D01*
X143372500Y-86935500D01*
X143363814Y-86932949D01*
X143354853Y-86934238D01*
X143330812Y-86923259D01*
X143305461Y-86915815D01*
X143299533Y-86908974D01*
X143291297Y-86905213D01*
X143277007Y-86882978D01*
X143259706Y-86863011D01*
X143257418Y-86852496D01*
X143253523Y-86846435D01*
X143248500Y-86811500D01*
X143248500Y-86800085D01*
X143268185Y-86733046D01*
X143284814Y-86712408D01*
X144321163Y-85676060D01*
X144321166Y-85676059D01*
X144426259Y-85570966D01*
X144508829Y-85447390D01*
X144565705Y-85310080D01*
X144594700Y-85164312D01*
X144594700Y-80556886D01*
X144565705Y-80411118D01*
X144508829Y-80273808D01*
X144442346Y-80174308D01*
X144421469Y-80107633D01*
X144439953Y-80040253D01*
X144482328Y-79998688D01*
X144594952Y-79932082D01*
X144594960Y-79932076D01*
X144711077Y-79815959D01*
X144711084Y-79815950D01*
X144794681Y-79674594D01*
X144794682Y-79674591D01*
X144840498Y-79516893D01*
X144840499Y-79516887D01*
X144843398Y-79480047D01*
X144843399Y-79480032D01*
X144843399Y-78839398D01*
X144167399Y-78839398D01*
X144100360Y-78819713D01*
X144054605Y-78766909D01*
X144043399Y-78715398D01*
X144043399Y-78589398D01*
X143917399Y-78589398D01*
X143850360Y-78569713D01*
X143804605Y-78516909D01*
X143793399Y-78465398D01*
X143793399Y-78339398D01*
X144293399Y-78339398D01*
X144843399Y-78339398D01*
X144843399Y-77698763D01*
X144843398Y-77698748D01*
X144840499Y-77661908D01*
X144840498Y-77661902D01*
X144794682Y-77504204D01*
X144794681Y-77504201D01*
X144711084Y-77362845D01*
X144711077Y-77362836D01*
X144594960Y-77246719D01*
X144594951Y-77246712D01*
X144537607Y-77212799D01*
X145607486Y-77212799D01*
X145610465Y-77245591D01*
X145610468Y-77245601D01*
X145658328Y-77399191D01*
X145741564Y-77536879D01*
X145855320Y-77650635D01*
X145993004Y-77733869D01*
X146146608Y-77781733D01*
X146213358Y-77787799D01*
X146634401Y-77787799D01*
X146634401Y-77212799D01*
X145607486Y-77212799D01*
X144537607Y-77212799D01*
X144453595Y-77163115D01*
X144453592Y-77163114D01*
X144295893Y-77117298D01*
X144295896Y-77117298D01*
X144293399Y-77117101D01*
X144293399Y-78339398D01*
X143793399Y-78339398D01*
X143793399Y-77117101D01*
X143790902Y-77117298D01*
X143633205Y-77163114D01*
X143633202Y-77163115D01*
X143491848Y-77246711D01*
X143485682Y-77251495D01*
X143483788Y-77249053D01*
X143434979Y-77275637D01*
X143365293Y-77270577D01*
X143332626Y-77249557D01*
X143331430Y-77251100D01*
X143325261Y-77246315D01*
X143211249Y-77178889D01*
X143183797Y-77162654D01*
X143183796Y-77162653D01*
X143183795Y-77162653D01*
X143183792Y-77162652D01*
X143025972Y-77116800D01*
X143025966Y-77116799D01*
X142989100Y-77113898D01*
X142989093Y-77113898D01*
X142557705Y-77113898D01*
X142557697Y-77113898D01*
X142520831Y-77116799D01*
X142520825Y-77116800D01*
X142363005Y-77162652D01*
X142363002Y-77162653D01*
X142221536Y-77246315D01*
X142215368Y-77251100D01*
X142213471Y-77248654D01*
X142164757Y-77275255D01*
X142095065Y-77270271D01*
X142062695Y-77249467D01*
X142061430Y-77251100D01*
X142055261Y-77246315D01*
X141949830Y-77183964D01*
X141902147Y-77132895D01*
X141889643Y-77064154D01*
X141916288Y-76999564D01*
X141925270Y-76989551D01*
X141976562Y-76938260D01*
X142111206Y-76803616D01*
X142172529Y-76770131D01*
X142198887Y-76767297D01*
X145930055Y-76767297D01*
X145946310Y-76771828D01*
G37*
%TD.AperFunction*%
%TA.AperFunction,Conductor*%
G36*
X151137952Y-71944985D02*
G01*
X151158594Y-71961619D01*
X157146381Y-77949405D01*
X157179866Y-78010728D01*
X157182700Y-78037086D01*
X157182700Y-81739191D01*
X157163015Y-81806230D01*
X157146381Y-81826872D01*
X157127523Y-81845729D01*
X157127516Y-81845738D01*
X157043983Y-81986986D01*
X157026167Y-82003620D01*
X157011561Y-82023132D01*
X157001087Y-82027038D01*
X156992914Y-82034670D01*
X156968930Y-82039032D01*
X156946096Y-82047549D01*
X156935171Y-82045172D01*
X156924172Y-82047173D01*
X156901640Y-82037878D01*
X156877824Y-82032697D01*
X156864004Y-82022351D01*
X156859583Y-82020528D01*
X156849583Y-82011559D01*
X156746615Y-81908591D01*
X156713133Y-81847270D01*
X156710299Y-81820912D01*
X156710299Y-81338798D01*
X156710298Y-81338781D01*
X156699799Y-81236003D01*
X156699798Y-81236000D01*
X156674188Y-81158715D01*
X156644614Y-81069466D01*
X156552512Y-80920144D01*
X156428456Y-80796088D01*
X156279134Y-80703986D01*
X156112597Y-80648801D01*
X156112595Y-80648800D01*
X156009810Y-80638300D01*
X155209798Y-80638300D01*
X155209780Y-80638301D01*
X155107003Y-80648800D01*
X155107000Y-80648801D01*
X154940468Y-80703985D01*
X154940463Y-80703987D01*
X154791145Y-80796087D01*
X154697127Y-80890105D01*
X154635803Y-80923589D01*
X154566112Y-80918605D01*
X154521765Y-80890104D01*
X154428145Y-80796484D01*
X154278924Y-80704443D01*
X154278919Y-80704441D01*
X154112497Y-80649294D01*
X154112490Y-80649293D01*
X154009786Y-80638800D01*
X153859800Y-80638800D01*
X153859800Y-81714800D01*
X153840115Y-81781839D01*
X153787311Y-81827594D01*
X153735800Y-81838800D01*
X153609800Y-81838800D01*
X153609800Y-81964800D01*
X153590115Y-82031839D01*
X153537311Y-82077594D01*
X153485800Y-82088800D01*
X152509801Y-82088800D01*
X152509801Y-82338786D01*
X152520294Y-82441497D01*
X152575441Y-82607919D01*
X152575445Y-82607926D01*
X152584375Y-82622405D01*
X152602814Y-82689798D01*
X152581890Y-82756461D01*
X152528248Y-82801229D01*
X152478835Y-82811500D01*
X151462466Y-82811500D01*
X151267638Y-82850254D01*
X151267630Y-82850256D01*
X151084098Y-82926277D01*
X151084089Y-82926282D01*
X150918919Y-83036646D01*
X150918915Y-83036649D01*
X150778449Y-83177115D01*
X150778446Y-83177119D01*
X150668082Y-83342289D01*
X150668077Y-83342298D01*
X150592056Y-83525830D01*
X150592054Y-83525838D01*
X150584518Y-83563724D01*
X150552133Y-83625635D01*
X150491417Y-83660210D01*
X150421648Y-83656470D01*
X150364976Y-83615603D01*
X150339395Y-83550585D01*
X150338901Y-83539533D01*
X150338901Y-81338813D01*
X152509800Y-81338813D01*
X152509800Y-81588800D01*
X153359800Y-81588800D01*
X153359800Y-80638800D01*
X153209827Y-80638800D01*
X153209812Y-80638801D01*
X153107102Y-80649294D01*
X152940680Y-80704441D01*
X152940675Y-80704443D01*
X152791454Y-80796484D01*
X152667484Y-80920454D01*
X152575443Y-81069675D01*
X152575441Y-81069680D01*
X152520294Y-81236102D01*
X152520293Y-81236109D01*
X152509800Y-81338813D01*
X150338901Y-81338813D01*
X150338901Y-77868293D01*
X150358586Y-77801254D01*
X150411390Y-77755499D01*
X150426004Y-77749910D01*
X150476003Y-77734330D01*
X150613789Y-77651035D01*
X150727637Y-77537187D01*
X150810932Y-77399401D01*
X150858831Y-77245686D01*
X150864901Y-77178890D01*
X150864900Y-76746709D01*
X150864900Y-76746708D01*
X150864900Y-76746700D01*
X150858832Y-76679916D01*
X150858829Y-76679905D01*
X150810933Y-76526200D01*
X150810932Y-76526199D01*
X150810932Y-76526197D01*
X150727637Y-76388411D01*
X150727635Y-76388409D01*
X150727634Y-76388407D01*
X150613792Y-76274565D01*
X150576015Y-76251728D01*
X150476003Y-76191268D01*
X150322288Y-76143369D01*
X150322286Y-76143368D01*
X150322284Y-76143368D01*
X150275518Y-76139118D01*
X150255492Y-76137299D01*
X150255489Y-76137299D01*
X150200322Y-76137299D01*
X150167813Y-76127753D01*
X150135126Y-76118776D01*
X150134369Y-76117932D01*
X150133283Y-76117614D01*
X150111116Y-76092032D01*
X150088450Y-76066785D01*
X150088268Y-76065664D01*
X150087528Y-76064810D01*
X150082706Y-76031280D01*
X150077293Y-75997811D01*
X150077745Y-75996772D01*
X150077584Y-75995652D01*
X150091669Y-75964808D01*
X150105197Y-75933756D01*
X150106305Y-75932761D01*
X150106609Y-75932096D01*
X150131460Y-75910178D01*
X150132959Y-75909177D01*
X150199642Y-75888317D01*
X150201821Y-75888298D01*
X150255498Y-75888298D01*
X150322283Y-75882230D01*
X150322286Y-75882229D01*
X150322288Y-75882229D01*
X150476003Y-75834330D01*
X150613789Y-75751035D01*
X150727637Y-75637187D01*
X150810932Y-75499401D01*
X150858831Y-75345686D01*
X150864901Y-75278890D01*
X150864900Y-74846709D01*
X150864900Y-74846708D01*
X150864900Y-74846700D01*
X150858832Y-74779916D01*
X150858829Y-74779905D01*
X150810933Y-74626200D01*
X150810932Y-74626199D01*
X150810932Y-74626197D01*
X150727637Y-74488411D01*
X150727635Y-74488409D01*
X150727634Y-74488407D01*
X150629220Y-74389993D01*
X150595735Y-74328670D01*
X150592901Y-74302312D01*
X150592901Y-73600923D01*
X150612586Y-73533884D01*
X150613799Y-73532032D01*
X150621075Y-73521143D01*
X150673621Y-73442503D01*
X150749644Y-73258968D01*
X150788399Y-73064128D01*
X150788399Y-72865471D01*
X150749644Y-72670631D01*
X150686180Y-72517417D01*
X150673622Y-72487098D01*
X150673617Y-72487089D01*
X150563253Y-72321918D01*
X150563250Y-72321914D01*
X150422781Y-72181445D01*
X150379314Y-72152402D01*
X150334509Y-72098790D01*
X150325802Y-72029465D01*
X150355956Y-71966438D01*
X150415399Y-71929718D01*
X150448205Y-71925300D01*
X151070913Y-71925300D01*
X151137952Y-71944985D01*
G37*
%TD.AperFunction*%
%TA.AperFunction,Conductor*%
G36*
X139079947Y-81622385D02*
G01*
X139125702Y-81675189D01*
X139136526Y-81736431D01*
X139132954Y-81781797D01*
X139755157Y-82403999D01*
X139748942Y-82403999D01*
X139647209Y-82431258D01*
X139555997Y-82483919D01*
X139481523Y-82558393D01*
X139428862Y-82649605D01*
X139401603Y-82751338D01*
X139401603Y-82757552D01*
X138779401Y-82135350D01*
X138779401Y-82135351D01*
X138758167Y-82164577D01*
X138670984Y-82335681D01*
X138649796Y-82400891D01*
X138610358Y-82458566D01*
X138545999Y-82485763D01*
X138477153Y-82473847D01*
X138425678Y-82426603D01*
X138413936Y-82400891D01*
X138392686Y-82335490D01*
X138305469Y-82164318D01*
X138192549Y-82008897D01*
X138056706Y-81873054D01*
X138055632Y-81872274D01*
X137993343Y-81827018D01*
X137950677Y-81771688D01*
X137944698Y-81702075D01*
X137977304Y-81640280D01*
X138038142Y-81605923D01*
X138066228Y-81602700D01*
X139012908Y-81602700D01*
X139079947Y-81622385D01*
G37*
%TD.AperFunction*%
%TA.AperFunction,Conductor*%
G36*
X142463102Y-80321570D02*
G01*
X142469580Y-80327602D01*
X143049381Y-80907403D01*
X143082866Y-80968726D01*
X143085700Y-80995084D01*
X143085700Y-81610986D01*
X143085387Y-81612051D01*
X143085682Y-81613124D01*
X143075560Y-81645515D01*
X143066015Y-81678025D01*
X143065175Y-81678752D01*
X143064844Y-81679814D01*
X143038809Y-81701598D01*
X143013211Y-81723780D01*
X143012112Y-81723937D01*
X143011259Y-81724652D01*
X142977612Y-81728898D01*
X142944053Y-81733724D01*
X142942678Y-81733307D01*
X142941939Y-81733401D01*
X142928439Y-81728992D01*
X142908251Y-81722875D01*
X142906787Y-81722175D01*
X142810112Y-81672917D01*
X142789959Y-81666368D01*
X142782588Y-81662847D01*
X142782438Y-81662713D01*
X142781654Y-81662396D01*
X142327516Y-81440770D01*
X142275901Y-81393678D01*
X142257899Y-81329332D01*
X142257899Y-80415283D01*
X142277584Y-80348244D01*
X142330388Y-80302489D01*
X142399546Y-80292545D01*
X142463102Y-80321570D01*
G37*
%TD.AperFunction*%
%TA.AperFunction,Conductor*%
G36*
X140852630Y-74970430D02*
G01*
X140858164Y-74969534D01*
X140885402Y-74981390D01*
X140913574Y-74990812D01*
X140918438Y-74995770D01*
X140922227Y-74997420D01*
X140945808Y-75023672D01*
X140966664Y-75054886D01*
X140966668Y-75054890D01*
X140966668Y-75054891D01*
X141258593Y-75346816D01*
X141292078Y-75408139D01*
X141287094Y-75477831D01*
X141258598Y-75522174D01*
X141248946Y-75531827D01*
X141248945Y-75531826D01*
X141248940Y-75531833D01*
X139647343Y-77133428D01*
X139647342Y-77133429D01*
X139564772Y-77257005D01*
X139564766Y-77257016D01*
X139540414Y-77315808D01*
X139540414Y-77315810D01*
X139533121Y-77333418D01*
X139518544Y-77368609D01*
X139518541Y-77368616D01*
X139513461Y-77380878D01*
X139469617Y-77435279D01*
X139403321Y-77457339D01*
X139335623Y-77440056D01*
X139288016Y-77388915D01*
X139274903Y-77333422D01*
X139274903Y-76568591D01*
X139270906Y-76529467D01*
X139264403Y-76465802D01*
X139264402Y-76465799D01*
X139238758Y-76388411D01*
X139209218Y-76299265D01*
X139117116Y-76149943D01*
X138993060Y-76025887D01*
X138993059Y-76025886D01*
X138992218Y-76025045D01*
X138977511Y-75998111D01*
X138960923Y-75972299D01*
X138960031Y-75966098D01*
X138958734Y-75963722D01*
X138955900Y-75937364D01*
X138955900Y-75935830D01*
X138975585Y-75868791D01*
X138992219Y-75848149D01*
X139054271Y-75786097D01*
X139117112Y-75723256D01*
X139120352Y-75718003D01*
X139172299Y-75671279D01*
X139205644Y-75660765D01*
X139215698Y-75659101D01*
X139240912Y-75659101D01*
X139363750Y-75634666D01*
X139386680Y-75630105D01*
X139481836Y-75590690D01*
X139523989Y-75573230D01*
X139647566Y-75490659D01*
X139987008Y-75151217D01*
X140048331Y-75117732D01*
X140074689Y-75114898D01*
X140449085Y-75114898D01*
X140449093Y-75114898D01*
X140485968Y-75111996D01*
X140485970Y-75111995D01*
X140485972Y-75111995D01*
X140527590Y-75099903D01*
X140643797Y-75066142D01*
X140779590Y-74985834D01*
X140785023Y-74984455D01*
X140789194Y-74980710D01*
X140818510Y-74975959D01*
X140847312Y-74968652D01*
X140852630Y-74970430D01*
G37*
%TD.AperFunction*%
%TA.AperFunction,Conductor*%
G36*
X149144095Y-71934843D02*
G01*
X149176762Y-71943805D01*
X149177531Y-71944661D01*
X149178634Y-71944985D01*
X149200802Y-71970569D01*
X149223452Y-71995784D01*
X149223636Y-71996920D01*
X149224389Y-71997789D01*
X149229210Y-72031320D01*
X149234628Y-72064754D01*
X149234169Y-72065807D01*
X149234333Y-72066947D01*
X149220252Y-72097778D01*
X149206742Y-72128817D01*
X149205616Y-72129828D01*
X149205308Y-72130503D01*
X149180486Y-72152402D01*
X149137018Y-72181445D01*
X149137015Y-72181448D01*
X148941520Y-72376945D01*
X148871283Y-72447182D01*
X148801046Y-72517418D01*
X148690683Y-72682587D01*
X148690678Y-72682596D01*
X148614657Y-72866128D01*
X148614655Y-72866136D01*
X148575901Y-73060964D01*
X148575901Y-74302312D01*
X148556216Y-74369351D01*
X148539582Y-74389993D01*
X148441168Y-74488406D01*
X148441167Y-74488407D01*
X148357869Y-74626199D01*
X148352786Y-74642511D01*
X148314048Y-74700659D01*
X148250022Y-74728632D01*
X148181037Y-74717550D01*
X148128995Y-74670931D01*
X148116016Y-74642511D01*
X148114003Y-74636053D01*
X148110932Y-74626197D01*
X148027637Y-74488411D01*
X148027635Y-74488409D01*
X148027634Y-74488407D01*
X147913792Y-74374565D01*
X147892226Y-74361528D01*
X147776003Y-74291268D01*
X147622288Y-74243369D01*
X147622286Y-74243368D01*
X147622284Y-74243368D01*
X147575518Y-74239118D01*
X147555492Y-74237299D01*
X147555489Y-74237299D01*
X146213302Y-74237299D01*
X146146518Y-74243367D01*
X146146507Y-74243370D01*
X145992802Y-74291266D01*
X145855009Y-74374565D01*
X145823696Y-74405880D01*
X145762374Y-74439366D01*
X145736014Y-74442200D01*
X144967899Y-74442200D01*
X144900860Y-74422515D01*
X144855105Y-74369711D01*
X144843899Y-74318200D01*
X144843899Y-73957284D01*
X144863584Y-73890245D01*
X144880218Y-73869603D01*
X146788202Y-71961619D01*
X146849525Y-71928134D01*
X146875883Y-71925300D01*
X149111595Y-71925300D01*
X149144095Y-71934843D01*
G37*
%TD.AperFunction*%
%TA.AperFunction,Conductor*%
G36*
X139401604Y-68912060D02*
G01*
X139428863Y-69013793D01*
X139481524Y-69105005D01*
X139555998Y-69179479D01*
X139647210Y-69232140D01*
X139748943Y-69259399D01*
X139755157Y-69259399D01*
X139126577Y-69887978D01*
X139065254Y-69921463D01*
X139038896Y-69924297D01*
X138222116Y-69924297D01*
X138155077Y-69904612D01*
X138109322Y-69851808D01*
X138099378Y-69782650D01*
X138128403Y-69719094D01*
X138134435Y-69712616D01*
X138192550Y-69654501D01*
X138305470Y-69499080D01*
X138392687Y-69327908D01*
X138413936Y-69262507D01*
X138453372Y-69204834D01*
X138517730Y-69177635D01*
X138586576Y-69189548D01*
X138638053Y-69236791D01*
X138649798Y-69262506D01*
X138670988Y-69327721D01*
X138758165Y-69498814D01*
X138779402Y-69528045D01*
X139401604Y-68905844D01*
X139401604Y-68912060D01*
G37*
%TD.AperFunction*%
%TD*%
%TA.AperFunction,Conductor*%
%TO.N,+5V*%
G36*
X139942062Y-73545554D02*
G01*
X140223110Y-73635184D01*
X140229951Y-73640963D01*
X140230749Y-73649733D01*
X139966962Y-74517644D01*
X139961278Y-74524563D01*
X139956528Y-74525917D01*
X139906160Y-74529194D01*
X139897681Y-74526312D01*
X139897127Y-74525792D01*
X139548239Y-74176904D01*
X139544812Y-74168631D01*
X139546585Y-74162439D01*
X139928584Y-73550505D01*
X139935871Y-73545303D01*
X139942062Y-73545554D01*
G37*
%TD.AperFunction*%
%TD*%
%TA.AperFunction,Conductor*%
%TO.N,Net-(U6A--)*%
G36*
X141759827Y-81726213D02*
G01*
X142729584Y-82199470D01*
X142735515Y-82206177D01*
X142734967Y-82215115D01*
X142734185Y-82216477D01*
X142344300Y-82800955D01*
X142336858Y-82805935D01*
X142336834Y-82805940D01*
X141645701Y-82942436D01*
X141636921Y-82940677D01*
X141632280Y-82934489D01*
X141591583Y-82805935D01*
X141254221Y-81740259D01*
X141254991Y-81731338D01*
X141261844Y-81725574D01*
X141265375Y-81725028D01*
X141754696Y-81725028D01*
X141759827Y-81726213D01*
G37*
%TD.AperFunction*%
%TD*%
%TA.AperFunction,Conductor*%
%TO.N,Net-(Q3-G)*%
G36*
X145734468Y-98107675D02*
G01*
X146317890Y-98270327D01*
X146324939Y-98275849D01*
X146325638Y-98277319D01*
X146595569Y-98964426D01*
X146595404Y-98973379D01*
X146591829Y-98977965D01*
X145824688Y-99570180D01*
X145816045Y-99572523D01*
X145809265Y-99569192D01*
X145461956Y-99221883D01*
X145458529Y-99213610D01*
X145458847Y-99210902D01*
X145719981Y-98116237D01*
X145725233Y-98108988D01*
X145734076Y-98107574D01*
X145734468Y-98107675D01*
G37*
%TD.AperFunction*%
%TD*%
%TA.AperFunction,Conductor*%
%TO.N,+5V*%
G36*
X130631164Y-95334417D02*
G01*
X131156530Y-95859783D01*
X131159957Y-95868056D01*
X131157641Y-95875044D01*
X130485169Y-96777986D01*
X130477479Y-96782575D01*
X130471067Y-96781704D01*
X129884632Y-96523236D01*
X129878445Y-96516765D01*
X129877824Y-96514530D01*
X129759076Y-95828106D01*
X129761043Y-95819373D01*
X129764829Y-95815941D01*
X130617119Y-95332512D01*
X130626005Y-95331412D01*
X130631164Y-95334417D01*
G37*
%TD.AperFunction*%
%TD*%
%TA.AperFunction,Conductor*%
%TO.N,+5V*%
G36*
X130479703Y-96279041D02*
G01*
X130484891Y-96283339D01*
X131125942Y-97246957D01*
X131127672Y-97255743D01*
X131124474Y-97261710D01*
X130599192Y-97786992D01*
X130590919Y-97790419D01*
X130584465Y-97788478D01*
X129731636Y-97224428D01*
X129726626Y-97217006D01*
X129726662Y-97212162D01*
X129877572Y-96525304D01*
X129882693Y-96517961D01*
X129884592Y-96516978D01*
X130470748Y-96278979D01*
X130479703Y-96279041D01*
G37*
%TD.AperFunction*%
%TD*%
%TA.AperFunction,Conductor*%
%TO.N,Net-(Q1-D)*%
G36*
X128020066Y-102614827D02*
G01*
X128021889Y-102617187D01*
X128453565Y-103354257D01*
X128454789Y-103363128D01*
X128451531Y-103368649D01*
X127887620Y-103904774D01*
X127879263Y-103907991D01*
X127871540Y-103904816D01*
X127304699Y-103371440D01*
X127301023Y-103363276D01*
X127302044Y-103358128D01*
X127634398Y-102618306D01*
X127640915Y-102612163D01*
X127645071Y-102611400D01*
X128011793Y-102611400D01*
X128020066Y-102614827D01*
G37*
%TD.AperFunction*%
%TD*%
%TA.AperFunction,Conductor*%
%TO.N,Net-(Q1-D)*%
G36*
X127832773Y-100952000D02*
G01*
X127838682Y-100957909D01*
X128114933Y-101576214D01*
X128115602Y-101583823D01*
X128020714Y-101963637D01*
X128015384Y-101970833D01*
X128009363Y-101972501D01*
X127646637Y-101972501D01*
X127638364Y-101969074D01*
X127635286Y-101963637D01*
X127540397Y-101583823D01*
X127541065Y-101576215D01*
X127817318Y-100957908D01*
X127823821Y-100951754D01*
X127832773Y-100952000D01*
G37*
%TD.AperFunction*%
%TD*%
%TA.AperFunction,Conductor*%
%TO.N,Net-(Q1-D)*%
G36*
X127339433Y-93120370D02*
G01*
X127909909Y-93515787D01*
X127914756Y-93523316D01*
X127913215Y-93531525D01*
X127490410Y-94220168D01*
X127483161Y-94225425D01*
X127475845Y-94224806D01*
X127037104Y-94037471D01*
X127033425Y-94034984D01*
X126773316Y-93774875D01*
X126769889Y-93766602D01*
X126772744Y-93758944D01*
X127323924Y-93122327D01*
X127331929Y-93118316D01*
X127339433Y-93120370D01*
G37*
%TD.AperFunction*%
%TD*%
%TA.AperFunction,Conductor*%
%TO.N,Net-(Q1-D)*%
G36*
X127564927Y-100253552D02*
G01*
X127570633Y-100259847D01*
X127824636Y-100925048D01*
X127824386Y-100934000D01*
X127818153Y-100940044D01*
X127536713Y-101055684D01*
X127527758Y-101055659D01*
X127522642Y-101051515D01*
X127441400Y-100934000D01*
X127186712Y-100565597D01*
X127184827Y-100556845D01*
X127188062Y-100550675D01*
X127448625Y-100290112D01*
X127453184Y-100287292D01*
X127555994Y-100252925D01*
X127564927Y-100253552D01*
G37*
%TD.AperFunction*%
%TD*%
%TA.AperFunction,Conductor*%
%TO.N,Net-(Q1-D)*%
G36*
X128959961Y-92490372D02*
G01*
X128963388Y-92498645D01*
X128962659Y-92502707D01*
X128852907Y-92798908D01*
X128509829Y-93724805D01*
X128503741Y-93731372D01*
X128494889Y-93731746D01*
X127924357Y-93525984D01*
X127917737Y-93519954D01*
X127916904Y-93517514D01*
X127759282Y-92807727D01*
X127760834Y-92798908D01*
X127766600Y-92794235D01*
X128585515Y-92487687D01*
X128589617Y-92486945D01*
X128951688Y-92486945D01*
X128959961Y-92490372D01*
G37*
%TD.AperFunction*%
%TD*%
%TA.AperFunction,Conductor*%
%TO.N,Net-(Q4-D)*%
G36*
X127887616Y-96526543D02*
G01*
X128344548Y-96956499D01*
X128454136Y-97059617D01*
X128457813Y-97067782D01*
X128456508Y-97073516D01*
X128073372Y-97813678D01*
X128066526Y-97819450D01*
X128062982Y-97820000D01*
X127696218Y-97820000D01*
X127687945Y-97816573D01*
X127685828Y-97813679D01*
X127302691Y-97073517D01*
X127301931Y-97064594D01*
X127305061Y-97059618D01*
X127871583Y-96526543D01*
X127879956Y-96523370D01*
X127887616Y-96526543D01*
G37*
%TD.AperFunction*%
%TD*%
%TA.AperFunction,Conductor*%
%TO.N,Net-(U6A--)*%
G36*
X141690121Y-81788971D02*
G01*
X142472941Y-82094274D01*
X142479404Y-82100472D01*
X142480168Y-82107443D01*
X142343830Y-82797017D01*
X142338863Y-82804469D01*
X142334621Y-82806226D01*
X141645047Y-82942564D01*
X141636267Y-82940807D01*
X141631878Y-82935337D01*
X141326572Y-82152523D01*
X141326758Y-82143573D01*
X141329196Y-82140005D01*
X141677603Y-81791598D01*
X141685875Y-81788172D01*
X141690121Y-81788971D01*
G37*
%TD.AperFunction*%
%TD*%
%TA.AperFunction,Conductor*%
%TO.N,Net-(Q4-D)*%
G36*
X129084961Y-98749264D02*
G01*
X129094299Y-98752286D01*
X129369902Y-98841479D01*
X129376719Y-98847287D01*
X129378000Y-98852611D01*
X129378000Y-99217238D01*
X129374573Y-99225511D01*
X129370721Y-99228070D01*
X129085020Y-99344680D01*
X129076066Y-99344634D01*
X129072517Y-99342308D01*
X128785488Y-99068108D01*
X128781873Y-99059915D01*
X128785109Y-99051567D01*
X129072927Y-98752285D01*
X129081131Y-98748698D01*
X129084961Y-98749264D01*
G37*
%TD.AperFunction*%
%TD*%
%TA.AperFunction,Conductor*%
%TO.N,Net-(Q4-D)*%
G36*
X128514927Y-98378551D02*
G01*
X128520633Y-98384846D01*
X128774636Y-99050047D01*
X128774386Y-99058999D01*
X128768153Y-99065043D01*
X128486713Y-99180683D01*
X128477758Y-99180658D01*
X128472642Y-99176514D01*
X128391400Y-99058999D01*
X128136712Y-98690596D01*
X128134827Y-98681844D01*
X128138062Y-98675674D01*
X128398625Y-98415111D01*
X128403184Y-98412291D01*
X128505994Y-98377924D01*
X128514927Y-98378551D01*
G37*
%TD.AperFunction*%
%TD*%
M02*
