%TF.GenerationSoftware,KiCad,Pcbnew,9.0.1*%
%TF.CreationDate,2026-09-27T23:22:35+08:00*%
%TF.ProjectId,BSPD,42535044-2e6b-4696-9361-645f70636258,rev?*%
%TF.SameCoordinates,Original*%
%TF.FileFunction,Soldermask,Bot*%
%TF.FilePolarity,Negative*%
%FSLAX46Y46*%
G04 Gerber Fmt 4.6, Leading zero omitted, Abs format (unit mm)*
G04 Created by KiCad (PCBNEW 9.0.1) date 2026-09-27 23:22:35*
%MOMM*%
%LPD*%
G01*
G04 APERTURE LIST*
G04 Aperture macros list*
%AMRoundRect*
0 Rectangle with rounded corners*
0 $1 Rounding radius*
0 $2 $3 $4 $5 $6 $7 $8 $9 X,Y pos of 4 corners*
0 Add a 4 corners polygon primitive as box body*
4,1,4,$2,$3,$4,$5,$6,$7,$8,$9,$2,$3,0*
0 Add four circle primitives for the rounded corners*
1,1,$1+$1,$2,$3*
1,1,$1+$1,$4,$5*
1,1,$1+$1,$6,$7*
1,1,$1+$1,$8,$9*
0 Add four rect primitives between the rounded corners*
20,1,$1+$1,$2,$3,$4,$5,0*
20,1,$1+$1,$4,$5,$6,$7,0*
20,1,$1+$1,$6,$7,$8,$9,0*
20,1,$1+$1,$8,$9,$2,$3,0*%
%AMRotRect*
0 Rectangle, with rotation*
0 The origin of the aperture is its center*
0 $1 length*
0 $2 width*
0 $3 Rotation angle, in degrees counterclockwise*
0 Add horizontal line*
21,1,$1,$2,0,0,$3*%
G04 Aperture macros list end*
%ADD10C,3.200000*%
%ADD11C,3.000000*%
%ADD12RoundRect,0.250001X-0.759999X0.499999X-0.759999X-0.499999X0.759999X-0.499999X0.759999X0.499999X0*%
%ADD13O,2.020000X1.500000*%
%ADD14C,2.500000*%
%ADD15RotRect,1.600000X1.600000X225.000000*%
%ADD16C,1.600000*%
%ADD17R,1.600000X1.600000*%
%ADD18O,1.600000X1.600000*%
%ADD19C,1.440000*%
%ADD20RoundRect,0.250000X0.337500X0.475000X-0.337500X0.475000X-0.337500X-0.475000X0.337500X-0.475000X0*%
%ADD21RoundRect,0.250000X-0.325000X-0.450000X0.325000X-0.450000X0.325000X0.450000X-0.325000X0.450000X0*%
%ADD22RoundRect,0.250000X-0.337500X-0.475000X0.337500X-0.475000X0.337500X0.475000X-0.337500X0.475000X0*%
%ADD23RoundRect,0.250000X0.350000X-0.850000X0.350000X0.850000X-0.350000X0.850000X-0.350000X-0.850000X0*%
%ADD24RoundRect,0.249997X2.650003X-2.950003X2.650003X2.950003X-2.650003X2.950003X-2.650003X-2.950003X0*%
G04 APERTURE END LIST*
D10*
%TO.C,H4*%
X155600400Y-65481200D03*
%TD*%
D11*
%TO.C,J3*%
X182704200Y-67664200D03*
D12*
X178384200Y-66164200D03*
D13*
X178384200Y-69164200D03*
%TD*%
D11*
%TO.C,K1*%
X154364800Y-102209600D03*
D14*
X156314800Y-108259600D03*
D11*
X168514800Y-108259600D03*
X168564800Y-96209600D03*
D14*
X156314800Y-96259600D03*
%TD*%
D11*
%TO.C,J6*%
X182704200Y-79182600D03*
X182704200Y-83882600D03*
D12*
X178384200Y-77032600D03*
D13*
X178384200Y-80032600D03*
X178384200Y-83032600D03*
X178384200Y-86032600D03*
%TD*%
D15*
%TO.C,C1*%
X165216767Y-75448233D03*
D16*
X163449000Y-77216000D03*
%TD*%
D11*
%TO.C,J2*%
X182700000Y-106455600D03*
D12*
X178380000Y-104955600D03*
D13*
X178380000Y-107955600D03*
%TD*%
D10*
%TO.C,H3*%
X128625600Y-108737400D03*
%TD*%
D17*
%TO.C,D1*%
X149860000Y-98399600D03*
D18*
X149860000Y-106019600D03*
%TD*%
D19*
%TO.C,RV2*%
X142341603Y-82803999D03*
X139801603Y-82803999D03*
X137261604Y-82803999D03*
%TD*%
D17*
%TO.C,C2*%
X170042200Y-75209400D03*
D16*
X170042200Y-77709400D03*
%TD*%
D19*
%TO.C,RV1*%
X142367000Y-65176400D03*
X139827000Y-65176400D03*
X137287001Y-65176400D03*
%TD*%
D10*
%TO.C,H2*%
X128600200Y-65481200D03*
%TD*%
D11*
%TO.C,J1*%
X182700000Y-95398200D03*
D12*
X178380000Y-93898200D03*
D13*
X178380000Y-96898200D03*
%TD*%
D20*
%TO.C,C5*%
X153742300Y-86055200D03*
X151667300Y-86055200D03*
%TD*%
%TO.C,C7*%
X149779900Y-72964799D03*
X147704900Y-72964799D03*
%TD*%
D21*
%TO.C,F1*%
X172879802Y-76377800D03*
X174929800Y-76377800D03*
%TD*%
D20*
%TO.C,C6*%
X165375500Y-86918800D03*
X163300500Y-86918800D03*
%TD*%
D22*
%TO.C,C3*%
X172139700Y-72364600D03*
X174214700Y-72364600D03*
%TD*%
D20*
%TO.C,C4*%
X163089500Y-73812400D03*
X161014500Y-73812400D03*
%TD*%
%TO.C,C9*%
X138984900Y-89548700D03*
X136909900Y-89548700D03*
%TD*%
D23*
%TO.C,U5*%
X169996200Y-72568601D03*
D24*
X167716200Y-66268600D03*
D23*
X165436200Y-72568601D03*
%TD*%
D20*
%TO.C,C8*%
X140127900Y-69164200D03*
X138052900Y-69164200D03*
%TD*%
M02*
