M48
; DRILL file KiCad 10.0.5 date 2026-08-31T17:36:52
; FORMAT={-:-/ absolute / metric / decimal}
; #@! TF.CreationDate,2026-08-31T17:36:52+08:00
; #@! TF.GenerationSoftware,Kicad,Pcbnew,10.0.5
; #@! TF.FileFunction,Plated,1,2,PTH
FMAT,2
METRIC
; #@! TA.AperFunction,Plated,PTH,ViaDrill
T1C0.300
; #@! TA.AperFunction,Plated,PTH,ViaDrill
T2C0.400
; #@! TA.AperFunction,Plated,PTH,ViaDrill
T3C0.500
; #@! TA.AperFunction,Plated,PTH,ComponentDrill
T4C1.000
; #@! TA.AperFunction,Plated,PTH,ComponentDrill
T5C1.100
; #@! TA.AperFunction,Plated,PTH,ComponentDrill
T6C1.200
; #@! TA.AperFunction,Plated,PTH,ComponentDrill
T7C1.300
; #@! TA.AperFunction,Plated,PTH,ComponentDrill
T8C1.600
%
G90
G05
T1
X95.85Y-50.151
X95.85Y-52.151
X95.85Y-54.151
X95.85Y-56.151
X95.85Y-78.15
X95.85Y-80.15
X95.85Y-82.15
X95.85Y-84.15
X95.85Y-104.15
X95.85Y-106.15
X95.85Y-108.15
X95.85Y-110.15
X95.85Y-112.15
X95.85Y-114.15
X95.85Y-116.15
X95.85Y-118.15
X95.85Y-120.15
X95.85Y-122.15
X95.85Y-134.15
X97.85Y-44.151
X97.85Y-48.151
X97.85Y-50.151
X97.85Y-52.151
X97.85Y-54.151
X97.85Y-56.151
X97.85Y-68.15
X97.85Y-70.15
X97.85Y-72.15
X97.85Y-74.15
X97.85Y-80.15
X97.85Y-82.15
X97.85Y-84.15
X97.85Y-102.15
X97.85Y-106.15
X97.85Y-108.15
X97.85Y-110.15
X97.85Y-112.15
X97.85Y-114.15
X97.85Y-116.15
X97.85Y-118.15
X97.85Y-120.15
X97.85Y-124.15
X97.85Y-126.15
X97.85Y-134.15
X99.85Y-44.151
X99.85Y-46.151
X99.85Y-72.15
X99.85Y-80.15
X99.85Y-84.15
X99.85Y-88.65
X99.85Y-90.65
X99.85Y-92.15
X99.85Y-98.15
X99.85Y-100.15
X100.35Y-88.15
X100.35Y-90.15
X101.85Y-44.151
X101.85Y-46.151
X101.85Y-72.15
X101.85Y-84.15
X101.85Y-86.15
X101.85Y-88.15
X101.85Y-90.15
X101.85Y-92.15
X101.85Y-98.15
X101.85Y-100.15
X101.85Y-130.15
X103.85Y-44.151
X103.85Y-46.151
X103.85Y-72.15
X103.85Y-84.15
X103.85Y-86.15
X103.85Y-88.15
X103.85Y-90.15
X103.85Y-92.15
X103.85Y-98.15
X103.85Y-130.15
X105.85Y-44.151
X105.85Y-46.151
X105.85Y-72.15
X105.85Y-80.15
X105.85Y-84.15
X105.85Y-86.15
X105.85Y-88.15
X105.85Y-90.15
X105.85Y-92.15
X105.85Y-94.15
X105.85Y-130.15
X107.0Y-110.6
X107.0Y-113.8
X107.0Y-118.8
X107.497Y-85.797
X107.497Y-86.504
X107.497Y-87.797
X107.497Y-88.504
X107.497Y-90.504
X107.85Y-44.151
X107.85Y-46.151
X107.85Y-72.15
X107.85Y-76.15
X107.85Y-80.15
X107.85Y-82.15
X107.85Y-84.15
X107.85Y-92.15
X107.85Y-94.15
X107.85Y-96.15
X107.85Y-100.15
X107.85Y-130.15
X108.204Y-90.504
X109.85Y-44.151
X109.85Y-46.151
X109.85Y-72.15
X109.85Y-82.15
X109.85Y-84.15
X109.85Y-132.15
X109.85Y-134.15
X111.6Y-120.0
X111.6Y-122.4
X111.85Y-44.151
X111.85Y-46.151
X111.85Y-48.151
X111.85Y-74.15
X111.85Y-76.15
X111.85Y-78.15
X111.85Y-84.15
X111.85Y-106.65
X111.85Y-110.65
X111.85Y-116.15
X111.85Y-126.15
X111.85Y-130.15
X111.85Y-132.65
X111.85Y-134.65
X112.35Y-106.15
X112.35Y-110.15
X112.35Y-132.15
X112.35Y-134.15
X112.5Y-50.0
X112.5Y-52.5
X113.35Y-48.151
X113.365Y-121.737
X113.365Y-124.042
X113.432Y-126.447
X113.432Y-128.752
X113.497Y-134.504
X113.85Y-76.15
X113.85Y-78.15
X113.85Y-80.15
X113.85Y-86.15
X113.85Y-88.15
X113.85Y-90.15
X113.85Y-92.15
X113.85Y-94.15
X113.85Y-96.15
X113.85Y-100.15
X113.85Y-102.15
X113.85Y-104.15
X113.85Y-106.15
X113.85Y-110.15
X114.204Y-48.504
X114.204Y-134.504
X115.85Y-78.15
X115.85Y-80.15
X115.85Y-86.15
X115.85Y-118.15
X115.85Y-124.15
X115.85Y-128.15
X117.5Y-50.0
X117.5Y-52.5
X117.85Y-80.15
X117.85Y-86.15
X117.85Y-106.15
X117.85Y-122.15
X117.85Y-126.15
X117.85Y-128.15
X118.75Y-106.5
X118.752Y-100.5
X118.962Y-95.807
X119.497Y-104.504
X119.85Y-80.15
X119.85Y-86.15
X119.85Y-120.15
X119.85Y-124.15
X119.85Y-126.15
X119.85Y-128.15
X120.204Y-103.797
X121.497Y-48.504
X121.85Y-44.651
X121.85Y-46.651
X121.85Y-80.15
X121.85Y-86.15
X121.85Y-90.15
X121.85Y-106.15
X121.85Y-118.15
X121.85Y-122.15
X121.85Y-124.15
X121.85Y-126.15
X121.85Y-128.15
X121.85Y-130.65
X121.85Y-134.65
X122.35Y-44.151
X122.35Y-46.151
X122.35Y-48.151
X122.35Y-130.15
X122.35Y-134.15
X122.5Y-50.0
X122.5Y-52.5
X123.0Y-88.9
X123.85Y-44.151
X123.85Y-46.151
X123.85Y-48.151
X123.85Y-80.15
X123.85Y-86.15
X123.85Y-90.15
X123.85Y-106.15
X123.85Y-120.15
X123.85Y-122.15
X123.85Y-124.15
X123.85Y-126.15
X123.85Y-128.15
X123.85Y-130.15
X123.85Y-132.15
X123.85Y-134.15
X125.2Y-97.9
X125.6Y-72.2
X125.85Y-44.151
X125.85Y-46.151
X125.85Y-48.151
X125.85Y-80.15
X125.85Y-86.15
X125.85Y-90.15
X125.85Y-92.15
X125.85Y-96.15
X125.85Y-100.15
X125.85Y-104.15
X125.85Y-106.15
X125.85Y-108.15
X125.85Y-118.15
X125.85Y-120.15
X125.85Y-122.15
X125.85Y-124.15
X125.85Y-126.15
X125.85Y-128.15
X125.85Y-130.15
X125.85Y-132.15
X125.85Y-134.15
X127.5Y-50.0
X127.5Y-52.5
X127.6Y-59.2
X127.8Y-65.8
X127.85Y-44.151
X127.85Y-46.151
X127.85Y-48.151
X127.85Y-80.15
X127.85Y-86.15
X127.85Y-90.15
X127.85Y-98.15
X127.85Y-106.15
X127.85Y-118.15
X127.85Y-120.15
X127.85Y-122.15
X127.85Y-124.15
X127.85Y-126.15
X127.85Y-128.15
X127.85Y-130.15
X127.85Y-132.15
X127.85Y-134.15
X129.497Y-123.797
X129.497Y-124.504
X129.497Y-125.797
X129.497Y-126.504
X129.497Y-128.504
X129.85Y-44.151
X129.85Y-46.151
X129.85Y-80.15
X129.85Y-86.15
X129.85Y-90.15
X129.85Y-98.15
X129.85Y-106.15
X129.85Y-118.15
X129.85Y-134.15
X130.204Y-128.504
X131.85Y-44.151
X131.85Y-46.151
X131.85Y-80.15
X131.85Y-86.15
X131.85Y-118.15
X131.85Y-134.15
X132.0Y-85.0
X132.7Y-109.9
X132.997Y-92.393
X133.85Y-44.151
X133.85Y-46.151
X133.85Y-50.151
X133.85Y-58.15
X133.85Y-60.15
X133.85Y-86.15
X134.2Y-125.8
X135.168Y-101.807
X135.497Y-66.504
X135.85Y-44.151
X135.85Y-46.151
X135.85Y-50.151
X135.85Y-60.15
X135.85Y-61.65
X135.85Y-72.15
X135.85Y-76.15
X135.85Y-86.15
X136.204Y-66.504
X136.35Y-62.15
X136.359Y-74.55
X136.359Y-79.3
X136.459Y-64.1
X136.459Y-69.1
X137.35Y-50.151
X137.497Y-58.504
X137.85Y-49.651
X137.85Y-86.15
X137.85Y-108.15
X137.85Y-110.15
X137.85Y-118.15
X137.85Y-120.15
X137.85Y-122.15
X137.85Y-124.15
X137.85Y-128.15
X137.85Y-130.15
X137.85Y-132.15
X137.85Y-134.15
X138.204Y-58.504
X138.99Y-65.5
X138.99Y-70.58
X138.99Y-75.66
X138.99Y-80.74
X139.497Y-58.504
X139.497Y-109.797
X139.497Y-110.504
X139.497Y-118.504
X139.497Y-119.797
X139.85Y-108.15
X139.85Y-128.15
X139.85Y-130.15
X139.85Y-132.15
X139.85Y-134.15
X139.875Y-89.192
X140.204Y-58.504
X140.204Y-118.504
X140.328Y-54.1
X140.35Y-120.15
X140.5Y-93.0
X141.35Y-58.15
X141.497Y-50.504
X141.5Y-99.0
X141.85Y-58.65
X141.85Y-100.15
X141.85Y-108.15
X141.85Y-124.15
X141.85Y-126.15
X141.85Y-128.15
X141.85Y-130.15
X141.85Y-132.15
X141.85Y-134.15
X142.204Y-50.504
X142.565Y-117.7
X143.497Y-82.504
X143.706Y-62.817
X143.706Y-67.96
X143.706Y-73.103
X143.706Y-78.246
X143.85Y-44.151
X143.85Y-50.151
X143.85Y-86.15
X143.85Y-92.15
X143.85Y-96.15
X143.85Y-108.15
X143.85Y-122.15
X143.85Y-124.15
X143.85Y-126.15
X143.85Y-128.15
X143.85Y-130.15
X143.85Y-132.15
X143.85Y-134.15
X144.204Y-82.504
X145.497Y-82.504
X145.85Y-44.151
X145.85Y-50.151
X145.85Y-86.15
X145.85Y-92.15
X145.85Y-96.15
X145.85Y-108.15
X145.85Y-120.15
X145.85Y-128.15
X145.85Y-130.15
X145.85Y-132.15
X145.85Y-134.15
X146.011Y-62.817
X146.011Y-67.96
X146.011Y-73.103
X146.011Y-78.246
X146.204Y-82.504
X147.561Y-125.725
X147.85Y-44.151
X147.85Y-46.151
X147.85Y-50.151
X147.85Y-82.15
X147.85Y-128.15
X147.85Y-130.15
X147.85Y-132.15
X147.85Y-134.15
X148.2Y-108.6
X148.8Y-121.0
X149.85Y-44.151
X149.85Y-46.151
X149.85Y-50.151
X149.85Y-60.15
X149.85Y-82.15
X149.85Y-110.15
X149.85Y-112.15
X149.85Y-130.15
X149.85Y-132.15
X149.85Y-134.15
X150.347Y-124.122
X151.85Y-44.151
X151.85Y-56.151
X151.85Y-60.15
X151.85Y-110.15
X151.85Y-112.15
X151.85Y-126.15
X153.076Y-65.502
X153.076Y-70.502
X153.076Y-75.502
X153.076Y-80.502
X153.497Y-50.504
X153.85Y-44.151
X153.85Y-52.151
X153.85Y-54.151
X153.85Y-56.151
X153.85Y-60.15
X153.85Y-90.15
X153.85Y-94.15
X153.85Y-96.15
X153.85Y-98.15
X153.85Y-100.15
X153.85Y-110.15
X153.85Y-112.15
X153.85Y-118.15
X153.85Y-120.15
X153.85Y-126.15
X153.85Y-128.15
X153.85Y-130.15
X153.85Y-132.15
X154.204Y-50.504
X155.497Y-49.797
X155.497Y-50.504
X155.85Y-44.151
X155.85Y-46.151
X155.85Y-48.151
X155.85Y-60.15
X155.85Y-62.15
X155.85Y-96.15
X155.85Y-98.15
X155.85Y-100.15
X155.85Y-110.15
X155.85Y-112.15
X155.85Y-118.15
X156.2Y-85.0
X157.85Y-44.151
X157.85Y-46.151
X157.85Y-48.151
X157.85Y-60.15
X157.85Y-62.15
X157.85Y-66.15
X157.85Y-80.15
X157.85Y-96.15
X157.85Y-98.15
X157.85Y-100.15
X157.85Y-110.15
X157.85Y-112.15
X157.85Y-118.15
X157.85Y-120.15
X157.85Y-132.15
X158.805Y-93.495
X158.9Y-88.4
X158.9Y-91.0
X159.0Y-126.0
X159.85Y-44.151
X159.85Y-60.15
X159.85Y-62.15
X159.85Y-68.15
X159.85Y-70.15
X159.85Y-72.15
X159.85Y-74.15
X159.85Y-76.15
X159.85Y-78.15
X159.85Y-80.15
X159.85Y-82.15
X159.85Y-100.15
X159.85Y-110.15
X159.85Y-112.15
X161.497Y-85.797
X161.85Y-44.151
X161.85Y-52.151
X161.85Y-58.15
X161.85Y-60.15
X161.85Y-62.15
X161.85Y-66.15
X161.85Y-68.15
X161.85Y-70.15
X161.85Y-72.15
X161.85Y-74.15
X161.85Y-76.15
X161.85Y-78.15
X161.85Y-80.15
X161.85Y-82.15
X161.85Y-96.15
X161.85Y-98.15
X161.85Y-100.15
X161.85Y-110.15
X161.85Y-112.15
X161.85Y-118.15
X161.85Y-120.15
X161.85Y-122.15
X161.85Y-124.15
X161.85Y-128.15
X161.85Y-130.15
X161.85Y-132.15
X162.35Y-86.15
X163.497Y-119.797
X163.85Y-44.151
X163.85Y-46.151
X163.85Y-48.151
X163.85Y-60.15
X163.85Y-62.15
X163.85Y-66.15
X163.85Y-68.15
X163.85Y-70.15
X163.85Y-72.15
X163.85Y-74.15
X163.85Y-76.15
X163.85Y-78.15
X163.85Y-80.15
X163.85Y-82.15
X163.85Y-84.15
X163.85Y-86.15
X163.85Y-96.15
X163.85Y-98.15
X163.85Y-100.15
X163.85Y-110.15
X163.85Y-112.15
X163.85Y-118.15
X163.85Y-128.15
X163.85Y-130.15
X163.85Y-132.15
X164.0Y-87.2
X164.0Y-92.3
X164.1Y-89.667
X164.35Y-120.15
X165.497Y-96.504
X165.85Y-44.151
X165.85Y-46.151
X165.85Y-48.151
X165.85Y-80.15
X165.85Y-82.15
X165.85Y-84.15
X165.85Y-98.15
X165.85Y-100.15
X165.85Y-128.15
X165.85Y-130.15
X165.85Y-132.15
X166.204Y-96.504
X166.4Y-56.387
X166.8Y-113.775
X167.497Y-96.504
X167.85Y-44.151
X167.85Y-46.151
X167.85Y-48.151
X167.85Y-60.15
X167.85Y-62.15
X167.85Y-66.15
X167.85Y-68.15
X167.85Y-70.15
X167.85Y-72.15
X167.85Y-74.15
X167.85Y-76.15
X167.85Y-78.15
X167.85Y-82.15
X167.85Y-84.15
X167.85Y-98.15
X167.85Y-100.15
X167.85Y-120.15
X167.9Y-113.9
X168.204Y-96.504
X169.497Y-96.504
X169.85Y-44.151
X169.85Y-46.151
X169.85Y-48.151
X169.85Y-50.151
X169.85Y-52.151
X169.85Y-54.151
X169.85Y-58.15
X169.85Y-60.15
X169.85Y-62.15
X169.85Y-66.15
X169.85Y-68.15
X169.85Y-70.15
X169.85Y-72.15
X169.85Y-74.15
X169.85Y-76.15
X169.85Y-78.15
X169.85Y-80.15
X169.85Y-84.15
X169.85Y-85.65
X169.85Y-88.15
X169.85Y-98.15
X169.85Y-100.15
X169.85Y-128.15
X169.85Y-130.15
X169.85Y-132.15
X169.85Y-134.15
X170.204Y-96.504
X170.35Y-86.15
X171.0Y-132.5
X171.497Y-85.797
X171.697Y-125.753
X171.85Y-44.151
X171.85Y-46.151
X171.85Y-48.151
X171.85Y-58.15
X171.85Y-60.15
X171.85Y-62.15
X171.85Y-66.15
X171.85Y-68.15
X171.85Y-70.15
X171.85Y-72.15
X171.85Y-74.15
X171.85Y-76.15
X171.85Y-78.15
X171.85Y-80.15
X171.85Y-84.15
X171.85Y-98.15
X171.85Y-100.15
X171.85Y-128.15
X171.85Y-130.15
X171.85Y-132.15
X171.85Y-134.15
X172.204Y-85.797
X172.8Y-120.6
X173.35Y-52.151
X173.35Y-54.151
X173.35Y-58.15
X173.35Y-60.15
X173.35Y-62.15
X173.497Y-66.504
X173.85Y-44.151
X173.85Y-46.151
X173.85Y-68.15
X173.85Y-70.15
X173.85Y-72.15
X173.85Y-74.15
X173.85Y-110.15
X173.85Y-130.15
X173.85Y-132.15
X173.85Y-134.15
X174.204Y-66.504
X174.347Y-124.142
X174.35Y-52.151
X174.35Y-54.151
X174.35Y-58.15
X174.35Y-60.15
X174.35Y-62.15
X175.35Y-66.15
X175.497Y-113.797
X175.85Y-44.151
X175.85Y-50.151
X175.85Y-52.151
X175.85Y-54.151
X175.85Y-58.15
X175.85Y-60.15
X175.85Y-62.15
X175.85Y-66.65
X175.85Y-68.15
X175.85Y-70.15
X175.85Y-72.15
X175.85Y-112.15
X175.85Y-126.15
X176.1Y-109.0
X176.35Y-114.15
X176.684Y-109.625
X177.85Y-44.151
X177.85Y-48.151
X177.85Y-50.151
X177.85Y-52.151
X177.85Y-54.151
X177.85Y-60.15
X177.85Y-62.15
X177.85Y-65.65
X177.85Y-80.15
X177.85Y-84.15
X177.85Y-85.65
X177.85Y-98.15
X177.85Y-100.15
X177.85Y-102.15
X177.85Y-104.15
X177.85Y-108.15
X177.85Y-112.15
X177.85Y-118.15
X177.85Y-120.15
X177.85Y-126.15
X177.85Y-128.15
X177.85Y-130.15
X177.85Y-132.15
X178.204Y-66.504
X178.35Y-71.9
X178.35Y-86.15
X178.5Y-75.0
X179.25Y-75.5
X179.497Y-65.797
X179.497Y-66.504
X179.85Y-44.151
X179.85Y-48.151
X179.85Y-50.151
X179.85Y-60.15
X179.85Y-62.15
X179.85Y-80.15
X179.85Y-84.15
X179.85Y-98.15
X179.85Y-100.15
X179.85Y-102.15
X179.85Y-106.15
X179.85Y-108.15
X179.85Y-116.15
X179.85Y-118.15
X180.204Y-96.504
X180.7Y-87.2
X180.748Y-89.688
X180.748Y-92.225
X180.748Y-94.765
X180.91Y-59.59
X181.35Y-96.15
X181.5Y-77.0
X181.8Y-75.0
X181.85Y-44.151
X181.85Y-56.151
X181.85Y-80.15
X181.85Y-84.15
X181.85Y-96.65
X181.85Y-98.15
X181.85Y-100.15
X181.85Y-104.15
X181.85Y-106.15
X181.85Y-108.15
X181.85Y-114.15
X181.85Y-116.15
X181.85Y-118.15
X181.85Y-132.15
X182.25Y-69.5
X182.5Y-58.5
X183.6Y-125.8
X183.85Y-44.151
X183.85Y-58.15
X183.85Y-60.15
X183.85Y-62.15
X183.85Y-66.15
X183.85Y-102.15
X183.85Y-104.15
X183.85Y-106.15
X183.85Y-112.15
X183.85Y-114.15
X183.85Y-116.15
X185.8Y-54.0
X185.85Y-44.151
X185.85Y-46.151
X185.85Y-72.15
X185.85Y-90.15
X185.85Y-96.15
X185.85Y-98.15
X185.85Y-100.15
X185.85Y-102.15
X185.85Y-104.15
X185.85Y-112.15
X185.85Y-114.15
X185.85Y-116.15
X186.558Y-76.675
X186.807Y-69.325
X187.119Y-68.588
X187.358Y-76.675
X187.426Y-64.725
X187.591Y-67.932
X187.7Y-105.1
X187.85Y-44.151
X187.85Y-46.151
X187.85Y-48.151
X187.85Y-50.151
X187.85Y-52.151
X187.85Y-54.151
X187.85Y-56.151
X187.85Y-58.15
X187.85Y-60.15
X187.85Y-62.15
X187.85Y-96.15
X187.85Y-98.15
X187.85Y-100.15
X187.85Y-102.15
X187.85Y-104.15
X187.85Y-108.15
X187.85Y-112.15
X187.85Y-114.15
X187.85Y-116.15
X187.85Y-118.15
X187.85Y-119.65
X187.85Y-128.15
X187.85Y-130.15
X187.85Y-132.15
X188.158Y-76.675
X188.165Y-64.225
X188.35Y-120.15
X188.755Y-70.475
X188.998Y-63.672
X189.741Y-103.997
X189.8Y-63.05
X189.85Y-44.151
X189.85Y-46.151
X189.85Y-48.151
X189.85Y-50.151
X189.85Y-52.151
X189.85Y-54.151
X189.85Y-56.151
X189.85Y-58.15
X189.85Y-60.15
X189.85Y-106.15
X189.85Y-108.15
X189.85Y-114.15
X189.85Y-128.15
X189.85Y-130.15
X189.85Y-132.15
X190.5Y-104.25
X191.34Y-68.02
X191.85Y-44.151
X191.85Y-46.151
X191.85Y-48.151
X191.85Y-50.151
X191.85Y-52.151
X191.85Y-54.151
X191.85Y-56.151
X191.85Y-60.15
X191.85Y-62.15
X191.85Y-64.15
X191.85Y-106.15
X191.85Y-108.15
X191.85Y-114.15
X191.85Y-120.15
X193.6Y-75.2
X193.8Y-90.2
X193.85Y-44.151
X193.85Y-46.151
X193.85Y-48.151
X193.85Y-50.151
X193.85Y-52.151
X193.85Y-54.151
X193.85Y-56.151
X193.85Y-58.15
X193.85Y-60.15
X193.85Y-62.15
X193.85Y-64.15
X193.85Y-66.15
X193.85Y-82.15
X193.85Y-84.15
X193.85Y-86.15
X193.85Y-98.15
X193.85Y-100.15
X193.85Y-106.15
X193.85Y-108.15
X193.85Y-114.15
X193.85Y-128.15
X193.85Y-130.15
X193.85Y-134.15
X194.75Y-72.7
X194.75Y-73.5
X195.0Y-92.2
X195.497Y-66.504
X195.497Y-88.504
X195.497Y-96.504
X195.85Y-44.151
X195.85Y-46.151
X195.85Y-48.151
X195.85Y-50.151
X195.85Y-52.151
X195.85Y-54.151
X195.85Y-56.151
X195.85Y-58.15
X195.85Y-60.15
X195.85Y-62.15
X195.85Y-64.15
X195.85Y-70.15
X195.85Y-84.15
X195.85Y-86.15
X195.85Y-100.15
X195.85Y-102.15
X195.85Y-128.15
X195.85Y-132.15
X195.85Y-134.15
X196.204Y-66.504
X196.204Y-96.504
X196.35Y-88.15
X196.5Y-125.0
X197.233Y-123.117
X197.497Y-96.504
X197.75Y-123.75
X197.85Y-50.151
X197.85Y-52.151
X197.85Y-54.151
X197.85Y-56.151
X197.85Y-58.15
X197.85Y-84.15
X197.85Y-86.15
X197.85Y-98.15
X198.204Y-96.504
X198.737Y-124.142
X199.85Y-50.151
X199.85Y-52.151
X199.85Y-54.151
X199.85Y-56.151
X199.85Y-58.15
X199.85Y-128.15
X200.9Y-125.6
X201.2Y-68.2
X201.85Y-50.151
X201.85Y-52.151
X201.85Y-54.151
X201.85Y-56.151
X201.85Y-58.15
X201.85Y-60.15
X201.85Y-62.15
X201.85Y-74.15
X201.85Y-76.15
X201.85Y-78.15
X201.85Y-80.15
X201.85Y-82.15
X201.85Y-84.15
X201.85Y-86.15
X201.85Y-87.65
X201.85Y-90.15
X201.85Y-92.15
X201.85Y-95.65
X201.85Y-98.15
X201.85Y-100.15
X201.85Y-102.15
X201.85Y-104.15
X201.85Y-106.15
X201.85Y-108.15
X201.85Y-110.15
X201.85Y-112.15
X201.85Y-114.15
X201.85Y-116.15
X201.85Y-118.15
X201.85Y-126.15
X201.85Y-128.15
X202.204Y-96.504
X202.35Y-88.15
X203.497Y-96.504
X203.85Y-50.151
X203.85Y-52.151
X203.85Y-54.151
X203.85Y-56.151
X203.85Y-58.15
X203.85Y-60.15
X203.85Y-78.15
X203.85Y-80.15
X203.85Y-82.15
X203.85Y-84.15
X203.85Y-86.15
X203.85Y-92.15
X203.85Y-98.15
X203.85Y-100.15
X203.85Y-102.15
X203.85Y-104.15
X203.85Y-106.15
X203.85Y-108.15
X203.85Y-110.15
X203.85Y-112.15
X203.85Y-114.15
X203.85Y-116.15
X203.85Y-118.15
X203.85Y-120.15
X203.85Y-122.15
X203.85Y-124.15
X203.85Y-126.15
X203.85Y-128.15
X204.204Y-96.504
X204.35Y-48.151
X205.35Y-96.15
X205.85Y-44.151
X205.85Y-46.151
X205.85Y-48.151
X205.85Y-50.151
X205.85Y-52.151
X205.85Y-54.151
X205.85Y-56.151
X205.85Y-58.15
X205.85Y-60.15
X205.85Y-62.15
X205.85Y-64.15
X205.85Y-66.15
X205.85Y-68.15
X205.85Y-70.15
X205.85Y-72.15
X205.85Y-74.15
X205.85Y-76.15
X205.85Y-78.15
X205.85Y-80.15
X205.85Y-82.15
X205.85Y-84.15
X205.85Y-86.15
X205.85Y-87.65
X205.85Y-88.65
X205.85Y-92.15
X205.85Y-94.15
X205.85Y-96.65
X205.85Y-98.15
X205.85Y-100.15
X205.85Y-102.15
X205.85Y-104.15
X205.85Y-106.15
X205.85Y-108.15
X205.85Y-110.15
X205.85Y-112.15
X205.85Y-114.15
X205.85Y-116.15
X205.85Y-118.15
X205.85Y-120.15
X205.85Y-122.15
X205.85Y-124.15
X205.85Y-126.15
X205.85Y-128.15
X205.85Y-130.15
X205.85Y-132.15
X205.85Y-134.15
T2
X127.5Y-54.4
X127.5Y-67.2
X127.7Y-60.6
X127.8Y-73.5
X146.011Y-65.389
X146.011Y-70.532
X146.011Y-75.675
X146.011Y-80.817
T3
X143.0Y-58.0
X145.861Y-64.605
X149.228Y-56.0
X151.128Y-52.7
X152.128Y-46.5
X159.5Y-58.0
T4
X135.4Y-123.46
X135.4Y-128.54
X159.95Y-123.46
X159.95Y-128.54
X184.5Y-123.46
X184.5Y-128.54
X199.7Y-65.76
X199.7Y-70.84
T5
X197.564Y-89.734
X197.564Y-94.234
X204.064Y-89.734
X204.064Y-94.234
T6
X181.525Y-51.0
X181.525Y-53.54
X184.065Y-48.46
X184.065Y-51.0
X184.065Y-53.54
T7
X181.525Y-48.46
T8
X100.733Y-103.018
X100.733Y-107.168
X100.733Y-110.498
X100.733Y-113.828
X100.733Y-117.133
X100.733Y-120.488
X100.733Y-123.818
X100.733Y-127.968
X100.768Y-49.499
X100.768Y-53.649
X100.768Y-56.979
X100.768Y-60.309
X100.768Y-63.614
X100.768Y-66.969
X100.768Y-70.299
X100.768Y-74.449
X104.933Y-103.018
X104.933Y-107.168
X104.933Y-110.498
X104.933Y-113.828
X104.933Y-117.133
X104.933Y-120.488
X104.933Y-123.818
X104.933Y-127.968
X104.968Y-49.499
X104.968Y-53.649
X104.968Y-56.979
X104.968Y-60.309
X104.968Y-63.614
X104.968Y-66.969
X104.968Y-70.299
X104.968Y-74.449
X109.133Y-103.018
X109.133Y-107.168
X109.133Y-110.498
X109.133Y-113.828
X109.133Y-117.133
X109.133Y-120.488
X109.133Y-123.818
X109.133Y-127.968
X109.168Y-49.499
X109.168Y-53.649
X109.168Y-56.979
X109.168Y-60.309
X109.168Y-63.614
X109.168Y-66.969
X109.168Y-70.299
X109.168Y-74.449
M30
