%TF.GenerationSoftware,KiCad,Pcbnew,10.0.5*%
%TF.CreationDate,2026-08-31T17:37:00+08:00*%
%TF.ProjectId,VCU_V3.3,5643555f-5633-42e3-932e-6b696361645f,rev?*%
%TF.SameCoordinates,Original*%
%TF.FileFunction,Soldermask,Top*%
%TF.FilePolarity,Negative*%
%FSLAX46Y46*%
G04 Gerber Fmt 4.6, Leading zero omitted, Abs format (unit mm)*
G04 Created by KiCad (PCBNEW 10.0.5) date 2026-08-31 17:37:00*
%MOMM*%
%LPD*%
G01*
G04 APERTURE LIST*
G04 Aperture macros list*
%AMRoundRect*
0 Rectangle with rounded corners*
0 $1 Rounding radius*
0 $2 $3 $4 $5 $6 $7 $8 $9 X,Y pos of 4 corners*
0 Add a 4 corners polygon primitive as box body*
4,1,4,$2,$3,$4,$5,$6,$7,$8,$9,$2,$3,0*
0 Add four circle primitives for the rounded corners*
1,1,$1+$1,$2,$3*
1,1,$1+$1,$4,$5*
1,1,$1+$1,$6,$7*
1,1,$1+$1,$8,$9*
0 Add four rect primitives between the rounded corners*
20,1,$1+$1,$2,$3,$4,$5,0*
20,1,$1+$1,$4,$5,$6,$7,0*
20,1,$1+$1,$6,$7,$8,$9,0*
20,1,$1+$1,$8,$9,$2,$3,0*%
G04 Aperture macros list end*
%ADD10RoundRect,0.278125X0.474375X0.389375X-0.474375X0.389375X-0.474375X-0.389375X0.474375X-0.389375X0*%
%ADD11O,7.000000X4.000000*%
%ADD12RoundRect,0.305575X0.412525X-0.460025X0.412525X0.460025X-0.412525X0.460025X-0.412525X-0.460025X0*%
%ADD13RoundRect,0.308511X0.416489X-0.457089X0.416489X0.457089X-0.416489X0.457089X-0.416489X-0.457089X0*%
%ADD14RoundRect,0.150000X-0.750000X-0.150000X0.750000X-0.150000X0.750000X0.150000X-0.750000X0.150000X0*%
%ADD15RoundRect,0.305575X0.460025X0.412525X-0.460025X0.412525X-0.460025X-0.412525X0.460025X-0.412525X0*%
%ADD16RoundRect,0.308511X0.457089X0.416489X-0.457089X0.416489X-0.457089X-0.416489X0.457089X-0.416489X0*%
%ADD17RoundRect,0.305575X-0.412525X0.460025X-0.412525X-0.460025X0.412525X-0.460025X0.412525X0.460025X0*%
%ADD18RoundRect,0.308511X-0.416489X0.457089X-0.416489X-0.457089X0.416489X-0.457089X0.416489X0.457089X0*%
%ADD19RoundRect,0.278125X-0.474375X-0.389375X0.474375X-0.389375X0.474375X0.389375X-0.474375X0.389375X0*%
%ADD20R,2.275000X1.150000*%
%ADD21R,2.275000X1.000000*%
%ADD22R,2.275000X1.060000*%
%ADD23R,1.775000X0.650000*%
%ADD24R,4.125000X4.700000*%
%ADD25R,1.825000X0.700000*%
%ADD26RoundRect,0.305575X-0.460025X-0.412525X0.460025X-0.412525X0.460025X0.412525X-0.460025X0.412525X0*%
%ADD27RoundRect,0.308511X-0.457089X-0.416489X0.457089X-0.416489X0.457089X0.416489X-0.457089X0.416489X0*%
%ADD28O,8.000000X2.500000*%
%ADD29O,6.000000X3.000000*%
%ADD30O,5.600000X2.500000*%
%ADD31C,2.600000*%
%ADD32RoundRect,0.293478X-0.381522X-0.406522X0.381522X-0.406522X0.381522X0.406522X-0.381522X0.406522X0*%
%ADD33RoundRect,0.278125X-0.389375X0.474375X-0.389375X-0.474375X0.389375X-0.474375X0.389375X0.474375X0*%
%ADD34RoundRect,0.278125X0.389375X-0.474375X0.389375X0.474375X-0.389375X0.474375X-0.389375X-0.474375X0*%
%ADD35RoundRect,0.100000X-0.687500X-0.100000X0.687500X-0.100000X0.687500X0.100000X-0.687500X0.100000X0*%
%ADD36RoundRect,0.100000X-0.687500X-0.099999X0.687500X-0.099999X0.687500X0.099999X-0.687500X0.099999X0*%
%ADD37RoundRect,0.162500X1.052500X0.162500X-1.052500X0.162500X-1.052500X-0.162500X1.052500X-0.162500X0*%
%ADD38RoundRect,0.150000X-1.000000X-0.150000X1.000000X-0.150000X1.000000X0.150000X-1.000000X0.150000X0*%
%ADD39RoundRect,0.151250X-0.998750X-0.151250X0.998750X-0.151250X0.998750X0.151250X-0.998750X0.151250X0*%
%ADD40RoundRect,0.148750X-1.001250X-0.148750X1.001250X-0.148750X1.001250X0.148750X-1.001250X0.148750X0*%
%ADD41RoundRect,0.396226X0.953774X-0.653774X0.953774X0.653774X-0.953774X0.653774X-0.953774X-0.653774X0*%
%ADD42C,2.400000*%
%ADD43R,2.500000X6.551563*%
%ADD44R,2.500000X6.645000*%
%ADD45RoundRect,0.150000X0.150000X-1.350000X0.150000X1.350000X-0.150000X1.350000X-0.150000X-1.350000X0*%
%ADD46RoundRect,0.150000X0.150000X-1.337500X0.150000X1.337500X-0.150000X1.337500X-0.150000X-1.337500X0*%
%ADD47RoundRect,0.150000X-1.350000X-0.150000X1.350000X-0.150000X1.350000X0.150000X-1.350000X0.150000X0*%
%ADD48RoundRect,0.150000X-1.337500X-0.150000X1.337500X-0.150000X1.337500X0.150000X-1.337500X0.150000X0*%
%ADD49RoundRect,0.150000X1.000000X0.150000X-1.000000X0.150000X-1.000000X-0.150000X1.000000X-0.150000X0*%
%ADD50RoundRect,0.151250X0.998750X0.151250X-0.998750X0.151250X-0.998750X-0.151250X0.998750X-0.151250X0*%
%ADD51RoundRect,0.148750X1.001250X0.148750X-1.001250X0.148750X-1.001250X-0.148750X1.001250X-0.148750X0*%
%ADD52RoundRect,0.390352X-0.934648X0.722148X-0.934648X-0.722148X0.934648X-0.722148X0.934648X0.722148X0*%
%ADD53C,2.000000*%
%ADD54R,1.500000X2.400000*%
%ADD55R,2.000000X2.000000*%
%ADD56R,2.000000X0.550000*%
%ADD57R,0.550000X2.000000*%
%ADD58R,0.525000X2.000000*%
%ADD59R,0.575000X2.000000*%
%ADD60R,2.000000X0.525000*%
%ADD61O,6.000000X3.500000*%
%ADD62RoundRect,0.192000X-1.040000X-0.210000X1.040000X-0.210000X1.040000X0.210000X-1.040000X0.210000X0*%
%ADD63RoundRect,0.193500X-1.038500X-0.213500X1.038500X-0.213500X1.038500X0.213500X-1.038500X0.213500X0*%
G04 APERTURE END LIST*
%TO.C,Q4*%
G36*
X124425000Y-61615000D02*
G01*
X126700000Y-61615000D01*
X126700000Y-64825000D01*
X124425000Y-64825000D01*
X124425000Y-61615000D01*
G37*
%TO.C,Q2*%
G36*
X124425000Y-55315000D02*
G01*
X126700000Y-55315000D01*
X126700000Y-58525000D01*
X124425000Y-58525000D01*
X124425000Y-55315000D01*
G37*
%TO.C,Q6*%
G36*
X124425000Y-68115000D02*
G01*
X126700000Y-68115000D01*
X126700000Y-71325000D01*
X124425000Y-71325000D01*
X124425000Y-68115000D01*
G37*
%TO.C,Q8*%
G36*
X124425000Y-74470000D02*
G01*
X126700000Y-74470000D01*
X126700000Y-77680000D01*
X124425000Y-77680000D01*
X124425000Y-74470000D01*
G37*
%TD*%
D10*
%TO.C,R78*%
X118913259Y-93533552D03*
X116608259Y-93533552D03*
%TD*%
D11*
%TO.C,H2*%
X200494000Y-45750000D03*
%TD*%
D12*
%TO.C,CA1*%
X151893100Y-86225000D03*
D13*
X151900000Y-83793800D03*
%TD*%
D12*
%TO.C,C6*%
X203993100Y-64315600D03*
D13*
X204000000Y-61884400D03*
%TD*%
D14*
%TO.C,Q1*%
X134258571Y-63150000D03*
X134258571Y-65050000D03*
X136458571Y-64100000D03*
%TD*%
D15*
%TO.C,C18*%
X174715600Y-115516900D03*
D16*
X172284400Y-115510000D03*
%TD*%
D17*
%TO.C,CA3*%
X151906900Y-93793800D03*
D18*
X151900000Y-96225000D03*
%TD*%
D12*
%TO.C,C26*%
X131193100Y-122215600D03*
D13*
X131200000Y-119784400D03*
%TD*%
D19*
%TO.C,R45*%
X180747500Y-87145000D03*
X183052500Y-87145000D03*
%TD*%
D17*
%TO.C,C17*%
X155756900Y-129784400D03*
D18*
X155750000Y-132215600D03*
%TD*%
D15*
%TO.C,C19*%
X174715600Y-118716900D03*
D16*
X172284400Y-118710000D03*
%TD*%
D20*
%TO.C,Q4*%
X125562500Y-64250000D03*
D21*
X125562500Y-63175000D03*
D22*
X125562500Y-62145000D03*
D23*
X125312500Y-60670000D03*
D24*
X121337500Y-62575000D03*
D25*
X118862500Y-64570000D03*
X118862500Y-63240000D03*
X118862500Y-61910000D03*
X118862500Y-60580000D03*
%TD*%
D14*
%TO.C,Q7*%
X134158571Y-78350000D03*
X134158571Y-80250000D03*
X136358571Y-79300000D03*
%TD*%
D26*
%TO.C,C38*%
X116321300Y-100493100D03*
D27*
X118752500Y-100500000D03*
%TD*%
D26*
%TO.C,C55*%
X132700000Y-107093100D03*
D27*
X135131200Y-107100000D03*
%TD*%
D19*
%TO.C,R43*%
X165747500Y-92225000D03*
X168052500Y-92225000D03*
%TD*%
D20*
%TO.C,Q2*%
X125562500Y-57950000D03*
D21*
X125562500Y-56875000D03*
D22*
X125562500Y-55845000D03*
D23*
X125312500Y-54370000D03*
D24*
X121337500Y-56275000D03*
D25*
X118862500Y-58270000D03*
X118862500Y-56940000D03*
X118862500Y-55610000D03*
X118862500Y-54280000D03*
%TD*%
D19*
%TO.C,R31*%
X150355909Y-121812008D03*
X152660909Y-121812008D03*
%TD*%
D17*
%TO.C,C34*%
X180306900Y-129784400D03*
D18*
X180300000Y-132215600D03*
%TD*%
D28*
%TO.C,J1*%
X103567600Y-42024000D03*
D29*
X94167600Y-46424000D03*
D30*
X102567600Y-82024000D03*
D31*
X109167600Y-49499000D03*
X109167600Y-53649000D03*
X109167600Y-56979000D03*
X109167600Y-60309000D03*
X109167600Y-63614000D03*
X109167600Y-66969000D03*
X109167600Y-70299000D03*
X109167600Y-74449000D03*
X104967600Y-49499000D03*
X104967600Y-53649000D03*
X104967600Y-56979000D03*
X104967600Y-60309000D03*
X104967600Y-63614000D03*
X104967600Y-66969000D03*
X104967600Y-70299000D03*
X104967600Y-74449000D03*
X100767600Y-49499000D03*
X100767600Y-53649000D03*
X100767600Y-56979000D03*
X100767600Y-60309000D03*
X100767600Y-63614000D03*
X100767600Y-66969000D03*
X100767600Y-70299000D03*
X100767600Y-74449000D03*
%TD*%
D32*
%TO.C,D5*%
X138990329Y-80740000D03*
X141240329Y-80740000D03*
%TD*%
D33*
%TO.C,R39*%
X148932500Y-88856900D03*
X148932500Y-91161900D03*
%TD*%
D34*
%TO.C,R23*%
X113365397Y-124041759D03*
X113365397Y-121736759D03*
%TD*%
D10*
%TO.C,R85*%
X201652500Y-124142500D03*
X199347500Y-124142500D03*
%TD*%
D15*
%TO.C,C37*%
X135168100Y-101806900D03*
D16*
X132736900Y-101800000D03*
%TD*%
D11*
%TO.C,H3*%
X117639500Y-131856000D03*
%TD*%
D15*
%TO.C,C39*%
X118961700Y-95806900D03*
D16*
X116530500Y-95800000D03*
%TD*%
D14*
%TO.C,Q5*%
X134158571Y-73600000D03*
X134158571Y-75500000D03*
X136358571Y-74550000D03*
%TD*%
D33*
%TO.C,R82*%
X140328100Y-51795000D03*
X140328100Y-54100000D03*
%TD*%
D17*
%TO.C,CA4*%
X151900000Y-99009400D03*
D18*
X151893100Y-101440600D03*
%TD*%
D35*
%TO.C,U8*%
X140087500Y-121175000D03*
X140087500Y-121825000D03*
X140087500Y-122475000D03*
D36*
X140087500Y-123125001D03*
D35*
X140087500Y-123775000D03*
X140087500Y-124425000D03*
X140087500Y-125075000D03*
X140087500Y-125725000D03*
X140087500Y-126375000D03*
X140087500Y-127025000D03*
X145912500Y-127025000D03*
X145912500Y-126375000D03*
X145912500Y-125725000D03*
X145912500Y-125075000D03*
X145912500Y-124425000D03*
X145912500Y-123775000D03*
X145912500Y-123125000D03*
D36*
X145912500Y-122475001D03*
X145912500Y-121825001D03*
X145912500Y-121175001D03*
%TD*%
D10*
%TO.C,R83*%
X176652500Y-124142500D03*
X174347500Y-124142500D03*
%TD*%
D15*
%TO.C,C1*%
X180915600Y-70306900D03*
D16*
X178484400Y-70300000D03*
%TD*%
D15*
%TO.C,C54*%
X135131200Y-109906900D03*
D16*
X132700000Y-109900000D03*
%TD*%
D33*
%TO.C,R38*%
X148932500Y-93856900D03*
X148932500Y-96161900D03*
%TD*%
D10*
%TO.C,R84*%
X152652500Y-124121766D03*
X150347500Y-124121766D03*
%TD*%
%TO.C,R80*%
X140352500Y-56732500D03*
X138047500Y-56732500D03*
%TD*%
D26*
%TO.C,CA5*%
X159684400Y-84218100D03*
D27*
X162115600Y-84225000D03*
%TD*%
D19*
%TO.C,R44*%
X165747500Y-94767500D03*
X168052500Y-94767500D03*
%TD*%
D15*
%TO.C,C29*%
X150720842Y-118703067D03*
D16*
X148289642Y-118696167D03*
%TD*%
D37*
%TO.C,U18*%
X148298100Y-53650000D03*
X148298100Y-52700000D03*
X148298100Y-51750000D03*
X144728100Y-51750000D03*
X144728100Y-52700000D03*
X144728100Y-53650000D03*
%TD*%
D19*
%TO.C,R33*%
X143747500Y-84192500D03*
X146052500Y-84192500D03*
%TD*%
D15*
%TO.C,C41*%
X118961700Y-88906900D03*
D16*
X116530500Y-88900000D03*
%TD*%
D19*
%TO.C,R40*%
X143747500Y-99192500D03*
X146052500Y-99192500D03*
%TD*%
D38*
%TO.C,U11*%
X172250000Y-87145000D03*
X172250000Y-88415000D03*
X172250000Y-89685000D03*
X172250000Y-90955000D03*
X172250000Y-92225000D03*
D39*
X172250000Y-93492500D03*
D38*
X172250000Y-94765000D03*
X172250000Y-96035000D03*
X177550000Y-96035000D03*
X177550000Y-94765000D03*
X177550000Y-93495000D03*
X177550000Y-92225000D03*
X177550000Y-90955000D03*
D40*
X177550000Y-89687500D03*
D38*
X177550000Y-88415000D03*
X177550000Y-87145000D03*
%TD*%
D19*
%TO.C,R22*%
X174347500Y-121825001D03*
X176652500Y-121825001D03*
%TD*%
D41*
%TO.C,C40*%
X139800000Y-48650000D03*
X139800000Y-44750000D03*
%TD*%
D42*
%TO.C,Y3*%
X135400000Y-123460000D03*
D43*
X135391762Y-121020782D03*
D44*
X135400000Y-130932500D03*
D42*
X135400000Y-128540000D03*
%TD*%
D26*
%TO.C,C43*%
X132996900Y-89693100D03*
D27*
X135428100Y-89700000D03*
%TD*%
D19*
%TO.C,R42*%
X165747500Y-89667500D03*
X168052500Y-89667500D03*
%TD*%
D34*
%TO.C,R77*%
X95767500Y-89241759D03*
X95767500Y-86936759D03*
%TD*%
D42*
%TO.C,Y2*%
X159950000Y-123460000D03*
D43*
X159941762Y-121020782D03*
D44*
X159950000Y-130932500D03*
D42*
X159950000Y-128540000D03*
%TD*%
D32*
%TO.C,D4*%
X138990329Y-75660000D03*
X141240329Y-75660000D03*
%TD*%
D14*
%TO.C,Q3*%
X134258571Y-68150000D03*
X134258571Y-70050000D03*
X136458571Y-69100000D03*
%TD*%
D45*
%TO.C,U9*%
X141295000Y-117700000D03*
X142565000Y-117700000D03*
D46*
X143700000Y-117712500D03*
D45*
X145105000Y-117700000D03*
X145105000Y-111700000D03*
X143835000Y-111700000D03*
X142565000Y-111700000D03*
X141295000Y-111700000D03*
%TD*%
%TO.C,U15*%
X190395000Y-117700000D03*
X191665000Y-117700000D03*
D46*
X192800000Y-117712500D03*
D45*
X194205000Y-117700000D03*
X194205000Y-111700000D03*
X192935000Y-111700000D03*
X191665000Y-111700000D03*
X190395000Y-111700000D03*
%TD*%
D26*
%TO.C,C32*%
X132736900Y-98993100D03*
D27*
X135168100Y-99000000D03*
%TD*%
D19*
%TO.C,R41*%
X165747500Y-87145000D03*
X168052500Y-87145000D03*
%TD*%
D15*
%TO.C,C48*%
X159528100Y-51506900D03*
D16*
X157096900Y-51500000D03*
%TD*%
D15*
%TO.C,C35*%
X200015600Y-115606900D03*
D16*
X197584400Y-115600000D03*
%TD*%
D19*
%TO.C,R48*%
X180747500Y-94765000D03*
X183052500Y-94765000D03*
%TD*%
D34*
%TO.C,R4*%
X193814400Y-96289400D03*
X193814400Y-93984400D03*
%TD*%
D47*
%TO.C,U17*%
X122812500Y-92095000D03*
X122812500Y-93365000D03*
D48*
X122800000Y-94500000D03*
D47*
X122812500Y-95905000D03*
X128812500Y-95905000D03*
X128812500Y-94635000D03*
X128812500Y-93365000D03*
X128812500Y-92095000D03*
%TD*%
D49*
%TO.C,U12*%
X154808571Y-75979400D03*
X154808571Y-74709400D03*
X154808571Y-73439400D03*
X154808571Y-72169400D03*
X154808571Y-70899400D03*
D50*
X154808571Y-69631900D03*
D49*
X154808571Y-68359400D03*
X154808571Y-67089400D03*
X149508571Y-67089400D03*
X149508571Y-68359400D03*
X149508571Y-69629400D03*
X149508571Y-70899400D03*
X149508571Y-72169400D03*
D51*
X149508571Y-73436900D03*
D49*
X149508571Y-74709400D03*
X149508571Y-75979400D03*
%TD*%
D47*
%TO.C,U16*%
X122615600Y-108595000D03*
X122615600Y-109865000D03*
D48*
X122603100Y-111000000D03*
D47*
X122615600Y-112405000D03*
X128615600Y-112405000D03*
X128615600Y-111135000D03*
X128615600Y-109865000D03*
X128615600Y-108595000D03*
%TD*%
D17*
%TO.C,C45*%
X146306900Y-46184400D03*
D18*
X146300000Y-48615600D03*
%TD*%
D12*
%TO.C,C7*%
X193840000Y-90200000D03*
D13*
X193846900Y-87768800D03*
%TD*%
D34*
%TO.C,R37*%
X148867500Y-86161900D03*
X148867500Y-83856900D03*
%TD*%
D42*
%TO.C,Y4*%
X184500000Y-123460000D03*
D43*
X184491762Y-121020782D03*
D44*
X184500000Y-130932500D03*
D42*
X184500000Y-128540000D03*
%TD*%
D15*
%TO.C,C4*%
X180915600Y-68106900D03*
D16*
X178484400Y-68100000D03*
%TD*%
D26*
%TO.C,C47*%
X144712500Y-55993100D03*
D27*
X147143700Y-56000000D03*
%TD*%
D26*
%TO.C,C52*%
X132700000Y-112393100D03*
D27*
X135131200Y-112400000D03*
%TD*%
D42*
%TO.C,Y1*%
X199700000Y-65760000D03*
D43*
X199691762Y-63320782D03*
D44*
X199700000Y-73232500D03*
D42*
X199700000Y-70840000D03*
%TD*%
D11*
%TO.C,H4*%
X200697000Y-131856000D03*
%TD*%
D33*
%TO.C,R36*%
X148925600Y-99072500D03*
X148925600Y-101377500D03*
%TD*%
D26*
%TO.C,C50*%
X157096900Y-56493100D03*
D27*
X159528100Y-56500000D03*
%TD*%
D26*
%TO.C,C53*%
X116284400Y-108593100D03*
D27*
X118715600Y-108600000D03*
%TD*%
D17*
%TO.C,C3*%
X195490000Y-79000000D03*
D18*
X195483100Y-81431200D03*
%TD*%
D34*
%TO.C,R30*%
X131167500Y-127141759D03*
X131167500Y-124836759D03*
%TD*%
D45*
%TO.C,U5*%
X165845000Y-117700000D03*
X167115000Y-117700000D03*
D46*
X168250000Y-117712500D03*
D45*
X169655000Y-117700000D03*
X169655000Y-111700000D03*
X168385000Y-111700000D03*
X167115000Y-111700000D03*
X165845000Y-111700000D03*
%TD*%
D35*
%TO.C,U4*%
X164637500Y-121175000D03*
X164637500Y-121825000D03*
X164637500Y-122475000D03*
D36*
X164637500Y-123125001D03*
D35*
X164637500Y-123775000D03*
X164637500Y-124425000D03*
X164637500Y-125075000D03*
X164637500Y-125725000D03*
X164637500Y-126375000D03*
X164637500Y-127025000D03*
X170462500Y-127025000D03*
X170462500Y-126375000D03*
X170462500Y-125725000D03*
X170462500Y-125075000D03*
X170462500Y-124425000D03*
X170462500Y-123775000D03*
X170462500Y-123125000D03*
D36*
X170462500Y-122475001D03*
X170462500Y-121825001D03*
X170462500Y-121175001D03*
%TD*%
D33*
%TO.C,R70*%
X109132800Y-86958242D03*
X109132800Y-89263242D03*
%TD*%
D26*
%TO.C,C44*%
X132996900Y-95093100D03*
D27*
X135428100Y-95100000D03*
%TD*%
D19*
%TO.C,R47*%
X180747500Y-92225000D03*
X183052500Y-92225000D03*
%TD*%
D34*
%TO.C,R21*%
X155717500Y-127141759D03*
X155717500Y-124836759D03*
%TD*%
D52*
%TO.C,F3*%
X166400000Y-52612500D03*
X166400000Y-56387500D03*
%TD*%
D53*
%TO.C,SW1*%
X197564400Y-89734400D03*
X204064400Y-89734400D03*
X197564400Y-94234400D03*
X204064400Y-94234400D03*
%TD*%
D26*
%TO.C,C46*%
X132996900Y-92393100D03*
D27*
X135428100Y-92400000D03*
%TD*%
D34*
%TO.C,R71*%
X180267500Y-127141759D03*
X180267500Y-124836759D03*
%TD*%
D17*
%TO.C,C5*%
X204006900Y-72184400D03*
D18*
X204000000Y-74615600D03*
%TD*%
D15*
%TO.C,C51*%
X118615600Y-111061900D03*
D16*
X116184400Y-111055000D03*
%TD*%
D20*
%TO.C,Q6*%
X125562500Y-70750000D03*
D21*
X125562500Y-69675000D03*
D22*
X125562500Y-68645000D03*
D23*
X125312500Y-67170000D03*
D24*
X121337500Y-69075000D03*
D25*
X118862500Y-71070000D03*
X118862500Y-69740000D03*
X118862500Y-68410000D03*
X118862500Y-67080000D03*
%TD*%
D19*
%TO.C,R46*%
X180747500Y-89687500D03*
X183052500Y-89687500D03*
%TD*%
D47*
%TO.C,U13*%
X122652500Y-100495000D03*
X122652500Y-101765000D03*
D48*
X122640000Y-102900000D03*
D47*
X122652500Y-104305000D03*
X128652500Y-104305000D03*
X128652500Y-103035000D03*
X128652500Y-101765000D03*
X128652500Y-100495000D03*
%TD*%
D54*
%TO.C,L2*%
X154028100Y-46500000D03*
X159528100Y-46500000D03*
%TD*%
D20*
%TO.C,Q8*%
X125562500Y-77105000D03*
D21*
X125562500Y-76030000D03*
D22*
X125562500Y-75000000D03*
D23*
X125312500Y-73525000D03*
D24*
X121337500Y-75430000D03*
D25*
X118862500Y-77425000D03*
X118862500Y-76095000D03*
X118862500Y-74765000D03*
X118862500Y-73435000D03*
%TD*%
D55*
%TO.C,J3*%
X181525000Y-48460000D03*
D53*
X184065000Y-48460000D03*
X181525000Y-51000000D03*
X184065000Y-51000000D03*
X181525000Y-53540000D03*
X184065000Y-53540000D03*
%TD*%
D35*
%TO.C,U14*%
X189187500Y-121175000D03*
X189187500Y-121825000D03*
X189187500Y-122475000D03*
D36*
X189187500Y-123125001D03*
D35*
X189187500Y-123775000D03*
X189187500Y-124425000D03*
X189187500Y-125075000D03*
X189187500Y-125725000D03*
X189187500Y-126375000D03*
X189187500Y-127025000D03*
X195012500Y-127025000D03*
X195012500Y-126375000D03*
X195012500Y-125725000D03*
X195012500Y-125075000D03*
X195012500Y-124425000D03*
X195012500Y-123775000D03*
X195012500Y-123125000D03*
D36*
X195012500Y-122475001D03*
X195012500Y-121825001D03*
X195012500Y-121175001D03*
%TD*%
D33*
%TO.C,R73*%
X113432500Y-126447500D03*
X113432500Y-128752500D03*
%TD*%
D26*
%TO.C,C31*%
X132736900Y-104293100D03*
D27*
X135168100Y-104300000D03*
%TD*%
D56*
%TO.C,U1*%
X193050000Y-73500000D03*
X193050000Y-72700000D03*
X193050000Y-71900000D03*
X193050000Y-71100000D03*
X193050000Y-70300000D03*
X193050000Y-69500000D03*
X193050000Y-68700000D03*
X193050000Y-67900000D03*
D57*
X191400000Y-66250000D03*
D58*
X190612500Y-66250000D03*
D59*
X189787500Y-66250000D03*
D57*
X189000000Y-66250000D03*
X188200000Y-66250000D03*
X187400000Y-66250000D03*
X186600000Y-66250000D03*
X185800000Y-66250000D03*
D56*
X184150000Y-67900000D03*
X184150000Y-68700000D03*
X184150000Y-69500000D03*
D60*
X184150000Y-70312500D03*
D56*
X184150000Y-71100000D03*
X184150000Y-71900000D03*
X184150000Y-72700000D03*
X184150000Y-73500000D03*
D57*
X185800000Y-75150000D03*
X186600000Y-75150000D03*
X187400000Y-75150000D03*
X188200000Y-75150000D03*
X189000000Y-75150000D03*
X189800000Y-75150000D03*
X190600000Y-75150000D03*
X191400000Y-75150000D03*
%TD*%
D19*
%TO.C,R72*%
X199387500Y-121777500D03*
X201692500Y-121777500D03*
%TD*%
D34*
%TO.C,R3*%
X203967500Y-69441759D03*
X203967500Y-67136759D03*
%TD*%
D19*
%TO.C,R34*%
X143747500Y-89192500D03*
X146052500Y-89192500D03*
%TD*%
D33*
%TO.C,R76*%
X111800000Y-86958242D03*
X111800000Y-89263242D03*
%TD*%
D15*
%TO.C,C36*%
X200015600Y-118806900D03*
D16*
X197584400Y-118800000D03*
%TD*%
D19*
%TO.C,R35*%
X143747500Y-94192500D03*
X146052500Y-94192500D03*
%TD*%
D12*
%TO.C,C16*%
X155743100Y-122215600D03*
D13*
X155750000Y-119784400D03*
%TD*%
D19*
%TO.C,R79*%
X116629742Y-91166449D03*
X118934742Y-91166449D03*
%TD*%
D34*
%TO.C,R81*%
X138063100Y-54100000D03*
X138063100Y-51795000D03*
%TD*%
D30*
%TO.C,J2*%
X102532800Y-95293000D03*
D61*
X94132800Y-131493000D03*
D28*
X103532800Y-135493000D03*
D31*
X109132800Y-103018000D03*
X109132800Y-107168000D03*
X109132800Y-110498000D03*
X109132800Y-113828000D03*
X109132800Y-117133000D03*
X109132800Y-120488000D03*
X109132800Y-123818000D03*
X109132800Y-127968000D03*
X104932800Y-103018000D03*
X104932800Y-107168000D03*
X104932800Y-110498000D03*
X104932800Y-113828000D03*
X104932800Y-117133000D03*
X104932800Y-120488000D03*
X104932800Y-123818000D03*
X104932800Y-127968000D03*
X100732800Y-103018000D03*
X100732800Y-107168000D03*
X100732800Y-110498000D03*
X100732800Y-113828000D03*
X100732800Y-117133000D03*
X100732800Y-120488000D03*
X100732800Y-123818000D03*
X100732800Y-127968000D03*
%TD*%
D34*
%TO.C,R32*%
X113365397Y-119352500D03*
X113365397Y-117047500D03*
%TD*%
%TO.C,R75*%
X98467500Y-89241759D03*
X98467500Y-86936759D03*
%TD*%
D62*
%TO.C,U10*%
X156660000Y-87145000D03*
X156660000Y-88415000D03*
X156660000Y-89685000D03*
X156660000Y-90955000D03*
X156660000Y-92225000D03*
X156660000Y-93495000D03*
X156660000Y-94765000D03*
X161900000Y-94765000D03*
D63*
X161900000Y-93500000D03*
D62*
X161900000Y-92225000D03*
X161900000Y-90955000D03*
X161900000Y-89685000D03*
X161900000Y-88415000D03*
X161900000Y-87145000D03*
%TD*%
D17*
%TO.C,CA2*%
X151906900Y-88793800D03*
D18*
X151900000Y-91225000D03*
%TD*%
D15*
%TO.C,C49*%
X159528100Y-53906900D03*
D16*
X157096900Y-53900000D03*
%TD*%
D11*
%TO.C,H1*%
X117468000Y-45750000D03*
%TD*%
D15*
%TO.C,C30*%
X118652500Y-102900000D03*
D16*
X116221300Y-102893100D03*
%TD*%
D12*
%TO.C,C42*%
X143293100Y-48615600D03*
D13*
X143300000Y-46184400D03*
%TD*%
D15*
%TO.C,C28*%
X150715600Y-115506900D03*
D16*
X148284400Y-115500000D03*
%TD*%
D17*
%TO.C,C2*%
X198500000Y-79000000D03*
D18*
X198493100Y-81431200D03*
%TD*%
D12*
%TO.C,C33*%
X180293100Y-122215600D03*
D13*
X180300000Y-119784400D03*
%TD*%
D17*
%TO.C,C27*%
X131206900Y-129784400D03*
D18*
X131200000Y-132215600D03*
%TD*%
D32*
%TO.C,D2*%
X138990329Y-65500000D03*
X141240329Y-65500000D03*
%TD*%
%TO.C,D3*%
X138990329Y-70580000D03*
X141240329Y-70580000D03*
%TD*%
G36*
X131943039Y-49519685D02*
G01*
X131988794Y-49572489D01*
X132000000Y-49624000D01*
X132000000Y-53626000D01*
X131980315Y-53693039D01*
X131927511Y-53738794D01*
X131876000Y-53750000D01*
X126624000Y-53750000D01*
X126556961Y-53730315D01*
X126511206Y-53677511D01*
X126500000Y-53626000D01*
X126500000Y-53500000D01*
X110624000Y-53500000D01*
X110556961Y-53480315D01*
X110511206Y-53427511D01*
X110500000Y-53376000D01*
X110500000Y-49624000D01*
X110519685Y-49556961D01*
X110572489Y-49511206D01*
X110624000Y-49500000D01*
X131876000Y-49500000D01*
X131943039Y-49519685D01*
G37*
G36*
X113765677Y-62519685D02*
G01*
X113786319Y-62536319D01*
X118000000Y-66750000D01*
X119626000Y-66750000D01*
X119693039Y-66769685D01*
X119738794Y-66822489D01*
X119750000Y-66874000D01*
X119750000Y-71376000D01*
X119730315Y-71443039D01*
X119677511Y-71488794D01*
X119626000Y-71500000D01*
X118051362Y-71500000D01*
X117984323Y-71480315D01*
X117963681Y-71463681D01*
X111250000Y-64750000D01*
X103874000Y-64750000D01*
X103806961Y-64730315D01*
X103761206Y-64677511D01*
X103750000Y-64626000D01*
X103750000Y-62624000D01*
X103769685Y-62556961D01*
X103822489Y-62511206D01*
X103874000Y-62500000D01*
X113698638Y-62500000D01*
X113765677Y-62519685D01*
G37*
G36*
X131943039Y-53169685D02*
G01*
X131988794Y-53222489D01*
X132000000Y-53274000D01*
X132000000Y-77576000D01*
X131980315Y-77643039D01*
X131927511Y-77688794D01*
X131876000Y-77700000D01*
X126624000Y-77700000D01*
X126556961Y-77680315D01*
X126511206Y-77627511D01*
X126500000Y-77576000D01*
X126500000Y-74824000D01*
X126519685Y-74756961D01*
X126572489Y-74711206D01*
X126624000Y-74700000D01*
X128500000Y-74700000D01*
X128500000Y-71200000D01*
X126624000Y-71200000D01*
X126556961Y-71180315D01*
X126511206Y-71127511D01*
X126500000Y-71076000D01*
X126500000Y-68324000D01*
X126519685Y-68256961D01*
X126572489Y-68211206D01*
X126624000Y-68200000D01*
X128500000Y-68200000D01*
X128500000Y-64700000D01*
X126624000Y-64700000D01*
X126556961Y-64680315D01*
X126511206Y-64627511D01*
X126500000Y-64576000D01*
X126500000Y-61824000D01*
X126519685Y-61756961D01*
X126572489Y-61711206D01*
X126624000Y-61700000D01*
X128500000Y-61700000D01*
X128500000Y-58200000D01*
X126624000Y-58200000D01*
X126556961Y-58180315D01*
X126511206Y-58127511D01*
X126500000Y-58076000D01*
X126500000Y-53500000D01*
X126381203Y-53500000D01*
X126314164Y-53480315D01*
X126268409Y-53427511D01*
X126258465Y-53358353D01*
X126259585Y-53351812D01*
X126264217Y-53328522D01*
X126282732Y-53283820D01*
X126309518Y-53243731D01*
X126343731Y-53209518D01*
X126383820Y-53182732D01*
X126428520Y-53164217D01*
X126488021Y-53152382D01*
X126512211Y-53150000D01*
X131876000Y-53150000D01*
X131943039Y-53169685D01*
G37*
G36*
X110765677Y-65769685D02*
G01*
X110786319Y-65786319D01*
X118000000Y-73000000D01*
X119126000Y-73000000D01*
X119193039Y-73019685D01*
X119238794Y-73072489D01*
X119250000Y-73124000D01*
X119250000Y-77626000D01*
X119230315Y-77693039D01*
X119177511Y-77738794D01*
X119126000Y-77750000D01*
X118051362Y-77750000D01*
X117984323Y-77730315D01*
X117963681Y-77713681D01*
X112036319Y-71786319D01*
X112002834Y-71724996D01*
X112000000Y-71698638D01*
X112000000Y-70250000D01*
X110000000Y-68250000D01*
X103874000Y-68250000D01*
X103806961Y-68230315D01*
X103761206Y-68177511D01*
X103750000Y-68126000D01*
X103750000Y-65874000D01*
X103769685Y-65806961D01*
X103822489Y-65761206D01*
X103874000Y-65750000D01*
X110698638Y-65750000D01*
X110765677Y-65769685D01*
G37*
G36*
X116765677Y-59019685D02*
G01*
X116786319Y-59036319D01*
X118000000Y-60250000D01*
X119626000Y-60250000D01*
X119693039Y-60269685D01*
X119738794Y-60322489D01*
X119750000Y-60374000D01*
X119750000Y-64876000D01*
X119730315Y-64943039D01*
X119677511Y-64988794D01*
X119626000Y-65000000D01*
X118051362Y-65000000D01*
X117984323Y-64980315D01*
X117963681Y-64963681D01*
X114500000Y-61500000D01*
X103874000Y-61500000D01*
X103806961Y-61480315D01*
X103761206Y-61427511D01*
X103750000Y-61376000D01*
X103750000Y-59124000D01*
X103769685Y-59056961D01*
X103822489Y-59011206D01*
X103874000Y-59000000D01*
X116698638Y-59000000D01*
X116765677Y-59019685D01*
G37*
G36*
X119693039Y-54019685D02*
G01*
X119738794Y-54072489D01*
X119750000Y-54124000D01*
X119750000Y-58626000D01*
X119730315Y-58693039D01*
X119677511Y-58738794D01*
X119626000Y-58750000D01*
X117801362Y-58750000D01*
X117734323Y-58730315D01*
X117713681Y-58713681D01*
X117000000Y-58000000D01*
X103874000Y-58000000D01*
X103806961Y-57980315D01*
X103761206Y-57927511D01*
X103750000Y-57876000D01*
X103750000Y-55874000D01*
X103769685Y-55806961D01*
X103822489Y-55761206D01*
X103874000Y-55750000D01*
X110250000Y-55750000D01*
X110250000Y-55749999D01*
X111963681Y-54036319D01*
X112025004Y-54002834D01*
X112051362Y-54000000D01*
X119626000Y-54000000D01*
X119693039Y-54019685D01*
G37*
M02*
