%TF.GenerationSoftware,KiCad,Pcbnew,10.0.5*%
%TF.CreationDate,2026-08-31T17:37:00+08:00*%
%TF.ProjectId,VCU_V3.3,5643555f-5633-42e3-932e-6b696361645f,rev?*%
%TF.SameCoordinates,Original*%
%TF.FileFunction,Legend,Bot*%
%TF.FilePolarity,Positive*%
%FSLAX46Y46*%
G04 Gerber Fmt 4.6, Leading zero omitted, Abs format (unit mm)*
G04 Created by KiCad (PCBNEW 10.0.5) date 2026-08-31 17:37:00*
%MOMM*%
%LPD*%
G01*
G04 APERTURE LIST*
%ADD10C,0.100000*%
%ADD11C,0.150000*%
%ADD12C,0.120000*%
G04 APERTURE END LIST*
D10*
X117500000Y-80000000D02*
X117500000Y-78000000D01*
X128750000Y-66750000D02*
X136000000Y-66750000D01*
X136000000Y-79250000D01*
X128750000Y-79250000D01*
X128750000Y-66750000D01*
X155500000Y-69400000D02*
X162500000Y-69400000D01*
X162500000Y-75900000D01*
X155500000Y-75900000D01*
X155500000Y-69400000D01*
D11*
X131091792Y-68369819D02*
X131425125Y-67893628D01*
X131663220Y-68369819D02*
X131663220Y-67369819D01*
X131663220Y-67369819D02*
X131282268Y-67369819D01*
X131282268Y-67369819D02*
X131187030Y-67417438D01*
X131187030Y-67417438D02*
X131139411Y-67465057D01*
X131139411Y-67465057D02*
X131091792Y-67560295D01*
X131091792Y-67560295D02*
X131091792Y-67703152D01*
X131091792Y-67703152D02*
X131139411Y-67798390D01*
X131139411Y-67798390D02*
X131187030Y-67846009D01*
X131187030Y-67846009D02*
X131282268Y-67893628D01*
X131282268Y-67893628D02*
X131663220Y-67893628D01*
X130520363Y-67798390D02*
X130615601Y-67750771D01*
X130615601Y-67750771D02*
X130663220Y-67703152D01*
X130663220Y-67703152D02*
X130710839Y-67607914D01*
X130710839Y-67607914D02*
X130710839Y-67560295D01*
X130710839Y-67560295D02*
X130663220Y-67465057D01*
X130663220Y-67465057D02*
X130615601Y-67417438D01*
X130615601Y-67417438D02*
X130520363Y-67369819D01*
X130520363Y-67369819D02*
X130329887Y-67369819D01*
X130329887Y-67369819D02*
X130234649Y-67417438D01*
X130234649Y-67417438D02*
X130187030Y-67465057D01*
X130187030Y-67465057D02*
X130139411Y-67560295D01*
X130139411Y-67560295D02*
X130139411Y-67607914D01*
X130139411Y-67607914D02*
X130187030Y-67703152D01*
X130187030Y-67703152D02*
X130234649Y-67750771D01*
X130234649Y-67750771D02*
X130329887Y-67798390D01*
X130329887Y-67798390D02*
X130520363Y-67798390D01*
X130520363Y-67798390D02*
X130615601Y-67846009D01*
X130615601Y-67846009D02*
X130663220Y-67893628D01*
X130663220Y-67893628D02*
X130710839Y-67988866D01*
X130710839Y-67988866D02*
X130710839Y-68179342D01*
X130710839Y-68179342D02*
X130663220Y-68274580D01*
X130663220Y-68274580D02*
X130615601Y-68322200D01*
X130615601Y-68322200D02*
X130520363Y-68369819D01*
X130520363Y-68369819D02*
X130329887Y-68369819D01*
X130329887Y-68369819D02*
X130234649Y-68322200D01*
X130234649Y-68322200D02*
X130187030Y-68274580D01*
X130187030Y-68274580D02*
X130139411Y-68179342D01*
X130139411Y-68179342D02*
X130139411Y-67988866D01*
X130139411Y-67988866D02*
X130187030Y-67893628D01*
X130187030Y-67893628D02*
X130234649Y-67846009D01*
X130234649Y-67846009D02*
X130329887Y-67798390D01*
X134841792Y-75869819D02*
X135175125Y-75393628D01*
X135413220Y-75869819D02*
X135413220Y-74869819D01*
X135413220Y-74869819D02*
X135032268Y-74869819D01*
X135032268Y-74869819D02*
X134937030Y-74917438D01*
X134937030Y-74917438D02*
X134889411Y-74965057D01*
X134889411Y-74965057D02*
X134841792Y-75060295D01*
X134841792Y-75060295D02*
X134841792Y-75203152D01*
X134841792Y-75203152D02*
X134889411Y-75298390D01*
X134889411Y-75298390D02*
X134937030Y-75346009D01*
X134937030Y-75346009D02*
X135032268Y-75393628D01*
X135032268Y-75393628D02*
X135413220Y-75393628D01*
X133889411Y-75869819D02*
X134460839Y-75869819D01*
X134175125Y-75869819D02*
X134175125Y-74869819D01*
X134175125Y-74869819D02*
X134270363Y-75012676D01*
X134270363Y-75012676D02*
X134365601Y-75107914D01*
X134365601Y-75107914D02*
X134460839Y-75155533D01*
X132984649Y-74869819D02*
X133460839Y-74869819D01*
X133460839Y-74869819D02*
X133508458Y-75346009D01*
X133508458Y-75346009D02*
X133460839Y-75298390D01*
X133460839Y-75298390D02*
X133365601Y-75250771D01*
X133365601Y-75250771D02*
X133127506Y-75250771D01*
X133127506Y-75250771D02*
X133032268Y-75298390D01*
X133032268Y-75298390D02*
X132984649Y-75346009D01*
X132984649Y-75346009D02*
X132937030Y-75441247D01*
X132937030Y-75441247D02*
X132937030Y-75679342D01*
X132937030Y-75679342D02*
X132984649Y-75774580D01*
X132984649Y-75774580D02*
X133032268Y-75822200D01*
X133032268Y-75822200D02*
X133127506Y-75869819D01*
X133127506Y-75869819D02*
X133365601Y-75869819D01*
X133365601Y-75869819D02*
X133460839Y-75822200D01*
X133460839Y-75822200D02*
X133508458Y-75774580D01*
X157841792Y-74019819D02*
X158175125Y-73543628D01*
X158413220Y-74019819D02*
X158413220Y-73019819D01*
X158413220Y-73019819D02*
X158032268Y-73019819D01*
X158032268Y-73019819D02*
X157937030Y-73067438D01*
X157937030Y-73067438D02*
X157889411Y-73115057D01*
X157889411Y-73115057D02*
X157841792Y-73210295D01*
X157841792Y-73210295D02*
X157841792Y-73353152D01*
X157841792Y-73353152D02*
X157889411Y-73448390D01*
X157889411Y-73448390D02*
X157937030Y-73496009D01*
X157937030Y-73496009D02*
X158032268Y-73543628D01*
X158032268Y-73543628D02*
X158413220Y-73543628D01*
X156937030Y-73019819D02*
X157413220Y-73019819D01*
X157413220Y-73019819D02*
X157460839Y-73496009D01*
X157460839Y-73496009D02*
X157413220Y-73448390D01*
X157413220Y-73448390D02*
X157317982Y-73400771D01*
X157317982Y-73400771D02*
X157079887Y-73400771D01*
X157079887Y-73400771D02*
X156984649Y-73448390D01*
X156984649Y-73448390D02*
X156937030Y-73496009D01*
X156937030Y-73496009D02*
X156889411Y-73591247D01*
X156889411Y-73591247D02*
X156889411Y-73829342D01*
X156889411Y-73829342D02*
X156937030Y-73924580D01*
X156937030Y-73924580D02*
X156984649Y-73972200D01*
X156984649Y-73972200D02*
X157079887Y-74019819D01*
X157079887Y-74019819D02*
X157317982Y-74019819D01*
X157317982Y-74019819D02*
X157413220Y-73972200D01*
X157413220Y-73972200D02*
X157460839Y-73924580D01*
X155937030Y-74019819D02*
X156508458Y-74019819D01*
X156222744Y-74019819D02*
X156222744Y-73019819D01*
X156222744Y-73019819D02*
X156317982Y-73162676D01*
X156317982Y-73162676D02*
X156413220Y-73257914D01*
X156413220Y-73257914D02*
X156508458Y-73305533D01*
X134841792Y-74369819D02*
X135175125Y-73893628D01*
X135413220Y-74369819D02*
X135413220Y-73369819D01*
X135413220Y-73369819D02*
X135032268Y-73369819D01*
X135032268Y-73369819D02*
X134937030Y-73417438D01*
X134937030Y-73417438D02*
X134889411Y-73465057D01*
X134889411Y-73465057D02*
X134841792Y-73560295D01*
X134841792Y-73560295D02*
X134841792Y-73703152D01*
X134841792Y-73703152D02*
X134889411Y-73798390D01*
X134889411Y-73798390D02*
X134937030Y-73846009D01*
X134937030Y-73846009D02*
X135032268Y-73893628D01*
X135032268Y-73893628D02*
X135413220Y-73893628D01*
X133889411Y-74369819D02*
X134460839Y-74369819D01*
X134175125Y-74369819D02*
X134175125Y-73369819D01*
X134175125Y-73369819D02*
X134270363Y-73512676D01*
X134270363Y-73512676D02*
X134365601Y-73607914D01*
X134365601Y-73607914D02*
X134460839Y-73655533D01*
X133556077Y-73369819D02*
X132937030Y-73369819D01*
X132937030Y-73369819D02*
X133270363Y-73750771D01*
X133270363Y-73750771D02*
X133127506Y-73750771D01*
X133127506Y-73750771D02*
X133032268Y-73798390D01*
X133032268Y-73798390D02*
X132984649Y-73846009D01*
X132984649Y-73846009D02*
X132937030Y-73941247D01*
X132937030Y-73941247D02*
X132937030Y-74179342D01*
X132937030Y-74179342D02*
X132984649Y-74274580D01*
X132984649Y-74274580D02*
X133032268Y-74322200D01*
X133032268Y-74322200D02*
X133127506Y-74369819D01*
X133127506Y-74369819D02*
X133413220Y-74369819D01*
X133413220Y-74369819D02*
X133508458Y-74322200D01*
X133508458Y-74322200D02*
X133556077Y-74274580D01*
X134841792Y-78869819D02*
X135175125Y-78393628D01*
X135413220Y-78869819D02*
X135413220Y-77869819D01*
X135413220Y-77869819D02*
X135032268Y-77869819D01*
X135032268Y-77869819D02*
X134937030Y-77917438D01*
X134937030Y-77917438D02*
X134889411Y-77965057D01*
X134889411Y-77965057D02*
X134841792Y-78060295D01*
X134841792Y-78060295D02*
X134841792Y-78203152D01*
X134841792Y-78203152D02*
X134889411Y-78298390D01*
X134889411Y-78298390D02*
X134937030Y-78346009D01*
X134937030Y-78346009D02*
X135032268Y-78393628D01*
X135032268Y-78393628D02*
X135413220Y-78393628D01*
X133889411Y-78869819D02*
X134460839Y-78869819D01*
X134175125Y-78869819D02*
X134175125Y-77869819D01*
X134175125Y-77869819D02*
X134270363Y-78012676D01*
X134270363Y-78012676D02*
X134365601Y-78107914D01*
X134365601Y-78107914D02*
X134460839Y-78155533D01*
X133413220Y-78869819D02*
X133222744Y-78869819D01*
X133222744Y-78869819D02*
X133127506Y-78822200D01*
X133127506Y-78822200D02*
X133079887Y-78774580D01*
X133079887Y-78774580D02*
X132984649Y-78631723D01*
X132984649Y-78631723D02*
X132937030Y-78441247D01*
X132937030Y-78441247D02*
X132937030Y-78060295D01*
X132937030Y-78060295D02*
X132984649Y-77965057D01*
X132984649Y-77965057D02*
X133032268Y-77917438D01*
X133032268Y-77917438D02*
X133127506Y-77869819D01*
X133127506Y-77869819D02*
X133317982Y-77869819D01*
X133317982Y-77869819D02*
X133413220Y-77917438D01*
X133413220Y-77917438D02*
X133460839Y-77965057D01*
X133460839Y-77965057D02*
X133508458Y-78060295D01*
X133508458Y-78060295D02*
X133508458Y-78298390D01*
X133508458Y-78298390D02*
X133460839Y-78393628D01*
X133460839Y-78393628D02*
X133413220Y-78441247D01*
X133413220Y-78441247D02*
X133317982Y-78488866D01*
X133317982Y-78488866D02*
X133127506Y-78488866D01*
X133127506Y-78488866D02*
X133032268Y-78441247D01*
X133032268Y-78441247D02*
X132984649Y-78393628D01*
X132984649Y-78393628D02*
X132937030Y-78298390D01*
X161341792Y-72519819D02*
X161675125Y-72043628D01*
X161913220Y-72519819D02*
X161913220Y-71519819D01*
X161913220Y-71519819D02*
X161532268Y-71519819D01*
X161532268Y-71519819D02*
X161437030Y-71567438D01*
X161437030Y-71567438D02*
X161389411Y-71615057D01*
X161389411Y-71615057D02*
X161341792Y-71710295D01*
X161341792Y-71710295D02*
X161341792Y-71853152D01*
X161341792Y-71853152D02*
X161389411Y-71948390D01*
X161389411Y-71948390D02*
X161437030Y-71996009D01*
X161437030Y-71996009D02*
X161532268Y-72043628D01*
X161532268Y-72043628D02*
X161913220Y-72043628D01*
X160437030Y-71519819D02*
X160913220Y-71519819D01*
X160913220Y-71519819D02*
X160960839Y-71996009D01*
X160960839Y-71996009D02*
X160913220Y-71948390D01*
X160913220Y-71948390D02*
X160817982Y-71900771D01*
X160817982Y-71900771D02*
X160579887Y-71900771D01*
X160579887Y-71900771D02*
X160484649Y-71948390D01*
X160484649Y-71948390D02*
X160437030Y-71996009D01*
X160437030Y-71996009D02*
X160389411Y-72091247D01*
X160389411Y-72091247D02*
X160389411Y-72329342D01*
X160389411Y-72329342D02*
X160437030Y-72424580D01*
X160437030Y-72424580D02*
X160484649Y-72472200D01*
X160484649Y-72472200D02*
X160579887Y-72519819D01*
X160579887Y-72519819D02*
X160817982Y-72519819D01*
X160817982Y-72519819D02*
X160913220Y-72472200D01*
X160913220Y-72472200D02*
X160960839Y-72424580D01*
X159532268Y-71853152D02*
X159532268Y-72519819D01*
X159770363Y-71472200D02*
X160008458Y-72186485D01*
X160008458Y-72186485D02*
X159389411Y-72186485D01*
X131113275Y-78869819D02*
X131446608Y-78393628D01*
X131684703Y-78869819D02*
X131684703Y-77869819D01*
X131684703Y-77869819D02*
X131303751Y-77869819D01*
X131303751Y-77869819D02*
X131208513Y-77917438D01*
X131208513Y-77917438D02*
X131160894Y-77965057D01*
X131160894Y-77965057D02*
X131113275Y-78060295D01*
X131113275Y-78060295D02*
X131113275Y-78203152D01*
X131113275Y-78203152D02*
X131160894Y-78298390D01*
X131160894Y-78298390D02*
X131208513Y-78346009D01*
X131208513Y-78346009D02*
X131303751Y-78393628D01*
X131303751Y-78393628D02*
X131684703Y-78393628D01*
X130160894Y-78869819D02*
X130732322Y-78869819D01*
X130446608Y-78869819D02*
X130446608Y-77869819D01*
X130446608Y-77869819D02*
X130541846Y-78012676D01*
X130541846Y-78012676D02*
X130637084Y-78107914D01*
X130637084Y-78107914D02*
X130732322Y-78155533D01*
X129589465Y-78298390D02*
X129684703Y-78250771D01*
X129684703Y-78250771D02*
X129732322Y-78203152D01*
X129732322Y-78203152D02*
X129779941Y-78107914D01*
X129779941Y-78107914D02*
X129779941Y-78060295D01*
X129779941Y-78060295D02*
X129732322Y-77965057D01*
X129732322Y-77965057D02*
X129684703Y-77917438D01*
X129684703Y-77917438D02*
X129589465Y-77869819D01*
X129589465Y-77869819D02*
X129398989Y-77869819D01*
X129398989Y-77869819D02*
X129303751Y-77917438D01*
X129303751Y-77917438D02*
X129256132Y-77965057D01*
X129256132Y-77965057D02*
X129208513Y-78060295D01*
X129208513Y-78060295D02*
X129208513Y-78107914D01*
X129208513Y-78107914D02*
X129256132Y-78203152D01*
X129256132Y-78203152D02*
X129303751Y-78250771D01*
X129303751Y-78250771D02*
X129398989Y-78298390D01*
X129398989Y-78298390D02*
X129589465Y-78298390D01*
X129589465Y-78298390D02*
X129684703Y-78346009D01*
X129684703Y-78346009D02*
X129732322Y-78393628D01*
X129732322Y-78393628D02*
X129779941Y-78488866D01*
X129779941Y-78488866D02*
X129779941Y-78679342D01*
X129779941Y-78679342D02*
X129732322Y-78774580D01*
X129732322Y-78774580D02*
X129684703Y-78822200D01*
X129684703Y-78822200D02*
X129589465Y-78869819D01*
X129589465Y-78869819D02*
X129398989Y-78869819D01*
X129398989Y-78869819D02*
X129303751Y-78822200D01*
X129303751Y-78822200D02*
X129256132Y-78774580D01*
X129256132Y-78774580D02*
X129208513Y-78679342D01*
X129208513Y-78679342D02*
X129208513Y-78488866D01*
X129208513Y-78488866D02*
X129256132Y-78393628D01*
X129256132Y-78393628D02*
X129303751Y-78346009D01*
X129303751Y-78346009D02*
X129398989Y-78298390D01*
X134841792Y-71369819D02*
X135175125Y-70893628D01*
X135413220Y-71369819D02*
X135413220Y-70369819D01*
X135413220Y-70369819D02*
X135032268Y-70369819D01*
X135032268Y-70369819D02*
X134937030Y-70417438D01*
X134937030Y-70417438D02*
X134889411Y-70465057D01*
X134889411Y-70465057D02*
X134841792Y-70560295D01*
X134841792Y-70560295D02*
X134841792Y-70703152D01*
X134841792Y-70703152D02*
X134889411Y-70798390D01*
X134889411Y-70798390D02*
X134937030Y-70846009D01*
X134937030Y-70846009D02*
X135032268Y-70893628D01*
X135032268Y-70893628D02*
X135413220Y-70893628D01*
X134365601Y-71369819D02*
X134175125Y-71369819D01*
X134175125Y-71369819D02*
X134079887Y-71322200D01*
X134079887Y-71322200D02*
X134032268Y-71274580D01*
X134032268Y-71274580D02*
X133937030Y-71131723D01*
X133937030Y-71131723D02*
X133889411Y-70941247D01*
X133889411Y-70941247D02*
X133889411Y-70560295D01*
X133889411Y-70560295D02*
X133937030Y-70465057D01*
X133937030Y-70465057D02*
X133984649Y-70417438D01*
X133984649Y-70417438D02*
X134079887Y-70369819D01*
X134079887Y-70369819D02*
X134270363Y-70369819D01*
X134270363Y-70369819D02*
X134365601Y-70417438D01*
X134365601Y-70417438D02*
X134413220Y-70465057D01*
X134413220Y-70465057D02*
X134460839Y-70560295D01*
X134460839Y-70560295D02*
X134460839Y-70798390D01*
X134460839Y-70798390D02*
X134413220Y-70893628D01*
X134413220Y-70893628D02*
X134365601Y-70941247D01*
X134365601Y-70941247D02*
X134270363Y-70988866D01*
X134270363Y-70988866D02*
X134079887Y-70988866D01*
X134079887Y-70988866D02*
X133984649Y-70941247D01*
X133984649Y-70941247D02*
X133937030Y-70893628D01*
X133937030Y-70893628D02*
X133889411Y-70798390D01*
X157841792Y-75519819D02*
X158175125Y-75043628D01*
X158413220Y-75519819D02*
X158413220Y-74519819D01*
X158413220Y-74519819D02*
X158032268Y-74519819D01*
X158032268Y-74519819D02*
X157937030Y-74567438D01*
X157937030Y-74567438D02*
X157889411Y-74615057D01*
X157889411Y-74615057D02*
X157841792Y-74710295D01*
X157841792Y-74710295D02*
X157841792Y-74853152D01*
X157841792Y-74853152D02*
X157889411Y-74948390D01*
X157889411Y-74948390D02*
X157937030Y-74996009D01*
X157937030Y-74996009D02*
X158032268Y-75043628D01*
X158032268Y-75043628D02*
X158413220Y-75043628D01*
X156937030Y-74519819D02*
X157413220Y-74519819D01*
X157413220Y-74519819D02*
X157460839Y-74996009D01*
X157460839Y-74996009D02*
X157413220Y-74948390D01*
X157413220Y-74948390D02*
X157317982Y-74900771D01*
X157317982Y-74900771D02*
X157079887Y-74900771D01*
X157079887Y-74900771D02*
X156984649Y-74948390D01*
X156984649Y-74948390D02*
X156937030Y-74996009D01*
X156937030Y-74996009D02*
X156889411Y-75091247D01*
X156889411Y-75091247D02*
X156889411Y-75329342D01*
X156889411Y-75329342D02*
X156937030Y-75424580D01*
X156937030Y-75424580D02*
X156984649Y-75472200D01*
X156984649Y-75472200D02*
X157079887Y-75519819D01*
X157079887Y-75519819D02*
X157317982Y-75519819D01*
X157317982Y-75519819D02*
X157413220Y-75472200D01*
X157413220Y-75472200D02*
X157460839Y-75424580D01*
X156508458Y-74615057D02*
X156460839Y-74567438D01*
X156460839Y-74567438D02*
X156365601Y-74519819D01*
X156365601Y-74519819D02*
X156127506Y-74519819D01*
X156127506Y-74519819D02*
X156032268Y-74567438D01*
X156032268Y-74567438D02*
X155984649Y-74615057D01*
X155984649Y-74615057D02*
X155937030Y-74710295D01*
X155937030Y-74710295D02*
X155937030Y-74805533D01*
X155937030Y-74805533D02*
X155984649Y-74948390D01*
X155984649Y-74948390D02*
X156556077Y-75519819D01*
X156556077Y-75519819D02*
X155937030Y-75519819D01*
X131091792Y-71369819D02*
X131425125Y-70893628D01*
X131663220Y-71369819D02*
X131663220Y-70369819D01*
X131663220Y-70369819D02*
X131282268Y-70369819D01*
X131282268Y-70369819D02*
X131187030Y-70417438D01*
X131187030Y-70417438D02*
X131139411Y-70465057D01*
X131139411Y-70465057D02*
X131091792Y-70560295D01*
X131091792Y-70560295D02*
X131091792Y-70703152D01*
X131091792Y-70703152D02*
X131139411Y-70798390D01*
X131139411Y-70798390D02*
X131187030Y-70846009D01*
X131187030Y-70846009D02*
X131282268Y-70893628D01*
X131282268Y-70893628D02*
X131663220Y-70893628D01*
X130139411Y-71369819D02*
X130710839Y-71369819D01*
X130425125Y-71369819D02*
X130425125Y-70369819D01*
X130425125Y-70369819D02*
X130520363Y-70512676D01*
X130520363Y-70512676D02*
X130615601Y-70607914D01*
X130615601Y-70607914D02*
X130710839Y-70655533D01*
X129758458Y-70465057D02*
X129710839Y-70417438D01*
X129710839Y-70417438D02*
X129615601Y-70369819D01*
X129615601Y-70369819D02*
X129377506Y-70369819D01*
X129377506Y-70369819D02*
X129282268Y-70417438D01*
X129282268Y-70417438D02*
X129234649Y-70465057D01*
X129234649Y-70465057D02*
X129187030Y-70560295D01*
X129187030Y-70560295D02*
X129187030Y-70655533D01*
X129187030Y-70655533D02*
X129234649Y-70798390D01*
X129234649Y-70798390D02*
X129806077Y-71369819D01*
X129806077Y-71369819D02*
X129187030Y-71369819D01*
X157841792Y-72519819D02*
X158175125Y-72043628D01*
X158413220Y-72519819D02*
X158413220Y-71519819D01*
X158413220Y-71519819D02*
X158032268Y-71519819D01*
X158032268Y-71519819D02*
X157937030Y-71567438D01*
X157937030Y-71567438D02*
X157889411Y-71615057D01*
X157889411Y-71615057D02*
X157841792Y-71710295D01*
X157841792Y-71710295D02*
X157841792Y-71853152D01*
X157841792Y-71853152D02*
X157889411Y-71948390D01*
X157889411Y-71948390D02*
X157937030Y-71996009D01*
X157937030Y-71996009D02*
X158032268Y-72043628D01*
X158032268Y-72043628D02*
X158413220Y-72043628D01*
X156937030Y-71519819D02*
X157413220Y-71519819D01*
X157413220Y-71519819D02*
X157460839Y-71996009D01*
X157460839Y-71996009D02*
X157413220Y-71948390D01*
X157413220Y-71948390D02*
X157317982Y-71900771D01*
X157317982Y-71900771D02*
X157079887Y-71900771D01*
X157079887Y-71900771D02*
X156984649Y-71948390D01*
X156984649Y-71948390D02*
X156937030Y-71996009D01*
X156937030Y-71996009D02*
X156889411Y-72091247D01*
X156889411Y-72091247D02*
X156889411Y-72329342D01*
X156889411Y-72329342D02*
X156937030Y-72424580D01*
X156937030Y-72424580D02*
X156984649Y-72472200D01*
X156984649Y-72472200D02*
X157079887Y-72519819D01*
X157079887Y-72519819D02*
X157317982Y-72519819D01*
X157317982Y-72519819D02*
X157413220Y-72472200D01*
X157413220Y-72472200D02*
X157460839Y-72424580D01*
X156270363Y-71519819D02*
X156175125Y-71519819D01*
X156175125Y-71519819D02*
X156079887Y-71567438D01*
X156079887Y-71567438D02*
X156032268Y-71615057D01*
X156032268Y-71615057D02*
X155984649Y-71710295D01*
X155984649Y-71710295D02*
X155937030Y-71900771D01*
X155937030Y-71900771D02*
X155937030Y-72138866D01*
X155937030Y-72138866D02*
X155984649Y-72329342D01*
X155984649Y-72329342D02*
X156032268Y-72424580D01*
X156032268Y-72424580D02*
X156079887Y-72472200D01*
X156079887Y-72472200D02*
X156175125Y-72519819D01*
X156175125Y-72519819D02*
X156270363Y-72519819D01*
X156270363Y-72519819D02*
X156365601Y-72472200D01*
X156365601Y-72472200D02*
X156413220Y-72424580D01*
X156413220Y-72424580D02*
X156460839Y-72329342D01*
X156460839Y-72329342D02*
X156508458Y-72138866D01*
X156508458Y-72138866D02*
X156508458Y-71900771D01*
X156508458Y-71900771D02*
X156460839Y-71710295D01*
X156460839Y-71710295D02*
X156413220Y-71615057D01*
X156413220Y-71615057D02*
X156365601Y-71567438D01*
X156365601Y-71567438D02*
X156270363Y-71519819D01*
X131091792Y-77369819D02*
X131425125Y-76893628D01*
X131663220Y-77369819D02*
X131663220Y-76369819D01*
X131663220Y-76369819D02*
X131282268Y-76369819D01*
X131282268Y-76369819D02*
X131187030Y-76417438D01*
X131187030Y-76417438D02*
X131139411Y-76465057D01*
X131139411Y-76465057D02*
X131091792Y-76560295D01*
X131091792Y-76560295D02*
X131091792Y-76703152D01*
X131091792Y-76703152D02*
X131139411Y-76798390D01*
X131139411Y-76798390D02*
X131187030Y-76846009D01*
X131187030Y-76846009D02*
X131282268Y-76893628D01*
X131282268Y-76893628D02*
X131663220Y-76893628D01*
X130710839Y-76465057D02*
X130663220Y-76417438D01*
X130663220Y-76417438D02*
X130567982Y-76369819D01*
X130567982Y-76369819D02*
X130329887Y-76369819D01*
X130329887Y-76369819D02*
X130234649Y-76417438D01*
X130234649Y-76417438D02*
X130187030Y-76465057D01*
X130187030Y-76465057D02*
X130139411Y-76560295D01*
X130139411Y-76560295D02*
X130139411Y-76655533D01*
X130139411Y-76655533D02*
X130187030Y-76798390D01*
X130187030Y-76798390D02*
X130758458Y-77369819D01*
X130758458Y-77369819D02*
X130139411Y-77369819D01*
X129520363Y-76369819D02*
X129425125Y-76369819D01*
X129425125Y-76369819D02*
X129329887Y-76417438D01*
X129329887Y-76417438D02*
X129282268Y-76465057D01*
X129282268Y-76465057D02*
X129234649Y-76560295D01*
X129234649Y-76560295D02*
X129187030Y-76750771D01*
X129187030Y-76750771D02*
X129187030Y-76988866D01*
X129187030Y-76988866D02*
X129234649Y-77179342D01*
X129234649Y-77179342D02*
X129282268Y-77274580D01*
X129282268Y-77274580D02*
X129329887Y-77322200D01*
X129329887Y-77322200D02*
X129425125Y-77369819D01*
X129425125Y-77369819D02*
X129520363Y-77369819D01*
X129520363Y-77369819D02*
X129615601Y-77322200D01*
X129615601Y-77322200D02*
X129663220Y-77274580D01*
X129663220Y-77274580D02*
X129710839Y-77179342D01*
X129710839Y-77179342D02*
X129758458Y-76988866D01*
X129758458Y-76988866D02*
X129758458Y-76750771D01*
X129758458Y-76750771D02*
X129710839Y-76560295D01*
X129710839Y-76560295D02*
X129663220Y-76465057D01*
X129663220Y-76465057D02*
X129615601Y-76417438D01*
X129615601Y-76417438D02*
X129520363Y-76369819D01*
X134841792Y-69869819D02*
X135175125Y-69393628D01*
X135413220Y-69869819D02*
X135413220Y-68869819D01*
X135413220Y-68869819D02*
X135032268Y-68869819D01*
X135032268Y-68869819D02*
X134937030Y-68917438D01*
X134937030Y-68917438D02*
X134889411Y-68965057D01*
X134889411Y-68965057D02*
X134841792Y-69060295D01*
X134841792Y-69060295D02*
X134841792Y-69203152D01*
X134841792Y-69203152D02*
X134889411Y-69298390D01*
X134889411Y-69298390D02*
X134937030Y-69346009D01*
X134937030Y-69346009D02*
X135032268Y-69393628D01*
X135032268Y-69393628D02*
X135413220Y-69393628D01*
X134508458Y-68869819D02*
X133841792Y-68869819D01*
X133841792Y-68869819D02*
X134270363Y-69869819D01*
X157841792Y-70869819D02*
X158175125Y-70393628D01*
X158413220Y-70869819D02*
X158413220Y-69869819D01*
X158413220Y-69869819D02*
X158032268Y-69869819D01*
X158032268Y-69869819D02*
X157937030Y-69917438D01*
X157937030Y-69917438D02*
X157889411Y-69965057D01*
X157889411Y-69965057D02*
X157841792Y-70060295D01*
X157841792Y-70060295D02*
X157841792Y-70203152D01*
X157841792Y-70203152D02*
X157889411Y-70298390D01*
X157889411Y-70298390D02*
X157937030Y-70346009D01*
X157937030Y-70346009D02*
X158032268Y-70393628D01*
X158032268Y-70393628D02*
X158413220Y-70393628D01*
X156984649Y-70203152D02*
X156984649Y-70869819D01*
X157222744Y-69822200D02*
X157460839Y-70536485D01*
X157460839Y-70536485D02*
X156841792Y-70536485D01*
X156413220Y-70869819D02*
X156222744Y-70869819D01*
X156222744Y-70869819D02*
X156127506Y-70822200D01*
X156127506Y-70822200D02*
X156079887Y-70774580D01*
X156079887Y-70774580D02*
X155984649Y-70631723D01*
X155984649Y-70631723D02*
X155937030Y-70441247D01*
X155937030Y-70441247D02*
X155937030Y-70060295D01*
X155937030Y-70060295D02*
X155984649Y-69965057D01*
X155984649Y-69965057D02*
X156032268Y-69917438D01*
X156032268Y-69917438D02*
X156127506Y-69869819D01*
X156127506Y-69869819D02*
X156317982Y-69869819D01*
X156317982Y-69869819D02*
X156413220Y-69917438D01*
X156413220Y-69917438D02*
X156460839Y-69965057D01*
X156460839Y-69965057D02*
X156508458Y-70060295D01*
X156508458Y-70060295D02*
X156508458Y-70298390D01*
X156508458Y-70298390D02*
X156460839Y-70393628D01*
X156460839Y-70393628D02*
X156413220Y-70441247D01*
X156413220Y-70441247D02*
X156317982Y-70488866D01*
X156317982Y-70488866D02*
X156127506Y-70488866D01*
X156127506Y-70488866D02*
X156032268Y-70441247D01*
X156032268Y-70441247D02*
X155984649Y-70393628D01*
X155984649Y-70393628D02*
X155937030Y-70298390D01*
X134841792Y-77369819D02*
X135175125Y-76893628D01*
X135413220Y-77369819D02*
X135413220Y-76369819D01*
X135413220Y-76369819D02*
X135032268Y-76369819D01*
X135032268Y-76369819D02*
X134937030Y-76417438D01*
X134937030Y-76417438D02*
X134889411Y-76465057D01*
X134889411Y-76465057D02*
X134841792Y-76560295D01*
X134841792Y-76560295D02*
X134841792Y-76703152D01*
X134841792Y-76703152D02*
X134889411Y-76798390D01*
X134889411Y-76798390D02*
X134937030Y-76846009D01*
X134937030Y-76846009D02*
X135032268Y-76893628D01*
X135032268Y-76893628D02*
X135413220Y-76893628D01*
X133889411Y-77369819D02*
X134460839Y-77369819D01*
X134175125Y-77369819D02*
X134175125Y-76369819D01*
X134175125Y-76369819D02*
X134270363Y-76512676D01*
X134270363Y-76512676D02*
X134365601Y-76607914D01*
X134365601Y-76607914D02*
X134460839Y-76655533D01*
X133556077Y-76369819D02*
X132889411Y-76369819D01*
X132889411Y-76369819D02*
X133317982Y-77369819D01*
X131091792Y-72869819D02*
X131425125Y-72393628D01*
X131663220Y-72869819D02*
X131663220Y-71869819D01*
X131663220Y-71869819D02*
X131282268Y-71869819D01*
X131282268Y-71869819D02*
X131187030Y-71917438D01*
X131187030Y-71917438D02*
X131139411Y-71965057D01*
X131139411Y-71965057D02*
X131091792Y-72060295D01*
X131091792Y-72060295D02*
X131091792Y-72203152D01*
X131091792Y-72203152D02*
X131139411Y-72298390D01*
X131139411Y-72298390D02*
X131187030Y-72346009D01*
X131187030Y-72346009D02*
X131282268Y-72393628D01*
X131282268Y-72393628D02*
X131663220Y-72393628D01*
X130139411Y-72869819D02*
X130710839Y-72869819D01*
X130425125Y-72869819D02*
X130425125Y-71869819D01*
X130425125Y-71869819D02*
X130520363Y-72012676D01*
X130520363Y-72012676D02*
X130615601Y-72107914D01*
X130615601Y-72107914D02*
X130710839Y-72155533D01*
X129520363Y-71869819D02*
X129425125Y-71869819D01*
X129425125Y-71869819D02*
X129329887Y-71917438D01*
X129329887Y-71917438D02*
X129282268Y-71965057D01*
X129282268Y-71965057D02*
X129234649Y-72060295D01*
X129234649Y-72060295D02*
X129187030Y-72250771D01*
X129187030Y-72250771D02*
X129187030Y-72488866D01*
X129187030Y-72488866D02*
X129234649Y-72679342D01*
X129234649Y-72679342D02*
X129282268Y-72774580D01*
X129282268Y-72774580D02*
X129329887Y-72822200D01*
X129329887Y-72822200D02*
X129425125Y-72869819D01*
X129425125Y-72869819D02*
X129520363Y-72869819D01*
X129520363Y-72869819D02*
X129615601Y-72822200D01*
X129615601Y-72822200D02*
X129663220Y-72774580D01*
X129663220Y-72774580D02*
X129710839Y-72679342D01*
X129710839Y-72679342D02*
X129758458Y-72488866D01*
X129758458Y-72488866D02*
X129758458Y-72250771D01*
X129758458Y-72250771D02*
X129710839Y-72060295D01*
X129710839Y-72060295D02*
X129663220Y-71965057D01*
X129663220Y-71965057D02*
X129615601Y-71917438D01*
X129615601Y-71917438D02*
X129520363Y-71869819D01*
X131091792Y-69869819D02*
X131425125Y-69393628D01*
X131663220Y-69869819D02*
X131663220Y-68869819D01*
X131663220Y-68869819D02*
X131282268Y-68869819D01*
X131282268Y-68869819D02*
X131187030Y-68917438D01*
X131187030Y-68917438D02*
X131139411Y-68965057D01*
X131139411Y-68965057D02*
X131091792Y-69060295D01*
X131091792Y-69060295D02*
X131091792Y-69203152D01*
X131091792Y-69203152D02*
X131139411Y-69298390D01*
X131139411Y-69298390D02*
X131187030Y-69346009D01*
X131187030Y-69346009D02*
X131282268Y-69393628D01*
X131282268Y-69393628D02*
X131663220Y-69393628D01*
X130234649Y-68869819D02*
X130425125Y-68869819D01*
X130425125Y-68869819D02*
X130520363Y-68917438D01*
X130520363Y-68917438D02*
X130567982Y-68965057D01*
X130567982Y-68965057D02*
X130663220Y-69107914D01*
X130663220Y-69107914D02*
X130710839Y-69298390D01*
X130710839Y-69298390D02*
X130710839Y-69679342D01*
X130710839Y-69679342D02*
X130663220Y-69774580D01*
X130663220Y-69774580D02*
X130615601Y-69822200D01*
X130615601Y-69822200D02*
X130520363Y-69869819D01*
X130520363Y-69869819D02*
X130329887Y-69869819D01*
X130329887Y-69869819D02*
X130234649Y-69822200D01*
X130234649Y-69822200D02*
X130187030Y-69774580D01*
X130187030Y-69774580D02*
X130139411Y-69679342D01*
X130139411Y-69679342D02*
X130139411Y-69441247D01*
X130139411Y-69441247D02*
X130187030Y-69346009D01*
X130187030Y-69346009D02*
X130234649Y-69298390D01*
X130234649Y-69298390D02*
X130329887Y-69250771D01*
X130329887Y-69250771D02*
X130520363Y-69250771D01*
X130520363Y-69250771D02*
X130615601Y-69298390D01*
X130615601Y-69298390D02*
X130663220Y-69346009D01*
X130663220Y-69346009D02*
X130710839Y-69441247D01*
X134841792Y-72869819D02*
X135175125Y-72393628D01*
X135413220Y-72869819D02*
X135413220Y-71869819D01*
X135413220Y-71869819D02*
X135032268Y-71869819D01*
X135032268Y-71869819D02*
X134937030Y-71917438D01*
X134937030Y-71917438D02*
X134889411Y-71965057D01*
X134889411Y-71965057D02*
X134841792Y-72060295D01*
X134841792Y-72060295D02*
X134841792Y-72203152D01*
X134841792Y-72203152D02*
X134889411Y-72298390D01*
X134889411Y-72298390D02*
X134937030Y-72346009D01*
X134937030Y-72346009D02*
X135032268Y-72393628D01*
X135032268Y-72393628D02*
X135413220Y-72393628D01*
X133889411Y-72869819D02*
X134460839Y-72869819D01*
X134175125Y-72869819D02*
X134175125Y-71869819D01*
X134175125Y-71869819D02*
X134270363Y-72012676D01*
X134270363Y-72012676D02*
X134365601Y-72107914D01*
X134365601Y-72107914D02*
X134460839Y-72155533D01*
X132937030Y-72869819D02*
X133508458Y-72869819D01*
X133222744Y-72869819D02*
X133222744Y-71869819D01*
X133222744Y-71869819D02*
X133317982Y-72012676D01*
X133317982Y-72012676D02*
X133413220Y-72107914D01*
X133413220Y-72107914D02*
X133508458Y-72155533D01*
X161341792Y-70869819D02*
X161675125Y-70393628D01*
X161913220Y-70869819D02*
X161913220Y-69869819D01*
X161913220Y-69869819D02*
X161532268Y-69869819D01*
X161532268Y-69869819D02*
X161437030Y-69917438D01*
X161437030Y-69917438D02*
X161389411Y-69965057D01*
X161389411Y-69965057D02*
X161341792Y-70060295D01*
X161341792Y-70060295D02*
X161341792Y-70203152D01*
X161341792Y-70203152D02*
X161389411Y-70298390D01*
X161389411Y-70298390D02*
X161437030Y-70346009D01*
X161437030Y-70346009D02*
X161532268Y-70393628D01*
X161532268Y-70393628D02*
X161913220Y-70393628D01*
X160437030Y-69869819D02*
X160913220Y-69869819D01*
X160913220Y-69869819D02*
X160960839Y-70346009D01*
X160960839Y-70346009D02*
X160913220Y-70298390D01*
X160913220Y-70298390D02*
X160817982Y-70250771D01*
X160817982Y-70250771D02*
X160579887Y-70250771D01*
X160579887Y-70250771D02*
X160484649Y-70298390D01*
X160484649Y-70298390D02*
X160437030Y-70346009D01*
X160437030Y-70346009D02*
X160389411Y-70441247D01*
X160389411Y-70441247D02*
X160389411Y-70679342D01*
X160389411Y-70679342D02*
X160437030Y-70774580D01*
X160437030Y-70774580D02*
X160484649Y-70822200D01*
X160484649Y-70822200D02*
X160579887Y-70869819D01*
X160579887Y-70869819D02*
X160817982Y-70869819D01*
X160817982Y-70869819D02*
X160913220Y-70822200D01*
X160913220Y-70822200D02*
X160960839Y-70774580D01*
X160056077Y-69869819D02*
X159437030Y-69869819D01*
X159437030Y-69869819D02*
X159770363Y-70250771D01*
X159770363Y-70250771D02*
X159627506Y-70250771D01*
X159627506Y-70250771D02*
X159532268Y-70298390D01*
X159532268Y-70298390D02*
X159484649Y-70346009D01*
X159484649Y-70346009D02*
X159437030Y-70441247D01*
X159437030Y-70441247D02*
X159437030Y-70679342D01*
X159437030Y-70679342D02*
X159484649Y-70774580D01*
X159484649Y-70774580D02*
X159532268Y-70822200D01*
X159532268Y-70822200D02*
X159627506Y-70869819D01*
X159627506Y-70869819D02*
X159913220Y-70869819D01*
X159913220Y-70869819D02*
X160008458Y-70822200D01*
X160008458Y-70822200D02*
X160056077Y-70774580D01*
X131091792Y-74369819D02*
X131425125Y-73893628D01*
X131663220Y-74369819D02*
X131663220Y-73369819D01*
X131663220Y-73369819D02*
X131282268Y-73369819D01*
X131282268Y-73369819D02*
X131187030Y-73417438D01*
X131187030Y-73417438D02*
X131139411Y-73465057D01*
X131139411Y-73465057D02*
X131091792Y-73560295D01*
X131091792Y-73560295D02*
X131091792Y-73703152D01*
X131091792Y-73703152D02*
X131139411Y-73798390D01*
X131139411Y-73798390D02*
X131187030Y-73846009D01*
X131187030Y-73846009D02*
X131282268Y-73893628D01*
X131282268Y-73893628D02*
X131663220Y-73893628D01*
X130139411Y-74369819D02*
X130710839Y-74369819D01*
X130425125Y-74369819D02*
X130425125Y-73369819D01*
X130425125Y-73369819D02*
X130520363Y-73512676D01*
X130520363Y-73512676D02*
X130615601Y-73607914D01*
X130615601Y-73607914D02*
X130710839Y-73655533D01*
X129282268Y-73369819D02*
X129472744Y-73369819D01*
X129472744Y-73369819D02*
X129567982Y-73417438D01*
X129567982Y-73417438D02*
X129615601Y-73465057D01*
X129615601Y-73465057D02*
X129710839Y-73607914D01*
X129710839Y-73607914D02*
X129758458Y-73798390D01*
X129758458Y-73798390D02*
X129758458Y-74179342D01*
X129758458Y-74179342D02*
X129710839Y-74274580D01*
X129710839Y-74274580D02*
X129663220Y-74322200D01*
X129663220Y-74322200D02*
X129567982Y-74369819D01*
X129567982Y-74369819D02*
X129377506Y-74369819D01*
X129377506Y-74369819D02*
X129282268Y-74322200D01*
X129282268Y-74322200D02*
X129234649Y-74274580D01*
X129234649Y-74274580D02*
X129187030Y-74179342D01*
X129187030Y-74179342D02*
X129187030Y-73941247D01*
X129187030Y-73941247D02*
X129234649Y-73846009D01*
X129234649Y-73846009D02*
X129282268Y-73798390D01*
X129282268Y-73798390D02*
X129377506Y-73750771D01*
X129377506Y-73750771D02*
X129567982Y-73750771D01*
X129567982Y-73750771D02*
X129663220Y-73798390D01*
X129663220Y-73798390D02*
X129710839Y-73846009D01*
X129710839Y-73846009D02*
X129758458Y-73941247D01*
X131113275Y-75880704D02*
X131446608Y-75404513D01*
X131684703Y-75880704D02*
X131684703Y-74880704D01*
X131684703Y-74880704D02*
X131303751Y-74880704D01*
X131303751Y-74880704D02*
X131208513Y-74928323D01*
X131208513Y-74928323D02*
X131160894Y-74975942D01*
X131160894Y-74975942D02*
X131113275Y-75071180D01*
X131113275Y-75071180D02*
X131113275Y-75214037D01*
X131113275Y-75214037D02*
X131160894Y-75309275D01*
X131160894Y-75309275D02*
X131208513Y-75356894D01*
X131208513Y-75356894D02*
X131303751Y-75404513D01*
X131303751Y-75404513D02*
X131684703Y-75404513D01*
X130160894Y-75880704D02*
X130732322Y-75880704D01*
X130446608Y-75880704D02*
X130446608Y-74880704D01*
X130446608Y-74880704D02*
X130541846Y-75023561D01*
X130541846Y-75023561D02*
X130637084Y-75118799D01*
X130637084Y-75118799D02*
X130732322Y-75166418D01*
X129303751Y-75214037D02*
X129303751Y-75880704D01*
X129541846Y-74833085D02*
X129779941Y-75547370D01*
X129779941Y-75547370D02*
X129160894Y-75547370D01*
X134841792Y-68369819D02*
X135175125Y-67893628D01*
X135413220Y-68369819D02*
X135413220Y-67369819D01*
X135413220Y-67369819D02*
X135032268Y-67369819D01*
X135032268Y-67369819D02*
X134937030Y-67417438D01*
X134937030Y-67417438D02*
X134889411Y-67465057D01*
X134889411Y-67465057D02*
X134841792Y-67560295D01*
X134841792Y-67560295D02*
X134841792Y-67703152D01*
X134841792Y-67703152D02*
X134889411Y-67798390D01*
X134889411Y-67798390D02*
X134937030Y-67846009D01*
X134937030Y-67846009D02*
X135032268Y-67893628D01*
X135032268Y-67893628D02*
X135413220Y-67893628D01*
X133937030Y-67369819D02*
X134413220Y-67369819D01*
X134413220Y-67369819D02*
X134460839Y-67846009D01*
X134460839Y-67846009D02*
X134413220Y-67798390D01*
X134413220Y-67798390D02*
X134317982Y-67750771D01*
X134317982Y-67750771D02*
X134079887Y-67750771D01*
X134079887Y-67750771D02*
X133984649Y-67798390D01*
X133984649Y-67798390D02*
X133937030Y-67846009D01*
X133937030Y-67846009D02*
X133889411Y-67941247D01*
X133889411Y-67941247D02*
X133889411Y-68179342D01*
X133889411Y-68179342D02*
X133937030Y-68274580D01*
X133937030Y-68274580D02*
X133984649Y-68322200D01*
X133984649Y-68322200D02*
X134079887Y-68369819D01*
X134079887Y-68369819D02*
X134317982Y-68369819D01*
X134317982Y-68369819D02*
X134413220Y-68322200D01*
X134413220Y-68322200D02*
X134460839Y-68274580D01*
X161341792Y-75519819D02*
X161675125Y-75043628D01*
X161913220Y-75519819D02*
X161913220Y-74519819D01*
X161913220Y-74519819D02*
X161532268Y-74519819D01*
X161532268Y-74519819D02*
X161437030Y-74567438D01*
X161437030Y-74567438D02*
X161389411Y-74615057D01*
X161389411Y-74615057D02*
X161341792Y-74710295D01*
X161341792Y-74710295D02*
X161341792Y-74853152D01*
X161341792Y-74853152D02*
X161389411Y-74948390D01*
X161389411Y-74948390D02*
X161437030Y-74996009D01*
X161437030Y-74996009D02*
X161532268Y-75043628D01*
X161532268Y-75043628D02*
X161913220Y-75043628D01*
X160437030Y-74519819D02*
X160913220Y-74519819D01*
X160913220Y-74519819D02*
X160960839Y-74996009D01*
X160960839Y-74996009D02*
X160913220Y-74948390D01*
X160913220Y-74948390D02*
X160817982Y-74900771D01*
X160817982Y-74900771D02*
X160579887Y-74900771D01*
X160579887Y-74900771D02*
X160484649Y-74948390D01*
X160484649Y-74948390D02*
X160437030Y-74996009D01*
X160437030Y-74996009D02*
X160389411Y-75091247D01*
X160389411Y-75091247D02*
X160389411Y-75329342D01*
X160389411Y-75329342D02*
X160437030Y-75424580D01*
X160437030Y-75424580D02*
X160484649Y-75472200D01*
X160484649Y-75472200D02*
X160579887Y-75519819D01*
X160579887Y-75519819D02*
X160817982Y-75519819D01*
X160817982Y-75519819D02*
X160913220Y-75472200D01*
X160913220Y-75472200D02*
X160960839Y-75424580D01*
X159532268Y-74519819D02*
X159722744Y-74519819D01*
X159722744Y-74519819D02*
X159817982Y-74567438D01*
X159817982Y-74567438D02*
X159865601Y-74615057D01*
X159865601Y-74615057D02*
X159960839Y-74757914D01*
X159960839Y-74757914D02*
X160008458Y-74948390D01*
X160008458Y-74948390D02*
X160008458Y-75329342D01*
X160008458Y-75329342D02*
X159960839Y-75424580D01*
X159960839Y-75424580D02*
X159913220Y-75472200D01*
X159913220Y-75472200D02*
X159817982Y-75519819D01*
X159817982Y-75519819D02*
X159627506Y-75519819D01*
X159627506Y-75519819D02*
X159532268Y-75472200D01*
X159532268Y-75472200D02*
X159484649Y-75424580D01*
X159484649Y-75424580D02*
X159437030Y-75329342D01*
X159437030Y-75329342D02*
X159437030Y-75091247D01*
X159437030Y-75091247D02*
X159484649Y-74996009D01*
X159484649Y-74996009D02*
X159532268Y-74948390D01*
X159532268Y-74948390D02*
X159627506Y-74900771D01*
X159627506Y-74900771D02*
X159817982Y-74900771D01*
X159817982Y-74900771D02*
X159913220Y-74948390D01*
X159913220Y-74948390D02*
X159960839Y-74996009D01*
X159960839Y-74996009D02*
X160008458Y-75091247D01*
X161341792Y-74019819D02*
X161675125Y-73543628D01*
X161913220Y-74019819D02*
X161913220Y-73019819D01*
X161913220Y-73019819D02*
X161532268Y-73019819D01*
X161532268Y-73019819D02*
X161437030Y-73067438D01*
X161437030Y-73067438D02*
X161389411Y-73115057D01*
X161389411Y-73115057D02*
X161341792Y-73210295D01*
X161341792Y-73210295D02*
X161341792Y-73353152D01*
X161341792Y-73353152D02*
X161389411Y-73448390D01*
X161389411Y-73448390D02*
X161437030Y-73496009D01*
X161437030Y-73496009D02*
X161532268Y-73543628D01*
X161532268Y-73543628D02*
X161913220Y-73543628D01*
X160437030Y-73019819D02*
X160913220Y-73019819D01*
X160913220Y-73019819D02*
X160960839Y-73496009D01*
X160960839Y-73496009D02*
X160913220Y-73448390D01*
X160913220Y-73448390D02*
X160817982Y-73400771D01*
X160817982Y-73400771D02*
X160579887Y-73400771D01*
X160579887Y-73400771D02*
X160484649Y-73448390D01*
X160484649Y-73448390D02*
X160437030Y-73496009D01*
X160437030Y-73496009D02*
X160389411Y-73591247D01*
X160389411Y-73591247D02*
X160389411Y-73829342D01*
X160389411Y-73829342D02*
X160437030Y-73924580D01*
X160437030Y-73924580D02*
X160484649Y-73972200D01*
X160484649Y-73972200D02*
X160579887Y-74019819D01*
X160579887Y-74019819D02*
X160817982Y-74019819D01*
X160817982Y-74019819D02*
X160913220Y-73972200D01*
X160913220Y-73972200D02*
X160960839Y-73924580D01*
X159484649Y-73019819D02*
X159960839Y-73019819D01*
X159960839Y-73019819D02*
X160008458Y-73496009D01*
X160008458Y-73496009D02*
X159960839Y-73448390D01*
X159960839Y-73448390D02*
X159865601Y-73400771D01*
X159865601Y-73400771D02*
X159627506Y-73400771D01*
X159627506Y-73400771D02*
X159532268Y-73448390D01*
X159532268Y-73448390D02*
X159484649Y-73496009D01*
X159484649Y-73496009D02*
X159437030Y-73591247D01*
X159437030Y-73591247D02*
X159437030Y-73829342D01*
X159437030Y-73829342D02*
X159484649Y-73924580D01*
X159484649Y-73924580D02*
X159532268Y-73972200D01*
X159532268Y-73972200D02*
X159627506Y-74019819D01*
X159627506Y-74019819D02*
X159865601Y-74019819D01*
X159865601Y-74019819D02*
X159960839Y-73972200D01*
X159960839Y-73972200D02*
X160008458Y-73924580D01*
%TO.C,R8*%
D12*
X140314152Y-62115000D02*
X139860024Y-62115000D01*
X140314152Y-63585000D02*
X139860024Y-63585000D01*
%TO.C,R15*%
X145085635Y-74972143D02*
X144631507Y-74972143D01*
X145085635Y-76442143D02*
X144631507Y-76442143D01*
%TO.C,R51*%
X150123571Y-74577064D02*
X150123571Y-74122936D01*
X151593571Y-74577064D02*
X151593571Y-74122936D01*
%TO.C,R13*%
X145085635Y-72400714D02*
X144631507Y-72400714D01*
X145085635Y-73870714D02*
X144631507Y-73870714D01*
%TO.C,R19*%
X145085635Y-80115000D02*
X144631507Y-80115000D01*
X145085635Y-81585000D02*
X144631507Y-81585000D01*
%TO.C,R54*%
X152373571Y-69122936D02*
X152373571Y-69577064D01*
X153843571Y-69122936D02*
X153843571Y-69577064D01*
%TO.C,R18*%
X139881507Y-80115000D02*
X140335635Y-80115000D01*
X139881507Y-81585000D02*
X140335635Y-81585000D01*
%TO.C,R9*%
X145085635Y-67257857D02*
X144631507Y-67257857D01*
X145085635Y-68727857D02*
X144631507Y-68727857D01*
%TO.C,R52*%
X150123571Y-79577064D02*
X150123571Y-79122936D01*
X151593571Y-79577064D02*
X151593571Y-79122936D01*
%TO.C,R12*%
X140335635Y-67259359D02*
X139881507Y-67259359D01*
X140335635Y-68729359D02*
X139881507Y-68729359D01*
%TO.C,R50*%
X150123571Y-69577064D02*
X150123571Y-69122936D01*
X151593571Y-69577064D02*
X151593571Y-69122936D01*
%TO.C,R20*%
X140314152Y-77541769D02*
X139860024Y-77541769D01*
X140314152Y-79011769D02*
X139860024Y-79011769D01*
%TO.C,R7*%
X145085635Y-64686429D02*
X144631507Y-64686429D01*
X145085635Y-66156429D02*
X144631507Y-66156429D01*
%TO.C,R49*%
X150123571Y-64427064D02*
X150123571Y-63972936D01*
X151593571Y-64427064D02*
X151593571Y-63972936D01*
%TO.C,R17*%
X145085635Y-77543571D02*
X144631507Y-77543571D01*
X145085635Y-79013571D02*
X144631507Y-79013571D01*
%TO.C,R10*%
X139860024Y-69828384D02*
X140314152Y-69828384D01*
X139860024Y-71298384D02*
X140314152Y-71298384D01*
%TO.C,R6*%
X139881507Y-64615000D02*
X140335635Y-64615000D01*
X139881507Y-66085000D02*
X140335635Y-66085000D01*
%TO.C,R11*%
X145085635Y-69829286D02*
X144631507Y-69829286D01*
X145085635Y-71299286D02*
X144631507Y-71299286D01*
%TO.C,R53*%
X152373571Y-63972936D02*
X152373571Y-64427064D01*
X153843571Y-63972936D02*
X153843571Y-64427064D01*
%TO.C,R16*%
X140314152Y-72399513D02*
X139860024Y-72399513D01*
X140314152Y-73869513D02*
X139860024Y-73869513D01*
%TO.C,R14*%
X139881507Y-74972744D02*
X140335635Y-74972744D01*
X139881507Y-76442744D02*
X140335635Y-76442744D01*
%TO.C,R5*%
X145085635Y-62115000D02*
X144631507Y-62115000D01*
X145085635Y-63585000D02*
X144631507Y-63585000D01*
%TO.C,R56*%
X152373571Y-79122936D02*
X152373571Y-79577064D01*
X153843571Y-79122936D02*
X153843571Y-79577064D01*
%TO.C,R55*%
X152373571Y-74122936D02*
X152373571Y-74577064D01*
X153843571Y-74122936D02*
X153843571Y-74577064D01*
%TD*%
M02*
