%TF.GenerationSoftware,KiCad,Pcbnew,9.0.1*%
%TF.CreationDate,2026-09-27T15:51:06+08:00*%
%TF.ProjectId,IMD_AMS_latch,494d445f-414d-4535-9f6c-617463682e6b,rev?*%
%TF.SameCoordinates,Original*%
%TF.FileFunction,Copper,L2,Bot*%
%TF.FilePolarity,Positive*%
%FSLAX46Y46*%
G04 Gerber Fmt 4.6, Leading zero omitted, Abs format (unit mm)*
G04 Created by KiCad (PCBNEW 9.0.1) date 2026-09-27 15:51:06*
%MOMM*%
%LPD*%
G01*
G04 APERTURE LIST*
G04 Aperture macros list*
%AMRoundRect*
0 Rectangle with rounded corners*
0 $1 Rounding radius*
0 $2 $3 $4 $5 $6 $7 $8 $9 X,Y pos of 4 corners*
0 Add a 4 corners polygon primitive as box body*
4,1,4,$2,$3,$4,$5,$6,$7,$8,$9,$2,$3,0*
0 Add four circle primitives for the rounded corners*
1,1,$1+$1,$2,$3*
1,1,$1+$1,$4,$5*
1,1,$1+$1,$6,$7*
1,1,$1+$1,$8,$9*
0 Add four rect primitives between the rounded corners*
20,1,$1+$1,$2,$3,$4,$5,0*
20,1,$1+$1,$4,$5,$6,$7,0*
20,1,$1+$1,$6,$7,$8,$9,0*
20,1,$1+$1,$8,$9,$2,$3,0*%
G04 Aperture macros list end*
%TA.AperFunction,ComponentPad*%
%ADD10RoundRect,0.250001X0.499999X0.759999X-0.499999X0.759999X-0.499999X-0.759999X0.499999X-0.759999X0*%
%TD*%
%TA.AperFunction,ComponentPad*%
%ADD11O,1.500000X2.020000*%
%TD*%
%TA.AperFunction,ComponentPad*%
%ADD12R,1.600000X1.600000*%
%TD*%
%TA.AperFunction,ComponentPad*%
%ADD13O,1.600000X1.600000*%
%TD*%
%TA.AperFunction,ComponentPad*%
%ADD14RoundRect,0.250001X-0.759999X0.499999X-0.759999X-0.499999X0.759999X-0.499999X0.759999X0.499999X0*%
%TD*%
%TA.AperFunction,ComponentPad*%
%ADD15O,2.020000X1.500000*%
%TD*%
%TA.AperFunction,ComponentPad*%
%ADD16RoundRect,0.250001X-0.499999X-0.759999X0.499999X-0.759999X0.499999X0.759999X-0.499999X0.759999X0*%
%TD*%
%TA.AperFunction,ComponentPad*%
%ADD17C,3.000000*%
%TD*%
%TA.AperFunction,ComponentPad*%
%ADD18C,2.500000*%
%TD*%
%TA.AperFunction,SMDPad,CuDef*%
%ADD19RoundRect,0.250000X0.475000X-0.337500X0.475000X0.337500X-0.475000X0.337500X-0.475000X-0.337500X0*%
%TD*%
%TA.AperFunction,SMDPad,CuDef*%
%ADD20RoundRect,0.250000X-0.350000X-0.450000X0.350000X-0.450000X0.350000X0.450000X-0.350000X0.450000X0*%
%TD*%
%TA.AperFunction,SMDPad,CuDef*%
%ADD21RoundRect,0.250000X-0.450000X0.350000X-0.450000X-0.350000X0.450000X-0.350000X0.450000X0.350000X0*%
%TD*%
%TA.AperFunction,SMDPad,CuDef*%
%ADD22RoundRect,0.250000X0.337500X0.475000X-0.337500X0.475000X-0.337500X-0.475000X0.337500X-0.475000X0*%
%TD*%
%TA.AperFunction,ViaPad*%
%ADD23C,0.600000*%
%TD*%
%TA.AperFunction,Conductor*%
%ADD24C,0.304800*%
%TD*%
%TA.AperFunction,Conductor*%
%ADD25C,0.381000*%
%TD*%
%TA.AperFunction,Conductor*%
%ADD26C,0.508000*%
%TD*%
%TA.AperFunction,Conductor*%
%ADD27C,1.016000*%
%TD*%
%TA.AperFunction,Conductor*%
%ADD28C,2.032000*%
%TD*%
G04 APERTURE END LIST*
D10*
%TO.P,J13,1,Pin_1*%
%TO.N,Net-(D4-A)*%
X182906800Y-110498600D03*
D11*
%TO.P,J13,2,Pin_2*%
%TO.N,GND*%
X179906800Y-110498600D03*
%TD*%
D12*
%TO.P,D1,1,K*%
%TO.N,+12V*%
X138201400Y-99542600D03*
D13*
%TO.P,D1,2,A*%
%TO.N,Net-(D1-A)*%
X138201400Y-91922600D03*
%TD*%
D14*
%TO.P,J8,1,Pin_1*%
%TO.N,/IMD_MHS*%
X192561000Y-96411400D03*
D15*
%TO.P,J8,2,Pin_2*%
%TO.N,/IMD_OKHS*%
X192561000Y-99411400D03*
%TD*%
D14*
%TO.P,J6,1,Pin_1*%
%TO.N,GND*%
X192561000Y-84448000D03*
D15*
%TO.P,J6,2,Pin_2*%
X192561000Y-87448000D03*
%TD*%
D16*
%TO.P,J9,1,Pin_1*%
%TO.N,/AMS_reset_btn*%
X178763800Y-60443400D03*
D11*
%TO.P,J9,2,Pin_2*%
%TO.N,GND*%
X181763800Y-60443400D03*
%TD*%
D10*
%TO.P,J5,1,Pin_1*%
%TO.N,/AMS_signal*%
X170744400Y-110536600D03*
D11*
%TO.P,J5,2,Pin_2*%
%TO.N,GND*%
X167744400Y-110536600D03*
%TD*%
D10*
%TO.P,J7,1,Pin_1*%
%TO.N,/SDC_IN*%
X152453600Y-110769400D03*
D11*
%TO.P,J7,2,Pin_2*%
%TO.N,/SDC_OUT*%
X149453600Y-110769400D03*
%TD*%
D12*
%TO.P,D2,1,K*%
%TO.N,+12V*%
X138887200Y-79883000D03*
D13*
%TO.P,D2,2,A*%
%TO.N,Net-(D2-A)*%
X138887200Y-72263000D03*
%TD*%
D14*
%TO.P,J2,1,Pin_1*%
%TO.N,+12V*%
X192527800Y-72816200D03*
D15*
%TO.P,J2,2,Pin_2*%
X192527800Y-75816200D03*
%TD*%
D16*
%TO.P,J10,1,Pin_1*%
%TO.N,/IMD_reset_btn*%
X166243000Y-60426600D03*
D11*
%TO.P,J10,2,Pin_2*%
%TO.N,GND*%
X169243000Y-60426600D03*
%TD*%
D17*
%TO.P,K1,1*%
%TO.N,/SDC_IN*%
X142960200Y-95453200D03*
D18*
%TO.P,K1,2*%
%TO.N,+12V*%
X144910200Y-101503200D03*
D17*
%TO.P,K1,3*%
%TO.N,unconnected-(K1-Pad3)*%
X157110200Y-101503200D03*
%TO.P,K1,4*%
%TO.N,Net-(K1-Pad4)*%
X157160200Y-89453200D03*
D18*
%TO.P,K1,5*%
%TO.N,Net-(D1-A)*%
X144910200Y-89503200D03*
%TD*%
D17*
%TO.P,K2,1*%
%TO.N,Net-(K1-Pad4)*%
X142909400Y-75946000D03*
D18*
%TO.P,K2,2*%
%TO.N,+12V*%
X144859400Y-81996000D03*
D17*
%TO.P,K2,3*%
%TO.N,unconnected-(K2-Pad3)*%
X157059400Y-81996000D03*
%TO.P,K2,4*%
%TO.N,/SDC_OUT*%
X157109400Y-69946000D03*
D18*
%TO.P,K2,5*%
%TO.N,Net-(D2-A)*%
X144859400Y-69996000D03*
%TD*%
D19*
%TO.P,C1,1*%
%TO.N,GND*%
X173583600Y-82393700D03*
%TO.P,C1,2*%
%TO.N,+12V*%
X173583600Y-80318700D03*
%TD*%
D20*
%TO.P,R9,1*%
%TO.N,/IMD_MHS*%
X184523136Y-96581200D03*
%TO.P,R9,2*%
%TO.N,GND*%
X186523136Y-96581200D03*
%TD*%
%TO.P,R8,1*%
%TO.N,/IMD_OKHS*%
X184497736Y-99603800D03*
%TO.P,R8,2*%
%TO.N,GND*%
X186497736Y-99603800D03*
%TD*%
D21*
%TO.P,R15,1*%
%TO.N,+12V*%
X174218600Y-87595200D03*
%TO.P,R15,2*%
%TO.N,Net-(U1-EN)*%
X174218600Y-89595200D03*
%TD*%
D22*
%TO.P,C4,1*%
%TO.N,+12V*%
X179370900Y-100711000D03*
%TO.P,C4,2*%
%TO.N,GND*%
X177295900Y-100711000D03*
%TD*%
D23*
%TO.N,GND*%
X188391800Y-97688400D03*
X185801000Y-104343200D03*
X131368800Y-67157600D03*
X195605400Y-95300800D03*
X152831800Y-57785000D03*
X171348400Y-74117200D03*
X181432200Y-93903800D03*
X170459400Y-82854800D03*
X164820600Y-76250800D03*
X131064000Y-105537000D03*
X168630600Y-67868800D03*
X164744400Y-79908400D03*
X152019000Y-92405200D03*
X171551600Y-86791800D03*
X172542200Y-67995800D03*
X171958000Y-82397600D03*
X195072000Y-106349800D03*
X170459400Y-106654600D03*
X142976600Y-110591600D03*
X182600600Y-80264000D03*
X131749800Y-59512200D03*
X170561000Y-114020600D03*
X156972000Y-73710800D03*
X156591000Y-97129600D03*
X131140200Y-82905600D03*
X143814800Y-114503200D03*
X166979600Y-88011000D03*
X175615600Y-93802200D03*
X195554600Y-60756800D03*
X153720800Y-98526600D03*
X156667200Y-94081600D03*
X148945600Y-75692000D03*
X152298400Y-73660000D03*
X183159400Y-57099200D03*
X167005000Y-98602800D03*
X134848600Y-57607200D03*
X137388600Y-114376200D03*
X195783200Y-74828400D03*
X152933400Y-76631800D03*
X143078200Y-57785000D03*
X183032400Y-87782400D03*
X166649400Y-85140800D03*
X165176200Y-82575400D03*
X195783200Y-79908400D03*
X148310600Y-92405200D03*
X177622200Y-84861400D03*
X152806400Y-69926200D03*
X167030400Y-91109800D03*
X147497800Y-73533000D03*
X138836400Y-57785000D03*
X195707000Y-83870800D03*
X195453000Y-99847400D03*
X151968200Y-95351600D03*
X172897800Y-84937600D03*
X131445000Y-64008000D03*
X148336000Y-57785000D03*
X186461400Y-114173000D03*
X183235600Y-78892400D03*
X186029600Y-88442800D03*
X132334000Y-113665000D03*
X135636000Y-87426800D03*
X140716000Y-108254800D03*
X154330400Y-78765400D03*
X149225000Y-77393800D03*
X182118000Y-95961200D03*
X195757800Y-64592200D03*
X193116200Y-57099200D03*
X192379600Y-113944400D03*
X130767080Y-111074606D03*
X176352200Y-72974200D03*
X186385200Y-68046600D03*
X156692600Y-76530200D03*
X188239400Y-57150000D03*
X176784000Y-57099200D03*
X189280800Y-70231000D03*
X177063400Y-67995800D03*
X195681600Y-91465400D03*
X165608000Y-114046000D03*
X177292000Y-99212400D03*
X160223200Y-114096800D03*
X179425600Y-72974200D03*
X180898800Y-68630800D03*
X188696600Y-75057000D03*
X170586400Y-84937600D03*
X165658800Y-106705400D03*
X184048400Y-80289400D03*
X195656200Y-87426800D03*
X178333400Y-93751400D03*
X182778400Y-84785200D03*
X164795200Y-97510600D03*
X165455600Y-101193600D03*
X130987800Y-101600000D03*
X194995800Y-111175800D03*
X170637200Y-57150000D03*
X149377400Y-69824600D03*
X131191000Y-86182200D03*
X175514000Y-114020600D03*
X185978800Y-84836000D03*
X195884800Y-69443600D03*
X170662600Y-101244400D03*
X181254400Y-114020600D03*
X174904400Y-101295200D03*
X164084000Y-57175400D03*
X157505400Y-57734200D03*
X183616600Y-75285600D03*
%TO.N,+12V*%
X170881015Y-79129069D03*
X172431000Y-71109399D03*
X174386214Y-78281470D03*
X179370900Y-99161600D03*
X167198014Y-77757470D03*
X178358800Y-82397600D03*
X180406015Y-82405669D03*
%TO.N,/IMD_OKHS*%
X181254400Y-98069400D03*
%TO.N,Net-(U1-EN)*%
X174244000Y-90830400D03*
%TD*%
D24*
%TO.N,/IMD_OKHS*%
X184461936Y-99568000D02*
X184497736Y-99603800D01*
X182753000Y-99568000D02*
X184461936Y-99568000D01*
X181254400Y-98069400D02*
X182753000Y-99568000D01*
D25*
%TO.N,GND*%
X171961900Y-82393700D02*
X171958000Y-82397600D01*
X177292000Y-99212400D02*
X177292000Y-99314000D01*
X177292000Y-99314000D02*
X177295900Y-99317900D01*
D26*
X173583600Y-82393700D02*
X171961900Y-82393700D01*
X177295900Y-99317900D02*
X177295900Y-100711000D01*
D27*
%TO.N,+12V*%
X192527800Y-67593600D02*
X192527800Y-72816200D01*
X144859400Y-84528000D02*
X140309600Y-89077800D01*
D26*
X172070646Y-80318700D02*
X170881015Y-79129069D01*
X167198014Y-77757470D02*
X167198014Y-75524386D01*
X172669200Y-94767400D02*
X173659800Y-95758000D01*
X178358800Y-82397600D02*
X177495200Y-82397600D01*
D27*
X143645000Y-102768400D02*
X139090400Y-102768400D01*
D26*
X173415200Y-87595200D02*
X172669200Y-88341200D01*
X180314600Y-86182200D02*
X180314600Y-82497084D01*
D27*
X140030200Y-64795400D02*
X189712600Y-64795400D01*
D26*
X172669200Y-88341200D02*
X172669200Y-94767400D01*
D27*
X189712600Y-64795400D02*
X192519300Y-67602100D01*
D26*
X167198014Y-75524386D02*
X171613001Y-71109399D01*
D27*
X138201400Y-101828600D02*
X138201400Y-99542600D01*
X192519300Y-67602100D02*
X192527800Y-67593600D01*
X144910200Y-101503200D02*
X143645000Y-102768400D01*
X139090400Y-102768400D02*
X139090400Y-102717600D01*
D26*
X174218600Y-87595200D02*
X173415200Y-87595200D01*
X174218600Y-87595200D02*
X178901600Y-87595200D01*
X171613001Y-71109399D02*
X172431000Y-71109399D01*
D27*
X144859400Y-81996000D02*
X144859400Y-84528000D01*
D26*
X177495200Y-82397600D02*
X175416300Y-80318700D01*
D27*
X139852400Y-99542600D02*
X140309600Y-99085400D01*
D26*
X179370900Y-99161600D02*
X179370900Y-100711000D01*
X178901600Y-87595200D02*
X180314600Y-86182200D01*
D27*
X141000200Y-81996000D02*
X138887200Y-79883000D01*
X139090400Y-102717600D02*
X138201400Y-101828600D01*
D26*
X173583600Y-80318700D02*
X173583600Y-79084084D01*
D27*
X138201400Y-99542600D02*
X139852400Y-99542600D01*
D28*
X192527800Y-72816200D02*
X192527800Y-75816200D01*
D27*
X144859400Y-81996000D02*
X141000200Y-81996000D01*
X140309600Y-99085400D02*
X140309600Y-98882200D01*
D26*
X170881015Y-79129069D02*
X168569613Y-79129069D01*
X168569613Y-79129069D02*
X167198014Y-77757470D01*
D27*
X140309600Y-97459800D02*
X140309600Y-98983800D01*
X136626600Y-77622400D02*
X136626600Y-68199000D01*
D26*
X173583600Y-79084084D02*
X174386214Y-78281470D01*
X179370900Y-96871700D02*
X179370900Y-99161600D01*
D27*
X138887200Y-79883000D02*
X136626600Y-77622400D01*
D26*
X175416300Y-80318700D02*
X172070646Y-80318700D01*
X178257200Y-95758000D02*
X179370900Y-96871700D01*
D27*
X136626600Y-68199000D02*
X140030200Y-64795400D01*
X140309600Y-89077800D02*
X140309600Y-97459800D01*
D26*
X173659800Y-95758000D02*
X178257200Y-95758000D01*
X180314600Y-82497084D02*
X180406015Y-82405669D01*
D27*
%TO.N,/SDC_IN*%
X146024600Y-95453200D02*
X142960200Y-95453200D01*
X152453600Y-101882200D02*
X146024600Y-95453200D01*
X152453600Y-110769400D02*
X152453600Y-101882200D01*
%TO.N,/SDC_OUT*%
X162052000Y-108559600D02*
X156108400Y-114503200D01*
X162052000Y-74888600D02*
X162052000Y-108559600D01*
X156108400Y-114503200D02*
X151688800Y-114503200D01*
X157109400Y-69946000D02*
X162052000Y-74888600D01*
X149453600Y-112242600D02*
X149453600Y-110769400D01*
X151688800Y-114503200D02*
X151688800Y-114477800D01*
X151688800Y-114477800D02*
X149453600Y-112242600D01*
D24*
%TO.N,/IMD_OKHS*%
X192561000Y-100301000D02*
X192561000Y-99411400D01*
X184497736Y-100601536D02*
X185039000Y-101142800D01*
X184497736Y-99603800D02*
X184497736Y-100601536D01*
X191719200Y-101142800D02*
X192561000Y-100301000D01*
X185039000Y-101142800D02*
X191719200Y-101142800D01*
%TO.N,/IMD_MHS*%
X192561000Y-95406000D02*
X192561000Y-96411400D01*
X185343800Y-94564200D02*
X191719200Y-94564200D01*
X184523136Y-95384864D02*
X185343800Y-94564200D01*
X191719200Y-94564200D02*
X192561000Y-95406000D01*
X184523136Y-96581200D02*
X184523136Y-95384864D01*
D27*
%TO.N,Net-(K1-Pad4)*%
X142909400Y-75946000D02*
X144627600Y-75946000D01*
X157160200Y-88478600D02*
X157160200Y-89453200D01*
X144627600Y-75946000D02*
X157160200Y-88478600D01*
D25*
%TO.N,Net-(U1-EN)*%
X174218600Y-89595200D02*
X174218600Y-90805000D01*
X174218600Y-90805000D02*
X174244000Y-90830400D01*
%TD*%
%TA.AperFunction,Conductor*%
%TO.N,GND*%
G36*
X196190939Y-56240992D02*
G01*
X196236694Y-56293796D01*
X196247900Y-56345307D01*
X196247900Y-114970900D01*
X196228215Y-115037939D01*
X196175411Y-115083694D01*
X196123900Y-115094900D01*
X157242296Y-115094900D01*
X157175257Y-115075215D01*
X157129502Y-115022411D01*
X157119558Y-114953253D01*
X157148583Y-114889697D01*
X157154615Y-114883219D01*
X159628454Y-112409381D01*
X163858900Y-112409381D01*
X163858900Y-112583818D01*
X163892927Y-112754883D01*
X163892929Y-112754891D01*
X163959678Y-112916039D01*
X163959683Y-112916048D01*
X164056586Y-113061073D01*
X164056589Y-113061077D01*
X164179922Y-113184410D01*
X164179926Y-113184413D01*
X164324951Y-113281316D01*
X164324957Y-113281319D01*
X164324958Y-113281320D01*
X164486109Y-113348071D01*
X164657181Y-113382099D01*
X164657185Y-113382100D01*
X164657186Y-113382100D01*
X164831615Y-113382100D01*
X164831616Y-113382099D01*
X165002691Y-113348071D01*
X165163842Y-113281320D01*
X165308874Y-113184413D01*
X165432213Y-113061074D01*
X165529120Y-112916042D01*
X165595871Y-112754891D01*
X165629900Y-112583814D01*
X165629900Y-112409386D01*
X165629899Y-112409381D01*
X172858900Y-112409381D01*
X172858900Y-112583818D01*
X172892927Y-112754883D01*
X172892929Y-112754891D01*
X172959678Y-112916039D01*
X172959683Y-112916048D01*
X173056586Y-113061073D01*
X173056589Y-113061077D01*
X173179922Y-113184410D01*
X173179926Y-113184413D01*
X173324951Y-113281316D01*
X173324957Y-113281319D01*
X173324958Y-113281320D01*
X173486109Y-113348071D01*
X173657181Y-113382099D01*
X173657185Y-113382100D01*
X173657186Y-113382100D01*
X173831615Y-113382100D01*
X173831616Y-113382099D01*
X174002691Y-113348071D01*
X174163842Y-113281320D01*
X174308874Y-113184413D01*
X174432213Y-113061074D01*
X174529120Y-112916042D01*
X174595871Y-112754891D01*
X174629900Y-112583814D01*
X174629900Y-112409386D01*
X174629857Y-112409173D01*
X174625942Y-112389485D01*
X174622341Y-112371381D01*
X176021300Y-112371381D01*
X176021300Y-112545818D01*
X176055327Y-112716883D01*
X176055329Y-112716891D01*
X176122078Y-112878039D01*
X176122083Y-112878048D01*
X176218986Y-113023073D01*
X176218989Y-113023077D01*
X176342322Y-113146410D01*
X176342326Y-113146413D01*
X176487351Y-113243316D01*
X176487357Y-113243319D01*
X176487358Y-113243320D01*
X176648509Y-113310071D01*
X176819581Y-113344099D01*
X176819585Y-113344100D01*
X176819586Y-113344100D01*
X176994015Y-113344100D01*
X176994016Y-113344099D01*
X177165091Y-113310071D01*
X177326242Y-113243320D01*
X177471274Y-113146413D01*
X177594613Y-113023074D01*
X177691520Y-112878042D01*
X177758271Y-112716891D01*
X177792300Y-112545814D01*
X177792300Y-112371386D01*
X177792299Y-112371381D01*
X185021300Y-112371381D01*
X185021300Y-112545818D01*
X185055327Y-112716883D01*
X185055329Y-112716891D01*
X185122078Y-112878039D01*
X185122083Y-112878048D01*
X185218986Y-113023073D01*
X185218989Y-113023077D01*
X185342322Y-113146410D01*
X185342326Y-113146413D01*
X185487351Y-113243316D01*
X185487357Y-113243319D01*
X185487358Y-113243320D01*
X185648509Y-113310071D01*
X185819581Y-113344099D01*
X185819585Y-113344100D01*
X185819586Y-113344100D01*
X185994015Y-113344100D01*
X185994016Y-113344099D01*
X186165091Y-113310071D01*
X186326242Y-113243320D01*
X186471274Y-113146413D01*
X186594613Y-113023074D01*
X186691520Y-112878042D01*
X186758271Y-112716891D01*
X186792300Y-112545814D01*
X186792300Y-112371386D01*
X186758271Y-112200309D01*
X186691520Y-112039158D01*
X186691519Y-112039157D01*
X186691516Y-112039151D01*
X186594613Y-111894126D01*
X186594610Y-111894122D01*
X186471277Y-111770789D01*
X186471273Y-111770786D01*
X186326248Y-111673883D01*
X186326239Y-111673878D01*
X186165091Y-111607129D01*
X186165083Y-111607127D01*
X185994018Y-111573100D01*
X185994014Y-111573100D01*
X185819586Y-111573100D01*
X185819581Y-111573100D01*
X185648516Y-111607127D01*
X185648508Y-111607129D01*
X185487360Y-111673878D01*
X185487351Y-111673883D01*
X185342326Y-111770786D01*
X185342322Y-111770789D01*
X185218989Y-111894122D01*
X185218986Y-111894126D01*
X185122083Y-112039151D01*
X185122078Y-112039160D01*
X185055329Y-112200308D01*
X185055327Y-112200316D01*
X185021300Y-112371381D01*
X177792299Y-112371381D01*
X177758271Y-112200309D01*
X177691520Y-112039158D01*
X177691519Y-112039157D01*
X177691516Y-112039151D01*
X177594613Y-111894126D01*
X177594610Y-111894122D01*
X177471277Y-111770789D01*
X177471273Y-111770786D01*
X177326248Y-111673883D01*
X177326239Y-111673878D01*
X177165091Y-111607129D01*
X177165083Y-111607127D01*
X176994018Y-111573100D01*
X176994014Y-111573100D01*
X176819586Y-111573100D01*
X176819581Y-111573100D01*
X176648516Y-111607127D01*
X176648508Y-111607129D01*
X176487360Y-111673878D01*
X176487351Y-111673883D01*
X176342326Y-111770786D01*
X176342322Y-111770789D01*
X176218989Y-111894122D01*
X176218986Y-111894126D01*
X176122083Y-112039151D01*
X176122078Y-112039160D01*
X176055329Y-112200308D01*
X176055327Y-112200316D01*
X176021300Y-112371381D01*
X174622341Y-112371381D01*
X174604144Y-112279899D01*
X174595871Y-112238309D01*
X174529120Y-112077158D01*
X174529119Y-112077157D01*
X174529116Y-112077151D01*
X174432213Y-111932126D01*
X174432210Y-111932122D01*
X174308877Y-111808789D01*
X174308873Y-111808786D01*
X174163848Y-111711883D01*
X174163839Y-111711878D01*
X174002691Y-111645129D01*
X174002683Y-111645127D01*
X173831618Y-111611100D01*
X173831614Y-111611100D01*
X173657186Y-111611100D01*
X173657181Y-111611100D01*
X173486116Y-111645127D01*
X173486108Y-111645129D01*
X173324960Y-111711878D01*
X173324951Y-111711883D01*
X173179926Y-111808786D01*
X173179922Y-111808789D01*
X173056589Y-111932122D01*
X173056586Y-111932126D01*
X172959683Y-112077151D01*
X172959678Y-112077160D01*
X172892929Y-112238308D01*
X172892927Y-112238316D01*
X172858900Y-112409381D01*
X165629899Y-112409381D01*
X165595871Y-112238309D01*
X165529120Y-112077158D01*
X165529119Y-112077157D01*
X165529116Y-112077151D01*
X165432213Y-111932126D01*
X165432210Y-111932122D01*
X165308877Y-111808789D01*
X165308873Y-111808786D01*
X165163848Y-111711883D01*
X165163839Y-111711878D01*
X165002691Y-111645129D01*
X165002683Y-111645127D01*
X164831618Y-111611100D01*
X164831614Y-111611100D01*
X164657186Y-111611100D01*
X164657181Y-111611100D01*
X164486116Y-111645127D01*
X164486108Y-111645129D01*
X164324960Y-111711878D01*
X164324951Y-111711883D01*
X164179926Y-111808786D01*
X164179922Y-111808789D01*
X164056589Y-111932122D01*
X164056586Y-111932126D01*
X163959683Y-112077151D01*
X163959678Y-112077160D01*
X163892929Y-112238308D01*
X163892927Y-112238316D01*
X163858900Y-112409381D01*
X159628454Y-112409381D01*
X159722222Y-112315613D01*
X161390279Y-110647557D01*
X161859619Y-110178217D01*
X166494400Y-110178217D01*
X166494400Y-110286600D01*
X167299840Y-110286600D01*
X167269155Y-110339747D01*
X167234400Y-110469457D01*
X167234400Y-110603743D01*
X167269155Y-110733453D01*
X167299840Y-110786600D01*
X166494400Y-110786600D01*
X166494400Y-110894982D01*
X166525178Y-111089305D01*
X166585981Y-111276435D01*
X166675304Y-111451743D01*
X166790955Y-111610921D01*
X166930078Y-111750044D01*
X167089256Y-111865695D01*
X167264562Y-111955018D01*
X167451683Y-112015818D01*
X167494400Y-112022584D01*
X167494400Y-110981160D01*
X167547547Y-111011845D01*
X167677257Y-111046600D01*
X167811543Y-111046600D01*
X167941253Y-111011845D01*
X167994400Y-110981160D01*
X167994400Y-112022583D01*
X168037116Y-112015818D01*
X168224237Y-111955018D01*
X168399543Y-111865695D01*
X168558721Y-111750044D01*
X168697844Y-111610921D01*
X168813495Y-111451743D01*
X168902818Y-111276435D01*
X168963621Y-111089305D01*
X168994400Y-110894982D01*
X168994400Y-110786600D01*
X168188960Y-110786600D01*
X168219645Y-110733453D01*
X168254400Y-110603743D01*
X168254400Y-110469457D01*
X168219645Y-110339747D01*
X168188960Y-110286600D01*
X168994400Y-110286600D01*
X168994400Y-110178217D01*
X168963621Y-109983894D01*
X168902818Y-109796762D01*
X168894140Y-109779731D01*
X168894139Y-109779729D01*
X168867061Y-109726584D01*
X169493900Y-109726584D01*
X169493900Y-111346615D01*
X169504400Y-111449395D01*
X169504401Y-111449397D01*
X169524292Y-111509425D01*
X169559586Y-111615935D01*
X169559587Y-111615937D01*
X169651686Y-111765251D01*
X169651689Y-111765255D01*
X169775744Y-111889310D01*
X169775748Y-111889313D01*
X169925062Y-111981412D01*
X169925064Y-111981413D01*
X169925066Y-111981414D01*
X170091603Y-112036599D01*
X170194392Y-112047100D01*
X170194397Y-112047100D01*
X171294403Y-112047100D01*
X171294408Y-112047100D01*
X171397197Y-112036599D01*
X171563734Y-111981414D01*
X171713055Y-111889311D01*
X171837111Y-111765255D01*
X171929214Y-111615934D01*
X171984399Y-111449397D01*
X171994900Y-111346608D01*
X171994900Y-110140217D01*
X178656800Y-110140217D01*
X178656800Y-110248600D01*
X179462240Y-110248600D01*
X179431555Y-110301747D01*
X179396800Y-110431457D01*
X179396800Y-110565743D01*
X179431555Y-110695453D01*
X179462240Y-110748600D01*
X178656800Y-110748600D01*
X178656800Y-110856982D01*
X178687578Y-111051305D01*
X178748381Y-111238435D01*
X178837704Y-111413743D01*
X178953355Y-111572921D01*
X179092478Y-111712044D01*
X179251656Y-111827695D01*
X179426962Y-111917018D01*
X179614083Y-111977818D01*
X179656800Y-111984584D01*
X179656800Y-110943160D01*
X179709947Y-110973845D01*
X179839657Y-111008600D01*
X179973943Y-111008600D01*
X180103653Y-110973845D01*
X180156800Y-110943160D01*
X180156800Y-111984583D01*
X180199516Y-111977818D01*
X180386637Y-111917018D01*
X180561943Y-111827695D01*
X180721121Y-111712044D01*
X180860244Y-111572921D01*
X180975895Y-111413743D01*
X181065218Y-111238435D01*
X181126021Y-111051305D01*
X181156800Y-110856982D01*
X181156800Y-110748600D01*
X180351360Y-110748600D01*
X180382045Y-110695453D01*
X180416800Y-110565743D01*
X180416800Y-110431457D01*
X180382045Y-110301747D01*
X180351360Y-110248600D01*
X181156800Y-110248600D01*
X181156800Y-110140217D01*
X181126021Y-109945894D01*
X181065218Y-109758762D01*
X181056540Y-109741731D01*
X181056539Y-109741729D01*
X181029461Y-109688584D01*
X181656300Y-109688584D01*
X181656300Y-111308615D01*
X181666800Y-111411395D01*
X181666801Y-111411397D01*
X181694393Y-111494665D01*
X181721986Y-111577935D01*
X181721987Y-111577937D01*
X181814086Y-111727251D01*
X181814089Y-111727255D01*
X181938144Y-111851310D01*
X181938148Y-111851313D01*
X182087462Y-111943412D01*
X182087464Y-111943413D01*
X182087466Y-111943414D01*
X182254003Y-111998599D01*
X182356792Y-112009100D01*
X182356797Y-112009100D01*
X183456803Y-112009100D01*
X183456808Y-112009100D01*
X183559597Y-111998599D01*
X183726134Y-111943414D01*
X183875455Y-111851311D01*
X183999511Y-111727255D01*
X184091614Y-111577934D01*
X184146799Y-111411397D01*
X184157300Y-111308608D01*
X184157300Y-110533392D01*
X189097980Y-110533392D01*
X189097980Y-110803019D01*
X189128166Y-111070925D01*
X189128168Y-111070937D01*
X189188164Y-111333800D01*
X189188167Y-111333808D01*
X189277214Y-111588288D01*
X189394194Y-111831200D01*
X189405212Y-111848735D01*
X189537642Y-112059495D01*
X189649937Y-112200309D01*
X189705034Y-112269399D01*
X189705746Y-112270291D01*
X189896395Y-112460940D01*
X190107191Y-112629044D01*
X190335483Y-112772490D01*
X190578401Y-112889473D01*
X190760288Y-112953118D01*
X190832877Y-112978518D01*
X190832885Y-112978521D01*
X190832888Y-112978521D01*
X190832889Y-112978522D01*
X191095748Y-113038518D01*
X191363667Y-113068705D01*
X191363668Y-113068706D01*
X191363671Y-113068706D01*
X191633292Y-113068706D01*
X191633292Y-113068705D01*
X191901212Y-113038518D01*
X192164071Y-112978522D01*
X192418559Y-112889473D01*
X192661477Y-112772490D01*
X192889769Y-112629044D01*
X193100565Y-112460940D01*
X193291214Y-112270291D01*
X193459318Y-112059495D01*
X193602764Y-111831203D01*
X193719747Y-111588285D01*
X193808796Y-111333797D01*
X193868792Y-111070938D01*
X193898980Y-110803015D01*
X193898980Y-110533397D01*
X193868792Y-110265474D01*
X193808796Y-110002615D01*
X193719747Y-109748127D01*
X193602764Y-109505209D01*
X193459318Y-109276917D01*
X193291214Y-109066121D01*
X193100565Y-108875472D01*
X192889769Y-108707368D01*
X192661477Y-108563922D01*
X192661474Y-108563920D01*
X192418562Y-108446940D01*
X192164082Y-108357893D01*
X192164074Y-108357890D01*
X191966926Y-108312893D01*
X191901212Y-108297894D01*
X191901208Y-108297893D01*
X191901199Y-108297892D01*
X191633293Y-108267706D01*
X191633289Y-108267706D01*
X191363671Y-108267706D01*
X191363666Y-108267706D01*
X191095760Y-108297892D01*
X191095748Y-108297894D01*
X190832885Y-108357890D01*
X190832877Y-108357893D01*
X190578397Y-108446940D01*
X190335485Y-108563920D01*
X190107192Y-108707367D01*
X189896395Y-108875471D01*
X189705745Y-109066121D01*
X189537641Y-109276918D01*
X189394194Y-109505211D01*
X189277214Y-109748123D01*
X189188167Y-110002603D01*
X189188164Y-110002611D01*
X189128168Y-110265474D01*
X189128166Y-110265486D01*
X189097980Y-110533392D01*
X184157300Y-110533392D01*
X184157300Y-109688592D01*
X184146799Y-109585803D01*
X184091614Y-109419266D01*
X184003811Y-109276917D01*
X183999513Y-109269948D01*
X183999510Y-109269944D01*
X183875455Y-109145889D01*
X183875451Y-109145886D01*
X183726137Y-109053787D01*
X183726135Y-109053786D01*
X183642583Y-109026100D01*
X183559597Y-108998601D01*
X183559595Y-108998600D01*
X183456815Y-108988100D01*
X183456808Y-108988100D01*
X182356792Y-108988100D01*
X182356784Y-108988100D01*
X182254004Y-108998600D01*
X182254003Y-108998601D01*
X182087464Y-109053786D01*
X182087462Y-109053787D01*
X181938148Y-109145886D01*
X181938144Y-109145889D01*
X181814089Y-109269944D01*
X181814086Y-109269948D01*
X181721987Y-109419262D01*
X181721986Y-109419264D01*
X181666801Y-109585803D01*
X181666800Y-109585804D01*
X181656300Y-109688584D01*
X181029461Y-109688584D01*
X180975897Y-109583458D01*
X180860244Y-109424278D01*
X180721121Y-109285155D01*
X180561943Y-109169504D01*
X180386635Y-109080181D01*
X180199505Y-109019378D01*
X180156800Y-109012614D01*
X180156800Y-110054039D01*
X180103653Y-110023355D01*
X179973943Y-109988600D01*
X179839657Y-109988600D01*
X179709947Y-110023355D01*
X179656800Y-110054039D01*
X179656800Y-109012614D01*
X179656799Y-109012614D01*
X179614094Y-109019378D01*
X179426964Y-109080181D01*
X179251656Y-109169504D01*
X179092478Y-109285155D01*
X178953355Y-109424278D01*
X178837704Y-109583456D01*
X178748381Y-109758764D01*
X178687578Y-109945894D01*
X178656800Y-110140217D01*
X171994900Y-110140217D01*
X171994900Y-109726592D01*
X171984399Y-109623803D01*
X171929214Y-109457266D01*
X171928762Y-109456534D01*
X171837113Y-109307948D01*
X171837110Y-109307944D01*
X171713055Y-109183889D01*
X171713051Y-109183886D01*
X171563737Y-109091787D01*
X171563735Y-109091786D01*
X171480465Y-109064193D01*
X171397197Y-109036601D01*
X171397195Y-109036600D01*
X171294415Y-109026100D01*
X171294408Y-109026100D01*
X170194392Y-109026100D01*
X170194384Y-109026100D01*
X170091604Y-109036600D01*
X170091603Y-109036601D01*
X169925064Y-109091786D01*
X169925062Y-109091787D01*
X169775748Y-109183886D01*
X169775744Y-109183889D01*
X169651689Y-109307944D01*
X169651686Y-109307948D01*
X169559587Y-109457262D01*
X169559586Y-109457264D01*
X169504401Y-109623803D01*
X169504400Y-109623804D01*
X169493900Y-109726584D01*
X168867061Y-109726584D01*
X168813497Y-109621458D01*
X168697844Y-109462278D01*
X168558721Y-109323155D01*
X168399543Y-109207504D01*
X168224235Y-109118181D01*
X168037105Y-109057378D01*
X167994400Y-109050614D01*
X167994400Y-110092039D01*
X167941253Y-110061355D01*
X167811543Y-110026600D01*
X167677257Y-110026600D01*
X167547547Y-110061355D01*
X167494400Y-110092039D01*
X167494400Y-109050614D01*
X167494399Y-109050614D01*
X167451694Y-109057378D01*
X167264564Y-109118181D01*
X167089256Y-109207504D01*
X166930078Y-109323155D01*
X166790955Y-109462278D01*
X166675304Y-109621456D01*
X166585981Y-109796764D01*
X166525178Y-109983894D01*
X166494400Y-110178217D01*
X161859619Y-110178217D01*
X161952166Y-110085670D01*
X162835351Y-109202484D01*
X162835351Y-109202483D01*
X162835354Y-109202481D01*
X162945722Y-109037303D01*
X163021744Y-108853768D01*
X163022480Y-108850072D01*
X163060499Y-108658933D01*
X163060500Y-108658931D01*
X163060500Y-102324181D01*
X193635500Y-102324181D01*
X193635500Y-102498618D01*
X193669527Y-102669683D01*
X193669529Y-102669691D01*
X193736278Y-102830839D01*
X193736283Y-102830848D01*
X193833186Y-102975873D01*
X193833189Y-102975877D01*
X193956522Y-103099210D01*
X193956526Y-103099213D01*
X194101551Y-103196116D01*
X194101557Y-103196119D01*
X194101558Y-103196120D01*
X194262709Y-103262871D01*
X194433781Y-103296899D01*
X194433785Y-103296900D01*
X194433786Y-103296900D01*
X194608215Y-103296900D01*
X194608216Y-103296899D01*
X194779291Y-103262871D01*
X194940442Y-103196120D01*
X195085474Y-103099213D01*
X195208813Y-102975874D01*
X195305720Y-102830842D01*
X195372471Y-102669691D01*
X195406500Y-102498614D01*
X195406500Y-102324186D01*
X195372471Y-102153109D01*
X195305720Y-101991958D01*
X195305719Y-101991957D01*
X195305716Y-101991951D01*
X195208813Y-101846926D01*
X195208810Y-101846922D01*
X195085477Y-101723589D01*
X195085473Y-101723586D01*
X194940448Y-101626683D01*
X194940439Y-101626678D01*
X194779291Y-101559929D01*
X194779283Y-101559927D01*
X194608218Y-101525900D01*
X194608214Y-101525900D01*
X194433786Y-101525900D01*
X194433781Y-101525900D01*
X194262716Y-101559927D01*
X194262708Y-101559929D01*
X194101560Y-101626678D01*
X194101551Y-101626683D01*
X193956526Y-101723586D01*
X193956522Y-101723589D01*
X193833189Y-101846922D01*
X193833186Y-101846926D01*
X193736283Y-101991951D01*
X193736278Y-101991960D01*
X193669529Y-102153108D01*
X193669527Y-102153116D01*
X193635500Y-102324181D01*
X163060500Y-102324181D01*
X163060500Y-101235986D01*
X176208401Y-101235986D01*
X176218894Y-101338697D01*
X176274041Y-101505119D01*
X176274043Y-101505124D01*
X176366084Y-101654345D01*
X176490054Y-101778315D01*
X176639275Y-101870356D01*
X176639280Y-101870358D01*
X176805702Y-101925505D01*
X176805709Y-101925506D01*
X176908419Y-101935999D01*
X177045899Y-101935999D01*
X177045900Y-101935998D01*
X177045900Y-100961000D01*
X176208401Y-100961000D01*
X176208401Y-101235986D01*
X163060500Y-101235986D01*
X163060500Y-100186013D01*
X176208400Y-100186013D01*
X176208400Y-100461000D01*
X177045900Y-100461000D01*
X177045900Y-99486000D01*
X176908427Y-99486000D01*
X176908412Y-99486001D01*
X176805702Y-99496494D01*
X176639280Y-99551641D01*
X176639275Y-99551643D01*
X176490054Y-99643684D01*
X176366084Y-99767654D01*
X176274043Y-99916875D01*
X176274041Y-99916880D01*
X176218894Y-100083302D01*
X176218893Y-100083309D01*
X176208400Y-100186013D01*
X163060500Y-100186013D01*
X163060500Y-88266885D01*
X171914699Y-88266885D01*
X171914699Y-88266887D01*
X171914699Y-88266888D01*
X171914699Y-88415512D01*
X171914699Y-88415516D01*
X171914700Y-88421636D01*
X171914700Y-94687952D01*
X171914699Y-94687978D01*
X171914699Y-94693088D01*
X171914699Y-94841712D01*
X171921863Y-94877724D01*
X171943695Y-94987480D01*
X171950331Y-95003500D01*
X171954105Y-95012612D01*
X171954106Y-95012615D01*
X172000566Y-95124781D01*
X172000572Y-95124792D01*
X172083142Y-95248368D01*
X173178831Y-96344057D01*
X173178834Y-96344059D01*
X173302411Y-96426630D01*
X173382845Y-96459946D01*
X173439720Y-96483505D01*
X173463905Y-96488315D01*
X173512687Y-96498019D01*
X173585486Y-96512501D01*
X173585488Y-96512501D01*
X173740226Y-96512501D01*
X173740246Y-96512500D01*
X177893313Y-96512500D01*
X177960352Y-96532185D01*
X177980994Y-96548819D01*
X178580081Y-97147905D01*
X178613566Y-97209228D01*
X178616400Y-97235586D01*
X178616400Y-98866653D01*
X178606962Y-98914101D01*
X178606549Y-98915100D01*
X178601162Y-98928106D01*
X178601160Y-98928111D01*
X178570400Y-99082753D01*
X178570400Y-99240446D01*
X178601161Y-99395089D01*
X178601163Y-99395097D01*
X178606961Y-99409094D01*
X178608587Y-99417271D01*
X178611377Y-99421612D01*
X178616400Y-99456547D01*
X178616400Y-99542410D01*
X178596715Y-99609449D01*
X178569316Y-99639672D01*
X178564745Y-99643286D01*
X178440688Y-99767343D01*
X178440683Y-99767349D01*
X178438641Y-99770661D01*
X178436647Y-99772453D01*
X178436207Y-99773011D01*
X178436111Y-99772935D01*
X178386691Y-99817383D01*
X178317728Y-99828602D01*
X178253647Y-99800755D01*
X178227568Y-99770656D01*
X178225719Y-99767659D01*
X178225716Y-99767655D01*
X178101745Y-99643684D01*
X177952524Y-99551643D01*
X177952519Y-99551641D01*
X177786097Y-99496494D01*
X177786090Y-99496493D01*
X177683386Y-99486000D01*
X177545900Y-99486000D01*
X177545900Y-101935999D01*
X177683372Y-101935999D01*
X177683386Y-101935998D01*
X177786097Y-101925505D01*
X177952519Y-101870358D01*
X177952524Y-101870356D01*
X178101745Y-101778315D01*
X178225718Y-101654342D01*
X178227565Y-101651348D01*
X178229369Y-101649724D01*
X178230198Y-101648677D01*
X178230376Y-101648818D01*
X178279510Y-101604621D01*
X178348473Y-101593396D01*
X178412556Y-101621236D01*
X178438643Y-101651341D01*
X178440688Y-101654656D01*
X178564744Y-101778712D01*
X178714066Y-101870814D01*
X178880603Y-101925999D01*
X178983391Y-101936500D01*
X179758408Y-101936499D01*
X179758416Y-101936498D01*
X179758419Y-101936498D01*
X179842303Y-101927929D01*
X179861197Y-101925999D01*
X180027734Y-101870814D01*
X180177056Y-101778712D01*
X180301112Y-101654656D01*
X180393214Y-101505334D01*
X180448399Y-101338797D01*
X180458900Y-101236009D01*
X180458899Y-100185992D01*
X180448399Y-100083203D01*
X180393214Y-99916666D01*
X180301112Y-99767344D01*
X180177056Y-99643288D01*
X180177054Y-99643286D01*
X180172484Y-99639672D01*
X180170819Y-99637320D01*
X180168197Y-99636123D01*
X180150752Y-99608978D01*
X180132110Y-99582648D01*
X180131506Y-99579031D01*
X180130423Y-99577345D01*
X180125400Y-99542410D01*
X180125400Y-99456547D01*
X180134839Y-99409094D01*
X180140637Y-99395097D01*
X180171400Y-99240442D01*
X180171400Y-99082758D01*
X180171400Y-99082755D01*
X180171399Y-99082753D01*
X180140639Y-98928111D01*
X180140638Y-98928108D01*
X180140637Y-98928103D01*
X180134837Y-98914101D01*
X180125400Y-98866653D01*
X180125400Y-97990553D01*
X180453900Y-97990553D01*
X180453900Y-98148246D01*
X180484661Y-98302889D01*
X180484664Y-98302901D01*
X180545002Y-98448572D01*
X180545009Y-98448585D01*
X180632610Y-98579688D01*
X180632613Y-98579692D01*
X180744107Y-98691186D01*
X180744111Y-98691189D01*
X180875214Y-98778790D01*
X180875227Y-98778797D01*
X180962630Y-98814999D01*
X181020903Y-98839137D01*
X181083743Y-98851636D01*
X181145652Y-98884020D01*
X181147232Y-98885572D01*
X182336796Y-100075137D01*
X182336800Y-100075140D01*
X182398902Y-100116635D01*
X182443736Y-100146592D01*
X182562556Y-100195809D01*
X182562560Y-100195809D01*
X182562561Y-100195810D01*
X182688692Y-100220900D01*
X182688695Y-100220900D01*
X183322936Y-100220900D01*
X183389975Y-100240585D01*
X183435730Y-100293389D01*
X183440640Y-100305890D01*
X183451791Y-100339542D01*
X183462921Y-100373131D01*
X183462923Y-100373136D01*
X183490232Y-100417411D01*
X183555024Y-100522456D01*
X183679080Y-100646512D01*
X183820364Y-100733656D01*
X183867088Y-100785603D01*
X183869828Y-100791741D01*
X183869927Y-100791980D01*
X183919144Y-100910800D01*
X183952686Y-100961000D01*
X183990598Y-101017740D01*
X183990599Y-101017741D01*
X184622795Y-101649936D01*
X184622798Y-101649939D01*
X184711341Y-101709101D01*
X184711340Y-101709101D01*
X184725152Y-101718329D01*
X184729736Y-101721392D01*
X184848556Y-101770609D01*
X184848560Y-101770609D01*
X184848561Y-101770610D01*
X184974692Y-101795700D01*
X184974695Y-101795700D01*
X191783507Y-101795700D01*
X191870904Y-101778315D01*
X191909644Y-101770609D01*
X192028464Y-101721392D01*
X192135400Y-101649941D01*
X193068141Y-100717199D01*
X193105055Y-100661950D01*
X193158665Y-100617144D01*
X193169836Y-100612909D01*
X193301025Y-100570284D01*
X193476405Y-100480924D01*
X193635646Y-100365228D01*
X193774828Y-100226046D01*
X193890524Y-100066805D01*
X193979884Y-99891425D01*
X194040709Y-99704226D01*
X194051306Y-99637320D01*
X194071500Y-99509822D01*
X194071500Y-99312977D01*
X194040709Y-99118573D01*
X193979882Y-98931370D01*
X193902142Y-98778797D01*
X193890524Y-98755995D01*
X193774828Y-98596754D01*
X193635646Y-98457572D01*
X193476405Y-98341876D01*
X193476158Y-98341750D01*
X193301029Y-98252517D01*
X193113826Y-98191690D01*
X192919422Y-98160900D01*
X192919417Y-98160900D01*
X192202583Y-98160900D01*
X192202578Y-98160900D01*
X192008173Y-98191690D01*
X191820970Y-98252517D01*
X191645594Y-98341876D01*
X191561053Y-98403300D01*
X191486354Y-98457572D01*
X191486352Y-98457574D01*
X191486351Y-98457574D01*
X191347174Y-98596751D01*
X191347174Y-98596752D01*
X191347172Y-98596754D01*
X191304778Y-98655104D01*
X191231476Y-98755994D01*
X191142117Y-98931370D01*
X191081290Y-99118573D01*
X191050500Y-99312977D01*
X191050500Y-99509822D01*
X191081290Y-99704226D01*
X191142117Y-99891429D01*
X191220156Y-100044589D01*
X191231476Y-100066805D01*
X191347172Y-100226046D01*
X191347174Y-100226048D01*
X191399345Y-100278219D01*
X191432830Y-100339542D01*
X191427846Y-100409234D01*
X191385974Y-100465167D01*
X191320510Y-100489584D01*
X191311664Y-100489900D01*
X187665051Y-100489900D01*
X187598012Y-100470215D01*
X187552257Y-100417411D01*
X187542313Y-100348253D01*
X187547345Y-100326896D01*
X187587241Y-100206497D01*
X187587242Y-100206490D01*
X187597735Y-100103786D01*
X187597736Y-100103773D01*
X187597736Y-99853800D01*
X186621736Y-99853800D01*
X186554697Y-99834115D01*
X186508942Y-99781311D01*
X186497736Y-99729800D01*
X186497736Y-99603800D01*
X186371736Y-99603800D01*
X186304697Y-99584115D01*
X186258942Y-99531311D01*
X186247736Y-99479800D01*
X186247736Y-99353800D01*
X186747736Y-99353800D01*
X187597735Y-99353800D01*
X187597735Y-99103828D01*
X187597734Y-99103813D01*
X187587241Y-99001102D01*
X187532094Y-98834680D01*
X187532092Y-98834675D01*
X187440051Y-98685454D01*
X187316081Y-98561484D01*
X187166860Y-98469443D01*
X187166855Y-98469441D01*
X187000433Y-98414294D01*
X187000426Y-98414293D01*
X186897722Y-98403800D01*
X186747736Y-98403800D01*
X186747736Y-99353800D01*
X186247736Y-99353800D01*
X186247736Y-98403800D01*
X186097763Y-98403800D01*
X186097748Y-98403801D01*
X185995038Y-98414294D01*
X185828616Y-98469441D01*
X185828611Y-98469443D01*
X185679393Y-98561482D01*
X185585770Y-98655105D01*
X185524446Y-98688589D01*
X185454755Y-98683605D01*
X185410408Y-98655104D01*
X185316393Y-98561089D01*
X185316392Y-98561088D01*
X185167070Y-98468986D01*
X185000533Y-98413801D01*
X185000531Y-98413800D01*
X184897746Y-98403300D01*
X184097734Y-98403300D01*
X184097716Y-98403301D01*
X183994939Y-98413800D01*
X183994936Y-98413801D01*
X183828404Y-98468985D01*
X183828399Y-98468987D01*
X183679078Y-98561089D01*
X183555025Y-98685142D01*
X183462920Y-98834469D01*
X183459870Y-98841011D01*
X183457558Y-98839933D01*
X183424610Y-98887537D01*
X183360099Y-98914370D01*
X183346662Y-98915100D01*
X183074802Y-98915100D01*
X183007763Y-98895415D01*
X182987121Y-98878781D01*
X182070572Y-97962232D01*
X182037087Y-97900909D01*
X182036652Y-97898824D01*
X182024137Y-97835903D01*
X181974288Y-97715556D01*
X181963797Y-97690227D01*
X181963790Y-97690214D01*
X181876189Y-97559111D01*
X181876186Y-97559107D01*
X181764692Y-97447613D01*
X181764688Y-97447610D01*
X181633585Y-97360009D01*
X181633572Y-97360002D01*
X181487901Y-97299664D01*
X181487889Y-97299661D01*
X181333245Y-97268900D01*
X181333242Y-97268900D01*
X181175558Y-97268900D01*
X181175555Y-97268900D01*
X181020910Y-97299661D01*
X181020898Y-97299664D01*
X180875227Y-97360002D01*
X180875214Y-97360009D01*
X180744111Y-97447610D01*
X180744107Y-97447613D01*
X180632613Y-97559107D01*
X180632610Y-97559111D01*
X180545009Y-97690214D01*
X180545002Y-97690227D01*
X180484664Y-97835898D01*
X180484661Y-97835910D01*
X180453900Y-97990553D01*
X180125400Y-97990553D01*
X180125400Y-96952146D01*
X180125401Y-96952125D01*
X180125401Y-96797385D01*
X180096406Y-96651626D01*
X180096405Y-96651625D01*
X180096405Y-96651621D01*
X180067236Y-96581200D01*
X180039532Y-96514315D01*
X180039531Y-96514313D01*
X180038320Y-96512501D01*
X179997427Y-96451300D01*
X179956959Y-96390734D01*
X179956957Y-96390732D01*
X179956955Y-96390729D01*
X179847547Y-96281321D01*
X179847524Y-96281300D01*
X179731939Y-96165715D01*
X179647407Y-96081183D01*
X183422636Y-96081183D01*
X183422636Y-97081201D01*
X183422637Y-97081219D01*
X183433136Y-97183996D01*
X183433137Y-97183999D01*
X183488321Y-97350531D01*
X183488323Y-97350536D01*
X183523205Y-97407088D01*
X183580424Y-97499856D01*
X183704480Y-97623912D01*
X183853802Y-97716014D01*
X184020339Y-97771199D01*
X184123127Y-97781700D01*
X184923144Y-97781699D01*
X184923152Y-97781698D01*
X184923155Y-97781698D01*
X184979438Y-97775948D01*
X185025933Y-97771199D01*
X185192470Y-97716014D01*
X185341792Y-97623912D01*
X185435811Y-97529892D01*
X185497130Y-97496410D01*
X185566822Y-97501394D01*
X185611170Y-97529895D01*
X185704790Y-97623515D01*
X185854011Y-97715556D01*
X185854016Y-97715558D01*
X186020438Y-97770705D01*
X186020445Y-97770706D01*
X186123155Y-97781199D01*
X186273135Y-97781199D01*
X186773136Y-97781199D01*
X186923108Y-97781199D01*
X186923122Y-97781198D01*
X187025833Y-97770705D01*
X187192255Y-97715558D01*
X187192260Y-97715556D01*
X187341481Y-97623515D01*
X187465451Y-97499545D01*
X187557492Y-97350324D01*
X187557494Y-97350319D01*
X187612641Y-97183897D01*
X187612642Y-97183890D01*
X187623135Y-97081186D01*
X187623136Y-97081173D01*
X187623136Y-96831200D01*
X186773136Y-96831200D01*
X186773136Y-97781199D01*
X186273135Y-97781199D01*
X186273136Y-97781198D01*
X186273136Y-96705200D01*
X186292821Y-96638161D01*
X186345625Y-96592406D01*
X186397136Y-96581200D01*
X186523136Y-96581200D01*
X186523136Y-96455200D01*
X186542821Y-96388161D01*
X186595625Y-96342406D01*
X186647136Y-96331200D01*
X187623135Y-96331200D01*
X187623135Y-96081228D01*
X187623134Y-96081213D01*
X187612641Y-95978502D01*
X187557494Y-95812080D01*
X187557492Y-95812075D01*
X187465451Y-95662854D01*
X187341481Y-95538884D01*
X187191928Y-95446639D01*
X187145204Y-95394691D01*
X187133981Y-95325728D01*
X187161825Y-95261646D01*
X187219894Y-95222790D01*
X187257025Y-95217100D01*
X191134572Y-95217100D01*
X191201611Y-95236785D01*
X191247366Y-95289589D01*
X191257310Y-95358747D01*
X191228285Y-95422303D01*
X191222253Y-95428781D01*
X191208289Y-95442744D01*
X191208286Y-95442748D01*
X191116187Y-95592062D01*
X191116186Y-95592064D01*
X191061001Y-95758603D01*
X191061000Y-95758604D01*
X191050500Y-95861384D01*
X191050500Y-96961415D01*
X191061000Y-97064195D01*
X191061001Y-97064197D01*
X191088593Y-97147465D01*
X191116186Y-97230735D01*
X191116187Y-97230737D01*
X191208286Y-97380051D01*
X191208289Y-97380055D01*
X191332344Y-97504110D01*
X191332348Y-97504113D01*
X191481662Y-97596212D01*
X191481664Y-97596213D01*
X191481666Y-97596214D01*
X191648203Y-97651399D01*
X191750992Y-97661900D01*
X191750997Y-97661900D01*
X193371003Y-97661900D01*
X193371008Y-97661900D01*
X193473797Y-97651399D01*
X193640334Y-97596214D01*
X193789655Y-97504111D01*
X193913711Y-97380055D01*
X194005814Y-97230734D01*
X194060999Y-97064197D01*
X194071500Y-96961408D01*
X194071500Y-95861392D01*
X194060999Y-95758603D01*
X194005814Y-95592066D01*
X193973930Y-95540375D01*
X193913713Y-95442748D01*
X193913710Y-95442744D01*
X193789655Y-95318689D01*
X193789651Y-95318686D01*
X193640337Y-95226587D01*
X193640335Y-95226586D01*
X193543279Y-95194425D01*
X193473797Y-95171401D01*
X193473795Y-95171400D01*
X193371015Y-95160900D01*
X193371008Y-95160900D01*
X193248211Y-95160900D01*
X193239229Y-95158262D01*
X193229957Y-95159549D01*
X193206241Y-95148576D01*
X193181172Y-95141215D01*
X193173356Y-95133361D01*
X193166546Y-95130210D01*
X193151996Y-95111895D01*
X193143565Y-95103423D01*
X193140111Y-95097991D01*
X193139592Y-95096736D01*
X193134670Y-95089370D01*
X193068141Y-94989801D01*
X193068139Y-94989798D01*
X193068136Y-94989795D01*
X192135405Y-94057063D01*
X192135404Y-94057062D01*
X192135400Y-94057059D01*
X192028464Y-93985608D01*
X192004971Y-93975877D01*
X191909644Y-93936391D01*
X191909638Y-93936389D01*
X191783507Y-93911300D01*
X191783505Y-93911300D01*
X185279495Y-93911300D01*
X185279493Y-93911300D01*
X185153361Y-93936389D01*
X185153355Y-93936391D01*
X185034537Y-93985607D01*
X184927597Y-94057061D01*
X184927596Y-94057062D01*
X184015999Y-94968658D01*
X184015998Y-94968659D01*
X183953575Y-95062084D01*
X183953574Y-95062083D01*
X183944544Y-95075598D01*
X183895327Y-95194419D01*
X183895325Y-95194425D01*
X183870236Y-95320556D01*
X183870236Y-95367042D01*
X183850551Y-95434081D01*
X183811333Y-95472581D01*
X183704478Y-95538489D01*
X183580425Y-95662542D01*
X183488323Y-95811863D01*
X183488321Y-95811868D01*
X183488251Y-95812080D01*
X183433137Y-95978403D01*
X183433137Y-95978404D01*
X183433136Y-95978404D01*
X183422636Y-96081183D01*
X179647407Y-96081183D01*
X178738169Y-95171943D01*
X178738168Y-95171942D01*
X178692181Y-95141215D01*
X178614589Y-95089370D01*
X178614586Y-95089368D01*
X178614585Y-95089368D01*
X178534155Y-95056053D01*
X178477280Y-95032495D01*
X178453094Y-95027684D01*
X178331514Y-95003499D01*
X178331512Y-95003499D01*
X178182888Y-95003499D01*
X178176774Y-95003499D01*
X178176754Y-95003500D01*
X174023687Y-95003500D01*
X173956648Y-94983815D01*
X173936006Y-94967181D01*
X173460019Y-94491194D01*
X173426534Y-94429871D01*
X173423700Y-94403513D01*
X173423700Y-93324181D01*
X193635500Y-93324181D01*
X193635500Y-93498618D01*
X193669527Y-93669683D01*
X193669529Y-93669691D01*
X193736278Y-93830839D01*
X193736283Y-93830848D01*
X193833186Y-93975873D01*
X193833189Y-93975877D01*
X193956522Y-94099210D01*
X193956526Y-94099213D01*
X194101551Y-94196116D01*
X194101557Y-94196119D01*
X194101558Y-94196120D01*
X194262709Y-94262871D01*
X194433781Y-94296899D01*
X194433785Y-94296900D01*
X194433786Y-94296900D01*
X194608215Y-94296900D01*
X194608216Y-94296899D01*
X194779291Y-94262871D01*
X194940442Y-94196120D01*
X195085474Y-94099213D01*
X195208813Y-93975874D01*
X195305720Y-93830842D01*
X195372471Y-93669691D01*
X195406500Y-93498614D01*
X195406500Y-93324186D01*
X195372471Y-93153109D01*
X195305720Y-92991958D01*
X195305719Y-92991957D01*
X195305716Y-92991951D01*
X195208813Y-92846926D01*
X195208810Y-92846922D01*
X195085477Y-92723589D01*
X195085473Y-92723586D01*
X194940448Y-92626683D01*
X194940439Y-92626678D01*
X194779291Y-92559929D01*
X194779283Y-92559927D01*
X194608218Y-92525900D01*
X194608214Y-92525900D01*
X194433786Y-92525900D01*
X194433781Y-92525900D01*
X194262716Y-92559927D01*
X194262708Y-92559929D01*
X194101560Y-92626678D01*
X194101551Y-92626683D01*
X193956526Y-92723586D01*
X193956522Y-92723589D01*
X193833189Y-92846922D01*
X193833186Y-92846926D01*
X193736283Y-92991951D01*
X193736278Y-92991960D01*
X193669529Y-93153108D01*
X193669527Y-93153116D01*
X193635500Y-93324181D01*
X173423700Y-93324181D01*
X173423700Y-91441541D01*
X173443385Y-91374502D01*
X173496189Y-91328747D01*
X173565347Y-91318803D01*
X173628903Y-91347828D01*
X173635381Y-91353860D01*
X173733707Y-91452186D01*
X173733711Y-91452189D01*
X173864814Y-91539790D01*
X173864827Y-91539797D01*
X174010498Y-91600135D01*
X174010503Y-91600137D01*
X174100633Y-91618065D01*
X174165153Y-91630899D01*
X174165156Y-91630900D01*
X174165158Y-91630900D01*
X174322844Y-91630900D01*
X174322845Y-91630899D01*
X174477497Y-91600137D01*
X174623179Y-91539794D01*
X174754289Y-91452189D01*
X174865789Y-91340689D01*
X174953394Y-91209579D01*
X175013737Y-91063897D01*
X175044500Y-90909242D01*
X175044500Y-90751558D01*
X175033591Y-90696718D01*
X175039817Y-90627130D01*
X175082679Y-90571952D01*
X175090081Y-90567008D01*
X175137256Y-90537912D01*
X175261312Y-90413856D01*
X175294049Y-90360781D01*
X193635500Y-90360781D01*
X193635500Y-90535218D01*
X193669527Y-90706283D01*
X193669529Y-90706291D01*
X193736278Y-90867439D01*
X193736283Y-90867448D01*
X193833186Y-91012473D01*
X193833189Y-91012477D01*
X193956522Y-91135810D01*
X193956526Y-91135813D01*
X194101551Y-91232716D01*
X194101560Y-91232721D01*
X194138066Y-91247842D01*
X194262709Y-91299471D01*
X194409891Y-91328747D01*
X194433781Y-91333499D01*
X194433785Y-91333500D01*
X194433786Y-91333500D01*
X194608215Y-91333500D01*
X194608216Y-91333499D01*
X194779291Y-91299471D01*
X194940442Y-91232720D01*
X195085474Y-91135813D01*
X195208813Y-91012474D01*
X195305720Y-90867442D01*
X195372471Y-90706291D01*
X195406500Y-90535214D01*
X195406500Y-90360786D01*
X195372471Y-90189709D01*
X195305720Y-90028558D01*
X195305719Y-90028557D01*
X195305716Y-90028551D01*
X195208813Y-89883526D01*
X195208810Y-89883522D01*
X195085477Y-89760189D01*
X195085473Y-89760186D01*
X194940448Y-89663283D01*
X194940439Y-89663278D01*
X194779291Y-89596529D01*
X194779283Y-89596527D01*
X194608218Y-89562500D01*
X194608214Y-89562500D01*
X194433786Y-89562500D01*
X194433781Y-89562500D01*
X194262716Y-89596527D01*
X194262708Y-89596529D01*
X194101560Y-89663278D01*
X194101551Y-89663283D01*
X193956526Y-89760186D01*
X193956522Y-89760189D01*
X193833189Y-89883522D01*
X193833186Y-89883526D01*
X193736283Y-90028551D01*
X193736278Y-90028560D01*
X193669529Y-90189708D01*
X193669527Y-90189716D01*
X193635500Y-90360781D01*
X175294049Y-90360781D01*
X175353414Y-90264534D01*
X175408599Y-90097997D01*
X175419100Y-89995209D01*
X175419099Y-89195192D01*
X175415602Y-89160962D01*
X175408599Y-89092403D01*
X175408598Y-89092400D01*
X175398555Y-89062092D01*
X175353414Y-88925866D01*
X175261312Y-88776544D01*
X175167649Y-88682881D01*
X175164165Y-88676500D01*
X175158222Y-88672311D01*
X175147642Y-88646241D01*
X175134164Y-88621558D01*
X175134682Y-88614307D01*
X175131948Y-88607569D01*
X175137141Y-88579923D01*
X175139148Y-88551866D01*
X175143822Y-88544359D01*
X175144848Y-88538900D01*
X175161449Y-88516051D01*
X175165184Y-88510054D01*
X175166376Y-88508791D01*
X175261312Y-88413856D01*
X175271222Y-88397788D01*
X175279945Y-88388554D01*
X175299590Y-88377088D01*
X175316503Y-88361877D01*
X175331487Y-88358472D01*
X175340289Y-88353335D01*
X175351901Y-88353833D01*
X175370091Y-88349700D01*
X178821154Y-88349700D01*
X178821174Y-88349701D01*
X178827288Y-88349701D01*
X178975914Y-88349701D01*
X179054898Y-88333988D01*
X179097494Y-88325515D01*
X179121680Y-88320705D01*
X179185072Y-88294447D01*
X179258989Y-88263830D01*
X179382566Y-88181259D01*
X180365824Y-87198000D01*
X191075016Y-87198000D01*
X192116440Y-87198000D01*
X192085755Y-87251147D01*
X192051000Y-87380857D01*
X192051000Y-87515143D01*
X192085755Y-87644853D01*
X192116440Y-87698000D01*
X191075016Y-87698000D01*
X191081781Y-87740716D01*
X191142581Y-87927837D01*
X191231904Y-88103143D01*
X191347555Y-88262321D01*
X191486678Y-88401444D01*
X191645856Y-88517095D01*
X191821164Y-88606418D01*
X192008294Y-88667221D01*
X192202618Y-88698000D01*
X192311000Y-88698000D01*
X192311000Y-87892560D01*
X192364147Y-87923245D01*
X192493857Y-87958000D01*
X192628143Y-87958000D01*
X192757853Y-87923245D01*
X192811000Y-87892560D01*
X192811000Y-88698000D01*
X192919382Y-88698000D01*
X193113705Y-88667221D01*
X193300835Y-88606418D01*
X193476143Y-88517095D01*
X193635321Y-88401444D01*
X193774444Y-88262321D01*
X193890095Y-88103143D01*
X193979418Y-87927837D01*
X194040218Y-87740716D01*
X194046984Y-87698000D01*
X193005560Y-87698000D01*
X193036245Y-87644853D01*
X193071000Y-87515143D01*
X193071000Y-87380857D01*
X193036245Y-87251147D01*
X193005560Y-87198000D01*
X194046984Y-87198000D01*
X194040218Y-87155283D01*
X193979418Y-86968162D01*
X193890095Y-86792856D01*
X193774444Y-86633678D01*
X193635321Y-86494555D01*
X193476143Y-86378904D01*
X193300835Y-86289581D01*
X193113705Y-86228778D01*
X192919382Y-86198000D01*
X192811000Y-86198000D01*
X192811000Y-87003439D01*
X192757853Y-86972755D01*
X192628143Y-86938000D01*
X192493857Y-86938000D01*
X192364147Y-86972755D01*
X192311000Y-87003439D01*
X192311000Y-86198000D01*
X192202618Y-86198000D01*
X192008294Y-86228778D01*
X191821164Y-86289581D01*
X191645856Y-86378904D01*
X191486678Y-86494555D01*
X191347555Y-86633678D01*
X191231904Y-86792856D01*
X191142581Y-86968162D01*
X191081781Y-87155283D01*
X191075016Y-87198000D01*
X180365824Y-87198000D01*
X180795563Y-86768260D01*
X180795566Y-86768259D01*
X180900659Y-86663166D01*
X180963601Y-86568966D01*
X180983230Y-86539589D01*
X180983233Y-86539585D01*
X181040103Y-86402283D01*
X181040105Y-86402279D01*
X181069101Y-86256512D01*
X181069101Y-86107888D01*
X181069101Y-86102778D01*
X181069100Y-86102752D01*
X181069100Y-83898014D01*
X191051000Y-83898014D01*
X191051000Y-84198000D01*
X192116440Y-84198000D01*
X192085755Y-84251147D01*
X192051000Y-84380857D01*
X192051000Y-84515143D01*
X192085755Y-84644853D01*
X192116440Y-84698000D01*
X191051000Y-84698000D01*
X191051000Y-84997985D01*
X191061493Y-85100689D01*
X191061494Y-85100696D01*
X191116641Y-85267118D01*
X191116643Y-85267123D01*
X191208684Y-85416344D01*
X191332655Y-85540315D01*
X191481876Y-85632356D01*
X191481881Y-85632358D01*
X191648303Y-85687505D01*
X191648310Y-85687506D01*
X191751014Y-85697999D01*
X191751027Y-85698000D01*
X192311000Y-85698000D01*
X192311000Y-84892560D01*
X192364147Y-84923245D01*
X192493857Y-84958000D01*
X192628143Y-84958000D01*
X192757853Y-84923245D01*
X192811000Y-84892560D01*
X192811000Y-85698000D01*
X193370973Y-85698000D01*
X193370985Y-85697999D01*
X193473689Y-85687506D01*
X193473696Y-85687505D01*
X193640118Y-85632358D01*
X193640123Y-85632356D01*
X193789344Y-85540315D01*
X193913315Y-85416344D01*
X194005356Y-85267123D01*
X194005358Y-85267118D01*
X194060505Y-85100696D01*
X194060506Y-85100689D01*
X194070999Y-84997985D01*
X194071000Y-84997972D01*
X194071000Y-84698000D01*
X193005560Y-84698000D01*
X193036245Y-84644853D01*
X193071000Y-84515143D01*
X193071000Y-84380857D01*
X193036245Y-84251147D01*
X193005560Y-84198000D01*
X194071000Y-84198000D01*
X194071000Y-83898027D01*
X194070999Y-83898014D01*
X194060506Y-83795310D01*
X194060505Y-83795303D01*
X194005358Y-83628881D01*
X194005356Y-83628876D01*
X193913315Y-83479655D01*
X193789344Y-83355684D01*
X193640123Y-83263643D01*
X193640118Y-83263641D01*
X193473696Y-83208494D01*
X193473689Y-83208493D01*
X193370985Y-83198000D01*
X192811000Y-83198000D01*
X192811000Y-84003439D01*
X192757853Y-83972755D01*
X192628143Y-83938000D01*
X192493857Y-83938000D01*
X192364147Y-83972755D01*
X192311000Y-84003439D01*
X192311000Y-83198000D01*
X191751014Y-83198000D01*
X191648310Y-83208493D01*
X191648303Y-83208494D01*
X191481881Y-83263641D01*
X191481876Y-83263643D01*
X191332655Y-83355684D01*
X191208684Y-83479655D01*
X191116643Y-83628876D01*
X191116641Y-83628881D01*
X191061494Y-83795303D01*
X191061493Y-83795310D01*
X191051000Y-83898014D01*
X181069100Y-83898014D01*
X181069100Y-82891769D01*
X181088785Y-82824730D01*
X181089999Y-82822877D01*
X181115404Y-82784856D01*
X181115405Y-82784853D01*
X181115409Y-82784848D01*
X181175752Y-82639166D01*
X181206515Y-82484511D01*
X181206515Y-82326827D01*
X181206515Y-82326824D01*
X181206514Y-82326822D01*
X181201074Y-82299472D01*
X181175752Y-82172172D01*
X181160692Y-82135813D01*
X181115412Y-82026496D01*
X181115405Y-82026483D01*
X181027804Y-81895380D01*
X181027801Y-81895376D01*
X180916307Y-81783882D01*
X180916303Y-81783879D01*
X180785200Y-81696278D01*
X180785187Y-81696271D01*
X180639516Y-81635933D01*
X180639504Y-81635930D01*
X180484860Y-81605169D01*
X180484857Y-81605169D01*
X180327173Y-81605169D01*
X180327170Y-81605169D01*
X180172525Y-81635930D01*
X180172513Y-81635933D01*
X180026842Y-81696271D01*
X180026829Y-81696278D01*
X179895726Y-81783879D01*
X179895722Y-81783882D01*
X179784228Y-81895376D01*
X179784225Y-81895380D01*
X179696624Y-82026483D01*
X179696621Y-82026490D01*
X179660535Y-82113607D01*
X179649086Y-82135029D01*
X179645977Y-82139682D01*
X179645969Y-82139696D01*
X179589095Y-82277004D01*
X179589093Y-82277010D01*
X179560099Y-82422769D01*
X179560099Y-82577509D01*
X179560100Y-82577530D01*
X179560100Y-85818313D01*
X179540415Y-85885352D01*
X179523781Y-85905994D01*
X178625394Y-86804381D01*
X178564071Y-86837866D01*
X178537713Y-86840700D01*
X175370091Y-86840700D01*
X175303052Y-86821015D01*
X175264554Y-86781800D01*
X175264168Y-86781174D01*
X175261312Y-86776544D01*
X175137256Y-86652488D01*
X175002378Y-86569295D01*
X174987936Y-86560387D01*
X174987931Y-86560385D01*
X174986462Y-86559898D01*
X174821397Y-86505201D01*
X174821395Y-86505200D01*
X174718610Y-86494700D01*
X173718598Y-86494700D01*
X173718580Y-86494701D01*
X173615803Y-86505200D01*
X173615800Y-86505201D01*
X173449268Y-86560385D01*
X173449263Y-86560387D01*
X173299942Y-86652489D01*
X173175888Y-86776543D01*
X173175885Y-86776547D01*
X173113160Y-86878240D01*
X173062998Y-86923358D01*
X173063181Y-86923700D01*
X173061794Y-86924441D01*
X173061212Y-86924965D01*
X173058800Y-86926041D01*
X173057814Y-86926568D01*
X172934231Y-87009143D01*
X172903477Y-87039898D01*
X172829141Y-87114234D01*
X172829139Y-87114236D01*
X172083143Y-87860230D01*
X172083142Y-87860231D01*
X172000568Y-87983814D01*
X171975395Y-88044589D01*
X171949107Y-88108056D01*
X171944814Y-88118418D01*
X171943694Y-88121123D01*
X171943693Y-88121125D01*
X171914699Y-88266885D01*
X163060500Y-88266885D01*
X163060500Y-82781186D01*
X172358601Y-82781186D01*
X172369094Y-82883897D01*
X172424241Y-83050319D01*
X172424243Y-83050324D01*
X172516284Y-83199545D01*
X172640254Y-83323515D01*
X172789475Y-83415556D01*
X172789480Y-83415558D01*
X172955902Y-83470705D01*
X172955909Y-83470706D01*
X173058619Y-83481199D01*
X173333599Y-83481199D01*
X173833600Y-83481199D01*
X174108572Y-83481199D01*
X174108586Y-83481198D01*
X174211297Y-83470705D01*
X174377719Y-83415558D01*
X174377724Y-83415556D01*
X174526945Y-83323515D01*
X174650915Y-83199545D01*
X174742956Y-83050324D01*
X174742958Y-83050319D01*
X174798105Y-82883897D01*
X174798106Y-82883890D01*
X174808599Y-82781186D01*
X174808600Y-82781173D01*
X174808600Y-82643700D01*
X173833600Y-82643700D01*
X173833600Y-83481199D01*
X173333599Y-83481199D01*
X173333600Y-83481198D01*
X173333600Y-82643700D01*
X172358601Y-82643700D01*
X172358601Y-82781186D01*
X163060500Y-82781186D01*
X163060500Y-77678628D01*
X166397514Y-77678628D01*
X166397514Y-77685954D01*
X166397514Y-77836316D01*
X166428275Y-77990959D01*
X166428278Y-77990971D01*
X166488616Y-78136642D01*
X166488623Y-78136655D01*
X166576224Y-78267758D01*
X166576227Y-78267762D01*
X166687724Y-78379259D01*
X166748216Y-78419678D01*
X166818835Y-78466864D01*
X166832773Y-78472637D01*
X166832833Y-78472662D01*
X166873061Y-78499542D01*
X167979213Y-79605693D01*
X167979234Y-79605716D01*
X168088644Y-79715126D01*
X168088647Y-79715128D01*
X168144899Y-79752714D01*
X168212224Y-79797699D01*
X168286351Y-79828403D01*
X168349533Y-79854574D01*
X168373718Y-79859384D01*
X168381931Y-79861017D01*
X168381932Y-79861018D01*
X168495299Y-79883570D01*
X168495301Y-79883570D01*
X168650039Y-79883570D01*
X168650059Y-79883569D01*
X170517128Y-79883569D01*
X170584167Y-79903254D01*
X170604809Y-79919888D01*
X171480246Y-80795324D01*
X171480267Y-80795347D01*
X171589674Y-80904754D01*
X171589681Y-80904760D01*
X171713254Y-80987328D01*
X171713255Y-80987328D01*
X171713256Y-80987329D01*
X171850566Y-81044205D01*
X171996329Y-81073199D01*
X171996333Y-81073200D01*
X171996334Y-81073200D01*
X172415011Y-81073200D01*
X172443768Y-81081644D01*
X172473133Y-81087665D01*
X172477952Y-81091681D01*
X172482050Y-81092885D01*
X172501638Y-81108477D01*
X172512064Y-81118657D01*
X172515888Y-81124856D01*
X172639944Y-81248912D01*
X172654953Y-81258169D01*
X172664786Y-81267770D01*
X172675435Y-81286730D01*
X172689979Y-81302899D01*
X172692207Y-81316593D01*
X172699001Y-81328688D01*
X172697709Y-81350395D01*
X172701203Y-81371861D01*
X172695675Y-81384584D01*
X172694851Y-81398435D01*
X172682025Y-81416002D01*
X172673361Y-81435944D01*
X172657308Y-81449855D01*
X172653651Y-81454865D01*
X172649817Y-81456347D01*
X172643265Y-81462026D01*
X172640260Y-81463879D01*
X172640255Y-81463883D01*
X172516284Y-81587854D01*
X172424243Y-81737075D01*
X172424241Y-81737080D01*
X172369094Y-81903502D01*
X172369093Y-81903509D01*
X172358600Y-82006213D01*
X172358600Y-82143700D01*
X174808599Y-82143700D01*
X174808599Y-82006228D01*
X174808598Y-82006213D01*
X174798105Y-81903502D01*
X174742958Y-81737080D01*
X174742956Y-81737075D01*
X174650915Y-81587854D01*
X174526944Y-81463883D01*
X174526941Y-81463881D01*
X174523939Y-81462029D01*
X174522313Y-81460221D01*
X174521277Y-81459402D01*
X174521417Y-81459224D01*
X174477217Y-81410080D01*
X174465997Y-81341117D01*
X174493843Y-81277036D01*
X174502414Y-81267770D01*
X174512246Y-81258169D01*
X174527256Y-81248912D01*
X174651312Y-81124856D01*
X174655133Y-81118659D01*
X174665563Y-81108477D01*
X174689670Y-81095685D01*
X174711944Y-81079913D01*
X174722808Y-81078100D01*
X174727282Y-81075727D01*
X174733782Y-81076270D01*
X174752189Y-81073200D01*
X175052413Y-81073200D01*
X175119452Y-81092885D01*
X175140094Y-81109519D01*
X176904800Y-82874224D01*
X176904821Y-82874247D01*
X177014231Y-82983657D01*
X177073265Y-83023102D01*
X177073264Y-83023102D01*
X177137800Y-83066223D01*
X177137804Y-83066225D01*
X177137811Y-83066230D01*
X177218245Y-83099546D01*
X177275120Y-83123105D01*
X177299305Y-83127915D01*
X177348194Y-83137640D01*
X177420886Y-83152101D01*
X177420888Y-83152101D01*
X177575626Y-83152101D01*
X177575646Y-83152100D01*
X178063853Y-83152100D01*
X178111301Y-83161537D01*
X178125303Y-83167337D01*
X178125308Y-83167338D01*
X178125311Y-83167339D01*
X178279953Y-83198099D01*
X178279956Y-83198100D01*
X178279958Y-83198100D01*
X178437644Y-83198100D01*
X178437645Y-83198099D01*
X178592297Y-83167337D01*
X178704966Y-83120667D01*
X178737972Y-83106997D01*
X178737972Y-83106996D01*
X178737979Y-83106994D01*
X178869089Y-83019389D01*
X178980589Y-82907889D01*
X179068194Y-82776779D01*
X179128537Y-82631097D01*
X179159300Y-82476442D01*
X179159300Y-82318758D01*
X179159300Y-82318755D01*
X179159299Y-82318753D01*
X179155464Y-82299472D01*
X179128537Y-82164103D01*
X179120086Y-82143700D01*
X179068197Y-82018427D01*
X179068190Y-82018414D01*
X178980589Y-81887311D01*
X178980586Y-81887307D01*
X178869092Y-81775813D01*
X178869088Y-81775810D01*
X178737985Y-81688209D01*
X178737972Y-81688202D01*
X178592301Y-81627864D01*
X178592289Y-81627861D01*
X178437645Y-81597100D01*
X178437642Y-81597100D01*
X178279958Y-81597100D01*
X178279955Y-81597100D01*
X178125311Y-81627860D01*
X178125306Y-81627862D01*
X178125304Y-81627862D01*
X178125303Y-81627863D01*
X178111301Y-81633662D01*
X178103127Y-81635288D01*
X178098788Y-81638077D01*
X178063853Y-81643100D01*
X177859086Y-81643100D01*
X177792047Y-81623415D01*
X177771405Y-81606781D01*
X177606999Y-81442375D01*
X177525405Y-81360781D01*
X193635500Y-81360781D01*
X193635500Y-81535218D01*
X193669527Y-81706283D01*
X193669529Y-81706291D01*
X193736278Y-81867439D01*
X193736283Y-81867448D01*
X193833186Y-82012473D01*
X193833189Y-82012477D01*
X193956522Y-82135810D01*
X193956526Y-82135813D01*
X194101551Y-82232716D01*
X194101557Y-82232719D01*
X194101558Y-82232720D01*
X194262709Y-82299471D01*
X194433781Y-82333499D01*
X194433785Y-82333500D01*
X194433786Y-82333500D01*
X194608215Y-82333500D01*
X194608216Y-82333499D01*
X194779291Y-82299471D01*
X194940442Y-82232720D01*
X195085474Y-82135813D01*
X195208813Y-82012474D01*
X195305720Y-81867442D01*
X195372471Y-81706291D01*
X195406500Y-81535214D01*
X195406500Y-81360786D01*
X195372471Y-81189709D01*
X195305720Y-81028558D01*
X195305719Y-81028557D01*
X195305716Y-81028551D01*
X195208813Y-80883526D01*
X195208810Y-80883522D01*
X195085477Y-80760189D01*
X195085473Y-80760186D01*
X194940448Y-80663283D01*
X194940439Y-80663278D01*
X194779291Y-80596529D01*
X194779283Y-80596527D01*
X194608218Y-80562500D01*
X194608214Y-80562500D01*
X194433786Y-80562500D01*
X194433781Y-80562500D01*
X194262716Y-80596527D01*
X194262708Y-80596529D01*
X194101560Y-80663278D01*
X194101551Y-80663283D01*
X193956526Y-80760186D01*
X193956522Y-80760189D01*
X193833189Y-80883522D01*
X193833186Y-80883526D01*
X193736283Y-81028551D01*
X193736278Y-81028560D01*
X193669529Y-81189708D01*
X193669527Y-81189716D01*
X193635500Y-81360781D01*
X177525405Y-81360781D01*
X175897269Y-79732643D01*
X175897268Y-79732642D01*
X175773692Y-79650072D01*
X175773691Y-79650071D01*
X175773689Y-79650070D01*
X175773686Y-79650068D01*
X175773681Y-79650066D01*
X175681490Y-79611880D01*
X175681486Y-79611878D01*
X175677035Y-79610035D01*
X175636380Y-79593195D01*
X175612194Y-79588384D01*
X175604970Y-79586947D01*
X175490614Y-79564199D01*
X175490612Y-79564199D01*
X175341988Y-79564199D01*
X175335874Y-79564199D01*
X175335854Y-79564200D01*
X174752189Y-79564200D01*
X174722315Y-79555427D01*
X174691939Y-79548578D01*
X174688219Y-79545416D01*
X174685150Y-79544515D01*
X174663845Y-79527214D01*
X174654522Y-79517748D01*
X174651312Y-79512544D01*
X174527256Y-79388488D01*
X174527131Y-79388411D01*
X174523755Y-79384983D01*
X174507425Y-79354529D01*
X174490933Y-79324327D01*
X174490967Y-79323839D01*
X174490736Y-79323407D01*
X174493459Y-79288996D01*
X174495917Y-79254635D01*
X174496216Y-79254169D01*
X174496249Y-79253756D01*
X174497752Y-79251778D01*
X174524415Y-79210291D01*
X174711167Y-79023540D01*
X174751392Y-78996663D01*
X174765393Y-78990864D01*
X174896503Y-78903259D01*
X175008003Y-78791759D01*
X175049950Y-78728981D01*
X193602300Y-78728981D01*
X193602300Y-78903418D01*
X193636327Y-79074483D01*
X193636329Y-79074491D01*
X193703078Y-79235639D01*
X193703083Y-79235648D01*
X193799986Y-79380673D01*
X193799989Y-79380677D01*
X193923322Y-79504010D01*
X193923326Y-79504013D01*
X194068351Y-79600916D01*
X194068360Y-79600921D01*
X194094818Y-79611880D01*
X194229509Y-79667671D01*
X194400581Y-79701699D01*
X194400585Y-79701700D01*
X194400586Y-79701700D01*
X194575015Y-79701700D01*
X194575016Y-79701699D01*
X194746091Y-79667671D01*
X194907242Y-79600920D01*
X195052274Y-79504013D01*
X195175613Y-79380674D01*
X195272520Y-79235642D01*
X195339271Y-79074491D01*
X195373300Y-78903414D01*
X195373300Y-78728986D01*
X195339271Y-78557909D01*
X195272520Y-78396758D01*
X195272519Y-78396757D01*
X195272516Y-78396751D01*
X195175613Y-78251726D01*
X195175610Y-78251722D01*
X195052277Y-78128389D01*
X195052273Y-78128386D01*
X194907248Y-78031483D01*
X194907239Y-78031478D01*
X194746091Y-77964729D01*
X194746083Y-77964727D01*
X194575018Y-77930700D01*
X194575014Y-77930700D01*
X194400586Y-77930700D01*
X194400581Y-77930700D01*
X194229516Y-77964727D01*
X194229508Y-77964729D01*
X194068360Y-78031478D01*
X194068351Y-78031483D01*
X193923326Y-78128386D01*
X193923322Y-78128389D01*
X193799989Y-78251722D01*
X193799986Y-78251726D01*
X193703083Y-78396751D01*
X193703078Y-78396760D01*
X193636329Y-78557908D01*
X193636327Y-78557916D01*
X193602300Y-78728981D01*
X175049950Y-78728981D01*
X175095608Y-78660649D01*
X175155951Y-78514967D01*
X175186714Y-78360312D01*
X175186714Y-78202628D01*
X175186714Y-78202625D01*
X175186713Y-78202623D01*
X175166321Y-78100107D01*
X175155951Y-78047973D01*
X175149121Y-78031483D01*
X175095611Y-77902297D01*
X175095604Y-77902284D01*
X175008003Y-77771181D01*
X175008000Y-77771177D01*
X174896506Y-77659683D01*
X174896502Y-77659680D01*
X174765399Y-77572079D01*
X174765386Y-77572072D01*
X174619715Y-77511734D01*
X174619703Y-77511731D01*
X174465059Y-77480970D01*
X174465056Y-77480970D01*
X174307372Y-77480970D01*
X174307369Y-77480970D01*
X174152724Y-77511731D01*
X174152712Y-77511734D01*
X174007041Y-77572072D01*
X174007028Y-77572079D01*
X173875925Y-77659680D01*
X173875921Y-77659683D01*
X173764427Y-77771177D01*
X173764421Y-77771185D01*
X173676820Y-77902288D01*
X173676820Y-77902289D01*
X173671019Y-77916294D01*
X173644141Y-77956516D01*
X172997542Y-78603115D01*
X172914972Y-78726691D01*
X172914966Y-78726702D01*
X172858096Y-78864000D01*
X172858093Y-78864010D01*
X172829099Y-79009769D01*
X172829099Y-79164509D01*
X172829100Y-79164530D01*
X172829100Y-79202609D01*
X172809415Y-79269648D01*
X172770197Y-79308148D01*
X172639945Y-79388487D01*
X172511382Y-79517050D01*
X172450059Y-79550534D01*
X172380367Y-79545550D01*
X172336020Y-79517049D01*
X171623087Y-78804116D01*
X171596207Y-78763888D01*
X171596182Y-78763828D01*
X171590409Y-78749890D01*
X171574082Y-78725455D01*
X171502804Y-78618779D01*
X171391307Y-78507282D01*
X171391303Y-78507279D01*
X171260200Y-78419678D01*
X171260187Y-78419671D01*
X171114516Y-78359333D01*
X171114504Y-78359330D01*
X170959860Y-78328569D01*
X170959857Y-78328569D01*
X170802173Y-78328569D01*
X170802170Y-78328569D01*
X170647526Y-78359329D01*
X170647521Y-78359331D01*
X170647519Y-78359331D01*
X170647518Y-78359332D01*
X170633516Y-78365131D01*
X170586068Y-78374569D01*
X168933499Y-78374569D01*
X168866460Y-78354884D01*
X168845818Y-78338250D01*
X167988833Y-77481264D01*
X167955348Y-77419941D01*
X167952514Y-77393583D01*
X167952514Y-75888272D01*
X167972199Y-75821233D01*
X167988833Y-75800591D01*
X171889206Y-71900218D01*
X171916133Y-71885514D01*
X171941952Y-71868922D01*
X171948152Y-71868030D01*
X171950529Y-71866733D01*
X171976887Y-71863899D01*
X172136053Y-71863899D01*
X172183501Y-71873336D01*
X172197503Y-71879136D01*
X172197508Y-71879137D01*
X172197511Y-71879138D01*
X172352153Y-71909898D01*
X172352156Y-71909899D01*
X172352158Y-71909899D01*
X172509844Y-71909899D01*
X172509845Y-71909898D01*
X172664497Y-71879136D01*
X172810179Y-71818793D01*
X172941289Y-71731188D01*
X173052789Y-71619688D01*
X173140394Y-71488578D01*
X173200737Y-71342896D01*
X173231500Y-71188241D01*
X173231500Y-71030557D01*
X173231500Y-71030554D01*
X173231499Y-71030552D01*
X173219576Y-70970612D01*
X173200737Y-70875902D01*
X173182838Y-70832690D01*
X173140397Y-70730226D01*
X173140390Y-70730213D01*
X173052789Y-70599110D01*
X173052786Y-70599106D01*
X172941292Y-70487612D01*
X172941288Y-70487609D01*
X172810185Y-70400008D01*
X172810172Y-70400001D01*
X172664501Y-70339663D01*
X172664489Y-70339660D01*
X172509845Y-70308899D01*
X172509842Y-70308899D01*
X172352158Y-70308899D01*
X172352155Y-70308899D01*
X172197511Y-70339659D01*
X172197506Y-70339661D01*
X172197504Y-70339661D01*
X172197503Y-70339662D01*
X172183501Y-70345461D01*
X172136053Y-70354899D01*
X171538684Y-70354899D01*
X171392928Y-70383892D01*
X171392920Y-70383894D01*
X171255609Y-70440770D01*
X171132036Y-70523338D01*
X171132035Y-70523339D01*
X171095488Y-70559887D01*
X171026942Y-70628433D01*
X171026940Y-70628435D01*
X166611957Y-75043416D01*
X166611956Y-75043417D01*
X166529386Y-75166993D01*
X166529380Y-75167004D01*
X166472510Y-75304302D01*
X166472507Y-75304312D01*
X166443513Y-75450071D01*
X166443513Y-75604811D01*
X166443514Y-75604832D01*
X166443514Y-77462523D01*
X166442035Y-77469954D01*
X166440642Y-77489054D01*
X166438286Y-77499806D01*
X166428277Y-77523973D01*
X166397514Y-77678628D01*
X163060500Y-77678628D01*
X163060500Y-74789270D01*
X163060499Y-74789266D01*
X163021745Y-74594438D01*
X163021744Y-74594431D01*
X162945721Y-74410896D01*
X162945720Y-74410895D01*
X162945717Y-74410889D01*
X162835354Y-74245720D01*
X162835353Y-74245719D01*
X162694881Y-74105247D01*
X159094822Y-70505188D01*
X159061337Y-70443865D01*
X159062727Y-70385415D01*
X159075670Y-70337116D01*
X159109900Y-70077120D01*
X159109900Y-69814880D01*
X159075670Y-69554884D01*
X159007798Y-69301581D01*
X158994879Y-69270392D01*
X158907446Y-69059309D01*
X158907441Y-69059299D01*
X158776324Y-68832196D01*
X158616681Y-68624148D01*
X158616674Y-68624140D01*
X158431260Y-68438726D01*
X158431251Y-68438718D01*
X158223203Y-68279075D01*
X157996100Y-68147958D01*
X157996090Y-68147953D01*
X157753828Y-68047605D01*
X157753821Y-68047603D01*
X157753819Y-68047602D01*
X157500516Y-67979730D01*
X157442739Y-67972123D01*
X157240527Y-67945500D01*
X157240520Y-67945500D01*
X156978280Y-67945500D01*
X156978272Y-67945500D01*
X156747172Y-67975926D01*
X156718284Y-67979730D01*
X156672436Y-67992015D01*
X156464981Y-68047602D01*
X156464971Y-68047605D01*
X156222709Y-68147953D01*
X156222699Y-68147958D01*
X155995596Y-68279075D01*
X155787548Y-68438718D01*
X155602118Y-68624148D01*
X155442475Y-68832196D01*
X155311358Y-69059299D01*
X155311353Y-69059309D01*
X155211005Y-69301571D01*
X155211002Y-69301581D01*
X155176027Y-69432112D01*
X155143130Y-69554885D01*
X155108900Y-69814872D01*
X155108900Y-70077127D01*
X155113325Y-70110734D01*
X155143130Y-70337116D01*
X155202821Y-70559887D01*
X155211002Y-70590418D01*
X155211005Y-70590428D01*
X155311353Y-70832690D01*
X155311358Y-70832700D01*
X155442475Y-71059803D01*
X155602118Y-71267851D01*
X155602126Y-71267860D01*
X155787540Y-71453274D01*
X155787548Y-71453281D01*
X155995596Y-71612924D01*
X156222699Y-71744041D01*
X156222709Y-71744046D01*
X156403165Y-71818793D01*
X156464981Y-71844398D01*
X156718284Y-71912270D01*
X156978280Y-71946500D01*
X156978287Y-71946500D01*
X157240513Y-71946500D01*
X157240520Y-71946500D01*
X157500516Y-71912270D01*
X157548815Y-71899328D01*
X157618663Y-71900991D01*
X157668588Y-71931422D01*
X161007181Y-75270015D01*
X161040666Y-75331338D01*
X161043500Y-75357696D01*
X161043500Y-108090503D01*
X161023815Y-108157542D01*
X161007181Y-108178184D01*
X156536998Y-112648366D01*
X156475675Y-112681851D01*
X156405983Y-112676867D01*
X156350050Y-112634995D01*
X156327701Y-112584880D01*
X156305071Y-112471109D01*
X156253442Y-112346466D01*
X156238321Y-112309960D01*
X156238316Y-112309951D01*
X156141413Y-112164926D01*
X156141410Y-112164922D01*
X156018077Y-112041589D01*
X156018073Y-112041586D01*
X155873048Y-111944683D01*
X155873039Y-111944678D01*
X155711891Y-111877929D01*
X155711883Y-111877927D01*
X155540818Y-111843900D01*
X155540814Y-111843900D01*
X155366386Y-111843900D01*
X155366381Y-111843900D01*
X155195316Y-111877927D01*
X155195308Y-111877929D01*
X155034160Y-111944678D01*
X155034151Y-111944683D01*
X154889126Y-112041586D01*
X154889122Y-112041589D01*
X154765789Y-112164922D01*
X154765786Y-112164926D01*
X154668883Y-112309951D01*
X154668878Y-112309960D01*
X154602129Y-112471108D01*
X154602127Y-112471116D01*
X154568100Y-112642181D01*
X154568100Y-112816618D01*
X154602127Y-112987683D01*
X154602129Y-112987691D01*
X154668878Y-113148839D01*
X154668883Y-113148848D01*
X154769171Y-113298939D01*
X154767644Y-113299958D01*
X154791591Y-113356354D01*
X154779795Y-113425221D01*
X154732639Y-113476777D01*
X154668424Y-113494700D01*
X152183296Y-113494700D01*
X152116257Y-113475015D01*
X152095615Y-113458381D01*
X150513392Y-111876158D01*
X150479907Y-111814835D01*
X150484891Y-111745143D01*
X150500753Y-111715595D01*
X150523124Y-111684805D01*
X150612484Y-111509425D01*
X150673309Y-111322226D01*
X150675499Y-111308397D01*
X150704100Y-111127822D01*
X150704100Y-110410977D01*
X150673309Y-110216573D01*
X150612482Y-110029370D01*
X150524453Y-109856604D01*
X150523124Y-109853995D01*
X150407428Y-109694754D01*
X150268246Y-109555572D01*
X150109005Y-109439876D01*
X150078392Y-109424278D01*
X149933629Y-109350517D01*
X149746426Y-109289690D01*
X149552022Y-109258900D01*
X149552017Y-109258900D01*
X149355183Y-109258900D01*
X149355178Y-109258900D01*
X149160773Y-109289690D01*
X148973570Y-109350517D01*
X148798194Y-109439876D01*
X148743232Y-109479809D01*
X148638954Y-109555572D01*
X148638952Y-109555574D01*
X148638951Y-109555574D01*
X148499774Y-109694751D01*
X148499774Y-109694752D01*
X148499772Y-109694754D01*
X148465641Y-109741731D01*
X148384076Y-109853994D01*
X148294717Y-110029370D01*
X148233890Y-110216573D01*
X148203100Y-110410977D01*
X148203100Y-111127822D01*
X148233890Y-111322226D01*
X148294717Y-111509429D01*
X148348985Y-111615935D01*
X148384076Y-111684805D01*
X148421418Y-111736202D01*
X148444898Y-111802007D01*
X148445100Y-111809086D01*
X148445100Y-112341933D01*
X148483854Y-112536761D01*
X148483856Y-112536769D01*
X148558465Y-112716891D01*
X148559879Y-112720304D01*
X148559880Y-112720306D01*
X148670246Y-112885480D01*
X148670249Y-112885484D01*
X150667985Y-114883219D01*
X150701470Y-114944542D01*
X150696486Y-115014234D01*
X150654614Y-115070167D01*
X150589150Y-115094584D01*
X150580304Y-115094900D01*
X130484379Y-115094900D01*
X130417340Y-115075215D01*
X130371585Y-115022411D01*
X130360379Y-114970900D01*
X130360379Y-110507992D01*
X132539388Y-110507992D01*
X132539388Y-110777619D01*
X132569574Y-111045525D01*
X132569575Y-111045534D01*
X132569576Y-111045538D01*
X132579566Y-111089305D01*
X132629572Y-111308400D01*
X132629575Y-111308408D01*
X132718622Y-111562888D01*
X132835602Y-111805800D01*
X132835604Y-111805803D01*
X132979050Y-112034095D01*
X133049242Y-112122113D01*
X133141910Y-112238316D01*
X133147154Y-112244891D01*
X133337803Y-112435540D01*
X133548599Y-112603644D01*
X133776891Y-112747090D01*
X134019809Y-112864073D01*
X134210937Y-112930951D01*
X134274285Y-112953118D01*
X134274293Y-112953121D01*
X134274296Y-112953121D01*
X134274297Y-112953122D01*
X134537156Y-113013118D01*
X134805075Y-113043305D01*
X134805076Y-113043306D01*
X134805079Y-113043306D01*
X135074700Y-113043306D01*
X135074700Y-113043305D01*
X135342620Y-113013118D01*
X135605479Y-112953122D01*
X135859967Y-112864073D01*
X136102885Y-112747090D01*
X136269846Y-112642181D01*
X145568100Y-112642181D01*
X145568100Y-112816618D01*
X145602127Y-112987683D01*
X145602129Y-112987691D01*
X145668878Y-113148839D01*
X145668883Y-113148848D01*
X145765786Y-113293873D01*
X145765789Y-113293877D01*
X145889122Y-113417210D01*
X145889126Y-113417213D01*
X146034151Y-113514116D01*
X146034157Y-113514119D01*
X146034158Y-113514120D01*
X146195309Y-113580871D01*
X146366381Y-113614899D01*
X146366385Y-113614900D01*
X146366386Y-113614900D01*
X146540815Y-113614900D01*
X146540816Y-113614899D01*
X146711891Y-113580871D01*
X146873042Y-113514120D01*
X147018074Y-113417213D01*
X147141413Y-113293874D01*
X147238320Y-113148842D01*
X147305071Y-112987691D01*
X147339100Y-112816614D01*
X147339100Y-112642186D01*
X147305071Y-112471109D01*
X147253442Y-112346466D01*
X147238321Y-112309960D01*
X147238316Y-112309951D01*
X147141413Y-112164926D01*
X147141410Y-112164922D01*
X147018077Y-112041589D01*
X147018073Y-112041586D01*
X146873048Y-111944683D01*
X146873039Y-111944678D01*
X146711891Y-111877929D01*
X146711883Y-111877927D01*
X146540818Y-111843900D01*
X146540814Y-111843900D01*
X146366386Y-111843900D01*
X146366381Y-111843900D01*
X146195316Y-111877927D01*
X146195308Y-111877929D01*
X146034160Y-111944678D01*
X146034151Y-111944683D01*
X145889126Y-112041586D01*
X145889122Y-112041589D01*
X145765789Y-112164922D01*
X145765786Y-112164926D01*
X145668883Y-112309951D01*
X145668878Y-112309960D01*
X145602129Y-112471108D01*
X145602127Y-112471116D01*
X145568100Y-112642181D01*
X136269846Y-112642181D01*
X136331177Y-112603644D01*
X136403689Y-112545818D01*
X136412049Y-112539151D01*
X136412054Y-112539147D01*
X136435799Y-112520210D01*
X136541973Y-112435540D01*
X136732622Y-112244891D01*
X136900726Y-112034095D01*
X137044172Y-111805803D01*
X137161155Y-111562885D01*
X137250204Y-111308397D01*
X137310200Y-111045538D01*
X137340388Y-110777615D01*
X137340388Y-110507997D01*
X137310200Y-110240074D01*
X137250204Y-109977215D01*
X137243967Y-109959392D01*
X137208000Y-109856603D01*
X137161155Y-109722727D01*
X137044172Y-109479809D01*
X136900726Y-109251517D01*
X136732622Y-109040721D01*
X136541973Y-108850072D01*
X136331177Y-108681968D01*
X136102885Y-108538522D01*
X136102882Y-108538520D01*
X135859970Y-108421540D01*
X135605490Y-108332493D01*
X135605482Y-108332490D01*
X135408334Y-108287493D01*
X135342620Y-108272494D01*
X135342616Y-108272493D01*
X135342607Y-108272492D01*
X135074701Y-108242306D01*
X135074697Y-108242306D01*
X134805079Y-108242306D01*
X134805074Y-108242306D01*
X134537168Y-108272492D01*
X134537156Y-108272494D01*
X134274293Y-108332490D01*
X134274285Y-108332493D01*
X134019805Y-108421540D01*
X133776893Y-108538520D01*
X133548600Y-108681967D01*
X133337803Y-108850071D01*
X133147153Y-109040721D01*
X132979049Y-109251518D01*
X132835602Y-109479811D01*
X132718622Y-109722723D01*
X132629575Y-109977203D01*
X132629572Y-109977211D01*
X132569576Y-110240074D01*
X132569574Y-110240086D01*
X132539388Y-110507992D01*
X130360379Y-110507992D01*
X130360379Y-68099666D01*
X135618100Y-68099666D01*
X135618100Y-77721733D01*
X135656854Y-77916561D01*
X135656856Y-77916569D01*
X135718586Y-78065597D01*
X135732880Y-78100107D01*
X135843246Y-78265280D01*
X135843249Y-78265284D01*
X137550381Y-79972415D01*
X137583866Y-80033738D01*
X137586700Y-80060096D01*
X137586700Y-80730870D01*
X137586701Y-80730876D01*
X137593108Y-80790483D01*
X137643402Y-80925328D01*
X137643406Y-80925335D01*
X137729652Y-81040544D01*
X137729655Y-81040547D01*
X137844864Y-81126793D01*
X137844871Y-81126797D01*
X137889818Y-81143561D01*
X137979717Y-81177091D01*
X138039327Y-81183500D01*
X138710103Y-81183499D01*
X138777142Y-81203183D01*
X138797784Y-81219818D01*
X140216847Y-82638881D01*
X140349842Y-82771876D01*
X140357320Y-82779354D01*
X140522489Y-82889717D01*
X140522495Y-82889720D01*
X140522496Y-82889721D01*
X140706031Y-82965744D01*
X140900866Y-83004499D01*
X140900870Y-83004500D01*
X140900871Y-83004500D01*
X143365643Y-83004500D01*
X143432682Y-83024185D01*
X143464014Y-83053008D01*
X143540481Y-83152661D01*
X143540485Y-83152665D01*
X143540489Y-83152670D01*
X143702733Y-83314914D01*
X143702740Y-83314920D01*
X143802386Y-83391381D01*
X143843589Y-83447809D01*
X143850900Y-83489757D01*
X143850900Y-84058904D01*
X143831215Y-84125943D01*
X143814581Y-84146585D01*
X139666719Y-88294447D01*
X139621770Y-88339396D01*
X139526245Y-88434920D01*
X139415882Y-88600089D01*
X139415877Y-88600098D01*
X139339856Y-88783630D01*
X139339854Y-88783638D01*
X139301100Y-88978466D01*
X139301100Y-90883753D01*
X139281415Y-90950792D01*
X139228611Y-90996547D01*
X139159453Y-91006491D01*
X139095897Y-90977466D01*
X139089419Y-90971434D01*
X139048613Y-90930628D01*
X138883013Y-90810315D01*
X138883012Y-90810314D01*
X138883010Y-90810313D01*
X138813805Y-90775051D01*
X138700623Y-90717381D01*
X138505934Y-90654122D01*
X138331395Y-90626478D01*
X138303752Y-90622100D01*
X138099048Y-90622100D01*
X138074729Y-90625951D01*
X137896865Y-90654122D01*
X137702176Y-90717381D01*
X137519786Y-90810315D01*
X137354186Y-90930628D01*
X137209428Y-91075386D01*
X137089115Y-91240986D01*
X136996181Y-91423376D01*
X136932922Y-91618065D01*
X136900900Y-91820248D01*
X136900900Y-92024951D01*
X136932922Y-92227134D01*
X136996181Y-92421823D01*
X137089115Y-92604213D01*
X137209428Y-92769813D01*
X137354186Y-92914571D01*
X137509149Y-93027156D01*
X137519790Y-93034887D01*
X137636007Y-93094103D01*
X137702176Y-93127818D01*
X137702178Y-93127818D01*
X137702181Y-93127820D01*
X137780013Y-93153109D01*
X137896865Y-93191077D01*
X137997957Y-93207088D01*
X138099048Y-93223100D01*
X138099049Y-93223100D01*
X138303751Y-93223100D01*
X138303752Y-93223100D01*
X138505934Y-93191077D01*
X138700619Y-93127820D01*
X138883010Y-93034887D01*
X138996268Y-92952601D01*
X139048613Y-92914571D01*
X139048615Y-92914568D01*
X139048619Y-92914566D01*
X139089419Y-92873766D01*
X139150742Y-92840281D01*
X139220434Y-92845265D01*
X139276367Y-92887137D01*
X139300784Y-92952601D01*
X139301100Y-92961447D01*
X139301100Y-98141607D01*
X139281415Y-98208646D01*
X139228611Y-98254401D01*
X139159453Y-98264345D01*
X139133770Y-98257790D01*
X139108884Y-98248509D01*
X139108883Y-98248508D01*
X139049283Y-98242101D01*
X139049281Y-98242100D01*
X139049273Y-98242100D01*
X139049264Y-98242100D01*
X137353529Y-98242100D01*
X137353523Y-98242101D01*
X137293916Y-98248508D01*
X137159071Y-98298802D01*
X137159064Y-98298806D01*
X137043855Y-98385052D01*
X137043852Y-98385055D01*
X136957606Y-98500264D01*
X136957602Y-98500271D01*
X136907308Y-98635117D01*
X136900901Y-98694716D01*
X136900900Y-98694735D01*
X136900900Y-100390470D01*
X136900901Y-100390476D01*
X136907308Y-100450083D01*
X136957602Y-100584928D01*
X136957606Y-100584935D01*
X137015261Y-100661951D01*
X137043854Y-100700146D01*
X137143212Y-100774525D01*
X137185082Y-100830458D01*
X137192900Y-100873791D01*
X137192900Y-101927933D01*
X137231654Y-102122762D01*
X137231657Y-102122772D01*
X137253858Y-102176369D01*
X137307677Y-102306301D01*
X137307682Y-102306310D01*
X137418046Y-102471480D01*
X137418049Y-102471484D01*
X138196114Y-103249548D01*
X138211535Y-103268338D01*
X138307046Y-103411280D01*
X138307049Y-103411284D01*
X138447515Y-103551750D01*
X138447519Y-103551753D01*
X138612689Y-103662117D01*
X138612695Y-103662120D01*
X138612696Y-103662121D01*
X138796231Y-103738144D01*
X138991066Y-103776899D01*
X138991070Y-103776900D01*
X138991071Y-103776900D01*
X143744330Y-103776900D01*
X143744331Y-103776899D01*
X143939169Y-103738144D01*
X144122704Y-103662121D01*
X144287881Y-103551753D01*
X144428353Y-103411281D01*
X144567073Y-103272559D01*
X144628392Y-103239077D01*
X144670931Y-103237304D01*
X144795466Y-103253700D01*
X144795473Y-103253700D01*
X145024927Y-103253700D01*
X145024934Y-103253700D01*
X145252438Y-103223748D01*
X145474087Y-103164358D01*
X145686088Y-103076544D01*
X145884812Y-102961811D01*
X146066861Y-102822119D01*
X146066865Y-102822114D01*
X146066870Y-102822111D01*
X146229111Y-102659870D01*
X146229114Y-102659865D01*
X146229119Y-102659861D01*
X146368811Y-102477812D01*
X146483544Y-102279088D01*
X146571358Y-102067087D01*
X146630748Y-101845438D01*
X146660700Y-101617934D01*
X146660700Y-101388466D01*
X146630748Y-101160962D01*
X146571358Y-100939313D01*
X146513244Y-100799014D01*
X146483549Y-100727323D01*
X146483546Y-100727317D01*
X146483544Y-100727312D01*
X146368811Y-100528588D01*
X146368808Y-100528585D01*
X146368807Y-100528582D01*
X146229118Y-100346538D01*
X146229111Y-100346530D01*
X146066870Y-100184289D01*
X146066861Y-100184281D01*
X145884817Y-100044592D01*
X145686090Y-99929857D01*
X145686076Y-99929850D01*
X145474087Y-99842042D01*
X145452564Y-99836275D01*
X145252438Y-99782652D01*
X145214415Y-99777646D01*
X145024941Y-99752700D01*
X145024934Y-99752700D01*
X144795466Y-99752700D01*
X144795458Y-99752700D01*
X144578915Y-99781209D01*
X144567962Y-99782652D01*
X144500400Y-99800755D01*
X144346312Y-99842042D01*
X144134323Y-99929850D01*
X144134309Y-99929857D01*
X143935582Y-100044592D01*
X143753538Y-100184281D01*
X143591281Y-100346538D01*
X143451592Y-100528582D01*
X143336857Y-100727309D01*
X143336850Y-100727323D01*
X143249042Y-100939312D01*
X143214754Y-101067276D01*
X143206296Y-101098847D01*
X143189653Y-101160959D01*
X143189651Y-101160970D01*
X143159700Y-101388458D01*
X143159700Y-101617934D01*
X143159935Y-101619720D01*
X143159851Y-101620254D01*
X143159965Y-101621985D01*
X143159577Y-101622010D01*
X143149166Y-101688755D01*
X143102784Y-101741009D01*
X143036995Y-101759900D01*
X139610296Y-101759900D01*
X139543257Y-101740215D01*
X139522615Y-101723581D01*
X139246219Y-101447185D01*
X139212734Y-101385862D01*
X139209900Y-101359504D01*
X139209900Y-100873791D01*
X139229585Y-100806752D01*
X139259586Y-100774526D01*
X139358946Y-100700146D01*
X139414306Y-100626195D01*
X139433326Y-100600788D01*
X139489260Y-100558918D01*
X139532592Y-100551100D01*
X139951730Y-100551100D01*
X139951731Y-100551099D01*
X140146569Y-100512344D01*
X140330104Y-100436321D01*
X140495281Y-100325953D01*
X140635753Y-100185481D01*
X141092953Y-99728281D01*
X141203321Y-99563104D01*
X141279344Y-99379569D01*
X141283640Y-99357968D01*
X141285803Y-99347097D01*
X141285803Y-99347095D01*
X141318100Y-99184729D01*
X141318100Y-98782871D01*
X141318100Y-97360471D01*
X141318100Y-96939596D01*
X141337785Y-96872557D01*
X141390589Y-96826802D01*
X141459747Y-96816858D01*
X141523303Y-96845883D01*
X141529781Y-96851915D01*
X141638340Y-96960474D01*
X141638348Y-96960481D01*
X141846396Y-97120124D01*
X142073499Y-97251241D01*
X142073509Y-97251246D01*
X142190401Y-97299664D01*
X142315781Y-97351598D01*
X142569084Y-97419470D01*
X142829080Y-97453700D01*
X142829087Y-97453700D01*
X143091313Y-97453700D01*
X143091320Y-97453700D01*
X143351316Y-97419470D01*
X143604619Y-97351598D01*
X143846897Y-97251243D01*
X144074003Y-97120124D01*
X144282051Y-96960482D01*
X144282055Y-96960477D01*
X144282060Y-96960474D01*
X144467474Y-96775060D01*
X144467477Y-96775055D01*
X144467482Y-96775051D01*
X144627124Y-96567003D01*
X144652124Y-96523700D01*
X144702691Y-96475485D01*
X144759512Y-96461700D01*
X145555504Y-96461700D01*
X145622543Y-96481385D01*
X145643185Y-96498019D01*
X151408781Y-102263615D01*
X151442266Y-102324938D01*
X151445100Y-102351296D01*
X151445100Y-109405172D01*
X151425415Y-109472211D01*
X151408781Y-109492853D01*
X151360889Y-109540744D01*
X151360886Y-109540748D01*
X151268787Y-109690062D01*
X151268786Y-109690064D01*
X151213601Y-109856603D01*
X151213600Y-109856604D01*
X151203100Y-109959384D01*
X151203100Y-111579415D01*
X151213600Y-111682195D01*
X151213601Y-111682197D01*
X151228532Y-111727255D01*
X151268786Y-111848735D01*
X151268787Y-111848737D01*
X151360886Y-111998051D01*
X151360889Y-111998055D01*
X151484944Y-112122110D01*
X151484948Y-112122113D01*
X151634262Y-112214212D01*
X151634264Y-112214213D01*
X151634266Y-112214214D01*
X151800803Y-112269399D01*
X151903592Y-112279900D01*
X151903597Y-112279900D01*
X153003603Y-112279900D01*
X153003608Y-112279900D01*
X153106397Y-112269399D01*
X153272934Y-112214214D01*
X153422255Y-112122111D01*
X153546311Y-111998055D01*
X153638414Y-111848734D01*
X153693599Y-111682197D01*
X153704100Y-111579408D01*
X153704100Y-109959392D01*
X153693599Y-109856603D01*
X153638414Y-109690066D01*
X153597542Y-109623803D01*
X153546313Y-109540748D01*
X153546310Y-109540744D01*
X153498419Y-109492853D01*
X153464934Y-109431530D01*
X153462100Y-109405172D01*
X153462100Y-101782870D01*
X153462099Y-101782866D01*
X153450308Y-101723587D01*
X153423344Y-101588031D01*
X153347321Y-101404496D01*
X153347319Y-101404493D01*
X153347317Y-101404489D01*
X153325657Y-101372072D01*
X155109700Y-101372072D01*
X155109700Y-101634327D01*
X155136323Y-101836539D01*
X155143930Y-101894316D01*
X155211802Y-102147618D01*
X155211805Y-102147628D01*
X155312153Y-102389890D01*
X155312158Y-102389900D01*
X155443275Y-102617003D01*
X155602918Y-102825051D01*
X155602926Y-102825060D01*
X155788340Y-103010474D01*
X155788348Y-103010481D01*
X155996396Y-103170124D01*
X156223499Y-103301241D01*
X156223509Y-103301246D01*
X156465771Y-103401594D01*
X156465781Y-103401598D01*
X156719084Y-103469470D01*
X156979080Y-103503700D01*
X156979087Y-103503700D01*
X157241313Y-103503700D01*
X157241320Y-103503700D01*
X157501316Y-103469470D01*
X157754619Y-103401598D01*
X157996897Y-103301243D01*
X158224003Y-103170124D01*
X158432051Y-103010482D01*
X158432055Y-103010477D01*
X158432060Y-103010474D01*
X158617474Y-102825060D01*
X158617477Y-102825055D01*
X158617482Y-102825051D01*
X158777124Y-102617003D01*
X158908243Y-102389897D01*
X159008598Y-102147619D01*
X159076470Y-101894316D01*
X159110700Y-101634320D01*
X159110700Y-101372080D01*
X159076470Y-101112084D01*
X159008598Y-100858781D01*
X158956769Y-100733655D01*
X158908246Y-100616509D01*
X158908241Y-100616499D01*
X158777124Y-100389396D01*
X158636779Y-100206497D01*
X158617482Y-100181349D01*
X158617481Y-100181348D01*
X158617474Y-100181340D01*
X158432060Y-99995926D01*
X158432051Y-99995918D01*
X158224003Y-99836275D01*
X157996900Y-99705158D01*
X157996890Y-99705153D01*
X157754628Y-99604805D01*
X157754621Y-99604803D01*
X157754619Y-99604802D01*
X157501316Y-99536930D01*
X157443539Y-99529323D01*
X157241327Y-99502700D01*
X157241320Y-99502700D01*
X156979080Y-99502700D01*
X156979072Y-99502700D01*
X156761763Y-99531311D01*
X156719084Y-99536930D01*
X156469521Y-99603800D01*
X156465781Y-99604802D01*
X156465771Y-99604805D01*
X156223509Y-99705153D01*
X156223499Y-99705158D01*
X155996396Y-99836275D01*
X155788348Y-99995918D01*
X155602918Y-100181348D01*
X155443275Y-100389396D01*
X155312158Y-100616499D01*
X155312153Y-100616509D01*
X155211805Y-100858771D01*
X155211802Y-100858781D01*
X155169211Y-101017736D01*
X155143930Y-101112085D01*
X155109700Y-101372072D01*
X153325657Y-101372072D01*
X153236954Y-101239320D01*
X153233620Y-101235986D01*
X153096481Y-101098847D01*
X149896375Y-97898741D01*
X146667484Y-94669849D01*
X146667480Y-94669846D01*
X146502310Y-94559482D01*
X146502297Y-94559475D01*
X146472953Y-94547321D01*
X146472952Y-94547321D01*
X146318769Y-94483456D01*
X146318761Y-94483454D01*
X146123933Y-94444700D01*
X146123929Y-94444700D01*
X144759512Y-94444700D01*
X144692473Y-94425015D01*
X144652124Y-94382699D01*
X144627122Y-94339394D01*
X144467481Y-94131348D01*
X144467474Y-94131340D01*
X144282060Y-93945926D01*
X144282051Y-93945918D01*
X144074003Y-93786275D01*
X143846900Y-93655158D01*
X143846890Y-93655153D01*
X143604628Y-93554805D01*
X143604621Y-93554803D01*
X143604619Y-93554802D01*
X143351316Y-93486930D01*
X143293539Y-93479323D01*
X143091327Y-93452700D01*
X143091320Y-93452700D01*
X142829080Y-93452700D01*
X142829072Y-93452700D01*
X142597972Y-93483126D01*
X142569084Y-93486930D01*
X142525464Y-93498618D01*
X142315781Y-93554802D01*
X142315771Y-93554805D01*
X142073509Y-93655153D01*
X142073499Y-93655158D01*
X141846396Y-93786275D01*
X141638348Y-93945918D01*
X141529781Y-94054485D01*
X141468458Y-94087970D01*
X141398766Y-94082986D01*
X141342833Y-94041114D01*
X141318416Y-93975650D01*
X141318100Y-93966804D01*
X141318100Y-89546896D01*
X141326744Y-89517455D01*
X141333268Y-89487469D01*
X141337022Y-89482453D01*
X141337785Y-89479857D01*
X141354419Y-89459215D01*
X141425176Y-89388458D01*
X143159700Y-89388458D01*
X143159700Y-89617941D01*
X143184646Y-89807415D01*
X143189652Y-89845438D01*
X143238718Y-90028558D01*
X143249042Y-90067087D01*
X143336850Y-90279076D01*
X143336857Y-90279090D01*
X143451592Y-90477817D01*
X143591281Y-90659861D01*
X143591289Y-90659870D01*
X143753530Y-90822111D01*
X143753538Y-90822118D01*
X143935582Y-90961807D01*
X143935585Y-90961808D01*
X143935588Y-90961811D01*
X144134312Y-91076544D01*
X144134317Y-91076546D01*
X144134323Y-91076549D01*
X144225680Y-91114390D01*
X144346313Y-91164358D01*
X144567962Y-91223748D01*
X144795466Y-91253700D01*
X144795473Y-91253700D01*
X145024927Y-91253700D01*
X145024934Y-91253700D01*
X145252438Y-91223748D01*
X145474087Y-91164358D01*
X145686088Y-91076544D01*
X145884812Y-90961811D01*
X146066861Y-90822119D01*
X146066865Y-90822114D01*
X146066870Y-90822111D01*
X146229111Y-90659870D01*
X146229114Y-90659865D01*
X146229119Y-90659861D01*
X146368811Y-90477812D01*
X146483544Y-90279088D01*
X146571358Y-90067087D01*
X146630748Y-89845438D01*
X146660700Y-89617934D01*
X146660700Y-89388466D01*
X146630748Y-89160962D01*
X146571358Y-88939313D01*
X146483544Y-88727312D01*
X146368811Y-88528588D01*
X146368808Y-88528585D01*
X146368807Y-88528582D01*
X146240888Y-88361877D01*
X146229119Y-88346539D01*
X146229118Y-88346538D01*
X146229111Y-88346530D01*
X146066870Y-88184289D01*
X146066861Y-88184281D01*
X145884817Y-88044592D01*
X145686090Y-87929857D01*
X145686076Y-87929850D01*
X145474087Y-87842042D01*
X145252438Y-87782652D01*
X145214415Y-87777646D01*
X145024941Y-87752700D01*
X145024934Y-87752700D01*
X144795466Y-87752700D01*
X144795458Y-87752700D01*
X144578915Y-87781209D01*
X144567962Y-87782652D01*
X144474276Y-87807754D01*
X144346312Y-87842042D01*
X144134323Y-87929850D01*
X144134309Y-87929857D01*
X143935582Y-88044592D01*
X143753538Y-88184281D01*
X143591281Y-88346538D01*
X143451592Y-88528582D01*
X143336857Y-88727309D01*
X143336850Y-88727323D01*
X143249042Y-88939312D01*
X143189653Y-89160959D01*
X143189651Y-89160970D01*
X143159700Y-89388458D01*
X141425176Y-89388458D01*
X145642750Y-85170884D01*
X145642753Y-85170881D01*
X145753122Y-85005704D01*
X145829144Y-84822168D01*
X145867900Y-84627329D01*
X145867900Y-84428671D01*
X145867900Y-83489757D01*
X145887585Y-83422718D01*
X145916414Y-83391381D01*
X146012228Y-83317860D01*
X146016061Y-83314919D01*
X146067339Y-83263641D01*
X146178311Y-83152670D01*
X146178314Y-83152665D01*
X146178319Y-83152661D01*
X146318011Y-82970612D01*
X146432744Y-82771888D01*
X146520558Y-82559887D01*
X146579948Y-82338238D01*
X146609900Y-82110734D01*
X146609900Y-81881266D01*
X146579948Y-81653762D01*
X146520558Y-81432113D01*
X146452485Y-81267770D01*
X146432749Y-81220123D01*
X146432746Y-81220117D01*
X146432744Y-81220112D01*
X146318011Y-81021388D01*
X146318008Y-81021385D01*
X146318007Y-81021382D01*
X146178318Y-80839338D01*
X146178311Y-80839330D01*
X146016070Y-80677089D01*
X146016061Y-80677081D01*
X145834017Y-80537392D01*
X145635290Y-80422657D01*
X145635276Y-80422650D01*
X145423287Y-80334842D01*
X145401764Y-80329075D01*
X145201638Y-80275452D01*
X145163615Y-80270446D01*
X144974141Y-80245500D01*
X144974134Y-80245500D01*
X144744666Y-80245500D01*
X144744658Y-80245500D01*
X144528115Y-80274009D01*
X144517162Y-80275452D01*
X144423476Y-80300554D01*
X144295512Y-80334842D01*
X144083523Y-80422650D01*
X144083509Y-80422657D01*
X143884782Y-80537392D01*
X143702738Y-80677081D01*
X143702730Y-80677089D01*
X143540489Y-80839329D01*
X143540482Y-80839337D01*
X143540481Y-80839339D01*
X143464016Y-80938989D01*
X143407591Y-80980189D01*
X143365643Y-80987500D01*
X141469296Y-80987500D01*
X141402257Y-80967815D01*
X141381615Y-80951181D01*
X140224018Y-79793584D01*
X140190533Y-79732261D01*
X140187699Y-79705903D01*
X140187699Y-79035129D01*
X140187698Y-79035123D01*
X140186453Y-79023542D01*
X140181291Y-78975517D01*
X140154398Y-78903414D01*
X140130997Y-78840671D01*
X140130993Y-78840664D01*
X140044747Y-78725455D01*
X140044744Y-78725452D01*
X139929535Y-78639206D01*
X139929528Y-78639202D01*
X139794682Y-78588908D01*
X139794683Y-78588908D01*
X139735083Y-78582501D01*
X139735081Y-78582500D01*
X139735073Y-78582500D01*
X139735065Y-78582500D01*
X139064296Y-78582500D01*
X138997257Y-78562815D01*
X138976615Y-78546181D01*
X137671419Y-77240985D01*
X137637934Y-77179662D01*
X137635100Y-77153304D01*
X137635100Y-75814872D01*
X140908900Y-75814872D01*
X140908900Y-76077127D01*
X140921301Y-76171315D01*
X140943130Y-76337116D01*
X140959534Y-76398336D01*
X141011002Y-76590418D01*
X141011005Y-76590428D01*
X141111353Y-76832690D01*
X141111358Y-76832700D01*
X141242475Y-77059803D01*
X141402118Y-77267851D01*
X141402126Y-77267860D01*
X141587540Y-77453274D01*
X141587548Y-77453281D01*
X141587549Y-77453282D01*
X141624016Y-77481264D01*
X141795596Y-77612924D01*
X142022699Y-77744041D01*
X142022709Y-77744046D01*
X142245469Y-77836316D01*
X142264981Y-77844398D01*
X142518284Y-77912270D01*
X142778280Y-77946500D01*
X142778287Y-77946500D01*
X143040513Y-77946500D01*
X143040520Y-77946500D01*
X143300516Y-77912270D01*
X143553819Y-77844398D01*
X143796097Y-77744043D01*
X143977261Y-77639447D01*
X144002611Y-77628377D01*
X144604200Y-77442359D01*
X144674062Y-77441362D01*
X144728511Y-77473145D01*
X155127031Y-87871665D01*
X155160516Y-87932988D01*
X155162925Y-87949093D01*
X155238981Y-88865782D01*
X155235181Y-88908127D01*
X155193932Y-89062076D01*
X155193930Y-89062084D01*
X155193930Y-89062085D01*
X155193929Y-89062092D01*
X155159700Y-89322072D01*
X155159700Y-89584327D01*
X155182854Y-89760186D01*
X155193930Y-89844316D01*
X155243298Y-90028560D01*
X155261802Y-90097618D01*
X155261805Y-90097628D01*
X155362153Y-90339890D01*
X155362158Y-90339900D01*
X155493275Y-90567003D01*
X155652918Y-90775051D01*
X155652926Y-90775060D01*
X155838340Y-90960474D01*
X155838348Y-90960481D01*
X156046396Y-91120124D01*
X156273499Y-91251241D01*
X156273509Y-91251246D01*
X156506679Y-91347828D01*
X156515781Y-91351598D01*
X156769084Y-91419470D01*
X157029080Y-91453700D01*
X157029087Y-91453700D01*
X157291313Y-91453700D01*
X157291320Y-91453700D01*
X157551316Y-91419470D01*
X157804619Y-91351598D01*
X157981540Y-91278314D01*
X158046890Y-91251246D01*
X158046891Y-91251245D01*
X158046897Y-91251243D01*
X158274003Y-91120124D01*
X158482051Y-90960482D01*
X158482055Y-90960477D01*
X158482060Y-90960474D01*
X158667474Y-90775060D01*
X158667477Y-90775055D01*
X158667482Y-90775051D01*
X158827124Y-90567003D01*
X158958243Y-90339897D01*
X159058598Y-90097619D01*
X159126470Y-89844316D01*
X159160700Y-89584320D01*
X159160700Y-89322080D01*
X159126470Y-89062084D01*
X159058598Y-88808781D01*
X159058594Y-88808771D01*
X158958246Y-88566509D01*
X158958241Y-88566499D01*
X158827124Y-88339396D01*
X158667481Y-88131348D01*
X158667474Y-88131340D01*
X158482060Y-87945926D01*
X158482051Y-87945918D01*
X158274003Y-87786275D01*
X158046900Y-87655158D01*
X158046890Y-87655154D01*
X157804619Y-87554802D01*
X157780358Y-87548301D01*
X157729128Y-87520357D01*
X156714629Y-86599799D01*
X156678077Y-86569295D01*
X156678351Y-86568966D01*
X156669075Y-86561241D01*
X152056336Y-81948502D01*
X151972706Y-81864872D01*
X155058900Y-81864872D01*
X155058900Y-82127127D01*
X155072803Y-82232721D01*
X155093130Y-82387116D01*
X155161002Y-82640418D01*
X155161005Y-82640428D01*
X155261353Y-82882690D01*
X155261358Y-82882700D01*
X155392475Y-83109803D01*
X155552118Y-83317851D01*
X155552126Y-83317860D01*
X155737540Y-83503274D01*
X155737548Y-83503281D01*
X155945596Y-83662924D01*
X156172699Y-83794041D01*
X156172709Y-83794046D01*
X156414971Y-83894394D01*
X156414981Y-83894398D01*
X156668284Y-83962270D01*
X156928280Y-83996500D01*
X156928287Y-83996500D01*
X157190513Y-83996500D01*
X157190520Y-83996500D01*
X157450516Y-83962270D01*
X157703819Y-83894398D01*
X157946097Y-83794043D01*
X158173203Y-83662924D01*
X158381251Y-83503282D01*
X158381255Y-83503277D01*
X158381260Y-83503274D01*
X158566674Y-83317860D01*
X158566677Y-83317855D01*
X158566682Y-83317851D01*
X158726324Y-83109803D01*
X158857443Y-82882697D01*
X158957798Y-82640419D01*
X159025670Y-82387116D01*
X159059900Y-82127120D01*
X159059900Y-81864880D01*
X159025670Y-81604884D01*
X158957798Y-81351581D01*
X158953421Y-81341014D01*
X158857446Y-81109309D01*
X158857441Y-81109299D01*
X158726324Y-80882196D01*
X158566681Y-80674148D01*
X158566674Y-80674140D01*
X158381260Y-80488726D01*
X158381251Y-80488718D01*
X158173203Y-80329075D01*
X157946100Y-80197958D01*
X157946090Y-80197953D01*
X157703828Y-80097605D01*
X157703821Y-80097603D01*
X157703819Y-80097602D01*
X157450516Y-80029730D01*
X157392739Y-80022123D01*
X157190527Y-79995500D01*
X157190520Y-79995500D01*
X156928280Y-79995500D01*
X156928272Y-79995500D01*
X156697172Y-80025926D01*
X156668284Y-80029730D01*
X156414981Y-80097602D01*
X156414971Y-80097605D01*
X156172709Y-80197953D01*
X156172699Y-80197958D01*
X155945596Y-80329075D01*
X155737548Y-80488718D01*
X155552118Y-80674148D01*
X155392475Y-80882196D01*
X155261358Y-81109299D01*
X155261353Y-81109309D01*
X155161005Y-81351571D01*
X155161002Y-81351581D01*
X155093130Y-81604884D01*
X155092880Y-81606781D01*
X155058900Y-81864872D01*
X151972706Y-81864872D01*
X145270484Y-75162649D01*
X145270480Y-75162646D01*
X145105310Y-75052282D01*
X145105301Y-75052277D01*
X144921769Y-74976256D01*
X144921761Y-74976254D01*
X144726933Y-74937500D01*
X144726929Y-74937500D01*
X144718831Y-74937500D01*
X144700083Y-74931995D01*
X144680553Y-74931444D01*
X144654322Y-74918557D01*
X144651792Y-74917815D01*
X144648875Y-74915882D01*
X144632163Y-74904463D01*
X144594731Y-74864080D01*
X144576322Y-74832194D01*
X144416681Y-74624148D01*
X144416674Y-74624140D01*
X144231260Y-74438726D01*
X144231251Y-74438718D01*
X144023203Y-74279075D01*
X143796100Y-74147958D01*
X143796090Y-74147953D01*
X143553828Y-74047605D01*
X143553821Y-74047603D01*
X143553819Y-74047602D01*
X143300516Y-73979730D01*
X143242739Y-73972123D01*
X143040527Y-73945500D01*
X143040520Y-73945500D01*
X142778280Y-73945500D01*
X142778272Y-73945500D01*
X142547172Y-73975926D01*
X142518284Y-73979730D01*
X142264981Y-74047602D01*
X142264971Y-74047605D01*
X142022709Y-74147953D01*
X142022699Y-74147958D01*
X141795596Y-74279075D01*
X141587548Y-74438718D01*
X141402118Y-74624148D01*
X141242475Y-74832196D01*
X141111358Y-75059299D01*
X141111353Y-75059309D01*
X141011005Y-75301571D01*
X141011002Y-75301581D01*
X140971215Y-75450071D01*
X140943130Y-75554885D01*
X140908900Y-75814872D01*
X137635100Y-75814872D01*
X137635100Y-73133808D01*
X137654785Y-73066769D01*
X137707589Y-73021014D01*
X137776747Y-73011070D01*
X137840303Y-73040095D01*
X137859419Y-73060923D01*
X137895234Y-73110219D01*
X138039986Y-73254971D01*
X138194949Y-73367556D01*
X138205590Y-73375287D01*
X138321807Y-73434503D01*
X138387976Y-73468218D01*
X138387978Y-73468218D01*
X138387981Y-73468220D01*
X138492337Y-73502127D01*
X138582665Y-73531477D01*
X138683757Y-73547488D01*
X138784848Y-73563500D01*
X138784849Y-73563500D01*
X138989551Y-73563500D01*
X138989552Y-73563500D01*
X139191734Y-73531477D01*
X139386419Y-73468220D01*
X139568810Y-73375287D01*
X139661790Y-73307732D01*
X139734413Y-73254971D01*
X139734415Y-73254968D01*
X139734419Y-73254966D01*
X139879166Y-73110219D01*
X139879168Y-73110215D01*
X139879171Y-73110213D01*
X139951201Y-73011070D01*
X139999487Y-72944610D01*
X140092420Y-72762219D01*
X140155677Y-72567534D01*
X140187700Y-72365352D01*
X140187700Y-72160648D01*
X140161759Y-71996864D01*
X140155677Y-71958465D01*
X140124950Y-71863899D01*
X140092420Y-71763781D01*
X140092418Y-71763778D01*
X140092418Y-71763776D01*
X140058703Y-71697607D01*
X139999487Y-71581390D01*
X139990734Y-71569342D01*
X139879171Y-71415786D01*
X139734413Y-71271028D01*
X139568813Y-71150715D01*
X139568812Y-71150714D01*
X139568810Y-71150713D01*
X139511853Y-71121691D01*
X139386423Y-71057781D01*
X139191734Y-70994522D01*
X139017195Y-70966878D01*
X138989552Y-70962500D01*
X138784848Y-70962500D01*
X138760529Y-70966351D01*
X138582665Y-70994522D01*
X138387976Y-71057781D01*
X138205586Y-71150715D01*
X138039986Y-71271028D01*
X137895232Y-71415782D01*
X137895228Y-71415787D01*
X137859418Y-71465076D01*
X137804088Y-71507742D01*
X137734475Y-71513721D01*
X137672680Y-71481115D01*
X137638323Y-71420277D01*
X137635100Y-71392191D01*
X137635100Y-69881258D01*
X143108900Y-69881258D01*
X143108900Y-70110741D01*
X143130141Y-70272074D01*
X143138852Y-70338238D01*
X143178876Y-70487610D01*
X143198242Y-70559887D01*
X143286050Y-70771876D01*
X143286057Y-70771890D01*
X143400792Y-70970617D01*
X143540481Y-71152661D01*
X143540489Y-71152670D01*
X143702730Y-71314911D01*
X143702738Y-71314918D01*
X143884782Y-71454607D01*
X143884785Y-71454608D01*
X143884788Y-71454611D01*
X144083512Y-71569344D01*
X144083517Y-71569346D01*
X144083523Y-71569349D01*
X144124681Y-71586397D01*
X144295513Y-71657158D01*
X144517162Y-71716548D01*
X144744666Y-71746500D01*
X144744673Y-71746500D01*
X144974127Y-71746500D01*
X144974134Y-71746500D01*
X145201638Y-71716548D01*
X145423287Y-71657158D01*
X145635288Y-71569344D01*
X145834012Y-71454611D01*
X146016061Y-71314919D01*
X146016065Y-71314914D01*
X146016070Y-71314911D01*
X146178311Y-71152670D01*
X146178314Y-71152665D01*
X146178319Y-71152661D01*
X146318011Y-70970612D01*
X146432744Y-70771888D01*
X146520558Y-70559887D01*
X146579948Y-70338238D01*
X146609900Y-70110734D01*
X146609900Y-69881266D01*
X146579948Y-69653762D01*
X146520558Y-69432113D01*
X146445839Y-69251726D01*
X146432749Y-69220123D01*
X146432746Y-69220117D01*
X146432744Y-69220112D01*
X146318011Y-69021388D01*
X146318008Y-69021385D01*
X146318007Y-69021382D01*
X146178318Y-68839338D01*
X146178311Y-68839330D01*
X146016070Y-68677089D01*
X146016061Y-68677081D01*
X145834017Y-68537392D01*
X145635290Y-68422657D01*
X145635276Y-68422650D01*
X145423287Y-68334842D01*
X145201638Y-68275452D01*
X145163615Y-68270446D01*
X144974141Y-68245500D01*
X144974134Y-68245500D01*
X144744666Y-68245500D01*
X144744658Y-68245500D01*
X144528115Y-68274009D01*
X144517162Y-68275452D01*
X144423476Y-68300554D01*
X144295512Y-68334842D01*
X144083523Y-68422650D01*
X144083509Y-68422657D01*
X143884782Y-68537392D01*
X143702738Y-68677081D01*
X143540481Y-68839338D01*
X143400792Y-69021382D01*
X143286057Y-69220109D01*
X143286050Y-69220123D01*
X143198242Y-69432112D01*
X143138853Y-69653759D01*
X143138851Y-69653770D01*
X143108900Y-69881258D01*
X137635100Y-69881258D01*
X137635100Y-68668096D01*
X137654785Y-68601057D01*
X137671419Y-68580415D01*
X140411615Y-65840219D01*
X140472938Y-65806734D01*
X140499296Y-65803900D01*
X189243504Y-65803900D01*
X189310543Y-65823585D01*
X189331185Y-65840219D01*
X191482981Y-67992015D01*
X191516466Y-68053338D01*
X191519300Y-68079696D01*
X191519300Y-71519358D01*
X191499615Y-71586397D01*
X191453856Y-71626368D01*
X191454613Y-71627594D01*
X191299145Y-71723488D01*
X191175089Y-71847544D01*
X191175086Y-71847548D01*
X191082987Y-71996862D01*
X191082986Y-71996864D01*
X191027801Y-72163403D01*
X191027800Y-72163404D01*
X191017300Y-72266184D01*
X191017300Y-72649210D01*
X191015773Y-72668608D01*
X191011300Y-72696849D01*
X191011300Y-75935550D01*
X191048641Y-76171311D01*
X191048641Y-76171312D01*
X191048642Y-76171315D01*
X191122405Y-76398334D01*
X191230773Y-76611019D01*
X191371079Y-76804133D01*
X191539867Y-76972921D01*
X191732981Y-77113227D01*
X191945666Y-77221595D01*
X192172685Y-77295358D01*
X192408449Y-77332700D01*
X192408450Y-77332700D01*
X192647150Y-77332700D01*
X192647151Y-77332700D01*
X192882915Y-77295358D01*
X193109934Y-77221595D01*
X193322619Y-77113227D01*
X193515733Y-76972921D01*
X193684521Y-76804133D01*
X193824827Y-76611019D01*
X193933195Y-76398334D01*
X194006958Y-76171315D01*
X194044300Y-75935551D01*
X194044300Y-72696849D01*
X194039826Y-72668607D01*
X194038300Y-72649210D01*
X194038300Y-72266197D01*
X194038299Y-72266184D01*
X194027799Y-72163404D01*
X194027799Y-72163403D01*
X193972614Y-71996866D01*
X193948928Y-71958466D01*
X193880513Y-71847548D01*
X193880510Y-71847544D01*
X193756454Y-71723488D01*
X193600987Y-71627594D01*
X193601760Y-71626340D01*
X193555452Y-71585562D01*
X193536300Y-71519358D01*
X193536300Y-70394812D01*
X193555985Y-70327773D01*
X193608789Y-70282018D01*
X193677947Y-70272074D01*
X193741503Y-70301099D01*
X193763402Y-70325921D01*
X193799986Y-70380674D01*
X193923322Y-70504010D01*
X193923326Y-70504013D01*
X194068351Y-70600916D01*
X194068357Y-70600919D01*
X194068358Y-70600920D01*
X194229509Y-70667671D01*
X194400581Y-70701699D01*
X194400585Y-70701700D01*
X194400586Y-70701700D01*
X194575015Y-70701700D01*
X194575016Y-70701699D01*
X194746091Y-70667671D01*
X194907242Y-70600920D01*
X195052274Y-70504013D01*
X195175613Y-70380674D01*
X195272520Y-70235642D01*
X195339271Y-70074491D01*
X195373300Y-69903414D01*
X195373300Y-69728986D01*
X195339271Y-69557909D01*
X195272520Y-69396758D01*
X195272519Y-69396757D01*
X195272516Y-69396751D01*
X195175613Y-69251726D01*
X195175610Y-69251722D01*
X195052277Y-69128389D01*
X195052273Y-69128386D01*
X194907248Y-69031483D01*
X194907239Y-69031478D01*
X194746091Y-68964729D01*
X194746083Y-68964727D01*
X194575018Y-68930700D01*
X194575014Y-68930700D01*
X194400586Y-68930700D01*
X194400581Y-68930700D01*
X194229516Y-68964727D01*
X194229508Y-68964729D01*
X194068360Y-69031478D01*
X194068351Y-69031483D01*
X193923326Y-69128386D01*
X193923322Y-69128389D01*
X193799989Y-69251722D01*
X193799986Y-69251726D01*
X193763402Y-69306478D01*
X193709789Y-69351283D01*
X193640464Y-69359990D01*
X193577437Y-69329835D01*
X193540718Y-69270392D01*
X193536300Y-69237587D01*
X193536300Y-67494270D01*
X193536299Y-67494266D01*
X193497546Y-67299438D01*
X193497543Y-67299429D01*
X193421525Y-67115902D01*
X193421518Y-67115889D01*
X193311154Y-66950719D01*
X193311151Y-66950715D01*
X193170684Y-66810248D01*
X193170680Y-66810245D01*
X193129597Y-66782794D01*
X193110807Y-66767373D01*
X190355484Y-64012049D01*
X190355480Y-64012046D01*
X190190310Y-63901682D01*
X190190301Y-63901677D01*
X190006769Y-63825656D01*
X190006761Y-63825654D01*
X189811933Y-63786900D01*
X189811929Y-63786900D01*
X140129529Y-63786900D01*
X139930871Y-63786900D01*
X139930866Y-63786900D01*
X139736038Y-63825654D01*
X139736030Y-63825656D01*
X139552498Y-63901677D01*
X139552489Y-63901682D01*
X139387319Y-64012046D01*
X139387315Y-64012049D01*
X136631993Y-66767373D01*
X135983719Y-67415647D01*
X135913482Y-67485884D01*
X135843245Y-67556120D01*
X135732882Y-67721289D01*
X135732877Y-67721298D01*
X135656856Y-67904830D01*
X135656854Y-67904838D01*
X135618100Y-68099666D01*
X130360379Y-68099666D01*
X130360379Y-60749392D01*
X132557580Y-60749392D01*
X132557580Y-61019019D01*
X132587766Y-61286925D01*
X132587767Y-61286934D01*
X132587768Y-61286938D01*
X132600277Y-61341743D01*
X132647764Y-61549800D01*
X132647767Y-61549808D01*
X132736814Y-61804288D01*
X132853794Y-62047200D01*
X132853796Y-62047203D01*
X132997242Y-62275495D01*
X133165346Y-62486291D01*
X133355995Y-62676940D01*
X133566791Y-62845044D01*
X133795083Y-62988490D01*
X134038001Y-63105473D01*
X134229129Y-63172351D01*
X134292477Y-63194518D01*
X134292485Y-63194521D01*
X134292488Y-63194521D01*
X134292489Y-63194522D01*
X134555348Y-63254518D01*
X134823267Y-63284705D01*
X134823268Y-63284706D01*
X134823271Y-63284706D01*
X135092892Y-63284706D01*
X135092892Y-63284705D01*
X135360812Y-63254518D01*
X135623671Y-63194522D01*
X135878159Y-63105473D01*
X136121077Y-62988490D01*
X136349369Y-62845044D01*
X136560165Y-62676940D01*
X136750814Y-62486291D01*
X136918918Y-62275495D01*
X137062364Y-62047203D01*
X137179347Y-61804285D01*
X137268396Y-61549797D01*
X137328392Y-61286938D01*
X137358580Y-61019015D01*
X137358580Y-60749397D01*
X137328392Y-60481474D01*
X137268396Y-60218615D01*
X137179347Y-59964127D01*
X137062364Y-59721209D01*
X136996623Y-59616584D01*
X164992500Y-59616584D01*
X164992500Y-61236615D01*
X165003000Y-61339395D01*
X165003001Y-61339397D01*
X165022220Y-61397397D01*
X165058186Y-61505935D01*
X165058187Y-61505937D01*
X165150286Y-61655251D01*
X165150289Y-61655255D01*
X165274344Y-61779310D01*
X165274348Y-61779313D01*
X165423662Y-61871412D01*
X165423664Y-61871413D01*
X165423666Y-61871414D01*
X165590203Y-61926599D01*
X165692992Y-61937100D01*
X165692997Y-61937100D01*
X166793003Y-61937100D01*
X166793008Y-61937100D01*
X166895797Y-61926599D01*
X167062334Y-61871414D01*
X167211655Y-61779311D01*
X167335711Y-61655255D01*
X167427814Y-61505934D01*
X167482999Y-61339397D01*
X167493500Y-61236608D01*
X167493500Y-60068217D01*
X167993000Y-60068217D01*
X167993000Y-60176600D01*
X168798440Y-60176600D01*
X168767755Y-60229747D01*
X168733000Y-60359457D01*
X168733000Y-60493743D01*
X168767755Y-60623453D01*
X168798440Y-60676600D01*
X167993000Y-60676600D01*
X167993000Y-60784982D01*
X168023778Y-60979305D01*
X168084581Y-61166435D01*
X168173904Y-61341743D01*
X168289555Y-61500921D01*
X168428678Y-61640044D01*
X168587856Y-61755695D01*
X168763162Y-61845018D01*
X168950283Y-61905818D01*
X168993000Y-61912584D01*
X168993000Y-60871160D01*
X169046147Y-60901845D01*
X169175857Y-60936600D01*
X169310143Y-60936600D01*
X169439853Y-60901845D01*
X169493000Y-60871160D01*
X169493000Y-61912583D01*
X169535716Y-61905818D01*
X169722837Y-61845018D01*
X169898143Y-61755695D01*
X170057321Y-61640044D01*
X170196444Y-61500921D01*
X170312095Y-61341743D01*
X170401418Y-61166435D01*
X170462221Y-60979305D01*
X170493000Y-60784982D01*
X170493000Y-60676600D01*
X169687560Y-60676600D01*
X169718245Y-60623453D01*
X169753000Y-60493743D01*
X169753000Y-60359457D01*
X169718245Y-60229747D01*
X169687560Y-60176600D01*
X170493000Y-60176600D01*
X170493000Y-60068217D01*
X170462221Y-59873894D01*
X170401418Y-59686764D01*
X170401303Y-59686537D01*
X170401302Y-59686532D01*
X170401299Y-59686529D01*
X170374221Y-59633384D01*
X177513300Y-59633384D01*
X177513300Y-61253415D01*
X177523800Y-61356195D01*
X177523801Y-61356197D01*
X177537457Y-61397408D01*
X177578986Y-61522735D01*
X177578987Y-61522737D01*
X177671086Y-61672051D01*
X177671089Y-61672055D01*
X177795144Y-61796110D01*
X177795148Y-61796113D01*
X177944462Y-61888212D01*
X177944464Y-61888213D01*
X177944466Y-61888214D01*
X178111003Y-61943399D01*
X178213792Y-61953900D01*
X178213797Y-61953900D01*
X179313803Y-61953900D01*
X179313808Y-61953900D01*
X179416597Y-61943399D01*
X179583134Y-61888214D01*
X179732455Y-61796111D01*
X179856511Y-61672055D01*
X179948614Y-61522734D01*
X180003799Y-61356197D01*
X180014300Y-61253408D01*
X180014300Y-60085017D01*
X180513800Y-60085017D01*
X180513800Y-60193400D01*
X181319240Y-60193400D01*
X181288555Y-60246547D01*
X181253800Y-60376257D01*
X181253800Y-60510543D01*
X181288555Y-60640253D01*
X181319240Y-60693400D01*
X180513800Y-60693400D01*
X180513800Y-60801782D01*
X180544578Y-60996105D01*
X180605381Y-61183235D01*
X180694704Y-61358543D01*
X180810355Y-61517721D01*
X180949478Y-61656844D01*
X181108656Y-61772495D01*
X181283962Y-61861818D01*
X181471083Y-61922618D01*
X181513800Y-61929384D01*
X181513800Y-60887960D01*
X181566947Y-60918645D01*
X181696657Y-60953400D01*
X181830943Y-60953400D01*
X181960653Y-60918645D01*
X182013800Y-60887960D01*
X182013800Y-61929383D01*
X182056516Y-61922618D01*
X182243637Y-61861818D01*
X182418943Y-61772495D01*
X182578121Y-61656844D01*
X182717244Y-61517721D01*
X182832895Y-61358543D01*
X182922218Y-61183235D01*
X182983021Y-60996105D01*
X183013800Y-60801782D01*
X183013800Y-60693400D01*
X182208360Y-60693400D01*
X182239045Y-60640253D01*
X182250637Y-60596992D01*
X189123380Y-60596992D01*
X189123380Y-60866619D01*
X189153566Y-61134525D01*
X189153568Y-61134537D01*
X189213564Y-61397400D01*
X189213567Y-61397408D01*
X189302614Y-61651888D01*
X189419594Y-61894800D01*
X189419596Y-61894803D01*
X189563042Y-62123095D01*
X189731146Y-62333891D01*
X189921795Y-62524540D01*
X190132591Y-62692644D01*
X190360883Y-62836090D01*
X190603801Y-62953073D01*
X190794929Y-63019951D01*
X190858277Y-63042118D01*
X190858285Y-63042121D01*
X190858288Y-63042121D01*
X190858289Y-63042122D01*
X191121148Y-63102118D01*
X191389067Y-63132305D01*
X191389068Y-63132306D01*
X191389071Y-63132306D01*
X191658692Y-63132306D01*
X191658692Y-63132305D01*
X191926612Y-63102118D01*
X192189471Y-63042122D01*
X192443959Y-62953073D01*
X192686877Y-62836090D01*
X192915169Y-62692644D01*
X193125965Y-62524540D01*
X193316614Y-62333891D01*
X193484718Y-62123095D01*
X193628164Y-61894803D01*
X193745147Y-61651885D01*
X193834196Y-61397397D01*
X193894192Y-61134538D01*
X193924380Y-60866615D01*
X193924380Y-60596997D01*
X193894192Y-60329074D01*
X193834196Y-60066215D01*
X193745147Y-59811727D01*
X193659268Y-59633397D01*
X193628165Y-59568811D01*
X193604157Y-59530603D01*
X193484718Y-59340517D01*
X193316614Y-59129721D01*
X193125965Y-58939072D01*
X193080541Y-58902848D01*
X193059464Y-58886039D01*
X192915169Y-58770968D01*
X192686877Y-58627522D01*
X192686874Y-58627520D01*
X192443962Y-58510540D01*
X192189482Y-58421493D01*
X192189474Y-58421490D01*
X191992326Y-58376493D01*
X191926612Y-58361494D01*
X191926608Y-58361493D01*
X191926599Y-58361492D01*
X191658693Y-58331306D01*
X191658689Y-58331306D01*
X191389071Y-58331306D01*
X191389066Y-58331306D01*
X191121160Y-58361492D01*
X191121148Y-58361494D01*
X190858285Y-58421490D01*
X190858277Y-58421493D01*
X190603797Y-58510540D01*
X190360885Y-58627520D01*
X190132592Y-58770967D01*
X189921795Y-58939071D01*
X189731145Y-59129721D01*
X189563041Y-59340518D01*
X189419594Y-59568811D01*
X189302614Y-59811723D01*
X189213567Y-60066203D01*
X189213564Y-60066211D01*
X189153568Y-60329074D01*
X189153566Y-60329086D01*
X189123380Y-60596992D01*
X182250637Y-60596992D01*
X182273800Y-60510543D01*
X182273800Y-60376257D01*
X182239045Y-60246547D01*
X182208360Y-60193400D01*
X183013800Y-60193400D01*
X183013800Y-60085017D01*
X182983021Y-59890694D01*
X182922218Y-59703564D01*
X182832895Y-59528256D01*
X182717244Y-59369078D01*
X182578121Y-59229955D01*
X182418943Y-59114304D01*
X182243635Y-59024981D01*
X182056505Y-58964178D01*
X182013800Y-58957414D01*
X182013800Y-59998839D01*
X181960653Y-59968155D01*
X181830943Y-59933400D01*
X181696657Y-59933400D01*
X181566947Y-59968155D01*
X181513800Y-59998839D01*
X181513800Y-58957414D01*
X181513799Y-58957414D01*
X181471094Y-58964178D01*
X181283964Y-59024981D01*
X181108656Y-59114304D01*
X180949478Y-59229955D01*
X180810355Y-59369078D01*
X180694704Y-59528256D01*
X180605381Y-59703564D01*
X180544578Y-59890694D01*
X180513800Y-60085017D01*
X180014300Y-60085017D01*
X180014300Y-59633392D01*
X180003799Y-59530603D01*
X179948614Y-59364066D01*
X179941233Y-59352100D01*
X179856513Y-59214748D01*
X179856510Y-59214744D01*
X179732455Y-59090689D01*
X179732451Y-59090686D01*
X179583137Y-58998587D01*
X179583135Y-58998586D01*
X179499865Y-58970993D01*
X179416597Y-58943401D01*
X179416595Y-58943400D01*
X179313815Y-58932900D01*
X179313808Y-58932900D01*
X178213792Y-58932900D01*
X178213784Y-58932900D01*
X178111004Y-58943400D01*
X178111003Y-58943401D01*
X177944464Y-58998586D01*
X177944462Y-58998587D01*
X177795148Y-59090686D01*
X177795144Y-59090689D01*
X177671089Y-59214744D01*
X177671086Y-59214748D01*
X177578987Y-59364062D01*
X177578986Y-59364064D01*
X177523801Y-59530603D01*
X177523800Y-59530604D01*
X177513300Y-59633384D01*
X170374221Y-59633384D01*
X170312097Y-59511458D01*
X170196444Y-59352278D01*
X170057321Y-59213155D01*
X169898143Y-59097504D01*
X169722835Y-59008181D01*
X169535705Y-58947378D01*
X169493000Y-58940614D01*
X169493000Y-59982039D01*
X169439853Y-59951355D01*
X169310143Y-59916600D01*
X169175857Y-59916600D01*
X169046147Y-59951355D01*
X168993000Y-59982039D01*
X168993000Y-58940614D01*
X168992999Y-58940614D01*
X168950294Y-58947378D01*
X168763164Y-59008181D01*
X168587856Y-59097504D01*
X168428678Y-59213155D01*
X168289555Y-59352278D01*
X168173904Y-59511456D01*
X168084581Y-59686764D01*
X168023778Y-59873894D01*
X167993000Y-60068217D01*
X167493500Y-60068217D01*
X167493500Y-59616592D01*
X167482999Y-59513803D01*
X167427814Y-59347266D01*
X167423651Y-59340517D01*
X167335713Y-59197948D01*
X167335710Y-59197944D01*
X167211655Y-59073889D01*
X167211651Y-59073886D01*
X167062337Y-58981787D01*
X167062335Y-58981786D01*
X166979065Y-58954193D01*
X166895797Y-58926601D01*
X166895795Y-58926600D01*
X166793015Y-58916100D01*
X166793008Y-58916100D01*
X165692992Y-58916100D01*
X165692984Y-58916100D01*
X165590204Y-58926600D01*
X165590203Y-58926601D01*
X165423664Y-58981786D01*
X165423662Y-58981787D01*
X165274348Y-59073886D01*
X165274344Y-59073889D01*
X165150289Y-59197944D01*
X165150286Y-59197948D01*
X165058187Y-59347262D01*
X165058186Y-59347264D01*
X165003001Y-59513803D01*
X165003000Y-59513804D01*
X164992500Y-59616584D01*
X136996623Y-59616584D01*
X136918918Y-59492917D01*
X136750814Y-59282121D01*
X136560165Y-59091472D01*
X136559179Y-59090686D01*
X136455721Y-59008181D01*
X136349369Y-58923368D01*
X136121077Y-58779922D01*
X136121074Y-58779920D01*
X135878162Y-58662940D01*
X135623682Y-58573893D01*
X135623674Y-58573890D01*
X135426526Y-58528893D01*
X135360812Y-58513894D01*
X135360808Y-58513893D01*
X135360799Y-58513892D01*
X135206566Y-58496514D01*
X135092893Y-58483706D01*
X135092889Y-58483706D01*
X134823271Y-58483706D01*
X134823266Y-58483706D01*
X134555360Y-58513892D01*
X134555348Y-58513894D01*
X134292485Y-58573890D01*
X134292477Y-58573893D01*
X134037997Y-58662940D01*
X133795085Y-58779920D01*
X133566792Y-58923367D01*
X133355995Y-59091471D01*
X133165345Y-59282121D01*
X132997241Y-59492918D01*
X132853794Y-59721211D01*
X132736814Y-59964123D01*
X132647767Y-60218603D01*
X132647764Y-60218611D01*
X132587768Y-60481474D01*
X132587766Y-60481486D01*
X132557580Y-60749392D01*
X130360379Y-60749392D01*
X130360379Y-58379381D01*
X162357500Y-58379381D01*
X162357500Y-58553818D01*
X162391527Y-58724883D01*
X162391529Y-58724891D01*
X162458278Y-58886039D01*
X162458283Y-58886048D01*
X162555186Y-59031073D01*
X162555189Y-59031077D01*
X162678522Y-59154410D01*
X162678526Y-59154413D01*
X162823551Y-59251316D01*
X162823557Y-59251319D01*
X162823558Y-59251320D01*
X162984709Y-59318071D01*
X163131474Y-59347264D01*
X163155781Y-59352099D01*
X163155785Y-59352100D01*
X163155786Y-59352100D01*
X163330215Y-59352100D01*
X163330216Y-59352099D01*
X163501291Y-59318071D01*
X163662442Y-59251320D01*
X163807474Y-59154413D01*
X163930813Y-59031074D01*
X164027720Y-58886042D01*
X164094471Y-58724891D01*
X164128500Y-58553814D01*
X164128500Y-58379386D01*
X164128499Y-58379381D01*
X171357500Y-58379381D01*
X171357500Y-58553818D01*
X171391527Y-58724883D01*
X171391529Y-58724891D01*
X171458278Y-58886039D01*
X171458283Y-58886048D01*
X171555186Y-59031073D01*
X171555189Y-59031077D01*
X171678522Y-59154410D01*
X171678526Y-59154413D01*
X171823551Y-59251316D01*
X171823557Y-59251319D01*
X171823558Y-59251320D01*
X171984709Y-59318071D01*
X172131474Y-59347264D01*
X172155781Y-59352099D01*
X172155785Y-59352100D01*
X172155786Y-59352100D01*
X172330215Y-59352100D01*
X172330216Y-59352099D01*
X172501291Y-59318071D01*
X172662442Y-59251320D01*
X172807474Y-59154413D01*
X172930813Y-59031074D01*
X173027720Y-58886042D01*
X173094471Y-58724891D01*
X173128500Y-58553814D01*
X173128500Y-58396181D01*
X174878300Y-58396181D01*
X174878300Y-58570618D01*
X174912327Y-58741683D01*
X174912329Y-58741691D01*
X174979078Y-58902839D01*
X174979083Y-58902848D01*
X175075986Y-59047873D01*
X175075989Y-59047877D01*
X175199322Y-59171210D01*
X175199326Y-59171213D01*
X175344351Y-59268116D01*
X175344357Y-59268119D01*
X175344358Y-59268120D01*
X175505509Y-59334871D01*
X175652274Y-59364064D01*
X175676581Y-59368899D01*
X175676585Y-59368900D01*
X175676586Y-59368900D01*
X175851015Y-59368900D01*
X175851016Y-59368899D01*
X176022091Y-59334871D01*
X176183242Y-59268120D01*
X176328274Y-59171213D01*
X176451613Y-59047874D01*
X176548520Y-58902842D01*
X176615271Y-58741691D01*
X176649300Y-58570614D01*
X176649300Y-58396186D01*
X176649299Y-58396181D01*
X183878300Y-58396181D01*
X183878300Y-58570618D01*
X183912327Y-58741683D01*
X183912329Y-58741691D01*
X183979078Y-58902839D01*
X183979083Y-58902848D01*
X184075986Y-59047873D01*
X184075989Y-59047877D01*
X184199322Y-59171210D01*
X184199326Y-59171213D01*
X184344351Y-59268116D01*
X184344357Y-59268119D01*
X184344358Y-59268120D01*
X184505509Y-59334871D01*
X184652274Y-59364064D01*
X184676581Y-59368899D01*
X184676585Y-59368900D01*
X184676586Y-59368900D01*
X184851015Y-59368900D01*
X184851016Y-59368899D01*
X185022091Y-59334871D01*
X185183242Y-59268120D01*
X185328274Y-59171213D01*
X185451613Y-59047874D01*
X185548520Y-58902842D01*
X185615271Y-58741691D01*
X185649300Y-58570614D01*
X185649300Y-58396186D01*
X185615271Y-58225109D01*
X185548520Y-58063958D01*
X185548519Y-58063957D01*
X185548516Y-58063951D01*
X185451613Y-57918926D01*
X185451610Y-57918922D01*
X185328277Y-57795589D01*
X185328273Y-57795586D01*
X185183248Y-57698683D01*
X185183239Y-57698678D01*
X185022091Y-57631929D01*
X185022083Y-57631927D01*
X184851018Y-57597900D01*
X184851014Y-57597900D01*
X184676586Y-57597900D01*
X184676581Y-57597900D01*
X184505516Y-57631927D01*
X184505508Y-57631929D01*
X184344360Y-57698678D01*
X184344351Y-57698683D01*
X184199326Y-57795586D01*
X184199322Y-57795589D01*
X184075989Y-57918922D01*
X184075986Y-57918926D01*
X183979083Y-58063951D01*
X183979078Y-58063960D01*
X183912329Y-58225108D01*
X183912327Y-58225116D01*
X183878300Y-58396181D01*
X176649299Y-58396181D01*
X176615271Y-58225109D01*
X176548520Y-58063958D01*
X176548519Y-58063957D01*
X176548516Y-58063951D01*
X176451613Y-57918926D01*
X176451610Y-57918922D01*
X176328277Y-57795589D01*
X176328273Y-57795586D01*
X176183248Y-57698683D01*
X176183239Y-57698678D01*
X176022091Y-57631929D01*
X176022083Y-57631927D01*
X175851018Y-57597900D01*
X175851014Y-57597900D01*
X175676586Y-57597900D01*
X175676581Y-57597900D01*
X175505516Y-57631927D01*
X175505508Y-57631929D01*
X175344360Y-57698678D01*
X175344351Y-57698683D01*
X175199326Y-57795586D01*
X175199322Y-57795589D01*
X175075989Y-57918922D01*
X175075986Y-57918926D01*
X174979083Y-58063951D01*
X174979078Y-58063960D01*
X174912329Y-58225108D01*
X174912327Y-58225116D01*
X174878300Y-58396181D01*
X173128500Y-58396181D01*
X173128500Y-58379386D01*
X173094471Y-58208309D01*
X173027720Y-58047158D01*
X173027719Y-58047157D01*
X173027716Y-58047151D01*
X172930813Y-57902126D01*
X172930810Y-57902122D01*
X172807477Y-57778789D01*
X172807473Y-57778786D01*
X172662448Y-57681883D01*
X172662439Y-57681878D01*
X172501291Y-57615129D01*
X172501283Y-57615127D01*
X172330218Y-57581100D01*
X172330214Y-57581100D01*
X172155786Y-57581100D01*
X172155781Y-57581100D01*
X171984716Y-57615127D01*
X171984708Y-57615129D01*
X171823560Y-57681878D01*
X171823551Y-57681883D01*
X171678526Y-57778786D01*
X171678522Y-57778789D01*
X171555189Y-57902122D01*
X171555186Y-57902126D01*
X171458283Y-58047151D01*
X171458278Y-58047160D01*
X171391529Y-58208308D01*
X171391527Y-58208316D01*
X171357500Y-58379381D01*
X164128499Y-58379381D01*
X164094471Y-58208309D01*
X164027720Y-58047158D01*
X164027719Y-58047157D01*
X164027716Y-58047151D01*
X163930813Y-57902126D01*
X163930810Y-57902122D01*
X163807477Y-57778789D01*
X163807473Y-57778786D01*
X163662448Y-57681883D01*
X163662439Y-57681878D01*
X163501291Y-57615129D01*
X163501283Y-57615127D01*
X163330218Y-57581100D01*
X163330214Y-57581100D01*
X163155786Y-57581100D01*
X163155781Y-57581100D01*
X162984716Y-57615127D01*
X162984708Y-57615129D01*
X162823560Y-57681878D01*
X162823551Y-57681883D01*
X162678526Y-57778786D01*
X162678522Y-57778789D01*
X162555189Y-57902122D01*
X162555186Y-57902126D01*
X162458283Y-58047151D01*
X162458278Y-58047160D01*
X162391529Y-58208308D01*
X162391527Y-58208316D01*
X162357500Y-58379381D01*
X130360379Y-58379381D01*
X130360379Y-56345307D01*
X130380064Y-56278268D01*
X130432868Y-56232513D01*
X130484379Y-56221307D01*
X196123900Y-56221307D01*
X196190939Y-56240992D01*
G37*
%TD.AperFunction*%
%TD*%
%TA.AperFunction,Conductor*%
%TO.N,Net-(K1-Pad4)*%
G36*
X144219614Y-75234812D02*
G01*
X144660996Y-75536393D01*
X145518904Y-76122573D01*
X145523801Y-76130069D01*
X145521963Y-76138834D01*
X145520576Y-76140506D01*
X144814180Y-76846902D01*
X144809363Y-76849807D01*
X143760238Y-77174208D01*
X143751322Y-77173378D01*
X143747129Y-77169641D01*
X143035228Y-76130069D01*
X142915995Y-75955957D01*
X142914149Y-75947195D01*
X142919038Y-75939694D01*
X142920020Y-75939090D01*
X144207397Y-75234210D01*
X144216298Y-75233243D01*
X144219614Y-75234812D01*
G37*
%TD.AperFunction*%
%TD*%
%TA.AperFunction,Conductor*%
%TO.N,Net-(K1-Pad4)*%
G36*
X156374933Y-86974148D02*
G01*
X157509829Y-88003954D01*
X157513653Y-88012051D01*
X157513331Y-88015402D01*
X157163983Y-89441349D01*
X157158686Y-89448569D01*
X157149835Y-89449929D01*
X157148718Y-89449596D01*
X155760859Y-88958782D01*
X155754202Y-88952792D01*
X155753100Y-88948718D01*
X155675387Y-88012051D01*
X155648707Y-87690483D01*
X155651438Y-87681956D01*
X155652082Y-87681256D01*
X156358799Y-86974539D01*
X156367071Y-86971113D01*
X156374933Y-86974148D01*
G37*
%TD.AperFunction*%
%TD*%
%TA.AperFunction,Conductor*%
%TO.N,Net-(U1-EN)*%
G36*
X174408158Y-90239591D02*
G01*
X174411259Y-90245122D01*
X174535390Y-90760070D01*
X174533998Y-90768916D01*
X174526758Y-90774186D01*
X174526336Y-90774280D01*
X174246320Y-90830930D01*
X174241680Y-90830930D01*
X173960624Y-90774070D01*
X173953195Y-90769070D01*
X173951367Y-90760909D01*
X174026637Y-90246171D01*
X174031225Y-90238481D01*
X174038214Y-90236164D01*
X174399885Y-90236164D01*
X174408158Y-90239591D01*
G37*
%TD.AperFunction*%
%TD*%
M02*
