%TF.GenerationSoftware,KiCad,Pcbnew,9.0.1*%
%TF.CreationDate,2026-09-17T16:59:11+08:00*%
%TF.ProjectId,IMD_AMS_latch,494d445f-414d-4535-9f6c-617463682e6b,rev?*%
%TF.SameCoordinates,Original*%
%TF.FileFunction,Soldermask,Bot*%
%TF.FilePolarity,Negative*%
%FSLAX46Y46*%
G04 Gerber Fmt 4.6, Leading zero omitted, Abs format (unit mm)*
G04 Created by KiCad (PCBNEW 9.0.1) date 2026-09-17 16:59:11*
%MOMM*%
%LPD*%
G01*
G04 APERTURE LIST*
G04 Aperture macros list*
%AMRoundRect*
0 Rectangle with rounded corners*
0 $1 Rounding radius*
0 $2 $3 $4 $5 $6 $7 $8 $9 X,Y pos of 4 corners*
0 Add a 4 corners polygon primitive as box body*
4,1,4,$2,$3,$4,$5,$6,$7,$8,$9,$2,$3,0*
0 Add four circle primitives for the rounded corners*
1,1,$1+$1,$2,$3*
1,1,$1+$1,$4,$5*
1,1,$1+$1,$6,$7*
1,1,$1+$1,$8,$9*
0 Add four rect primitives between the rounded corners*
20,1,$1+$1,$2,$3,$4,$5,0*
20,1,$1+$1,$4,$5,$6,$7,0*
20,1,$1+$1,$6,$7,$8,$9,0*
20,1,$1+$1,$8,$9,$2,$3,0*%
G04 Aperture macros list end*
%ADD10R,1.600000X1.600000*%
%ADD11O,1.600000X1.600000*%
%ADD12C,1.270000*%
%ADD13RoundRect,0.250001X-0.759999X0.499999X-0.759999X-0.499999X0.759999X-0.499999X0.759999X0.499999X0*%
%ADD14O,2.020000X1.500000*%
%ADD15RoundRect,0.250000X0.475000X-0.337500X0.475000X0.337500X-0.475000X0.337500X-0.475000X-0.337500X0*%
%ADD16C,4.300000*%
%ADD17RoundRect,0.250001X-0.499999X-0.759999X0.499999X-0.759999X0.499999X0.759999X-0.499999X0.759999X0*%
%ADD18O,1.500000X2.020000*%
%ADD19RoundRect,0.250001X0.499999X0.759999X-0.499999X0.759999X-0.499999X-0.759999X0.499999X-0.759999X0*%
%ADD20RoundRect,0.250000X-0.350000X-0.450000X0.350000X-0.450000X0.350000X0.450000X-0.350000X0.450000X0*%
%ADD21RoundRect,0.250000X-0.450000X0.350000X-0.450000X-0.350000X0.450000X-0.350000X0.450000X0.350000X0*%
%ADD22RoundRect,0.250000X0.337500X0.475000X-0.337500X0.475000X-0.337500X-0.475000X0.337500X-0.475000X0*%
%ADD23C,3.000000*%
%ADD24C,2.500000*%
G04 APERTURE END LIST*
D10*
%TO.C,D1*%
X138201400Y-99542600D03*
D11*
X138201400Y-91922600D03*
%TD*%
D12*
%TO.C,J8*%
X194521000Y-93411400D03*
X194521000Y-102411400D03*
D13*
X192561000Y-96411400D03*
D14*
X192561000Y-99411400D03*
%TD*%
D12*
%TO.C,J6*%
X194521000Y-81448000D03*
X194521000Y-90448000D03*
D13*
X192561000Y-84448000D03*
D14*
X192561000Y-87448000D03*
%TD*%
D15*
%TO.C,C1*%
X173583600Y-82393700D03*
X173583600Y-80318700D03*
%TD*%
D16*
%TO.C,H3*%
X134958080Y-60884206D03*
%TD*%
D12*
%TO.C,J9*%
X175763800Y-58483400D03*
X184763800Y-58483400D03*
D17*
X178763800Y-60443400D03*
D18*
X181763800Y-60443400D03*
%TD*%
D12*
%TO.C,J5*%
X177142400Y-112653200D03*
X168142400Y-112653200D03*
D19*
X174142400Y-110693200D03*
D18*
X171142400Y-110693200D03*
%TD*%
D16*
%TO.C,H1*%
X191523880Y-60731806D03*
%TD*%
%TO.C,H4*%
X191498480Y-110668206D03*
%TD*%
D20*
%TO.C,R9*%
X184523136Y-96581200D03*
X186523136Y-96581200D03*
%TD*%
%TO.C,R8*%
X184497736Y-99603800D03*
X186497736Y-99603800D03*
%TD*%
D16*
%TO.C,H2*%
X134939888Y-110642806D03*
%TD*%
D21*
%TO.C,R15*%
X174218600Y-87595200D03*
X174218600Y-89595200D03*
%TD*%
D22*
%TO.C,C4*%
X179370900Y-100711000D03*
X177295900Y-100711000D03*
%TD*%
D12*
%TO.C,J7*%
X155453600Y-112729400D03*
X146453600Y-112729400D03*
D19*
X152453600Y-110769400D03*
D18*
X149453600Y-110769400D03*
%TD*%
D10*
%TO.C,D2*%
X138887200Y-79883000D03*
D11*
X138887200Y-72263000D03*
%TD*%
D12*
%TO.C,J2*%
X194487800Y-69816200D03*
X194487800Y-78816200D03*
D13*
X192527800Y-72816200D03*
D14*
X192527800Y-75816200D03*
%TD*%
D12*
%TO.C,J10*%
X163243000Y-58466600D03*
X172243000Y-58466600D03*
D17*
X166243000Y-60426600D03*
D18*
X169243000Y-60426600D03*
%TD*%
D23*
%TO.C,K1*%
X142960200Y-95453200D03*
D24*
X144910200Y-101503200D03*
D23*
X157110200Y-101503200D03*
X157160200Y-89453200D03*
D24*
X144910200Y-89503200D03*
%TD*%
D23*
%TO.C,K2*%
X142909400Y-75946000D03*
D24*
X144859400Y-81996000D03*
D23*
X157059400Y-81996000D03*
X157109400Y-69946000D03*
D24*
X144859400Y-69996000D03*
%TD*%
M02*
