%TF.GenerationSoftware,KiCad,Pcbnew,9.0.1*%
%TF.CreationDate,2026-09-27T15:51:06+08:00*%
%TF.ProjectId,IMD_AMS_latch,494d445f-414d-4535-9f6c-617463682e6b,rev?*%
%TF.SameCoordinates,Original*%
%TF.FileFunction,Legend,Top*%
%TF.FilePolarity,Positive*%
%FSLAX46Y46*%
G04 Gerber Fmt 4.6, Leading zero omitted, Abs format (unit mm)*
G04 Created by KiCad (PCBNEW 9.0.1) date 2026-09-27 15:51:06*
%MOMM*%
%LPD*%
G01*
G04 APERTURE LIST*
%ADD10C,0.200000*%
%ADD11C,0.150000*%
%ADD12C,0.120000*%
G04 APERTURE END LIST*
D10*
X177220282Y-107017238D02*
X177125044Y-106969619D01*
X177125044Y-106969619D02*
X176982187Y-106969619D01*
X176982187Y-106969619D02*
X176839330Y-107017238D01*
X176839330Y-107017238D02*
X176744092Y-107112476D01*
X176744092Y-107112476D02*
X176696473Y-107207714D01*
X176696473Y-107207714D02*
X176648854Y-107398190D01*
X176648854Y-107398190D02*
X176648854Y-107541047D01*
X176648854Y-107541047D02*
X176696473Y-107731523D01*
X176696473Y-107731523D02*
X176744092Y-107826761D01*
X176744092Y-107826761D02*
X176839330Y-107922000D01*
X176839330Y-107922000D02*
X176982187Y-107969619D01*
X176982187Y-107969619D02*
X177077425Y-107969619D01*
X177077425Y-107969619D02*
X177220282Y-107922000D01*
X177220282Y-107922000D02*
X177267901Y-107874380D01*
X177267901Y-107874380D02*
X177267901Y-107541047D01*
X177267901Y-107541047D02*
X177077425Y-107541047D01*
X177696473Y-107969619D02*
X177696473Y-106969619D01*
X177696473Y-106969619D02*
X178267901Y-107969619D01*
X178267901Y-107969619D02*
X178267901Y-106969619D01*
X178744092Y-107969619D02*
X178744092Y-106969619D01*
X178744092Y-106969619D02*
X178982187Y-106969619D01*
X178982187Y-106969619D02*
X179125044Y-107017238D01*
X179125044Y-107017238D02*
X179220282Y-107112476D01*
X179220282Y-107112476D02*
X179267901Y-107207714D01*
X179267901Y-107207714D02*
X179315520Y-107398190D01*
X179315520Y-107398190D02*
X179315520Y-107541047D01*
X179315520Y-107541047D02*
X179267901Y-107731523D01*
X179267901Y-107731523D02*
X179220282Y-107826761D01*
X179220282Y-107826761D02*
X179125044Y-107922000D01*
X179125044Y-107922000D02*
X178982187Y-107969619D01*
X178982187Y-107969619D02*
X178744092Y-107969619D01*
X180505997Y-107445809D02*
X180839330Y-107445809D01*
X180982187Y-107969619D02*
X180505997Y-107969619D01*
X180505997Y-107969619D02*
X180505997Y-106969619D01*
X180505997Y-106969619D02*
X180982187Y-106969619D01*
X181315521Y-106969619D02*
X181982187Y-107969619D01*
X181982187Y-106969619D02*
X181315521Y-107969619D01*
X182220283Y-106969619D02*
X182791711Y-106969619D01*
X182505997Y-107969619D02*
X182505997Y-106969619D01*
X182886950Y-108064857D02*
X183648854Y-108064857D01*
X183886950Y-107969619D02*
X183886950Y-106969619D01*
X184363140Y-107969619D02*
X184363140Y-106969619D01*
X184363140Y-106969619D02*
X184696473Y-107683904D01*
X184696473Y-107683904D02*
X185029806Y-106969619D01*
X185029806Y-106969619D02*
X185029806Y-107969619D01*
X185505997Y-107969619D02*
X185505997Y-106969619D01*
X185505997Y-106969619D02*
X185744092Y-106969619D01*
X185744092Y-106969619D02*
X185886949Y-107017238D01*
X185886949Y-107017238D02*
X185982187Y-107112476D01*
X185982187Y-107112476D02*
X186029806Y-107207714D01*
X186029806Y-107207714D02*
X186077425Y-107398190D01*
X186077425Y-107398190D02*
X186077425Y-107541047D01*
X186077425Y-107541047D02*
X186029806Y-107731523D01*
X186029806Y-107731523D02*
X185982187Y-107826761D01*
X185982187Y-107826761D02*
X185886949Y-107922000D01*
X185886949Y-107922000D02*
X185744092Y-107969619D01*
X185744092Y-107969619D02*
X185505997Y-107969619D01*
X186267902Y-108064857D02*
X187029806Y-108064857D01*
X187220283Y-107922000D02*
X187363140Y-107969619D01*
X187363140Y-107969619D02*
X187601235Y-107969619D01*
X187601235Y-107969619D02*
X187696473Y-107922000D01*
X187696473Y-107922000D02*
X187744092Y-107874380D01*
X187744092Y-107874380D02*
X187791711Y-107779142D01*
X187791711Y-107779142D02*
X187791711Y-107683904D01*
X187791711Y-107683904D02*
X187744092Y-107588666D01*
X187744092Y-107588666D02*
X187696473Y-107541047D01*
X187696473Y-107541047D02*
X187601235Y-107493428D01*
X187601235Y-107493428D02*
X187410759Y-107445809D01*
X187410759Y-107445809D02*
X187315521Y-107398190D01*
X187315521Y-107398190D02*
X187267902Y-107350571D01*
X187267902Y-107350571D02*
X187220283Y-107255333D01*
X187220283Y-107255333D02*
X187220283Y-107160095D01*
X187220283Y-107160095D02*
X187267902Y-107064857D01*
X187267902Y-107064857D02*
X187315521Y-107017238D01*
X187315521Y-107017238D02*
X187410759Y-106969619D01*
X187410759Y-106969619D02*
X187648854Y-106969619D01*
X187648854Y-106969619D02*
X187791711Y-107017238D01*
X188077426Y-106969619D02*
X188648854Y-106969619D01*
X188363140Y-107969619D02*
X188363140Y-106969619D01*
X188934569Y-107683904D02*
X189410759Y-107683904D01*
X188839331Y-107969619D02*
X189172664Y-106969619D01*
X189172664Y-106969619D02*
X189505997Y-107969619D01*
X189696474Y-106969619D02*
X190267902Y-106969619D01*
X189982188Y-107969619D02*
X189982188Y-106969619D01*
X190601236Y-106969619D02*
X190601236Y-107779142D01*
X190601236Y-107779142D02*
X190648855Y-107874380D01*
X190648855Y-107874380D02*
X190696474Y-107922000D01*
X190696474Y-107922000D02*
X190791712Y-107969619D01*
X190791712Y-107969619D02*
X190982188Y-107969619D01*
X190982188Y-107969619D02*
X191077426Y-107922000D01*
X191077426Y-107922000D02*
X191125045Y-107874380D01*
X191125045Y-107874380D02*
X191172664Y-107779142D01*
X191172664Y-107779142D02*
X191172664Y-106969619D01*
X191601236Y-107922000D02*
X191744093Y-107969619D01*
X191744093Y-107969619D02*
X191982188Y-107969619D01*
X191982188Y-107969619D02*
X192077426Y-107922000D01*
X192077426Y-107922000D02*
X192125045Y-107874380D01*
X192125045Y-107874380D02*
X192172664Y-107779142D01*
X192172664Y-107779142D02*
X192172664Y-107683904D01*
X192172664Y-107683904D02*
X192125045Y-107588666D01*
X192125045Y-107588666D02*
X192077426Y-107541047D01*
X192077426Y-107541047D02*
X191982188Y-107493428D01*
X191982188Y-107493428D02*
X191791712Y-107445809D01*
X191791712Y-107445809D02*
X191696474Y-107398190D01*
X191696474Y-107398190D02*
X191648855Y-107350571D01*
X191648855Y-107350571D02*
X191601236Y-107255333D01*
X191601236Y-107255333D02*
X191601236Y-107160095D01*
X191601236Y-107160095D02*
X191648855Y-107064857D01*
X191648855Y-107064857D02*
X191696474Y-107017238D01*
X191696474Y-107017238D02*
X191791712Y-106969619D01*
X191791712Y-106969619D02*
X192029807Y-106969619D01*
X192029807Y-106969619D02*
X192172664Y-107017238D01*
X165739482Y-107144238D02*
X165644244Y-107096619D01*
X165644244Y-107096619D02*
X165501387Y-107096619D01*
X165501387Y-107096619D02*
X165358530Y-107144238D01*
X165358530Y-107144238D02*
X165263292Y-107239476D01*
X165263292Y-107239476D02*
X165215673Y-107334714D01*
X165215673Y-107334714D02*
X165168054Y-107525190D01*
X165168054Y-107525190D02*
X165168054Y-107668047D01*
X165168054Y-107668047D02*
X165215673Y-107858523D01*
X165215673Y-107858523D02*
X165263292Y-107953761D01*
X165263292Y-107953761D02*
X165358530Y-108049000D01*
X165358530Y-108049000D02*
X165501387Y-108096619D01*
X165501387Y-108096619D02*
X165596625Y-108096619D01*
X165596625Y-108096619D02*
X165739482Y-108049000D01*
X165739482Y-108049000D02*
X165787101Y-108001380D01*
X165787101Y-108001380D02*
X165787101Y-107668047D01*
X165787101Y-107668047D02*
X165596625Y-107668047D01*
X166215673Y-108096619D02*
X166215673Y-107096619D01*
X166215673Y-107096619D02*
X166787101Y-108096619D01*
X166787101Y-108096619D02*
X166787101Y-107096619D01*
X167263292Y-108096619D02*
X167263292Y-107096619D01*
X167263292Y-107096619D02*
X167501387Y-107096619D01*
X167501387Y-107096619D02*
X167644244Y-107144238D01*
X167644244Y-107144238D02*
X167739482Y-107239476D01*
X167739482Y-107239476D02*
X167787101Y-107334714D01*
X167787101Y-107334714D02*
X167834720Y-107525190D01*
X167834720Y-107525190D02*
X167834720Y-107668047D01*
X167834720Y-107668047D02*
X167787101Y-107858523D01*
X167787101Y-107858523D02*
X167739482Y-107953761D01*
X167739482Y-107953761D02*
X167644244Y-108049000D01*
X167644244Y-108049000D02*
X167501387Y-108096619D01*
X167501387Y-108096619D02*
X167263292Y-108096619D01*
X168977578Y-107810904D02*
X169453768Y-107810904D01*
X168882340Y-108096619D02*
X169215673Y-107096619D01*
X169215673Y-107096619D02*
X169549006Y-108096619D01*
X169882340Y-108096619D02*
X169882340Y-107096619D01*
X169882340Y-107096619D02*
X170215673Y-107810904D01*
X170215673Y-107810904D02*
X170549006Y-107096619D01*
X170549006Y-107096619D02*
X170549006Y-108096619D01*
X170977578Y-108049000D02*
X171120435Y-108096619D01*
X171120435Y-108096619D02*
X171358530Y-108096619D01*
X171358530Y-108096619D02*
X171453768Y-108049000D01*
X171453768Y-108049000D02*
X171501387Y-108001380D01*
X171501387Y-108001380D02*
X171549006Y-107906142D01*
X171549006Y-107906142D02*
X171549006Y-107810904D01*
X171549006Y-107810904D02*
X171501387Y-107715666D01*
X171501387Y-107715666D02*
X171453768Y-107668047D01*
X171453768Y-107668047D02*
X171358530Y-107620428D01*
X171358530Y-107620428D02*
X171168054Y-107572809D01*
X171168054Y-107572809D02*
X171072816Y-107525190D01*
X171072816Y-107525190D02*
X171025197Y-107477571D01*
X171025197Y-107477571D02*
X170977578Y-107382333D01*
X170977578Y-107382333D02*
X170977578Y-107287095D01*
X170977578Y-107287095D02*
X171025197Y-107191857D01*
X171025197Y-107191857D02*
X171072816Y-107144238D01*
X171072816Y-107144238D02*
X171168054Y-107096619D01*
X171168054Y-107096619D02*
X171406149Y-107096619D01*
X171406149Y-107096619D02*
X171549006Y-107144238D01*
X171739483Y-108191857D02*
X172501387Y-108191857D01*
X172691864Y-108049000D02*
X172834721Y-108096619D01*
X172834721Y-108096619D02*
X173072816Y-108096619D01*
X173072816Y-108096619D02*
X173168054Y-108049000D01*
X173168054Y-108049000D02*
X173215673Y-108001380D01*
X173215673Y-108001380D02*
X173263292Y-107906142D01*
X173263292Y-107906142D02*
X173263292Y-107810904D01*
X173263292Y-107810904D02*
X173215673Y-107715666D01*
X173215673Y-107715666D02*
X173168054Y-107668047D01*
X173168054Y-107668047D02*
X173072816Y-107620428D01*
X173072816Y-107620428D02*
X172882340Y-107572809D01*
X172882340Y-107572809D02*
X172787102Y-107525190D01*
X172787102Y-107525190D02*
X172739483Y-107477571D01*
X172739483Y-107477571D02*
X172691864Y-107382333D01*
X172691864Y-107382333D02*
X172691864Y-107287095D01*
X172691864Y-107287095D02*
X172739483Y-107191857D01*
X172739483Y-107191857D02*
X172787102Y-107144238D01*
X172787102Y-107144238D02*
X172882340Y-107096619D01*
X172882340Y-107096619D02*
X173120435Y-107096619D01*
X173120435Y-107096619D02*
X173263292Y-107144238D01*
X173691864Y-108096619D02*
X173691864Y-107096619D01*
X174691863Y-107144238D02*
X174596625Y-107096619D01*
X174596625Y-107096619D02*
X174453768Y-107096619D01*
X174453768Y-107096619D02*
X174310911Y-107144238D01*
X174310911Y-107144238D02*
X174215673Y-107239476D01*
X174215673Y-107239476D02*
X174168054Y-107334714D01*
X174168054Y-107334714D02*
X174120435Y-107525190D01*
X174120435Y-107525190D02*
X174120435Y-107668047D01*
X174120435Y-107668047D02*
X174168054Y-107858523D01*
X174168054Y-107858523D02*
X174215673Y-107953761D01*
X174215673Y-107953761D02*
X174310911Y-108049000D01*
X174310911Y-108049000D02*
X174453768Y-108096619D01*
X174453768Y-108096619D02*
X174549006Y-108096619D01*
X174549006Y-108096619D02*
X174691863Y-108049000D01*
X174691863Y-108049000D02*
X174739482Y-108001380D01*
X174739482Y-108001380D02*
X174739482Y-107668047D01*
X174739482Y-107668047D02*
X174549006Y-107668047D01*
X188875839Y-85754517D02*
X188828220Y-85849755D01*
X188828220Y-85849755D02*
X188828220Y-85992612D01*
X188828220Y-85992612D02*
X188875839Y-86135469D01*
X188875839Y-86135469D02*
X188971077Y-86230707D01*
X188971077Y-86230707D02*
X189066315Y-86278326D01*
X189066315Y-86278326D02*
X189256791Y-86325945D01*
X189256791Y-86325945D02*
X189399648Y-86325945D01*
X189399648Y-86325945D02*
X189590124Y-86278326D01*
X189590124Y-86278326D02*
X189685362Y-86230707D01*
X189685362Y-86230707D02*
X189780601Y-86135469D01*
X189780601Y-86135469D02*
X189828220Y-85992612D01*
X189828220Y-85992612D02*
X189828220Y-85897374D01*
X189828220Y-85897374D02*
X189780601Y-85754517D01*
X189780601Y-85754517D02*
X189732981Y-85706898D01*
X189732981Y-85706898D02*
X189399648Y-85706898D01*
X189399648Y-85706898D02*
X189399648Y-85897374D01*
X189828220Y-85278326D02*
X188828220Y-85278326D01*
X188828220Y-85278326D02*
X189828220Y-84706898D01*
X189828220Y-84706898D02*
X188828220Y-84706898D01*
X189828220Y-84230707D02*
X188828220Y-84230707D01*
X188828220Y-84230707D02*
X188828220Y-83992612D01*
X188828220Y-83992612D02*
X188875839Y-83849755D01*
X188875839Y-83849755D02*
X188971077Y-83754517D01*
X188971077Y-83754517D02*
X189066315Y-83706898D01*
X189066315Y-83706898D02*
X189256791Y-83659279D01*
X189256791Y-83659279D02*
X189399648Y-83659279D01*
X189399648Y-83659279D02*
X189590124Y-83706898D01*
X189590124Y-83706898D02*
X189685362Y-83754517D01*
X189685362Y-83754517D02*
X189780601Y-83849755D01*
X189780601Y-83849755D02*
X189828220Y-83992612D01*
X189828220Y-83992612D02*
X189828220Y-84230707D01*
X162782673Y-64093819D02*
X162782673Y-63093819D01*
X163258863Y-64093819D02*
X163258863Y-63093819D01*
X163258863Y-63093819D02*
X163592196Y-63808104D01*
X163592196Y-63808104D02*
X163925529Y-63093819D01*
X163925529Y-63093819D02*
X163925529Y-64093819D01*
X164401720Y-64093819D02*
X164401720Y-63093819D01*
X164401720Y-63093819D02*
X164639815Y-63093819D01*
X164639815Y-63093819D02*
X164782672Y-63141438D01*
X164782672Y-63141438D02*
X164877910Y-63236676D01*
X164877910Y-63236676D02*
X164925529Y-63331914D01*
X164925529Y-63331914D02*
X164973148Y-63522390D01*
X164973148Y-63522390D02*
X164973148Y-63665247D01*
X164973148Y-63665247D02*
X164925529Y-63855723D01*
X164925529Y-63855723D02*
X164877910Y-63950961D01*
X164877910Y-63950961D02*
X164782672Y-64046200D01*
X164782672Y-64046200D02*
X164639815Y-64093819D01*
X164639815Y-64093819D02*
X164401720Y-64093819D01*
X165163625Y-64189057D02*
X165925529Y-64189057D01*
X166735053Y-64093819D02*
X166401720Y-63617628D01*
X166163625Y-64093819D02*
X166163625Y-63093819D01*
X166163625Y-63093819D02*
X166544577Y-63093819D01*
X166544577Y-63093819D02*
X166639815Y-63141438D01*
X166639815Y-63141438D02*
X166687434Y-63189057D01*
X166687434Y-63189057D02*
X166735053Y-63284295D01*
X166735053Y-63284295D02*
X166735053Y-63427152D01*
X166735053Y-63427152D02*
X166687434Y-63522390D01*
X166687434Y-63522390D02*
X166639815Y-63570009D01*
X166639815Y-63570009D02*
X166544577Y-63617628D01*
X166544577Y-63617628D02*
X166163625Y-63617628D01*
X167116006Y-64046200D02*
X167258863Y-64093819D01*
X167258863Y-64093819D02*
X167496958Y-64093819D01*
X167496958Y-64093819D02*
X167592196Y-64046200D01*
X167592196Y-64046200D02*
X167639815Y-63998580D01*
X167639815Y-63998580D02*
X167687434Y-63903342D01*
X167687434Y-63903342D02*
X167687434Y-63808104D01*
X167687434Y-63808104D02*
X167639815Y-63712866D01*
X167639815Y-63712866D02*
X167592196Y-63665247D01*
X167592196Y-63665247D02*
X167496958Y-63617628D01*
X167496958Y-63617628D02*
X167306482Y-63570009D01*
X167306482Y-63570009D02*
X167211244Y-63522390D01*
X167211244Y-63522390D02*
X167163625Y-63474771D01*
X167163625Y-63474771D02*
X167116006Y-63379533D01*
X167116006Y-63379533D02*
X167116006Y-63284295D01*
X167116006Y-63284295D02*
X167163625Y-63189057D01*
X167163625Y-63189057D02*
X167211244Y-63141438D01*
X167211244Y-63141438D02*
X167306482Y-63093819D01*
X167306482Y-63093819D02*
X167544577Y-63093819D01*
X167544577Y-63093819D02*
X167687434Y-63141438D01*
X167973149Y-63093819D02*
X168544577Y-63093819D01*
X168258863Y-64093819D02*
X168258863Y-63093819D01*
X170163625Y-63141438D02*
X170068387Y-63093819D01*
X170068387Y-63093819D02*
X169925530Y-63093819D01*
X169925530Y-63093819D02*
X169782673Y-63141438D01*
X169782673Y-63141438D02*
X169687435Y-63236676D01*
X169687435Y-63236676D02*
X169639816Y-63331914D01*
X169639816Y-63331914D02*
X169592197Y-63522390D01*
X169592197Y-63522390D02*
X169592197Y-63665247D01*
X169592197Y-63665247D02*
X169639816Y-63855723D01*
X169639816Y-63855723D02*
X169687435Y-63950961D01*
X169687435Y-63950961D02*
X169782673Y-64046200D01*
X169782673Y-64046200D02*
X169925530Y-64093819D01*
X169925530Y-64093819D02*
X170020768Y-64093819D01*
X170020768Y-64093819D02*
X170163625Y-64046200D01*
X170163625Y-64046200D02*
X170211244Y-63998580D01*
X170211244Y-63998580D02*
X170211244Y-63665247D01*
X170211244Y-63665247D02*
X170020768Y-63665247D01*
X170639816Y-64093819D02*
X170639816Y-63093819D01*
X170639816Y-63093819D02*
X171211244Y-64093819D01*
X171211244Y-64093819D02*
X171211244Y-63093819D01*
X171687435Y-64093819D02*
X171687435Y-63093819D01*
X171687435Y-63093819D02*
X171925530Y-63093819D01*
X171925530Y-63093819D02*
X172068387Y-63141438D01*
X172068387Y-63141438D02*
X172163625Y-63236676D01*
X172163625Y-63236676D02*
X172211244Y-63331914D01*
X172211244Y-63331914D02*
X172258863Y-63522390D01*
X172258863Y-63522390D02*
X172258863Y-63665247D01*
X172258863Y-63665247D02*
X172211244Y-63855723D01*
X172211244Y-63855723D02*
X172163625Y-63950961D01*
X172163625Y-63950961D02*
X172068387Y-64046200D01*
X172068387Y-64046200D02*
X171925530Y-64093819D01*
X171925530Y-64093819D02*
X171687435Y-64093819D01*
X189037019Y-101776450D02*
X189037019Y-101585974D01*
X189037019Y-101585974D02*
X189084638Y-101490736D01*
X189084638Y-101490736D02*
X189179876Y-101395498D01*
X189179876Y-101395498D02*
X189370352Y-101347879D01*
X189370352Y-101347879D02*
X189703685Y-101347879D01*
X189703685Y-101347879D02*
X189894161Y-101395498D01*
X189894161Y-101395498D02*
X189989400Y-101490736D01*
X189989400Y-101490736D02*
X190037019Y-101585974D01*
X190037019Y-101585974D02*
X190037019Y-101776450D01*
X190037019Y-101776450D02*
X189989400Y-101871688D01*
X189989400Y-101871688D02*
X189894161Y-101966926D01*
X189894161Y-101966926D02*
X189703685Y-102014545D01*
X189703685Y-102014545D02*
X189370352Y-102014545D01*
X189370352Y-102014545D02*
X189179876Y-101966926D01*
X189179876Y-101966926D02*
X189084638Y-101871688D01*
X189084638Y-101871688D02*
X189037019Y-101776450D01*
X190037019Y-100919307D02*
X189037019Y-100919307D01*
X190037019Y-100347879D02*
X189465590Y-100776450D01*
X189037019Y-100347879D02*
X189608447Y-100919307D01*
X190037019Y-99919307D02*
X189037019Y-99919307D01*
X189513209Y-99919307D02*
X189513209Y-99347879D01*
X190037019Y-99347879D02*
X189037019Y-99347879D01*
X189989400Y-98919307D02*
X190037019Y-98776450D01*
X190037019Y-98776450D02*
X190037019Y-98538355D01*
X190037019Y-98538355D02*
X189989400Y-98443117D01*
X189989400Y-98443117D02*
X189941780Y-98395498D01*
X189941780Y-98395498D02*
X189846542Y-98347879D01*
X189846542Y-98347879D02*
X189751304Y-98347879D01*
X189751304Y-98347879D02*
X189656066Y-98395498D01*
X189656066Y-98395498D02*
X189608447Y-98443117D01*
X189608447Y-98443117D02*
X189560828Y-98538355D01*
X189560828Y-98538355D02*
X189513209Y-98728831D01*
X189513209Y-98728831D02*
X189465590Y-98824069D01*
X189465590Y-98824069D02*
X189417971Y-98871688D01*
X189417971Y-98871688D02*
X189322733Y-98919307D01*
X189322733Y-98919307D02*
X189227495Y-98919307D01*
X189227495Y-98919307D02*
X189132257Y-98871688D01*
X189132257Y-98871688D02*
X189084638Y-98824069D01*
X189084638Y-98824069D02*
X189037019Y-98728831D01*
X189037019Y-98728831D02*
X189037019Y-98490736D01*
X189037019Y-98490736D02*
X189084638Y-98347879D01*
X190037019Y-97157402D02*
X189037019Y-97157402D01*
X189037019Y-97157402D02*
X189751304Y-96824069D01*
X189751304Y-96824069D02*
X189037019Y-96490736D01*
X189037019Y-96490736D02*
X190037019Y-96490736D01*
X190037019Y-96014545D02*
X189037019Y-96014545D01*
X189513209Y-96014545D02*
X189513209Y-95443117D01*
X190037019Y-95443117D02*
X189037019Y-95443117D01*
X189989400Y-95014545D02*
X190037019Y-94871688D01*
X190037019Y-94871688D02*
X190037019Y-94633593D01*
X190037019Y-94633593D02*
X189989400Y-94538355D01*
X189989400Y-94538355D02*
X189941780Y-94490736D01*
X189941780Y-94490736D02*
X189846542Y-94443117D01*
X189846542Y-94443117D02*
X189751304Y-94443117D01*
X189751304Y-94443117D02*
X189656066Y-94490736D01*
X189656066Y-94490736D02*
X189608447Y-94538355D01*
X189608447Y-94538355D02*
X189560828Y-94633593D01*
X189560828Y-94633593D02*
X189513209Y-94824069D01*
X189513209Y-94824069D02*
X189465590Y-94919307D01*
X189465590Y-94919307D02*
X189417971Y-94966926D01*
X189417971Y-94966926D02*
X189322733Y-95014545D01*
X189322733Y-95014545D02*
X189227495Y-95014545D01*
X189227495Y-95014545D02*
X189132257Y-94966926D01*
X189132257Y-94966926D02*
X189084638Y-94919307D01*
X189084638Y-94919307D02*
X189037019Y-94824069D01*
X189037019Y-94824069D02*
X189037019Y-94585974D01*
X189037019Y-94585974D02*
X189084638Y-94443117D01*
X145025854Y-108201400D02*
X145168711Y-108249019D01*
X145168711Y-108249019D02*
X145406806Y-108249019D01*
X145406806Y-108249019D02*
X145502044Y-108201400D01*
X145502044Y-108201400D02*
X145549663Y-108153780D01*
X145549663Y-108153780D02*
X145597282Y-108058542D01*
X145597282Y-108058542D02*
X145597282Y-107963304D01*
X145597282Y-107963304D02*
X145549663Y-107868066D01*
X145549663Y-107868066D02*
X145502044Y-107820447D01*
X145502044Y-107820447D02*
X145406806Y-107772828D01*
X145406806Y-107772828D02*
X145216330Y-107725209D01*
X145216330Y-107725209D02*
X145121092Y-107677590D01*
X145121092Y-107677590D02*
X145073473Y-107629971D01*
X145073473Y-107629971D02*
X145025854Y-107534733D01*
X145025854Y-107534733D02*
X145025854Y-107439495D01*
X145025854Y-107439495D02*
X145073473Y-107344257D01*
X145073473Y-107344257D02*
X145121092Y-107296638D01*
X145121092Y-107296638D02*
X145216330Y-107249019D01*
X145216330Y-107249019D02*
X145454425Y-107249019D01*
X145454425Y-107249019D02*
X145597282Y-107296638D01*
X146025854Y-108249019D02*
X146025854Y-107249019D01*
X146025854Y-107249019D02*
X146263949Y-107249019D01*
X146263949Y-107249019D02*
X146406806Y-107296638D01*
X146406806Y-107296638D02*
X146502044Y-107391876D01*
X146502044Y-107391876D02*
X146549663Y-107487114D01*
X146549663Y-107487114D02*
X146597282Y-107677590D01*
X146597282Y-107677590D02*
X146597282Y-107820447D01*
X146597282Y-107820447D02*
X146549663Y-108010923D01*
X146549663Y-108010923D02*
X146502044Y-108106161D01*
X146502044Y-108106161D02*
X146406806Y-108201400D01*
X146406806Y-108201400D02*
X146263949Y-108249019D01*
X146263949Y-108249019D02*
X146025854Y-108249019D01*
X147597282Y-108153780D02*
X147549663Y-108201400D01*
X147549663Y-108201400D02*
X147406806Y-108249019D01*
X147406806Y-108249019D02*
X147311568Y-108249019D01*
X147311568Y-108249019D02*
X147168711Y-108201400D01*
X147168711Y-108201400D02*
X147073473Y-108106161D01*
X147073473Y-108106161D02*
X147025854Y-108010923D01*
X147025854Y-108010923D02*
X146978235Y-107820447D01*
X146978235Y-107820447D02*
X146978235Y-107677590D01*
X146978235Y-107677590D02*
X147025854Y-107487114D01*
X147025854Y-107487114D02*
X147073473Y-107391876D01*
X147073473Y-107391876D02*
X147168711Y-107296638D01*
X147168711Y-107296638D02*
X147311568Y-107249019D01*
X147311568Y-107249019D02*
X147406806Y-107249019D01*
X147406806Y-107249019D02*
X147549663Y-107296638D01*
X147549663Y-107296638D02*
X147597282Y-107344257D01*
X147787759Y-108344257D02*
X148549663Y-108344257D01*
X148978235Y-107249019D02*
X149168711Y-107249019D01*
X149168711Y-107249019D02*
X149263949Y-107296638D01*
X149263949Y-107296638D02*
X149359187Y-107391876D01*
X149359187Y-107391876D02*
X149406806Y-107582352D01*
X149406806Y-107582352D02*
X149406806Y-107915685D01*
X149406806Y-107915685D02*
X149359187Y-108106161D01*
X149359187Y-108106161D02*
X149263949Y-108201400D01*
X149263949Y-108201400D02*
X149168711Y-108249019D01*
X149168711Y-108249019D02*
X148978235Y-108249019D01*
X148978235Y-108249019D02*
X148882997Y-108201400D01*
X148882997Y-108201400D02*
X148787759Y-108106161D01*
X148787759Y-108106161D02*
X148740140Y-107915685D01*
X148740140Y-107915685D02*
X148740140Y-107582352D01*
X148740140Y-107582352D02*
X148787759Y-107391876D01*
X148787759Y-107391876D02*
X148882997Y-107296638D01*
X148882997Y-107296638D02*
X148978235Y-107249019D01*
X149835378Y-107249019D02*
X149835378Y-108058542D01*
X149835378Y-108058542D02*
X149882997Y-108153780D01*
X149882997Y-108153780D02*
X149930616Y-108201400D01*
X149930616Y-108201400D02*
X150025854Y-108249019D01*
X150025854Y-108249019D02*
X150216330Y-108249019D01*
X150216330Y-108249019D02*
X150311568Y-108201400D01*
X150311568Y-108201400D02*
X150359187Y-108153780D01*
X150359187Y-108153780D02*
X150406806Y-108058542D01*
X150406806Y-108058542D02*
X150406806Y-107249019D01*
X150740140Y-107249019D02*
X151311568Y-107249019D01*
X151025854Y-108249019D02*
X151025854Y-107249019D01*
X152359188Y-108201400D02*
X152502045Y-108249019D01*
X152502045Y-108249019D02*
X152740140Y-108249019D01*
X152740140Y-108249019D02*
X152835378Y-108201400D01*
X152835378Y-108201400D02*
X152882997Y-108153780D01*
X152882997Y-108153780D02*
X152930616Y-108058542D01*
X152930616Y-108058542D02*
X152930616Y-107963304D01*
X152930616Y-107963304D02*
X152882997Y-107868066D01*
X152882997Y-107868066D02*
X152835378Y-107820447D01*
X152835378Y-107820447D02*
X152740140Y-107772828D01*
X152740140Y-107772828D02*
X152549664Y-107725209D01*
X152549664Y-107725209D02*
X152454426Y-107677590D01*
X152454426Y-107677590D02*
X152406807Y-107629971D01*
X152406807Y-107629971D02*
X152359188Y-107534733D01*
X152359188Y-107534733D02*
X152359188Y-107439495D01*
X152359188Y-107439495D02*
X152406807Y-107344257D01*
X152406807Y-107344257D02*
X152454426Y-107296638D01*
X152454426Y-107296638D02*
X152549664Y-107249019D01*
X152549664Y-107249019D02*
X152787759Y-107249019D01*
X152787759Y-107249019D02*
X152930616Y-107296638D01*
X153359188Y-108249019D02*
X153359188Y-107249019D01*
X153359188Y-107249019D02*
X153597283Y-107249019D01*
X153597283Y-107249019D02*
X153740140Y-107296638D01*
X153740140Y-107296638D02*
X153835378Y-107391876D01*
X153835378Y-107391876D02*
X153882997Y-107487114D01*
X153882997Y-107487114D02*
X153930616Y-107677590D01*
X153930616Y-107677590D02*
X153930616Y-107820447D01*
X153930616Y-107820447D02*
X153882997Y-108010923D01*
X153882997Y-108010923D02*
X153835378Y-108106161D01*
X153835378Y-108106161D02*
X153740140Y-108201400D01*
X153740140Y-108201400D02*
X153597283Y-108249019D01*
X153597283Y-108249019D02*
X153359188Y-108249019D01*
X154930616Y-108153780D02*
X154882997Y-108201400D01*
X154882997Y-108201400D02*
X154740140Y-108249019D01*
X154740140Y-108249019D02*
X154644902Y-108249019D01*
X154644902Y-108249019D02*
X154502045Y-108201400D01*
X154502045Y-108201400D02*
X154406807Y-108106161D01*
X154406807Y-108106161D02*
X154359188Y-108010923D01*
X154359188Y-108010923D02*
X154311569Y-107820447D01*
X154311569Y-107820447D02*
X154311569Y-107677590D01*
X154311569Y-107677590D02*
X154359188Y-107487114D01*
X154359188Y-107487114D02*
X154406807Y-107391876D01*
X154406807Y-107391876D02*
X154502045Y-107296638D01*
X154502045Y-107296638D02*
X154644902Y-107249019D01*
X154644902Y-107249019D02*
X154740140Y-107249019D01*
X154740140Y-107249019D02*
X154882997Y-107296638D01*
X154882997Y-107296638D02*
X154930616Y-107344257D01*
X155121093Y-108344257D02*
X155882997Y-108344257D01*
X156121093Y-108249019D02*
X156121093Y-107249019D01*
X156597283Y-108249019D02*
X156597283Y-107249019D01*
X156597283Y-107249019D02*
X157168711Y-108249019D01*
X157168711Y-108249019D02*
X157168711Y-107249019D01*
X175255854Y-63824904D02*
X175732044Y-63824904D01*
X175160616Y-64110619D02*
X175493949Y-63110619D01*
X175493949Y-63110619D02*
X175827282Y-64110619D01*
X176160616Y-64110619D02*
X176160616Y-63110619D01*
X176160616Y-63110619D02*
X176493949Y-63824904D01*
X176493949Y-63824904D02*
X176827282Y-63110619D01*
X176827282Y-63110619D02*
X176827282Y-64110619D01*
X177255854Y-64063000D02*
X177398711Y-64110619D01*
X177398711Y-64110619D02*
X177636806Y-64110619D01*
X177636806Y-64110619D02*
X177732044Y-64063000D01*
X177732044Y-64063000D02*
X177779663Y-64015380D01*
X177779663Y-64015380D02*
X177827282Y-63920142D01*
X177827282Y-63920142D02*
X177827282Y-63824904D01*
X177827282Y-63824904D02*
X177779663Y-63729666D01*
X177779663Y-63729666D02*
X177732044Y-63682047D01*
X177732044Y-63682047D02*
X177636806Y-63634428D01*
X177636806Y-63634428D02*
X177446330Y-63586809D01*
X177446330Y-63586809D02*
X177351092Y-63539190D01*
X177351092Y-63539190D02*
X177303473Y-63491571D01*
X177303473Y-63491571D02*
X177255854Y-63396333D01*
X177255854Y-63396333D02*
X177255854Y-63301095D01*
X177255854Y-63301095D02*
X177303473Y-63205857D01*
X177303473Y-63205857D02*
X177351092Y-63158238D01*
X177351092Y-63158238D02*
X177446330Y-63110619D01*
X177446330Y-63110619D02*
X177684425Y-63110619D01*
X177684425Y-63110619D02*
X177827282Y-63158238D01*
X178017759Y-64205857D02*
X178779663Y-64205857D01*
X179589187Y-64110619D02*
X179255854Y-63634428D01*
X179017759Y-64110619D02*
X179017759Y-63110619D01*
X179017759Y-63110619D02*
X179398711Y-63110619D01*
X179398711Y-63110619D02*
X179493949Y-63158238D01*
X179493949Y-63158238D02*
X179541568Y-63205857D01*
X179541568Y-63205857D02*
X179589187Y-63301095D01*
X179589187Y-63301095D02*
X179589187Y-63443952D01*
X179589187Y-63443952D02*
X179541568Y-63539190D01*
X179541568Y-63539190D02*
X179493949Y-63586809D01*
X179493949Y-63586809D02*
X179398711Y-63634428D01*
X179398711Y-63634428D02*
X179017759Y-63634428D01*
X179970140Y-64063000D02*
X180112997Y-64110619D01*
X180112997Y-64110619D02*
X180351092Y-64110619D01*
X180351092Y-64110619D02*
X180446330Y-64063000D01*
X180446330Y-64063000D02*
X180493949Y-64015380D01*
X180493949Y-64015380D02*
X180541568Y-63920142D01*
X180541568Y-63920142D02*
X180541568Y-63824904D01*
X180541568Y-63824904D02*
X180493949Y-63729666D01*
X180493949Y-63729666D02*
X180446330Y-63682047D01*
X180446330Y-63682047D02*
X180351092Y-63634428D01*
X180351092Y-63634428D02*
X180160616Y-63586809D01*
X180160616Y-63586809D02*
X180065378Y-63539190D01*
X180065378Y-63539190D02*
X180017759Y-63491571D01*
X180017759Y-63491571D02*
X179970140Y-63396333D01*
X179970140Y-63396333D02*
X179970140Y-63301095D01*
X179970140Y-63301095D02*
X180017759Y-63205857D01*
X180017759Y-63205857D02*
X180065378Y-63158238D01*
X180065378Y-63158238D02*
X180160616Y-63110619D01*
X180160616Y-63110619D02*
X180398711Y-63110619D01*
X180398711Y-63110619D02*
X180541568Y-63158238D01*
X180827283Y-63110619D02*
X181398711Y-63110619D01*
X181112997Y-64110619D02*
X181112997Y-63110619D01*
X183017759Y-63158238D02*
X182922521Y-63110619D01*
X182922521Y-63110619D02*
X182779664Y-63110619D01*
X182779664Y-63110619D02*
X182636807Y-63158238D01*
X182636807Y-63158238D02*
X182541569Y-63253476D01*
X182541569Y-63253476D02*
X182493950Y-63348714D01*
X182493950Y-63348714D02*
X182446331Y-63539190D01*
X182446331Y-63539190D02*
X182446331Y-63682047D01*
X182446331Y-63682047D02*
X182493950Y-63872523D01*
X182493950Y-63872523D02*
X182541569Y-63967761D01*
X182541569Y-63967761D02*
X182636807Y-64063000D01*
X182636807Y-64063000D02*
X182779664Y-64110619D01*
X182779664Y-64110619D02*
X182874902Y-64110619D01*
X182874902Y-64110619D02*
X183017759Y-64063000D01*
X183017759Y-64063000D02*
X183065378Y-64015380D01*
X183065378Y-64015380D02*
X183065378Y-63682047D01*
X183065378Y-63682047D02*
X182874902Y-63682047D01*
X183493950Y-64110619D02*
X183493950Y-63110619D01*
X183493950Y-63110619D02*
X184065378Y-64110619D01*
X184065378Y-64110619D02*
X184065378Y-63110619D01*
X184541569Y-64110619D02*
X184541569Y-63110619D01*
X184541569Y-63110619D02*
X184779664Y-63110619D01*
X184779664Y-63110619D02*
X184922521Y-63158238D01*
X184922521Y-63158238D02*
X185017759Y-63253476D01*
X185017759Y-63253476D02*
X185065378Y-63348714D01*
X185065378Y-63348714D02*
X185112997Y-63539190D01*
X185112997Y-63539190D02*
X185112997Y-63682047D01*
X185112997Y-63682047D02*
X185065378Y-63872523D01*
X185065378Y-63872523D02*
X185017759Y-63967761D01*
X185017759Y-63967761D02*
X184922521Y-64063000D01*
X184922521Y-64063000D02*
X184779664Y-64110619D01*
X184779664Y-64110619D02*
X184541569Y-64110619D01*
X189795020Y-74122717D02*
X189795020Y-74694145D01*
X189795020Y-74408431D02*
X188795020Y-74408431D01*
X188795020Y-74408431D02*
X188937877Y-74503669D01*
X188937877Y-74503669D02*
X189033115Y-74598907D01*
X189033115Y-74598907D02*
X189080734Y-74694145D01*
X188890258Y-73741764D02*
X188842639Y-73694145D01*
X188842639Y-73694145D02*
X188795020Y-73598907D01*
X188795020Y-73598907D02*
X188795020Y-73360812D01*
X188795020Y-73360812D02*
X188842639Y-73265574D01*
X188842639Y-73265574D02*
X188890258Y-73217955D01*
X188890258Y-73217955D02*
X188985496Y-73170336D01*
X188985496Y-73170336D02*
X189080734Y-73170336D01*
X189080734Y-73170336D02*
X189223591Y-73217955D01*
X189223591Y-73217955D02*
X189795020Y-73789383D01*
X189795020Y-73789383D02*
X189795020Y-73170336D01*
X188795020Y-72884621D02*
X189795020Y-72551288D01*
X189795020Y-72551288D02*
X188795020Y-72217955D01*
D11*
X141170819Y-80271857D02*
X140694628Y-80605190D01*
X141170819Y-80843285D02*
X140170819Y-80843285D01*
X140170819Y-80843285D02*
X140170819Y-80462333D01*
X140170819Y-80462333D02*
X140218438Y-80367095D01*
X140218438Y-80367095D02*
X140266057Y-80319476D01*
X140266057Y-80319476D02*
X140361295Y-80271857D01*
X140361295Y-80271857D02*
X140504152Y-80271857D01*
X140504152Y-80271857D02*
X140599390Y-80319476D01*
X140599390Y-80319476D02*
X140647009Y-80367095D01*
X140647009Y-80367095D02*
X140694628Y-80462333D01*
X140694628Y-80462333D02*
X140694628Y-80843285D01*
X141170819Y-79319476D02*
X141170819Y-79890904D01*
X141170819Y-79605190D02*
X140170819Y-79605190D01*
X140170819Y-79605190D02*
X140313676Y-79700428D01*
X140313676Y-79700428D02*
X140408914Y-79795666D01*
X140408914Y-79795666D02*
X140456533Y-79890904D01*
X140170819Y-78986142D02*
X140170819Y-78319476D01*
X140170819Y-78319476D02*
X141170819Y-78748047D01*
X133104661Y-89805657D02*
X133009423Y-89758038D01*
X133009423Y-89758038D02*
X132914185Y-89662800D01*
X132914185Y-89662800D02*
X132771328Y-89519942D01*
X132771328Y-89519942D02*
X132676090Y-89472323D01*
X132676090Y-89472323D02*
X132580852Y-89472323D01*
X132628471Y-89710419D02*
X132533233Y-89662800D01*
X132533233Y-89662800D02*
X132437995Y-89567561D01*
X132437995Y-89567561D02*
X132390376Y-89377085D01*
X132390376Y-89377085D02*
X132390376Y-89043752D01*
X132390376Y-89043752D02*
X132437995Y-88853276D01*
X132437995Y-88853276D02*
X132533233Y-88758038D01*
X132533233Y-88758038D02*
X132628471Y-88710419D01*
X132628471Y-88710419D02*
X132818947Y-88710419D01*
X132818947Y-88710419D02*
X132914185Y-88758038D01*
X132914185Y-88758038D02*
X133009423Y-88853276D01*
X133009423Y-88853276D02*
X133057042Y-89043752D01*
X133057042Y-89043752D02*
X133057042Y-89377085D01*
X133057042Y-89377085D02*
X133009423Y-89567561D01*
X133009423Y-89567561D02*
X132914185Y-89662800D01*
X132914185Y-89662800D02*
X132818947Y-89710419D01*
X132818947Y-89710419D02*
X132628471Y-89710419D01*
X134009423Y-89710419D02*
X133437995Y-89710419D01*
X133723709Y-89710419D02*
X133723709Y-88710419D01*
X133723709Y-88710419D02*
X133628471Y-88853276D01*
X133628471Y-88853276D02*
X133533233Y-88948514D01*
X133533233Y-88948514D02*
X133437995Y-88996133D01*
X136725819Y-94184694D02*
X135725819Y-94184694D01*
X135725819Y-94184694D02*
X135725819Y-93946599D01*
X135725819Y-93946599D02*
X135773438Y-93803742D01*
X135773438Y-93803742D02*
X135868676Y-93708504D01*
X135868676Y-93708504D02*
X135963914Y-93660885D01*
X135963914Y-93660885D02*
X136154390Y-93613266D01*
X136154390Y-93613266D02*
X136297247Y-93613266D01*
X136297247Y-93613266D02*
X136487723Y-93660885D01*
X136487723Y-93660885D02*
X136582961Y-93708504D01*
X136582961Y-93708504D02*
X136678200Y-93803742D01*
X136678200Y-93803742D02*
X136725819Y-93946599D01*
X136725819Y-93946599D02*
X136725819Y-94184694D01*
X135725819Y-92708504D02*
X135725819Y-93184694D01*
X135725819Y-93184694D02*
X136202009Y-93232313D01*
X136202009Y-93232313D02*
X136154390Y-93184694D01*
X136154390Y-93184694D02*
X136106771Y-93089456D01*
X136106771Y-93089456D02*
X136106771Y-92851361D01*
X136106771Y-92851361D02*
X136154390Y-92756123D01*
X136154390Y-92756123D02*
X136202009Y-92708504D01*
X136202009Y-92708504D02*
X136297247Y-92660885D01*
X136297247Y-92660885D02*
X136535342Y-92660885D01*
X136535342Y-92660885D02*
X136630580Y-92708504D01*
X136630580Y-92708504D02*
X136678200Y-92756123D01*
X136678200Y-92756123D02*
X136725819Y-92851361D01*
X136725819Y-92851361D02*
X136725819Y-93089456D01*
X136725819Y-93089456D02*
X136678200Y-93184694D01*
X136678200Y-93184694D02*
X136630580Y-93232313D01*
X140764419Y-99779057D02*
X140288228Y-100112390D01*
X140764419Y-100350485D02*
X139764419Y-100350485D01*
X139764419Y-100350485D02*
X139764419Y-99969533D01*
X139764419Y-99969533D02*
X139812038Y-99874295D01*
X139812038Y-99874295D02*
X139859657Y-99826676D01*
X139859657Y-99826676D02*
X139954895Y-99779057D01*
X139954895Y-99779057D02*
X140097752Y-99779057D01*
X140097752Y-99779057D02*
X140192990Y-99826676D01*
X140192990Y-99826676D02*
X140240609Y-99874295D01*
X140240609Y-99874295D02*
X140288228Y-99969533D01*
X140288228Y-99969533D02*
X140288228Y-100350485D01*
X140764419Y-98826676D02*
X140764419Y-99398104D01*
X140764419Y-99112390D02*
X139764419Y-99112390D01*
X139764419Y-99112390D02*
X139907276Y-99207628D01*
X139907276Y-99207628D02*
X140002514Y-99302866D01*
X140002514Y-99302866D02*
X140050133Y-99398104D01*
X139764419Y-97969533D02*
X139764419Y-98160009D01*
X139764419Y-98160009D02*
X139812038Y-98255247D01*
X139812038Y-98255247D02*
X139859657Y-98302866D01*
X139859657Y-98302866D02*
X140002514Y-98398104D01*
X140002514Y-98398104D02*
X140192990Y-98445723D01*
X140192990Y-98445723D02*
X140573942Y-98445723D01*
X140573942Y-98445723D02*
X140669180Y-98398104D01*
X140669180Y-98398104D02*
X140716800Y-98350485D01*
X140716800Y-98350485D02*
X140764419Y-98255247D01*
X140764419Y-98255247D02*
X140764419Y-98064771D01*
X140764419Y-98064771D02*
X140716800Y-97969533D01*
X140716800Y-97969533D02*
X140669180Y-97921914D01*
X140669180Y-97921914D02*
X140573942Y-97874295D01*
X140573942Y-97874295D02*
X140335847Y-97874295D01*
X140335847Y-97874295D02*
X140240609Y-97921914D01*
X140240609Y-97921914D02*
X140192990Y-97969533D01*
X140192990Y-97969533D02*
X140145371Y-98064771D01*
X140145371Y-98064771D02*
X140145371Y-98255247D01*
X140145371Y-98255247D02*
X140192990Y-98350485D01*
X140192990Y-98350485D02*
X140240609Y-98398104D01*
X140240609Y-98398104D02*
X140335847Y-98445723D01*
X180597276Y-113623419D02*
X180597276Y-114337704D01*
X180597276Y-114337704D02*
X180549657Y-114480561D01*
X180549657Y-114480561D02*
X180454419Y-114575800D01*
X180454419Y-114575800D02*
X180311562Y-114623419D01*
X180311562Y-114623419D02*
X180216324Y-114623419D01*
X181597276Y-114623419D02*
X181025848Y-114623419D01*
X181311562Y-114623419D02*
X181311562Y-113623419D01*
X181311562Y-113623419D02*
X181216324Y-113766276D01*
X181216324Y-113766276D02*
X181121086Y-113861514D01*
X181121086Y-113861514D02*
X181025848Y-113909133D01*
X181930610Y-113623419D02*
X182549657Y-113623419D01*
X182549657Y-113623419D02*
X182216324Y-114004371D01*
X182216324Y-114004371D02*
X182359181Y-114004371D01*
X182359181Y-114004371D02*
X182454419Y-114051990D01*
X182454419Y-114051990D02*
X182502038Y-114099609D01*
X182502038Y-114099609D02*
X182549657Y-114194847D01*
X182549657Y-114194847D02*
X182549657Y-114432942D01*
X182549657Y-114432942D02*
X182502038Y-114528180D01*
X182502038Y-114528180D02*
X182454419Y-114575800D01*
X182454419Y-114575800D02*
X182359181Y-114623419D01*
X182359181Y-114623419D02*
X182073467Y-114623419D01*
X182073467Y-114623419D02*
X181978229Y-114575800D01*
X181978229Y-114575800D02*
X181930610Y-114528180D01*
X136700419Y-75134694D02*
X135700419Y-75134694D01*
X135700419Y-75134694D02*
X135700419Y-74896599D01*
X135700419Y-74896599D02*
X135748038Y-74753742D01*
X135748038Y-74753742D02*
X135843276Y-74658504D01*
X135843276Y-74658504D02*
X135938514Y-74610885D01*
X135938514Y-74610885D02*
X136128990Y-74563266D01*
X136128990Y-74563266D02*
X136271847Y-74563266D01*
X136271847Y-74563266D02*
X136462323Y-74610885D01*
X136462323Y-74610885D02*
X136557561Y-74658504D01*
X136557561Y-74658504D02*
X136652800Y-74753742D01*
X136652800Y-74753742D02*
X136700419Y-74896599D01*
X136700419Y-74896599D02*
X136700419Y-75134694D01*
X135700419Y-73706123D02*
X135700419Y-73896599D01*
X135700419Y-73896599D02*
X135748038Y-73991837D01*
X135748038Y-73991837D02*
X135795657Y-74039456D01*
X135795657Y-74039456D02*
X135938514Y-74134694D01*
X135938514Y-74134694D02*
X136128990Y-74182313D01*
X136128990Y-74182313D02*
X136509942Y-74182313D01*
X136509942Y-74182313D02*
X136605180Y-74134694D01*
X136605180Y-74134694D02*
X136652800Y-74087075D01*
X136652800Y-74087075D02*
X136700419Y-73991837D01*
X136700419Y-73991837D02*
X136700419Y-73801361D01*
X136700419Y-73801361D02*
X136652800Y-73706123D01*
X136652800Y-73706123D02*
X136605180Y-73658504D01*
X136605180Y-73658504D02*
X136509942Y-73610885D01*
X136509942Y-73610885D02*
X136271847Y-73610885D01*
X136271847Y-73610885D02*
X136176609Y-73658504D01*
X136176609Y-73658504D02*
X136128990Y-73706123D01*
X136128990Y-73706123D02*
X136081371Y-73801361D01*
X136081371Y-73801361D02*
X136081371Y-73991837D01*
X136081371Y-73991837D02*
X136128990Y-74087075D01*
X136128990Y-74087075D02*
X136176609Y-74134694D01*
X136176609Y-74134694D02*
X136271847Y-74182313D01*
X133234133Y-81459419D02*
X132900800Y-80983228D01*
X132662705Y-81459419D02*
X132662705Y-80459419D01*
X132662705Y-80459419D02*
X133043657Y-80459419D01*
X133043657Y-80459419D02*
X133138895Y-80507038D01*
X133138895Y-80507038D02*
X133186514Y-80554657D01*
X133186514Y-80554657D02*
X133234133Y-80649895D01*
X133234133Y-80649895D02*
X133234133Y-80792752D01*
X133234133Y-80792752D02*
X133186514Y-80887990D01*
X133186514Y-80887990D02*
X133138895Y-80935609D01*
X133138895Y-80935609D02*
X133043657Y-80983228D01*
X133043657Y-80983228D02*
X132662705Y-80983228D01*
X134091276Y-80459419D02*
X133900800Y-80459419D01*
X133900800Y-80459419D02*
X133805562Y-80507038D01*
X133805562Y-80507038D02*
X133757943Y-80554657D01*
X133757943Y-80554657D02*
X133662705Y-80697514D01*
X133662705Y-80697514D02*
X133615086Y-80887990D01*
X133615086Y-80887990D02*
X133615086Y-81268942D01*
X133615086Y-81268942D02*
X133662705Y-81364180D01*
X133662705Y-81364180D02*
X133710324Y-81411800D01*
X133710324Y-81411800D02*
X133805562Y-81459419D01*
X133805562Y-81459419D02*
X133996038Y-81459419D01*
X133996038Y-81459419D02*
X134091276Y-81411800D01*
X134091276Y-81411800D02*
X134138895Y-81364180D01*
X134138895Y-81364180D02*
X134186514Y-81268942D01*
X134186514Y-81268942D02*
X134186514Y-81030847D01*
X134186514Y-81030847D02*
X134138895Y-80935609D01*
X134138895Y-80935609D02*
X134091276Y-80887990D01*
X134091276Y-80887990D02*
X133996038Y-80840371D01*
X133996038Y-80840371D02*
X133805562Y-80840371D01*
X133805562Y-80840371D02*
X133710324Y-80887990D01*
X133710324Y-80887990D02*
X133662705Y-80935609D01*
X133662705Y-80935609D02*
X133615086Y-81030847D01*
X166002833Y-76924136D02*
X165526642Y-77257469D01*
X166002833Y-77495564D02*
X165002833Y-77495564D01*
X165002833Y-77495564D02*
X165002833Y-77114612D01*
X165002833Y-77114612D02*
X165050452Y-77019374D01*
X165050452Y-77019374D02*
X165098071Y-76971755D01*
X165098071Y-76971755D02*
X165193309Y-76924136D01*
X165193309Y-76924136D02*
X165336166Y-76924136D01*
X165336166Y-76924136D02*
X165431404Y-76971755D01*
X165431404Y-76971755D02*
X165479023Y-77019374D01*
X165479023Y-77019374D02*
X165526642Y-77114612D01*
X165526642Y-77114612D02*
X165526642Y-77495564D01*
X165002833Y-76590802D02*
X165002833Y-75924136D01*
X165002833Y-75924136D02*
X166002833Y-76352707D01*
X187829619Y-96554257D02*
X187353428Y-96887590D01*
X187829619Y-97125685D02*
X186829619Y-97125685D01*
X186829619Y-97125685D02*
X186829619Y-96744733D01*
X186829619Y-96744733D02*
X186877238Y-96649495D01*
X186877238Y-96649495D02*
X186924857Y-96601876D01*
X186924857Y-96601876D02*
X187020095Y-96554257D01*
X187020095Y-96554257D02*
X187162952Y-96554257D01*
X187162952Y-96554257D02*
X187258190Y-96601876D01*
X187258190Y-96601876D02*
X187305809Y-96649495D01*
X187305809Y-96649495D02*
X187353428Y-96744733D01*
X187353428Y-96744733D02*
X187353428Y-97125685D01*
X187829619Y-95601876D02*
X187829619Y-96173304D01*
X187829619Y-95887590D02*
X186829619Y-95887590D01*
X186829619Y-95887590D02*
X186972476Y-95982828D01*
X186972476Y-95982828D02*
X187067714Y-96078066D01*
X187067714Y-96078066D02*
X187115333Y-96173304D01*
X186829619Y-94982828D02*
X186829619Y-94887590D01*
X186829619Y-94887590D02*
X186877238Y-94792352D01*
X186877238Y-94792352D02*
X186924857Y-94744733D01*
X186924857Y-94744733D02*
X187020095Y-94697114D01*
X187020095Y-94697114D02*
X187210571Y-94649495D01*
X187210571Y-94649495D02*
X187448666Y-94649495D01*
X187448666Y-94649495D02*
X187639142Y-94697114D01*
X187639142Y-94697114D02*
X187734380Y-94744733D01*
X187734380Y-94744733D02*
X187782000Y-94792352D01*
X187782000Y-94792352D02*
X187829619Y-94887590D01*
X187829619Y-94887590D02*
X187829619Y-94982828D01*
X187829619Y-94982828D02*
X187782000Y-95078066D01*
X187782000Y-95078066D02*
X187734380Y-95125685D01*
X187734380Y-95125685D02*
X187639142Y-95173304D01*
X187639142Y-95173304D02*
X187448666Y-95220923D01*
X187448666Y-95220923D02*
X187210571Y-95220923D01*
X187210571Y-95220923D02*
X187020095Y-95173304D01*
X187020095Y-95173304D02*
X186924857Y-95125685D01*
X186924857Y-95125685D02*
X186877238Y-95078066D01*
X186877238Y-95078066D02*
X186829619Y-94982828D01*
X172788142Y-69914218D02*
X172454809Y-69438027D01*
X172216714Y-69914218D02*
X172216714Y-68914218D01*
X172216714Y-68914218D02*
X172597666Y-68914218D01*
X172597666Y-68914218D02*
X172692904Y-68961837D01*
X172692904Y-68961837D02*
X172740523Y-69009456D01*
X172740523Y-69009456D02*
X172788142Y-69104694D01*
X172788142Y-69104694D02*
X172788142Y-69247551D01*
X172788142Y-69247551D02*
X172740523Y-69342789D01*
X172740523Y-69342789D02*
X172692904Y-69390408D01*
X172692904Y-69390408D02*
X172597666Y-69438027D01*
X172597666Y-69438027D02*
X172216714Y-69438027D01*
X173740523Y-69914218D02*
X173169095Y-69914218D01*
X173454809Y-69914218D02*
X173454809Y-68914218D01*
X173454809Y-68914218D02*
X173359571Y-69057075D01*
X173359571Y-69057075D02*
X173264333Y-69152313D01*
X173264333Y-69152313D02*
X173169095Y-69199932D01*
X174692904Y-69914218D02*
X174121476Y-69914218D01*
X174407190Y-69914218D02*
X174407190Y-68914218D01*
X174407190Y-68914218D02*
X174311952Y-69057075D01*
X174311952Y-69057075D02*
X174216714Y-69152313D01*
X174216714Y-69152313D02*
X174121476Y-69199932D01*
X179210834Y-82048526D02*
X178734643Y-82381859D01*
X179210834Y-82619954D02*
X178210834Y-82619954D01*
X178210834Y-82619954D02*
X178210834Y-82239002D01*
X178210834Y-82239002D02*
X178258453Y-82143764D01*
X178258453Y-82143764D02*
X178306072Y-82096145D01*
X178306072Y-82096145D02*
X178401310Y-82048526D01*
X178401310Y-82048526D02*
X178544167Y-82048526D01*
X178544167Y-82048526D02*
X178639405Y-82096145D01*
X178639405Y-82096145D02*
X178687024Y-82143764D01*
X178687024Y-82143764D02*
X178734643Y-82239002D01*
X178734643Y-82239002D02*
X178734643Y-82619954D01*
X179210834Y-81096145D02*
X179210834Y-81667573D01*
X179210834Y-81381859D02*
X178210834Y-81381859D01*
X178210834Y-81381859D02*
X178353691Y-81477097D01*
X178353691Y-81477097D02*
X178448929Y-81572335D01*
X178448929Y-81572335D02*
X178496548Y-81667573D01*
X178210834Y-80762811D02*
X178210834Y-80143764D01*
X178210834Y-80143764D02*
X178591786Y-80477097D01*
X178591786Y-80477097D02*
X178591786Y-80334240D01*
X178591786Y-80334240D02*
X178639405Y-80239002D01*
X178639405Y-80239002D02*
X178687024Y-80191383D01*
X178687024Y-80191383D02*
X178782262Y-80143764D01*
X178782262Y-80143764D02*
X179020357Y-80143764D01*
X179020357Y-80143764D02*
X179115595Y-80191383D01*
X179115595Y-80191383D02*
X179163215Y-80239002D01*
X179163215Y-80239002D02*
X179210834Y-80334240D01*
X179210834Y-80334240D02*
X179210834Y-80619954D01*
X179210834Y-80619954D02*
X179163215Y-80715192D01*
X179163215Y-80715192D02*
X179115595Y-80762811D01*
X169262993Y-72504534D02*
X169310613Y-72552153D01*
X169310613Y-72552153D02*
X169358232Y-72695010D01*
X169358232Y-72695010D02*
X169358232Y-72790248D01*
X169358232Y-72790248D02*
X169310613Y-72933105D01*
X169310613Y-72933105D02*
X169215374Y-73028343D01*
X169215374Y-73028343D02*
X169120136Y-73075962D01*
X169120136Y-73075962D02*
X168929660Y-73123581D01*
X168929660Y-73123581D02*
X168786803Y-73123581D01*
X168786803Y-73123581D02*
X168596327Y-73075962D01*
X168596327Y-73075962D02*
X168501089Y-73028343D01*
X168501089Y-73028343D02*
X168405851Y-72933105D01*
X168405851Y-72933105D02*
X168358232Y-72790248D01*
X168358232Y-72790248D02*
X168358232Y-72695010D01*
X168358232Y-72695010D02*
X168405851Y-72552153D01*
X168405851Y-72552153D02*
X168453470Y-72504534D01*
X168358232Y-72171200D02*
X168358232Y-71552153D01*
X168358232Y-71552153D02*
X168739184Y-71885486D01*
X168739184Y-71885486D02*
X168739184Y-71742629D01*
X168739184Y-71742629D02*
X168786803Y-71647391D01*
X168786803Y-71647391D02*
X168834422Y-71599772D01*
X168834422Y-71599772D02*
X168929660Y-71552153D01*
X168929660Y-71552153D02*
X169167755Y-71552153D01*
X169167755Y-71552153D02*
X169262993Y-71599772D01*
X169262993Y-71599772D02*
X169310613Y-71647391D01*
X169310613Y-71647391D02*
X169358232Y-71742629D01*
X169358232Y-71742629D02*
X169358232Y-72028343D01*
X169358232Y-72028343D02*
X169310613Y-72123581D01*
X169310613Y-72123581D02*
X169262993Y-72171200D01*
X184570235Y-78223436D02*
X184094044Y-78556769D01*
X184570235Y-78794864D02*
X183570235Y-78794864D01*
X183570235Y-78794864D02*
X183570235Y-78413912D01*
X183570235Y-78413912D02*
X183617854Y-78318674D01*
X183617854Y-78318674D02*
X183665473Y-78271055D01*
X183665473Y-78271055D02*
X183760711Y-78223436D01*
X183760711Y-78223436D02*
X183903568Y-78223436D01*
X183903568Y-78223436D02*
X183998806Y-78271055D01*
X183998806Y-78271055D02*
X184046425Y-78318674D01*
X184046425Y-78318674D02*
X184094044Y-78413912D01*
X184094044Y-78413912D02*
X184094044Y-78794864D01*
X183903568Y-77366293D02*
X184570235Y-77366293D01*
X183522616Y-77604388D02*
X184236901Y-77842483D01*
X184236901Y-77842483D02*
X184236901Y-77223436D01*
X169685834Y-78771926D02*
X169209643Y-79105259D01*
X169685834Y-79343354D02*
X168685834Y-79343354D01*
X168685834Y-79343354D02*
X168685834Y-78962402D01*
X168685834Y-78962402D02*
X168733453Y-78867164D01*
X168733453Y-78867164D02*
X168781072Y-78819545D01*
X168781072Y-78819545D02*
X168876310Y-78771926D01*
X168876310Y-78771926D02*
X169019167Y-78771926D01*
X169019167Y-78771926D02*
X169114405Y-78819545D01*
X169114405Y-78819545D02*
X169162024Y-78867164D01*
X169162024Y-78867164D02*
X169209643Y-78962402D01*
X169209643Y-78962402D02*
X169209643Y-79343354D01*
X169685834Y-77819545D02*
X169685834Y-78390973D01*
X169685834Y-78105259D02*
X168685834Y-78105259D01*
X168685834Y-78105259D02*
X168828691Y-78200497D01*
X168828691Y-78200497D02*
X168923929Y-78295735D01*
X168923929Y-78295735D02*
X168971548Y-78390973D01*
X169019167Y-76962402D02*
X169685834Y-76962402D01*
X168638215Y-77200497D02*
X169352500Y-77438592D01*
X169352500Y-77438592D02*
X169352500Y-76819545D01*
X133307861Y-70654057D02*
X133212623Y-70606438D01*
X133212623Y-70606438D02*
X133117385Y-70511200D01*
X133117385Y-70511200D02*
X132974528Y-70368342D01*
X132974528Y-70368342D02*
X132879290Y-70320723D01*
X132879290Y-70320723D02*
X132784052Y-70320723D01*
X132831671Y-70558819D02*
X132736433Y-70511200D01*
X132736433Y-70511200D02*
X132641195Y-70415961D01*
X132641195Y-70415961D02*
X132593576Y-70225485D01*
X132593576Y-70225485D02*
X132593576Y-69892152D01*
X132593576Y-69892152D02*
X132641195Y-69701676D01*
X132641195Y-69701676D02*
X132736433Y-69606438D01*
X132736433Y-69606438D02*
X132831671Y-69558819D01*
X132831671Y-69558819D02*
X133022147Y-69558819D01*
X133022147Y-69558819D02*
X133117385Y-69606438D01*
X133117385Y-69606438D02*
X133212623Y-69701676D01*
X133212623Y-69701676D02*
X133260242Y-69892152D01*
X133260242Y-69892152D02*
X133260242Y-70225485D01*
X133260242Y-70225485D02*
X133212623Y-70415961D01*
X133212623Y-70415961D02*
X133117385Y-70511200D01*
X133117385Y-70511200D02*
X133022147Y-70558819D01*
X133022147Y-70558819D02*
X132831671Y-70558819D01*
X133641195Y-69654057D02*
X133688814Y-69606438D01*
X133688814Y-69606438D02*
X133784052Y-69558819D01*
X133784052Y-69558819D02*
X134022147Y-69558819D01*
X134022147Y-69558819D02*
X134117385Y-69606438D01*
X134117385Y-69606438D02*
X134165004Y-69654057D01*
X134165004Y-69654057D02*
X134212623Y-69749295D01*
X134212623Y-69749295D02*
X134212623Y-69844533D01*
X134212623Y-69844533D02*
X134165004Y-69987390D01*
X134165004Y-69987390D02*
X133593576Y-70558819D01*
X133593576Y-70558819D02*
X134212623Y-70558819D01*
X181293419Y-95673704D02*
X182102942Y-95673704D01*
X182102942Y-95673704D02*
X182198180Y-95626085D01*
X182198180Y-95626085D02*
X182245800Y-95578466D01*
X182245800Y-95578466D02*
X182293419Y-95483228D01*
X182293419Y-95483228D02*
X182293419Y-95292752D01*
X182293419Y-95292752D02*
X182245800Y-95197514D01*
X182245800Y-95197514D02*
X182198180Y-95149895D01*
X182198180Y-95149895D02*
X182102942Y-95102276D01*
X182102942Y-95102276D02*
X181293419Y-95102276D01*
X182293419Y-94102276D02*
X182293419Y-94673704D01*
X182293419Y-94387990D02*
X181293419Y-94387990D01*
X181293419Y-94387990D02*
X181436276Y-94483228D01*
X181436276Y-94483228D02*
X181531514Y-94578466D01*
X181531514Y-94578466D02*
X181579133Y-94673704D01*
X184504219Y-101551695D02*
X183504219Y-101551695D01*
X183504219Y-101551695D02*
X183504219Y-101313600D01*
X183504219Y-101313600D02*
X183551838Y-101170743D01*
X183551838Y-101170743D02*
X183647076Y-101075505D01*
X183647076Y-101075505D02*
X183742314Y-101027886D01*
X183742314Y-101027886D02*
X183932790Y-100980267D01*
X183932790Y-100980267D02*
X184075647Y-100980267D01*
X184075647Y-100980267D02*
X184266123Y-101027886D01*
X184266123Y-101027886D02*
X184361361Y-101075505D01*
X184361361Y-101075505D02*
X184456600Y-101170743D01*
X184456600Y-101170743D02*
X184504219Y-101313600D01*
X184504219Y-101313600D02*
X184504219Y-101551695D01*
X183837552Y-100123124D02*
X184504219Y-100123124D01*
X183456600Y-100361219D02*
X184170885Y-100599314D01*
X184170885Y-100599314D02*
X184170885Y-99980267D01*
X176624309Y-75896289D02*
X176624309Y-76705812D01*
X176624309Y-76705812D02*
X176671928Y-76801050D01*
X176671928Y-76801050D02*
X176719547Y-76848670D01*
X176719547Y-76848670D02*
X176814785Y-76896289D01*
X176814785Y-76896289D02*
X177005261Y-76896289D01*
X177005261Y-76896289D02*
X177100499Y-76848670D01*
X177100499Y-76848670D02*
X177148118Y-76801050D01*
X177148118Y-76801050D02*
X177195737Y-76705812D01*
X177195737Y-76705812D02*
X177195737Y-75896289D01*
X177624309Y-75991527D02*
X177671928Y-75943908D01*
X177671928Y-75943908D02*
X177767166Y-75896289D01*
X177767166Y-75896289D02*
X178005261Y-75896289D01*
X178005261Y-75896289D02*
X178100499Y-75943908D01*
X178100499Y-75943908D02*
X178148118Y-75991527D01*
X178148118Y-75991527D02*
X178195737Y-76086765D01*
X178195737Y-76086765D02*
X178195737Y-76182003D01*
X178195737Y-76182003D02*
X178148118Y-76324860D01*
X178148118Y-76324860D02*
X177576690Y-76896289D01*
X177576690Y-76896289D02*
X178195737Y-76896289D01*
X133058633Y-100545019D02*
X132725300Y-100068828D01*
X132487205Y-100545019D02*
X132487205Y-99545019D01*
X132487205Y-99545019D02*
X132868157Y-99545019D01*
X132868157Y-99545019D02*
X132963395Y-99592638D01*
X132963395Y-99592638D02*
X133011014Y-99640257D01*
X133011014Y-99640257D02*
X133058633Y-99735495D01*
X133058633Y-99735495D02*
X133058633Y-99878352D01*
X133058633Y-99878352D02*
X133011014Y-99973590D01*
X133011014Y-99973590D02*
X132963395Y-100021209D01*
X132963395Y-100021209D02*
X132868157Y-100068828D01*
X132868157Y-100068828D02*
X132487205Y-100068828D01*
X133963395Y-99545019D02*
X133487205Y-99545019D01*
X133487205Y-99545019D02*
X133439586Y-100021209D01*
X133439586Y-100021209D02*
X133487205Y-99973590D01*
X133487205Y-99973590D02*
X133582443Y-99925971D01*
X133582443Y-99925971D02*
X133820538Y-99925971D01*
X133820538Y-99925971D02*
X133915776Y-99973590D01*
X133915776Y-99973590D02*
X133963395Y-100021209D01*
X133963395Y-100021209D02*
X134011014Y-100116447D01*
X134011014Y-100116447D02*
X134011014Y-100354542D01*
X134011014Y-100354542D02*
X133963395Y-100449780D01*
X133963395Y-100449780D02*
X133915776Y-100497400D01*
X133915776Y-100497400D02*
X133820538Y-100545019D01*
X133820538Y-100545019D02*
X133582443Y-100545019D01*
X133582443Y-100545019D02*
X133487205Y-100497400D01*
X133487205Y-100497400D02*
X133439586Y-100449780D01*
X136522619Y-76646066D02*
X136046428Y-76979399D01*
X136522619Y-77217494D02*
X135522619Y-77217494D01*
X135522619Y-77217494D02*
X135522619Y-76836542D01*
X135522619Y-76836542D02*
X135570238Y-76741304D01*
X135570238Y-76741304D02*
X135617857Y-76693685D01*
X135617857Y-76693685D02*
X135713095Y-76646066D01*
X135713095Y-76646066D02*
X135855952Y-76646066D01*
X135855952Y-76646066D02*
X135951190Y-76693685D01*
X135951190Y-76693685D02*
X135998809Y-76741304D01*
X135998809Y-76741304D02*
X136046428Y-76836542D01*
X136046428Y-76836542D02*
X136046428Y-77217494D01*
X135522619Y-76312732D02*
X135522619Y-75693685D01*
X135522619Y-75693685D02*
X135903571Y-76027018D01*
X135903571Y-76027018D02*
X135903571Y-75884161D01*
X135903571Y-75884161D02*
X135951190Y-75788923D01*
X135951190Y-75788923D02*
X135998809Y-75741304D01*
X135998809Y-75741304D02*
X136094047Y-75693685D01*
X136094047Y-75693685D02*
X136332142Y-75693685D01*
X136332142Y-75693685D02*
X136427380Y-75741304D01*
X136427380Y-75741304D02*
X136475000Y-75788923D01*
X136475000Y-75788923D02*
X136522619Y-75884161D01*
X136522619Y-75884161D02*
X136522619Y-76169875D01*
X136522619Y-76169875D02*
X136475000Y-76265113D01*
X136475000Y-76265113D02*
X136427380Y-76312732D01*
X136421019Y-95645266D02*
X135944828Y-95978599D01*
X136421019Y-96216694D02*
X135421019Y-96216694D01*
X135421019Y-96216694D02*
X135421019Y-95835742D01*
X135421019Y-95835742D02*
X135468638Y-95740504D01*
X135468638Y-95740504D02*
X135516257Y-95692885D01*
X135516257Y-95692885D02*
X135611495Y-95645266D01*
X135611495Y-95645266D02*
X135754352Y-95645266D01*
X135754352Y-95645266D02*
X135849590Y-95692885D01*
X135849590Y-95692885D02*
X135897209Y-95740504D01*
X135897209Y-95740504D02*
X135944828Y-95835742D01*
X135944828Y-95835742D02*
X135944828Y-96216694D01*
X135516257Y-95264313D02*
X135468638Y-95216694D01*
X135468638Y-95216694D02*
X135421019Y-95121456D01*
X135421019Y-95121456D02*
X135421019Y-94883361D01*
X135421019Y-94883361D02*
X135468638Y-94788123D01*
X135468638Y-94788123D02*
X135516257Y-94740504D01*
X135516257Y-94740504D02*
X135611495Y-94692885D01*
X135611495Y-94692885D02*
X135706733Y-94692885D01*
X135706733Y-94692885D02*
X135849590Y-94740504D01*
X135849590Y-94740504D02*
X136421019Y-95311932D01*
X136421019Y-95311932D02*
X136421019Y-94692885D01*
X187830394Y-73549835D02*
X187878014Y-73597454D01*
X187878014Y-73597454D02*
X187925633Y-73740311D01*
X187925633Y-73740311D02*
X187925633Y-73835549D01*
X187925633Y-73835549D02*
X187878014Y-73978406D01*
X187878014Y-73978406D02*
X187782775Y-74073644D01*
X187782775Y-74073644D02*
X187687537Y-74121263D01*
X187687537Y-74121263D02*
X187497061Y-74168882D01*
X187497061Y-74168882D02*
X187354204Y-74168882D01*
X187354204Y-74168882D02*
X187163728Y-74121263D01*
X187163728Y-74121263D02*
X187068490Y-74073644D01*
X187068490Y-74073644D02*
X186973252Y-73978406D01*
X186973252Y-73978406D02*
X186925633Y-73835549D01*
X186925633Y-73835549D02*
X186925633Y-73740311D01*
X186925633Y-73740311D02*
X186973252Y-73597454D01*
X186973252Y-73597454D02*
X187020871Y-73549835D01*
X187020871Y-73168882D02*
X186973252Y-73121263D01*
X186973252Y-73121263D02*
X186925633Y-73026025D01*
X186925633Y-73026025D02*
X186925633Y-72787930D01*
X186925633Y-72787930D02*
X186973252Y-72692692D01*
X186973252Y-72692692D02*
X187020871Y-72645073D01*
X187020871Y-72645073D02*
X187116109Y-72597454D01*
X187116109Y-72597454D02*
X187211347Y-72597454D01*
X187211347Y-72597454D02*
X187354204Y-72645073D01*
X187354204Y-72645073D02*
X187925633Y-73216501D01*
X187925633Y-73216501D02*
X187925633Y-72597454D01*
X177538142Y-69950219D02*
X177204809Y-69474028D01*
X176966714Y-69950219D02*
X176966714Y-68950219D01*
X176966714Y-68950219D02*
X177347666Y-68950219D01*
X177347666Y-68950219D02*
X177442904Y-68997838D01*
X177442904Y-68997838D02*
X177490523Y-69045457D01*
X177490523Y-69045457D02*
X177538142Y-69140695D01*
X177538142Y-69140695D02*
X177538142Y-69283552D01*
X177538142Y-69283552D02*
X177490523Y-69378790D01*
X177490523Y-69378790D02*
X177442904Y-69426409D01*
X177442904Y-69426409D02*
X177347666Y-69474028D01*
X177347666Y-69474028D02*
X176966714Y-69474028D01*
X178490523Y-69950219D02*
X177919095Y-69950219D01*
X178204809Y-69950219D02*
X178204809Y-68950219D01*
X178204809Y-68950219D02*
X178109571Y-69093076D01*
X178109571Y-69093076D02*
X178014333Y-69188314D01*
X178014333Y-69188314D02*
X177919095Y-69235933D01*
X178871476Y-69045457D02*
X178919095Y-68997838D01*
X178919095Y-68997838D02*
X179014333Y-68950219D01*
X179014333Y-68950219D02*
X179252428Y-68950219D01*
X179252428Y-68950219D02*
X179347666Y-68997838D01*
X179347666Y-68997838D02*
X179395285Y-69045457D01*
X179395285Y-69045457D02*
X179442904Y-69140695D01*
X179442904Y-69140695D02*
X179442904Y-69235933D01*
X179442904Y-69235933D02*
X179395285Y-69378790D01*
X179395285Y-69378790D02*
X178823857Y-69950219D01*
X178823857Y-69950219D02*
X179442904Y-69950219D01*
X148711506Y-105189817D02*
X148711506Y-104189817D01*
X149282934Y-105189817D02*
X148854363Y-104618388D01*
X149282934Y-104189817D02*
X148711506Y-104761245D01*
X150235315Y-105189817D02*
X149663887Y-105189817D01*
X149949601Y-105189817D02*
X149949601Y-104189817D01*
X149949601Y-104189817D02*
X149854363Y-104332674D01*
X149854363Y-104332674D02*
X149759125Y-104427912D01*
X149759125Y-104427912D02*
X149663887Y-104475531D01*
X150271305Y-85600818D02*
X150271305Y-84600818D01*
X150842733Y-85600818D02*
X150414162Y-85029389D01*
X150842733Y-84600818D02*
X150271305Y-85172246D01*
X151223686Y-84696056D02*
X151271305Y-84648437D01*
X151271305Y-84648437D02*
X151366543Y-84600818D01*
X151366543Y-84600818D02*
X151604638Y-84600818D01*
X151604638Y-84600818D02*
X151699876Y-84648437D01*
X151699876Y-84648437D02*
X151747495Y-84696056D01*
X151747495Y-84696056D02*
X151795114Y-84791294D01*
X151795114Y-84791294D02*
X151795114Y-84886532D01*
X151795114Y-84886532D02*
X151747495Y-85029389D01*
X151747495Y-85029389D02*
X151176067Y-85600818D01*
X151176067Y-85600818D02*
X151795114Y-85600818D01*
D12*
%TO.C,R17*%
X139114264Y-76404800D02*
X138660136Y-76404800D01*
X139114264Y-77874800D02*
X138660136Y-77874800D01*
%TO.C,Q1*%
X134602400Y-93803200D02*
X134122400Y-93803199D01*
X134362400Y-93473200D01*
X134602400Y-93803200D01*
G36*
X134602400Y-93803200D02*
G01*
X134122400Y-93803199D01*
X134362400Y-93473200D01*
X134602400Y-93803200D01*
G37*
X133199900Y-93523201D02*
X133849900Y-93523200D01*
X133199900Y-93523201D02*
X132549900Y-93523200D01*
X133199900Y-90403199D02*
X133849900Y-90403200D01*
X133199900Y-90403199D02*
X132549900Y-90403200D01*
%TO.C,D5*%
X139912600Y-93299400D02*
X137052600Y-93299400D01*
X137052600Y-95219400D02*
X139912600Y-95219400D01*
X137052600Y-93299400D02*
X137052600Y-95219400D01*
%TO.C,R16*%
X139165064Y-95962800D02*
X138710936Y-95962800D01*
X139165064Y-97432800D02*
X138710936Y-97432800D01*
%TO.C,J13*%
X186341800Y-111563600D02*
X186341800Y-108488600D01*
X186341800Y-108488600D02*
X176471799Y-108488600D01*
X184921800Y-113078600D02*
X184921800Y-112578600D01*
X184921800Y-112578600D02*
X177891800Y-112578601D01*
X184901801Y-113078600D02*
X184921800Y-113078600D01*
X177891800Y-113078600D02*
X177911800Y-113078600D01*
X177891800Y-112578601D02*
X177891800Y-113078600D01*
X176471799Y-108488600D02*
X176471800Y-111563600D01*
%TO.C,D6*%
X137027200Y-73716000D02*
X137027200Y-75636000D01*
X137027200Y-75636000D02*
X139887200Y-75636000D01*
X139887200Y-73716000D02*
X137027200Y-73716000D01*
%TO.C,R6*%
X133627864Y-78619600D02*
X133173736Y-78619600D01*
X133627864Y-80089600D02*
X133173736Y-80089600D01*
%TO.C,J8*%
X190551000Y-92976400D02*
X190551000Y-102846401D01*
X190551000Y-102846401D02*
X193626000Y-102846400D01*
X193626000Y-92976400D02*
X190551000Y-92976400D01*
X194641000Y-94396400D02*
X194641001Y-101426400D01*
X194641001Y-101426400D02*
X195141000Y-101426400D01*
X195141000Y-94396400D02*
X194641000Y-94396400D01*
X195141000Y-94416399D02*
X195141000Y-94396400D01*
X195141000Y-101426400D02*
X195141000Y-101406400D01*
%TO.C,J6*%
X190551000Y-81013000D02*
X190551000Y-90883001D01*
X190551000Y-90883001D02*
X193626000Y-90883000D01*
X193626000Y-81013000D02*
X190551000Y-81013000D01*
X194641000Y-82433000D02*
X194641001Y-89463000D01*
X194641001Y-89463000D02*
X195141000Y-89463000D01*
X195141000Y-82433000D02*
X194641000Y-82433000D01*
X195141000Y-82452999D02*
X195141000Y-82433000D01*
X195141000Y-89463000D02*
X195141000Y-89443000D01*
%TO.C,R7*%
X166463014Y-76984534D02*
X166463014Y-76530406D01*
X167933014Y-76984534D02*
X167933014Y-76530406D01*
%TO.C,R10*%
X184989800Y-95684336D02*
X184989800Y-96138464D01*
X186459800Y-95684336D02*
X186459800Y-96138464D01*
%TO.C,R11*%
X173203936Y-70374399D02*
X173658064Y-70374399D01*
X173203936Y-71844399D02*
X173658064Y-71844399D01*
%TO.C,R13*%
X179671015Y-81632733D02*
X179671015Y-81178605D01*
X181141015Y-81632733D02*
X181141015Y-81178605D01*
%TO.C,C3*%
X166488414Y-72076615D02*
X166488414Y-72599121D01*
X167958414Y-72076615D02*
X167958414Y-72599121D01*
%TO.C,R4*%
X185030416Y-78283834D02*
X185030416Y-77829706D01*
X186500416Y-78283834D02*
X186500416Y-77829706D01*
%TO.C,R14*%
X170146015Y-78356133D02*
X170146015Y-77902005D01*
X171616015Y-78356133D02*
X171616015Y-77902005D01*
%TO.C,Q2*%
X133403100Y-70921399D02*
X132753100Y-70921400D01*
X133403100Y-70921399D02*
X134053100Y-70921400D01*
X133403100Y-74041401D02*
X132753100Y-74041400D01*
X133403100Y-74041401D02*
X134053100Y-74041400D01*
X134805600Y-74321400D02*
X134325600Y-74321399D01*
X134565600Y-73991400D01*
X134805600Y-74321400D01*
G36*
X134805600Y-74321400D02*
G01*
X134325600Y-74321399D01*
X134565600Y-73991400D01*
X134805600Y-74321400D01*
G37*
%TO.C,J9*%
X175328800Y-59378400D02*
X175328800Y-62453400D01*
X175328800Y-62453400D02*
X185198801Y-62453400D01*
X176748800Y-57863400D02*
X176748800Y-58363400D01*
X176748800Y-58363400D02*
X183778800Y-58363399D01*
X176768799Y-57863400D02*
X176748800Y-57863400D01*
X183778800Y-57863400D02*
X183758800Y-57863400D01*
X183778800Y-58363399D02*
X183778800Y-57863400D01*
X185198801Y-62453400D02*
X185198800Y-59378400D01*
%TO.C,J5*%
X164309399Y-108526600D02*
X164309400Y-111601600D01*
X165729400Y-112616601D02*
X165729400Y-113116600D01*
X165729400Y-113116600D02*
X165749400Y-113116600D01*
X172739401Y-113116600D02*
X172759400Y-113116600D01*
X172759400Y-112616600D02*
X165729400Y-112616601D01*
X172759400Y-113116600D02*
X172759400Y-112616600D01*
X174179400Y-108526600D02*
X164309399Y-108526600D01*
X174179400Y-111601600D02*
X174179400Y-108526600D01*
%TO.C,D4*%
X184739400Y-99813601D02*
X184739400Y-102673601D01*
X184739400Y-102673601D02*
X186659400Y-102673601D01*
X186659400Y-102673601D02*
X186659400Y-99813601D01*
%TO.C,U2*%
X177386214Y-73816471D02*
X175436214Y-73816470D01*
X177386214Y-73816471D02*
X179336214Y-73816470D01*
X177386214Y-78936469D02*
X175436214Y-78936470D01*
X177386214Y-78936469D02*
X179336214Y-78936470D01*
X180326213Y-79171470D02*
X179846214Y-79171470D01*
X180086214Y-78841470D01*
X180326213Y-79171470D01*
G36*
X180326213Y-79171470D02*
G01*
X179846214Y-79171470D01*
X180086214Y-78841470D01*
X180326213Y-79171470D01*
G37*
%TO.C,R5*%
X133452364Y-97705200D02*
X132998236Y-97705200D01*
X133452364Y-99175200D02*
X132998236Y-99175200D01*
%TO.C,R3*%
X133199136Y-75673200D02*
X133653264Y-75673200D01*
X133199136Y-77143200D02*
X133653264Y-77143200D01*
%TO.C,J7*%
X146018599Y-108759400D02*
X146018600Y-111834400D01*
X147438600Y-112849401D02*
X147438600Y-113349400D01*
X147438600Y-113349400D02*
X147458600Y-113349400D01*
X154448601Y-113349400D02*
X154468600Y-113349400D01*
X154468600Y-112849400D02*
X147438600Y-112849401D01*
X154468600Y-113349400D02*
X154468600Y-112849400D01*
X155888600Y-108759400D02*
X146018599Y-108759400D01*
X155888600Y-111834400D02*
X155888600Y-108759400D01*
%TO.C,R2*%
X132998236Y-94784200D02*
X133452364Y-94784200D01*
X132998236Y-96254200D02*
X133452364Y-96254200D01*
%TO.C,C2*%
X185055815Y-73121916D02*
X185055815Y-73644422D01*
X186525815Y-73121916D02*
X186525815Y-73644422D01*
%TO.C,R12*%
X177953936Y-70410400D02*
X178408064Y-70410400D01*
X177953936Y-71880400D02*
X178408064Y-71880400D01*
%TO.C,J2*%
X190517800Y-69381200D02*
X190517800Y-79251201D01*
X190517800Y-79251201D02*
X193592800Y-79251200D01*
X193592800Y-69381200D02*
X190517800Y-69381200D01*
X194607800Y-70801200D02*
X194607801Y-77831200D01*
X194607801Y-77831200D02*
X195107800Y-77831200D01*
X195107800Y-70801200D02*
X194607800Y-70801200D01*
X195107800Y-70821199D02*
X195107800Y-70801200D01*
X195107800Y-77831200D02*
X195107800Y-77811200D01*
%TO.C,J10*%
X162808000Y-59361600D02*
X162808000Y-62436600D01*
X162808000Y-62436600D02*
X172678001Y-62436600D01*
X164228000Y-57846600D02*
X164228000Y-58346600D01*
X164228000Y-58346600D02*
X171258000Y-58346599D01*
X164247999Y-57846600D02*
X164228000Y-57846600D01*
X171258000Y-57846600D02*
X171238000Y-57846600D01*
X171258000Y-58346599D02*
X171258000Y-57846600D01*
X172678001Y-62436600D02*
X172678000Y-59361600D01*
%TO.C,K1*%
X141560200Y-87653201D02*
X141560200Y-94253199D01*
X141560200Y-87653201D02*
X161360200Y-87653200D01*
X141560200Y-96653201D02*
X141560200Y-103253199D01*
X145610200Y-95503200D02*
X144810200Y-95503200D01*
X145610200Y-95503200D02*
X145610200Y-99103200D01*
X146510200Y-101503200D02*
X149010200Y-101503200D01*
X147010200Y-93703201D02*
X151010200Y-93703201D01*
X147010200Y-97303200D02*
X147010200Y-93703201D01*
X149010200Y-89503200D02*
X146510200Y-89503200D01*
X149010200Y-89503200D02*
X149010200Y-93703200D01*
X149010200Y-97303201D02*
X149010200Y-101503200D01*
X151010200Y-93703201D02*
X151010200Y-97303200D01*
X151010200Y-97303200D02*
X147010200Y-93703201D01*
X151010200Y-97303200D02*
X147010200Y-97303200D01*
X152410200Y-95503200D02*
X152410200Y-99103200D01*
X152410200Y-95503200D02*
X153910200Y-95503200D01*
X152410200Y-99103200D02*
X145610200Y-99103200D01*
X153910200Y-95503200D02*
X158510200Y-93003200D01*
X157110199Y-91253200D02*
X157110199Y-93753200D01*
X157110199Y-99653200D02*
X157110200Y-97203200D01*
X161360200Y-87653200D02*
X161360200Y-103253200D01*
X161360200Y-103253200D02*
X141560200Y-103253199D01*
%TO.C,K2*%
X141509400Y-68146001D02*
X141509400Y-74745999D01*
X141509400Y-68146001D02*
X161309400Y-68146000D01*
X141509400Y-77146001D02*
X141509400Y-83745999D01*
X145559400Y-75996000D02*
X144759400Y-75996000D01*
X145559400Y-75996000D02*
X145559400Y-79596000D01*
X146459400Y-81996000D02*
X148959400Y-81996000D01*
X146959400Y-74196001D02*
X150959400Y-74196001D01*
X146959400Y-77796000D02*
X146959400Y-74196001D01*
X148959400Y-69996000D02*
X146459400Y-69996000D01*
X148959400Y-69996000D02*
X148959400Y-74196000D01*
X148959400Y-77796001D02*
X148959400Y-81996000D01*
X150959400Y-74196001D02*
X150959400Y-77796000D01*
X150959400Y-77796000D02*
X146959400Y-74196001D01*
X150959400Y-77796000D02*
X146959400Y-77796000D01*
X152359400Y-75996000D02*
X152359400Y-79596000D01*
X152359400Y-75996000D02*
X153859400Y-75996000D01*
X152359400Y-79596000D02*
X145559400Y-79596000D01*
X153859400Y-75996000D02*
X158459400Y-73496000D01*
X157059399Y-71746000D02*
X157059399Y-74246000D01*
X157059399Y-80146000D02*
X157059400Y-77696000D01*
X161309400Y-68146000D02*
X161309400Y-83746000D01*
X161309400Y-83746000D02*
X141509400Y-83745999D01*
%TD*%
M02*
