%TF.GenerationSoftware,KiCad,Pcbnew,9.0.1*%
%TF.CreationDate,2026-10-03T23:24:53+08:00*%
%TF.ProjectId,IMD_AMS_latch,494d445f-414d-4535-9f6c-617463682e6b,rev?*%
%TF.SameCoordinates,Original*%
%TF.FileFunction,Soldermask,Bot*%
%TF.FilePolarity,Negative*%
%FSLAX46Y46*%
G04 Gerber Fmt 4.6, Leading zero omitted, Abs format (unit mm)*
G04 Created by KiCad (PCBNEW 9.0.1) date 2026-10-03 23:24:53*
%MOMM*%
%LPD*%
G01*
G04 APERTURE LIST*
G04 Aperture macros list*
%AMRoundRect*
0 Rectangle with rounded corners*
0 $1 Rounding radius*
0 $2 $3 $4 $5 $6 $7 $8 $9 X,Y pos of 4 corners*
0 Add a 4 corners polygon primitive as box body*
4,1,4,$2,$3,$4,$5,$6,$7,$8,$9,$2,$3,0*
0 Add four circle primitives for the rounded corners*
1,1,$1+$1,$2,$3*
1,1,$1+$1,$4,$5*
1,1,$1+$1,$6,$7*
1,1,$1+$1,$8,$9*
0 Add four rect primitives between the rounded corners*
20,1,$1+$1,$2,$3,$4,$5,0*
20,1,$1+$1,$4,$5,$6,$7,0*
20,1,$1+$1,$6,$7,$8,$9,0*
20,1,$1+$1,$8,$9,$2,$3,0*%
G04 Aperture macros list end*
%ADD10C,3.000000*%
%ADD11RoundRect,0.250001X-0.499999X-0.759999X0.499999X-0.759999X0.499999X0.759999X-0.499999X0.759999X0*%
%ADD12O,1.500000X2.020000*%
%ADD13C,4.300000*%
%ADD14RoundRect,0.250001X-0.499999X0.499999X-0.499999X-0.499999X0.499999X-0.499999X0.499999X0.499999X0*%
%ADD15C,1.500000*%
%ADD16C,2.500000*%
%ADD17R,1.600000X1.600000*%
%ADD18O,1.600000X1.600000*%
%ADD19RoundRect,0.250000X0.475000X-0.337500X0.475000X0.337500X-0.475000X0.337500X-0.475000X-0.337500X0*%
%ADD20RoundRect,0.250000X0.350000X0.450000X-0.350000X0.450000X-0.350000X-0.450000X0.350000X-0.450000X0*%
%ADD21RoundRect,0.250000X-0.350000X-0.450000X0.350000X-0.450000X0.350000X0.450000X-0.350000X0.450000X0*%
%ADD22RoundRect,0.250000X-0.450000X0.350000X-0.450000X-0.350000X0.450000X-0.350000X0.450000X0.350000X0*%
%ADD23RoundRect,0.250000X0.337500X0.475000X-0.337500X0.475000X-0.337500X-0.475000X0.337500X-0.475000X0*%
G04 APERTURE END LIST*
D10*
%TO.C,J6*%
X151470000Y-59390000D03*
D11*
X148470000Y-63710000D03*
D12*
X151470000Y-63710000D03*
X154470000Y-63710000D03*
%TD*%
D10*
%TO.C,J2*%
X165660000Y-59390000D03*
D11*
X162660000Y-63710000D03*
D12*
X165660000Y-63710000D03*
X168660000Y-63710000D03*
%TD*%
D10*
%TO.C,J7*%
X178270000Y-59400000D03*
D11*
X176770000Y-63720000D03*
D12*
X179770000Y-63720000D03*
%TD*%
D13*
%TO.C,H3*%
X134958080Y-60884206D03*
%TD*%
%TO.C,H1*%
X191523880Y-60731806D03*
%TD*%
%TO.C,H4*%
X191498480Y-110668206D03*
%TD*%
D10*
%TO.C,J1*%
X193400000Y-97560000D03*
D14*
X189080000Y-96060000D03*
D15*
X189080000Y-99060000D03*
X186080000Y-96060000D03*
X186080000Y-99060000D03*
%TD*%
D13*
%TO.C,H2*%
X134939888Y-110642806D03*
%TD*%
D10*
%TO.C,J3*%
X193290000Y-85658104D03*
D14*
X188970000Y-84158104D03*
D15*
X188970000Y-87158104D03*
X185970000Y-84158104D03*
X185970000Y-87158104D03*
%TD*%
D10*
%TO.C,J4*%
X193350000Y-74180000D03*
D14*
X189030000Y-72680000D03*
D15*
X189030000Y-75680000D03*
X186030000Y-72680000D03*
X186030000Y-75680000D03*
%TD*%
D10*
%TO.C,K1*%
X142960200Y-95453200D03*
D16*
X144910200Y-101503200D03*
D10*
X157110200Y-101503200D03*
X157160200Y-89453200D03*
D16*
X144910200Y-89503200D03*
%TD*%
D10*
%TO.C,K2*%
X142909400Y-75946000D03*
D16*
X144859400Y-81996000D03*
D10*
X157059400Y-81996000D03*
X157109400Y-69946000D03*
D16*
X144859400Y-69996000D03*
%TD*%
D17*
%TO.C,D1*%
X138201400Y-99542600D03*
D18*
X138201400Y-91922600D03*
%TD*%
D19*
%TO.C,C1*%
X173583600Y-82393700D03*
X173583600Y-80318700D03*
%TD*%
D20*
%TO.C,R9*%
X188960000Y-89940000D03*
X186960000Y-89940000D03*
%TD*%
D21*
%TO.C,R8*%
X191570000Y-89910000D03*
X193570000Y-89910000D03*
%TD*%
D22*
%TO.C,R15*%
X174218600Y-87595200D03*
X174218600Y-89595200D03*
%TD*%
D23*
%TO.C,C4*%
X179370900Y-100711000D03*
X177295900Y-100711000D03*
%TD*%
D17*
%TO.C,D2*%
X138887200Y-79883000D03*
D18*
X138887200Y-72263000D03*
%TD*%
M02*
