%TF.GenerationSoftware,KiCad,Pcbnew,9.0.1*%
%TF.CreationDate,2026-09-27T17:49:11+08:00*%
%TF.ProjectId,IMD_AMS_latch,494d445f-414d-4535-9f6c-617463682e6b,rev?*%
%TF.SameCoordinates,Original*%
%TF.FileFunction,Copper,L2,Bot*%
%TF.FilePolarity,Positive*%
%FSLAX46Y46*%
G04 Gerber Fmt 4.6, Leading zero omitted, Abs format (unit mm)*
G04 Created by KiCad (PCBNEW 9.0.1) date 2026-09-27 17:49:11*
%MOMM*%
%LPD*%
G01*
G04 APERTURE LIST*
G04 Aperture macros list*
%AMRoundRect*
0 Rectangle with rounded corners*
0 $1 Rounding radius*
0 $2 $3 $4 $5 $6 $7 $8 $9 X,Y pos of 4 corners*
0 Add a 4 corners polygon primitive as box body*
4,1,4,$2,$3,$4,$5,$6,$7,$8,$9,$2,$3,0*
0 Add four circle primitives for the rounded corners*
1,1,$1+$1,$2,$3*
1,1,$1+$1,$4,$5*
1,1,$1+$1,$6,$7*
1,1,$1+$1,$8,$9*
0 Add four rect primitives between the rounded corners*
20,1,$1+$1,$2,$3,$4,$5,0*
20,1,$1+$1,$4,$5,$6,$7,0*
20,1,$1+$1,$6,$7,$8,$9,0*
20,1,$1+$1,$8,$9,$2,$3,0*%
G04 Aperture macros list end*
%TA.AperFunction,ComponentPad*%
%ADD10RoundRect,0.250001X0.499999X0.759999X-0.499999X0.759999X-0.499999X-0.759999X0.499999X-0.759999X0*%
%TD*%
%TA.AperFunction,ComponentPad*%
%ADD11O,1.500000X2.020000*%
%TD*%
%TA.AperFunction,ComponentPad*%
%ADD12RoundRect,0.250001X-0.499999X-0.759999X0.499999X-0.759999X0.499999X0.759999X-0.499999X0.759999X0*%
%TD*%
%TA.AperFunction,ComponentPad*%
%ADD13RoundRect,0.250001X-0.759999X0.499999X-0.759999X-0.499999X0.759999X-0.499999X0.759999X0.499999X0*%
%TD*%
%TA.AperFunction,ComponentPad*%
%ADD14O,2.020000X1.500000*%
%TD*%
%TA.AperFunction,ComponentPad*%
%ADD15C,3.000000*%
%TD*%
%TA.AperFunction,ComponentPad*%
%ADD16C,2.500000*%
%TD*%
%TA.AperFunction,ComponentPad*%
%ADD17R,1.600000X1.600000*%
%TD*%
%TA.AperFunction,ComponentPad*%
%ADD18O,1.600000X1.600000*%
%TD*%
%TA.AperFunction,SMDPad,CuDef*%
%ADD19RoundRect,0.250000X0.475000X-0.337500X0.475000X0.337500X-0.475000X0.337500X-0.475000X-0.337500X0*%
%TD*%
%TA.AperFunction,SMDPad,CuDef*%
%ADD20RoundRect,0.250000X-0.350000X-0.450000X0.350000X-0.450000X0.350000X0.450000X-0.350000X0.450000X0*%
%TD*%
%TA.AperFunction,SMDPad,CuDef*%
%ADD21RoundRect,0.250000X-0.450000X0.350000X-0.450000X-0.350000X0.450000X-0.350000X0.450000X0.350000X0*%
%TD*%
%TA.AperFunction,SMDPad,CuDef*%
%ADD22RoundRect,0.250000X0.337500X0.475000X-0.337500X0.475000X-0.337500X-0.475000X0.337500X-0.475000X0*%
%TD*%
%TA.AperFunction,ViaPad*%
%ADD23C,0.600000*%
%TD*%
%TA.AperFunction,Conductor*%
%ADD24C,1.016000*%
%TD*%
%TA.AperFunction,Conductor*%
%ADD25C,2.032000*%
%TD*%
%TA.AperFunction,Conductor*%
%ADD26C,0.200000*%
%TD*%
%TA.AperFunction,Conductor*%
%ADD27C,0.381000*%
%TD*%
%TA.AperFunction,Conductor*%
%ADD28C,0.508000*%
%TD*%
%TA.AperFunction,Conductor*%
%ADD29C,0.304800*%
%TD*%
G04 APERTURE END LIST*
D10*
%TO.P,J13,1,Pin_1*%
%TO.N,Net-(D4-A)*%
X182880000Y-107315000D03*
D11*
%TO.P,J13,2,Pin_2*%
%TO.N,GND*%
X179880000Y-107315000D03*
%TD*%
D12*
%TO.P,J10,1,Pin_1*%
%TO.N,/IMD_reset_btn*%
X166241600Y-63477200D03*
D11*
%TO.P,J10,2,Pin_2*%
%TO.N,GND*%
X169241600Y-63477200D03*
%TD*%
D12*
%TO.P,J9,1,Pin_1*%
%TO.N,/AMS_reset_btn*%
X179068600Y-63528000D03*
D11*
%TO.P,J9,2,Pin_2*%
%TO.N,GND*%
X182068600Y-63528000D03*
%TD*%
D13*
%TO.P,J8,1,Pin_1*%
%TO.N,/IMD_MHS*%
X189204600Y-96545400D03*
D14*
%TO.P,J8,2,Pin_2*%
%TO.N,/IMD_OKHS*%
X189204600Y-99545400D03*
%TD*%
D10*
%TO.P,J7,1,Pin_1*%
%TO.N,/SDC_IN*%
X152477600Y-107211400D03*
D11*
%TO.P,J7,2,Pin_2*%
%TO.N,/SDC_OUT*%
X149477600Y-107211400D03*
%TD*%
D13*
%TO.P,J6,1,Pin_1*%
%TO.N,GND*%
X189253400Y-84656800D03*
D14*
%TO.P,J6,2,Pin_2*%
X189253400Y-87656800D03*
%TD*%
D10*
%TO.P,J5,1,Pin_1*%
%TO.N,/AMS_signal*%
X170078400Y-107340400D03*
D11*
%TO.P,J5,2,Pin_2*%
%TO.N,GND*%
X167078400Y-107340400D03*
%TD*%
D13*
%TO.P,J2,1,Pin_1*%
%TO.N,+12V*%
X189255400Y-71247000D03*
D14*
%TO.P,J2,2,Pin_2*%
X189255400Y-74247000D03*
%TD*%
D15*
%TO.P,K1,1*%
%TO.N,/SDC_IN*%
X142960200Y-95453200D03*
D16*
%TO.P,K1,2*%
%TO.N,+12V*%
X144910200Y-101503200D03*
D15*
%TO.P,K1,3*%
%TO.N,unconnected-(K1-Pad3)*%
X157110200Y-101503200D03*
%TO.P,K1,4*%
%TO.N,Net-(K1-Pad4)*%
X157160200Y-89453200D03*
D16*
%TO.P,K1,5*%
%TO.N,Net-(D1-A)*%
X144910200Y-89503200D03*
%TD*%
D15*
%TO.P,K2,1*%
%TO.N,Net-(K1-Pad4)*%
X142909400Y-75946000D03*
D16*
%TO.P,K2,2*%
%TO.N,+12V*%
X144859400Y-81996000D03*
D15*
%TO.P,K2,3*%
%TO.N,unconnected-(K2-Pad3)*%
X157059400Y-81996000D03*
%TO.P,K2,4*%
%TO.N,/SDC_OUT*%
X157109400Y-69946000D03*
D16*
%TO.P,K2,5*%
%TO.N,Net-(D2-A)*%
X144859400Y-69996000D03*
%TD*%
D17*
%TO.P,D1,1,K*%
%TO.N,+12V*%
X138201400Y-99542600D03*
D18*
%TO.P,D1,2,A*%
%TO.N,Net-(D1-A)*%
X138201400Y-91922600D03*
%TD*%
D19*
%TO.P,C1,1*%
%TO.N,GND*%
X173583600Y-82393700D03*
%TO.P,C1,2*%
%TO.N,+12V*%
X173583600Y-80318700D03*
%TD*%
D20*
%TO.P,R9,1*%
%TO.N,/IMD_MHS*%
X184523136Y-96581200D03*
%TO.P,R9,2*%
%TO.N,GND*%
X186523136Y-96581200D03*
%TD*%
%TO.P,R8,1*%
%TO.N,/IMD_OKHS*%
X184497736Y-99603800D03*
%TO.P,R8,2*%
%TO.N,GND*%
X186497736Y-99603800D03*
%TD*%
D21*
%TO.P,R15,1*%
%TO.N,+12V*%
X174218600Y-87595200D03*
%TO.P,R15,2*%
%TO.N,Net-(U1-EN)*%
X174218600Y-89595200D03*
%TD*%
D22*
%TO.P,C4,1*%
%TO.N,+12V*%
X179370900Y-100711000D03*
%TO.P,C4,2*%
%TO.N,GND*%
X177295900Y-100711000D03*
%TD*%
D17*
%TO.P,D2,1,K*%
%TO.N,+12V*%
X138887200Y-79883000D03*
D18*
%TO.P,D2,2,A*%
%TO.N,Net-(D2-A)*%
X138887200Y-72263000D03*
%TD*%
D23*
%TO.N,GND*%
X158826200Y-105587800D03*
X148590000Y-109855000D03*
X158165800Y-108254800D03*
X154711400Y-109702600D03*
X191998600Y-76123800D03*
X131368800Y-67157600D03*
X195605400Y-95300800D03*
X152831800Y-57785000D03*
X171348400Y-74117200D03*
X181432200Y-93903800D03*
X170459400Y-82854800D03*
X164820600Y-76250800D03*
X131064000Y-105537000D03*
X168630600Y-67868800D03*
X164744400Y-79908400D03*
X152019000Y-92405200D03*
X171551600Y-86791800D03*
X172542200Y-67995800D03*
X171958000Y-82397600D03*
X195072000Y-106349800D03*
X169926000Y-105181400D03*
X142036800Y-112014000D03*
X185801000Y-104343200D03*
X182600600Y-80264000D03*
X131749800Y-59512200D03*
X170561000Y-114020600D03*
X156972000Y-73710800D03*
X156591000Y-97129600D03*
X131140200Y-82905600D03*
X143814800Y-114503200D03*
X166979600Y-88011000D03*
X175615600Y-93802200D03*
X195554600Y-60756800D03*
X153720800Y-98526600D03*
X156667200Y-94081600D03*
X148945600Y-75692000D03*
X152298400Y-73660000D03*
X183159400Y-57099200D03*
X167005000Y-98602800D03*
X134848600Y-57607200D03*
X137388600Y-114376200D03*
X194995800Y-75869800D03*
X152933400Y-76631800D03*
X143078200Y-57785000D03*
X183032400Y-87782400D03*
X166649400Y-85140800D03*
X165176200Y-82575400D03*
X195783200Y-79908400D03*
X148310600Y-92405200D03*
X177622200Y-84861400D03*
X152806400Y-69926200D03*
X167030400Y-91109800D03*
X147497800Y-73533000D03*
X138836400Y-57785000D03*
X195707000Y-83870800D03*
X195453000Y-99847400D03*
X151968200Y-95351600D03*
X172897800Y-84937600D03*
X131445000Y-64008000D03*
X148336000Y-57785000D03*
X186461400Y-114173000D03*
X183235600Y-78892400D03*
X186029600Y-88442800D03*
X132334000Y-113665000D03*
X135636000Y-87426800D03*
X140716000Y-108254800D03*
X154330400Y-78765400D03*
X149225000Y-77393800D03*
X182118000Y-95961200D03*
X190652400Y-98171000D03*
X195757800Y-64592200D03*
X193116200Y-57099200D03*
X192379600Y-113944400D03*
X130767080Y-111074606D03*
X176352200Y-72974200D03*
X186385200Y-68046600D03*
X156692600Y-76530200D03*
X188239400Y-57150000D03*
X176784000Y-57099200D03*
X189306200Y-68503800D03*
X177063400Y-67995800D03*
X195681600Y-91465400D03*
X165608000Y-114046000D03*
X177292000Y-99212400D03*
X160223200Y-114096800D03*
X179425600Y-72974200D03*
X180898800Y-68630800D03*
X187477400Y-75793600D03*
X170586400Y-84937600D03*
X165658800Y-106705400D03*
X184048400Y-80289400D03*
X195656200Y-87426800D03*
X178333400Y-93751400D03*
X182778400Y-84785200D03*
X164795200Y-97510600D03*
X165455600Y-101193600D03*
X130987800Y-101600000D03*
X194995800Y-111175800D03*
X170637200Y-57150000D03*
X149377400Y-69824600D03*
X131191000Y-86182200D03*
X175514000Y-114020600D03*
X185978800Y-84836000D03*
X194970400Y-69342000D03*
X170662600Y-101244400D03*
X181254400Y-114020600D03*
X174904400Y-101295200D03*
X164084000Y-57175400D03*
X157505400Y-57734200D03*
X183616600Y-75285600D03*
%TO.N,+12V*%
X170881015Y-79129069D03*
X172431000Y-71109399D03*
X174386214Y-78281470D03*
X179370900Y-99161600D03*
X167198014Y-77757470D03*
X178358800Y-82397600D03*
X180406015Y-82405669D03*
%TO.N,/IMD_OKHS*%
X181254400Y-98069400D03*
%TO.N,Net-(U1-EN)*%
X174244000Y-90830400D03*
%TD*%
D24*
%TO.N,+12V*%
X136626600Y-77622400D02*
X138887200Y-79883000D01*
X136626600Y-68199000D02*
X136626600Y-77622400D01*
X192527800Y-67593600D02*
X192519300Y-67602100D01*
X192519300Y-67602100D02*
X191185800Y-66268600D01*
X192527800Y-69955800D02*
X192527800Y-67593600D01*
X138557000Y-66268600D02*
X136626600Y-68199000D01*
X191135000Y-71348600D02*
X192527800Y-69955800D01*
X191185800Y-66268600D02*
X138557000Y-66268600D01*
X189581600Y-71348600D02*
X191135000Y-71348600D01*
X189557600Y-71372600D02*
X189581600Y-71348600D01*
D25*
X189306200Y-71624000D02*
X189306200Y-74196200D01*
X189557600Y-71372600D02*
X189306200Y-71624000D01*
X189306200Y-74196200D02*
X189255400Y-74247000D01*
D24*
%TO.N,GND*%
X186523136Y-99578400D02*
X186497736Y-99603800D01*
X186523136Y-96581200D02*
X186523136Y-99578400D01*
%TO.N,/SDC_OUT*%
X147955000Y-114452400D02*
X146646900Y-113144300D01*
X156159200Y-114452400D02*
X147955000Y-114452400D01*
X162052000Y-74888600D02*
X162052000Y-108559600D01*
X162052000Y-108559600D02*
X156159200Y-114452400D01*
X157109400Y-69946000D02*
X162052000Y-74888600D01*
X148084000Y-107211400D02*
X149503000Y-107211400D01*
X146431000Y-108864400D02*
X148084000Y-107211400D01*
X146431000Y-112928400D02*
X146431000Y-108864400D01*
X146646900Y-113144300D02*
X146431000Y-112928400D01*
X146646900Y-113144300D02*
X146558000Y-113055400D01*
D26*
X149069200Y-107645200D02*
X149503000Y-107211400D01*
D24*
%TO.N,/SDC_IN*%
X146024600Y-95453200D02*
X142960200Y-95453200D01*
X152453600Y-101882200D02*
X146024600Y-95453200D01*
X152453600Y-107162000D02*
X152453600Y-101882200D01*
X152503000Y-107211400D02*
X152453600Y-107162000D01*
D26*
%TO.N,/IMD_OKHS*%
X189204600Y-100609400D02*
X189204600Y-99545400D01*
X185115200Y-101219000D02*
X188595000Y-101219000D01*
X184497736Y-100601536D02*
X185115200Y-101219000D01*
X184497736Y-99603800D02*
X184497736Y-100601536D01*
X188595000Y-101219000D02*
X189204600Y-100609400D01*
%TO.N,/IMD_MHS*%
X188518800Y-94767400D02*
X189204600Y-95453200D01*
X185140600Y-94767400D02*
X188518800Y-94767400D01*
X184523136Y-95384864D02*
X185140600Y-94767400D01*
X189204600Y-95453200D02*
X189204600Y-96545400D01*
X184523136Y-96581200D02*
X184523136Y-95384864D01*
D27*
%TO.N,GND*%
X171961900Y-82393700D02*
X171958000Y-82397600D01*
X177292000Y-99212400D02*
X177292000Y-99314000D01*
X177292000Y-99314000D02*
X177295900Y-99317900D01*
D28*
X173583600Y-82393700D02*
X171961900Y-82393700D01*
X177295900Y-99317900D02*
X177295900Y-100711000D01*
D24*
%TO.N,+12V*%
X144859400Y-84528000D02*
X140309600Y-89077800D01*
D28*
X172070646Y-80318700D02*
X170881015Y-79129069D01*
X167198014Y-77757470D02*
X167198014Y-75524386D01*
X172669200Y-94767400D02*
X173659800Y-95758000D01*
X178358800Y-82397600D02*
X177495200Y-82397600D01*
D24*
X143645000Y-102768400D02*
X139090400Y-102768400D01*
D28*
X173415200Y-87595200D02*
X172669200Y-88341200D01*
X180314600Y-86182200D02*
X180314600Y-82497084D01*
X172669200Y-88341200D02*
X172669200Y-94767400D01*
X167198014Y-75524386D02*
X171613001Y-71109399D01*
D24*
X138201400Y-101828600D02*
X138201400Y-99542600D01*
X144910200Y-101503200D02*
X143645000Y-102768400D01*
X139090400Y-102768400D02*
X139090400Y-102717600D01*
D28*
X174218600Y-87595200D02*
X173415200Y-87595200D01*
X174218600Y-87595200D02*
X178901600Y-87595200D01*
X171613001Y-71109399D02*
X172431000Y-71109399D01*
D24*
X144859400Y-81996000D02*
X144859400Y-84528000D01*
D28*
X177495200Y-82397600D02*
X175416300Y-80318700D01*
D24*
X139852400Y-99542600D02*
X140309600Y-99085400D01*
D28*
X179370900Y-99161600D02*
X179370900Y-100711000D01*
X178901600Y-87595200D02*
X180314600Y-86182200D01*
D24*
X141000200Y-81996000D02*
X138887200Y-79883000D01*
X139090400Y-102717600D02*
X138201400Y-101828600D01*
D28*
X173583600Y-80318700D02*
X173583600Y-79084084D01*
D24*
X138201400Y-99542600D02*
X139852400Y-99542600D01*
X144859400Y-81996000D02*
X141000200Y-81996000D01*
X140309600Y-99085400D02*
X140309600Y-98882200D01*
D28*
X170881015Y-79129069D02*
X168569613Y-79129069D01*
X168569613Y-79129069D02*
X167198014Y-77757470D01*
D24*
X140309600Y-97459800D02*
X140309600Y-98983800D01*
D28*
X173583600Y-79084084D02*
X174386214Y-78281470D01*
X179370900Y-96871700D02*
X179370900Y-99161600D01*
X175416300Y-80318700D02*
X172070646Y-80318700D01*
X178257200Y-95758000D02*
X179370900Y-96871700D01*
D24*
X140309600Y-89077800D02*
X140309600Y-97459800D01*
D28*
X173659800Y-95758000D02*
X178257200Y-95758000D01*
X180314600Y-82497084D02*
X180406015Y-82405669D01*
D29*
%TO.N,/IMD_OKHS*%
X184461936Y-99568000D02*
X184497736Y-99603800D01*
X181254400Y-98069400D02*
X182753000Y-99568000D01*
X182753000Y-99568000D02*
X184461936Y-99568000D01*
D24*
%TO.N,Net-(K1-Pad4)*%
X142909400Y-75946000D02*
X144627600Y-75946000D01*
X157160200Y-88478600D02*
X157160200Y-89453200D01*
X144627600Y-75946000D02*
X157160200Y-88478600D01*
D27*
%TO.N,Net-(U1-EN)*%
X174218600Y-89595200D02*
X174218600Y-90805000D01*
X174218600Y-90805000D02*
X174244000Y-90830400D01*
%TD*%
%TA.AperFunction,Conductor*%
%TO.N,GND*%
G36*
X196190939Y-56240992D02*
G01*
X196236694Y-56293796D01*
X196247900Y-56345307D01*
X196247900Y-114970900D01*
X196228215Y-115037939D01*
X196175411Y-115083694D01*
X196123900Y-115094900D01*
X157242296Y-115094900D01*
X157175257Y-115075215D01*
X157129502Y-115022411D01*
X157119558Y-114953253D01*
X157148583Y-114889697D01*
X157154615Y-114883219D01*
X160492177Y-111545658D01*
X166827900Y-111545658D01*
X166827900Y-111775141D01*
X166852846Y-111964615D01*
X166857852Y-112002638D01*
X166866281Y-112034095D01*
X166917242Y-112224287D01*
X167005050Y-112436276D01*
X167005057Y-112436290D01*
X167119792Y-112635017D01*
X167259481Y-112817061D01*
X167259489Y-112817070D01*
X167421730Y-112979311D01*
X167421738Y-112979318D01*
X167603782Y-113119007D01*
X167603785Y-113119008D01*
X167603788Y-113119011D01*
X167802512Y-113233744D01*
X167802517Y-113233746D01*
X167802523Y-113233749D01*
X167846460Y-113251948D01*
X168014513Y-113321558D01*
X168236162Y-113380948D01*
X168463666Y-113410900D01*
X168463673Y-113410900D01*
X168693127Y-113410900D01*
X168693134Y-113410900D01*
X168920638Y-113380948D01*
X169142287Y-113321558D01*
X169354288Y-113233744D01*
X169553012Y-113119011D01*
X169735061Y-112979319D01*
X169735065Y-112979314D01*
X169735070Y-112979311D01*
X169897311Y-112817070D01*
X169897314Y-112817065D01*
X169897319Y-112817061D01*
X170037011Y-112635012D01*
X170151744Y-112436288D01*
X170239558Y-112224287D01*
X170298948Y-112002638D01*
X170328900Y-111775134D01*
X170328900Y-111545666D01*
X170328898Y-111545650D01*
X170327153Y-111532390D01*
X170325556Y-111520258D01*
X179629500Y-111520258D01*
X179629500Y-111749741D01*
X179645813Y-111873640D01*
X179659452Y-111977238D01*
X179691083Y-112095287D01*
X179718842Y-112198887D01*
X179806650Y-112410876D01*
X179806657Y-112410890D01*
X179921392Y-112609617D01*
X180061081Y-112791661D01*
X180061089Y-112791670D01*
X180223330Y-112953911D01*
X180223338Y-112953918D01*
X180223339Y-112953919D01*
X180270375Y-112990011D01*
X180405382Y-113093607D01*
X180405385Y-113093608D01*
X180405388Y-113093611D01*
X180604112Y-113208344D01*
X180604117Y-113208346D01*
X180604123Y-113208349D01*
X180665445Y-113233749D01*
X180816113Y-113296158D01*
X181037762Y-113355548D01*
X181265266Y-113385500D01*
X181265273Y-113385500D01*
X181494727Y-113385500D01*
X181494734Y-113385500D01*
X181722238Y-113355548D01*
X181943887Y-113296158D01*
X182155888Y-113208344D01*
X182354612Y-113093611D01*
X182536661Y-112953919D01*
X182536665Y-112953914D01*
X182536670Y-112953911D01*
X182698911Y-112791670D01*
X182698914Y-112791665D01*
X182698919Y-112791661D01*
X182838611Y-112609612D01*
X182953344Y-112410888D01*
X183041158Y-112198887D01*
X183100548Y-111977238D01*
X183130500Y-111749734D01*
X183130500Y-111520266D01*
X183100548Y-111292762D01*
X183041158Y-111071113D01*
X182953344Y-110859112D01*
X182838611Y-110660388D01*
X182838608Y-110660385D01*
X182838607Y-110660382D01*
X182796421Y-110605405D01*
X182741163Y-110533392D01*
X189097980Y-110533392D01*
X189097980Y-110803019D01*
X189128166Y-111070925D01*
X189128168Y-111070937D01*
X189188164Y-111333800D01*
X189188167Y-111333808D01*
X189277214Y-111588288D01*
X189394194Y-111831200D01*
X189394196Y-111831203D01*
X189537642Y-112059495D01*
X189705746Y-112270291D01*
X189896395Y-112460940D01*
X190107191Y-112629044D01*
X190335483Y-112772490D01*
X190578401Y-112889473D01*
X190760288Y-112953118D01*
X190832877Y-112978518D01*
X190832885Y-112978521D01*
X190832888Y-112978521D01*
X190832889Y-112978522D01*
X191095748Y-113038518D01*
X191363667Y-113068705D01*
X191363668Y-113068706D01*
X191363671Y-113068706D01*
X191633292Y-113068706D01*
X191633292Y-113068705D01*
X191901212Y-113038518D01*
X192164071Y-112978522D01*
X192418559Y-112889473D01*
X192661477Y-112772490D01*
X192889769Y-112629044D01*
X193100565Y-112460940D01*
X193291214Y-112270291D01*
X193459318Y-112059495D01*
X193602764Y-111831203D01*
X193719747Y-111588285D01*
X193808796Y-111333797D01*
X193868792Y-111070938D01*
X193898980Y-110803015D01*
X193898980Y-110533397D01*
X193868792Y-110265474D01*
X193808796Y-110002615D01*
X193719747Y-109748127D01*
X193602764Y-109505209D01*
X193459318Y-109276917D01*
X193291214Y-109066121D01*
X193100565Y-108875472D01*
X193069751Y-108850899D01*
X193047029Y-108832779D01*
X192889769Y-108707368D01*
X192661477Y-108563922D01*
X192661474Y-108563920D01*
X192418562Y-108446940D01*
X192164082Y-108357893D01*
X192164074Y-108357890D01*
X191966926Y-108312893D01*
X191901212Y-108297894D01*
X191901208Y-108297893D01*
X191901199Y-108297892D01*
X191633293Y-108267706D01*
X191633289Y-108267706D01*
X191363671Y-108267706D01*
X191363666Y-108267706D01*
X191095760Y-108297892D01*
X191095748Y-108297894D01*
X190832885Y-108357890D01*
X190832877Y-108357893D01*
X190578397Y-108446940D01*
X190335485Y-108563920D01*
X190107192Y-108707367D01*
X189896395Y-108875471D01*
X189705745Y-109066121D01*
X189537641Y-109276918D01*
X189394194Y-109505211D01*
X189277214Y-109748123D01*
X189188167Y-110002603D01*
X189188164Y-110002611D01*
X189128168Y-110265474D01*
X189128166Y-110265486D01*
X189097980Y-110533392D01*
X182741163Y-110533392D01*
X182698919Y-110478339D01*
X182698918Y-110478338D01*
X182698911Y-110478330D01*
X182536670Y-110316089D01*
X182536661Y-110316081D01*
X182354617Y-110176392D01*
X182155890Y-110061657D01*
X182155876Y-110061650D01*
X181943887Y-109973842D01*
X181722238Y-109914452D01*
X181684215Y-109909446D01*
X181494741Y-109884500D01*
X181494734Y-109884500D01*
X181265266Y-109884500D01*
X181265258Y-109884500D01*
X181048715Y-109913009D01*
X181037762Y-109914452D01*
X180944076Y-109939554D01*
X180816112Y-109973842D01*
X180604123Y-110061650D01*
X180604109Y-110061657D01*
X180405382Y-110176392D01*
X180223338Y-110316081D01*
X180061081Y-110478338D01*
X179921392Y-110660382D01*
X179806657Y-110859109D01*
X179806650Y-110859123D01*
X179718842Y-111071112D01*
X179659453Y-111292759D01*
X179659451Y-111292770D01*
X179629500Y-111520258D01*
X170325556Y-111520258D01*
X170311917Y-111416672D01*
X170298948Y-111318162D01*
X170239558Y-111096513D01*
X170151744Y-110884512D01*
X170037011Y-110685788D01*
X170037008Y-110685785D01*
X170037007Y-110685782D01*
X169936164Y-110554362D01*
X169897319Y-110503739D01*
X169897318Y-110503738D01*
X169897311Y-110503730D01*
X169735070Y-110341489D01*
X169735061Y-110341481D01*
X169553017Y-110201792D01*
X169354290Y-110087057D01*
X169354276Y-110087050D01*
X169142287Y-109999242D01*
X169060035Y-109977203D01*
X168920638Y-109939852D01*
X168882615Y-109934846D01*
X168693141Y-109909900D01*
X168693134Y-109909900D01*
X168463666Y-109909900D01*
X168463658Y-109909900D01*
X168247115Y-109938409D01*
X168236162Y-109939852D01*
X168168223Y-109958056D01*
X168014512Y-109999242D01*
X167802523Y-110087050D01*
X167802509Y-110087057D01*
X167603782Y-110201792D01*
X167421738Y-110341481D01*
X167259481Y-110503738D01*
X167119792Y-110685782D01*
X167005057Y-110884509D01*
X167005050Y-110884523D01*
X166927763Y-111071112D01*
X166917242Y-111096513D01*
X166860469Y-111308397D01*
X166857853Y-111318159D01*
X166857851Y-111318170D01*
X166827900Y-111545658D01*
X160492177Y-111545658D01*
X160583909Y-111453926D01*
X162835351Y-109202484D01*
X162835351Y-109202483D01*
X162835354Y-109202481D01*
X162945722Y-109037303D01*
X163021744Y-108853768D01*
X163022315Y-108850900D01*
X163060500Y-108658929D01*
X163060500Y-106982017D01*
X165828400Y-106982017D01*
X165828400Y-107090400D01*
X166633840Y-107090400D01*
X166603155Y-107143547D01*
X166568400Y-107273257D01*
X166568400Y-107407543D01*
X166603155Y-107537253D01*
X166633840Y-107590400D01*
X165828400Y-107590400D01*
X165828400Y-107698782D01*
X165859178Y-107893105D01*
X165919981Y-108080235D01*
X166009304Y-108255543D01*
X166124955Y-108414721D01*
X166264078Y-108553844D01*
X166423256Y-108669495D01*
X166598562Y-108758818D01*
X166785683Y-108819618D01*
X166828400Y-108826384D01*
X166828400Y-107784960D01*
X166881547Y-107815645D01*
X167011257Y-107850400D01*
X167145543Y-107850400D01*
X167275253Y-107815645D01*
X167328400Y-107784960D01*
X167328400Y-108826383D01*
X167371116Y-108819618D01*
X167558237Y-108758818D01*
X167733543Y-108669495D01*
X167892721Y-108553844D01*
X168031844Y-108414721D01*
X168147495Y-108255543D01*
X168236818Y-108080235D01*
X168297621Y-107893105D01*
X168328400Y-107698782D01*
X168328400Y-107590400D01*
X167522960Y-107590400D01*
X167553645Y-107537253D01*
X167588400Y-107407543D01*
X167588400Y-107273257D01*
X167553645Y-107143547D01*
X167522960Y-107090400D01*
X168328400Y-107090400D01*
X168328400Y-106982017D01*
X168297621Y-106787694D01*
X168236818Y-106600562D01*
X168228140Y-106583531D01*
X168228139Y-106583529D01*
X168201061Y-106530384D01*
X168827900Y-106530384D01*
X168827900Y-108150415D01*
X168838400Y-108253195D01*
X168838401Y-108253197D01*
X168863730Y-108329634D01*
X168893586Y-108419735D01*
X168893587Y-108419737D01*
X168985686Y-108569051D01*
X168985689Y-108569055D01*
X169109744Y-108693110D01*
X169109748Y-108693113D01*
X169259062Y-108785212D01*
X169259064Y-108785213D01*
X169259066Y-108785214D01*
X169425603Y-108840399D01*
X169528392Y-108850900D01*
X169528397Y-108850900D01*
X170628403Y-108850900D01*
X170628408Y-108850900D01*
X170731197Y-108840399D01*
X170897734Y-108785214D01*
X171047055Y-108693111D01*
X171171111Y-108569055D01*
X171263214Y-108419734D01*
X171318399Y-108253197D01*
X171328900Y-108150408D01*
X171328900Y-106956617D01*
X178630000Y-106956617D01*
X178630000Y-107065000D01*
X179435440Y-107065000D01*
X179404755Y-107118147D01*
X179370000Y-107247857D01*
X179370000Y-107382143D01*
X179404755Y-107511853D01*
X179435440Y-107565000D01*
X178630000Y-107565000D01*
X178630000Y-107673382D01*
X178660778Y-107867705D01*
X178721581Y-108054835D01*
X178810904Y-108230143D01*
X178926555Y-108389321D01*
X179065678Y-108528444D01*
X179224856Y-108644095D01*
X179400162Y-108733418D01*
X179587283Y-108794218D01*
X179630000Y-108800984D01*
X179630000Y-107759560D01*
X179683147Y-107790245D01*
X179812857Y-107825000D01*
X179947143Y-107825000D01*
X180076853Y-107790245D01*
X180130000Y-107759560D01*
X180130000Y-108800983D01*
X180172716Y-108794218D01*
X180359837Y-108733418D01*
X180535143Y-108644095D01*
X180694321Y-108528444D01*
X180833444Y-108389321D01*
X180949095Y-108230143D01*
X181038418Y-108054835D01*
X181099221Y-107867705D01*
X181130000Y-107673382D01*
X181130000Y-107565000D01*
X180324560Y-107565000D01*
X180355245Y-107511853D01*
X180390000Y-107382143D01*
X180390000Y-107247857D01*
X180355245Y-107118147D01*
X180324560Y-107065000D01*
X181130000Y-107065000D01*
X181130000Y-106956617D01*
X181099221Y-106762294D01*
X181038418Y-106575162D01*
X181029740Y-106558131D01*
X181029739Y-106558129D01*
X181002661Y-106504984D01*
X181629500Y-106504984D01*
X181629500Y-108125015D01*
X181640000Y-108227795D01*
X181640001Y-108227797D01*
X181654812Y-108272494D01*
X181695186Y-108394335D01*
X181695187Y-108394337D01*
X181787286Y-108543651D01*
X181787289Y-108543655D01*
X181911344Y-108667710D01*
X181911348Y-108667713D01*
X182060662Y-108759812D01*
X182060664Y-108759813D01*
X182060666Y-108759814D01*
X182227203Y-108814999D01*
X182329992Y-108825500D01*
X182329997Y-108825500D01*
X183430003Y-108825500D01*
X183430008Y-108825500D01*
X183532797Y-108814999D01*
X183699334Y-108759814D01*
X183848655Y-108667711D01*
X183972711Y-108543655D01*
X184064814Y-108394334D01*
X184119999Y-108227797D01*
X184130500Y-108125008D01*
X184130500Y-106504992D01*
X184119999Y-106402203D01*
X184064814Y-106235666D01*
X184000912Y-106132066D01*
X183972713Y-106086348D01*
X183972710Y-106086344D01*
X183848655Y-105962289D01*
X183848651Y-105962286D01*
X183699337Y-105870187D01*
X183699335Y-105870186D01*
X183609446Y-105840400D01*
X183532797Y-105815001D01*
X183532795Y-105815000D01*
X183430015Y-105804500D01*
X183430008Y-105804500D01*
X182329992Y-105804500D01*
X182329984Y-105804500D01*
X182227204Y-105815000D01*
X182227203Y-105815001D01*
X182060664Y-105870186D01*
X182060662Y-105870187D01*
X181911348Y-105962286D01*
X181911344Y-105962289D01*
X181787289Y-106086344D01*
X181787286Y-106086348D01*
X181695187Y-106235662D01*
X181695186Y-106235664D01*
X181640001Y-106402203D01*
X181640000Y-106402204D01*
X181629500Y-106504984D01*
X181002661Y-106504984D01*
X180949097Y-106399858D01*
X180833444Y-106240678D01*
X180694321Y-106101555D01*
X180535143Y-105985904D01*
X180359835Y-105896581D01*
X180172705Y-105835778D01*
X180130000Y-105829014D01*
X180130000Y-106870439D01*
X180076853Y-106839755D01*
X179947143Y-106805000D01*
X179812857Y-106805000D01*
X179683147Y-106839755D01*
X179630000Y-106870439D01*
X179630000Y-105829014D01*
X179629999Y-105829014D01*
X179587294Y-105835778D01*
X179400164Y-105896581D01*
X179224856Y-105985904D01*
X179065678Y-106101555D01*
X178926555Y-106240678D01*
X178810904Y-106399856D01*
X178721581Y-106575164D01*
X178660778Y-106762294D01*
X178630000Y-106956617D01*
X171328900Y-106956617D01*
X171328900Y-106530392D01*
X171318399Y-106427603D01*
X171263214Y-106261066D01*
X171251240Y-106241654D01*
X171171113Y-106111748D01*
X171171110Y-106111744D01*
X171047055Y-105987689D01*
X171047051Y-105987686D01*
X170897737Y-105895587D01*
X170897735Y-105895586D01*
X170814465Y-105867993D01*
X170731197Y-105840401D01*
X170731195Y-105840400D01*
X170628415Y-105829900D01*
X170628408Y-105829900D01*
X169528392Y-105829900D01*
X169528384Y-105829900D01*
X169425604Y-105840400D01*
X169425603Y-105840401D01*
X169259064Y-105895586D01*
X169259062Y-105895587D01*
X169109748Y-105987686D01*
X169109744Y-105987689D01*
X168985689Y-106111744D01*
X168985686Y-106111748D01*
X168893587Y-106261062D01*
X168893586Y-106261064D01*
X168838401Y-106427603D01*
X168838400Y-106427604D01*
X168827900Y-106530384D01*
X168201061Y-106530384D01*
X168147497Y-106425258D01*
X168031844Y-106266078D01*
X167892721Y-106126955D01*
X167733543Y-106011304D01*
X167558235Y-105921981D01*
X167371105Y-105861178D01*
X167328400Y-105854414D01*
X167328400Y-106895839D01*
X167275253Y-106865155D01*
X167145543Y-106830400D01*
X167011257Y-106830400D01*
X166881547Y-106865155D01*
X166828400Y-106895839D01*
X166828400Y-105854414D01*
X166828399Y-105854414D01*
X166785694Y-105861178D01*
X166598564Y-105921981D01*
X166423256Y-106011304D01*
X166264078Y-106126955D01*
X166124955Y-106266078D01*
X166009304Y-106425256D01*
X165919981Y-106600564D01*
X165859178Y-106787694D01*
X165828400Y-106982017D01*
X163060500Y-106982017D01*
X163060500Y-101235986D01*
X176208401Y-101235986D01*
X176218894Y-101338697D01*
X176274041Y-101505119D01*
X176274043Y-101505124D01*
X176366084Y-101654345D01*
X176490054Y-101778315D01*
X176639275Y-101870356D01*
X176639280Y-101870358D01*
X176805702Y-101925505D01*
X176805709Y-101925506D01*
X176908419Y-101935999D01*
X177045899Y-101935999D01*
X177045900Y-101935998D01*
X177045900Y-100961000D01*
X176208401Y-100961000D01*
X176208401Y-101235986D01*
X163060500Y-101235986D01*
X163060500Y-100186013D01*
X176208400Y-100186013D01*
X176208400Y-100461000D01*
X177045900Y-100461000D01*
X177045900Y-99486000D01*
X176908427Y-99486000D01*
X176908412Y-99486001D01*
X176805702Y-99496494D01*
X176639280Y-99551641D01*
X176639275Y-99551643D01*
X176490054Y-99643684D01*
X176366084Y-99767654D01*
X176274043Y-99916875D01*
X176274041Y-99916880D01*
X176218894Y-100083302D01*
X176218893Y-100083309D01*
X176208400Y-100186013D01*
X163060500Y-100186013D01*
X163060500Y-88266885D01*
X171914699Y-88266885D01*
X171914699Y-88266887D01*
X171914699Y-88266888D01*
X171914699Y-88415512D01*
X171914699Y-88415516D01*
X171914700Y-88421636D01*
X171914700Y-94687952D01*
X171914699Y-94687978D01*
X171914699Y-94693088D01*
X171914699Y-94841712D01*
X171927158Y-94904344D01*
X171943695Y-94987480D01*
X171950331Y-95003500D01*
X171953912Y-95012146D01*
X171953913Y-95012149D01*
X172000566Y-95124781D01*
X172000572Y-95124792D01*
X172083142Y-95248368D01*
X173178831Y-96344057D01*
X173178834Y-96344059D01*
X173302411Y-96426630D01*
X173382845Y-96459946D01*
X173439720Y-96483505D01*
X173463905Y-96488315D01*
X173512687Y-96498019D01*
X173585486Y-96512501D01*
X173585488Y-96512501D01*
X173740226Y-96512501D01*
X173740246Y-96512500D01*
X177893313Y-96512500D01*
X177960352Y-96532185D01*
X177980994Y-96548819D01*
X178580081Y-97147905D01*
X178613566Y-97209228D01*
X178616400Y-97235586D01*
X178616400Y-98866653D01*
X178606962Y-98914101D01*
X178606549Y-98915100D01*
X178601162Y-98928106D01*
X178601160Y-98928111D01*
X178570400Y-99082753D01*
X178570400Y-99240446D01*
X178601161Y-99395089D01*
X178601163Y-99395097D01*
X178606961Y-99409094D01*
X178608587Y-99417271D01*
X178611377Y-99421612D01*
X178616400Y-99456547D01*
X178616400Y-99542410D01*
X178596715Y-99609449D01*
X178569316Y-99639672D01*
X178564745Y-99643286D01*
X178440688Y-99767343D01*
X178440683Y-99767349D01*
X178438641Y-99770661D01*
X178436647Y-99772453D01*
X178436207Y-99773011D01*
X178436111Y-99772935D01*
X178386691Y-99817383D01*
X178317728Y-99828602D01*
X178253647Y-99800755D01*
X178227568Y-99770656D01*
X178225719Y-99767659D01*
X178225716Y-99767655D01*
X178101745Y-99643684D01*
X177952524Y-99551643D01*
X177952519Y-99551641D01*
X177786097Y-99496494D01*
X177786090Y-99496493D01*
X177683386Y-99486000D01*
X177545900Y-99486000D01*
X177545900Y-101935999D01*
X177683372Y-101935999D01*
X177683386Y-101935998D01*
X177786097Y-101925505D01*
X177952519Y-101870358D01*
X177952524Y-101870356D01*
X178101745Y-101778315D01*
X178225718Y-101654342D01*
X178227565Y-101651348D01*
X178229369Y-101649724D01*
X178230198Y-101648677D01*
X178230376Y-101648818D01*
X178279510Y-101604621D01*
X178348473Y-101593396D01*
X178412556Y-101621236D01*
X178438643Y-101651341D01*
X178440688Y-101654656D01*
X178564744Y-101778712D01*
X178714066Y-101870814D01*
X178880603Y-101925999D01*
X178983391Y-101936500D01*
X179758408Y-101936499D01*
X179758416Y-101936498D01*
X179758419Y-101936498D01*
X179842303Y-101927929D01*
X179861197Y-101925999D01*
X180027734Y-101870814D01*
X180177056Y-101778712D01*
X180301112Y-101654656D01*
X180393214Y-101505334D01*
X180448399Y-101338797D01*
X180458900Y-101236009D01*
X180458899Y-100185992D01*
X180448399Y-100083203D01*
X180393214Y-99916666D01*
X180301112Y-99767344D01*
X180177056Y-99643288D01*
X180177054Y-99643286D01*
X180172484Y-99639672D01*
X180170819Y-99637320D01*
X180168197Y-99636123D01*
X180150752Y-99608978D01*
X180132110Y-99582648D01*
X180131506Y-99579031D01*
X180130423Y-99577345D01*
X180125400Y-99542410D01*
X180125400Y-99456547D01*
X180134839Y-99409094D01*
X180140637Y-99395097D01*
X180171400Y-99240442D01*
X180171400Y-99082758D01*
X180171400Y-99082755D01*
X180171399Y-99082753D01*
X180140639Y-98928111D01*
X180140638Y-98928108D01*
X180140637Y-98928103D01*
X180134837Y-98914101D01*
X180125400Y-98866653D01*
X180125400Y-97990553D01*
X180453900Y-97990553D01*
X180453900Y-98148246D01*
X180484661Y-98302889D01*
X180484664Y-98302901D01*
X180545002Y-98448572D01*
X180545009Y-98448585D01*
X180632610Y-98579688D01*
X180632613Y-98579692D01*
X180744107Y-98691186D01*
X180744111Y-98691189D01*
X180875214Y-98778790D01*
X180875227Y-98778797D01*
X180962630Y-98814999D01*
X181020903Y-98839137D01*
X181083743Y-98851636D01*
X181145652Y-98884020D01*
X181147232Y-98885572D01*
X182336796Y-100075137D01*
X182336800Y-100075140D01*
X182398902Y-100116635D01*
X182443736Y-100146592D01*
X182562556Y-100195809D01*
X182562560Y-100195809D01*
X182562561Y-100195810D01*
X182688692Y-100220900D01*
X182688695Y-100220900D01*
X183322936Y-100220900D01*
X183389975Y-100240585D01*
X183435730Y-100293389D01*
X183440642Y-100305896D01*
X183462921Y-100373131D01*
X183462923Y-100373136D01*
X183483699Y-100406819D01*
X183555024Y-100522456D01*
X183679080Y-100646512D01*
X183828402Y-100738614D01*
X183857537Y-100748268D01*
X183914982Y-100788040D01*
X183929004Y-100809649D01*
X183934930Y-100821273D01*
X183938159Y-100833321D01*
X183961472Y-100873700D01*
X183963086Y-100876496D01*
X183963097Y-100876517D01*
X184017211Y-100970245D01*
X184017217Y-100970253D01*
X184136085Y-101089121D01*
X184136091Y-101089126D01*
X184630339Y-101583374D01*
X184630349Y-101583385D01*
X184634679Y-101587715D01*
X184634680Y-101587716D01*
X184746484Y-101699520D01*
X184746486Y-101699521D01*
X184746490Y-101699524D01*
X184798012Y-101729270D01*
X184798017Y-101729272D01*
X184883409Y-101778574D01*
X184883410Y-101778575D01*
X184883412Y-101778575D01*
X184883415Y-101778577D01*
X185036143Y-101819501D01*
X185036146Y-101819501D01*
X185201853Y-101819501D01*
X185201869Y-101819500D01*
X188508331Y-101819500D01*
X188508347Y-101819501D01*
X188515943Y-101819501D01*
X188674054Y-101819501D01*
X188674057Y-101819501D01*
X188826785Y-101778577D01*
X188912185Y-101729271D01*
X188963716Y-101699520D01*
X189075520Y-101587716D01*
X189075521Y-101587714D01*
X189685120Y-100978116D01*
X189764177Y-100841184D01*
X189769723Y-100820482D01*
X189806087Y-100760824D01*
X189851181Y-100734646D01*
X189944620Y-100704286D01*
X189944622Y-100704284D01*
X189944625Y-100704284D01*
X190120005Y-100614924D01*
X190279246Y-100499228D01*
X190418428Y-100360046D01*
X190534124Y-100200805D01*
X190623484Y-100025425D01*
X190684309Y-99838226D01*
X190694650Y-99772935D01*
X190715100Y-99643822D01*
X190715100Y-99446977D01*
X190684309Y-99252573D01*
X190656087Y-99165717D01*
X190623484Y-99065375D01*
X190623482Y-99065372D01*
X190623482Y-99065370D01*
X190553541Y-98928103D01*
X190534124Y-98889995D01*
X190418428Y-98730754D01*
X190279246Y-98591572D01*
X190120005Y-98475876D01*
X189944629Y-98386517D01*
X189757426Y-98325690D01*
X189563022Y-98294900D01*
X189563017Y-98294900D01*
X188846183Y-98294900D01*
X188846178Y-98294900D01*
X188651773Y-98325690D01*
X188464570Y-98386517D01*
X188289194Y-98475876D01*
X188255618Y-98500271D01*
X188129954Y-98591572D01*
X188129952Y-98591574D01*
X188129951Y-98591574D01*
X187990774Y-98730751D01*
X187990774Y-98730752D01*
X187990772Y-98730754D01*
X187955872Y-98778790D01*
X187875076Y-98889994D01*
X187813155Y-99011521D01*
X187765180Y-99062317D01*
X187697359Y-99079112D01*
X187631224Y-99056574D01*
X187587773Y-99001859D01*
X187584964Y-98994230D01*
X187532094Y-98834680D01*
X187532092Y-98834675D01*
X187440051Y-98685454D01*
X187316081Y-98561484D01*
X187166860Y-98469443D01*
X187166855Y-98469441D01*
X187000433Y-98414294D01*
X187000426Y-98414293D01*
X186897722Y-98403800D01*
X186747736Y-98403800D01*
X186747736Y-99479800D01*
X186728051Y-99546839D01*
X186675247Y-99592594D01*
X186623736Y-99603800D01*
X186371736Y-99603800D01*
X186304697Y-99584115D01*
X186258942Y-99531311D01*
X186247736Y-99479800D01*
X186247736Y-98403800D01*
X186097763Y-98403800D01*
X186097748Y-98403801D01*
X185995038Y-98414294D01*
X185828616Y-98469441D01*
X185828611Y-98469443D01*
X185679393Y-98561482D01*
X185585770Y-98655105D01*
X185524446Y-98688589D01*
X185454755Y-98683605D01*
X185410408Y-98655104D01*
X185316393Y-98561089D01*
X185316392Y-98561088D01*
X185167070Y-98468986D01*
X185000533Y-98413801D01*
X185000531Y-98413800D01*
X184897746Y-98403300D01*
X184097734Y-98403300D01*
X184097716Y-98403301D01*
X183994939Y-98413800D01*
X183994936Y-98413801D01*
X183828404Y-98468985D01*
X183828399Y-98468987D01*
X183679078Y-98561089D01*
X183555025Y-98685142D01*
X183462920Y-98834469D01*
X183459870Y-98841011D01*
X183457558Y-98839933D01*
X183424610Y-98887537D01*
X183360099Y-98914370D01*
X183346662Y-98915100D01*
X183074802Y-98915100D01*
X183007763Y-98895415D01*
X182987121Y-98878781D01*
X182070572Y-97962232D01*
X182053331Y-97930658D01*
X191774100Y-97930658D01*
X191774100Y-98160141D01*
X191792357Y-98298806D01*
X191804052Y-98387638D01*
X191827695Y-98475876D01*
X191863442Y-98609287D01*
X191951250Y-98821276D01*
X191951257Y-98821290D01*
X192065992Y-99020017D01*
X192205681Y-99202061D01*
X192205689Y-99202070D01*
X192367930Y-99364311D01*
X192367938Y-99364318D01*
X192549982Y-99504007D01*
X192549985Y-99504008D01*
X192549988Y-99504011D01*
X192748712Y-99618744D01*
X192748717Y-99618746D01*
X192748723Y-99618749D01*
X192790668Y-99636123D01*
X192960713Y-99706558D01*
X193182362Y-99765948D01*
X193409866Y-99795900D01*
X193409873Y-99795900D01*
X193639327Y-99795900D01*
X193639334Y-99795900D01*
X193866838Y-99765948D01*
X194088487Y-99706558D01*
X194300488Y-99618744D01*
X194499212Y-99504011D01*
X194681261Y-99364319D01*
X194681265Y-99364314D01*
X194681270Y-99364311D01*
X194843511Y-99202070D01*
X194843514Y-99202065D01*
X194843519Y-99202061D01*
X194983211Y-99020012D01*
X195097944Y-98821288D01*
X195185758Y-98609287D01*
X195245148Y-98387638D01*
X195275100Y-98160134D01*
X195275100Y-97930666D01*
X195245148Y-97703162D01*
X195185758Y-97481513D01*
X195124882Y-97334546D01*
X195097949Y-97269523D01*
X195097946Y-97269517D01*
X195097944Y-97269512D01*
X194983211Y-97070788D01*
X194983208Y-97070785D01*
X194983207Y-97070782D01*
X194843518Y-96888738D01*
X194843511Y-96888730D01*
X194681270Y-96726489D01*
X194681261Y-96726481D01*
X194499217Y-96586792D01*
X194489531Y-96581200D01*
X194370539Y-96512500D01*
X194300490Y-96472057D01*
X194300476Y-96472050D01*
X194088487Y-96384242D01*
X193866838Y-96324852D01*
X193828815Y-96319846D01*
X193639341Y-96294900D01*
X193639334Y-96294900D01*
X193409866Y-96294900D01*
X193409858Y-96294900D01*
X193193315Y-96323409D01*
X193182362Y-96324852D01*
X193110687Y-96344057D01*
X192960712Y-96384242D01*
X192748723Y-96472050D01*
X192748709Y-96472057D01*
X192549982Y-96586792D01*
X192367938Y-96726481D01*
X192205681Y-96888738D01*
X192065992Y-97070782D01*
X191951257Y-97269509D01*
X191951250Y-97269523D01*
X191863442Y-97481512D01*
X191854722Y-97514055D01*
X191807520Y-97690221D01*
X191804053Y-97703159D01*
X191804051Y-97703170D01*
X191774100Y-97930658D01*
X182053331Y-97930658D01*
X182037087Y-97900909D01*
X182036652Y-97898824D01*
X182024137Y-97835903D01*
X181969158Y-97703170D01*
X181963797Y-97690227D01*
X181963790Y-97690214D01*
X181876189Y-97559111D01*
X181876186Y-97559107D01*
X181764692Y-97447613D01*
X181764688Y-97447610D01*
X181633585Y-97360009D01*
X181633572Y-97360002D01*
X181487901Y-97299664D01*
X181487889Y-97299661D01*
X181333245Y-97268900D01*
X181333242Y-97268900D01*
X181175558Y-97268900D01*
X181175555Y-97268900D01*
X181020910Y-97299661D01*
X181020898Y-97299664D01*
X180875227Y-97360002D01*
X180875214Y-97360009D01*
X180744111Y-97447610D01*
X180744107Y-97447613D01*
X180632613Y-97559107D01*
X180632610Y-97559111D01*
X180545009Y-97690214D01*
X180545002Y-97690227D01*
X180484664Y-97835898D01*
X180484661Y-97835910D01*
X180453900Y-97990553D01*
X180125400Y-97990553D01*
X180125400Y-96952146D01*
X180125401Y-96952125D01*
X180125401Y-96797385D01*
X180096406Y-96651625D01*
X180096404Y-96651619D01*
X180085153Y-96624456D01*
X180077352Y-96605623D01*
X180069551Y-96586789D01*
X180046934Y-96532185D01*
X180039533Y-96514318D01*
X180039532Y-96514317D01*
X180039530Y-96514311D01*
X179993802Y-96445874D01*
X179956959Y-96390734D01*
X179956957Y-96390731D01*
X179847547Y-96281321D01*
X179847524Y-96281300D01*
X179731939Y-96165715D01*
X179647407Y-96081183D01*
X183422636Y-96081183D01*
X183422636Y-97081201D01*
X183422637Y-97081219D01*
X183433136Y-97183996D01*
X183433137Y-97183999D01*
X183488321Y-97350531D01*
X183488323Y-97350536D01*
X183497081Y-97364735D01*
X183580424Y-97499856D01*
X183704480Y-97623912D01*
X183853802Y-97716014D01*
X184020339Y-97771199D01*
X184123127Y-97781700D01*
X184923144Y-97781699D01*
X184923152Y-97781698D01*
X184923155Y-97781698D01*
X184979438Y-97775948D01*
X185025933Y-97771199D01*
X185192470Y-97716014D01*
X185341792Y-97623912D01*
X185435811Y-97529892D01*
X185497130Y-97496410D01*
X185566822Y-97501394D01*
X185611170Y-97529895D01*
X185704790Y-97623515D01*
X185854011Y-97715556D01*
X185854016Y-97715558D01*
X186020438Y-97770705D01*
X186020445Y-97770706D01*
X186123155Y-97781199D01*
X186273135Y-97781199D01*
X186273136Y-97781198D01*
X186273136Y-96705200D01*
X186292821Y-96638161D01*
X186345625Y-96592406D01*
X186397136Y-96581200D01*
X186649136Y-96581200D01*
X186716175Y-96600885D01*
X186761930Y-96653689D01*
X186773136Y-96705200D01*
X186773136Y-97781199D01*
X186923108Y-97781199D01*
X186923122Y-97781198D01*
X187025833Y-97770705D01*
X187192255Y-97715558D01*
X187192260Y-97715556D01*
X187341481Y-97623515D01*
X187465451Y-97499545D01*
X187548656Y-97364649D01*
X187600604Y-97317925D01*
X187669567Y-97306702D01*
X187733649Y-97334546D01*
X187759733Y-97364649D01*
X187851886Y-97514051D01*
X187851889Y-97514055D01*
X187975944Y-97638110D01*
X187975948Y-97638113D01*
X188125262Y-97730212D01*
X188125264Y-97730213D01*
X188125266Y-97730214D01*
X188291803Y-97785399D01*
X188394592Y-97795900D01*
X188394597Y-97795900D01*
X190014603Y-97795900D01*
X190014608Y-97795900D01*
X190117397Y-97785399D01*
X190283934Y-97730214D01*
X190433255Y-97638111D01*
X190557311Y-97514055D01*
X190649414Y-97364734D01*
X190704599Y-97198197D01*
X190715100Y-97095408D01*
X190715100Y-95995392D01*
X190704599Y-95892603D01*
X190649414Y-95726066D01*
X190557311Y-95576745D01*
X190433255Y-95452689D01*
X190433251Y-95452686D01*
X190283937Y-95360587D01*
X190283935Y-95360586D01*
X190200665Y-95332993D01*
X190117397Y-95305401D01*
X190117395Y-95305400D01*
X190014615Y-95294900D01*
X190014608Y-95294900D01*
X189877469Y-95294900D01*
X189810430Y-95275215D01*
X189769354Y-95227811D01*
X189768241Y-95228454D01*
X189764906Y-95222677D01*
X189764675Y-95222411D01*
X189764438Y-95221867D01*
X189685124Y-95084490D01*
X189685118Y-95084482D01*
X189006390Y-94405755D01*
X189006388Y-94405752D01*
X188887517Y-94286881D01*
X188887516Y-94286880D01*
X188800704Y-94236760D01*
X188800704Y-94236759D01*
X188800700Y-94236758D01*
X188750585Y-94207823D01*
X188597857Y-94166899D01*
X188439743Y-94166899D01*
X188432147Y-94166899D01*
X188432131Y-94166900D01*
X185227269Y-94166900D01*
X185227253Y-94166899D01*
X185219657Y-94166899D01*
X185061543Y-94166899D01*
X184954187Y-94195665D01*
X184908810Y-94207824D01*
X184908809Y-94207825D01*
X184858696Y-94236759D01*
X184858695Y-94236760D01*
X184815289Y-94261820D01*
X184771885Y-94286879D01*
X184771882Y-94286881D01*
X184042617Y-95016146D01*
X184042615Y-95016149D01*
X184003164Y-95084482D01*
X184003163Y-95084483D01*
X183963559Y-95153078D01*
X183963559Y-95153079D01*
X183922635Y-95305807D01*
X183922635Y-95305809D01*
X183922635Y-95335291D01*
X183902950Y-95402330D01*
X183858868Y-95440842D01*
X183859949Y-95442595D01*
X183853803Y-95446385D01*
X183853802Y-95446386D01*
X183797539Y-95481089D01*
X183704478Y-95538489D01*
X183580425Y-95662542D01*
X183488323Y-95811863D01*
X183488321Y-95811868D01*
X183483216Y-95827274D01*
X183433137Y-95978403D01*
X183433137Y-95978404D01*
X183433136Y-95978404D01*
X183422636Y-96081183D01*
X179647407Y-96081183D01*
X178738169Y-95171943D01*
X178738168Y-95171942D01*
X178667602Y-95124792D01*
X178614589Y-95089370D01*
X178614586Y-95089368D01*
X178614585Y-95089368D01*
X178534155Y-95056053D01*
X178477280Y-95032495D01*
X178453094Y-95027684D01*
X178331514Y-95003499D01*
X178331512Y-95003499D01*
X178182888Y-95003499D01*
X178176774Y-95003499D01*
X178176754Y-95003500D01*
X174023687Y-95003500D01*
X173956648Y-94983815D01*
X173936006Y-94967181D01*
X173460019Y-94491194D01*
X173426534Y-94429871D01*
X173423700Y-94403513D01*
X173423700Y-91441541D01*
X173443385Y-91374502D01*
X173496189Y-91328747D01*
X173565347Y-91318803D01*
X173628903Y-91347828D01*
X173635381Y-91353860D01*
X173733707Y-91452186D01*
X173733711Y-91452189D01*
X173864814Y-91539790D01*
X173864827Y-91539797D01*
X174010498Y-91600135D01*
X174010503Y-91600137D01*
X174100633Y-91618065D01*
X174165153Y-91630899D01*
X174165156Y-91630900D01*
X174165158Y-91630900D01*
X174322844Y-91630900D01*
X174322845Y-91630899D01*
X174477497Y-91600137D01*
X174623179Y-91539794D01*
X174754289Y-91452189D01*
X174865789Y-91340689D01*
X174953394Y-91209579D01*
X175013737Y-91063897D01*
X175044500Y-90909242D01*
X175044500Y-90751558D01*
X175033591Y-90696718D01*
X175039817Y-90627130D01*
X175082679Y-90571952D01*
X175090081Y-90567008D01*
X175137256Y-90537912D01*
X175261312Y-90413856D01*
X175353414Y-90264534D01*
X175408599Y-90097997D01*
X175419100Y-89995209D01*
X175419099Y-89195192D01*
X175415602Y-89160962D01*
X175408599Y-89092403D01*
X175408598Y-89092400D01*
X175398555Y-89062092D01*
X175353414Y-88925866D01*
X175261312Y-88776544D01*
X175167649Y-88682881D01*
X175164165Y-88676500D01*
X175158222Y-88672311D01*
X175147642Y-88646241D01*
X175134164Y-88621558D01*
X175134682Y-88614307D01*
X175131948Y-88607569D01*
X175137141Y-88579923D01*
X175139148Y-88551866D01*
X175143822Y-88544359D01*
X175144848Y-88538900D01*
X175161449Y-88516051D01*
X175165184Y-88510054D01*
X175166376Y-88508791D01*
X175261312Y-88413856D01*
X175271222Y-88397788D01*
X175279945Y-88388554D01*
X175299590Y-88377088D01*
X175316503Y-88361877D01*
X175331487Y-88358472D01*
X175340289Y-88353335D01*
X175351901Y-88353833D01*
X175370091Y-88349700D01*
X178821154Y-88349700D01*
X178821174Y-88349701D01*
X178827288Y-88349701D01*
X178975914Y-88349701D01*
X179054898Y-88333988D01*
X179097494Y-88325515D01*
X179121680Y-88320705D01*
X179185072Y-88294447D01*
X179258989Y-88263830D01*
X179382566Y-88181259D01*
X179721783Y-87842042D01*
X179781770Y-87782055D01*
X180157024Y-87406800D01*
X187767416Y-87406800D01*
X188808840Y-87406800D01*
X188778155Y-87459947D01*
X188743400Y-87589657D01*
X188743400Y-87723943D01*
X188778155Y-87853653D01*
X188808840Y-87906800D01*
X187767416Y-87906800D01*
X187774181Y-87949516D01*
X187834981Y-88136637D01*
X187924304Y-88311943D01*
X188039955Y-88471121D01*
X188179078Y-88610244D01*
X188338256Y-88725895D01*
X188513564Y-88815218D01*
X188700694Y-88876021D01*
X188895018Y-88906800D01*
X189003400Y-88906800D01*
X189003400Y-88101360D01*
X189056547Y-88132045D01*
X189186257Y-88166800D01*
X189320543Y-88166800D01*
X189450253Y-88132045D01*
X189503400Y-88101360D01*
X189503400Y-88906800D01*
X189611782Y-88906800D01*
X189806105Y-88876021D01*
X189993235Y-88815218D01*
X190168543Y-88725895D01*
X190327721Y-88610244D01*
X190466844Y-88471121D01*
X190582495Y-88311943D01*
X190671818Y-88136637D01*
X190732618Y-87949516D01*
X190739384Y-87906800D01*
X189697960Y-87906800D01*
X189728645Y-87853653D01*
X189763400Y-87723943D01*
X189763400Y-87589657D01*
X189728645Y-87459947D01*
X189697960Y-87406800D01*
X190739384Y-87406800D01*
X190732618Y-87364083D01*
X190671818Y-87176962D01*
X190582495Y-87001656D01*
X190466844Y-86842478D01*
X190327721Y-86703355D01*
X190168543Y-86587704D01*
X189993235Y-86498381D01*
X189806105Y-86437578D01*
X189611782Y-86406800D01*
X189503400Y-86406800D01*
X189503400Y-87212239D01*
X189450253Y-87181555D01*
X189320543Y-87146800D01*
X189186257Y-87146800D01*
X189056547Y-87181555D01*
X189003400Y-87212239D01*
X189003400Y-86406800D01*
X188895018Y-86406800D01*
X188700694Y-86437578D01*
X188513564Y-86498381D01*
X188338256Y-86587704D01*
X188179078Y-86703355D01*
X188039955Y-86842478D01*
X187924304Y-87001656D01*
X187834981Y-87176962D01*
X187774181Y-87364083D01*
X187767416Y-87406800D01*
X180157024Y-87406800D01*
X180207641Y-87356183D01*
X180315126Y-87248698D01*
X180795563Y-86768260D01*
X180795566Y-86768259D01*
X180900659Y-86663166D01*
X180963601Y-86568966D01*
X180983230Y-86539589D01*
X180983233Y-86539585D01*
X181040103Y-86402283D01*
X181040105Y-86402279D01*
X181049594Y-86354573D01*
X181069101Y-86256514D01*
X181069101Y-86102778D01*
X181069100Y-86102752D01*
X181069100Y-86042058D01*
X191822900Y-86042058D01*
X191822900Y-86271541D01*
X191840708Y-86406800D01*
X191852852Y-86499038D01*
X191907598Y-86703355D01*
X191912242Y-86720687D01*
X192000050Y-86932676D01*
X192000056Y-86932688D01*
X192104872Y-87114236D01*
X192114792Y-87131417D01*
X192254481Y-87313461D01*
X192254489Y-87313470D01*
X192416730Y-87475711D01*
X192416738Y-87475718D01*
X192598782Y-87615407D01*
X192598785Y-87615408D01*
X192598788Y-87615411D01*
X192797512Y-87730144D01*
X192797517Y-87730146D01*
X192797523Y-87730149D01*
X192888880Y-87767990D01*
X193009513Y-87817958D01*
X193231162Y-87877348D01*
X193458666Y-87907300D01*
X193458673Y-87907300D01*
X193688127Y-87907300D01*
X193688134Y-87907300D01*
X193915638Y-87877348D01*
X194137287Y-87817958D01*
X194349288Y-87730144D01*
X194548012Y-87615411D01*
X194730061Y-87475719D01*
X194730065Y-87475714D01*
X194730070Y-87475711D01*
X194892311Y-87313470D01*
X194892314Y-87313465D01*
X194892319Y-87313461D01*
X195032011Y-87131412D01*
X195146744Y-86932688D01*
X195234558Y-86720687D01*
X195293948Y-86499038D01*
X195323900Y-86271534D01*
X195323900Y-86042066D01*
X195293948Y-85814562D01*
X195234558Y-85592913D01*
X195146744Y-85380912D01*
X195032011Y-85182188D01*
X195032008Y-85182185D01*
X195032007Y-85182182D01*
X194896589Y-85005704D01*
X194892319Y-85000139D01*
X194892318Y-85000138D01*
X194892311Y-85000130D01*
X194730070Y-84837889D01*
X194730061Y-84837881D01*
X194548017Y-84698192D01*
X194349290Y-84583457D01*
X194349276Y-84583450D01*
X194137287Y-84495642D01*
X193915638Y-84436252D01*
X193858056Y-84428671D01*
X193688141Y-84406300D01*
X193688134Y-84406300D01*
X193458666Y-84406300D01*
X193458658Y-84406300D01*
X193242115Y-84434809D01*
X193231162Y-84436252D01*
X193142730Y-84459947D01*
X193009512Y-84495642D01*
X192797523Y-84583450D01*
X192797509Y-84583457D01*
X192598782Y-84698192D01*
X192416738Y-84837881D01*
X192254481Y-85000138D01*
X192114792Y-85182182D01*
X192000057Y-85380909D01*
X192000050Y-85380923D01*
X191912242Y-85592912D01*
X191852853Y-85814559D01*
X191852851Y-85814570D01*
X191822900Y-86042058D01*
X181069100Y-86042058D01*
X181069100Y-84106814D01*
X187743400Y-84106814D01*
X187743400Y-84406800D01*
X188808840Y-84406800D01*
X188778155Y-84459947D01*
X188743400Y-84589657D01*
X188743400Y-84723943D01*
X188778155Y-84853653D01*
X188808840Y-84906800D01*
X187743400Y-84906800D01*
X187743400Y-85206785D01*
X187753893Y-85309489D01*
X187753894Y-85309496D01*
X187809041Y-85475918D01*
X187809043Y-85475923D01*
X187901084Y-85625144D01*
X188025055Y-85749115D01*
X188174276Y-85841156D01*
X188174281Y-85841158D01*
X188340703Y-85896305D01*
X188340710Y-85896306D01*
X188443414Y-85906799D01*
X188443427Y-85906800D01*
X189003400Y-85906800D01*
X189003400Y-85101360D01*
X189056547Y-85132045D01*
X189186257Y-85166800D01*
X189320543Y-85166800D01*
X189450253Y-85132045D01*
X189503400Y-85101360D01*
X189503400Y-85906800D01*
X190063373Y-85906800D01*
X190063385Y-85906799D01*
X190166089Y-85896306D01*
X190166096Y-85896305D01*
X190332518Y-85841158D01*
X190332523Y-85841156D01*
X190481744Y-85749115D01*
X190605715Y-85625144D01*
X190697756Y-85475923D01*
X190697758Y-85475918D01*
X190752905Y-85309496D01*
X190752906Y-85309489D01*
X190763399Y-85206785D01*
X190763400Y-85206772D01*
X190763400Y-84906800D01*
X189697960Y-84906800D01*
X189728645Y-84853653D01*
X189763400Y-84723943D01*
X189763400Y-84589657D01*
X189728645Y-84459947D01*
X189697960Y-84406800D01*
X190763400Y-84406800D01*
X190763400Y-84106827D01*
X190763399Y-84106814D01*
X190752906Y-84004110D01*
X190752905Y-84004103D01*
X190697758Y-83837681D01*
X190697756Y-83837676D01*
X190605715Y-83688455D01*
X190481744Y-83564484D01*
X190332523Y-83472443D01*
X190332518Y-83472441D01*
X190166096Y-83417294D01*
X190166089Y-83417293D01*
X190063385Y-83406800D01*
X189503400Y-83406800D01*
X189503400Y-84212239D01*
X189450253Y-84181555D01*
X189320543Y-84146800D01*
X189186257Y-84146800D01*
X189056547Y-84181555D01*
X189003400Y-84212239D01*
X189003400Y-83406800D01*
X188443414Y-83406800D01*
X188340710Y-83417293D01*
X188340703Y-83417294D01*
X188174281Y-83472441D01*
X188174276Y-83472443D01*
X188025055Y-83564484D01*
X187901084Y-83688455D01*
X187809043Y-83837676D01*
X187809041Y-83837681D01*
X187753894Y-84004103D01*
X187753893Y-84004110D01*
X187743400Y-84106814D01*
X181069100Y-84106814D01*
X181069100Y-82891769D01*
X181088785Y-82824730D01*
X181089999Y-82822877D01*
X181115404Y-82784856D01*
X181115405Y-82784853D01*
X181115409Y-82784848D01*
X181175752Y-82639166D01*
X181206515Y-82484511D01*
X181206515Y-82326827D01*
X181206515Y-82326824D01*
X181206514Y-82326822D01*
X181196605Y-82277005D01*
X181175752Y-82172172D01*
X181157088Y-82127113D01*
X181115412Y-82026496D01*
X181115405Y-82026483D01*
X181027804Y-81895380D01*
X181027801Y-81895376D01*
X180916307Y-81783882D01*
X180916303Y-81783879D01*
X180785200Y-81696278D01*
X180785187Y-81696271D01*
X180639516Y-81635933D01*
X180639504Y-81635930D01*
X180484860Y-81605169D01*
X180484857Y-81605169D01*
X180327173Y-81605169D01*
X180327170Y-81605169D01*
X180172525Y-81635930D01*
X180172513Y-81635933D01*
X180026842Y-81696271D01*
X180026829Y-81696278D01*
X179895726Y-81783879D01*
X179895722Y-81783882D01*
X179784228Y-81895376D01*
X179784225Y-81895380D01*
X179696624Y-82026483D01*
X179696621Y-82026490D01*
X179660535Y-82113607D01*
X179649086Y-82135029D01*
X179645977Y-82139682D01*
X179645969Y-82139696D01*
X179589095Y-82277004D01*
X179589093Y-82277010D01*
X179560099Y-82422769D01*
X179560099Y-82577509D01*
X179560100Y-82577530D01*
X179560100Y-85818313D01*
X179540415Y-85885352D01*
X179523781Y-85905994D01*
X178625394Y-86804381D01*
X178564071Y-86837866D01*
X178537713Y-86840700D01*
X175370091Y-86840700D01*
X175303052Y-86821015D01*
X175264554Y-86781800D01*
X175264168Y-86781174D01*
X175261312Y-86776544D01*
X175137256Y-86652488D01*
X175002378Y-86569295D01*
X174987936Y-86560387D01*
X174987931Y-86560385D01*
X174986462Y-86559898D01*
X174821397Y-86505201D01*
X174821395Y-86505200D01*
X174718610Y-86494700D01*
X173718598Y-86494700D01*
X173718580Y-86494701D01*
X173615803Y-86505200D01*
X173615800Y-86505201D01*
X173449268Y-86560385D01*
X173449263Y-86560387D01*
X173299942Y-86652489D01*
X173175888Y-86776543D01*
X173175885Y-86776547D01*
X173113160Y-86878240D01*
X173062998Y-86923358D01*
X173063181Y-86923700D01*
X173061794Y-86924441D01*
X173061212Y-86924965D01*
X173058800Y-86926041D01*
X173057814Y-86926568D01*
X172934231Y-87009143D01*
X172881686Y-87061688D01*
X172829141Y-87114234D01*
X172829139Y-87114236D01*
X172083143Y-87860230D01*
X172083142Y-87860231D01*
X172000568Y-87983814D01*
X171975395Y-88044589D01*
X171949107Y-88108056D01*
X171944814Y-88118418D01*
X171943694Y-88121123D01*
X171943693Y-88121125D01*
X171914699Y-88266885D01*
X163060500Y-88266885D01*
X163060500Y-82781186D01*
X172358601Y-82781186D01*
X172369094Y-82883897D01*
X172424241Y-83050319D01*
X172424243Y-83050324D01*
X172516284Y-83199545D01*
X172640254Y-83323515D01*
X172789475Y-83415556D01*
X172789480Y-83415558D01*
X172955902Y-83470705D01*
X172955909Y-83470706D01*
X173058619Y-83481199D01*
X173333599Y-83481199D01*
X173833600Y-83481199D01*
X174108572Y-83481199D01*
X174108586Y-83481198D01*
X174211297Y-83470705D01*
X174377719Y-83415558D01*
X174377724Y-83415556D01*
X174526945Y-83323515D01*
X174650915Y-83199545D01*
X174742956Y-83050324D01*
X174742958Y-83050319D01*
X174798105Y-82883897D01*
X174798106Y-82883890D01*
X174808599Y-82781186D01*
X174808600Y-82781173D01*
X174808600Y-82643700D01*
X173833600Y-82643700D01*
X173833600Y-83481199D01*
X173333599Y-83481199D01*
X173333600Y-83481198D01*
X173333600Y-82643700D01*
X172358601Y-82643700D01*
X172358601Y-82781186D01*
X163060500Y-82781186D01*
X163060500Y-77678628D01*
X166397514Y-77678628D01*
X166397514Y-77685954D01*
X166397514Y-77836316D01*
X166428275Y-77990959D01*
X166428278Y-77990971D01*
X166488616Y-78136642D01*
X166488623Y-78136655D01*
X166576224Y-78267758D01*
X166576227Y-78267762D01*
X166687724Y-78379259D01*
X166748216Y-78419678D01*
X166818835Y-78466864D01*
X166832773Y-78472637D01*
X166832833Y-78472662D01*
X166873061Y-78499542D01*
X167979213Y-79605693D01*
X167979234Y-79605716D01*
X168088644Y-79715126D01*
X168088647Y-79715128D01*
X168144899Y-79752714D01*
X168212224Y-79797699D01*
X168286351Y-79828403D01*
X168349533Y-79854574D01*
X168373718Y-79859384D01*
X168381931Y-79861017D01*
X168381932Y-79861018D01*
X168495299Y-79883570D01*
X168495301Y-79883570D01*
X168650039Y-79883570D01*
X168650059Y-79883569D01*
X170517128Y-79883569D01*
X170584167Y-79903254D01*
X170604809Y-79919888D01*
X171480246Y-80795324D01*
X171480267Y-80795347D01*
X171589674Y-80904754D01*
X171589681Y-80904760D01*
X171713254Y-80987328D01*
X171713255Y-80987328D01*
X171713256Y-80987329D01*
X171850566Y-81044205D01*
X171996329Y-81073199D01*
X171996333Y-81073200D01*
X171996334Y-81073200D01*
X172415011Y-81073200D01*
X172443768Y-81081644D01*
X172473133Y-81087665D01*
X172477952Y-81091681D01*
X172482050Y-81092885D01*
X172501638Y-81108477D01*
X172512064Y-81118657D01*
X172515888Y-81124856D01*
X172639944Y-81248912D01*
X172654953Y-81258169D01*
X172664786Y-81267770D01*
X172675435Y-81286730D01*
X172689979Y-81302899D01*
X172692207Y-81316593D01*
X172699001Y-81328688D01*
X172697709Y-81350395D01*
X172701203Y-81371861D01*
X172695675Y-81384584D01*
X172694851Y-81398435D01*
X172682025Y-81416002D01*
X172673361Y-81435944D01*
X172657308Y-81449855D01*
X172653651Y-81454865D01*
X172649817Y-81456347D01*
X172643265Y-81462026D01*
X172640260Y-81463879D01*
X172640255Y-81463883D01*
X172516284Y-81587854D01*
X172424243Y-81737075D01*
X172424241Y-81737080D01*
X172369094Y-81903502D01*
X172369093Y-81903509D01*
X172358600Y-82006213D01*
X172358600Y-82143700D01*
X174808599Y-82143700D01*
X174808599Y-82006228D01*
X174808598Y-82006213D01*
X174798105Y-81903502D01*
X174742958Y-81737080D01*
X174742956Y-81737075D01*
X174650915Y-81587854D01*
X174526944Y-81463883D01*
X174526941Y-81463881D01*
X174523939Y-81462029D01*
X174522313Y-81460221D01*
X174521277Y-81459402D01*
X174521417Y-81459224D01*
X174477217Y-81410080D01*
X174465997Y-81341117D01*
X174493843Y-81277036D01*
X174502414Y-81267770D01*
X174512246Y-81258169D01*
X174527256Y-81248912D01*
X174651312Y-81124856D01*
X174655133Y-81118659D01*
X174665563Y-81108477D01*
X174689670Y-81095685D01*
X174711944Y-81079913D01*
X174722808Y-81078100D01*
X174727282Y-81075727D01*
X174733782Y-81076270D01*
X174752189Y-81073200D01*
X175052413Y-81073200D01*
X175119452Y-81092885D01*
X175140094Y-81109519D01*
X176904800Y-82874224D01*
X176904821Y-82874247D01*
X177014231Y-82983657D01*
X177073265Y-83023102D01*
X177073264Y-83023102D01*
X177137800Y-83066223D01*
X177137804Y-83066225D01*
X177137811Y-83066230D01*
X177218245Y-83099546D01*
X177275120Y-83123105D01*
X177299305Y-83127915D01*
X177348194Y-83137640D01*
X177420886Y-83152101D01*
X177420888Y-83152101D01*
X177575626Y-83152101D01*
X177575646Y-83152100D01*
X178063853Y-83152100D01*
X178111301Y-83161537D01*
X178125303Y-83167337D01*
X178125308Y-83167338D01*
X178125311Y-83167339D01*
X178279953Y-83198099D01*
X178279956Y-83198100D01*
X178279958Y-83198100D01*
X178437644Y-83198100D01*
X178437645Y-83198099D01*
X178592297Y-83167337D01*
X178704966Y-83120667D01*
X178737972Y-83106997D01*
X178737972Y-83106996D01*
X178737979Y-83106994D01*
X178869089Y-83019389D01*
X178980589Y-82907889D01*
X179068194Y-82776779D01*
X179128537Y-82631097D01*
X179159300Y-82476442D01*
X179159300Y-82318758D01*
X179159300Y-82318755D01*
X179159299Y-82318753D01*
X179150995Y-82277005D01*
X179128537Y-82164103D01*
X179120086Y-82143700D01*
X179068197Y-82018427D01*
X179068190Y-82018414D01*
X178980589Y-81887311D01*
X178980586Y-81887307D01*
X178869092Y-81775813D01*
X178869088Y-81775810D01*
X178737985Y-81688209D01*
X178737972Y-81688202D01*
X178592301Y-81627864D01*
X178592289Y-81627861D01*
X178437645Y-81597100D01*
X178437642Y-81597100D01*
X178279958Y-81597100D01*
X178279955Y-81597100D01*
X178125311Y-81627860D01*
X178125306Y-81627862D01*
X178125304Y-81627862D01*
X178125303Y-81627863D01*
X178111301Y-81633662D01*
X178103127Y-81635288D01*
X178098788Y-81638077D01*
X178063853Y-81643100D01*
X177859086Y-81643100D01*
X177792047Y-81623415D01*
X177771405Y-81606781D01*
X175897269Y-79732643D01*
X175897268Y-79732642D01*
X175773692Y-79650072D01*
X175773691Y-79650071D01*
X175773689Y-79650070D01*
X175773686Y-79650068D01*
X175773681Y-79650066D01*
X175681490Y-79611880D01*
X175681486Y-79611878D01*
X175677035Y-79610035D01*
X175636380Y-79593195D01*
X175612194Y-79588384D01*
X175604970Y-79586947D01*
X175490614Y-79564199D01*
X175490612Y-79564199D01*
X175341988Y-79564199D01*
X175335874Y-79564199D01*
X175335854Y-79564200D01*
X174752189Y-79564200D01*
X174722315Y-79555427D01*
X174691939Y-79548578D01*
X174688219Y-79545416D01*
X174685150Y-79544515D01*
X174663845Y-79527214D01*
X174654522Y-79517748D01*
X174651312Y-79512544D01*
X174527256Y-79388488D01*
X174527131Y-79388411D01*
X174523755Y-79384983D01*
X174507425Y-79354529D01*
X174490933Y-79324327D01*
X174490967Y-79323839D01*
X174490736Y-79323407D01*
X174493459Y-79288996D01*
X174495917Y-79254635D01*
X174496216Y-79254169D01*
X174496249Y-79253756D01*
X174497752Y-79251778D01*
X174524415Y-79210291D01*
X174711167Y-79023540D01*
X174751392Y-78996663D01*
X174765393Y-78990864D01*
X174896503Y-78903259D01*
X175008003Y-78791759D01*
X175095608Y-78660649D01*
X175155951Y-78514967D01*
X175186714Y-78360312D01*
X175186714Y-78202628D01*
X175186714Y-78202625D01*
X175186713Y-78202623D01*
X175166321Y-78100107D01*
X175155951Y-78047973D01*
X175113920Y-77946500D01*
X175095611Y-77902297D01*
X175095604Y-77902284D01*
X175008003Y-77771181D01*
X175008000Y-77771177D01*
X174896506Y-77659683D01*
X174896502Y-77659680D01*
X174765399Y-77572079D01*
X174765386Y-77572072D01*
X174619715Y-77511734D01*
X174619703Y-77511731D01*
X174465059Y-77480970D01*
X174465056Y-77480970D01*
X174307372Y-77480970D01*
X174307369Y-77480970D01*
X174152724Y-77511731D01*
X174152712Y-77511734D01*
X174007041Y-77572072D01*
X174007028Y-77572079D01*
X173875925Y-77659680D01*
X173875921Y-77659683D01*
X173764427Y-77771177D01*
X173764421Y-77771185D01*
X173676820Y-77902288D01*
X173676820Y-77902289D01*
X173671019Y-77916294D01*
X173644141Y-77956516D01*
X172997542Y-78603115D01*
X172914972Y-78726691D01*
X172914966Y-78726702D01*
X172858096Y-78864000D01*
X172858093Y-78864010D01*
X172829099Y-79009769D01*
X172829099Y-79164509D01*
X172829100Y-79164530D01*
X172829100Y-79202609D01*
X172809415Y-79269648D01*
X172770197Y-79308148D01*
X172639945Y-79388487D01*
X172511382Y-79517050D01*
X172450059Y-79550534D01*
X172380367Y-79545550D01*
X172336020Y-79517049D01*
X171623087Y-78804116D01*
X171596207Y-78763888D01*
X171596182Y-78763828D01*
X171590409Y-78749890D01*
X171574082Y-78725455D01*
X171502804Y-78618779D01*
X171391307Y-78507282D01*
X171391303Y-78507279D01*
X171260200Y-78419678D01*
X171260187Y-78419671D01*
X171114516Y-78359333D01*
X171114504Y-78359330D01*
X170959860Y-78328569D01*
X170959857Y-78328569D01*
X170802173Y-78328569D01*
X170802170Y-78328569D01*
X170647526Y-78359329D01*
X170647521Y-78359331D01*
X170647519Y-78359331D01*
X170647518Y-78359332D01*
X170633516Y-78365131D01*
X170586068Y-78374569D01*
X168933499Y-78374569D01*
X168866460Y-78354884D01*
X168845818Y-78338250D01*
X167988833Y-77481264D01*
X167955348Y-77419941D01*
X167952514Y-77393583D01*
X167952514Y-75888272D01*
X167972199Y-75821233D01*
X167988833Y-75800591D01*
X171889206Y-71900218D01*
X171916133Y-71885514D01*
X171941952Y-71868922D01*
X171948152Y-71868030D01*
X171950529Y-71866733D01*
X171976887Y-71863899D01*
X172136053Y-71863899D01*
X172183501Y-71873336D01*
X172197503Y-71879136D01*
X172197508Y-71879137D01*
X172197511Y-71879138D01*
X172352153Y-71909898D01*
X172352156Y-71909899D01*
X172352158Y-71909899D01*
X172509844Y-71909899D01*
X172509845Y-71909898D01*
X172664497Y-71879136D01*
X172810179Y-71818793D01*
X172941289Y-71731188D01*
X173052789Y-71619688D01*
X173140394Y-71488578D01*
X173200737Y-71342896D01*
X173231500Y-71188241D01*
X173231500Y-71030557D01*
X173231500Y-71030554D01*
X173231499Y-71030552D01*
X173219576Y-70970612D01*
X173200737Y-70875902D01*
X173200735Y-70875897D01*
X173140397Y-70730226D01*
X173140390Y-70730213D01*
X173052789Y-70599110D01*
X173052786Y-70599106D01*
X172941292Y-70487612D01*
X172941288Y-70487609D01*
X172810185Y-70400008D01*
X172810172Y-70400001D01*
X172664501Y-70339663D01*
X172664489Y-70339660D01*
X172509845Y-70308899D01*
X172509842Y-70308899D01*
X172352158Y-70308899D01*
X172352155Y-70308899D01*
X172197511Y-70339659D01*
X172197506Y-70339661D01*
X172197504Y-70339661D01*
X172197503Y-70339662D01*
X172183501Y-70345461D01*
X172136053Y-70354899D01*
X171538684Y-70354899D01*
X171392928Y-70383892D01*
X171392920Y-70383894D01*
X171255609Y-70440770D01*
X171132036Y-70523338D01*
X171132035Y-70523339D01*
X171095488Y-70559887D01*
X171026942Y-70628433D01*
X171026940Y-70628435D01*
X166611957Y-75043416D01*
X166611956Y-75043417D01*
X166529386Y-75166993D01*
X166529380Y-75167004D01*
X166472510Y-75304302D01*
X166472507Y-75304312D01*
X166443513Y-75450071D01*
X166443513Y-75604811D01*
X166443514Y-75604832D01*
X166443514Y-77462523D01*
X166442035Y-77469954D01*
X166440642Y-77489054D01*
X166438286Y-77499806D01*
X166428277Y-77523973D01*
X166397514Y-77678628D01*
X163060500Y-77678628D01*
X163060500Y-74789271D01*
X163021744Y-74594431D01*
X162945721Y-74410896D01*
X162945720Y-74410895D01*
X162945717Y-74410889D01*
X162835354Y-74245720D01*
X162795241Y-74205607D01*
X162694881Y-74105247D01*
X159094822Y-70505188D01*
X159061337Y-70443865D01*
X159062727Y-70385415D01*
X159075670Y-70337116D01*
X159109900Y-70077120D01*
X159109900Y-69814880D01*
X159075670Y-69554884D01*
X159007798Y-69301581D01*
X158974057Y-69220123D01*
X158907446Y-69059309D01*
X158907441Y-69059299D01*
X158776324Y-68832196D01*
X158616681Y-68624148D01*
X158616674Y-68624140D01*
X158431260Y-68438726D01*
X158431251Y-68438718D01*
X158223203Y-68279075D01*
X157996100Y-68147958D01*
X157996090Y-68147953D01*
X157753828Y-68047605D01*
X157753821Y-68047603D01*
X157753819Y-68047602D01*
X157500516Y-67979730D01*
X157442739Y-67972123D01*
X157240527Y-67945500D01*
X157240520Y-67945500D01*
X156978280Y-67945500D01*
X156978272Y-67945500D01*
X156747172Y-67975926D01*
X156718284Y-67979730D01*
X156672436Y-67992015D01*
X156464981Y-68047602D01*
X156464971Y-68047605D01*
X156222709Y-68147953D01*
X156222699Y-68147958D01*
X155995596Y-68279075D01*
X155787548Y-68438718D01*
X155602118Y-68624148D01*
X155442475Y-68832196D01*
X155311358Y-69059299D01*
X155311353Y-69059309D01*
X155211005Y-69301571D01*
X155211002Y-69301581D01*
X155176027Y-69432112D01*
X155143130Y-69554885D01*
X155108900Y-69814872D01*
X155108900Y-70077127D01*
X155130365Y-70240159D01*
X155143130Y-70337116D01*
X155202821Y-70559887D01*
X155211002Y-70590418D01*
X155211005Y-70590428D01*
X155311353Y-70832690D01*
X155311358Y-70832700D01*
X155442475Y-71059803D01*
X155602118Y-71267851D01*
X155602126Y-71267860D01*
X155787540Y-71453274D01*
X155787548Y-71453281D01*
X155995596Y-71612924D01*
X156222699Y-71744041D01*
X156222709Y-71744046D01*
X156403165Y-71818793D01*
X156464981Y-71844398D01*
X156718284Y-71912270D01*
X156978280Y-71946500D01*
X156978287Y-71946500D01*
X157240513Y-71946500D01*
X157240520Y-71946500D01*
X157500516Y-71912270D01*
X157548815Y-71899328D01*
X157618663Y-71900991D01*
X157668588Y-71931422D01*
X161007181Y-75270015D01*
X161040666Y-75331338D01*
X161043500Y-75357696D01*
X161043500Y-108090503D01*
X161023815Y-108157542D01*
X161007181Y-108178184D01*
X155777785Y-113407581D01*
X155716462Y-113441066D01*
X155690104Y-113443900D01*
X151545338Y-113443900D01*
X151478299Y-113424215D01*
X151432544Y-113371411D01*
X151422600Y-113302253D01*
X151451625Y-113238697D01*
X151510403Y-113200923D01*
X151513218Y-113200132D01*
X151541487Y-113192558D01*
X151753488Y-113104744D01*
X151952212Y-112990011D01*
X152134261Y-112850319D01*
X152134265Y-112850314D01*
X152134270Y-112850311D01*
X152296511Y-112688070D01*
X152296514Y-112688065D01*
X152296519Y-112688061D01*
X152436211Y-112506012D01*
X152550944Y-112307288D01*
X152638758Y-112095287D01*
X152698148Y-111873638D01*
X152728100Y-111646134D01*
X152728100Y-111416666D01*
X152698148Y-111189162D01*
X152638758Y-110967513D01*
X152570621Y-110803017D01*
X152550949Y-110755523D01*
X152550946Y-110755517D01*
X152550944Y-110755512D01*
X152436211Y-110556788D01*
X152436208Y-110556785D01*
X152436207Y-110556782D01*
X152296518Y-110374738D01*
X152296511Y-110374730D01*
X152134270Y-110212489D01*
X152134261Y-110212481D01*
X151952217Y-110072792D01*
X151932918Y-110061650D01*
X151830646Y-110002603D01*
X151753490Y-109958057D01*
X151753476Y-109958050D01*
X151541487Y-109870242D01*
X151319838Y-109810852D01*
X151281815Y-109805846D01*
X151092341Y-109780900D01*
X151092334Y-109780900D01*
X150862866Y-109780900D01*
X150862858Y-109780900D01*
X150646315Y-109809409D01*
X150635362Y-109810852D01*
X150541676Y-109835954D01*
X150413712Y-109870242D01*
X150201723Y-109958050D01*
X150201709Y-109958057D01*
X150002982Y-110072792D01*
X149820938Y-110212481D01*
X149658681Y-110374738D01*
X149518992Y-110556782D01*
X149404257Y-110755509D01*
X149404250Y-110755523D01*
X149316442Y-110967512D01*
X149257053Y-111189159D01*
X149257051Y-111189170D01*
X149227100Y-111416658D01*
X149227100Y-111646141D01*
X149244083Y-111775134D01*
X149257052Y-111873638D01*
X149257053Y-111873640D01*
X149316442Y-112095287D01*
X149404250Y-112307276D01*
X149404257Y-112307290D01*
X149518992Y-112506017D01*
X149658681Y-112688061D01*
X149658689Y-112688070D01*
X149820930Y-112850311D01*
X149820938Y-112850318D01*
X149820939Y-112850319D01*
X149871562Y-112889164D01*
X150002982Y-112990007D01*
X150002985Y-112990008D01*
X150002988Y-112990011D01*
X150201712Y-113104744D01*
X150201717Y-113104746D01*
X150201723Y-113104749D01*
X150236155Y-113119011D01*
X150413713Y-113192558D01*
X150441955Y-113200125D01*
X150501616Y-113236490D01*
X150532145Y-113299337D01*
X150523850Y-113368712D01*
X150479365Y-113422590D01*
X150412813Y-113443865D01*
X150409862Y-113443900D01*
X148424097Y-113443900D01*
X148357058Y-113424215D01*
X148336416Y-113407581D01*
X147475819Y-112546984D01*
X147442334Y-112485661D01*
X147439500Y-112459303D01*
X147439500Y-109333495D01*
X147459185Y-109266456D01*
X147475814Y-109245818D01*
X148392000Y-108329632D01*
X148453321Y-108296149D01*
X148523012Y-108301133D01*
X148567360Y-108329634D01*
X148662954Y-108425228D01*
X148822195Y-108540924D01*
X148905055Y-108583143D01*
X148997570Y-108630282D01*
X148997572Y-108630282D01*
X148997575Y-108630284D01*
X149040081Y-108644095D01*
X149184773Y-108691109D01*
X149379178Y-108721900D01*
X149379183Y-108721900D01*
X149576022Y-108721900D01*
X149770426Y-108691109D01*
X149798562Y-108681967D01*
X149957625Y-108630284D01*
X150133005Y-108540924D01*
X150292246Y-108425228D01*
X150431428Y-108286046D01*
X150547124Y-108126805D01*
X150636484Y-107951425D01*
X150697309Y-107764226D01*
X150718862Y-107628147D01*
X150728100Y-107569822D01*
X150728100Y-106852977D01*
X150697309Y-106658573D01*
X150664672Y-106558129D01*
X150636484Y-106471375D01*
X150636482Y-106471372D01*
X150636482Y-106471370D01*
X150548453Y-106298604D01*
X150547124Y-106295995D01*
X150431428Y-106136754D01*
X150292246Y-105997572D01*
X150133005Y-105881876D01*
X149957629Y-105792517D01*
X149770426Y-105731690D01*
X149576022Y-105700900D01*
X149576017Y-105700900D01*
X149379183Y-105700900D01*
X149379178Y-105700900D01*
X149184773Y-105731690D01*
X148997570Y-105792517D01*
X148822194Y-105881876D01*
X148766234Y-105922534D01*
X148662954Y-105997572D01*
X148662952Y-105997574D01*
X148662951Y-105997574D01*
X148523774Y-106136751D01*
X148523767Y-106136760D01*
X148512850Y-106151786D01*
X148457520Y-106194452D01*
X148412533Y-106202900D01*
X147984666Y-106202900D01*
X147789838Y-106241654D01*
X147789830Y-106241656D01*
X147638113Y-106304500D01*
X147638112Y-106304500D01*
X147606302Y-106317675D01*
X147606289Y-106317682D01*
X147441119Y-106428046D01*
X147441115Y-106428049D01*
X146195784Y-107673382D01*
X145788119Y-108081047D01*
X145744971Y-108124195D01*
X145647645Y-108221520D01*
X145537282Y-108386689D01*
X145537277Y-108386698D01*
X145461256Y-108570230D01*
X145461254Y-108570238D01*
X145422500Y-108765066D01*
X145422500Y-113027733D01*
X145461254Y-113222561D01*
X145461256Y-113222569D01*
X145485832Y-113281900D01*
X145537277Y-113406101D01*
X145537282Y-113406110D01*
X145647646Y-113571280D01*
X145647649Y-113571284D01*
X146011084Y-113934719D01*
X146011090Y-113934724D01*
X146959584Y-114883219D01*
X146993069Y-114944542D01*
X146988085Y-115014234D01*
X146946213Y-115070167D01*
X146880749Y-115094584D01*
X146871903Y-115094900D01*
X130484379Y-115094900D01*
X130417340Y-115075215D01*
X130371585Y-115022411D01*
X130360379Y-114970900D01*
X130360379Y-110507992D01*
X132539388Y-110507992D01*
X132539388Y-110777619D01*
X132569574Y-111045525D01*
X132569575Y-111045534D01*
X132569576Y-111045538D01*
X132575413Y-111071112D01*
X132629572Y-111308400D01*
X132629575Y-111308408D01*
X132718622Y-111562888D01*
X132835602Y-111805800D01*
X132835604Y-111805803D01*
X132979050Y-112034095D01*
X133147154Y-112244891D01*
X133337803Y-112435540D01*
X133548599Y-112603644D01*
X133776891Y-112747090D01*
X134019809Y-112864073D01*
X134210937Y-112930951D01*
X134274285Y-112953118D01*
X134274293Y-112953121D01*
X134274296Y-112953121D01*
X134274297Y-112953122D01*
X134537156Y-113013118D01*
X134805075Y-113043305D01*
X134805076Y-113043306D01*
X134805079Y-113043306D01*
X135074700Y-113043306D01*
X135074700Y-113043305D01*
X135342620Y-113013118D01*
X135605479Y-112953122D01*
X135859967Y-112864073D01*
X136102885Y-112747090D01*
X136331177Y-112603644D01*
X136541973Y-112435540D01*
X136732622Y-112244891D01*
X136900726Y-112034095D01*
X137044172Y-111805803D01*
X137161155Y-111562885D01*
X137250204Y-111308397D01*
X137310200Y-111045538D01*
X137340388Y-110777615D01*
X137340388Y-110507997D01*
X137310200Y-110240074D01*
X137250204Y-109977215D01*
X137161155Y-109722727D01*
X137044172Y-109479809D01*
X136900726Y-109251517D01*
X136732622Y-109040721D01*
X136541973Y-108850072D01*
X136529843Y-108840399D01*
X136488437Y-108807379D01*
X136331177Y-108681968D01*
X136143613Y-108564113D01*
X136102882Y-108538520D01*
X135859970Y-108421540D01*
X135605490Y-108332493D01*
X135605482Y-108332490D01*
X135401995Y-108286046D01*
X135342620Y-108272494D01*
X135342616Y-108272493D01*
X135342607Y-108272492D01*
X135074701Y-108242306D01*
X135074697Y-108242306D01*
X134805079Y-108242306D01*
X134805074Y-108242306D01*
X134537168Y-108272492D01*
X134537156Y-108272494D01*
X134274293Y-108332490D01*
X134274285Y-108332493D01*
X134019805Y-108421540D01*
X133776893Y-108538520D01*
X133548600Y-108681967D01*
X133337803Y-108850071D01*
X133147153Y-109040721D01*
X132979049Y-109251518D01*
X132835602Y-109479811D01*
X132718622Y-109722723D01*
X132629575Y-109977203D01*
X132629572Y-109977211D01*
X132569576Y-110240074D01*
X132569574Y-110240086D01*
X132539388Y-110507992D01*
X130360379Y-110507992D01*
X130360379Y-68099666D01*
X135618100Y-68099666D01*
X135618100Y-77721733D01*
X135656854Y-77916561D01*
X135656856Y-77916569D01*
X135718586Y-78065597D01*
X135732880Y-78100107D01*
X135843246Y-78265280D01*
X135843249Y-78265284D01*
X137550381Y-79972415D01*
X137583866Y-80033738D01*
X137586700Y-80060096D01*
X137586700Y-80730870D01*
X137586701Y-80730876D01*
X137593108Y-80790483D01*
X137643402Y-80925328D01*
X137643406Y-80925335D01*
X137729652Y-81040544D01*
X137729655Y-81040547D01*
X137844864Y-81126793D01*
X137844871Y-81126797D01*
X137889818Y-81143561D01*
X137979717Y-81177091D01*
X138039327Y-81183500D01*
X138710103Y-81183499D01*
X138777142Y-81203183D01*
X138797784Y-81219818D01*
X140216847Y-82638881D01*
X140349842Y-82771876D01*
X140357320Y-82779354D01*
X140522489Y-82889717D01*
X140522495Y-82889720D01*
X140522496Y-82889721D01*
X140706031Y-82965744D01*
X140900866Y-83004499D01*
X140900870Y-83004500D01*
X140900871Y-83004500D01*
X143365643Y-83004500D01*
X143432682Y-83024185D01*
X143464014Y-83053008D01*
X143540481Y-83152661D01*
X143540485Y-83152665D01*
X143540489Y-83152670D01*
X143702733Y-83314914D01*
X143702740Y-83314920D01*
X143802386Y-83391381D01*
X143843589Y-83447809D01*
X143850900Y-83489757D01*
X143850900Y-84058904D01*
X143831215Y-84125943D01*
X143814581Y-84146585D01*
X139666719Y-88294447D01*
X139621770Y-88339396D01*
X139526245Y-88434920D01*
X139415882Y-88600089D01*
X139415877Y-88600098D01*
X139339856Y-88783630D01*
X139339854Y-88783638D01*
X139301100Y-88978466D01*
X139301100Y-90883753D01*
X139281415Y-90950792D01*
X139228611Y-90996547D01*
X139159453Y-91006491D01*
X139095897Y-90977466D01*
X139089419Y-90971434D01*
X139048613Y-90930628D01*
X138883013Y-90810315D01*
X138883012Y-90810314D01*
X138883010Y-90810313D01*
X138813805Y-90775051D01*
X138700623Y-90717381D01*
X138505934Y-90654122D01*
X138331395Y-90626478D01*
X138303752Y-90622100D01*
X138099048Y-90622100D01*
X138074729Y-90625951D01*
X137896865Y-90654122D01*
X137702176Y-90717381D01*
X137519786Y-90810315D01*
X137354186Y-90930628D01*
X137209428Y-91075386D01*
X137089115Y-91240986D01*
X136996181Y-91423376D01*
X136932922Y-91618065D01*
X136900900Y-91820248D01*
X136900900Y-92024951D01*
X136932922Y-92227134D01*
X136996181Y-92421823D01*
X137089115Y-92604213D01*
X137209428Y-92769813D01*
X137354186Y-92914571D01*
X137509149Y-93027156D01*
X137519790Y-93034887D01*
X137636007Y-93094103D01*
X137702176Y-93127818D01*
X137702178Y-93127818D01*
X137702181Y-93127820D01*
X137806537Y-93161727D01*
X137896865Y-93191077D01*
X137997957Y-93207088D01*
X138099048Y-93223100D01*
X138099049Y-93223100D01*
X138303751Y-93223100D01*
X138303752Y-93223100D01*
X138505934Y-93191077D01*
X138700619Y-93127820D01*
X138883010Y-93034887D01*
X138996268Y-92952601D01*
X139048613Y-92914571D01*
X139048615Y-92914568D01*
X139048619Y-92914566D01*
X139089419Y-92873766D01*
X139150742Y-92840281D01*
X139220434Y-92845265D01*
X139276367Y-92887137D01*
X139300784Y-92952601D01*
X139301100Y-92961447D01*
X139301100Y-98141607D01*
X139281415Y-98208646D01*
X139228611Y-98254401D01*
X139159453Y-98264345D01*
X139133770Y-98257790D01*
X139108884Y-98248509D01*
X139108883Y-98248508D01*
X139049283Y-98242101D01*
X139049281Y-98242100D01*
X139049273Y-98242100D01*
X139049264Y-98242100D01*
X137353529Y-98242100D01*
X137353523Y-98242101D01*
X137293916Y-98248508D01*
X137159071Y-98298802D01*
X137159064Y-98298806D01*
X137043855Y-98385052D01*
X137043852Y-98385055D01*
X136957606Y-98500264D01*
X136957602Y-98500271D01*
X136907308Y-98635117D01*
X136900901Y-98694716D01*
X136900900Y-98694735D01*
X136900900Y-100390470D01*
X136900901Y-100390476D01*
X136907308Y-100450083D01*
X136957602Y-100584928D01*
X136957606Y-100584935D01*
X137026758Y-100677309D01*
X137043854Y-100700146D01*
X137143212Y-100774525D01*
X137185082Y-100830458D01*
X137192900Y-100873791D01*
X137192900Y-101927933D01*
X137231654Y-102122762D01*
X137231657Y-102122772D01*
X137253858Y-102176369D01*
X137307677Y-102306301D01*
X137307682Y-102306310D01*
X137418046Y-102471480D01*
X137418049Y-102471484D01*
X138196114Y-103249548D01*
X138211535Y-103268338D01*
X138307046Y-103411280D01*
X138307049Y-103411284D01*
X138447515Y-103551750D01*
X138447519Y-103551753D01*
X138612689Y-103662117D01*
X138612695Y-103662120D01*
X138612696Y-103662121D01*
X138796231Y-103738144D01*
X138991066Y-103776899D01*
X138991070Y-103776900D01*
X138991071Y-103776900D01*
X143744330Y-103776900D01*
X143744331Y-103776899D01*
X143939169Y-103738144D01*
X144122704Y-103662121D01*
X144287881Y-103551753D01*
X144428353Y-103411281D01*
X144567073Y-103272559D01*
X144628392Y-103239077D01*
X144670931Y-103237304D01*
X144795466Y-103253700D01*
X144795473Y-103253700D01*
X145024927Y-103253700D01*
X145024934Y-103253700D01*
X145252438Y-103223748D01*
X145474087Y-103164358D01*
X145686088Y-103076544D01*
X145884812Y-102961811D01*
X146066861Y-102822119D01*
X146066865Y-102822114D01*
X146066870Y-102822111D01*
X146229111Y-102659870D01*
X146229114Y-102659865D01*
X146229119Y-102659861D01*
X146368811Y-102477812D01*
X146483544Y-102279088D01*
X146571358Y-102067087D01*
X146630748Y-101845438D01*
X146660700Y-101617934D01*
X146660700Y-101388466D01*
X146630748Y-101160962D01*
X146571358Y-100939313D01*
X146513244Y-100799014D01*
X146483549Y-100727323D01*
X146483546Y-100727317D01*
X146483544Y-100727312D01*
X146368811Y-100528588D01*
X146368808Y-100528585D01*
X146368807Y-100528582D01*
X146229118Y-100346538D01*
X146229111Y-100346530D01*
X146066870Y-100184289D01*
X146066861Y-100184281D01*
X145884817Y-100044592D01*
X145686090Y-99929857D01*
X145686076Y-99929850D01*
X145474087Y-99842042D01*
X145452564Y-99836275D01*
X145252438Y-99782652D01*
X145214415Y-99777646D01*
X145024941Y-99752700D01*
X145024934Y-99752700D01*
X144795466Y-99752700D01*
X144795458Y-99752700D01*
X144578915Y-99781209D01*
X144567962Y-99782652D01*
X144500400Y-99800755D01*
X144346312Y-99842042D01*
X144134323Y-99929850D01*
X144134309Y-99929857D01*
X143935582Y-100044592D01*
X143753538Y-100184281D01*
X143591281Y-100346538D01*
X143451592Y-100528582D01*
X143336857Y-100727309D01*
X143336850Y-100727323D01*
X143249042Y-100939312D01*
X143214754Y-101067276D01*
X143206296Y-101098847D01*
X143189653Y-101160959D01*
X143189651Y-101160970D01*
X143159700Y-101388458D01*
X143159700Y-101617934D01*
X143159935Y-101619720D01*
X143159851Y-101620254D01*
X143159965Y-101621985D01*
X143159577Y-101622010D01*
X143149166Y-101688755D01*
X143102784Y-101741009D01*
X143036995Y-101759900D01*
X139610296Y-101759900D01*
X139543257Y-101740215D01*
X139522615Y-101723581D01*
X139246219Y-101447185D01*
X139212734Y-101385862D01*
X139209900Y-101359504D01*
X139209900Y-100873791D01*
X139229585Y-100806752D01*
X139259586Y-100774526D01*
X139358946Y-100700146D01*
X139401586Y-100643185D01*
X139433326Y-100600788D01*
X139489260Y-100558918D01*
X139532592Y-100551100D01*
X139951730Y-100551100D01*
X139951731Y-100551099D01*
X140146569Y-100512344D01*
X140330104Y-100436321D01*
X140495281Y-100325953D01*
X140635753Y-100185481D01*
X141092953Y-99728281D01*
X141203321Y-99563104D01*
X141279344Y-99379569D01*
X141284958Y-99351344D01*
X141314651Y-99202070D01*
X141318100Y-99184731D01*
X141318100Y-96939596D01*
X141337785Y-96872557D01*
X141390589Y-96826802D01*
X141459747Y-96816858D01*
X141523303Y-96845883D01*
X141529781Y-96851915D01*
X141638340Y-96960474D01*
X141638348Y-96960481D01*
X141846396Y-97120124D01*
X142073499Y-97251241D01*
X142073509Y-97251246D01*
X142313205Y-97350531D01*
X142315781Y-97351598D01*
X142569084Y-97419470D01*
X142829080Y-97453700D01*
X142829087Y-97453700D01*
X143091313Y-97453700D01*
X143091320Y-97453700D01*
X143351316Y-97419470D01*
X143604619Y-97351598D01*
X143846897Y-97251243D01*
X144074003Y-97120124D01*
X144282051Y-96960482D01*
X144282055Y-96960477D01*
X144282060Y-96960474D01*
X144467474Y-96775060D01*
X144467477Y-96775055D01*
X144467482Y-96775051D01*
X144627124Y-96567003D01*
X144652124Y-96523700D01*
X144702691Y-96475485D01*
X144759512Y-96461700D01*
X145555504Y-96461700D01*
X145622543Y-96481385D01*
X145643185Y-96498019D01*
X151408781Y-102263615D01*
X151442266Y-102324938D01*
X151445100Y-102351296D01*
X151445100Y-105871172D01*
X151425415Y-105938211D01*
X151408781Y-105958853D01*
X151384889Y-105982744D01*
X151384886Y-105982748D01*
X151292787Y-106132062D01*
X151292786Y-106132064D01*
X151237601Y-106298603D01*
X151237600Y-106298604D01*
X151227100Y-106401384D01*
X151227100Y-108021415D01*
X151237600Y-108124195D01*
X151237601Y-108124197D01*
X151255491Y-108178184D01*
X151292786Y-108290735D01*
X151292787Y-108290737D01*
X151384886Y-108440051D01*
X151384889Y-108440055D01*
X151508944Y-108564110D01*
X151508948Y-108564113D01*
X151658262Y-108656212D01*
X151658264Y-108656213D01*
X151658266Y-108656214D01*
X151824803Y-108711399D01*
X151927592Y-108721900D01*
X151927597Y-108721900D01*
X153027603Y-108721900D01*
X153027608Y-108721900D01*
X153130397Y-108711399D01*
X153296934Y-108656214D01*
X153446255Y-108564111D01*
X153570311Y-108440055D01*
X153662414Y-108290734D01*
X153717599Y-108124197D01*
X153728100Y-108021408D01*
X153728100Y-106401392D01*
X153717599Y-106298603D01*
X153662414Y-106132066D01*
X153659261Y-106126955D01*
X153570313Y-105982748D01*
X153570310Y-105982744D01*
X153498419Y-105910853D01*
X153464934Y-105849530D01*
X153462100Y-105823172D01*
X153462100Y-101782870D01*
X153462099Y-101782866D01*
X153453615Y-101740215D01*
X153423344Y-101588031D01*
X153347321Y-101404496D01*
X153347319Y-101404493D01*
X153347317Y-101404489D01*
X153325657Y-101372072D01*
X155109700Y-101372072D01*
X155109700Y-101634327D01*
X155134080Y-101819500D01*
X155143930Y-101894316D01*
X155211802Y-102147618D01*
X155211805Y-102147628D01*
X155312153Y-102389890D01*
X155312158Y-102389900D01*
X155443275Y-102617003D01*
X155602918Y-102825051D01*
X155602926Y-102825060D01*
X155788340Y-103010474D01*
X155788348Y-103010481D01*
X155996396Y-103170124D01*
X156223499Y-103301241D01*
X156223509Y-103301246D01*
X156465771Y-103401594D01*
X156465781Y-103401598D01*
X156719084Y-103469470D01*
X156979080Y-103503700D01*
X156979087Y-103503700D01*
X157241313Y-103503700D01*
X157241320Y-103503700D01*
X157501316Y-103469470D01*
X157754619Y-103401598D01*
X157996897Y-103301243D01*
X158224003Y-103170124D01*
X158432051Y-103010482D01*
X158432055Y-103010477D01*
X158432060Y-103010474D01*
X158617474Y-102825060D01*
X158617477Y-102825055D01*
X158617482Y-102825051D01*
X158777124Y-102617003D01*
X158908243Y-102389897D01*
X159008598Y-102147619D01*
X159076470Y-101894316D01*
X159110700Y-101634320D01*
X159110700Y-101372080D01*
X159076470Y-101112084D01*
X159008598Y-100858781D01*
X158973698Y-100774524D01*
X158908246Y-100616509D01*
X158908241Y-100616499D01*
X158777124Y-100389396D01*
X158628578Y-100195810D01*
X158617482Y-100181349D01*
X158617481Y-100181348D01*
X158617474Y-100181340D01*
X158432060Y-99995926D01*
X158432051Y-99995918D01*
X158224003Y-99836275D01*
X157996900Y-99705158D01*
X157996890Y-99705153D01*
X157754628Y-99604805D01*
X157754621Y-99604803D01*
X157754619Y-99604802D01*
X157501316Y-99536930D01*
X157443539Y-99529323D01*
X157241327Y-99502700D01*
X157241320Y-99502700D01*
X156979080Y-99502700D01*
X156979072Y-99502700D01*
X156761763Y-99531311D01*
X156719084Y-99536930D01*
X156511342Y-99592594D01*
X156465781Y-99604802D01*
X156465771Y-99604805D01*
X156223509Y-99705153D01*
X156223499Y-99705158D01*
X155996396Y-99836275D01*
X155788348Y-99995918D01*
X155602918Y-100181348D01*
X155443275Y-100389396D01*
X155312158Y-100616499D01*
X155312153Y-100616509D01*
X155211805Y-100858771D01*
X155211802Y-100858781D01*
X155179827Y-100978116D01*
X155143930Y-101112085D01*
X155109700Y-101372072D01*
X153325657Y-101372072D01*
X153236954Y-101239320D01*
X153233620Y-101235986D01*
X153096481Y-101098847D01*
X149896375Y-97898741D01*
X146667484Y-94669849D01*
X146667480Y-94669846D01*
X146502310Y-94559482D01*
X146502297Y-94559475D01*
X146444692Y-94535615D01*
X146444691Y-94535615D01*
X146318769Y-94483456D01*
X146318761Y-94483454D01*
X146123933Y-94444700D01*
X146123929Y-94444700D01*
X144759512Y-94444700D01*
X144692473Y-94425015D01*
X144652124Y-94382699D01*
X144627122Y-94339394D01*
X144536951Y-94221882D01*
X144467482Y-94131349D01*
X144467481Y-94131348D01*
X144467474Y-94131340D01*
X144282060Y-93945926D01*
X144282051Y-93945918D01*
X144074003Y-93786275D01*
X143846900Y-93655158D01*
X143846890Y-93655153D01*
X143604628Y-93554805D01*
X143604621Y-93554803D01*
X143604619Y-93554802D01*
X143351316Y-93486930D01*
X143293539Y-93479323D01*
X143091327Y-93452700D01*
X143091320Y-93452700D01*
X142829080Y-93452700D01*
X142829072Y-93452700D01*
X142597972Y-93483126D01*
X142569084Y-93486930D01*
X142315781Y-93554802D01*
X142315771Y-93554805D01*
X142073509Y-93655153D01*
X142073499Y-93655158D01*
X141846396Y-93786275D01*
X141638348Y-93945918D01*
X141529781Y-94054485D01*
X141468458Y-94087970D01*
X141398766Y-94082986D01*
X141342833Y-94041114D01*
X141318416Y-93975650D01*
X141318100Y-93966804D01*
X141318100Y-89546896D01*
X141326744Y-89517455D01*
X141333268Y-89487469D01*
X141337022Y-89482453D01*
X141337785Y-89479857D01*
X141354419Y-89459215D01*
X141425176Y-89388458D01*
X143159700Y-89388458D01*
X143159700Y-89617941D01*
X143184646Y-89807415D01*
X143189652Y-89845438D01*
X143249042Y-90067087D01*
X143336850Y-90279076D01*
X143336857Y-90279090D01*
X143451592Y-90477817D01*
X143591281Y-90659861D01*
X143591289Y-90659870D01*
X143753530Y-90822111D01*
X143753538Y-90822118D01*
X143935582Y-90961807D01*
X143935585Y-90961808D01*
X143935588Y-90961811D01*
X144134312Y-91076544D01*
X144134317Y-91076546D01*
X144134323Y-91076549D01*
X144225680Y-91114390D01*
X144346313Y-91164358D01*
X144567962Y-91223748D01*
X144795466Y-91253700D01*
X144795473Y-91253700D01*
X145024927Y-91253700D01*
X145024934Y-91253700D01*
X145252438Y-91223748D01*
X145474087Y-91164358D01*
X145686088Y-91076544D01*
X145884812Y-90961811D01*
X146066861Y-90822119D01*
X146066865Y-90822114D01*
X146066870Y-90822111D01*
X146229111Y-90659870D01*
X146229114Y-90659865D01*
X146229119Y-90659861D01*
X146368811Y-90477812D01*
X146483544Y-90279088D01*
X146571358Y-90067087D01*
X146630748Y-89845438D01*
X146660700Y-89617934D01*
X146660700Y-89388466D01*
X146630748Y-89160962D01*
X146571358Y-88939313D01*
X146483544Y-88727312D01*
X146368811Y-88528588D01*
X146368808Y-88528585D01*
X146368807Y-88528582D01*
X146240888Y-88361877D01*
X146229119Y-88346539D01*
X146229118Y-88346538D01*
X146229111Y-88346530D01*
X146066870Y-88184289D01*
X146066861Y-88184281D01*
X145884817Y-88044592D01*
X145686090Y-87929857D01*
X145686076Y-87929850D01*
X145474087Y-87842042D01*
X145384203Y-87817958D01*
X145252438Y-87782652D01*
X145214415Y-87777646D01*
X145024941Y-87752700D01*
X145024934Y-87752700D01*
X144795466Y-87752700D01*
X144795458Y-87752700D01*
X144578915Y-87781209D01*
X144567962Y-87782652D01*
X144474276Y-87807754D01*
X144346312Y-87842042D01*
X144134323Y-87929850D01*
X144134309Y-87929857D01*
X143935582Y-88044592D01*
X143753538Y-88184281D01*
X143591281Y-88346538D01*
X143451592Y-88528582D01*
X143336857Y-88727309D01*
X143336850Y-88727323D01*
X143249042Y-88939312D01*
X143189653Y-89160959D01*
X143189651Y-89160970D01*
X143159700Y-89388458D01*
X141425176Y-89388458D01*
X145642750Y-85170884D01*
X145642753Y-85170881D01*
X145753122Y-85005704D01*
X145829144Y-84822168D01*
X145867900Y-84627329D01*
X145867900Y-84428671D01*
X145867900Y-83489757D01*
X145887585Y-83422718D01*
X145916414Y-83391381D01*
X146012228Y-83317860D01*
X146016061Y-83314919D01*
X146016066Y-83314914D01*
X146178311Y-83152670D01*
X146178314Y-83152665D01*
X146178319Y-83152661D01*
X146318011Y-82970612D01*
X146432744Y-82771888D01*
X146520558Y-82559887D01*
X146579948Y-82338238D01*
X146609900Y-82110734D01*
X146609900Y-81881266D01*
X146579948Y-81653762D01*
X146520558Y-81432113D01*
X146452485Y-81267770D01*
X146432749Y-81220123D01*
X146432746Y-81220117D01*
X146432744Y-81220112D01*
X146318011Y-81021388D01*
X146318008Y-81021385D01*
X146318007Y-81021382D01*
X146178318Y-80839338D01*
X146178311Y-80839330D01*
X146016070Y-80677089D01*
X146016061Y-80677081D01*
X145834017Y-80537392D01*
X145635290Y-80422657D01*
X145635276Y-80422650D01*
X145423287Y-80334842D01*
X145401764Y-80329075D01*
X145201638Y-80275452D01*
X145163615Y-80270446D01*
X144974141Y-80245500D01*
X144974134Y-80245500D01*
X144744666Y-80245500D01*
X144744658Y-80245500D01*
X144528115Y-80274009D01*
X144517162Y-80275452D01*
X144423476Y-80300554D01*
X144295512Y-80334842D01*
X144083523Y-80422650D01*
X144083509Y-80422657D01*
X143884782Y-80537392D01*
X143702738Y-80677081D01*
X143702730Y-80677089D01*
X143540489Y-80839329D01*
X143540482Y-80839337D01*
X143540481Y-80839339D01*
X143464016Y-80938989D01*
X143407591Y-80980189D01*
X143365643Y-80987500D01*
X141469296Y-80987500D01*
X141402257Y-80967815D01*
X141381615Y-80951181D01*
X140224018Y-79793584D01*
X140190533Y-79732261D01*
X140187699Y-79705903D01*
X140187699Y-79035129D01*
X140187698Y-79035123D01*
X140186453Y-79023542D01*
X140181291Y-78975517D01*
X140154339Y-78903256D01*
X140130997Y-78840671D01*
X140130993Y-78840664D01*
X140044747Y-78725455D01*
X140044744Y-78725452D01*
X139929535Y-78639206D01*
X139929528Y-78639202D01*
X139794682Y-78588908D01*
X139794683Y-78588908D01*
X139735083Y-78582501D01*
X139735081Y-78582500D01*
X139735073Y-78582500D01*
X139735065Y-78582500D01*
X139064296Y-78582500D01*
X138997257Y-78562815D01*
X138976615Y-78546181D01*
X137671419Y-77240985D01*
X137637934Y-77179662D01*
X137635100Y-77153304D01*
X137635100Y-75814872D01*
X140908900Y-75814872D01*
X140908900Y-76077127D01*
X140935523Y-76279339D01*
X140943130Y-76337116D01*
X141011002Y-76590418D01*
X141011005Y-76590428D01*
X141111353Y-76832690D01*
X141111358Y-76832700D01*
X141242475Y-77059803D01*
X141402118Y-77267851D01*
X141402126Y-77267860D01*
X141587540Y-77453274D01*
X141587548Y-77453281D01*
X141587549Y-77453282D01*
X141624016Y-77481264D01*
X141795596Y-77612924D01*
X142022699Y-77744041D01*
X142022709Y-77744046D01*
X142245469Y-77836316D01*
X142264981Y-77844398D01*
X142518284Y-77912270D01*
X142778280Y-77946500D01*
X142778287Y-77946500D01*
X143040513Y-77946500D01*
X143040520Y-77946500D01*
X143300516Y-77912270D01*
X143553819Y-77844398D01*
X143796097Y-77744043D01*
X143977261Y-77639447D01*
X144002611Y-77628377D01*
X144604200Y-77442359D01*
X144674062Y-77441362D01*
X144728511Y-77473145D01*
X155127031Y-87871665D01*
X155160516Y-87932988D01*
X155162925Y-87949093D01*
X155238981Y-88865782D01*
X155235181Y-88908127D01*
X155193932Y-89062076D01*
X155193930Y-89062084D01*
X155193930Y-89062085D01*
X155193929Y-89062092D01*
X155159700Y-89322072D01*
X155159700Y-89584327D01*
X155164125Y-89617934D01*
X155193930Y-89844316D01*
X155253621Y-90067087D01*
X155261802Y-90097618D01*
X155261805Y-90097628D01*
X155362153Y-90339890D01*
X155362158Y-90339900D01*
X155493275Y-90567003D01*
X155652918Y-90775051D01*
X155652926Y-90775060D01*
X155838340Y-90960474D01*
X155838348Y-90960481D01*
X156046396Y-91120124D01*
X156273499Y-91251241D01*
X156273509Y-91251246D01*
X156506679Y-91347828D01*
X156515781Y-91351598D01*
X156769084Y-91419470D01*
X157029080Y-91453700D01*
X157029087Y-91453700D01*
X157291313Y-91453700D01*
X157291320Y-91453700D01*
X157551316Y-91419470D01*
X157804619Y-91351598D01*
X157981540Y-91278314D01*
X158046890Y-91251246D01*
X158046891Y-91251245D01*
X158046897Y-91251243D01*
X158274003Y-91120124D01*
X158482051Y-90960482D01*
X158482055Y-90960477D01*
X158482060Y-90960474D01*
X158667474Y-90775060D01*
X158667477Y-90775055D01*
X158667482Y-90775051D01*
X158827124Y-90567003D01*
X158958243Y-90339897D01*
X159058598Y-90097619D01*
X159126470Y-89844316D01*
X159160700Y-89584320D01*
X159160700Y-89322080D01*
X159126470Y-89062084D01*
X159058598Y-88808781D01*
X159058594Y-88808771D01*
X158958246Y-88566509D01*
X158958241Y-88566499D01*
X158827124Y-88339396D01*
X158694685Y-88166800D01*
X158667482Y-88131349D01*
X158667481Y-88131348D01*
X158667474Y-88131340D01*
X158482060Y-87945926D01*
X158482051Y-87945918D01*
X158274003Y-87786275D01*
X158046900Y-87655158D01*
X158046890Y-87655154D01*
X157804619Y-87554802D01*
X157780358Y-87548301D01*
X157729128Y-87520357D01*
X157662553Y-87459947D01*
X157165743Y-87009141D01*
X156714629Y-86599799D01*
X156678077Y-86569295D01*
X156678351Y-86568966D01*
X156669075Y-86561241D01*
X152056336Y-81948502D01*
X151972706Y-81864872D01*
X155058900Y-81864872D01*
X155058900Y-82127127D01*
X155064831Y-82172172D01*
X155093130Y-82387116D01*
X155161002Y-82640418D01*
X155161005Y-82640428D01*
X155261353Y-82882690D01*
X155261358Y-82882700D01*
X155392475Y-83109803D01*
X155552118Y-83317851D01*
X155552126Y-83317860D01*
X155737540Y-83503274D01*
X155737548Y-83503281D01*
X155945596Y-83662924D01*
X156172699Y-83794041D01*
X156172709Y-83794046D01*
X156414971Y-83894394D01*
X156414981Y-83894398D01*
X156668284Y-83962270D01*
X156928280Y-83996500D01*
X156928287Y-83996500D01*
X157190513Y-83996500D01*
X157190520Y-83996500D01*
X157450516Y-83962270D01*
X157703819Y-83894398D01*
X157946097Y-83794043D01*
X158173203Y-83662924D01*
X158381251Y-83503282D01*
X158381255Y-83503277D01*
X158381260Y-83503274D01*
X158566674Y-83317860D01*
X158566677Y-83317855D01*
X158566682Y-83317851D01*
X158726324Y-83109803D01*
X158857443Y-82882697D01*
X158957798Y-82640419D01*
X159025670Y-82387116D01*
X159059900Y-82127120D01*
X159059900Y-81864880D01*
X159025670Y-81604884D01*
X158957798Y-81351581D01*
X158953421Y-81341014D01*
X158857446Y-81109309D01*
X158857441Y-81109299D01*
X158726324Y-80882196D01*
X158566681Y-80674148D01*
X158566674Y-80674140D01*
X158381260Y-80488726D01*
X158381251Y-80488718D01*
X158173203Y-80329075D01*
X157946100Y-80197958D01*
X157946090Y-80197953D01*
X157703828Y-80097605D01*
X157703821Y-80097603D01*
X157703819Y-80097602D01*
X157450516Y-80029730D01*
X157392739Y-80022123D01*
X157190527Y-79995500D01*
X157190520Y-79995500D01*
X156928280Y-79995500D01*
X156928272Y-79995500D01*
X156697172Y-80025926D01*
X156668284Y-80029730D01*
X156414981Y-80097602D01*
X156414971Y-80097605D01*
X156172709Y-80197953D01*
X156172699Y-80197958D01*
X155945596Y-80329075D01*
X155737548Y-80488718D01*
X155552118Y-80674148D01*
X155392475Y-80882196D01*
X155261358Y-81109299D01*
X155261353Y-81109309D01*
X155161005Y-81351571D01*
X155161002Y-81351581D01*
X155093130Y-81604884D01*
X155092880Y-81606781D01*
X155058900Y-81864872D01*
X151972706Y-81864872D01*
X145270484Y-75162649D01*
X145270480Y-75162646D01*
X145105310Y-75052282D01*
X145105301Y-75052277D01*
X144921769Y-74976256D01*
X144921761Y-74976254D01*
X144726933Y-74937500D01*
X144726929Y-74937500D01*
X144718831Y-74937500D01*
X144700083Y-74931995D01*
X144680553Y-74931444D01*
X144654322Y-74918557D01*
X144651792Y-74917815D01*
X144648875Y-74915882D01*
X144632163Y-74904463D01*
X144594731Y-74864080D01*
X144576322Y-74832194D01*
X144416681Y-74624148D01*
X144416674Y-74624140D01*
X144231260Y-74438726D01*
X144231251Y-74438718D01*
X144023203Y-74279075D01*
X143796100Y-74147958D01*
X143796090Y-74147953D01*
X143553828Y-74047605D01*
X143553821Y-74047603D01*
X143553819Y-74047602D01*
X143300516Y-73979730D01*
X143242739Y-73972123D01*
X143040527Y-73945500D01*
X143040520Y-73945500D01*
X142778280Y-73945500D01*
X142778272Y-73945500D01*
X142547172Y-73975926D01*
X142518284Y-73979730D01*
X142264981Y-74047602D01*
X142264971Y-74047605D01*
X142022709Y-74147953D01*
X142022699Y-74147958D01*
X141795596Y-74279075D01*
X141587548Y-74438718D01*
X141402118Y-74624148D01*
X141242475Y-74832196D01*
X141111358Y-75059299D01*
X141111353Y-75059309D01*
X141011005Y-75301571D01*
X141011002Y-75301581D01*
X140971215Y-75450071D01*
X140943130Y-75554885D01*
X140908900Y-75814872D01*
X137635100Y-75814872D01*
X137635100Y-73133808D01*
X137654785Y-73066769D01*
X137707589Y-73021014D01*
X137776747Y-73011070D01*
X137840303Y-73040095D01*
X137859419Y-73060923D01*
X137895234Y-73110219D01*
X138039986Y-73254971D01*
X138194949Y-73367556D01*
X138205590Y-73375287D01*
X138321807Y-73434503D01*
X138387976Y-73468218D01*
X138387978Y-73468218D01*
X138387981Y-73468220D01*
X138492337Y-73502127D01*
X138582665Y-73531477D01*
X138683757Y-73547488D01*
X138784848Y-73563500D01*
X138784849Y-73563500D01*
X138989551Y-73563500D01*
X138989552Y-73563500D01*
X139191734Y-73531477D01*
X139386419Y-73468220D01*
X139568810Y-73375287D01*
X139661790Y-73307732D01*
X139734413Y-73254971D01*
X139734415Y-73254968D01*
X139734419Y-73254966D01*
X139879166Y-73110219D01*
X139879168Y-73110215D01*
X139879171Y-73110213D01*
X139951201Y-73011070D01*
X139999487Y-72944610D01*
X140092420Y-72762219D01*
X140155677Y-72567534D01*
X140187700Y-72365352D01*
X140187700Y-72160648D01*
X140157680Y-71971112D01*
X140155677Y-71958465D01*
X140103216Y-71797008D01*
X140092420Y-71763781D01*
X140092418Y-71763778D01*
X140092418Y-71763776D01*
X140058703Y-71697607D01*
X139999487Y-71581390D01*
X139950323Y-71513721D01*
X139879171Y-71415786D01*
X139734413Y-71271028D01*
X139568813Y-71150715D01*
X139568812Y-71150714D01*
X139568810Y-71150713D01*
X139511853Y-71121691D01*
X139386423Y-71057781D01*
X139191734Y-70994522D01*
X139017195Y-70966878D01*
X138989552Y-70962500D01*
X138784848Y-70962500D01*
X138760529Y-70966351D01*
X138582665Y-70994522D01*
X138387976Y-71057781D01*
X138205586Y-71150715D01*
X138039986Y-71271028D01*
X137895232Y-71415782D01*
X137895228Y-71415787D01*
X137859418Y-71465076D01*
X137804088Y-71507742D01*
X137734475Y-71513721D01*
X137672680Y-71481115D01*
X137638323Y-71420277D01*
X137635100Y-71392191D01*
X137635100Y-69881258D01*
X143108900Y-69881258D01*
X143108900Y-70110741D01*
X143130967Y-70278344D01*
X143138852Y-70338238D01*
X143178876Y-70487610D01*
X143198242Y-70559887D01*
X143286050Y-70771876D01*
X143286057Y-70771890D01*
X143400792Y-70970617D01*
X143540481Y-71152661D01*
X143540489Y-71152670D01*
X143702730Y-71314911D01*
X143702738Y-71314918D01*
X143884782Y-71454607D01*
X143884785Y-71454608D01*
X143884788Y-71454611D01*
X144083512Y-71569344D01*
X144083517Y-71569346D01*
X144083523Y-71569349D01*
X144134198Y-71590339D01*
X144295513Y-71657158D01*
X144517162Y-71716548D01*
X144744666Y-71746500D01*
X144744673Y-71746500D01*
X144974127Y-71746500D01*
X144974134Y-71746500D01*
X145201638Y-71716548D01*
X145423287Y-71657158D01*
X145635288Y-71569344D01*
X145834012Y-71454611D01*
X146016061Y-71314919D01*
X146016065Y-71314914D01*
X146016070Y-71314911D01*
X146178311Y-71152670D01*
X146178314Y-71152665D01*
X146178319Y-71152661D01*
X146318011Y-70970612D01*
X146432744Y-70771888D01*
X146520558Y-70559887D01*
X146579948Y-70338238D01*
X146609900Y-70110734D01*
X146609900Y-69881266D01*
X146579948Y-69653762D01*
X146520558Y-69432113D01*
X146432744Y-69220112D01*
X146318011Y-69021388D01*
X146318008Y-69021385D01*
X146318007Y-69021382D01*
X146178318Y-68839338D01*
X146178311Y-68839330D01*
X146016070Y-68677089D01*
X146016061Y-68677081D01*
X145834017Y-68537392D01*
X145635290Y-68422657D01*
X145635276Y-68422650D01*
X145423287Y-68334842D01*
X145201638Y-68275452D01*
X145163615Y-68270446D01*
X144974141Y-68245500D01*
X144974134Y-68245500D01*
X144744666Y-68245500D01*
X144744658Y-68245500D01*
X144528115Y-68274009D01*
X144517162Y-68275452D01*
X144423476Y-68300554D01*
X144295512Y-68334842D01*
X144083523Y-68422650D01*
X144083509Y-68422657D01*
X143884782Y-68537392D01*
X143702738Y-68677081D01*
X143540481Y-68839338D01*
X143400792Y-69021382D01*
X143286057Y-69220109D01*
X143286050Y-69220123D01*
X143198242Y-69432112D01*
X143138853Y-69653759D01*
X143138851Y-69653770D01*
X143108900Y-69881258D01*
X137635100Y-69881258D01*
X137635100Y-68668096D01*
X137654785Y-68601057D01*
X137671419Y-68580415D01*
X138938415Y-67313419D01*
X138999738Y-67279934D01*
X139026096Y-67277100D01*
X190716704Y-67277100D01*
X190783743Y-67296785D01*
X190804385Y-67313419D01*
X191482981Y-67992015D01*
X191516466Y-68053338D01*
X191519300Y-68079696D01*
X191519300Y-69486703D01*
X191499615Y-69553742D01*
X191482981Y-69574384D01*
X190781246Y-70276118D01*
X190719923Y-70309603D01*
X190650231Y-70304619D01*
X190605884Y-70276118D01*
X190484054Y-70154288D01*
X190334739Y-70062188D01*
X190334732Y-70062185D01*
X190319082Y-70056999D01*
X190301795Y-70049779D01*
X190139737Y-69967207D01*
X190139736Y-69967206D01*
X190139733Y-69967205D01*
X190046231Y-69936824D01*
X189912714Y-69893441D01*
X189676956Y-69856101D01*
X189676951Y-69856101D01*
X189438249Y-69856101D01*
X189438244Y-69856101D01*
X189202483Y-69893442D01*
X189202480Y-69893442D01*
X188975468Y-69967203D01*
X188944496Y-69982985D01*
X188888201Y-69996500D01*
X188445384Y-69996500D01*
X188342604Y-70007000D01*
X188342603Y-70007001D01*
X188176064Y-70062186D01*
X188176062Y-70062187D01*
X188026748Y-70154286D01*
X188026744Y-70154289D01*
X187902689Y-70278344D01*
X187902686Y-70278348D01*
X187810587Y-70427662D01*
X187810586Y-70427664D01*
X187755401Y-70594203D01*
X187755400Y-70594204D01*
X187744900Y-70696984D01*
X187744900Y-71797015D01*
X187755400Y-71899795D01*
X187783406Y-71984309D01*
X187789700Y-72023313D01*
X187789700Y-73830825D01*
X187783631Y-73869143D01*
X187776242Y-73891883D01*
X187738901Y-74127643D01*
X187738901Y-74366356D01*
X187776241Y-74602115D01*
X187850006Y-74829137D01*
X187958375Y-75041822D01*
X188098673Y-75234928D01*
X188267471Y-75403726D01*
X188460577Y-75544024D01*
X188460579Y-75544025D01*
X188460582Y-75544027D01*
X188556792Y-75593048D01*
X188673262Y-75652393D01*
X188673264Y-75652393D01*
X188673267Y-75652395D01*
X188794953Y-75691933D01*
X188900284Y-75726158D01*
X189136044Y-75763499D01*
X189136049Y-75763499D01*
X189374756Y-75763499D01*
X189610515Y-75726158D01*
X189837533Y-75652395D01*
X190050218Y-75544027D01*
X190074891Y-75526100D01*
X190243328Y-75403726D01*
X190243330Y-75403723D01*
X190243334Y-75403721D01*
X190462921Y-75184134D01*
X190551913Y-75061646D01*
X190603227Y-74991019D01*
X190711595Y-74778334D01*
X190785358Y-74551315D01*
X190822700Y-74315551D01*
X190822700Y-72481100D01*
X190842385Y-72414061D01*
X190895189Y-72368306D01*
X190946700Y-72357100D01*
X191234330Y-72357100D01*
X191234331Y-72357099D01*
X191429169Y-72318344D01*
X191612704Y-72242321D01*
X191686743Y-72192849D01*
X191753419Y-72171972D01*
X191820799Y-72190456D01*
X191867489Y-72242434D01*
X191878666Y-72311404D01*
X191875408Y-72328044D01*
X191854852Y-72404762D01*
X191854851Y-72404770D01*
X191824900Y-72632258D01*
X191824900Y-72861741D01*
X191835811Y-72944610D01*
X191854852Y-73089238D01*
X191899258Y-73254966D01*
X191914242Y-73310887D01*
X192002050Y-73522876D01*
X192002057Y-73522890D01*
X192116792Y-73721617D01*
X192256481Y-73903661D01*
X192256489Y-73903670D01*
X192418730Y-74065911D01*
X192418738Y-74065918D01*
X192600782Y-74205607D01*
X192600785Y-74205608D01*
X192600788Y-74205611D01*
X192799512Y-74320344D01*
X192799517Y-74320346D01*
X192799523Y-74320349D01*
X192890880Y-74358190D01*
X193011513Y-74408158D01*
X193233162Y-74467548D01*
X193460666Y-74497500D01*
X193460673Y-74497500D01*
X193690127Y-74497500D01*
X193690134Y-74497500D01*
X193917638Y-74467548D01*
X194139287Y-74408158D01*
X194351288Y-74320344D01*
X194550012Y-74205611D01*
X194732061Y-74065919D01*
X194732065Y-74065914D01*
X194732070Y-74065911D01*
X194894311Y-73903670D01*
X194894314Y-73903665D01*
X194894319Y-73903661D01*
X195034011Y-73721612D01*
X195148744Y-73522888D01*
X195236558Y-73310887D01*
X195295948Y-73089238D01*
X195325900Y-72861734D01*
X195325900Y-72632266D01*
X195295948Y-72404762D01*
X195236558Y-72183113D01*
X195186590Y-72062480D01*
X195148749Y-71971123D01*
X195148746Y-71971117D01*
X195148744Y-71971112D01*
X195034011Y-71772388D01*
X195034008Y-71772385D01*
X195034007Y-71772382D01*
X194894318Y-71590338D01*
X194894311Y-71590330D01*
X194732070Y-71428089D01*
X194732061Y-71428081D01*
X194550017Y-71288392D01*
X194351290Y-71173657D01*
X194351276Y-71173650D01*
X194139287Y-71085842D01*
X193917638Y-71026452D01*
X193879615Y-71021446D01*
X193690141Y-70996500D01*
X193690134Y-70996500D01*
X193460666Y-70996500D01*
X193460658Y-70996500D01*
X193244115Y-71025009D01*
X193233162Y-71026452D01*
X193202357Y-71034705D01*
X193132509Y-71033043D01*
X193074647Y-70993880D01*
X193047143Y-70929651D01*
X193058730Y-70860749D01*
X193082585Y-70827250D01*
X193311151Y-70598684D01*
X193311151Y-70598683D01*
X193311154Y-70598681D01*
X193421522Y-70433503D01*
X193497544Y-70249968D01*
X193499494Y-70240168D01*
X193536300Y-70055129D01*
X193536300Y-67494271D01*
X193497544Y-67299431D01*
X193472241Y-67238344D01*
X193421522Y-67115896D01*
X193421520Y-67115894D01*
X193421520Y-67115892D01*
X193311154Y-66950719D01*
X193311151Y-66950715D01*
X193170683Y-66810247D01*
X193129599Y-66782796D01*
X193110809Y-66767375D01*
X191828684Y-65485249D01*
X191828680Y-65485246D01*
X191663504Y-65374879D01*
X191663494Y-65374875D01*
X191479969Y-65298856D01*
X191479961Y-65298854D01*
X191285133Y-65260100D01*
X191285129Y-65260100D01*
X182340263Y-65260100D01*
X182273224Y-65240415D01*
X182227469Y-65187611D01*
X182217525Y-65118453D01*
X182246550Y-65054897D01*
X182305328Y-65017123D01*
X182320865Y-65013627D01*
X182361305Y-65007221D01*
X182548435Y-64946418D01*
X182723743Y-64857095D01*
X182882921Y-64741444D01*
X183022044Y-64602321D01*
X183137695Y-64443143D01*
X183227018Y-64267835D01*
X183287821Y-64080705D01*
X183318600Y-63886382D01*
X183318600Y-63778000D01*
X182513160Y-63778000D01*
X182543845Y-63724853D01*
X182578600Y-63595143D01*
X182578600Y-63460857D01*
X182543845Y-63331147D01*
X182513160Y-63278000D01*
X183318600Y-63278000D01*
X183318600Y-63169617D01*
X183287821Y-62975294D01*
X183227018Y-62788164D01*
X183137695Y-62612856D01*
X183022044Y-62453678D01*
X182882921Y-62314555D01*
X182723743Y-62198904D01*
X182548435Y-62109581D01*
X182361305Y-62048778D01*
X182318600Y-62042014D01*
X182318600Y-63083439D01*
X182265453Y-63052755D01*
X182135743Y-63018000D01*
X182001457Y-63018000D01*
X181871747Y-63052755D01*
X181818600Y-63083439D01*
X181818600Y-62042014D01*
X181818599Y-62042014D01*
X181775894Y-62048778D01*
X181588764Y-62109581D01*
X181413456Y-62198904D01*
X181254278Y-62314555D01*
X181115155Y-62453678D01*
X180999504Y-62612856D01*
X180910181Y-62788164D01*
X180849378Y-62975294D01*
X180818600Y-63169617D01*
X180818600Y-63278000D01*
X181624040Y-63278000D01*
X181593355Y-63331147D01*
X181558600Y-63460857D01*
X181558600Y-63595143D01*
X181593355Y-63724853D01*
X181624040Y-63778000D01*
X180818600Y-63778000D01*
X180818600Y-63886382D01*
X180849378Y-64080705D01*
X180910181Y-64267835D01*
X180999504Y-64443143D01*
X181115155Y-64602321D01*
X181254278Y-64741444D01*
X181413456Y-64857095D01*
X181588764Y-64946418D01*
X181775894Y-65007221D01*
X181816335Y-65013627D01*
X181879470Y-65043556D01*
X181916401Y-65102868D01*
X181915403Y-65172731D01*
X181876793Y-65230963D01*
X181812829Y-65259077D01*
X181796937Y-65260100D01*
X179789386Y-65260100D01*
X179722347Y-65240415D01*
X179676592Y-65187611D01*
X179666648Y-65118453D01*
X179695673Y-65054897D01*
X179750381Y-65018394D01*
X179887934Y-64972814D01*
X180037255Y-64880711D01*
X180161311Y-64756655D01*
X180253414Y-64607334D01*
X180308599Y-64440797D01*
X180319100Y-64338008D01*
X180319100Y-62717992D01*
X180308599Y-62615203D01*
X180253414Y-62448666D01*
X180225171Y-62402878D01*
X180161313Y-62299348D01*
X180161310Y-62299344D01*
X180037255Y-62175289D01*
X180037251Y-62175286D01*
X179887937Y-62083187D01*
X179887935Y-62083186D01*
X179804665Y-62055593D01*
X179721397Y-62028001D01*
X179721395Y-62028000D01*
X179618615Y-62017500D01*
X179618608Y-62017500D01*
X178518592Y-62017500D01*
X178518584Y-62017500D01*
X178415804Y-62028000D01*
X178415803Y-62028001D01*
X178249264Y-62083186D01*
X178249262Y-62083187D01*
X178099948Y-62175286D01*
X178099944Y-62175289D01*
X177975889Y-62299344D01*
X177975886Y-62299348D01*
X177883787Y-62448662D01*
X177883786Y-62448664D01*
X177828601Y-62615203D01*
X177828600Y-62615204D01*
X177818100Y-62717984D01*
X177818100Y-64338015D01*
X177828600Y-64440795D01*
X177828601Y-64440797D01*
X177856193Y-64524065D01*
X177883786Y-64607335D01*
X177883787Y-64607337D01*
X177975886Y-64756651D01*
X177975889Y-64756655D01*
X178099944Y-64880710D01*
X178099948Y-64880713D01*
X178249262Y-64972812D01*
X178249264Y-64972813D01*
X178249266Y-64972814D01*
X178386818Y-65018394D01*
X178444263Y-65058166D01*
X178471086Y-65122682D01*
X178458771Y-65191458D01*
X178411228Y-65242658D01*
X178347814Y-65260100D01*
X138457666Y-65260100D01*
X138262838Y-65298853D01*
X138262838Y-65298854D01*
X138262835Y-65298855D01*
X138262831Y-65298856D01*
X138209075Y-65321122D01*
X138079300Y-65374875D01*
X138079299Y-65374876D01*
X137914119Y-65485246D01*
X137914115Y-65485249D01*
X136448651Y-66950715D01*
X135983719Y-67415647D01*
X135913482Y-67485884D01*
X135843245Y-67556120D01*
X135732882Y-67721289D01*
X135732877Y-67721298D01*
X135656856Y-67904830D01*
X135656854Y-67904838D01*
X135618100Y-68099666D01*
X130360379Y-68099666D01*
X130360379Y-60749392D01*
X132557580Y-60749392D01*
X132557580Y-61019019D01*
X132587766Y-61286925D01*
X132587768Y-61286937D01*
X132647764Y-61549800D01*
X132647767Y-61549808D01*
X132736814Y-61804288D01*
X132853794Y-62047200D01*
X132853796Y-62047203D01*
X132997242Y-62275495D01*
X133122653Y-62432755D01*
X133135339Y-62448664D01*
X133165346Y-62486291D01*
X133355995Y-62676940D01*
X133566791Y-62845044D01*
X133795083Y-62988490D01*
X134038001Y-63105473D01*
X134229129Y-63172351D01*
X134292477Y-63194518D01*
X134292485Y-63194521D01*
X134292488Y-63194521D01*
X134292489Y-63194522D01*
X134555348Y-63254518D01*
X134823267Y-63284705D01*
X134823268Y-63284706D01*
X134823271Y-63284706D01*
X135092892Y-63284706D01*
X135092892Y-63284705D01*
X135360812Y-63254518D01*
X135623671Y-63194522D01*
X135878159Y-63105473D01*
X136121077Y-62988490D01*
X136349369Y-62845044D01*
X136560165Y-62676940D01*
X136569921Y-62667184D01*
X164991100Y-62667184D01*
X164991100Y-64287215D01*
X165001600Y-64389995D01*
X165001601Y-64389997D01*
X165019212Y-64443143D01*
X165056786Y-64556535D01*
X165056787Y-64556537D01*
X165148886Y-64705851D01*
X165148889Y-64705855D01*
X165272944Y-64829910D01*
X165272948Y-64829913D01*
X165422262Y-64922012D01*
X165422264Y-64922013D01*
X165422266Y-64922014D01*
X165588803Y-64977199D01*
X165691592Y-64987700D01*
X165691597Y-64987700D01*
X166791603Y-64987700D01*
X166791608Y-64987700D01*
X166894397Y-64977199D01*
X167060934Y-64922014D01*
X167210255Y-64829911D01*
X167334311Y-64705855D01*
X167426414Y-64556534D01*
X167481599Y-64389997D01*
X167492100Y-64287208D01*
X167492100Y-63118817D01*
X167991600Y-63118817D01*
X167991600Y-63227200D01*
X168797040Y-63227200D01*
X168766355Y-63280347D01*
X168731600Y-63410057D01*
X168731600Y-63544343D01*
X168766355Y-63674053D01*
X168797040Y-63727200D01*
X167991600Y-63727200D01*
X167991600Y-63835582D01*
X168022378Y-64029905D01*
X168083181Y-64217035D01*
X168172504Y-64392343D01*
X168288155Y-64551521D01*
X168427278Y-64690644D01*
X168586456Y-64806295D01*
X168761762Y-64895618D01*
X168948883Y-64956418D01*
X168991600Y-64963184D01*
X168991600Y-63921760D01*
X169044747Y-63952445D01*
X169174457Y-63987200D01*
X169308743Y-63987200D01*
X169438453Y-63952445D01*
X169491600Y-63921760D01*
X169491600Y-64963183D01*
X169534316Y-64956418D01*
X169721437Y-64895618D01*
X169896743Y-64806295D01*
X170055921Y-64690644D01*
X170195044Y-64551521D01*
X170310695Y-64392343D01*
X170400018Y-64217035D01*
X170460821Y-64029905D01*
X170491600Y-63835582D01*
X170491600Y-63727200D01*
X169686160Y-63727200D01*
X169716845Y-63674053D01*
X169751600Y-63544343D01*
X169751600Y-63410057D01*
X169716845Y-63280347D01*
X169686160Y-63227200D01*
X170491600Y-63227200D01*
X170491600Y-63118817D01*
X170460821Y-62924494D01*
X170400018Y-62737364D01*
X170310695Y-62562056D01*
X170195044Y-62402878D01*
X170055921Y-62263755D01*
X169896743Y-62148104D01*
X169721435Y-62058781D01*
X169534305Y-61997978D01*
X169491600Y-61991214D01*
X169491600Y-63032639D01*
X169438453Y-63001955D01*
X169308743Y-62967200D01*
X169174457Y-62967200D01*
X169044747Y-63001955D01*
X168991600Y-63032639D01*
X168991600Y-61991214D01*
X168991599Y-61991214D01*
X168948894Y-61997978D01*
X168761764Y-62058781D01*
X168586456Y-62148104D01*
X168427278Y-62263755D01*
X168288155Y-62402878D01*
X168172504Y-62562056D01*
X168083181Y-62737364D01*
X168022378Y-62924494D01*
X167991600Y-63118817D01*
X167492100Y-63118817D01*
X167492100Y-62667192D01*
X167481599Y-62564403D01*
X167426414Y-62397866D01*
X167386953Y-62333891D01*
X167334313Y-62248548D01*
X167334310Y-62248544D01*
X167210255Y-62124489D01*
X167210251Y-62124486D01*
X167060937Y-62032387D01*
X167060935Y-62032386D01*
X166977665Y-62004793D01*
X166894397Y-61977201D01*
X166894395Y-61977200D01*
X166791615Y-61966700D01*
X166791608Y-61966700D01*
X165691592Y-61966700D01*
X165691584Y-61966700D01*
X165588804Y-61977200D01*
X165588803Y-61977201D01*
X165422264Y-62032386D01*
X165422262Y-62032387D01*
X165272948Y-62124486D01*
X165272944Y-62124489D01*
X165148889Y-62248544D01*
X165148886Y-62248548D01*
X165056787Y-62397862D01*
X165056786Y-62397864D01*
X165001601Y-62564403D01*
X165001600Y-62564404D01*
X164991100Y-62667184D01*
X136569921Y-62667184D01*
X136750814Y-62486291D01*
X136918918Y-62275495D01*
X137062364Y-62047203D01*
X137179347Y-61804285D01*
X137268396Y-61549797D01*
X137328392Y-61286938D01*
X137358580Y-61019015D01*
X137358580Y-60749397D01*
X137328392Y-60481474D01*
X137268396Y-60218615D01*
X137179347Y-59964127D01*
X137062364Y-59721209D01*
X136918918Y-59492917D01*
X136750814Y-59282121D01*
X136560165Y-59091472D01*
X136498703Y-59042458D01*
X165991100Y-59042458D01*
X165991100Y-59271941D01*
X166000129Y-59340517D01*
X166021052Y-59499438D01*
X166080442Y-59721087D01*
X166168250Y-59933076D01*
X166168257Y-59933090D01*
X166282992Y-60131817D01*
X166422681Y-60313861D01*
X166422689Y-60313870D01*
X166584930Y-60476111D01*
X166584938Y-60476118D01*
X166584939Y-60476119D01*
X166635562Y-60514964D01*
X166766982Y-60615807D01*
X166766985Y-60615808D01*
X166766988Y-60615811D01*
X166965712Y-60730544D01*
X166965717Y-60730546D01*
X166965723Y-60730549D01*
X167057080Y-60768390D01*
X167177713Y-60818358D01*
X167399362Y-60877748D01*
X167626866Y-60907700D01*
X167626873Y-60907700D01*
X167856327Y-60907700D01*
X167856334Y-60907700D01*
X168083838Y-60877748D01*
X168305487Y-60818358D01*
X168517488Y-60730544D01*
X168716212Y-60615811D01*
X168898261Y-60476119D01*
X168898265Y-60476114D01*
X168898270Y-60476111D01*
X169060511Y-60313870D01*
X169060514Y-60313865D01*
X169060519Y-60313861D01*
X169200211Y-60131812D01*
X169314944Y-59933088D01*
X169402758Y-59721087D01*
X169462148Y-59499438D01*
X169492100Y-59271934D01*
X169492100Y-59093258D01*
X178818100Y-59093258D01*
X178818100Y-59322741D01*
X178841363Y-59499429D01*
X178848052Y-59550238D01*
X178848053Y-59550240D01*
X178907442Y-59771887D01*
X178995250Y-59983876D01*
X178995257Y-59983890D01*
X179109992Y-60182617D01*
X179249681Y-60364661D01*
X179249689Y-60364670D01*
X179411930Y-60526911D01*
X179411938Y-60526918D01*
X179593982Y-60666607D01*
X179593985Y-60666608D01*
X179593988Y-60666611D01*
X179792712Y-60781344D01*
X179792717Y-60781346D01*
X179792723Y-60781349D01*
X179882069Y-60818357D01*
X180004713Y-60869158D01*
X180226362Y-60928548D01*
X180453866Y-60958500D01*
X180453873Y-60958500D01*
X180683327Y-60958500D01*
X180683334Y-60958500D01*
X180910838Y-60928548D01*
X181132487Y-60869158D01*
X181344488Y-60781344D01*
X181543212Y-60666611D01*
X181633941Y-60596992D01*
X189123380Y-60596992D01*
X189123380Y-60866619D01*
X189153566Y-61134525D01*
X189153568Y-61134537D01*
X189213564Y-61397400D01*
X189213567Y-61397408D01*
X189302614Y-61651888D01*
X189419594Y-61894800D01*
X189419596Y-61894803D01*
X189563042Y-62123095D01*
X189684575Y-62275493D01*
X189703596Y-62299345D01*
X189731146Y-62333891D01*
X189921795Y-62524540D01*
X190132591Y-62692644D01*
X190360883Y-62836090D01*
X190603801Y-62953073D01*
X190789352Y-63018000D01*
X190858277Y-63042118D01*
X190858285Y-63042121D01*
X190858288Y-63042121D01*
X190858289Y-63042122D01*
X191121148Y-63102118D01*
X191389067Y-63132305D01*
X191389068Y-63132306D01*
X191389071Y-63132306D01*
X191658692Y-63132306D01*
X191658692Y-63132305D01*
X191926612Y-63102118D01*
X192189471Y-63042122D01*
X192443959Y-62953073D01*
X192686877Y-62836090D01*
X192915169Y-62692644D01*
X193125965Y-62524540D01*
X193316614Y-62333891D01*
X193484718Y-62123095D01*
X193628164Y-61894803D01*
X193745147Y-61651885D01*
X193834196Y-61397397D01*
X193894192Y-61134538D01*
X193924380Y-60866615D01*
X193924380Y-60596997D01*
X193894192Y-60329074D01*
X193834196Y-60066215D01*
X193745147Y-59811727D01*
X193628164Y-59568809D01*
X193484718Y-59340517D01*
X193316614Y-59129721D01*
X193125965Y-58939072D01*
X192915169Y-58770968D01*
X192686877Y-58627522D01*
X192686874Y-58627520D01*
X192443962Y-58510540D01*
X192189482Y-58421493D01*
X192189474Y-58421490D01*
X191992326Y-58376493D01*
X191926612Y-58361494D01*
X191926608Y-58361493D01*
X191926599Y-58361492D01*
X191658693Y-58331306D01*
X191658689Y-58331306D01*
X191389071Y-58331306D01*
X191389066Y-58331306D01*
X191121160Y-58361492D01*
X191121148Y-58361494D01*
X190858285Y-58421490D01*
X190858277Y-58421493D01*
X190603797Y-58510540D01*
X190360885Y-58627520D01*
X190132592Y-58770967D01*
X189921795Y-58939071D01*
X189731145Y-59129721D01*
X189563041Y-59340518D01*
X189419594Y-59568811D01*
X189302614Y-59811723D01*
X189213567Y-60066203D01*
X189213564Y-60066211D01*
X189153568Y-60329074D01*
X189153566Y-60329086D01*
X189123380Y-60596992D01*
X181633941Y-60596992D01*
X181725261Y-60526919D01*
X181725265Y-60526914D01*
X181725270Y-60526911D01*
X181887511Y-60364670D01*
X181887514Y-60364665D01*
X181887519Y-60364661D01*
X182027211Y-60182612D01*
X182141944Y-59983888D01*
X182229758Y-59771887D01*
X182289148Y-59550238D01*
X182319100Y-59322734D01*
X182319100Y-59093266D01*
X182289148Y-58865762D01*
X182229758Y-58644113D01*
X182141944Y-58432112D01*
X182027211Y-58233388D01*
X182027208Y-58233385D01*
X182027207Y-58233382D01*
X181887518Y-58051338D01*
X181887511Y-58051330D01*
X181725270Y-57889089D01*
X181725261Y-57889081D01*
X181543217Y-57749392D01*
X181344490Y-57634657D01*
X181344476Y-57634650D01*
X181132487Y-57546842D01*
X180910838Y-57487452D01*
X180872815Y-57482446D01*
X180683341Y-57457500D01*
X180683334Y-57457500D01*
X180453866Y-57457500D01*
X180453858Y-57457500D01*
X180237315Y-57486009D01*
X180226362Y-57487452D01*
X180132676Y-57512554D01*
X180004712Y-57546842D01*
X179792723Y-57634650D01*
X179792709Y-57634657D01*
X179593982Y-57749392D01*
X179411938Y-57889081D01*
X179249681Y-58051338D01*
X179109992Y-58233382D01*
X178995257Y-58432109D01*
X178995250Y-58432123D01*
X178907442Y-58644112D01*
X178902397Y-58662940D01*
X178861665Y-58814959D01*
X178848053Y-58865759D01*
X178848051Y-58865770D01*
X178818100Y-59093258D01*
X169492100Y-59093258D01*
X169492100Y-59042466D01*
X169462148Y-58814962D01*
X169402758Y-58593313D01*
X169331588Y-58421493D01*
X169314949Y-58381323D01*
X169314946Y-58381317D01*
X169314944Y-58381312D01*
X169200211Y-58182588D01*
X169200208Y-58182585D01*
X169200207Y-58182582D01*
X169060518Y-58000538D01*
X169060511Y-58000530D01*
X168898270Y-57838289D01*
X168898261Y-57838281D01*
X168716217Y-57698592D01*
X168517490Y-57583857D01*
X168517476Y-57583850D01*
X168305487Y-57496042D01*
X168273428Y-57487452D01*
X168083838Y-57436652D01*
X168045815Y-57431646D01*
X167856341Y-57406700D01*
X167856334Y-57406700D01*
X167626866Y-57406700D01*
X167626858Y-57406700D01*
X167410315Y-57435209D01*
X167399362Y-57436652D01*
X167321555Y-57457500D01*
X167177712Y-57496042D01*
X166965723Y-57583850D01*
X166965709Y-57583857D01*
X166766982Y-57698592D01*
X166584938Y-57838281D01*
X166422681Y-58000538D01*
X166282992Y-58182582D01*
X166168257Y-58381309D01*
X166168250Y-58381323D01*
X166080442Y-58593312D01*
X166021053Y-58814959D01*
X166021051Y-58814970D01*
X165991100Y-59042458D01*
X136498703Y-59042458D01*
X136349369Y-58923368D01*
X136121077Y-58779922D01*
X136121074Y-58779920D01*
X135878162Y-58662940D01*
X135623682Y-58573893D01*
X135623674Y-58573890D01*
X135426526Y-58528893D01*
X135360812Y-58513894D01*
X135360808Y-58513893D01*
X135360799Y-58513892D01*
X135092893Y-58483706D01*
X135092889Y-58483706D01*
X134823271Y-58483706D01*
X134823266Y-58483706D01*
X134555360Y-58513892D01*
X134555348Y-58513894D01*
X134292485Y-58573890D01*
X134292477Y-58573893D01*
X134037997Y-58662940D01*
X133795085Y-58779920D01*
X133566792Y-58923367D01*
X133355995Y-59091471D01*
X133165345Y-59282121D01*
X132997241Y-59492918D01*
X132853794Y-59721211D01*
X132736814Y-59964123D01*
X132647767Y-60218603D01*
X132647764Y-60218611D01*
X132587768Y-60481474D01*
X132587766Y-60481486D01*
X132557580Y-60749392D01*
X130360379Y-60749392D01*
X130360379Y-56345307D01*
X130380064Y-56278268D01*
X130432868Y-56232513D01*
X130484379Y-56221307D01*
X196123900Y-56221307D01*
X196190939Y-56240992D01*
G37*
%TD.AperFunction*%
%TD*%
%TA.AperFunction,Conductor*%
%TO.N,Net-(K1-Pad4)*%
G36*
X144219614Y-75234812D02*
G01*
X144660996Y-75536393D01*
X145518904Y-76122573D01*
X145523801Y-76130069D01*
X145521963Y-76138834D01*
X145520576Y-76140506D01*
X144814180Y-76846902D01*
X144809363Y-76849807D01*
X143760238Y-77174208D01*
X143751322Y-77173378D01*
X143747129Y-77169641D01*
X143035228Y-76130069D01*
X142915995Y-75955957D01*
X142914149Y-75947195D01*
X142919038Y-75939694D01*
X142920020Y-75939090D01*
X144207397Y-75234210D01*
X144216298Y-75233243D01*
X144219614Y-75234812D01*
G37*
%TD.AperFunction*%
%TD*%
%TA.AperFunction,Conductor*%
%TO.N,Net-(K1-Pad4)*%
G36*
X156374933Y-86974148D02*
G01*
X157509829Y-88003954D01*
X157513653Y-88012051D01*
X157513331Y-88015402D01*
X157163983Y-89441349D01*
X157158686Y-89448569D01*
X157149835Y-89449929D01*
X157148718Y-89449596D01*
X155760859Y-88958782D01*
X155754202Y-88952792D01*
X155753100Y-88948718D01*
X155675387Y-88012051D01*
X155648707Y-87690483D01*
X155651438Y-87681956D01*
X155652082Y-87681256D01*
X156358799Y-86974539D01*
X156367071Y-86971113D01*
X156374933Y-86974148D01*
G37*
%TD.AperFunction*%
%TD*%
%TA.AperFunction,Conductor*%
%TO.N,Net-(U1-EN)*%
G36*
X174408158Y-90239591D02*
G01*
X174411259Y-90245122D01*
X174535390Y-90760070D01*
X174533998Y-90768916D01*
X174526758Y-90774186D01*
X174526336Y-90774280D01*
X174246320Y-90830930D01*
X174241680Y-90830930D01*
X173960624Y-90774070D01*
X173953195Y-90769070D01*
X173951367Y-90760909D01*
X174026637Y-90246171D01*
X174031225Y-90238481D01*
X174038214Y-90236164D01*
X174399885Y-90236164D01*
X174408158Y-90239591D01*
G37*
%TD.AperFunction*%
%TD*%
M02*
