%TF.GenerationSoftware,KiCad,Pcbnew,9.0.1*%
%TF.CreationDate,2026-09-27T17:49:11+08:00*%
%TF.ProjectId,IMD_AMS_latch,494d445f-414d-4535-9f6c-617463682e6b,rev?*%
%TF.SameCoordinates,Original*%
%TF.FileFunction,Legend,Bot*%
%TF.FilePolarity,Positive*%
%FSLAX46Y46*%
G04 Gerber Fmt 4.6, Leading zero omitted, Abs format (unit mm)*
G04 Created by KiCad (PCBNEW 9.0.1) date 2026-09-27 17:49:11*
%MOMM*%
%LPD*%
G01*
G04 APERTURE LIST*
%ADD10C,0.150000*%
%ADD11C,0.120000*%
G04 APERTURE END LIST*
D10*
X138656219Y-94994505D02*
X137656219Y-94994505D01*
X137656219Y-94994505D02*
X137656219Y-95232600D01*
X137656219Y-95232600D02*
X137703838Y-95375457D01*
X137703838Y-95375457D02*
X137799076Y-95470695D01*
X137799076Y-95470695D02*
X137894314Y-95518314D01*
X137894314Y-95518314D02*
X138084790Y-95565933D01*
X138084790Y-95565933D02*
X138227647Y-95565933D01*
X138227647Y-95565933D02*
X138418123Y-95518314D01*
X138418123Y-95518314D02*
X138513361Y-95470695D01*
X138513361Y-95470695D02*
X138608600Y-95375457D01*
X138608600Y-95375457D02*
X138656219Y-95232600D01*
X138656219Y-95232600D02*
X138656219Y-94994505D01*
X138656219Y-96518314D02*
X138656219Y-95946886D01*
X138656219Y-96232600D02*
X137656219Y-96232600D01*
X137656219Y-96232600D02*
X137799076Y-96137362D01*
X137799076Y-96137362D02*
X137894314Y-96042124D01*
X137894314Y-96042124D02*
X137941933Y-95946886D01*
X140456219Y-99280695D02*
X139456219Y-99280695D01*
X140456219Y-99852123D02*
X139884790Y-99423552D01*
X139456219Y-99852123D02*
X140027647Y-99280695D01*
X175623179Y-81189533D02*
X175670799Y-81141914D01*
X175670799Y-81141914D02*
X175718418Y-80999057D01*
X175718418Y-80999057D02*
X175718418Y-80903819D01*
X175718418Y-80903819D02*
X175670799Y-80760962D01*
X175670799Y-80760962D02*
X175575560Y-80665724D01*
X175575560Y-80665724D02*
X175480322Y-80618105D01*
X175480322Y-80618105D02*
X175289846Y-80570486D01*
X175289846Y-80570486D02*
X175146989Y-80570486D01*
X175146989Y-80570486D02*
X174956513Y-80618105D01*
X174956513Y-80618105D02*
X174861275Y-80665724D01*
X174861275Y-80665724D02*
X174766037Y-80760962D01*
X174766037Y-80760962D02*
X174718418Y-80903819D01*
X174718418Y-80903819D02*
X174718418Y-80999057D01*
X174718418Y-80999057D02*
X174766037Y-81141914D01*
X174766037Y-81141914D02*
X174813656Y-81189533D01*
X175718418Y-82141914D02*
X175718418Y-81570486D01*
X175718418Y-81856200D02*
X174718418Y-81856200D01*
X174718418Y-81856200D02*
X174861275Y-81760962D01*
X174861275Y-81760962D02*
X174956513Y-81665724D01*
X174956513Y-81665724D02*
X175004132Y-81570486D01*
X185689802Y-98686019D02*
X186023135Y-98209828D01*
X186261230Y-98686019D02*
X186261230Y-97686019D01*
X186261230Y-97686019D02*
X185880278Y-97686019D01*
X185880278Y-97686019D02*
X185785040Y-97733638D01*
X185785040Y-97733638D02*
X185737421Y-97781257D01*
X185737421Y-97781257D02*
X185689802Y-97876495D01*
X185689802Y-97876495D02*
X185689802Y-98019352D01*
X185689802Y-98019352D02*
X185737421Y-98114590D01*
X185737421Y-98114590D02*
X185785040Y-98162209D01*
X185785040Y-98162209D02*
X185880278Y-98209828D01*
X185880278Y-98209828D02*
X186261230Y-98209828D01*
X185213611Y-98686019D02*
X185023135Y-98686019D01*
X185023135Y-98686019D02*
X184927897Y-98638400D01*
X184927897Y-98638400D02*
X184880278Y-98590780D01*
X184880278Y-98590780D02*
X184785040Y-98447923D01*
X184785040Y-98447923D02*
X184737421Y-98257447D01*
X184737421Y-98257447D02*
X184737421Y-97876495D01*
X184737421Y-97876495D02*
X184785040Y-97781257D01*
X184785040Y-97781257D02*
X184832659Y-97733638D01*
X184832659Y-97733638D02*
X184927897Y-97686019D01*
X184927897Y-97686019D02*
X185118373Y-97686019D01*
X185118373Y-97686019D02*
X185213611Y-97733638D01*
X185213611Y-97733638D02*
X185261230Y-97781257D01*
X185261230Y-97781257D02*
X185308849Y-97876495D01*
X185308849Y-97876495D02*
X185308849Y-98114590D01*
X185308849Y-98114590D02*
X185261230Y-98209828D01*
X185261230Y-98209828D02*
X185213611Y-98257447D01*
X185213611Y-98257447D02*
X185118373Y-98305066D01*
X185118373Y-98305066D02*
X184927897Y-98305066D01*
X184927897Y-98305066D02*
X184832659Y-98257447D01*
X184832659Y-98257447D02*
X184785040Y-98209828D01*
X184785040Y-98209828D02*
X184737421Y-98114590D01*
X185664402Y-101708619D02*
X185997735Y-101232428D01*
X186235830Y-101708619D02*
X186235830Y-100708619D01*
X186235830Y-100708619D02*
X185854878Y-100708619D01*
X185854878Y-100708619D02*
X185759640Y-100756238D01*
X185759640Y-100756238D02*
X185712021Y-100803857D01*
X185712021Y-100803857D02*
X185664402Y-100899095D01*
X185664402Y-100899095D02*
X185664402Y-101041952D01*
X185664402Y-101041952D02*
X185712021Y-101137190D01*
X185712021Y-101137190D02*
X185759640Y-101184809D01*
X185759640Y-101184809D02*
X185854878Y-101232428D01*
X185854878Y-101232428D02*
X186235830Y-101232428D01*
X185092973Y-101137190D02*
X185188211Y-101089571D01*
X185188211Y-101089571D02*
X185235830Y-101041952D01*
X185235830Y-101041952D02*
X185283449Y-100946714D01*
X185283449Y-100946714D02*
X185283449Y-100899095D01*
X185283449Y-100899095D02*
X185235830Y-100803857D01*
X185235830Y-100803857D02*
X185188211Y-100756238D01*
X185188211Y-100756238D02*
X185092973Y-100708619D01*
X185092973Y-100708619D02*
X184902497Y-100708619D01*
X184902497Y-100708619D02*
X184807259Y-100756238D01*
X184807259Y-100756238D02*
X184759640Y-100803857D01*
X184759640Y-100803857D02*
X184712021Y-100899095D01*
X184712021Y-100899095D02*
X184712021Y-100946714D01*
X184712021Y-100946714D02*
X184759640Y-101041952D01*
X184759640Y-101041952D02*
X184807259Y-101089571D01*
X184807259Y-101089571D02*
X184902497Y-101137190D01*
X184902497Y-101137190D02*
X185092973Y-101137190D01*
X185092973Y-101137190D02*
X185188211Y-101184809D01*
X185188211Y-101184809D02*
X185235830Y-101232428D01*
X185235830Y-101232428D02*
X185283449Y-101327666D01*
X185283449Y-101327666D02*
X185283449Y-101518142D01*
X185283449Y-101518142D02*
X185235830Y-101613380D01*
X185235830Y-101613380D02*
X185188211Y-101661000D01*
X185188211Y-101661000D02*
X185092973Y-101708619D01*
X185092973Y-101708619D02*
X184902497Y-101708619D01*
X184902497Y-101708619D02*
X184807259Y-101661000D01*
X184807259Y-101661000D02*
X184759640Y-101613380D01*
X184759640Y-101613380D02*
X184712021Y-101518142D01*
X184712021Y-101518142D02*
X184712021Y-101327666D01*
X184712021Y-101327666D02*
X184759640Y-101232428D01*
X184759640Y-101232428D02*
X184807259Y-101184809D01*
X184807259Y-101184809D02*
X184902497Y-101137190D01*
X173023419Y-87952342D02*
X172547228Y-87619009D01*
X173023419Y-87380914D02*
X172023419Y-87380914D01*
X172023419Y-87380914D02*
X172023419Y-87761866D01*
X172023419Y-87761866D02*
X172071038Y-87857104D01*
X172071038Y-87857104D02*
X172118657Y-87904723D01*
X172118657Y-87904723D02*
X172213895Y-87952342D01*
X172213895Y-87952342D02*
X172356752Y-87952342D01*
X172356752Y-87952342D02*
X172451990Y-87904723D01*
X172451990Y-87904723D02*
X172499609Y-87857104D01*
X172499609Y-87857104D02*
X172547228Y-87761866D01*
X172547228Y-87761866D02*
X172547228Y-87380914D01*
X173023419Y-88904723D02*
X173023419Y-88333295D01*
X173023419Y-88619009D02*
X172023419Y-88619009D01*
X172023419Y-88619009D02*
X172166276Y-88523771D01*
X172166276Y-88523771D02*
X172261514Y-88428533D01*
X172261514Y-88428533D02*
X172309133Y-88333295D01*
X172023419Y-89809485D02*
X172023419Y-89333295D01*
X172023419Y-89333295D02*
X172499609Y-89285676D01*
X172499609Y-89285676D02*
X172451990Y-89333295D01*
X172451990Y-89333295D02*
X172404371Y-89428533D01*
X172404371Y-89428533D02*
X172404371Y-89666628D01*
X172404371Y-89666628D02*
X172451990Y-89761866D01*
X172451990Y-89761866D02*
X172499609Y-89809485D01*
X172499609Y-89809485D02*
X172594847Y-89857104D01*
X172594847Y-89857104D02*
X172832942Y-89857104D01*
X172832942Y-89857104D02*
X172928180Y-89809485D01*
X172928180Y-89809485D02*
X172975800Y-89761866D01*
X172975800Y-89761866D02*
X173023419Y-89666628D01*
X173023419Y-89666628D02*
X173023419Y-89428533D01*
X173023419Y-89428533D02*
X172975800Y-89333295D01*
X172975800Y-89333295D02*
X172928180Y-89285676D01*
X178500066Y-99390581D02*
X178547685Y-99438201D01*
X178547685Y-99438201D02*
X178690542Y-99485820D01*
X178690542Y-99485820D02*
X178785780Y-99485820D01*
X178785780Y-99485820D02*
X178928637Y-99438201D01*
X178928637Y-99438201D02*
X179023875Y-99342962D01*
X179023875Y-99342962D02*
X179071494Y-99247724D01*
X179071494Y-99247724D02*
X179119113Y-99057248D01*
X179119113Y-99057248D02*
X179119113Y-98914391D01*
X179119113Y-98914391D02*
X179071494Y-98723915D01*
X179071494Y-98723915D02*
X179023875Y-98628677D01*
X179023875Y-98628677D02*
X178928637Y-98533439D01*
X178928637Y-98533439D02*
X178785780Y-98485820D01*
X178785780Y-98485820D02*
X178690542Y-98485820D01*
X178690542Y-98485820D02*
X178547685Y-98533439D01*
X178547685Y-98533439D02*
X178500066Y-98581058D01*
X177642923Y-98819153D02*
X177642923Y-99485820D01*
X177881018Y-98438201D02*
X178119113Y-99152486D01*
X178119113Y-99152486D02*
X177500066Y-99152486D01*
X139265819Y-75004705D02*
X138265819Y-75004705D01*
X138265819Y-75004705D02*
X138265819Y-75242800D01*
X138265819Y-75242800D02*
X138313438Y-75385657D01*
X138313438Y-75385657D02*
X138408676Y-75480895D01*
X138408676Y-75480895D02*
X138503914Y-75528514D01*
X138503914Y-75528514D02*
X138694390Y-75576133D01*
X138694390Y-75576133D02*
X138837247Y-75576133D01*
X138837247Y-75576133D02*
X139027723Y-75528514D01*
X139027723Y-75528514D02*
X139122961Y-75480895D01*
X139122961Y-75480895D02*
X139218200Y-75385657D01*
X139218200Y-75385657D02*
X139265819Y-75242800D01*
X139265819Y-75242800D02*
X139265819Y-75004705D01*
X138361057Y-75957086D02*
X138313438Y-76004705D01*
X138313438Y-76004705D02*
X138265819Y-76099943D01*
X138265819Y-76099943D02*
X138265819Y-76338038D01*
X138265819Y-76338038D02*
X138313438Y-76433276D01*
X138313438Y-76433276D02*
X138361057Y-76480895D01*
X138361057Y-76480895D02*
X138456295Y-76528514D01*
X138456295Y-76528514D02*
X138551533Y-76528514D01*
X138551533Y-76528514D02*
X138694390Y-76480895D01*
X138694390Y-76480895D02*
X139265819Y-75909467D01*
X139265819Y-75909467D02*
X139265819Y-76528514D01*
X141142019Y-79621095D02*
X140142019Y-79621095D01*
X141142019Y-80192523D02*
X140570590Y-79763952D01*
X140142019Y-80192523D02*
X140713447Y-79621095D01*
D11*
%TO.C,D1*%
X137081400Y-93612600D02*
X139321400Y-93612600D01*
X137081400Y-97852600D02*
X137081400Y-93612600D01*
X138201400Y-92962599D02*
X138201400Y-93612600D01*
X138201400Y-98502600D02*
X138201400Y-97852601D01*
X139321400Y-93612600D02*
X139321400Y-97852600D01*
X139321400Y-97012600D02*
X137081400Y-97012600D01*
X139321400Y-97132600D02*
X137081400Y-97132600D01*
X139321400Y-97252600D02*
X137081400Y-97252600D01*
X139321400Y-97852600D02*
X137081400Y-97852600D01*
%TO.C,C1*%
X172848600Y-81617453D02*
X172848600Y-81094947D01*
X174318600Y-81617453D02*
X174318600Y-81094947D01*
%TO.C,R9*%
X185296072Y-95846200D02*
X185750200Y-95846200D01*
X185296072Y-97316200D02*
X185750200Y-97316200D01*
%TO.C,R8*%
X185270672Y-98868800D02*
X185724800Y-98868800D01*
X185270672Y-100338800D02*
X185724800Y-100338800D01*
%TO.C,R15*%
X173483600Y-88368136D02*
X173483600Y-88822264D01*
X174953600Y-88368136D02*
X174953600Y-88822264D01*
%TO.C,C4*%
X178594653Y-99976000D02*
X178072147Y-99976000D01*
X178594653Y-101446000D02*
X178072147Y-101446000D01*
%TO.C,D2*%
X137767200Y-73953000D02*
X140007200Y-73953000D01*
X137767200Y-78193000D02*
X137767200Y-73953000D01*
X138887200Y-73302999D02*
X138887200Y-73953000D01*
X138887200Y-78843000D02*
X138887200Y-78193001D01*
X140007200Y-73953000D02*
X140007200Y-78193000D01*
X140007200Y-77353000D02*
X137767200Y-77353000D01*
X140007200Y-77473000D02*
X137767200Y-77473000D01*
X140007200Y-77593000D02*
X137767200Y-77593000D01*
X140007200Y-78193000D02*
X137767200Y-78193000D01*
%TD*%
M02*
