%TF.GenerationSoftware,KiCad,Pcbnew,9.0.1*%
%TF.CreationDate,2026-10-03T23:24:53+08:00*%
%TF.ProjectId,IMD_AMS_latch,494d445f-414d-4535-9f6c-617463682e6b,rev?*%
%TF.SameCoordinates,Original*%
%TF.FileFunction,Copper,L2,Bot*%
%TF.FilePolarity,Positive*%
%FSLAX46Y46*%
G04 Gerber Fmt 4.6, Leading zero omitted, Abs format (unit mm)*
G04 Created by KiCad (PCBNEW 9.0.1) date 2026-10-03 23:24:53*
%MOMM*%
%LPD*%
G01*
G04 APERTURE LIST*
G04 Aperture macros list*
%AMRoundRect*
0 Rectangle with rounded corners*
0 $1 Rounding radius*
0 $2 $3 $4 $5 $6 $7 $8 $9 X,Y pos of 4 corners*
0 Add a 4 corners polygon primitive as box body*
4,1,4,$2,$3,$4,$5,$6,$7,$8,$9,$2,$3,0*
0 Add four circle primitives for the rounded corners*
1,1,$1+$1,$2,$3*
1,1,$1+$1,$4,$5*
1,1,$1+$1,$6,$7*
1,1,$1+$1,$8,$9*
0 Add four rect primitives between the rounded corners*
20,1,$1+$1,$2,$3,$4,$5,0*
20,1,$1+$1,$4,$5,$6,$7,0*
20,1,$1+$1,$6,$7,$8,$9,0*
20,1,$1+$1,$8,$9,$2,$3,0*%
G04 Aperture macros list end*
%TA.AperFunction,ComponentPad*%
%ADD10RoundRect,0.250001X-0.499999X-0.759999X0.499999X-0.759999X0.499999X0.759999X-0.499999X0.759999X0*%
%TD*%
%TA.AperFunction,ComponentPad*%
%ADD11O,1.500000X2.020000*%
%TD*%
%TA.AperFunction,ComponentPad*%
%ADD12RoundRect,0.250001X-0.499999X0.499999X-0.499999X-0.499999X0.499999X-0.499999X0.499999X0.499999X0*%
%TD*%
%TA.AperFunction,ComponentPad*%
%ADD13C,1.500000*%
%TD*%
%TA.AperFunction,ComponentPad*%
%ADD14C,3.000000*%
%TD*%
%TA.AperFunction,ComponentPad*%
%ADD15C,2.500000*%
%TD*%
%TA.AperFunction,ComponentPad*%
%ADD16R,1.600000X1.600000*%
%TD*%
%TA.AperFunction,ComponentPad*%
%ADD17O,1.600000X1.600000*%
%TD*%
%TA.AperFunction,SMDPad,CuDef*%
%ADD18RoundRect,0.250000X0.475000X-0.337500X0.475000X0.337500X-0.475000X0.337500X-0.475000X-0.337500X0*%
%TD*%
%TA.AperFunction,SMDPad,CuDef*%
%ADD19RoundRect,0.250000X0.350000X0.450000X-0.350000X0.450000X-0.350000X-0.450000X0.350000X-0.450000X0*%
%TD*%
%TA.AperFunction,SMDPad,CuDef*%
%ADD20RoundRect,0.250000X-0.350000X-0.450000X0.350000X-0.450000X0.350000X0.450000X-0.350000X0.450000X0*%
%TD*%
%TA.AperFunction,SMDPad,CuDef*%
%ADD21RoundRect,0.250000X-0.450000X0.350000X-0.450000X-0.350000X0.450000X-0.350000X0.450000X0.350000X0*%
%TD*%
%TA.AperFunction,SMDPad,CuDef*%
%ADD22RoundRect,0.250000X0.337500X0.475000X-0.337500X0.475000X-0.337500X-0.475000X0.337500X-0.475000X0*%
%TD*%
%TA.AperFunction,ViaPad*%
%ADD23C,0.600000*%
%TD*%
%TA.AperFunction,Conductor*%
%ADD24C,1.016000*%
%TD*%
%TA.AperFunction,Conductor*%
%ADD25C,0.381000*%
%TD*%
%TA.AperFunction,Conductor*%
%ADD26C,0.508000*%
%TD*%
%TA.AperFunction,Conductor*%
%ADD27C,1.270000*%
%TD*%
%TA.AperFunction,Conductor*%
%ADD28C,0.254000*%
%TD*%
%TA.AperFunction,Conductor*%
%ADD29C,0.200000*%
%TD*%
G04 APERTURE END LIST*
D10*
%TO.P,J6,1,Pin_1*%
%TO.N,/SDC_IN*%
X148470000Y-63710000D03*
D11*
%TO.P,J6,2,Pin_2*%
%TO.N,/SDC_OUT*%
X151470000Y-63710000D03*
%TO.P,J6,3,Pin_3*%
X154470000Y-63710000D03*
%TD*%
D10*
%TO.P,J2,1,Pin_1*%
%TO.N,/SDC_OUT*%
X162660000Y-63710000D03*
D11*
%TO.P,J2,2,Pin_2*%
X165660000Y-63710000D03*
%TO.P,J2,3,Pin_3*%
X168660000Y-63710000D03*
%TD*%
D10*
%TO.P,J7,1,Pin_1*%
%TO.N,/IMD_reset_btn*%
X176770000Y-63720000D03*
D11*
%TO.P,J7,2,Pin_2*%
%TO.N,/AMS_reset_btn*%
X179770000Y-63720000D03*
%TD*%
D12*
%TO.P,J1,1,Pin_1*%
%TO.N,/AMS_latch*%
X189080000Y-96060000D03*
D13*
%TO.P,J1,2,Pin_2*%
%TO.N,/IMD_latch*%
X189080000Y-99060000D03*
%TO.P,J1,3,Pin_3*%
%TO.N,/AMS_signal*%
X186080000Y-96060000D03*
%TO.P,J1,4,Pin_4*%
%TO.N,GND*%
X186080000Y-99060000D03*
%TD*%
D12*
%TO.P,J3,1,Pin_1*%
%TO.N,/IMD_OKHS*%
X188970000Y-84158104D03*
D13*
%TO.P,J3,2,Pin_2*%
%TO.N,/IMD_MHS*%
X188970000Y-87158104D03*
%TO.P,J3,3,Pin_3*%
%TO.N,/EXT_LED+*%
X185970000Y-84158104D03*
%TO.P,J3,4,Pin_4*%
%TO.N,GND*%
X185970000Y-87158104D03*
%TD*%
D12*
%TO.P,J4,1,Pin_1*%
%TO.N,+12V*%
X189030000Y-72680000D03*
D13*
%TO.P,J4,2,Pin_2*%
X189030000Y-75680000D03*
%TO.P,J4,3,Pin_3*%
%TO.N,GND*%
X186030000Y-72680000D03*
%TO.P,J4,4,Pin_4*%
X186030000Y-75680000D03*
%TD*%
D14*
%TO.P,K1,1*%
%TO.N,/SDC_IN*%
X142960200Y-95453200D03*
D15*
%TO.P,K1,2*%
%TO.N,+12V*%
X144910200Y-101503200D03*
D14*
%TO.P,K1,3*%
%TO.N,unconnected-(K1-Pad3)*%
X157110200Y-101503200D03*
%TO.P,K1,4*%
%TO.N,Net-(K1-Pad4)*%
X157160200Y-89453200D03*
D15*
%TO.P,K1,5*%
%TO.N,Net-(D1-A)*%
X144910200Y-89503200D03*
%TD*%
D14*
%TO.P,K2,1*%
%TO.N,Net-(K1-Pad4)*%
X142909400Y-75946000D03*
D15*
%TO.P,K2,2*%
%TO.N,+12V*%
X144859400Y-81996000D03*
D14*
%TO.P,K2,3*%
%TO.N,unconnected-(K2-Pad3)*%
X157059400Y-81996000D03*
%TO.P,K2,4*%
%TO.N,/SDC_OUT*%
X157109400Y-69946000D03*
D15*
%TO.P,K2,5*%
%TO.N,Net-(D2-A)*%
X144859400Y-69996000D03*
%TD*%
D16*
%TO.P,D1,1,K*%
%TO.N,+12V*%
X138201400Y-99542600D03*
D17*
%TO.P,D1,2,A*%
%TO.N,Net-(D1-A)*%
X138201400Y-91922600D03*
%TD*%
D18*
%TO.P,C1,1*%
%TO.N,GND*%
X173583600Y-82393700D03*
%TO.P,C1,2*%
%TO.N,+12V*%
X173583600Y-80318700D03*
%TD*%
D19*
%TO.P,R9,1*%
%TO.N,/IMD_MHS*%
X188960000Y-89940000D03*
%TO.P,R9,2*%
%TO.N,GND*%
X186960000Y-89940000D03*
%TD*%
D20*
%TO.P,R8,1*%
%TO.N,/IMD_OKHS*%
X191570000Y-89910000D03*
%TO.P,R8,2*%
%TO.N,GND*%
X193570000Y-89910000D03*
%TD*%
D21*
%TO.P,R15,1*%
%TO.N,+12V*%
X174218600Y-87595200D03*
%TO.P,R15,2*%
%TO.N,Net-(U1-EN)*%
X174218600Y-89595200D03*
%TD*%
D22*
%TO.P,C4,1*%
%TO.N,+12V*%
X179370900Y-100711000D03*
%TO.P,C4,2*%
%TO.N,GND*%
X177295900Y-100711000D03*
%TD*%
D16*
%TO.P,D2,1,K*%
%TO.N,+12V*%
X138887200Y-79883000D03*
D17*
%TO.P,D2,2,A*%
%TO.N,Net-(D2-A)*%
X138887200Y-72263000D03*
%TD*%
D23*
%TO.N,*%
X172940000Y-32830000D03*
%TO.N,GND*%
X177290000Y-77770000D03*
X181270000Y-60620000D03*
X175630000Y-61180000D03*
X174180000Y-59810000D03*
X170790000Y-59410000D03*
X168520000Y-61470000D03*
X163000000Y-60840000D03*
X161090000Y-59590000D03*
X155830000Y-59520000D03*
X154660000Y-61170000D03*
X149590000Y-61320000D03*
X148230000Y-59810000D03*
X194260000Y-58450000D03*
X186030000Y-57100000D03*
X131368800Y-67157600D03*
X195605400Y-95300800D03*
X171348400Y-74117200D03*
X181432200Y-93903800D03*
X170459400Y-82854800D03*
X164820600Y-76250800D03*
X131064000Y-105537000D03*
X164744400Y-79908400D03*
X152019000Y-92405200D03*
X182080000Y-65790000D03*
X171551600Y-86791800D03*
X158826200Y-105587800D03*
X171958000Y-82397600D03*
X195072000Y-106349800D03*
X169926000Y-105181400D03*
X142036800Y-112014000D03*
X131749800Y-59512200D03*
X170561000Y-114020600D03*
X156972000Y-73710800D03*
X156591000Y-97129600D03*
X131140200Y-82905600D03*
X143814800Y-114503200D03*
X166979600Y-88011000D03*
X175615600Y-93802200D03*
X195554600Y-60756800D03*
X153720800Y-98526600D03*
X156667200Y-94081600D03*
X148280000Y-75440000D03*
X153480000Y-73490000D03*
X167005000Y-98602800D03*
X134848600Y-57607200D03*
X137388600Y-114376200D03*
X174290000Y-108860000D03*
X194995800Y-75869800D03*
X152933400Y-76631800D03*
X143078200Y-57785000D03*
X166649400Y-85140800D03*
X147243800Y-112242600D03*
X165176200Y-82575400D03*
X195783200Y-79908400D03*
X177622200Y-84861400D03*
X152806400Y-69926200D03*
X167030400Y-91109800D03*
X147497800Y-73533000D03*
X138836400Y-57785000D03*
X153940000Y-67490000D03*
X195707000Y-83870800D03*
X195453000Y-99847400D03*
X186160000Y-81400000D03*
X151968200Y-95351600D03*
X172897800Y-84937600D03*
X131445000Y-64008000D03*
X163900000Y-66120000D03*
X174020000Y-68060000D03*
X186461400Y-114173000D03*
X132334000Y-113665000D03*
X135636000Y-87426800D03*
X140716000Y-108254800D03*
X154330400Y-78765400D03*
X148620000Y-77090000D03*
X182118000Y-95961200D03*
X195757800Y-64592200D03*
X174140000Y-66170000D03*
X157022800Y-107594400D03*
X193116200Y-57099200D03*
X192379600Y-113944400D03*
X130767080Y-111074606D03*
X176352200Y-72974200D03*
X156692600Y-76530200D03*
X188239400Y-57150000D03*
X195681600Y-91465400D03*
X165608000Y-114046000D03*
X177292000Y-99212400D03*
X160223200Y-114096800D03*
X179425600Y-72974200D03*
X144380000Y-64870000D03*
X179700000Y-109220000D03*
X180898800Y-68630800D03*
X170586400Y-84937600D03*
X163500000Y-72320000D03*
X165658800Y-106705400D03*
X167970000Y-66190000D03*
X159850000Y-66220000D03*
X195656200Y-87426800D03*
X178333400Y-93751400D03*
X164795200Y-97510600D03*
X165455600Y-101193600D03*
X130987800Y-101600000D03*
X194995800Y-111175800D03*
X148240000Y-70410000D03*
X131191000Y-86182200D03*
X175514000Y-114020600D03*
X194970400Y-69342000D03*
X170662600Y-101244400D03*
X181254400Y-114020600D03*
X174904400Y-101295200D03*
%TO.N,+12V*%
X170881015Y-79129069D03*
X172431000Y-71109399D03*
X174386214Y-78281470D03*
X179370900Y-99161600D03*
X167198014Y-77757470D03*
X178358800Y-82397600D03*
X180406015Y-82405669D03*
%TO.N,/IMD_OKHS*%
X181254400Y-98069400D03*
%TO.N,/AMS_latch*%
X183060000Y-103820000D03*
%TO.N,/IMD_latch*%
X170420000Y-99660000D03*
%TO.N,Net-(U1-EN)*%
X174244000Y-90830400D03*
%TD*%
D24*
%TO.N,+12V*%
X147985600Y-56840000D02*
X136626600Y-68199000D01*
X136626600Y-68199000D02*
X136626600Y-77622400D01*
X136626600Y-77622400D02*
X138887200Y-79883000D01*
X181757200Y-56840000D02*
X147985600Y-56840000D01*
X189030000Y-64112800D02*
X181757200Y-56840000D01*
X189030000Y-72220000D02*
X189030000Y-64112800D01*
%TO.N,/SDC_IN*%
X146024600Y-95453200D02*
X142960200Y-95453200D01*
X148065800Y-93414200D02*
X148063600Y-93414200D01*
X149319600Y-92160400D02*
X148065800Y-93414200D01*
X149319600Y-92158200D02*
X149319600Y-92160400D01*
X148470000Y-65900000D02*
X150760000Y-68190000D01*
X148470000Y-63710000D02*
X148470000Y-65900000D01*
X150760000Y-68190000D02*
X150760000Y-90717800D01*
X150760000Y-90717800D02*
X149319600Y-92158200D01*
X148063600Y-93414200D02*
X146024600Y-95453200D01*
%TO.N,/SDC_OUT*%
X162660000Y-66700000D02*
X162660000Y-63710000D01*
X161300000Y-68060000D02*
X162660000Y-66700000D01*
X158738800Y-68060000D02*
X161300000Y-68060000D01*
X157109400Y-69689400D02*
X158738800Y-68060000D01*
D25*
%TO.N,GND*%
X171961900Y-82393700D02*
X171958000Y-82397600D01*
X177292000Y-99212400D02*
X177292000Y-99314000D01*
X177292000Y-99314000D02*
X177295900Y-99317900D01*
D26*
X173583600Y-82393700D02*
X171961900Y-82393700D01*
X177295900Y-99317900D02*
X177295900Y-100711000D01*
D24*
%TO.N,+12V*%
X144859400Y-84528000D02*
X140309600Y-89077800D01*
D26*
X172070646Y-80318700D02*
X170881015Y-79129069D01*
X167198014Y-77757470D02*
X167198014Y-75524386D01*
X172669200Y-94767400D02*
X173659800Y-95758000D01*
X178358800Y-82397600D02*
X177495200Y-82397600D01*
D24*
X143645000Y-102768400D02*
X139090400Y-102768400D01*
D26*
X173415200Y-87595200D02*
X172669200Y-88341200D01*
X180314600Y-86182200D02*
X180314600Y-82497084D01*
X172669200Y-88341200D02*
X172669200Y-94767400D01*
X167198014Y-75524386D02*
X171613001Y-71109399D01*
D24*
X138201400Y-101828600D02*
X138201400Y-99542600D01*
X144910200Y-101503200D02*
X143645000Y-102768400D01*
X139090400Y-102768400D02*
X139090400Y-102717600D01*
D26*
X174218600Y-87595200D02*
X173415200Y-87595200D01*
X174218600Y-87595200D02*
X178901600Y-87595200D01*
X171613001Y-71109399D02*
X172431000Y-71109399D01*
D24*
X144859400Y-81996000D02*
X144859400Y-84528000D01*
D26*
X177495200Y-82397600D02*
X175416300Y-80318700D01*
D24*
X139852400Y-99542600D02*
X140309600Y-99085400D01*
D26*
X179370900Y-99161600D02*
X179370900Y-100711000D01*
X178901600Y-87595200D02*
X180314600Y-86182200D01*
D24*
X141000200Y-81996000D02*
X138887200Y-79883000D01*
X139090400Y-102717600D02*
X138201400Y-101828600D01*
D26*
X173583600Y-80318700D02*
X173583600Y-79084084D01*
D24*
X138201400Y-99542600D02*
X139852400Y-99542600D01*
X144859400Y-81996000D02*
X141000200Y-81996000D01*
X140309600Y-99085400D02*
X140309600Y-98882200D01*
D26*
X170881015Y-79129069D02*
X168569613Y-79129069D01*
X168569613Y-79129069D02*
X167198014Y-77757470D01*
D24*
X140309600Y-97459800D02*
X140309600Y-98983800D01*
D26*
X173583600Y-79084084D02*
X174386214Y-78281470D01*
X179370900Y-96871700D02*
X179370900Y-99161600D01*
X175416300Y-80318700D02*
X172070646Y-80318700D01*
X178257200Y-95758000D02*
X179370900Y-96871700D01*
D24*
X140309600Y-89077800D02*
X140309600Y-97459800D01*
D26*
X173659800Y-95758000D02*
X178257200Y-95758000D01*
X180314600Y-82497084D02*
X180406015Y-82405669D01*
D27*
X189030000Y-75680000D02*
X189030000Y-72220000D01*
D28*
%TO.N,/IMD_OKHS*%
X184140000Y-96682400D02*
X184140000Y-93160000D01*
X181254400Y-98069400D02*
X182753000Y-98069400D01*
X188830000Y-91690000D02*
X190400000Y-91690000D01*
X191560000Y-87017172D02*
X188970000Y-84427172D01*
X182753000Y-98069400D02*
X184140000Y-96682400D01*
X190400000Y-91690000D02*
X191560000Y-90530000D01*
X191560000Y-90530000D02*
X191560000Y-87017172D01*
X185610000Y-91690000D02*
X188830000Y-91690000D01*
X184140000Y-93160000D02*
X185610000Y-91690000D01*
X188970000Y-84427172D02*
X188970000Y-84158104D01*
%TO.N,/IMD_MHS*%
X188960000Y-89940000D02*
X188960000Y-87168104D01*
D29*
X188960000Y-87168104D02*
X188970000Y-87158104D01*
X188950000Y-87178104D02*
X188970000Y-87158104D01*
%TO.N,/AMS_latch*%
X189391343Y-96060000D02*
X189080000Y-96060000D01*
X190630000Y-101280000D02*
X190630000Y-97298657D01*
X190630000Y-97298657D02*
X189391343Y-96060000D01*
X189204600Y-95453200D02*
X189204600Y-96545400D01*
X188090000Y-103820000D02*
X190630000Y-101280000D01*
X183060000Y-103820000D02*
X188090000Y-103820000D01*
%TO.N,/IMD_latch*%
X180938900Y-102361100D02*
X182410000Y-100890000D01*
X173121100Y-102361100D02*
X180938900Y-102361100D01*
X170420000Y-99660000D02*
X173121100Y-102361100D01*
X189080000Y-99630000D02*
X189080000Y-99060000D01*
X187820000Y-100890000D02*
X189080000Y-99630000D01*
X182410000Y-100890000D02*
X187820000Y-100890000D01*
D25*
%TO.N,Net-(U1-EN)*%
X174218600Y-89595200D02*
X174218600Y-90805000D01*
X174218600Y-90805000D02*
X174244000Y-90830400D01*
%TD*%
%TA.AperFunction,Conductor*%
%TO.N,GND*%
G36*
X146945735Y-56240992D02*
G01*
X146991490Y-56293796D01*
X147001434Y-56362954D01*
X146972409Y-56426510D01*
X146966377Y-56432988D01*
X141352166Y-62047200D01*
X135983719Y-67415647D01*
X135913482Y-67485884D01*
X135843245Y-67556120D01*
X135732882Y-67721289D01*
X135732877Y-67721298D01*
X135656856Y-67904830D01*
X135656854Y-67904838D01*
X135618100Y-68099666D01*
X135618100Y-77721733D01*
X135656854Y-77916561D01*
X135656856Y-77916569D01*
X135718586Y-78065597D01*
X135732880Y-78100107D01*
X135843246Y-78265280D01*
X135843249Y-78265284D01*
X137550381Y-79972415D01*
X137583866Y-80033738D01*
X137586700Y-80060096D01*
X137586700Y-80730870D01*
X137586701Y-80730876D01*
X137593108Y-80790483D01*
X137643402Y-80925328D01*
X137643406Y-80925335D01*
X137729652Y-81040544D01*
X137729655Y-81040547D01*
X137844864Y-81126793D01*
X137844871Y-81126797D01*
X137889818Y-81143561D01*
X137979717Y-81177091D01*
X138039327Y-81183500D01*
X138710103Y-81183499D01*
X138777142Y-81203183D01*
X138797784Y-81219818D01*
X140216847Y-82638881D01*
X140349842Y-82771876D01*
X140357320Y-82779354D01*
X140522489Y-82889717D01*
X140522495Y-82889720D01*
X140522496Y-82889721D01*
X140706031Y-82965744D01*
X140874327Y-82999220D01*
X140900866Y-83004499D01*
X140900870Y-83004500D01*
X140900871Y-83004500D01*
X143365643Y-83004500D01*
X143432682Y-83024185D01*
X143464014Y-83053008D01*
X143540481Y-83152661D01*
X143540485Y-83152665D01*
X143540489Y-83152670D01*
X143702733Y-83314914D01*
X143702740Y-83314920D01*
X143802386Y-83391381D01*
X143843589Y-83447809D01*
X143850900Y-83489757D01*
X143850900Y-84058904D01*
X143831215Y-84125943D01*
X143814581Y-84146585D01*
X139666719Y-88294447D01*
X139621770Y-88339396D01*
X139526245Y-88434920D01*
X139415882Y-88600089D01*
X139415877Y-88600098D01*
X139339856Y-88783630D01*
X139339854Y-88783638D01*
X139301100Y-88978466D01*
X139301100Y-90883753D01*
X139281415Y-90950792D01*
X139228611Y-90996547D01*
X139159453Y-91006491D01*
X139095897Y-90977466D01*
X139089419Y-90971434D01*
X139048613Y-90930628D01*
X138883013Y-90810315D01*
X138883012Y-90810314D01*
X138883010Y-90810313D01*
X138813805Y-90775051D01*
X138700623Y-90717381D01*
X138505934Y-90654122D01*
X138331395Y-90626478D01*
X138303752Y-90622100D01*
X138099048Y-90622100D01*
X138074729Y-90625951D01*
X137896865Y-90654122D01*
X137702176Y-90717381D01*
X137519786Y-90810315D01*
X137354186Y-90930628D01*
X137209428Y-91075386D01*
X137089115Y-91240986D01*
X136996181Y-91423376D01*
X136932922Y-91618065D01*
X136900900Y-91820248D01*
X136900900Y-92024951D01*
X136932922Y-92227134D01*
X136996181Y-92421823D01*
X137089115Y-92604213D01*
X137209428Y-92769813D01*
X137354186Y-92914571D01*
X137509149Y-93027156D01*
X137519790Y-93034887D01*
X137636007Y-93094103D01*
X137702176Y-93127818D01*
X137702178Y-93127818D01*
X137702181Y-93127820D01*
X137806537Y-93161727D01*
X137896865Y-93191077D01*
X137997957Y-93207088D01*
X138099048Y-93223100D01*
X138099049Y-93223100D01*
X138303751Y-93223100D01*
X138303752Y-93223100D01*
X138505934Y-93191077D01*
X138700619Y-93127820D01*
X138883010Y-93034887D01*
X138996268Y-92952601D01*
X139048613Y-92914571D01*
X139048615Y-92914568D01*
X139048619Y-92914566D01*
X139089419Y-92873766D01*
X139150742Y-92840281D01*
X139220434Y-92845265D01*
X139276367Y-92887137D01*
X139300784Y-92952601D01*
X139301100Y-92961447D01*
X139301100Y-98141607D01*
X139281415Y-98208646D01*
X139228611Y-98254401D01*
X139159453Y-98264345D01*
X139133770Y-98257790D01*
X139108884Y-98248509D01*
X139108883Y-98248508D01*
X139049283Y-98242101D01*
X139049281Y-98242100D01*
X139049273Y-98242100D01*
X139049264Y-98242100D01*
X137353529Y-98242100D01*
X137353523Y-98242101D01*
X137293916Y-98248508D01*
X137159071Y-98298802D01*
X137159064Y-98298806D01*
X137043855Y-98385052D01*
X137043852Y-98385055D01*
X136957606Y-98500264D01*
X136957602Y-98500271D01*
X136907308Y-98635117D01*
X136900901Y-98694716D01*
X136900900Y-98694735D01*
X136900900Y-100390470D01*
X136900901Y-100390476D01*
X136907308Y-100450083D01*
X136957602Y-100584928D01*
X136957606Y-100584935D01*
X136981243Y-100616509D01*
X137043854Y-100700146D01*
X137143212Y-100774525D01*
X137185082Y-100830458D01*
X137192900Y-100873791D01*
X137192900Y-101927933D01*
X137231654Y-102122761D01*
X137231656Y-102122769D01*
X137280172Y-102239896D01*
X137280172Y-102239897D01*
X137307675Y-102306297D01*
X137307682Y-102306310D01*
X137418046Y-102471480D01*
X137418049Y-102471484D01*
X138196114Y-103249548D01*
X138211535Y-103268338D01*
X138307046Y-103411280D01*
X138307049Y-103411284D01*
X138447515Y-103551750D01*
X138447519Y-103551753D01*
X138612689Y-103662117D01*
X138612695Y-103662120D01*
X138612696Y-103662121D01*
X138796231Y-103738144D01*
X138991066Y-103776899D01*
X138991070Y-103776900D01*
X138991071Y-103776900D01*
X143744330Y-103776900D01*
X143744331Y-103776899D01*
X143939169Y-103738144D01*
X144122704Y-103662121D01*
X144287881Y-103551753D01*
X144428353Y-103411281D01*
X144567073Y-103272559D01*
X144628392Y-103239077D01*
X144670931Y-103237304D01*
X144795466Y-103253700D01*
X144795473Y-103253700D01*
X145024927Y-103253700D01*
X145024934Y-103253700D01*
X145252438Y-103223748D01*
X145474087Y-103164358D01*
X145686088Y-103076544D01*
X145884812Y-102961811D01*
X146066861Y-102822119D01*
X146066865Y-102822114D01*
X146066870Y-102822111D01*
X146229111Y-102659870D01*
X146229114Y-102659865D01*
X146229119Y-102659861D01*
X146368811Y-102477812D01*
X146483544Y-102279088D01*
X146571358Y-102067087D01*
X146630748Y-101845438D01*
X146660700Y-101617934D01*
X146660700Y-101388466D01*
X146658542Y-101372072D01*
X155109700Y-101372072D01*
X155109700Y-101634327D01*
X155127658Y-101770724D01*
X155143930Y-101894316D01*
X155211802Y-102147618D01*
X155211805Y-102147628D01*
X155312153Y-102389890D01*
X155312158Y-102389900D01*
X155443275Y-102617003D01*
X155602918Y-102825051D01*
X155602926Y-102825060D01*
X155788340Y-103010474D01*
X155788348Y-103010481D01*
X155788349Y-103010482D01*
X155836754Y-103047624D01*
X155996396Y-103170124D01*
X156223499Y-103301241D01*
X156223509Y-103301246D01*
X156465771Y-103401594D01*
X156465781Y-103401598D01*
X156719084Y-103469470D01*
X156979080Y-103503700D01*
X156979087Y-103503700D01*
X157241313Y-103503700D01*
X157241320Y-103503700D01*
X157501316Y-103469470D01*
X157754619Y-103401598D01*
X157931540Y-103328314D01*
X157996890Y-103301246D01*
X157996891Y-103301245D01*
X157996897Y-103301243D01*
X158224003Y-103170124D01*
X158432051Y-103010482D01*
X158432055Y-103010477D01*
X158432060Y-103010474D01*
X158617474Y-102825060D01*
X158617477Y-102825055D01*
X158617482Y-102825051D01*
X158777124Y-102617003D01*
X158908243Y-102389897D01*
X159008598Y-102147619D01*
X159076470Y-101894316D01*
X159110700Y-101634320D01*
X159110700Y-101372080D01*
X159076470Y-101112084D01*
X159008598Y-100858781D01*
X158973698Y-100774524D01*
X158908246Y-100616509D01*
X158908241Y-100616499D01*
X158777124Y-100389396D01*
X158621044Y-100185991D01*
X158617482Y-100181349D01*
X158617481Y-100181348D01*
X158617474Y-100181340D01*
X158432060Y-99995926D01*
X158432051Y-99995918D01*
X158224003Y-99836275D01*
X157996900Y-99705158D01*
X157996890Y-99705154D01*
X157959405Y-99689627D01*
X157754628Y-99604805D01*
X157754621Y-99604803D01*
X157754619Y-99604802D01*
X157666359Y-99581153D01*
X169619500Y-99581153D01*
X169619500Y-99738846D01*
X169650261Y-99893489D01*
X169650264Y-99893501D01*
X169710602Y-100039172D01*
X169710609Y-100039185D01*
X169798210Y-100170288D01*
X169798213Y-100170292D01*
X169909707Y-100281786D01*
X169909711Y-100281789D01*
X170040814Y-100369390D01*
X170040827Y-100369397D01*
X170137600Y-100409481D01*
X170186503Y-100429737D01*
X170251147Y-100442595D01*
X170341849Y-100460638D01*
X170403760Y-100493023D01*
X170405339Y-100494574D01*
X172640578Y-102729813D01*
X172640580Y-102729816D01*
X172752384Y-102841620D01*
X172797607Y-102867729D01*
X172844253Y-102894660D01*
X172889309Y-102920674D01*
X172889310Y-102920674D01*
X172889315Y-102920677D01*
X173042042Y-102961600D01*
X173042043Y-102961600D01*
X180852231Y-102961600D01*
X180852247Y-102961601D01*
X180859843Y-102961601D01*
X181017954Y-102961601D01*
X181017957Y-102961601D01*
X181170685Y-102920677D01*
X181262393Y-102867729D01*
X181307616Y-102841620D01*
X181419420Y-102729816D01*
X181419420Y-102729814D01*
X181429624Y-102719611D01*
X181429627Y-102719606D01*
X182622417Y-101526819D01*
X182683740Y-101493334D01*
X182710098Y-101490500D01*
X187733331Y-101490500D01*
X187733347Y-101490501D01*
X187740943Y-101490501D01*
X187899054Y-101490501D01*
X187899057Y-101490501D01*
X188051785Y-101449577D01*
X188115737Y-101412654D01*
X188188716Y-101370520D01*
X188300520Y-101258716D01*
X188300520Y-101258714D01*
X188310724Y-101248511D01*
X188310728Y-101248506D01*
X189233479Y-100325754D01*
X189294800Y-100292271D01*
X189301732Y-100290968D01*
X189372826Y-100279709D01*
X189560025Y-100218884D01*
X189735405Y-100129524D01*
X189832614Y-100058896D01*
X189898420Y-100035416D01*
X189966474Y-100051241D01*
X190015169Y-100101346D01*
X190029500Y-100159214D01*
X190029500Y-100979903D01*
X190009815Y-101046942D01*
X189993181Y-101067584D01*
X187877584Y-103183181D01*
X187816261Y-103216666D01*
X187789903Y-103219500D01*
X183639766Y-103219500D01*
X183572727Y-103199815D01*
X183570875Y-103198602D01*
X183439185Y-103110609D01*
X183439172Y-103110602D01*
X183293501Y-103050264D01*
X183293489Y-103050261D01*
X183138845Y-103019500D01*
X183138842Y-103019500D01*
X182981158Y-103019500D01*
X182981155Y-103019500D01*
X182826510Y-103050261D01*
X182826498Y-103050264D01*
X182680827Y-103110602D01*
X182680814Y-103110609D01*
X182549711Y-103198210D01*
X182549707Y-103198213D01*
X182438213Y-103309707D01*
X182438210Y-103309711D01*
X182350609Y-103440814D01*
X182350602Y-103440827D01*
X182290264Y-103586498D01*
X182290261Y-103586510D01*
X182259500Y-103741153D01*
X182259500Y-103898846D01*
X182290261Y-104053489D01*
X182290264Y-104053501D01*
X182350602Y-104199172D01*
X182350609Y-104199185D01*
X182438210Y-104330288D01*
X182438213Y-104330292D01*
X182549707Y-104441786D01*
X182549711Y-104441789D01*
X182680814Y-104529390D01*
X182680827Y-104529397D01*
X182826498Y-104589735D01*
X182826503Y-104589737D01*
X182981153Y-104620499D01*
X182981156Y-104620500D01*
X182981158Y-104620500D01*
X183138844Y-104620500D01*
X183138845Y-104620499D01*
X183293497Y-104589737D01*
X183439179Y-104529394D01*
X183439185Y-104529390D01*
X183570875Y-104441398D01*
X183637553Y-104420520D01*
X183639766Y-104420500D01*
X188003331Y-104420500D01*
X188003347Y-104420501D01*
X188010943Y-104420501D01*
X188169054Y-104420501D01*
X188169057Y-104420501D01*
X188321785Y-104379577D01*
X188371904Y-104350639D01*
X188458716Y-104300520D01*
X188570520Y-104188716D01*
X188570520Y-104188714D01*
X188580728Y-104178507D01*
X188580730Y-104178504D01*
X190988506Y-101770728D01*
X190988511Y-101770724D01*
X190998714Y-101760520D01*
X190998716Y-101760520D01*
X191110520Y-101648716D01*
X191189577Y-101511784D01*
X191230500Y-101359057D01*
X191230500Y-97445258D01*
X191649500Y-97445258D01*
X191649500Y-97674741D01*
X191671296Y-97840290D01*
X191679452Y-97902238D01*
X191703209Y-97990902D01*
X191738842Y-98123887D01*
X191826650Y-98335876D01*
X191826657Y-98335890D01*
X191941392Y-98534617D01*
X192081081Y-98716661D01*
X192081089Y-98716670D01*
X192243330Y-98878911D01*
X192243338Y-98878918D01*
X192425382Y-99018607D01*
X192425385Y-99018608D01*
X192425388Y-99018611D01*
X192624112Y-99133344D01*
X192624117Y-99133346D01*
X192624123Y-99133349D01*
X192663625Y-99149711D01*
X192836113Y-99221158D01*
X193057762Y-99280548D01*
X193285266Y-99310500D01*
X193285273Y-99310500D01*
X193514727Y-99310500D01*
X193514734Y-99310500D01*
X193742238Y-99280548D01*
X193963887Y-99221158D01*
X194175888Y-99133344D01*
X194374612Y-99018611D01*
X194556661Y-98878919D01*
X194556665Y-98878914D01*
X194556670Y-98878911D01*
X194718911Y-98716670D01*
X194718914Y-98716665D01*
X194718919Y-98716661D01*
X194858611Y-98534612D01*
X194973344Y-98335888D01*
X195061158Y-98123887D01*
X195120548Y-97902238D01*
X195150500Y-97674734D01*
X195150500Y-97445266D01*
X195120548Y-97217762D01*
X195061158Y-96996113D01*
X195001429Y-96851915D01*
X194973349Y-96784123D01*
X194973346Y-96784117D01*
X194973344Y-96784112D01*
X194858611Y-96585388D01*
X194858608Y-96585385D01*
X194858607Y-96585382D01*
X194736791Y-96426630D01*
X194718919Y-96403339D01*
X194718918Y-96403338D01*
X194718911Y-96403330D01*
X194556670Y-96241089D01*
X194556661Y-96241081D01*
X194374617Y-96101392D01*
X194175890Y-95986657D01*
X194175876Y-95986650D01*
X193963887Y-95898842D01*
X193742238Y-95839452D01*
X193704215Y-95834446D01*
X193514741Y-95809500D01*
X193514734Y-95809500D01*
X193285266Y-95809500D01*
X193285258Y-95809500D01*
X193068715Y-95838009D01*
X193057762Y-95839452D01*
X192964076Y-95864554D01*
X192836112Y-95898842D01*
X192624123Y-95986650D01*
X192624109Y-95986657D01*
X192425382Y-96101392D01*
X192243338Y-96241081D01*
X192081081Y-96403338D01*
X191941392Y-96585382D01*
X191826657Y-96784109D01*
X191826650Y-96784123D01*
X191738842Y-96996112D01*
X191715719Y-97082410D01*
X191688439Y-97184224D01*
X191679453Y-97217759D01*
X191679451Y-97217770D01*
X191649500Y-97445258D01*
X191230500Y-97445258D01*
X191230500Y-97387717D01*
X191230501Y-97387704D01*
X191230501Y-97219601D01*
X191230309Y-97218884D01*
X191189577Y-97066873D01*
X191169251Y-97031667D01*
X191110524Y-96929947D01*
X191110518Y-96929939D01*
X190366819Y-96186240D01*
X190333334Y-96124917D01*
X190330500Y-96098559D01*
X190330500Y-95509997D01*
X190330499Y-95509984D01*
X190326037Y-95466312D01*
X190319999Y-95407203D01*
X190264814Y-95240666D01*
X190222424Y-95171942D01*
X190172713Y-95091348D01*
X190172710Y-95091344D01*
X190048655Y-94967289D01*
X190048651Y-94967286D01*
X189899337Y-94875187D01*
X189899335Y-94875186D01*
X189794025Y-94840290D01*
X189732797Y-94820001D01*
X189732795Y-94820000D01*
X189630015Y-94809500D01*
X189630008Y-94809500D01*
X188529992Y-94809500D01*
X188529984Y-94809500D01*
X188427204Y-94820000D01*
X188427203Y-94820001D01*
X188260664Y-94875186D01*
X188260662Y-94875187D01*
X188111348Y-94967286D01*
X188111344Y-94967289D01*
X187987289Y-95091344D01*
X187987286Y-95091348D01*
X187895187Y-95240662D01*
X187895186Y-95240664D01*
X187840001Y-95407203D01*
X187840000Y-95407204D01*
X187829500Y-95509984D01*
X187829500Y-96610015D01*
X187840000Y-96712795D01*
X187840001Y-96712797D01*
X187863636Y-96784123D01*
X187895186Y-96879335D01*
X187895187Y-96879337D01*
X187987286Y-97028651D01*
X187987289Y-97028655D01*
X188111344Y-97152710D01*
X188111348Y-97152713D01*
X188260662Y-97244812D01*
X188260664Y-97244813D01*
X188260666Y-97244814D01*
X188427203Y-97299999D01*
X188529992Y-97310500D01*
X188529997Y-97310500D01*
X189630003Y-97310500D01*
X189630008Y-97310500D01*
X189667376Y-97306682D01*
X189718918Y-97301417D01*
X189720841Y-97301774D01*
X189722674Y-97301091D01*
X189755033Y-97308130D01*
X189787610Y-97314186D01*
X189789641Y-97315658D01*
X189790947Y-97315943D01*
X189819201Y-97337094D01*
X189993181Y-97511073D01*
X190026666Y-97572396D01*
X190029500Y-97598754D01*
X190029500Y-97960785D01*
X190009815Y-98027824D01*
X189957011Y-98073579D01*
X189887853Y-98083523D01*
X189832614Y-98061103D01*
X189735405Y-97990476D01*
X189560029Y-97901117D01*
X189372826Y-97840290D01*
X189178422Y-97809500D01*
X189178417Y-97809500D01*
X188981583Y-97809500D01*
X188981578Y-97809500D01*
X188787173Y-97840290D01*
X188599970Y-97901117D01*
X188424594Y-97990476D01*
X188373190Y-98027824D01*
X188265354Y-98106172D01*
X188265352Y-98106174D01*
X188265351Y-98106174D01*
X188126174Y-98245351D01*
X188126174Y-98245352D01*
X188126172Y-98245354D01*
X188076485Y-98313741D01*
X188010476Y-98404594D01*
X187921117Y-98579970D01*
X187860290Y-98767173D01*
X187829500Y-98961577D01*
X187829500Y-99158422D01*
X187860290Y-99352826D01*
X187921117Y-99540029D01*
X188010480Y-99715413D01*
X188010656Y-99715700D01*
X188010689Y-99715823D01*
X188012688Y-99719746D01*
X188011863Y-99720166D01*
X188028893Y-99783147D01*
X188007771Y-99849748D01*
X187992603Y-99868160D01*
X187607584Y-100253181D01*
X187546261Y-100286666D01*
X187519903Y-100289500D01*
X186889644Y-100289500D01*
X186822605Y-100269815D01*
X186776850Y-100217011D01*
X186766026Y-100155771D01*
X186770125Y-100103677D01*
X186217575Y-99551127D01*
X186276853Y-99535245D01*
X186393147Y-99468102D01*
X186488102Y-99373147D01*
X186555245Y-99256853D01*
X186571127Y-99197575D01*
X187123678Y-99750126D01*
X187123678Y-99750125D01*
X187149095Y-99715143D01*
X187238418Y-99539835D01*
X187299221Y-99352705D01*
X187330000Y-99158382D01*
X187330000Y-98961617D01*
X187299221Y-98767294D01*
X187238418Y-98580164D01*
X187149096Y-98404858D01*
X187123678Y-98369873D01*
X187123677Y-98369873D01*
X186571127Y-98922423D01*
X186555245Y-98863147D01*
X186488102Y-98746853D01*
X186393147Y-98651898D01*
X186276853Y-98584755D01*
X186217574Y-98568871D01*
X186770125Y-98016320D01*
X186770125Y-98016319D01*
X186735145Y-97990905D01*
X186559835Y-97901581D01*
X186372705Y-97840778D01*
X186178382Y-97810000D01*
X185981618Y-97810000D01*
X185787294Y-97840778D01*
X185600161Y-97901582D01*
X185424863Y-97990899D01*
X185424859Y-97990902D01*
X185389873Y-98016320D01*
X185389872Y-98016320D01*
X185942425Y-98568871D01*
X185883147Y-98584755D01*
X185766853Y-98651898D01*
X185671898Y-98746853D01*
X185604755Y-98863147D01*
X185588871Y-98922424D01*
X185036320Y-98369872D01*
X185036320Y-98369873D01*
X185010902Y-98404859D01*
X185010899Y-98404863D01*
X184921582Y-98580161D01*
X184860778Y-98767294D01*
X184830000Y-98961617D01*
X184830000Y-99158382D01*
X184860778Y-99352705D01*
X184921581Y-99539835D01*
X185010905Y-99715145D01*
X185036319Y-99750125D01*
X185036320Y-99750125D01*
X185588871Y-99197574D01*
X185604755Y-99256853D01*
X185671898Y-99373147D01*
X185766853Y-99468102D01*
X185883147Y-99535245D01*
X185942424Y-99551128D01*
X185389873Y-100103677D01*
X185393974Y-100155770D01*
X185379610Y-100224147D01*
X185330560Y-100273904D01*
X185270356Y-100289500D01*
X182496670Y-100289500D01*
X182496654Y-100289499D01*
X182489058Y-100289499D01*
X182330943Y-100289499D01*
X182254579Y-100309961D01*
X182178214Y-100330423D01*
X182178209Y-100330426D01*
X182041290Y-100409475D01*
X182041282Y-100409481D01*
X180726484Y-101724281D01*
X180699556Y-101738984D01*
X180673738Y-101755577D01*
X180667537Y-101756468D01*
X180665161Y-101757766D01*
X180638803Y-101760600D01*
X180457939Y-101760600D01*
X180390900Y-101740915D01*
X180345145Y-101688111D01*
X180335201Y-101618953D01*
X180352398Y-101571506D01*
X180393214Y-101505334D01*
X180448399Y-101338797D01*
X180458900Y-101236009D01*
X180458899Y-100185992D01*
X180453130Y-100129521D01*
X180448399Y-100083203D01*
X180448398Y-100083200D01*
X180437808Y-100051241D01*
X180393214Y-99916666D01*
X180301112Y-99767344D01*
X180177056Y-99643288D01*
X180177054Y-99643286D01*
X180172484Y-99639672D01*
X180170819Y-99637320D01*
X180168197Y-99636123D01*
X180150752Y-99608978D01*
X180132110Y-99582648D01*
X180131506Y-99579031D01*
X180130423Y-99577345D01*
X180125400Y-99542410D01*
X180125400Y-99456547D01*
X180134839Y-99409094D01*
X180140637Y-99395097D01*
X180171400Y-99240442D01*
X180171400Y-99082758D01*
X180171400Y-99082755D01*
X180171399Y-99082753D01*
X180140639Y-98928111D01*
X180140638Y-98928108D01*
X180140637Y-98928103D01*
X180134837Y-98914101D01*
X180125400Y-98866653D01*
X180125400Y-97990553D01*
X180453900Y-97990553D01*
X180453900Y-98148246D01*
X180484661Y-98302889D01*
X180484664Y-98302901D01*
X180545002Y-98448572D01*
X180545009Y-98448585D01*
X180632610Y-98579688D01*
X180632613Y-98579692D01*
X180744107Y-98691186D01*
X180744111Y-98691189D01*
X180875214Y-98778790D01*
X180875227Y-98778797D01*
X181020898Y-98839135D01*
X181020903Y-98839137D01*
X181175553Y-98869899D01*
X181175556Y-98869900D01*
X181175558Y-98869900D01*
X181333244Y-98869900D01*
X181333245Y-98869899D01*
X181385526Y-98859500D01*
X181487889Y-98839139D01*
X181487892Y-98839137D01*
X181487897Y-98839137D01*
X181633579Y-98778794D01*
X181724866Y-98717798D01*
X181791543Y-98696920D01*
X181793757Y-98696900D01*
X182814804Y-98696900D01*
X182814805Y-98696899D01*
X182936035Y-98672786D01*
X183026974Y-98635117D01*
X183050233Y-98625483D01*
X183153008Y-98556811D01*
X183240411Y-98469408D01*
X184627411Y-97082408D01*
X184661315Y-97031667D01*
X184696083Y-96979633D01*
X184743385Y-96865435D01*
X184767500Y-96744203D01*
X184767500Y-96744197D01*
X184767704Y-96742128D01*
X184768116Y-96741106D01*
X184768689Y-96738228D01*
X184769234Y-96738336D01*
X184793857Y-96677337D01*
X184850886Y-96636972D01*
X184920686Y-96633846D01*
X184981095Y-96668954D01*
X185001592Y-96697970D01*
X185010476Y-96715405D01*
X185126172Y-96874646D01*
X185265354Y-97013828D01*
X185424595Y-97129524D01*
X185507455Y-97171743D01*
X185599970Y-97218882D01*
X185599972Y-97218882D01*
X185599975Y-97218884D01*
X185679773Y-97244812D01*
X185787173Y-97279709D01*
X185981578Y-97310500D01*
X185981583Y-97310500D01*
X186178422Y-97310500D01*
X186372826Y-97279709D01*
X186406092Y-97268900D01*
X186560025Y-97218884D01*
X186735405Y-97129524D01*
X186894646Y-97013828D01*
X187033828Y-96874646D01*
X187149524Y-96715405D01*
X187238884Y-96540025D01*
X187299709Y-96352826D01*
X187310350Y-96285641D01*
X187330500Y-96158422D01*
X187330500Y-95961577D01*
X187299709Y-95767173D01*
X187238882Y-95579970D01*
X187180970Y-95466312D01*
X187149524Y-95404595D01*
X187033828Y-95245354D01*
X186894646Y-95106172D01*
X186735405Y-94990476D01*
X186689686Y-94967181D01*
X186560029Y-94901117D01*
X186372826Y-94840290D01*
X186178422Y-94809500D01*
X186178417Y-94809500D01*
X185981583Y-94809500D01*
X185981578Y-94809500D01*
X185787173Y-94840290D01*
X185599970Y-94901117D01*
X185424594Y-94990476D01*
X185366761Y-95032495D01*
X185265354Y-95106172D01*
X185265352Y-95106174D01*
X185265351Y-95106174D01*
X185126174Y-95245351D01*
X185126174Y-95245352D01*
X185126172Y-95245354D01*
X185076485Y-95313741D01*
X185010476Y-95404594D01*
X185001984Y-95421261D01*
X184954009Y-95472056D01*
X184886188Y-95488850D01*
X184820053Y-95466312D01*
X184776602Y-95411596D01*
X184767500Y-95364964D01*
X184767500Y-93471281D01*
X184787185Y-93404242D01*
X184803819Y-93383600D01*
X185833600Y-92353819D01*
X185894923Y-92320334D01*
X185921281Y-92317500D01*
X190461804Y-92317500D01*
X190461805Y-92317499D01*
X190583035Y-92293386D01*
X190669600Y-92257529D01*
X190669601Y-92257529D01*
X190697226Y-92246086D01*
X190697226Y-92246085D01*
X190697233Y-92246083D01*
X190800008Y-92177411D01*
X190887411Y-92090008D01*
X191830600Y-91146817D01*
X191891923Y-91113333D01*
X191918281Y-91110499D01*
X191970002Y-91110499D01*
X191970008Y-91110499D01*
X192072797Y-91099999D01*
X192239334Y-91044814D01*
X192388656Y-90952712D01*
X192482675Y-90858692D01*
X192543994Y-90825210D01*
X192613686Y-90830194D01*
X192658034Y-90858695D01*
X192751654Y-90952315D01*
X192900875Y-91044356D01*
X192900880Y-91044358D01*
X193067302Y-91099505D01*
X193067309Y-91099506D01*
X193170019Y-91109999D01*
X193319999Y-91109999D01*
X193820000Y-91109999D01*
X193969972Y-91109999D01*
X193969986Y-91109998D01*
X194072697Y-91099505D01*
X194239119Y-91044358D01*
X194239124Y-91044356D01*
X194388345Y-90952315D01*
X194512315Y-90828345D01*
X194604356Y-90679124D01*
X194604358Y-90679119D01*
X194659505Y-90512697D01*
X194659506Y-90512690D01*
X194669999Y-90409986D01*
X194670000Y-90409973D01*
X194670000Y-90160000D01*
X193820000Y-90160000D01*
X193820000Y-91109999D01*
X193319999Y-91109999D01*
X193320000Y-91109998D01*
X193320000Y-89660000D01*
X193820000Y-89660000D01*
X194669999Y-89660000D01*
X194669999Y-89410028D01*
X194669998Y-89410013D01*
X194659505Y-89307302D01*
X194604358Y-89140880D01*
X194604356Y-89140875D01*
X194512315Y-88991654D01*
X194388345Y-88867684D01*
X194239124Y-88775643D01*
X194239119Y-88775641D01*
X194072697Y-88720494D01*
X194072690Y-88720493D01*
X193969986Y-88710000D01*
X193820000Y-88710000D01*
X193820000Y-89660000D01*
X193320000Y-89660000D01*
X193320000Y-88710000D01*
X193170027Y-88710000D01*
X193170012Y-88710001D01*
X193067302Y-88720494D01*
X192900880Y-88775641D01*
X192900875Y-88775643D01*
X192751657Y-88867682D01*
X192658034Y-88961305D01*
X192596710Y-88994789D01*
X192527019Y-88989805D01*
X192482672Y-88961304D01*
X192388657Y-88867289D01*
X192388656Y-88867288D01*
X192266403Y-88791882D01*
X192246403Y-88779546D01*
X192199679Y-88727598D01*
X192187500Y-88674007D01*
X192187500Y-87257652D01*
X192207185Y-87190613D01*
X192259989Y-87144858D01*
X192329147Y-87134914D01*
X192373496Y-87150263D01*
X192514112Y-87231448D01*
X192514117Y-87231450D01*
X192514123Y-87231453D01*
X192605480Y-87269294D01*
X192726113Y-87319262D01*
X192947762Y-87378652D01*
X193175266Y-87408604D01*
X193175273Y-87408604D01*
X193404727Y-87408604D01*
X193404734Y-87408604D01*
X193632238Y-87378652D01*
X193853887Y-87319262D01*
X194065888Y-87231448D01*
X194264612Y-87116715D01*
X194446661Y-86977023D01*
X194446665Y-86977018D01*
X194446670Y-86977015D01*
X194608911Y-86814774D01*
X194608914Y-86814769D01*
X194608919Y-86814765D01*
X194748611Y-86632716D01*
X194863344Y-86433992D01*
X194951158Y-86221991D01*
X195010548Y-86000342D01*
X195040500Y-85772838D01*
X195040500Y-85543370D01*
X195010548Y-85315866D01*
X194951158Y-85094217D01*
X194863344Y-84882216D01*
X194748611Y-84683492D01*
X194748608Y-84683489D01*
X194748607Y-84683486D01*
X194608918Y-84501442D01*
X194608911Y-84501434D01*
X194446670Y-84339193D01*
X194446661Y-84339185D01*
X194264617Y-84199496D01*
X194065890Y-84084761D01*
X194065876Y-84084754D01*
X193853887Y-83996946D01*
X193852219Y-83996499D01*
X193632238Y-83937556D01*
X193594215Y-83932550D01*
X193404741Y-83907604D01*
X193404734Y-83907604D01*
X193175266Y-83907604D01*
X193175258Y-83907604D01*
X192958715Y-83936113D01*
X192947762Y-83937556D01*
X192855531Y-83962269D01*
X192726112Y-83996946D01*
X192514123Y-84084754D01*
X192514109Y-84084761D01*
X192315382Y-84199496D01*
X192133338Y-84339185D01*
X191971081Y-84501442D01*
X191831392Y-84683486D01*
X191716657Y-84882213D01*
X191716650Y-84882227D01*
X191628842Y-85094216D01*
X191569453Y-85315863D01*
X191569451Y-85315874D01*
X191539500Y-85543362D01*
X191539500Y-85772831D01*
X191539501Y-85772850D01*
X191542824Y-85798092D01*
X191532058Y-85867128D01*
X191485677Y-85919383D01*
X191418408Y-85938267D01*
X191351608Y-85917785D01*
X191332204Y-85901957D01*
X190254551Y-84824304D01*
X190221066Y-84762981D01*
X190218875Y-84724015D01*
X190220499Y-84708125D01*
X190220500Y-84708106D01*
X190220500Y-83608101D01*
X190220499Y-83608088D01*
X190209999Y-83505308D01*
X190209999Y-83505307D01*
X190154814Y-83338770D01*
X190141916Y-83317860D01*
X190062713Y-83189452D01*
X190062710Y-83189448D01*
X189938655Y-83065393D01*
X189938651Y-83065390D01*
X189789337Y-82973291D01*
X189789335Y-82973290D01*
X189684025Y-82938394D01*
X189622797Y-82918105D01*
X189622795Y-82918104D01*
X189520015Y-82907604D01*
X189520008Y-82907604D01*
X188419992Y-82907604D01*
X188419984Y-82907604D01*
X188317204Y-82918104D01*
X188317203Y-82918105D01*
X188150664Y-82973290D01*
X188150662Y-82973291D01*
X188001348Y-83065390D01*
X188001344Y-83065393D01*
X187877289Y-83189448D01*
X187877286Y-83189452D01*
X187785187Y-83338766D01*
X187785186Y-83338768D01*
X187730001Y-83505307D01*
X187730000Y-83505308D01*
X187719500Y-83608088D01*
X187719500Y-84708119D01*
X187730000Y-84810899D01*
X187730001Y-84810901D01*
X187753636Y-84882227D01*
X187785186Y-84977439D01*
X187785187Y-84977441D01*
X187877286Y-85126755D01*
X187877289Y-85126759D01*
X188001344Y-85250814D01*
X188001348Y-85250817D01*
X188150662Y-85342916D01*
X188150664Y-85342917D01*
X188150666Y-85342918D01*
X188317203Y-85398103D01*
X188419992Y-85408604D01*
X189012651Y-85408604D01*
X189079690Y-85428289D01*
X189100332Y-85444923D01*
X189387886Y-85732477D01*
X189421371Y-85793800D01*
X189416387Y-85863492D01*
X189374515Y-85919425D01*
X189309051Y-85943842D01*
X189267747Y-85938804D01*
X189267573Y-85939534D01*
X189262827Y-85938395D01*
X189068422Y-85907604D01*
X189068417Y-85907604D01*
X188871583Y-85907604D01*
X188871578Y-85907604D01*
X188677173Y-85938394D01*
X188489970Y-85999221D01*
X188314594Y-86088580D01*
X188223741Y-86154589D01*
X188155354Y-86204276D01*
X188155352Y-86204278D01*
X188155351Y-86204278D01*
X188016174Y-86343455D01*
X188016174Y-86343456D01*
X188016172Y-86343458D01*
X187999140Y-86366901D01*
X187900476Y-86502698D01*
X187811117Y-86678074D01*
X187750290Y-86865277D01*
X187719500Y-87059681D01*
X187719500Y-87256526D01*
X187750290Y-87450930D01*
X187811117Y-87638133D01*
X187884754Y-87782653D01*
X187900476Y-87813509D01*
X188016172Y-87972750D01*
X188155354Y-88111932D01*
X188281385Y-88203499D01*
X188324051Y-88258829D01*
X188332500Y-88303817D01*
X188332500Y-88710175D01*
X188312815Y-88777214D01*
X188273597Y-88815714D01*
X188141345Y-88897287D01*
X188047327Y-88991305D01*
X187986003Y-89024789D01*
X187916312Y-89019805D01*
X187871965Y-88991304D01*
X187778345Y-88897684D01*
X187629124Y-88805643D01*
X187629119Y-88805641D01*
X187462697Y-88750494D01*
X187462690Y-88750493D01*
X187359986Y-88740000D01*
X187210000Y-88740000D01*
X187210000Y-89816000D01*
X187190315Y-89883039D01*
X187137511Y-89928794D01*
X187086000Y-89940000D01*
X186960000Y-89940000D01*
X186960000Y-90066000D01*
X186940315Y-90133039D01*
X186887511Y-90178794D01*
X186836000Y-90190000D01*
X185860001Y-90190000D01*
X185860001Y-90439986D01*
X185870494Y-90542697D01*
X185925641Y-90709119D01*
X185925643Y-90709124D01*
X186017684Y-90858346D01*
X186020249Y-90861589D01*
X186021315Y-90864232D01*
X186021475Y-90864491D01*
X186021430Y-90864518D01*
X186046390Y-90926384D01*
X186033350Y-90995026D01*
X185985269Y-91045722D01*
X185922983Y-91062500D01*
X185548192Y-91062500D01*
X185426972Y-91086612D01*
X185426964Y-91086614D01*
X185370511Y-91109998D01*
X185346215Y-91120062D01*
X185312767Y-91133917D01*
X185293459Y-91146818D01*
X185209989Y-91202590D01*
X185209988Y-91202591D01*
X184095082Y-92317499D01*
X183739992Y-92672589D01*
X183696289Y-92716292D01*
X183652586Y-92759994D01*
X183652585Y-92759996D01*
X183583233Y-92863789D01*
X183581586Y-92868393D01*
X183536614Y-92976964D01*
X183536612Y-92976972D01*
X183525092Y-93034886D01*
X183525093Y-93034887D01*
X183512500Y-93098198D01*
X183512500Y-96371119D01*
X183492815Y-96438158D01*
X183476181Y-96458800D01*
X182529400Y-97405581D01*
X182468077Y-97439066D01*
X182441719Y-97441900D01*
X181793757Y-97441900D01*
X181726718Y-97422215D01*
X181724866Y-97421002D01*
X181633585Y-97360009D01*
X181633572Y-97360002D01*
X181487901Y-97299664D01*
X181487889Y-97299661D01*
X181333245Y-97268900D01*
X181333242Y-97268900D01*
X181175558Y-97268900D01*
X181175555Y-97268900D01*
X181020910Y-97299661D01*
X181020898Y-97299664D01*
X180875227Y-97360002D01*
X180875214Y-97360009D01*
X180744111Y-97447610D01*
X180744107Y-97447613D01*
X180632613Y-97559107D01*
X180632610Y-97559111D01*
X180545009Y-97690214D01*
X180545002Y-97690227D01*
X180484664Y-97835898D01*
X180484661Y-97835910D01*
X180453900Y-97990553D01*
X180125400Y-97990553D01*
X180125400Y-96952146D01*
X180125401Y-96952125D01*
X180125401Y-96797385D01*
X180096406Y-96651625D01*
X180096404Y-96651619D01*
X180087024Y-96628974D01*
X180085153Y-96624457D01*
X180068971Y-96585388D01*
X180039530Y-96514311D01*
X179997427Y-96451300D01*
X179956959Y-96390734D01*
X179956957Y-96390732D01*
X179956955Y-96390729D01*
X179847547Y-96281321D01*
X179847524Y-96281300D01*
X178738169Y-95171943D01*
X178738168Y-95171942D01*
X178614592Y-95089372D01*
X178614591Y-95089371D01*
X178614589Y-95089370D01*
X178614586Y-95089368D01*
X178614581Y-95089366D01*
X178522767Y-95051336D01*
X178522760Y-95051333D01*
X178518333Y-95049500D01*
X178477280Y-95032495D01*
X178453094Y-95027684D01*
X178445852Y-95026243D01*
X178445848Y-95026242D01*
X178331514Y-95003499D01*
X178331512Y-95003499D01*
X178182888Y-95003499D01*
X178176774Y-95003499D01*
X178176754Y-95003500D01*
X174023687Y-95003500D01*
X173956648Y-94983815D01*
X173936006Y-94967181D01*
X173460019Y-94491194D01*
X173426534Y-94429871D01*
X173423700Y-94403513D01*
X173423700Y-91441541D01*
X173443385Y-91374502D01*
X173496189Y-91328747D01*
X173565347Y-91318803D01*
X173628903Y-91347828D01*
X173635381Y-91353860D01*
X173733707Y-91452186D01*
X173733711Y-91452189D01*
X173864814Y-91539790D01*
X173864827Y-91539797D01*
X174010498Y-91600135D01*
X174010503Y-91600137D01*
X174100633Y-91618065D01*
X174165153Y-91630899D01*
X174165156Y-91630900D01*
X174165158Y-91630900D01*
X174322844Y-91630900D01*
X174322845Y-91630899D01*
X174477497Y-91600137D01*
X174623179Y-91539794D01*
X174754289Y-91452189D01*
X174865789Y-91340689D01*
X174953394Y-91209579D01*
X175013737Y-91063897D01*
X175044500Y-90909242D01*
X175044500Y-90751558D01*
X175033591Y-90696718D01*
X175039817Y-90627130D01*
X175082679Y-90571952D01*
X175090081Y-90567008D01*
X175137256Y-90537912D01*
X175261312Y-90413856D01*
X175353414Y-90264534D01*
X175408599Y-90097997D01*
X175419100Y-89995209D01*
X175419099Y-89440013D01*
X185860000Y-89440013D01*
X185860000Y-89690000D01*
X186710000Y-89690000D01*
X186710000Y-88740000D01*
X186560027Y-88740000D01*
X186560012Y-88740001D01*
X186457302Y-88750494D01*
X186290880Y-88805641D01*
X186290875Y-88805643D01*
X186141654Y-88897684D01*
X186017684Y-89021654D01*
X185925643Y-89170875D01*
X185925641Y-89170880D01*
X185870494Y-89337302D01*
X185870493Y-89337309D01*
X185860000Y-89440013D01*
X175419099Y-89440013D01*
X175419099Y-89195192D01*
X175416593Y-89170663D01*
X175408599Y-89092403D01*
X175408598Y-89092400D01*
X175353414Y-88925866D01*
X175261312Y-88776544D01*
X175167649Y-88682881D01*
X175164165Y-88676500D01*
X175158222Y-88672311D01*
X175147642Y-88646241D01*
X175134164Y-88621558D01*
X175134682Y-88614307D01*
X175131948Y-88607569D01*
X175137141Y-88579923D01*
X175139148Y-88551866D01*
X175143822Y-88544359D01*
X175144848Y-88538900D01*
X175161449Y-88516051D01*
X175165184Y-88510054D01*
X175166376Y-88508791D01*
X175261312Y-88413856D01*
X175271222Y-88397788D01*
X175279945Y-88388554D01*
X175299590Y-88377088D01*
X175316503Y-88361877D01*
X175331487Y-88358472D01*
X175340289Y-88353335D01*
X175351901Y-88353833D01*
X175370091Y-88349700D01*
X178821154Y-88349700D01*
X178821174Y-88349701D01*
X178827288Y-88349701D01*
X178975914Y-88349701D01*
X179054898Y-88333988D01*
X179097494Y-88325515D01*
X179121680Y-88320705D01*
X179185072Y-88294447D01*
X179258989Y-88263830D01*
X179382566Y-88181259D01*
X179432485Y-88131340D01*
X179496984Y-88066842D01*
X180405721Y-87158103D01*
X180504103Y-87059721D01*
X184720000Y-87059721D01*
X184720000Y-87256486D01*
X184750778Y-87450809D01*
X184811581Y-87637939D01*
X184900905Y-87813249D01*
X184926319Y-87848229D01*
X184926320Y-87848229D01*
X185478871Y-87295678D01*
X185494755Y-87354957D01*
X185561898Y-87471251D01*
X185656853Y-87566206D01*
X185773147Y-87633349D01*
X185832424Y-87649232D01*
X185279873Y-88201781D01*
X185279873Y-88201782D01*
X185314858Y-88227200D01*
X185490164Y-88316522D01*
X185677294Y-88377325D01*
X185871618Y-88408104D01*
X186068382Y-88408104D01*
X186262705Y-88377325D01*
X186449835Y-88316522D01*
X186625143Y-88227199D01*
X186660125Y-88201782D01*
X186660126Y-88201782D01*
X186107575Y-87649231D01*
X186166853Y-87633349D01*
X186283147Y-87566206D01*
X186378102Y-87471251D01*
X186445245Y-87354957D01*
X186461127Y-87295679D01*
X187013678Y-87848230D01*
X187013678Y-87848229D01*
X187039095Y-87813247D01*
X187128418Y-87637939D01*
X187189221Y-87450809D01*
X187220000Y-87256486D01*
X187220000Y-87059721D01*
X187189221Y-86865398D01*
X187128418Y-86678268D01*
X187039096Y-86502962D01*
X187013678Y-86467977D01*
X187013677Y-86467977D01*
X186461127Y-87020527D01*
X186445245Y-86961251D01*
X186378102Y-86844957D01*
X186283147Y-86750002D01*
X186166853Y-86682859D01*
X186107574Y-86666975D01*
X186660125Y-86114424D01*
X186660125Y-86114423D01*
X186625145Y-86089009D01*
X186449835Y-85999685D01*
X186262705Y-85938882D01*
X186068382Y-85908104D01*
X185871618Y-85908104D01*
X185677294Y-85938882D01*
X185490161Y-85999686D01*
X185314863Y-86089003D01*
X185314859Y-86089006D01*
X185279873Y-86114424D01*
X185279872Y-86114424D01*
X185832425Y-86666975D01*
X185773147Y-86682859D01*
X185656853Y-86750002D01*
X185561898Y-86844957D01*
X185494755Y-86961251D01*
X185478871Y-87020528D01*
X184926320Y-86467976D01*
X184926320Y-86467977D01*
X184900902Y-86502963D01*
X184900899Y-86502967D01*
X184811582Y-86678265D01*
X184750778Y-86865398D01*
X184720000Y-87059721D01*
X180504103Y-87059721D01*
X180795563Y-86768260D01*
X180795566Y-86768259D01*
X180900659Y-86663166D01*
X180936166Y-86610025D01*
X180971194Y-86557603D01*
X180975240Y-86551546D01*
X180983230Y-86539589D01*
X181026969Y-86433992D01*
X181040105Y-86402280D01*
X181045890Y-86373198D01*
X181069101Y-86256512D01*
X181069101Y-86107888D01*
X181069100Y-86107882D01*
X181069100Y-84059681D01*
X184719500Y-84059681D01*
X184719500Y-84256526D01*
X184750290Y-84450930D01*
X184811117Y-84638133D01*
X184874731Y-84762981D01*
X184900476Y-84813509D01*
X185016172Y-84972750D01*
X185155354Y-85111932D01*
X185314595Y-85227628D01*
X185397455Y-85269847D01*
X185489970Y-85316986D01*
X185489972Y-85316986D01*
X185489975Y-85316988D01*
X185569773Y-85342916D01*
X185677173Y-85377813D01*
X185871578Y-85408604D01*
X185871583Y-85408604D01*
X186068422Y-85408604D01*
X186262826Y-85377813D01*
X186450025Y-85316988D01*
X186625405Y-85227628D01*
X186784646Y-85111932D01*
X186923828Y-84972750D01*
X187039524Y-84813509D01*
X187128884Y-84638129D01*
X187189709Y-84450930D01*
X187220500Y-84256526D01*
X187220500Y-84059681D01*
X187189709Y-83865277D01*
X187128882Y-83678074D01*
X187040853Y-83505308D01*
X187039524Y-83502699D01*
X186923828Y-83343458D01*
X186784646Y-83204276D01*
X186625405Y-83088580D01*
X186450029Y-82999221D01*
X186262826Y-82938394D01*
X186068422Y-82907604D01*
X186068417Y-82907604D01*
X185871583Y-82907604D01*
X185871578Y-82907604D01*
X185677173Y-82938394D01*
X185489970Y-82999221D01*
X185314594Y-83088580D01*
X185227168Y-83152100D01*
X185155354Y-83204276D01*
X185155352Y-83204278D01*
X185155351Y-83204278D01*
X185016174Y-83343455D01*
X185016174Y-83343456D01*
X185016172Y-83343458D01*
X184981354Y-83391381D01*
X184900476Y-83502698D01*
X184811117Y-83678074D01*
X184750290Y-83865277D01*
X184719500Y-84059681D01*
X181069100Y-84059681D01*
X181069100Y-82891769D01*
X181088785Y-82824730D01*
X181089999Y-82822877D01*
X181115404Y-82784856D01*
X181115405Y-82784853D01*
X181115409Y-82784848D01*
X181175752Y-82639166D01*
X181206515Y-82484511D01*
X181206515Y-82326827D01*
X181206515Y-82326824D01*
X181206514Y-82326822D01*
X181196605Y-82277005D01*
X181175752Y-82172172D01*
X181157088Y-82127113D01*
X181115412Y-82026496D01*
X181115405Y-82026483D01*
X181027804Y-81895380D01*
X181027801Y-81895376D01*
X180916307Y-81783882D01*
X180916303Y-81783879D01*
X180785200Y-81696278D01*
X180785187Y-81696271D01*
X180639516Y-81635933D01*
X180639504Y-81635930D01*
X180484860Y-81605169D01*
X180484857Y-81605169D01*
X180327173Y-81605169D01*
X180327170Y-81605169D01*
X180172525Y-81635930D01*
X180172513Y-81635933D01*
X180026842Y-81696271D01*
X180026829Y-81696278D01*
X179895726Y-81783879D01*
X179895722Y-81783882D01*
X179784228Y-81895376D01*
X179784225Y-81895380D01*
X179696624Y-82026483D01*
X179696621Y-82026490D01*
X179660535Y-82113607D01*
X179649086Y-82135029D01*
X179645977Y-82139682D01*
X179645969Y-82139696D01*
X179589095Y-82277004D01*
X179589093Y-82277010D01*
X179560099Y-82422769D01*
X179560099Y-82577509D01*
X179560100Y-82577530D01*
X179560100Y-85818313D01*
X179540415Y-85885352D01*
X179523781Y-85905994D01*
X178625394Y-86804381D01*
X178564071Y-86837866D01*
X178537713Y-86840700D01*
X175370091Y-86840700D01*
X175303052Y-86821015D01*
X175264554Y-86781800D01*
X175264168Y-86781174D01*
X175261312Y-86776544D01*
X175137256Y-86652488D01*
X174987934Y-86560386D01*
X174821397Y-86505201D01*
X174821395Y-86505200D01*
X174718610Y-86494700D01*
X173718598Y-86494700D01*
X173718580Y-86494701D01*
X173615803Y-86505200D01*
X173615800Y-86505201D01*
X173449268Y-86560385D01*
X173449263Y-86560387D01*
X173299942Y-86652489D01*
X173175888Y-86776543D01*
X173175885Y-86776547D01*
X173113160Y-86878240D01*
X173062998Y-86923358D01*
X173063181Y-86923700D01*
X173061794Y-86924441D01*
X173061212Y-86924965D01*
X173058800Y-86926041D01*
X173057814Y-86926568D01*
X172934231Y-87009143D01*
X172883694Y-87059681D01*
X172829141Y-87114234D01*
X172829139Y-87114236D01*
X172083143Y-87860230D01*
X172083142Y-87860231D01*
X172000569Y-87983812D01*
X172000567Y-87983815D01*
X171995849Y-87995208D01*
X171995848Y-87995210D01*
X171975395Y-88044589D01*
X171949107Y-88108056D01*
X171947501Y-88111934D01*
X171943694Y-88121123D01*
X171943693Y-88121125D01*
X171914699Y-88266885D01*
X171914699Y-88421625D01*
X171914700Y-88421646D01*
X171914700Y-94693082D01*
X171914699Y-94693088D01*
X171914699Y-94841712D01*
X171926516Y-94901116D01*
X171928170Y-94909433D01*
X171928171Y-94909442D01*
X171943693Y-94987473D01*
X171943695Y-94987479D01*
X171950331Y-95003499D01*
X171950332Y-95003503D01*
X172000566Y-95124781D01*
X172000572Y-95124792D01*
X172083142Y-95248368D01*
X173178831Y-96344057D01*
X173178834Y-96344059D01*
X173302411Y-96426630D01*
X173382845Y-96459946D01*
X173439720Y-96483505D01*
X173463905Y-96488315D01*
X173512794Y-96498040D01*
X173585486Y-96512501D01*
X173585488Y-96512501D01*
X173740226Y-96512501D01*
X173740246Y-96512500D01*
X177893313Y-96512500D01*
X177960352Y-96532185D01*
X177980994Y-96548819D01*
X178580081Y-97147905D01*
X178613566Y-97209228D01*
X178616400Y-97235586D01*
X178616400Y-98866653D01*
X178606962Y-98914101D01*
X178601163Y-98928103D01*
X178601162Y-98928106D01*
X178601160Y-98928111D01*
X178570400Y-99082753D01*
X178570400Y-99240446D01*
X178601161Y-99395089D01*
X178601163Y-99395097D01*
X178606961Y-99409094D01*
X178608587Y-99417271D01*
X178611377Y-99421612D01*
X178616400Y-99456547D01*
X178616400Y-99542410D01*
X178596715Y-99609449D01*
X178569316Y-99639672D01*
X178564745Y-99643286D01*
X178440688Y-99767343D01*
X178440683Y-99767349D01*
X178438641Y-99770661D01*
X178436647Y-99772453D01*
X178436207Y-99773011D01*
X178436111Y-99772935D01*
X178386691Y-99817383D01*
X178317728Y-99828602D01*
X178253647Y-99800755D01*
X178227568Y-99770656D01*
X178225719Y-99767659D01*
X178225716Y-99767655D01*
X178101745Y-99643684D01*
X177952524Y-99551643D01*
X177952519Y-99551641D01*
X177786097Y-99496494D01*
X177786090Y-99496493D01*
X177683386Y-99486000D01*
X177545900Y-99486000D01*
X177545900Y-100587000D01*
X177526215Y-100654039D01*
X177473411Y-100699794D01*
X177421900Y-100711000D01*
X177295900Y-100711000D01*
X177295900Y-100837000D01*
X177276215Y-100904039D01*
X177223411Y-100949794D01*
X177171900Y-100961000D01*
X176208401Y-100961000D01*
X176208401Y-101235986D01*
X176218894Y-101338697D01*
X176274041Y-101505119D01*
X176274046Y-101505130D01*
X176314986Y-101571503D01*
X176333427Y-101638895D01*
X176312505Y-101705559D01*
X176258863Y-101750328D01*
X176209448Y-101760600D01*
X173421197Y-101760600D01*
X173354158Y-101740915D01*
X173333516Y-101724281D01*
X171795248Y-100186013D01*
X176208400Y-100186013D01*
X176208400Y-100461000D01*
X177045900Y-100461000D01*
X177045900Y-99486000D01*
X176908427Y-99486000D01*
X176908412Y-99486001D01*
X176805702Y-99496494D01*
X176639280Y-99551641D01*
X176639275Y-99551643D01*
X176490054Y-99643684D01*
X176366084Y-99767654D01*
X176274043Y-99916875D01*
X176274041Y-99916880D01*
X176218894Y-100083302D01*
X176218893Y-100083309D01*
X176208400Y-100186013D01*
X171795248Y-100186013D01*
X171254574Y-99645339D01*
X171221089Y-99584016D01*
X171220638Y-99581849D01*
X171201572Y-99486000D01*
X171189737Y-99426503D01*
X171170297Y-99379570D01*
X171129397Y-99280827D01*
X171129390Y-99280814D01*
X171041789Y-99149711D01*
X171041786Y-99149707D01*
X170930292Y-99038213D01*
X170930288Y-99038210D01*
X170799185Y-98950609D01*
X170799172Y-98950602D01*
X170653501Y-98890264D01*
X170653489Y-98890261D01*
X170498845Y-98859500D01*
X170498842Y-98859500D01*
X170341158Y-98859500D01*
X170341155Y-98859500D01*
X170186510Y-98890261D01*
X170186498Y-98890264D01*
X170040827Y-98950602D01*
X170040814Y-98950609D01*
X169909711Y-99038210D01*
X169909707Y-99038213D01*
X169798213Y-99149707D01*
X169798210Y-99149711D01*
X169710609Y-99280814D01*
X169710602Y-99280827D01*
X169650264Y-99426498D01*
X169650261Y-99426510D01*
X169619500Y-99581153D01*
X157666359Y-99581153D01*
X157501316Y-99536930D01*
X157443539Y-99529323D01*
X157241327Y-99502700D01*
X157241320Y-99502700D01*
X156979080Y-99502700D01*
X156979072Y-99502700D01*
X156747972Y-99533126D01*
X156719084Y-99536930D01*
X156543356Y-99584016D01*
X156465781Y-99604802D01*
X156465771Y-99604805D01*
X156223509Y-99705153D01*
X156223499Y-99705158D01*
X155996396Y-99836275D01*
X155788348Y-99995918D01*
X155602918Y-100181348D01*
X155443275Y-100389396D01*
X155312158Y-100616499D01*
X155312153Y-100616509D01*
X155211805Y-100858771D01*
X155211802Y-100858781D01*
X155143930Y-101112085D01*
X155109700Y-101372072D01*
X146658542Y-101372072D01*
X146630748Y-101160962D01*
X146571358Y-100939313D01*
X146513244Y-100799014D01*
X146483549Y-100727323D01*
X146483546Y-100727317D01*
X146483544Y-100727312D01*
X146368811Y-100528588D01*
X146368808Y-100528585D01*
X146368807Y-100528582D01*
X146229118Y-100346538D01*
X146229111Y-100346530D01*
X146066870Y-100184289D01*
X146066861Y-100184281D01*
X145884817Y-100044592D01*
X145875441Y-100039179D01*
X145686088Y-99929856D01*
X145686076Y-99929850D01*
X145474087Y-99842042D01*
X145452564Y-99836275D01*
X145252438Y-99782652D01*
X145214415Y-99777646D01*
X145024941Y-99752700D01*
X145024934Y-99752700D01*
X144795466Y-99752700D01*
X144795458Y-99752700D01*
X144578915Y-99781209D01*
X144567962Y-99782652D01*
X144566115Y-99783147D01*
X144346312Y-99842042D01*
X144134323Y-99929850D01*
X144134309Y-99929857D01*
X143935582Y-100044592D01*
X143753538Y-100184281D01*
X143591281Y-100346538D01*
X143451592Y-100528582D01*
X143336857Y-100727309D01*
X143336850Y-100727323D01*
X143249042Y-100939312D01*
X143189653Y-101160959D01*
X143189651Y-101160970D01*
X143159700Y-101388458D01*
X143159700Y-101617934D01*
X143159935Y-101619720D01*
X143159851Y-101620254D01*
X143159965Y-101621985D01*
X143159577Y-101622010D01*
X143149166Y-101688755D01*
X143102784Y-101741009D01*
X143036995Y-101759900D01*
X139610296Y-101759900D01*
X139543257Y-101740215D01*
X139522615Y-101723581D01*
X139246219Y-101447185D01*
X139212734Y-101385862D01*
X139209900Y-101359504D01*
X139209900Y-100873791D01*
X139229585Y-100806752D01*
X139259586Y-100774526D01*
X139358946Y-100700146D01*
X139421557Y-100616509D01*
X139433326Y-100600788D01*
X139489260Y-100558918D01*
X139532592Y-100551100D01*
X139951730Y-100551100D01*
X139951731Y-100551099D01*
X140146569Y-100512344D01*
X140330104Y-100436321D01*
X140495281Y-100325953D01*
X140635753Y-100185481D01*
X141092953Y-99728281D01*
X141203321Y-99563104D01*
X141279344Y-99379569D01*
X141284280Y-99354752D01*
X141318100Y-99184729D01*
X141318100Y-98782871D01*
X141318100Y-97360471D01*
X141318100Y-96939596D01*
X141337785Y-96872557D01*
X141390589Y-96826802D01*
X141459747Y-96816858D01*
X141523303Y-96845883D01*
X141529781Y-96851915D01*
X141638340Y-96960474D01*
X141638348Y-96960481D01*
X141846396Y-97120124D01*
X142073499Y-97251241D01*
X142073509Y-97251246D01*
X142229014Y-97315658D01*
X142315781Y-97351598D01*
X142569084Y-97419470D01*
X142829080Y-97453700D01*
X142829087Y-97453700D01*
X143091313Y-97453700D01*
X143091320Y-97453700D01*
X143351316Y-97419470D01*
X143604619Y-97351598D01*
X143846897Y-97251243D01*
X144074003Y-97120124D01*
X144282051Y-96960482D01*
X144282055Y-96960477D01*
X144282060Y-96960474D01*
X144467474Y-96775060D01*
X144467477Y-96775055D01*
X144467482Y-96775051D01*
X144627124Y-96567003D01*
X144652124Y-96523700D01*
X144702691Y-96475485D01*
X144759512Y-96461700D01*
X146123930Y-96461700D01*
X146123931Y-96461699D01*
X146318769Y-96422944D01*
X146502304Y-96346921D01*
X146667481Y-96236553D01*
X146807953Y-96096081D01*
X148693415Y-94210617D01*
X148704233Y-94201742D01*
X148703969Y-94201420D01*
X148708680Y-94197554D01*
X150102954Y-92803280D01*
X150106820Y-92798569D01*
X150107142Y-92798833D01*
X150116017Y-92788015D01*
X151543353Y-91360681D01*
X151653721Y-91195504D01*
X151729744Y-91011969D01*
X151768500Y-90817129D01*
X151768500Y-90618471D01*
X151768500Y-89322072D01*
X155159700Y-89322072D01*
X155159700Y-89584327D01*
X155173613Y-89690000D01*
X155193930Y-89844316D01*
X155253330Y-90066000D01*
X155261802Y-90097618D01*
X155261805Y-90097628D01*
X155362153Y-90339890D01*
X155362158Y-90339900D01*
X155493275Y-90567003D01*
X155652918Y-90775051D01*
X155652926Y-90775060D01*
X155838340Y-90960474D01*
X155838348Y-90960481D01*
X155838349Y-90960482D01*
X155876832Y-90990011D01*
X156046396Y-91120124D01*
X156273499Y-91251241D01*
X156273509Y-91251246D01*
X156506679Y-91347828D01*
X156515781Y-91351598D01*
X156769084Y-91419470D01*
X157029080Y-91453700D01*
X157029087Y-91453700D01*
X157291313Y-91453700D01*
X157291320Y-91453700D01*
X157551316Y-91419470D01*
X157804619Y-91351598D01*
X157981540Y-91278314D01*
X158046890Y-91251246D01*
X158046891Y-91251245D01*
X158046897Y-91251243D01*
X158274003Y-91120124D01*
X158482051Y-90960482D01*
X158482055Y-90960477D01*
X158482060Y-90960474D01*
X158667474Y-90775060D01*
X158667477Y-90775055D01*
X158667482Y-90775051D01*
X158827124Y-90567003D01*
X158958243Y-90339897D01*
X159058598Y-90097619D01*
X159126470Y-89844316D01*
X159160700Y-89584320D01*
X159160700Y-89322080D01*
X159126470Y-89062084D01*
X159058598Y-88808781D01*
X159057298Y-88805643D01*
X158958246Y-88566509D01*
X158958241Y-88566499D01*
X158827124Y-88339396D01*
X158667481Y-88131348D01*
X158667474Y-88131340D01*
X158482060Y-87945926D01*
X158482051Y-87945918D01*
X158274003Y-87786275D01*
X158046900Y-87655158D01*
X158046890Y-87655153D01*
X157804628Y-87554805D01*
X157804621Y-87554803D01*
X157804619Y-87554802D01*
X157551316Y-87486930D01*
X157493539Y-87479323D01*
X157291327Y-87452700D01*
X157291320Y-87452700D01*
X157029080Y-87452700D01*
X157029072Y-87452700D01*
X156797972Y-87483126D01*
X156769084Y-87486930D01*
X156515781Y-87554802D01*
X156515771Y-87554805D01*
X156273509Y-87655153D01*
X156273499Y-87655158D01*
X156046396Y-87786275D01*
X155838348Y-87945918D01*
X155652918Y-88131348D01*
X155493275Y-88339396D01*
X155362158Y-88566499D01*
X155362153Y-88566509D01*
X155261805Y-88808771D01*
X155261802Y-88808781D01*
X155212896Y-88991304D01*
X155193930Y-89062085D01*
X155159700Y-89322072D01*
X151768500Y-89322072D01*
X151768500Y-81864872D01*
X155058900Y-81864872D01*
X155058900Y-82127127D01*
X155064831Y-82172172D01*
X155093130Y-82387116D01*
X155161002Y-82640418D01*
X155161005Y-82640428D01*
X155261353Y-82882690D01*
X155261358Y-82882700D01*
X155392475Y-83109803D01*
X155552118Y-83317851D01*
X155552126Y-83317860D01*
X155737540Y-83503274D01*
X155737548Y-83503281D01*
X155737549Y-83503282D01*
X155785954Y-83540424D01*
X155945596Y-83662924D01*
X156172699Y-83794041D01*
X156172709Y-83794046D01*
X156344679Y-83865278D01*
X156414981Y-83894398D01*
X156668284Y-83962270D01*
X156928280Y-83996500D01*
X156928287Y-83996500D01*
X157190513Y-83996500D01*
X157190520Y-83996500D01*
X157450516Y-83962270D01*
X157703819Y-83894398D01*
X157946097Y-83794043D01*
X158173203Y-83662924D01*
X158381251Y-83503282D01*
X158381255Y-83503277D01*
X158381260Y-83503274D01*
X158566674Y-83317860D01*
X158566677Y-83317855D01*
X158566682Y-83317851D01*
X158726324Y-83109803D01*
X158857443Y-82882697D01*
X158899490Y-82781186D01*
X172358601Y-82781186D01*
X172369094Y-82883897D01*
X172424241Y-83050319D01*
X172424243Y-83050324D01*
X172516284Y-83199545D01*
X172640254Y-83323515D01*
X172789475Y-83415556D01*
X172789480Y-83415558D01*
X172955902Y-83470705D01*
X172955909Y-83470706D01*
X173058619Y-83481199D01*
X173333599Y-83481199D01*
X173833600Y-83481199D01*
X174108572Y-83481199D01*
X174108586Y-83481198D01*
X174211297Y-83470705D01*
X174377719Y-83415558D01*
X174377724Y-83415556D01*
X174526945Y-83323515D01*
X174650915Y-83199545D01*
X174742956Y-83050324D01*
X174742958Y-83050319D01*
X174798105Y-82883897D01*
X174798106Y-82883890D01*
X174808599Y-82781186D01*
X174808600Y-82781173D01*
X174808600Y-82643700D01*
X173833600Y-82643700D01*
X173833600Y-83481199D01*
X173333599Y-83481199D01*
X173333600Y-83481198D01*
X173333600Y-82643700D01*
X172358601Y-82643700D01*
X172358601Y-82781186D01*
X158899490Y-82781186D01*
X158957798Y-82640419D01*
X159025670Y-82387116D01*
X159059900Y-82127120D01*
X159059900Y-81864880D01*
X159025670Y-81604884D01*
X158957798Y-81351581D01*
X158953421Y-81341014D01*
X158857446Y-81109309D01*
X158857441Y-81109299D01*
X158726324Y-80882196D01*
X158566681Y-80674148D01*
X158566674Y-80674140D01*
X158381260Y-80488726D01*
X158381251Y-80488718D01*
X158173203Y-80329075D01*
X157946100Y-80197958D01*
X157946090Y-80197953D01*
X157703828Y-80097605D01*
X157703821Y-80097603D01*
X157703819Y-80097602D01*
X157450516Y-80029730D01*
X157392739Y-80022123D01*
X157190527Y-79995500D01*
X157190520Y-79995500D01*
X156928280Y-79995500D01*
X156928272Y-79995500D01*
X156697172Y-80025926D01*
X156668284Y-80029730D01*
X156414981Y-80097602D01*
X156414971Y-80097605D01*
X156172709Y-80197953D01*
X156172699Y-80197958D01*
X155945596Y-80329075D01*
X155737548Y-80488718D01*
X155552118Y-80674148D01*
X155392475Y-80882196D01*
X155261358Y-81109299D01*
X155261353Y-81109309D01*
X155161005Y-81351571D01*
X155161002Y-81351581D01*
X155093130Y-81604884D01*
X155092880Y-81606781D01*
X155058900Y-81864872D01*
X151768500Y-81864872D01*
X151768500Y-77678628D01*
X166397514Y-77678628D01*
X166397514Y-77685954D01*
X166397514Y-77836316D01*
X166428275Y-77990959D01*
X166428278Y-77990971D01*
X166488616Y-78136642D01*
X166488623Y-78136655D01*
X166576224Y-78267758D01*
X166576227Y-78267762D01*
X166687724Y-78379259D01*
X166748216Y-78419678D01*
X166818835Y-78466864D01*
X166832773Y-78472637D01*
X166832833Y-78472662D01*
X166873061Y-78499542D01*
X167979213Y-79605693D01*
X167979234Y-79605716D01*
X168088644Y-79715126D01*
X168088647Y-79715128D01*
X168144899Y-79752714D01*
X168212224Y-79797699D01*
X168286351Y-79828403D01*
X168349533Y-79854574D01*
X168373718Y-79859384D01*
X168381931Y-79861017D01*
X168381932Y-79861018D01*
X168495299Y-79883570D01*
X168495301Y-79883570D01*
X168650039Y-79883570D01*
X168650059Y-79883569D01*
X170517128Y-79883569D01*
X170584167Y-79903254D01*
X170604809Y-79919888D01*
X171480246Y-80795324D01*
X171480267Y-80795347D01*
X171589674Y-80904754D01*
X171589681Y-80904760D01*
X171713254Y-80987328D01*
X171713255Y-80987328D01*
X171713256Y-80987329D01*
X171850566Y-81044205D01*
X171996329Y-81073199D01*
X171996333Y-81073200D01*
X171996334Y-81073200D01*
X172415011Y-81073200D01*
X172443768Y-81081644D01*
X172473133Y-81087665D01*
X172477952Y-81091681D01*
X172482050Y-81092885D01*
X172501638Y-81108477D01*
X172512064Y-81118657D01*
X172515888Y-81124856D01*
X172639944Y-81248912D01*
X172654953Y-81258169D01*
X172664786Y-81267770D01*
X172675435Y-81286730D01*
X172689979Y-81302899D01*
X172692207Y-81316593D01*
X172699001Y-81328688D01*
X172697709Y-81350395D01*
X172701203Y-81371861D01*
X172695675Y-81384584D01*
X172694851Y-81398435D01*
X172682025Y-81416002D01*
X172673361Y-81435944D01*
X172657308Y-81449855D01*
X172653651Y-81454865D01*
X172649817Y-81456347D01*
X172643265Y-81462026D01*
X172640260Y-81463879D01*
X172640255Y-81463883D01*
X172516284Y-81587854D01*
X172424243Y-81737075D01*
X172424241Y-81737080D01*
X172369094Y-81903502D01*
X172369093Y-81903509D01*
X172358600Y-82006213D01*
X172358600Y-82143700D01*
X174808599Y-82143700D01*
X174808599Y-82006228D01*
X174808598Y-82006213D01*
X174798105Y-81903502D01*
X174742958Y-81737080D01*
X174742956Y-81737075D01*
X174650915Y-81587854D01*
X174526944Y-81463883D01*
X174526941Y-81463881D01*
X174523939Y-81462029D01*
X174522313Y-81460221D01*
X174521277Y-81459402D01*
X174521417Y-81459224D01*
X174477217Y-81410080D01*
X174465997Y-81341117D01*
X174493843Y-81277036D01*
X174502414Y-81267770D01*
X174512246Y-81258169D01*
X174527256Y-81248912D01*
X174651312Y-81124856D01*
X174655133Y-81118659D01*
X174665563Y-81108477D01*
X174689670Y-81095685D01*
X174711944Y-81079913D01*
X174722808Y-81078100D01*
X174727282Y-81075727D01*
X174733782Y-81076270D01*
X174752189Y-81073200D01*
X175052413Y-81073200D01*
X175119452Y-81092885D01*
X175140094Y-81109519D01*
X176904800Y-82874224D01*
X176904821Y-82874247D01*
X177014231Y-82983657D01*
X177073265Y-83023102D01*
X177073264Y-83023102D01*
X177137800Y-83066223D01*
X177137804Y-83066225D01*
X177137811Y-83066230D01*
X177218245Y-83099546D01*
X177275120Y-83123105D01*
X177299305Y-83127915D01*
X177348194Y-83137640D01*
X177420886Y-83152101D01*
X177420888Y-83152101D01*
X177575626Y-83152101D01*
X177575646Y-83152100D01*
X178063853Y-83152100D01*
X178111301Y-83161537D01*
X178125303Y-83167337D01*
X178125308Y-83167338D01*
X178125311Y-83167339D01*
X178279953Y-83198099D01*
X178279956Y-83198100D01*
X178279958Y-83198100D01*
X178437644Y-83198100D01*
X178437645Y-83198099D01*
X178592297Y-83167337D01*
X178704966Y-83120667D01*
X178737972Y-83106997D01*
X178737972Y-83106996D01*
X178737979Y-83106994D01*
X178869089Y-83019389D01*
X178980589Y-82907889D01*
X179068194Y-82776779D01*
X179128537Y-82631097D01*
X179159300Y-82476442D01*
X179159300Y-82318758D01*
X179159300Y-82318755D01*
X179159299Y-82318753D01*
X179150995Y-82277005D01*
X179128537Y-82164103D01*
X179120086Y-82143700D01*
X179068197Y-82018427D01*
X179068190Y-82018414D01*
X178980589Y-81887311D01*
X178980586Y-81887307D01*
X178869092Y-81775813D01*
X178869088Y-81775810D01*
X178737985Y-81688209D01*
X178737972Y-81688202D01*
X178592301Y-81627864D01*
X178592289Y-81627861D01*
X178437645Y-81597100D01*
X178437642Y-81597100D01*
X178279958Y-81597100D01*
X178279955Y-81597100D01*
X178125311Y-81627860D01*
X178125306Y-81627862D01*
X178125304Y-81627862D01*
X178125303Y-81627863D01*
X178111301Y-81633662D01*
X178103127Y-81635288D01*
X178098788Y-81638077D01*
X178063853Y-81643100D01*
X177859086Y-81643100D01*
X177792047Y-81623415D01*
X177771405Y-81606781D01*
X175897269Y-79732643D01*
X175897268Y-79732642D01*
X175773692Y-79650072D01*
X175773691Y-79650071D01*
X175773689Y-79650070D01*
X175773686Y-79650068D01*
X175773681Y-79650066D01*
X175681490Y-79611880D01*
X175681486Y-79611878D01*
X175677035Y-79610035D01*
X175636380Y-79593195D01*
X175612194Y-79588384D01*
X175604970Y-79586947D01*
X175490614Y-79564199D01*
X175490612Y-79564199D01*
X175341988Y-79564199D01*
X175335874Y-79564199D01*
X175335854Y-79564200D01*
X174752189Y-79564200D01*
X174722315Y-79555427D01*
X174691939Y-79548578D01*
X174688219Y-79545416D01*
X174685150Y-79544515D01*
X174663845Y-79527214D01*
X174654522Y-79517748D01*
X174651312Y-79512544D01*
X174527256Y-79388488D01*
X174527131Y-79388411D01*
X174523755Y-79384983D01*
X174507425Y-79354529D01*
X174490933Y-79324327D01*
X174490967Y-79323839D01*
X174490736Y-79323407D01*
X174493459Y-79288996D01*
X174495917Y-79254635D01*
X174496216Y-79254169D01*
X174496249Y-79253756D01*
X174497752Y-79251778D01*
X174524415Y-79210291D01*
X174711167Y-79023540D01*
X174751392Y-78996663D01*
X174765393Y-78990864D01*
X174896503Y-78903259D01*
X175008003Y-78791759D01*
X175095608Y-78660649D01*
X175155951Y-78514967D01*
X175186714Y-78360312D01*
X175186714Y-78202628D01*
X175186714Y-78202625D01*
X175186713Y-78202623D01*
X175166321Y-78100107D01*
X175155951Y-78047973D01*
X175113920Y-77946500D01*
X175095611Y-77902297D01*
X175095604Y-77902284D01*
X175008003Y-77771181D01*
X175008000Y-77771177D01*
X174896506Y-77659683D01*
X174896502Y-77659680D01*
X174765399Y-77572079D01*
X174765386Y-77572072D01*
X174619715Y-77511734D01*
X174619703Y-77511731D01*
X174465059Y-77480970D01*
X174465056Y-77480970D01*
X174307372Y-77480970D01*
X174307369Y-77480970D01*
X174152724Y-77511731D01*
X174152712Y-77511734D01*
X174007041Y-77572072D01*
X174007028Y-77572079D01*
X173875925Y-77659680D01*
X173875921Y-77659683D01*
X173764427Y-77771177D01*
X173764421Y-77771185D01*
X173676820Y-77902288D01*
X173676820Y-77902289D01*
X173671019Y-77916294D01*
X173644141Y-77956516D01*
X172997542Y-78603115D01*
X172914972Y-78726691D01*
X172914966Y-78726702D01*
X172858096Y-78864000D01*
X172858093Y-78864010D01*
X172829099Y-79009769D01*
X172829099Y-79164509D01*
X172829100Y-79164530D01*
X172829100Y-79202609D01*
X172809415Y-79269648D01*
X172770197Y-79308148D01*
X172639945Y-79388487D01*
X172511382Y-79517050D01*
X172450059Y-79550534D01*
X172380367Y-79545550D01*
X172336020Y-79517049D01*
X171623087Y-78804116D01*
X171596207Y-78763888D01*
X171596182Y-78763828D01*
X171590409Y-78749890D01*
X171574082Y-78725455D01*
X171502804Y-78618779D01*
X171391307Y-78507282D01*
X171391303Y-78507279D01*
X171260200Y-78419678D01*
X171260187Y-78419671D01*
X171114516Y-78359333D01*
X171114504Y-78359330D01*
X170959860Y-78328569D01*
X170959857Y-78328569D01*
X170802173Y-78328569D01*
X170802170Y-78328569D01*
X170647526Y-78359329D01*
X170647521Y-78359331D01*
X170647519Y-78359331D01*
X170647518Y-78359332D01*
X170633516Y-78365131D01*
X170586068Y-78374569D01*
X168933499Y-78374569D01*
X168866460Y-78354884D01*
X168845818Y-78338250D01*
X167988833Y-77481264D01*
X167955348Y-77419941D01*
X167952514Y-77393583D01*
X167952514Y-75888272D01*
X167972199Y-75821233D01*
X167988833Y-75800591D01*
X168207807Y-75581617D01*
X184780000Y-75581617D01*
X184780000Y-75778382D01*
X184810778Y-75972705D01*
X184871581Y-76159835D01*
X184960905Y-76335145D01*
X184986319Y-76370125D01*
X184986320Y-76370125D01*
X185538871Y-75817574D01*
X185554755Y-75876853D01*
X185621898Y-75993147D01*
X185716853Y-76088102D01*
X185833147Y-76155245D01*
X185892424Y-76171128D01*
X185339873Y-76723677D01*
X185339873Y-76723678D01*
X185374858Y-76749096D01*
X185550164Y-76838418D01*
X185737294Y-76899221D01*
X185931618Y-76930000D01*
X186128382Y-76930000D01*
X186322705Y-76899221D01*
X186509835Y-76838418D01*
X186685143Y-76749095D01*
X186720125Y-76723678D01*
X186720126Y-76723678D01*
X186167575Y-76171127D01*
X186226853Y-76155245D01*
X186343147Y-76088102D01*
X186438102Y-75993147D01*
X186505245Y-75876853D01*
X186521127Y-75817575D01*
X187073678Y-76370126D01*
X187073678Y-76370125D01*
X187099095Y-76335143D01*
X187188418Y-76159835D01*
X187249221Y-75972705D01*
X187280000Y-75778382D01*
X187280000Y-75581617D01*
X187249221Y-75387294D01*
X187188418Y-75200164D01*
X187099096Y-75024858D01*
X187073678Y-74989873D01*
X187073677Y-74989873D01*
X186521127Y-75542423D01*
X186505245Y-75483147D01*
X186438102Y-75366853D01*
X186343147Y-75271898D01*
X186226853Y-75204755D01*
X186167574Y-75188871D01*
X186720125Y-74636320D01*
X186720125Y-74636319D01*
X186685145Y-74610905D01*
X186509835Y-74521581D01*
X186322705Y-74460778D01*
X186128382Y-74430000D01*
X185931618Y-74430000D01*
X185737294Y-74460778D01*
X185550161Y-74521582D01*
X185374863Y-74610899D01*
X185374859Y-74610902D01*
X185339873Y-74636320D01*
X185339872Y-74636320D01*
X185892425Y-75188871D01*
X185833147Y-75204755D01*
X185716853Y-75271898D01*
X185621898Y-75366853D01*
X185554755Y-75483147D01*
X185538871Y-75542424D01*
X184986320Y-74989872D01*
X184986320Y-74989873D01*
X184960902Y-75024859D01*
X184960899Y-75024863D01*
X184871582Y-75200161D01*
X184810778Y-75387294D01*
X184780000Y-75581617D01*
X168207807Y-75581617D01*
X171207807Y-72581617D01*
X184780000Y-72581617D01*
X184780000Y-72778382D01*
X184810778Y-72972705D01*
X184871581Y-73159835D01*
X184960905Y-73335145D01*
X184986319Y-73370125D01*
X184986320Y-73370125D01*
X185538871Y-72817574D01*
X185554755Y-72876853D01*
X185621898Y-72993147D01*
X185716853Y-73088102D01*
X185833147Y-73155245D01*
X185892424Y-73171128D01*
X185339873Y-73723677D01*
X185339873Y-73723678D01*
X185374858Y-73749096D01*
X185550164Y-73838418D01*
X185737294Y-73899221D01*
X185931618Y-73930000D01*
X186128382Y-73930000D01*
X186322705Y-73899221D01*
X186509835Y-73838418D01*
X186685143Y-73749095D01*
X186720125Y-73723678D01*
X186720126Y-73723678D01*
X186167575Y-73171127D01*
X186226853Y-73155245D01*
X186343147Y-73088102D01*
X186438102Y-72993147D01*
X186505245Y-72876853D01*
X186521127Y-72817575D01*
X187073678Y-73370126D01*
X187073678Y-73370125D01*
X187099095Y-73335143D01*
X187188418Y-73159835D01*
X187249221Y-72972705D01*
X187280000Y-72778382D01*
X187280000Y-72581617D01*
X187249221Y-72387294D01*
X187188418Y-72200164D01*
X187099096Y-72024858D01*
X187073678Y-71989873D01*
X187073677Y-71989873D01*
X186521127Y-72542423D01*
X186505245Y-72483147D01*
X186438102Y-72366853D01*
X186343147Y-72271898D01*
X186226853Y-72204755D01*
X186167574Y-72188871D01*
X186720125Y-71636320D01*
X186720125Y-71636319D01*
X186685145Y-71610905D01*
X186509835Y-71521581D01*
X186322705Y-71460778D01*
X186128382Y-71430000D01*
X185931618Y-71430000D01*
X185737294Y-71460778D01*
X185550161Y-71521582D01*
X185374863Y-71610899D01*
X185374859Y-71610902D01*
X185339873Y-71636320D01*
X185339872Y-71636320D01*
X185892425Y-72188871D01*
X185833147Y-72204755D01*
X185716853Y-72271898D01*
X185621898Y-72366853D01*
X185554755Y-72483147D01*
X185538871Y-72542424D01*
X184986320Y-71989872D01*
X184986320Y-71989873D01*
X184960902Y-72024859D01*
X184960899Y-72024863D01*
X184871582Y-72200161D01*
X184810778Y-72387294D01*
X184780000Y-72581617D01*
X171207807Y-72581617D01*
X171889206Y-71900218D01*
X171916133Y-71885514D01*
X171941952Y-71868922D01*
X171948152Y-71868030D01*
X171950529Y-71866733D01*
X171976887Y-71863899D01*
X172136053Y-71863899D01*
X172183501Y-71873336D01*
X172197503Y-71879136D01*
X172197508Y-71879137D01*
X172197511Y-71879138D01*
X172352153Y-71909898D01*
X172352156Y-71909899D01*
X172352158Y-71909899D01*
X172509844Y-71909899D01*
X172509845Y-71909898D01*
X172664497Y-71879136D01*
X172810179Y-71818793D01*
X172941289Y-71731188D01*
X173052789Y-71619688D01*
X173086425Y-71569349D01*
X173140390Y-71488584D01*
X173140390Y-71488583D01*
X173140394Y-71488578D01*
X173200737Y-71342896D01*
X173231500Y-71188241D01*
X173231500Y-71030557D01*
X173231500Y-71030554D01*
X173231499Y-71030552D01*
X173219576Y-70970612D01*
X173200737Y-70875902D01*
X173182838Y-70832690D01*
X173140397Y-70730226D01*
X173140390Y-70730213D01*
X173052789Y-70599110D01*
X173052786Y-70599106D01*
X172941292Y-70487612D01*
X172941288Y-70487609D01*
X172810185Y-70400008D01*
X172810172Y-70400001D01*
X172664501Y-70339663D01*
X172664489Y-70339660D01*
X172509845Y-70308899D01*
X172509842Y-70308899D01*
X172352158Y-70308899D01*
X172352155Y-70308899D01*
X172197511Y-70339659D01*
X172197506Y-70339661D01*
X172197504Y-70339661D01*
X172197503Y-70339662D01*
X172183501Y-70345461D01*
X172136053Y-70354899D01*
X171538684Y-70354899D01*
X171392928Y-70383892D01*
X171392920Y-70383894D01*
X171255609Y-70440770D01*
X171132036Y-70523338D01*
X171132035Y-70523339D01*
X171095488Y-70559887D01*
X171026942Y-70628433D01*
X171026940Y-70628435D01*
X166611957Y-75043416D01*
X166611956Y-75043417D01*
X166529386Y-75166993D01*
X166529380Y-75167004D01*
X166472510Y-75304302D01*
X166472507Y-75304312D01*
X166443513Y-75450071D01*
X166443513Y-75604811D01*
X166443514Y-75604832D01*
X166443514Y-77462523D01*
X166442035Y-77469954D01*
X166440642Y-77489054D01*
X166438286Y-77499806D01*
X166428277Y-77523973D01*
X166397514Y-77678628D01*
X151768500Y-77678628D01*
X151768500Y-69814872D01*
X155108900Y-69814872D01*
X155108900Y-70077127D01*
X155113325Y-70110734D01*
X155143130Y-70337116D01*
X155202821Y-70559887D01*
X155211002Y-70590418D01*
X155211005Y-70590428D01*
X155311353Y-70832690D01*
X155311358Y-70832700D01*
X155442475Y-71059803D01*
X155602118Y-71267851D01*
X155602126Y-71267860D01*
X155787540Y-71453274D01*
X155787548Y-71453281D01*
X155995596Y-71612924D01*
X156222699Y-71744041D01*
X156222709Y-71744046D01*
X156403165Y-71818793D01*
X156464981Y-71844398D01*
X156718284Y-71912270D01*
X156978280Y-71946500D01*
X156978287Y-71946500D01*
X157240513Y-71946500D01*
X157240520Y-71946500D01*
X157500516Y-71912270D01*
X157753819Y-71844398D01*
X157948457Y-71763776D01*
X157996090Y-71744046D01*
X157996091Y-71744045D01*
X157996097Y-71744043D01*
X158223203Y-71612924D01*
X158431251Y-71453282D01*
X158431255Y-71453277D01*
X158431260Y-71453274D01*
X158616674Y-71267860D01*
X158616677Y-71267855D01*
X158616682Y-71267851D01*
X158776324Y-71059803D01*
X158907443Y-70832697D01*
X159007798Y-70590419D01*
X159075670Y-70337116D01*
X159109900Y-70077120D01*
X159109900Y-69814880D01*
X159075670Y-69554884D01*
X159008502Y-69304208D01*
X159008787Y-69292209D01*
X159004593Y-69280963D01*
X159009603Y-69257930D01*
X159010165Y-69234362D01*
X159017265Y-69222713D01*
X159019446Y-69212690D01*
X159040593Y-69184441D01*
X159120217Y-69104818D01*
X159181540Y-69071333D01*
X159207897Y-69068500D01*
X161399330Y-69068500D01*
X161399331Y-69068499D01*
X161594169Y-69029744D01*
X161777704Y-68953721D01*
X161942881Y-68843353D01*
X162083353Y-68702881D01*
X163443353Y-67342881D01*
X163553721Y-67177704D01*
X163629744Y-66994169D01*
X163668500Y-66799329D01*
X163668500Y-65074228D01*
X163688185Y-65007189D01*
X163704819Y-64986547D01*
X163752711Y-64938655D01*
X163844814Y-64789334D01*
X163899999Y-64622797D01*
X163910500Y-64520008D01*
X163910500Y-63351577D01*
X164409500Y-63351577D01*
X164409500Y-64068422D01*
X164440290Y-64262826D01*
X164501117Y-64450029D01*
X164542137Y-64530534D01*
X164590476Y-64625405D01*
X164706172Y-64784646D01*
X164845354Y-64923828D01*
X165004595Y-65039524D01*
X165072706Y-65074228D01*
X165179970Y-65128882D01*
X165179972Y-65128882D01*
X165179975Y-65128884D01*
X165210752Y-65138884D01*
X165367173Y-65189709D01*
X165561578Y-65220500D01*
X165561583Y-65220500D01*
X165758422Y-65220500D01*
X165952826Y-65189709D01*
X166029444Y-65164814D01*
X166140025Y-65128884D01*
X166315405Y-65039524D01*
X166474646Y-64923828D01*
X166613828Y-64784646D01*
X166729524Y-64625405D01*
X166818884Y-64450025D01*
X166879709Y-64262826D01*
X166910500Y-64068422D01*
X166910500Y-63351577D01*
X167409500Y-63351577D01*
X167409500Y-64068422D01*
X167440290Y-64262826D01*
X167501117Y-64450029D01*
X167542137Y-64530534D01*
X167590476Y-64625405D01*
X167706172Y-64784646D01*
X167845354Y-64923828D01*
X168004595Y-65039524D01*
X168072706Y-65074228D01*
X168179970Y-65128882D01*
X168179972Y-65128882D01*
X168179975Y-65128884D01*
X168210752Y-65138884D01*
X168367173Y-65189709D01*
X168561578Y-65220500D01*
X168561583Y-65220500D01*
X168758422Y-65220500D01*
X168952826Y-65189709D01*
X169029444Y-65164814D01*
X169140025Y-65128884D01*
X169315405Y-65039524D01*
X169474646Y-64923828D01*
X169613828Y-64784646D01*
X169729524Y-64625405D01*
X169818884Y-64450025D01*
X169879709Y-64262826D01*
X169910500Y-64068422D01*
X169910500Y-63351577D01*
X169879709Y-63157173D01*
X169842326Y-63042122D01*
X169818884Y-62969975D01*
X169815398Y-62963133D01*
X169815397Y-62963130D01*
X169815396Y-62963129D01*
X169788318Y-62909984D01*
X175519500Y-62909984D01*
X175519500Y-64530015D01*
X175530000Y-64632795D01*
X175530001Y-64632797D01*
X175557593Y-64716065D01*
X175585186Y-64799335D01*
X175585187Y-64799337D01*
X175677286Y-64948651D01*
X175677289Y-64948655D01*
X175801344Y-65072710D01*
X175801348Y-65072713D01*
X175950662Y-65164812D01*
X175950664Y-65164813D01*
X175950666Y-65164814D01*
X176117203Y-65219999D01*
X176219992Y-65230500D01*
X176219997Y-65230500D01*
X177320003Y-65230500D01*
X177320008Y-65230500D01*
X177422797Y-65219999D01*
X177589334Y-65164814D01*
X177738655Y-65072711D01*
X177862711Y-64948655D01*
X177954814Y-64799334D01*
X178009999Y-64632797D01*
X178020500Y-64530008D01*
X178020500Y-63361577D01*
X178519500Y-63361577D01*
X178519500Y-64078422D01*
X178550290Y-64272826D01*
X178611117Y-64460029D01*
X178659782Y-64555538D01*
X178700476Y-64635405D01*
X178816172Y-64794646D01*
X178955354Y-64933828D01*
X179114595Y-65049524D01*
X179163080Y-65074228D01*
X179289970Y-65138882D01*
X179289972Y-65138882D01*
X179289975Y-65138884D01*
X179369773Y-65164812D01*
X179477173Y-65199709D01*
X179671578Y-65230500D01*
X179671583Y-65230500D01*
X179868422Y-65230500D01*
X180062826Y-65199709D01*
X180250025Y-65138884D01*
X180425405Y-65049524D01*
X180584646Y-64933828D01*
X180723828Y-64794646D01*
X180839524Y-64635405D01*
X180928884Y-64460025D01*
X180989709Y-64272826D01*
X180991293Y-64262826D01*
X181020500Y-64078422D01*
X181020500Y-63361577D01*
X180989709Y-63167173D01*
X180949077Y-63042122D01*
X180928884Y-62979975D01*
X180928882Y-62979972D01*
X180928882Y-62979970D01*
X180881743Y-62887455D01*
X180839524Y-62804595D01*
X180723828Y-62645354D01*
X180584646Y-62506172D01*
X180425405Y-62390476D01*
X180379892Y-62367286D01*
X180250029Y-62301117D01*
X180062826Y-62240290D01*
X179868422Y-62209500D01*
X179868417Y-62209500D01*
X179671583Y-62209500D01*
X179671578Y-62209500D01*
X179477173Y-62240290D01*
X179289970Y-62301117D01*
X179114594Y-62390476D01*
X179023741Y-62456485D01*
X178955354Y-62506172D01*
X178955352Y-62506174D01*
X178955351Y-62506174D01*
X178816174Y-62645351D01*
X178816174Y-62645352D01*
X178816172Y-62645354D01*
X178781814Y-62692644D01*
X178700476Y-62804594D01*
X178611117Y-62979970D01*
X178550290Y-63167173D01*
X178519500Y-63361577D01*
X178020500Y-63361577D01*
X178020500Y-62909992D01*
X178009999Y-62807203D01*
X177954814Y-62640666D01*
X177951537Y-62635354D01*
X177862713Y-62491348D01*
X177862710Y-62491344D01*
X177738655Y-62367289D01*
X177738651Y-62367286D01*
X177589337Y-62275187D01*
X177589335Y-62275186D01*
X177484025Y-62240290D01*
X177422797Y-62220001D01*
X177422795Y-62220000D01*
X177320015Y-62209500D01*
X177320008Y-62209500D01*
X176219992Y-62209500D01*
X176219984Y-62209500D01*
X176117204Y-62220000D01*
X176117203Y-62220001D01*
X175950664Y-62275186D01*
X175950662Y-62275187D01*
X175801348Y-62367286D01*
X175801344Y-62367289D01*
X175677289Y-62491344D01*
X175677286Y-62491348D01*
X175585187Y-62640662D01*
X175585186Y-62640664D01*
X175530001Y-62807203D01*
X175530000Y-62807204D01*
X175519500Y-62909984D01*
X169788318Y-62909984D01*
X169729525Y-62794596D01*
X169712144Y-62770674D01*
X169613828Y-62635354D01*
X169474646Y-62496172D01*
X169315405Y-62380476D01*
X169269892Y-62357286D01*
X169140029Y-62291117D01*
X168952826Y-62230290D01*
X168758422Y-62199500D01*
X168758417Y-62199500D01*
X168561583Y-62199500D01*
X168561578Y-62199500D01*
X168367173Y-62230290D01*
X168179970Y-62291117D01*
X168004594Y-62380476D01*
X167913741Y-62446485D01*
X167845354Y-62496172D01*
X167845352Y-62496174D01*
X167845351Y-62496174D01*
X167706174Y-62635351D01*
X167706174Y-62635352D01*
X167706172Y-62635354D01*
X167702313Y-62640666D01*
X167590476Y-62794594D01*
X167501117Y-62969970D01*
X167440290Y-63157173D01*
X167409500Y-63351577D01*
X166910500Y-63351577D01*
X166879709Y-63157173D01*
X166822133Y-62979975D01*
X166818884Y-62969975D01*
X166818882Y-62969972D01*
X166818882Y-62969970D01*
X166750667Y-62836091D01*
X166729524Y-62794595D01*
X166613828Y-62635354D01*
X166474646Y-62496172D01*
X166315405Y-62380476D01*
X166269892Y-62357286D01*
X166140029Y-62291117D01*
X165952826Y-62230290D01*
X165758422Y-62199500D01*
X165758417Y-62199500D01*
X165561583Y-62199500D01*
X165561578Y-62199500D01*
X165367173Y-62230290D01*
X165179970Y-62291117D01*
X165004594Y-62380476D01*
X164913741Y-62446485D01*
X164845354Y-62496172D01*
X164845352Y-62496174D01*
X164845351Y-62496174D01*
X164706174Y-62635351D01*
X164706174Y-62635352D01*
X164706172Y-62635354D01*
X164702313Y-62640666D01*
X164590476Y-62794594D01*
X164501117Y-62969970D01*
X164440290Y-63157173D01*
X164409500Y-63351577D01*
X163910500Y-63351577D01*
X163910500Y-62899992D01*
X163899999Y-62797203D01*
X163844814Y-62630666D01*
X163761856Y-62496172D01*
X163752713Y-62481348D01*
X163752710Y-62481344D01*
X163628655Y-62357289D01*
X163628651Y-62357286D01*
X163479337Y-62265187D01*
X163479335Y-62265186D01*
X163374025Y-62230290D01*
X163312797Y-62210001D01*
X163312795Y-62210000D01*
X163210015Y-62199500D01*
X163210008Y-62199500D01*
X162109992Y-62199500D01*
X162109984Y-62199500D01*
X162007204Y-62210000D01*
X162007203Y-62210001D01*
X161840664Y-62265186D01*
X161840662Y-62265187D01*
X161691348Y-62357286D01*
X161691344Y-62357289D01*
X161567289Y-62481344D01*
X161567286Y-62481348D01*
X161475187Y-62630662D01*
X161475186Y-62630664D01*
X161420001Y-62797203D01*
X161420000Y-62797204D01*
X161409500Y-62899984D01*
X161409500Y-64520015D01*
X161420000Y-64622795D01*
X161420001Y-64622797D01*
X161423315Y-64632797D01*
X161475186Y-64789335D01*
X161475187Y-64789337D01*
X161567286Y-64938651D01*
X161567289Y-64938655D01*
X161615181Y-64986547D01*
X161648666Y-65047870D01*
X161651500Y-65074228D01*
X161651500Y-66230904D01*
X161631815Y-66297943D01*
X161615181Y-66318585D01*
X160918585Y-67015181D01*
X160857262Y-67048666D01*
X160830904Y-67051500D01*
X158639466Y-67051500D01*
X158444638Y-67090253D01*
X158444638Y-67090254D01*
X158444635Y-67090255D01*
X158444631Y-67090256D01*
X158368609Y-67121745D01*
X158368607Y-67121745D01*
X158261094Y-67166278D01*
X158095923Y-67276642D01*
X158095915Y-67276648D01*
X157448601Y-67923962D01*
X157387278Y-67957447D01*
X157344735Y-67959220D01*
X157240530Y-67945501D01*
X157240525Y-67945500D01*
X157240520Y-67945500D01*
X156978280Y-67945500D01*
X156978272Y-67945500D01*
X156747172Y-67975926D01*
X156718284Y-67979730D01*
X156464981Y-68047602D01*
X156464971Y-68047605D01*
X156222709Y-68147953D01*
X156222699Y-68147958D01*
X155995596Y-68279075D01*
X155787548Y-68438718D01*
X155602118Y-68624148D01*
X155442475Y-68832196D01*
X155311358Y-69059299D01*
X155311353Y-69059309D01*
X155211005Y-69301571D01*
X155211002Y-69301581D01*
X155176027Y-69432112D01*
X155143130Y-69554885D01*
X155108900Y-69814872D01*
X151768500Y-69814872D01*
X151768500Y-68090671D01*
X151729744Y-67895831D01*
X151653721Y-67712296D01*
X151653720Y-67712295D01*
X151653717Y-67712289D01*
X151543354Y-67547120D01*
X151543353Y-67547119D01*
X151402881Y-67406647D01*
X149514819Y-65518585D01*
X149481334Y-65457262D01*
X149478500Y-65430904D01*
X149478500Y-65074228D01*
X149498185Y-65007189D01*
X149514819Y-64986547D01*
X149562711Y-64938655D01*
X149654814Y-64789334D01*
X149709999Y-64622797D01*
X149720500Y-64520008D01*
X149720500Y-63351577D01*
X150219500Y-63351577D01*
X150219500Y-64068422D01*
X150250290Y-64262826D01*
X150311117Y-64450029D01*
X150352137Y-64530534D01*
X150400476Y-64625405D01*
X150516172Y-64784646D01*
X150655354Y-64923828D01*
X150814595Y-65039524D01*
X150882706Y-65074228D01*
X150989970Y-65128882D01*
X150989972Y-65128882D01*
X150989975Y-65128884D01*
X151020752Y-65138884D01*
X151177173Y-65189709D01*
X151371578Y-65220500D01*
X151371583Y-65220500D01*
X151568422Y-65220500D01*
X151762826Y-65189709D01*
X151839444Y-65164814D01*
X151950025Y-65128884D01*
X152125405Y-65039524D01*
X152284646Y-64923828D01*
X152423828Y-64784646D01*
X152539524Y-64625405D01*
X152628884Y-64450025D01*
X152689709Y-64262826D01*
X152720500Y-64068422D01*
X152720500Y-63351577D01*
X153219500Y-63351577D01*
X153219500Y-64068422D01*
X153250290Y-64262826D01*
X153311117Y-64450029D01*
X153352137Y-64530534D01*
X153400476Y-64625405D01*
X153516172Y-64784646D01*
X153655354Y-64923828D01*
X153814595Y-65039524D01*
X153882706Y-65074228D01*
X153989970Y-65128882D01*
X153989972Y-65128882D01*
X153989975Y-65128884D01*
X154020752Y-65138884D01*
X154177173Y-65189709D01*
X154371578Y-65220500D01*
X154371583Y-65220500D01*
X154568422Y-65220500D01*
X154762826Y-65189709D01*
X154839444Y-65164814D01*
X154950025Y-65128884D01*
X155125405Y-65039524D01*
X155284646Y-64923828D01*
X155423828Y-64784646D01*
X155539524Y-64625405D01*
X155628884Y-64450025D01*
X155689709Y-64262826D01*
X155720500Y-64068422D01*
X155720500Y-63351577D01*
X155689709Y-63157173D01*
X155632133Y-62979975D01*
X155628884Y-62969975D01*
X155628882Y-62969972D01*
X155628882Y-62969970D01*
X155560667Y-62836091D01*
X155539524Y-62794595D01*
X155423828Y-62635354D01*
X155284646Y-62496172D01*
X155125405Y-62380476D01*
X155079892Y-62357286D01*
X154950029Y-62291117D01*
X154762826Y-62230290D01*
X154568422Y-62199500D01*
X154568417Y-62199500D01*
X154371583Y-62199500D01*
X154371578Y-62199500D01*
X154177173Y-62230290D01*
X153989970Y-62291117D01*
X153814594Y-62380476D01*
X153723741Y-62446485D01*
X153655354Y-62496172D01*
X153655352Y-62496174D01*
X153655351Y-62496174D01*
X153516174Y-62635351D01*
X153516174Y-62635352D01*
X153516172Y-62635354D01*
X153512313Y-62640666D01*
X153400476Y-62794594D01*
X153311117Y-62969970D01*
X153250290Y-63157173D01*
X153219500Y-63351577D01*
X152720500Y-63351577D01*
X152689709Y-63157173D01*
X152632133Y-62979975D01*
X152628884Y-62969975D01*
X152628882Y-62969972D01*
X152628882Y-62969970D01*
X152560667Y-62836091D01*
X152539524Y-62794595D01*
X152423828Y-62635354D01*
X152284646Y-62496172D01*
X152125405Y-62380476D01*
X152079892Y-62357286D01*
X151950029Y-62291117D01*
X151762826Y-62230290D01*
X151568422Y-62199500D01*
X151568417Y-62199500D01*
X151371583Y-62199500D01*
X151371578Y-62199500D01*
X151177173Y-62230290D01*
X150989970Y-62291117D01*
X150814594Y-62380476D01*
X150723741Y-62446485D01*
X150655354Y-62496172D01*
X150655352Y-62496174D01*
X150655351Y-62496174D01*
X150516174Y-62635351D01*
X150516174Y-62635352D01*
X150516172Y-62635354D01*
X150512313Y-62640666D01*
X150400476Y-62794594D01*
X150311117Y-62969970D01*
X150250290Y-63157173D01*
X150219500Y-63351577D01*
X149720500Y-63351577D01*
X149720500Y-62899992D01*
X149709999Y-62797203D01*
X149654814Y-62630666D01*
X149571856Y-62496172D01*
X149562713Y-62481348D01*
X149562710Y-62481344D01*
X149438655Y-62357289D01*
X149438651Y-62357286D01*
X149289337Y-62265187D01*
X149289335Y-62265186D01*
X149184025Y-62230290D01*
X149122797Y-62210001D01*
X149122795Y-62210000D01*
X149020015Y-62199500D01*
X149020008Y-62199500D01*
X147919992Y-62199500D01*
X147919984Y-62199500D01*
X147817204Y-62210000D01*
X147817203Y-62210001D01*
X147650664Y-62265186D01*
X147650662Y-62265187D01*
X147501348Y-62357286D01*
X147501344Y-62357289D01*
X147377289Y-62481344D01*
X147377286Y-62481348D01*
X147285187Y-62630662D01*
X147285186Y-62630664D01*
X147230001Y-62797203D01*
X147230000Y-62797204D01*
X147219500Y-62899984D01*
X147219500Y-64520015D01*
X147230000Y-64622795D01*
X147230001Y-64622797D01*
X147233315Y-64632797D01*
X147285186Y-64789335D01*
X147285187Y-64789337D01*
X147377286Y-64938651D01*
X147377289Y-64938655D01*
X147425181Y-64986547D01*
X147458666Y-65047870D01*
X147461500Y-65074228D01*
X147461500Y-65999333D01*
X147500254Y-66194160D01*
X147500256Y-66194168D01*
X147576277Y-66377701D01*
X147576282Y-66377710D01*
X147686646Y-66542880D01*
X147686649Y-66542884D01*
X149715181Y-68571415D01*
X149748666Y-68632738D01*
X149751500Y-68659096D01*
X149751500Y-90248704D01*
X149731815Y-90315743D01*
X149715181Y-90336385D01*
X148676719Y-91374847D01*
X148536247Y-91515319D01*
X148532064Y-91521577D01*
X148523805Y-91529955D01*
X148523606Y-91530065D01*
X148523184Y-91530580D01*
X147435980Y-92617784D01*
X147425157Y-92626669D01*
X147425420Y-92626989D01*
X147420713Y-92630851D01*
X145643185Y-94408381D01*
X145581862Y-94441866D01*
X145555504Y-94444700D01*
X144759512Y-94444700D01*
X144692473Y-94425015D01*
X144652124Y-94382699D01*
X144627122Y-94339394D01*
X144467481Y-94131348D01*
X144467474Y-94131340D01*
X144282060Y-93945926D01*
X144282051Y-93945918D01*
X144074003Y-93786275D01*
X143846900Y-93655158D01*
X143846890Y-93655153D01*
X143604628Y-93554805D01*
X143604621Y-93554803D01*
X143604619Y-93554802D01*
X143351316Y-93486930D01*
X143293539Y-93479323D01*
X143091327Y-93452700D01*
X143091320Y-93452700D01*
X142829080Y-93452700D01*
X142829072Y-93452700D01*
X142597972Y-93483126D01*
X142569084Y-93486930D01*
X142315781Y-93554802D01*
X142315771Y-93554805D01*
X142073509Y-93655153D01*
X142073499Y-93655158D01*
X141846396Y-93786275D01*
X141638348Y-93945918D01*
X141529781Y-94054485D01*
X141468458Y-94087970D01*
X141398766Y-94082986D01*
X141342833Y-94041114D01*
X141318416Y-93975650D01*
X141318100Y-93966804D01*
X141318100Y-89546896D01*
X141326744Y-89517455D01*
X141333268Y-89487469D01*
X141337022Y-89482453D01*
X141337785Y-89479857D01*
X141354419Y-89459215D01*
X141425176Y-89388458D01*
X143159700Y-89388458D01*
X143159700Y-89617941D01*
X143184646Y-89807415D01*
X143189652Y-89845438D01*
X143248751Y-90066000D01*
X143249042Y-90067087D01*
X143336850Y-90279076D01*
X143336857Y-90279090D01*
X143358019Y-90315743D01*
X143429763Y-90440009D01*
X143451592Y-90477817D01*
X143591281Y-90659861D01*
X143591289Y-90659870D01*
X143753530Y-90822111D01*
X143753538Y-90822118D01*
X143753539Y-90822119D01*
X143800751Y-90858346D01*
X143935582Y-90961807D01*
X143935585Y-90961808D01*
X143935588Y-90961811D01*
X144134312Y-91076544D01*
X144134317Y-91076546D01*
X144134323Y-91076549D01*
X144190937Y-91099999D01*
X144346313Y-91164358D01*
X144567962Y-91223748D01*
X144795466Y-91253700D01*
X144795473Y-91253700D01*
X145024927Y-91253700D01*
X145024934Y-91253700D01*
X145252438Y-91223748D01*
X145474087Y-91164358D01*
X145686088Y-91076544D01*
X145884812Y-90961811D01*
X146066861Y-90822119D01*
X146066865Y-90822114D01*
X146066870Y-90822111D01*
X146229111Y-90659870D01*
X146229114Y-90659865D01*
X146229119Y-90659861D01*
X146368811Y-90477812D01*
X146483544Y-90279088D01*
X146571358Y-90067087D01*
X146630748Y-89845438D01*
X146660700Y-89617934D01*
X146660700Y-89388466D01*
X146630748Y-89160962D01*
X146571358Y-88939313D01*
X146503936Y-88776542D01*
X146483549Y-88727323D01*
X146483546Y-88727317D01*
X146483544Y-88727312D01*
X146368811Y-88528588D01*
X146368808Y-88528585D01*
X146368807Y-88528582D01*
X146240888Y-88361877D01*
X146229119Y-88346539D01*
X146229118Y-88346538D01*
X146229111Y-88346530D01*
X146066870Y-88184289D01*
X146066861Y-88184281D01*
X145884817Y-88044592D01*
X145686090Y-87929857D01*
X145686076Y-87929850D01*
X145474087Y-87842042D01*
X145252438Y-87782652D01*
X145214415Y-87777646D01*
X145024941Y-87752700D01*
X145024934Y-87752700D01*
X144795466Y-87752700D01*
X144795458Y-87752700D01*
X144578915Y-87781209D01*
X144567962Y-87782652D01*
X144474276Y-87807754D01*
X144346312Y-87842042D01*
X144134323Y-87929850D01*
X144134309Y-87929857D01*
X143935582Y-88044592D01*
X143753538Y-88184281D01*
X143591281Y-88346538D01*
X143451592Y-88528582D01*
X143336857Y-88727309D01*
X143336850Y-88727323D01*
X143249042Y-88939312D01*
X143189653Y-89160959D01*
X143189651Y-89160970D01*
X143159700Y-89388458D01*
X141425176Y-89388458D01*
X145642750Y-85170884D01*
X145642753Y-85170881D01*
X145753122Y-85005704D01*
X145829144Y-84822168D01*
X145830867Y-84813509D01*
X145867900Y-84627329D01*
X145867900Y-83489757D01*
X145887585Y-83422718D01*
X145916414Y-83391381D01*
X145978872Y-83343455D01*
X146016061Y-83314919D01*
X146016066Y-83314914D01*
X146178311Y-83152670D01*
X146178314Y-83152665D01*
X146178319Y-83152661D01*
X146318011Y-82970612D01*
X146432744Y-82771888D01*
X146520558Y-82559887D01*
X146579948Y-82338238D01*
X146609900Y-82110734D01*
X146609900Y-81881266D01*
X146579948Y-81653762D01*
X146520558Y-81432113D01*
X146452485Y-81267770D01*
X146432749Y-81220123D01*
X146432746Y-81220117D01*
X146432744Y-81220112D01*
X146318011Y-81021388D01*
X146318008Y-81021385D01*
X146318007Y-81021382D01*
X146178318Y-80839338D01*
X146178311Y-80839330D01*
X146016070Y-80677089D01*
X146016061Y-80677081D01*
X145834017Y-80537392D01*
X145635290Y-80422657D01*
X145635276Y-80422650D01*
X145423287Y-80334842D01*
X145401764Y-80329075D01*
X145201638Y-80275452D01*
X145163615Y-80270446D01*
X144974141Y-80245500D01*
X144974134Y-80245500D01*
X144744666Y-80245500D01*
X144744658Y-80245500D01*
X144528115Y-80274009D01*
X144517162Y-80275452D01*
X144423476Y-80300554D01*
X144295512Y-80334842D01*
X144083523Y-80422650D01*
X144083509Y-80422657D01*
X143884782Y-80537392D01*
X143702738Y-80677081D01*
X143702730Y-80677089D01*
X143540489Y-80839329D01*
X143540482Y-80839337D01*
X143540481Y-80839339D01*
X143464016Y-80938989D01*
X143407591Y-80980189D01*
X143365643Y-80987500D01*
X141469296Y-80987500D01*
X141402257Y-80967815D01*
X141381615Y-80951181D01*
X140224018Y-79793584D01*
X140190533Y-79732261D01*
X140187699Y-79705903D01*
X140187699Y-79035129D01*
X140187698Y-79035123D01*
X140186453Y-79023542D01*
X140181291Y-78975517D01*
X140154339Y-78903256D01*
X140130997Y-78840671D01*
X140130993Y-78840664D01*
X140044747Y-78725455D01*
X140044744Y-78725452D01*
X139929535Y-78639206D01*
X139929528Y-78639202D01*
X139794682Y-78588908D01*
X139794683Y-78588908D01*
X139735083Y-78582501D01*
X139735081Y-78582500D01*
X139735073Y-78582500D01*
X139735065Y-78582500D01*
X139064296Y-78582500D01*
X138997257Y-78562815D01*
X138976615Y-78546181D01*
X137671419Y-77240985D01*
X137637934Y-77179662D01*
X137635100Y-77153304D01*
X137635100Y-75814872D01*
X140908900Y-75814872D01*
X140908900Y-76077127D01*
X140919815Y-76160029D01*
X140943130Y-76337116D01*
X141011002Y-76590418D01*
X141011005Y-76590428D01*
X141111353Y-76832690D01*
X141111358Y-76832700D01*
X141242475Y-77059803D01*
X141402118Y-77267851D01*
X141402126Y-77267860D01*
X141587540Y-77453274D01*
X141587548Y-77453281D01*
X141587549Y-77453282D01*
X141624016Y-77481264D01*
X141795596Y-77612924D01*
X142022699Y-77744041D01*
X142022709Y-77744046D01*
X142245469Y-77836316D01*
X142264981Y-77844398D01*
X142518284Y-77912270D01*
X142778280Y-77946500D01*
X142778287Y-77946500D01*
X143040513Y-77946500D01*
X143040520Y-77946500D01*
X143300516Y-77912270D01*
X143553819Y-77844398D01*
X143796097Y-77744043D01*
X144023203Y-77612924D01*
X144231251Y-77453282D01*
X144231255Y-77453277D01*
X144231260Y-77453274D01*
X144416674Y-77267860D01*
X144416677Y-77267855D01*
X144416682Y-77267851D01*
X144576324Y-77059803D01*
X144707443Y-76832697D01*
X144807798Y-76590419D01*
X144875670Y-76337116D01*
X144909900Y-76077120D01*
X144909900Y-75814880D01*
X144875670Y-75554884D01*
X144807798Y-75301581D01*
X144795503Y-75271898D01*
X144707446Y-75059309D01*
X144707441Y-75059299D01*
X144576324Y-74832196D01*
X144416681Y-74624148D01*
X144416674Y-74624140D01*
X144231260Y-74438726D01*
X144231251Y-74438718D01*
X144023203Y-74279075D01*
X143796100Y-74147958D01*
X143796090Y-74147953D01*
X143553828Y-74047605D01*
X143553821Y-74047603D01*
X143553819Y-74047602D01*
X143300516Y-73979730D01*
X143242739Y-73972123D01*
X143040527Y-73945500D01*
X143040520Y-73945500D01*
X142778280Y-73945500D01*
X142778272Y-73945500D01*
X142547172Y-73975926D01*
X142518284Y-73979730D01*
X142264981Y-74047602D01*
X142264971Y-74047605D01*
X142022709Y-74147953D01*
X142022699Y-74147958D01*
X141795596Y-74279075D01*
X141587548Y-74438718D01*
X141402118Y-74624148D01*
X141242475Y-74832196D01*
X141111358Y-75059299D01*
X141111353Y-75059309D01*
X141011005Y-75301571D01*
X141011002Y-75301581D01*
X140971215Y-75450071D01*
X140943130Y-75554885D01*
X140908900Y-75814872D01*
X137635100Y-75814872D01*
X137635100Y-73133808D01*
X137654785Y-73066769D01*
X137707589Y-73021014D01*
X137776747Y-73011070D01*
X137840303Y-73040095D01*
X137859419Y-73060923D01*
X137895234Y-73110219D01*
X138039986Y-73254971D01*
X138194949Y-73367556D01*
X138205590Y-73375287D01*
X138321807Y-73434503D01*
X138387976Y-73468218D01*
X138387978Y-73468218D01*
X138387981Y-73468220D01*
X138483734Y-73499332D01*
X138582665Y-73531477D01*
X138683757Y-73547488D01*
X138784848Y-73563500D01*
X138784849Y-73563500D01*
X138989551Y-73563500D01*
X138989552Y-73563500D01*
X139191734Y-73531477D01*
X139386419Y-73468220D01*
X139568810Y-73375287D01*
X139661790Y-73307732D01*
X139734413Y-73254971D01*
X139734415Y-73254968D01*
X139734419Y-73254966D01*
X139879166Y-73110219D01*
X139879168Y-73110215D01*
X139879171Y-73110213D01*
X139964223Y-72993147D01*
X139999487Y-72944610D01*
X140092420Y-72762219D01*
X140155677Y-72567534D01*
X140187700Y-72365352D01*
X140187700Y-72160648D01*
X140182845Y-72129997D01*
X140155677Y-71958465D01*
X140092418Y-71763776D01*
X140041300Y-71663453D01*
X139999487Y-71581390D01*
X139990734Y-71569342D01*
X139879171Y-71415786D01*
X139734413Y-71271028D01*
X139568813Y-71150715D01*
X139568812Y-71150714D01*
X139568810Y-71150713D01*
X139511853Y-71121691D01*
X139386423Y-71057781D01*
X139191734Y-70994522D01*
X139017195Y-70966878D01*
X138989552Y-70962500D01*
X138784848Y-70962500D01*
X138760529Y-70966351D01*
X138582665Y-70994522D01*
X138387976Y-71057781D01*
X138205586Y-71150715D01*
X138039986Y-71271028D01*
X137895232Y-71415782D01*
X137895228Y-71415787D01*
X137859418Y-71465076D01*
X137804088Y-71507742D01*
X137734475Y-71513721D01*
X137672680Y-71481115D01*
X137638323Y-71420277D01*
X137635100Y-71392191D01*
X137635100Y-69881258D01*
X143108900Y-69881258D01*
X143108900Y-70110741D01*
X143133846Y-70300215D01*
X143138852Y-70338238D01*
X143178876Y-70487610D01*
X143198242Y-70559887D01*
X143286050Y-70771876D01*
X143286057Y-70771890D01*
X143400792Y-70970617D01*
X143540481Y-71152661D01*
X143540489Y-71152670D01*
X143702730Y-71314911D01*
X143702738Y-71314918D01*
X143884782Y-71454607D01*
X143884785Y-71454608D01*
X143884788Y-71454611D01*
X144083512Y-71569344D01*
X144083517Y-71569346D01*
X144083523Y-71569349D01*
X144162664Y-71602130D01*
X144295513Y-71657158D01*
X144517162Y-71716548D01*
X144744666Y-71746500D01*
X144744673Y-71746500D01*
X144974127Y-71746500D01*
X144974134Y-71746500D01*
X145201638Y-71716548D01*
X145423287Y-71657158D01*
X145635288Y-71569344D01*
X145834012Y-71454611D01*
X146016061Y-71314919D01*
X146016065Y-71314914D01*
X146016070Y-71314911D01*
X146178311Y-71152670D01*
X146178314Y-71152665D01*
X146178319Y-71152661D01*
X146318011Y-70970612D01*
X146432744Y-70771888D01*
X146520558Y-70559887D01*
X146579948Y-70338238D01*
X146609900Y-70110734D01*
X146609900Y-69881266D01*
X146579948Y-69653762D01*
X146520558Y-69432113D01*
X146470590Y-69311480D01*
X146432749Y-69220123D01*
X146432746Y-69220117D01*
X146432744Y-69220112D01*
X146318011Y-69021388D01*
X146318008Y-69021385D01*
X146318007Y-69021382D01*
X146178318Y-68839338D01*
X146178311Y-68839330D01*
X146016070Y-68677089D01*
X146016061Y-68677081D01*
X145834017Y-68537392D01*
X145635290Y-68422657D01*
X145635276Y-68422650D01*
X145423287Y-68334842D01*
X145201638Y-68275452D01*
X145163615Y-68270446D01*
X144974141Y-68245500D01*
X144974134Y-68245500D01*
X144744666Y-68245500D01*
X144744658Y-68245500D01*
X144528115Y-68274009D01*
X144517162Y-68275452D01*
X144423476Y-68300554D01*
X144295512Y-68334842D01*
X144083523Y-68422650D01*
X144083509Y-68422657D01*
X143884782Y-68537392D01*
X143702738Y-68677081D01*
X143540481Y-68839338D01*
X143400792Y-69021382D01*
X143286057Y-69220109D01*
X143286050Y-69220123D01*
X143198242Y-69432112D01*
X143138853Y-69653759D01*
X143138851Y-69653770D01*
X143108900Y-69881258D01*
X137635100Y-69881258D01*
X137635100Y-68668096D01*
X137654785Y-68601057D01*
X137671419Y-68580415D01*
X148367016Y-57884819D01*
X148428339Y-57851334D01*
X148454697Y-57848500D01*
X150238121Y-57848500D01*
X150305160Y-57868185D01*
X150350915Y-57920989D01*
X150360859Y-57990147D01*
X150331834Y-58053703D01*
X150316309Y-58068330D01*
X150316382Y-58068413D01*
X150314066Y-58070443D01*
X150313611Y-58070871D01*
X150313339Y-58071081D01*
X150313329Y-58071089D01*
X150151089Y-58233330D01*
X150151081Y-58233338D01*
X150011392Y-58415382D01*
X149896657Y-58614109D01*
X149896650Y-58614123D01*
X149808842Y-58826112D01*
X149749453Y-59047759D01*
X149749451Y-59047770D01*
X149719500Y-59275258D01*
X149719500Y-59504741D01*
X149744446Y-59694215D01*
X149749452Y-59732238D01*
X149752132Y-59742240D01*
X149808842Y-59953887D01*
X149896650Y-60165876D01*
X149896657Y-60165890D01*
X150011392Y-60364617D01*
X150151081Y-60546661D01*
X150151089Y-60546670D01*
X150313330Y-60708911D01*
X150313338Y-60708918D01*
X150495382Y-60848607D01*
X150495385Y-60848608D01*
X150495388Y-60848611D01*
X150694112Y-60963344D01*
X150694117Y-60963346D01*
X150694123Y-60963349D01*
X150785480Y-61001190D01*
X150906113Y-61051158D01*
X151127762Y-61110548D01*
X151355266Y-61140500D01*
X151355273Y-61140500D01*
X151584727Y-61140500D01*
X151584734Y-61140500D01*
X151812238Y-61110548D01*
X152033887Y-61051158D01*
X152245888Y-60963344D01*
X152444612Y-60848611D01*
X152626661Y-60708919D01*
X152626665Y-60708914D01*
X152626670Y-60708911D01*
X152788911Y-60546670D01*
X152788914Y-60546665D01*
X152788919Y-60546661D01*
X152928611Y-60364612D01*
X153043344Y-60165888D01*
X153131158Y-59953887D01*
X153190548Y-59732238D01*
X153220500Y-59504734D01*
X153220500Y-59275266D01*
X153190548Y-59047762D01*
X153131158Y-58826113D01*
X153047491Y-58624123D01*
X153043349Y-58614123D01*
X153043346Y-58614117D01*
X153043344Y-58614112D01*
X152928611Y-58415388D01*
X152928608Y-58415385D01*
X152928607Y-58415382D01*
X152796592Y-58243339D01*
X152788919Y-58233339D01*
X152788918Y-58233338D01*
X152788911Y-58233330D01*
X152626670Y-58071089D01*
X152626665Y-58071085D01*
X152626661Y-58071081D01*
X152626393Y-58070875D01*
X152626334Y-58070794D01*
X152623618Y-58068413D01*
X152623793Y-58068212D01*
X152623791Y-58068210D01*
X152623831Y-58068169D01*
X152624151Y-58067804D01*
X152585191Y-58014452D01*
X152581034Y-57944706D01*
X152615244Y-57883785D01*
X152676960Y-57851030D01*
X152701879Y-57848500D01*
X164428121Y-57848500D01*
X164495160Y-57868185D01*
X164540915Y-57920989D01*
X164550859Y-57990147D01*
X164521834Y-58053703D01*
X164506309Y-58068330D01*
X164506382Y-58068413D01*
X164504066Y-58070443D01*
X164503611Y-58070871D01*
X164503339Y-58071081D01*
X164503329Y-58071089D01*
X164341089Y-58233330D01*
X164341081Y-58233338D01*
X164201392Y-58415382D01*
X164086657Y-58614109D01*
X164086650Y-58614123D01*
X163998842Y-58826112D01*
X163939453Y-59047759D01*
X163939451Y-59047770D01*
X163909500Y-59275258D01*
X163909500Y-59504741D01*
X163934446Y-59694215D01*
X163939452Y-59732238D01*
X163942132Y-59742240D01*
X163998842Y-59953887D01*
X164086650Y-60165876D01*
X164086657Y-60165890D01*
X164201392Y-60364617D01*
X164341081Y-60546661D01*
X164341089Y-60546670D01*
X164503330Y-60708911D01*
X164503338Y-60708918D01*
X164685382Y-60848607D01*
X164685385Y-60848608D01*
X164685388Y-60848611D01*
X164884112Y-60963344D01*
X164884117Y-60963346D01*
X164884123Y-60963349D01*
X164975480Y-61001190D01*
X165096113Y-61051158D01*
X165317762Y-61110548D01*
X165545266Y-61140500D01*
X165545273Y-61140500D01*
X165774727Y-61140500D01*
X165774734Y-61140500D01*
X166002238Y-61110548D01*
X166223887Y-61051158D01*
X166435888Y-60963344D01*
X166634612Y-60848611D01*
X166816661Y-60708919D01*
X166816665Y-60708914D01*
X166816670Y-60708911D01*
X166978911Y-60546670D01*
X166978914Y-60546665D01*
X166978919Y-60546661D01*
X167118611Y-60364612D01*
X167233344Y-60165888D01*
X167321158Y-59953887D01*
X167380548Y-59732238D01*
X167410500Y-59504734D01*
X167410500Y-59275266D01*
X167380548Y-59047762D01*
X167321158Y-58826113D01*
X167237491Y-58624123D01*
X167233349Y-58614123D01*
X167233346Y-58614117D01*
X167233344Y-58614112D01*
X167118611Y-58415388D01*
X167118608Y-58415385D01*
X167118607Y-58415382D01*
X166986592Y-58243339D01*
X166978919Y-58233339D01*
X166978918Y-58233338D01*
X166978911Y-58233330D01*
X166816670Y-58071089D01*
X166816665Y-58071085D01*
X166816661Y-58071081D01*
X166816393Y-58070875D01*
X166816334Y-58070794D01*
X166813618Y-58068413D01*
X166813793Y-58068212D01*
X166813791Y-58068210D01*
X166813831Y-58068169D01*
X166814151Y-58067804D01*
X166775191Y-58014452D01*
X166771034Y-57944706D01*
X166805244Y-57883785D01*
X166866960Y-57851030D01*
X166891879Y-57848500D01*
X177051153Y-57848500D01*
X177118192Y-57868185D01*
X177163947Y-57920989D01*
X177173891Y-57990147D01*
X177144866Y-58053703D01*
X177126641Y-58070873D01*
X177126361Y-58071089D01*
X177113335Y-58081083D01*
X177113330Y-58081089D01*
X176951081Y-58243338D01*
X176811392Y-58425382D01*
X176696657Y-58624109D01*
X176696650Y-58624123D01*
X176608842Y-58836112D01*
X176574554Y-58964076D01*
X176552132Y-59047762D01*
X176549453Y-59057759D01*
X176549451Y-59057770D01*
X176519500Y-59285258D01*
X176519500Y-59514741D01*
X176526619Y-59568809D01*
X176549452Y-59742238D01*
X176606163Y-59953887D01*
X176608842Y-59963887D01*
X176696650Y-60175876D01*
X176696656Y-60175888D01*
X176805618Y-60364617D01*
X176811392Y-60374617D01*
X176951081Y-60556661D01*
X176951089Y-60556670D01*
X177113330Y-60718911D01*
X177113338Y-60718918D01*
X177113339Y-60718919D01*
X177163962Y-60757764D01*
X177295382Y-60858607D01*
X177295385Y-60858608D01*
X177295388Y-60858611D01*
X177494112Y-60973344D01*
X177494117Y-60973346D01*
X177494123Y-60973349D01*
X177585480Y-61011190D01*
X177706113Y-61061158D01*
X177927762Y-61120548D01*
X178155266Y-61150500D01*
X178155273Y-61150500D01*
X178384727Y-61150500D01*
X178384734Y-61150500D01*
X178612238Y-61120548D01*
X178833887Y-61061158D01*
X179045888Y-60973344D01*
X179244612Y-60858611D01*
X179426661Y-60718919D01*
X179426665Y-60718914D01*
X179426670Y-60718911D01*
X179588911Y-60556670D01*
X179588914Y-60556665D01*
X179588919Y-60556661D01*
X179728611Y-60374612D01*
X179843344Y-60175888D01*
X179931158Y-59963887D01*
X179990548Y-59742238D01*
X180020500Y-59514734D01*
X180020500Y-59285266D01*
X179990548Y-59057762D01*
X179931158Y-58836113D01*
X179859427Y-58662939D01*
X179843349Y-58624123D01*
X179843346Y-58624117D01*
X179843344Y-58624112D01*
X179728611Y-58425388D01*
X179728608Y-58425385D01*
X179728607Y-58425382D01*
X179588918Y-58243338D01*
X179588911Y-58243330D01*
X179426664Y-58081083D01*
X179413639Y-58071089D01*
X179413360Y-58070874D01*
X179372158Y-58014448D01*
X179368003Y-57944702D01*
X179402215Y-57883782D01*
X179463933Y-57851029D01*
X179488847Y-57848500D01*
X181288104Y-57848500D01*
X181355143Y-57868185D01*
X181375785Y-57884819D01*
X187985181Y-64494215D01*
X188018666Y-64555538D01*
X188021500Y-64581896D01*
X188021500Y-71575772D01*
X188001815Y-71642811D01*
X187985181Y-71663453D01*
X187937289Y-71711344D01*
X187937286Y-71711348D01*
X187845187Y-71860662D01*
X187845186Y-71860664D01*
X187790001Y-72027203D01*
X187790000Y-72027204D01*
X187779500Y-72129984D01*
X187779500Y-73230015D01*
X187790000Y-73332795D01*
X187790001Y-73332797D01*
X187813636Y-73404123D01*
X187845185Y-73499332D01*
X187845188Y-73499338D01*
X187876038Y-73549352D01*
X187894500Y-73614450D01*
X187894500Y-75124310D01*
X187880985Y-75180603D01*
X187871119Y-75199964D01*
X187810290Y-75387173D01*
X187779500Y-75581577D01*
X187779500Y-75778422D01*
X187810290Y-75972826D01*
X187871117Y-76160029D01*
X187960343Y-76335143D01*
X187960476Y-76335405D01*
X188076172Y-76494646D01*
X188215354Y-76633828D01*
X188374595Y-76749524D01*
X188457455Y-76791743D01*
X188549970Y-76838882D01*
X188549972Y-76838882D01*
X188549975Y-76838884D01*
X188650317Y-76871487D01*
X188737173Y-76899709D01*
X188931578Y-76930500D01*
X188931583Y-76930500D01*
X189128422Y-76930500D01*
X189322826Y-76899709D01*
X189324328Y-76899221D01*
X189510025Y-76838884D01*
X189685405Y-76749524D01*
X189844646Y-76633828D01*
X189983828Y-76494646D01*
X190099524Y-76335405D01*
X190188884Y-76160025D01*
X190249709Y-75972826D01*
X190263101Y-75888272D01*
X190280500Y-75778422D01*
X190280500Y-75581577D01*
X190249709Y-75387173D01*
X190188880Y-75199964D01*
X190179015Y-75180603D01*
X190165500Y-75124310D01*
X190165500Y-74065258D01*
X191599500Y-74065258D01*
X191599500Y-74294741D01*
X191617308Y-74430000D01*
X191629452Y-74522238D01*
X191656759Y-74624149D01*
X191688842Y-74743887D01*
X191776650Y-74955876D01*
X191776656Y-74955888D01*
X191891082Y-75154081D01*
X191891392Y-75154617D01*
X192031081Y-75336661D01*
X192031089Y-75336670D01*
X192193330Y-75498911D01*
X192193338Y-75498918D01*
X192375382Y-75638607D01*
X192375385Y-75638608D01*
X192375388Y-75638611D01*
X192574112Y-75753344D01*
X192574117Y-75753346D01*
X192574123Y-75753349D01*
X192634559Y-75778382D01*
X192786113Y-75841158D01*
X193007762Y-75900548D01*
X193235266Y-75930500D01*
X193235273Y-75930500D01*
X193464727Y-75930500D01*
X193464734Y-75930500D01*
X193692238Y-75900548D01*
X193913887Y-75841158D01*
X194125888Y-75753344D01*
X194324612Y-75638611D01*
X194506661Y-75498919D01*
X194506665Y-75498914D01*
X194506670Y-75498911D01*
X194668911Y-75336670D01*
X194668914Y-75336665D01*
X194668919Y-75336661D01*
X194808611Y-75154612D01*
X194923344Y-74955888D01*
X195011158Y-74743887D01*
X195070548Y-74522238D01*
X195100500Y-74294734D01*
X195100500Y-74065266D01*
X195070548Y-73837762D01*
X195011158Y-73616113D01*
X194961190Y-73495480D01*
X194923349Y-73404123D01*
X194923346Y-73404117D01*
X194923344Y-73404112D01*
X194808611Y-73205388D01*
X194808608Y-73205385D01*
X194808607Y-73205382D01*
X194681776Y-73040095D01*
X194668919Y-73023339D01*
X194668918Y-73023338D01*
X194668911Y-73023330D01*
X194506670Y-72861089D01*
X194506661Y-72861081D01*
X194324617Y-72721392D01*
X194125890Y-72606657D01*
X194125876Y-72606650D01*
X193913887Y-72518842D01*
X193692238Y-72459452D01*
X193654215Y-72454446D01*
X193464741Y-72429500D01*
X193464734Y-72429500D01*
X193235266Y-72429500D01*
X193235258Y-72429500D01*
X193018715Y-72458009D01*
X193007762Y-72459452D01*
X192919330Y-72483147D01*
X192786112Y-72518842D01*
X192574123Y-72606650D01*
X192574109Y-72606657D01*
X192375382Y-72721392D01*
X192193338Y-72861081D01*
X192031081Y-73023338D01*
X191891392Y-73205382D01*
X191776657Y-73404109D01*
X191776650Y-73404123D01*
X191688842Y-73616112D01*
X191629453Y-73837759D01*
X191629451Y-73837770D01*
X191599500Y-74065258D01*
X190165500Y-74065258D01*
X190165500Y-73614450D01*
X190183962Y-73549352D01*
X190184741Y-73548088D01*
X190214814Y-73499334D01*
X190269999Y-73332797D01*
X190280500Y-73230008D01*
X190280500Y-72129992D01*
X190269999Y-72027203D01*
X190214814Y-71860666D01*
X190204779Y-71844397D01*
X190122713Y-71711348D01*
X190122710Y-71711344D01*
X190074819Y-71663453D01*
X190041334Y-71602130D01*
X190038500Y-71575772D01*
X190038500Y-64013470D01*
X190038499Y-64013466D01*
X189999745Y-63818638D01*
X189999744Y-63818631D01*
X189923721Y-63635096D01*
X189923720Y-63635095D01*
X189923717Y-63635089D01*
X189813354Y-63469920D01*
X189813353Y-63469919D01*
X189672881Y-63329447D01*
X186940426Y-60596992D01*
X189123380Y-60596992D01*
X189123380Y-60866619D01*
X189153566Y-61134525D01*
X189153568Y-61134537D01*
X189213564Y-61397400D01*
X189213567Y-61397408D01*
X189302614Y-61651888D01*
X189419594Y-61894800D01*
X189419596Y-61894803D01*
X189563042Y-62123095D01*
X189731146Y-62333891D01*
X189921795Y-62524540D01*
X190132591Y-62692644D01*
X190360883Y-62836090D01*
X190603801Y-62953073D01*
X190794929Y-63019951D01*
X190858277Y-63042118D01*
X190858285Y-63042121D01*
X190858288Y-63042121D01*
X190858289Y-63042122D01*
X191121148Y-63102118D01*
X191389067Y-63132305D01*
X191389068Y-63132306D01*
X191389071Y-63132306D01*
X191658692Y-63132306D01*
X191658692Y-63132305D01*
X191926612Y-63102118D01*
X192189471Y-63042122D01*
X192443959Y-62953073D01*
X192686877Y-62836090D01*
X192915169Y-62692644D01*
X193125965Y-62524540D01*
X193316614Y-62333891D01*
X193484718Y-62123095D01*
X193628164Y-61894803D01*
X193745147Y-61651885D01*
X193834196Y-61397397D01*
X193894192Y-61134538D01*
X193924380Y-60866615D01*
X193924380Y-60596997D01*
X193894192Y-60329074D01*
X193834196Y-60066215D01*
X193745147Y-59811727D01*
X193628164Y-59568809D01*
X193484718Y-59340517D01*
X193316614Y-59129721D01*
X193125965Y-58939072D01*
X192915169Y-58770968D01*
X192686877Y-58627522D01*
X192686874Y-58627520D01*
X192443962Y-58510540D01*
X192189482Y-58421493D01*
X192189474Y-58421490D01*
X191992326Y-58376493D01*
X191926612Y-58361494D01*
X191926608Y-58361493D01*
X191926599Y-58361492D01*
X191658693Y-58331306D01*
X191658689Y-58331306D01*
X191389071Y-58331306D01*
X191389066Y-58331306D01*
X191121160Y-58361492D01*
X191121148Y-58361494D01*
X190858285Y-58421490D01*
X190858277Y-58421493D01*
X190603797Y-58510540D01*
X190360885Y-58627520D01*
X190132592Y-58770967D01*
X189921795Y-58939071D01*
X189731145Y-59129721D01*
X189563041Y-59340518D01*
X189419594Y-59568811D01*
X189302614Y-59811723D01*
X189213567Y-60066203D01*
X189213564Y-60066211D01*
X189153568Y-60329074D01*
X189153566Y-60329086D01*
X189123380Y-60596992D01*
X186940426Y-60596992D01*
X182776422Y-56432988D01*
X182742937Y-56371665D01*
X182747921Y-56301973D01*
X182789793Y-56246040D01*
X182855257Y-56221623D01*
X182864103Y-56221307D01*
X196123900Y-56221307D01*
X196190939Y-56240992D01*
X196236694Y-56293796D01*
X196247900Y-56345307D01*
X196247900Y-114970900D01*
X196228215Y-115037939D01*
X196175411Y-115083694D01*
X196123900Y-115094900D01*
X130484379Y-115094900D01*
X130417340Y-115075215D01*
X130371585Y-115022411D01*
X130360379Y-114970900D01*
X130360379Y-110507992D01*
X132539388Y-110507992D01*
X132539388Y-110777619D01*
X132569574Y-111045525D01*
X132569575Y-111045534D01*
X132569576Y-111045538D01*
X132584575Y-111111252D01*
X132629572Y-111308400D01*
X132629575Y-111308408D01*
X132718622Y-111562888D01*
X132835602Y-111805800D01*
X132835604Y-111805803D01*
X132979050Y-112034095D01*
X133147154Y-112244891D01*
X133337803Y-112435540D01*
X133548599Y-112603644D01*
X133776891Y-112747090D01*
X134019809Y-112864073D01*
X134210937Y-112930951D01*
X134274285Y-112953118D01*
X134274293Y-112953121D01*
X134274296Y-112953121D01*
X134274297Y-112953122D01*
X134537156Y-113013118D01*
X134805075Y-113043305D01*
X134805076Y-113043306D01*
X134805079Y-113043306D01*
X135074700Y-113043306D01*
X135074700Y-113043305D01*
X135342620Y-113013118D01*
X135605479Y-112953122D01*
X135859967Y-112864073D01*
X136102885Y-112747090D01*
X136331177Y-112603644D01*
X136541973Y-112435540D01*
X136732622Y-112244891D01*
X136900726Y-112034095D01*
X137044172Y-111805803D01*
X137161155Y-111562885D01*
X137250204Y-111308397D01*
X137310200Y-111045538D01*
X137340388Y-110777615D01*
X137340388Y-110533392D01*
X189097980Y-110533392D01*
X189097980Y-110803019D01*
X189128166Y-111070925D01*
X189128168Y-111070937D01*
X189188164Y-111333800D01*
X189188167Y-111333808D01*
X189277214Y-111588288D01*
X189394194Y-111831200D01*
X189394196Y-111831203D01*
X189537642Y-112059495D01*
X189705746Y-112270291D01*
X189896395Y-112460940D01*
X190107191Y-112629044D01*
X190335483Y-112772490D01*
X190578401Y-112889473D01*
X190760288Y-112953118D01*
X190832877Y-112978518D01*
X190832885Y-112978521D01*
X190832888Y-112978521D01*
X190832889Y-112978522D01*
X191095748Y-113038518D01*
X191363667Y-113068705D01*
X191363668Y-113068706D01*
X191363671Y-113068706D01*
X191633292Y-113068706D01*
X191633292Y-113068705D01*
X191901212Y-113038518D01*
X192164071Y-112978522D01*
X192418559Y-112889473D01*
X192661477Y-112772490D01*
X192889769Y-112629044D01*
X193100565Y-112460940D01*
X193291214Y-112270291D01*
X193459318Y-112059495D01*
X193602764Y-111831203D01*
X193719747Y-111588285D01*
X193808796Y-111333797D01*
X193868792Y-111070938D01*
X193898980Y-110803015D01*
X193898980Y-110533397D01*
X193868792Y-110265474D01*
X193808796Y-110002615D01*
X193719747Y-109748127D01*
X193602764Y-109505209D01*
X193459318Y-109276917D01*
X193291214Y-109066121D01*
X193100565Y-108875472D01*
X192889769Y-108707368D01*
X192661477Y-108563922D01*
X192661474Y-108563920D01*
X192418562Y-108446940D01*
X192164082Y-108357893D01*
X192164074Y-108357890D01*
X191966926Y-108312893D01*
X191901212Y-108297894D01*
X191901208Y-108297893D01*
X191901199Y-108297892D01*
X191633293Y-108267706D01*
X191633289Y-108267706D01*
X191363671Y-108267706D01*
X191363666Y-108267706D01*
X191095760Y-108297892D01*
X191095748Y-108297894D01*
X190832885Y-108357890D01*
X190832877Y-108357893D01*
X190578397Y-108446940D01*
X190335485Y-108563920D01*
X190107192Y-108707367D01*
X189896395Y-108875471D01*
X189705745Y-109066121D01*
X189537641Y-109276918D01*
X189394194Y-109505211D01*
X189277214Y-109748123D01*
X189188167Y-110002603D01*
X189188164Y-110002611D01*
X189128168Y-110265474D01*
X189128166Y-110265486D01*
X189097980Y-110533392D01*
X137340388Y-110533392D01*
X137340388Y-110507997D01*
X137310200Y-110240074D01*
X137250204Y-109977215D01*
X137161155Y-109722727D01*
X137044172Y-109479809D01*
X136900726Y-109251517D01*
X136732622Y-109040721D01*
X136541973Y-108850072D01*
X136331177Y-108681968D01*
X136102885Y-108538522D01*
X136102882Y-108538520D01*
X135859970Y-108421540D01*
X135605490Y-108332493D01*
X135605482Y-108332490D01*
X135408334Y-108287493D01*
X135342620Y-108272494D01*
X135342616Y-108272493D01*
X135342607Y-108272492D01*
X135074701Y-108242306D01*
X135074697Y-108242306D01*
X134805079Y-108242306D01*
X134805074Y-108242306D01*
X134537168Y-108272492D01*
X134537156Y-108272494D01*
X134274293Y-108332490D01*
X134274285Y-108332493D01*
X134019805Y-108421540D01*
X133776893Y-108538520D01*
X133548600Y-108681967D01*
X133337803Y-108850071D01*
X133147153Y-109040721D01*
X132979049Y-109251518D01*
X132835602Y-109479811D01*
X132718622Y-109722723D01*
X132629575Y-109977203D01*
X132629572Y-109977211D01*
X132569576Y-110240074D01*
X132569574Y-110240086D01*
X132539388Y-110507992D01*
X130360379Y-110507992D01*
X130360379Y-60749392D01*
X132557580Y-60749392D01*
X132557580Y-61019019D01*
X132587766Y-61286925D01*
X132587768Y-61286937D01*
X132647764Y-61549800D01*
X132647767Y-61549808D01*
X132736814Y-61804288D01*
X132853794Y-62047200D01*
X132853796Y-62047203D01*
X132997242Y-62275495D01*
X133165346Y-62486291D01*
X133355995Y-62676940D01*
X133566791Y-62845044D01*
X133795083Y-62988490D01*
X134038001Y-63105473D01*
X134214330Y-63167173D01*
X134292477Y-63194518D01*
X134292485Y-63194521D01*
X134292488Y-63194521D01*
X134292489Y-63194522D01*
X134555348Y-63254518D01*
X134823267Y-63284705D01*
X134823268Y-63284706D01*
X134823271Y-63284706D01*
X135092892Y-63284706D01*
X135092892Y-63284705D01*
X135360812Y-63254518D01*
X135623671Y-63194522D01*
X135878159Y-63105473D01*
X136121077Y-62988490D01*
X136349369Y-62845044D01*
X136560165Y-62676940D01*
X136750814Y-62486291D01*
X136918918Y-62275495D01*
X137062364Y-62047203D01*
X137179347Y-61804285D01*
X137268396Y-61549797D01*
X137328392Y-61286938D01*
X137358580Y-61019015D01*
X137358580Y-60749397D01*
X137328392Y-60481474D01*
X137268396Y-60218615D01*
X137179347Y-59964127D01*
X137062364Y-59721209D01*
X136918918Y-59492917D01*
X136750814Y-59282121D01*
X136560165Y-59091472D01*
X136349369Y-58923368D01*
X136121077Y-58779922D01*
X136121074Y-58779920D01*
X135878162Y-58662940D01*
X135623682Y-58573893D01*
X135623674Y-58573890D01*
X135426526Y-58528893D01*
X135360812Y-58513894D01*
X135360808Y-58513893D01*
X135360799Y-58513892D01*
X135092893Y-58483706D01*
X135092889Y-58483706D01*
X134823271Y-58483706D01*
X134823266Y-58483706D01*
X134555360Y-58513892D01*
X134555348Y-58513894D01*
X134292485Y-58573890D01*
X134292477Y-58573893D01*
X134037997Y-58662940D01*
X133795085Y-58779920D01*
X133566792Y-58923367D01*
X133355995Y-59091471D01*
X133165345Y-59282121D01*
X132997241Y-59492918D01*
X132853794Y-59721211D01*
X132736814Y-59964123D01*
X132647767Y-60218603D01*
X132647764Y-60218611D01*
X132587768Y-60481474D01*
X132587766Y-60481486D01*
X132557580Y-60749392D01*
X130360379Y-60749392D01*
X130360379Y-56345307D01*
X130380064Y-56278268D01*
X130432868Y-56232513D01*
X130484379Y-56221307D01*
X146878696Y-56221307D01*
X146945735Y-56240992D01*
G37*
%TD.AperFunction*%
%TD*%
%TA.AperFunction,Conductor*%
%TO.N,Net-(U1-EN)*%
G36*
X174408158Y-90239591D02*
G01*
X174411259Y-90245122D01*
X174535390Y-90760070D01*
X174533998Y-90768916D01*
X174526758Y-90774186D01*
X174526336Y-90774280D01*
X174246320Y-90830930D01*
X174241680Y-90830930D01*
X173960624Y-90774070D01*
X173953195Y-90769070D01*
X173951367Y-90760909D01*
X174026637Y-90246171D01*
X174031225Y-90238481D01*
X174038214Y-90236164D01*
X174399885Y-90236164D01*
X174408158Y-90239591D01*
G37*
%TD.AperFunction*%
%TD*%
M02*
