%TF.GenerationSoftware,KiCad,Pcbnew,9.0.1*%
%TF.CreationDate,2026-09-17T16:59:11+08:00*%
%TF.ProjectId,IMD_AMS_latch,494d445f-414d-4535-9f6c-617463682e6b,rev?*%
%TF.SameCoordinates,Original*%
%TF.FileFunction,Soldermask,Top*%
%TF.FilePolarity,Negative*%
%FSLAX46Y46*%
G04 Gerber Fmt 4.6, Leading zero omitted, Abs format (unit mm)*
G04 Created by KiCad (PCBNEW 9.0.1) date 2026-09-17 16:59:11*
%MOMM*%
%LPD*%
G01*
G04 APERTURE LIST*
G04 Aperture macros list*
%AMRoundRect*
0 Rectangle with rounded corners*
0 $1 Rounding radius*
0 $2 $3 $4 $5 $6 $7 $8 $9 X,Y pos of 4 corners*
0 Add a 4 corners polygon primitive as box body*
4,1,4,$2,$3,$4,$5,$6,$7,$8,$9,$2,$3,0*
0 Add four circle primitives for the rounded corners*
1,1,$1+$1,$2,$3*
1,1,$1+$1,$4,$5*
1,1,$1+$1,$6,$7*
1,1,$1+$1,$8,$9*
0 Add four rect primitives between the rounded corners*
20,1,$1+$1,$2,$3,$4,$5,0*
20,1,$1+$1,$4,$5,$6,$7,0*
20,1,$1+$1,$6,$7,$8,$9,0*
20,1,$1+$1,$8,$9,$2,$3,0*%
G04 Aperture macros list end*
%ADD10RoundRect,0.102000X-0.300000X0.675000X-0.300000X-0.675000X0.300000X-0.675000X0.300000X0.675000X0*%
%ADD11RoundRect,0.250000X0.450000X-0.350000X0.450000X0.350000X-0.450000X0.350000X-0.450000X-0.350000X0*%
%ADD12R,1.600000X1.600000*%
%ADD13O,1.600000X1.600000*%
%ADD14RoundRect,0.250000X0.350000X0.450000X-0.350000X0.450000X-0.350000X-0.450000X0.350000X-0.450000X0*%
%ADD15C,1.270000*%
%ADD16RoundRect,0.250001X-0.759999X0.499999X-0.759999X-0.499999X0.759999X-0.499999X0.759999X0.499999X0*%
%ADD17O,2.020000X1.500000*%
%ADD18RoundRect,0.250000X-0.450000X0.350000X-0.450000X-0.350000X0.450000X-0.350000X0.450000X0.350000X0*%
%ADD19RoundRect,0.250000X-0.350000X-0.450000X0.350000X-0.450000X0.350000X0.450000X-0.350000X0.450000X0*%
%ADD20RoundRect,0.250000X-0.475000X0.337500X-0.475000X-0.337500X0.475000X-0.337500X0.475000X0.337500X0*%
%ADD21C,4.300000*%
%ADD22RoundRect,0.150000X0.587500X0.150000X-0.587500X0.150000X-0.587500X-0.150000X0.587500X-0.150000X0*%
%ADD23RoundRect,0.250001X-0.499999X-0.759999X0.499999X-0.759999X0.499999X0.759999X-0.499999X0.759999X0*%
%ADD24O,1.500000X2.020000*%
%ADD25RoundRect,0.250001X0.499999X0.759999X-0.499999X0.759999X-0.499999X-0.759999X0.499999X-0.759999X0*%
%ADD26RoundRect,0.250000X0.450000X-0.325000X0.450000X0.325000X-0.450000X0.325000X-0.450000X-0.325000X0*%
%ADD27RoundRect,0.150000X1.350000X0.150000X-1.350000X0.150000X-1.350000X-0.150000X1.350000X-0.150000X0*%
%ADD28RoundRect,0.150000X1.337500X0.150000X-1.337500X0.150000X-1.337500X-0.150000X1.337500X-0.150000X0*%
%ADD29C,3.000000*%
%ADD30C,2.500000*%
G04 APERTURE END LIST*
D10*
%TO.C,U1*%
X179298601Y-92236800D03*
X178028600Y-92236800D03*
X176758599Y-92236800D03*
X175488600Y-92236800D03*
X174218600Y-92236800D03*
X172948601Y-92236800D03*
X171678600Y-92236800D03*
X170408600Y-92236800D03*
X170408600Y-97586800D03*
X171678600Y-97586800D03*
X172948600Y-97586800D03*
X174218600Y-97586800D03*
X175488600Y-97586800D03*
X176758600Y-97586800D03*
X178028600Y-97586800D03*
X179298600Y-97586800D03*
%TD*%
D11*
%TO.C,R14*%
X170881015Y-77129069D03*
X170881015Y-79129069D03*
%TD*%
D12*
%TO.C,D1*%
X138201400Y-99542600D03*
D13*
X138201400Y-91922600D03*
%TD*%
D14*
%TO.C,R6*%
X134400800Y-79354600D03*
X132400800Y-79354600D03*
%TD*%
D15*
%TO.C,J8*%
X194521000Y-93411400D03*
X194521000Y-102411400D03*
D16*
X192561000Y-96411400D03*
D17*
X192561000Y-99411400D03*
%TD*%
D15*
%TO.C,J6*%
X194521000Y-81448000D03*
X194521000Y-90448000D03*
D16*
X192561000Y-84448000D03*
D17*
X192561000Y-87448000D03*
%TD*%
D11*
%TO.C,R7*%
X167198014Y-77757470D03*
X167198014Y-75757470D03*
%TD*%
D18*
%TO.C,R10*%
X185724800Y-94911400D03*
X185724800Y-96911400D03*
%TD*%
D19*
%TO.C,R11*%
X172431000Y-71109399D03*
X174431000Y-71109399D03*
%TD*%
D11*
%TO.C,R13*%
X180406015Y-82405669D03*
X180406015Y-80405669D03*
%TD*%
D20*
%TO.C,C3*%
X167223414Y-71300368D03*
X167223414Y-73375368D03*
%TD*%
D11*
%TO.C,R4*%
X185765416Y-79056770D03*
X185765416Y-77056770D03*
%TD*%
D21*
%TO.C,H3*%
X134958080Y-60884206D03*
%TD*%
D22*
%TO.C,Q2*%
X134340600Y-73431400D03*
X134340600Y-71531400D03*
X132465599Y-72481400D03*
%TD*%
D15*
%TO.C,J9*%
X175763800Y-58483400D03*
X184763800Y-58483400D03*
D23*
X178763800Y-60443400D03*
D24*
X181763800Y-60443400D03*
%TD*%
D15*
%TO.C,J5*%
X177142400Y-112653200D03*
X168142400Y-112653200D03*
D25*
X174142400Y-110693200D03*
D24*
X171142400Y-110693200D03*
%TD*%
D21*
%TO.C,H1*%
X191523880Y-60731806D03*
%TD*%
%TO.C,H4*%
X191498480Y-110668206D03*
%TD*%
D26*
%TO.C,D4*%
X185699400Y-101838600D03*
X185699400Y-99788602D03*
%TD*%
D22*
%TO.C,Q1*%
X134137400Y-92913200D03*
X134137400Y-91013200D03*
X132262399Y-91963200D03*
%TD*%
D21*
%TO.C,H2*%
X134939888Y-110642806D03*
%TD*%
D27*
%TO.C,U2*%
X180386214Y-78281470D03*
X180386214Y-77011470D03*
D28*
X180398714Y-75876470D03*
D27*
X180386214Y-74471470D03*
X174386214Y-74471470D03*
X174386214Y-75741470D03*
X174386214Y-77011470D03*
X174386214Y-78281470D03*
%TD*%
D14*
%TO.C,R5*%
X134225300Y-98440200D03*
X132225300Y-98440200D03*
%TD*%
D19*
%TO.C,R3*%
X132426200Y-76408200D03*
X134426200Y-76408200D03*
%TD*%
D15*
%TO.C,J7*%
X155453600Y-112729400D03*
X146453600Y-112729400D03*
D25*
X152453600Y-110769400D03*
D24*
X149453600Y-110769400D03*
%TD*%
D19*
%TO.C,R2*%
X132225300Y-95519200D03*
X134225300Y-95519200D03*
%TD*%
D20*
%TO.C,C2*%
X185790815Y-72345669D03*
X185790815Y-74420669D03*
%TD*%
D12*
%TO.C,D2*%
X138887200Y-79883000D03*
D13*
X138887200Y-72263000D03*
%TD*%
D19*
%TO.C,R12*%
X177181000Y-71145400D03*
X179181000Y-71145400D03*
%TD*%
D15*
%TO.C,J2*%
X194487800Y-69816200D03*
X194487800Y-78816200D03*
D16*
X192527800Y-72816200D03*
D17*
X192527800Y-75816200D03*
%TD*%
D15*
%TO.C,J10*%
X163243000Y-58466600D03*
X172243000Y-58466600D03*
D23*
X166243000Y-60426600D03*
D24*
X169243000Y-60426600D03*
%TD*%
D29*
%TO.C,K1*%
X142960200Y-95453200D03*
D30*
X144910200Y-101503200D03*
D29*
X157110200Y-101503200D03*
X157160200Y-89453200D03*
D30*
X144910200Y-89503200D03*
%TD*%
D29*
%TO.C,K2*%
X142909400Y-75946000D03*
D30*
X144859400Y-81996000D03*
D29*
X157059400Y-81996000D03*
X157109400Y-69946000D03*
D30*
X144859400Y-69996000D03*
%TD*%
M02*
