%TF.GenerationSoftware,KiCad,Pcbnew,9.0.1*%
%TF.CreationDate,2026-10-03T23:24:53+08:00*%
%TF.ProjectId,IMD_AMS_latch,494d445f-414d-4535-9f6c-617463682e6b,rev?*%
%TF.SameCoordinates,Original*%
%TF.FileFunction,Soldermask,Top*%
%TF.FilePolarity,Negative*%
%FSLAX46Y46*%
G04 Gerber Fmt 4.6, Leading zero omitted, Abs format (unit mm)*
G04 Created by KiCad (PCBNEW 9.0.1) date 2026-10-03 23:24:53*
%MOMM*%
%LPD*%
G01*
G04 APERTURE LIST*
G04 Aperture macros list*
%AMRoundRect*
0 Rectangle with rounded corners*
0 $1 Rounding radius*
0 $2 $3 $4 $5 $6 $7 $8 $9 X,Y pos of 4 corners*
0 Add a 4 corners polygon primitive as box body*
4,1,4,$2,$3,$4,$5,$6,$7,$8,$9,$2,$3,0*
0 Add four circle primitives for the rounded corners*
1,1,$1+$1,$2,$3*
1,1,$1+$1,$4,$5*
1,1,$1+$1,$6,$7*
1,1,$1+$1,$8,$9*
0 Add four rect primitives between the rounded corners*
20,1,$1+$1,$2,$3,$4,$5,0*
20,1,$1+$1,$4,$5,$6,$7,0*
20,1,$1+$1,$6,$7,$8,$9,0*
20,1,$1+$1,$8,$9,$2,$3,0*%
G04 Aperture macros list end*
%ADD10C,3.000000*%
%ADD11RoundRect,0.250001X-0.499999X-0.759999X0.499999X-0.759999X0.499999X0.759999X-0.499999X0.759999X0*%
%ADD12O,1.500000X2.020000*%
%ADD13RoundRect,0.250000X0.350000X0.450000X-0.350000X0.450000X-0.350000X-0.450000X0.350000X-0.450000X0*%
%ADD14RoundRect,0.250000X0.450000X-0.350000X0.450000X0.350000X-0.450000X0.350000X-0.450000X-0.350000X0*%
%ADD15RoundRect,0.250000X-0.350000X-0.450000X0.350000X-0.450000X0.350000X0.450000X-0.350000X0.450000X0*%
%ADD16RoundRect,0.250000X-0.475000X0.337500X-0.475000X-0.337500X0.475000X-0.337500X0.475000X0.337500X0*%
%ADD17C,4.300000*%
%ADD18RoundRect,0.150000X0.587500X0.150000X-0.587500X0.150000X-0.587500X-0.150000X0.587500X-0.150000X0*%
%ADD19RoundRect,0.250000X-0.325000X-0.450000X0.325000X-0.450000X0.325000X0.450000X-0.325000X0.450000X0*%
%ADD20RoundRect,0.102000X-0.300000X0.675000X-0.300000X-0.675000X0.300000X-0.675000X0.300000X0.675000X0*%
%ADD21RoundRect,0.250001X-0.499999X0.499999X-0.499999X-0.499999X0.499999X-0.499999X0.499999X0.499999X0*%
%ADD22C,1.500000*%
%ADD23RoundRect,0.150000X1.350000X0.150000X-1.350000X0.150000X-1.350000X-0.150000X1.350000X-0.150000X0*%
%ADD24RoundRect,0.150000X1.337500X0.150000X-1.337500X0.150000X-1.337500X-0.150000X1.337500X-0.150000X0*%
%ADD25RoundRect,0.250000X-0.337500X-0.475000X0.337500X-0.475000X0.337500X0.475000X-0.337500X0.475000X0*%
%ADD26C,2.500000*%
%ADD27R,1.600000X1.600000*%
%ADD28O,1.600000X1.600000*%
G04 APERTURE END LIST*
D10*
%TO.C,J6*%
X151470000Y-59390000D03*
D11*
X148470000Y-63710000D03*
D12*
X151470000Y-63710000D03*
X154470000Y-63710000D03*
%TD*%
D10*
%TO.C,J2*%
X165660000Y-59390000D03*
D11*
X162660000Y-63710000D03*
D12*
X165660000Y-63710000D03*
X168660000Y-63710000D03*
%TD*%
D10*
%TO.C,J7*%
X178270000Y-59400000D03*
D11*
X176770000Y-63720000D03*
D12*
X179770000Y-63720000D03*
%TD*%
D13*
%TO.C,R6*%
X134400800Y-79354600D03*
X132400800Y-79354600D03*
%TD*%
D14*
%TO.C,R7*%
X167198014Y-77757470D03*
X167198014Y-75757470D03*
%TD*%
D15*
%TO.C,R11*%
X172431000Y-71109399D03*
X174431000Y-71109399D03*
%TD*%
D14*
%TO.C,R13*%
X180406015Y-82405669D03*
X180406015Y-80405669D03*
%TD*%
D16*
%TO.C,C3*%
X167223414Y-71300368D03*
X167223414Y-73375368D03*
%TD*%
D14*
%TO.C,R4*%
X183820000Y-79110000D03*
X183820000Y-77110000D03*
%TD*%
%TO.C,R14*%
X170881015Y-79129069D03*
X170881015Y-77129069D03*
%TD*%
D13*
%TO.C,R17*%
X139887200Y-77139800D03*
X137887200Y-77139800D03*
%TD*%
D17*
%TO.C,H3*%
X134958080Y-60884206D03*
%TD*%
D18*
%TO.C,Q2*%
X134340600Y-73431400D03*
X134340600Y-71531400D03*
X132465599Y-72481400D03*
%TD*%
D19*
%TO.C,D5*%
X137887600Y-94259400D03*
X139937600Y-94259400D03*
%TD*%
D13*
%TO.C,R16*%
X139938000Y-96697800D03*
X137938000Y-96697800D03*
%TD*%
D17*
%TO.C,H1*%
X191523880Y-60731806D03*
%TD*%
D20*
%TO.C,U1*%
X179298601Y-92236800D03*
X178028600Y-92236800D03*
X176758599Y-92236800D03*
X175488600Y-92236800D03*
X174218600Y-92236800D03*
X172948601Y-92236800D03*
X171678600Y-92236800D03*
X170408600Y-92236800D03*
X170408600Y-97586800D03*
X171678600Y-97586800D03*
X172948600Y-97586800D03*
X174218600Y-97586800D03*
X175488600Y-97586800D03*
X176758600Y-97586800D03*
X178028600Y-97586800D03*
X179298600Y-97586800D03*
%TD*%
D17*
%TO.C,H4*%
X191498480Y-110668206D03*
%TD*%
D10*
%TO.C,J1*%
X193400000Y-97560000D03*
D21*
X189080000Y-96060000D03*
D22*
X189080000Y-99060000D03*
X186080000Y-96060000D03*
X186080000Y-99060000D03*
%TD*%
D18*
%TO.C,Q1*%
X134137400Y-92913200D03*
X134137400Y-91013200D03*
X132262399Y-91963200D03*
%TD*%
D17*
%TO.C,H2*%
X134939888Y-110642806D03*
%TD*%
D23*
%TO.C,U2*%
X180386214Y-78281470D03*
X180386214Y-77011470D03*
D24*
X180398714Y-75876470D03*
D23*
X180386214Y-74471470D03*
X174386214Y-74471470D03*
X174386214Y-75741470D03*
X174386214Y-77011470D03*
X174386214Y-78281470D03*
%TD*%
D10*
%TO.C,J3*%
X193290000Y-85658104D03*
D21*
X188970000Y-84158104D03*
D22*
X188970000Y-87158104D03*
X185970000Y-84158104D03*
X185970000Y-87158104D03*
%TD*%
D13*
%TO.C,R5*%
X134225300Y-98440200D03*
X132225300Y-98440200D03*
%TD*%
%TO.C,R10*%
X185640000Y-90180000D03*
X183640000Y-90180000D03*
%TD*%
D19*
%TO.C,D6*%
X137862200Y-74676000D03*
X139912200Y-74676000D03*
%TD*%
D15*
%TO.C,R3*%
X132426200Y-76408200D03*
X134426200Y-76408200D03*
%TD*%
D10*
%TO.C,J4*%
X193350000Y-74180000D03*
D21*
X189030000Y-72680000D03*
D22*
X189030000Y-75680000D03*
X186030000Y-72680000D03*
X186030000Y-75680000D03*
%TD*%
D15*
%TO.C,R2*%
X132225300Y-95519200D03*
X134225300Y-95519200D03*
%TD*%
D25*
%TO.C,C2*%
X181502500Y-71150000D03*
X183577500Y-71150000D03*
%TD*%
D19*
%TO.C,D4*%
X181555000Y-87730000D03*
X183605000Y-87730000D03*
%TD*%
D15*
%TO.C,R12*%
X177181000Y-71145400D03*
X179181000Y-71145400D03*
%TD*%
D10*
%TO.C,K1*%
X142960200Y-95453200D03*
D26*
X144910200Y-101503200D03*
D10*
X157110200Y-101503200D03*
X157160200Y-89453200D03*
D26*
X144910200Y-89503200D03*
%TD*%
D10*
%TO.C,K2*%
X142909400Y-75946000D03*
D26*
X144859400Y-81996000D03*
D10*
X157059400Y-81996000D03*
X157109400Y-69946000D03*
D26*
X144859400Y-69996000D03*
%TD*%
D27*
%TO.C,D1*%
X138201400Y-99542600D03*
D28*
X138201400Y-91922600D03*
%TD*%
D27*
%TO.C,D2*%
X138887200Y-79883000D03*
D28*
X138887200Y-72263000D03*
%TD*%
M02*
