M48
; DRILL file {KiCad 9.0.1} date 2026-10-03T22:53:07+0800
; FORMAT={-:-/ absolute / metric / decimal}
; #@! TF.CreationDate,2026-10-03T22:53:07+08:00
; #@! TF.GenerationSoftware,Kicad,Pcbnew,9.0.1
; #@! TF.FileFunction,Plated,1,2,PTH
FMAT,2
METRIC
; #@! TA.AperFunction,Plated,PTH,ViaDrill
T1C0.300
; #@! TA.AperFunction,Plated,PTH,ComponentDrill
T2C0.800
; #@! TA.AperFunction,Plated,PTH,ComponentDrill
T3C1.000
; #@! TA.AperFunction,Plated,PTH,ComponentDrill
T4C1.020
; #@! TA.AperFunction,Plated,PTH,ComponentDrill
T5C1.300
%
G90
G05
T1
X130.767Y-111.075
X130.988Y-101.6
X131.064Y-105.537
X131.14Y-82.906
X131.191Y-86.182
X131.369Y-67.158
X131.445Y-64.008
X131.75Y-59.512
X132.334Y-113.665
X134.849Y-57.607
X135.636Y-87.427
X137.389Y-114.376
X138.836Y-57.785
X140.716Y-108.255
X142.037Y-112.014
X143.078Y-57.785
X143.815Y-114.503
X147.244Y-112.243
X147.498Y-73.533
X148.24Y-70.41
X148.28Y-75.44
X148.62Y-77.09
X151.968Y-95.352
X152.019Y-92.405
X152.806Y-69.926
X152.933Y-76.632
X153.48Y-73.49
X153.721Y-98.527
X154.33Y-78.765
X156.591Y-97.13
X156.667Y-94.082
X156.693Y-76.53
X156.972Y-73.711
X157.023Y-107.594
X158.826Y-105.588
X160.223Y-114.097
X164.744Y-79.908
X164.795Y-97.511
X164.821Y-76.251
X165.176Y-82.575
X165.456Y-101.194
X165.608Y-114.046
X165.659Y-106.705
X166.649Y-85.141
X166.98Y-88.011
X167.005Y-98.603
X167.03Y-91.11
X167.198Y-77.757
X168.631Y-67.869
X169.926Y-105.181
X170.42Y-99.66
X170.459Y-82.855
X170.561Y-114.021
X170.586Y-84.938
X170.663Y-101.244
X170.881Y-79.129
X171.348Y-74.117
X171.552Y-86.792
X171.958Y-82.398
X172.431Y-71.109
X172.542Y-67.996
X172.898Y-84.938
X174.244Y-90.83
X174.29Y-108.86
X174.386Y-78.281
X174.904Y-101.295
X175.514Y-114.021
X175.616Y-93.802
X176.352Y-72.974
X177.063Y-67.996
X177.292Y-99.212
X177.622Y-84.861
X178.333Y-93.751
X178.359Y-82.398
X179.371Y-99.162
X179.426Y-72.974
X179.7Y-109.22
X180.406Y-82.406
X180.899Y-68.631
X181.254Y-98.069
X181.254Y-114.021
X181.432Y-93.904
X182.118Y-95.961
X183.06Y-103.82
X186.16Y-81.4
X186.461Y-114.173
X188.239Y-57.15
X192.38Y-113.944
X193.116Y-57.099
X194.97Y-69.342
X194.996Y-75.87
X194.996Y-111.176
X195.072Y-106.35
X195.453Y-99.847
X195.555Y-60.757
X195.605Y-95.301
X195.656Y-87.427
X195.682Y-91.465
X195.707Y-83.871
X195.758Y-64.592
X195.783Y-79.908
T2
X138.201Y-91.923
X138.201Y-99.543
X138.887Y-72.263
X138.887Y-79.883
T3
X144.859Y-69.996
X144.859Y-81.996
X144.91Y-89.503
X144.91Y-101.503
T4
X150.28Y-62.86
X150.28Y-65.86
X153.28Y-62.86
X153.28Y-65.86
X185.97Y-84.158
X185.97Y-87.158
X186.03Y-72.68
X186.03Y-75.68
X186.08Y-96.06
X186.08Y-99.06
X188.97Y-84.158
X188.97Y-87.158
X189.03Y-72.68
X189.03Y-75.68
X189.08Y-96.06
X189.08Y-99.06
T5
X142.909Y-75.946
X142.96Y-95.453
X157.059Y-81.996
X157.109Y-69.946
X157.11Y-101.503
X157.16Y-89.453
M30
