M48
; DRILL file {KiCad 9.0.1} date 2026-09-27T15:51:12+0800
; FORMAT={-:-/ absolute / metric / decimal}
; #@! TF.CreationDate,2026-09-27T15:51:12+08:00
; #@! TF.GenerationSoftware,Kicad,Pcbnew,9.0.1
; #@! TF.FileFunction,NonPlated,1,2,NPTH
FMAT,2
METRIC
; #@! TA.AperFunction,NonPlated,NPTH,ComponentDrill
T1C1.270
; #@! TA.AperFunction,NonPlated,NPTH,ComponentDrill
T2C4.300
%
G90
G05
T1
X146.454Y-112.729
X155.454Y-112.729
X163.243Y-58.467
X164.744Y-112.497
X172.243Y-58.467
X173.744Y-112.497
X175.764Y-58.483
X176.907Y-112.459
X184.764Y-58.483
X185.907Y-112.459
X194.488Y-69.816
X194.488Y-78.816
X194.521Y-81.448
X194.521Y-90.448
X194.521Y-93.411
X194.521Y-102.411
T2
X134.94Y-110.643
X134.958Y-60.884
X191.498Y-110.668
X191.524Y-60.732
M30
