%TF.GenerationSoftware,KiCad,Pcbnew,9.0.1*%
%TF.CreationDate,2026-09-27T15:51:06+08:00*%
%TF.ProjectId,IMD_AMS_latch,494d445f-414d-4535-9f6c-617463682e6b,rev?*%
%TF.SameCoordinates,Original*%
%TF.FileFunction,Copper,L1,Top*%
%TF.FilePolarity,Positive*%
%FSLAX46Y46*%
G04 Gerber Fmt 4.6, Leading zero omitted, Abs format (unit mm)*
G04 Created by KiCad (PCBNEW 9.0.1) date 2026-09-27 15:51:06*
%MOMM*%
%LPD*%
G01*
G04 APERTURE LIST*
G04 Aperture macros list*
%AMRoundRect*
0 Rectangle with rounded corners*
0 $1 Rounding radius*
0 $2 $3 $4 $5 $6 $7 $8 $9 X,Y pos of 4 corners*
0 Add a 4 corners polygon primitive as box body*
4,1,4,$2,$3,$4,$5,$6,$7,$8,$9,$2,$3,0*
0 Add four circle primitives for the rounded corners*
1,1,$1+$1,$2,$3*
1,1,$1+$1,$4,$5*
1,1,$1+$1,$6,$7*
1,1,$1+$1,$8,$9*
0 Add four rect primitives between the rounded corners*
20,1,$1+$1,$2,$3,$4,$5,0*
20,1,$1+$1,$4,$5,$6,$7,0*
20,1,$1+$1,$6,$7,$8,$9,0*
20,1,$1+$1,$8,$9,$2,$3,0*%
G04 Aperture macros list end*
%TA.AperFunction,SMDPad,CuDef*%
%ADD10RoundRect,0.250000X0.350000X0.450000X-0.350000X0.450000X-0.350000X-0.450000X0.350000X-0.450000X0*%
%TD*%
%TA.AperFunction,SMDPad,CuDef*%
%ADD11RoundRect,0.150000X0.587500X0.150000X-0.587500X0.150000X-0.587500X-0.150000X0.587500X-0.150000X0*%
%TD*%
%TA.AperFunction,SMDPad,CuDef*%
%ADD12RoundRect,0.250000X-0.325000X-0.450000X0.325000X-0.450000X0.325000X0.450000X-0.325000X0.450000X0*%
%TD*%
%TA.AperFunction,ComponentPad*%
%ADD13RoundRect,0.250001X0.499999X0.759999X-0.499999X0.759999X-0.499999X-0.759999X0.499999X-0.759999X0*%
%TD*%
%TA.AperFunction,ComponentPad*%
%ADD14O,1.500000X2.020000*%
%TD*%
%TA.AperFunction,ComponentPad*%
%ADD15R,1.600000X1.600000*%
%TD*%
%TA.AperFunction,ComponentPad*%
%ADD16O,1.600000X1.600000*%
%TD*%
%TA.AperFunction,ComponentPad*%
%ADD17RoundRect,0.250001X-0.759999X0.499999X-0.759999X-0.499999X0.759999X-0.499999X0.759999X0.499999X0*%
%TD*%
%TA.AperFunction,ComponentPad*%
%ADD18O,2.020000X1.500000*%
%TD*%
%TA.AperFunction,SMDPad,CuDef*%
%ADD19RoundRect,0.250000X0.450000X-0.350000X0.450000X0.350000X-0.450000X0.350000X-0.450000X-0.350000X0*%
%TD*%
%TA.AperFunction,SMDPad,CuDef*%
%ADD20RoundRect,0.250000X-0.450000X0.350000X-0.450000X-0.350000X0.450000X-0.350000X0.450000X0.350000X0*%
%TD*%
%TA.AperFunction,SMDPad,CuDef*%
%ADD21RoundRect,0.250000X-0.350000X-0.450000X0.350000X-0.450000X0.350000X0.450000X-0.350000X0.450000X0*%
%TD*%
%TA.AperFunction,SMDPad,CuDef*%
%ADD22RoundRect,0.250000X-0.475000X0.337500X-0.475000X-0.337500X0.475000X-0.337500X0.475000X0.337500X0*%
%TD*%
%TA.AperFunction,ComponentPad*%
%ADD23RoundRect,0.250001X-0.499999X-0.759999X0.499999X-0.759999X0.499999X0.759999X-0.499999X0.759999X0*%
%TD*%
%TA.AperFunction,SMDPad,CuDef*%
%ADD24R,0.600000X1.350000*%
%TD*%
%TA.AperFunction,SMDPad,CuDef*%
%ADD25RoundRect,0.250000X0.450000X-0.325000X0.450000X0.325000X-0.450000X0.325000X-0.450000X-0.325000X0*%
%TD*%
%TA.AperFunction,SMDPad,CuDef*%
%ADD26RoundRect,0.150000X1.350000X0.150000X-1.350000X0.150000X-1.350000X-0.150000X1.350000X-0.150000X0*%
%TD*%
%TA.AperFunction,SMDPad,CuDef*%
%ADD27RoundRect,0.150000X1.337500X0.150000X-1.337500X0.150000X-1.337500X-0.150000X1.337500X-0.150000X0*%
%TD*%
%TA.AperFunction,ComponentPad*%
%ADD28C,3.000000*%
%TD*%
%TA.AperFunction,ComponentPad*%
%ADD29C,2.500000*%
%TD*%
%TA.AperFunction,ViaPad*%
%ADD30C,0.600000*%
%TD*%
%TA.AperFunction,Conductor*%
%ADD31C,0.304800*%
%TD*%
%TA.AperFunction,Conductor*%
%ADD32C,0.381000*%
%TD*%
%TA.AperFunction,Conductor*%
%ADD33C,0.200000*%
%TD*%
%TA.AperFunction,Conductor*%
%ADD34C,0.508000*%
%TD*%
%TA.AperFunction,Conductor*%
%ADD35C,1.016000*%
%TD*%
%TA.AperFunction,Conductor*%
%ADD36C,0.609600*%
%TD*%
G04 APERTURE END LIST*
D10*
%TO.P,R17,2*%
%TO.N,+12V*%
X137887200Y-77139800D03*
%TO.P,R17,1*%
%TO.N,Net-(D6-A)*%
X139887200Y-77139800D03*
%TD*%
D11*
%TO.P,Q1,3,D*%
%TO.N,Net-(D1-A)*%
X132262399Y-91963200D03*
%TO.P,Q1,2,S*%
%TO.N,GND*%
X134137400Y-91013200D03*
%TO.P,Q1,1,G*%
%TO.N,Net-(Q1-G)*%
X134137400Y-92913200D03*
%TD*%
D12*
%TO.P,D5,2,A*%
%TO.N,Net-(D5-A)*%
X139937600Y-94259400D03*
%TO.P,D5,1,K*%
%TO.N,Net-(D1-A)*%
X137887600Y-94259400D03*
%TD*%
D10*
%TO.P,R16,2*%
%TO.N,+12V*%
X137938000Y-96697800D03*
%TO.P,R16,1*%
%TO.N,Net-(D5-A)*%
X139938000Y-96697800D03*
%TD*%
D13*
%TO.P,J13,1,Pin_1*%
%TO.N,Net-(D4-A)*%
X182906800Y-110498600D03*
D14*
%TO.P,J13,2,Pin_2*%
%TO.N,GND*%
X179906800Y-110498600D03*
%TD*%
D12*
%TO.P,D6,1,K*%
%TO.N,Net-(D2-A)*%
X137862200Y-74676000D03*
%TO.P,D6,2,A*%
%TO.N,Net-(D6-A)*%
X139912200Y-74676000D03*
%TD*%
D15*
%TO.P,D1,1,K*%
%TO.N,+12V*%
X138201400Y-99542600D03*
D16*
%TO.P,D1,2,A*%
%TO.N,Net-(D1-A)*%
X138201400Y-91922600D03*
%TD*%
D10*
%TO.P,R6,1*%
%TO.N,/IMD_latch*%
X134400800Y-79354600D03*
%TO.P,R6,2*%
%TO.N,Net-(Q2-G)*%
X132400800Y-79354600D03*
%TD*%
D17*
%TO.P,J8,1,Pin_1*%
%TO.N,/IMD_MHS*%
X192561000Y-96411400D03*
D18*
%TO.P,J8,2,Pin_2*%
%TO.N,/IMD_OKHS*%
X192561000Y-99411400D03*
%TD*%
D17*
%TO.P,J6,1,Pin_1*%
%TO.N,GND*%
X192561000Y-84448000D03*
D18*
%TO.P,J6,2,Pin_2*%
X192561000Y-87448000D03*
%TD*%
D19*
%TO.P,R7,1*%
%TO.N,+12V*%
X167198014Y-77757470D03*
%TO.P,R7,2*%
%TO.N,/IMD_reset_btn*%
X167198014Y-75757470D03*
%TD*%
D20*
%TO.P,R10,1*%
%TO.N,/IMD_MHS*%
X185724800Y-94911400D03*
%TO.P,R10,2*%
%TO.N,Net-(D4-A)*%
X185724800Y-96911400D03*
%TD*%
D21*
%TO.P,R11,1*%
%TO.N,+12V*%
X172431000Y-71109399D03*
%TO.P,R11,2*%
%TO.N,/VREF*%
X174431000Y-71109399D03*
%TD*%
D19*
%TO.P,R13,1*%
%TO.N,+12V*%
X180406015Y-82405669D03*
%TO.P,R13,2*%
%TO.N,/AMS_reset*%
X180406015Y-80405669D03*
%TD*%
D22*
%TO.P,C3,1*%
%TO.N,GND*%
X167223414Y-71300368D03*
%TO.P,C3,2*%
%TO.N,/IMD_reset_btn*%
X167223414Y-73375368D03*
%TD*%
D19*
%TO.P,R4,1*%
%TO.N,+12V*%
X185765416Y-79056770D03*
%TO.P,R4,2*%
%TO.N,/AMS_reset_btn*%
X185765416Y-77056770D03*
%TD*%
%TO.P,R14,1*%
%TO.N,+12V*%
X170881015Y-79129069D03*
%TO.P,R14,2*%
%TO.N,/IMD_reset*%
X170881015Y-77129069D03*
%TD*%
D11*
%TO.P,Q2,1,G*%
%TO.N,Net-(Q2-G)*%
X134340600Y-73431400D03*
%TO.P,Q2,2,S*%
%TO.N,GND*%
X134340600Y-71531400D03*
%TO.P,Q2,3,D*%
%TO.N,Net-(D2-A)*%
X132465599Y-72481400D03*
%TD*%
D23*
%TO.P,J9,1,Pin_1*%
%TO.N,/AMS_reset_btn*%
X178763800Y-60443400D03*
D14*
%TO.P,J9,2,Pin_2*%
%TO.N,GND*%
X181763800Y-60443400D03*
%TD*%
D13*
%TO.P,J5,1,Pin_1*%
%TO.N,/AMS_signal*%
X170744400Y-110536600D03*
D14*
%TO.P,J5,2,Pin_2*%
%TO.N,GND*%
X167744400Y-110536600D03*
%TD*%
D24*
%TO.P,U1,1,Q3*%
%TO.N,unconnected-(U1-Q3-Pad1)*%
X179298601Y-92236800D03*
%TO.P,U1,2,Q0*%
%TO.N,/AMS_latch*%
X178028600Y-92236800D03*
%TO.P,U1,3,R0*%
%TO.N,/AMS_signal*%
X176758599Y-92236800D03*
%TO.P,U1,4,S0*%
%TO.N,/AMS_reset*%
X175488600Y-92236800D03*
%TO.P,U1,5,EN*%
%TO.N,Net-(U1-EN)*%
X174218600Y-92236800D03*
%TO.P,U1,6,S1*%
%TO.N,/IMD_reset*%
X172948601Y-92236800D03*
%TO.P,U1,7,R1*%
%TO.N,/IMD_OKHS*%
X171678600Y-92236800D03*
%TO.P,U1,8,GND*%
%TO.N,GND*%
X170408600Y-92236800D03*
%TO.P,U1,9,Q1*%
%TO.N,/IMD_latch*%
X170408600Y-97586800D03*
%TO.P,U1,10,Q2*%
%TO.N,unconnected-(U1-Q2-Pad10)*%
X171678600Y-97586800D03*
%TO.P,U1,11,R2*%
%TO.N,unconnected-(U1-R2-Pad11)*%
X172948600Y-97586800D03*
%TO.P,U1,12,S2*%
%TO.N,unconnected-(U1-S2-Pad12)*%
X174218600Y-97586800D03*
%TO.P,U1,13,NC*%
%TO.N,unconnected-(U1-NC-Pad13)*%
X175488600Y-97586800D03*
%TO.P,U1,14,S3*%
%TO.N,unconnected-(U1-S3-Pad14)*%
X176758600Y-97586800D03*
%TO.P,U1,15,R3*%
%TO.N,unconnected-(U1-R3-Pad15)*%
X178028600Y-97586800D03*
%TO.P,U1,16,VCC*%
%TO.N,+12V*%
X179298600Y-97586800D03*
%TD*%
D25*
%TO.P,D4,1,K*%
%TO.N,GND*%
X185699400Y-101838600D03*
%TO.P,D4,2,A*%
%TO.N,Net-(D4-A)*%
X185699400Y-99788602D03*
%TD*%
D26*
%TO.P,U2,1*%
%TO.N,/AMS_reset*%
X180386214Y-78281470D03*
%TO.P,U2,2,-*%
%TO.N,/AMS_reset_btn*%
X180386214Y-77011470D03*
D27*
%TO.P,U2,3,+*%
%TO.N,/VREF*%
X180398714Y-75876470D03*
D26*
%TO.P,U2,4,V-*%
%TO.N,GND*%
X180386214Y-74471470D03*
%TO.P,U2,5,+*%
%TO.N,/VREF*%
X174386214Y-74471470D03*
%TO.P,U2,6,-*%
%TO.N,/IMD_reset_btn*%
X174386214Y-75741470D03*
%TO.P,U2,7*%
%TO.N,/IMD_reset*%
X174386214Y-77011470D03*
%TO.P,U2,8,V+*%
%TO.N,+12V*%
X174386214Y-78281470D03*
%TD*%
D10*
%TO.P,R5,1*%
%TO.N,/AMS_latch*%
X134225300Y-98440200D03*
%TO.P,R5,2*%
%TO.N,Net-(Q1-G)*%
X132225300Y-98440200D03*
%TD*%
D21*
%TO.P,R3,1*%
%TO.N,Net-(Q2-G)*%
X132426200Y-76408200D03*
%TO.P,R3,2*%
%TO.N,GND*%
X134426200Y-76408200D03*
%TD*%
D13*
%TO.P,J7,1,Pin_1*%
%TO.N,/SDC_IN*%
X152453600Y-110769400D03*
D14*
%TO.P,J7,2,Pin_2*%
%TO.N,/SDC_OUT*%
X149453600Y-110769400D03*
%TD*%
D21*
%TO.P,R2,1*%
%TO.N,Net-(Q1-G)*%
X132225300Y-95519200D03*
%TO.P,R2,2*%
%TO.N,GND*%
X134225300Y-95519200D03*
%TD*%
D22*
%TO.P,C2,1*%
%TO.N,GND*%
X185790815Y-72345669D03*
%TO.P,C2,2*%
%TO.N,/AMS_reset_btn*%
X185790815Y-74420669D03*
%TD*%
D15*
%TO.P,D2,1,K*%
%TO.N,+12V*%
X138887200Y-79883000D03*
D16*
%TO.P,D2,2,A*%
%TO.N,Net-(D2-A)*%
X138887200Y-72263000D03*
%TD*%
D21*
%TO.P,R12,1*%
%TO.N,/VREF*%
X177181000Y-71145400D03*
%TO.P,R12,2*%
%TO.N,GND*%
X179181000Y-71145400D03*
%TD*%
D17*
%TO.P,J2,1,Pin_1*%
%TO.N,+12V*%
X192527800Y-72816200D03*
D18*
%TO.P,J2,2,Pin_2*%
X192527800Y-75816200D03*
%TD*%
D23*
%TO.P,J10,1,Pin_1*%
%TO.N,/IMD_reset_btn*%
X166243000Y-60426600D03*
D14*
%TO.P,J10,2,Pin_2*%
%TO.N,GND*%
X169243000Y-60426600D03*
%TD*%
D28*
%TO.P,K1,1*%
%TO.N,/SDC_IN*%
X142960200Y-95453200D03*
D29*
%TO.P,K1,2*%
%TO.N,+12V*%
X144910200Y-101503200D03*
D28*
%TO.P,K1,3*%
%TO.N,unconnected-(K1-Pad3)*%
X157110200Y-101503200D03*
%TO.P,K1,4*%
%TO.N,Net-(K1-Pad4)*%
X157160200Y-89453200D03*
D29*
%TO.P,K1,5*%
%TO.N,Net-(D1-A)*%
X144910200Y-89503200D03*
%TD*%
D28*
%TO.P,K2,1*%
%TO.N,Net-(K1-Pad4)*%
X142909400Y-75946000D03*
D29*
%TO.P,K2,2*%
%TO.N,+12V*%
X144859400Y-81996000D03*
D28*
%TO.P,K2,3*%
%TO.N,unconnected-(K2-Pad3)*%
X157059400Y-81996000D03*
%TO.P,K2,4*%
%TO.N,/SDC_OUT*%
X157109400Y-69946000D03*
D29*
%TO.P,K2,5*%
%TO.N,Net-(D2-A)*%
X144859400Y-69996000D03*
%TD*%
D30*
%TO.N,GND*%
X188391800Y-97688400D03*
X185801000Y-104343200D03*
X131368800Y-67157600D03*
X195605400Y-95300800D03*
X152831800Y-57785000D03*
X171348400Y-74117200D03*
X181432200Y-93903800D03*
X170459400Y-82854800D03*
X164820600Y-76250800D03*
X131064000Y-105537000D03*
X168630600Y-67868800D03*
X164744400Y-79908400D03*
X152019000Y-92405200D03*
X171551600Y-86791800D03*
X172542200Y-67995800D03*
X171958000Y-82397600D03*
X195072000Y-106349800D03*
X170459400Y-106654600D03*
X142976600Y-110591600D03*
X182600600Y-80264000D03*
X131749800Y-59512200D03*
X170561000Y-114020600D03*
X156972000Y-73710800D03*
X156591000Y-97129600D03*
X131140200Y-82905600D03*
X143814800Y-114503200D03*
X166979600Y-88011000D03*
X175615600Y-93802200D03*
X195554600Y-60756800D03*
X153720800Y-98526600D03*
X156667200Y-94081600D03*
X148945600Y-75692000D03*
X152298400Y-73660000D03*
X183159400Y-57099200D03*
X167005000Y-98602800D03*
X134848600Y-57607200D03*
X137388600Y-114376200D03*
X195783200Y-74828400D03*
X152933400Y-76631800D03*
X143078200Y-57785000D03*
X183032400Y-87782400D03*
X166649400Y-85140800D03*
X165176200Y-82575400D03*
X195783200Y-79908400D03*
X148310600Y-92405200D03*
X177622200Y-84861400D03*
X152806400Y-69926200D03*
X167030400Y-91109800D03*
X147497800Y-73533000D03*
X138836400Y-57785000D03*
X195707000Y-83870800D03*
X195453000Y-99847400D03*
X151968200Y-95351600D03*
X172897800Y-84937600D03*
X131445000Y-64008000D03*
X148336000Y-57785000D03*
X186461400Y-114173000D03*
X183235600Y-78892400D03*
X186029600Y-88442800D03*
X132334000Y-113665000D03*
X135636000Y-87426800D03*
X140716000Y-108254800D03*
X154330400Y-78765400D03*
X149225000Y-77393800D03*
X182118000Y-95961200D03*
X195757800Y-64592200D03*
X193116200Y-57099200D03*
X192379600Y-113944400D03*
X130767080Y-111074606D03*
X176352200Y-72974200D03*
X186385200Y-68046600D03*
X156692600Y-76530200D03*
X188239400Y-57150000D03*
X176784000Y-57099200D03*
X189280800Y-70231000D03*
X177063400Y-67995800D03*
X195681600Y-91465400D03*
X165608000Y-114046000D03*
X177292000Y-99212400D03*
X160223200Y-114096800D03*
X179425600Y-72974200D03*
X180898800Y-68630800D03*
X188696600Y-75057000D03*
X170586400Y-84937600D03*
X165658800Y-106705400D03*
X184048400Y-80289400D03*
X195656200Y-87426800D03*
X178333400Y-93751400D03*
X182778400Y-84785200D03*
X164795200Y-97510600D03*
X165455600Y-101193600D03*
X130987800Y-101600000D03*
X194995800Y-111175800D03*
X170637200Y-57150000D03*
X149377400Y-69824600D03*
X131191000Y-86182200D03*
X175514000Y-114020600D03*
X185978800Y-84836000D03*
X195884800Y-69443600D03*
X170662600Y-101244400D03*
X181254400Y-114020600D03*
X174904400Y-101295200D03*
X164084000Y-57175400D03*
X157505400Y-57734200D03*
X183616600Y-75285600D03*
%TO.N,+12V*%
X170881015Y-79129069D03*
X172431000Y-71109399D03*
X174386214Y-78281470D03*
X179370900Y-99161600D03*
X167198014Y-77757470D03*
X178358800Y-82397600D03*
X180406015Y-82405669D03*
%TO.N,/IMD_OKHS*%
X181254400Y-98069400D03*
%TO.N,Net-(U1-EN)*%
X174244000Y-90830400D03*
%TD*%
D31*
%TO.N,/IMD_OKHS*%
X171678600Y-92543799D02*
X171678600Y-92236800D01*
X174003801Y-94869000D02*
X171678600Y-92543799D01*
X181254400Y-98069400D02*
X181254400Y-95885000D01*
X181254400Y-95885000D02*
X180238400Y-94869000D01*
X180238400Y-94869000D02*
X174003801Y-94869000D01*
D32*
%TO.N,Net-(D2-A)*%
X137862200Y-73288000D02*
X138887200Y-72263000D01*
X137862200Y-74676000D02*
X137862200Y-73288000D01*
D33*
%TO.N,Net-(D6-A)*%
X139887200Y-74701000D02*
X139912200Y-74676000D01*
D32*
X139887200Y-77139800D02*
X139887200Y-74701000D01*
%TO.N,+12V*%
X137887200Y-78883000D02*
X138887200Y-79883000D01*
X137887200Y-77139800D02*
X137887200Y-78883000D01*
D33*
X137938000Y-99279200D02*
X138201400Y-99542600D01*
D32*
X137938000Y-96697800D02*
X137938000Y-99279200D01*
%TO.N,Net-(D5-A)*%
X139937600Y-96697400D02*
X139938000Y-96697800D01*
X139937600Y-94259400D02*
X139937600Y-96697400D01*
%TO.N,Net-(D1-A)*%
X137887600Y-92719000D02*
X137887600Y-94259400D01*
X138201400Y-92405200D02*
X137887600Y-92719000D01*
X138201400Y-91922600D02*
X138201400Y-92405200D01*
D33*
%TO.N,GND*%
X185699400Y-104241600D02*
X185801000Y-104343200D01*
X185699400Y-101838600D02*
X185699400Y-104241600D01*
%TO.N,Net-(D4-A)*%
X182906800Y-110412400D02*
X182906800Y-110498600D01*
X187291602Y-99788602D02*
X187833000Y-100330000D01*
X187833000Y-100330000D02*
X187833000Y-105486200D01*
X185699400Y-99788602D02*
X187291602Y-99788602D01*
X187833000Y-105486200D02*
X182906800Y-110412400D01*
%TO.N,/AMS_signal*%
X170744400Y-108376200D02*
X170744400Y-110536600D01*
X172313600Y-106807000D02*
X170744400Y-108376200D01*
X180568600Y-90043000D02*
X183997600Y-93472000D01*
X183997600Y-93472000D02*
X183997600Y-104394000D01*
X183997600Y-104394000D02*
X181584600Y-106807000D01*
X177698400Y-90043000D02*
X180568600Y-90043000D01*
X176758599Y-90982801D02*
X177698400Y-90043000D01*
X176758599Y-92236800D02*
X176758599Y-90982801D01*
X181584600Y-106807000D02*
X172313600Y-106807000D01*
D34*
%TO.N,+12V*%
X180448746Y-82448400D02*
X180406015Y-82405669D01*
D32*
X179374800Y-97663000D02*
X179298600Y-97586800D01*
D34*
X180406015Y-82405669D02*
X178366869Y-82405669D01*
X185765416Y-81213984D02*
X184531000Y-82448400D01*
D32*
X179370900Y-99161600D02*
X179374800Y-99157700D01*
D34*
X178366869Y-82405669D02*
X178358800Y-82397600D01*
X189287230Y-79056770D02*
X192527800Y-75816200D01*
X185765416Y-79056770D02*
X189287230Y-79056770D01*
D32*
X179374800Y-99157700D02*
X179374800Y-97663000D01*
D34*
X185765416Y-79056770D02*
X185765416Y-81213984D01*
X184531000Y-82448400D02*
X180448746Y-82448400D01*
D32*
%TO.N,/AMS_reset_btn*%
X185720116Y-77011470D02*
X185765416Y-77056770D01*
X183159400Y-72313800D02*
X183159400Y-67411600D01*
X178763800Y-63016000D02*
X178763800Y-60443400D01*
X185765416Y-74446068D02*
X185790815Y-74420669D01*
X185790815Y-74420669D02*
X185266269Y-74420669D01*
X183159400Y-67411600D02*
X178763800Y-63016000D01*
X185765416Y-77056770D02*
X185765416Y-74446068D01*
X180386214Y-77011470D02*
X185720116Y-77011470D01*
X185266269Y-74420669D02*
X183159400Y-72313800D01*
%TO.N,/IMD_reset_btn*%
X167214013Y-75741472D02*
X174386215Y-75741470D01*
X167223414Y-75732071D02*
X167198014Y-75757471D01*
X164338000Y-72034400D02*
X165684200Y-73380600D01*
X164338000Y-62331600D02*
X164338000Y-72034400D01*
X167223414Y-73375369D02*
X167223414Y-75732071D01*
X167198014Y-75757471D02*
X167214013Y-75741472D01*
X166243000Y-60426600D02*
X164338000Y-62331600D01*
X165689432Y-73375368D02*
X167223414Y-73375368D01*
X165684200Y-73380600D02*
X165689432Y-73375368D01*
D35*
%TO.N,Net-(D1-A)*%
X142490800Y-91922600D02*
X144910200Y-89503200D01*
D36*
X138160800Y-91963200D02*
X138201400Y-91922600D01*
X132262399Y-91963200D02*
X138160800Y-91963200D01*
D35*
X138201400Y-91922600D02*
X142490800Y-91922600D01*
D36*
%TO.N,Net-(D2-A)*%
X132480799Y-72466200D02*
X138684000Y-72466200D01*
D35*
X138887200Y-72263000D02*
X142592400Y-72263000D01*
D36*
X138684000Y-72466200D02*
X138887200Y-72263000D01*
D35*
X142592400Y-72263000D02*
X144859400Y-69996000D01*
D36*
X132465599Y-72481400D02*
X132480799Y-72466200D01*
D33*
%TO.N,Net-(D4-A)*%
X185724800Y-99763202D02*
X185699400Y-99788602D01*
D35*
X185724800Y-96911400D02*
X185724800Y-99763202D01*
%TO.N,/IMD_MHS*%
X185724800Y-94911400D02*
X191061000Y-94911400D01*
X191061000Y-94911400D02*
X192561000Y-96411400D01*
D31*
%TO.N,Net-(Q1-G)*%
X132225300Y-93572800D02*
X132884900Y-92913200D01*
X132884900Y-92913200D02*
X134137400Y-92913200D01*
X132225300Y-95519200D02*
X132225300Y-93572800D01*
X132225300Y-98440200D02*
X132225300Y-95519200D01*
%TO.N,Net-(Q2-G)*%
X133324800Y-73431400D02*
X134340600Y-73431400D01*
X132426200Y-74330000D02*
X133324800Y-73431400D01*
X132426200Y-76408200D02*
X132426200Y-74330000D01*
X132400800Y-76433600D02*
X132426200Y-76408200D01*
X132400800Y-79354600D02*
X132400800Y-76433600D01*
D33*
%TO.N,/AMS_latch*%
X138353800Y-104495600D02*
X134225300Y-100367100D01*
X178028600Y-92236800D02*
X178028600Y-91211400D01*
X181457600Y-104495600D02*
X171754800Y-104495600D01*
X134225300Y-100367100D02*
X134225300Y-98440200D01*
X178485800Y-90754200D02*
X180238400Y-90754200D01*
X171754800Y-104495600D02*
X138353800Y-104495600D01*
X183007000Y-93522800D02*
X183007000Y-102946200D01*
X178028600Y-91211400D02*
X178485800Y-90754200D01*
X183007000Y-102946200D02*
X181457600Y-104495600D01*
X180238400Y-90754200D02*
X183007000Y-93522800D01*
D31*
%TO.N,/IMD_latch*%
X166497000Y-94665800D02*
X169265600Y-94665800D01*
X151028400Y-85140800D02*
X136474200Y-85140800D01*
X136474200Y-85140800D02*
X134411200Y-83077800D01*
X164566600Y-86766400D02*
X164566600Y-92735400D01*
X134411200Y-83077800D02*
X134411200Y-79852000D01*
X162941000Y-85140800D02*
X164566600Y-86766400D01*
X164566600Y-92735400D02*
X166497000Y-94665800D01*
X170408600Y-95808800D02*
X170408600Y-97586800D01*
X151028400Y-85140800D02*
X162941000Y-85140800D01*
X169265600Y-94665800D02*
X170408600Y-95808800D01*
D32*
%TO.N,/VREF*%
X174467000Y-71145399D02*
X177181000Y-71145400D01*
X174396400Y-74461283D02*
X174386213Y-74471470D01*
X176751214Y-74471468D02*
X178156213Y-75876472D01*
X178156213Y-75876472D02*
X180398714Y-75876470D01*
X174396400Y-71667283D02*
X174396400Y-74461283D01*
X174386213Y-74471470D02*
X176751214Y-74471468D01*
X174431000Y-71109399D02*
X174467000Y-71145399D01*
D31*
%TO.N,/AMS_reset*%
X180406015Y-80405669D02*
X176642331Y-80405669D01*
X180386214Y-78281470D02*
X180386214Y-80385868D01*
X180386214Y-80385868D02*
X180406015Y-80405669D01*
X176642331Y-80405669D02*
X175488600Y-81559400D01*
X175488600Y-81559400D02*
X175488600Y-92236800D01*
%TO.N,/IMD_reset*%
X172948601Y-89179401D02*
X172948601Y-92236800D01*
X174386214Y-77011470D02*
X170998614Y-77011470D01*
X172440600Y-88671400D02*
X172948601Y-89179401D01*
X170881015Y-77129069D02*
X170317731Y-77129069D01*
X170317731Y-77129069D02*
X168960800Y-78486000D01*
X170998614Y-77011470D02*
X170881015Y-77129069D01*
X168960800Y-87147400D02*
X170484800Y-88671400D01*
X168960800Y-78486000D02*
X168960800Y-87147400D01*
X170484800Y-88671400D02*
X172440600Y-88671400D01*
D32*
%TO.N,Net-(U1-EN)*%
X174244000Y-92211400D02*
X174218600Y-92236800D01*
X174244000Y-90830400D02*
X174244000Y-92211400D01*
%TD*%
%TA.AperFunction,Conductor*%
%TO.N,GND*%
G36*
X176522543Y-75230903D02*
G01*
X176558391Y-75255869D01*
X177715719Y-76413201D01*
X177715726Y-76413207D01*
X177828899Y-76488826D01*
X177828900Y-76488826D01*
X177828901Y-76488827D01*
X177954654Y-76540916D01*
X177954655Y-76540916D01*
X177954657Y-76540917D01*
X178088156Y-76567472D01*
X178210290Y-76567471D01*
X178224269Y-76567472D01*
X178224269Y-76567471D01*
X178279079Y-76567471D01*
X178346118Y-76587156D01*
X178391873Y-76639960D01*
X178401817Y-76709118D01*
X178398155Y-76726066D01*
X178388616Y-76758896D01*
X178388615Y-76758902D01*
X178385714Y-76795768D01*
X178385714Y-77227171D01*
X178388615Y-77264037D01*
X178388616Y-77264043D01*
X178434468Y-77421863D01*
X178434469Y-77421866D01*
X178518131Y-77563332D01*
X178522916Y-77569501D01*
X178520470Y-77571397D01*
X178547071Y-77620112D01*
X178542087Y-77689804D01*
X178521283Y-77722173D01*
X178522916Y-77723439D01*
X178518131Y-77729607D01*
X178434469Y-77871073D01*
X178434468Y-77871076D01*
X178388616Y-78028896D01*
X178388615Y-78028902D01*
X178385714Y-78065768D01*
X178385714Y-78497171D01*
X178388615Y-78534037D01*
X178388616Y-78534043D01*
X178434468Y-78691863D01*
X178434469Y-78691866D01*
X178434470Y-78691868D01*
X178456459Y-78729049D01*
X178518131Y-78833332D01*
X178518137Y-78833340D01*
X178634343Y-78949546D01*
X178634347Y-78949549D01*
X178634349Y-78949551D01*
X178775816Y-79033214D01*
X178817438Y-79045306D01*
X178933640Y-79079067D01*
X178933643Y-79079067D01*
X178933645Y-79079068D01*
X178970520Y-79081970D01*
X179609314Y-79081970D01*
X179617999Y-79084520D01*
X179626961Y-79083232D01*
X179651001Y-79094210D01*
X179676353Y-79101655D01*
X179682280Y-79108495D01*
X179690517Y-79112257D01*
X179704806Y-79134491D01*
X179722108Y-79154459D01*
X179724395Y-79164973D01*
X179728291Y-79171035D01*
X179733314Y-79205970D01*
X179733314Y-79249292D01*
X179713629Y-79316331D01*
X179660825Y-79362086D01*
X179648324Y-79366996D01*
X179636683Y-79370853D01*
X179487357Y-79462958D01*
X179363304Y-79587011D01*
X179297396Y-79693866D01*
X179245448Y-79740590D01*
X179191857Y-79752769D01*
X176578024Y-79752769D01*
X176451892Y-79777858D01*
X176451886Y-79777860D01*
X176333068Y-79827076D01*
X176226128Y-79898530D01*
X176226127Y-79898531D01*
X174981463Y-81143194D01*
X174981457Y-81143201D01*
X174930904Y-81218860D01*
X174930905Y-81218861D01*
X174910007Y-81250137D01*
X174860791Y-81368955D01*
X174860789Y-81368961D01*
X174835700Y-81495092D01*
X174835700Y-90031019D01*
X174816015Y-90098058D01*
X174763211Y-90143813D01*
X174694053Y-90153757D01*
X174642811Y-90134123D01*
X174623181Y-90121007D01*
X174623172Y-90121002D01*
X174477501Y-90060664D01*
X174477489Y-90060661D01*
X174322845Y-90029900D01*
X174322842Y-90029900D01*
X174165158Y-90029900D01*
X174165155Y-90029900D01*
X174010510Y-90060661D01*
X174010498Y-90060664D01*
X173864827Y-90121002D01*
X173864816Y-90121008D01*
X173794391Y-90168065D01*
X173727714Y-90188942D01*
X173660334Y-90170457D01*
X173613644Y-90118478D01*
X173601501Y-90064962D01*
X173601501Y-89115093D01*
X173576411Y-88988962D01*
X173576410Y-88988961D01*
X173576410Y-88988957D01*
X173527193Y-88870137D01*
X173520633Y-88860319D01*
X173520632Y-88860317D01*
X173520632Y-88860316D01*
X173455745Y-88763206D01*
X173455739Y-88763198D01*
X172856805Y-88164263D01*
X172856804Y-88164262D01*
X172856800Y-88164259D01*
X172749864Y-88092808D01*
X172631044Y-88043591D01*
X172631038Y-88043589D01*
X172504907Y-88018500D01*
X172504905Y-88018500D01*
X170806602Y-88018500D01*
X170739563Y-87998815D01*
X170718921Y-87982181D01*
X169650019Y-86913278D01*
X169616534Y-86851955D01*
X169613700Y-86825597D01*
X169613700Y-80020415D01*
X169633385Y-79953376D01*
X169686189Y-79907621D01*
X169755347Y-79897677D01*
X169818903Y-79926702D01*
X169834969Y-79943507D01*
X169838299Y-79947718D01*
X169838303Y-79947725D01*
X169962359Y-80071781D01*
X170111681Y-80163883D01*
X170278218Y-80219068D01*
X170381006Y-80229569D01*
X171381023Y-80229568D01*
X171381031Y-80229567D01*
X171381034Y-80229567D01*
X171437317Y-80223817D01*
X171483812Y-80219068D01*
X171650349Y-80163883D01*
X171799671Y-80071781D01*
X171923727Y-79947725D01*
X172015829Y-79798403D01*
X172071014Y-79631866D01*
X172081515Y-79529078D01*
X172081514Y-78729061D01*
X172081506Y-78728986D01*
X172071014Y-78626272D01*
X172071013Y-78626269D01*
X172058195Y-78587588D01*
X172015829Y-78459735D01*
X171923727Y-78310413D01*
X171830064Y-78216750D01*
X171796579Y-78155427D01*
X171801563Y-78085735D01*
X171830064Y-78041388D01*
X171871970Y-77999482D01*
X171923727Y-77947725D01*
X172015829Y-77798403D01*
X172032078Y-77749365D01*
X172045948Y-77729333D01*
X172056071Y-77707167D01*
X172065483Y-77701118D01*
X172071851Y-77691921D01*
X172094349Y-77682567D01*
X172114849Y-77669393D01*
X172131950Y-77666934D01*
X172136367Y-77665098D01*
X172149784Y-77664370D01*
X172339318Y-77664370D01*
X172406357Y-77684055D01*
X172452112Y-77736859D01*
X172462056Y-77806017D01*
X172446051Y-77851490D01*
X172434468Y-77871075D01*
X172434468Y-77871076D01*
X172388616Y-78028896D01*
X172388615Y-78028902D01*
X172385714Y-78065768D01*
X172385714Y-78497171D01*
X172388615Y-78534037D01*
X172388616Y-78534043D01*
X172434468Y-78691863D01*
X172434469Y-78691866D01*
X172434470Y-78691868D01*
X172456459Y-78729049D01*
X172518131Y-78833332D01*
X172518137Y-78833340D01*
X172634343Y-78949546D01*
X172634347Y-78949549D01*
X172634349Y-78949551D01*
X172775816Y-79033214D01*
X172817438Y-79045306D01*
X172933640Y-79079067D01*
X172933643Y-79079067D01*
X172933645Y-79079068D01*
X172970520Y-79081970D01*
X172970528Y-79081970D01*
X175801900Y-79081970D01*
X175801908Y-79081970D01*
X175838783Y-79079068D01*
X175838785Y-79079067D01*
X175838787Y-79079067D01*
X175880405Y-79066975D01*
X175996612Y-79033214D01*
X176138079Y-78949551D01*
X176254295Y-78833335D01*
X176337958Y-78691868D01*
X176378021Y-78553973D01*
X176383811Y-78534043D01*
X176383812Y-78534037D01*
X176386713Y-78497171D01*
X176386714Y-78497164D01*
X176386714Y-78065776D01*
X176383812Y-78028901D01*
X176378808Y-78011679D01*
X176337959Y-77871076D01*
X176337958Y-77871073D01*
X176337958Y-77871072D01*
X176254295Y-77729605D01*
X176254292Y-77729602D01*
X176249512Y-77723439D01*
X176251964Y-77721536D01*
X176225369Y-77672891D01*
X176230318Y-77603196D01*
X176251154Y-77570774D01*
X176249512Y-77569501D01*
X176254289Y-77563340D01*
X176254295Y-77563335D01*
X176337958Y-77421868D01*
X176383812Y-77264039D01*
X176386714Y-77227164D01*
X176386714Y-76795776D01*
X176383812Y-76758901D01*
X176383396Y-76757470D01*
X176346609Y-76630848D01*
X176337958Y-76601072D01*
X176254295Y-76459605D01*
X176254292Y-76459602D01*
X176249512Y-76453439D01*
X176251964Y-76451536D01*
X176225369Y-76402891D01*
X176230318Y-76333196D01*
X176251154Y-76300774D01*
X176249512Y-76299501D01*
X176254289Y-76293340D01*
X176254295Y-76293335D01*
X176337958Y-76151868D01*
X176381733Y-76001195D01*
X176383811Y-75994043D01*
X176383812Y-75994037D01*
X176384338Y-75987354D01*
X176386714Y-75957164D01*
X176386714Y-75525776D01*
X176383812Y-75488901D01*
X176351634Y-75378144D01*
X176351833Y-75308276D01*
X176389775Y-75249606D01*
X176453413Y-75220762D01*
X176522543Y-75230903D01*
G37*
%TD.AperFunction*%
%TA.AperFunction,Conductor*%
G36*
X184556607Y-77705344D02*
G01*
X184566733Y-77704080D01*
X184589566Y-77715022D01*
X184613856Y-77722155D01*
X184622213Y-77730668D01*
X184629741Y-77734276D01*
X184652355Y-77761372D01*
X184720020Y-77871075D01*
X184722705Y-77875427D01*
X184816367Y-77969089D01*
X184849852Y-78030412D01*
X184844868Y-78100104D01*
X184816367Y-78144451D01*
X184722705Y-78238112D01*
X184630603Y-78387433D01*
X184630602Y-78387436D01*
X184575417Y-78553973D01*
X184575417Y-78553974D01*
X184575416Y-78553974D01*
X184564916Y-78656753D01*
X184564916Y-79456771D01*
X184564917Y-79456789D01*
X184575416Y-79559566D01*
X184575417Y-79559569D01*
X184630601Y-79726101D01*
X184630603Y-79726106D01*
X184636912Y-79736335D01*
X184722704Y-79875426D01*
X184846760Y-79999482D01*
X184952013Y-80064402D01*
X184998737Y-80116348D01*
X185010916Y-80169940D01*
X185010916Y-80850097D01*
X184991231Y-80917136D01*
X184974597Y-80937778D01*
X184254794Y-81657581D01*
X184193471Y-81691066D01*
X184167113Y-81693900D01*
X181583862Y-81693900D01*
X181516823Y-81674215D01*
X181489813Y-81650713D01*
X181483448Y-81643306D01*
X181448727Y-81587013D01*
X181351748Y-81490034D01*
X181348696Y-81486482D01*
X181336166Y-81458741D01*
X181321579Y-81432027D01*
X181321923Y-81427208D01*
X181319935Y-81422806D01*
X181324391Y-81392700D01*
X181326563Y-81362335D01*
X181329581Y-81357638D01*
X181330166Y-81353690D01*
X181337550Y-81345239D01*
X181355064Y-81317988D01*
X181384756Y-81288296D01*
X181448727Y-81224325D01*
X181540829Y-81075003D01*
X181596014Y-80908466D01*
X181606515Y-80805678D01*
X181606514Y-80005661D01*
X181596014Y-79902872D01*
X181540829Y-79736335D01*
X181448727Y-79587013D01*
X181324671Y-79462957D01*
X181175349Y-79370855D01*
X181124108Y-79353875D01*
X181104075Y-79340005D01*
X181081911Y-79329883D01*
X181075862Y-79320471D01*
X181066665Y-79314103D01*
X181057311Y-79291604D01*
X181044137Y-79271105D01*
X181041678Y-79254003D01*
X181039842Y-79249587D01*
X181039114Y-79236170D01*
X181039114Y-79205970D01*
X181058799Y-79138931D01*
X181111603Y-79093176D01*
X181163114Y-79081970D01*
X181801900Y-79081970D01*
X181801908Y-79081970D01*
X181838783Y-79079068D01*
X181838785Y-79079067D01*
X181838787Y-79079067D01*
X181880405Y-79066975D01*
X181996612Y-79033214D01*
X182138079Y-78949551D01*
X182254295Y-78833335D01*
X182337958Y-78691868D01*
X182378021Y-78553973D01*
X182383811Y-78534043D01*
X182383812Y-78534037D01*
X182386713Y-78497171D01*
X182386714Y-78497164D01*
X182386714Y-78065776D01*
X182383812Y-78028901D01*
X182379319Y-78013436D01*
X182335782Y-77863580D01*
X182338375Y-77862826D01*
X182331412Y-77806359D01*
X182361708Y-77743400D01*
X182421234Y-77706815D01*
X182453770Y-77702470D01*
X184546817Y-77702470D01*
X184556607Y-77705344D01*
G37*
%TD.AperFunction*%
%TA.AperFunction,Conductor*%
G36*
X196190939Y-56240992D02*
G01*
X196236694Y-56293796D01*
X196247900Y-56345307D01*
X196247900Y-114970900D01*
X196228215Y-115037939D01*
X196175411Y-115083694D01*
X196123900Y-115094900D01*
X130484379Y-115094900D01*
X130417340Y-115075215D01*
X130371585Y-115022411D01*
X130360379Y-114970900D01*
X130360379Y-110507992D01*
X132539388Y-110507992D01*
X132539388Y-110777619D01*
X132569574Y-111045525D01*
X132569575Y-111045534D01*
X132569576Y-111045538D01*
X132579566Y-111089305D01*
X132629572Y-111308400D01*
X132629575Y-111308408D01*
X132718622Y-111562888D01*
X132835602Y-111805800D01*
X132835604Y-111805803D01*
X132979050Y-112034095D01*
X133049242Y-112122113D01*
X133141910Y-112238316D01*
X133147154Y-112244891D01*
X133337803Y-112435540D01*
X133548599Y-112603644D01*
X133776891Y-112747090D01*
X134019809Y-112864073D01*
X134210937Y-112930951D01*
X134274285Y-112953118D01*
X134274293Y-112953121D01*
X134274296Y-112953121D01*
X134274297Y-112953122D01*
X134537156Y-113013118D01*
X134805075Y-113043305D01*
X134805076Y-113043306D01*
X134805079Y-113043306D01*
X135074700Y-113043306D01*
X135074700Y-113043305D01*
X135342620Y-113013118D01*
X135605479Y-112953122D01*
X135859967Y-112864073D01*
X136102885Y-112747090D01*
X136269846Y-112642181D01*
X145568100Y-112642181D01*
X145568100Y-112816618D01*
X145602127Y-112987683D01*
X145602129Y-112987691D01*
X145668878Y-113148839D01*
X145668883Y-113148848D01*
X145765786Y-113293873D01*
X145765789Y-113293877D01*
X145889122Y-113417210D01*
X145889126Y-113417213D01*
X146034151Y-113514116D01*
X146034157Y-113514119D01*
X146034158Y-113514120D01*
X146195309Y-113580871D01*
X146366381Y-113614899D01*
X146366385Y-113614900D01*
X146366386Y-113614900D01*
X146540815Y-113614900D01*
X146540816Y-113614899D01*
X146711891Y-113580871D01*
X146873042Y-113514120D01*
X147018074Y-113417213D01*
X147141413Y-113293874D01*
X147238320Y-113148842D01*
X147305071Y-112987691D01*
X147339100Y-112816614D01*
X147339100Y-112642186D01*
X147339099Y-112642181D01*
X154568100Y-112642181D01*
X154568100Y-112816618D01*
X154602127Y-112987683D01*
X154602129Y-112987691D01*
X154668878Y-113148839D01*
X154668883Y-113148848D01*
X154765786Y-113293873D01*
X154765789Y-113293877D01*
X154889122Y-113417210D01*
X154889126Y-113417213D01*
X155034151Y-113514116D01*
X155034157Y-113514119D01*
X155034158Y-113514120D01*
X155195309Y-113580871D01*
X155366381Y-113614899D01*
X155366385Y-113614900D01*
X155366386Y-113614900D01*
X155540815Y-113614900D01*
X155540816Y-113614899D01*
X155711891Y-113580871D01*
X155873042Y-113514120D01*
X156018074Y-113417213D01*
X156141413Y-113293874D01*
X156238320Y-113148842D01*
X156305071Y-112987691D01*
X156339100Y-112816614D01*
X156339100Y-112642186D01*
X156305071Y-112471109D01*
X156279502Y-112409381D01*
X163858900Y-112409381D01*
X163858900Y-112583818D01*
X163892927Y-112754883D01*
X163892929Y-112754891D01*
X163959678Y-112916039D01*
X163959683Y-112916048D01*
X164056586Y-113061073D01*
X164056589Y-113061077D01*
X164179922Y-113184410D01*
X164179926Y-113184413D01*
X164324951Y-113281316D01*
X164324957Y-113281319D01*
X164324958Y-113281320D01*
X164486109Y-113348071D01*
X164657181Y-113382099D01*
X164657185Y-113382100D01*
X164657186Y-113382100D01*
X164831615Y-113382100D01*
X164831616Y-113382099D01*
X165002691Y-113348071D01*
X165163842Y-113281320D01*
X165308874Y-113184413D01*
X165432213Y-113061074D01*
X165529120Y-112916042D01*
X165595871Y-112754891D01*
X165629900Y-112583814D01*
X165629900Y-112409386D01*
X165629899Y-112409381D01*
X172858900Y-112409381D01*
X172858900Y-112583818D01*
X172892927Y-112754883D01*
X172892929Y-112754891D01*
X172959678Y-112916039D01*
X172959683Y-112916048D01*
X173056586Y-113061073D01*
X173056589Y-113061077D01*
X173179922Y-113184410D01*
X173179926Y-113184413D01*
X173324951Y-113281316D01*
X173324957Y-113281319D01*
X173324958Y-113281320D01*
X173486109Y-113348071D01*
X173657181Y-113382099D01*
X173657185Y-113382100D01*
X173657186Y-113382100D01*
X173831615Y-113382100D01*
X173831616Y-113382099D01*
X174002691Y-113348071D01*
X174163842Y-113281320D01*
X174308874Y-113184413D01*
X174432213Y-113061074D01*
X174529120Y-112916042D01*
X174595871Y-112754891D01*
X174629900Y-112583814D01*
X174629900Y-112409386D01*
X174629857Y-112409173D01*
X174625942Y-112389485D01*
X174622341Y-112371381D01*
X176021300Y-112371381D01*
X176021300Y-112545818D01*
X176055327Y-112716883D01*
X176055329Y-112716891D01*
X176122078Y-112878039D01*
X176122083Y-112878048D01*
X176218986Y-113023073D01*
X176218989Y-113023077D01*
X176342322Y-113146410D01*
X176342326Y-113146413D01*
X176487351Y-113243316D01*
X176487357Y-113243319D01*
X176487358Y-113243320D01*
X176648509Y-113310071D01*
X176819581Y-113344099D01*
X176819585Y-113344100D01*
X176819586Y-113344100D01*
X176994015Y-113344100D01*
X176994016Y-113344099D01*
X177165091Y-113310071D01*
X177326242Y-113243320D01*
X177471274Y-113146413D01*
X177594613Y-113023074D01*
X177691520Y-112878042D01*
X177758271Y-112716891D01*
X177792300Y-112545814D01*
X177792300Y-112371386D01*
X177792299Y-112371381D01*
X185021300Y-112371381D01*
X185021300Y-112545818D01*
X185055327Y-112716883D01*
X185055329Y-112716891D01*
X185122078Y-112878039D01*
X185122083Y-112878048D01*
X185218986Y-113023073D01*
X185218989Y-113023077D01*
X185342322Y-113146410D01*
X185342326Y-113146413D01*
X185487351Y-113243316D01*
X185487357Y-113243319D01*
X185487358Y-113243320D01*
X185648509Y-113310071D01*
X185819581Y-113344099D01*
X185819585Y-113344100D01*
X185819586Y-113344100D01*
X185994015Y-113344100D01*
X185994016Y-113344099D01*
X186165091Y-113310071D01*
X186326242Y-113243320D01*
X186471274Y-113146413D01*
X186594613Y-113023074D01*
X186691520Y-112878042D01*
X186758271Y-112716891D01*
X186792300Y-112545814D01*
X186792300Y-112371386D01*
X186758271Y-112200309D01*
X186691520Y-112039158D01*
X186691519Y-112039157D01*
X186691516Y-112039151D01*
X186594613Y-111894126D01*
X186594610Y-111894122D01*
X186471277Y-111770789D01*
X186471273Y-111770786D01*
X186326248Y-111673883D01*
X186326239Y-111673878D01*
X186165091Y-111607129D01*
X186165083Y-111607127D01*
X185994018Y-111573100D01*
X185994014Y-111573100D01*
X185819586Y-111573100D01*
X185819581Y-111573100D01*
X185648516Y-111607127D01*
X185648508Y-111607129D01*
X185487360Y-111673878D01*
X185487351Y-111673883D01*
X185342326Y-111770786D01*
X185342322Y-111770789D01*
X185218989Y-111894122D01*
X185218986Y-111894126D01*
X185122083Y-112039151D01*
X185122078Y-112039160D01*
X185055329Y-112200308D01*
X185055327Y-112200316D01*
X185021300Y-112371381D01*
X177792299Y-112371381D01*
X177758271Y-112200309D01*
X177691520Y-112039158D01*
X177691519Y-112039157D01*
X177691516Y-112039151D01*
X177594613Y-111894126D01*
X177594610Y-111894122D01*
X177471277Y-111770789D01*
X177471273Y-111770786D01*
X177326248Y-111673883D01*
X177326239Y-111673878D01*
X177165091Y-111607129D01*
X177165083Y-111607127D01*
X176994018Y-111573100D01*
X176994014Y-111573100D01*
X176819586Y-111573100D01*
X176819581Y-111573100D01*
X176648516Y-111607127D01*
X176648508Y-111607129D01*
X176487360Y-111673878D01*
X176487351Y-111673883D01*
X176342326Y-111770786D01*
X176342322Y-111770789D01*
X176218989Y-111894122D01*
X176218986Y-111894126D01*
X176122083Y-112039151D01*
X176122078Y-112039160D01*
X176055329Y-112200308D01*
X176055327Y-112200316D01*
X176021300Y-112371381D01*
X174622341Y-112371381D01*
X174604144Y-112279899D01*
X174595871Y-112238309D01*
X174529120Y-112077158D01*
X174529119Y-112077157D01*
X174529116Y-112077151D01*
X174432213Y-111932126D01*
X174432210Y-111932122D01*
X174308877Y-111808789D01*
X174308873Y-111808786D01*
X174163848Y-111711883D01*
X174163839Y-111711878D01*
X174002691Y-111645129D01*
X174002683Y-111645127D01*
X173831618Y-111611100D01*
X173831614Y-111611100D01*
X173657186Y-111611100D01*
X173657181Y-111611100D01*
X173486116Y-111645127D01*
X173486108Y-111645129D01*
X173324960Y-111711878D01*
X173324951Y-111711883D01*
X173179926Y-111808786D01*
X173179922Y-111808789D01*
X173056589Y-111932122D01*
X173056586Y-111932126D01*
X172959683Y-112077151D01*
X172959678Y-112077160D01*
X172892929Y-112238308D01*
X172892927Y-112238316D01*
X172858900Y-112409381D01*
X165629899Y-112409381D01*
X165595871Y-112238309D01*
X165529120Y-112077158D01*
X165529119Y-112077157D01*
X165529116Y-112077151D01*
X165432213Y-111932126D01*
X165432210Y-111932122D01*
X165308877Y-111808789D01*
X165308873Y-111808786D01*
X165163848Y-111711883D01*
X165163839Y-111711878D01*
X165002691Y-111645129D01*
X165002683Y-111645127D01*
X164831618Y-111611100D01*
X164831614Y-111611100D01*
X164657186Y-111611100D01*
X164657181Y-111611100D01*
X164486116Y-111645127D01*
X164486108Y-111645129D01*
X164324960Y-111711878D01*
X164324951Y-111711883D01*
X164179926Y-111808786D01*
X164179922Y-111808789D01*
X164056589Y-111932122D01*
X164056586Y-111932126D01*
X163959683Y-112077151D01*
X163959678Y-112077160D01*
X163892929Y-112238308D01*
X163892927Y-112238316D01*
X163858900Y-112409381D01*
X156279502Y-112409381D01*
X156238320Y-112309958D01*
X156238318Y-112309955D01*
X156238316Y-112309951D01*
X156141413Y-112164926D01*
X156141410Y-112164922D01*
X156018077Y-112041589D01*
X156018073Y-112041586D01*
X155873048Y-111944683D01*
X155873039Y-111944678D01*
X155711891Y-111877929D01*
X155711883Y-111877927D01*
X155540818Y-111843900D01*
X155540814Y-111843900D01*
X155366386Y-111843900D01*
X155366381Y-111843900D01*
X155195316Y-111877927D01*
X155195308Y-111877929D01*
X155034160Y-111944678D01*
X155034151Y-111944683D01*
X154889126Y-112041586D01*
X154889122Y-112041589D01*
X154765789Y-112164922D01*
X154765786Y-112164926D01*
X154668883Y-112309951D01*
X154668878Y-112309960D01*
X154602129Y-112471108D01*
X154602127Y-112471116D01*
X154568100Y-112642181D01*
X147339099Y-112642181D01*
X147305071Y-112471109D01*
X147238320Y-112309958D01*
X147238319Y-112309957D01*
X147238316Y-112309951D01*
X147141413Y-112164926D01*
X147141410Y-112164922D01*
X147018077Y-112041589D01*
X147018073Y-112041586D01*
X146873048Y-111944683D01*
X146873039Y-111944678D01*
X146711891Y-111877929D01*
X146711883Y-111877927D01*
X146540818Y-111843900D01*
X146540814Y-111843900D01*
X146366386Y-111843900D01*
X146366381Y-111843900D01*
X146195316Y-111877927D01*
X146195308Y-111877929D01*
X146034160Y-111944678D01*
X146034151Y-111944683D01*
X145889126Y-112041586D01*
X145889122Y-112041589D01*
X145765789Y-112164922D01*
X145765786Y-112164926D01*
X145668883Y-112309951D01*
X145668878Y-112309960D01*
X145602129Y-112471108D01*
X145602127Y-112471116D01*
X145568100Y-112642181D01*
X136269846Y-112642181D01*
X136331177Y-112603644D01*
X136403689Y-112545818D01*
X136412049Y-112539151D01*
X136412054Y-112539147D01*
X136435799Y-112520210D01*
X136541973Y-112435540D01*
X136732622Y-112244891D01*
X136900726Y-112034095D01*
X137044172Y-111805803D01*
X137161155Y-111562885D01*
X137250204Y-111308397D01*
X137310200Y-111045538D01*
X137340388Y-110777615D01*
X137340388Y-110507997D01*
X137331764Y-110431457D01*
X137330473Y-110419995D01*
X137329457Y-110410977D01*
X148203100Y-110410977D01*
X148203100Y-111127822D01*
X148233890Y-111322226D01*
X148294717Y-111509429D01*
X148348985Y-111615935D01*
X148384076Y-111684805D01*
X148499772Y-111844046D01*
X148638954Y-111983228D01*
X148798195Y-112098924D01*
X148881055Y-112141143D01*
X148973570Y-112188282D01*
X148973572Y-112188282D01*
X148973575Y-112188284D01*
X149053373Y-112214212D01*
X149160773Y-112249109D01*
X149355178Y-112279900D01*
X149355183Y-112279900D01*
X149552022Y-112279900D01*
X149746426Y-112249109D01*
X149933625Y-112188284D01*
X150109005Y-112098924D01*
X150268246Y-111983228D01*
X150407428Y-111844046D01*
X150523124Y-111684805D01*
X150612484Y-111509425D01*
X150673309Y-111322226D01*
X150675499Y-111308397D01*
X150704100Y-111127822D01*
X150704100Y-110410977D01*
X150673309Y-110216573D01*
X150632344Y-110090498D01*
X150612484Y-110029375D01*
X150612481Y-110029371D01*
X150612481Y-110029368D01*
X150603902Y-110012531D01*
X150603901Y-110012530D01*
X150584684Y-109974815D01*
X150576822Y-109959384D01*
X151203100Y-109959384D01*
X151203100Y-111579415D01*
X151213600Y-111682195D01*
X151213601Y-111682197D01*
X151228532Y-111727255D01*
X151268786Y-111848735D01*
X151268787Y-111848737D01*
X151360886Y-111998051D01*
X151360889Y-111998055D01*
X151484944Y-112122110D01*
X151484948Y-112122113D01*
X151634262Y-112214212D01*
X151634264Y-112214213D01*
X151634266Y-112214214D01*
X151800803Y-112269399D01*
X151903592Y-112279900D01*
X151903597Y-112279900D01*
X153003603Y-112279900D01*
X153003608Y-112279900D01*
X153106397Y-112269399D01*
X153272934Y-112214214D01*
X153422255Y-112122111D01*
X153546311Y-111998055D01*
X153638414Y-111848734D01*
X153693599Y-111682197D01*
X153704100Y-111579408D01*
X153704100Y-110178217D01*
X166494400Y-110178217D01*
X166494400Y-110286600D01*
X167299840Y-110286600D01*
X167269155Y-110339747D01*
X167234400Y-110469457D01*
X167234400Y-110603743D01*
X167269155Y-110733453D01*
X167299840Y-110786600D01*
X166494400Y-110786600D01*
X166494400Y-110894982D01*
X166525178Y-111089305D01*
X166585981Y-111276435D01*
X166675304Y-111451743D01*
X166790955Y-111610921D01*
X166930078Y-111750044D01*
X167089256Y-111865695D01*
X167264562Y-111955018D01*
X167451683Y-112015818D01*
X167494400Y-112022584D01*
X167494400Y-110981160D01*
X167547547Y-111011845D01*
X167677257Y-111046600D01*
X167811543Y-111046600D01*
X167941253Y-111011845D01*
X167994400Y-110981160D01*
X167994400Y-112022583D01*
X168037116Y-112015818D01*
X168224237Y-111955018D01*
X168399543Y-111865695D01*
X168558721Y-111750044D01*
X168697844Y-111610921D01*
X168813495Y-111451743D01*
X168902818Y-111276435D01*
X168963621Y-111089305D01*
X168994400Y-110894982D01*
X168994400Y-110786600D01*
X168188960Y-110786600D01*
X168219645Y-110733453D01*
X168254400Y-110603743D01*
X168254400Y-110469457D01*
X168219645Y-110339747D01*
X168188960Y-110286600D01*
X168994400Y-110286600D01*
X168994400Y-110178217D01*
X168963621Y-109983894D01*
X168902818Y-109796764D01*
X168813495Y-109621456D01*
X168697844Y-109462278D01*
X168558721Y-109323155D01*
X168399543Y-109207504D01*
X168224235Y-109118181D01*
X168037105Y-109057378D01*
X167994400Y-109050614D01*
X167994400Y-110092039D01*
X167941253Y-110061355D01*
X167811543Y-110026600D01*
X167677257Y-110026600D01*
X167547547Y-110061355D01*
X167494400Y-110092039D01*
X167494400Y-109050614D01*
X167494399Y-109050614D01*
X167451694Y-109057378D01*
X167264564Y-109118181D01*
X167089256Y-109207504D01*
X166930078Y-109323155D01*
X166790955Y-109462278D01*
X166675304Y-109621456D01*
X166585981Y-109796764D01*
X166525178Y-109983894D01*
X166494400Y-110178217D01*
X153704100Y-110178217D01*
X153704100Y-109959392D01*
X153693599Y-109856603D01*
X153638414Y-109690066D01*
X153597542Y-109623803D01*
X153546313Y-109540748D01*
X153546310Y-109540744D01*
X153422255Y-109416689D01*
X153422251Y-109416686D01*
X153272937Y-109324587D01*
X153272935Y-109324586D01*
X153153939Y-109285155D01*
X153106397Y-109269401D01*
X153106395Y-109269400D01*
X153003615Y-109258900D01*
X153003608Y-109258900D01*
X151903592Y-109258900D01*
X151903584Y-109258900D01*
X151800804Y-109269400D01*
X151800803Y-109269401D01*
X151634264Y-109324586D01*
X151634262Y-109324587D01*
X151484948Y-109416686D01*
X151484944Y-109416689D01*
X151360889Y-109540744D01*
X151360886Y-109540748D01*
X151268787Y-109690062D01*
X151268786Y-109690064D01*
X151213601Y-109856603D01*
X151213600Y-109856604D01*
X151203100Y-109959384D01*
X150576822Y-109959384D01*
X150523124Y-109853995D01*
X150407428Y-109694754D01*
X150268246Y-109555572D01*
X150109005Y-109439876D01*
X150078392Y-109424278D01*
X149933629Y-109350517D01*
X149746426Y-109289690D01*
X149552022Y-109258900D01*
X149552017Y-109258900D01*
X149355183Y-109258900D01*
X149355178Y-109258900D01*
X149160773Y-109289690D01*
X148973570Y-109350517D01*
X148798194Y-109439876D01*
X148767361Y-109462278D01*
X148638954Y-109555572D01*
X148638952Y-109555574D01*
X148638951Y-109555574D01*
X148499774Y-109694751D01*
X148499774Y-109694752D01*
X148499772Y-109694754D01*
X148476637Y-109726597D01*
X148384076Y-109853994D01*
X148294717Y-110029370D01*
X148233890Y-110216573D01*
X148203100Y-110410977D01*
X137329457Y-110410977D01*
X137313062Y-110265474D01*
X137310200Y-110240074D01*
X137250204Y-109977215D01*
X137243967Y-109959392D01*
X137208000Y-109856603D01*
X137161155Y-109722727D01*
X137044172Y-109479809D01*
X136900726Y-109251517D01*
X136732622Y-109040721D01*
X136541973Y-108850072D01*
X136331177Y-108681968D01*
X136102885Y-108538522D01*
X136102882Y-108538520D01*
X135859970Y-108421540D01*
X135605490Y-108332493D01*
X135605482Y-108332490D01*
X135408334Y-108287493D01*
X135342620Y-108272494D01*
X135342616Y-108272493D01*
X135342607Y-108272492D01*
X135074701Y-108242306D01*
X135074697Y-108242306D01*
X134805079Y-108242306D01*
X134805074Y-108242306D01*
X134537168Y-108272492D01*
X134537156Y-108272494D01*
X134274293Y-108332490D01*
X134274285Y-108332493D01*
X134019805Y-108421540D01*
X133776893Y-108538520D01*
X133548600Y-108681967D01*
X133337803Y-108850071D01*
X133147153Y-109040721D01*
X132979049Y-109251518D01*
X132835602Y-109479811D01*
X132718622Y-109722723D01*
X132629575Y-109977203D01*
X132629572Y-109977211D01*
X132569576Y-110240074D01*
X132569574Y-110240086D01*
X132539388Y-110507992D01*
X130360379Y-110507992D01*
X130360379Y-91747498D01*
X131024399Y-91747498D01*
X131024399Y-92178901D01*
X131027300Y-92215767D01*
X131027301Y-92215773D01*
X131073153Y-92373593D01*
X131073154Y-92373596D01*
X131156816Y-92515062D01*
X131156822Y-92515070D01*
X131273028Y-92631276D01*
X131273032Y-92631279D01*
X131273034Y-92631281D01*
X131414501Y-92714944D01*
X131444247Y-92723586D01*
X131572325Y-92760797D01*
X131572328Y-92760797D01*
X131572330Y-92760798D01*
X131609205Y-92763700D01*
X131811697Y-92763700D01*
X131878736Y-92783385D01*
X131924491Y-92836189D01*
X131934435Y-92905347D01*
X131905410Y-92968903D01*
X131899378Y-92975381D01*
X131718163Y-93156594D01*
X131718163Y-93156595D01*
X131718160Y-93156598D01*
X131718159Y-93156600D01*
X131662291Y-93240215D01*
X131646706Y-93263539D01*
X131597491Y-93382355D01*
X131597489Y-93382361D01*
X131572400Y-93508492D01*
X131572400Y-94305042D01*
X131552715Y-94372081D01*
X131513497Y-94410581D01*
X131406642Y-94476489D01*
X131282589Y-94600542D01*
X131190487Y-94749863D01*
X131190485Y-94749868D01*
X131187320Y-94759419D01*
X131135301Y-94916403D01*
X131135301Y-94916404D01*
X131135300Y-94916404D01*
X131124800Y-95019183D01*
X131124800Y-96019201D01*
X131124801Y-96019219D01*
X131135300Y-96121996D01*
X131135301Y-96121999D01*
X131190485Y-96288531D01*
X131190487Y-96288536D01*
X131222162Y-96339890D01*
X131282588Y-96437856D01*
X131406644Y-96561912D01*
X131513496Y-96627819D01*
X131560221Y-96679766D01*
X131572400Y-96733357D01*
X131572400Y-97226042D01*
X131552715Y-97293081D01*
X131513497Y-97331581D01*
X131406642Y-97397489D01*
X131282589Y-97521542D01*
X131190487Y-97670863D01*
X131190485Y-97670868D01*
X131184072Y-97690221D01*
X131135301Y-97837403D01*
X131135301Y-97837404D01*
X131135300Y-97837404D01*
X131124800Y-97940183D01*
X131124800Y-98940201D01*
X131124801Y-98940219D01*
X131135300Y-99042996D01*
X131135301Y-99042999D01*
X131190485Y-99209531D01*
X131190487Y-99209536D01*
X131220355Y-99257960D01*
X131282588Y-99358856D01*
X131406644Y-99482912D01*
X131555966Y-99575014D01*
X131722503Y-99630199D01*
X131825291Y-99640700D01*
X132625308Y-99640699D01*
X132625316Y-99640698D01*
X132625319Y-99640698D01*
X132681602Y-99634948D01*
X132728097Y-99630199D01*
X132894634Y-99575014D01*
X133043956Y-99482912D01*
X133137619Y-99389249D01*
X133198942Y-99355764D01*
X133268634Y-99360748D01*
X133312981Y-99389249D01*
X133406644Y-99482912D01*
X133555966Y-99575014D01*
X133555967Y-99575014D01*
X133562113Y-99578805D01*
X133561006Y-99580599D01*
X133605637Y-99619887D01*
X133624800Y-99686108D01*
X133624800Y-100280430D01*
X133624799Y-100280448D01*
X133624799Y-100446154D01*
X133624798Y-100446154D01*
X133665723Y-100598886D01*
X133665724Y-100598887D01*
X133681174Y-100625647D01*
X133739870Y-100727312D01*
X133744781Y-100735817D01*
X133863649Y-100854685D01*
X133863654Y-100854689D01*
X137985084Y-104976120D01*
X137985086Y-104976121D01*
X137985090Y-104976124D01*
X138122009Y-105055173D01*
X138122012Y-105055175D01*
X138122016Y-105055177D01*
X138274743Y-105096101D01*
X138274745Y-105096101D01*
X138440454Y-105096101D01*
X138440470Y-105096100D01*
X171675743Y-105096100D01*
X181370931Y-105096100D01*
X181370947Y-105096101D01*
X181378543Y-105096101D01*
X181536654Y-105096101D01*
X181536657Y-105096101D01*
X181689385Y-105055177D01*
X181775114Y-105005681D01*
X181826316Y-104976120D01*
X181938120Y-104864316D01*
X181938120Y-104864314D01*
X181948324Y-104854111D01*
X181948328Y-104854106D01*
X183185419Y-103617015D01*
X183246742Y-103583530D01*
X183316434Y-103588514D01*
X183372367Y-103630386D01*
X183396784Y-103695850D01*
X183397100Y-103704696D01*
X183397100Y-104093903D01*
X183377415Y-104160942D01*
X183360781Y-104181584D01*
X181372184Y-106170181D01*
X181310861Y-106203666D01*
X181284503Y-106206500D01*
X172400269Y-106206500D01*
X172400253Y-106206499D01*
X172392657Y-106206499D01*
X172234543Y-106206499D01*
X172127187Y-106235265D01*
X172081810Y-106247424D01*
X172081809Y-106247425D01*
X172031696Y-106276359D01*
X172031695Y-106276360D01*
X171988289Y-106301420D01*
X171944885Y-106326479D01*
X171944882Y-106326481D01*
X170263881Y-108007482D01*
X170263879Y-108007485D01*
X170213761Y-108094294D01*
X170213759Y-108094296D01*
X170184825Y-108144409D01*
X170184824Y-108144410D01*
X170184823Y-108144415D01*
X170143899Y-108297143D01*
X170143899Y-108297145D01*
X170143899Y-108465246D01*
X170143900Y-108465259D01*
X170143900Y-108929730D01*
X170124215Y-108996769D01*
X170071411Y-109042524D01*
X170058904Y-109047436D01*
X169925065Y-109091786D01*
X169925062Y-109091787D01*
X169775748Y-109183886D01*
X169775744Y-109183889D01*
X169651689Y-109307944D01*
X169651686Y-109307948D01*
X169559587Y-109457262D01*
X169559586Y-109457264D01*
X169504401Y-109623803D01*
X169504400Y-109623804D01*
X169493900Y-109726584D01*
X169493900Y-111346615D01*
X169504400Y-111449395D01*
X169504401Y-111449397D01*
X169524292Y-111509425D01*
X169559586Y-111615935D01*
X169559587Y-111615937D01*
X169651686Y-111765251D01*
X169651689Y-111765255D01*
X169775744Y-111889310D01*
X169775748Y-111889313D01*
X169925062Y-111981412D01*
X169925064Y-111981413D01*
X169925066Y-111981414D01*
X170091603Y-112036599D01*
X170194392Y-112047100D01*
X170194397Y-112047100D01*
X171294403Y-112047100D01*
X171294408Y-112047100D01*
X171397197Y-112036599D01*
X171563734Y-111981414D01*
X171713055Y-111889311D01*
X171837111Y-111765255D01*
X171929214Y-111615934D01*
X171984399Y-111449397D01*
X171994900Y-111346608D01*
X171994900Y-110140217D01*
X178656800Y-110140217D01*
X178656800Y-110248600D01*
X179462240Y-110248600D01*
X179431555Y-110301747D01*
X179396800Y-110431457D01*
X179396800Y-110565743D01*
X179431555Y-110695453D01*
X179462240Y-110748600D01*
X178656800Y-110748600D01*
X178656800Y-110856982D01*
X178687578Y-111051305D01*
X178748381Y-111238435D01*
X178837704Y-111413743D01*
X178953355Y-111572921D01*
X179092478Y-111712044D01*
X179251656Y-111827695D01*
X179426962Y-111917018D01*
X179614083Y-111977818D01*
X179656800Y-111984584D01*
X179656800Y-110943160D01*
X179709947Y-110973845D01*
X179839657Y-111008600D01*
X179973943Y-111008600D01*
X180103653Y-110973845D01*
X180156800Y-110943160D01*
X180156800Y-111984583D01*
X180199516Y-111977818D01*
X180386637Y-111917018D01*
X180561943Y-111827695D01*
X180721121Y-111712044D01*
X180860244Y-111572921D01*
X180975895Y-111413743D01*
X181065218Y-111238435D01*
X181126021Y-111051305D01*
X181156800Y-110856982D01*
X181156800Y-110748600D01*
X180351360Y-110748600D01*
X180382045Y-110695453D01*
X180416800Y-110565743D01*
X180416800Y-110431457D01*
X180382045Y-110301747D01*
X180351360Y-110248600D01*
X181156800Y-110248600D01*
X181156800Y-110140217D01*
X181126021Y-109945894D01*
X181065218Y-109758764D01*
X180975895Y-109583456D01*
X180860244Y-109424278D01*
X180721121Y-109285155D01*
X180561943Y-109169504D01*
X180386635Y-109080181D01*
X180199505Y-109019378D01*
X180156800Y-109012614D01*
X180156800Y-110054039D01*
X180103653Y-110023355D01*
X179973943Y-109988600D01*
X179839657Y-109988600D01*
X179709947Y-110023355D01*
X179656800Y-110054039D01*
X179656800Y-109012614D01*
X179656799Y-109012614D01*
X179614094Y-109019378D01*
X179426964Y-109080181D01*
X179251656Y-109169504D01*
X179092478Y-109285155D01*
X178953355Y-109424278D01*
X178837704Y-109583456D01*
X178748381Y-109758764D01*
X178687578Y-109945894D01*
X178656800Y-110140217D01*
X171994900Y-110140217D01*
X171994900Y-109726592D01*
X171984399Y-109623803D01*
X171929214Y-109457266D01*
X171905775Y-109419266D01*
X171837113Y-109307948D01*
X171837110Y-109307944D01*
X171713055Y-109183889D01*
X171713051Y-109183886D01*
X171563737Y-109091787D01*
X171563734Y-109091786D01*
X171429896Y-109047436D01*
X171372451Y-109007663D01*
X171345628Y-108943147D01*
X171344900Y-108929730D01*
X171344900Y-108676297D01*
X171364585Y-108609258D01*
X171381219Y-108588616D01*
X172526016Y-107443819D01*
X172587339Y-107410334D01*
X172613697Y-107407500D01*
X181497931Y-107407500D01*
X181497947Y-107407501D01*
X181505543Y-107407501D01*
X181663654Y-107407501D01*
X181663657Y-107407501D01*
X181816385Y-107366577D01*
X181866504Y-107337639D01*
X181953316Y-107287520D01*
X182065120Y-107175716D01*
X182065120Y-107175714D01*
X182075328Y-107165507D01*
X182075330Y-107165504D01*
X184356106Y-104884728D01*
X184356111Y-104884724D01*
X184366314Y-104874520D01*
X184366316Y-104874520D01*
X184478120Y-104762716D01*
X184557177Y-104625784D01*
X184598100Y-104473057D01*
X184598100Y-102865243D01*
X184617785Y-102798204D01*
X184670589Y-102752449D01*
X184739747Y-102742505D01*
X184787197Y-102759704D01*
X184930275Y-102847956D01*
X184930280Y-102847958D01*
X185096702Y-102903105D01*
X185096709Y-102903106D01*
X185199419Y-102913599D01*
X185449399Y-102913599D01*
X185949400Y-102913599D01*
X186199372Y-102913599D01*
X186199386Y-102913598D01*
X186302097Y-102903105D01*
X186468519Y-102847958D01*
X186468524Y-102847956D01*
X186617745Y-102755915D01*
X186741715Y-102631945D01*
X186833756Y-102482724D01*
X186833758Y-102482719D01*
X186888905Y-102316297D01*
X186888906Y-102316290D01*
X186899399Y-102213586D01*
X186899400Y-102213573D01*
X186899400Y-102088600D01*
X185949400Y-102088600D01*
X185949400Y-102913599D01*
X185449399Y-102913599D01*
X185449400Y-102913598D01*
X185449400Y-101962600D01*
X185469085Y-101895561D01*
X185521889Y-101849806D01*
X185573400Y-101838600D01*
X185699400Y-101838600D01*
X185699400Y-101712600D01*
X185719085Y-101645561D01*
X185771889Y-101599806D01*
X185823400Y-101588600D01*
X186899399Y-101588600D01*
X186899399Y-101463628D01*
X186899398Y-101463613D01*
X186888905Y-101360902D01*
X186833758Y-101194480D01*
X186833756Y-101194475D01*
X186741715Y-101045254D01*
X186617744Y-100921283D01*
X186617741Y-100921281D01*
X186614739Y-100919429D01*
X186613113Y-100917621D01*
X186612077Y-100916802D01*
X186612217Y-100916624D01*
X186568018Y-100867479D01*
X186556799Y-100798515D01*
X186584646Y-100734435D01*
X186614748Y-100708353D01*
X186618056Y-100706314D01*
X186742112Y-100582258D01*
X186824919Y-100448004D01*
X186832506Y-100441180D01*
X186836745Y-100431899D01*
X186858044Y-100418210D01*
X186876867Y-100401281D01*
X186888502Y-100398636D01*
X186895523Y-100394125D01*
X186930458Y-100389102D01*
X186991505Y-100389102D01*
X187058544Y-100408787D01*
X187079186Y-100425421D01*
X187196181Y-100542416D01*
X187229666Y-100603739D01*
X187232500Y-100630097D01*
X187232500Y-105186102D01*
X187212815Y-105253141D01*
X187196181Y-105273783D01*
X183518183Y-108951781D01*
X183456860Y-108985266D01*
X183430502Y-108988100D01*
X182356784Y-108988100D01*
X182254004Y-108998600D01*
X182254003Y-108998601D01*
X182087464Y-109053786D01*
X182087462Y-109053787D01*
X181938148Y-109145886D01*
X181938144Y-109145889D01*
X181814089Y-109269944D01*
X181814086Y-109269948D01*
X181721987Y-109419262D01*
X181721986Y-109419264D01*
X181666801Y-109585803D01*
X181666800Y-109585804D01*
X181656300Y-109688584D01*
X181656300Y-111308615D01*
X181666800Y-111411395D01*
X181666801Y-111411397D01*
X181694393Y-111494665D01*
X181721986Y-111577935D01*
X181721987Y-111577937D01*
X181814086Y-111727251D01*
X181814089Y-111727255D01*
X181938144Y-111851310D01*
X181938148Y-111851313D01*
X182087462Y-111943412D01*
X182087464Y-111943413D01*
X182087466Y-111943414D01*
X182254003Y-111998599D01*
X182356792Y-112009100D01*
X182356797Y-112009100D01*
X183456803Y-112009100D01*
X183456808Y-112009100D01*
X183559597Y-111998599D01*
X183726134Y-111943414D01*
X183875455Y-111851311D01*
X183999511Y-111727255D01*
X184091614Y-111577934D01*
X184146799Y-111411397D01*
X184157300Y-111308608D01*
X184157300Y-110533392D01*
X189097980Y-110533392D01*
X189097980Y-110803019D01*
X189128166Y-111070925D01*
X189128168Y-111070937D01*
X189188164Y-111333800D01*
X189188167Y-111333808D01*
X189277214Y-111588288D01*
X189394194Y-111831200D01*
X189405212Y-111848735D01*
X189537642Y-112059495D01*
X189649937Y-112200309D01*
X189705034Y-112269399D01*
X189705746Y-112270291D01*
X189896395Y-112460940D01*
X190107191Y-112629044D01*
X190335483Y-112772490D01*
X190578401Y-112889473D01*
X190760288Y-112953118D01*
X190832877Y-112978518D01*
X190832885Y-112978521D01*
X190832888Y-112978521D01*
X190832889Y-112978522D01*
X191095748Y-113038518D01*
X191363667Y-113068705D01*
X191363668Y-113068706D01*
X191363671Y-113068706D01*
X191633292Y-113068706D01*
X191633292Y-113068705D01*
X191901212Y-113038518D01*
X192164071Y-112978522D01*
X192418559Y-112889473D01*
X192661477Y-112772490D01*
X192889769Y-112629044D01*
X193100565Y-112460940D01*
X193291214Y-112270291D01*
X193459318Y-112059495D01*
X193602764Y-111831203D01*
X193719747Y-111588285D01*
X193808796Y-111333797D01*
X193868792Y-111070938D01*
X193898980Y-110803015D01*
X193898980Y-110533397D01*
X193868792Y-110265474D01*
X193808796Y-110002615D01*
X193719747Y-109748127D01*
X193602764Y-109505209D01*
X193459318Y-109276917D01*
X193291214Y-109066121D01*
X193100565Y-108875472D01*
X192889769Y-108707368D01*
X192661477Y-108563922D01*
X192661474Y-108563920D01*
X192418562Y-108446940D01*
X192164082Y-108357893D01*
X192164074Y-108357890D01*
X191966926Y-108312893D01*
X191901212Y-108297894D01*
X191901208Y-108297893D01*
X191901199Y-108297892D01*
X191633293Y-108267706D01*
X191633289Y-108267706D01*
X191363671Y-108267706D01*
X191363666Y-108267706D01*
X191095760Y-108297892D01*
X191095748Y-108297894D01*
X190832885Y-108357890D01*
X190832877Y-108357893D01*
X190578397Y-108446940D01*
X190335485Y-108563920D01*
X190107192Y-108707367D01*
X189896395Y-108875471D01*
X189705745Y-109066121D01*
X189537641Y-109276918D01*
X189394194Y-109505211D01*
X189277214Y-109748123D01*
X189188167Y-110002603D01*
X189188164Y-110002611D01*
X189128168Y-110265474D01*
X189128166Y-110265486D01*
X189097980Y-110533392D01*
X184157300Y-110533392D01*
X184157300Y-110062496D01*
X184176985Y-109995457D01*
X184193614Y-109974820D01*
X188201713Y-105966721D01*
X188201716Y-105966720D01*
X188313520Y-105854916D01*
X188363639Y-105768104D01*
X188392577Y-105717985D01*
X188433501Y-105565257D01*
X188433501Y-105407143D01*
X188433501Y-105399548D01*
X188433500Y-105399530D01*
X188433500Y-102324181D01*
X193635500Y-102324181D01*
X193635500Y-102498618D01*
X193669527Y-102669683D01*
X193669529Y-102669691D01*
X193736278Y-102830839D01*
X193736283Y-102830848D01*
X193833186Y-102975873D01*
X193833189Y-102975877D01*
X193956522Y-103099210D01*
X193956526Y-103099213D01*
X194101551Y-103196116D01*
X194101557Y-103196119D01*
X194101558Y-103196120D01*
X194262709Y-103262871D01*
X194433781Y-103296899D01*
X194433785Y-103296900D01*
X194433786Y-103296900D01*
X194608215Y-103296900D01*
X194608216Y-103296899D01*
X194779291Y-103262871D01*
X194940442Y-103196120D01*
X195085474Y-103099213D01*
X195208813Y-102975874D01*
X195305720Y-102830842D01*
X195372471Y-102669691D01*
X195406500Y-102498614D01*
X195406500Y-102324186D01*
X195372471Y-102153109D01*
X195305720Y-101991958D01*
X195305719Y-101991957D01*
X195305716Y-101991951D01*
X195208813Y-101846926D01*
X195208810Y-101846922D01*
X195085477Y-101723589D01*
X195085473Y-101723586D01*
X194940448Y-101626683D01*
X194940439Y-101626678D01*
X194779291Y-101559929D01*
X194779283Y-101559927D01*
X194608218Y-101525900D01*
X194608214Y-101525900D01*
X194433786Y-101525900D01*
X194433781Y-101525900D01*
X194262716Y-101559927D01*
X194262708Y-101559929D01*
X194101560Y-101626678D01*
X194101551Y-101626683D01*
X193956526Y-101723586D01*
X193956522Y-101723589D01*
X193833189Y-101846922D01*
X193833186Y-101846926D01*
X193736283Y-101991951D01*
X193736278Y-101991960D01*
X193669529Y-102153108D01*
X193669527Y-102153116D01*
X193635500Y-102324181D01*
X188433500Y-102324181D01*
X188433500Y-100250945D01*
X188433500Y-100250943D01*
X188392577Y-100098216D01*
X188374442Y-100066805D01*
X188313524Y-99961290D01*
X188313521Y-99961286D01*
X188313520Y-99961284D01*
X188201716Y-99849480D01*
X188201715Y-99849479D01*
X188197385Y-99845149D01*
X188197374Y-99845139D01*
X187779192Y-99426957D01*
X187772123Y-99419888D01*
X187772122Y-99419886D01*
X187665213Y-99312977D01*
X191050500Y-99312977D01*
X191050500Y-99509822D01*
X191081290Y-99704226D01*
X191142117Y-99891429D01*
X191220156Y-100044589D01*
X191231476Y-100066805D01*
X191347172Y-100226046D01*
X191486354Y-100365228D01*
X191645595Y-100480924D01*
X191728455Y-100523143D01*
X191820970Y-100570282D01*
X191820972Y-100570282D01*
X191820975Y-100570284D01*
X191921317Y-100602887D01*
X192008173Y-100631109D01*
X192202578Y-100661900D01*
X192202583Y-100661900D01*
X192919422Y-100661900D01*
X193113826Y-100631109D01*
X193130636Y-100625647D01*
X193301025Y-100570284D01*
X193476405Y-100480924D01*
X193635646Y-100365228D01*
X193774828Y-100226046D01*
X193890524Y-100066805D01*
X193979884Y-99891425D01*
X194040709Y-99704226D01*
X194045831Y-99671888D01*
X194071500Y-99509822D01*
X194071500Y-99312977D01*
X194040709Y-99118573D01*
X194005622Y-99010589D01*
X193979884Y-98931375D01*
X193979882Y-98931372D01*
X193979882Y-98931370D01*
X193932743Y-98838855D01*
X193890524Y-98755995D01*
X193774828Y-98596754D01*
X193635646Y-98457572D01*
X193476405Y-98341876D01*
X193301029Y-98252517D01*
X193113826Y-98191690D01*
X192919422Y-98160900D01*
X192919417Y-98160900D01*
X192202583Y-98160900D01*
X192202578Y-98160900D01*
X192008173Y-98191690D01*
X191820970Y-98252517D01*
X191645594Y-98341876D01*
X191554741Y-98407885D01*
X191486354Y-98457572D01*
X191486352Y-98457574D01*
X191486351Y-98457574D01*
X191347174Y-98596751D01*
X191347174Y-98596752D01*
X191347172Y-98596754D01*
X191318496Y-98636223D01*
X191231476Y-98755994D01*
X191142117Y-98931370D01*
X191081290Y-99118573D01*
X191050500Y-99312977D01*
X187665213Y-99312977D01*
X187660318Y-99308082D01*
X187573506Y-99257962D01*
X187573506Y-99257961D01*
X187573502Y-99257960D01*
X187523387Y-99229025D01*
X187370659Y-99188101D01*
X187212545Y-99188101D01*
X187204949Y-99188101D01*
X187204933Y-99188102D01*
X186930458Y-99188102D01*
X186920667Y-99185227D01*
X186910541Y-99186492D01*
X186887708Y-99175549D01*
X186863419Y-99168417D01*
X186855060Y-99159901D01*
X186847534Y-99156295D01*
X186824919Y-99129198D01*
X186751761Y-99010589D01*
X186733300Y-98945493D01*
X186733300Y-97815630D01*
X186752985Y-97748591D01*
X186763231Y-97735875D01*
X186763034Y-97735719D01*
X186767505Y-97730062D01*
X186767512Y-97730056D01*
X186859614Y-97580734D01*
X186914799Y-97414197D01*
X186925300Y-97311409D01*
X186925299Y-96511392D01*
X186924827Y-96506776D01*
X186914799Y-96408603D01*
X186914798Y-96408600D01*
X186913597Y-96404977D01*
X186859614Y-96242066D01*
X186777535Y-96108994D01*
X186759096Y-96041604D01*
X186780019Y-95974941D01*
X186833661Y-95930171D01*
X186883075Y-95919900D01*
X190591904Y-95919900D01*
X190658943Y-95939585D01*
X190679585Y-95956219D01*
X191014181Y-96290815D01*
X191047666Y-96352138D01*
X191050500Y-96378496D01*
X191050500Y-96961415D01*
X191061000Y-97064195D01*
X191061001Y-97064197D01*
X191088593Y-97147465D01*
X191116186Y-97230735D01*
X191116187Y-97230737D01*
X191208286Y-97380051D01*
X191208289Y-97380055D01*
X191332344Y-97504110D01*
X191332348Y-97504113D01*
X191481662Y-97596212D01*
X191481664Y-97596213D01*
X191481666Y-97596214D01*
X191648203Y-97651399D01*
X191750992Y-97661900D01*
X191750997Y-97661900D01*
X193371003Y-97661900D01*
X193371008Y-97661900D01*
X193473797Y-97651399D01*
X193640334Y-97596214D01*
X193789655Y-97504111D01*
X193913711Y-97380055D01*
X194005814Y-97230734D01*
X194060999Y-97064197D01*
X194071500Y-96961408D01*
X194071500Y-95861392D01*
X194060999Y-95758603D01*
X194005814Y-95592066D01*
X194001040Y-95584327D01*
X193913713Y-95442748D01*
X193913710Y-95442744D01*
X193789655Y-95318689D01*
X193789651Y-95318686D01*
X193640337Y-95226587D01*
X193640335Y-95226586D01*
X193493880Y-95178056D01*
X193473797Y-95171401D01*
X193473795Y-95171400D01*
X193371015Y-95160900D01*
X193371008Y-95160900D01*
X192788096Y-95160900D01*
X192721057Y-95141215D01*
X192700415Y-95124581D01*
X191703884Y-94128049D01*
X191703880Y-94128046D01*
X191538710Y-94017682D01*
X191538697Y-94017675D01*
X191527170Y-94012901D01*
X191527169Y-94012901D01*
X191355169Y-93941656D01*
X191355161Y-93941654D01*
X191160333Y-93902900D01*
X191160329Y-93902900D01*
X186571962Y-93902900D01*
X186506866Y-93884439D01*
X186494134Y-93876586D01*
X186327597Y-93821401D01*
X186327595Y-93821400D01*
X186224810Y-93810900D01*
X185224798Y-93810900D01*
X185224780Y-93810901D01*
X185122003Y-93821400D01*
X185122000Y-93821401D01*
X184955468Y-93876585D01*
X184955463Y-93876587D01*
X184806141Y-93968690D01*
X184800481Y-93973166D01*
X184798803Y-93971044D01*
X184748458Y-93998536D01*
X184678766Y-93993552D01*
X184622833Y-93951680D01*
X184598416Y-93886216D01*
X184598100Y-93877370D01*
X184598100Y-93392943D01*
X184598099Y-93392940D01*
X184588409Y-93356774D01*
X184584114Y-93340744D01*
X184579676Y-93324181D01*
X193635500Y-93324181D01*
X193635500Y-93498618D01*
X193669527Y-93669683D01*
X193669529Y-93669691D01*
X193736278Y-93830839D01*
X193736283Y-93830848D01*
X193833186Y-93975873D01*
X193833189Y-93975877D01*
X193956522Y-94099210D01*
X193956526Y-94099213D01*
X194101551Y-94196116D01*
X194101557Y-94196119D01*
X194101558Y-94196120D01*
X194262709Y-94262871D01*
X194433781Y-94296899D01*
X194433785Y-94296900D01*
X194433786Y-94296900D01*
X194608215Y-94296900D01*
X194608216Y-94296899D01*
X194779291Y-94262871D01*
X194940442Y-94196120D01*
X195085474Y-94099213D01*
X195208813Y-93975874D01*
X195305720Y-93830842D01*
X195372471Y-93669691D01*
X195406500Y-93498614D01*
X195406500Y-93324186D01*
X195372471Y-93153109D01*
X195305720Y-92991958D01*
X195305719Y-92991957D01*
X195305716Y-92991951D01*
X195208813Y-92846926D01*
X195208810Y-92846922D01*
X195085477Y-92723589D01*
X195085473Y-92723586D01*
X194940448Y-92626683D01*
X194940439Y-92626678D01*
X194779291Y-92559929D01*
X194779283Y-92559927D01*
X194608218Y-92525900D01*
X194608214Y-92525900D01*
X194433786Y-92525900D01*
X194433781Y-92525900D01*
X194262716Y-92559927D01*
X194262708Y-92559929D01*
X194101560Y-92626678D01*
X194101551Y-92626683D01*
X193956526Y-92723586D01*
X193956522Y-92723589D01*
X193833189Y-92846922D01*
X193833186Y-92846926D01*
X193736283Y-92991951D01*
X193736278Y-92991960D01*
X193669529Y-93153108D01*
X193669527Y-93153116D01*
X193635500Y-93324181D01*
X184579676Y-93324181D01*
X184557177Y-93240215D01*
X184518158Y-93172633D01*
X184513439Y-93164460D01*
X184513438Y-93164456D01*
X184478124Y-93103290D01*
X184478121Y-93103286D01*
X184478120Y-93103284D01*
X184366316Y-92991480D01*
X184366315Y-92991479D01*
X184361985Y-92987149D01*
X184361974Y-92987139D01*
X181735616Y-90360781D01*
X193635500Y-90360781D01*
X193635500Y-90535218D01*
X193669527Y-90706283D01*
X193669529Y-90706291D01*
X193736278Y-90867439D01*
X193736283Y-90867448D01*
X193833186Y-91012473D01*
X193833189Y-91012477D01*
X193956522Y-91135810D01*
X193956526Y-91135813D01*
X194101551Y-91232716D01*
X194101560Y-91232721D01*
X194116905Y-91239077D01*
X194262709Y-91299471D01*
X194433781Y-91333499D01*
X194433785Y-91333500D01*
X194433786Y-91333500D01*
X194608215Y-91333500D01*
X194608216Y-91333499D01*
X194779291Y-91299471D01*
X194940442Y-91232720D01*
X195085474Y-91135813D01*
X195208813Y-91012474D01*
X195305720Y-90867442D01*
X195372471Y-90706291D01*
X195406500Y-90535214D01*
X195406500Y-90360786D01*
X195372471Y-90189709D01*
X195319018Y-90060661D01*
X195305721Y-90028560D01*
X195305716Y-90028551D01*
X195208813Y-89883526D01*
X195208810Y-89883522D01*
X195085477Y-89760189D01*
X195085473Y-89760186D01*
X194940448Y-89663283D01*
X194940439Y-89663278D01*
X194779291Y-89596529D01*
X194779283Y-89596527D01*
X194608218Y-89562500D01*
X194608214Y-89562500D01*
X194433786Y-89562500D01*
X194433781Y-89562500D01*
X194262716Y-89596527D01*
X194262708Y-89596529D01*
X194101560Y-89663278D01*
X194101551Y-89663283D01*
X193956526Y-89760186D01*
X193956522Y-89760189D01*
X193833189Y-89883522D01*
X193833186Y-89883526D01*
X193736283Y-90028551D01*
X193736278Y-90028560D01*
X193669529Y-90189708D01*
X193669527Y-90189716D01*
X193635500Y-90360781D01*
X181735616Y-90360781D01*
X181056190Y-89681355D01*
X181056188Y-89681352D01*
X180937317Y-89562481D01*
X180937316Y-89562480D01*
X180850504Y-89512360D01*
X180850504Y-89512359D01*
X180850500Y-89512358D01*
X180800385Y-89483423D01*
X180647657Y-89442499D01*
X180489543Y-89442499D01*
X180481947Y-89442499D01*
X180481931Y-89442500D01*
X177777457Y-89442500D01*
X177619342Y-89442500D01*
X177466615Y-89483423D01*
X177466614Y-89483423D01*
X177466612Y-89483424D01*
X177466609Y-89483425D01*
X177416496Y-89512359D01*
X177416495Y-89512360D01*
X177373089Y-89537420D01*
X177329685Y-89562479D01*
X177329682Y-89562481D01*
X176353181Y-90538983D01*
X176291858Y-90572468D01*
X176222166Y-90567484D01*
X176166233Y-90525612D01*
X176141816Y-90460148D01*
X176141500Y-90451302D01*
X176141500Y-87198000D01*
X191075016Y-87198000D01*
X192116440Y-87198000D01*
X192085755Y-87251147D01*
X192051000Y-87380857D01*
X192051000Y-87515143D01*
X192085755Y-87644853D01*
X192116440Y-87698000D01*
X191075016Y-87698000D01*
X191081781Y-87740716D01*
X191142581Y-87927837D01*
X191231904Y-88103143D01*
X191347555Y-88262321D01*
X191486678Y-88401444D01*
X191645856Y-88517095D01*
X191821164Y-88606418D01*
X192008294Y-88667221D01*
X192202618Y-88698000D01*
X192311000Y-88698000D01*
X192311000Y-87892560D01*
X192364147Y-87923245D01*
X192493857Y-87958000D01*
X192628143Y-87958000D01*
X192757853Y-87923245D01*
X192811000Y-87892560D01*
X192811000Y-88698000D01*
X192919382Y-88698000D01*
X193113705Y-88667221D01*
X193300835Y-88606418D01*
X193476143Y-88517095D01*
X193635321Y-88401444D01*
X193774444Y-88262321D01*
X193890095Y-88103143D01*
X193979418Y-87927837D01*
X194040218Y-87740716D01*
X194046984Y-87698000D01*
X193005560Y-87698000D01*
X193036245Y-87644853D01*
X193071000Y-87515143D01*
X193071000Y-87380857D01*
X193036245Y-87251147D01*
X193005560Y-87198000D01*
X194046984Y-87198000D01*
X194040218Y-87155283D01*
X193979418Y-86968162D01*
X193890095Y-86792856D01*
X193774444Y-86633678D01*
X193635321Y-86494555D01*
X193476143Y-86378904D01*
X193300835Y-86289581D01*
X193113705Y-86228778D01*
X192919382Y-86198000D01*
X192811000Y-86198000D01*
X192811000Y-87003439D01*
X192757853Y-86972755D01*
X192628143Y-86938000D01*
X192493857Y-86938000D01*
X192364147Y-86972755D01*
X192311000Y-87003439D01*
X192311000Y-86198000D01*
X192202618Y-86198000D01*
X192008294Y-86228778D01*
X191821164Y-86289581D01*
X191645856Y-86378904D01*
X191486678Y-86494555D01*
X191347555Y-86633678D01*
X191231904Y-86792856D01*
X191142581Y-86968162D01*
X191081781Y-87155283D01*
X191075016Y-87198000D01*
X176141500Y-87198000D01*
X176141500Y-83898014D01*
X191051000Y-83898014D01*
X191051000Y-84198000D01*
X192116440Y-84198000D01*
X192085755Y-84251147D01*
X192051000Y-84380857D01*
X192051000Y-84515143D01*
X192085755Y-84644853D01*
X192116440Y-84698000D01*
X191051000Y-84698000D01*
X191051000Y-84997985D01*
X191061493Y-85100689D01*
X191061494Y-85100696D01*
X191116641Y-85267118D01*
X191116643Y-85267123D01*
X191208684Y-85416344D01*
X191332655Y-85540315D01*
X191481876Y-85632356D01*
X191481881Y-85632358D01*
X191648303Y-85687505D01*
X191648310Y-85687506D01*
X191751014Y-85697999D01*
X191751027Y-85698000D01*
X192311000Y-85698000D01*
X192311000Y-84892560D01*
X192364147Y-84923245D01*
X192493857Y-84958000D01*
X192628143Y-84958000D01*
X192757853Y-84923245D01*
X192811000Y-84892560D01*
X192811000Y-85698000D01*
X193370973Y-85698000D01*
X193370985Y-85697999D01*
X193473689Y-85687506D01*
X193473696Y-85687505D01*
X193640118Y-85632358D01*
X193640123Y-85632356D01*
X193789344Y-85540315D01*
X193913315Y-85416344D01*
X194005356Y-85267123D01*
X194005358Y-85267118D01*
X194060505Y-85100696D01*
X194060506Y-85100689D01*
X194070999Y-84997985D01*
X194071000Y-84997972D01*
X194071000Y-84698000D01*
X193005560Y-84698000D01*
X193036245Y-84644853D01*
X193071000Y-84515143D01*
X193071000Y-84380857D01*
X193036245Y-84251147D01*
X193005560Y-84198000D01*
X194071000Y-84198000D01*
X194071000Y-83898027D01*
X194070999Y-83898014D01*
X194060506Y-83795310D01*
X194060505Y-83795303D01*
X194005358Y-83628881D01*
X194005356Y-83628876D01*
X193913315Y-83479655D01*
X193789344Y-83355684D01*
X193640123Y-83263643D01*
X193640118Y-83263641D01*
X193473696Y-83208494D01*
X193473689Y-83208493D01*
X193370985Y-83198000D01*
X192811000Y-83198000D01*
X192811000Y-84003439D01*
X192757853Y-83972755D01*
X192628143Y-83938000D01*
X192493857Y-83938000D01*
X192364147Y-83972755D01*
X192311000Y-84003439D01*
X192311000Y-83198000D01*
X191751014Y-83198000D01*
X191648310Y-83208493D01*
X191648303Y-83208494D01*
X191481881Y-83263641D01*
X191481876Y-83263643D01*
X191332655Y-83355684D01*
X191208684Y-83479655D01*
X191116643Y-83628876D01*
X191116641Y-83628881D01*
X191061494Y-83795303D01*
X191061493Y-83795310D01*
X191051000Y-83898014D01*
X176141500Y-83898014D01*
X176141500Y-81881202D01*
X176161185Y-81814163D01*
X176177819Y-81793521D01*
X176876452Y-81094888D01*
X176937775Y-81061403D01*
X176964133Y-81058569D01*
X179191857Y-81058569D01*
X179258896Y-81078254D01*
X179297395Y-81117471D01*
X179360711Y-81220123D01*
X179363304Y-81224326D01*
X179456966Y-81317988D01*
X179460449Y-81324368D01*
X179466393Y-81328558D01*
X179476972Y-81354627D01*
X179490451Y-81379311D01*
X179489932Y-81386561D01*
X179492667Y-81393300D01*
X179487473Y-81420945D01*
X179485467Y-81449003D01*
X179480792Y-81456509D01*
X179479767Y-81461969D01*
X179463165Y-81484817D01*
X179459431Y-81490815D01*
X179458238Y-81492077D01*
X179363303Y-81587013D01*
X179353392Y-81603080D01*
X179344670Y-81612315D01*
X179325024Y-81623780D01*
X179308112Y-81638992D01*
X179293127Y-81642396D01*
X179284326Y-81647534D01*
X179272713Y-81647035D01*
X179254524Y-81651169D01*
X178673228Y-81651169D01*
X178625776Y-81641730D01*
X178592301Y-81627864D01*
X178592289Y-81627861D01*
X178437645Y-81597100D01*
X178437642Y-81597100D01*
X178279958Y-81597100D01*
X178279955Y-81597100D01*
X178125310Y-81627861D01*
X178125298Y-81627864D01*
X177979627Y-81688202D01*
X177979614Y-81688209D01*
X177848511Y-81775810D01*
X177848507Y-81775813D01*
X177737013Y-81887307D01*
X177737010Y-81887311D01*
X177649409Y-82018414D01*
X177649402Y-82018427D01*
X177589064Y-82164098D01*
X177589061Y-82164110D01*
X177558300Y-82318753D01*
X177558300Y-82476446D01*
X177589061Y-82631089D01*
X177589064Y-82631101D01*
X177649402Y-82776772D01*
X177649409Y-82776785D01*
X177737010Y-82907888D01*
X177737013Y-82907892D01*
X177848507Y-83019386D01*
X177848511Y-83019389D01*
X177979614Y-83106990D01*
X177979627Y-83106997D01*
X178125093Y-83167250D01*
X178125303Y-83167337D01*
X178279455Y-83198000D01*
X178279953Y-83198099D01*
X178279956Y-83198100D01*
X178279958Y-83198100D01*
X178437644Y-83198100D01*
X178437645Y-83198099D01*
X178592297Y-83167337D01*
X178592309Y-83167331D01*
X178598124Y-83165569D01*
X178598634Y-83167250D01*
X178634267Y-83160169D01*
X179254524Y-83160169D01*
X179321563Y-83179854D01*
X179360061Y-83219069D01*
X179363303Y-83224325D01*
X179487359Y-83348381D01*
X179636681Y-83440483D01*
X179803218Y-83495668D01*
X179906006Y-83506169D01*
X180906023Y-83506168D01*
X180906031Y-83506167D01*
X180906034Y-83506167D01*
X180962317Y-83500417D01*
X181008812Y-83495668D01*
X181175349Y-83440483D01*
X181324671Y-83348381D01*
X181433833Y-83239219D01*
X181495156Y-83205734D01*
X181521514Y-83202900D01*
X184450554Y-83202900D01*
X184450574Y-83202901D01*
X184456688Y-83202901D01*
X184605314Y-83202901D01*
X184690241Y-83186006D01*
X184726894Y-83178715D01*
X184751080Y-83173905D01*
X184827852Y-83142105D01*
X184888389Y-83117030D01*
X185011966Y-83034459D01*
X186246379Y-81800044D01*
X186246382Y-81800043D01*
X186351475Y-81694950D01*
X186406690Y-81612315D01*
X186416857Y-81597099D01*
X186423596Y-81587013D01*
X186434046Y-81571373D01*
X186490921Y-81434063D01*
X186505498Y-81360781D01*
X193635500Y-81360781D01*
X193635500Y-81535218D01*
X193669527Y-81706283D01*
X193669529Y-81706291D01*
X193736278Y-81867439D01*
X193736283Y-81867448D01*
X193833186Y-82012473D01*
X193833189Y-82012477D01*
X193956522Y-82135810D01*
X193956526Y-82135813D01*
X194101551Y-82232716D01*
X194101557Y-82232719D01*
X194101558Y-82232720D01*
X194262709Y-82299471D01*
X194433781Y-82333499D01*
X194433785Y-82333500D01*
X194433786Y-82333500D01*
X194608215Y-82333500D01*
X194608216Y-82333499D01*
X194779291Y-82299471D01*
X194940442Y-82232720D01*
X195085474Y-82135813D01*
X195208813Y-82012474D01*
X195305720Y-81867442D01*
X195372471Y-81706291D01*
X195406500Y-81535214D01*
X195406500Y-81360786D01*
X195372471Y-81189709D01*
X195305720Y-81028558D01*
X195305719Y-81028557D01*
X195305716Y-81028551D01*
X195208813Y-80883526D01*
X195208810Y-80883522D01*
X195085477Y-80760189D01*
X195085473Y-80760186D01*
X194940448Y-80663283D01*
X194940439Y-80663278D01*
X194779291Y-80596529D01*
X194779283Y-80596527D01*
X194608218Y-80562500D01*
X194608214Y-80562500D01*
X194433786Y-80562500D01*
X194433781Y-80562500D01*
X194262716Y-80596527D01*
X194262708Y-80596529D01*
X194101560Y-80663278D01*
X194101551Y-80663283D01*
X193956526Y-80760186D01*
X193956522Y-80760189D01*
X193833189Y-80883522D01*
X193833186Y-80883526D01*
X193736283Y-81028551D01*
X193736278Y-81028560D01*
X193669529Y-81189708D01*
X193669527Y-81189716D01*
X193635500Y-81360781D01*
X186505498Y-81360781D01*
X186519917Y-81288296D01*
X186519917Y-81139672D01*
X186519916Y-81139666D01*
X186519916Y-80169940D01*
X186539601Y-80102901D01*
X186578818Y-80064402D01*
X186684072Y-79999482D01*
X186808128Y-79875426D01*
X186811370Y-79870170D01*
X186863319Y-79823447D01*
X186916907Y-79811270D01*
X189206784Y-79811270D01*
X189206804Y-79811271D01*
X189212918Y-79811271D01*
X189361544Y-79811271D01*
X189441477Y-79795369D01*
X189483124Y-79787085D01*
X189507310Y-79782275D01*
X189565772Y-79758059D01*
X189644619Y-79725400D01*
X189768196Y-79642829D01*
X190256566Y-79154459D01*
X190682045Y-78728981D01*
X193602300Y-78728981D01*
X193602300Y-78903418D01*
X193636327Y-79074483D01*
X193636329Y-79074491D01*
X193703078Y-79235639D01*
X193703083Y-79235648D01*
X193799986Y-79380673D01*
X193799989Y-79380677D01*
X193923322Y-79504010D01*
X193923326Y-79504013D01*
X194068351Y-79600916D01*
X194068357Y-79600919D01*
X194068358Y-79600920D01*
X194229509Y-79667671D01*
X194400581Y-79701699D01*
X194400585Y-79701700D01*
X194400586Y-79701700D01*
X194575015Y-79701700D01*
X194575016Y-79701699D01*
X194746091Y-79667671D01*
X194907242Y-79600920D01*
X195052274Y-79504013D01*
X195175613Y-79380674D01*
X195272520Y-79235642D01*
X195339271Y-79074491D01*
X195373300Y-78903414D01*
X195373300Y-78728986D01*
X195339271Y-78557909D01*
X195284966Y-78426806D01*
X195272521Y-78396760D01*
X195272516Y-78396751D01*
X195175613Y-78251726D01*
X195175610Y-78251722D01*
X195052277Y-78128389D01*
X195052273Y-78128386D01*
X194907248Y-78031483D01*
X194907239Y-78031478D01*
X194746091Y-77964729D01*
X194746083Y-77964727D01*
X194575018Y-77930700D01*
X194575014Y-77930700D01*
X194400586Y-77930700D01*
X194400581Y-77930700D01*
X194229516Y-77964727D01*
X194229508Y-77964729D01*
X194068360Y-78031478D01*
X194068351Y-78031483D01*
X193923326Y-78128386D01*
X193923322Y-78128389D01*
X193799989Y-78251722D01*
X193799986Y-78251726D01*
X193703083Y-78396751D01*
X193703078Y-78396760D01*
X193636329Y-78557908D01*
X193636327Y-78557916D01*
X193602300Y-78728981D01*
X190682045Y-78728981D01*
X190775813Y-78635213D01*
X192308006Y-77103019D01*
X192369329Y-77069534D01*
X192395687Y-77066700D01*
X192886222Y-77066700D01*
X193080626Y-77035909D01*
X193267825Y-76975084D01*
X193443205Y-76885724D01*
X193602446Y-76770028D01*
X193741628Y-76630846D01*
X193857324Y-76471605D01*
X193946684Y-76296225D01*
X194007509Y-76109026D01*
X194012562Y-76077120D01*
X194038300Y-75914622D01*
X194038300Y-75717777D01*
X194007509Y-75523373D01*
X193956336Y-75365882D01*
X193946684Y-75336175D01*
X193946682Y-75336172D01*
X193946682Y-75336170D01*
X193890968Y-75226825D01*
X193857324Y-75160795D01*
X193741628Y-75001554D01*
X193602446Y-74862372D01*
X193443205Y-74746676D01*
X193267829Y-74657317D01*
X193080626Y-74596490D01*
X192886222Y-74565700D01*
X192886217Y-74565700D01*
X192169383Y-74565700D01*
X192169378Y-74565700D01*
X191974973Y-74596490D01*
X191787770Y-74657317D01*
X191612394Y-74746676D01*
X191527758Y-74808169D01*
X191453154Y-74862372D01*
X191453152Y-74862374D01*
X191453151Y-74862374D01*
X191313974Y-75001551D01*
X191313974Y-75001552D01*
X191313972Y-75001554D01*
X191281589Y-75046125D01*
X191198276Y-75160794D01*
X191108917Y-75336170D01*
X191048090Y-75523373D01*
X191017300Y-75717777D01*
X191017300Y-75914622D01*
X191048091Y-76109029D01*
X191048091Y-76109030D01*
X191054003Y-76127226D01*
X191055996Y-76197067D01*
X191023752Y-76253221D01*
X189011024Y-78265951D01*
X188949701Y-78299436D01*
X188923343Y-78302270D01*
X186916907Y-78302270D01*
X186849868Y-78282585D01*
X186826761Y-78263416D01*
X186818038Y-78254181D01*
X186808128Y-78238114D01*
X186713192Y-78143178D01*
X186712000Y-78141916D01*
X186696902Y-78112287D01*
X186680980Y-78083128D01*
X186681110Y-78081297D01*
X186680278Y-78079663D01*
X186683592Y-78046600D01*
X186685964Y-78013436D01*
X186687092Y-78011679D01*
X186687247Y-78010141D01*
X186691624Y-78004628D01*
X186714465Y-77969089D01*
X186752854Y-77930700D01*
X186808128Y-77875426D01*
X186900230Y-77726104D01*
X186955415Y-77559567D01*
X186965916Y-77456779D01*
X186965915Y-76656762D01*
X186964181Y-76639792D01*
X186955415Y-76553973D01*
X186955414Y-76553970D01*
X186944453Y-76520891D01*
X186900230Y-76387436D01*
X186808128Y-76238114D01*
X186684072Y-76114058D01*
X186534750Y-76021956D01*
X186534748Y-76021955D01*
X186534746Y-76021954D01*
X186528205Y-76018904D01*
X186529545Y-76016030D01*
X186483709Y-75984070D01*
X186457100Y-75919466D01*
X186456416Y-75906457D01*
X186456416Y-75575181D01*
X186476101Y-75508142D01*
X186528905Y-75462387D01*
X186541403Y-75457478D01*
X186585149Y-75442983D01*
X186734471Y-75350881D01*
X186858527Y-75226825D01*
X186950629Y-75077503D01*
X187005814Y-74910966D01*
X187016315Y-74808178D01*
X187016314Y-74033161D01*
X187005814Y-73930372D01*
X186950629Y-73763835D01*
X186858527Y-73614513D01*
X186734471Y-73490457D01*
X186731157Y-73488412D01*
X186729361Y-73486417D01*
X186728804Y-73485976D01*
X186728879Y-73485880D01*
X186684433Y-73436466D01*
X186673212Y-73367503D01*
X186701055Y-73303421D01*
X186731163Y-73277334D01*
X186734157Y-73275487D01*
X186858130Y-73151514D01*
X186950171Y-73002293D01*
X186950173Y-73002288D01*
X187005320Y-72835866D01*
X187005321Y-72835859D01*
X187015814Y-72733155D01*
X187015815Y-72733142D01*
X187015815Y-72595669D01*
X184554161Y-72595669D01*
X184518508Y-72615136D01*
X184448817Y-72610150D01*
X184404472Y-72581650D01*
X184089006Y-72266184D01*
X191017300Y-72266184D01*
X191017300Y-73366215D01*
X191027800Y-73468995D01*
X191027801Y-73468997D01*
X191048505Y-73531477D01*
X191082986Y-73635535D01*
X191082987Y-73635537D01*
X191175086Y-73784851D01*
X191175089Y-73784855D01*
X191299144Y-73908910D01*
X191299148Y-73908913D01*
X191448462Y-74001012D01*
X191448464Y-74001013D01*
X191448466Y-74001014D01*
X191615003Y-74056199D01*
X191717792Y-74066700D01*
X191717797Y-74066700D01*
X193337803Y-74066700D01*
X193337808Y-74066700D01*
X193440597Y-74056199D01*
X193607134Y-74001014D01*
X193756455Y-73908911D01*
X193880511Y-73784855D01*
X193972614Y-73635534D01*
X194027799Y-73468997D01*
X194038300Y-73366208D01*
X194038300Y-72266192D01*
X194027799Y-72163403D01*
X193972614Y-71996866D01*
X193948762Y-71958197D01*
X193880513Y-71847548D01*
X193880510Y-71847544D01*
X193756455Y-71723489D01*
X193756451Y-71723486D01*
X193607137Y-71631387D01*
X193607135Y-71631386D01*
X193456256Y-71581390D01*
X193440597Y-71576201D01*
X193440595Y-71576200D01*
X193337815Y-71565700D01*
X193337808Y-71565700D01*
X191717792Y-71565700D01*
X191717784Y-71565700D01*
X191615004Y-71576200D01*
X191615003Y-71576201D01*
X191448464Y-71631386D01*
X191448462Y-71631387D01*
X191299148Y-71723486D01*
X191299144Y-71723489D01*
X191175089Y-71847544D01*
X191175086Y-71847548D01*
X191082987Y-71996862D01*
X191082986Y-71996864D01*
X191027801Y-72163403D01*
X191027800Y-72163404D01*
X191017300Y-72266184D01*
X184089006Y-72266184D01*
X183886719Y-72063897D01*
X183872015Y-72036969D01*
X183855423Y-72011151D01*
X183854531Y-72004950D01*
X183853234Y-72002574D01*
X183850400Y-71976216D01*
X183850400Y-71958182D01*
X184565815Y-71958182D01*
X184565815Y-72095669D01*
X185540815Y-72095669D01*
X186040815Y-72095669D01*
X187015814Y-72095669D01*
X187015814Y-71958197D01*
X187015813Y-71958182D01*
X187005320Y-71855471D01*
X186950173Y-71689049D01*
X186950171Y-71689044D01*
X186858130Y-71539823D01*
X186734160Y-71415853D01*
X186584939Y-71323812D01*
X186584934Y-71323810D01*
X186418512Y-71268663D01*
X186418505Y-71268662D01*
X186315801Y-71258169D01*
X186040815Y-71258169D01*
X186040815Y-72095669D01*
X185540815Y-72095669D01*
X185540815Y-71258169D01*
X185265844Y-71258169D01*
X185265827Y-71258170D01*
X185163117Y-71268663D01*
X184996695Y-71323810D01*
X184996690Y-71323812D01*
X184847469Y-71415853D01*
X184723499Y-71539823D01*
X184631458Y-71689044D01*
X184631456Y-71689049D01*
X184576309Y-71855471D01*
X184576308Y-71855478D01*
X184565815Y-71958182D01*
X183850400Y-71958182D01*
X183850400Y-69728981D01*
X193602300Y-69728981D01*
X193602300Y-69903418D01*
X193636327Y-70074483D01*
X193636329Y-70074491D01*
X193703078Y-70235639D01*
X193703083Y-70235648D01*
X193799986Y-70380673D01*
X193799989Y-70380677D01*
X193923322Y-70504010D01*
X193923326Y-70504013D01*
X194068351Y-70600916D01*
X194068357Y-70600919D01*
X194068358Y-70600920D01*
X194229509Y-70667671D01*
X194400581Y-70701699D01*
X194400585Y-70701700D01*
X194400586Y-70701700D01*
X194575015Y-70701700D01*
X194575016Y-70701699D01*
X194746091Y-70667671D01*
X194907242Y-70600920D01*
X195052274Y-70504013D01*
X195175613Y-70380674D01*
X195272520Y-70235642D01*
X195339271Y-70074491D01*
X195373300Y-69903414D01*
X195373300Y-69728986D01*
X195339271Y-69557909D01*
X195272520Y-69396758D01*
X195272519Y-69396757D01*
X195272516Y-69396751D01*
X195175613Y-69251726D01*
X195175610Y-69251722D01*
X195052277Y-69128389D01*
X195052273Y-69128386D01*
X194907248Y-69031483D01*
X194907239Y-69031478D01*
X194746091Y-68964729D01*
X194746083Y-68964727D01*
X194575018Y-68930700D01*
X194575014Y-68930700D01*
X194400586Y-68930700D01*
X194400581Y-68930700D01*
X194229516Y-68964727D01*
X194229508Y-68964729D01*
X194068360Y-69031478D01*
X194068351Y-69031483D01*
X193923326Y-69128386D01*
X193923322Y-69128389D01*
X193799989Y-69251722D01*
X193799986Y-69251726D01*
X193703083Y-69396751D01*
X193703078Y-69396760D01*
X193636329Y-69557908D01*
X193636327Y-69557916D01*
X193602300Y-69728981D01*
X183850400Y-69728981D01*
X183850400Y-67343539D01*
X183823846Y-67210048D01*
X183823845Y-67210047D01*
X183823845Y-67210043D01*
X183823843Y-67210038D01*
X183771757Y-67084290D01*
X183771755Y-67084287D01*
X183696136Y-66971114D01*
X183696130Y-66971107D01*
X179491119Y-62766096D01*
X179457634Y-62704773D01*
X179454800Y-62678415D01*
X179454800Y-62020280D01*
X179474485Y-61953241D01*
X179527289Y-61907486D01*
X179539793Y-61902575D01*
X179583134Y-61888214D01*
X179732455Y-61796111D01*
X179856511Y-61672055D01*
X179948614Y-61522734D01*
X180003799Y-61356197D01*
X180014300Y-61253408D01*
X180014300Y-60085017D01*
X180513800Y-60085017D01*
X180513800Y-60193400D01*
X181319240Y-60193400D01*
X181288555Y-60246547D01*
X181253800Y-60376257D01*
X181253800Y-60510543D01*
X181288555Y-60640253D01*
X181319240Y-60693400D01*
X180513800Y-60693400D01*
X180513800Y-60801782D01*
X180544578Y-60996105D01*
X180605381Y-61183235D01*
X180694704Y-61358543D01*
X180810355Y-61517721D01*
X180949478Y-61656844D01*
X181108656Y-61772495D01*
X181283962Y-61861818D01*
X181471083Y-61922618D01*
X181513800Y-61929384D01*
X181513800Y-60887960D01*
X181566947Y-60918645D01*
X181696657Y-60953400D01*
X181830943Y-60953400D01*
X181960653Y-60918645D01*
X182013800Y-60887960D01*
X182013800Y-61929383D01*
X182056516Y-61922618D01*
X182243637Y-61861818D01*
X182418943Y-61772495D01*
X182578121Y-61656844D01*
X182717244Y-61517721D01*
X182832895Y-61358543D01*
X182922218Y-61183235D01*
X182983021Y-60996105D01*
X183013800Y-60801782D01*
X183013800Y-60693400D01*
X182208360Y-60693400D01*
X182239045Y-60640253D01*
X182250637Y-60596992D01*
X189123380Y-60596992D01*
X189123380Y-60866619D01*
X189153566Y-61134525D01*
X189153568Y-61134537D01*
X189213564Y-61397400D01*
X189213567Y-61397408D01*
X189302614Y-61651888D01*
X189419594Y-61894800D01*
X189419596Y-61894803D01*
X189563042Y-62123095D01*
X189731146Y-62333891D01*
X189921795Y-62524540D01*
X190132591Y-62692644D01*
X190360883Y-62836090D01*
X190603801Y-62953073D01*
X190794929Y-63019951D01*
X190858277Y-63042118D01*
X190858285Y-63042121D01*
X190858288Y-63042121D01*
X190858289Y-63042122D01*
X191121148Y-63102118D01*
X191389067Y-63132305D01*
X191389068Y-63132306D01*
X191389071Y-63132306D01*
X191658692Y-63132306D01*
X191658692Y-63132305D01*
X191926612Y-63102118D01*
X192189471Y-63042122D01*
X192443959Y-62953073D01*
X192686877Y-62836090D01*
X192915169Y-62692644D01*
X193125965Y-62524540D01*
X193316614Y-62333891D01*
X193484718Y-62123095D01*
X193628164Y-61894803D01*
X193745147Y-61651885D01*
X193834196Y-61397397D01*
X193894192Y-61134538D01*
X193924380Y-60866615D01*
X193924380Y-60596997D01*
X193894192Y-60329074D01*
X193834196Y-60066215D01*
X193745147Y-59811727D01*
X193659268Y-59633397D01*
X193628165Y-59568811D01*
X193604157Y-59530603D01*
X193484718Y-59340517D01*
X193316614Y-59129721D01*
X193125965Y-58939072D01*
X193080541Y-58902848D01*
X193059464Y-58886039D01*
X192915169Y-58770968D01*
X192686877Y-58627522D01*
X192686874Y-58627520D01*
X192443962Y-58510540D01*
X192189482Y-58421493D01*
X192189474Y-58421490D01*
X191992326Y-58376493D01*
X191926612Y-58361494D01*
X191926608Y-58361493D01*
X191926599Y-58361492D01*
X191658693Y-58331306D01*
X191658689Y-58331306D01*
X191389071Y-58331306D01*
X191389066Y-58331306D01*
X191121160Y-58361492D01*
X191121148Y-58361494D01*
X190858285Y-58421490D01*
X190858277Y-58421493D01*
X190603797Y-58510540D01*
X190360885Y-58627520D01*
X190132592Y-58770967D01*
X189921795Y-58939071D01*
X189731145Y-59129721D01*
X189563041Y-59340518D01*
X189419594Y-59568811D01*
X189302614Y-59811723D01*
X189213567Y-60066203D01*
X189213564Y-60066211D01*
X189153568Y-60329074D01*
X189153566Y-60329086D01*
X189123380Y-60596992D01*
X182250637Y-60596992D01*
X182273800Y-60510543D01*
X182273800Y-60376257D01*
X182239045Y-60246547D01*
X182208360Y-60193400D01*
X183013800Y-60193400D01*
X183013800Y-60085017D01*
X182983021Y-59890694D01*
X182922218Y-59703564D01*
X182832895Y-59528256D01*
X182717244Y-59369078D01*
X182578121Y-59229955D01*
X182418943Y-59114304D01*
X182243635Y-59024981D01*
X182056505Y-58964178D01*
X182013800Y-58957414D01*
X182013800Y-59998839D01*
X181960653Y-59968155D01*
X181830943Y-59933400D01*
X181696657Y-59933400D01*
X181566947Y-59968155D01*
X181513800Y-59998839D01*
X181513800Y-58957414D01*
X181513799Y-58957414D01*
X181471094Y-58964178D01*
X181283964Y-59024981D01*
X181108656Y-59114304D01*
X180949478Y-59229955D01*
X180810355Y-59369078D01*
X180694704Y-59528256D01*
X180605381Y-59703564D01*
X180544578Y-59890694D01*
X180513800Y-60085017D01*
X180014300Y-60085017D01*
X180014300Y-59633392D01*
X180003799Y-59530603D01*
X179948614Y-59364066D01*
X179941233Y-59352100D01*
X179856513Y-59214748D01*
X179856510Y-59214744D01*
X179732455Y-59090689D01*
X179732451Y-59090686D01*
X179583137Y-58998587D01*
X179583135Y-58998586D01*
X179499865Y-58970993D01*
X179416597Y-58943401D01*
X179416595Y-58943400D01*
X179313815Y-58932900D01*
X179313808Y-58932900D01*
X178213792Y-58932900D01*
X178213784Y-58932900D01*
X178111004Y-58943400D01*
X178111003Y-58943401D01*
X177944464Y-58998586D01*
X177944462Y-58998587D01*
X177795148Y-59090686D01*
X177795144Y-59090689D01*
X177671089Y-59214744D01*
X177671086Y-59214748D01*
X177578987Y-59364062D01*
X177578986Y-59364064D01*
X177523801Y-59530603D01*
X177523800Y-59530604D01*
X177513300Y-59633384D01*
X177513300Y-61253415D01*
X177523800Y-61356195D01*
X177523801Y-61356197D01*
X177537457Y-61397408D01*
X177578986Y-61522735D01*
X177578987Y-61522737D01*
X177671086Y-61672051D01*
X177671089Y-61672055D01*
X177795144Y-61796110D01*
X177795148Y-61796113D01*
X177944457Y-61888209D01*
X177944460Y-61888210D01*
X177944466Y-61888214D01*
X177987803Y-61902574D01*
X178045248Y-61942346D01*
X178072072Y-62006862D01*
X178072800Y-62020280D01*
X178072800Y-63084058D01*
X178076392Y-63102117D01*
X178077060Y-63105471D01*
X178077060Y-63105475D01*
X178099353Y-63217549D01*
X178099356Y-63217561D01*
X178151442Y-63343309D01*
X178151444Y-63343312D01*
X178227063Y-63456485D01*
X178227069Y-63456492D01*
X182432081Y-67661503D01*
X182465566Y-67722826D01*
X182468400Y-67749184D01*
X182468400Y-72381860D01*
X182480991Y-72445156D01*
X182480991Y-72445157D01*
X182494953Y-72515349D01*
X182494956Y-72515361D01*
X182547042Y-72641109D01*
X182547044Y-72641112D01*
X182622663Y-72754285D01*
X182622669Y-72754292D01*
X184528996Y-74660617D01*
X184562481Y-74721940D01*
X184565315Y-74748296D01*
X184565315Y-74808169D01*
X184565316Y-74808188D01*
X184575815Y-74910965D01*
X184575816Y-74910968D01*
X184631000Y-75077500D01*
X184631002Y-75077505D01*
X184660128Y-75124726D01*
X184723103Y-75226825D01*
X184847159Y-75350881D01*
X184996481Y-75442983D01*
X184996489Y-75442985D01*
X185002811Y-75445933D01*
X185055254Y-75492101D01*
X185074416Y-75558320D01*
X185074416Y-75906457D01*
X185054731Y-75973496D01*
X185002540Y-76018719D01*
X185002627Y-76018904D01*
X185001978Y-76019206D01*
X185001927Y-76019251D01*
X185001639Y-76019364D01*
X184996085Y-76021954D01*
X184846758Y-76114059D01*
X184722705Y-76238112D01*
X184722703Y-76238115D01*
X184708238Y-76261567D01*
X184656290Y-76308292D01*
X184602700Y-76320470D01*
X182493349Y-76320470D01*
X182426310Y-76300785D01*
X182380555Y-76247981D01*
X182370611Y-76178823D01*
X182374272Y-76161876D01*
X182377181Y-76151863D01*
X182383812Y-76129039D01*
X182386714Y-76092164D01*
X182386714Y-75660776D01*
X182383812Y-75623901D01*
X182375315Y-75594656D01*
X182344591Y-75488902D01*
X182337958Y-75466072D01*
X182254295Y-75324605D01*
X182254293Y-75324603D01*
X182254290Y-75324599D01*
X182190988Y-75261297D01*
X182157503Y-75199974D01*
X182162487Y-75130282D01*
X182190988Y-75085934D01*
X182253895Y-75023027D01*
X182253899Y-75023022D01*
X182337495Y-74881668D01*
X182383314Y-74723956D01*
X182383509Y-74721471D01*
X182383509Y-74721470D01*
X178388919Y-74721470D01*
X178388918Y-74721471D01*
X178389113Y-74723956D01*
X178421528Y-74835529D01*
X178421328Y-74905399D01*
X178383385Y-74964069D01*
X178319747Y-74992912D01*
X178250617Y-74982771D01*
X178214770Y-74957805D01*
X177610462Y-74353495D01*
X177478435Y-74221468D01*
X178388918Y-74221468D01*
X178388919Y-74221470D01*
X180136214Y-74221470D01*
X180636214Y-74221470D01*
X182383509Y-74221470D01*
X182383509Y-74221468D01*
X182383314Y-74218983D01*
X182337495Y-74061271D01*
X182253899Y-73919917D01*
X182253892Y-73919908D01*
X182137775Y-73803791D01*
X182137766Y-73803784D01*
X181996410Y-73720187D01*
X181996407Y-73720186D01*
X181838709Y-73674370D01*
X181838703Y-73674369D01*
X181801863Y-73671470D01*
X180636214Y-73671470D01*
X180636214Y-74221470D01*
X180136214Y-74221470D01*
X180136214Y-73671470D01*
X178970564Y-73671470D01*
X178933724Y-73674369D01*
X178933718Y-73674370D01*
X178776020Y-73720186D01*
X178776017Y-73720187D01*
X178634661Y-73803784D01*
X178634652Y-73803791D01*
X178518535Y-73919908D01*
X178518528Y-73919917D01*
X178434932Y-74061271D01*
X178389113Y-74218983D01*
X178388918Y-74221468D01*
X177478435Y-74221468D01*
X177191704Y-73934736D01*
X177191700Y-73934733D01*
X177078532Y-73859116D01*
X177078522Y-73859111D01*
X176952772Y-73807023D01*
X176952764Y-73807021D01*
X176901567Y-73796837D01*
X176901564Y-73796837D01*
X176819273Y-73780468D01*
X176819271Y-73780468D01*
X176696518Y-73780468D01*
X176683158Y-73780468D01*
X176683157Y-73780468D01*
X176133244Y-73780468D01*
X176070123Y-73763200D01*
X176060218Y-73757342D01*
X175996612Y-73719726D01*
X175996611Y-73719725D01*
X175996610Y-73719725D01*
X175996607Y-73719724D01*
X175838787Y-73673872D01*
X175838781Y-73673871D01*
X175801915Y-73670970D01*
X175801908Y-73670970D01*
X175211400Y-73670970D01*
X175144361Y-73651285D01*
X175098606Y-73598481D01*
X175087400Y-73546970D01*
X175087400Y-72321397D01*
X175107085Y-72254358D01*
X175146302Y-72215859D01*
X175249656Y-72152111D01*
X175373712Y-72028055D01*
X175455594Y-71895301D01*
X175507542Y-71848578D01*
X175561133Y-71836399D01*
X176030687Y-71836399D01*
X176097726Y-71856084D01*
X176142949Y-71908274D01*
X176143134Y-71908189D01*
X176143435Y-71908835D01*
X176143481Y-71908888D01*
X176143595Y-71909178D01*
X176146184Y-71914730D01*
X176146185Y-71914732D01*
X176146186Y-71914734D01*
X176238288Y-72064056D01*
X176362344Y-72188112D01*
X176511666Y-72280214D01*
X176678203Y-72335399D01*
X176780991Y-72345900D01*
X177581008Y-72345899D01*
X177581016Y-72345898D01*
X177581019Y-72345898D01*
X177637302Y-72340148D01*
X177683797Y-72335399D01*
X177850334Y-72280214D01*
X177999656Y-72188112D01*
X178093675Y-72094092D01*
X178154994Y-72060610D01*
X178224686Y-72065594D01*
X178269034Y-72094095D01*
X178362654Y-72187715D01*
X178511875Y-72279756D01*
X178511880Y-72279758D01*
X178678302Y-72334905D01*
X178678309Y-72334906D01*
X178781019Y-72345399D01*
X178930999Y-72345399D01*
X179431000Y-72345399D01*
X179580972Y-72345399D01*
X179580986Y-72345398D01*
X179683697Y-72334905D01*
X179850119Y-72279758D01*
X179850124Y-72279756D01*
X179999345Y-72187715D01*
X180123315Y-72063745D01*
X180215356Y-71914524D01*
X180215358Y-71914519D01*
X180270505Y-71748097D01*
X180270506Y-71748090D01*
X180280999Y-71645386D01*
X180281000Y-71645373D01*
X180281000Y-71395400D01*
X179431000Y-71395400D01*
X179431000Y-72345399D01*
X178930999Y-72345399D01*
X178931000Y-72345398D01*
X178931000Y-70895400D01*
X179431000Y-70895400D01*
X180280999Y-70895400D01*
X180280999Y-70645428D01*
X180280998Y-70645413D01*
X180270505Y-70542702D01*
X180215358Y-70376280D01*
X180215356Y-70376275D01*
X180123315Y-70227054D01*
X179999345Y-70103084D01*
X179850124Y-70011043D01*
X179850119Y-70011041D01*
X179683697Y-69955894D01*
X179683690Y-69955893D01*
X179580986Y-69945400D01*
X179431000Y-69945400D01*
X179431000Y-70895400D01*
X178931000Y-70895400D01*
X178931000Y-69945400D01*
X178781027Y-69945400D01*
X178781012Y-69945401D01*
X178678302Y-69955894D01*
X178511880Y-70011041D01*
X178511875Y-70011043D01*
X178362657Y-70103082D01*
X178269034Y-70196705D01*
X178207710Y-70230189D01*
X178138019Y-70225205D01*
X178093672Y-70196704D01*
X177999657Y-70102689D01*
X177999656Y-70102688D01*
X177850334Y-70010586D01*
X177683797Y-69955401D01*
X177683795Y-69955400D01*
X177581010Y-69944900D01*
X176780998Y-69944900D01*
X176780980Y-69944901D01*
X176678203Y-69955400D01*
X176678200Y-69955401D01*
X176511668Y-70010585D01*
X176511663Y-70010587D01*
X176362342Y-70102689D01*
X176238289Y-70226742D01*
X176146184Y-70376069D01*
X176143134Y-70382611D01*
X176140201Y-70381243D01*
X176108601Y-70426865D01*
X176044079Y-70453674D01*
X176030688Y-70454399D01*
X175593241Y-70454399D01*
X175526202Y-70434714D01*
X175480447Y-70381910D01*
X175475535Y-70369402D01*
X175465815Y-70340069D01*
X175465814Y-70340065D01*
X175373712Y-70190743D01*
X175249656Y-70066687D01*
X175100334Y-69974585D01*
X174933797Y-69919400D01*
X174933795Y-69919399D01*
X174831010Y-69908899D01*
X174030998Y-69908899D01*
X174030980Y-69908900D01*
X173928203Y-69919399D01*
X173928200Y-69919400D01*
X173761668Y-69974584D01*
X173761663Y-69974586D01*
X173612342Y-70066688D01*
X173518681Y-70160350D01*
X173457358Y-70193835D01*
X173387666Y-70188851D01*
X173343319Y-70160350D01*
X173249657Y-70066688D01*
X173249656Y-70066687D01*
X173100334Y-69974585D01*
X172933797Y-69919400D01*
X172933795Y-69919399D01*
X172831010Y-69908899D01*
X172030998Y-69908899D01*
X172030980Y-69908900D01*
X171928203Y-69919399D01*
X171928200Y-69919400D01*
X171761668Y-69974584D01*
X171761663Y-69974586D01*
X171612342Y-70066688D01*
X171488289Y-70190741D01*
X171396187Y-70340062D01*
X171396185Y-70340067D01*
X171368349Y-70424069D01*
X171341001Y-70506602D01*
X171341001Y-70506603D01*
X171341000Y-70506603D01*
X171330500Y-70609382D01*
X171330500Y-71609400D01*
X171330501Y-71609418D01*
X171341000Y-71712195D01*
X171341001Y-71712198D01*
X171396185Y-71878730D01*
X171396187Y-71878735D01*
X171416871Y-71912269D01*
X171488288Y-72028055D01*
X171612344Y-72152111D01*
X171761666Y-72244213D01*
X171928203Y-72299398D01*
X172030991Y-72309899D01*
X172831008Y-72309898D01*
X172831016Y-72309897D01*
X172831019Y-72309897D01*
X172887302Y-72304147D01*
X172933797Y-72299398D01*
X173100334Y-72244213D01*
X173249656Y-72152111D01*
X173343319Y-72058448D01*
X173347801Y-72056000D01*
X173350600Y-72051727D01*
X173378156Y-72039425D01*
X173404642Y-72024963D01*
X173409736Y-72025327D01*
X173414401Y-72023245D01*
X173444234Y-72027794D01*
X173474334Y-72029947D01*
X173479791Y-72033216D01*
X173483472Y-72033778D01*
X173499658Y-72045119D01*
X173512999Y-72053112D01*
X173515920Y-72055687D01*
X173612344Y-72152111D01*
X173655481Y-72178718D01*
X173663399Y-72185698D01*
X173676632Y-72206681D01*
X173693221Y-72225124D01*
X173696013Y-72237412D01*
X173700671Y-72244797D01*
X173700563Y-72257431D01*
X173705400Y-72278715D01*
X173705400Y-73546970D01*
X173685715Y-73614009D01*
X173632911Y-73659764D01*
X173581400Y-73670970D01*
X172970512Y-73670970D01*
X172933646Y-73673871D01*
X172933640Y-73673872D01*
X172775820Y-73719724D01*
X172775817Y-73719725D01*
X172634351Y-73803387D01*
X172634343Y-73803393D01*
X172518137Y-73919599D01*
X172518131Y-73919607D01*
X172434469Y-74061073D01*
X172434468Y-74061076D01*
X172388616Y-74218896D01*
X172388615Y-74218902D01*
X172385714Y-74255768D01*
X172385714Y-74687171D01*
X172388615Y-74724037D01*
X172388616Y-74724043D01*
X172436646Y-74889360D01*
X172434052Y-74890113D01*
X172441016Y-74946581D01*
X172410720Y-75009540D01*
X172351194Y-75046125D01*
X172318658Y-75050470D01*
X168378802Y-75050470D01*
X168311763Y-75030785D01*
X168273265Y-74991569D01*
X168240726Y-74938814D01*
X168116670Y-74814758D01*
X167973316Y-74726337D01*
X167966492Y-74718750D01*
X167957211Y-74714512D01*
X167943522Y-74693212D01*
X167926593Y-74674390D01*
X167923948Y-74662754D01*
X167919437Y-74655734D01*
X167914414Y-74620799D01*
X167914414Y-74521464D01*
X167934099Y-74454425D01*
X167986903Y-74408670D01*
X167999407Y-74403759D01*
X168017748Y-74397682D01*
X168167070Y-74305580D01*
X168291126Y-74181524D01*
X168383228Y-74032202D01*
X168438413Y-73865665D01*
X168448914Y-73762877D01*
X168448913Y-72987860D01*
X168438413Y-72885071D01*
X168383228Y-72718534D01*
X168291126Y-72569212D01*
X168167070Y-72445156D01*
X168163756Y-72443111D01*
X168161960Y-72441116D01*
X168161403Y-72440675D01*
X168161478Y-72440579D01*
X168117032Y-72391165D01*
X168105811Y-72322202D01*
X168133654Y-72258120D01*
X168163762Y-72232033D01*
X168166756Y-72230186D01*
X168290729Y-72106213D01*
X168382770Y-71956992D01*
X168382772Y-71956987D01*
X168437919Y-71790565D01*
X168437920Y-71790558D01*
X168448413Y-71687854D01*
X168448414Y-71687841D01*
X168448414Y-71550368D01*
X165998415Y-71550368D01*
X165998415Y-71687854D01*
X166008908Y-71790565D01*
X166064055Y-71956987D01*
X166064057Y-71956992D01*
X166156098Y-72106213D01*
X166280069Y-72230184D01*
X166280073Y-72230187D01*
X166283070Y-72232036D01*
X166284693Y-72233840D01*
X166285737Y-72234666D01*
X166285595Y-72234844D01*
X166329795Y-72283984D01*
X166341016Y-72352947D01*
X166313173Y-72417029D01*
X166283075Y-72443109D01*
X166279763Y-72445151D01*
X166279757Y-72445156D01*
X166155704Y-72569209D01*
X166155702Y-72569211D01*
X166155702Y-72569212D01*
X166121418Y-72624795D01*
X166069472Y-72671518D01*
X166000509Y-72682741D01*
X165936427Y-72654897D01*
X165928200Y-72647378D01*
X165065319Y-71784497D01*
X165031834Y-71723174D01*
X165029000Y-71696816D01*
X165029000Y-70912881D01*
X165998414Y-70912881D01*
X165998414Y-71050368D01*
X166973414Y-71050368D01*
X167473414Y-71050368D01*
X168448413Y-71050368D01*
X168448413Y-70912896D01*
X168448412Y-70912881D01*
X168437919Y-70810170D01*
X168382772Y-70643748D01*
X168382770Y-70643743D01*
X168290729Y-70494522D01*
X168166759Y-70370552D01*
X168017538Y-70278511D01*
X168017533Y-70278509D01*
X167851111Y-70223362D01*
X167851104Y-70223361D01*
X167748400Y-70212868D01*
X167473414Y-70212868D01*
X167473414Y-71050368D01*
X166973414Y-71050368D01*
X166973414Y-70212868D01*
X166698443Y-70212868D01*
X166698426Y-70212869D01*
X166595716Y-70223362D01*
X166429294Y-70278509D01*
X166429289Y-70278511D01*
X166280068Y-70370552D01*
X166156098Y-70494522D01*
X166064057Y-70643743D01*
X166064055Y-70643748D01*
X166008908Y-70810170D01*
X166008907Y-70810177D01*
X165998414Y-70912881D01*
X165029000Y-70912881D01*
X165029000Y-62669183D01*
X165048685Y-62602144D01*
X165065319Y-62581502D01*
X165673403Y-61973419D01*
X165734726Y-61939934D01*
X165761084Y-61937100D01*
X166793003Y-61937100D01*
X166793008Y-61937100D01*
X166895797Y-61926599D01*
X167062334Y-61871414D01*
X167211655Y-61779311D01*
X167335711Y-61655255D01*
X167427814Y-61505934D01*
X167482999Y-61339397D01*
X167493500Y-61236608D01*
X167493500Y-60068217D01*
X167993000Y-60068217D01*
X167993000Y-60176600D01*
X168798440Y-60176600D01*
X168767755Y-60229747D01*
X168733000Y-60359457D01*
X168733000Y-60493743D01*
X168767755Y-60623453D01*
X168798440Y-60676600D01*
X167993000Y-60676600D01*
X167993000Y-60784982D01*
X168023778Y-60979305D01*
X168084581Y-61166435D01*
X168173904Y-61341743D01*
X168289555Y-61500921D01*
X168428678Y-61640044D01*
X168587856Y-61755695D01*
X168763162Y-61845018D01*
X168950283Y-61905818D01*
X168993000Y-61912584D01*
X168993000Y-60871160D01*
X169046147Y-60901845D01*
X169175857Y-60936600D01*
X169310143Y-60936600D01*
X169439853Y-60901845D01*
X169493000Y-60871160D01*
X169493000Y-61912583D01*
X169535716Y-61905818D01*
X169722837Y-61845018D01*
X169898143Y-61755695D01*
X170057321Y-61640044D01*
X170196444Y-61500921D01*
X170312095Y-61341743D01*
X170401418Y-61166435D01*
X170462221Y-60979305D01*
X170493000Y-60784982D01*
X170493000Y-60676600D01*
X169687560Y-60676600D01*
X169718245Y-60623453D01*
X169753000Y-60493743D01*
X169753000Y-60359457D01*
X169718245Y-60229747D01*
X169687560Y-60176600D01*
X170493000Y-60176600D01*
X170493000Y-60068217D01*
X170462221Y-59873894D01*
X170401418Y-59686764D01*
X170312095Y-59511456D01*
X170196444Y-59352278D01*
X170057321Y-59213155D01*
X169898143Y-59097504D01*
X169722835Y-59008181D01*
X169535705Y-58947378D01*
X169493000Y-58940614D01*
X169493000Y-59982039D01*
X169439853Y-59951355D01*
X169310143Y-59916600D01*
X169175857Y-59916600D01*
X169046147Y-59951355D01*
X168993000Y-59982039D01*
X168993000Y-58940614D01*
X168992999Y-58940614D01*
X168950294Y-58947378D01*
X168763164Y-59008181D01*
X168587856Y-59097504D01*
X168428678Y-59213155D01*
X168289555Y-59352278D01*
X168173904Y-59511456D01*
X168084581Y-59686764D01*
X168023778Y-59873894D01*
X167993000Y-60068217D01*
X167493500Y-60068217D01*
X167493500Y-59616592D01*
X167482999Y-59513803D01*
X167427814Y-59347266D01*
X167423651Y-59340517D01*
X167335713Y-59197948D01*
X167335710Y-59197944D01*
X167211655Y-59073889D01*
X167211651Y-59073886D01*
X167062337Y-58981787D01*
X167062335Y-58981786D01*
X166979065Y-58954193D01*
X166895797Y-58926601D01*
X166895795Y-58926600D01*
X166793015Y-58916100D01*
X166793008Y-58916100D01*
X165692992Y-58916100D01*
X165692984Y-58916100D01*
X165590204Y-58926600D01*
X165590203Y-58926601D01*
X165423664Y-58981786D01*
X165423662Y-58981787D01*
X165274348Y-59073886D01*
X165274344Y-59073889D01*
X165150289Y-59197944D01*
X165150286Y-59197948D01*
X165058187Y-59347262D01*
X165058186Y-59347264D01*
X165003001Y-59513803D01*
X165003000Y-59513804D01*
X164992500Y-59616584D01*
X164992500Y-60648515D01*
X164972815Y-60715554D01*
X164956181Y-60736196D01*
X163801269Y-61891107D01*
X163801268Y-61891108D01*
X163786919Y-61912584D01*
X163759313Y-61953900D01*
X163746271Y-61973419D01*
X163725644Y-62004288D01*
X163725640Y-62004295D01*
X163673556Y-62130038D01*
X163673553Y-62130048D01*
X163647000Y-62263539D01*
X163647000Y-72102459D01*
X163656877Y-72152110D01*
X163656877Y-72152112D01*
X163673553Y-72235949D01*
X163673556Y-72235961D01*
X163725642Y-72361709D01*
X163725644Y-72361712D01*
X163801263Y-72474885D01*
X163801269Y-72474892D01*
X164475854Y-73149476D01*
X165147464Y-73821086D01*
X165147465Y-73821087D01*
X165233041Y-73906663D01*
X165243713Y-73917335D01*
X165243714Y-73917336D01*
X165356887Y-73992955D01*
X165356890Y-73992957D01*
X165453952Y-74033161D01*
X165482643Y-74045045D01*
X165482647Y-74045045D01*
X165482648Y-74045046D01*
X165616140Y-74071600D01*
X165616143Y-74071600D01*
X165752257Y-74071600D01*
X165766581Y-74068750D01*
X165790772Y-74066368D01*
X166015467Y-74066368D01*
X166082506Y-74086053D01*
X166121004Y-74125268D01*
X166155702Y-74181524D01*
X166279758Y-74305580D01*
X166429080Y-74397682D01*
X166447417Y-74403758D01*
X166467449Y-74417627D01*
X166489617Y-74427751D01*
X166495665Y-74437162D01*
X166504862Y-74443530D01*
X166514216Y-74466028D01*
X166527391Y-74486529D01*
X166529849Y-74503629D01*
X166531686Y-74508046D01*
X166532414Y-74521464D01*
X166532414Y-74598740D01*
X166512729Y-74665779D01*
X166459925Y-74711534D01*
X166447422Y-74716445D01*
X166428680Y-74722655D01*
X166279356Y-74814759D01*
X166155303Y-74938812D01*
X166063201Y-75088133D01*
X166063200Y-75088136D01*
X166008015Y-75254673D01*
X166008015Y-75254674D01*
X166008014Y-75254674D01*
X165997514Y-75357453D01*
X165997514Y-76157471D01*
X165997515Y-76157489D01*
X166008014Y-76260266D01*
X166008015Y-76260269D01*
X166063199Y-76426801D01*
X166063201Y-76426806D01*
X166083432Y-76459605D01*
X166151905Y-76570619D01*
X166155303Y-76576127D01*
X166248965Y-76669789D01*
X166282450Y-76731112D01*
X166277466Y-76800804D01*
X166248965Y-76845151D01*
X166155303Y-76938812D01*
X166063201Y-77088133D01*
X166063200Y-77088136D01*
X166008015Y-77254673D01*
X166008015Y-77254674D01*
X166008014Y-77254674D01*
X165997514Y-77357453D01*
X165997514Y-78157471D01*
X165997515Y-78157489D01*
X166008014Y-78260266D01*
X166008015Y-78260269D01*
X166063199Y-78426801D01*
X166063201Y-78426806D01*
X166070745Y-78439036D01*
X166155302Y-78576126D01*
X166279358Y-78700182D01*
X166428680Y-78792284D01*
X166595217Y-78847469D01*
X166698005Y-78857970D01*
X167698022Y-78857969D01*
X167698030Y-78857968D01*
X167698033Y-78857968D01*
X167754316Y-78852218D01*
X167800811Y-78847469D01*
X167967348Y-78792284D01*
X168116670Y-78700182D01*
X168116673Y-78700178D01*
X168118803Y-78698865D01*
X168186195Y-78680425D01*
X168252859Y-78701347D01*
X168297629Y-78754989D01*
X168307900Y-78804404D01*
X168307900Y-87211705D01*
X168307900Y-87211707D01*
X168307899Y-87211707D01*
X168332989Y-87337838D01*
X168332991Y-87337844D01*
X168382208Y-87456664D01*
X168453659Y-87563600D01*
X168453662Y-87563604D01*
X168453663Y-87563605D01*
X170068596Y-89178537D01*
X170068599Y-89178540D01*
X170166123Y-89243703D01*
X170168515Y-89245301D01*
X170175536Y-89249992D01*
X170294356Y-89299209D01*
X170294360Y-89299209D01*
X170294361Y-89299210D01*
X170420492Y-89324300D01*
X170420495Y-89324300D01*
X172118796Y-89324300D01*
X172148232Y-89332943D01*
X172178222Y-89339467D01*
X172183238Y-89343222D01*
X172185835Y-89343985D01*
X172206476Y-89360618D01*
X172259381Y-89413522D01*
X172292867Y-89474845D01*
X172295701Y-89501204D01*
X172295701Y-90967297D01*
X172276016Y-91034336D01*
X172223212Y-91080091D01*
X172154054Y-91090035D01*
X172128370Y-91083480D01*
X172086086Y-91067710D01*
X172086085Y-91067709D01*
X172086083Y-91067709D01*
X172026473Y-91061300D01*
X172026463Y-91061300D01*
X171330729Y-91061300D01*
X171330723Y-91061301D01*
X171271116Y-91067708D01*
X171136271Y-91118002D01*
X171136270Y-91118003D01*
X171117492Y-91132060D01*
X171052027Y-91156475D01*
X170983754Y-91141622D01*
X170968874Y-91132059D01*
X170950692Y-91118448D01*
X170950686Y-91118445D01*
X170815979Y-91068203D01*
X170815972Y-91068201D01*
X170756444Y-91061800D01*
X170658600Y-91061800D01*
X170658600Y-93411800D01*
X170756428Y-93411800D01*
X170756444Y-93411799D01*
X170815972Y-93405398D01*
X170815976Y-93405397D01*
X170950691Y-93355151D01*
X170968870Y-93341542D01*
X171034333Y-93317123D01*
X171102607Y-93331973D01*
X171117491Y-93341538D01*
X171135673Y-93355150D01*
X171136269Y-93355596D01*
X171136270Y-93355597D01*
X171208014Y-93382355D01*
X171271117Y-93405891D01*
X171330727Y-93412300D01*
X171530400Y-93412299D01*
X171551667Y-93418543D01*
X171573773Y-93420132D01*
X171593158Y-93430726D01*
X171597440Y-93431983D01*
X171604744Y-93437057D01*
X171772132Y-93562449D01*
X171785470Y-93574010D01*
X173587599Y-95376139D01*
X173675146Y-95434636D01*
X173682775Y-95439733D01*
X173682776Y-95439734D01*
X173682775Y-95439734D01*
X173694535Y-95447591D01*
X173694536Y-95447591D01*
X173694537Y-95447592D01*
X173813357Y-95496809D01*
X173813361Y-95496809D01*
X173813362Y-95496810D01*
X173939493Y-95521900D01*
X173939496Y-95521900D01*
X179916597Y-95521900D01*
X179983636Y-95541585D01*
X180004278Y-95558219D01*
X180565181Y-96119122D01*
X180598666Y-96180445D01*
X180601500Y-96206803D01*
X180601500Y-97568056D01*
X180581815Y-97635095D01*
X180580603Y-97636946D01*
X180545008Y-97690217D01*
X180545002Y-97690228D01*
X180484664Y-97835898D01*
X180484661Y-97835910D01*
X180453900Y-97990553D01*
X180453900Y-98148246D01*
X180484661Y-98302889D01*
X180484664Y-98302901D01*
X180545002Y-98448572D01*
X180545009Y-98448585D01*
X180632610Y-98579688D01*
X180632613Y-98579692D01*
X180744107Y-98691186D01*
X180744111Y-98691189D01*
X180875214Y-98778790D01*
X180875227Y-98778797D01*
X181020898Y-98839135D01*
X181020903Y-98839137D01*
X181175553Y-98869899D01*
X181175556Y-98869900D01*
X181175558Y-98869900D01*
X181333244Y-98869900D01*
X181333245Y-98869899D01*
X181487897Y-98839137D01*
X181633579Y-98778794D01*
X181764689Y-98691189D01*
X181876189Y-98579689D01*
X181963794Y-98448579D01*
X181966776Y-98441381D01*
X181990107Y-98385054D01*
X182024137Y-98302897D01*
X182054900Y-98148242D01*
X182054900Y-97990558D01*
X182054900Y-97990555D01*
X182054899Y-97990553D01*
X182044883Y-97940198D01*
X182024137Y-97835903D01*
X181994465Y-97764268D01*
X181963797Y-97690228D01*
X181963796Y-97690227D01*
X181963794Y-97690221D01*
X181928196Y-97636945D01*
X181907320Y-97570268D01*
X181907300Y-97568056D01*
X181907300Y-95820692D01*
X181882210Y-95694561D01*
X181882209Y-95694560D01*
X181882209Y-95694556D01*
X181839755Y-95592064D01*
X181832993Y-95575738D01*
X181832987Y-95575727D01*
X181811618Y-95543747D01*
X181811616Y-95543744D01*
X181761545Y-95468805D01*
X181761541Y-95468800D01*
X180654605Y-94361863D01*
X180654604Y-94361862D01*
X180654600Y-94361859D01*
X180547664Y-94290408D01*
X180481186Y-94262872D01*
X180428844Y-94241191D01*
X180428838Y-94241189D01*
X180302707Y-94216100D01*
X180302705Y-94216100D01*
X174325603Y-94216100D01*
X174258564Y-94196415D01*
X174237922Y-94179781D01*
X173660633Y-93602492D01*
X173627148Y-93541169D01*
X173632132Y-93471477D01*
X173674004Y-93415544D01*
X173739468Y-93391127D01*
X173791648Y-93398630D01*
X173811111Y-93405889D01*
X173811117Y-93405891D01*
X173870727Y-93412300D01*
X174566472Y-93412299D01*
X174626083Y-93405891D01*
X174645551Y-93398630D01*
X174760929Y-93355597D01*
X174760929Y-93355596D01*
X174760931Y-93355596D01*
X174779288Y-93341853D01*
X174844750Y-93317435D01*
X174913024Y-93332285D01*
X174927908Y-93341850D01*
X174933766Y-93346236D01*
X174946269Y-93355596D01*
X174946270Y-93355597D01*
X175018014Y-93382355D01*
X175081117Y-93405891D01*
X175140727Y-93412300D01*
X175836472Y-93412299D01*
X175896083Y-93405891D01*
X176030931Y-93355596D01*
X176049287Y-93341853D01*
X176114749Y-93317436D01*
X176183022Y-93332286D01*
X176197908Y-93341852D01*
X176216268Y-93355596D01*
X176216270Y-93355597D01*
X176261217Y-93372361D01*
X176351116Y-93405891D01*
X176410726Y-93412300D01*
X177106471Y-93412299D01*
X177166082Y-93405891D01*
X177185550Y-93398630D01*
X177300928Y-93355597D01*
X177300928Y-93355596D01*
X177300930Y-93355596D01*
X177319287Y-93341853D01*
X177384749Y-93317435D01*
X177453023Y-93332285D01*
X177467909Y-93341852D01*
X177485673Y-93355150D01*
X177486268Y-93355595D01*
X177486271Y-93355597D01*
X177531218Y-93372361D01*
X177621117Y-93405891D01*
X177680727Y-93412300D01*
X178376472Y-93412299D01*
X178436083Y-93405891D01*
X178455551Y-93398630D01*
X178570929Y-93355597D01*
X178570929Y-93355596D01*
X178570931Y-93355596D01*
X178589288Y-93341853D01*
X178654750Y-93317435D01*
X178723024Y-93332285D01*
X178737910Y-93341852D01*
X178755674Y-93355150D01*
X178756269Y-93355595D01*
X178756272Y-93355597D01*
X178801219Y-93372361D01*
X178891118Y-93405891D01*
X178950728Y-93412300D01*
X179646473Y-93412299D01*
X179706084Y-93405891D01*
X179840932Y-93355596D01*
X179956147Y-93269346D01*
X180042397Y-93154131D01*
X180092692Y-93019283D01*
X180099101Y-92959673D01*
X180099100Y-91763496D01*
X180118785Y-91696458D01*
X180171588Y-91650703D01*
X180240747Y-91640759D01*
X180304303Y-91669784D01*
X180310781Y-91675816D01*
X182370181Y-93735216D01*
X182403666Y-93796539D01*
X182406500Y-93822897D01*
X182406500Y-102646103D01*
X182386815Y-102713142D01*
X182370181Y-102733784D01*
X181245184Y-103858781D01*
X181183861Y-103892266D01*
X181157503Y-103895100D01*
X138653898Y-103895100D01*
X138586859Y-103875415D01*
X138566217Y-103858781D01*
X136095894Y-101388458D01*
X143159700Y-101388458D01*
X143159700Y-101617941D01*
X143173610Y-101723589D01*
X143189652Y-101845438D01*
X143228912Y-101991960D01*
X143249042Y-102067087D01*
X143336850Y-102279076D01*
X143336857Y-102279090D01*
X143451592Y-102477817D01*
X143591281Y-102659861D01*
X143591289Y-102659870D01*
X143753530Y-102822111D01*
X143753538Y-102822118D01*
X143935582Y-102961807D01*
X143935585Y-102961808D01*
X143935588Y-102961811D01*
X144134312Y-103076544D01*
X144134317Y-103076546D01*
X144134323Y-103076549D01*
X144225680Y-103114390D01*
X144346313Y-103164358D01*
X144567962Y-103223748D01*
X144795466Y-103253700D01*
X144795473Y-103253700D01*
X145024927Y-103253700D01*
X145024934Y-103253700D01*
X145252438Y-103223748D01*
X145474087Y-103164358D01*
X145686088Y-103076544D01*
X145884812Y-102961811D01*
X146066861Y-102822119D01*
X146066865Y-102822114D01*
X146066870Y-102822111D01*
X146229111Y-102659870D01*
X146229114Y-102659865D01*
X146229119Y-102659861D01*
X146368811Y-102477812D01*
X146483544Y-102279088D01*
X146571358Y-102067087D01*
X146630748Y-101845438D01*
X146660700Y-101617934D01*
X146660700Y-101388466D01*
X146658542Y-101372072D01*
X155109700Y-101372072D01*
X155109700Y-101634327D01*
X155136323Y-101836539D01*
X155143930Y-101894316D01*
X155170093Y-101991958D01*
X155211802Y-102147618D01*
X155211805Y-102147628D01*
X155312153Y-102389890D01*
X155312158Y-102389900D01*
X155443275Y-102617003D01*
X155602918Y-102825051D01*
X155602926Y-102825060D01*
X155788340Y-103010474D01*
X155788348Y-103010481D01*
X155996396Y-103170124D01*
X156223499Y-103301241D01*
X156223509Y-103301246D01*
X156465771Y-103401594D01*
X156465781Y-103401598D01*
X156719084Y-103469470D01*
X156979080Y-103503700D01*
X156979087Y-103503700D01*
X157241313Y-103503700D01*
X157241320Y-103503700D01*
X157501316Y-103469470D01*
X157754619Y-103401598D01*
X157996897Y-103301243D01*
X158224003Y-103170124D01*
X158432051Y-103010482D01*
X158432055Y-103010477D01*
X158432060Y-103010474D01*
X158617474Y-102825060D01*
X158617477Y-102825055D01*
X158617482Y-102825051D01*
X158777124Y-102617003D01*
X158908243Y-102389897D01*
X159008598Y-102147619D01*
X159076470Y-101894316D01*
X159110700Y-101634320D01*
X159110700Y-101372080D01*
X159076470Y-101112084D01*
X159008598Y-100858781D01*
X159008594Y-100858771D01*
X158908246Y-100616509D01*
X158908241Y-100616499D01*
X158777124Y-100389396D01*
X158617481Y-100181348D01*
X158617474Y-100181340D01*
X158432060Y-99995926D01*
X158432051Y-99995918D01*
X158224003Y-99836275D01*
X157996900Y-99705158D01*
X157996890Y-99705153D01*
X157754628Y-99604805D01*
X157754621Y-99604803D01*
X157754619Y-99604802D01*
X157501316Y-99536930D01*
X157443539Y-99529323D01*
X157241327Y-99502700D01*
X157241320Y-99502700D01*
X156979080Y-99502700D01*
X156979072Y-99502700D01*
X156747972Y-99533126D01*
X156719084Y-99536930D01*
X156491827Y-99597823D01*
X156465781Y-99604802D01*
X156465771Y-99604805D01*
X156223509Y-99705153D01*
X156223499Y-99705158D01*
X155996396Y-99836275D01*
X155788348Y-99995918D01*
X155602918Y-100181348D01*
X155443275Y-100389396D01*
X155312158Y-100616499D01*
X155312153Y-100616509D01*
X155211805Y-100858771D01*
X155211802Y-100858781D01*
X155195552Y-100919429D01*
X155143930Y-101112085D01*
X155109700Y-101372072D01*
X146658542Y-101372072D01*
X146630748Y-101160962D01*
X146571358Y-100939313D01*
X146508018Y-100786397D01*
X146483549Y-100727323D01*
X146483546Y-100727317D01*
X146483544Y-100727312D01*
X146368811Y-100528588D01*
X146368808Y-100528585D01*
X146368807Y-100528582D01*
X146229118Y-100346538D01*
X146229111Y-100346530D01*
X146066870Y-100184289D01*
X146066861Y-100184281D01*
X145884817Y-100044592D01*
X145686090Y-99929857D01*
X145686076Y-99929850D01*
X145474087Y-99842042D01*
X145452564Y-99836275D01*
X145252438Y-99782652D01*
X145214415Y-99777646D01*
X145024941Y-99752700D01*
X145024934Y-99752700D01*
X144795466Y-99752700D01*
X144795458Y-99752700D01*
X144578915Y-99781209D01*
X144567962Y-99782652D01*
X144474276Y-99807754D01*
X144346312Y-99842042D01*
X144134323Y-99929850D01*
X144134309Y-99929857D01*
X143935582Y-100044592D01*
X143753538Y-100184281D01*
X143591281Y-100346538D01*
X143451592Y-100528582D01*
X143336857Y-100727309D01*
X143336850Y-100727323D01*
X143249042Y-100939312D01*
X143189653Y-101160959D01*
X143189651Y-101160970D01*
X143159700Y-101388458D01*
X136095894Y-101388458D01*
X134862119Y-100154683D01*
X134828634Y-100093360D01*
X134825800Y-100067002D01*
X134825800Y-99686108D01*
X134845485Y-99619069D01*
X134889571Y-99580563D01*
X134888487Y-99578805D01*
X134894632Y-99575014D01*
X134894634Y-99575014D01*
X135043956Y-99482912D01*
X135168012Y-99358856D01*
X135260114Y-99209534D01*
X135315299Y-99042997D01*
X135325800Y-98940209D01*
X135325799Y-97940192D01*
X135321519Y-97898298D01*
X135315299Y-97837403D01*
X135315298Y-97837400D01*
X135291064Y-97764268D01*
X135260114Y-97670866D01*
X135168012Y-97521544D01*
X135043956Y-97397488D01*
X134937103Y-97331581D01*
X134894636Y-97305387D01*
X134894631Y-97305385D01*
X134857500Y-97293081D01*
X134728097Y-97250201D01*
X134728095Y-97250200D01*
X134625310Y-97239700D01*
X133825298Y-97239700D01*
X133825280Y-97239701D01*
X133722503Y-97250200D01*
X133722500Y-97250201D01*
X133555968Y-97305385D01*
X133555963Y-97305387D01*
X133406642Y-97397489D01*
X133312981Y-97491151D01*
X133251658Y-97524636D01*
X133181966Y-97519652D01*
X133137619Y-97491151D01*
X133043957Y-97397489D01*
X133043956Y-97397488D01*
X132937102Y-97331580D01*
X132890379Y-97279633D01*
X132878200Y-97226042D01*
X132878200Y-96733357D01*
X132897885Y-96666318D01*
X132937102Y-96627819D01*
X133043956Y-96561912D01*
X133137975Y-96467892D01*
X133199294Y-96434410D01*
X133268986Y-96439394D01*
X133313334Y-96467895D01*
X133406954Y-96561515D01*
X133556175Y-96653556D01*
X133556180Y-96653558D01*
X133722602Y-96708705D01*
X133722609Y-96708706D01*
X133825319Y-96719199D01*
X133975299Y-96719199D01*
X134475300Y-96719199D01*
X134625272Y-96719199D01*
X134625286Y-96719198D01*
X134727997Y-96708705D01*
X134894419Y-96653558D01*
X134894424Y-96653556D01*
X135043645Y-96561515D01*
X135167615Y-96437545D01*
X135259656Y-96288324D01*
X135259658Y-96288319D01*
X135314805Y-96121897D01*
X135314806Y-96121890D01*
X135325299Y-96019186D01*
X135325300Y-96019173D01*
X135325300Y-95769200D01*
X134475300Y-95769200D01*
X134475300Y-96719199D01*
X133975299Y-96719199D01*
X133975300Y-96719198D01*
X133975300Y-95269200D01*
X134475300Y-95269200D01*
X135325299Y-95269200D01*
X135325299Y-95019228D01*
X135325298Y-95019213D01*
X135314805Y-94916502D01*
X135259658Y-94750080D01*
X135259656Y-94750075D01*
X135167615Y-94600854D01*
X135043645Y-94476884D01*
X134894424Y-94384843D01*
X134894419Y-94384841D01*
X134727997Y-94329694D01*
X134727990Y-94329693D01*
X134625286Y-94319200D01*
X134475300Y-94319200D01*
X134475300Y-95269200D01*
X133975300Y-95269200D01*
X133975300Y-94319200D01*
X133825327Y-94319200D01*
X133825312Y-94319201D01*
X133722602Y-94329694D01*
X133556180Y-94384841D01*
X133556175Y-94384843D01*
X133406957Y-94476882D01*
X133313334Y-94570505D01*
X133252010Y-94603989D01*
X133182319Y-94599005D01*
X133137972Y-94570504D01*
X133043957Y-94476489D01*
X133043956Y-94476488D01*
X132937102Y-94410580D01*
X132890379Y-94358633D01*
X132878200Y-94305042D01*
X132878200Y-93894602D01*
X132886844Y-93865161D01*
X132893368Y-93835175D01*
X132897122Y-93830159D01*
X132897885Y-93827563D01*
X132914513Y-93806926D01*
X133075076Y-93646363D01*
X133136396Y-93612881D01*
X133206087Y-93617865D01*
X133225872Y-93627313D01*
X133289502Y-93664944D01*
X133305814Y-93669683D01*
X133447326Y-93710797D01*
X133447329Y-93710797D01*
X133447331Y-93710798D01*
X133484206Y-93713700D01*
X133484214Y-93713700D01*
X134790586Y-93713700D01*
X134790594Y-93713700D01*
X134827469Y-93710798D01*
X134827471Y-93710797D01*
X134827473Y-93710797D01*
X134869091Y-93698705D01*
X134985298Y-93664944D01*
X135126765Y-93581281D01*
X135242981Y-93465065D01*
X135326644Y-93323598D01*
X135372498Y-93165769D01*
X135375400Y-93128894D01*
X135375400Y-92892500D01*
X135395085Y-92825461D01*
X135447889Y-92779706D01*
X135499400Y-92768500D01*
X137072600Y-92768500D01*
X137081285Y-92771050D01*
X137090247Y-92769762D01*
X137114287Y-92780740D01*
X137139639Y-92788185D01*
X137145566Y-92795025D01*
X137153803Y-92798787D01*
X137168092Y-92821021D01*
X137185394Y-92840989D01*
X137187681Y-92851503D01*
X137191577Y-92857565D01*
X137196600Y-92892500D01*
X137196600Y-93084162D01*
X137176915Y-93151201D01*
X137137697Y-93189700D01*
X137093947Y-93216685D01*
X137093943Y-93216688D01*
X136969889Y-93340742D01*
X136877787Y-93490063D01*
X136877785Y-93490068D01*
X136856334Y-93554805D01*
X136822601Y-93656603D01*
X136822601Y-93656604D01*
X136822600Y-93656604D01*
X136812100Y-93759383D01*
X136812100Y-94759401D01*
X136812101Y-94759419D01*
X136822600Y-94862196D01*
X136822601Y-94862199D01*
X136862600Y-94982905D01*
X136877786Y-95028734D01*
X136969888Y-95178056D01*
X137093944Y-95302112D01*
X137196599Y-95365430D01*
X137221671Y-95380894D01*
X137268396Y-95432842D01*
X137279619Y-95501804D01*
X137251776Y-95565887D01*
X137221672Y-95591972D01*
X137119342Y-95655089D01*
X136995289Y-95779142D01*
X136903187Y-95928463D01*
X136903185Y-95928468D01*
X136889858Y-95968688D01*
X136848001Y-96095003D01*
X136848001Y-96095004D01*
X136848000Y-96095004D01*
X136837500Y-96197783D01*
X136837500Y-97197801D01*
X136837501Y-97197819D01*
X136848000Y-97300596D01*
X136848001Y-97300599D01*
X136898734Y-97453699D01*
X136903186Y-97467134D01*
X136995288Y-97616456D01*
X137119344Y-97740512D01*
X137188098Y-97782919D01*
X137234821Y-97834864D01*
X137247000Y-97888456D01*
X137247000Y-98179912D01*
X137227315Y-98246951D01*
X137174511Y-98292706D01*
X137166339Y-98296092D01*
X137159070Y-98298803D01*
X137159063Y-98298807D01*
X137043855Y-98385052D01*
X137043852Y-98385055D01*
X136957606Y-98500264D01*
X136957602Y-98500271D01*
X136907308Y-98635117D01*
X136901280Y-98691189D01*
X136900901Y-98694723D01*
X136900900Y-98694735D01*
X136900900Y-100390470D01*
X136900901Y-100390476D01*
X136907308Y-100450083D01*
X136957602Y-100584928D01*
X136957606Y-100584935D01*
X137043852Y-100700144D01*
X137043855Y-100700147D01*
X137159064Y-100786393D01*
X137159071Y-100786397D01*
X137293917Y-100836691D01*
X137293916Y-100836691D01*
X137300844Y-100837435D01*
X137353527Y-100843100D01*
X139049272Y-100843099D01*
X139108883Y-100836691D01*
X139243731Y-100786396D01*
X139358946Y-100700146D01*
X139445196Y-100584931D01*
X139495491Y-100450083D01*
X139501900Y-100390473D01*
X139501899Y-98694728D01*
X139495491Y-98635117D01*
X139489609Y-98619347D01*
X139445197Y-98500271D01*
X139445193Y-98500264D01*
X139358947Y-98385055D01*
X139358944Y-98385052D01*
X139243735Y-98298806D01*
X139243728Y-98298802D01*
X139108882Y-98248508D01*
X139108883Y-98248508D01*
X139049283Y-98242101D01*
X139049281Y-98242100D01*
X139049273Y-98242100D01*
X139049265Y-98242100D01*
X138753000Y-98242100D01*
X138744314Y-98239549D01*
X138735353Y-98240838D01*
X138711312Y-98229859D01*
X138685961Y-98222415D01*
X138680033Y-98215574D01*
X138671797Y-98211813D01*
X138657507Y-98189578D01*
X138640206Y-98169611D01*
X138637918Y-98159096D01*
X138634023Y-98153035D01*
X138629000Y-98118100D01*
X138629000Y-97888456D01*
X138648685Y-97821417D01*
X138687900Y-97782919D01*
X138756656Y-97740512D01*
X138850319Y-97646849D01*
X138911642Y-97613364D01*
X138981334Y-97618348D01*
X139025681Y-97646849D01*
X139119344Y-97740512D01*
X139268666Y-97832614D01*
X139435203Y-97887799D01*
X139537991Y-97898300D01*
X140338008Y-97898299D01*
X140338016Y-97898298D01*
X140338019Y-97898298D01*
X140394302Y-97892548D01*
X140440797Y-97887799D01*
X140607334Y-97832614D01*
X140756656Y-97740512D01*
X140880712Y-97616456D01*
X140972814Y-97467134D01*
X141027999Y-97300597D01*
X141038500Y-97197809D01*
X141038499Y-96588489D01*
X141058183Y-96521452D01*
X141110987Y-96475697D01*
X141180146Y-96465753D01*
X141243702Y-96494778D01*
X141269886Y-96526491D01*
X141293275Y-96567003D01*
X141452918Y-96775051D01*
X141452926Y-96775060D01*
X141638340Y-96960474D01*
X141638348Y-96960481D01*
X141846396Y-97120124D01*
X142073499Y-97251241D01*
X142073509Y-97251246D01*
X142315771Y-97351594D01*
X142315781Y-97351598D01*
X142569084Y-97419470D01*
X142829080Y-97453700D01*
X142829087Y-97453700D01*
X143091313Y-97453700D01*
X143091320Y-97453700D01*
X143351316Y-97419470D01*
X143604619Y-97351598D01*
X143846897Y-97251243D01*
X144074003Y-97120124D01*
X144282051Y-96960482D01*
X144282055Y-96960477D01*
X144282060Y-96960474D01*
X144467474Y-96775060D01*
X144467477Y-96775055D01*
X144467482Y-96775051D01*
X144627124Y-96567003D01*
X144758243Y-96339897D01*
X144858598Y-96097619D01*
X144926470Y-95844316D01*
X144960700Y-95584320D01*
X144960700Y-95322080D01*
X144926470Y-95062084D01*
X144858598Y-94808781D01*
X144838152Y-94759419D01*
X144758246Y-94566509D01*
X144758241Y-94566499D01*
X144627124Y-94339396D01*
X144467481Y-94131348D01*
X144467474Y-94131340D01*
X144282060Y-93945926D01*
X144282051Y-93945918D01*
X144074003Y-93786275D01*
X143846900Y-93655158D01*
X143846890Y-93655153D01*
X143604628Y-93554805D01*
X143604621Y-93554803D01*
X143604619Y-93554802D01*
X143351316Y-93486930D01*
X143293539Y-93479323D01*
X143091327Y-93452700D01*
X143091320Y-93452700D01*
X142829080Y-93452700D01*
X142829072Y-93452700D01*
X142597972Y-93483126D01*
X142569084Y-93486930D01*
X142315781Y-93554802D01*
X142315771Y-93554805D01*
X142073509Y-93655153D01*
X142073499Y-93655158D01*
X141846396Y-93786275D01*
X141638348Y-93945918D01*
X141452918Y-94131348D01*
X141293277Y-94339393D01*
X141244486Y-94423903D01*
X141193918Y-94472118D01*
X141125311Y-94485340D01*
X141060447Y-94459372D01*
X141019919Y-94402458D01*
X141013099Y-94361905D01*
X141013099Y-93759392D01*
X141010629Y-93735216D01*
X141002599Y-93656603D01*
X141002598Y-93656600D01*
X140977640Y-93581282D01*
X140947414Y-93490066D01*
X140855312Y-93340744D01*
X140731256Y-93216688D01*
X140640384Y-93160638D01*
X140593661Y-93108691D01*
X140582438Y-93039728D01*
X140610282Y-92975646D01*
X140668350Y-92936790D01*
X140705482Y-92931100D01*
X142590130Y-92931100D01*
X142590131Y-92931099D01*
X142784969Y-92892344D01*
X142968504Y-92816321D01*
X143133681Y-92705953D01*
X143274153Y-92565481D01*
X144567072Y-91272560D01*
X144628393Y-91239077D01*
X144670931Y-91237304D01*
X144795466Y-91253700D01*
X144795473Y-91253700D01*
X145024927Y-91253700D01*
X145024934Y-91253700D01*
X145252438Y-91223748D01*
X145474087Y-91164358D01*
X145686088Y-91076544D01*
X145884812Y-90961811D01*
X146066861Y-90822119D01*
X146066865Y-90822114D01*
X146066870Y-90822111D01*
X146229111Y-90659870D01*
X146229114Y-90659865D01*
X146229119Y-90659861D01*
X146368811Y-90477812D01*
X146483544Y-90279088D01*
X146571358Y-90067087D01*
X146630748Y-89845438D01*
X146660700Y-89617934D01*
X146660700Y-89388466D01*
X146654844Y-89343985D01*
X146653557Y-89334206D01*
X146651959Y-89322072D01*
X155159700Y-89322072D01*
X155159700Y-89584327D01*
X155172475Y-89681355D01*
X155193930Y-89844316D01*
X155243298Y-90028560D01*
X155261802Y-90097618D01*
X155261805Y-90097628D01*
X155362153Y-90339890D01*
X155362158Y-90339900D01*
X155493275Y-90567003D01*
X155652918Y-90775051D01*
X155652926Y-90775060D01*
X155838340Y-90960474D01*
X155838348Y-90960481D01*
X155838349Y-90960482D01*
X155886754Y-90997624D01*
X156046396Y-91120124D01*
X156273499Y-91251241D01*
X156273509Y-91251246D01*
X156515771Y-91351594D01*
X156515781Y-91351598D01*
X156769084Y-91419470D01*
X157029080Y-91453700D01*
X157029087Y-91453700D01*
X157291313Y-91453700D01*
X157291320Y-91453700D01*
X157551316Y-91419470D01*
X157804619Y-91351598D01*
X157981540Y-91278314D01*
X158046890Y-91251246D01*
X158046891Y-91251245D01*
X158046897Y-91251243D01*
X158274003Y-91120124D01*
X158482051Y-90960482D01*
X158482055Y-90960477D01*
X158482060Y-90960474D01*
X158667474Y-90775060D01*
X158667477Y-90775055D01*
X158667482Y-90775051D01*
X158827124Y-90567003D01*
X158958243Y-90339897D01*
X159058598Y-90097619D01*
X159126470Y-89844316D01*
X159160700Y-89584320D01*
X159160700Y-89322080D01*
X159126470Y-89062084D01*
X159058598Y-88808781D01*
X159024857Y-88727323D01*
X158958246Y-88566509D01*
X158958241Y-88566499D01*
X158827124Y-88339396D01*
X158667481Y-88131348D01*
X158667474Y-88131340D01*
X158482060Y-87945926D01*
X158482051Y-87945918D01*
X158274003Y-87786275D01*
X158046900Y-87655158D01*
X158046890Y-87655153D01*
X157804628Y-87554805D01*
X157804621Y-87554803D01*
X157804619Y-87554802D01*
X157551316Y-87486930D01*
X157493539Y-87479323D01*
X157291327Y-87452700D01*
X157291320Y-87452700D01*
X157029080Y-87452700D01*
X157029072Y-87452700D01*
X156797972Y-87483126D01*
X156769084Y-87486930D01*
X156515781Y-87554802D01*
X156515771Y-87554805D01*
X156273509Y-87655153D01*
X156273499Y-87655158D01*
X156046396Y-87786275D01*
X155838348Y-87945918D01*
X155652918Y-88131348D01*
X155493275Y-88339396D01*
X155362158Y-88566499D01*
X155362153Y-88566509D01*
X155261805Y-88808771D01*
X155261802Y-88808781D01*
X155213525Y-88988956D01*
X155193930Y-89062085D01*
X155159700Y-89322072D01*
X146651959Y-89322072D01*
X146642469Y-89249991D01*
X146630748Y-89160962D01*
X146571358Y-88939313D01*
X146483544Y-88727312D01*
X146368811Y-88528588D01*
X146368808Y-88528585D01*
X146368807Y-88528582D01*
X146229118Y-88346538D01*
X146229111Y-88346530D01*
X146066870Y-88184289D01*
X146066861Y-88184281D01*
X145884817Y-88044592D01*
X145686090Y-87929857D01*
X145686076Y-87929850D01*
X145474087Y-87842042D01*
X145252438Y-87782652D01*
X145214415Y-87777646D01*
X145024941Y-87752700D01*
X145024934Y-87752700D01*
X144795466Y-87752700D01*
X144795458Y-87752700D01*
X144578915Y-87781209D01*
X144567962Y-87782652D01*
X144474276Y-87807754D01*
X144346312Y-87842042D01*
X144134323Y-87929850D01*
X144134309Y-87929857D01*
X143935582Y-88044592D01*
X143753538Y-88184281D01*
X143591281Y-88346538D01*
X143451592Y-88528582D01*
X143336857Y-88727309D01*
X143336850Y-88727323D01*
X143249042Y-88939312D01*
X143249042Y-88939313D01*
X143201943Y-89115093D01*
X143189653Y-89160959D01*
X143189651Y-89160970D01*
X143159700Y-89388458D01*
X143159700Y-89617927D01*
X143159701Y-89617944D01*
X143176094Y-89742462D01*
X143165328Y-89811497D01*
X143140836Y-89846328D01*
X142109385Y-90877781D01*
X142048062Y-90911266D01*
X142021704Y-90914100D01*
X139066151Y-90914100D01*
X138999112Y-90894415D01*
X138993266Y-90890418D01*
X138883013Y-90810315D01*
X138883012Y-90810314D01*
X138883010Y-90810313D01*
X138785665Y-90760713D01*
X138700623Y-90717381D01*
X138505934Y-90654122D01*
X138331395Y-90626478D01*
X138303752Y-90622100D01*
X138099048Y-90622100D01*
X138074729Y-90625951D01*
X137896865Y-90654122D01*
X137702176Y-90717381D01*
X137519786Y-90810315D01*
X137354186Y-90930628D01*
X137209434Y-91075380D01*
X137186618Y-91106785D01*
X137131288Y-91149451D01*
X137086299Y-91157900D01*
X132183084Y-91157900D01*
X132170930Y-91160317D01*
X132146741Y-91162700D01*
X131609197Y-91162700D01*
X131572331Y-91165601D01*
X131572325Y-91165602D01*
X131414505Y-91211454D01*
X131414502Y-91211455D01*
X131273036Y-91295117D01*
X131273028Y-91295123D01*
X131156822Y-91411329D01*
X131156816Y-91411337D01*
X131073154Y-91552803D01*
X131073153Y-91552806D01*
X131027301Y-91710626D01*
X131027300Y-91710632D01*
X131024399Y-91747498D01*
X130360379Y-91747498D01*
X130360379Y-90763198D01*
X132902604Y-90763198D01*
X132902605Y-90763200D01*
X133887400Y-90763200D01*
X134387400Y-90763200D01*
X135372195Y-90763200D01*
X135372195Y-90763198D01*
X135372000Y-90760713D01*
X135326181Y-90603001D01*
X135242585Y-90461647D01*
X135242578Y-90461638D01*
X135126461Y-90345521D01*
X135126452Y-90345514D01*
X134985096Y-90261917D01*
X134985093Y-90261916D01*
X134827395Y-90216100D01*
X134827389Y-90216099D01*
X134790549Y-90213200D01*
X134387400Y-90213200D01*
X134387400Y-90763200D01*
X133887400Y-90763200D01*
X133887400Y-90213200D01*
X133484250Y-90213200D01*
X133447410Y-90216099D01*
X133447404Y-90216100D01*
X133289706Y-90261916D01*
X133289703Y-90261917D01*
X133148347Y-90345514D01*
X133148338Y-90345521D01*
X133032221Y-90461638D01*
X133032214Y-90461647D01*
X132948618Y-90603001D01*
X132902799Y-90760713D01*
X132902604Y-90763198D01*
X130360379Y-90763198D01*
X130360379Y-72265698D01*
X131227599Y-72265698D01*
X131227599Y-72697101D01*
X131230500Y-72733967D01*
X131230501Y-72733973D01*
X131276353Y-72891793D01*
X131276354Y-72891796D01*
X131360016Y-73033262D01*
X131360022Y-73033270D01*
X131476228Y-73149476D01*
X131476232Y-73149479D01*
X131476234Y-73149481D01*
X131617701Y-73233144D01*
X131659323Y-73245236D01*
X131775525Y-73278997D01*
X131775528Y-73278997D01*
X131775530Y-73278998D01*
X131812405Y-73281900D01*
X132251596Y-73281900D01*
X132318635Y-73301585D01*
X132364390Y-73354389D01*
X132374334Y-73423547D01*
X132345309Y-73487103D01*
X132339277Y-73493581D01*
X131919060Y-73913798D01*
X131847607Y-74020737D01*
X131798391Y-74139555D01*
X131798389Y-74139561D01*
X131773300Y-74265692D01*
X131773300Y-75194042D01*
X131753615Y-75261081D01*
X131714397Y-75299581D01*
X131607542Y-75365489D01*
X131483489Y-75489542D01*
X131391387Y-75638863D01*
X131391385Y-75638868D01*
X131384123Y-75660783D01*
X131336201Y-75805403D01*
X131336201Y-75805404D01*
X131336200Y-75805404D01*
X131325700Y-75908183D01*
X131325700Y-76908201D01*
X131325701Y-76908219D01*
X131336200Y-77010996D01*
X131336201Y-77010999D01*
X131354659Y-77066700D01*
X131391386Y-77177534D01*
X131483296Y-77326545D01*
X131483489Y-77326857D01*
X131607545Y-77450913D01*
X131607548Y-77450915D01*
X131688995Y-77501151D01*
X131735721Y-77553098D01*
X131747900Y-77606690D01*
X131747900Y-78140442D01*
X131728215Y-78207481D01*
X131688997Y-78245981D01*
X131582142Y-78311889D01*
X131458089Y-78435942D01*
X131365987Y-78585263D01*
X131365985Y-78585268D01*
X131342295Y-78656761D01*
X131310801Y-78751803D01*
X131310801Y-78751804D01*
X131310800Y-78751804D01*
X131300300Y-78854583D01*
X131300300Y-79854601D01*
X131300301Y-79854619D01*
X131310800Y-79957396D01*
X131310801Y-79957399D01*
X131348704Y-80071781D01*
X131365986Y-80123934D01*
X131458088Y-80273256D01*
X131582144Y-80397312D01*
X131731466Y-80489414D01*
X131898003Y-80544599D01*
X132000791Y-80555100D01*
X132800808Y-80555099D01*
X132800816Y-80555098D01*
X132800819Y-80555098D01*
X132857102Y-80549348D01*
X132903597Y-80544599D01*
X133070134Y-80489414D01*
X133219456Y-80397312D01*
X133313119Y-80303649D01*
X133374442Y-80270164D01*
X133444134Y-80275148D01*
X133488481Y-80303649D01*
X133582144Y-80397312D01*
X133623233Y-80422656D01*
X133699396Y-80469633D01*
X133746121Y-80521581D01*
X133758300Y-80575172D01*
X133758300Y-83142105D01*
X133774655Y-83224325D01*
X133783391Y-83268244D01*
X133832608Y-83387064D01*
X133868301Y-83440483D01*
X133904062Y-83494004D01*
X133904063Y-83494005D01*
X136057997Y-85647938D01*
X136057998Y-85647939D01*
X136058001Y-85647941D01*
X136164937Y-85719393D01*
X136234540Y-85748223D01*
X136283756Y-85768609D01*
X136283760Y-85768609D01*
X136283761Y-85768610D01*
X136409892Y-85793700D01*
X136409895Y-85793700D01*
X136538505Y-85793700D01*
X150964095Y-85793700D01*
X162619197Y-85793700D01*
X162686236Y-85813385D01*
X162706878Y-85830019D01*
X163877381Y-87000521D01*
X163910866Y-87061844D01*
X163913700Y-87088202D01*
X163913700Y-92799705D01*
X163913700Y-92799707D01*
X163913699Y-92799707D01*
X163924003Y-92851503D01*
X163932160Y-92892509D01*
X163938791Y-92925844D01*
X163988008Y-93044664D01*
X164059459Y-93151600D01*
X164059462Y-93151604D01*
X164059463Y-93151605D01*
X166080795Y-95172936D01*
X166080798Y-95172939D01*
X166166507Y-95230208D01*
X166166508Y-95230208D01*
X166173616Y-95234957D01*
X166187735Y-95244392D01*
X166236952Y-95264777D01*
X166306556Y-95293609D01*
X166306560Y-95293609D01*
X166306561Y-95293610D01*
X166432692Y-95318700D01*
X166432695Y-95318700D01*
X168943797Y-95318700D01*
X169010836Y-95338385D01*
X169031478Y-95355019D01*
X169719381Y-96042921D01*
X169752866Y-96104244D01*
X169755700Y-96130602D01*
X169755700Y-96506776D01*
X169736015Y-96573815D01*
X169730967Y-96581087D01*
X169664803Y-96669469D01*
X169664802Y-96669471D01*
X169614508Y-96804317D01*
X169608101Y-96863916D01*
X169608101Y-96863923D01*
X169608100Y-96863935D01*
X169608100Y-98309670D01*
X169608101Y-98309676D01*
X169614508Y-98369283D01*
X169664802Y-98504128D01*
X169664806Y-98504135D01*
X169751052Y-98619344D01*
X169751055Y-98619347D01*
X169866264Y-98705593D01*
X169866271Y-98705597D01*
X169911218Y-98722361D01*
X170001117Y-98755891D01*
X170060727Y-98762300D01*
X170756472Y-98762299D01*
X170816083Y-98755891D01*
X170842149Y-98746169D01*
X170950929Y-98705597D01*
X170950929Y-98705596D01*
X170950931Y-98705596D01*
X170969288Y-98691853D01*
X171034750Y-98667435D01*
X171103024Y-98682285D01*
X171117908Y-98691850D01*
X171121753Y-98694729D01*
X171136269Y-98705596D01*
X171136270Y-98705597D01*
X171210755Y-98733377D01*
X171271117Y-98755891D01*
X171330727Y-98762300D01*
X172026472Y-98762299D01*
X172086083Y-98755891D01*
X172112149Y-98746169D01*
X172220929Y-98705597D01*
X172220929Y-98705596D01*
X172220931Y-98705596D01*
X172239288Y-98691853D01*
X172304750Y-98667435D01*
X172373024Y-98682285D01*
X172387908Y-98691850D01*
X172391753Y-98694729D01*
X172406269Y-98705596D01*
X172406270Y-98705597D01*
X172480755Y-98733377D01*
X172541117Y-98755891D01*
X172600727Y-98762300D01*
X173296472Y-98762299D01*
X173356083Y-98755891D01*
X173382149Y-98746169D01*
X173490929Y-98705597D01*
X173490929Y-98705596D01*
X173490931Y-98705596D01*
X173509288Y-98691853D01*
X173574750Y-98667435D01*
X173643024Y-98682285D01*
X173657908Y-98691850D01*
X173661753Y-98694729D01*
X173676269Y-98705596D01*
X173676270Y-98705597D01*
X173750755Y-98733377D01*
X173811117Y-98755891D01*
X173870727Y-98762300D01*
X174566472Y-98762299D01*
X174626083Y-98755891D01*
X174652149Y-98746169D01*
X174760929Y-98705597D01*
X174760929Y-98705596D01*
X174760931Y-98705596D01*
X174779288Y-98691853D01*
X174844750Y-98667435D01*
X174913024Y-98682285D01*
X174927908Y-98691850D01*
X174931753Y-98694729D01*
X174946269Y-98705596D01*
X174946270Y-98705597D01*
X175020755Y-98733377D01*
X175081117Y-98755891D01*
X175140727Y-98762300D01*
X175836472Y-98762299D01*
X175896083Y-98755891D01*
X175922149Y-98746169D01*
X176030929Y-98705597D01*
X176030929Y-98705596D01*
X176030931Y-98705596D01*
X176049288Y-98691853D01*
X176114750Y-98667435D01*
X176183024Y-98682285D01*
X176197908Y-98691850D01*
X176201753Y-98694729D01*
X176216269Y-98705596D01*
X176216270Y-98705597D01*
X176290755Y-98733377D01*
X176351117Y-98755891D01*
X176410727Y-98762300D01*
X177106472Y-98762299D01*
X177166083Y-98755891D01*
X177192149Y-98746169D01*
X177300929Y-98705597D01*
X177300929Y-98705596D01*
X177300931Y-98705596D01*
X177319288Y-98691853D01*
X177384750Y-98667435D01*
X177453024Y-98682285D01*
X177467908Y-98691850D01*
X177471753Y-98694729D01*
X177486269Y-98705596D01*
X177486270Y-98705597D01*
X177560755Y-98733377D01*
X177621117Y-98755891D01*
X177680727Y-98762300D01*
X178376472Y-98762299D01*
X178436083Y-98755891D01*
X178448781Y-98751155D01*
X178518472Y-98746169D01*
X178579796Y-98779654D01*
X178613282Y-98840976D01*
X178608298Y-98910668D01*
X178606679Y-98914783D01*
X178601165Y-98928095D01*
X178601161Y-98928110D01*
X178570400Y-99082753D01*
X178570400Y-99240446D01*
X178601161Y-99395089D01*
X178601164Y-99395101D01*
X178661502Y-99540772D01*
X178661509Y-99540785D01*
X178749110Y-99671888D01*
X178749113Y-99671892D01*
X178860607Y-99783386D01*
X178860611Y-99783389D01*
X178991714Y-99870990D01*
X178991727Y-99870997D01*
X179133830Y-99929857D01*
X179137403Y-99931337D01*
X179287956Y-99961284D01*
X179292053Y-99962099D01*
X179292056Y-99962100D01*
X179292058Y-99962100D01*
X179449744Y-99962100D01*
X179449745Y-99962099D01*
X179604397Y-99931337D01*
X179750079Y-99870994D01*
X179881189Y-99783389D01*
X179992689Y-99671889D01*
X180080294Y-99540779D01*
X180140637Y-99395097D01*
X180171400Y-99240442D01*
X180171400Y-99082758D01*
X180171400Y-99082755D01*
X180171399Y-99082753D01*
X180163491Y-99042996D01*
X180140637Y-98928103D01*
X180080294Y-98782421D01*
X180077963Y-98776793D01*
X180078867Y-98776418D01*
X180065800Y-98724244D01*
X180065800Y-98463753D01*
X180073619Y-98420419D01*
X180092688Y-98369291D01*
X180092687Y-98369291D01*
X180092691Y-98369283D01*
X180099100Y-98309673D01*
X180099099Y-96863928D01*
X180092691Y-96804317D01*
X180081775Y-96775051D01*
X180042397Y-96669471D01*
X180042393Y-96669464D01*
X179956147Y-96554255D01*
X179956144Y-96554252D01*
X179840935Y-96468006D01*
X179840928Y-96468002D01*
X179706086Y-96417710D01*
X179706085Y-96417709D01*
X179706083Y-96417709D01*
X179646473Y-96411300D01*
X179646463Y-96411300D01*
X178950729Y-96411300D01*
X178950723Y-96411301D01*
X178891116Y-96417708D01*
X178756271Y-96468002D01*
X178756265Y-96468005D01*
X178737909Y-96481747D01*
X178672444Y-96506163D01*
X178604171Y-96491310D01*
X178589291Y-96481747D01*
X178570934Y-96468005D01*
X178570928Y-96468002D01*
X178436086Y-96417710D01*
X178436085Y-96417709D01*
X178436083Y-96417709D01*
X178376473Y-96411300D01*
X178376463Y-96411300D01*
X177680729Y-96411300D01*
X177680723Y-96411301D01*
X177621116Y-96417708D01*
X177486271Y-96468002D01*
X177486265Y-96468005D01*
X177467909Y-96481747D01*
X177402444Y-96506163D01*
X177334171Y-96491310D01*
X177319291Y-96481747D01*
X177300934Y-96468005D01*
X177300928Y-96468002D01*
X177166086Y-96417710D01*
X177166085Y-96417709D01*
X177166083Y-96417709D01*
X177106473Y-96411300D01*
X177106463Y-96411300D01*
X176410729Y-96411300D01*
X176410723Y-96411301D01*
X176351116Y-96417708D01*
X176216271Y-96468002D01*
X176216265Y-96468005D01*
X176197909Y-96481747D01*
X176132444Y-96506163D01*
X176064171Y-96491310D01*
X176049291Y-96481747D01*
X176030934Y-96468005D01*
X176030928Y-96468002D01*
X175896086Y-96417710D01*
X175896085Y-96417709D01*
X175896083Y-96417709D01*
X175836473Y-96411300D01*
X175836463Y-96411300D01*
X175140729Y-96411300D01*
X175140723Y-96411301D01*
X175081116Y-96417708D01*
X174946271Y-96468002D01*
X174946265Y-96468005D01*
X174927909Y-96481747D01*
X174862444Y-96506163D01*
X174794171Y-96491310D01*
X174779291Y-96481747D01*
X174760934Y-96468005D01*
X174760928Y-96468002D01*
X174626086Y-96417710D01*
X174626085Y-96417709D01*
X174626083Y-96417709D01*
X174566473Y-96411300D01*
X174566463Y-96411300D01*
X173870729Y-96411300D01*
X173870723Y-96411301D01*
X173811116Y-96417708D01*
X173676271Y-96468002D01*
X173676265Y-96468005D01*
X173657909Y-96481747D01*
X173592444Y-96506163D01*
X173524171Y-96491310D01*
X173509291Y-96481747D01*
X173490934Y-96468005D01*
X173490928Y-96468002D01*
X173356086Y-96417710D01*
X173356085Y-96417709D01*
X173356083Y-96417709D01*
X173296473Y-96411300D01*
X173296463Y-96411300D01*
X172600729Y-96411300D01*
X172600723Y-96411301D01*
X172541116Y-96417708D01*
X172406271Y-96468002D01*
X172406265Y-96468005D01*
X172387909Y-96481747D01*
X172322444Y-96506163D01*
X172254171Y-96491310D01*
X172239291Y-96481747D01*
X172220934Y-96468005D01*
X172220928Y-96468002D01*
X172086086Y-96417710D01*
X172086085Y-96417709D01*
X172086083Y-96417709D01*
X172026473Y-96411300D01*
X172026463Y-96411300D01*
X171330729Y-96411300D01*
X171330723Y-96411301D01*
X171271114Y-96417709D01*
X171228832Y-96433479D01*
X171159140Y-96438463D01*
X171097817Y-96404977D01*
X171064333Y-96343653D01*
X171061500Y-96317297D01*
X171061500Y-95744492D01*
X171036410Y-95618361D01*
X171036409Y-95618360D01*
X171036409Y-95618356D01*
X170987192Y-95499536D01*
X170985370Y-95496809D01*
X170915740Y-95392600D01*
X170915738Y-95392597D01*
X170915737Y-95392596D01*
X169681805Y-94158663D01*
X169681804Y-94158662D01*
X169681800Y-94158659D01*
X169574864Y-94087208D01*
X169456044Y-94037991D01*
X169456038Y-94037989D01*
X169329907Y-94012900D01*
X169329905Y-94012900D01*
X166818802Y-94012900D01*
X166751763Y-93993215D01*
X166731121Y-93976581D01*
X165714185Y-92959644D01*
X169608600Y-92959644D01*
X169615001Y-93019172D01*
X169615003Y-93019179D01*
X169665245Y-93153886D01*
X169665249Y-93153893D01*
X169751409Y-93268987D01*
X169751412Y-93268990D01*
X169866506Y-93355150D01*
X169866513Y-93355154D01*
X170001220Y-93405396D01*
X170001227Y-93405398D01*
X170060755Y-93411799D01*
X170060772Y-93411800D01*
X170158600Y-93411800D01*
X170158600Y-92486800D01*
X169608600Y-92486800D01*
X169608600Y-92959644D01*
X165714185Y-92959644D01*
X165277660Y-92523119D01*
X165255819Y-92501278D01*
X165222334Y-92439955D01*
X165219500Y-92413597D01*
X165219500Y-91513955D01*
X169608600Y-91513955D01*
X169608600Y-91986800D01*
X170158600Y-91986800D01*
X170158600Y-91061800D01*
X170060755Y-91061800D01*
X170001227Y-91068201D01*
X170001220Y-91068203D01*
X169866513Y-91118445D01*
X169866506Y-91118449D01*
X169751412Y-91204609D01*
X169751409Y-91204612D01*
X169665249Y-91319706D01*
X169665245Y-91319713D01*
X169615003Y-91454420D01*
X169615001Y-91454427D01*
X169608600Y-91513955D01*
X165219500Y-91513955D01*
X165219500Y-86702092D01*
X165194410Y-86575961D01*
X165194409Y-86575960D01*
X165194409Y-86575956D01*
X165160669Y-86494501D01*
X165145193Y-86457137D01*
X165073741Y-86350201D01*
X165073739Y-86350198D01*
X165073738Y-86350197D01*
X163357205Y-84633663D01*
X163357204Y-84633662D01*
X163357200Y-84633659D01*
X163250264Y-84562208D01*
X163131444Y-84512991D01*
X163131438Y-84512989D01*
X163005307Y-84487900D01*
X163005305Y-84487900D01*
X151092705Y-84487900D01*
X136796002Y-84487900D01*
X136728963Y-84468215D01*
X136708321Y-84451581D01*
X135100419Y-82843678D01*
X135066934Y-82782355D01*
X135064100Y-82755997D01*
X135064100Y-81881258D01*
X143108900Y-81881258D01*
X143108900Y-82110741D01*
X143124960Y-82232720D01*
X143138852Y-82338238D01*
X143138853Y-82338240D01*
X143198242Y-82559887D01*
X143286050Y-82771876D01*
X143286057Y-82771890D01*
X143400792Y-82970617D01*
X143540481Y-83152661D01*
X143540489Y-83152670D01*
X143702730Y-83314911D01*
X143702738Y-83314918D01*
X143884782Y-83454607D01*
X143884785Y-83454608D01*
X143884788Y-83454611D01*
X144083512Y-83569344D01*
X144083517Y-83569346D01*
X144083523Y-83569349D01*
X144174880Y-83607190D01*
X144295513Y-83657158D01*
X144517162Y-83716548D01*
X144744666Y-83746500D01*
X144744673Y-83746500D01*
X144974127Y-83746500D01*
X144974134Y-83746500D01*
X145201638Y-83716548D01*
X145423287Y-83657158D01*
X145635288Y-83569344D01*
X145834012Y-83454611D01*
X146016061Y-83314919D01*
X146016065Y-83314914D01*
X146016070Y-83314911D01*
X146178311Y-83152670D01*
X146178314Y-83152665D01*
X146178319Y-83152661D01*
X146318011Y-82970612D01*
X146432744Y-82771888D01*
X146520558Y-82559887D01*
X146579948Y-82338238D01*
X146609900Y-82110734D01*
X146609900Y-81881266D01*
X146607742Y-81864872D01*
X155058900Y-81864872D01*
X155058900Y-82127127D01*
X155072803Y-82232721D01*
X155093130Y-82387116D01*
X155161002Y-82640418D01*
X155161005Y-82640428D01*
X155261353Y-82882690D01*
X155261358Y-82882700D01*
X155392475Y-83109803D01*
X155552118Y-83317851D01*
X155552126Y-83317860D01*
X155737540Y-83503274D01*
X155737548Y-83503281D01*
X155737549Y-83503282D01*
X155785954Y-83540424D01*
X155945596Y-83662924D01*
X156172699Y-83794041D01*
X156172709Y-83794046D01*
X156414971Y-83894394D01*
X156414981Y-83894398D01*
X156668284Y-83962270D01*
X156928280Y-83996500D01*
X156928287Y-83996500D01*
X157190513Y-83996500D01*
X157190520Y-83996500D01*
X157450516Y-83962270D01*
X157703819Y-83894398D01*
X157946097Y-83794043D01*
X158173203Y-83662924D01*
X158381251Y-83503282D01*
X158381255Y-83503277D01*
X158381260Y-83503274D01*
X158566674Y-83317860D01*
X158566677Y-83317855D01*
X158566682Y-83317851D01*
X158726324Y-83109803D01*
X158857443Y-82882697D01*
X158957798Y-82640419D01*
X159025670Y-82387116D01*
X159059900Y-82127120D01*
X159059900Y-81864880D01*
X159025670Y-81604884D01*
X158957798Y-81351581D01*
X158955171Y-81345239D01*
X158857446Y-81109309D01*
X158857441Y-81109299D01*
X158726324Y-80882196D01*
X158566681Y-80674148D01*
X158566674Y-80674140D01*
X158381260Y-80488726D01*
X158381251Y-80488718D01*
X158173203Y-80329075D01*
X157946100Y-80197958D01*
X157946090Y-80197953D01*
X157703828Y-80097605D01*
X157703821Y-80097603D01*
X157703819Y-80097602D01*
X157450516Y-80029730D01*
X157392739Y-80022123D01*
X157190527Y-79995500D01*
X157190520Y-79995500D01*
X156928280Y-79995500D01*
X156928272Y-79995500D01*
X156697172Y-80025926D01*
X156668284Y-80029730D01*
X156511347Y-80071781D01*
X156414981Y-80097602D01*
X156414971Y-80097605D01*
X156172709Y-80197953D01*
X156172699Y-80197958D01*
X155945596Y-80329075D01*
X155737548Y-80488718D01*
X155552118Y-80674148D01*
X155392475Y-80882196D01*
X155261358Y-81109299D01*
X155261353Y-81109309D01*
X155161005Y-81351571D01*
X155161002Y-81351581D01*
X155097919Y-81587013D01*
X155093130Y-81604885D01*
X155058900Y-81864872D01*
X146607742Y-81864872D01*
X146579948Y-81653762D01*
X146520558Y-81432113D01*
X146445181Y-81250137D01*
X146432749Y-81220123D01*
X146432746Y-81220117D01*
X146432744Y-81220112D01*
X146318011Y-81021388D01*
X146318008Y-81021385D01*
X146318007Y-81021382D01*
X146178318Y-80839338D01*
X146178311Y-80839330D01*
X146016070Y-80677089D01*
X146016061Y-80677081D01*
X145834017Y-80537392D01*
X145635290Y-80422657D01*
X145635276Y-80422650D01*
X145423287Y-80334842D01*
X145401764Y-80329075D01*
X145201638Y-80275452D01*
X145161472Y-80270164D01*
X144974141Y-80245500D01*
X144974134Y-80245500D01*
X144744666Y-80245500D01*
X144744658Y-80245500D01*
X144533842Y-80273256D01*
X144517162Y-80275452D01*
X144423476Y-80300554D01*
X144295512Y-80334842D01*
X144083523Y-80422650D01*
X144083509Y-80422657D01*
X143884782Y-80537392D01*
X143702738Y-80677081D01*
X143540481Y-80839338D01*
X143400792Y-81021382D01*
X143286057Y-81220109D01*
X143286050Y-81220123D01*
X143198242Y-81432112D01*
X143197718Y-81434067D01*
X143140655Y-81647035D01*
X143138853Y-81653759D01*
X143138851Y-81653770D01*
X143108900Y-81881258D01*
X135064100Y-81881258D01*
X135064100Y-80562342D01*
X135083785Y-80495303D01*
X135123002Y-80456804D01*
X135219456Y-80397312D01*
X135343512Y-80273256D01*
X135435614Y-80123934D01*
X135490799Y-79957397D01*
X135501300Y-79854609D01*
X135501299Y-78854592D01*
X135500571Y-78847469D01*
X135490799Y-78751803D01*
X135490798Y-78751800D01*
X135483238Y-78728985D01*
X135435614Y-78585266D01*
X135343512Y-78435944D01*
X135219456Y-78311888D01*
X135099849Y-78238114D01*
X135070136Y-78219787D01*
X135070131Y-78219785D01*
X135033000Y-78207481D01*
X134903597Y-78164601D01*
X134903595Y-78164600D01*
X134800810Y-78154100D01*
X134000798Y-78154100D01*
X134000780Y-78154101D01*
X133898003Y-78164600D01*
X133898000Y-78164601D01*
X133731468Y-78219785D01*
X133731463Y-78219787D01*
X133582142Y-78311889D01*
X133488481Y-78405551D01*
X133427158Y-78439036D01*
X133357466Y-78434052D01*
X133313119Y-78405551D01*
X133219457Y-78311889D01*
X133219456Y-78311888D01*
X133112602Y-78245980D01*
X133065879Y-78194033D01*
X133053700Y-78140442D01*
X133053700Y-77638024D01*
X133073385Y-77570985D01*
X133112604Y-77532485D01*
X133244856Y-77450912D01*
X133338875Y-77356892D01*
X133400194Y-77323410D01*
X133469886Y-77328394D01*
X133514234Y-77356895D01*
X133607854Y-77450515D01*
X133757075Y-77542556D01*
X133757080Y-77542558D01*
X133923502Y-77597705D01*
X133923509Y-77597706D01*
X134026219Y-77608199D01*
X134176199Y-77608199D01*
X134676200Y-77608199D01*
X134826172Y-77608199D01*
X134826186Y-77608198D01*
X134928897Y-77597705D01*
X135095319Y-77542558D01*
X135095324Y-77542556D01*
X135244545Y-77450515D01*
X135368515Y-77326545D01*
X135460556Y-77177324D01*
X135460558Y-77177319D01*
X135515705Y-77010897D01*
X135515706Y-77010890D01*
X135526199Y-76908186D01*
X135526200Y-76908173D01*
X135526200Y-76658200D01*
X134676200Y-76658200D01*
X134676200Y-77608199D01*
X134176199Y-77608199D01*
X134176200Y-77608198D01*
X134176200Y-76158200D01*
X134676200Y-76158200D01*
X135526199Y-76158200D01*
X135526199Y-75908228D01*
X135526198Y-75908213D01*
X135515705Y-75805502D01*
X135460558Y-75639080D01*
X135460556Y-75639075D01*
X135368515Y-75489854D01*
X135244545Y-75365884D01*
X135095324Y-75273843D01*
X135095319Y-75273841D01*
X134928897Y-75218694D01*
X134928890Y-75218693D01*
X134826186Y-75208200D01*
X134676200Y-75208200D01*
X134676200Y-76158200D01*
X134176200Y-76158200D01*
X134176200Y-75208200D01*
X134026227Y-75208200D01*
X134026212Y-75208201D01*
X133923502Y-75218694D01*
X133757080Y-75273841D01*
X133757075Y-75273843D01*
X133607857Y-75365882D01*
X133514234Y-75459505D01*
X133452910Y-75492989D01*
X133383219Y-75488005D01*
X133338872Y-75459504D01*
X133244857Y-75365489D01*
X133244856Y-75365488D01*
X133138002Y-75299580D01*
X133091279Y-75247633D01*
X133079100Y-75194042D01*
X133079100Y-74651801D01*
X133098785Y-74584762D01*
X133115415Y-74564124D01*
X133443711Y-74235827D01*
X133505032Y-74202344D01*
X133565982Y-74204433D01*
X133650531Y-74228998D01*
X133687406Y-74231900D01*
X133687414Y-74231900D01*
X134993786Y-74231900D01*
X134993794Y-74231900D01*
X135030669Y-74228998D01*
X135030671Y-74228997D01*
X135030673Y-74228997D01*
X135072291Y-74216905D01*
X135188498Y-74183144D01*
X135329965Y-74099481D01*
X135446181Y-73983265D01*
X135529844Y-73841798D01*
X135575698Y-73683969D01*
X135578600Y-73647094D01*
X135578600Y-73395500D01*
X135598285Y-73328461D01*
X135651089Y-73282706D01*
X135702600Y-73271500D01*
X137047200Y-73271500D01*
X137055885Y-73274050D01*
X137064847Y-73272762D01*
X137088887Y-73283740D01*
X137114239Y-73291185D01*
X137120166Y-73298025D01*
X137128403Y-73301787D01*
X137142692Y-73324021D01*
X137159994Y-73343989D01*
X137162281Y-73354503D01*
X137166177Y-73360565D01*
X137171200Y-73395500D01*
X137171200Y-73500762D01*
X137151515Y-73567801D01*
X137112297Y-73606300D01*
X137068547Y-73633285D01*
X137068543Y-73633288D01*
X136944489Y-73757342D01*
X136852387Y-73906663D01*
X136852385Y-73906668D01*
X136837200Y-73952494D01*
X136797201Y-74073203D01*
X136797201Y-74073204D01*
X136797200Y-74073204D01*
X136786700Y-74175983D01*
X136786700Y-75176001D01*
X136786701Y-75176019D01*
X136797200Y-75278796D01*
X136797201Y-75278799D01*
X136852385Y-75445331D01*
X136852387Y-75445336D01*
X136879655Y-75489544D01*
X136944488Y-75594656D01*
X137068544Y-75718712D01*
X137204162Y-75802361D01*
X137250886Y-75854309D01*
X137262109Y-75923272D01*
X137234265Y-75987354D01*
X137204163Y-76013437D01*
X137137300Y-76054679D01*
X137068542Y-76097089D01*
X136944489Y-76221142D01*
X136852387Y-76370463D01*
X136852385Y-76370468D01*
X136830337Y-76437006D01*
X136797201Y-76537003D01*
X136797201Y-76537004D01*
X136797200Y-76537004D01*
X136786700Y-76639783D01*
X136786700Y-77639801D01*
X136786701Y-77639819D01*
X136797200Y-77742596D01*
X136797201Y-77742599D01*
X136852385Y-77909131D01*
X136852387Y-77909136D01*
X136854320Y-77912270D01*
X136944488Y-78058456D01*
X137068544Y-78182512D01*
X137137298Y-78224919D01*
X137184021Y-78276864D01*
X137196200Y-78330456D01*
X137196200Y-78814943D01*
X137196200Y-78951057D01*
X137196200Y-78951059D01*
X137196199Y-78951059D01*
X137222753Y-79084551D01*
X137222756Y-79084561D01*
X137274842Y-79210309D01*
X137274844Y-79210312D01*
X137350463Y-79323485D01*
X137350469Y-79323492D01*
X137550381Y-79523403D01*
X137583866Y-79584726D01*
X137586700Y-79611084D01*
X137586700Y-80730870D01*
X137586701Y-80730876D01*
X137593108Y-80790483D01*
X137643402Y-80925328D01*
X137643406Y-80925335D01*
X137729652Y-81040544D01*
X137729655Y-81040547D01*
X137844864Y-81126793D01*
X137844871Y-81126797D01*
X137979717Y-81177091D01*
X137979716Y-81177091D01*
X137986644Y-81177835D01*
X138039327Y-81183500D01*
X139735072Y-81183499D01*
X139794683Y-81177091D01*
X139929531Y-81126796D01*
X140044746Y-81040546D01*
X140130996Y-80925331D01*
X140181291Y-80790483D01*
X140187700Y-80730873D01*
X140187699Y-79035128D01*
X140181291Y-78975517D01*
X140171606Y-78949551D01*
X140130997Y-78840671D01*
X140130993Y-78840664D01*
X140044747Y-78725455D01*
X140044744Y-78725452D01*
X139929535Y-78639206D01*
X139929528Y-78639202D01*
X139794683Y-78588909D01*
X139782400Y-78587588D01*
X139717850Y-78560848D01*
X139678003Y-78503454D01*
X139675512Y-78433629D01*
X139711166Y-78373541D01*
X139773646Y-78342269D01*
X139795652Y-78340299D01*
X140287208Y-78340299D01*
X140287216Y-78340298D01*
X140287219Y-78340298D01*
X140343502Y-78334548D01*
X140389997Y-78329799D01*
X140556534Y-78274614D01*
X140705856Y-78182512D01*
X140829912Y-78058456D01*
X140922014Y-77909134D01*
X140977199Y-77742597D01*
X140987700Y-77639809D01*
X140987699Y-77081289D01*
X141007383Y-77014252D01*
X141060187Y-76968497D01*
X141129346Y-76958553D01*
X141192902Y-76987578D01*
X141219086Y-77019291D01*
X141242475Y-77059803D01*
X141402118Y-77267851D01*
X141402126Y-77267860D01*
X141587540Y-77453274D01*
X141587548Y-77453281D01*
X141587549Y-77453282D01*
X141635954Y-77490424D01*
X141795596Y-77612924D01*
X142022699Y-77744041D01*
X142022709Y-77744046D01*
X142219560Y-77825584D01*
X142264981Y-77844398D01*
X142518284Y-77912270D01*
X142778280Y-77946500D01*
X142778287Y-77946500D01*
X143040513Y-77946500D01*
X143040520Y-77946500D01*
X143300516Y-77912270D01*
X143553819Y-77844398D01*
X143796097Y-77744043D01*
X144023203Y-77612924D01*
X144231251Y-77453282D01*
X144231255Y-77453277D01*
X144231260Y-77453274D01*
X144416674Y-77267860D01*
X144416677Y-77267855D01*
X144416682Y-77267851D01*
X144576324Y-77059803D01*
X144707443Y-76832697D01*
X144807798Y-76590419D01*
X144875670Y-76337116D01*
X144909900Y-76077120D01*
X144909900Y-75814880D01*
X144875670Y-75554884D01*
X144807798Y-75301581D01*
X144806970Y-75299581D01*
X144707446Y-75059309D01*
X144707441Y-75059299D01*
X144576324Y-74832196D01*
X144416681Y-74624148D01*
X144416674Y-74624140D01*
X144231260Y-74438726D01*
X144231251Y-74438718D01*
X144023203Y-74279075D01*
X143796100Y-74147958D01*
X143796090Y-74147953D01*
X143553828Y-74047605D01*
X143553821Y-74047603D01*
X143553819Y-74047602D01*
X143300516Y-73979730D01*
X143242739Y-73972123D01*
X143040527Y-73945500D01*
X143040520Y-73945500D01*
X142778280Y-73945500D01*
X142778272Y-73945500D01*
X142547172Y-73975926D01*
X142518284Y-73979730D01*
X142274531Y-74045043D01*
X142264981Y-74047602D01*
X142264971Y-74047605D01*
X142022709Y-74147953D01*
X142022699Y-74147958D01*
X141795596Y-74279075D01*
X141587548Y-74438718D01*
X141402118Y-74624148D01*
X141242477Y-74832194D01*
X141219086Y-74872709D01*
X141168518Y-74920924D01*
X141099911Y-74934146D01*
X141035046Y-74908178D01*
X140994518Y-74851263D01*
X140987699Y-74810711D01*
X140987699Y-74175992D01*
X140977199Y-74073203D01*
X140922014Y-73906666D01*
X140829912Y-73757344D01*
X140705856Y-73633288D01*
X140592711Y-73563500D01*
X140556536Y-73541187D01*
X140556531Y-73541185D01*
X140555192Y-73540741D01*
X140472093Y-73513205D01*
X140414650Y-73473433D01*
X140387827Y-73408917D01*
X140400142Y-73340142D01*
X140447685Y-73288942D01*
X140511099Y-73271500D01*
X142691730Y-73271500D01*
X142691731Y-73271499D01*
X142886569Y-73232744D01*
X143070104Y-73156721D01*
X143235281Y-73046353D01*
X143375753Y-72905881D01*
X144516272Y-71765360D01*
X144577593Y-71731877D01*
X144620131Y-71730104D01*
X144744666Y-71746500D01*
X144744673Y-71746500D01*
X144974127Y-71746500D01*
X144974134Y-71746500D01*
X145201638Y-71716548D01*
X145423287Y-71657158D01*
X145635288Y-71569344D01*
X145834012Y-71454611D01*
X146016061Y-71314919D01*
X146016065Y-71314914D01*
X146016070Y-71314911D01*
X146178311Y-71152670D01*
X146178314Y-71152665D01*
X146178319Y-71152661D01*
X146318011Y-70970612D01*
X146432744Y-70771888D01*
X146520558Y-70559887D01*
X146579948Y-70338238D01*
X146609900Y-70110734D01*
X146609900Y-69881266D01*
X146606449Y-69855060D01*
X146602757Y-69827006D01*
X146601159Y-69814872D01*
X155108900Y-69814872D01*
X155108900Y-70077127D01*
X155129052Y-70230189D01*
X155143130Y-70337116D01*
X155202821Y-70559887D01*
X155211002Y-70590418D01*
X155211005Y-70590428D01*
X155311353Y-70832690D01*
X155311358Y-70832700D01*
X155442475Y-71059803D01*
X155602118Y-71267851D01*
X155602126Y-71267860D01*
X155787540Y-71453274D01*
X155787548Y-71453281D01*
X155995596Y-71612924D01*
X156222699Y-71744041D01*
X156222709Y-71744046D01*
X156464971Y-71844394D01*
X156464981Y-71844398D01*
X156718284Y-71912270D01*
X156978280Y-71946500D01*
X156978287Y-71946500D01*
X157240513Y-71946500D01*
X157240520Y-71946500D01*
X157500516Y-71912270D01*
X157753819Y-71844398D01*
X157930740Y-71771114D01*
X157996090Y-71744046D01*
X157996091Y-71744045D01*
X157996097Y-71744043D01*
X158223203Y-71612924D01*
X158431251Y-71453282D01*
X158431255Y-71453277D01*
X158431260Y-71453274D01*
X158616674Y-71267860D01*
X158616677Y-71267855D01*
X158616682Y-71267851D01*
X158776324Y-71059803D01*
X158907443Y-70832697D01*
X159007798Y-70590419D01*
X159075670Y-70337116D01*
X159109900Y-70077120D01*
X159109900Y-69814880D01*
X159075670Y-69554884D01*
X159007798Y-69301581D01*
X159007794Y-69301571D01*
X158907446Y-69059309D01*
X158907441Y-69059299D01*
X158776324Y-68832196D01*
X158616681Y-68624148D01*
X158616674Y-68624140D01*
X158431260Y-68438726D01*
X158431251Y-68438718D01*
X158223203Y-68279075D01*
X157996100Y-68147958D01*
X157996090Y-68147953D01*
X157753828Y-68047605D01*
X157753821Y-68047603D01*
X157753819Y-68047602D01*
X157500516Y-67979730D01*
X157442739Y-67972123D01*
X157240527Y-67945500D01*
X157240520Y-67945500D01*
X156978280Y-67945500D01*
X156978272Y-67945500D01*
X156747172Y-67975926D01*
X156718284Y-67979730D01*
X156464981Y-68047602D01*
X156464971Y-68047605D01*
X156222709Y-68147953D01*
X156222699Y-68147958D01*
X155995596Y-68279075D01*
X155787548Y-68438718D01*
X155602118Y-68624148D01*
X155442475Y-68832196D01*
X155311358Y-69059299D01*
X155311353Y-69059309D01*
X155211005Y-69301571D01*
X155211002Y-69301581D01*
X155176027Y-69432112D01*
X155143130Y-69554885D01*
X155108900Y-69814872D01*
X146601159Y-69814872D01*
X146594558Y-69764740D01*
X146579948Y-69653762D01*
X146520558Y-69432113D01*
X146445839Y-69251726D01*
X146432749Y-69220123D01*
X146432746Y-69220117D01*
X146432744Y-69220112D01*
X146318011Y-69021388D01*
X146318008Y-69021385D01*
X146318007Y-69021382D01*
X146178318Y-68839338D01*
X146178311Y-68839330D01*
X146016070Y-68677089D01*
X146016061Y-68677081D01*
X145834017Y-68537392D01*
X145635290Y-68422657D01*
X145635276Y-68422650D01*
X145423287Y-68334842D01*
X145201638Y-68275452D01*
X145163615Y-68270446D01*
X144974141Y-68245500D01*
X144974134Y-68245500D01*
X144744666Y-68245500D01*
X144744658Y-68245500D01*
X144528115Y-68274009D01*
X144517162Y-68275452D01*
X144423476Y-68300554D01*
X144295512Y-68334842D01*
X144083523Y-68422650D01*
X144083509Y-68422657D01*
X143884782Y-68537392D01*
X143702738Y-68677081D01*
X143540481Y-68839338D01*
X143400792Y-69021382D01*
X143286057Y-69220109D01*
X143286050Y-69220123D01*
X143198242Y-69432112D01*
X143138853Y-69653759D01*
X143138851Y-69653770D01*
X143108900Y-69881258D01*
X143108900Y-70110727D01*
X143108901Y-70110744D01*
X143125294Y-70235262D01*
X143114528Y-70304297D01*
X143090036Y-70339128D01*
X142210985Y-71218181D01*
X142149662Y-71251666D01*
X142123304Y-71254500D01*
X139751951Y-71254500D01*
X139684912Y-71234815D01*
X139679066Y-71230818D01*
X139568813Y-71150715D01*
X139568812Y-71150714D01*
X139568810Y-71150713D01*
X139510890Y-71121201D01*
X139386423Y-71057781D01*
X139191734Y-70994522D01*
X139017195Y-70966878D01*
X138989552Y-70962500D01*
X138784848Y-70962500D01*
X138760529Y-70966351D01*
X138582665Y-70994522D01*
X138387976Y-71057781D01*
X138205586Y-71150715D01*
X138039986Y-71271028D01*
X137895234Y-71415780D01*
X137835073Y-71498585D01*
X137774913Y-71581390D01*
X137768898Y-71593195D01*
X137720926Y-71643990D01*
X137658414Y-71660900D01*
X132566248Y-71660900D01*
X132566228Y-71660899D01*
X132560114Y-71660899D01*
X132401484Y-71660899D01*
X132401482Y-71660899D01*
X132312915Y-71678517D01*
X132288723Y-71680900D01*
X131812397Y-71680900D01*
X131775531Y-71683801D01*
X131775525Y-71683802D01*
X131617705Y-71729654D01*
X131617702Y-71729655D01*
X131476236Y-71813317D01*
X131476228Y-71813323D01*
X131360022Y-71929529D01*
X131360016Y-71929537D01*
X131276354Y-72071003D01*
X131276353Y-72071006D01*
X131230501Y-72228826D01*
X131230500Y-72228832D01*
X131227599Y-72265698D01*
X130360379Y-72265698D01*
X130360379Y-71281398D01*
X133105804Y-71281398D01*
X133105805Y-71281400D01*
X134090600Y-71281400D01*
X134590600Y-71281400D01*
X135575395Y-71281400D01*
X135575395Y-71281398D01*
X135575200Y-71278913D01*
X135529381Y-71121201D01*
X135445785Y-70979847D01*
X135445778Y-70979838D01*
X135329661Y-70863721D01*
X135329652Y-70863714D01*
X135188296Y-70780117D01*
X135188293Y-70780116D01*
X135030595Y-70734300D01*
X135030589Y-70734299D01*
X134993749Y-70731400D01*
X134590600Y-70731400D01*
X134590600Y-71281400D01*
X134090600Y-71281400D01*
X134090600Y-70731400D01*
X133687450Y-70731400D01*
X133650610Y-70734299D01*
X133650604Y-70734300D01*
X133492906Y-70780116D01*
X133492903Y-70780117D01*
X133351547Y-70863714D01*
X133351538Y-70863721D01*
X133235421Y-70979838D01*
X133235414Y-70979847D01*
X133151818Y-71121201D01*
X133105999Y-71278913D01*
X133105804Y-71281398D01*
X130360379Y-71281398D01*
X130360379Y-60749392D01*
X132557580Y-60749392D01*
X132557580Y-61019019D01*
X132587766Y-61286925D01*
X132587767Y-61286934D01*
X132587768Y-61286938D01*
X132600277Y-61341743D01*
X132647764Y-61549800D01*
X132647767Y-61549808D01*
X132736814Y-61804288D01*
X132853794Y-62047200D01*
X132853796Y-62047203D01*
X132997242Y-62275495D01*
X133165346Y-62486291D01*
X133355995Y-62676940D01*
X133566791Y-62845044D01*
X133795083Y-62988490D01*
X134038001Y-63105473D01*
X134229129Y-63172351D01*
X134292477Y-63194518D01*
X134292485Y-63194521D01*
X134292488Y-63194521D01*
X134292489Y-63194522D01*
X134555348Y-63254518D01*
X134823267Y-63284705D01*
X134823268Y-63284706D01*
X134823271Y-63284706D01*
X135092892Y-63284706D01*
X135092892Y-63284705D01*
X135360812Y-63254518D01*
X135623671Y-63194522D01*
X135878159Y-63105473D01*
X136121077Y-62988490D01*
X136349369Y-62845044D01*
X136560165Y-62676940D01*
X136750814Y-62486291D01*
X136918918Y-62275495D01*
X137062364Y-62047203D01*
X137179347Y-61804285D01*
X137268396Y-61549797D01*
X137328392Y-61286938D01*
X137358580Y-61019015D01*
X137358580Y-60749397D01*
X137328392Y-60481474D01*
X137268396Y-60218615D01*
X137179347Y-59964127D01*
X137062364Y-59721209D01*
X136918918Y-59492917D01*
X136750814Y-59282121D01*
X136560165Y-59091472D01*
X136559179Y-59090686D01*
X136455721Y-59008181D01*
X136349369Y-58923368D01*
X136121077Y-58779922D01*
X136121074Y-58779920D01*
X135878162Y-58662940D01*
X135623682Y-58573893D01*
X135623674Y-58573890D01*
X135426526Y-58528893D01*
X135360812Y-58513894D01*
X135360808Y-58513893D01*
X135360799Y-58513892D01*
X135206566Y-58496514D01*
X135092893Y-58483706D01*
X135092889Y-58483706D01*
X134823271Y-58483706D01*
X134823266Y-58483706D01*
X134555360Y-58513892D01*
X134555348Y-58513894D01*
X134292485Y-58573890D01*
X134292477Y-58573893D01*
X134037997Y-58662940D01*
X133795085Y-58779920D01*
X133566792Y-58923367D01*
X133355995Y-59091471D01*
X133165345Y-59282121D01*
X132997241Y-59492918D01*
X132853794Y-59721211D01*
X132736814Y-59964123D01*
X132647767Y-60218603D01*
X132647764Y-60218611D01*
X132587768Y-60481474D01*
X132587766Y-60481486D01*
X132557580Y-60749392D01*
X130360379Y-60749392D01*
X130360379Y-58379381D01*
X162357500Y-58379381D01*
X162357500Y-58553818D01*
X162391527Y-58724883D01*
X162391529Y-58724891D01*
X162458278Y-58886039D01*
X162458283Y-58886048D01*
X162555186Y-59031073D01*
X162555189Y-59031077D01*
X162678522Y-59154410D01*
X162678526Y-59154413D01*
X162823551Y-59251316D01*
X162823557Y-59251319D01*
X162823558Y-59251320D01*
X162984709Y-59318071D01*
X163131474Y-59347264D01*
X163155781Y-59352099D01*
X163155785Y-59352100D01*
X163155786Y-59352100D01*
X163330215Y-59352100D01*
X163330216Y-59352099D01*
X163501291Y-59318071D01*
X163662442Y-59251320D01*
X163807474Y-59154413D01*
X163930813Y-59031074D01*
X164027720Y-58886042D01*
X164094471Y-58724891D01*
X164128500Y-58553814D01*
X164128500Y-58379386D01*
X164128499Y-58379381D01*
X171357500Y-58379381D01*
X171357500Y-58553818D01*
X171391527Y-58724883D01*
X171391529Y-58724891D01*
X171458278Y-58886039D01*
X171458283Y-58886048D01*
X171555186Y-59031073D01*
X171555189Y-59031077D01*
X171678522Y-59154410D01*
X171678526Y-59154413D01*
X171823551Y-59251316D01*
X171823557Y-59251319D01*
X171823558Y-59251320D01*
X171984709Y-59318071D01*
X172131474Y-59347264D01*
X172155781Y-59352099D01*
X172155785Y-59352100D01*
X172155786Y-59352100D01*
X172330215Y-59352100D01*
X172330216Y-59352099D01*
X172501291Y-59318071D01*
X172662442Y-59251320D01*
X172807474Y-59154413D01*
X172930813Y-59031074D01*
X173027720Y-58886042D01*
X173094471Y-58724891D01*
X173128500Y-58553814D01*
X173128500Y-58396181D01*
X174878300Y-58396181D01*
X174878300Y-58570618D01*
X174912327Y-58741683D01*
X174912329Y-58741691D01*
X174979078Y-58902839D01*
X174979083Y-58902848D01*
X175075986Y-59047873D01*
X175075989Y-59047877D01*
X175199322Y-59171210D01*
X175199326Y-59171213D01*
X175344351Y-59268116D01*
X175344357Y-59268119D01*
X175344358Y-59268120D01*
X175505509Y-59334871D01*
X175652274Y-59364064D01*
X175676581Y-59368899D01*
X175676585Y-59368900D01*
X175676586Y-59368900D01*
X175851015Y-59368900D01*
X175851016Y-59368899D01*
X176022091Y-59334871D01*
X176183242Y-59268120D01*
X176328274Y-59171213D01*
X176451613Y-59047874D01*
X176548520Y-58902842D01*
X176615271Y-58741691D01*
X176649300Y-58570614D01*
X176649300Y-58396186D01*
X176649299Y-58396181D01*
X183878300Y-58396181D01*
X183878300Y-58570618D01*
X183912327Y-58741683D01*
X183912329Y-58741691D01*
X183979078Y-58902839D01*
X183979083Y-58902848D01*
X184075986Y-59047873D01*
X184075989Y-59047877D01*
X184199322Y-59171210D01*
X184199326Y-59171213D01*
X184344351Y-59268116D01*
X184344357Y-59268119D01*
X184344358Y-59268120D01*
X184505509Y-59334871D01*
X184652274Y-59364064D01*
X184676581Y-59368899D01*
X184676585Y-59368900D01*
X184676586Y-59368900D01*
X184851015Y-59368900D01*
X184851016Y-59368899D01*
X185022091Y-59334871D01*
X185183242Y-59268120D01*
X185328274Y-59171213D01*
X185451613Y-59047874D01*
X185548520Y-58902842D01*
X185615271Y-58741691D01*
X185649300Y-58570614D01*
X185649300Y-58396186D01*
X185615271Y-58225109D01*
X185548520Y-58063958D01*
X185548519Y-58063957D01*
X185548516Y-58063951D01*
X185451613Y-57918926D01*
X185451610Y-57918922D01*
X185328277Y-57795589D01*
X185328273Y-57795586D01*
X185183248Y-57698683D01*
X185183239Y-57698678D01*
X185022091Y-57631929D01*
X185022083Y-57631927D01*
X184851018Y-57597900D01*
X184851014Y-57597900D01*
X184676586Y-57597900D01*
X184676581Y-57597900D01*
X184505516Y-57631927D01*
X184505508Y-57631929D01*
X184344360Y-57698678D01*
X184344351Y-57698683D01*
X184199326Y-57795586D01*
X184199322Y-57795589D01*
X184075989Y-57918922D01*
X184075986Y-57918926D01*
X183979083Y-58063951D01*
X183979078Y-58063960D01*
X183912329Y-58225108D01*
X183912327Y-58225116D01*
X183878300Y-58396181D01*
X176649299Y-58396181D01*
X176615271Y-58225109D01*
X176548520Y-58063958D01*
X176548519Y-58063957D01*
X176548516Y-58063951D01*
X176451613Y-57918926D01*
X176451610Y-57918922D01*
X176328277Y-57795589D01*
X176328273Y-57795586D01*
X176183248Y-57698683D01*
X176183239Y-57698678D01*
X176022091Y-57631929D01*
X176022083Y-57631927D01*
X175851018Y-57597900D01*
X175851014Y-57597900D01*
X175676586Y-57597900D01*
X175676581Y-57597900D01*
X175505516Y-57631927D01*
X175505508Y-57631929D01*
X175344360Y-57698678D01*
X175344351Y-57698683D01*
X175199326Y-57795586D01*
X175199322Y-57795589D01*
X175075989Y-57918922D01*
X175075986Y-57918926D01*
X174979083Y-58063951D01*
X174979078Y-58063960D01*
X174912329Y-58225108D01*
X174912327Y-58225116D01*
X174878300Y-58396181D01*
X173128500Y-58396181D01*
X173128500Y-58379386D01*
X173094471Y-58208309D01*
X173027720Y-58047158D01*
X173027719Y-58047157D01*
X173027716Y-58047151D01*
X172930813Y-57902126D01*
X172930810Y-57902122D01*
X172807477Y-57778789D01*
X172807473Y-57778786D01*
X172662448Y-57681883D01*
X172662439Y-57681878D01*
X172501291Y-57615129D01*
X172501283Y-57615127D01*
X172330218Y-57581100D01*
X172330214Y-57581100D01*
X172155786Y-57581100D01*
X172155781Y-57581100D01*
X171984716Y-57615127D01*
X171984708Y-57615129D01*
X171823560Y-57681878D01*
X171823551Y-57681883D01*
X171678526Y-57778786D01*
X171678522Y-57778789D01*
X171555189Y-57902122D01*
X171555186Y-57902126D01*
X171458283Y-58047151D01*
X171458278Y-58047160D01*
X171391529Y-58208308D01*
X171391527Y-58208316D01*
X171357500Y-58379381D01*
X164128499Y-58379381D01*
X164094471Y-58208309D01*
X164027720Y-58047158D01*
X164027719Y-58047157D01*
X164027716Y-58047151D01*
X163930813Y-57902126D01*
X163930810Y-57902122D01*
X163807477Y-57778789D01*
X163807473Y-57778786D01*
X163662448Y-57681883D01*
X163662439Y-57681878D01*
X163501291Y-57615129D01*
X163501283Y-57615127D01*
X163330218Y-57581100D01*
X163330214Y-57581100D01*
X163155786Y-57581100D01*
X163155781Y-57581100D01*
X162984716Y-57615127D01*
X162984708Y-57615129D01*
X162823560Y-57681878D01*
X162823551Y-57681883D01*
X162678526Y-57778786D01*
X162678522Y-57778789D01*
X162555189Y-57902122D01*
X162555186Y-57902126D01*
X162458283Y-58047151D01*
X162458278Y-58047160D01*
X162391529Y-58208308D01*
X162391527Y-58208316D01*
X162357500Y-58379381D01*
X130360379Y-58379381D01*
X130360379Y-56345307D01*
X130380064Y-56278268D01*
X130432868Y-56232513D01*
X130484379Y-56221307D01*
X196123900Y-56221307D01*
X196190939Y-56240992D01*
G37*
%TD.AperFunction*%
%TD*%
%TA.AperFunction,Conductor*%
%TO.N,/IMD_OKHS*%
G36*
X171977371Y-92155029D02*
G01*
X171982517Y-92160882D01*
X172295617Y-92940998D01*
X172295518Y-92949952D01*
X172293032Y-92953629D01*
X172090139Y-93156522D01*
X172081866Y-93159949D01*
X172074851Y-93157613D01*
X171750818Y-92914875D01*
X171746252Y-92907172D01*
X171746193Y-92906697D01*
X171678888Y-92245866D01*
X171681459Y-92237288D01*
X171687343Y-92233422D01*
X171968478Y-92153981D01*
X171977371Y-92155029D01*
G37*
%TD.AperFunction*%
%TD*%
%TA.AperFunction,Conductor*%
%TO.N,Net-(U1-EN)*%
G36*
X174526863Y-90886626D02*
G01*
X174534292Y-90891626D01*
X174536030Y-90900318D01*
X174436335Y-91415160D01*
X174431397Y-91422631D01*
X174424848Y-91424636D01*
X174063152Y-91424636D01*
X174054879Y-91421209D01*
X174051665Y-91415160D01*
X173951969Y-90900316D01*
X173953761Y-90891545D01*
X173961135Y-90886626D01*
X174241682Y-90829869D01*
X174246318Y-90829869D01*
X174526863Y-90886626D01*
G37*
%TD.AperFunction*%
%TD*%
M02*
