%TF.GenerationSoftware,KiCad,Pcbnew,9.0.1*%
%TF.CreationDate,2026-10-03T23:24:53+08:00*%
%TF.ProjectId,IMD_AMS_latch,494d445f-414d-4535-9f6c-617463682e6b,rev?*%
%TF.SameCoordinates,Original*%
%TF.FileFunction,Legend,Top*%
%TF.FilePolarity,Positive*%
%FSLAX46Y46*%
G04 Gerber Fmt 4.6, Leading zero omitted, Abs format (unit mm)*
G04 Created by KiCad (PCBNEW 9.0.1) date 2026-10-03 23:24:53*
%MOMM*%
%LPD*%
G01*
G04 APERTURE LIST*
%ADD10C,0.200000*%
%ADD11C,0.150000*%
%ADD12C,0.120000*%
G04 APERTURE END LIST*
D10*
X162782054Y-66779600D02*
X162924911Y-66827219D01*
X162924911Y-66827219D02*
X163163006Y-66827219D01*
X163163006Y-66827219D02*
X163258244Y-66779600D01*
X163258244Y-66779600D02*
X163305863Y-66731980D01*
X163305863Y-66731980D02*
X163353482Y-66636742D01*
X163353482Y-66636742D02*
X163353482Y-66541504D01*
X163353482Y-66541504D02*
X163305863Y-66446266D01*
X163305863Y-66446266D02*
X163258244Y-66398647D01*
X163258244Y-66398647D02*
X163163006Y-66351028D01*
X163163006Y-66351028D02*
X162972530Y-66303409D01*
X162972530Y-66303409D02*
X162877292Y-66255790D01*
X162877292Y-66255790D02*
X162829673Y-66208171D01*
X162829673Y-66208171D02*
X162782054Y-66112933D01*
X162782054Y-66112933D02*
X162782054Y-66017695D01*
X162782054Y-66017695D02*
X162829673Y-65922457D01*
X162829673Y-65922457D02*
X162877292Y-65874838D01*
X162877292Y-65874838D02*
X162972530Y-65827219D01*
X162972530Y-65827219D02*
X163210625Y-65827219D01*
X163210625Y-65827219D02*
X163353482Y-65874838D01*
X163782054Y-66827219D02*
X163782054Y-65827219D01*
X163782054Y-65827219D02*
X164020149Y-65827219D01*
X164020149Y-65827219D02*
X164163006Y-65874838D01*
X164163006Y-65874838D02*
X164258244Y-65970076D01*
X164258244Y-65970076D02*
X164305863Y-66065314D01*
X164305863Y-66065314D02*
X164353482Y-66255790D01*
X164353482Y-66255790D02*
X164353482Y-66398647D01*
X164353482Y-66398647D02*
X164305863Y-66589123D01*
X164305863Y-66589123D02*
X164258244Y-66684361D01*
X164258244Y-66684361D02*
X164163006Y-66779600D01*
X164163006Y-66779600D02*
X164020149Y-66827219D01*
X164020149Y-66827219D02*
X163782054Y-66827219D01*
X165353482Y-66731980D02*
X165305863Y-66779600D01*
X165305863Y-66779600D02*
X165163006Y-66827219D01*
X165163006Y-66827219D02*
X165067768Y-66827219D01*
X165067768Y-66827219D02*
X164924911Y-66779600D01*
X164924911Y-66779600D02*
X164829673Y-66684361D01*
X164829673Y-66684361D02*
X164782054Y-66589123D01*
X164782054Y-66589123D02*
X164734435Y-66398647D01*
X164734435Y-66398647D02*
X164734435Y-66255790D01*
X164734435Y-66255790D02*
X164782054Y-66065314D01*
X164782054Y-66065314D02*
X164829673Y-65970076D01*
X164829673Y-65970076D02*
X164924911Y-65874838D01*
X164924911Y-65874838D02*
X165067768Y-65827219D01*
X165067768Y-65827219D02*
X165163006Y-65827219D01*
X165163006Y-65827219D02*
X165305863Y-65874838D01*
X165305863Y-65874838D02*
X165353482Y-65922457D01*
X165543959Y-66922457D02*
X166305863Y-66922457D01*
X166734435Y-65827219D02*
X166924911Y-65827219D01*
X166924911Y-65827219D02*
X167020149Y-65874838D01*
X167020149Y-65874838D02*
X167115387Y-65970076D01*
X167115387Y-65970076D02*
X167163006Y-66160552D01*
X167163006Y-66160552D02*
X167163006Y-66493885D01*
X167163006Y-66493885D02*
X167115387Y-66684361D01*
X167115387Y-66684361D02*
X167020149Y-66779600D01*
X167020149Y-66779600D02*
X166924911Y-66827219D01*
X166924911Y-66827219D02*
X166734435Y-66827219D01*
X166734435Y-66827219D02*
X166639197Y-66779600D01*
X166639197Y-66779600D02*
X166543959Y-66684361D01*
X166543959Y-66684361D02*
X166496340Y-66493885D01*
X166496340Y-66493885D02*
X166496340Y-66160552D01*
X166496340Y-66160552D02*
X166543959Y-65970076D01*
X166543959Y-65970076D02*
X166639197Y-65874838D01*
X166639197Y-65874838D02*
X166734435Y-65827219D01*
X167591578Y-65827219D02*
X167591578Y-66636742D01*
X167591578Y-66636742D02*
X167639197Y-66731980D01*
X167639197Y-66731980D02*
X167686816Y-66779600D01*
X167686816Y-66779600D02*
X167782054Y-66827219D01*
X167782054Y-66827219D02*
X167972530Y-66827219D01*
X167972530Y-66827219D02*
X168067768Y-66779600D01*
X168067768Y-66779600D02*
X168115387Y-66731980D01*
X168115387Y-66731980D02*
X168163006Y-66636742D01*
X168163006Y-66636742D02*
X168163006Y-65827219D01*
X168496340Y-65827219D02*
X169067768Y-65827219D01*
X168782054Y-66827219D02*
X168782054Y-65827219D01*
X191497219Y-102400326D02*
X190497219Y-102400326D01*
X191497219Y-101924136D02*
X190497219Y-101924136D01*
X190497219Y-101924136D02*
X191211504Y-101590803D01*
X191211504Y-101590803D02*
X190497219Y-101257470D01*
X190497219Y-101257470D02*
X191497219Y-101257470D01*
X191497219Y-100781279D02*
X190497219Y-100781279D01*
X190497219Y-100781279D02*
X190497219Y-100543184D01*
X190497219Y-100543184D02*
X190544838Y-100400327D01*
X190544838Y-100400327D02*
X190640076Y-100305089D01*
X190640076Y-100305089D02*
X190735314Y-100257470D01*
X190735314Y-100257470D02*
X190925790Y-100209851D01*
X190925790Y-100209851D02*
X191068647Y-100209851D01*
X191068647Y-100209851D02*
X191259123Y-100257470D01*
X191259123Y-100257470D02*
X191354361Y-100305089D01*
X191354361Y-100305089D02*
X191449600Y-100400327D01*
X191449600Y-100400327D02*
X191497219Y-100543184D01*
X191497219Y-100543184D02*
X191497219Y-100781279D01*
X191592457Y-100019375D02*
X191592457Y-99257470D01*
X191497219Y-98543184D02*
X191497219Y-99019374D01*
X191497219Y-99019374D02*
X190497219Y-99019374D01*
X191211504Y-97495564D02*
X191211504Y-97019374D01*
X191497219Y-97590802D02*
X190497219Y-97257469D01*
X190497219Y-97257469D02*
X191497219Y-96924136D01*
X191497219Y-96590802D02*
X190497219Y-96590802D01*
X190497219Y-96590802D02*
X191211504Y-96257469D01*
X191211504Y-96257469D02*
X190497219Y-95924136D01*
X190497219Y-95924136D02*
X191497219Y-95924136D01*
X191449600Y-95495564D02*
X191497219Y-95352707D01*
X191497219Y-95352707D02*
X191497219Y-95114612D01*
X191497219Y-95114612D02*
X191449600Y-95019374D01*
X191449600Y-95019374D02*
X191401980Y-94971755D01*
X191401980Y-94971755D02*
X191306742Y-94924136D01*
X191306742Y-94924136D02*
X191211504Y-94924136D01*
X191211504Y-94924136D02*
X191116266Y-94971755D01*
X191116266Y-94971755D02*
X191068647Y-95019374D01*
X191068647Y-95019374D02*
X191021028Y-95114612D01*
X191021028Y-95114612D02*
X190973409Y-95305088D01*
X190973409Y-95305088D02*
X190925790Y-95400326D01*
X190925790Y-95400326D02*
X190878171Y-95447945D01*
X190878171Y-95447945D02*
X190782933Y-95495564D01*
X190782933Y-95495564D02*
X190687695Y-95495564D01*
X190687695Y-95495564D02*
X190592457Y-95447945D01*
X190592457Y-95447945D02*
X190544838Y-95400326D01*
X190544838Y-95400326D02*
X190497219Y-95305088D01*
X190497219Y-95305088D02*
X190497219Y-95066993D01*
X190497219Y-95066993D02*
X190544838Y-94924136D01*
X191592457Y-94733660D02*
X191592457Y-93971755D01*
X191497219Y-93257469D02*
X191497219Y-93733659D01*
X191497219Y-93733659D02*
X190497219Y-93733659D01*
X172339673Y-66877219D02*
X172339673Y-65877219D01*
X172815863Y-66877219D02*
X172815863Y-65877219D01*
X172815863Y-65877219D02*
X173149196Y-66591504D01*
X173149196Y-66591504D02*
X173482529Y-65877219D01*
X173482529Y-65877219D02*
X173482529Y-66877219D01*
X173958720Y-66877219D02*
X173958720Y-65877219D01*
X173958720Y-65877219D02*
X174196815Y-65877219D01*
X174196815Y-65877219D02*
X174339672Y-65924838D01*
X174339672Y-65924838D02*
X174434910Y-66020076D01*
X174434910Y-66020076D02*
X174482529Y-66115314D01*
X174482529Y-66115314D02*
X174530148Y-66305790D01*
X174530148Y-66305790D02*
X174530148Y-66448647D01*
X174530148Y-66448647D02*
X174482529Y-66639123D01*
X174482529Y-66639123D02*
X174434910Y-66734361D01*
X174434910Y-66734361D02*
X174339672Y-66829600D01*
X174339672Y-66829600D02*
X174196815Y-66877219D01*
X174196815Y-66877219D02*
X173958720Y-66877219D01*
X174720625Y-66972457D02*
X175482529Y-66972457D01*
X176292053Y-66877219D02*
X175958720Y-66401028D01*
X175720625Y-66877219D02*
X175720625Y-65877219D01*
X175720625Y-65877219D02*
X176101577Y-65877219D01*
X176101577Y-65877219D02*
X176196815Y-65924838D01*
X176196815Y-65924838D02*
X176244434Y-65972457D01*
X176244434Y-65972457D02*
X176292053Y-66067695D01*
X176292053Y-66067695D02*
X176292053Y-66210552D01*
X176292053Y-66210552D02*
X176244434Y-66305790D01*
X176244434Y-66305790D02*
X176196815Y-66353409D01*
X176196815Y-66353409D02*
X176101577Y-66401028D01*
X176101577Y-66401028D02*
X175720625Y-66401028D01*
X176673006Y-66829600D02*
X176815863Y-66877219D01*
X176815863Y-66877219D02*
X177053958Y-66877219D01*
X177053958Y-66877219D02*
X177149196Y-66829600D01*
X177149196Y-66829600D02*
X177196815Y-66781980D01*
X177196815Y-66781980D02*
X177244434Y-66686742D01*
X177244434Y-66686742D02*
X177244434Y-66591504D01*
X177244434Y-66591504D02*
X177196815Y-66496266D01*
X177196815Y-66496266D02*
X177149196Y-66448647D01*
X177149196Y-66448647D02*
X177053958Y-66401028D01*
X177053958Y-66401028D02*
X176863482Y-66353409D01*
X176863482Y-66353409D02*
X176768244Y-66305790D01*
X176768244Y-66305790D02*
X176720625Y-66258171D01*
X176720625Y-66258171D02*
X176673006Y-66162933D01*
X176673006Y-66162933D02*
X176673006Y-66067695D01*
X176673006Y-66067695D02*
X176720625Y-65972457D01*
X176720625Y-65972457D02*
X176768244Y-65924838D01*
X176768244Y-65924838D02*
X176863482Y-65877219D01*
X176863482Y-65877219D02*
X177101577Y-65877219D01*
X177101577Y-65877219D02*
X177244434Y-65924838D01*
X177530149Y-65877219D02*
X178101577Y-65877219D01*
X177815863Y-66877219D02*
X177815863Y-65877219D01*
X179149197Y-66591504D02*
X179625387Y-66591504D01*
X179053959Y-66877219D02*
X179387292Y-65877219D01*
X179387292Y-65877219D02*
X179720625Y-66877219D01*
X180053959Y-66877219D02*
X180053959Y-65877219D01*
X180053959Y-65877219D02*
X180387292Y-66591504D01*
X180387292Y-66591504D02*
X180720625Y-65877219D01*
X180720625Y-65877219D02*
X180720625Y-66877219D01*
X181149197Y-66829600D02*
X181292054Y-66877219D01*
X181292054Y-66877219D02*
X181530149Y-66877219D01*
X181530149Y-66877219D02*
X181625387Y-66829600D01*
X181625387Y-66829600D02*
X181673006Y-66781980D01*
X181673006Y-66781980D02*
X181720625Y-66686742D01*
X181720625Y-66686742D02*
X181720625Y-66591504D01*
X181720625Y-66591504D02*
X181673006Y-66496266D01*
X181673006Y-66496266D02*
X181625387Y-66448647D01*
X181625387Y-66448647D02*
X181530149Y-66401028D01*
X181530149Y-66401028D02*
X181339673Y-66353409D01*
X181339673Y-66353409D02*
X181244435Y-66305790D01*
X181244435Y-66305790D02*
X181196816Y-66258171D01*
X181196816Y-66258171D02*
X181149197Y-66162933D01*
X181149197Y-66162933D02*
X181149197Y-66067695D01*
X181149197Y-66067695D02*
X181196816Y-65972457D01*
X181196816Y-65972457D02*
X181244435Y-65924838D01*
X181244435Y-65924838D02*
X181339673Y-65877219D01*
X181339673Y-65877219D02*
X181577768Y-65877219D01*
X181577768Y-65877219D02*
X181720625Y-65924838D01*
X181911102Y-66972457D02*
X182673006Y-66972457D01*
X183482530Y-66877219D02*
X183149197Y-66401028D01*
X182911102Y-66877219D02*
X182911102Y-65877219D01*
X182911102Y-65877219D02*
X183292054Y-65877219D01*
X183292054Y-65877219D02*
X183387292Y-65924838D01*
X183387292Y-65924838D02*
X183434911Y-65972457D01*
X183434911Y-65972457D02*
X183482530Y-66067695D01*
X183482530Y-66067695D02*
X183482530Y-66210552D01*
X183482530Y-66210552D02*
X183434911Y-66305790D01*
X183434911Y-66305790D02*
X183387292Y-66353409D01*
X183387292Y-66353409D02*
X183292054Y-66401028D01*
X183292054Y-66401028D02*
X182911102Y-66401028D01*
X183863483Y-66829600D02*
X184006340Y-66877219D01*
X184006340Y-66877219D02*
X184244435Y-66877219D01*
X184244435Y-66877219D02*
X184339673Y-66829600D01*
X184339673Y-66829600D02*
X184387292Y-66781980D01*
X184387292Y-66781980D02*
X184434911Y-66686742D01*
X184434911Y-66686742D02*
X184434911Y-66591504D01*
X184434911Y-66591504D02*
X184387292Y-66496266D01*
X184387292Y-66496266D02*
X184339673Y-66448647D01*
X184339673Y-66448647D02*
X184244435Y-66401028D01*
X184244435Y-66401028D02*
X184053959Y-66353409D01*
X184053959Y-66353409D02*
X183958721Y-66305790D01*
X183958721Y-66305790D02*
X183911102Y-66258171D01*
X183911102Y-66258171D02*
X183863483Y-66162933D01*
X183863483Y-66162933D02*
X183863483Y-66067695D01*
X183863483Y-66067695D02*
X183911102Y-65972457D01*
X183911102Y-65972457D02*
X183958721Y-65924838D01*
X183958721Y-65924838D02*
X184053959Y-65877219D01*
X184053959Y-65877219D02*
X184292054Y-65877219D01*
X184292054Y-65877219D02*
X184434911Y-65924838D01*
X184720626Y-65877219D02*
X185292054Y-65877219D01*
X185006340Y-66877219D02*
X185006340Y-65877219D01*
X180177219Y-90510326D02*
X179177219Y-90510326D01*
X180177219Y-90034136D02*
X179177219Y-90034136D01*
X179177219Y-90034136D02*
X179891504Y-89700803D01*
X179891504Y-89700803D02*
X179177219Y-89367470D01*
X179177219Y-89367470D02*
X180177219Y-89367470D01*
X180177219Y-88891279D02*
X179177219Y-88891279D01*
X179177219Y-88891279D02*
X179177219Y-88653184D01*
X179177219Y-88653184D02*
X179224838Y-88510327D01*
X179224838Y-88510327D02*
X179320076Y-88415089D01*
X179320076Y-88415089D02*
X179415314Y-88367470D01*
X179415314Y-88367470D02*
X179605790Y-88319851D01*
X179605790Y-88319851D02*
X179748647Y-88319851D01*
X179748647Y-88319851D02*
X179939123Y-88367470D01*
X179939123Y-88367470D02*
X180034361Y-88415089D01*
X180034361Y-88415089D02*
X180129600Y-88510327D01*
X180129600Y-88510327D02*
X180177219Y-88653184D01*
X180177219Y-88653184D02*
X180177219Y-88891279D01*
X180272457Y-88129375D02*
X180272457Y-87367470D01*
X180129600Y-87176993D02*
X180177219Y-87034136D01*
X180177219Y-87034136D02*
X180177219Y-86796041D01*
X180177219Y-86796041D02*
X180129600Y-86700803D01*
X180129600Y-86700803D02*
X180081980Y-86653184D01*
X180081980Y-86653184D02*
X179986742Y-86605565D01*
X179986742Y-86605565D02*
X179891504Y-86605565D01*
X179891504Y-86605565D02*
X179796266Y-86653184D01*
X179796266Y-86653184D02*
X179748647Y-86700803D01*
X179748647Y-86700803D02*
X179701028Y-86796041D01*
X179701028Y-86796041D02*
X179653409Y-86986517D01*
X179653409Y-86986517D02*
X179605790Y-87081755D01*
X179605790Y-87081755D02*
X179558171Y-87129374D01*
X179558171Y-87129374D02*
X179462933Y-87176993D01*
X179462933Y-87176993D02*
X179367695Y-87176993D01*
X179367695Y-87176993D02*
X179272457Y-87129374D01*
X179272457Y-87129374D02*
X179224838Y-87081755D01*
X179224838Y-87081755D02*
X179177219Y-86986517D01*
X179177219Y-86986517D02*
X179177219Y-86748422D01*
X179177219Y-86748422D02*
X179224838Y-86605565D01*
X179177219Y-86319850D02*
X179177219Y-85748422D01*
X180177219Y-86034136D02*
X179177219Y-86034136D01*
X179891504Y-85462707D02*
X179891504Y-84986517D01*
X180177219Y-85557945D02*
X179177219Y-85224612D01*
X179177219Y-85224612D02*
X180177219Y-84891279D01*
X179177219Y-84700802D02*
X179177219Y-84129374D01*
X180177219Y-84415088D02*
X179177219Y-84415088D01*
X190337219Y-89899850D02*
X190337219Y-89709374D01*
X190337219Y-89709374D02*
X190384838Y-89614136D01*
X190384838Y-89614136D02*
X190480076Y-89518898D01*
X190480076Y-89518898D02*
X190670552Y-89471279D01*
X190670552Y-89471279D02*
X191003885Y-89471279D01*
X191003885Y-89471279D02*
X191194361Y-89518898D01*
X191194361Y-89518898D02*
X191289600Y-89614136D01*
X191289600Y-89614136D02*
X191337219Y-89709374D01*
X191337219Y-89709374D02*
X191337219Y-89899850D01*
X191337219Y-89899850D02*
X191289600Y-89995088D01*
X191289600Y-89995088D02*
X191194361Y-90090326D01*
X191194361Y-90090326D02*
X191003885Y-90137945D01*
X191003885Y-90137945D02*
X190670552Y-90137945D01*
X190670552Y-90137945D02*
X190480076Y-90090326D01*
X190480076Y-90090326D02*
X190384838Y-89995088D01*
X190384838Y-89995088D02*
X190337219Y-89899850D01*
X191337219Y-89042707D02*
X190337219Y-89042707D01*
X190337219Y-89042707D02*
X191051504Y-88709374D01*
X191051504Y-88709374D02*
X190337219Y-88376041D01*
X190337219Y-88376041D02*
X191337219Y-88376041D01*
X191337219Y-87899850D02*
X190337219Y-87899850D01*
X190813409Y-87899850D02*
X190813409Y-87328422D01*
X191337219Y-87328422D02*
X190337219Y-87328422D01*
X191289600Y-86899850D02*
X191337219Y-86756993D01*
X191337219Y-86756993D02*
X191337219Y-86518898D01*
X191337219Y-86518898D02*
X191289600Y-86423660D01*
X191289600Y-86423660D02*
X191241980Y-86376041D01*
X191241980Y-86376041D02*
X191146742Y-86328422D01*
X191146742Y-86328422D02*
X191051504Y-86328422D01*
X191051504Y-86328422D02*
X190956266Y-86376041D01*
X190956266Y-86376041D02*
X190908647Y-86423660D01*
X190908647Y-86423660D02*
X190861028Y-86518898D01*
X190861028Y-86518898D02*
X190813409Y-86709374D01*
X190813409Y-86709374D02*
X190765790Y-86804612D01*
X190765790Y-86804612D02*
X190718171Y-86852231D01*
X190718171Y-86852231D02*
X190622933Y-86899850D01*
X190622933Y-86899850D02*
X190527695Y-86899850D01*
X190527695Y-86899850D02*
X190432457Y-86852231D01*
X190432457Y-86852231D02*
X190384838Y-86804612D01*
X190384838Y-86804612D02*
X190337219Y-86709374D01*
X190337219Y-86709374D02*
X190337219Y-86471279D01*
X190337219Y-86471279D02*
X190384838Y-86328422D01*
X190337219Y-84947469D02*
X190337219Y-84756993D01*
X190337219Y-84756993D02*
X190384838Y-84661755D01*
X190384838Y-84661755D02*
X190480076Y-84566517D01*
X190480076Y-84566517D02*
X190670552Y-84518898D01*
X190670552Y-84518898D02*
X191003885Y-84518898D01*
X191003885Y-84518898D02*
X191194361Y-84566517D01*
X191194361Y-84566517D02*
X191289600Y-84661755D01*
X191289600Y-84661755D02*
X191337219Y-84756993D01*
X191337219Y-84756993D02*
X191337219Y-84947469D01*
X191337219Y-84947469D02*
X191289600Y-85042707D01*
X191289600Y-85042707D02*
X191194361Y-85137945D01*
X191194361Y-85137945D02*
X191003885Y-85185564D01*
X191003885Y-85185564D02*
X190670552Y-85185564D01*
X190670552Y-85185564D02*
X190480076Y-85137945D01*
X190480076Y-85137945D02*
X190384838Y-85042707D01*
X190384838Y-85042707D02*
X190337219Y-84947469D01*
X191337219Y-84090326D02*
X190337219Y-84090326D01*
X191337219Y-83518898D02*
X190765790Y-83947469D01*
X190337219Y-83518898D02*
X190908647Y-84090326D01*
X191337219Y-83090326D02*
X190337219Y-83090326D01*
X190813409Y-83090326D02*
X190813409Y-82518898D01*
X191337219Y-82518898D02*
X190337219Y-82518898D01*
X191289600Y-82090326D02*
X191337219Y-81947469D01*
X191337219Y-81947469D02*
X191337219Y-81709374D01*
X191337219Y-81709374D02*
X191289600Y-81614136D01*
X191289600Y-81614136D02*
X191241980Y-81566517D01*
X191241980Y-81566517D02*
X191146742Y-81518898D01*
X191146742Y-81518898D02*
X191051504Y-81518898D01*
X191051504Y-81518898D02*
X190956266Y-81566517D01*
X190956266Y-81566517D02*
X190908647Y-81614136D01*
X190908647Y-81614136D02*
X190861028Y-81709374D01*
X190861028Y-81709374D02*
X190813409Y-81899850D01*
X190813409Y-81899850D02*
X190765790Y-81995088D01*
X190765790Y-81995088D02*
X190718171Y-82042707D01*
X190718171Y-82042707D02*
X190622933Y-82090326D01*
X190622933Y-82090326D02*
X190527695Y-82090326D01*
X190527695Y-82090326D02*
X190432457Y-82042707D01*
X190432457Y-82042707D02*
X190384838Y-81995088D01*
X190384838Y-81995088D02*
X190337219Y-81899850D01*
X190337219Y-81899850D02*
X190337219Y-81661755D01*
X190337219Y-81661755D02*
X190384838Y-81518898D01*
X145002054Y-66859600D02*
X145144911Y-66907219D01*
X145144911Y-66907219D02*
X145383006Y-66907219D01*
X145383006Y-66907219D02*
X145478244Y-66859600D01*
X145478244Y-66859600D02*
X145525863Y-66811980D01*
X145525863Y-66811980D02*
X145573482Y-66716742D01*
X145573482Y-66716742D02*
X145573482Y-66621504D01*
X145573482Y-66621504D02*
X145525863Y-66526266D01*
X145525863Y-66526266D02*
X145478244Y-66478647D01*
X145478244Y-66478647D02*
X145383006Y-66431028D01*
X145383006Y-66431028D02*
X145192530Y-66383409D01*
X145192530Y-66383409D02*
X145097292Y-66335790D01*
X145097292Y-66335790D02*
X145049673Y-66288171D01*
X145049673Y-66288171D02*
X145002054Y-66192933D01*
X145002054Y-66192933D02*
X145002054Y-66097695D01*
X145002054Y-66097695D02*
X145049673Y-66002457D01*
X145049673Y-66002457D02*
X145097292Y-65954838D01*
X145097292Y-65954838D02*
X145192530Y-65907219D01*
X145192530Y-65907219D02*
X145430625Y-65907219D01*
X145430625Y-65907219D02*
X145573482Y-65954838D01*
X146002054Y-66907219D02*
X146002054Y-65907219D01*
X146002054Y-65907219D02*
X146240149Y-65907219D01*
X146240149Y-65907219D02*
X146383006Y-65954838D01*
X146383006Y-65954838D02*
X146478244Y-66050076D01*
X146478244Y-66050076D02*
X146525863Y-66145314D01*
X146525863Y-66145314D02*
X146573482Y-66335790D01*
X146573482Y-66335790D02*
X146573482Y-66478647D01*
X146573482Y-66478647D02*
X146525863Y-66669123D01*
X146525863Y-66669123D02*
X146478244Y-66764361D01*
X146478244Y-66764361D02*
X146383006Y-66859600D01*
X146383006Y-66859600D02*
X146240149Y-66907219D01*
X146240149Y-66907219D02*
X146002054Y-66907219D01*
X147573482Y-66811980D02*
X147525863Y-66859600D01*
X147525863Y-66859600D02*
X147383006Y-66907219D01*
X147383006Y-66907219D02*
X147287768Y-66907219D01*
X147287768Y-66907219D02*
X147144911Y-66859600D01*
X147144911Y-66859600D02*
X147049673Y-66764361D01*
X147049673Y-66764361D02*
X147002054Y-66669123D01*
X147002054Y-66669123D02*
X146954435Y-66478647D01*
X146954435Y-66478647D02*
X146954435Y-66335790D01*
X146954435Y-66335790D02*
X147002054Y-66145314D01*
X147002054Y-66145314D02*
X147049673Y-66050076D01*
X147049673Y-66050076D02*
X147144911Y-65954838D01*
X147144911Y-65954838D02*
X147287768Y-65907219D01*
X147287768Y-65907219D02*
X147383006Y-65907219D01*
X147383006Y-65907219D02*
X147525863Y-65954838D01*
X147525863Y-65954838D02*
X147573482Y-66002457D01*
X147763959Y-67002457D02*
X148525863Y-67002457D01*
X148763959Y-66907219D02*
X148763959Y-65907219D01*
X149240149Y-66907219D02*
X149240149Y-65907219D01*
X149240149Y-65907219D02*
X149811577Y-66907219D01*
X149811577Y-66907219D02*
X149811577Y-65907219D01*
X151002054Y-66859600D02*
X151144911Y-66907219D01*
X151144911Y-66907219D02*
X151383006Y-66907219D01*
X151383006Y-66907219D02*
X151478244Y-66859600D01*
X151478244Y-66859600D02*
X151525863Y-66811980D01*
X151525863Y-66811980D02*
X151573482Y-66716742D01*
X151573482Y-66716742D02*
X151573482Y-66621504D01*
X151573482Y-66621504D02*
X151525863Y-66526266D01*
X151525863Y-66526266D02*
X151478244Y-66478647D01*
X151478244Y-66478647D02*
X151383006Y-66431028D01*
X151383006Y-66431028D02*
X151192530Y-66383409D01*
X151192530Y-66383409D02*
X151097292Y-66335790D01*
X151097292Y-66335790D02*
X151049673Y-66288171D01*
X151049673Y-66288171D02*
X151002054Y-66192933D01*
X151002054Y-66192933D02*
X151002054Y-66097695D01*
X151002054Y-66097695D02*
X151049673Y-66002457D01*
X151049673Y-66002457D02*
X151097292Y-65954838D01*
X151097292Y-65954838D02*
X151192530Y-65907219D01*
X151192530Y-65907219D02*
X151430625Y-65907219D01*
X151430625Y-65907219D02*
X151573482Y-65954838D01*
X152002054Y-66907219D02*
X152002054Y-65907219D01*
X152002054Y-65907219D02*
X152240149Y-65907219D01*
X152240149Y-65907219D02*
X152383006Y-65954838D01*
X152383006Y-65954838D02*
X152478244Y-66050076D01*
X152478244Y-66050076D02*
X152525863Y-66145314D01*
X152525863Y-66145314D02*
X152573482Y-66335790D01*
X152573482Y-66335790D02*
X152573482Y-66478647D01*
X152573482Y-66478647D02*
X152525863Y-66669123D01*
X152525863Y-66669123D02*
X152478244Y-66764361D01*
X152478244Y-66764361D02*
X152383006Y-66859600D01*
X152383006Y-66859600D02*
X152240149Y-66907219D01*
X152240149Y-66907219D02*
X152002054Y-66907219D01*
X153573482Y-66811980D02*
X153525863Y-66859600D01*
X153525863Y-66859600D02*
X153383006Y-66907219D01*
X153383006Y-66907219D02*
X153287768Y-66907219D01*
X153287768Y-66907219D02*
X153144911Y-66859600D01*
X153144911Y-66859600D02*
X153049673Y-66764361D01*
X153049673Y-66764361D02*
X153002054Y-66669123D01*
X153002054Y-66669123D02*
X152954435Y-66478647D01*
X152954435Y-66478647D02*
X152954435Y-66335790D01*
X152954435Y-66335790D02*
X153002054Y-66145314D01*
X153002054Y-66145314D02*
X153049673Y-66050076D01*
X153049673Y-66050076D02*
X153144911Y-65954838D01*
X153144911Y-65954838D02*
X153287768Y-65907219D01*
X153287768Y-65907219D02*
X153383006Y-65907219D01*
X153383006Y-65907219D02*
X153525863Y-65954838D01*
X153525863Y-65954838D02*
X153573482Y-66002457D01*
X153763959Y-67002457D02*
X154525863Y-67002457D01*
X154954435Y-65907219D02*
X155144911Y-65907219D01*
X155144911Y-65907219D02*
X155240149Y-65954838D01*
X155240149Y-65954838D02*
X155335387Y-66050076D01*
X155335387Y-66050076D02*
X155383006Y-66240552D01*
X155383006Y-66240552D02*
X155383006Y-66573885D01*
X155383006Y-66573885D02*
X155335387Y-66764361D01*
X155335387Y-66764361D02*
X155240149Y-66859600D01*
X155240149Y-66859600D02*
X155144911Y-66907219D01*
X155144911Y-66907219D02*
X154954435Y-66907219D01*
X154954435Y-66907219D02*
X154859197Y-66859600D01*
X154859197Y-66859600D02*
X154763959Y-66764361D01*
X154763959Y-66764361D02*
X154716340Y-66573885D01*
X154716340Y-66573885D02*
X154716340Y-66240552D01*
X154716340Y-66240552D02*
X154763959Y-66050076D01*
X154763959Y-66050076D02*
X154859197Y-65954838D01*
X154859197Y-65954838D02*
X154954435Y-65907219D01*
X155811578Y-65907219D02*
X155811578Y-66716742D01*
X155811578Y-66716742D02*
X155859197Y-66811980D01*
X155859197Y-66811980D02*
X155906816Y-66859600D01*
X155906816Y-66859600D02*
X156002054Y-66907219D01*
X156002054Y-66907219D02*
X156192530Y-66907219D01*
X156192530Y-66907219D02*
X156287768Y-66859600D01*
X156287768Y-66859600D02*
X156335387Y-66811980D01*
X156335387Y-66811980D02*
X156383006Y-66716742D01*
X156383006Y-66716742D02*
X156383006Y-65907219D01*
X156716340Y-65907219D02*
X157287768Y-65907219D01*
X157002054Y-66907219D02*
X157002054Y-65907219D01*
X185413482Y-70374838D02*
X185318244Y-70327219D01*
X185318244Y-70327219D02*
X185175387Y-70327219D01*
X185175387Y-70327219D02*
X185032530Y-70374838D01*
X185032530Y-70374838D02*
X184937292Y-70470076D01*
X184937292Y-70470076D02*
X184889673Y-70565314D01*
X184889673Y-70565314D02*
X184842054Y-70755790D01*
X184842054Y-70755790D02*
X184842054Y-70898647D01*
X184842054Y-70898647D02*
X184889673Y-71089123D01*
X184889673Y-71089123D02*
X184937292Y-71184361D01*
X184937292Y-71184361D02*
X185032530Y-71279600D01*
X185032530Y-71279600D02*
X185175387Y-71327219D01*
X185175387Y-71327219D02*
X185270625Y-71327219D01*
X185270625Y-71327219D02*
X185413482Y-71279600D01*
X185413482Y-71279600D02*
X185461101Y-71231980D01*
X185461101Y-71231980D02*
X185461101Y-70898647D01*
X185461101Y-70898647D02*
X185270625Y-70898647D01*
X185889673Y-71327219D02*
X185889673Y-70327219D01*
X185889673Y-70327219D02*
X186461101Y-71327219D01*
X186461101Y-71327219D02*
X186461101Y-70327219D01*
X186937292Y-71327219D02*
X186937292Y-70327219D01*
X186937292Y-70327219D02*
X187175387Y-70327219D01*
X187175387Y-70327219D02*
X187318244Y-70374838D01*
X187318244Y-70374838D02*
X187413482Y-70470076D01*
X187413482Y-70470076D02*
X187461101Y-70565314D01*
X187461101Y-70565314D02*
X187508720Y-70755790D01*
X187508720Y-70755790D02*
X187508720Y-70898647D01*
X187508720Y-70898647D02*
X187461101Y-71089123D01*
X187461101Y-71089123D02*
X187413482Y-71184361D01*
X187413482Y-71184361D02*
X187318244Y-71279600D01*
X187318244Y-71279600D02*
X187175387Y-71327219D01*
X187175387Y-71327219D02*
X186937292Y-71327219D01*
X188933482Y-71277219D02*
X188362054Y-71277219D01*
X188647768Y-71277219D02*
X188647768Y-70277219D01*
X188647768Y-70277219D02*
X188552530Y-70420076D01*
X188552530Y-70420076D02*
X188457292Y-70515314D01*
X188457292Y-70515314D02*
X188362054Y-70562933D01*
X189314435Y-70372457D02*
X189362054Y-70324838D01*
X189362054Y-70324838D02*
X189457292Y-70277219D01*
X189457292Y-70277219D02*
X189695387Y-70277219D01*
X189695387Y-70277219D02*
X189790625Y-70324838D01*
X189790625Y-70324838D02*
X189838244Y-70372457D01*
X189838244Y-70372457D02*
X189885863Y-70467695D01*
X189885863Y-70467695D02*
X189885863Y-70562933D01*
X189885863Y-70562933D02*
X189838244Y-70705790D01*
X189838244Y-70705790D02*
X189266816Y-71277219D01*
X189266816Y-71277219D02*
X189885863Y-71277219D01*
X190171578Y-70277219D02*
X190504911Y-71277219D01*
X190504911Y-71277219D02*
X190838244Y-70277219D01*
D11*
X133234133Y-81459419D02*
X132900800Y-80983228D01*
X132662705Y-81459419D02*
X132662705Y-80459419D01*
X132662705Y-80459419D02*
X133043657Y-80459419D01*
X133043657Y-80459419D02*
X133138895Y-80507038D01*
X133138895Y-80507038D02*
X133186514Y-80554657D01*
X133186514Y-80554657D02*
X133234133Y-80649895D01*
X133234133Y-80649895D02*
X133234133Y-80792752D01*
X133234133Y-80792752D02*
X133186514Y-80887990D01*
X133186514Y-80887990D02*
X133138895Y-80935609D01*
X133138895Y-80935609D02*
X133043657Y-80983228D01*
X133043657Y-80983228D02*
X132662705Y-80983228D01*
X134091276Y-80459419D02*
X133900800Y-80459419D01*
X133900800Y-80459419D02*
X133805562Y-80507038D01*
X133805562Y-80507038D02*
X133757943Y-80554657D01*
X133757943Y-80554657D02*
X133662705Y-80697514D01*
X133662705Y-80697514D02*
X133615086Y-80887990D01*
X133615086Y-80887990D02*
X133615086Y-81268942D01*
X133615086Y-81268942D02*
X133662705Y-81364180D01*
X133662705Y-81364180D02*
X133710324Y-81411800D01*
X133710324Y-81411800D02*
X133805562Y-81459419D01*
X133805562Y-81459419D02*
X133996038Y-81459419D01*
X133996038Y-81459419D02*
X134091276Y-81411800D01*
X134091276Y-81411800D02*
X134138895Y-81364180D01*
X134138895Y-81364180D02*
X134186514Y-81268942D01*
X134186514Y-81268942D02*
X134186514Y-81030847D01*
X134186514Y-81030847D02*
X134138895Y-80935609D01*
X134138895Y-80935609D02*
X134091276Y-80887990D01*
X134091276Y-80887990D02*
X133996038Y-80840371D01*
X133996038Y-80840371D02*
X133805562Y-80840371D01*
X133805562Y-80840371D02*
X133710324Y-80887990D01*
X133710324Y-80887990D02*
X133662705Y-80935609D01*
X133662705Y-80935609D02*
X133615086Y-81030847D01*
X166002833Y-76924136D02*
X165526642Y-77257469D01*
X166002833Y-77495564D02*
X165002833Y-77495564D01*
X165002833Y-77495564D02*
X165002833Y-77114612D01*
X165002833Y-77114612D02*
X165050452Y-77019374D01*
X165050452Y-77019374D02*
X165098071Y-76971755D01*
X165098071Y-76971755D02*
X165193309Y-76924136D01*
X165193309Y-76924136D02*
X165336166Y-76924136D01*
X165336166Y-76924136D02*
X165431404Y-76971755D01*
X165431404Y-76971755D02*
X165479023Y-77019374D01*
X165479023Y-77019374D02*
X165526642Y-77114612D01*
X165526642Y-77114612D02*
X165526642Y-77495564D01*
X165002833Y-76590802D02*
X165002833Y-75924136D01*
X165002833Y-75924136D02*
X166002833Y-76352707D01*
X172788142Y-69914218D02*
X172454809Y-69438027D01*
X172216714Y-69914218D02*
X172216714Y-68914218D01*
X172216714Y-68914218D02*
X172597666Y-68914218D01*
X172597666Y-68914218D02*
X172692904Y-68961837D01*
X172692904Y-68961837D02*
X172740523Y-69009456D01*
X172740523Y-69009456D02*
X172788142Y-69104694D01*
X172788142Y-69104694D02*
X172788142Y-69247551D01*
X172788142Y-69247551D02*
X172740523Y-69342789D01*
X172740523Y-69342789D02*
X172692904Y-69390408D01*
X172692904Y-69390408D02*
X172597666Y-69438027D01*
X172597666Y-69438027D02*
X172216714Y-69438027D01*
X173740523Y-69914218D02*
X173169095Y-69914218D01*
X173454809Y-69914218D02*
X173454809Y-68914218D01*
X173454809Y-68914218D02*
X173359571Y-69057075D01*
X173359571Y-69057075D02*
X173264333Y-69152313D01*
X173264333Y-69152313D02*
X173169095Y-69199932D01*
X174692904Y-69914218D02*
X174121476Y-69914218D01*
X174407190Y-69914218D02*
X174407190Y-68914218D01*
X174407190Y-68914218D02*
X174311952Y-69057075D01*
X174311952Y-69057075D02*
X174216714Y-69152313D01*
X174216714Y-69152313D02*
X174121476Y-69199932D01*
X179210834Y-82048526D02*
X178734643Y-82381859D01*
X179210834Y-82619954D02*
X178210834Y-82619954D01*
X178210834Y-82619954D02*
X178210834Y-82239002D01*
X178210834Y-82239002D02*
X178258453Y-82143764D01*
X178258453Y-82143764D02*
X178306072Y-82096145D01*
X178306072Y-82096145D02*
X178401310Y-82048526D01*
X178401310Y-82048526D02*
X178544167Y-82048526D01*
X178544167Y-82048526D02*
X178639405Y-82096145D01*
X178639405Y-82096145D02*
X178687024Y-82143764D01*
X178687024Y-82143764D02*
X178734643Y-82239002D01*
X178734643Y-82239002D02*
X178734643Y-82619954D01*
X179210834Y-81096145D02*
X179210834Y-81667573D01*
X179210834Y-81381859D02*
X178210834Y-81381859D01*
X178210834Y-81381859D02*
X178353691Y-81477097D01*
X178353691Y-81477097D02*
X178448929Y-81572335D01*
X178448929Y-81572335D02*
X178496548Y-81667573D01*
X178210834Y-80762811D02*
X178210834Y-80143764D01*
X178210834Y-80143764D02*
X178591786Y-80477097D01*
X178591786Y-80477097D02*
X178591786Y-80334240D01*
X178591786Y-80334240D02*
X178639405Y-80239002D01*
X178639405Y-80239002D02*
X178687024Y-80191383D01*
X178687024Y-80191383D02*
X178782262Y-80143764D01*
X178782262Y-80143764D02*
X179020357Y-80143764D01*
X179020357Y-80143764D02*
X179115595Y-80191383D01*
X179115595Y-80191383D02*
X179163215Y-80239002D01*
X179163215Y-80239002D02*
X179210834Y-80334240D01*
X179210834Y-80334240D02*
X179210834Y-80619954D01*
X179210834Y-80619954D02*
X179163215Y-80715192D01*
X179163215Y-80715192D02*
X179115595Y-80762811D01*
X169262993Y-72504534D02*
X169310613Y-72552153D01*
X169310613Y-72552153D02*
X169358232Y-72695010D01*
X169358232Y-72695010D02*
X169358232Y-72790248D01*
X169358232Y-72790248D02*
X169310613Y-72933105D01*
X169310613Y-72933105D02*
X169215374Y-73028343D01*
X169215374Y-73028343D02*
X169120136Y-73075962D01*
X169120136Y-73075962D02*
X168929660Y-73123581D01*
X168929660Y-73123581D02*
X168786803Y-73123581D01*
X168786803Y-73123581D02*
X168596327Y-73075962D01*
X168596327Y-73075962D02*
X168501089Y-73028343D01*
X168501089Y-73028343D02*
X168405851Y-72933105D01*
X168405851Y-72933105D02*
X168358232Y-72790248D01*
X168358232Y-72790248D02*
X168358232Y-72695010D01*
X168358232Y-72695010D02*
X168405851Y-72552153D01*
X168405851Y-72552153D02*
X168453470Y-72504534D01*
X168358232Y-72171200D02*
X168358232Y-71552153D01*
X168358232Y-71552153D02*
X168739184Y-71885486D01*
X168739184Y-71885486D02*
X168739184Y-71742629D01*
X168739184Y-71742629D02*
X168786803Y-71647391D01*
X168786803Y-71647391D02*
X168834422Y-71599772D01*
X168834422Y-71599772D02*
X168929660Y-71552153D01*
X168929660Y-71552153D02*
X169167755Y-71552153D01*
X169167755Y-71552153D02*
X169262993Y-71599772D01*
X169262993Y-71599772D02*
X169310613Y-71647391D01*
X169310613Y-71647391D02*
X169358232Y-71742629D01*
X169358232Y-71742629D02*
X169358232Y-72028343D01*
X169358232Y-72028343D02*
X169310613Y-72123581D01*
X169310613Y-72123581D02*
X169262993Y-72171200D01*
X184264819Y-81366666D02*
X183788628Y-81699999D01*
X184264819Y-81938094D02*
X183264819Y-81938094D01*
X183264819Y-81938094D02*
X183264819Y-81557142D01*
X183264819Y-81557142D02*
X183312438Y-81461904D01*
X183312438Y-81461904D02*
X183360057Y-81414285D01*
X183360057Y-81414285D02*
X183455295Y-81366666D01*
X183455295Y-81366666D02*
X183598152Y-81366666D01*
X183598152Y-81366666D02*
X183693390Y-81414285D01*
X183693390Y-81414285D02*
X183741009Y-81461904D01*
X183741009Y-81461904D02*
X183788628Y-81557142D01*
X183788628Y-81557142D02*
X183788628Y-81938094D01*
X183598152Y-80509523D02*
X184264819Y-80509523D01*
X183217200Y-80747618D02*
X183931485Y-80985713D01*
X183931485Y-80985713D02*
X183931485Y-80366666D01*
X169685834Y-78771926D02*
X169209643Y-79105259D01*
X169685834Y-79343354D02*
X168685834Y-79343354D01*
X168685834Y-79343354D02*
X168685834Y-78962402D01*
X168685834Y-78962402D02*
X168733453Y-78867164D01*
X168733453Y-78867164D02*
X168781072Y-78819545D01*
X168781072Y-78819545D02*
X168876310Y-78771926D01*
X168876310Y-78771926D02*
X169019167Y-78771926D01*
X169019167Y-78771926D02*
X169114405Y-78819545D01*
X169114405Y-78819545D02*
X169162024Y-78867164D01*
X169162024Y-78867164D02*
X169209643Y-78962402D01*
X169209643Y-78962402D02*
X169209643Y-79343354D01*
X169685834Y-77819545D02*
X169685834Y-78390973D01*
X169685834Y-78105259D02*
X168685834Y-78105259D01*
X168685834Y-78105259D02*
X168828691Y-78200497D01*
X168828691Y-78200497D02*
X168923929Y-78295735D01*
X168923929Y-78295735D02*
X168971548Y-78390973D01*
X169019167Y-76962402D02*
X169685834Y-76962402D01*
X168638215Y-77200497D02*
X169352500Y-77438592D01*
X169352500Y-77438592D02*
X169352500Y-76819545D01*
X141170819Y-80271857D02*
X140694628Y-80605190D01*
X141170819Y-80843285D02*
X140170819Y-80843285D01*
X140170819Y-80843285D02*
X140170819Y-80462333D01*
X140170819Y-80462333D02*
X140218438Y-80367095D01*
X140218438Y-80367095D02*
X140266057Y-80319476D01*
X140266057Y-80319476D02*
X140361295Y-80271857D01*
X140361295Y-80271857D02*
X140504152Y-80271857D01*
X140504152Y-80271857D02*
X140599390Y-80319476D01*
X140599390Y-80319476D02*
X140647009Y-80367095D01*
X140647009Y-80367095D02*
X140694628Y-80462333D01*
X140694628Y-80462333D02*
X140694628Y-80843285D01*
X141170819Y-79319476D02*
X141170819Y-79890904D01*
X141170819Y-79605190D02*
X140170819Y-79605190D01*
X140170819Y-79605190D02*
X140313676Y-79700428D01*
X140313676Y-79700428D02*
X140408914Y-79795666D01*
X140408914Y-79795666D02*
X140456533Y-79890904D01*
X140170819Y-78986142D02*
X140170819Y-78319476D01*
X140170819Y-78319476D02*
X141170819Y-78748047D01*
X133307861Y-70654057D02*
X133212623Y-70606438D01*
X133212623Y-70606438D02*
X133117385Y-70511200D01*
X133117385Y-70511200D02*
X132974528Y-70368342D01*
X132974528Y-70368342D02*
X132879290Y-70320723D01*
X132879290Y-70320723D02*
X132784052Y-70320723D01*
X132831671Y-70558819D02*
X132736433Y-70511200D01*
X132736433Y-70511200D02*
X132641195Y-70415961D01*
X132641195Y-70415961D02*
X132593576Y-70225485D01*
X132593576Y-70225485D02*
X132593576Y-69892152D01*
X132593576Y-69892152D02*
X132641195Y-69701676D01*
X132641195Y-69701676D02*
X132736433Y-69606438D01*
X132736433Y-69606438D02*
X132831671Y-69558819D01*
X132831671Y-69558819D02*
X133022147Y-69558819D01*
X133022147Y-69558819D02*
X133117385Y-69606438D01*
X133117385Y-69606438D02*
X133212623Y-69701676D01*
X133212623Y-69701676D02*
X133260242Y-69892152D01*
X133260242Y-69892152D02*
X133260242Y-70225485D01*
X133260242Y-70225485D02*
X133212623Y-70415961D01*
X133212623Y-70415961D02*
X133117385Y-70511200D01*
X133117385Y-70511200D02*
X133022147Y-70558819D01*
X133022147Y-70558819D02*
X132831671Y-70558819D01*
X133641195Y-69654057D02*
X133688814Y-69606438D01*
X133688814Y-69606438D02*
X133784052Y-69558819D01*
X133784052Y-69558819D02*
X134022147Y-69558819D01*
X134022147Y-69558819D02*
X134117385Y-69606438D01*
X134117385Y-69606438D02*
X134165004Y-69654057D01*
X134165004Y-69654057D02*
X134212623Y-69749295D01*
X134212623Y-69749295D02*
X134212623Y-69844533D01*
X134212623Y-69844533D02*
X134165004Y-69987390D01*
X134165004Y-69987390D02*
X133593576Y-70558819D01*
X133593576Y-70558819D02*
X134212623Y-70558819D01*
X136725819Y-94184694D02*
X135725819Y-94184694D01*
X135725819Y-94184694D02*
X135725819Y-93946599D01*
X135725819Y-93946599D02*
X135773438Y-93803742D01*
X135773438Y-93803742D02*
X135868676Y-93708504D01*
X135868676Y-93708504D02*
X135963914Y-93660885D01*
X135963914Y-93660885D02*
X136154390Y-93613266D01*
X136154390Y-93613266D02*
X136297247Y-93613266D01*
X136297247Y-93613266D02*
X136487723Y-93660885D01*
X136487723Y-93660885D02*
X136582961Y-93708504D01*
X136582961Y-93708504D02*
X136678200Y-93803742D01*
X136678200Y-93803742D02*
X136725819Y-93946599D01*
X136725819Y-93946599D02*
X136725819Y-94184694D01*
X135725819Y-92708504D02*
X135725819Y-93184694D01*
X135725819Y-93184694D02*
X136202009Y-93232313D01*
X136202009Y-93232313D02*
X136154390Y-93184694D01*
X136154390Y-93184694D02*
X136106771Y-93089456D01*
X136106771Y-93089456D02*
X136106771Y-92851361D01*
X136106771Y-92851361D02*
X136154390Y-92756123D01*
X136154390Y-92756123D02*
X136202009Y-92708504D01*
X136202009Y-92708504D02*
X136297247Y-92660885D01*
X136297247Y-92660885D02*
X136535342Y-92660885D01*
X136535342Y-92660885D02*
X136630580Y-92708504D01*
X136630580Y-92708504D02*
X136678200Y-92756123D01*
X136678200Y-92756123D02*
X136725819Y-92851361D01*
X136725819Y-92851361D02*
X136725819Y-93089456D01*
X136725819Y-93089456D02*
X136678200Y-93184694D01*
X136678200Y-93184694D02*
X136630580Y-93232313D01*
X140764419Y-99779057D02*
X140288228Y-100112390D01*
X140764419Y-100350485D02*
X139764419Y-100350485D01*
X139764419Y-100350485D02*
X139764419Y-99969533D01*
X139764419Y-99969533D02*
X139812038Y-99874295D01*
X139812038Y-99874295D02*
X139859657Y-99826676D01*
X139859657Y-99826676D02*
X139954895Y-99779057D01*
X139954895Y-99779057D02*
X140097752Y-99779057D01*
X140097752Y-99779057D02*
X140192990Y-99826676D01*
X140192990Y-99826676D02*
X140240609Y-99874295D01*
X140240609Y-99874295D02*
X140288228Y-99969533D01*
X140288228Y-99969533D02*
X140288228Y-100350485D01*
X140764419Y-98826676D02*
X140764419Y-99398104D01*
X140764419Y-99112390D02*
X139764419Y-99112390D01*
X139764419Y-99112390D02*
X139907276Y-99207628D01*
X139907276Y-99207628D02*
X140002514Y-99302866D01*
X140002514Y-99302866D02*
X140050133Y-99398104D01*
X139764419Y-97969533D02*
X139764419Y-98160009D01*
X139764419Y-98160009D02*
X139812038Y-98255247D01*
X139812038Y-98255247D02*
X139859657Y-98302866D01*
X139859657Y-98302866D02*
X140002514Y-98398104D01*
X140002514Y-98398104D02*
X140192990Y-98445723D01*
X140192990Y-98445723D02*
X140573942Y-98445723D01*
X140573942Y-98445723D02*
X140669180Y-98398104D01*
X140669180Y-98398104D02*
X140716800Y-98350485D01*
X140716800Y-98350485D02*
X140764419Y-98255247D01*
X140764419Y-98255247D02*
X140764419Y-98064771D01*
X140764419Y-98064771D02*
X140716800Y-97969533D01*
X140716800Y-97969533D02*
X140669180Y-97921914D01*
X140669180Y-97921914D02*
X140573942Y-97874295D01*
X140573942Y-97874295D02*
X140335847Y-97874295D01*
X140335847Y-97874295D02*
X140240609Y-97921914D01*
X140240609Y-97921914D02*
X140192990Y-97969533D01*
X140192990Y-97969533D02*
X140145371Y-98064771D01*
X140145371Y-98064771D02*
X140145371Y-98255247D01*
X140145371Y-98255247D02*
X140192990Y-98350485D01*
X140192990Y-98350485D02*
X140240609Y-98398104D01*
X140240609Y-98398104D02*
X140335847Y-98445723D01*
X181293419Y-95673704D02*
X182102942Y-95673704D01*
X182102942Y-95673704D02*
X182198180Y-95626085D01*
X182198180Y-95626085D02*
X182245800Y-95578466D01*
X182245800Y-95578466D02*
X182293419Y-95483228D01*
X182293419Y-95483228D02*
X182293419Y-95292752D01*
X182293419Y-95292752D02*
X182245800Y-95197514D01*
X182245800Y-95197514D02*
X182198180Y-95149895D01*
X182198180Y-95149895D02*
X182102942Y-95102276D01*
X182102942Y-95102276D02*
X181293419Y-95102276D01*
X182293419Y-94102276D02*
X182293419Y-94673704D01*
X182293419Y-94387990D02*
X181293419Y-94387990D01*
X181293419Y-94387990D02*
X181436276Y-94483228D01*
X181436276Y-94483228D02*
X181531514Y-94578466D01*
X181531514Y-94578466D02*
X181579133Y-94673704D01*
X133104661Y-89805657D02*
X133009423Y-89758038D01*
X133009423Y-89758038D02*
X132914185Y-89662800D01*
X132914185Y-89662800D02*
X132771328Y-89519942D01*
X132771328Y-89519942D02*
X132676090Y-89472323D01*
X132676090Y-89472323D02*
X132580852Y-89472323D01*
X132628471Y-89710419D02*
X132533233Y-89662800D01*
X132533233Y-89662800D02*
X132437995Y-89567561D01*
X132437995Y-89567561D02*
X132390376Y-89377085D01*
X132390376Y-89377085D02*
X132390376Y-89043752D01*
X132390376Y-89043752D02*
X132437995Y-88853276D01*
X132437995Y-88853276D02*
X132533233Y-88758038D01*
X132533233Y-88758038D02*
X132628471Y-88710419D01*
X132628471Y-88710419D02*
X132818947Y-88710419D01*
X132818947Y-88710419D02*
X132914185Y-88758038D01*
X132914185Y-88758038D02*
X133009423Y-88853276D01*
X133009423Y-88853276D02*
X133057042Y-89043752D01*
X133057042Y-89043752D02*
X133057042Y-89377085D01*
X133057042Y-89377085D02*
X133009423Y-89567561D01*
X133009423Y-89567561D02*
X132914185Y-89662800D01*
X132914185Y-89662800D02*
X132818947Y-89710419D01*
X132818947Y-89710419D02*
X132628471Y-89710419D01*
X134009423Y-89710419D02*
X133437995Y-89710419D01*
X133723709Y-89710419D02*
X133723709Y-88710419D01*
X133723709Y-88710419D02*
X133628471Y-88853276D01*
X133628471Y-88853276D02*
X133533233Y-88948514D01*
X133533233Y-88948514D02*
X133437995Y-88996133D01*
X176624309Y-75896289D02*
X176624309Y-76705812D01*
X176624309Y-76705812D02*
X176671928Y-76801050D01*
X176671928Y-76801050D02*
X176719547Y-76848670D01*
X176719547Y-76848670D02*
X176814785Y-76896289D01*
X176814785Y-76896289D02*
X177005261Y-76896289D01*
X177005261Y-76896289D02*
X177100499Y-76848670D01*
X177100499Y-76848670D02*
X177148118Y-76801050D01*
X177148118Y-76801050D02*
X177195737Y-76705812D01*
X177195737Y-76705812D02*
X177195737Y-75896289D01*
X177624309Y-75991527D02*
X177671928Y-75943908D01*
X177671928Y-75943908D02*
X177767166Y-75896289D01*
X177767166Y-75896289D02*
X178005261Y-75896289D01*
X178005261Y-75896289D02*
X178100499Y-75943908D01*
X178100499Y-75943908D02*
X178148118Y-75991527D01*
X178148118Y-75991527D02*
X178195737Y-76086765D01*
X178195737Y-76086765D02*
X178195737Y-76182003D01*
X178195737Y-76182003D02*
X178148118Y-76324860D01*
X178148118Y-76324860D02*
X177576690Y-76896289D01*
X177576690Y-76896289D02*
X178195737Y-76896289D01*
X133058633Y-100545019D02*
X132725300Y-100068828D01*
X132487205Y-100545019D02*
X132487205Y-99545019D01*
X132487205Y-99545019D02*
X132868157Y-99545019D01*
X132868157Y-99545019D02*
X132963395Y-99592638D01*
X132963395Y-99592638D02*
X133011014Y-99640257D01*
X133011014Y-99640257D02*
X133058633Y-99735495D01*
X133058633Y-99735495D02*
X133058633Y-99878352D01*
X133058633Y-99878352D02*
X133011014Y-99973590D01*
X133011014Y-99973590D02*
X132963395Y-100021209D01*
X132963395Y-100021209D02*
X132868157Y-100068828D01*
X132868157Y-100068828D02*
X132487205Y-100068828D01*
X133963395Y-99545019D02*
X133487205Y-99545019D01*
X133487205Y-99545019D02*
X133439586Y-100021209D01*
X133439586Y-100021209D02*
X133487205Y-99973590D01*
X133487205Y-99973590D02*
X133582443Y-99925971D01*
X133582443Y-99925971D02*
X133820538Y-99925971D01*
X133820538Y-99925971D02*
X133915776Y-99973590D01*
X133915776Y-99973590D02*
X133963395Y-100021209D01*
X133963395Y-100021209D02*
X134011014Y-100116447D01*
X134011014Y-100116447D02*
X134011014Y-100354542D01*
X134011014Y-100354542D02*
X133963395Y-100449780D01*
X133963395Y-100449780D02*
X133915776Y-100497400D01*
X133915776Y-100497400D02*
X133820538Y-100545019D01*
X133820538Y-100545019D02*
X133582443Y-100545019D01*
X133582443Y-100545019D02*
X133487205Y-100497400D01*
X133487205Y-100497400D02*
X133439586Y-100449780D01*
X183997142Y-92284819D02*
X183663809Y-91808628D01*
X183425714Y-92284819D02*
X183425714Y-91284819D01*
X183425714Y-91284819D02*
X183806666Y-91284819D01*
X183806666Y-91284819D02*
X183901904Y-91332438D01*
X183901904Y-91332438D02*
X183949523Y-91380057D01*
X183949523Y-91380057D02*
X183997142Y-91475295D01*
X183997142Y-91475295D02*
X183997142Y-91618152D01*
X183997142Y-91618152D02*
X183949523Y-91713390D01*
X183949523Y-91713390D02*
X183901904Y-91761009D01*
X183901904Y-91761009D02*
X183806666Y-91808628D01*
X183806666Y-91808628D02*
X183425714Y-91808628D01*
X184949523Y-92284819D02*
X184378095Y-92284819D01*
X184663809Y-92284819D02*
X184663809Y-91284819D01*
X184663809Y-91284819D02*
X184568571Y-91427676D01*
X184568571Y-91427676D02*
X184473333Y-91522914D01*
X184473333Y-91522914D02*
X184378095Y-91570533D01*
X185568571Y-91284819D02*
X185663809Y-91284819D01*
X185663809Y-91284819D02*
X185759047Y-91332438D01*
X185759047Y-91332438D02*
X185806666Y-91380057D01*
X185806666Y-91380057D02*
X185854285Y-91475295D01*
X185854285Y-91475295D02*
X185901904Y-91665771D01*
X185901904Y-91665771D02*
X185901904Y-91903866D01*
X185901904Y-91903866D02*
X185854285Y-92094342D01*
X185854285Y-92094342D02*
X185806666Y-92189580D01*
X185806666Y-92189580D02*
X185759047Y-92237200D01*
X185759047Y-92237200D02*
X185663809Y-92284819D01*
X185663809Y-92284819D02*
X185568571Y-92284819D01*
X185568571Y-92284819D02*
X185473333Y-92237200D01*
X185473333Y-92237200D02*
X185425714Y-92189580D01*
X185425714Y-92189580D02*
X185378095Y-92094342D01*
X185378095Y-92094342D02*
X185330476Y-91903866D01*
X185330476Y-91903866D02*
X185330476Y-91665771D01*
X185330476Y-91665771D02*
X185378095Y-91475295D01*
X185378095Y-91475295D02*
X185425714Y-91380057D01*
X185425714Y-91380057D02*
X185473333Y-91332438D01*
X185473333Y-91332438D02*
X185568571Y-91284819D01*
X136700419Y-75134694D02*
X135700419Y-75134694D01*
X135700419Y-75134694D02*
X135700419Y-74896599D01*
X135700419Y-74896599D02*
X135748038Y-74753742D01*
X135748038Y-74753742D02*
X135843276Y-74658504D01*
X135843276Y-74658504D02*
X135938514Y-74610885D01*
X135938514Y-74610885D02*
X136128990Y-74563266D01*
X136128990Y-74563266D02*
X136271847Y-74563266D01*
X136271847Y-74563266D02*
X136462323Y-74610885D01*
X136462323Y-74610885D02*
X136557561Y-74658504D01*
X136557561Y-74658504D02*
X136652800Y-74753742D01*
X136652800Y-74753742D02*
X136700419Y-74896599D01*
X136700419Y-74896599D02*
X136700419Y-75134694D01*
X135700419Y-73706123D02*
X135700419Y-73896599D01*
X135700419Y-73896599D02*
X135748038Y-73991837D01*
X135748038Y-73991837D02*
X135795657Y-74039456D01*
X135795657Y-74039456D02*
X135938514Y-74134694D01*
X135938514Y-74134694D02*
X136128990Y-74182313D01*
X136128990Y-74182313D02*
X136509942Y-74182313D01*
X136509942Y-74182313D02*
X136605180Y-74134694D01*
X136605180Y-74134694D02*
X136652800Y-74087075D01*
X136652800Y-74087075D02*
X136700419Y-73991837D01*
X136700419Y-73991837D02*
X136700419Y-73801361D01*
X136700419Y-73801361D02*
X136652800Y-73706123D01*
X136652800Y-73706123D02*
X136605180Y-73658504D01*
X136605180Y-73658504D02*
X136509942Y-73610885D01*
X136509942Y-73610885D02*
X136271847Y-73610885D01*
X136271847Y-73610885D02*
X136176609Y-73658504D01*
X136176609Y-73658504D02*
X136128990Y-73706123D01*
X136128990Y-73706123D02*
X136081371Y-73801361D01*
X136081371Y-73801361D02*
X136081371Y-73991837D01*
X136081371Y-73991837D02*
X136128990Y-74087075D01*
X136128990Y-74087075D02*
X136176609Y-74134694D01*
X136176609Y-74134694D02*
X136271847Y-74182313D01*
X136522619Y-76646066D02*
X136046428Y-76979399D01*
X136522619Y-77217494D02*
X135522619Y-77217494D01*
X135522619Y-77217494D02*
X135522619Y-76836542D01*
X135522619Y-76836542D02*
X135570238Y-76741304D01*
X135570238Y-76741304D02*
X135617857Y-76693685D01*
X135617857Y-76693685D02*
X135713095Y-76646066D01*
X135713095Y-76646066D02*
X135855952Y-76646066D01*
X135855952Y-76646066D02*
X135951190Y-76693685D01*
X135951190Y-76693685D02*
X135998809Y-76741304D01*
X135998809Y-76741304D02*
X136046428Y-76836542D01*
X136046428Y-76836542D02*
X136046428Y-77217494D01*
X135522619Y-76312732D02*
X135522619Y-75693685D01*
X135522619Y-75693685D02*
X135903571Y-76027018D01*
X135903571Y-76027018D02*
X135903571Y-75884161D01*
X135903571Y-75884161D02*
X135951190Y-75788923D01*
X135951190Y-75788923D02*
X135998809Y-75741304D01*
X135998809Y-75741304D02*
X136094047Y-75693685D01*
X136094047Y-75693685D02*
X136332142Y-75693685D01*
X136332142Y-75693685D02*
X136427380Y-75741304D01*
X136427380Y-75741304D02*
X136475000Y-75788923D01*
X136475000Y-75788923D02*
X136522619Y-75884161D01*
X136522619Y-75884161D02*
X136522619Y-76169875D01*
X136522619Y-76169875D02*
X136475000Y-76265113D01*
X136475000Y-76265113D02*
X136427380Y-76312732D01*
X136421019Y-95645266D02*
X135944828Y-95978599D01*
X136421019Y-96216694D02*
X135421019Y-96216694D01*
X135421019Y-96216694D02*
X135421019Y-95835742D01*
X135421019Y-95835742D02*
X135468638Y-95740504D01*
X135468638Y-95740504D02*
X135516257Y-95692885D01*
X135516257Y-95692885D02*
X135611495Y-95645266D01*
X135611495Y-95645266D02*
X135754352Y-95645266D01*
X135754352Y-95645266D02*
X135849590Y-95692885D01*
X135849590Y-95692885D02*
X135897209Y-95740504D01*
X135897209Y-95740504D02*
X135944828Y-95835742D01*
X135944828Y-95835742D02*
X135944828Y-96216694D01*
X135516257Y-95264313D02*
X135468638Y-95216694D01*
X135468638Y-95216694D02*
X135421019Y-95121456D01*
X135421019Y-95121456D02*
X135421019Y-94883361D01*
X135421019Y-94883361D02*
X135468638Y-94788123D01*
X135468638Y-94788123D02*
X135516257Y-94740504D01*
X135516257Y-94740504D02*
X135611495Y-94692885D01*
X135611495Y-94692885D02*
X135706733Y-94692885D01*
X135706733Y-94692885D02*
X135849590Y-94740504D01*
X135849590Y-94740504D02*
X136421019Y-95311932D01*
X136421019Y-95311932D02*
X136421019Y-94692885D01*
X182373333Y-69829581D02*
X182325714Y-69877201D01*
X182325714Y-69877201D02*
X182182857Y-69924820D01*
X182182857Y-69924820D02*
X182087619Y-69924820D01*
X182087619Y-69924820D02*
X181944762Y-69877201D01*
X181944762Y-69877201D02*
X181849524Y-69781962D01*
X181849524Y-69781962D02*
X181801905Y-69686724D01*
X181801905Y-69686724D02*
X181754286Y-69496248D01*
X181754286Y-69496248D02*
X181754286Y-69353391D01*
X181754286Y-69353391D02*
X181801905Y-69162915D01*
X181801905Y-69162915D02*
X181849524Y-69067677D01*
X181849524Y-69067677D02*
X181944762Y-68972439D01*
X181944762Y-68972439D02*
X182087619Y-68924820D01*
X182087619Y-68924820D02*
X182182857Y-68924820D01*
X182182857Y-68924820D02*
X182325714Y-68972439D01*
X182325714Y-68972439D02*
X182373333Y-69020058D01*
X182754286Y-69020058D02*
X182801905Y-68972439D01*
X182801905Y-68972439D02*
X182897143Y-68924820D01*
X182897143Y-68924820D02*
X183135238Y-68924820D01*
X183135238Y-68924820D02*
X183230476Y-68972439D01*
X183230476Y-68972439D02*
X183278095Y-69020058D01*
X183278095Y-69020058D02*
X183325714Y-69115296D01*
X183325714Y-69115296D02*
X183325714Y-69210534D01*
X183325714Y-69210534D02*
X183278095Y-69353391D01*
X183278095Y-69353391D02*
X182706667Y-69924820D01*
X182706667Y-69924820D02*
X183325714Y-69924820D01*
X181841905Y-86534819D02*
X181841905Y-85534819D01*
X181841905Y-85534819D02*
X182080000Y-85534819D01*
X182080000Y-85534819D02*
X182222857Y-85582438D01*
X182222857Y-85582438D02*
X182318095Y-85677676D01*
X182318095Y-85677676D02*
X182365714Y-85772914D01*
X182365714Y-85772914D02*
X182413333Y-85963390D01*
X182413333Y-85963390D02*
X182413333Y-86106247D01*
X182413333Y-86106247D02*
X182365714Y-86296723D01*
X182365714Y-86296723D02*
X182318095Y-86391961D01*
X182318095Y-86391961D02*
X182222857Y-86487200D01*
X182222857Y-86487200D02*
X182080000Y-86534819D01*
X182080000Y-86534819D02*
X181841905Y-86534819D01*
X183270476Y-85868152D02*
X183270476Y-86534819D01*
X183032381Y-85487200D02*
X182794286Y-86201485D01*
X182794286Y-86201485D02*
X183413333Y-86201485D01*
X177538142Y-69950219D02*
X177204809Y-69474028D01*
X176966714Y-69950219D02*
X176966714Y-68950219D01*
X176966714Y-68950219D02*
X177347666Y-68950219D01*
X177347666Y-68950219D02*
X177442904Y-68997838D01*
X177442904Y-68997838D02*
X177490523Y-69045457D01*
X177490523Y-69045457D02*
X177538142Y-69140695D01*
X177538142Y-69140695D02*
X177538142Y-69283552D01*
X177538142Y-69283552D02*
X177490523Y-69378790D01*
X177490523Y-69378790D02*
X177442904Y-69426409D01*
X177442904Y-69426409D02*
X177347666Y-69474028D01*
X177347666Y-69474028D02*
X176966714Y-69474028D01*
X178490523Y-69950219D02*
X177919095Y-69950219D01*
X178204809Y-69950219D02*
X178204809Y-68950219D01*
X178204809Y-68950219D02*
X178109571Y-69093076D01*
X178109571Y-69093076D02*
X178014333Y-69188314D01*
X178014333Y-69188314D02*
X177919095Y-69235933D01*
X178871476Y-69045457D02*
X178919095Y-68997838D01*
X178919095Y-68997838D02*
X179014333Y-68950219D01*
X179014333Y-68950219D02*
X179252428Y-68950219D01*
X179252428Y-68950219D02*
X179347666Y-68997838D01*
X179347666Y-68997838D02*
X179395285Y-69045457D01*
X179395285Y-69045457D02*
X179442904Y-69140695D01*
X179442904Y-69140695D02*
X179442904Y-69235933D01*
X179442904Y-69235933D02*
X179395285Y-69378790D01*
X179395285Y-69378790D02*
X178823857Y-69950219D01*
X178823857Y-69950219D02*
X179442904Y-69950219D01*
X141425705Y-104925019D02*
X141425705Y-103925019D01*
X141997133Y-104925019D02*
X141568562Y-104353590D01*
X141997133Y-103925019D02*
X141425705Y-104496447D01*
X142949514Y-104925019D02*
X142378086Y-104925019D01*
X142663800Y-104925019D02*
X142663800Y-103925019D01*
X142663800Y-103925019D02*
X142568562Y-104067876D01*
X142568562Y-104067876D02*
X142473324Y-104163114D01*
X142473324Y-104163114D02*
X142378086Y-104210733D01*
X150271305Y-85600818D02*
X150271305Y-84600818D01*
X150842733Y-85600818D02*
X150414162Y-85029389D01*
X150842733Y-84600818D02*
X150271305Y-85172246D01*
X151223686Y-84696056D02*
X151271305Y-84648437D01*
X151271305Y-84648437D02*
X151366543Y-84600818D01*
X151366543Y-84600818D02*
X151604638Y-84600818D01*
X151604638Y-84600818D02*
X151699876Y-84648437D01*
X151699876Y-84648437D02*
X151747495Y-84696056D01*
X151747495Y-84696056D02*
X151795114Y-84791294D01*
X151795114Y-84791294D02*
X151795114Y-84886532D01*
X151795114Y-84886532D02*
X151747495Y-85029389D01*
X151747495Y-85029389D02*
X151176067Y-85600818D01*
X151176067Y-85600818D02*
X151795114Y-85600818D01*
D12*
%TO.C,J6*%
X145035000Y-55680000D02*
X146035000Y-54680000D01*
X145035000Y-64800000D02*
X145035000Y-55680000D01*
X145035000Y-64800000D02*
X147460000Y-64800000D01*
X146035000Y-54680000D02*
X156905000Y-54680000D01*
X149480000Y-64800000D02*
X150818233Y-64800000D01*
X152121767Y-64800000D02*
X153818233Y-64800000D01*
X156905000Y-54680000D02*
X157905000Y-55680000D01*
X157905000Y-55680000D02*
X157905000Y-64800000D01*
X157905000Y-64800000D02*
X155121767Y-64800000D01*
%TO.C,J2*%
X159225000Y-55680000D02*
X160225000Y-54680000D01*
X159225000Y-64800000D02*
X159225000Y-55680000D01*
X159225000Y-64800000D02*
X161650000Y-64800000D01*
X160225000Y-54680000D02*
X171095000Y-54680000D01*
X163670000Y-64800000D02*
X165008233Y-64800000D01*
X166311767Y-64800000D02*
X168008233Y-64800000D01*
X171095000Y-54680000D02*
X172095000Y-55680000D01*
X172095000Y-55680000D02*
X172095000Y-64800000D01*
X172095000Y-64800000D02*
X169311767Y-64800000D01*
%TO.C,J7*%
X173335000Y-55690000D02*
X174335000Y-54690000D01*
X173335000Y-64810000D02*
X173335000Y-55690000D01*
X173335000Y-64810000D02*
X175760000Y-64810000D01*
X174335000Y-54690000D02*
X182205000Y-54690000D01*
X177780000Y-64810000D02*
X179118233Y-64810000D01*
X182205000Y-54690000D02*
X183205000Y-55690000D01*
X183205000Y-55690000D02*
X183205000Y-64810000D01*
X183205000Y-64810000D02*
X180421767Y-64810000D01*
%TO.C,R6*%
X133627864Y-78619600D02*
X133173736Y-78619600D01*
X133627864Y-80089600D02*
X133173736Y-80089600D01*
%TO.C,R7*%
X166463014Y-76984534D02*
X166463014Y-76530406D01*
X167933014Y-76984534D02*
X167933014Y-76530406D01*
%TO.C,R11*%
X173203936Y-70374399D02*
X173658064Y-70374399D01*
X173203936Y-71844399D02*
X173658064Y-71844399D01*
%TO.C,R13*%
X179671015Y-81632733D02*
X179671015Y-81178605D01*
X181141015Y-81632733D02*
X181141015Y-81178605D01*
%TO.C,C3*%
X166488414Y-72076615D02*
X166488414Y-72599121D01*
X167958414Y-72076615D02*
X167958414Y-72599121D01*
%TO.C,R4*%
X183085000Y-78337064D02*
X183085000Y-77882936D01*
X184555000Y-78337064D02*
X184555000Y-77882936D01*
%TO.C,R14*%
X170146015Y-78356133D02*
X170146015Y-77902005D01*
X171616015Y-78356133D02*
X171616015Y-77902005D01*
%TO.C,R17*%
X139114264Y-76404800D02*
X138660136Y-76404800D01*
X139114264Y-77874800D02*
X138660136Y-77874800D01*
%TO.C,Q2*%
X133403100Y-70921399D02*
X132753100Y-70921400D01*
X133403100Y-70921399D02*
X134053100Y-70921400D01*
X133403100Y-74041401D02*
X132753100Y-74041400D01*
X133403100Y-74041401D02*
X134053100Y-74041400D01*
X134805600Y-74321400D02*
X134325600Y-74321399D01*
X134565600Y-73991400D01*
X134805600Y-74321400D01*
G36*
X134805600Y-74321400D02*
G01*
X134325600Y-74321399D01*
X134565600Y-73991400D01*
X134805600Y-74321400D01*
G37*
%TO.C,D5*%
X137052600Y-93299400D02*
X137052600Y-95219400D01*
X137052600Y-95219400D02*
X139912600Y-95219400D01*
X139912600Y-93299400D02*
X137052600Y-93299400D01*
%TO.C,R16*%
X139165064Y-95962800D02*
X138710936Y-95962800D01*
X139165064Y-97432800D02*
X138710936Y-97432800D01*
%TO.C,J1*%
X187980000Y-92375000D02*
X197110000Y-92375000D01*
X187980000Y-102745000D02*
X187980000Y-92375000D01*
X197110000Y-92375000D02*
X198110000Y-93375000D01*
X197110000Y-102745000D02*
X187980000Y-102745000D01*
X198110000Y-93375000D02*
X198110000Y-101745000D01*
X198110000Y-101745000D02*
X197110000Y-102745000D01*
%TO.C,Q1*%
X133199900Y-90403199D02*
X132549900Y-90403200D01*
X133199900Y-90403199D02*
X133849900Y-90403200D01*
X133199900Y-93523201D02*
X132549900Y-93523200D01*
X133199900Y-93523201D02*
X133849900Y-93523200D01*
X134602400Y-93803200D02*
X134122400Y-93803199D01*
X134362400Y-93473200D01*
X134602400Y-93803200D01*
G36*
X134602400Y-93803200D02*
G01*
X134122400Y-93803199D01*
X134362400Y-93473200D01*
X134602400Y-93803200D01*
G37*
%TO.C,U2*%
X177386214Y-73816471D02*
X175436214Y-73816470D01*
X177386214Y-73816471D02*
X179336214Y-73816470D01*
X177386214Y-78936469D02*
X175436214Y-78936470D01*
X177386214Y-78936469D02*
X179336214Y-78936470D01*
X180326213Y-79171470D02*
X179846214Y-79171470D01*
X180086214Y-78841470D01*
X180326213Y-79171470D01*
G36*
X180326213Y-79171470D02*
G01*
X179846214Y-79171470D01*
X180086214Y-78841470D01*
X180326213Y-79171470D01*
G37*
%TO.C,J3*%
X187870000Y-80473104D02*
X197000000Y-80473104D01*
X187870000Y-90843104D02*
X187870000Y-80473104D01*
X197000000Y-80473104D02*
X198000000Y-81473104D01*
X197000000Y-90843104D02*
X187870000Y-90843104D01*
X198000000Y-81473104D02*
X198000000Y-89843104D01*
X198000000Y-89843104D02*
X197000000Y-90843104D01*
%TO.C,R5*%
X133452364Y-97705200D02*
X132998236Y-97705200D01*
X133452364Y-99175200D02*
X132998236Y-99175200D01*
%TO.C,R10*%
X184867064Y-89445000D02*
X184412936Y-89445000D01*
X184867064Y-90915000D02*
X184412936Y-90915000D01*
%TO.C,D6*%
X137027200Y-73716000D02*
X137027200Y-75636000D01*
X137027200Y-75636000D02*
X139887200Y-75636000D01*
X139887200Y-73716000D02*
X137027200Y-73716000D01*
%TO.C,R3*%
X133199136Y-75673200D02*
X133653264Y-75673200D01*
X133199136Y-77143200D02*
X133653264Y-77143200D01*
%TO.C,J4*%
X187930000Y-68995000D02*
X197060000Y-68995000D01*
X187930000Y-79365000D02*
X187930000Y-68995000D01*
X197060000Y-68995000D02*
X198060000Y-69995000D01*
X197060000Y-79365000D02*
X187930000Y-79365000D01*
X198060000Y-69995000D02*
X198060000Y-78365000D01*
X198060000Y-78365000D02*
X197060000Y-79365000D01*
%TO.C,R2*%
X132998236Y-94784200D02*
X133452364Y-94784200D01*
X132998236Y-96254200D02*
X133452364Y-96254200D01*
%TO.C,C2*%
X182278747Y-70415000D02*
X182801253Y-70415000D01*
X182278747Y-71885000D02*
X182801253Y-71885000D01*
%TO.C,D4*%
X180720000Y-86770000D02*
X180720000Y-88690000D01*
X180720000Y-88690000D02*
X183580000Y-88690000D01*
X183580000Y-86770000D02*
X180720000Y-86770000D01*
%TO.C,R12*%
X177953936Y-70410400D02*
X178408064Y-70410400D01*
X177953936Y-71880400D02*
X178408064Y-71880400D01*
%TO.C,K1*%
X141560200Y-87653201D02*
X141560200Y-94253199D01*
X141560200Y-87653201D02*
X161360200Y-87653200D01*
X141560200Y-96653201D02*
X141560200Y-103253199D01*
X145610200Y-95503200D02*
X144810200Y-95503200D01*
X145610200Y-95503200D02*
X145610200Y-99103200D01*
X146510200Y-101503200D02*
X149010200Y-101503200D01*
X147010200Y-93703201D02*
X151010200Y-93703201D01*
X147010200Y-97303200D02*
X147010200Y-93703201D01*
X149010200Y-89503200D02*
X146510200Y-89503200D01*
X149010200Y-89503200D02*
X149010200Y-93703200D01*
X149010200Y-97303201D02*
X149010200Y-101503200D01*
X151010200Y-93703201D02*
X151010200Y-97303200D01*
X151010200Y-97303200D02*
X147010200Y-93703201D01*
X151010200Y-97303200D02*
X147010200Y-97303200D01*
X152410200Y-95503200D02*
X152410200Y-99103200D01*
X152410200Y-95503200D02*
X153910200Y-95503200D01*
X152410200Y-99103200D02*
X145610200Y-99103200D01*
X153910200Y-95503200D02*
X158510200Y-93003200D01*
X157110199Y-91253200D02*
X157110199Y-93753200D01*
X157110199Y-99653200D02*
X157110200Y-97203200D01*
X161360200Y-87653200D02*
X161360200Y-103253200D01*
X161360200Y-103253200D02*
X141560200Y-103253199D01*
%TO.C,K2*%
X141509400Y-68146001D02*
X141509400Y-74745999D01*
X141509400Y-68146001D02*
X161309400Y-68146000D01*
X141509400Y-77146001D02*
X141509400Y-83745999D01*
X145559400Y-75996000D02*
X144759400Y-75996000D01*
X145559400Y-75996000D02*
X145559400Y-79596000D01*
X146459400Y-81996000D02*
X148959400Y-81996000D01*
X146959400Y-74196001D02*
X150959400Y-74196001D01*
X146959400Y-77796000D02*
X146959400Y-74196001D01*
X148959400Y-69996000D02*
X146459400Y-69996000D01*
X148959400Y-69996000D02*
X148959400Y-74196000D01*
X148959400Y-77796001D02*
X148959400Y-81996000D01*
X150959400Y-74196001D02*
X150959400Y-77796000D01*
X150959400Y-77796000D02*
X146959400Y-74196001D01*
X150959400Y-77796000D02*
X146959400Y-77796000D01*
X152359400Y-75996000D02*
X152359400Y-79596000D01*
X152359400Y-75996000D02*
X153859400Y-75996000D01*
X152359400Y-79596000D02*
X145559400Y-79596000D01*
X153859400Y-75996000D02*
X158459400Y-73496000D01*
X157059399Y-71746000D02*
X157059399Y-74246000D01*
X157059399Y-80146000D02*
X157059400Y-77696000D01*
X161309400Y-68146000D02*
X161309400Y-83746000D01*
X161309400Y-83746000D02*
X141509400Y-83745999D01*
%TD*%
M02*
