M48
; DRILL file {KiCad 9.0.1} date 2026-09-27T23:35:25+0800
; FORMAT={-:-/ absolute / metric / decimal}
; #@! TF.CreationDate,2026-09-27T23:35:25+08:00
; #@! TF.GenerationSoftware,Kicad,Pcbnew,9.0.1
; #@! TF.FileFunction,Plated,1,2,PTH
FMAT,2
METRIC
; #@! TA.AperFunction,Plated,PTH,ViaDrill
T1C0.300
; #@! TA.AperFunction,Plated,PTH,ComponentDrill
T2C0.800
; #@! TA.AperFunction,Plated,PTH,ComponentDrill
T3C0.820
; #@! TA.AperFunction,Plated,PTH,ComponentDrill
T4C1.020
; #@! TA.AperFunction,Plated,PTH,ComponentDrill
T5C2.000
%
G90
G05
T1
X21.599Y-60.969
X24.005Y-63.585
X26.155Y-54.804
X31.108Y-61.103
X32.385Y-62.554
X103.784Y-48.946
X104.572Y-42.418
X108.001Y-35.281
X108.356Y-27.254
X109.779Y-20.244
X110.287Y-47.447
X111.709Y-55.728
X113.513Y-67.462
X116.637Y-42.215
X118.008Y-50.47
X118.72Y-31.877
X119.913Y-26.314
X120.701Y-20.295
X121.691Y-59.461
X121.945Y-67.208
X122.85Y-45.045
X126.009Y-40.361
X130.251Y-41.935
X132.131Y-70.841
X134.518Y-20.066
X134.927Y-35.866
X135.331Y-67.412
X135.382Y-58.725
X139.522Y-26.213
X140.64Y-35.636
X142.291Y-58.776
X142.469Y-67.894
X143.053Y-20.117
X146.406Y-62.967
X149.708Y-58.496
T2
X17.951Y-47.514
X17.951Y-55.134
T3
X92.204Y-72.435
X97.284Y-72.435
X104.904Y-72.435
X107.444Y-72.435
T4
X30.834Y-24.387
X33.834Y-24.387
X45.617Y-24.539
X48.617Y-24.539
X144.831Y-32.664
X144.831Y-35.664
X144.833Y-44.017
X144.833Y-47.017
T5
X65.851Y-40.234
X65.851Y-60.234
X127.951Y-28.734
X127.951Y-51.734
M30
