%TF.GenerationSoftware,KiCad,Pcbnew,9.0.1*%
%TF.CreationDate,2026-09-27T15:55:40+08:00*%
%TF.ProjectId,TS_indicator,54535f69-6e64-4696-9361-746f722e6b69,rev?*%
%TF.SameCoordinates,Original*%
%TF.FileFunction,Legend,Top*%
%TF.FilePolarity,Positive*%
%FSLAX46Y46*%
G04 Gerber Fmt 4.6, Leading zero omitted, Abs format (unit mm)*
G04 Created by KiCad (PCBNEW 9.0.1) date 2026-09-27 15:55:40*
%MOMM*%
%LPD*%
G01*
G04 APERTURE LIST*
%ADD10C,0.150000*%
%ADD11C,0.100000*%
%ADD12C,0.120000*%
%ADD13C,0.127000*%
%ADD14C,0.200000*%
G04 APERTURE END LIST*
D10*
X34313519Y-56938794D02*
X34313519Y-57414984D01*
X34313519Y-57414984D02*
X33313519Y-57414984D01*
X34313519Y-56605460D02*
X33313519Y-56605460D01*
X33313519Y-56605460D02*
X34027804Y-56272127D01*
X34027804Y-56272127D02*
X33313519Y-55938794D01*
X33313519Y-55938794D02*
X34313519Y-55938794D01*
X34313519Y-54938794D02*
X34313519Y-55510222D01*
X34313519Y-55224508D02*
X33313519Y-55224508D01*
X33313519Y-55224508D02*
X33456376Y-55319746D01*
X33456376Y-55319746D02*
X33551614Y-55414984D01*
X33551614Y-55414984D02*
X33599233Y-55510222D01*
X41819533Y-36599019D02*
X41486200Y-36122828D01*
X41248105Y-36599019D02*
X41248105Y-35599019D01*
X41248105Y-35599019D02*
X41629057Y-35599019D01*
X41629057Y-35599019D02*
X41724295Y-35646638D01*
X41724295Y-35646638D02*
X41771914Y-35694257D01*
X41771914Y-35694257D02*
X41819533Y-35789495D01*
X41819533Y-35789495D02*
X41819533Y-35932352D01*
X41819533Y-35932352D02*
X41771914Y-36027590D01*
X41771914Y-36027590D02*
X41724295Y-36075209D01*
X41724295Y-36075209D02*
X41629057Y-36122828D01*
X41629057Y-36122828D02*
X41248105Y-36122828D01*
X42152867Y-35599019D02*
X42771914Y-35599019D01*
X42771914Y-35599019D02*
X42438581Y-35979971D01*
X42438581Y-35979971D02*
X42581438Y-35979971D01*
X42581438Y-35979971D02*
X42676676Y-36027590D01*
X42676676Y-36027590D02*
X42724295Y-36075209D01*
X42724295Y-36075209D02*
X42771914Y-36170447D01*
X42771914Y-36170447D02*
X42771914Y-36408542D01*
X42771914Y-36408542D02*
X42724295Y-36503780D01*
X42724295Y-36503780D02*
X42676676Y-36551400D01*
X42676676Y-36551400D02*
X42581438Y-36599019D01*
X42581438Y-36599019D02*
X42295724Y-36599019D01*
X42295724Y-36599019D02*
X42200486Y-36551400D01*
X42200486Y-36551400D02*
X42152867Y-36503780D01*
X22363533Y-50616679D02*
X22315914Y-50664299D01*
X22315914Y-50664299D02*
X22173057Y-50711918D01*
X22173057Y-50711918D02*
X22077819Y-50711918D01*
X22077819Y-50711918D02*
X21934962Y-50664299D01*
X21934962Y-50664299D02*
X21839724Y-50569060D01*
X21839724Y-50569060D02*
X21792105Y-50473822D01*
X21792105Y-50473822D02*
X21744486Y-50283346D01*
X21744486Y-50283346D02*
X21744486Y-50140489D01*
X21744486Y-50140489D02*
X21792105Y-49950013D01*
X21792105Y-49950013D02*
X21839724Y-49854775D01*
X21839724Y-49854775D02*
X21934962Y-49759537D01*
X21934962Y-49759537D02*
X22077819Y-49711918D01*
X22077819Y-49711918D02*
X22173057Y-49711918D01*
X22173057Y-49711918D02*
X22315914Y-49759537D01*
X22315914Y-49759537D02*
X22363533Y-49807156D01*
X23315914Y-50711918D02*
X22744486Y-50711918D01*
X23030200Y-50711918D02*
X23030200Y-49711918D01*
X23030200Y-49711918D02*
X22934962Y-49854775D01*
X22934962Y-49854775D02*
X22839724Y-49950013D01*
X22839724Y-49950013D02*
X22744486Y-49997632D01*
X113968305Y-70344819D02*
X113968305Y-69344819D01*
X113968305Y-69344819D02*
X114206400Y-69344819D01*
X114206400Y-69344819D02*
X114349257Y-69392438D01*
X114349257Y-69392438D02*
X114444495Y-69487676D01*
X114444495Y-69487676D02*
X114492114Y-69582914D01*
X114492114Y-69582914D02*
X114539733Y-69773390D01*
X114539733Y-69773390D02*
X114539733Y-69916247D01*
X114539733Y-69916247D02*
X114492114Y-70106723D01*
X114492114Y-70106723D02*
X114444495Y-70201961D01*
X114444495Y-70201961D02*
X114349257Y-70297200D01*
X114349257Y-70297200D02*
X114206400Y-70344819D01*
X114206400Y-70344819D02*
X113968305Y-70344819D01*
X114920686Y-69440057D02*
X114968305Y-69392438D01*
X114968305Y-69392438D02*
X115063543Y-69344819D01*
X115063543Y-69344819D02*
X115301638Y-69344819D01*
X115301638Y-69344819D02*
X115396876Y-69392438D01*
X115396876Y-69392438D02*
X115444495Y-69440057D01*
X115444495Y-69440057D02*
X115492114Y-69535295D01*
X115492114Y-69535295D02*
X115492114Y-69630533D01*
X115492114Y-69630533D02*
X115444495Y-69773390D01*
X115444495Y-69773390D02*
X114873067Y-70344819D01*
X114873067Y-70344819D02*
X115492114Y-70344819D01*
X19513719Y-54981403D02*
X20323242Y-54981403D01*
X20323242Y-54981403D02*
X20418480Y-54933784D01*
X20418480Y-54933784D02*
X20466100Y-54886165D01*
X20466100Y-54886165D02*
X20513719Y-54790927D01*
X20513719Y-54790927D02*
X20513719Y-54600451D01*
X20513719Y-54600451D02*
X20466100Y-54505213D01*
X20466100Y-54505213D02*
X20418480Y-54457594D01*
X20418480Y-54457594D02*
X20323242Y-54409975D01*
X20323242Y-54409975D02*
X19513719Y-54409975D01*
X20513719Y-53409975D02*
X20513719Y-53981403D01*
X20513719Y-53695689D02*
X19513719Y-53695689D01*
X19513719Y-53695689D02*
X19656576Y-53790927D01*
X19656576Y-53790927D02*
X19751814Y-53886165D01*
X19751814Y-53886165D02*
X19799433Y-53981403D01*
X31162629Y-36255198D02*
X31263644Y-35682779D01*
X30758568Y-35851137D02*
X31465675Y-35144031D01*
X31465675Y-35144031D02*
X31735049Y-35413405D01*
X31735049Y-35413405D02*
X31768721Y-35514420D01*
X31768721Y-35514420D02*
X31768721Y-35581763D01*
X31768721Y-35581763D02*
X31735049Y-35682779D01*
X31735049Y-35682779D02*
X31634034Y-35783794D01*
X31634034Y-35783794D02*
X31533018Y-35817466D01*
X31533018Y-35817466D02*
X31465675Y-35817466D01*
X31465675Y-35817466D02*
X31364660Y-35783794D01*
X31364660Y-35783794D02*
X31095286Y-35514420D01*
X32475827Y-36154183D02*
X32341140Y-36019496D01*
X32341140Y-36019496D02*
X32240125Y-35985824D01*
X32240125Y-35985824D02*
X32172782Y-35985824D01*
X32172782Y-35985824D02*
X32004423Y-36019496D01*
X32004423Y-36019496D02*
X31836064Y-36120511D01*
X31836064Y-36120511D02*
X31566690Y-36389885D01*
X31566690Y-36389885D02*
X31533018Y-36490901D01*
X31533018Y-36490901D02*
X31533018Y-36558244D01*
X31533018Y-36558244D02*
X31566690Y-36659259D01*
X31566690Y-36659259D02*
X31701377Y-36793946D01*
X31701377Y-36793946D02*
X31802392Y-36827618D01*
X31802392Y-36827618D02*
X31869736Y-36827618D01*
X31869736Y-36827618D02*
X31970751Y-36793946D01*
X31970751Y-36793946D02*
X32139110Y-36625588D01*
X32139110Y-36625588D02*
X32172782Y-36524572D01*
X32172782Y-36524572D02*
X32172782Y-36457229D01*
X32172782Y-36457229D02*
X32139110Y-36356214D01*
X32139110Y-36356214D02*
X32004423Y-36221527D01*
X32004423Y-36221527D02*
X31903408Y-36187855D01*
X31903408Y-36187855D02*
X31836064Y-36187855D01*
X31836064Y-36187855D02*
X31735049Y-36221527D01*
X19257233Y-61405318D02*
X18923900Y-60929127D01*
X18685805Y-61405318D02*
X18685805Y-60405318D01*
X18685805Y-60405318D02*
X19066757Y-60405318D01*
X19066757Y-60405318D02*
X19161995Y-60452937D01*
X19161995Y-60452937D02*
X19209614Y-60500556D01*
X19209614Y-60500556D02*
X19257233Y-60595794D01*
X19257233Y-60595794D02*
X19257233Y-60738651D01*
X19257233Y-60738651D02*
X19209614Y-60833889D01*
X19209614Y-60833889D02*
X19161995Y-60881508D01*
X19161995Y-60881508D02*
X19066757Y-60929127D01*
X19066757Y-60929127D02*
X18685805Y-60929127D01*
X20209614Y-61405318D02*
X19638186Y-61405318D01*
X19923900Y-61405318D02*
X19923900Y-60405318D01*
X19923900Y-60405318D02*
X19828662Y-60548175D01*
X19828662Y-60548175D02*
X19733424Y-60643413D01*
X19733424Y-60643413D02*
X19638186Y-60691032D01*
X49229609Y-35512333D02*
X49229609Y-35845666D01*
X49753419Y-35845666D02*
X48753419Y-35845666D01*
X48753419Y-35845666D02*
X48753419Y-35369476D01*
X49753419Y-34464714D02*
X49753419Y-35036142D01*
X49753419Y-34750428D02*
X48753419Y-34750428D01*
X48753419Y-34750428D02*
X48896276Y-34845666D01*
X48896276Y-34845666D02*
X48991514Y-34940904D01*
X48991514Y-34940904D02*
X49039133Y-35036142D01*
X97358295Y-68873019D02*
X97358295Y-69682542D01*
X97358295Y-69682542D02*
X97405914Y-69777780D01*
X97405914Y-69777780D02*
X97453533Y-69825400D01*
X97453533Y-69825400D02*
X97548771Y-69873019D01*
X97548771Y-69873019D02*
X97739247Y-69873019D01*
X97739247Y-69873019D02*
X97834485Y-69825400D01*
X97834485Y-69825400D02*
X97882104Y-69777780D01*
X97882104Y-69777780D02*
X97929723Y-69682542D01*
X97929723Y-69682542D02*
X97929723Y-68873019D01*
X98310676Y-68873019D02*
X98929723Y-68873019D01*
X98929723Y-68873019D02*
X98596390Y-69253971D01*
X98596390Y-69253971D02*
X98739247Y-69253971D01*
X98739247Y-69253971D02*
X98834485Y-69301590D01*
X98834485Y-69301590D02*
X98882104Y-69349209D01*
X98882104Y-69349209D02*
X98929723Y-69444447D01*
X98929723Y-69444447D02*
X98929723Y-69682542D01*
X98929723Y-69682542D02*
X98882104Y-69777780D01*
X98882104Y-69777780D02*
X98834485Y-69825400D01*
X98834485Y-69825400D02*
X98739247Y-69873019D01*
X98739247Y-69873019D02*
X98453533Y-69873019D01*
X98453533Y-69873019D02*
X98358295Y-69825400D01*
X98358295Y-69825400D02*
X98310676Y-69777780D01*
X19181033Y-64123118D02*
X18847700Y-63646927D01*
X18609605Y-64123118D02*
X18609605Y-63123118D01*
X18609605Y-63123118D02*
X18990557Y-63123118D01*
X18990557Y-63123118D02*
X19085795Y-63170737D01*
X19085795Y-63170737D02*
X19133414Y-63218356D01*
X19133414Y-63218356D02*
X19181033Y-63313594D01*
X19181033Y-63313594D02*
X19181033Y-63456451D01*
X19181033Y-63456451D02*
X19133414Y-63551689D01*
X19133414Y-63551689D02*
X19085795Y-63599308D01*
X19085795Y-63599308D02*
X18990557Y-63646927D01*
X18990557Y-63646927D02*
X18609605Y-63646927D01*
X20038176Y-63456451D02*
X20038176Y-64123118D01*
X19800081Y-63075499D02*
X19561986Y-63789784D01*
X19561986Y-63789784D02*
X20181033Y-63789784D01*
X25009519Y-50112556D02*
X24533328Y-50445889D01*
X25009519Y-50683984D02*
X24009519Y-50683984D01*
X24009519Y-50683984D02*
X24009519Y-50303032D01*
X24009519Y-50303032D02*
X24057138Y-50207794D01*
X24057138Y-50207794D02*
X24104757Y-50160175D01*
X24104757Y-50160175D02*
X24199995Y-50112556D01*
X24199995Y-50112556D02*
X24342852Y-50112556D01*
X24342852Y-50112556D02*
X24438090Y-50160175D01*
X24438090Y-50160175D02*
X24485709Y-50207794D01*
X24485709Y-50207794D02*
X24533328Y-50303032D01*
X24533328Y-50303032D02*
X24533328Y-50683984D01*
X25009519Y-49160175D02*
X25009519Y-49731603D01*
X25009519Y-49445889D02*
X24009519Y-49445889D01*
X24009519Y-49445889D02*
X24152376Y-49541127D01*
X24152376Y-49541127D02*
X24247614Y-49636365D01*
X24247614Y-49636365D02*
X24295233Y-49731603D01*
X25009519Y-48207794D02*
X25009519Y-48779222D01*
X25009519Y-48493508D02*
X24009519Y-48493508D01*
X24009519Y-48493508D02*
X24152376Y-48588746D01*
X24152376Y-48588746D02*
X24247614Y-48683984D01*
X24247614Y-48683984D02*
X24295233Y-48779222D01*
X23379133Y-34771219D02*
X23045800Y-34295028D01*
X22807705Y-34771219D02*
X22807705Y-33771219D01*
X22807705Y-33771219D02*
X23188657Y-33771219D01*
X23188657Y-33771219D02*
X23283895Y-33818838D01*
X23283895Y-33818838D02*
X23331514Y-33866457D01*
X23331514Y-33866457D02*
X23379133Y-33961695D01*
X23379133Y-33961695D02*
X23379133Y-34104552D01*
X23379133Y-34104552D02*
X23331514Y-34199790D01*
X23331514Y-34199790D02*
X23283895Y-34247409D01*
X23283895Y-34247409D02*
X23188657Y-34295028D01*
X23188657Y-34295028D02*
X22807705Y-34295028D01*
X23950562Y-34199790D02*
X23855324Y-34152171D01*
X23855324Y-34152171D02*
X23807705Y-34104552D01*
X23807705Y-34104552D02*
X23760086Y-34009314D01*
X23760086Y-34009314D02*
X23760086Y-33961695D01*
X23760086Y-33961695D02*
X23807705Y-33866457D01*
X23807705Y-33866457D02*
X23855324Y-33818838D01*
X23855324Y-33818838D02*
X23950562Y-33771219D01*
X23950562Y-33771219D02*
X24141038Y-33771219D01*
X24141038Y-33771219D02*
X24236276Y-33818838D01*
X24236276Y-33818838D02*
X24283895Y-33866457D01*
X24283895Y-33866457D02*
X24331514Y-33961695D01*
X24331514Y-33961695D02*
X24331514Y-34009314D01*
X24331514Y-34009314D02*
X24283895Y-34104552D01*
X24283895Y-34104552D02*
X24236276Y-34152171D01*
X24236276Y-34152171D02*
X24141038Y-34199790D01*
X24141038Y-34199790D02*
X23950562Y-34199790D01*
X23950562Y-34199790D02*
X23855324Y-34247409D01*
X23855324Y-34247409D02*
X23807705Y-34295028D01*
X23807705Y-34295028D02*
X23760086Y-34390266D01*
X23760086Y-34390266D02*
X23760086Y-34580742D01*
X23760086Y-34580742D02*
X23807705Y-34675980D01*
X23807705Y-34675980D02*
X23855324Y-34723600D01*
X23855324Y-34723600D02*
X23950562Y-34771219D01*
X23950562Y-34771219D02*
X24141038Y-34771219D01*
X24141038Y-34771219D02*
X24236276Y-34723600D01*
X24236276Y-34723600D02*
X24283895Y-34675980D01*
X24283895Y-34675980D02*
X24331514Y-34580742D01*
X24331514Y-34580742D02*
X24331514Y-34390266D01*
X24331514Y-34390266D02*
X24283895Y-34295028D01*
X24283895Y-34295028D02*
X24236276Y-34247409D01*
X24236276Y-34247409D02*
X24141038Y-34199790D01*
X16094119Y-52061993D02*
X15094119Y-52061993D01*
X15094119Y-52061993D02*
X15094119Y-51823898D01*
X15094119Y-51823898D02*
X15141738Y-51681041D01*
X15141738Y-51681041D02*
X15236976Y-51585803D01*
X15236976Y-51585803D02*
X15332214Y-51538184D01*
X15332214Y-51538184D02*
X15522690Y-51490565D01*
X15522690Y-51490565D02*
X15665547Y-51490565D01*
X15665547Y-51490565D02*
X15856023Y-51538184D01*
X15856023Y-51538184D02*
X15951261Y-51585803D01*
X15951261Y-51585803D02*
X16046500Y-51681041D01*
X16046500Y-51681041D02*
X16094119Y-51823898D01*
X16094119Y-51823898D02*
X16094119Y-52061993D01*
X16094119Y-50538184D02*
X16094119Y-51109612D01*
X16094119Y-50823898D02*
X15094119Y-50823898D01*
X15094119Y-50823898D02*
X15236976Y-50919136D01*
X15236976Y-50919136D02*
X15332214Y-51014374D01*
X15332214Y-51014374D02*
X15379833Y-51109612D01*
X20205519Y-47775803D02*
X19205519Y-47775803D01*
X20205519Y-47204375D02*
X19634090Y-47632946D01*
X19205519Y-47204375D02*
X19776947Y-47775803D01*
X26718419Y-40876457D02*
X26242228Y-41209790D01*
X26718419Y-41447885D02*
X25718419Y-41447885D01*
X25718419Y-41447885D02*
X25718419Y-41066933D01*
X25718419Y-41066933D02*
X25766038Y-40971695D01*
X25766038Y-40971695D02*
X25813657Y-40924076D01*
X25813657Y-40924076D02*
X25908895Y-40876457D01*
X25908895Y-40876457D02*
X26051752Y-40876457D01*
X26051752Y-40876457D02*
X26146990Y-40924076D01*
X26146990Y-40924076D02*
X26194609Y-40971695D01*
X26194609Y-40971695D02*
X26242228Y-41066933D01*
X26242228Y-41066933D02*
X26242228Y-41447885D01*
X26718419Y-39924076D02*
X26718419Y-40495504D01*
X26718419Y-40209790D02*
X25718419Y-40209790D01*
X25718419Y-40209790D02*
X25861276Y-40305028D01*
X25861276Y-40305028D02*
X25956514Y-40400266D01*
X25956514Y-40400266D02*
X26004133Y-40495504D01*
X25718419Y-39305028D02*
X25718419Y-39209790D01*
X25718419Y-39209790D02*
X25766038Y-39114552D01*
X25766038Y-39114552D02*
X25813657Y-39066933D01*
X25813657Y-39066933D02*
X25908895Y-39019314D01*
X25908895Y-39019314D02*
X26099371Y-38971695D01*
X26099371Y-38971695D02*
X26337466Y-38971695D01*
X26337466Y-38971695D02*
X26527942Y-39019314D01*
X26527942Y-39019314D02*
X26623180Y-39066933D01*
X26623180Y-39066933D02*
X26670800Y-39114552D01*
X26670800Y-39114552D02*
X26718419Y-39209790D01*
X26718419Y-39209790D02*
X26718419Y-39305028D01*
X26718419Y-39305028D02*
X26670800Y-39400266D01*
X26670800Y-39400266D02*
X26623180Y-39447885D01*
X26623180Y-39447885D02*
X26527942Y-39495504D01*
X26527942Y-39495504D02*
X26337466Y-39543123D01*
X26337466Y-39543123D02*
X26099371Y-39543123D01*
X26099371Y-39543123D02*
X25908895Y-39495504D01*
X25908895Y-39495504D02*
X25813657Y-39447885D01*
X25813657Y-39447885D02*
X25766038Y-39400266D01*
X25766038Y-39400266D02*
X25718419Y-39305028D01*
D11*
X96889703Y-42325580D02*
X96889703Y-41516057D01*
X96889703Y-41516057D02*
X96842084Y-41420819D01*
X96842084Y-41420819D02*
X96794465Y-41373200D01*
X96794465Y-41373200D02*
X96699227Y-41325580D01*
X96699227Y-41325580D02*
X96508751Y-41325580D01*
X96508751Y-41325580D02*
X96413513Y-41373200D01*
X96413513Y-41373200D02*
X96365894Y-41420819D01*
X96365894Y-41420819D02*
X96318275Y-41516057D01*
X96318275Y-41516057D02*
X96318275Y-42325580D01*
X95889703Y-42230342D02*
X95842084Y-42277961D01*
X95842084Y-42277961D02*
X95746846Y-42325580D01*
X95746846Y-42325580D02*
X95508751Y-42325580D01*
X95508751Y-42325580D02*
X95413513Y-42277961D01*
X95413513Y-42277961D02*
X95365894Y-42230342D01*
X95365894Y-42230342D02*
X95318275Y-42135104D01*
X95318275Y-42135104D02*
X95318275Y-42039866D01*
X95318275Y-42039866D02*
X95365894Y-41897009D01*
X95365894Y-41897009D02*
X95937322Y-41325580D01*
X95937322Y-41325580D02*
X95318275Y-41325580D01*
D10*
X122424866Y-69755609D02*
X122091533Y-69755609D01*
X122091533Y-70279419D02*
X122091533Y-69279419D01*
X122091533Y-69279419D02*
X122567723Y-69279419D01*
X122901057Y-69374657D02*
X122948676Y-69327038D01*
X122948676Y-69327038D02*
X123043914Y-69279419D01*
X123043914Y-69279419D02*
X123282009Y-69279419D01*
X123282009Y-69279419D02*
X123377247Y-69327038D01*
X123377247Y-69327038D02*
X123424866Y-69374657D01*
X123424866Y-69374657D02*
X123472485Y-69469895D01*
X123472485Y-69469895D02*
X123472485Y-69565133D01*
X123472485Y-69565133D02*
X123424866Y-69707990D01*
X123424866Y-69707990D02*
X122853438Y-70279419D01*
X122853438Y-70279419D02*
X123472485Y-70279419D01*
X38722640Y-40306423D02*
X38150221Y-40205408D01*
X38318579Y-40710484D02*
X37611473Y-40003377D01*
X37611473Y-40003377D02*
X37880847Y-39734003D01*
X37880847Y-39734003D02*
X37981862Y-39700331D01*
X37981862Y-39700331D02*
X38049205Y-39700331D01*
X38049205Y-39700331D02*
X38150221Y-39734003D01*
X38150221Y-39734003D02*
X38251236Y-39835018D01*
X38251236Y-39835018D02*
X38284908Y-39936034D01*
X38284908Y-39936034D02*
X38284908Y-40003377D01*
X38284908Y-40003377D02*
X38251236Y-40104392D01*
X38251236Y-40104392D02*
X37981862Y-40373766D01*
X38655297Y-38959553D02*
X38318579Y-39296270D01*
X38318579Y-39296270D02*
X38621625Y-39666660D01*
X38621625Y-39666660D02*
X38621625Y-39599316D01*
X38621625Y-39599316D02*
X38655297Y-39498301D01*
X38655297Y-39498301D02*
X38823656Y-39329942D01*
X38823656Y-39329942D02*
X38924671Y-39296270D01*
X38924671Y-39296270D02*
X38992014Y-39296270D01*
X38992014Y-39296270D02*
X39093030Y-39329942D01*
X39093030Y-39329942D02*
X39261388Y-39498301D01*
X39261388Y-39498301D02*
X39295060Y-39599316D01*
X39295060Y-39599316D02*
X39295060Y-39666660D01*
X39295060Y-39666660D02*
X39261388Y-39767675D01*
X39261388Y-39767675D02*
X39093030Y-39936034D01*
X39093030Y-39936034D02*
X38992014Y-39969705D01*
X38992014Y-39969705D02*
X38924671Y-39969705D01*
X37149719Y-51915956D02*
X36673528Y-52249289D01*
X37149719Y-52487384D02*
X36149719Y-52487384D01*
X36149719Y-52487384D02*
X36149719Y-52106432D01*
X36149719Y-52106432D02*
X36197338Y-52011194D01*
X36197338Y-52011194D02*
X36244957Y-51963575D01*
X36244957Y-51963575D02*
X36340195Y-51915956D01*
X36340195Y-51915956D02*
X36483052Y-51915956D01*
X36483052Y-51915956D02*
X36578290Y-51963575D01*
X36578290Y-51963575D02*
X36625909Y-52011194D01*
X36625909Y-52011194D02*
X36673528Y-52106432D01*
X36673528Y-52106432D02*
X36673528Y-52487384D01*
X37149719Y-50963575D02*
X37149719Y-51535003D01*
X37149719Y-51249289D02*
X36149719Y-51249289D01*
X36149719Y-51249289D02*
X36292576Y-51344527D01*
X36292576Y-51344527D02*
X36387814Y-51439765D01*
X36387814Y-51439765D02*
X36435433Y-51535003D01*
X36244957Y-50582622D02*
X36197338Y-50535003D01*
X36197338Y-50535003D02*
X36149719Y-50439765D01*
X36149719Y-50439765D02*
X36149719Y-50201670D01*
X36149719Y-50201670D02*
X36197338Y-50106432D01*
X36197338Y-50106432D02*
X36244957Y-50058813D01*
X36244957Y-50058813D02*
X36340195Y-50011194D01*
X36340195Y-50011194D02*
X36435433Y-50011194D01*
X36435433Y-50011194D02*
X36578290Y-50058813D01*
X36578290Y-50058813D02*
X37149719Y-50630241D01*
X37149719Y-50630241D02*
X37149719Y-50011194D01*
X17206933Y-34719419D02*
X16873600Y-34243228D01*
X16635505Y-34719419D02*
X16635505Y-33719419D01*
X16635505Y-33719419D02*
X17016457Y-33719419D01*
X17016457Y-33719419D02*
X17111695Y-33767038D01*
X17111695Y-33767038D02*
X17159314Y-33814657D01*
X17159314Y-33814657D02*
X17206933Y-33909895D01*
X17206933Y-33909895D02*
X17206933Y-34052752D01*
X17206933Y-34052752D02*
X17159314Y-34147990D01*
X17159314Y-34147990D02*
X17111695Y-34195609D01*
X17111695Y-34195609D02*
X17016457Y-34243228D01*
X17016457Y-34243228D02*
X16635505Y-34243228D01*
X17683124Y-34719419D02*
X17873600Y-34719419D01*
X17873600Y-34719419D02*
X17968838Y-34671800D01*
X17968838Y-34671800D02*
X18016457Y-34624180D01*
X18016457Y-34624180D02*
X18111695Y-34481323D01*
X18111695Y-34481323D02*
X18159314Y-34290847D01*
X18159314Y-34290847D02*
X18159314Y-33909895D01*
X18159314Y-33909895D02*
X18111695Y-33814657D01*
X18111695Y-33814657D02*
X18064076Y-33767038D01*
X18064076Y-33767038D02*
X17968838Y-33719419D01*
X17968838Y-33719419D02*
X17778362Y-33719419D01*
X17778362Y-33719419D02*
X17683124Y-33767038D01*
X17683124Y-33767038D02*
X17635505Y-33814657D01*
X17635505Y-33814657D02*
X17587886Y-33909895D01*
X17587886Y-33909895D02*
X17587886Y-34147990D01*
X17587886Y-34147990D02*
X17635505Y-34243228D01*
X17635505Y-34243228D02*
X17683124Y-34290847D01*
X17683124Y-34290847D02*
X17778362Y-34338466D01*
X17778362Y-34338466D02*
X17968838Y-34338466D01*
X17968838Y-34338466D02*
X18064076Y-34290847D01*
X18064076Y-34290847D02*
X18111695Y-34243228D01*
X18111695Y-34243228D02*
X18159314Y-34147990D01*
X33804280Y-49839565D02*
X33851900Y-49887184D01*
X33851900Y-49887184D02*
X33899519Y-50030041D01*
X33899519Y-50030041D02*
X33899519Y-50125279D01*
X33899519Y-50125279D02*
X33851900Y-50268136D01*
X33851900Y-50268136D02*
X33756661Y-50363374D01*
X33756661Y-50363374D02*
X33661423Y-50410993D01*
X33661423Y-50410993D02*
X33470947Y-50458612D01*
X33470947Y-50458612D02*
X33328090Y-50458612D01*
X33328090Y-50458612D02*
X33137614Y-50410993D01*
X33137614Y-50410993D02*
X33042376Y-50363374D01*
X33042376Y-50363374D02*
X32947138Y-50268136D01*
X32947138Y-50268136D02*
X32899519Y-50125279D01*
X32899519Y-50125279D02*
X32899519Y-50030041D01*
X32899519Y-50030041D02*
X32947138Y-49887184D01*
X32947138Y-49887184D02*
X32994757Y-49839565D01*
X32994757Y-49458612D02*
X32947138Y-49410993D01*
X32947138Y-49410993D02*
X32899519Y-49315755D01*
X32899519Y-49315755D02*
X32899519Y-49077660D01*
X32899519Y-49077660D02*
X32947138Y-48982422D01*
X32947138Y-48982422D02*
X32994757Y-48934803D01*
X32994757Y-48934803D02*
X33089995Y-48887184D01*
X33089995Y-48887184D02*
X33185233Y-48887184D01*
X33185233Y-48887184D02*
X33328090Y-48934803D01*
X33328090Y-48934803D02*
X33899519Y-49506231D01*
X33899519Y-49506231D02*
X33899519Y-48887184D01*
X34417479Y-63936565D02*
X34465099Y-63984184D01*
X34465099Y-63984184D02*
X34512718Y-64127041D01*
X34512718Y-64127041D02*
X34512718Y-64222279D01*
X34512718Y-64222279D02*
X34465099Y-64365136D01*
X34465099Y-64365136D02*
X34369860Y-64460374D01*
X34369860Y-64460374D02*
X34274622Y-64507993D01*
X34274622Y-64507993D02*
X34084146Y-64555612D01*
X34084146Y-64555612D02*
X33941289Y-64555612D01*
X33941289Y-64555612D02*
X33750813Y-64507993D01*
X33750813Y-64507993D02*
X33655575Y-64460374D01*
X33655575Y-64460374D02*
X33560337Y-64365136D01*
X33560337Y-64365136D02*
X33512718Y-64222279D01*
X33512718Y-64222279D02*
X33512718Y-64127041D01*
X33512718Y-64127041D02*
X33560337Y-63984184D01*
X33560337Y-63984184D02*
X33607956Y-63936565D01*
X33512718Y-63603231D02*
X33512718Y-62984184D01*
X33512718Y-62984184D02*
X33893670Y-63317517D01*
X33893670Y-63317517D02*
X33893670Y-63174660D01*
X33893670Y-63174660D02*
X33941289Y-63079422D01*
X33941289Y-63079422D02*
X33988908Y-63031803D01*
X33988908Y-63031803D02*
X34084146Y-62984184D01*
X34084146Y-62984184D02*
X34322241Y-62984184D01*
X34322241Y-62984184D02*
X34417479Y-63031803D01*
X34417479Y-63031803D02*
X34465099Y-63079422D01*
X34465099Y-63079422D02*
X34512718Y-63174660D01*
X34512718Y-63174660D02*
X34512718Y-63460374D01*
X34512718Y-63460374D02*
X34465099Y-63555612D01*
X34465099Y-63555612D02*
X34417479Y-63603231D01*
X29358875Y-34617819D02*
X29025542Y-34141628D01*
X28787447Y-34617819D02*
X28787447Y-33617819D01*
X28787447Y-33617819D02*
X29168399Y-33617819D01*
X29168399Y-33617819D02*
X29263637Y-33665438D01*
X29263637Y-33665438D02*
X29311256Y-33713057D01*
X29311256Y-33713057D02*
X29358875Y-33808295D01*
X29358875Y-33808295D02*
X29358875Y-33951152D01*
X29358875Y-33951152D02*
X29311256Y-34046390D01*
X29311256Y-34046390D02*
X29263637Y-34094009D01*
X29263637Y-34094009D02*
X29168399Y-34141628D01*
X29168399Y-34141628D02*
X28787447Y-34141628D01*
X29692209Y-33617819D02*
X30358875Y-33617819D01*
X30358875Y-33617819D02*
X29930304Y-34617819D01*
X19206433Y-58890718D02*
X18873100Y-58414527D01*
X18635005Y-58890718D02*
X18635005Y-57890718D01*
X18635005Y-57890718D02*
X19015957Y-57890718D01*
X19015957Y-57890718D02*
X19111195Y-57938337D01*
X19111195Y-57938337D02*
X19158814Y-57985956D01*
X19158814Y-57985956D02*
X19206433Y-58081194D01*
X19206433Y-58081194D02*
X19206433Y-58224051D01*
X19206433Y-58224051D02*
X19158814Y-58319289D01*
X19158814Y-58319289D02*
X19111195Y-58366908D01*
X19111195Y-58366908D02*
X19015957Y-58414527D01*
X19015957Y-58414527D02*
X18635005Y-58414527D01*
X19587386Y-57985956D02*
X19635005Y-57938337D01*
X19635005Y-57938337D02*
X19730243Y-57890718D01*
X19730243Y-57890718D02*
X19968338Y-57890718D01*
X19968338Y-57890718D02*
X20063576Y-57938337D01*
X20063576Y-57938337D02*
X20111195Y-57985956D01*
X20111195Y-57985956D02*
X20158814Y-58081194D01*
X20158814Y-58081194D02*
X20158814Y-58176432D01*
X20158814Y-58176432D02*
X20111195Y-58319289D01*
X20111195Y-58319289D02*
X19539767Y-58890718D01*
X19539767Y-58890718D02*
X20158814Y-58890718D01*
D12*
%TO.C,J4*%
X143742800Y-40581800D02*
X143742800Y-43006800D01*
X143742800Y-40581800D02*
X152862800Y-40581800D01*
X143742800Y-45026800D02*
X143742800Y-46365033D01*
X143742800Y-50451801D02*
X143742800Y-47668567D01*
X152862800Y-40581800D02*
X153862800Y-41581800D01*
X152862800Y-50451801D02*
X143742800Y-50451801D01*
X153862800Y-41581800D02*
X153862800Y-49451800D01*
X153862800Y-49451800D02*
X152862800Y-50451801D01*
%TO.C,LM1*%
X27898701Y-56200699D02*
X27898700Y-54250699D01*
X27898701Y-56200699D02*
X27898700Y-58150699D01*
X33018699Y-56200699D02*
X33018700Y-54250699D01*
X33018699Y-56200699D02*
X33018700Y-58150699D01*
X33253700Y-53740699D02*
X32923700Y-53500699D01*
X33253700Y-53260700D01*
X33253700Y-53740699D01*
G36*
X33253700Y-53740699D02*
G01*
X32923700Y-53500699D01*
X33253700Y-53260700D01*
X33253700Y-53740699D01*
G37*
%TO.C,R3*%
X42213264Y-37136400D02*
X41759136Y-37136400D01*
X42213264Y-38606400D02*
X41759136Y-38606400D01*
%TO.C,C1*%
X22812953Y-51343999D02*
X22290447Y-51343999D01*
X22812953Y-52813999D02*
X22290447Y-52813999D01*
%TO.C,D2*%
X110196400Y-70740000D02*
X110196400Y-74040000D01*
X110196400Y-70740000D02*
X117206400Y-70740000D01*
X110196400Y-74040000D02*
X117206400Y-74040000D01*
%TO.C,U1*%
X22855200Y-53462098D02*
X22205200Y-53462099D01*
X22855200Y-53462098D02*
X23505200Y-53462099D01*
X22855200Y-56582100D02*
X22205200Y-56582099D01*
X22855200Y-56582100D02*
X23505200Y-56582099D01*
X24257700Y-56862099D02*
X23777700Y-56862098D01*
X24017700Y-56532099D01*
X24257700Y-56862099D01*
G36*
X24257700Y-56862099D02*
G01*
X23777700Y-56862098D01*
X24017700Y-56532099D01*
X24257700Y-56862099D01*
G37*
%TO.C,R6*%
X33508118Y-39068765D02*
X33829235Y-39389882D01*
X34547565Y-38029318D02*
X34868682Y-38350435D01*
%TO.C,J2*%
X27399200Y-16356600D02*
X28399200Y-15356600D01*
X27399200Y-25476600D02*
X27399200Y-16356600D01*
X27399200Y-25476600D02*
X29824200Y-25476600D01*
X28399200Y-15356600D02*
X36269200Y-15356600D01*
X31844200Y-25476600D02*
X33182433Y-25476600D01*
X36269200Y-15356600D02*
X37269201Y-16356600D01*
X37269201Y-16356600D02*
X37269201Y-25476600D01*
X37269201Y-25476600D02*
X34485967Y-25476600D01*
%TO.C,R1*%
X22524236Y-60266299D02*
X22978364Y-60266299D01*
X22524236Y-61736299D02*
X22978364Y-61736299D01*
%TO.C,F1*%
X49948600Y-37169000D02*
X49948600Y-33189000D01*
X54648600Y-37169000D02*
X54648600Y-33189000D01*
D13*
%TO.C,U3*%
X89793799Y-66655200D02*
X109443801Y-66655200D01*
X89793799Y-73705200D02*
X89793799Y-66655200D01*
X109443801Y-66655200D02*
X109443801Y-73705200D01*
X109443801Y-73705200D02*
X89793799Y-73705200D01*
D14*
X110383800Y-72510200D02*
G75*
G02*
X110183800Y-72510200I-100000J0D01*
G01*
X110183800Y-72510200D02*
G75*
G02*
X110383800Y-72510200I100000J0D01*
G01*
D12*
%TO.C,R4*%
X22625836Y-62882499D02*
X23079964Y-62882499D01*
X22625836Y-64352499D02*
X23079964Y-64352499D01*
%TO.C,R11*%
X25648500Y-50817435D02*
X25648500Y-51271563D01*
X27118500Y-50817435D02*
X27118500Y-51271563D01*
%TO.C,R8*%
X23318736Y-35231400D02*
X23772864Y-35231400D01*
X23318736Y-36701400D02*
X23772864Y-36701400D01*
%TO.C,J1*%
X42182000Y-16509000D02*
X43182000Y-15509000D01*
X42182000Y-25629000D02*
X42182000Y-16509000D01*
X42182000Y-25629000D02*
X44607000Y-25629000D01*
X43182000Y-15509000D02*
X51052000Y-15509000D01*
X46627000Y-25629000D02*
X47965233Y-25629000D01*
X51052000Y-15509000D02*
X52052001Y-16509000D01*
X52052001Y-16509000D02*
X52052001Y-25629000D01*
X52052001Y-25629000D02*
X49268767Y-25629000D01*
%TO.C,D1*%
X16830700Y-49203899D02*
X16830700Y-53443899D01*
X16830700Y-53443899D02*
X19070700Y-53443899D01*
X17950700Y-48553899D02*
X17950700Y-49203898D01*
X17950700Y-54093900D02*
X17950700Y-53443899D01*
X19070700Y-49203899D02*
X16830700Y-49203899D01*
X19070700Y-49803899D02*
X16830700Y-49803899D01*
X19070700Y-49923899D02*
X16830700Y-49923899D01*
X19070700Y-50043899D02*
X16830700Y-50043899D01*
X19070700Y-53443899D02*
X19070700Y-49203899D01*
%TO.C,R10*%
X25427000Y-44575464D02*
X25427000Y-44121336D01*
X26897000Y-44575464D02*
X26897000Y-44121336D01*
D11*
%TO.C,U2*%
X131901000Y-64233600D02*
X61901000Y-64233600D01*
X61901000Y-16233600D01*
X131901000Y-16233600D01*
X131901000Y-64233600D01*
D12*
%TO.C,J3*%
X143740800Y-29229400D02*
X143740800Y-31654400D01*
X143740800Y-29229400D02*
X152860800Y-29229400D01*
X143740800Y-33674400D02*
X143740800Y-35012633D01*
X143740800Y-39099401D02*
X143740800Y-36316167D01*
X152860800Y-29229400D02*
X153860800Y-30229400D01*
X152860800Y-39099401D02*
X143740800Y-39099401D01*
X153860800Y-30229400D02*
X153860800Y-38099400D01*
X153860800Y-38099400D02*
X152860800Y-39099401D01*
%TO.C,F2*%
X123207864Y-71030000D02*
X122003736Y-71030000D01*
X123207864Y-73750000D02*
X122003736Y-73750000D01*
%TO.C,R5*%
X38579035Y-41128118D02*
X38257918Y-41449235D01*
X39618482Y-42167565D02*
X39297365Y-42488682D01*
%TO.C,R12*%
X34309900Y-51046035D02*
X34309900Y-51500163D01*
X35779900Y-51046035D02*
X35779900Y-51500163D01*
%TO.C,R9*%
X17600664Y-35333000D02*
X17146536Y-35333000D01*
X17600664Y-36803000D02*
X17146536Y-36803000D01*
%TO.C,C2*%
X30832153Y-48887099D02*
X30309647Y-48887099D01*
X30832153Y-50357099D02*
X30309647Y-50357099D01*
%TO.C,C3*%
X31642900Y-63508646D02*
X31642900Y-64031152D01*
X33112900Y-63508646D02*
X33112900Y-64031152D01*
%TO.C,R7*%
X29741864Y-35155200D02*
X29287736Y-35155200D01*
X29741864Y-36625200D02*
X29287736Y-36625200D01*
%TO.C,R2*%
X22978364Y-57751699D02*
X22524236Y-57751699D01*
X22978364Y-59221699D02*
X22524236Y-59221699D01*
%TD*%
M02*
