%TF.GenerationSoftware,KiCad,Pcbnew,9.0.1*%
%TF.CreationDate,2026-09-27T15:55:40+08:00*%
%TF.ProjectId,TS_indicator,54535f69-6e64-4696-9361-746f722e6b69,rev?*%
%TF.SameCoordinates,Original*%
%TF.FileFunction,Soldermask,Top*%
%TF.FilePolarity,Negative*%
%FSLAX46Y46*%
G04 Gerber Fmt 4.6, Leading zero omitted, Abs format (unit mm)*
G04 Created by KiCad (PCBNEW 9.0.1) date 2026-09-27 15:55:40*
%MOMM*%
%LPD*%
G01*
G04 APERTURE LIST*
G04 Aperture macros list*
%AMRoundRect*
0 Rectangle with rounded corners*
0 $1 Rounding radius*
0 $2 $3 $4 $5 $6 $7 $8 $9 X,Y pos of 4 corners*
0 Add a 4 corners polygon primitive as box body*
4,1,4,$2,$3,$4,$5,$6,$7,$8,$9,$2,$3,0*
0 Add four circle primitives for the rounded corners*
1,1,$1+$1,$2,$3*
1,1,$1+$1,$4,$5*
1,1,$1+$1,$6,$7*
1,1,$1+$1,$8,$9*
0 Add four rect primitives between the rounded corners*
20,1,$1+$1,$2,$3,$4,$5,0*
20,1,$1+$1,$4,$5,$6,$7,0*
20,1,$1+$1,$6,$7,$8,$9,0*
20,1,$1+$1,$8,$9,$2,$3,0*%
G04 Aperture macros list end*
%ADD10C,3.000000*%
%ADD11RoundRect,0.250001X-0.759999X0.499999X-0.759999X-0.499999X0.759999X-0.499999X0.759999X0.499999X0*%
%ADD12O,2.020000X1.500000*%
%ADD13RoundRect,0.150000X-0.150000X1.350000X-0.150000X-1.350000X0.150000X-1.350000X0.150000X1.350000X0*%
%ADD14RoundRect,0.150000X-0.150000X1.337500X-0.150000X-1.337500X0.150000X-1.337500X0.150000X1.337500X0*%
%ADD15RoundRect,0.278125X0.474375X0.389375X-0.474375X0.389375X-0.474375X-0.389375X0.474375X-0.389375X0*%
%ADD16RoundRect,0.305575X0.460025X0.412525X-0.460025X0.412525X-0.460025X-0.412525X0.460025X-0.412525X0*%
%ADD17RoundRect,0.308511X0.457089X0.416489X-0.457089X0.416489X-0.457089X-0.416489X0.457089X-0.416489X0*%
%ADD18RoundRect,0.250000X-1.500000X-0.650000X1.500000X-0.650000X1.500000X0.650000X-1.500000X0.650000X0*%
%ADD19RoundRect,0.150000X0.587500X0.150000X-0.587500X0.150000X-0.587500X-0.150000X0.587500X-0.150000X0*%
%ADD20RoundRect,0.278125X-0.610763X0.060104X0.060104X-0.610763X0.610763X-0.060104X-0.060104X0.610763X0*%
%ADD21RoundRect,0.250001X-0.499999X-0.759999X0.499999X-0.759999X0.499999X0.759999X-0.499999X0.759999X0*%
%ADD22O,1.500000X2.020000*%
%ADD23RoundRect,0.278125X-0.474375X-0.389375X0.474375X-0.389375X0.474375X0.389375X-0.474375X0.389375X0*%
%ADD24RoundRect,0.250000X3.090000X-2.550000X3.090000X2.550000X-3.090000X2.550000X-3.090000X-2.550000X0*%
%ADD25RoundRect,0.102000X0.750000X0.750000X-0.750000X0.750000X-0.750000X-0.750000X0.750000X-0.750000X0*%
%ADD26C,1.704000*%
%ADD27C,4.300000*%
%ADD28RoundRect,0.278125X-0.389375X0.474375X-0.389375X-0.474375X0.389375X-0.474375X0.389375X0.474375X0*%
%ADD29R,1.600000X1.600000*%
%ADD30O,1.600000X1.600000*%
%ADD31RoundRect,0.278125X0.389375X-0.474375X0.389375X0.474375X-0.389375X0.474375X-0.389375X-0.474375X0*%
%ADD32RoundRect,0.750000X-1.750000X-1.750000X1.750000X-1.750000X1.750000X1.750000X-1.750000X1.750000X0*%
%ADD33RoundRect,0.250001X0.462499X1.074999X-0.462499X1.074999X-0.462499X-1.074999X0.462499X-1.074999X0*%
%ADD34RoundRect,0.278125X0.060104X0.610763X-0.610763X-0.060104X-0.060104X-0.610763X0.610763X0.060104X0*%
%ADD35RoundRect,0.305575X-0.412525X0.460025X-0.412525X-0.460025X0.412525X-0.460025X0.412525X0.460025X0*%
%ADD36RoundRect,0.308511X-0.416489X0.457089X-0.416489X-0.457089X0.416489X-0.457089X0.416489X0.457089X0*%
G04 APERTURE END LIST*
D10*
%TO.C,J4*%
X149152800Y-45516800D03*
D11*
X144832800Y-44016800D03*
D12*
X144832800Y-47016800D03*
%TD*%
D13*
%TO.C,LM1*%
X32363700Y-53200699D03*
X31093700Y-53200699D03*
D14*
X29958700Y-53188199D03*
D13*
X28553700Y-53200699D03*
X28553700Y-59200699D03*
X29823700Y-59200699D03*
X31093700Y-59200699D03*
X32363700Y-59200699D03*
%TD*%
D15*
%TO.C,R3*%
X43138701Y-37903900D03*
X40833699Y-37903900D03*
%TD*%
D16*
%TO.C,C1*%
X23767300Y-52085899D03*
D17*
X21336100Y-52078999D03*
%TD*%
D18*
%TO.C,D2*%
X112206400Y-72390000D03*
X117206400Y-72390000D03*
%TD*%
D19*
%TO.C,U1*%
X23792700Y-55972099D03*
X23792700Y-54072099D03*
X21917699Y-55022099D03*
%TD*%
D20*
%TO.C,R6*%
X33396440Y-37871678D03*
X35026322Y-39501560D03*
%TD*%
D10*
%TO.C,J2*%
X32334200Y-20066600D03*
D21*
X30834200Y-24386600D03*
D22*
X33834200Y-24386600D03*
%TD*%
D23*
%TO.C,R1*%
X21598799Y-60968799D03*
X23903801Y-60968799D03*
%TD*%
D24*
%TO.C,F1*%
X52298600Y-40229000D03*
X52298600Y-30129000D03*
%TD*%
D25*
%TO.C,U3*%
X107443800Y-72435200D03*
D26*
X104903800Y-72435200D03*
X97283800Y-72435200D03*
X92203800Y-72435200D03*
%TD*%
D27*
%TO.C,H4*%
X149307600Y-69842000D03*
%TD*%
D23*
%TO.C,R4*%
X21700399Y-63584999D03*
X24005401Y-63584999D03*
%TD*%
D28*
%TO.C,R11*%
X26416000Y-49891998D03*
X26416000Y-52197000D03*
%TD*%
D23*
%TO.C,R8*%
X22393300Y-35933900D03*
X24698300Y-35933900D03*
%TD*%
D10*
%TO.C,J1*%
X47117000Y-20219000D03*
D21*
X45617000Y-24539000D03*
D22*
X48617000Y-24539000D03*
%TD*%
D29*
%TO.C,D1*%
X17950700Y-47513899D03*
D30*
X17950700Y-55133899D03*
%TD*%
D31*
%TO.C,R10*%
X26129500Y-45500901D03*
X26129500Y-43195899D03*
%TD*%
D32*
%TO.C,U2*%
X65851000Y-60233600D03*
X65850999Y-40233600D03*
X127951001Y-51733600D03*
X127951001Y-28733600D03*
%TD*%
D10*
%TO.C,J3*%
X149150800Y-34164400D03*
D11*
X144830800Y-32664400D03*
D12*
X144830800Y-35664400D03*
%TD*%
D33*
%TO.C,F2*%
X124093300Y-72390000D03*
X121118300Y-72390000D03*
%TD*%
D34*
%TO.C,R5*%
X39776122Y-41016440D03*
X38146240Y-42646322D03*
%TD*%
D28*
%TO.C,R12*%
X35077400Y-50120598D03*
X35077400Y-52425600D03*
%TD*%
D15*
%TO.C,R9*%
X18526101Y-36100500D03*
X16221099Y-36100500D03*
%TD*%
D27*
%TO.C,H2*%
X19307600Y-69842000D03*
%TD*%
D16*
%TO.C,C2*%
X31786500Y-49628999D03*
D17*
X29355300Y-49622099D03*
%TD*%
D35*
%TO.C,C3*%
X32384800Y-62554299D03*
D36*
X32377900Y-64985499D03*
%TD*%
D15*
%TO.C,R7*%
X30667301Y-35922700D03*
X28362299Y-35922700D03*
%TD*%
D27*
%TO.C,H3*%
X149307600Y-19842000D03*
%TD*%
D15*
%TO.C,R2*%
X23903801Y-58519199D03*
X21598799Y-58519199D03*
%TD*%
D27*
%TO.C,H1*%
X19307600Y-19842000D03*
%TD*%
M02*
