%TF.GenerationSoftware,KiCad,Pcbnew,9.0.1*%
%TF.CreationDate,2026-09-27T15:55:40+08:00*%
%TF.ProjectId,TS_indicator,54535f69-6e64-4696-9361-746f722e6b69,rev?*%
%TF.SameCoordinates,Original*%
%TF.FileFunction,Profile,NP*%
%FSLAX46Y46*%
G04 Gerber Fmt 4.6, Leading zero omitted, Abs format (unit mm)*
G04 Created by KiCad (PCBNEW 9.0.1) date 2026-09-27 15:55:40*
%MOMM*%
%LPD*%
G01*
G04 APERTURE LIST*
%TA.AperFunction,Profile*%
%ADD10C,0.050000*%
%TD*%
G04 APERTURE END LIST*
D10*
X39497000Y-47879000D02*
X32537400Y-40767000D01*
X99593400Y-74853800D02*
X19307600Y-74842000D01*
X35814000Y-22021800D02*
X35814000Y-37592000D01*
X35814000Y-37592000D02*
X35814000Y-38938200D01*
X102006400Y-23825200D02*
X102006400Y-14859000D01*
X99872800Y-14859000D02*
X99872800Y-23825200D01*
X37541200Y-22529800D02*
X42113200Y-17881600D01*
X101955600Y-66405200D02*
X101955600Y-74853800D01*
X52476400Y-17881600D02*
X42113200Y-17881600D01*
X14307600Y-19842000D02*
G75*
G02*
X19307600Y-14842000I5000000J0D01*
G01*
X52476400Y-17881600D02*
X56946800Y-22504400D01*
X19307600Y-74842000D02*
G75*
G02*
X14307600Y-69842000I0J5000000D01*
G01*
X76225400Y-58674000D02*
X76225400Y-67056000D01*
X154307600Y-69842000D02*
G75*
G02*
X149307600Y-74842000I-5000000J0D01*
G01*
X35814000Y-38938200D02*
X37541200Y-38938200D01*
X29667200Y-45720000D02*
X31978600Y-48082200D01*
X99618800Y-66405200D02*
X101955600Y-66405200D01*
X42849800Y-50215800D02*
X44246800Y-50215800D01*
X44246800Y-59486800D01*
X42849800Y-59486800D01*
X42849800Y-50215800D01*
X68148200Y-45262800D02*
X58496200Y-45262800D01*
X102006400Y-14859000D02*
X149307600Y-14842000D01*
X52298600Y-65811400D02*
X52298600Y-67030600D01*
X32613600Y-47548800D02*
X30327600Y-45161200D01*
X32537400Y-40767000D02*
X31445200Y-41732200D01*
X76225400Y-67056000D02*
X52298600Y-67030600D01*
X68148200Y-45262800D02*
X68148200Y-47205900D01*
X14307600Y-69842000D02*
X14307600Y-19842000D01*
X101955600Y-74853800D02*
X149307600Y-74842000D01*
X31978600Y-48082200D02*
X32613600Y-47548800D01*
X44297600Y-63373000D02*
X46774768Y-65481353D01*
X47155768Y-65786153D01*
X51003200Y-65811400D01*
X50991168Y-67030753D01*
X46419168Y-67030753D01*
X43307000Y-64414400D01*
X42812368Y-63982753D01*
X42812368Y-60756953D01*
X44260168Y-60756953D01*
X44297600Y-63373000D01*
X30327600Y-45161200D02*
X29667200Y-45720000D01*
X56921400Y-47180500D02*
X56946800Y-22504400D01*
X19307600Y-14842000D02*
X99872800Y-14859000D01*
X52298600Y-65811400D02*
X74574400Y-65811400D01*
X53911052Y-17107766D02*
X40907148Y-17107766D01*
X99872800Y-46482000D02*
X102006400Y-46482000D01*
X102006400Y-59872100D01*
X99872800Y-59872100D01*
X99872800Y-46482000D01*
X149307600Y-14842000D02*
G75*
G02*
X154307600Y-19842000I0J-5000000D01*
G01*
X74574400Y-65811400D02*
X74574400Y-58674000D01*
X58496200Y-45262800D02*
X58458548Y-21500234D01*
X53911052Y-17107766D02*
X58458548Y-21500234D01*
X68148200Y-47205900D02*
X56921400Y-47180500D01*
X154307600Y-19842000D02*
X154307600Y-69842000D01*
X31445200Y-41732200D02*
X38404800Y-48869600D01*
X40907148Y-17107766D02*
X35814000Y-22021800D01*
X99822000Y-30480000D02*
X101955600Y-30480000D01*
X101955600Y-39979600D01*
X99822000Y-39979600D01*
X99822000Y-30480000D01*
X99593400Y-74853800D02*
X99618800Y-66405200D01*
X99872800Y-23825200D02*
X102006400Y-23825200D01*
X38404800Y-48869600D02*
X39497000Y-47879000D01*
X74574400Y-58674000D02*
X76225400Y-58674000D01*
X37541200Y-38938200D02*
X37541200Y-22529800D01*
X42799000Y-39217600D02*
X44196000Y-39217600D01*
X44196000Y-48488600D01*
X42799000Y-48488600D01*
X42799000Y-39217600D01*
M02*
