%TF.GenerationSoftware,KiCad,Pcbnew,9.0.1*%
%TF.CreationDate,2026-09-27T18:01:48+08:00*%
%TF.ProjectId,TS_indicator,54535f69-6e64-4696-9361-746f722e6b69,rev?*%
%TF.SameCoordinates,Original*%
%TF.FileFunction,Copper,L2,Bot*%
%TF.FilePolarity,Positive*%
%FSLAX46Y46*%
G04 Gerber Fmt 4.6, Leading zero omitted, Abs format (unit mm)*
G04 Created by KiCad (PCBNEW 9.0.1) date 2026-09-27 18:01:48*
%MOMM*%
%LPD*%
G01*
G04 APERTURE LIST*
G04 Aperture macros list*
%AMRoundRect*
0 Rectangle with rounded corners*
0 $1 Rounding radius*
0 $2 $3 $4 $5 $6 $7 $8 $9 X,Y pos of 4 corners*
0 Add a 4 corners polygon primitive as box body*
4,1,4,$2,$3,$4,$5,$6,$7,$8,$9,$2,$3,0*
0 Add four circle primitives for the rounded corners*
1,1,$1+$1,$2,$3*
1,1,$1+$1,$4,$5*
1,1,$1+$1,$6,$7*
1,1,$1+$1,$8,$9*
0 Add four rect primitives between the rounded corners*
20,1,$1+$1,$2,$3,$4,$5,0*
20,1,$1+$1,$4,$5,$6,$7,0*
20,1,$1+$1,$6,$7,$8,$9,0*
20,1,$1+$1,$8,$9,$2,$3,0*%
G04 Aperture macros list end*
%TA.AperFunction,ComponentPad*%
%ADD10RoundRect,0.250001X-0.759999X0.499999X-0.759999X-0.499999X0.759999X-0.499999X0.759999X0.499999X0*%
%TD*%
%TA.AperFunction,ComponentPad*%
%ADD11O,2.020000X1.500000*%
%TD*%
%TA.AperFunction,ComponentPad*%
%ADD12RoundRect,0.250001X-0.499999X-0.759999X0.499999X-0.759999X0.499999X0.759999X-0.499999X0.759999X0*%
%TD*%
%TA.AperFunction,ComponentPad*%
%ADD13O,1.500000X2.020000*%
%TD*%
%TA.AperFunction,ComponentPad*%
%ADD14R,1.500000X1.500000*%
%TD*%
%TA.AperFunction,ComponentPad*%
%ADD15C,1.500000*%
%TD*%
%TA.AperFunction,ComponentPad*%
%ADD16R,1.600000X1.600000*%
%TD*%
%TA.AperFunction,ComponentPad*%
%ADD17O,1.600000X1.600000*%
%TD*%
%TA.AperFunction,ComponentPad*%
%ADD18RoundRect,0.750000X-1.750000X-1.750000X1.750000X-1.750000X1.750000X1.750000X-1.750000X1.750000X0*%
%TD*%
%TA.AperFunction,SMDPad,CuDef*%
%ADD19RoundRect,0.278125X-0.474375X-0.389375X0.474375X-0.389375X0.474375X0.389375X-0.474375X0.389375X0*%
%TD*%
%TA.AperFunction,SMDPad,CuDef*%
%ADD20RoundRect,0.150000X-0.587500X-0.150000X0.587500X-0.150000X0.587500X0.150000X-0.587500X0.150000X0*%
%TD*%
%TA.AperFunction,SMDPad,CuDef*%
%ADD21RoundRect,0.305575X0.460025X0.412525X-0.460025X0.412525X-0.460025X-0.412525X0.460025X-0.412525X0*%
%TD*%
%TA.AperFunction,SMDPad,CuDef*%
%ADD22RoundRect,0.308511X0.457089X0.416489X-0.457089X0.416489X-0.457089X-0.416489X0.457089X-0.416489X0*%
%TD*%
%TA.AperFunction,SMDPad,CuDef*%
%ADD23RoundRect,0.278125X0.389375X-0.474375X0.389375X0.474375X-0.389375X0.474375X-0.389375X-0.474375X0*%
%TD*%
%TA.AperFunction,SMDPad,CuDef*%
%ADD24RoundRect,0.278125X-0.389375X0.474375X-0.389375X-0.474375X0.389375X-0.474375X0.389375X0.474375X0*%
%TD*%
%TA.AperFunction,SMDPad,CuDef*%
%ADD25RoundRect,0.278125X0.474375X0.389375X-0.474375X0.389375X-0.474375X-0.389375X0.474375X-0.389375X0*%
%TD*%
%TA.AperFunction,SMDPad,CuDef*%
%ADD26RoundRect,0.305575X-0.460025X-0.412525X0.460025X-0.412525X0.460025X0.412525X-0.460025X0.412525X0*%
%TD*%
%TA.AperFunction,SMDPad,CuDef*%
%ADD27RoundRect,0.308511X-0.457089X-0.416489X0.457089X-0.416489X0.457089X0.416489X-0.457089X0.416489X0*%
%TD*%
%TA.AperFunction,SMDPad,CuDef*%
%ADD28RoundRect,0.249999X-0.750001X-0.640001X0.750001X-0.640001X0.750001X0.640001X-0.750001X0.640001X0*%
%TD*%
%TA.AperFunction,SMDPad,CuDef*%
%ADD29RoundRect,0.250000X-0.450000X0.325000X-0.450000X-0.325000X0.450000X-0.325000X0.450000X0.325000X0*%
%TD*%
%TA.AperFunction,SMDPad,CuDef*%
%ADD30RoundRect,0.250000X0.450000X-0.325000X0.450000X0.325000X-0.450000X0.325000X-0.450000X-0.325000X0*%
%TD*%
%TA.AperFunction,ViaPad*%
%ADD31C,0.600000*%
%TD*%
%TA.AperFunction,Conductor*%
%ADD32C,0.508000*%
%TD*%
%TA.AperFunction,Conductor*%
%ADD33C,0.200000*%
%TD*%
G04 APERTURE END LIST*
D10*
%TO.P,J4,1,Pin_1*%
%TO.N,/GLV-*%
X144832800Y-44016800D03*
D11*
%TO.P,J4,2,Pin_2*%
%TO.N,Net-(J4-Pin_2)*%
X144832800Y-47016800D03*
%TD*%
D12*
%TO.P,J2,1,Pin_1*%
%TO.N,GND*%
X30834200Y-24386600D03*
D13*
%TO.P,J2,2,Pin_2*%
X33834200Y-24386600D03*
%TD*%
D14*
%TO.P,U3,1,+Vin*%
%TO.N,VCC*%
X107443800Y-72435200D03*
D15*
%TO.P,U3,2,-Vin*%
%TO.N,/GLV-*%
X104903800Y-72435200D03*
%TO.P,U3,4,-Vout*%
%TO.N,GND*%
X97283800Y-72435200D03*
%TO.P,U3,6,+Vout*%
%TO.N,+12V*%
X92203800Y-72435200D03*
%TD*%
D12*
%TO.P,J1,1,Pin_1*%
%TO.N,/+HV*%
X45617000Y-24539000D03*
D13*
%TO.P,J1,2,Pin_2*%
X48617000Y-24539000D03*
%TD*%
D16*
%TO.P,D1,1,K*%
%TO.N,/Vin*%
X17950700Y-47513899D03*
D17*
%TO.P,D1,2,A*%
%TO.N,GND*%
X17950700Y-55133899D03*
%TD*%
D18*
%TO.P,U2,1,+Vin*%
%TO.N,/+HV_after_fuse*%
X65851000Y-60233600D03*
%TO.P,U2,2,-Vin*%
%TO.N,GND*%
X65850999Y-40233600D03*
%TO.P,U2,3,+Vout*%
%TO.N,/GLV+*%
X127951001Y-51733600D03*
%TO.P,U2,4,-Vout*%
%TO.N,/GLV-*%
X127951001Y-28733600D03*
%TD*%
D10*
%TO.P,J3,1,Pin_1*%
%TO.N,Net-(J3-Pin_1)*%
X144830800Y-32664400D03*
D11*
%TO.P,J3,2,Pin_2*%
%TO.N,Net-(D3-K)*%
X144830800Y-35664400D03*
%TD*%
D19*
%TO.P,R16,1*%
%TO.N,/SIG*%
X122875699Y-42468800D03*
%TO.P,R16,2*%
%TO.N,Net-(Q1-G)*%
X125180701Y-42468800D03*
%TD*%
D20*
%TO.P,Q1,1,G*%
%TO.N,Net-(Q1-G)*%
X127809999Y-44942402D03*
%TO.P,Q1,2,S*%
%TO.N,VCC*%
X127809999Y-43042402D03*
%TO.P,Q1,3,D*%
%TO.N,Net-(Q1-D)*%
X129685000Y-43992402D03*
%TD*%
D21*
%TO.P,C4,1*%
%TO.N,GND*%
X95246400Y-70859100D03*
D22*
%TO.P,C4,2*%
%TO.N,+12V*%
X92815200Y-70866000D03*
%TD*%
D23*
%TO.P,R17,1*%
%TO.N,/SIG*%
X122968500Y-36788701D03*
%TO.P,R17,2*%
%TO.N,Net-(Q2-G)*%
X122968500Y-34483699D03*
%TD*%
D21*
%TO.P,C9,1*%
%TO.N,GND*%
X95246400Y-68750900D03*
D22*
%TO.P,C9,2*%
%TO.N,+12V*%
X92815200Y-68757800D03*
%TD*%
D24*
%TO.P,R21,1*%
%TO.N,/GLV-*%
X125502698Y-34485099D03*
%TO.P,R21,2*%
%TO.N,Net-(Q2-G)*%
X125502698Y-36790101D03*
%TD*%
%TO.P,R18,1*%
%TO.N,Net-(D3-A)*%
X134926801Y-33561198D03*
%TO.P,R18,2*%
%TO.N,VCC*%
X134926801Y-35866200D03*
%TD*%
D23*
%TO.P,R19,1*%
%TO.N,Net-(D4-A)*%
X136044399Y-46121402D03*
%TO.P,R19,2*%
%TO.N,Net-(Q1-D)*%
X136044399Y-43816400D03*
%TD*%
D25*
%TO.P,R20,1*%
%TO.N,Net-(Q1-G)*%
X125155301Y-45045400D03*
%TO.P,R20,2*%
%TO.N,VCC*%
X122850299Y-45045400D03*
%TD*%
D24*
%TO.P,R22,1*%
%TO.N,Net-(J3-Pin_1)*%
X137441400Y-33561198D03*
%TO.P,R22,2*%
%TO.N,VCC*%
X137441400Y-35866200D03*
%TD*%
D26*
%TO.P,C5,1*%
%TO.N,/GLV-*%
X104880200Y-70009300D03*
D27*
%TO.P,C5,2*%
%TO.N,VCC*%
X107311400Y-70002400D03*
%TD*%
D26*
%TO.P,C10,1*%
%TO.N,/GLV-*%
X104807600Y-67494700D03*
D27*
%TO.P,C10,2*%
%TO.N,VCC*%
X107238800Y-67487800D03*
%TD*%
D28*
%TO.P,U7,1*%
%TO.N,Net-(R13-Pad2)*%
X95285600Y-64084200D03*
%TO.P,U7,2*%
%TO.N,Net-(LM1-Pad7)*%
X95285600Y-61544200D03*
%TO.P,U7,3*%
%TO.N,/SIG*%
X104815600Y-61544200D03*
%TO.P,U7,4*%
%TO.N,VCC*%
X104815600Y-64084200D03*
%TD*%
D23*
%TO.P,R23,1*%
%TO.N,Net-(J4-Pin_2)*%
X132945600Y-46121402D03*
%TO.P,R23,2*%
%TO.N,Net-(Q1-D)*%
X132945600Y-43816400D03*
%TD*%
%TO.P,R13,1*%
%TO.N,+12V*%
X92818700Y-66506701D03*
%TO.P,R13,2*%
%TO.N,Net-(R13-Pad2)*%
X92818700Y-64201699D03*
%TD*%
D24*
%TO.P,R14,1*%
%TO.N,/SIG*%
X107663500Y-61382299D03*
%TO.P,R14,2*%
%TO.N,/GLV-*%
X107663500Y-63687301D03*
%TD*%
D20*
%TO.P,Q2,1,G*%
%TO.N,Net-(Q2-G)*%
X128028997Y-36867000D03*
%TO.P,Q2,2,S*%
%TO.N,/GLV-*%
X128028997Y-34967000D03*
%TO.P,Q2,3,D*%
%TO.N,Net-(D3-K)*%
X129903998Y-35917000D03*
%TD*%
D29*
%TO.P,D4,1,K*%
%TO.N,/GLV-*%
X138932899Y-43994702D03*
%TO.P,D4,2,A*%
%TO.N,Net-(D4-A)*%
X138932899Y-46044700D03*
%TD*%
D30*
%TO.P,D3,1,K*%
%TO.N,Net-(D3-K)*%
X132429501Y-35643496D03*
%TO.P,D3,2,A*%
%TO.N,Net-(D3-A)*%
X132429501Y-33593498D03*
%TD*%
D31*
%TO.N,/Vref*%
X26154900Y-54803699D03*
X21598799Y-60968799D03*
%TO.N,+12V*%
X24005401Y-63584999D03*
X32384800Y-62554299D03*
%TO.N,/GLV-*%
X134518400Y-20066000D03*
X109778800Y-20243800D03*
X113512600Y-67462400D03*
X103784400Y-48945800D03*
X139522200Y-26212800D03*
X140639800Y-35636200D03*
X118008400Y-50469800D03*
X142468600Y-67894200D03*
X146405600Y-62966600D03*
X118719600Y-31877000D03*
X121691400Y-59461400D03*
X142290800Y-58775600D03*
X121945400Y-67208400D03*
X135331200Y-67411600D03*
X120700800Y-20294600D03*
X119913400Y-26314400D03*
X135382000Y-58724800D03*
X143052800Y-20116800D03*
X132130800Y-70840600D03*
X108356400Y-27254200D03*
X110286800Y-47447200D03*
X104571800Y-42418000D03*
X111709200Y-55727600D03*
X116636800Y-42214800D03*
X108000800Y-35280600D03*
X149707600Y-58496200D03*
%TO.N,VCC*%
X122850299Y-45045400D03*
X130251200Y-41935400D03*
X126009400Y-40360600D03*
X134926801Y-35866200D03*
%TO.N,Net-(LM1-Pad7)*%
X31107900Y-61102899D03*
%TD*%
D32*
%TO.N,/Vref*%
X26840700Y-55489499D02*
X26154900Y-54803699D01*
X26840700Y-58308899D02*
X26840700Y-55489499D01*
X24180800Y-60968799D02*
X26840700Y-58308899D01*
X21598799Y-60968799D02*
X24180800Y-60968799D01*
%TO.N,GND*%
X65850999Y-23610799D02*
X65850999Y-40233600D01*
X40386000Y-15798800D02*
X58039000Y-15798800D01*
X33834200Y-24386600D02*
X33834200Y-22350600D01*
X95707700Y-70859100D02*
X97283800Y-72435200D01*
X33834200Y-22350600D02*
X40386000Y-15798800D01*
X58039000Y-15798800D02*
X65850999Y-23610799D01*
X95246400Y-70859100D02*
X95246400Y-68750900D01*
X95246400Y-70859100D02*
X95707700Y-70859100D01*
%TO.N,+12V*%
X32384800Y-62554299D02*
X30850300Y-62554299D01*
X92203800Y-72435200D02*
X93097398Y-71541602D01*
X93097398Y-66545599D02*
X93030699Y-66478900D01*
X30850300Y-62554299D02*
X29819600Y-63584999D01*
X93097398Y-71541602D02*
X93097398Y-66545599D01*
X29819600Y-63584999D02*
X24005401Y-63584999D01*
%TO.N,/GLV-*%
X138932899Y-43994702D02*
X139342498Y-43994702D01*
X125502698Y-34485099D02*
X125984599Y-34967000D01*
X104807600Y-69936700D02*
X104880200Y-70009300D01*
X150501200Y-28733600D02*
X127951001Y-28733600D01*
X125502698Y-34485099D02*
X125502698Y-31181903D01*
X152171400Y-30403800D02*
X150501200Y-28733600D01*
X107663500Y-64116700D02*
X107663500Y-63687301D01*
X104807600Y-67494700D02*
X104807600Y-69936700D01*
X139364596Y-44016800D02*
X144832800Y-44016800D01*
X145238600Y-44016800D02*
X152171400Y-37084000D01*
X125502698Y-31181903D02*
X127951001Y-28733600D01*
X152171400Y-37084000D02*
X152171400Y-30403800D01*
X125984599Y-34967000D02*
X128028997Y-34967000D01*
X139342498Y-43994702D02*
X139364596Y-44016800D01*
X104880200Y-70009300D02*
X104880200Y-72411600D01*
X104807600Y-66972600D02*
X107663500Y-64116700D01*
X104880200Y-72411600D02*
X104903800Y-72435200D01*
X144832800Y-44016800D02*
X145238600Y-44016800D01*
X104807600Y-67494700D02*
X104807600Y-66972600D01*
%TO.N,VCC*%
X107238800Y-67487800D02*
X122850299Y-51876301D01*
X134926801Y-35866200D02*
X137441400Y-35866200D01*
X107254000Y-69945000D02*
X107311400Y-70002400D01*
X104815600Y-64084200D02*
X103124000Y-65775800D01*
X129144198Y-43042402D02*
X130251200Y-41935400D01*
X103124000Y-73609200D02*
X103530400Y-74015600D01*
X126862402Y-43042402D02*
X127809999Y-43042402D01*
X103530400Y-74015600D02*
X106981600Y-74015600D01*
X127809999Y-43042402D02*
X129144198Y-43042402D01*
X126644400Y-40995600D02*
X126644400Y-42824400D01*
X126009400Y-40360600D02*
X126644400Y-40995600D01*
X107254000Y-67208400D02*
X107254000Y-69945000D01*
X103124000Y-65775800D02*
X103124000Y-73609200D01*
X107443800Y-73553400D02*
X107443800Y-72435200D01*
X106981600Y-74015600D02*
X107443800Y-73553400D01*
X122850299Y-51876301D02*
X122850299Y-45045400D01*
X107311400Y-72302800D02*
X107443800Y-72435200D01*
X126644400Y-42824400D02*
X126862402Y-43042402D01*
X107311400Y-70002400D02*
X107311400Y-72302800D01*
D33*
%TO.N,Net-(D3-A)*%
X134894501Y-33593498D02*
X134926801Y-33561198D01*
D32*
X132429501Y-33593498D02*
X134894501Y-33593498D01*
%TO.N,Net-(D3-K)*%
X132155997Y-35917000D02*
X132429501Y-35643496D01*
X129903998Y-35917000D02*
X132155997Y-35917000D01*
X132429501Y-36265101D02*
X132429501Y-35643496D01*
X134035800Y-37871400D02*
X132429501Y-36265101D01*
X144856200Y-35588200D02*
X142573000Y-37871400D01*
X142573000Y-37871400D02*
X134035800Y-37871400D01*
D33*
%TO.N,Net-(D4-A)*%
X136121101Y-46044700D02*
X136044399Y-46121402D01*
X138932899Y-46044700D02*
X136121101Y-46044700D01*
D32*
%TO.N,Net-(J3-Pin_1)*%
X137441400Y-33561198D02*
X143883202Y-33561198D01*
X143883202Y-33561198D02*
X144856200Y-32588200D01*
%TO.N,Net-(J4-Pin_2)*%
X144199200Y-47650400D02*
X144832800Y-47016800D01*
X134474598Y-47650400D02*
X144199200Y-47650400D01*
X132945600Y-46121402D02*
X134474598Y-47650400D01*
%TO.N,Net-(LM1-Pad7)*%
X34585299Y-61102899D02*
X41605200Y-68122800D01*
X90093800Y-63093600D02*
X91643200Y-61544200D01*
X41605200Y-68122800D02*
X88620600Y-68122800D01*
X88646000Y-68148200D02*
X90093800Y-66700400D01*
X90093800Y-66700400D02*
X90093800Y-63093600D01*
X91643200Y-61544200D02*
X95285600Y-61544200D01*
X31107900Y-61102899D02*
X34585299Y-61102899D01*
X88620600Y-68122800D02*
X88646000Y-68148200D01*
%TO.N,Net-(Q1-D)*%
X129685000Y-43992402D02*
X132769598Y-43992402D01*
X132945600Y-43816400D02*
X136044399Y-43816400D01*
X132769598Y-43992402D02*
X132945600Y-43816400D01*
%TO.N,Net-(Q1-G)*%
X127707001Y-45045400D02*
X127809999Y-44942402D01*
X125155301Y-45045400D02*
X127707001Y-45045400D01*
X125155301Y-42494200D02*
X125180701Y-42468800D01*
X125155301Y-45045400D02*
X125155301Y-42494200D01*
%TO.N,Net-(Q2-G)*%
X123196296Y-34483699D02*
X125502698Y-36790101D01*
X125502698Y-36790101D02*
X127952098Y-36790101D01*
X127952098Y-36790101D02*
X128028997Y-36867000D01*
X122968500Y-34483699D02*
X123196296Y-34483699D01*
%TO.N,Net-(R13-Pad2)*%
X92818700Y-64201699D02*
X95268303Y-64201699D01*
D33*
X95268303Y-64201699D02*
X95335701Y-64134301D01*
X95335701Y-64134301D02*
X95285600Y-64084200D01*
D32*
%TO.N,/SIG*%
X122875699Y-36881502D02*
X122968500Y-36788701D01*
X122875699Y-42468800D02*
X122875699Y-36881502D01*
X107663500Y-61382299D02*
X107663500Y-46387500D01*
X117262299Y-36788701D02*
X122968500Y-36788701D01*
X104815600Y-61544200D02*
X107501599Y-61544200D01*
X107663500Y-46387500D02*
X117262299Y-36788701D01*
X107501599Y-61544200D02*
X107663500Y-61382299D01*
%TD*%
%TA.AperFunction,Conductor*%
%TO.N,/GLV-*%
G36*
X149310286Y-15342617D02*
G01*
X149694371Y-15359386D01*
X149705106Y-15360326D01*
X150083571Y-15410152D01*
X150094197Y-15412025D01*
X150466884Y-15494648D01*
X150477310Y-15497442D01*
X150841365Y-15612227D01*
X150851511Y-15615920D01*
X151204178Y-15762000D01*
X151213969Y-15766566D01*
X151552542Y-15942816D01*
X151561910Y-15948224D01*
X151883844Y-16153318D01*
X151892705Y-16159523D01*
X152195530Y-16391889D01*
X152203817Y-16398843D01*
X152485235Y-16656715D01*
X152492884Y-16664364D01*
X152750756Y-16945782D01*
X152757710Y-16954069D01*
X152990076Y-17256894D01*
X152996281Y-17265755D01*
X153201375Y-17587689D01*
X153206783Y-17597057D01*
X153383030Y-17935623D01*
X153387602Y-17945427D01*
X153533675Y-18298078D01*
X153537375Y-18308244D01*
X153652154Y-18672278D01*
X153654954Y-18682727D01*
X153737571Y-19055389D01*
X153739449Y-19066042D01*
X153789271Y-19444473D01*
X153790214Y-19455249D01*
X153806982Y-19839297D01*
X153807100Y-19844706D01*
X153807100Y-69839293D01*
X153806982Y-69844702D01*
X153790214Y-70228750D01*
X153789271Y-70239526D01*
X153739449Y-70617957D01*
X153737571Y-70628610D01*
X153654954Y-71001272D01*
X153652154Y-71011721D01*
X153537375Y-71375755D01*
X153533675Y-71385921D01*
X153387602Y-71738572D01*
X153383030Y-71748376D01*
X153206783Y-72086942D01*
X153201375Y-72096310D01*
X152996281Y-72418244D01*
X152990076Y-72427105D01*
X152757710Y-72729930D01*
X152750756Y-72738217D01*
X152492884Y-73019635D01*
X152485235Y-73027284D01*
X152203817Y-73285156D01*
X152195530Y-73292110D01*
X151892705Y-73524476D01*
X151883844Y-73530681D01*
X151561910Y-73735775D01*
X151552542Y-73741183D01*
X151213976Y-73917430D01*
X151204172Y-73922002D01*
X150851521Y-74068075D01*
X150841355Y-74071775D01*
X150477321Y-74186554D01*
X150466872Y-74189354D01*
X150094210Y-74271971D01*
X150083557Y-74273849D01*
X149705126Y-74323671D01*
X149694350Y-74324614D01*
X149310303Y-74341382D01*
X149304924Y-74341500D01*
X149241708Y-74341500D01*
X149241651Y-74341514D01*
X149233875Y-74341516D01*
X149233875Y-74341517D01*
X108011827Y-74351790D01*
X107944783Y-74332122D01*
X107899014Y-74279330D01*
X107889054Y-74210174D01*
X107918063Y-74146611D01*
X107924116Y-74140108D01*
X107924764Y-74139459D01*
X107924766Y-74139459D01*
X108029859Y-74034366D01*
X108112429Y-73910790D01*
X108112430Y-73910789D01*
X108160175Y-73795521D01*
X108169305Y-73773480D01*
X108169307Y-73773468D01*
X108170571Y-73769306D01*
X108208869Y-73710867D01*
X108272681Y-73682411D01*
X108275980Y-73682011D01*
X108301283Y-73679291D01*
X108436128Y-73628997D01*
X108436127Y-73628997D01*
X108436131Y-73628996D01*
X108551346Y-73542746D01*
X108637596Y-73427531D01*
X108687891Y-73292683D01*
X108694300Y-73233073D01*
X108694299Y-71637328D01*
X108687891Y-71577717D01*
X108637596Y-71442869D01*
X108637595Y-71442868D01*
X108637593Y-71442864D01*
X108551347Y-71327655D01*
X108551344Y-71327652D01*
X108436135Y-71241406D01*
X108436128Y-71241402D01*
X108364875Y-71214827D01*
X108308941Y-71172956D01*
X108284524Y-71107492D01*
X108299375Y-71039219D01*
X108320521Y-71010970D01*
X108405001Y-70926491D01*
X108501995Y-70772127D01*
X108562207Y-70600050D01*
X108577500Y-70464321D01*
X108577499Y-69707186D01*
X146907100Y-69707186D01*
X146907100Y-69976813D01*
X146937286Y-70244719D01*
X146937288Y-70244731D01*
X146997284Y-70507594D01*
X146997287Y-70507602D01*
X147086334Y-70762082D01*
X147203314Y-71004994D01*
X147207065Y-71010963D01*
X147346762Y-71233289D01*
X147514866Y-71444085D01*
X147705515Y-71634734D01*
X147916311Y-71802838D01*
X148144603Y-71946284D01*
X148387521Y-72063267D01*
X148578649Y-72130145D01*
X148641997Y-72152312D01*
X148642005Y-72152315D01*
X148642008Y-72152315D01*
X148642009Y-72152316D01*
X148904868Y-72212312D01*
X149172787Y-72242499D01*
X149172788Y-72242500D01*
X149172791Y-72242500D01*
X149442412Y-72242500D01*
X149442412Y-72242499D01*
X149710332Y-72212312D01*
X149973191Y-72152316D01*
X150227679Y-72063267D01*
X150470597Y-71946284D01*
X150698889Y-71802838D01*
X150909685Y-71634734D01*
X151100334Y-71444085D01*
X151268438Y-71233289D01*
X151411884Y-71004997D01*
X151528867Y-70762079D01*
X151617916Y-70507591D01*
X151677912Y-70244732D01*
X151708100Y-69976809D01*
X151708100Y-69707191D01*
X151677912Y-69439268D01*
X151617916Y-69176409D01*
X151528867Y-68921921D01*
X151411884Y-68679003D01*
X151268438Y-68450711D01*
X151100334Y-68239915D01*
X150909685Y-68049266D01*
X150698889Y-67881162D01*
X150470597Y-67737716D01*
X150470594Y-67737714D01*
X150227682Y-67620734D01*
X149973202Y-67531687D01*
X149973194Y-67531684D01*
X149776046Y-67486687D01*
X149710332Y-67471688D01*
X149710328Y-67471687D01*
X149710319Y-67471686D01*
X149442413Y-67441500D01*
X149442409Y-67441500D01*
X149172791Y-67441500D01*
X149172786Y-67441500D01*
X148904880Y-67471686D01*
X148904868Y-67471688D01*
X148642005Y-67531684D01*
X148641997Y-67531687D01*
X148387517Y-67620734D01*
X148144605Y-67737714D01*
X147916312Y-67881161D01*
X147705515Y-68049265D01*
X147514865Y-68239915D01*
X147346761Y-68450712D01*
X147203314Y-68679005D01*
X147086334Y-68921917D01*
X146997287Y-69176397D01*
X146997284Y-69176405D01*
X146937288Y-69439268D01*
X146937286Y-69439280D01*
X146907100Y-69707186D01*
X108577499Y-69707186D01*
X108577499Y-69540480D01*
X108562207Y-69404750D01*
X108501995Y-69232673D01*
X108405001Y-69078309D01*
X108276091Y-68949399D01*
X108276090Y-68949398D01*
X108121729Y-68852406D01*
X108121726Y-68852404D01*
X108098753Y-68844366D01*
X108041977Y-68803645D01*
X108016230Y-68738692D01*
X108029686Y-68670130D01*
X108073733Y-68622333D01*
X108203491Y-68540801D01*
X108332401Y-68411891D01*
X108429395Y-68257527D01*
X108489607Y-68085450D01*
X108504900Y-67949721D01*
X108504899Y-67340085D01*
X108524583Y-67273047D01*
X108541213Y-67252410D01*
X123326934Y-52466690D01*
X123326945Y-52466680D01*
X123436356Y-52357269D01*
X123436358Y-52357267D01*
X123518928Y-52233691D01*
X123518929Y-52233690D01*
X123518932Y-52233686D01*
X123575802Y-52096384D01*
X123575804Y-52096380D01*
X123604800Y-51950613D01*
X123604800Y-51801989D01*
X123604800Y-51796879D01*
X123604799Y-51796853D01*
X123604799Y-49919377D01*
X124950501Y-49919377D01*
X124950501Y-53547808D01*
X124950502Y-53547823D01*
X124960905Y-53680013D01*
X124960906Y-53680020D01*
X125015903Y-53898278D01*
X125015904Y-53898281D01*
X125108992Y-54103222D01*
X125108998Y-54103232D01*
X125237175Y-54288245D01*
X125237179Y-54288250D01*
X125237182Y-54288254D01*
X125396347Y-54447419D01*
X125396351Y-54447422D01*
X125396355Y-54447425D01*
X125535604Y-54543897D01*
X125581375Y-54575607D01*
X125786318Y-54668696D01*
X125786322Y-54668697D01*
X126004580Y-54723694D01*
X126004582Y-54723694D01*
X126004589Y-54723696D01*
X126136784Y-54734100D01*
X129765217Y-54734099D01*
X129897413Y-54723696D01*
X130115684Y-54668696D01*
X130320627Y-54575607D01*
X130505655Y-54447419D01*
X130664820Y-54288254D01*
X130793008Y-54103226D01*
X130886097Y-53898283D01*
X130941097Y-53680012D01*
X130951501Y-53547817D01*
X130951500Y-49919384D01*
X130941097Y-49787188D01*
X130886097Y-49568917D01*
X130793008Y-49363974D01*
X130664820Y-49178946D01*
X130505655Y-49019781D01*
X130505651Y-49019778D01*
X130505646Y-49019774D01*
X130320633Y-48891597D01*
X130320631Y-48891595D01*
X130320627Y-48891593D01*
X130115684Y-48798504D01*
X130115682Y-48798503D01*
X130115679Y-48798502D01*
X129897421Y-48743505D01*
X129897414Y-48743504D01*
X129853348Y-48740036D01*
X129765218Y-48733100D01*
X129765216Y-48733100D01*
X126136792Y-48733100D01*
X126136777Y-48733101D01*
X126004587Y-48743504D01*
X126004580Y-48743505D01*
X125786322Y-48798502D01*
X125786319Y-48798503D01*
X125581378Y-48891591D01*
X125581368Y-48891597D01*
X125396355Y-49019774D01*
X125396343Y-49019784D01*
X125237185Y-49178942D01*
X125237175Y-49178954D01*
X125108998Y-49363967D01*
X125108992Y-49363977D01*
X125015904Y-49568918D01*
X125015903Y-49568921D01*
X124960906Y-49787179D01*
X124960905Y-49787186D01*
X124950501Y-49919377D01*
X123604799Y-49919377D01*
X123604799Y-46246866D01*
X123624484Y-46179827D01*
X123662828Y-46141872D01*
X123813208Y-46047383D01*
X123813208Y-46047382D01*
X123813211Y-46047381D01*
X123915119Y-45945473D01*
X123976442Y-45911988D01*
X124046134Y-45916972D01*
X124090481Y-45945473D01*
X124192389Y-46047381D01*
X124340956Y-46140731D01*
X124506569Y-46198682D01*
X124506575Y-46198682D01*
X124506577Y-46198683D01*
X124537384Y-46202154D01*
X124637191Y-46213399D01*
X124637194Y-46213400D01*
X124637197Y-46213400D01*
X125673408Y-46213400D01*
X125673409Y-46213399D01*
X125804033Y-46198682D01*
X125969646Y-46140731D01*
X126118213Y-46047381D01*
X126242282Y-45923312D01*
X126283365Y-45857927D01*
X126335700Y-45811637D01*
X126388359Y-45799900D01*
X127626555Y-45799900D01*
X127626575Y-45799901D01*
X127632689Y-45799901D01*
X127781314Y-45799901D01*
X127827577Y-45790698D01*
X127907776Y-45774745D01*
X127927081Y-45770905D01*
X127975777Y-45750734D01*
X127979738Y-45749399D01*
X127988414Y-45749055D01*
X128019351Y-45742902D01*
X128463185Y-45742902D01*
X128463193Y-45742902D01*
X128500068Y-45740000D01*
X128500070Y-45739999D01*
X128500072Y-45739999D01*
X128541690Y-45727907D01*
X128657897Y-45694146D01*
X128799364Y-45610483D01*
X128915580Y-45494267D01*
X128999243Y-45352800D01*
X129033004Y-45236593D01*
X129045096Y-45194975D01*
X129045097Y-45194969D01*
X129047999Y-45158096D01*
X129047999Y-44916902D01*
X129067684Y-44849863D01*
X129120488Y-44804108D01*
X129171999Y-44792902D01*
X130338186Y-44792902D01*
X130338194Y-44792902D01*
X130375069Y-44790000D01*
X130375071Y-44789999D01*
X130375073Y-44789999D01*
X130506464Y-44751826D01*
X130541059Y-44746902D01*
X131859846Y-44746902D01*
X131889286Y-44755546D01*
X131919273Y-44762070D01*
X131924288Y-44765824D01*
X131926885Y-44766587D01*
X131947527Y-44783221D01*
X132045526Y-44881220D01*
X132079011Y-44942543D01*
X132074027Y-45012235D01*
X132045527Y-45056582D01*
X131943618Y-45158491D01*
X131850268Y-45307058D01*
X131850267Y-45307060D01*
X131792317Y-45472673D01*
X131792316Y-45472678D01*
X131777600Y-45603291D01*
X131777600Y-46639512D01*
X131792316Y-46770125D01*
X131792317Y-46770130D01*
X131792317Y-46770132D01*
X131792318Y-46770134D01*
X131799724Y-46791298D01*
X131850267Y-46935743D01*
X131850268Y-46935745D01*
X131850269Y-46935747D01*
X131943619Y-47084314D01*
X132067688Y-47208383D01*
X132216255Y-47301733D01*
X132381868Y-47359684D01*
X132381874Y-47359684D01*
X132381876Y-47359685D01*
X132423441Y-47364368D01*
X132512490Y-47374401D01*
X132512493Y-47374402D01*
X132512496Y-47374402D01*
X133080213Y-47374402D01*
X133147252Y-47394087D01*
X133167894Y-47410721D01*
X133884198Y-48127024D01*
X133884219Y-48127047D01*
X133993627Y-48236455D01*
X133993630Y-48236457D01*
X133993632Y-48236459D01*
X134076203Y-48291630D01*
X134117209Y-48319030D01*
X134197643Y-48352346D01*
X134254518Y-48375905D01*
X134254527Y-48375906D01*
X134254528Y-48375907D01*
X134278701Y-48380715D01*
X134278708Y-48380716D01*
X134400284Y-48404901D01*
X134400286Y-48404901D01*
X134555024Y-48404901D01*
X134555044Y-48404900D01*
X144118754Y-48404900D01*
X144118774Y-48404901D01*
X144124888Y-48404901D01*
X144273514Y-48404901D01*
X144310209Y-48397600D01*
X144395094Y-48380715D01*
X144419280Y-48375905D01*
X144476155Y-48352346D01*
X144556589Y-48319030D01*
X144602733Y-48288197D01*
X144669409Y-48267320D01*
X144671623Y-48267300D01*
X145191222Y-48267300D01*
X145385626Y-48236509D01*
X145385792Y-48236455D01*
X145572825Y-48175684D01*
X145748205Y-48086324D01*
X145907446Y-47970628D01*
X146046628Y-47831446D01*
X146162324Y-47672205D01*
X146251684Y-47496825D01*
X146312509Y-47309626D01*
X146323957Y-47237346D01*
X146343300Y-47115222D01*
X146343300Y-46918377D01*
X146312509Y-46723973D01*
X146251682Y-46536770D01*
X146162323Y-46361394D01*
X146127297Y-46313185D01*
X146046628Y-46202154D01*
X145907446Y-46062972D01*
X145748205Y-45947276D01*
X145688730Y-45916972D01*
X145572829Y-45857917D01*
X145385626Y-45797090D01*
X145191222Y-45766300D01*
X145191217Y-45766300D01*
X144474383Y-45766300D01*
X144474378Y-45766300D01*
X144279973Y-45797090D01*
X144092770Y-45857917D01*
X143917394Y-45947276D01*
X143826541Y-46013285D01*
X143758154Y-46062972D01*
X143758152Y-46062974D01*
X143758151Y-46062974D01*
X143618974Y-46202151D01*
X143618974Y-46202152D01*
X143618972Y-46202154D01*
X143604279Y-46222377D01*
X143503276Y-46361394D01*
X143413917Y-46536770D01*
X143353091Y-46723973D01*
X143342428Y-46791298D01*
X143312499Y-46854432D01*
X143253188Y-46891364D01*
X143219955Y-46895900D01*
X140162292Y-46895900D01*
X140095253Y-46876215D01*
X140049498Y-46823411D01*
X140039554Y-46754253D01*
X140056752Y-46706805D01*
X140060934Y-46700024D01*
X140067713Y-46689034D01*
X140122898Y-46522497D01*
X140133399Y-46419709D01*
X140133398Y-45669692D01*
X140129499Y-45631527D01*
X140122898Y-45566903D01*
X140122897Y-45566900D01*
X140079856Y-45437011D01*
X140075715Y-45424515D01*
X140068274Y-45402058D01*
X147402300Y-45402058D01*
X147402300Y-45631541D01*
X147420649Y-45770905D01*
X147432252Y-45859038D01*
X147449474Y-45923312D01*
X147491642Y-46080687D01*
X147579450Y-46292676D01*
X147579456Y-46292688D01*
X147677099Y-46461812D01*
X147694192Y-46491417D01*
X147833881Y-46673461D01*
X147833889Y-46673470D01*
X147996130Y-46835711D01*
X147996138Y-46835718D01*
X148178182Y-46975407D01*
X148178185Y-46975408D01*
X148178188Y-46975411D01*
X148376912Y-47090144D01*
X148376917Y-47090146D01*
X148376923Y-47090149D01*
X148437443Y-47115217D01*
X148588913Y-47177958D01*
X148810562Y-47237348D01*
X149038066Y-47267300D01*
X149038073Y-47267300D01*
X149267527Y-47267300D01*
X149267534Y-47267300D01*
X149495038Y-47237348D01*
X149716687Y-47177958D01*
X149928688Y-47090144D01*
X150127412Y-46975411D01*
X150309461Y-46835719D01*
X150309465Y-46835714D01*
X150309470Y-46835711D01*
X150471711Y-46673470D01*
X150471714Y-46673465D01*
X150471719Y-46673461D01*
X150611411Y-46491412D01*
X150726144Y-46292688D01*
X150813958Y-46080687D01*
X150873348Y-45859038D01*
X150903300Y-45631534D01*
X150903300Y-45402066D01*
X150873348Y-45174562D01*
X150813958Y-44952913D01*
X150730665Y-44751826D01*
X150726149Y-44740923D01*
X150726146Y-44740917D01*
X150726144Y-44740912D01*
X150611411Y-44542188D01*
X150611408Y-44542185D01*
X150611407Y-44542182D01*
X150471718Y-44360138D01*
X150471711Y-44360130D01*
X150309470Y-44197889D01*
X150309461Y-44197881D01*
X150127417Y-44058192D01*
X150101829Y-44043419D01*
X149940142Y-43950069D01*
X149928690Y-43943457D01*
X149928676Y-43943450D01*
X149716687Y-43855642D01*
X149713108Y-43854683D01*
X149495038Y-43796252D01*
X149457015Y-43791246D01*
X149267541Y-43766300D01*
X149267534Y-43766300D01*
X149038066Y-43766300D01*
X149038058Y-43766300D01*
X148821515Y-43794809D01*
X148810562Y-43796252D01*
X148722130Y-43819947D01*
X148588912Y-43855642D01*
X148376923Y-43943450D01*
X148376909Y-43943457D01*
X148178182Y-44058192D01*
X147996138Y-44197881D01*
X147833881Y-44360138D01*
X147694192Y-44542182D01*
X147579457Y-44740909D01*
X147579450Y-44740923D01*
X147491642Y-44952912D01*
X147469678Y-45034886D01*
X147436559Y-45158490D01*
X147432253Y-45174559D01*
X147432251Y-45174570D01*
X147402300Y-45402058D01*
X140068274Y-45402058D01*
X140067713Y-45400366D01*
X139975611Y-45251044D01*
X139851555Y-45126988D01*
X139848246Y-45124947D01*
X139846453Y-45122953D01*
X139845888Y-45122507D01*
X139845964Y-45122410D01*
X139801520Y-45073001D01*
X139790296Y-45004039D01*
X139818138Y-44939956D01*
X139848251Y-44913864D01*
X139851243Y-44912018D01*
X139975214Y-44788047D01*
X140067255Y-44638826D01*
X140067257Y-44638821D01*
X140122404Y-44472399D01*
X140122405Y-44472392D01*
X140132898Y-44369688D01*
X140132899Y-44369675D01*
X140132899Y-44244702D01*
X137732900Y-44244702D01*
X137732900Y-44369688D01*
X137743393Y-44472399D01*
X137798540Y-44638821D01*
X137798542Y-44638826D01*
X137890583Y-44788047D01*
X138014554Y-44912018D01*
X138014558Y-44912021D01*
X138017555Y-44913870D01*
X138019177Y-44915674D01*
X138020222Y-44916500D01*
X138020080Y-44916678D01*
X138064279Y-44965819D01*
X138075499Y-45034782D01*
X138047654Y-45098863D01*
X138017560Y-45124941D01*
X138014247Y-45126984D01*
X138014242Y-45126988D01*
X137890188Y-45251042D01*
X137890187Y-45251044D01*
X137815760Y-45371711D01*
X137807380Y-45385297D01*
X137755432Y-45432021D01*
X137701841Y-45444200D01*
X137275701Y-45444200D01*
X137208662Y-45424515D01*
X137162907Y-45371711D01*
X137158660Y-45361155D01*
X137139730Y-45307058D01*
X137139730Y-45307057D01*
X137046380Y-45158490D01*
X136944472Y-45056582D01*
X136910987Y-44995259D01*
X136915971Y-44925567D01*
X136944472Y-44881220D01*
X136989774Y-44835918D01*
X137046380Y-44779312D01*
X137139730Y-44630745D01*
X137197681Y-44465132D01*
X137212399Y-44334504D01*
X137212399Y-43619715D01*
X137732899Y-43619715D01*
X137732899Y-43744702D01*
X138682899Y-43744702D01*
X139182899Y-43744702D01*
X140132898Y-43744702D01*
X140132898Y-43619730D01*
X140132897Y-43619715D01*
X140122404Y-43517003D01*
X140117655Y-43502671D01*
X140117654Y-43502669D01*
X140105773Y-43466814D01*
X143322800Y-43466814D01*
X143322800Y-43766800D01*
X144388240Y-43766800D01*
X144357555Y-43819947D01*
X144322800Y-43949657D01*
X144322800Y-44083943D01*
X144357555Y-44213653D01*
X144388240Y-44266800D01*
X143322800Y-44266800D01*
X143322800Y-44566785D01*
X143333293Y-44669489D01*
X143333294Y-44669496D01*
X143388441Y-44835918D01*
X143388443Y-44835923D01*
X143480484Y-44985144D01*
X143604455Y-45109115D01*
X143753676Y-45201156D01*
X143753681Y-45201158D01*
X143920103Y-45256305D01*
X143920110Y-45256306D01*
X144022814Y-45266799D01*
X144022827Y-45266800D01*
X144582800Y-45266800D01*
X144582800Y-44461360D01*
X144635947Y-44492045D01*
X144765657Y-44526800D01*
X144899943Y-44526800D01*
X145029653Y-44492045D01*
X145082800Y-44461360D01*
X145082800Y-45266800D01*
X145642773Y-45266800D01*
X145642785Y-45266799D01*
X145745489Y-45256306D01*
X145745496Y-45256305D01*
X145911918Y-45201158D01*
X145911923Y-45201156D01*
X146061144Y-45109115D01*
X146185115Y-44985144D01*
X146277156Y-44835923D01*
X146277158Y-44835918D01*
X146332305Y-44669496D01*
X146332306Y-44669489D01*
X146342799Y-44566785D01*
X146342800Y-44566772D01*
X146342800Y-44266800D01*
X145277360Y-44266800D01*
X145308045Y-44213653D01*
X145342800Y-44083943D01*
X145342800Y-43949657D01*
X145308045Y-43819947D01*
X145277360Y-43766800D01*
X146342800Y-43766800D01*
X146342800Y-43466827D01*
X146342799Y-43466814D01*
X146332306Y-43364110D01*
X146332305Y-43364103D01*
X146277158Y-43197681D01*
X146277156Y-43197676D01*
X146185115Y-43048455D01*
X146061144Y-42924484D01*
X145911923Y-42832443D01*
X145911918Y-42832441D01*
X145745496Y-42777294D01*
X145745489Y-42777293D01*
X145642785Y-42766800D01*
X145082800Y-42766800D01*
X145082800Y-43572239D01*
X145029653Y-43541555D01*
X144899943Y-43506800D01*
X144765657Y-43506800D01*
X144635947Y-43541555D01*
X144582800Y-43572239D01*
X144582800Y-42766800D01*
X144022814Y-42766800D01*
X143920110Y-42777293D01*
X143920103Y-42777294D01*
X143753681Y-42832441D01*
X143753676Y-42832443D01*
X143604455Y-42924484D01*
X143480484Y-43048455D01*
X143388443Y-43197676D01*
X143388441Y-43197681D01*
X143333294Y-43364103D01*
X143333293Y-43364110D01*
X143322800Y-43466814D01*
X140105773Y-43466814D01*
X140067257Y-43350582D01*
X140067255Y-43350577D01*
X139975214Y-43201356D01*
X139851244Y-43077386D01*
X139702023Y-42985345D01*
X139702018Y-42985343D01*
X139535596Y-42930196D01*
X139535589Y-42930195D01*
X139432885Y-42919702D01*
X139182899Y-42919702D01*
X139182899Y-43744702D01*
X138682899Y-43744702D01*
X138682899Y-42919702D01*
X138432928Y-42919702D01*
X138432911Y-42919703D01*
X138330201Y-42930196D01*
X138163779Y-42985343D01*
X138163774Y-42985345D01*
X138014553Y-43077386D01*
X137890583Y-43201356D01*
X137798542Y-43350577D01*
X137798540Y-43350582D01*
X137743393Y-43517004D01*
X137743392Y-43517011D01*
X137732899Y-43619715D01*
X137212399Y-43619715D01*
X137212399Y-43298296D01*
X137200738Y-43194804D01*
X137197682Y-43167676D01*
X137197681Y-43167671D01*
X137197681Y-43167668D01*
X137139730Y-43002055D01*
X137046380Y-42853488D01*
X136922311Y-42729419D01*
X136773744Y-42636069D01*
X136773743Y-42636068D01*
X136773742Y-42636068D01*
X136773740Y-42636067D01*
X136674318Y-42601278D01*
X136608131Y-42578118D01*
X136608129Y-42578117D01*
X136608127Y-42578117D01*
X136608122Y-42578116D01*
X136477509Y-42563400D01*
X136477503Y-42563400D01*
X135611295Y-42563400D01*
X135611288Y-42563400D01*
X135480675Y-42578116D01*
X135480670Y-42578117D01*
X135315057Y-42636067D01*
X135315055Y-42636068D01*
X135166486Y-42729419D01*
X135042415Y-42853490D01*
X134947927Y-43003871D01*
X134895593Y-43050163D01*
X134842933Y-43061900D01*
X134147066Y-43061900D01*
X134080027Y-43042215D01*
X134042072Y-43003871D01*
X133947583Y-42853490D01*
X133823512Y-42729419D01*
X133740838Y-42677472D01*
X133674945Y-42636069D01*
X133674944Y-42636068D01*
X133674943Y-42636068D01*
X133674941Y-42636067D01*
X133575519Y-42601278D01*
X133509332Y-42578118D01*
X133509330Y-42578117D01*
X133509328Y-42578117D01*
X133509323Y-42578116D01*
X133378710Y-42563400D01*
X133378704Y-42563400D01*
X132512496Y-42563400D01*
X132512489Y-42563400D01*
X132381876Y-42578116D01*
X132381871Y-42578117D01*
X132216258Y-42636067D01*
X132216256Y-42636068D01*
X132067687Y-42729419D01*
X131943619Y-42853487D01*
X131850268Y-43002056D01*
X131850267Y-43002058D01*
X131833435Y-43050163D01*
X131796800Y-43154858D01*
X131756080Y-43211632D01*
X131691128Y-43237380D01*
X131679760Y-43237902D01*
X130541059Y-43237902D01*
X130511382Y-43234298D01*
X130508908Y-43233688D01*
X130375069Y-43194804D01*
X130339941Y-43192039D01*
X130330093Y-43189612D01*
X130308310Y-43176928D01*
X130284752Y-43167950D01*
X130278628Y-43159647D01*
X130269713Y-43154456D01*
X130258241Y-43132003D01*
X130243282Y-43111718D01*
X130242619Y-43101424D01*
X130237925Y-43092236D01*
X130240413Y-43067146D01*
X130238795Y-43041993D01*
X130243812Y-43032881D01*
X130244822Y-43022707D01*
X130259883Y-43003699D01*
X130272088Y-42981536D01*
X130576154Y-42677469D01*
X130616378Y-42650593D01*
X130630379Y-42644794D01*
X130761489Y-42557189D01*
X130872989Y-42445689D01*
X130960594Y-42314579D01*
X131020937Y-42168897D01*
X131051700Y-42014242D01*
X131051700Y-41856558D01*
X131051700Y-41856555D01*
X131051699Y-41856553D01*
X131028407Y-41739456D01*
X131020937Y-41701903D01*
X130975831Y-41593006D01*
X130960597Y-41556227D01*
X130960590Y-41556214D01*
X130872989Y-41425111D01*
X130872986Y-41425107D01*
X130761492Y-41313613D01*
X130761488Y-41313610D01*
X130630385Y-41226009D01*
X130630372Y-41226002D01*
X130484701Y-41165664D01*
X130484689Y-41165661D01*
X130330045Y-41134900D01*
X130330042Y-41134900D01*
X130172358Y-41134900D01*
X130172355Y-41134900D01*
X130017710Y-41165661D01*
X130017698Y-41165664D01*
X129872027Y-41226002D01*
X129872014Y-41226009D01*
X129740911Y-41313610D01*
X129740907Y-41313613D01*
X129629413Y-41425107D01*
X129629407Y-41425115D01*
X129541806Y-41556218D01*
X129541806Y-41556219D01*
X129536005Y-41570224D01*
X129509127Y-41610446D01*
X128867992Y-42251583D01*
X128841064Y-42266286D01*
X128815246Y-42282879D01*
X128809045Y-42283770D01*
X128806669Y-42285068D01*
X128780311Y-42287902D01*
X128666058Y-42287902D01*
X128631463Y-42282978D01*
X128500072Y-42244804D01*
X128500066Y-42244803D01*
X128463200Y-42241902D01*
X128463193Y-42241902D01*
X127522900Y-42241902D01*
X127455861Y-42222217D01*
X127410106Y-42169413D01*
X127398900Y-42117902D01*
X127398900Y-41076046D01*
X127398901Y-41076025D01*
X127398901Y-40921285D01*
X127369906Y-40775526D01*
X127369905Y-40775522D01*
X127355100Y-40739779D01*
X127355100Y-40739778D01*
X127325670Y-40668727D01*
X127313030Y-40638211D01*
X127254319Y-40550344D01*
X127230459Y-40514634D01*
X127125366Y-40409541D01*
X127125365Y-40409540D01*
X127121035Y-40405210D01*
X127121024Y-40405200D01*
X126751472Y-40035648D01*
X126724590Y-39995415D01*
X126718794Y-39981422D01*
X126718793Y-39981420D01*
X126631189Y-39850310D01*
X126519692Y-39738813D01*
X126519688Y-39738810D01*
X126388585Y-39651209D01*
X126388572Y-39651202D01*
X126242901Y-39590864D01*
X126242889Y-39590861D01*
X126088245Y-39560100D01*
X126088242Y-39560100D01*
X125930558Y-39560100D01*
X125930555Y-39560100D01*
X125775910Y-39590861D01*
X125775898Y-39590864D01*
X125630227Y-39651202D01*
X125630214Y-39651209D01*
X125499111Y-39738810D01*
X125499107Y-39738813D01*
X125387613Y-39850307D01*
X125387610Y-39850311D01*
X125300009Y-39981414D01*
X125300002Y-39981427D01*
X125239664Y-40127098D01*
X125239661Y-40127110D01*
X125208900Y-40281753D01*
X125208900Y-40439446D01*
X125239661Y-40594089D01*
X125239664Y-40594101D01*
X125300002Y-40739772D01*
X125300009Y-40739785D01*
X125387610Y-40870888D01*
X125387613Y-40870892D01*
X125499110Y-40982389D01*
X125635287Y-41073379D01*
X125633780Y-41075633D01*
X125675282Y-41116390D01*
X125690752Y-41184525D01*
X125666929Y-41250208D01*
X125611377Y-41292584D01*
X125566993Y-41300800D01*
X124662590Y-41300800D01*
X124531977Y-41315516D01*
X124531972Y-41315517D01*
X124366359Y-41373467D01*
X124366357Y-41373468D01*
X124217788Y-41466819D01*
X124115881Y-41568727D01*
X124054558Y-41602212D01*
X123984866Y-41597228D01*
X123940519Y-41568727D01*
X123838611Y-41466819D01*
X123688227Y-41372327D01*
X123641936Y-41319992D01*
X123630199Y-41267333D01*
X123630199Y-38079522D01*
X123649884Y-38012483D01*
X123692976Y-37974373D01*
X123691948Y-37972737D01*
X123697843Y-37969032D01*
X123697845Y-37969032D01*
X123846412Y-37875682D01*
X123970481Y-37751613D01*
X124063831Y-37603046D01*
X124118313Y-37447344D01*
X124159034Y-37390571D01*
X124223986Y-37364823D01*
X124292548Y-37378279D01*
X124342951Y-37426666D01*
X124352392Y-37447339D01*
X124383093Y-37535076D01*
X124407365Y-37604442D01*
X124407366Y-37604444D01*
X124407367Y-37604446D01*
X124500717Y-37753013D01*
X124624786Y-37877082D01*
X124773353Y-37970432D01*
X124938966Y-38028383D01*
X124938972Y-38028383D01*
X124938974Y-38028384D01*
X124980539Y-38033067D01*
X125069588Y-38043100D01*
X125069591Y-38043101D01*
X125069594Y-38043101D01*
X125935805Y-38043101D01*
X125935806Y-38043100D01*
X126066430Y-38028383D01*
X126232043Y-37970432D01*
X126380610Y-37877082D01*
X126504679Y-37753013D01*
X126598029Y-37604446D01*
X126598030Y-37604444D01*
X126599170Y-37602630D01*
X126651504Y-37556338D01*
X126704164Y-37544601D01*
X127021808Y-37544601D01*
X127084928Y-37561868D01*
X127181099Y-37618744D01*
X127222721Y-37630836D01*
X127338923Y-37664597D01*
X127338926Y-37664597D01*
X127338928Y-37664598D01*
X127375803Y-37667500D01*
X127375811Y-37667500D01*
X128682183Y-37667500D01*
X128682191Y-37667500D01*
X128719066Y-37664598D01*
X128719068Y-37664597D01*
X128719070Y-37664597D01*
X128760688Y-37652505D01*
X128876895Y-37618744D01*
X129018362Y-37535081D01*
X129134578Y-37418865D01*
X129218241Y-37277398D01*
X129264095Y-37119569D01*
X129266997Y-37082694D01*
X129266997Y-36841500D01*
X129286682Y-36774461D01*
X129339486Y-36728706D01*
X129390997Y-36717500D01*
X130557184Y-36717500D01*
X130557192Y-36717500D01*
X130594067Y-36714598D01*
X130594069Y-36714597D01*
X130594071Y-36714597D01*
X130725462Y-36676424D01*
X130760057Y-36671500D01*
X131695051Y-36671500D01*
X131697841Y-36671950D01*
X131699312Y-36671573D01*
X131734054Y-36677794D01*
X131775523Y-36691535D01*
X131832968Y-36731307D01*
X131839617Y-36740342D01*
X131843442Y-36746067D01*
X131843445Y-36746071D01*
X133445400Y-38348024D01*
X133445421Y-38348047D01*
X133554829Y-38457455D01*
X133554832Y-38457457D01*
X133554834Y-38457459D01*
X133637405Y-38512630D01*
X133678411Y-38540030D01*
X133758845Y-38573346D01*
X133815720Y-38596905D01*
X133815729Y-38596906D01*
X133815730Y-38596907D01*
X133839903Y-38601715D01*
X133839910Y-38601716D01*
X133961486Y-38625901D01*
X133961488Y-38625901D01*
X134116226Y-38625901D01*
X134116246Y-38625900D01*
X142492554Y-38625900D01*
X142492574Y-38625901D01*
X142498688Y-38625901D01*
X142647314Y-38625901D01*
X142684009Y-38618600D01*
X142768894Y-38601715D01*
X142793080Y-38596905D01*
X142849955Y-38573346D01*
X142930389Y-38540030D01*
X143053966Y-38457459D01*
X144560205Y-36951218D01*
X144621528Y-36917734D01*
X144647886Y-36914900D01*
X145189222Y-36914900D01*
X145383626Y-36884109D01*
X145570825Y-36823284D01*
X145746205Y-36733924D01*
X145905446Y-36618228D01*
X146044628Y-36479046D01*
X146160324Y-36319805D01*
X146249684Y-36144425D01*
X146310509Y-35957226D01*
X146321957Y-35884946D01*
X146341300Y-35762822D01*
X146341300Y-35565977D01*
X146310509Y-35371573D01*
X146270181Y-35247459D01*
X146249684Y-35184375D01*
X146249682Y-35184372D01*
X146249682Y-35184370D01*
X146190848Y-35068903D01*
X146160324Y-35008995D01*
X146044628Y-34849754D01*
X145905446Y-34710572D01*
X145746205Y-34594876D01*
X145746201Y-34594874D01*
X145570829Y-34505517D01*
X145383626Y-34444690D01*
X145189222Y-34413900D01*
X145189217Y-34413900D01*
X144472383Y-34413900D01*
X144472376Y-34413900D01*
X144365708Y-34430794D01*
X144296415Y-34421839D01*
X144242963Y-34376843D01*
X144222324Y-34310091D01*
X144241049Y-34242777D01*
X144277417Y-34205221D01*
X144364168Y-34147257D01*
X144461767Y-34049658D01*
X147400300Y-34049658D01*
X147400300Y-34279141D01*
X147418245Y-34415438D01*
X147430252Y-34506638D01*
X147472044Y-34662610D01*
X147489642Y-34728287D01*
X147577450Y-34940276D01*
X147577457Y-34940290D01*
X147642918Y-35053671D01*
X147688389Y-35132431D01*
X147692192Y-35139017D01*
X147831881Y-35321061D01*
X147831889Y-35321070D01*
X147994130Y-35483311D01*
X147994138Y-35483318D01*
X148176182Y-35623007D01*
X148176185Y-35623008D01*
X148176188Y-35623011D01*
X148374912Y-35737744D01*
X148374917Y-35737746D01*
X148374923Y-35737749D01*
X148445542Y-35767000D01*
X148586913Y-35825558D01*
X148808562Y-35884948D01*
X149036066Y-35914900D01*
X149036073Y-35914900D01*
X149265527Y-35914900D01*
X149265534Y-35914900D01*
X149493038Y-35884948D01*
X149714687Y-35825558D01*
X149926688Y-35737744D01*
X150125412Y-35623011D01*
X150307461Y-35483319D01*
X150307465Y-35483314D01*
X150307470Y-35483311D01*
X150469711Y-35321070D01*
X150469714Y-35321065D01*
X150469719Y-35321061D01*
X150609411Y-35139012D01*
X150724144Y-34940288D01*
X150811958Y-34728287D01*
X150871348Y-34506638D01*
X150901300Y-34279134D01*
X150901300Y-34049666D01*
X150871348Y-33822162D01*
X150811958Y-33600513D01*
X150761990Y-33479880D01*
X150724149Y-33388523D01*
X150724146Y-33388517D01*
X150724144Y-33388512D01*
X150609411Y-33189788D01*
X150609408Y-33189785D01*
X150609407Y-33189782D01*
X150469718Y-33007738D01*
X150469711Y-33007730D01*
X150307470Y-32845489D01*
X150307461Y-32845481D01*
X150125417Y-32705792D01*
X149926690Y-32591057D01*
X149926676Y-32591050D01*
X149714687Y-32503242D01*
X149493038Y-32443852D01*
X149455015Y-32438846D01*
X149265541Y-32413900D01*
X149265534Y-32413900D01*
X149036066Y-32413900D01*
X149036058Y-32413900D01*
X148819515Y-32442409D01*
X148808562Y-32443852D01*
X148714876Y-32468954D01*
X148586912Y-32503242D01*
X148374923Y-32591050D01*
X148374909Y-32591057D01*
X148176182Y-32705792D01*
X147994138Y-32845481D01*
X147831881Y-33007738D01*
X147692192Y-33189782D01*
X147577457Y-33388509D01*
X147577450Y-33388523D01*
X147489642Y-33600512D01*
X147430253Y-33822159D01*
X147430251Y-33822170D01*
X147400300Y-34049658D01*
X144461767Y-34049658D01*
X144560206Y-33951219D01*
X144621529Y-33917734D01*
X144647887Y-33914900D01*
X145640803Y-33914900D01*
X145640808Y-33914900D01*
X145743597Y-33904399D01*
X145910134Y-33849214D01*
X146059455Y-33757111D01*
X146183511Y-33633055D01*
X146275614Y-33483734D01*
X146330799Y-33317197D01*
X146341300Y-33214408D01*
X146341300Y-32114392D01*
X146330799Y-32011603D01*
X146275614Y-31845066D01*
X146183511Y-31695745D01*
X146059455Y-31571689D01*
X146059451Y-31571686D01*
X145910137Y-31479587D01*
X145910135Y-31479586D01*
X145826865Y-31451993D01*
X145743597Y-31424401D01*
X145743595Y-31424400D01*
X145640815Y-31413900D01*
X145640808Y-31413900D01*
X144020792Y-31413900D01*
X144020784Y-31413900D01*
X143918004Y-31424400D01*
X143918003Y-31424401D01*
X143751464Y-31479586D01*
X143751462Y-31479587D01*
X143602148Y-31571686D01*
X143602144Y-31571689D01*
X143478089Y-31695744D01*
X143478086Y-31695748D01*
X143385987Y-31845062D01*
X143385986Y-31845064D01*
X143330801Y-32011603D01*
X143330800Y-32011604D01*
X143320300Y-32114384D01*
X143320300Y-32682698D01*
X143300615Y-32749737D01*
X143247811Y-32795492D01*
X143196300Y-32806698D01*
X138642866Y-32806698D01*
X138575827Y-32787013D01*
X138537872Y-32748669D01*
X138443383Y-32598288D01*
X138319312Y-32474217D01*
X138170745Y-32380867D01*
X138170744Y-32380866D01*
X138170743Y-32380866D01*
X138170741Y-32380865D01*
X138071319Y-32346076D01*
X138005132Y-32322916D01*
X138005130Y-32322915D01*
X138005128Y-32322915D01*
X138005123Y-32322914D01*
X137874510Y-32308198D01*
X137874504Y-32308198D01*
X137008296Y-32308198D01*
X137008289Y-32308198D01*
X136877676Y-32322914D01*
X136877671Y-32322915D01*
X136712058Y-32380865D01*
X136712056Y-32380866D01*
X136563487Y-32474217D01*
X136439419Y-32598285D01*
X136346068Y-32746854D01*
X136346064Y-32746861D01*
X136301141Y-32875246D01*
X136260420Y-32932022D01*
X136195467Y-32957769D01*
X136126905Y-32944313D01*
X136076503Y-32895925D01*
X136067060Y-32875251D01*
X136022132Y-32746853D01*
X135928782Y-32598286D01*
X135804713Y-32474217D01*
X135656146Y-32380867D01*
X135656145Y-32380866D01*
X135656144Y-32380866D01*
X135656142Y-32380865D01*
X135556720Y-32346076D01*
X135490533Y-32322916D01*
X135490531Y-32322915D01*
X135490529Y-32322915D01*
X135490524Y-32322914D01*
X135359911Y-32308198D01*
X135359905Y-32308198D01*
X134493697Y-32308198D01*
X134493690Y-32308198D01*
X134363077Y-32322914D01*
X134363072Y-32322915D01*
X134197459Y-32380865D01*
X134197457Y-32380866D01*
X134048888Y-32474217D01*
X133924820Y-32598285D01*
X133831468Y-32746856D01*
X133828285Y-32755953D01*
X133814666Y-32774940D01*
X133804957Y-32796201D01*
X133794680Y-32802804D01*
X133787563Y-32812729D01*
X133765839Y-32821340D01*
X133746179Y-32833975D01*
X133727012Y-32836730D01*
X133722610Y-32838476D01*
X133711244Y-32838998D01*
X133562731Y-32838998D01*
X133495692Y-32819313D01*
X133475050Y-32802679D01*
X133348158Y-32675787D01*
X133348157Y-32675786D01*
X133210787Y-32591056D01*
X133198837Y-32583685D01*
X133198832Y-32583683D01*
X133197363Y-32583196D01*
X133032298Y-32528499D01*
X133032296Y-32528498D01*
X132929511Y-32517998D01*
X131929499Y-32517998D01*
X131929481Y-32517999D01*
X131826704Y-32528498D01*
X131826701Y-32528499D01*
X131660169Y-32583683D01*
X131660164Y-32583685D01*
X131510843Y-32675787D01*
X131386790Y-32799840D01*
X131294688Y-32949161D01*
X131294686Y-32949166D01*
X131275280Y-33007730D01*
X131239502Y-33115701D01*
X131239502Y-33115702D01*
X131239501Y-33115702D01*
X131229001Y-33218481D01*
X131229001Y-33968499D01*
X131229002Y-33968517D01*
X131239501Y-34071294D01*
X131239502Y-34071297D01*
X131294686Y-34237829D01*
X131294688Y-34237834D01*
X131329570Y-34294386D01*
X131383997Y-34382628D01*
X131386790Y-34387155D01*
X131510844Y-34511209D01*
X131510847Y-34511211D01*
X131513683Y-34512961D01*
X131515218Y-34514667D01*
X131516512Y-34515691D01*
X131516337Y-34515912D01*
X131560405Y-34564910D01*
X131571625Y-34633873D01*
X131543779Y-34697955D01*
X131513683Y-34724033D01*
X131510847Y-34725782D01*
X131510844Y-34725784D01*
X131386790Y-34849838D01*
X131294688Y-34999159D01*
X131294687Y-34999162D01*
X131276625Y-35053671D01*
X131268727Y-35077505D01*
X131228954Y-35134949D01*
X131164438Y-35161772D01*
X131151021Y-35162500D01*
X130760057Y-35162500D01*
X130725462Y-35157576D01*
X130594071Y-35119402D01*
X130594065Y-35119401D01*
X130557199Y-35116500D01*
X130557192Y-35116500D01*
X129250804Y-35116500D01*
X129250796Y-35116500D01*
X129213930Y-35119401D01*
X129213924Y-35119402D01*
X129056104Y-35165254D01*
X129056101Y-35165255D01*
X128997804Y-35199732D01*
X128934683Y-35217000D01*
X128278997Y-35217000D01*
X128278997Y-35767000D01*
X128541998Y-35767000D01*
X128550683Y-35769550D01*
X128559645Y-35768262D01*
X128583685Y-35779240D01*
X128609037Y-35786685D01*
X128614964Y-35793525D01*
X128623201Y-35797287D01*
X128637490Y-35819521D01*
X128654792Y-35839489D01*
X128657079Y-35850003D01*
X128660975Y-35856065D01*
X128665998Y-35891000D01*
X128665998Y-35942500D01*
X128646313Y-36009539D01*
X128593509Y-36055294D01*
X128541998Y-36066500D01*
X128193962Y-36066500D01*
X128169770Y-36064117D01*
X128147992Y-36059785D01*
X128026412Y-36035600D01*
X128026410Y-36035600D01*
X127877786Y-36035600D01*
X127871672Y-36035600D01*
X127871652Y-36035601D01*
X126704164Y-36035601D01*
X126637125Y-36015916D01*
X126599170Y-35977572D01*
X126504681Y-35827191D01*
X126402417Y-35724927D01*
X126368932Y-35663604D01*
X126373916Y-35593912D01*
X126402417Y-35549565D01*
X126504284Y-35447697D01*
X126601016Y-35293750D01*
X126653351Y-35247459D01*
X126722404Y-35236811D01*
X126786253Y-35265186D01*
X126824625Y-35323575D01*
X126825086Y-35325126D01*
X126840213Y-35377195D01*
X126840214Y-35377196D01*
X126923811Y-35518552D01*
X126923818Y-35518561D01*
X127039935Y-35634678D01*
X127039944Y-35634685D01*
X127181300Y-35718282D01*
X127181303Y-35718283D01*
X127339001Y-35764099D01*
X127339007Y-35764100D01*
X127375847Y-35766999D01*
X127375863Y-35767000D01*
X127778997Y-35767000D01*
X127778997Y-34717000D01*
X128278997Y-34717000D01*
X129263792Y-34717000D01*
X129263792Y-34716998D01*
X129263597Y-34714513D01*
X129217778Y-34556801D01*
X129134182Y-34415447D01*
X129134175Y-34415438D01*
X129018058Y-34299321D01*
X129018049Y-34299314D01*
X128876693Y-34215717D01*
X128876690Y-34215716D01*
X128718992Y-34169900D01*
X128718986Y-34169899D01*
X128682146Y-34167000D01*
X128278997Y-34167000D01*
X128278997Y-34717000D01*
X127778997Y-34717000D01*
X127778997Y-34167000D01*
X127375847Y-34167000D01*
X127339007Y-34169899D01*
X127339001Y-34169900D01*
X127181303Y-34215716D01*
X127181300Y-34215717D01*
X127039944Y-34299314D01*
X127039935Y-34299321D01*
X126923818Y-34415438D01*
X126923811Y-34415447D01*
X126840214Y-34556803D01*
X126840213Y-34556806D01*
X126814389Y-34645694D01*
X126776783Y-34704580D01*
X126713311Y-34733786D01*
X126695313Y-34735099D01*
X125626698Y-34735099D01*
X125559659Y-34715414D01*
X125513904Y-34662610D01*
X125502698Y-34611099D01*
X125502698Y-34485099D01*
X125376698Y-34485099D01*
X125309659Y-34465414D01*
X125263904Y-34412610D01*
X125252698Y-34361099D01*
X125252698Y-34235099D01*
X125752698Y-34235099D01*
X126670198Y-34235099D01*
X126670198Y-33967019D01*
X126670197Y-33967018D01*
X126655490Y-33836481D01*
X126597574Y-33670967D01*
X126597572Y-33670964D01*
X126504289Y-33522506D01*
X126504284Y-33522500D01*
X126380296Y-33398512D01*
X126380290Y-33398507D01*
X126231832Y-33305224D01*
X126231829Y-33305222D01*
X126066315Y-33247306D01*
X125935778Y-33232599D01*
X125752698Y-33232599D01*
X125752698Y-34235099D01*
X125252698Y-34235099D01*
X125252698Y-33232599D01*
X125069618Y-33232599D01*
X124939080Y-33247306D01*
X124773566Y-33305222D01*
X124773563Y-33305224D01*
X124625105Y-33398507D01*
X124625099Y-33398512D01*
X124501111Y-33522500D01*
X124501106Y-33522506D01*
X124407823Y-33670964D01*
X124407818Y-33670975D01*
X124353149Y-33827209D01*
X124312428Y-33883985D01*
X124247475Y-33909732D01*
X124178913Y-33896276D01*
X124128510Y-33847888D01*
X124119070Y-33827217D01*
X124063831Y-33669354D01*
X123970481Y-33520787D01*
X123846412Y-33396718D01*
X123697845Y-33303368D01*
X123697844Y-33303367D01*
X123697843Y-33303367D01*
X123697841Y-33303366D01*
X123598419Y-33268577D01*
X123532232Y-33245417D01*
X123532230Y-33245416D01*
X123532228Y-33245416D01*
X123532223Y-33245415D01*
X123401610Y-33230699D01*
X123401604Y-33230699D01*
X122535396Y-33230699D01*
X122535389Y-33230699D01*
X122404776Y-33245415D01*
X122404771Y-33245416D01*
X122239158Y-33303366D01*
X122239156Y-33303367D01*
X122090587Y-33396718D01*
X121966519Y-33520786D01*
X121873168Y-33669355D01*
X121873167Y-33669357D01*
X121815217Y-33834970D01*
X121815216Y-33834975D01*
X121800500Y-33965588D01*
X121800500Y-35001809D01*
X121815216Y-35132421D01*
X121815217Y-35132427D01*
X121815217Y-35132429D01*
X121815218Y-35132431D01*
X121826704Y-35165255D01*
X121873167Y-35298040D01*
X121873168Y-35298042D01*
X121873169Y-35298044D01*
X121922903Y-35377196D01*
X121966519Y-35446611D01*
X122068427Y-35548519D01*
X122101912Y-35609842D01*
X122096928Y-35679534D01*
X122068427Y-35723881D01*
X121966519Y-35825788D01*
X121966516Y-35825791D01*
X121872028Y-35976172D01*
X121819694Y-36022464D01*
X121767034Y-36034201D01*
X117342745Y-36034201D01*
X117342725Y-36034200D01*
X117336611Y-36034200D01*
X117187987Y-36034200D01*
X117187986Y-36034200D01*
X117085794Y-36054528D01*
X117085791Y-36054528D01*
X117078677Y-36055944D01*
X117042219Y-36063196D01*
X116986490Y-36086280D01*
X116981938Y-36088165D01*
X116981927Y-36088169D01*
X116904915Y-36120068D01*
X116904910Y-36120071D01*
X116879456Y-36137079D01*
X116781332Y-36202642D01*
X116728786Y-36255188D01*
X116676240Y-36307735D01*
X116676238Y-36307737D01*
X107077443Y-45906530D01*
X107077442Y-45906531D01*
X106994872Y-46030107D01*
X106994866Y-46030118D01*
X106937996Y-46167416D01*
X106937993Y-46167426D01*
X106908999Y-46313185D01*
X106908999Y-46467925D01*
X106909000Y-46467946D01*
X106909000Y-60149240D01*
X106889315Y-60216279D01*
X106850973Y-60254233D01*
X106785589Y-60295316D01*
X106661519Y-60419386D01*
X106568168Y-60567955D01*
X106568164Y-60567962D01*
X106522324Y-60698968D01*
X106481603Y-60755744D01*
X106416650Y-60781491D01*
X106348088Y-60768035D01*
X106297686Y-60719647D01*
X106287579Y-60697021D01*
X106250414Y-60584865D01*
X106158312Y-60435544D01*
X106034256Y-60311488D01*
X105884935Y-60219386D01*
X105718398Y-60164201D01*
X105718396Y-60164200D01*
X105615617Y-60153700D01*
X105615610Y-60153700D01*
X104015590Y-60153700D01*
X104015582Y-60153700D01*
X103912803Y-60164200D01*
X103912802Y-60164201D01*
X103830269Y-60191549D01*
X103746267Y-60219385D01*
X103746262Y-60219387D01*
X103596942Y-60311489D01*
X103472889Y-60435542D01*
X103380787Y-60584862D01*
X103380786Y-60584865D01*
X103325601Y-60751402D01*
X103325601Y-60751403D01*
X103325600Y-60751403D01*
X103315100Y-60854182D01*
X103315100Y-62234217D01*
X103325600Y-62336996D01*
X103380785Y-62503532D01*
X103380787Y-62503537D01*
X103472889Y-62652857D01*
X103546551Y-62726519D01*
X103580036Y-62787842D01*
X103575052Y-62857534D01*
X103546551Y-62901881D01*
X103472889Y-62975542D01*
X103380787Y-63124862D01*
X103380785Y-63124867D01*
X103366088Y-63169220D01*
X103325601Y-63291402D01*
X103325601Y-63291403D01*
X103325600Y-63291403D01*
X103315100Y-63394182D01*
X103315100Y-64466312D01*
X103295415Y-64533351D01*
X103278781Y-64553993D01*
X102711060Y-65121714D01*
X102649737Y-65155199D01*
X102580045Y-65150215D01*
X102524112Y-65108343D01*
X102499695Y-65042879D01*
X102499379Y-65033942D01*
X102503670Y-59966261D01*
X102506332Y-59946117D01*
X102505839Y-59946053D01*
X102506900Y-59937994D01*
X102506900Y-56152277D01*
X102510588Y-51796853D01*
X102531653Y-26919403D01*
X124951001Y-26919403D01*
X124951001Y-30547782D01*
X124951002Y-30547797D01*
X124961401Y-30679932D01*
X125016378Y-30898119D01*
X125109429Y-31102974D01*
X125109431Y-31102978D01*
X125157985Y-31173062D01*
X127088427Y-29242621D01*
X127174250Y-29371063D01*
X127313538Y-29510351D01*
X127441979Y-29596173D01*
X125511536Y-31526615D01*
X125581622Y-31575169D01*
X125581626Y-31575171D01*
X125786481Y-31668222D01*
X126004668Y-31723199D01*
X126136810Y-31733599D01*
X129765183Y-31733599D01*
X129765198Y-31733598D01*
X129897333Y-31723199D01*
X130115520Y-31668222D01*
X130320376Y-31575171D01*
X130320380Y-31575169D01*
X130390464Y-31526614D01*
X128460022Y-29596173D01*
X128588464Y-29510351D01*
X128727752Y-29371063D01*
X128813573Y-29242621D01*
X130744015Y-31173063D01*
X130792570Y-31102979D01*
X130792572Y-31102975D01*
X130885623Y-30898119D01*
X130940600Y-30679932D01*
X130951000Y-30547796D01*
X130951000Y-26919417D01*
X130950999Y-26919402D01*
X130940600Y-26787267D01*
X130885623Y-26569080D01*
X130792572Y-26364225D01*
X130792570Y-26364221D01*
X130744016Y-26294135D01*
X128813573Y-28224577D01*
X128727752Y-28096137D01*
X128588464Y-27956849D01*
X128460022Y-27871026D01*
X130390463Y-25940584D01*
X130390463Y-25940583D01*
X130320379Y-25892030D01*
X130320375Y-25892028D01*
X130115520Y-25798977D01*
X129897333Y-25744000D01*
X129765191Y-25733600D01*
X126136818Y-25733600D01*
X126136803Y-25733601D01*
X126004668Y-25744000D01*
X125786484Y-25798977D01*
X125581624Y-25892029D01*
X125511537Y-25940584D01*
X127441979Y-27871026D01*
X127313538Y-27956849D01*
X127174250Y-28096137D01*
X127088427Y-28224578D01*
X125157985Y-26294136D01*
X125109430Y-26364223D01*
X125016378Y-26569083D01*
X124961401Y-26787267D01*
X124951001Y-26919403D01*
X102531653Y-26919403D01*
X102537760Y-19707186D01*
X146907100Y-19707186D01*
X146907100Y-19976813D01*
X146937286Y-20244719D01*
X146937288Y-20244731D01*
X146997284Y-20507594D01*
X146997287Y-20507602D01*
X147086334Y-20762082D01*
X147203314Y-21004994D01*
X147203316Y-21004997D01*
X147346762Y-21233289D01*
X147514866Y-21444085D01*
X147705515Y-21634734D01*
X147916311Y-21802838D01*
X148144603Y-21946284D01*
X148387521Y-22063267D01*
X148578649Y-22130145D01*
X148641997Y-22152312D01*
X148642005Y-22152315D01*
X148642008Y-22152315D01*
X148642009Y-22152316D01*
X148904868Y-22212312D01*
X149172787Y-22242499D01*
X149172788Y-22242500D01*
X149172791Y-22242500D01*
X149442412Y-22242500D01*
X149442412Y-22242499D01*
X149710332Y-22212312D01*
X149973191Y-22152316D01*
X150227679Y-22063267D01*
X150470597Y-21946284D01*
X150698889Y-21802838D01*
X150909685Y-21634734D01*
X151100334Y-21444085D01*
X151268438Y-21233289D01*
X151411884Y-21004997D01*
X151528867Y-20762079D01*
X151617916Y-20507591D01*
X151677912Y-20244732D01*
X151708100Y-19976809D01*
X151708100Y-19707191D01*
X151677912Y-19439268D01*
X151617916Y-19176409D01*
X151528867Y-18921921D01*
X151411884Y-18679003D01*
X151268438Y-18450711D01*
X151100334Y-18239915D01*
X150909685Y-18049266D01*
X150698889Y-17881162D01*
X150470597Y-17737716D01*
X150470594Y-17737714D01*
X150227682Y-17620734D01*
X149973202Y-17531687D01*
X149973194Y-17531684D01*
X149776046Y-17486687D01*
X149710332Y-17471688D01*
X149710328Y-17471687D01*
X149710319Y-17471686D01*
X149442413Y-17441500D01*
X149442409Y-17441500D01*
X149172791Y-17441500D01*
X149172786Y-17441500D01*
X148904880Y-17471686D01*
X148904868Y-17471688D01*
X148642005Y-17531684D01*
X148641997Y-17531687D01*
X148387517Y-17620734D01*
X148144605Y-17737714D01*
X147916312Y-17881161D01*
X147705515Y-18049265D01*
X147514865Y-18239915D01*
X147346761Y-18450712D01*
X147203314Y-18679005D01*
X147086334Y-18921917D01*
X146997287Y-19176397D01*
X146997284Y-19176405D01*
X146937288Y-19439268D01*
X146937286Y-19439280D01*
X146907100Y-19707186D01*
X102537760Y-19707186D01*
X102541336Y-15483155D01*
X102561077Y-15416134D01*
X102613920Y-15370424D01*
X102665286Y-15359263D01*
X149304898Y-15342500D01*
X149310286Y-15342617D01*
G37*
%TD.AperFunction*%
%TA.AperFunction,Conductor*%
G36*
X104046230Y-71141197D02*
G01*
X104168072Y-71187116D01*
X104194834Y-71207293D01*
X104222072Y-71226829D01*
X104222637Y-71228254D01*
X104223862Y-71229178D01*
X104235470Y-71260628D01*
X104247820Y-71291781D01*
X104247524Y-71293285D01*
X104248056Y-71294725D01*
X104240816Y-71327465D01*
X104234364Y-71360343D01*
X104233264Y-71361619D01*
X104232971Y-71362947D01*
X104227100Y-71368777D01*
X104214292Y-71383650D01*
X104213672Y-71391520D01*
X104847875Y-72025721D01*
X104745546Y-72053141D01*
X104652054Y-72107118D01*
X104575718Y-72183454D01*
X104521741Y-72276946D01*
X104494321Y-72379274D01*
X103914819Y-71799772D01*
X103881334Y-71738449D01*
X103878500Y-71712091D01*
X103878500Y-71257230D01*
X103898185Y-71190191D01*
X103950989Y-71144436D01*
X104020147Y-71134492D01*
X104046230Y-71141197D01*
G37*
%TD.AperFunction*%
%TA.AperFunction,Conductor*%
G36*
X106176403Y-70871438D02*
G01*
X106201155Y-70900003D01*
X106217798Y-70926490D01*
X106346709Y-71055401D01*
X106385870Y-71080008D01*
X106432161Y-71132343D01*
X106442809Y-71201397D01*
X106414434Y-71265245D01*
X106394210Y-71284268D01*
X106336252Y-71327655D01*
X106250006Y-71442864D01*
X106250002Y-71442871D01*
X106199708Y-71577717D01*
X106193579Y-71634734D01*
X106193301Y-71637323D01*
X106193300Y-71637335D01*
X106193300Y-71701784D01*
X106173615Y-71768823D01*
X106120811Y-71814578D01*
X106051653Y-71824522D01*
X105988097Y-71795497D01*
X105968982Y-71774669D01*
X105947479Y-71745073D01*
X105947477Y-71745073D01*
X105313277Y-72379273D01*
X105285859Y-72276946D01*
X105231882Y-72183454D01*
X105155546Y-72107118D01*
X105062054Y-72053141D01*
X104959725Y-72025721D01*
X105593925Y-71391520D01*
X105593870Y-71390818D01*
X105552362Y-71336991D01*
X105546382Y-71267378D01*
X105578988Y-71205583D01*
X105626960Y-71174960D01*
X105691956Y-71152217D01*
X105691960Y-71152215D01*
X105845671Y-71055633D01*
X105974036Y-70927268D01*
X105991167Y-70900004D01*
X106043501Y-70853712D01*
X106112554Y-70843063D01*
X106176403Y-70871438D01*
G37*
%TD.AperFunction*%
%TA.AperFunction,Conductor*%
G36*
X121776330Y-37545930D02*
G01*
X121785933Y-37544650D01*
X121809304Y-37555613D01*
X121834073Y-37562886D01*
X121842102Y-37570997D01*
X121849189Y-37574322D01*
X121872028Y-37601230D01*
X121966516Y-37751610D01*
X122084880Y-37869974D01*
X122118365Y-37931297D01*
X122121199Y-37957655D01*
X122121199Y-41267333D01*
X122101514Y-41334372D01*
X122063171Y-41372327D01*
X121912786Y-41466819D01*
X121788718Y-41590887D01*
X121695367Y-41739456D01*
X121695366Y-41739458D01*
X121637416Y-41905071D01*
X121637415Y-41905076D01*
X121622699Y-42035689D01*
X121622699Y-42901910D01*
X121637415Y-43032523D01*
X121637416Y-43032528D01*
X121637416Y-43032530D01*
X121637417Y-43032532D01*
X121649529Y-43067146D01*
X121695366Y-43198141D01*
X121695367Y-43198143D01*
X121695368Y-43198145D01*
X121788718Y-43346712D01*
X121912787Y-43470781D01*
X122061354Y-43564131D01*
X122226967Y-43622082D01*
X122226972Y-43622082D01*
X122226974Y-43622083D01*
X122318974Y-43632449D01*
X122383388Y-43659515D01*
X122422943Y-43717110D01*
X122425081Y-43786947D01*
X122389123Y-43846853D01*
X122326485Y-43877809D01*
X122318974Y-43878889D01*
X122201575Y-43892116D01*
X122201570Y-43892117D01*
X122035957Y-43950067D01*
X122035955Y-43950068D01*
X121887386Y-44043419D01*
X121763318Y-44167487D01*
X121669967Y-44316056D01*
X121669966Y-44316058D01*
X121612016Y-44481671D01*
X121612015Y-44481676D01*
X121597299Y-44612289D01*
X121597299Y-45478510D01*
X121612015Y-45609123D01*
X121612016Y-45609128D01*
X121612016Y-45609130D01*
X121612017Y-45609132D01*
X121633204Y-45669680D01*
X121669966Y-45774741D01*
X121669967Y-45774743D01*
X121669968Y-45774745D01*
X121693149Y-45811637D01*
X121763318Y-45923312D01*
X121887389Y-46047383D01*
X122037770Y-46141872D01*
X122084062Y-46194206D01*
X122095799Y-46246866D01*
X122095799Y-51512413D01*
X122076114Y-51579452D01*
X122059480Y-51600094D01*
X108860702Y-64798871D01*
X107433592Y-66225981D01*
X107372269Y-66259466D01*
X107345911Y-66262300D01*
X106736277Y-66262300D01*
X106736273Y-66262301D01*
X106600552Y-66277592D01*
X106428471Y-66337805D01*
X106274109Y-66434798D01*
X106145197Y-66563710D01*
X106145196Y-66563712D01*
X106124218Y-66597098D01*
X106071883Y-66643389D01*
X106002829Y-66654036D01*
X105938981Y-66625660D01*
X105914230Y-66597095D01*
X105901433Y-66576728D01*
X105773071Y-66448366D01*
X105619360Y-66351784D01*
X105619358Y-66351783D01*
X105448010Y-66291826D01*
X105312869Y-66276600D01*
X105057600Y-66276600D01*
X105057600Y-68661200D01*
X105093881Y-68697481D01*
X105127366Y-68758804D01*
X105130200Y-68785162D01*
X105130200Y-69885300D01*
X105110515Y-69952339D01*
X105057711Y-69998094D01*
X105006200Y-70009300D01*
X104754200Y-70009300D01*
X104687161Y-69989615D01*
X104641406Y-69936811D01*
X104630200Y-69885300D01*
X104630200Y-68842800D01*
X104593919Y-68806519D01*
X104560434Y-68745196D01*
X104557600Y-68718838D01*
X104557600Y-66276600D01*
X104302335Y-66276600D01*
X104302329Y-66276601D01*
X104167189Y-66291826D01*
X104167176Y-66291829D01*
X104043455Y-66335122D01*
X104014026Y-66336624D01*
X103984853Y-66340819D01*
X103979524Y-66338385D01*
X103973676Y-66338684D01*
X103948106Y-66324037D01*
X103921297Y-66311794D01*
X103918130Y-66306866D01*
X103913049Y-66303956D01*
X103899456Y-66277808D01*
X103883523Y-66253016D01*
X103882359Y-66244920D01*
X103880821Y-66241962D01*
X103878500Y-66218081D01*
X103878500Y-66139686D01*
X103898185Y-66072647D01*
X103914819Y-66052005D01*
X104455806Y-65511019D01*
X104517129Y-65477534D01*
X104543487Y-65474700D01*
X105615605Y-65474700D01*
X105615610Y-65474700D01*
X105718398Y-65464199D01*
X105884935Y-65409014D01*
X106034256Y-65316912D01*
X106158312Y-65192856D01*
X106250414Y-65043535D01*
X106305599Y-64876998D01*
X106316100Y-64774210D01*
X106316100Y-64509573D01*
X106335785Y-64442534D01*
X106388589Y-64396779D01*
X106457747Y-64386835D01*
X106521303Y-64415860D01*
X106557142Y-64468619D01*
X106568622Y-64501430D01*
X106568625Y-64501435D01*
X106661908Y-64649893D01*
X106661913Y-64649899D01*
X106785901Y-64773887D01*
X106785907Y-64773892D01*
X106934365Y-64867175D01*
X106934368Y-64867177D01*
X107099882Y-64925093D01*
X107230419Y-64939800D01*
X107230420Y-64939801D01*
X107413500Y-64939801D01*
X107913500Y-64939801D01*
X108096580Y-64939801D01*
X108096580Y-64939800D01*
X108227117Y-64925093D01*
X108392630Y-64867177D01*
X108524587Y-64784261D01*
X108675460Y-64633388D01*
X108758376Y-64501431D01*
X108816292Y-64335918D01*
X108830999Y-64205381D01*
X108831000Y-64205381D01*
X108831000Y-63937301D01*
X107913500Y-63937301D01*
X107913500Y-64939801D01*
X107413500Y-64939801D01*
X107413500Y-63811301D01*
X107433185Y-63744262D01*
X107485989Y-63698507D01*
X107537500Y-63687301D01*
X107663500Y-63687301D01*
X107663500Y-63561301D01*
X107683185Y-63494262D01*
X107735989Y-63448507D01*
X107787500Y-63437301D01*
X108831000Y-63437301D01*
X108831000Y-63169221D01*
X108830999Y-63169220D01*
X108816292Y-63038683D01*
X108758376Y-62873169D01*
X108758374Y-62873166D01*
X108665091Y-62724708D01*
X108665086Y-62724702D01*
X108563219Y-62622835D01*
X108529734Y-62561512D01*
X108534718Y-62491820D01*
X108563219Y-62447473D01*
X108665481Y-62345211D01*
X108758831Y-62196644D01*
X108816782Y-62031031D01*
X108831500Y-61900403D01*
X108831500Y-60864195D01*
X108818792Y-60751403D01*
X108816783Y-60733575D01*
X108816782Y-60733570D01*
X108816782Y-60733567D01*
X108758831Y-60567954D01*
X108665481Y-60419387D01*
X108541412Y-60295318D01*
X108541410Y-60295316D01*
X108476027Y-60254233D01*
X108429736Y-60201898D01*
X108418000Y-60149240D01*
X108418000Y-46751386D01*
X108437685Y-46684347D01*
X108454319Y-46663705D01*
X117538504Y-37579520D01*
X117599827Y-37546035D01*
X117626185Y-37543201D01*
X121767034Y-37543201D01*
X121776330Y-37545930D01*
G37*
%TD.AperFunction*%
%TA.AperFunction,Conductor*%
G36*
X143802776Y-34315699D02*
G01*
X143946814Y-34315699D01*
X144013853Y-34335384D01*
X144059608Y-34388188D01*
X144069552Y-34457346D01*
X144040527Y-34520902D01*
X144003108Y-34550184D01*
X143915396Y-34594874D01*
X143811494Y-34670365D01*
X143756154Y-34710572D01*
X143756152Y-34710574D01*
X143756151Y-34710574D01*
X143616974Y-34849751D01*
X143616974Y-34849752D01*
X143616972Y-34849754D01*
X143616910Y-34849840D01*
X143501276Y-35008994D01*
X143411917Y-35184370D01*
X143351090Y-35371573D01*
X143320300Y-35565977D01*
X143320300Y-35762822D01*
X143350649Y-35954437D01*
X143341694Y-36023730D01*
X143315857Y-36061516D01*
X142296794Y-37080581D01*
X142235471Y-37114066D01*
X142209113Y-37116900D01*
X138454955Y-37116900D01*
X138387916Y-37097215D01*
X138342161Y-37044411D01*
X138332217Y-36975253D01*
X138361242Y-36911697D01*
X138367274Y-36905219D01*
X138388384Y-36884109D01*
X138443381Y-36829112D01*
X138536731Y-36680545D01*
X138594682Y-36514932D01*
X138609400Y-36384304D01*
X138609400Y-35348096D01*
X138594682Y-35217468D01*
X138536731Y-35051855D01*
X138443381Y-34903288D01*
X138341473Y-34801380D01*
X138307988Y-34740057D01*
X138312972Y-34670365D01*
X138341473Y-34626018D01*
X138372617Y-34594874D01*
X138443381Y-34524110D01*
X138536731Y-34375543D01*
X138536732Y-34375541D01*
X138537872Y-34373727D01*
X138590206Y-34327435D01*
X138642866Y-34315698D01*
X143802756Y-34315698D01*
X143802776Y-34315699D01*
G37*
%TD.AperFunction*%
%TD*%
M02*
