%TF.GenerationSoftware,KiCad,Pcbnew,9.0.1*%
%TF.CreationDate,2026-09-27T14:56:16+08:00*%
%TF.ProjectId,TS_indicator,54535f69-6e64-4696-9361-746f722e6b69,rev?*%
%TF.SameCoordinates,Original*%
%TF.FileFunction,Soldermask,Top*%
%TF.FilePolarity,Negative*%
%FSLAX46Y46*%
G04 Gerber Fmt 4.6, Leading zero omitted, Abs format (unit mm)*
G04 Created by KiCad (PCBNEW 9.0.1) date 2026-09-27 14:56:16*
%MOMM*%
%LPD*%
G01*
G04 APERTURE LIST*
G04 Aperture macros list*
%AMRoundRect*
0 Rectangle with rounded corners*
0 $1 Rounding radius*
0 $2 $3 $4 $5 $6 $7 $8 $9 X,Y pos of 4 corners*
0 Add a 4 corners polygon primitive as box body*
4,1,4,$2,$3,$4,$5,$6,$7,$8,$9,$2,$3,0*
0 Add four circle primitives for the rounded corners*
1,1,$1+$1,$2,$3*
1,1,$1+$1,$4,$5*
1,1,$1+$1,$6,$7*
1,1,$1+$1,$8,$9*
0 Add four rect primitives between the rounded corners*
20,1,$1+$1,$2,$3,$4,$5,0*
20,1,$1+$1,$4,$5,$6,$7,0*
20,1,$1+$1,$6,$7,$8,$9,0*
20,1,$1+$1,$8,$9,$2,$3,0*%
G04 Aperture macros list end*
%ADD10C,3.000000*%
%ADD11RoundRect,0.250001X-0.759999X0.499999X-0.759999X-0.499999X0.759999X-0.499999X0.759999X0.499999X0*%
%ADD12O,2.020000X1.500000*%
%ADD13RoundRect,0.150000X-0.150000X1.350000X-0.150000X-1.350000X0.150000X-1.350000X0.150000X1.350000X0*%
%ADD14RoundRect,0.150000X-0.150000X1.337500X-0.150000X-1.337500X0.150000X-1.337500X0.150000X1.337500X0*%
%ADD15RoundRect,0.278125X0.474375X0.389375X-0.474375X0.389375X-0.474375X-0.389375X0.474375X-0.389375X0*%
%ADD16RoundRect,0.305575X0.460025X0.412525X-0.460025X0.412525X-0.460025X-0.412525X0.460025X-0.412525X0*%
%ADD17RoundRect,0.308511X0.457089X0.416489X-0.457089X0.416489X-0.457089X-0.416489X0.457089X-0.416489X0*%
%ADD18RoundRect,0.250000X-1.500000X-0.650000X1.500000X-0.650000X1.500000X0.650000X-1.500000X0.650000X0*%
%ADD19RoundRect,0.150000X0.587500X0.150000X-0.587500X0.150000X-0.587500X-0.150000X0.587500X-0.150000X0*%
%ADD20RoundRect,0.278125X-0.474375X-0.389375X0.474375X-0.389375X0.474375X0.389375X-0.474375X0.389375X0*%
%ADD21RoundRect,0.250001X-0.499999X-0.759999X0.499999X-0.759999X0.499999X0.759999X-0.499999X0.759999X0*%
%ADD22O,1.500000X2.020000*%
%ADD23RoundRect,0.251116X3.376384X-2.561384X3.376384X2.561384X-3.376384X2.561384X-3.376384X-2.561384X0*%
%ADD24RoundRect,0.102000X0.750000X0.750000X-0.750000X0.750000X-0.750000X-0.750000X0.750000X-0.750000X0*%
%ADD25C,1.704000*%
%ADD26C,4.300000*%
%ADD27RoundRect,0.278125X-0.389375X0.474375X-0.389375X-0.474375X0.389375X-0.474375X0.389375X0.474375X0*%
%ADD28R,1.600000X1.600000*%
%ADD29O,1.600000X1.600000*%
%ADD30RoundRect,0.750000X-1.750000X-1.750000X1.750000X-1.750000X1.750000X1.750000X-1.750000X1.750000X0*%
%ADD31RoundRect,0.250001X0.462499X1.074999X-0.462499X1.074999X-0.462499X-1.074999X0.462499X-1.074999X0*%
%ADD32RoundRect,0.305575X-0.412525X0.460025X-0.412525X-0.460025X0.412525X-0.460025X0.412525X0.460025X0*%
%ADD33RoundRect,0.308511X-0.416489X0.457089X-0.416489X-0.457089X0.416489X-0.457089X0.416489X0.457089X0*%
G04 APERTURE END LIST*
D10*
%TO.C,J4*%
X149152800Y-45516800D03*
D11*
X144832800Y-44016800D03*
D12*
X144832800Y-47016800D03*
%TD*%
D13*
%TO.C,LM1*%
X32193000Y-49247800D03*
X30923000Y-49247800D03*
D14*
X29788000Y-49235300D03*
D13*
X28383000Y-49247800D03*
X28383000Y-55247800D03*
X29653000Y-55247800D03*
X30923000Y-55247800D03*
X32193000Y-55247800D03*
%TD*%
D15*
%TO.C,R3*%
X43672101Y-36837100D03*
X41367099Y-36837100D03*
%TD*%
D16*
%TO.C,C1*%
X23596600Y-48133000D03*
D17*
X21165400Y-48126100D03*
%TD*%
D18*
%TO.C,D2*%
X112206400Y-72390000D03*
X117206400Y-72390000D03*
%TD*%
D19*
%TO.C,U1*%
X23622000Y-52019200D03*
X23622000Y-50119200D03*
X21746999Y-51069200D03*
%TD*%
D20*
%TO.C,R6*%
X36439500Y-41344100D03*
X38744500Y-41344100D03*
%TD*%
D10*
%TO.C,J2*%
X32334200Y-20066600D03*
D21*
X30834200Y-24386600D03*
D22*
X33834200Y-24386600D03*
%TD*%
D20*
%TO.C,R1*%
X21428099Y-57015900D03*
X23733101Y-57015900D03*
%TD*%
D23*
%TO.C,F1*%
X48945800Y-40682600D03*
X48945800Y-30132600D03*
%TD*%
D24*
%TO.C,U3*%
X107443800Y-72435200D03*
D25*
X104903800Y-72435200D03*
X97283800Y-72435200D03*
X92203800Y-72435200D03*
%TD*%
D26*
%TO.C,H4*%
X149307600Y-69842000D03*
%TD*%
D20*
%TO.C,R4*%
X21529699Y-59632100D03*
X23834701Y-59632100D03*
%TD*%
D27*
%TO.C,R11*%
X26245300Y-45939099D03*
X26245300Y-48244101D03*
%TD*%
D20*
%TO.C,R8*%
X26863700Y-40810700D03*
X29168700Y-40810700D03*
%TD*%
D10*
%TO.C,J1*%
X47117000Y-20219000D03*
D21*
X45617000Y-24539000D03*
D22*
X48617000Y-24539000D03*
%TD*%
D28*
%TO.C,D1*%
X17780000Y-43561000D03*
D29*
X17780000Y-51181000D03*
%TD*%
D15*
%TO.C,R10*%
X31505501Y-43364900D03*
X29200499Y-43364900D03*
%TD*%
D30*
%TO.C,U2*%
X65851000Y-60233600D03*
X65850999Y-40233600D03*
X127951001Y-51733600D03*
X127951001Y-28733600D03*
%TD*%
D10*
%TO.C,J3*%
X149150800Y-34164400D03*
D11*
X144830800Y-32664400D03*
D12*
X144830800Y-35664400D03*
%TD*%
D31*
%TO.C,F2*%
X124093300Y-72390000D03*
X121118300Y-72390000D03*
%TD*%
D27*
%TO.C,R5*%
X41275000Y-39014400D03*
X41275000Y-41319402D03*
%TD*%
%TO.C,R12*%
X34906700Y-46167699D03*
X34906700Y-48472701D03*
%TD*%
D15*
%TO.C,R9*%
X24393501Y-40875700D03*
X22088499Y-40875700D03*
%TD*%
D26*
%TO.C,H2*%
X19307600Y-69842000D03*
%TD*%
D16*
%TO.C,C2*%
X31615800Y-45676100D03*
D17*
X29184600Y-45669200D03*
%TD*%
D32*
%TO.C,C3*%
X32214100Y-58601400D03*
D33*
X32207200Y-61032600D03*
%TD*%
D15*
%TO.C,R7*%
X34020101Y-40799500D03*
X31715099Y-40799500D03*
%TD*%
D26*
%TO.C,H3*%
X149307600Y-19842000D03*
%TD*%
D15*
%TO.C,R2*%
X23733101Y-54566300D03*
X21428099Y-54566300D03*
%TD*%
D26*
%TO.C,H1*%
X19307600Y-19842000D03*
%TD*%
M02*
