%TF.GenerationSoftware,KiCad,Pcbnew,9.0.1*%
%TF.CreationDate,2026-09-27T18:05:53+08:00*%
%TF.ProjectId,TS_indicator,54535f69-6e64-4696-9361-746f722e6b69,rev?*%
%TF.SameCoordinates,Original*%
%TF.FileFunction,Copper,L1,Top*%
%TF.FilePolarity,Positive*%
%FSLAX46Y46*%
G04 Gerber Fmt 4.6, Leading zero omitted, Abs format (unit mm)*
G04 Created by KiCad (PCBNEW 9.0.1) date 2026-09-27 18:05:53*
%MOMM*%
%LPD*%
G01*
G04 APERTURE LIST*
G04 Aperture macros list*
%AMRoundRect*
0 Rectangle with rounded corners*
0 $1 Rounding radius*
0 $2 $3 $4 $5 $6 $7 $8 $9 X,Y pos of 4 corners*
0 Add a 4 corners polygon primitive as box body*
4,1,4,$2,$3,$4,$5,$6,$7,$8,$9,$2,$3,0*
0 Add four circle primitives for the rounded corners*
1,1,$1+$1,$2,$3*
1,1,$1+$1,$4,$5*
1,1,$1+$1,$6,$7*
1,1,$1+$1,$8,$9*
0 Add four rect primitives between the rounded corners*
20,1,$1+$1,$2,$3,$4,$5,0*
20,1,$1+$1,$4,$5,$6,$7,0*
20,1,$1+$1,$6,$7,$8,$9,0*
20,1,$1+$1,$8,$9,$2,$3,0*%
G04 Aperture macros list end*
%TA.AperFunction,ComponentPad*%
%ADD10RoundRect,0.250001X-0.759999X0.499999X-0.759999X-0.499999X0.759999X-0.499999X0.759999X0.499999X0*%
%TD*%
%TA.AperFunction,ComponentPad*%
%ADD11O,2.020000X1.500000*%
%TD*%
%TA.AperFunction,SMDPad,CuDef*%
%ADD12RoundRect,0.150000X-0.150000X1.350000X-0.150000X-1.350000X0.150000X-1.350000X0.150000X1.350000X0*%
%TD*%
%TA.AperFunction,SMDPad,CuDef*%
%ADD13RoundRect,0.150000X-0.150000X1.337500X-0.150000X-1.337500X0.150000X-1.337500X0.150000X1.337500X0*%
%TD*%
%TA.AperFunction,SMDPad,CuDef*%
%ADD14RoundRect,0.278125X0.474375X0.389375X-0.474375X0.389375X-0.474375X-0.389375X0.474375X-0.389375X0*%
%TD*%
%TA.AperFunction,SMDPad,CuDef*%
%ADD15RoundRect,0.305575X0.460025X0.412525X-0.460025X0.412525X-0.460025X-0.412525X0.460025X-0.412525X0*%
%TD*%
%TA.AperFunction,SMDPad,CuDef*%
%ADD16RoundRect,0.308511X0.457089X0.416489X-0.457089X0.416489X-0.457089X-0.416489X0.457089X-0.416489X0*%
%TD*%
%TA.AperFunction,SMDPad,CuDef*%
%ADD17RoundRect,0.250000X-1.500000X-0.650000X1.500000X-0.650000X1.500000X0.650000X-1.500000X0.650000X0*%
%TD*%
%TA.AperFunction,SMDPad,CuDef*%
%ADD18RoundRect,0.150000X0.587500X0.150000X-0.587500X0.150000X-0.587500X-0.150000X0.587500X-0.150000X0*%
%TD*%
%TA.AperFunction,SMDPad,CuDef*%
%ADD19RoundRect,0.278125X-0.610763X0.060104X0.060104X-0.610763X0.610763X-0.060104X-0.060104X0.610763X0*%
%TD*%
%TA.AperFunction,ComponentPad*%
%ADD20RoundRect,0.250001X-0.499999X-0.759999X0.499999X-0.759999X0.499999X0.759999X-0.499999X0.759999X0*%
%TD*%
%TA.AperFunction,ComponentPad*%
%ADD21O,1.500000X2.020000*%
%TD*%
%TA.AperFunction,SMDPad,CuDef*%
%ADD22RoundRect,0.278125X-0.474375X-0.389375X0.474375X-0.389375X0.474375X0.389375X-0.474375X0.389375X0*%
%TD*%
%TA.AperFunction,SMDPad,CuDef*%
%ADD23RoundRect,0.250000X3.090000X-2.550000X3.090000X2.550000X-3.090000X2.550000X-3.090000X-2.550000X0*%
%TD*%
%TA.AperFunction,ComponentPad*%
%ADD24R,1.500000X1.500000*%
%TD*%
%TA.AperFunction,ComponentPad*%
%ADD25C,1.500000*%
%TD*%
%TA.AperFunction,SMDPad,CuDef*%
%ADD26RoundRect,0.278125X-0.389375X0.474375X-0.389375X-0.474375X0.389375X-0.474375X0.389375X0.474375X0*%
%TD*%
%TA.AperFunction,ComponentPad*%
%ADD27R,1.600000X1.600000*%
%TD*%
%TA.AperFunction,ComponentPad*%
%ADD28O,1.600000X1.600000*%
%TD*%
%TA.AperFunction,SMDPad,CuDef*%
%ADD29RoundRect,0.278125X0.389375X-0.474375X0.389375X0.474375X-0.389375X0.474375X-0.389375X-0.474375X0*%
%TD*%
%TA.AperFunction,ComponentPad*%
%ADD30RoundRect,0.750000X-1.750000X-1.750000X1.750000X-1.750000X1.750000X1.750000X-1.750000X1.750000X0*%
%TD*%
%TA.AperFunction,SMDPad,CuDef*%
%ADD31RoundRect,0.250001X0.462499X1.074999X-0.462499X1.074999X-0.462499X-1.074999X0.462499X-1.074999X0*%
%TD*%
%TA.AperFunction,SMDPad,CuDef*%
%ADD32RoundRect,0.278125X0.060104X0.610763X-0.610763X-0.060104X-0.060104X-0.610763X0.610763X0.060104X0*%
%TD*%
%TA.AperFunction,SMDPad,CuDef*%
%ADD33RoundRect,0.305575X-0.412525X0.460025X-0.412525X-0.460025X0.412525X-0.460025X0.412525X0.460025X0*%
%TD*%
%TA.AperFunction,SMDPad,CuDef*%
%ADD34RoundRect,0.308511X-0.416489X0.457089X-0.416489X-0.457089X0.416489X-0.457089X0.416489X0.457089X0*%
%TD*%
%TA.AperFunction,ViaPad*%
%ADD35C,0.600000*%
%TD*%
%TA.AperFunction,Conductor*%
%ADD36C,0.508000*%
%TD*%
%TA.AperFunction,Conductor*%
%ADD37C,0.200000*%
%TD*%
%TA.AperFunction,Conductor*%
%ADD38C,0.762000*%
%TD*%
G04 APERTURE END LIST*
D10*
%TO.P,J4,1,Pin_1*%
%TO.N,/GLV-*%
X144832800Y-44016800D03*
D11*
%TO.P,J4,2,Pin_2*%
%TO.N,Net-(J4-Pin_2)*%
X144832800Y-47016800D03*
%TD*%
D12*
%TO.P,LM1,1,GND*%
%TO.N,GND*%
X32363700Y-53200699D03*
%TO.P,LM1,2,+*%
%TO.N,Net-(LM1-+)*%
X31093700Y-53200699D03*
D13*
%TO.P,LM1,3,-*%
%TO.N,Net-(LM1--)*%
X29958700Y-53188199D03*
D12*
%TO.P,LM1,4,V-*%
%TO.N,GND*%
X28553700Y-53200699D03*
%TO.P,LM1,5,BAL*%
%TO.N,Net-(LM1-BAL)*%
X28553700Y-59200699D03*
%TO.P,LM1,6,STRB*%
X29823700Y-59200699D03*
%TO.P,LM1,7*%
%TO.N,Net-(LM1-Pad7)*%
X31093700Y-59200699D03*
%TO.P,LM1,8,V+*%
%TO.N,+12V*%
X32363700Y-59200699D03*
%TD*%
D14*
%TO.P,R3,1*%
%TO.N,/+HV_after_fuse*%
X43138701Y-37903900D03*
%TO.P,R3,2*%
%TO.N,Net-(R3-Pad2)*%
X40833699Y-37903900D03*
%TD*%
D15*
%TO.P,C1,1*%
%TO.N,/Vref*%
X23767300Y-52085899D03*
D16*
%TO.P,C1,2*%
%TO.N,GND*%
X21336100Y-52078999D03*
%TD*%
D17*
%TO.P,D2,1,K*%
%TO.N,VCC*%
X112206400Y-72390000D03*
%TO.P,D2,2,A*%
%TO.N,Net-(D2-A)*%
X117206400Y-72390000D03*
%TD*%
D18*
%TO.P,U1,1,REF*%
%TO.N,Net-(U1-REF)*%
X23792700Y-55972099D03*
%TO.P,U1,2,K*%
%TO.N,/Vref*%
X23792700Y-54072099D03*
%TO.P,U1,3,A*%
%TO.N,GND*%
X21917699Y-55022099D03*
%TD*%
D19*
%TO.P,R6,1*%
%TO.N,Net-(R6-Pad1)*%
X33294840Y-38430478D03*
%TO.P,R6,2*%
%TO.N,Net-(R5-Pad2)*%
X34924722Y-40060360D03*
%TD*%
D20*
%TO.P,J2,1,Pin_1*%
%TO.N,GND*%
X30834200Y-24386600D03*
D21*
%TO.P,J2,2,Pin_2*%
X33834200Y-24386600D03*
%TD*%
D22*
%TO.P,R1,1*%
%TO.N,/Vref*%
X21598799Y-60968799D03*
%TO.P,R1,2*%
%TO.N,Net-(U1-REF)*%
X23903801Y-60968799D03*
%TD*%
D23*
%TO.P,F1,1*%
%TO.N,/+HV_after_fuse*%
X52298600Y-40229000D03*
%TO.P,F1,2*%
%TO.N,/+HV*%
X52298600Y-30129000D03*
%TD*%
D24*
%TO.P,U3,1,+Vin*%
%TO.N,VCC*%
X107443800Y-72435200D03*
D25*
%TO.P,U3,2,-Vin*%
%TO.N,/GLV-*%
X104903800Y-72435200D03*
%TO.P,U3,4,-Vout*%
%TO.N,GND*%
X97283800Y-72435200D03*
%TO.P,U3,6,+Vout*%
%TO.N,+12V*%
X92203800Y-72435200D03*
%TD*%
D22*
%TO.P,R4,1*%
%TO.N,/Vref*%
X21700399Y-63584999D03*
%TO.P,R4,2*%
%TO.N,+12V*%
X24005401Y-63584999D03*
%TD*%
D26*
%TO.P,R11,1*%
%TO.N,Net-(LM1--)*%
X26416000Y-49891998D03*
%TO.P,R11,2*%
%TO.N,/Vref*%
X26416000Y-52197000D03*
%TD*%
D22*
%TO.P,R8,1*%
%TO.N,Net-(R8-Pad1)*%
X22393300Y-35933900D03*
%TO.P,R8,2*%
%TO.N,/Vin*%
X24698300Y-35933900D03*
%TD*%
D20*
%TO.P,J1,1,Pin_1*%
%TO.N,/+HV*%
X45617000Y-24539000D03*
D21*
%TO.P,J1,2,Pin_2*%
X48617000Y-24539000D03*
%TD*%
D27*
%TO.P,D1,1,K*%
%TO.N,/Vin*%
X17950700Y-47513899D03*
D28*
%TO.P,D1,2,A*%
%TO.N,GND*%
X17950700Y-55133899D03*
%TD*%
D29*
%TO.P,R10,1*%
%TO.N,Net-(LM1-+)*%
X26129500Y-45500901D03*
%TO.P,R10,2*%
%TO.N,/Vin*%
X26129500Y-43195899D03*
%TD*%
D30*
%TO.P,U2,1,+Vin*%
%TO.N,/+HV_after_fuse*%
X65851000Y-60233600D03*
%TO.P,U2,2,-Vin*%
%TO.N,GND*%
X65850999Y-40233600D03*
%TO.P,U2,3,+Vout*%
%TO.N,/GLV+*%
X127951001Y-51733600D03*
%TO.P,U2,4,-Vout*%
%TO.N,/GLV-*%
X127951001Y-28733600D03*
%TD*%
D10*
%TO.P,J3,1,Pin_1*%
%TO.N,Net-(J3-Pin_1)*%
X144830800Y-32664400D03*
D11*
%TO.P,J3,2,Pin_2*%
%TO.N,Net-(D3-K)*%
X144830800Y-35664400D03*
%TD*%
D31*
%TO.P,F2,1*%
%TO.N,/GLV+*%
X124093300Y-72390000D03*
%TO.P,F2,2*%
%TO.N,Net-(D2-A)*%
X121118300Y-72390000D03*
%TD*%
D32*
%TO.P,R5,1*%
%TO.N,Net-(R3-Pad2)*%
X39776122Y-41016440D03*
%TO.P,R5,2*%
%TO.N,Net-(R5-Pad2)*%
X38146240Y-42646322D03*
%TD*%
D26*
%TO.P,R12,1*%
%TO.N,/Vin*%
X35077400Y-50120598D03*
%TO.P,R12,2*%
%TO.N,Net-(LM1-Pad7)*%
X35077400Y-52425600D03*
%TD*%
D14*
%TO.P,R9,1*%
%TO.N,Net-(R8-Pad1)*%
X18526101Y-36100500D03*
%TO.P,R9,2*%
%TO.N,GND*%
X16221099Y-36100500D03*
%TD*%
D15*
%TO.P,C2,1*%
%TO.N,Net-(LM1-+)*%
X31786500Y-49628999D03*
D16*
%TO.P,C2,2*%
%TO.N,Net-(LM1--)*%
X29355300Y-49622099D03*
%TD*%
D33*
%TO.P,C3,1*%
%TO.N,+12V*%
X32384800Y-62554299D03*
D34*
%TO.P,C3,2*%
%TO.N,GND*%
X32377900Y-64985499D03*
%TD*%
D14*
%TO.P,R7,1*%
%TO.N,Net-(R6-Pad1)*%
X30667301Y-35922700D03*
%TO.P,R7,2*%
%TO.N,/Vin*%
X28362299Y-35922700D03*
%TD*%
%TO.P,R2,1*%
%TO.N,Net-(U1-REF)*%
X23903801Y-58519199D03*
%TO.P,R2,2*%
%TO.N,GND*%
X21598799Y-58519199D03*
%TD*%
D35*
%TO.N,/Vref*%
X26154900Y-54803699D03*
X21598799Y-60968799D03*
%TO.N,+12V*%
X24005401Y-63584999D03*
X32384800Y-62554299D03*
%TO.N,/GLV-*%
X134518400Y-20066000D03*
X109778800Y-20243800D03*
X113512600Y-67462400D03*
X103784400Y-48945800D03*
X139522200Y-26212800D03*
X140639800Y-35636200D03*
X118008400Y-50469800D03*
X142468600Y-67894200D03*
X146405600Y-62966600D03*
X118719600Y-31877000D03*
X121691400Y-59461400D03*
X142290800Y-58775600D03*
X121945400Y-67208400D03*
X135331200Y-67411600D03*
X120700800Y-20294600D03*
X119913400Y-26314400D03*
X135382000Y-58724800D03*
X143052800Y-20116800D03*
X132130800Y-70840600D03*
X108356400Y-27254200D03*
X110286800Y-47447200D03*
X104571800Y-42418000D03*
X111709200Y-55727600D03*
X116636800Y-42214800D03*
X108000800Y-35280600D03*
X149707600Y-58496200D03*
%TO.N,VCC*%
X122850299Y-45045400D03*
X130251200Y-41935400D03*
X126009400Y-40360600D03*
X134926801Y-35866200D03*
%TO.N,Net-(LM1-Pad7)*%
X31107900Y-61102899D03*
%TD*%
D36*
%TO.N,Net-(R6-Pad1)*%
X31447462Y-35922700D02*
X30667301Y-35922700D01*
X33294840Y-38430478D02*
X33294840Y-37770078D01*
X33294840Y-37770078D02*
X31447462Y-35922700D01*
%TO.N,Net-(R5-Pad2)*%
X37510684Y-42646322D02*
X35026322Y-40161960D01*
X38146240Y-42646322D02*
X37510684Y-42646322D01*
%TO.N,/Vref*%
X23767300Y-54046699D02*
X23792700Y-54072099D01*
X26304899Y-52085899D02*
X26416000Y-52197000D01*
X26154900Y-54803699D02*
X25423300Y-54072099D01*
X25423300Y-54072099D02*
X23792700Y-54072099D01*
X21598799Y-60968799D02*
X21700399Y-61070399D01*
X23767300Y-52085899D02*
X26304899Y-52085899D01*
X21598799Y-60968799D02*
X21598799Y-60799798D01*
X23767300Y-52085899D02*
X23767300Y-54046699D01*
X21700399Y-61070399D02*
X21700399Y-63584999D01*
X21700399Y-63584999D02*
X21700399Y-62915800D01*
%TO.N,GND*%
X26231100Y-56505499D02*
X27145500Y-56505499D01*
X21917699Y-55022099D02*
X21917699Y-52660598D01*
X21598799Y-58519199D02*
X21598799Y-58070798D01*
X21917699Y-55022099D02*
X24747700Y-55022099D01*
X32377900Y-64985499D02*
X20436300Y-64985499D01*
X32377900Y-64985499D02*
X32377900Y-69258700D01*
X16221099Y-31251501D02*
X23086000Y-24386600D01*
X21110500Y-55022099D02*
X21917699Y-55022099D01*
X28553700Y-55097299D02*
X28553700Y-53200699D01*
X95703400Y-74015600D02*
X96877400Y-72841600D01*
X96877400Y-72841600D02*
X97207600Y-72841600D01*
X37134800Y-74015600D02*
X95703400Y-74015600D01*
X18719600Y-52078999D02*
X21336100Y-52078999D01*
X16020300Y-55133899D02*
X15385300Y-54498899D01*
X28553700Y-54700698D02*
X29266301Y-55413299D01*
X19500100Y-60617898D02*
X21598799Y-58519199D01*
X21917699Y-52660598D02*
X21336100Y-52078999D01*
X16221099Y-36100500D02*
X16221099Y-31251501D01*
X21303800Y-52111299D02*
X21336100Y-52078999D01*
X20436300Y-64985499D02*
X19500100Y-64049299D01*
D37*
X21005600Y-52078999D02*
X21336100Y-52078999D01*
D36*
X32363700Y-54741699D02*
X32363700Y-53200699D01*
X20668500Y-57140499D02*
X20668500Y-55464099D01*
X23086000Y-24386600D02*
X30834200Y-24386600D01*
X30834200Y-24386600D02*
X33834200Y-24386600D01*
X27145500Y-56505499D02*
X28553700Y-55097299D01*
X17950700Y-55133899D02*
X16020300Y-55133899D01*
X31651099Y-55413299D02*
X32363700Y-54700698D01*
X15334500Y-46675699D02*
X16221099Y-45789100D01*
X32377900Y-69258700D02*
X37134800Y-74015600D01*
X20668500Y-55464099D02*
X21110500Y-55022099D01*
X24747700Y-55022099D02*
X26231100Y-56505499D01*
X17950700Y-52847899D02*
X18719600Y-52078999D01*
X29266301Y-55413299D02*
X31651099Y-55413299D01*
X15385300Y-54498899D02*
X15334500Y-54498899D01*
X16221099Y-45789100D02*
X16221099Y-36100500D01*
X15334500Y-54498899D02*
X15334500Y-46675699D01*
X21598799Y-58070798D02*
X20668500Y-57140499D01*
X19500100Y-64049299D02*
X19500100Y-60617898D01*
X17950700Y-55133899D02*
X17950700Y-52847899D01*
X28553700Y-53200699D02*
X28553700Y-54700698D01*
X32363700Y-54700698D02*
X32363700Y-53200699D01*
%TO.N,Net-(LM1--)*%
X29390201Y-49587198D02*
X29355300Y-49622099D01*
X26240601Y-49730799D02*
X29246600Y-49730799D01*
X29958700Y-53188199D02*
X29958700Y-50225499D01*
X29958700Y-50225499D02*
X29355300Y-49622099D01*
X29246600Y-49730799D02*
X29355300Y-49622099D01*
%TO.N,Net-(LM1-+)*%
X31093700Y-50321799D02*
X31093700Y-53200699D01*
X31786500Y-49236300D02*
X29718000Y-47167800D01*
X27796399Y-47167800D02*
X26129500Y-45500901D01*
X31786500Y-49628999D02*
X31093700Y-50321799D01*
X31786500Y-49628999D02*
X31786500Y-49236300D01*
X29718000Y-47167800D02*
X27796399Y-47167800D01*
%TO.N,+12V*%
X32097800Y-62841299D02*
X32384800Y-62554299D01*
X41912401Y-70967600D02*
X90736200Y-70967600D01*
X32384800Y-62554299D02*
X32384800Y-59221799D01*
X32384800Y-59221799D02*
X32363700Y-59200699D01*
X92127600Y-72359000D02*
X92127600Y-72841600D01*
X32384800Y-62554299D02*
X33499100Y-62554299D01*
X90736200Y-70967600D02*
X92127600Y-72359000D01*
X33499100Y-62554299D02*
X41912401Y-70967600D01*
%TO.N,/GLV-*%
X127857400Y-28733600D02*
X104903800Y-51687200D01*
X127951001Y-28733600D02*
X127857400Y-28733600D01*
X104903800Y-51687200D02*
X104903800Y-72435200D01*
%TO.N,VCC*%
X125984000Y-40386000D02*
X124180600Y-40386000D01*
X126009400Y-40360600D02*
X125984000Y-40386000D01*
X134926801Y-37259799D02*
X134926801Y-35866200D01*
X124180600Y-40386000D02*
X122809000Y-41757600D01*
X122809000Y-41757600D02*
X122809000Y-45004101D01*
X112206400Y-72390000D02*
X107489000Y-72390000D01*
X130251200Y-41935400D02*
X134926801Y-37259799D01*
X107489000Y-72390000D02*
X107362000Y-72517000D01*
X122809000Y-45004101D02*
X122850299Y-45045400D01*
%TO.N,/Vin*%
X28362299Y-35922700D02*
X28321000Y-35963999D01*
X25171400Y-36407000D02*
X24698300Y-35933900D01*
X35077400Y-48615600D02*
X29657699Y-43195899D01*
X26129500Y-42029900D02*
X25171400Y-41071800D01*
X26129500Y-43195899D02*
X26129500Y-42029900D01*
X25171400Y-41071800D02*
X25171400Y-36407000D01*
D37*
X28351099Y-35933900D02*
X28362299Y-35922700D01*
D36*
X24698300Y-35933900D02*
X28351099Y-35933900D01*
X22268700Y-43195899D02*
X17950700Y-47513899D01*
X26129500Y-43195899D02*
X22268700Y-43195899D01*
X35077400Y-50120598D02*
X35077400Y-48615600D01*
X29657699Y-43195899D02*
X26129500Y-43195899D01*
%TO.N,Net-(D2-A)*%
X121118300Y-72390000D02*
X117206400Y-72390000D01*
D38*
%TO.N,/+HV*%
X45617000Y-24539000D02*
X48617000Y-24539000D01*
X52298600Y-30129000D02*
X52295000Y-30132600D01*
X48617000Y-24539000D02*
X48617000Y-26447400D01*
X48617000Y-26447400D02*
X52298600Y-30129000D01*
D36*
%TO.N,/GLV+*%
X127951001Y-70245199D02*
X125755400Y-72440800D01*
X125755400Y-72440800D02*
X124144100Y-72440800D01*
X127951001Y-51733600D02*
X127951001Y-70245199D01*
X124144100Y-72440800D02*
X124093300Y-72390000D01*
%TO.N,Net-(LM1-BAL)*%
X29823700Y-57253299D02*
X29660100Y-57089699D01*
X28720300Y-57089699D02*
X28553700Y-57256299D01*
X28553700Y-57256299D02*
X28553700Y-59200699D01*
X29660100Y-57089699D02*
X28720300Y-57089699D01*
X29823700Y-59200699D02*
X29823700Y-57253299D01*
%TO.N,Net-(LM1-Pad7)*%
X31107900Y-61102899D02*
X31093700Y-61088699D01*
X31984102Y-56810299D02*
X31093700Y-57700701D01*
X35077400Y-52425600D02*
X35077400Y-55547399D01*
X33814500Y-56810299D02*
X31984102Y-56810299D01*
X31107900Y-59214899D02*
X31093700Y-59200699D01*
X31107900Y-61102899D02*
X31107900Y-59214899D01*
X35077400Y-55547399D02*
X33814500Y-56810299D01*
X31093700Y-57700701D02*
X31093700Y-59200699D01*
D37*
%TO.N,Net-(U1-REF)*%
X23945100Y-60606099D02*
X23945100Y-58560498D01*
X23945100Y-58560498D02*
X23903801Y-58519199D01*
X23792700Y-57927899D02*
X23919700Y-58054899D01*
X23792700Y-58408098D02*
X23903801Y-58519199D01*
X23919700Y-60580699D02*
X23945100Y-60606099D01*
X23792700Y-55972099D02*
X23792700Y-58408098D01*
D36*
%TO.N,Net-(R3-Pad2)*%
X40833699Y-37903900D02*
X40833699Y-40081902D01*
X40833699Y-40081902D02*
X39633501Y-41282100D01*
D37*
%TO.N,Net-(R5-Pad2)*%
X38337398Y-42056002D02*
X38312700Y-42080700D01*
D36*
%TO.N,Net-(R8-Pad1)*%
X18526101Y-36100500D02*
X22226700Y-36100500D01*
X22226700Y-36100500D02*
X22393300Y-35933900D01*
%TO.N,/+HV_after_fuse*%
X52298600Y-40229000D02*
X50017200Y-37947600D01*
X43182401Y-37947600D02*
X43138701Y-37903900D01*
X50017200Y-37947600D02*
X43182401Y-37947600D01*
D38*
X52146200Y-57277000D02*
X55102800Y-60233600D01*
X52146200Y-40949300D02*
X52146200Y-57277000D01*
X55102800Y-60233600D02*
X65851000Y-60233600D01*
X49517300Y-40949300D02*
X52146200Y-40949300D01*
%TD*%
%TA.AperFunction,Conductor*%
%TO.N,/GLV-*%
G36*
X149310286Y-15342617D02*
G01*
X149694371Y-15359386D01*
X149705106Y-15360326D01*
X150083571Y-15410152D01*
X150094197Y-15412025D01*
X150466884Y-15494648D01*
X150477310Y-15497442D01*
X150841365Y-15612227D01*
X150851511Y-15615920D01*
X151204178Y-15762000D01*
X151213969Y-15766566D01*
X151552542Y-15942816D01*
X151561910Y-15948224D01*
X151883844Y-16153318D01*
X151892705Y-16159523D01*
X152195530Y-16391889D01*
X152203817Y-16398843D01*
X152485235Y-16656715D01*
X152492884Y-16664364D01*
X152750756Y-16945782D01*
X152757710Y-16954069D01*
X152990076Y-17256894D01*
X152996281Y-17265755D01*
X153201375Y-17587689D01*
X153206783Y-17597057D01*
X153383030Y-17935623D01*
X153387602Y-17945427D01*
X153533675Y-18298078D01*
X153537375Y-18308244D01*
X153652154Y-18672278D01*
X153654954Y-18682727D01*
X153737571Y-19055389D01*
X153739449Y-19066042D01*
X153789271Y-19444473D01*
X153790214Y-19455249D01*
X153806982Y-19839297D01*
X153807100Y-19844706D01*
X153807100Y-69839293D01*
X153806982Y-69844702D01*
X153790214Y-70228750D01*
X153789271Y-70239526D01*
X153739449Y-70617957D01*
X153737571Y-70628610D01*
X153654954Y-71001272D01*
X153652154Y-71011721D01*
X153537375Y-71375755D01*
X153533675Y-71385921D01*
X153387602Y-71738572D01*
X153383030Y-71748376D01*
X153206783Y-72086942D01*
X153201375Y-72096310D01*
X152996281Y-72418244D01*
X152990076Y-72427105D01*
X152757710Y-72729930D01*
X152750756Y-72738217D01*
X152492884Y-73019635D01*
X152485235Y-73027284D01*
X152203817Y-73285156D01*
X152195530Y-73292110D01*
X151892705Y-73524476D01*
X151883844Y-73530681D01*
X151561910Y-73735775D01*
X151552542Y-73741183D01*
X151213976Y-73917430D01*
X151204172Y-73922002D01*
X150851521Y-74068075D01*
X150841355Y-74071775D01*
X150477321Y-74186554D01*
X150466872Y-74189354D01*
X150094210Y-74271971D01*
X150083557Y-74273849D01*
X149705126Y-74323671D01*
X149694350Y-74324614D01*
X149310303Y-74341382D01*
X149304924Y-74341500D01*
X149241708Y-74341500D01*
X149241651Y-74341514D01*
X149233875Y-74341516D01*
X149233875Y-74341517D01*
X124991806Y-74347558D01*
X124924762Y-74327890D01*
X124878993Y-74275098D01*
X124869033Y-74205942D01*
X124898042Y-74142379D01*
X124926672Y-74118024D01*
X125024455Y-74057711D01*
X125148511Y-73933655D01*
X125240614Y-73784334D01*
X125295799Y-73617797D01*
X125306300Y-73515008D01*
X125306300Y-73319300D01*
X125308850Y-73310614D01*
X125307562Y-73301653D01*
X125318540Y-73277612D01*
X125325985Y-73252261D01*
X125332825Y-73246333D01*
X125336587Y-73238097D01*
X125358821Y-73223807D01*
X125378789Y-73206506D01*
X125389303Y-73204218D01*
X125395365Y-73200323D01*
X125430300Y-73195300D01*
X125674954Y-73195300D01*
X125674974Y-73195301D01*
X125681088Y-73195301D01*
X125829714Y-73195301D01*
X125905360Y-73180252D01*
X125951294Y-73171115D01*
X125975480Y-73166305D01*
X126033114Y-73142432D01*
X126112789Y-73109430D01*
X126236366Y-73026859D01*
X128431964Y-70831259D01*
X128431967Y-70831258D01*
X128537060Y-70726165D01*
X128592231Y-70643594D01*
X128619631Y-70602588D01*
X128676506Y-70465278D01*
X128705502Y-70319511D01*
X128705502Y-70170887D01*
X128705502Y-70165777D01*
X128705501Y-70165751D01*
X128705501Y-69707186D01*
X146907100Y-69707186D01*
X146907100Y-69976813D01*
X146937286Y-70244719D01*
X146937288Y-70244731D01*
X146997284Y-70507594D01*
X146997287Y-70507602D01*
X147086334Y-70762082D01*
X147203314Y-71004994D01*
X147207541Y-71011721D01*
X147346762Y-71233289D01*
X147452674Y-71366099D01*
X147496191Y-71420668D01*
X147514866Y-71444085D01*
X147705515Y-71634734D01*
X147916311Y-71802838D01*
X148144603Y-71946284D01*
X148387521Y-72063267D01*
X148578649Y-72130145D01*
X148641997Y-72152312D01*
X148642005Y-72152315D01*
X148642008Y-72152315D01*
X148642009Y-72152316D01*
X148904868Y-72212312D01*
X149172787Y-72242499D01*
X149172788Y-72242500D01*
X149172791Y-72242500D01*
X149442412Y-72242500D01*
X149442412Y-72242499D01*
X149710332Y-72212312D01*
X149973191Y-72152316D01*
X150227679Y-72063267D01*
X150470597Y-71946284D01*
X150698889Y-71802838D01*
X150909685Y-71634734D01*
X151100334Y-71444085D01*
X151268438Y-71233289D01*
X151411884Y-71004997D01*
X151528867Y-70762079D01*
X151617916Y-70507591D01*
X151677912Y-70244732D01*
X151708100Y-69976809D01*
X151708100Y-69707191D01*
X151677912Y-69439268D01*
X151617916Y-69176409D01*
X151528867Y-68921921D01*
X151411884Y-68679003D01*
X151268438Y-68450711D01*
X151100334Y-68239915D01*
X150909685Y-68049266D01*
X150698889Y-67881162D01*
X150470597Y-67737716D01*
X150470594Y-67737714D01*
X150227682Y-67620734D01*
X149973202Y-67531687D01*
X149973194Y-67531684D01*
X149776046Y-67486687D01*
X149710332Y-67471688D01*
X149710328Y-67471687D01*
X149710319Y-67471686D01*
X149442413Y-67441500D01*
X149442409Y-67441500D01*
X149172791Y-67441500D01*
X149172786Y-67441500D01*
X148904880Y-67471686D01*
X148904868Y-67471688D01*
X148642005Y-67531684D01*
X148641997Y-67531687D01*
X148387517Y-67620734D01*
X148144605Y-67737714D01*
X147916312Y-67881161D01*
X147705515Y-68049265D01*
X147514865Y-68239915D01*
X147346761Y-68450712D01*
X147203314Y-68679005D01*
X147086334Y-68921917D01*
X146997287Y-69176397D01*
X146997284Y-69176405D01*
X146937288Y-69439268D01*
X146937286Y-69439280D01*
X146907100Y-69707186D01*
X128705501Y-69707186D01*
X128705501Y-55449238D01*
X128725186Y-55382199D01*
X128730110Y-55375093D01*
X129171099Y-54783953D01*
X129226963Y-54741989D01*
X129270490Y-54734099D01*
X129765209Y-54734099D01*
X129765217Y-54734099D01*
X129897413Y-54723696D01*
X130115684Y-54668696D01*
X130320627Y-54575607D01*
X130505655Y-54447419D01*
X130664820Y-54288254D01*
X130793008Y-54103226D01*
X130886097Y-53898283D01*
X130941097Y-53680012D01*
X130951501Y-53547817D01*
X130951500Y-49919384D01*
X130941097Y-49787188D01*
X130886097Y-49568917D01*
X130793008Y-49363974D01*
X130664820Y-49178946D01*
X130505655Y-49019781D01*
X130505651Y-49019778D01*
X130505646Y-49019774D01*
X130320633Y-48891597D01*
X130320631Y-48891595D01*
X130320627Y-48891593D01*
X130115684Y-48798504D01*
X130115682Y-48798503D01*
X130115679Y-48798502D01*
X129897421Y-48743505D01*
X129897414Y-48743504D01*
X129853348Y-48740036D01*
X129765218Y-48733100D01*
X129765216Y-48733100D01*
X126136792Y-48733100D01*
X126136777Y-48733101D01*
X126004587Y-48743504D01*
X126004580Y-48743505D01*
X125786322Y-48798502D01*
X125786319Y-48798503D01*
X125581378Y-48891591D01*
X125581368Y-48891597D01*
X125396355Y-49019774D01*
X125396343Y-49019784D01*
X125237185Y-49178942D01*
X125237175Y-49178954D01*
X125108998Y-49363967D01*
X125108992Y-49363977D01*
X125015904Y-49568918D01*
X125015903Y-49568921D01*
X124960906Y-49787179D01*
X124960905Y-49787186D01*
X124950501Y-49919377D01*
X124950501Y-53547808D01*
X124950502Y-53547823D01*
X124960905Y-53680013D01*
X124960906Y-53680020D01*
X125015903Y-53898278D01*
X125015904Y-53898281D01*
X125108992Y-54103222D01*
X125108998Y-54103232D01*
X125237175Y-54288245D01*
X125237179Y-54288250D01*
X125237182Y-54288254D01*
X125396347Y-54447419D01*
X125396351Y-54447422D01*
X125396355Y-54447425D01*
X125535604Y-54543897D01*
X125581375Y-54575607D01*
X125786318Y-54668696D01*
X125786322Y-54668697D01*
X126004580Y-54723694D01*
X126004582Y-54723694D01*
X126004589Y-54723696D01*
X126136784Y-54734100D01*
X126631510Y-54734099D01*
X126698549Y-54753783D01*
X126730900Y-54783953D01*
X127171892Y-55375094D01*
X127196200Y-55440596D01*
X127196501Y-55449237D01*
X127196501Y-69881312D01*
X127176816Y-69948351D01*
X127160182Y-69968993D01*
X125517981Y-71611194D01*
X125456658Y-71644679D01*
X125386966Y-71639695D01*
X125331033Y-71597823D01*
X125306616Y-71532359D01*
X125306300Y-71523513D01*
X125306300Y-71264997D01*
X125306299Y-71264984D01*
X125295799Y-71162204D01*
X125295799Y-71162203D01*
X125240614Y-70995666D01*
X125236811Y-70989501D01*
X125148513Y-70846348D01*
X125148510Y-70846344D01*
X125024455Y-70722289D01*
X125024451Y-70722286D01*
X124875137Y-70630187D01*
X124875135Y-70630186D01*
X124791834Y-70602583D01*
X124708597Y-70575001D01*
X124708595Y-70575000D01*
X124605815Y-70564500D01*
X124605808Y-70564500D01*
X123580792Y-70564500D01*
X123580784Y-70564500D01*
X123478004Y-70575000D01*
X123478003Y-70575001D01*
X123311464Y-70630186D01*
X123311462Y-70630187D01*
X123162148Y-70722286D01*
X123162144Y-70722289D01*
X123038089Y-70846344D01*
X123038086Y-70846348D01*
X122945987Y-70995662D01*
X122945986Y-70995664D01*
X122890801Y-71162203D01*
X122890800Y-71162204D01*
X122880300Y-71264984D01*
X122880300Y-73515015D01*
X122890800Y-73617795D01*
X122890801Y-73617797D01*
X122902937Y-73654421D01*
X122945986Y-73784335D01*
X122945987Y-73784337D01*
X123038086Y-73933651D01*
X123038089Y-73933655D01*
X123162144Y-74057710D01*
X123162148Y-74057713D01*
X123260646Y-74118468D01*
X123307371Y-74170416D01*
X123318592Y-74239378D01*
X123290749Y-74303460D01*
X123232680Y-74342316D01*
X123195580Y-74348006D01*
X122015604Y-74348300D01*
X121948560Y-74328632D01*
X121902791Y-74275840D01*
X121892831Y-74206684D01*
X121921840Y-74143121D01*
X121950469Y-74118766D01*
X122049455Y-74057711D01*
X122173511Y-73933655D01*
X122265614Y-73784334D01*
X122320799Y-73617797D01*
X122331300Y-73515008D01*
X122331300Y-71264992D01*
X122320799Y-71162203D01*
X122265614Y-70995666D01*
X122261811Y-70989501D01*
X122173513Y-70846348D01*
X122173510Y-70846344D01*
X122049455Y-70722289D01*
X122049451Y-70722286D01*
X121900137Y-70630187D01*
X121900135Y-70630186D01*
X121816834Y-70602583D01*
X121733597Y-70575001D01*
X121733595Y-70575000D01*
X121630815Y-70564500D01*
X121630808Y-70564500D01*
X120605792Y-70564500D01*
X120605784Y-70564500D01*
X120503004Y-70575000D01*
X120503003Y-70575001D01*
X120336464Y-70630186D01*
X120336462Y-70630187D01*
X120187148Y-70722286D01*
X120187144Y-70722289D01*
X120063089Y-70846344D01*
X120063086Y-70846348D01*
X119970987Y-70995662D01*
X119970986Y-70995664D01*
X119915801Y-71162203D01*
X119915800Y-71162204D01*
X119905300Y-71264984D01*
X119905300Y-71511500D01*
X119902749Y-71520185D01*
X119904038Y-71529147D01*
X119893059Y-71553187D01*
X119885615Y-71578539D01*
X119878774Y-71584466D01*
X119875013Y-71592703D01*
X119852778Y-71606992D01*
X119832811Y-71624294D01*
X119822296Y-71626581D01*
X119816235Y-71630477D01*
X119781300Y-71635500D01*
X119551943Y-71635500D01*
X119484904Y-71615815D01*
X119439149Y-71563011D01*
X119434242Y-71550516D01*
X119391214Y-71420666D01*
X119299112Y-71271344D01*
X119175056Y-71147288D01*
X119025734Y-71055186D01*
X118859197Y-71000001D01*
X118859195Y-71000000D01*
X118756410Y-70989500D01*
X115656398Y-70989500D01*
X115656381Y-70989501D01*
X115553603Y-71000000D01*
X115553600Y-71000001D01*
X115387068Y-71055185D01*
X115387063Y-71055187D01*
X115237742Y-71147289D01*
X115113689Y-71271342D01*
X115021587Y-71420663D01*
X115021585Y-71420668D01*
X114993749Y-71504670D01*
X114966401Y-71587203D01*
X114966401Y-71587204D01*
X114966400Y-71587204D01*
X114955900Y-71689983D01*
X114955900Y-73090001D01*
X114955901Y-73090018D01*
X114966400Y-73192796D01*
X114966401Y-73192799D01*
X114994506Y-73277612D01*
X115021586Y-73359334D01*
X115113688Y-73508656D01*
X115237744Y-73632712D01*
X115387066Y-73724814D01*
X115553603Y-73779999D01*
X115656391Y-73790500D01*
X118756408Y-73790499D01*
X118859197Y-73779999D01*
X119025734Y-73724814D01*
X119175056Y-73632712D01*
X119299112Y-73508656D01*
X119391214Y-73359334D01*
X119434238Y-73229494D01*
X119448106Y-73209463D01*
X119458230Y-73187297D01*
X119467640Y-73181249D01*
X119474009Y-73172051D01*
X119496510Y-73162695D01*
X119517008Y-73149523D01*
X119534108Y-73147064D01*
X119538525Y-73145228D01*
X119551943Y-73144500D01*
X119781300Y-73144500D01*
X119848339Y-73164185D01*
X119894094Y-73216989D01*
X119905300Y-73268500D01*
X119905300Y-73515015D01*
X119915800Y-73617795D01*
X119915801Y-73617797D01*
X119927937Y-73654421D01*
X119970986Y-73784335D01*
X119970987Y-73784337D01*
X120063086Y-73933651D01*
X120063089Y-73933655D01*
X120187145Y-74057711D01*
X120286850Y-74119210D01*
X120333572Y-74171156D01*
X120344795Y-74240119D01*
X120316951Y-74304201D01*
X120258882Y-74343057D01*
X120221782Y-74348747D01*
X102615624Y-74353135D01*
X102548580Y-74333467D01*
X102502811Y-74280675D01*
X102491593Y-74229032D01*
X102493195Y-72336817D01*
X103653800Y-72336817D01*
X103653800Y-72533582D01*
X103684578Y-72727905D01*
X103745381Y-72915035D01*
X103834705Y-73090345D01*
X103860119Y-73125325D01*
X103860120Y-73125325D01*
X104494321Y-72491124D01*
X104521741Y-72593454D01*
X104575718Y-72686946D01*
X104652054Y-72763282D01*
X104745546Y-72817259D01*
X104847874Y-72844678D01*
X104213673Y-73478877D01*
X104213673Y-73478878D01*
X104248658Y-73504296D01*
X104423964Y-73593618D01*
X104611094Y-73654421D01*
X104805418Y-73685200D01*
X105002182Y-73685200D01*
X105196505Y-73654421D01*
X105383635Y-73593618D01*
X105558943Y-73504295D01*
X105593925Y-73478878D01*
X105593926Y-73478878D01*
X104959726Y-72844678D01*
X105062054Y-72817259D01*
X105155546Y-72763282D01*
X105231882Y-72686946D01*
X105285859Y-72593454D01*
X105313278Y-72491126D01*
X105947478Y-73125326D01*
X105947478Y-73125325D01*
X105968982Y-73095729D01*
X106024311Y-73053063D01*
X106093925Y-73047084D01*
X106155720Y-73079689D01*
X106190077Y-73140528D01*
X106193300Y-73168612D01*
X106193300Y-73233069D01*
X106193301Y-73233076D01*
X106199708Y-73292683D01*
X106250002Y-73427528D01*
X106250006Y-73427535D01*
X106336252Y-73542744D01*
X106336255Y-73542747D01*
X106451464Y-73628993D01*
X106451471Y-73628997D01*
X106586317Y-73679291D01*
X106586316Y-73679291D01*
X106593244Y-73680035D01*
X106645927Y-73685700D01*
X108241672Y-73685699D01*
X108301283Y-73679291D01*
X108436131Y-73628996D01*
X108551346Y-73542746D01*
X108637596Y-73427531D01*
X108687891Y-73292683D01*
X108691916Y-73255242D01*
X108718653Y-73190694D01*
X108776045Y-73150846D01*
X108815205Y-73144500D01*
X109860857Y-73144500D01*
X109927896Y-73164185D01*
X109973651Y-73216989D01*
X109978557Y-73229483D01*
X110021586Y-73359334D01*
X110113688Y-73508656D01*
X110237744Y-73632712D01*
X110387066Y-73724814D01*
X110553603Y-73779999D01*
X110656391Y-73790500D01*
X113756408Y-73790499D01*
X113859197Y-73779999D01*
X114025734Y-73724814D01*
X114175056Y-73632712D01*
X114299112Y-73508656D01*
X114391214Y-73359334D01*
X114446399Y-73192797D01*
X114456900Y-73090009D01*
X114456899Y-71689992D01*
X114450819Y-71630477D01*
X114446399Y-71587203D01*
X114446398Y-71587200D01*
X114443256Y-71577717D01*
X114391214Y-71420666D01*
X114299112Y-71271344D01*
X114175056Y-71147288D01*
X114025734Y-71055186D01*
X113859197Y-71000001D01*
X113859195Y-71000000D01*
X113756410Y-70989500D01*
X110656398Y-70989500D01*
X110656381Y-70989501D01*
X110553603Y-71000000D01*
X110553600Y-71000001D01*
X110387068Y-71055185D01*
X110387063Y-71055187D01*
X110237742Y-71147289D01*
X110113689Y-71271342D01*
X110021587Y-71420663D01*
X110021584Y-71420670D01*
X110001925Y-71479998D01*
X109978561Y-71550505D01*
X109938791Y-71607949D01*
X109874275Y-71634772D01*
X109860857Y-71635500D01*
X108795538Y-71635500D01*
X108728499Y-71615815D01*
X108682744Y-71563011D01*
X108679356Y-71554833D01*
X108637597Y-71442871D01*
X108637593Y-71442864D01*
X108551347Y-71327655D01*
X108551344Y-71327652D01*
X108436135Y-71241406D01*
X108436128Y-71241402D01*
X108301282Y-71191108D01*
X108301283Y-71191108D01*
X108241683Y-71184701D01*
X108241681Y-71184700D01*
X108241673Y-71184700D01*
X108241664Y-71184700D01*
X106645929Y-71184700D01*
X106645923Y-71184701D01*
X106586316Y-71191108D01*
X106451471Y-71241402D01*
X106451464Y-71241406D01*
X106336255Y-71327652D01*
X106336252Y-71327655D01*
X106250006Y-71442864D01*
X106250002Y-71442871D01*
X106199708Y-71577717D01*
X106193301Y-71637316D01*
X106193300Y-71637335D01*
X106193300Y-71701784D01*
X106173615Y-71768823D01*
X106120811Y-71814578D01*
X106051653Y-71824522D01*
X105988097Y-71795497D01*
X105968982Y-71774669D01*
X105947479Y-71745073D01*
X105947477Y-71745073D01*
X105313277Y-72379273D01*
X105285859Y-72276946D01*
X105231882Y-72183454D01*
X105155546Y-72107118D01*
X105062054Y-72053141D01*
X104959725Y-72025721D01*
X105593925Y-71391520D01*
X105593925Y-71391519D01*
X105558945Y-71366105D01*
X105383635Y-71276781D01*
X105196505Y-71215978D01*
X105002182Y-71185200D01*
X104805418Y-71185200D01*
X104611094Y-71215978D01*
X104423961Y-71276782D01*
X104248663Y-71366099D01*
X104248659Y-71366102D01*
X104213673Y-71391520D01*
X104213672Y-71391520D01*
X104847875Y-72025721D01*
X104745546Y-72053141D01*
X104652054Y-72107118D01*
X104575718Y-72183454D01*
X104521741Y-72276946D01*
X104494321Y-72379274D01*
X103860120Y-71745072D01*
X103860120Y-71745073D01*
X103834702Y-71780059D01*
X103834699Y-71780063D01*
X103745382Y-71955361D01*
X103684578Y-72142494D01*
X103653800Y-72336817D01*
X102493195Y-72336817D01*
X102503670Y-59966261D01*
X102506332Y-59946117D01*
X102505839Y-59946053D01*
X102506900Y-59937994D01*
X102506900Y-56152277D01*
X102514719Y-46918377D01*
X143322300Y-46918377D01*
X143322300Y-47115222D01*
X143353090Y-47309626D01*
X143413917Y-47496829D01*
X143503276Y-47672205D01*
X143618972Y-47831446D01*
X143758154Y-47970628D01*
X143917395Y-48086324D01*
X144000255Y-48128543D01*
X144092770Y-48175682D01*
X144092772Y-48175682D01*
X144092775Y-48175684D01*
X144193117Y-48208287D01*
X144279973Y-48236509D01*
X144474378Y-48267300D01*
X144474383Y-48267300D01*
X145191222Y-48267300D01*
X145385626Y-48236509D01*
X145572825Y-48175684D01*
X145748205Y-48086324D01*
X145907446Y-47970628D01*
X146046628Y-47831446D01*
X146162324Y-47672205D01*
X146251684Y-47496825D01*
X146312509Y-47309626D01*
X146333363Y-47177958D01*
X146343300Y-47115222D01*
X146343300Y-46918377D01*
X146312509Y-46723973D01*
X146251682Y-46536770D01*
X146162323Y-46361394D01*
X146046628Y-46202154D01*
X145907446Y-46062972D01*
X145748205Y-45947276D01*
X145572829Y-45857917D01*
X145385626Y-45797090D01*
X145191222Y-45766300D01*
X145191217Y-45766300D01*
X144474383Y-45766300D01*
X144474378Y-45766300D01*
X144279973Y-45797090D01*
X144092770Y-45857917D01*
X143917394Y-45947276D01*
X143826541Y-46013285D01*
X143758154Y-46062972D01*
X143758152Y-46062974D01*
X143758151Y-46062974D01*
X143618974Y-46202151D01*
X143618974Y-46202152D01*
X143618972Y-46202154D01*
X143569285Y-46270541D01*
X143503276Y-46361394D01*
X143413917Y-46536770D01*
X143353090Y-46723973D01*
X143322300Y-46918377D01*
X102514719Y-46918377D01*
X102514723Y-46913406D01*
X102516372Y-44966558D01*
X122049799Y-44966558D01*
X122049799Y-44970202D01*
X122049799Y-45124246D01*
X122080560Y-45278889D01*
X122080563Y-45278901D01*
X122140901Y-45424572D01*
X122140908Y-45424585D01*
X122228509Y-45555688D01*
X122228512Y-45555692D01*
X122340006Y-45667186D01*
X122340010Y-45667189D01*
X122471113Y-45754790D01*
X122471126Y-45754797D01*
X122616797Y-45815135D01*
X122616802Y-45815137D01*
X122771452Y-45845899D01*
X122771455Y-45845900D01*
X122771457Y-45845900D01*
X122929143Y-45845900D01*
X122929144Y-45845899D01*
X123083796Y-45815137D01*
X123229478Y-45754794D01*
X123360588Y-45667189D01*
X123472088Y-45555689D01*
X123559693Y-45424579D01*
X123569018Y-45402066D01*
X123569021Y-45402058D01*
X147402300Y-45402058D01*
X147402300Y-45631541D01*
X147424096Y-45797090D01*
X147432252Y-45859038D01*
X147432253Y-45859040D01*
X147491642Y-46080687D01*
X147579450Y-46292676D01*
X147579457Y-46292690D01*
X147694192Y-46491417D01*
X147833881Y-46673461D01*
X147833889Y-46673470D01*
X147996130Y-46835711D01*
X147996138Y-46835718D01*
X148178182Y-46975407D01*
X148178185Y-46975408D01*
X148178188Y-46975411D01*
X148376912Y-47090144D01*
X148376917Y-47090146D01*
X148376923Y-47090149D01*
X148437443Y-47115217D01*
X148588913Y-47177958D01*
X148810562Y-47237348D01*
X149038066Y-47267300D01*
X149038073Y-47267300D01*
X149267527Y-47267300D01*
X149267534Y-47267300D01*
X149495038Y-47237348D01*
X149716687Y-47177958D01*
X149928688Y-47090144D01*
X150127412Y-46975411D01*
X150309461Y-46835719D01*
X150309465Y-46835714D01*
X150309470Y-46835711D01*
X150471711Y-46673470D01*
X150471714Y-46673465D01*
X150471719Y-46673461D01*
X150611411Y-46491412D01*
X150726144Y-46292688D01*
X150813958Y-46080687D01*
X150873348Y-45859038D01*
X150903300Y-45631534D01*
X150903300Y-45402066D01*
X150873348Y-45174562D01*
X150813958Y-44952913D01*
X150726144Y-44740912D01*
X150611411Y-44542188D01*
X150611408Y-44542185D01*
X150611407Y-44542182D01*
X150471718Y-44360138D01*
X150471711Y-44360130D01*
X150309470Y-44197889D01*
X150309461Y-44197881D01*
X150127417Y-44058192D01*
X149928690Y-43943457D01*
X149928676Y-43943450D01*
X149716687Y-43855642D01*
X149495038Y-43796252D01*
X149457015Y-43791246D01*
X149267541Y-43766300D01*
X149267534Y-43766300D01*
X149038066Y-43766300D01*
X149038058Y-43766300D01*
X148821515Y-43794809D01*
X148810562Y-43796252D01*
X148722130Y-43819947D01*
X148588912Y-43855642D01*
X148376923Y-43943450D01*
X148376909Y-43943457D01*
X148178182Y-44058192D01*
X147996138Y-44197881D01*
X147833881Y-44360138D01*
X147694192Y-44542182D01*
X147579457Y-44740909D01*
X147579450Y-44740923D01*
X147491642Y-44952912D01*
X147432253Y-45174559D01*
X147432251Y-45174570D01*
X147402300Y-45402058D01*
X123569021Y-45402058D01*
X123590355Y-45350555D01*
X123620034Y-45278901D01*
X123620036Y-45278897D01*
X123650799Y-45124242D01*
X123650799Y-44966558D01*
X123650799Y-44966555D01*
X123650798Y-44966553D01*
X123620038Y-44811911D01*
X123620035Y-44811901D01*
X123572939Y-44698199D01*
X123563500Y-44650747D01*
X123563500Y-43466814D01*
X143322800Y-43466814D01*
X143322800Y-43766800D01*
X144388240Y-43766800D01*
X144357555Y-43819947D01*
X144322800Y-43949657D01*
X144322800Y-44083943D01*
X144357555Y-44213653D01*
X144388240Y-44266800D01*
X143322800Y-44266800D01*
X143322800Y-44566785D01*
X143333293Y-44669489D01*
X143333294Y-44669496D01*
X143388441Y-44835918D01*
X143388443Y-44835923D01*
X143480484Y-44985144D01*
X143604455Y-45109115D01*
X143753676Y-45201156D01*
X143753681Y-45201158D01*
X143920103Y-45256305D01*
X143920110Y-45256306D01*
X144022814Y-45266799D01*
X144022827Y-45266800D01*
X144582800Y-45266800D01*
X144582800Y-44461360D01*
X144635947Y-44492045D01*
X144765657Y-44526800D01*
X144899943Y-44526800D01*
X145029653Y-44492045D01*
X145082800Y-44461360D01*
X145082800Y-45266800D01*
X145642773Y-45266800D01*
X145642785Y-45266799D01*
X145745489Y-45256306D01*
X145745496Y-45256305D01*
X145911918Y-45201158D01*
X145911923Y-45201156D01*
X146061144Y-45109115D01*
X146185115Y-44985144D01*
X146277156Y-44835923D01*
X146277158Y-44835918D01*
X146332305Y-44669496D01*
X146332306Y-44669489D01*
X146342799Y-44566785D01*
X146342800Y-44566772D01*
X146342800Y-44266800D01*
X145277360Y-44266800D01*
X145308045Y-44213653D01*
X145342800Y-44083943D01*
X145342800Y-43949657D01*
X145308045Y-43819947D01*
X145277360Y-43766800D01*
X146342800Y-43766800D01*
X146342800Y-43466827D01*
X146342799Y-43466814D01*
X146332306Y-43364110D01*
X146332305Y-43364103D01*
X146277158Y-43197681D01*
X146277156Y-43197676D01*
X146185115Y-43048455D01*
X146061144Y-42924484D01*
X145911923Y-42832443D01*
X145911918Y-42832441D01*
X145745496Y-42777294D01*
X145745489Y-42777293D01*
X145642785Y-42766800D01*
X145082800Y-42766800D01*
X145082800Y-43572239D01*
X145029653Y-43541555D01*
X144899943Y-43506800D01*
X144765657Y-43506800D01*
X144635947Y-43541555D01*
X144582800Y-43572239D01*
X144582800Y-42766800D01*
X144022814Y-42766800D01*
X143920110Y-42777293D01*
X143920103Y-42777294D01*
X143753681Y-42832441D01*
X143753676Y-42832443D01*
X143604455Y-42924484D01*
X143480484Y-43048455D01*
X143388443Y-43197676D01*
X143388441Y-43197681D01*
X143333294Y-43364103D01*
X143333293Y-43364110D01*
X143322800Y-43466814D01*
X123563500Y-43466814D01*
X123563500Y-42121486D01*
X123583185Y-42054447D01*
X123599819Y-42033805D01*
X123777071Y-41856553D01*
X129450700Y-41856553D01*
X129450700Y-42014246D01*
X129481461Y-42168889D01*
X129481464Y-42168901D01*
X129541802Y-42314572D01*
X129541809Y-42314585D01*
X129629410Y-42445688D01*
X129629413Y-42445692D01*
X129740907Y-42557186D01*
X129740911Y-42557189D01*
X129872014Y-42644790D01*
X129872027Y-42644797D01*
X130017698Y-42705135D01*
X130017703Y-42705137D01*
X130172353Y-42735899D01*
X130172356Y-42735900D01*
X130172358Y-42735900D01*
X130330044Y-42735900D01*
X130330045Y-42735899D01*
X130484697Y-42705137D01*
X130630379Y-42644794D01*
X130761489Y-42557189D01*
X130872989Y-42445689D01*
X130960594Y-42314579D01*
X130966391Y-42300582D01*
X130993269Y-42260354D01*
X135407764Y-37845859D01*
X135407767Y-37845858D01*
X135512860Y-37740765D01*
X135595430Y-37617189D01*
X135652306Y-37479879D01*
X135681301Y-37334111D01*
X135681301Y-36161147D01*
X135690740Y-36113694D01*
X135696538Y-36099697D01*
X135727301Y-35945042D01*
X135727301Y-35787358D01*
X135727301Y-35787355D01*
X135727300Y-35787353D01*
X135696539Y-35632710D01*
X135696538Y-35632703D01*
X135668899Y-35565977D01*
X143320300Y-35565977D01*
X143320300Y-35762822D01*
X143351090Y-35957226D01*
X143411917Y-36144429D01*
X143501276Y-36319805D01*
X143616972Y-36479046D01*
X143756154Y-36618228D01*
X143915395Y-36733924D01*
X143998255Y-36776143D01*
X144090770Y-36823282D01*
X144090772Y-36823282D01*
X144090775Y-36823284D01*
X144191117Y-36855887D01*
X144277973Y-36884109D01*
X144472378Y-36914900D01*
X144472383Y-36914900D01*
X145189222Y-36914900D01*
X145383626Y-36884109D01*
X145570825Y-36823284D01*
X145746205Y-36733924D01*
X145905446Y-36618228D01*
X146044628Y-36479046D01*
X146160324Y-36319805D01*
X146249684Y-36144425D01*
X146310509Y-35957226D01*
X146331363Y-35825558D01*
X146341300Y-35762822D01*
X146341300Y-35565977D01*
X146310509Y-35371573D01*
X146282287Y-35284717D01*
X146249684Y-35184375D01*
X146249682Y-35184372D01*
X146249682Y-35184370D01*
X146160323Y-35008994D01*
X146044628Y-34849754D01*
X145905446Y-34710572D01*
X145746205Y-34594876D01*
X145570829Y-34505517D01*
X145383626Y-34444690D01*
X145189222Y-34413900D01*
X145189217Y-34413900D01*
X144472383Y-34413900D01*
X144472378Y-34413900D01*
X144277973Y-34444690D01*
X144090770Y-34505517D01*
X143915394Y-34594876D01*
X143824541Y-34660885D01*
X143756154Y-34710572D01*
X143756152Y-34710574D01*
X143756151Y-34710574D01*
X143616974Y-34849751D01*
X143616974Y-34849752D01*
X143616972Y-34849754D01*
X143567285Y-34918141D01*
X143501276Y-35008994D01*
X143411917Y-35184370D01*
X143351090Y-35371573D01*
X143320300Y-35565977D01*
X135668899Y-35565977D01*
X135660611Y-35545967D01*
X135636198Y-35487027D01*
X135636191Y-35487014D01*
X135548590Y-35355911D01*
X135548587Y-35355907D01*
X135437093Y-35244413D01*
X135437089Y-35244410D01*
X135305986Y-35156809D01*
X135305973Y-35156802D01*
X135160302Y-35096464D01*
X135160290Y-35096461D01*
X135005646Y-35065700D01*
X135005643Y-35065700D01*
X134847959Y-35065700D01*
X134847956Y-35065700D01*
X134693311Y-35096461D01*
X134693299Y-35096464D01*
X134547628Y-35156802D01*
X134547615Y-35156809D01*
X134416512Y-35244410D01*
X134416508Y-35244413D01*
X134305014Y-35355907D01*
X134305011Y-35355911D01*
X134217410Y-35487014D01*
X134217403Y-35487027D01*
X134157065Y-35632698D01*
X134157062Y-35632710D01*
X134126301Y-35787353D01*
X134126301Y-35945046D01*
X134157062Y-36099689D01*
X134157064Y-36099697D01*
X134162862Y-36113694D01*
X134172301Y-36161147D01*
X134172301Y-36895911D01*
X134152616Y-36962950D01*
X134135982Y-36983592D01*
X129926245Y-41193328D01*
X129886022Y-41220206D01*
X129872019Y-41226006D01*
X129872018Y-41226007D01*
X129740915Y-41313607D01*
X129740907Y-41313613D01*
X129629413Y-41425107D01*
X129629410Y-41425111D01*
X129541809Y-41556214D01*
X129541802Y-41556227D01*
X129481464Y-41701898D01*
X129481461Y-41701910D01*
X129450700Y-41856553D01*
X123777071Y-41856553D01*
X124456805Y-41176819D01*
X124518128Y-41143334D01*
X124544486Y-41140500D01*
X125814785Y-41140500D01*
X125838975Y-41142882D01*
X125869259Y-41148906D01*
X125930556Y-41161100D01*
X125930558Y-41161100D01*
X126088244Y-41161100D01*
X126088245Y-41161099D01*
X126242897Y-41130337D01*
X126388579Y-41069994D01*
X126519689Y-40982389D01*
X126631189Y-40870889D01*
X126718794Y-40739779D01*
X126779137Y-40594097D01*
X126809900Y-40439442D01*
X126809900Y-40281758D01*
X126809900Y-40281755D01*
X126809899Y-40281753D01*
X126779138Y-40127110D01*
X126779137Y-40127103D01*
X126779135Y-40127098D01*
X126718797Y-39981427D01*
X126718790Y-39981414D01*
X126631189Y-39850311D01*
X126631186Y-39850307D01*
X126519692Y-39738813D01*
X126519688Y-39738810D01*
X126388585Y-39651209D01*
X126388572Y-39651202D01*
X126242901Y-39590864D01*
X126242889Y-39590861D01*
X126088245Y-39560100D01*
X126088242Y-39560100D01*
X125930558Y-39560100D01*
X125930555Y-39560100D01*
X125775910Y-39590861D01*
X125775902Y-39590863D01*
X125740002Y-39605733D01*
X125700582Y-39622061D01*
X125653132Y-39631500D01*
X124106283Y-39631500D01*
X123960527Y-39660493D01*
X123960519Y-39660495D01*
X123823208Y-39717371D01*
X123699635Y-39799939D01*
X123699634Y-39799940D01*
X123649268Y-39850307D01*
X123594541Y-39905034D01*
X123594539Y-39905036D01*
X122222943Y-41276630D01*
X122222942Y-41276631D01*
X122140368Y-41400212D01*
X122107053Y-41480642D01*
X122107053Y-41480645D01*
X122090450Y-41520731D01*
X122090449Y-41520734D01*
X122083495Y-41537519D01*
X122083493Y-41537525D01*
X122054499Y-41683285D01*
X122054499Y-41838025D01*
X122054500Y-41838046D01*
X122054500Y-44924653D01*
X122054499Y-44924679D01*
X122054499Y-44930717D01*
X122053043Y-44945492D01*
X122052980Y-44950068D01*
X122052597Y-44952487D01*
X122049799Y-44966558D01*
X102516372Y-44966558D01*
X102516377Y-44960361D01*
X102519391Y-41400212D01*
X102525614Y-34049658D01*
X147400300Y-34049658D01*
X147400300Y-34279141D01*
X147422096Y-34444690D01*
X147430252Y-34506638D01*
X147430253Y-34506640D01*
X147489642Y-34728287D01*
X147577450Y-34940276D01*
X147577457Y-34940290D01*
X147692192Y-35139017D01*
X147831881Y-35321061D01*
X147831889Y-35321070D01*
X147994130Y-35483311D01*
X147994138Y-35483318D01*
X147994139Y-35483319D01*
X148044762Y-35522164D01*
X148176182Y-35623007D01*
X148176185Y-35623008D01*
X148176188Y-35623011D01*
X148374912Y-35737744D01*
X148374917Y-35737746D01*
X148374923Y-35737749D01*
X148435443Y-35762817D01*
X148586913Y-35825558D01*
X148808562Y-35884948D01*
X149036066Y-35914900D01*
X149036073Y-35914900D01*
X149265527Y-35914900D01*
X149265534Y-35914900D01*
X149493038Y-35884948D01*
X149714687Y-35825558D01*
X149926688Y-35737744D01*
X150125412Y-35623011D01*
X150307461Y-35483319D01*
X150307465Y-35483314D01*
X150307470Y-35483311D01*
X150469711Y-35321070D01*
X150469714Y-35321065D01*
X150469719Y-35321061D01*
X150609411Y-35139012D01*
X150724144Y-34940288D01*
X150811958Y-34728287D01*
X150871348Y-34506638D01*
X150901300Y-34279134D01*
X150901300Y-34049666D01*
X150871348Y-33822162D01*
X150811958Y-33600513D01*
X150724144Y-33388512D01*
X150609411Y-33189788D01*
X150609408Y-33189785D01*
X150609407Y-33189782D01*
X150469718Y-33007738D01*
X150469711Y-33007730D01*
X150307470Y-32845489D01*
X150307461Y-32845481D01*
X150125417Y-32705792D01*
X149926690Y-32591057D01*
X149926676Y-32591050D01*
X149714687Y-32503242D01*
X149493038Y-32443852D01*
X149455015Y-32438846D01*
X149265541Y-32413900D01*
X149265534Y-32413900D01*
X149036066Y-32413900D01*
X149036058Y-32413900D01*
X148819515Y-32442409D01*
X148808562Y-32443852D01*
X148714876Y-32468954D01*
X148586912Y-32503242D01*
X148374923Y-32591050D01*
X148374909Y-32591057D01*
X148176182Y-32705792D01*
X147994138Y-32845481D01*
X147831881Y-33007738D01*
X147692192Y-33189782D01*
X147577457Y-33388509D01*
X147577450Y-33388523D01*
X147489642Y-33600512D01*
X147430253Y-33822159D01*
X147430251Y-33822170D01*
X147400300Y-34049658D01*
X102525614Y-34049658D01*
X102527253Y-32114384D01*
X143320300Y-32114384D01*
X143320300Y-33214415D01*
X143330800Y-33317195D01*
X143330801Y-33317197D01*
X143354436Y-33388523D01*
X143385986Y-33483735D01*
X143385987Y-33483737D01*
X143478086Y-33633051D01*
X143478089Y-33633055D01*
X143602144Y-33757110D01*
X143602148Y-33757113D01*
X143751462Y-33849212D01*
X143751464Y-33849213D01*
X143751466Y-33849214D01*
X143918003Y-33904399D01*
X144020792Y-33914900D01*
X144020797Y-33914900D01*
X145640803Y-33914900D01*
X145640808Y-33914900D01*
X145743597Y-33904399D01*
X145910134Y-33849214D01*
X146059455Y-33757111D01*
X146183511Y-33633055D01*
X146275614Y-33483734D01*
X146330799Y-33317197D01*
X146341300Y-33214408D01*
X146341300Y-32114392D01*
X146330799Y-32011603D01*
X146275614Y-31845066D01*
X146183511Y-31695745D01*
X146059455Y-31571689D01*
X146059451Y-31571686D01*
X145910137Y-31479587D01*
X145910135Y-31479586D01*
X145826865Y-31451993D01*
X145743597Y-31424401D01*
X145743595Y-31424400D01*
X145640815Y-31413900D01*
X145640808Y-31413900D01*
X144020792Y-31413900D01*
X144020784Y-31413900D01*
X143918004Y-31424400D01*
X143918003Y-31424401D01*
X143751464Y-31479586D01*
X143751462Y-31479587D01*
X143602148Y-31571686D01*
X143602144Y-31571689D01*
X143478089Y-31695744D01*
X143478086Y-31695748D01*
X143385987Y-31845062D01*
X143385986Y-31845064D01*
X143330801Y-32011603D01*
X143330800Y-32011604D01*
X143320300Y-32114384D01*
X102527253Y-32114384D01*
X102531652Y-26919403D01*
X124951001Y-26919403D01*
X124951001Y-30547782D01*
X124951002Y-30547797D01*
X124961401Y-30679932D01*
X125016378Y-30898119D01*
X125109429Y-31102974D01*
X125109431Y-31102978D01*
X125157985Y-31173062D01*
X127088427Y-29242621D01*
X127174250Y-29371063D01*
X127313538Y-29510351D01*
X127441979Y-29596173D01*
X125511536Y-31526615D01*
X125581622Y-31575169D01*
X125581626Y-31575171D01*
X125786481Y-31668222D01*
X126004668Y-31723199D01*
X126136810Y-31733599D01*
X129765183Y-31733599D01*
X129765198Y-31733598D01*
X129897333Y-31723199D01*
X130115520Y-31668222D01*
X130320376Y-31575171D01*
X130320380Y-31575169D01*
X130390464Y-31526614D01*
X128460022Y-29596173D01*
X128588464Y-29510351D01*
X128727752Y-29371063D01*
X128813573Y-29242621D01*
X130744015Y-31173063D01*
X130792570Y-31102979D01*
X130792572Y-31102975D01*
X130885623Y-30898119D01*
X130940600Y-30679932D01*
X130951000Y-30547796D01*
X130951000Y-26919417D01*
X130950999Y-26919402D01*
X130940600Y-26787267D01*
X130885623Y-26569080D01*
X130792572Y-26364225D01*
X130792570Y-26364221D01*
X130744016Y-26294135D01*
X128813573Y-28224577D01*
X128727752Y-28096137D01*
X128588464Y-27956849D01*
X128460022Y-27871026D01*
X130390463Y-25940584D01*
X130390463Y-25940583D01*
X130320379Y-25892030D01*
X130320375Y-25892028D01*
X130115520Y-25798977D01*
X129897333Y-25744000D01*
X129765191Y-25733600D01*
X126136818Y-25733600D01*
X126136803Y-25733601D01*
X126004668Y-25744000D01*
X125786484Y-25798977D01*
X125581624Y-25892029D01*
X125511537Y-25940584D01*
X127441979Y-27871026D01*
X127313538Y-27956849D01*
X127174250Y-28096137D01*
X127088427Y-28224578D01*
X125157985Y-26294136D01*
X125109430Y-26364223D01*
X125016378Y-26569083D01*
X124961401Y-26787267D01*
X124951001Y-26919403D01*
X102531652Y-26919403D01*
X102537759Y-19707186D01*
X146907100Y-19707186D01*
X146907100Y-19976813D01*
X146937286Y-20244719D01*
X146937288Y-20244731D01*
X146997284Y-20507594D01*
X146997287Y-20507602D01*
X147086334Y-20762082D01*
X147203314Y-21004994D01*
X147203316Y-21004997D01*
X147346762Y-21233289D01*
X147514866Y-21444085D01*
X147705515Y-21634734D01*
X147916311Y-21802838D01*
X148144603Y-21946284D01*
X148387521Y-22063267D01*
X148578649Y-22130145D01*
X148641997Y-22152312D01*
X148642005Y-22152315D01*
X148642008Y-22152315D01*
X148642009Y-22152316D01*
X148904868Y-22212312D01*
X149172787Y-22242499D01*
X149172788Y-22242500D01*
X149172791Y-22242500D01*
X149442412Y-22242500D01*
X149442412Y-22242499D01*
X149710332Y-22212312D01*
X149973191Y-22152316D01*
X150227679Y-22063267D01*
X150470597Y-21946284D01*
X150698889Y-21802838D01*
X150909685Y-21634734D01*
X151100334Y-21444085D01*
X151268438Y-21233289D01*
X151411884Y-21004997D01*
X151528867Y-20762079D01*
X151617916Y-20507591D01*
X151677912Y-20244732D01*
X151708100Y-19976809D01*
X151708100Y-19707191D01*
X151677912Y-19439268D01*
X151617916Y-19176409D01*
X151528867Y-18921921D01*
X151411884Y-18679003D01*
X151268438Y-18450711D01*
X151100334Y-18239915D01*
X150909685Y-18049266D01*
X150698889Y-17881162D01*
X150470597Y-17737716D01*
X150470594Y-17737714D01*
X150227682Y-17620734D01*
X149973202Y-17531687D01*
X149973194Y-17531684D01*
X149776046Y-17486687D01*
X149710332Y-17471688D01*
X149710328Y-17471687D01*
X149710319Y-17471686D01*
X149442413Y-17441500D01*
X149442409Y-17441500D01*
X149172791Y-17441500D01*
X149172786Y-17441500D01*
X148904880Y-17471686D01*
X148904868Y-17471688D01*
X148642005Y-17531684D01*
X148641997Y-17531687D01*
X148387517Y-17620734D01*
X148144605Y-17737714D01*
X147916312Y-17881161D01*
X147705515Y-18049265D01*
X147514865Y-18239915D01*
X147346761Y-18450712D01*
X147203314Y-18679005D01*
X147086334Y-18921917D01*
X146997287Y-19176397D01*
X146997284Y-19176405D01*
X146937288Y-19439268D01*
X146937286Y-19439280D01*
X146907100Y-19707186D01*
X102537759Y-19707186D01*
X102541336Y-15483155D01*
X102561077Y-15416134D01*
X102613920Y-15370424D01*
X102665286Y-15359263D01*
X149304898Y-15342500D01*
X149310286Y-15342617D01*
G37*
%TD.AperFunction*%
%TD*%
%TA.AperFunction,Conductor*%
%TO.N,/GLV+*%
G36*
X127961754Y-51759504D02*
G01*
X127961865Y-51759770D01*
X128948567Y-54227513D01*
X128948456Y-54236467D01*
X128947081Y-54238853D01*
X128208510Y-55228896D01*
X128200816Y-55233478D01*
X128199132Y-55233600D01*
X127702870Y-55233600D01*
X127694597Y-55230173D01*
X127693492Y-55228896D01*
X126954920Y-54238853D01*
X126952720Y-54230173D01*
X126953432Y-54227519D01*
X127940137Y-51759769D01*
X127946391Y-51753361D01*
X127955345Y-51753250D01*
X127961754Y-51759504D01*
G37*
%TD.AperFunction*%
%TD*%
M02*
