%TF.GenerationSoftware,KiCad,Pcbnew,9.0.1*%
%TF.CreationDate,2026-06-27T15:59:28+08:00*%
%TF.ProjectId,IMD_latch,494d445f-6c61-4746-9368-2e6b69636164,rev?*%
%TF.SameCoordinates,Original*%
%TF.FileFunction,Copper,L1,Top*%
%TF.FilePolarity,Positive*%
%FSLAX46Y46*%
G04 Gerber Fmt 4.6, Leading zero omitted, Abs format (unit mm)*
G04 Created by KiCad (PCBNEW 9.0.1) date 2026-06-27 15:59:28*
%MOMM*%
%LPD*%
G01*
G04 APERTURE LIST*
G04 Aperture macros list*
%AMRoundRect*
0 Rectangle with rounded corners*
0 $1 Rounding radius*
0 $2 $3 $4 $5 $6 $7 $8 $9 X,Y pos of 4 corners*
0 Add a 4 corners polygon primitive as box body*
4,1,4,$2,$3,$4,$5,$6,$7,$8,$9,$2,$3,0*
0 Add four circle primitives for the rounded corners*
1,1,$1+$1,$2,$3*
1,1,$1+$1,$4,$5*
1,1,$1+$1,$6,$7*
1,1,$1+$1,$8,$9*
0 Add four rect primitives between the rounded corners*
20,1,$1+$1,$2,$3,$4,$5,0*
20,1,$1+$1,$4,$5,$6,$7,0*
20,1,$1+$1,$6,$7,$8,$9,0*
20,1,$1+$1,$8,$9,$2,$3,0*%
%AMHorizOval*
0 Thick line with rounded ends*
0 $1 width*
0 $2 $3 position (X,Y) of the first rounded end (center of the circle)*
0 $4 $5 position (X,Y) of the second rounded end (center of the circle)*
0 Add line between two ends*
20,1,$1,$2,$3,$4,$5,0*
0 Add two circle primitives to create the rounded ends*
1,1,$1,$2,$3*
1,1,$1,$4,$5*%
%AMRotRect*
0 Rectangle, with rotation*
0 The origin of the aperture is its center*
0 $1 length*
0 $2 width*
0 $3 Rotation angle, in degrees counterclockwise*
0 Add horizontal line*
21,1,$1,$2,0,0,$3*%
G04 Aperture macros list end*
%TA.AperFunction,ComponentPad*%
%ADD10C,2.500000*%
%TD*%
%TA.AperFunction,ComponentPad*%
%ADD11C,3.000000*%
%TD*%
%TA.AperFunction,ComponentPad*%
%ADD12R,1.600000X1.600000*%
%TD*%
%TA.AperFunction,ComponentPad*%
%ADD13O,1.600000X1.600000*%
%TD*%
%TA.AperFunction,SMDPad,CuDef*%
%ADD14RoundRect,0.250000X0.450000X-0.350000X0.450000X0.350000X-0.450000X0.350000X-0.450000X-0.350000X0*%
%TD*%
%TA.AperFunction,SMDPad,CuDef*%
%ADD15RoundRect,0.250000X0.565685X0.070711X0.070711X0.565685X-0.565685X-0.070711X-0.070711X-0.565685X0*%
%TD*%
%TA.AperFunction,ComponentPad*%
%ADD16RoundRect,0.250001X-0.499999X-0.759999X0.499999X-0.759999X0.499999X0.759999X-0.499999X0.759999X0*%
%TD*%
%TA.AperFunction,ComponentPad*%
%ADD17O,1.500000X2.020000*%
%TD*%
%TA.AperFunction,SMDPad,CuDef*%
%ADD18RoundRect,0.250000X-0.350000X-0.450000X0.350000X-0.450000X0.350000X0.450000X-0.350000X0.450000X0*%
%TD*%
%TA.AperFunction,SMDPad,CuDef*%
%ADD19RoundRect,0.150000X-0.587500X-0.150000X0.587500X-0.150000X0.587500X0.150000X-0.587500X0.150000X0*%
%TD*%
%TA.AperFunction,SMDPad,CuDef*%
%ADD20RoundRect,0.250000X0.475000X-0.337500X0.475000X0.337500X-0.475000X0.337500X-0.475000X-0.337500X0*%
%TD*%
%TA.AperFunction,ComponentPad*%
%ADD21RoundRect,0.250001X0.499999X0.759999X-0.499999X0.759999X-0.499999X-0.759999X0.499999X-0.759999X0*%
%TD*%
%TA.AperFunction,SMDPad,CuDef*%
%ADD22RoundRect,0.250000X-0.574524X-0.097227X-0.097227X-0.574524X0.574524X0.097227X0.097227X0.574524X0*%
%TD*%
%TA.AperFunction,ComponentPad*%
%ADD23C,1.600000*%
%TD*%
%TA.AperFunction,ComponentPad*%
%ADD24RoundRect,0.250001X-0.759999X0.499999X-0.759999X-0.499999X0.759999X-0.499999X0.759999X0.499999X0*%
%TD*%
%TA.AperFunction,ComponentPad*%
%ADD25O,2.020000X1.500000*%
%TD*%
%TA.AperFunction,SMDPad,CuDef*%
%ADD26RoundRect,0.250000X0.325000X0.450000X-0.325000X0.450000X-0.325000X-0.450000X0.325000X-0.450000X0*%
%TD*%
%TA.AperFunction,ComponentPad*%
%ADD27RotRect,1.600000X1.600000X315.000000*%
%TD*%
%TA.AperFunction,ComponentPad*%
%ADD28HorizOval,1.600000X0.000000X0.000000X0.000000X0.000000X0*%
%TD*%
%TA.AperFunction,SMDPad,CuDef*%
%ADD29RoundRect,0.090000X0.210000X-1.040000X0.210000X1.040000X-0.210000X1.040000X-0.210000X-1.040000X0*%
%TD*%
%TA.AperFunction,SMDPad,CuDef*%
%ADD30RoundRect,0.091500X0.213500X-1.038500X0.213500X1.038500X-0.213500X1.038500X-0.213500X-1.038500X0*%
%TD*%
%TA.AperFunction,SMDPad,CuDef*%
%ADD31RoundRect,0.090000X-1.040000X-0.210000X1.040000X-0.210000X1.040000X0.210000X-1.040000X0.210000X0*%
%TD*%
%TA.AperFunction,SMDPad,CuDef*%
%ADD32RoundRect,0.091500X-1.038500X-0.213500X1.038500X-0.213500X1.038500X0.213500X-1.038500X0.213500X0*%
%TD*%
%TA.AperFunction,SMDPad,CuDef*%
%ADD33RoundRect,0.250000X-0.450000X0.350000X-0.450000X-0.350000X0.450000X-0.350000X0.450000X0.350000X0*%
%TD*%
%TA.AperFunction,ViaPad*%
%ADD34C,0.600000*%
%TD*%
%TA.AperFunction,Conductor*%
%ADD35C,0.762000*%
%TD*%
%TA.AperFunction,Conductor*%
%ADD36C,0.304800*%
%TD*%
%TA.AperFunction,Conductor*%
%ADD37C,0.508000*%
%TD*%
G04 APERTURE END LIST*
D10*
%TO.P,K1,5*%
%TO.N,Net-(D1-A)*%
X205257400Y-73329800D03*
D11*
%TO.P,K1,4*%
%TO.N,/SDC_OUT1*%
X193007400Y-73379800D03*
%TO.P,K1,3*%
%TO.N,/SDC_OUT2*%
X193057400Y-61329800D03*
D10*
%TO.P,K1,2*%
%TO.N,+12V*%
X205257400Y-61329800D03*
D11*
%TO.P,K1,1*%
%TO.N,/SDC_IN*%
X207207400Y-67379800D03*
%TD*%
D12*
%TO.P,D1,1,K*%
%TO.N,+12V*%
X214122000Y-63423801D03*
D13*
%TO.P,D1,2,A*%
%TO.N,Net-(D1-A)*%
X214122000Y-71043801D03*
%TD*%
D14*
%TO.P,R5,1*%
%TO.N,/latch*%
X195605400Y-88868000D03*
%TO.P,R5,2*%
%TO.N,Net-(Q1-G)*%
X195605400Y-86868000D03*
%TD*%
D15*
%TO.P,R7,1*%
%TO.N,Net-(D2-A)*%
X179116707Y-78405707D03*
%TO.P,R7,2*%
%TO.N,/falling edge trigger/signal_in*%
X177702493Y-76991493D03*
%TD*%
D16*
%TO.P,J5,1,Pin_1*%
%TO.N,/SDC_OUT2*%
X209750400Y-51587400D03*
D17*
%TO.P,J5,2,Pin_2*%
%TO.N,/SDC_IN*%
X212750400Y-51587400D03*
%TD*%
D18*
%TO.P,R10,1*%
%TO.N,/IMD_MHS*%
X218887800Y-94589600D03*
%TO.P,R10,2*%
%TO.N,Net-(D4-A)*%
X220887800Y-94589600D03*
%TD*%
D19*
%TO.P,Q1,1,G*%
%TO.N,Net-(Q1-G)*%
X202341000Y-86827700D03*
%TO.P,Q1,2,S*%
%TO.N,GND*%
X202341000Y-88727700D03*
%TO.P,Q1,3,D*%
%TO.N,Net-(D1-A)*%
X204216000Y-87777700D03*
%TD*%
D20*
%TO.P,C2,1*%
%TO.N,+12V*%
X167304800Y-72593100D03*
%TO.P,C2,2*%
%TO.N,GND*%
X167304800Y-70518100D03*
%TD*%
D21*
%TO.P,J3,1,Pin_1*%
%TO.N,/IMD_OKHS*%
X211762600Y-100736400D03*
D17*
%TO.P,J3,2,Pin_2*%
X208762600Y-100736400D03*
%TD*%
D14*
%TO.P,R6,1*%
%TO.N,/falling edge trigger/signal_in*%
X177469800Y-73507600D03*
%TO.P,R6,2*%
%TO.N,GND*%
X177469800Y-71507600D03*
%TD*%
D22*
%TO.P,C1,1*%
%TO.N,Net-(D2-A)*%
X181181177Y-80597177D03*
%TO.P,C1,2*%
%TO.N,GND*%
X182648423Y-82064423D03*
%TD*%
D20*
%TO.P,C5,1*%
%TO.N,+12V*%
X185877200Y-91867900D03*
%TO.P,C5,2*%
%TO.N,GND*%
X185877200Y-89792900D03*
%TD*%
D12*
%TO.P,C4,1*%
%TO.N,+12V*%
X190201975Y-96574600D03*
D23*
%TO.P,C4,2*%
%TO.N,/error latch with power cycle reset/_reset*%
X192201975Y-96574600D03*
%TD*%
D24*
%TO.P,J1,1,Pin_1*%
%TO.N,+12V*%
X225323400Y-62074800D03*
D25*
%TO.P,J1,2,Pin_2*%
X225323400Y-65074800D03*
%TD*%
D26*
%TO.P,D4,1,K*%
%TO.N,GND*%
X225425000Y-94589600D03*
%TO.P,D4,2,A*%
%TO.N,Net-(D4-A)*%
X223375002Y-94589600D03*
%TD*%
D27*
%TO.P,D2,1,K*%
%TO.N,/falling edge trigger/signal_in*%
X180287524Y-72845524D03*
D28*
%TO.P,D2,2,A*%
%TO.N,Net-(D2-A)*%
X185675678Y-78233678D03*
%TD*%
D29*
%TO.P,U2,1*%
%TO.N,/IMD_OKHS*%
X167228600Y-81313000D03*
%TO.P,U2,2*%
X168498600Y-81313000D03*
%TO.P,U2,3*%
%TO.N,/error latch with power cycle reset/signal_in*%
X169768600Y-81313000D03*
%TO.P,U2,4*%
%TO.N,Net-(U2-Pad12)*%
X171038600Y-81313000D03*
%TO.P,U2,5*%
%TO.N,Net-(U2-Pad10)*%
X172308600Y-81313000D03*
%TO.P,U2,6*%
%TO.N,Net-(D2-A)*%
X173578600Y-81313000D03*
%TO.P,U2,7,VSS*%
%TO.N,GND*%
X174848600Y-81313000D03*
%TO.P,U2,8*%
%TO.N,/falling edge trigger/signal_in*%
X174848600Y-76073000D03*
D30*
%TO.P,U2,9*%
X173583600Y-76073000D03*
D29*
%TO.P,U2,10*%
%TO.N,Net-(U2-Pad10)*%
X172308600Y-76073000D03*
%TO.P,U2,11*%
%TO.N,/error latch with power cycle reset/_reset*%
X171038600Y-76073000D03*
%TO.P,U2,12*%
%TO.N,Net-(U2-Pad12)*%
X169768600Y-76073000D03*
%TO.P,U2,13*%
X168498600Y-76073000D03*
%TO.P,U2,14,VDD*%
%TO.N,+12V*%
X167228600Y-76073000D03*
%TD*%
D24*
%TO.P,J6,1,Pin_1*%
%TO.N,GND*%
X225357400Y-73607800D03*
D25*
%TO.P,J6,2,Pin_2*%
X225357400Y-76607800D03*
%TD*%
D24*
%TO.P,J8,1,Pin_1*%
%TO.N,/IMD_MHS*%
X225357400Y-85393400D03*
D25*
%TO.P,J8,2,Pin_2*%
%TO.N,/IMD_OKHS*%
X225357400Y-88393400D03*
%TD*%
D31*
%TO.P,U1,1*%
%TO.N,Net-(U1-Pad1)*%
X180662400Y-94437200D03*
%TO.P,U1,2*%
%TO.N,/latch*%
X180662400Y-95707200D03*
%TO.P,U1,3*%
%TO.N,Net-(U1-Pad3)*%
X180662400Y-96977200D03*
%TO.P,U1,4*%
%TO.N,/latch*%
X180662400Y-98247200D03*
%TO.P,U1,5*%
%TO.N,Net-(U1-Pad3)*%
X180662400Y-99517200D03*
%TO.P,U1,6*%
%TO.N,/error latch with power cycle reset/_reset*%
X180662400Y-100787200D03*
%TO.P,U1,7,VSS*%
%TO.N,GND*%
X180662400Y-102057200D03*
%TO.P,U1,8*%
%TO.N,/latch*%
X185902400Y-102057200D03*
D32*
%TO.P,U1,9*%
%TO.N,/error latch with power cycle reset/signal_in*%
X185902400Y-100792200D03*
D31*
%TO.P,U1,10*%
%TO.N,Net-(U1-Pad10)*%
X185902400Y-99517200D03*
%TO.P,U1,11*%
%TO.N,Net-(U1-Pad1)*%
X185902400Y-98247200D03*
%TO.P,U1,12*%
%TO.N,Net-(U1-Pad10)*%
X185902400Y-96977200D03*
%TO.P,U1,13*%
X185902400Y-95707200D03*
%TO.P,U1,14,VDD*%
%TO.N,+12V*%
X185902400Y-94437200D03*
%TD*%
D33*
%TO.P,R2,1*%
%TO.N,Net-(Q1-G)*%
X199085200Y-86868000D03*
%TO.P,R2,2*%
%TO.N,GND*%
X199085200Y-88868000D03*
%TD*%
D16*
%TO.P,J4,1,Pin_1*%
%TO.N,/SDC_OUT1*%
X194535800Y-51485800D03*
D17*
%TO.P,J4,2,Pin_2*%
%TO.N,/SDC_IN*%
X197535800Y-51485800D03*
%TD*%
D16*
%TO.P,J2,1,Pin_1*%
%TO.N,/falling edge trigger/signal_in*%
X179805200Y-51451800D03*
D17*
%TO.P,J2,2,Pin_2*%
%TO.N,+12V*%
X182805200Y-51451800D03*
%TD*%
D34*
%TO.N,GND*%
X204343000Y-51536600D03*
X202311000Y-53111400D03*
X209829400Y-60553600D03*
X209143600Y-54635400D03*
X221538800Y-78333600D03*
X220345000Y-73355200D03*
X225323400Y-71399400D03*
X222351600Y-71399400D03*
X213690200Y-75082400D03*
X218033600Y-100863400D03*
X201447400Y-97256600D03*
X195580000Y-64592200D03*
X191566800Y-65481200D03*
X170738800Y-65151000D03*
X167970200Y-65176400D03*
X174625000Y-62788800D03*
X171805600Y-62814200D03*
X168198800Y-62915800D03*
X174015400Y-60375800D03*
X171373800Y-60426600D03*
X168427400Y-60452000D03*
X193852800Y-91694000D03*
X193649600Y-77038200D03*
X193827400Y-85496400D03*
X186563000Y-82651600D03*
X205742300Y-91155900D03*
X200992500Y-91054300D03*
X211709000Y-68503800D03*
X199872600Y-62661800D03*
X195859400Y-58013600D03*
X192227200Y-58064400D03*
X188696600Y-51917600D03*
X185445400Y-59156600D03*
X186740800Y-70637400D03*
X185216800Y-67360800D03*
X199136000Y-74549000D03*
X170535600Y-105130600D03*
X165455600Y-104902000D03*
X163855400Y-101650800D03*
X172872400Y-102031800D03*
X170408600Y-97536000D03*
X166446200Y-97561400D03*
X220472000Y-100406200D03*
X220751400Y-103505000D03*
X223164400Y-105003600D03*
X225602800Y-104825800D03*
X227863400Y-103809800D03*
X228219000Y-101041200D03*
X225907600Y-98374200D03*
X222478600Y-98475800D03*
X165760400Y-54279800D03*
X170840400Y-53543200D03*
X164007800Y-51765200D03*
X168529000Y-54965600D03*
X171450000Y-50622200D03*
X169976800Y-48158400D03*
X166014400Y-48437800D03*
X224053400Y-47675800D03*
X228117400Y-51917600D03*
X227634800Y-48133000D03*
X227965000Y-55295800D03*
X222885000Y-55727600D03*
X219633800Y-54457600D03*
X219481400Y-50901600D03*
X219964000Y-47574200D03*
X215874600Y-47371000D03*
X198424800Y-47675800D03*
X192379600Y-47701200D03*
X186740800Y-47752000D03*
X178816000Y-47371000D03*
X173507400Y-47625000D03*
X217576400Y-73304400D03*
X216357200Y-104571800D03*
X209092800Y-104648000D03*
X203454000Y-104546400D03*
X203327000Y-100482400D03*
X209626200Y-57429400D03*
X206527400Y-57505600D03*
X215925400Y-67030600D03*
X218998800Y-67030600D03*
X218617800Y-57835800D03*
X216357200Y-57988200D03*
X214350600Y-78282800D03*
X218922600Y-83388200D03*
X213842600Y-83388200D03*
X208965800Y-83642200D03*
X218719400Y-78155800D03*
X210185000Y-78435200D03*
X200990200Y-78282800D03*
X195986400Y-78359000D03*
X198755000Y-70612000D03*
X197662800Y-66497200D03*
X201803000Y-70535800D03*
X196062600Y-70535800D03*
X200837800Y-66471800D03*
X194335400Y-66497200D03*
X181178200Y-90068400D03*
X177723800Y-81534000D03*
X167690800Y-78816200D03*
X175234600Y-72161400D03*
X173685200Y-73685400D03*
X178181000Y-66675000D03*
X184810400Y-63804800D03*
X188925200Y-81102200D03*
X188874400Y-86233000D03*
X185293000Y-86182200D03*
X180695600Y-86156800D03*
X176657000Y-84455000D03*
X198501000Y-100711000D03*
X195402200Y-104902000D03*
X186893200Y-104825800D03*
X178511200Y-104800400D03*
X174777400Y-102819200D03*
X175107600Y-100152200D03*
X174421800Y-96316800D03*
X169875200Y-93675200D03*
X165989000Y-90805000D03*
X208356200Y-94107000D03*
X204114400Y-94183200D03*
X199263000Y-94208600D03*
X208508600Y-91211400D03*
X203581000Y-91008200D03*
X198932800Y-91262200D03*
X216814400Y-97459800D03*
X214274400Y-97485200D03*
X216712800Y-94234000D03*
X214325200Y-94335600D03*
X218287600Y-92227400D03*
X214655400Y-92329000D03*
X219532200Y-90449400D03*
X216535000Y-90474800D03*
X174218600Y-58039000D03*
X171221400Y-58064400D03*
X167741600Y-58115200D03*
X176657000Y-57912000D03*
X176631600Y-60020200D03*
X176555400Y-62712600D03*
X174447200Y-64617600D03*
X172339000Y-66522600D03*
X170180000Y-68224400D03*
X167640000Y-68249800D03*
X164922200Y-68249800D03*
X164973000Y-66522600D03*
X165074600Y-64439800D03*
X165049200Y-62153800D03*
X165125400Y-60147200D03*
X165150800Y-58293000D03*
%TO.N,/error latch with power cycle reset/signal_in*%
X183603900Y-99428300D03*
X177317600Y-89992000D03*
%TO.N,/IMD_OKHS*%
X168427400Y-83972400D03*
%TO.N,/error latch with power cycle reset/_reset*%
X193421000Y-103555800D03*
%TD*%
D35*
%TO.N,Net-(D1-A)*%
X205208900Y-81714100D02*
X205206600Y-81711800D01*
X205208900Y-87472900D02*
X205208900Y-81714100D01*
D36*
%TO.N,/latch*%
X185927800Y-102082600D02*
X193624200Y-102082600D01*
X193624200Y-102082600D02*
X195605400Y-100101400D01*
X185902400Y-102057200D02*
X185927800Y-102082600D01*
X195605400Y-100101400D02*
X195605400Y-88868000D01*
%TO.N,/error latch with power cycle reset/signal_in*%
X183603900Y-99428300D02*
X184967800Y-100792200D01*
X184967800Y-100792200D02*
X185902400Y-100792200D01*
%TO.N,/latch*%
X184683400Y-102057200D02*
X185902400Y-102057200D01*
X182473600Y-98939204D02*
X182473600Y-99847400D01*
X182473600Y-99847400D02*
X184683400Y-102057200D01*
X181781596Y-98247200D02*
X182473600Y-98939204D01*
X180662400Y-98247200D02*
X181781596Y-98247200D01*
D37*
%TO.N,/error latch with power cycle reset/_reset*%
X181864000Y-100787200D02*
X180662400Y-100787200D01*
X184632600Y-103555800D02*
X181864000Y-100787200D01*
X193421000Y-103555800D02*
X184632600Y-103555800D01*
D36*
%TO.N,/latch*%
X182041800Y-98247200D02*
X180662400Y-98247200D01*
X182448200Y-97840800D02*
X182041800Y-98247200D01*
X181940200Y-95758000D02*
X182448200Y-96266000D01*
X180713200Y-95758000D02*
X181940200Y-95758000D01*
X180662400Y-95707200D02*
X180713200Y-95758000D01*
X182448200Y-96266000D02*
X182448200Y-97840800D01*
%TO.N,Net-(U1-Pad1)*%
X184353200Y-98247200D02*
X185902400Y-98247200D01*
X183997600Y-95732600D02*
X183997600Y-97891600D01*
X180687800Y-94462600D02*
X182727600Y-94462600D01*
X180662400Y-94437200D02*
X180687800Y-94462600D01*
X182727600Y-94462600D02*
X183997600Y-95732600D01*
X183997600Y-97891600D02*
X184353200Y-98247200D01*
%TO.N,Net-(U1-Pad3)*%
X179273200Y-96977200D02*
X180662400Y-96977200D01*
X178892200Y-99085400D02*
X178892200Y-97358200D01*
X180662400Y-99517200D02*
X179324000Y-99517200D01*
X179324000Y-99517200D02*
X178892200Y-99085400D01*
X178892200Y-97358200D02*
X179273200Y-96977200D01*
D37*
%TO.N,Net-(D2-A)*%
X173578600Y-79761000D02*
X173578600Y-81313000D01*
X178477614Y-79044800D02*
X174294800Y-79044800D01*
X174294800Y-79044800D02*
X173578600Y-79761000D01*
X179116707Y-78405707D02*
X178477614Y-79044800D01*
D36*
%TO.N,Net-(U1-Pad10)*%
X187325000Y-96977200D02*
X185902400Y-96977200D01*
X187756800Y-99136200D02*
X187756800Y-97409000D01*
X185902400Y-99517200D02*
X187375800Y-99517200D01*
X187375800Y-99517200D02*
X187756800Y-99136200D01*
X187756800Y-97409000D02*
X187325000Y-96977200D01*
X185902400Y-96977200D02*
X185902400Y-95707200D01*
%TO.N,/error latch with power cycle reset/signal_in*%
X169768600Y-82442999D02*
X169768600Y-81313000D01*
X177317600Y-89992000D02*
X169768600Y-82442999D01*
%TO.N,/IMD_MHS*%
X227584000Y-86080600D02*
X226896800Y-85393400D01*
X227584000Y-89509600D02*
X227584000Y-86080600D01*
X226896800Y-85393400D02*
X225357400Y-85393400D01*
X226441000Y-90652600D02*
X227584000Y-89509600D01*
X218887800Y-94589600D02*
X222824800Y-90652600D01*
X222824800Y-90652600D02*
X226441000Y-90652600D01*
%TO.N,Net-(D4-A)*%
X223375002Y-94589600D02*
X220887800Y-94589600D01*
%TO.N,/IMD_OKHS*%
X215466800Y-88393400D02*
X225357400Y-88393400D01*
X211762600Y-92097600D02*
X215466800Y-88393400D01*
X211762600Y-100736400D02*
X211762600Y-92097600D01*
X211762600Y-100736400D02*
X208762600Y-100736400D01*
X168498600Y-83901200D02*
X168427400Y-83972400D01*
X168498600Y-81313000D02*
X168498600Y-83901200D01*
D37*
%TO.N,/error latch with power cycle reset/_reset*%
X192201975Y-79171975D02*
X192201975Y-96574600D01*
X181508400Y-68478400D02*
X192201975Y-79171975D01*
X176631600Y-68478400D02*
X181508400Y-68478400D01*
X171038600Y-76073000D02*
X171038600Y-74071400D01*
X171038600Y-74071400D02*
X176631600Y-68478400D01*
D35*
%TO.N,Net-(D1-A)*%
X205206600Y-73380600D02*
X205206600Y-81711800D01*
X205208900Y-87472900D02*
X204904100Y-87777700D01*
X205257400Y-73329800D02*
X205206600Y-73380600D01*
X204904100Y-87777700D02*
X204216000Y-87777700D01*
D36*
%TO.N,/IMD_OKHS*%
X168498600Y-81313000D02*
X167228600Y-81313000D01*
%TO.N,Net-(U2-Pad10)*%
X172308600Y-81313000D02*
X172308600Y-76073000D01*
%TO.N,Net-(U2-Pad12)*%
X171043600Y-78816200D02*
X171038600Y-78821200D01*
X171038600Y-78821200D02*
X171038600Y-81313000D01*
X169768600Y-77541200D02*
X171043600Y-78816200D01*
X169768600Y-76073000D02*
X169768600Y-77541200D01*
X168498600Y-76073000D02*
X169768600Y-76073000D01*
D37*
%TO.N,/falling edge trigger/signal_in*%
X174848600Y-76073000D02*
X176784000Y-76073000D01*
X176784000Y-76073000D02*
X177702493Y-76991493D01*
X174848600Y-76073000D02*
X173583600Y-76073000D01*
X179625448Y-73507600D02*
X180287524Y-72845524D01*
X177469800Y-73507600D02*
X179625448Y-73507600D01*
X176377600Y-73507600D02*
X177469800Y-73507600D01*
X174848600Y-75036600D02*
X176377600Y-73507600D01*
X174848600Y-75036600D02*
X174848600Y-76073000D01*
%TO.N,Net-(D2-A)*%
X179116707Y-78507307D02*
X181181177Y-80571777D01*
X181181177Y-80571777D02*
X181181177Y-80597177D01*
X179116707Y-78405707D02*
X179116707Y-78507307D01*
X183691122Y-78233678D02*
X185675678Y-78233678D01*
X181181177Y-80597177D02*
X181327623Y-80597177D01*
X181327623Y-80597177D02*
X183691122Y-78233678D01*
D35*
%TO.N,Net-(Q1-G)*%
X202300700Y-86868000D02*
X202341000Y-86827700D01*
X199085200Y-86868000D02*
X202300700Y-86868000D01*
X195605400Y-86868000D02*
X199085200Y-86868000D01*
%TO.N,/SDC_OUT2*%
X207238600Y-51587400D02*
X209750400Y-51587400D01*
X197496200Y-61329800D02*
X207238600Y-51587400D01*
X193057400Y-61329800D02*
X197496200Y-61329800D01*
%TO.N,/SDC_IN*%
X212750400Y-61836800D02*
X212750400Y-51587400D01*
X207207400Y-67379800D02*
X212750400Y-61836800D01*
%TO.N,/SDC_OUT1*%
X188569600Y-68942000D02*
X193007400Y-73379800D01*
X194535800Y-51485800D02*
X188569600Y-57452000D01*
X188569600Y-57452000D02*
X188569600Y-68942000D01*
%TO.N,Net-(D1-A)*%
X211836001Y-73329800D02*
X214122000Y-71043801D01*
X205257400Y-73329800D02*
X211836001Y-73329800D01*
%TO.N,+12V*%
X167304800Y-72593100D02*
X167304800Y-75996800D01*
X167304800Y-75996800D02*
X167228600Y-76073000D01*
X185902500Y-92049700D02*
X185902400Y-92049800D01*
X172491400Y-91948000D02*
X185902500Y-91948000D01*
X185902400Y-92049800D02*
X185902400Y-94437200D01*
X164795200Y-84251800D02*
X172491400Y-91948000D01*
X164795200Y-74117200D02*
X164795200Y-84251800D01*
X185902500Y-91948000D02*
X185902500Y-92049700D01*
X166319300Y-72593100D02*
X164795200Y-74117200D01*
X167304800Y-72593100D02*
X166319300Y-72593100D01*
X190201975Y-93021575D02*
X190201975Y-96574600D01*
X189048300Y-91867900D02*
X190201975Y-93021575D01*
X185877200Y-91867900D02*
X189048300Y-91867900D01*
X167355700Y-72644000D02*
X167304800Y-72593100D01*
X169646600Y-72644000D02*
X167355700Y-72644000D01*
X182805200Y-59485400D02*
X169646600Y-72644000D01*
X182805200Y-51451800D02*
X182805200Y-59485400D01*
%TD*%
%TA.AperFunction,Conductor*%
%TO.N,GND*%
G36*
X181211552Y-69252585D02*
G01*
X181232194Y-69269219D01*
X191411156Y-79448180D01*
X191444641Y-79509503D01*
X191447475Y-79535861D01*
X191447475Y-95235173D01*
X191427790Y-95302212D01*
X191374986Y-95347967D01*
X191305828Y-95357911D01*
X191274020Y-95348884D01*
X191260745Y-95343110D01*
X191244306Y-95330804D01*
X191161061Y-95299755D01*
X191158020Y-95298433D01*
X191133643Y-95278073D01*
X191108208Y-95259033D01*
X191107014Y-95255832D01*
X191104394Y-95253644D01*
X191094891Y-95223331D01*
X191083791Y-95193568D01*
X191083563Y-95187190D01*
X191083495Y-95186973D01*
X191083548Y-95186777D01*
X191083475Y-95184722D01*
X191083475Y-92934758D01*
X191083474Y-92934747D01*
X191082767Y-92931192D01*
X191082767Y-92931191D01*
X191056422Y-92798749D01*
X191049600Y-92764451D01*
X190995029Y-92632707D01*
X190995028Y-92632704D01*
X190990434Y-92621615D01*
X190983150Y-92604028D01*
X190886681Y-92459652D01*
X190763898Y-92336869D01*
X190508239Y-92081210D01*
X189610227Y-91183196D01*
X189610226Y-91183195D01*
X189465843Y-91086722D01*
X189305428Y-91020277D01*
X189305418Y-91020274D01*
X189135123Y-90986400D01*
X189135121Y-90986400D01*
X189135120Y-90986400D01*
X186920930Y-90986400D01*
X186896342Y-90979180D01*
X186870928Y-90975872D01*
X186860299Y-90968596D01*
X186853891Y-90966715D01*
X186840985Y-90957188D01*
X186836968Y-90953800D01*
X186820856Y-90937688D01*
X186809721Y-90930820D01*
X186802695Y-90924894D01*
X186788286Y-90903118D01*
X186770818Y-90883697D01*
X186769312Y-90874441D01*
X186764140Y-90866625D01*
X186763791Y-90840511D01*
X186759597Y-90814734D01*
X186763332Y-90806137D01*
X186763207Y-90796762D01*
X186777033Y-90774602D01*
X186787440Y-90750652D01*
X186797319Y-90742092D01*
X186800194Y-90737485D01*
X186805571Y-90734941D01*
X186817548Y-90724565D01*
X186820542Y-90722718D01*
X186944515Y-90598745D01*
X187036556Y-90449524D01*
X187036558Y-90449519D01*
X187091705Y-90283097D01*
X187091706Y-90283090D01*
X187102199Y-90180386D01*
X187102200Y-90180373D01*
X187102200Y-90042900D01*
X184652201Y-90042900D01*
X184652201Y-90180386D01*
X184662694Y-90283097D01*
X184717841Y-90449519D01*
X184717843Y-90449524D01*
X184809884Y-90598745D01*
X184933855Y-90722716D01*
X184933859Y-90722719D01*
X184936856Y-90724568D01*
X184938479Y-90726372D01*
X184939523Y-90727198D01*
X184939381Y-90727376D01*
X184983581Y-90776516D01*
X184994802Y-90845479D01*
X184966959Y-90909561D01*
X184936861Y-90935641D01*
X184933549Y-90937683D01*
X184841050Y-91030182D01*
X184779726Y-91063666D01*
X184753369Y-91066500D01*
X172907891Y-91066500D01*
X172840852Y-91046815D01*
X172820210Y-91030181D01*
X165713019Y-83922989D01*
X165679534Y-83861666D01*
X165676700Y-83835308D01*
X165676700Y-74533692D01*
X165696385Y-74466653D01*
X165713019Y-74446011D01*
X166211619Y-73947411D01*
X166272942Y-73913926D01*
X166342634Y-73918910D01*
X166398567Y-73960782D01*
X166422984Y-74026246D01*
X166423300Y-74035092D01*
X166423300Y-75689031D01*
X166413861Y-75736483D01*
X166380977Y-75815871D01*
X166380974Y-75815881D01*
X166347100Y-75986176D01*
X166347100Y-75986179D01*
X166347100Y-76159821D01*
X166347100Y-76159823D01*
X166347099Y-76159823D01*
X166380974Y-76330117D01*
X166380976Y-76330125D01*
X166418661Y-76421104D01*
X166428100Y-76468556D01*
X166428100Y-77151703D01*
X166443296Y-77267142D01*
X166443299Y-77267151D01*
X166492719Y-77386462D01*
X166502800Y-77410798D01*
X166597451Y-77534149D01*
X166720802Y-77628800D01*
X166864449Y-77688301D01*
X166979899Y-77703500D01*
X167477300Y-77703499D01*
X167477303Y-77703499D01*
X167592742Y-77688303D01*
X167592746Y-77688301D01*
X167592751Y-77688301D01*
X167736398Y-77628800D01*
X167788114Y-77589116D01*
X167853281Y-77563922D01*
X167921726Y-77577960D01*
X167939083Y-77589114D01*
X167943592Y-77592574D01*
X167990800Y-77628799D01*
X167990802Y-77628800D01*
X168134449Y-77688301D01*
X168249899Y-77703500D01*
X168747300Y-77703499D01*
X168747303Y-77703499D01*
X168862742Y-77688303D01*
X168862746Y-77688301D01*
X168862751Y-77688301D01*
X168972068Y-77643019D01*
X169041538Y-77635551D01*
X169104017Y-77666826D01*
X169139015Y-77725813D01*
X169139022Y-77725811D01*
X169139030Y-77725838D01*
X169139669Y-77726915D01*
X169140594Y-77730994D01*
X169140792Y-77731647D01*
X169185538Y-77839674D01*
X169190008Y-77850464D01*
X169261459Y-77957400D01*
X169261462Y-77957404D01*
X169261463Y-77957405D01*
X170349381Y-79045321D01*
X170382866Y-79106644D01*
X170385700Y-79133002D01*
X170385700Y-79616894D01*
X170366015Y-79683933D01*
X170313211Y-79729688D01*
X170244053Y-79739632D01*
X170214248Y-79731456D01*
X170182177Y-79718172D01*
X170132751Y-79697699D01*
X170132748Y-79697698D01*
X170132749Y-79697698D01*
X170017301Y-79682500D01*
X169519896Y-79682500D01*
X169404457Y-79697696D01*
X169404448Y-79697699D01*
X169260804Y-79757198D01*
X169260801Y-79757200D01*
X169209086Y-79796883D01*
X169143917Y-79822077D01*
X169075472Y-79808039D01*
X169058114Y-79796883D01*
X169006398Y-79757200D01*
X169006395Y-79757198D01*
X168862751Y-79697699D01*
X168862749Y-79697698D01*
X168747301Y-79682500D01*
X168249896Y-79682500D01*
X168134457Y-79697696D01*
X168134448Y-79697699D01*
X167990804Y-79757198D01*
X167990801Y-79757200D01*
X167939086Y-79796883D01*
X167873917Y-79822077D01*
X167805472Y-79808039D01*
X167788114Y-79796883D01*
X167736398Y-79757200D01*
X167736395Y-79757198D01*
X167592751Y-79697699D01*
X167592749Y-79697698D01*
X167477301Y-79682500D01*
X166979896Y-79682500D01*
X166864457Y-79697696D01*
X166864448Y-79697699D01*
X166720805Y-79757198D01*
X166720802Y-79757199D01*
X166720802Y-79757200D01*
X166654548Y-79808039D01*
X166597451Y-79851851D01*
X166502798Y-79975205D01*
X166443299Y-80118848D01*
X166443298Y-80118850D01*
X166428100Y-80234298D01*
X166428100Y-82391703D01*
X166443296Y-82507142D01*
X166443299Y-82507151D01*
X166502693Y-82650541D01*
X166502800Y-82650798D01*
X166597451Y-82774149D01*
X166720802Y-82868800D01*
X166864449Y-82928301D01*
X166979899Y-82943500D01*
X167477300Y-82943499D01*
X167477303Y-82943499D01*
X167592742Y-82928303D01*
X167592746Y-82928301D01*
X167592751Y-82928301D01*
X167674247Y-82894544D01*
X167743717Y-82887075D01*
X167806196Y-82918350D01*
X167841848Y-82978439D01*
X167845700Y-83009105D01*
X167845700Y-83370659D01*
X167826015Y-83437698D01*
X167809381Y-83458340D01*
X167805613Y-83462107D01*
X167805610Y-83462111D01*
X167718009Y-83593214D01*
X167718002Y-83593227D01*
X167657664Y-83738898D01*
X167657661Y-83738910D01*
X167626900Y-83893553D01*
X167626900Y-84051246D01*
X167657661Y-84205889D01*
X167657664Y-84205901D01*
X167718002Y-84351572D01*
X167718009Y-84351585D01*
X167805610Y-84482688D01*
X167805613Y-84482692D01*
X167917107Y-84594186D01*
X167917111Y-84594189D01*
X168048214Y-84681790D01*
X168048227Y-84681797D01*
X168190202Y-84740604D01*
X168193903Y-84742137D01*
X168348553Y-84772899D01*
X168348556Y-84772900D01*
X168348558Y-84772900D01*
X168506244Y-84772900D01*
X168506245Y-84772899D01*
X168660897Y-84742137D01*
X168806579Y-84681794D01*
X168937689Y-84594189D01*
X169049189Y-84482689D01*
X169136794Y-84351579D01*
X169197137Y-84205897D01*
X169227900Y-84051242D01*
X169227900Y-83893558D01*
X169227900Y-83893555D01*
X169227899Y-83893553D01*
X169197139Y-83738911D01*
X169197136Y-83738901D01*
X169160939Y-83651512D01*
X169151500Y-83604060D01*
X169151500Y-83048601D01*
X169171185Y-82981562D01*
X169223989Y-82935807D01*
X169293147Y-82925863D01*
X169356703Y-82954888D01*
X169363181Y-82960920D01*
X176501426Y-90099166D01*
X176534911Y-90160489D01*
X176535362Y-90162655D01*
X176547861Y-90225491D01*
X176547863Y-90225499D01*
X176608202Y-90371172D01*
X176608209Y-90371185D01*
X176695810Y-90502288D01*
X176695813Y-90502292D01*
X176807307Y-90613786D01*
X176807311Y-90613789D01*
X176938414Y-90701390D01*
X176938427Y-90701397D01*
X177036675Y-90742092D01*
X177084103Y-90761737D01*
X177228206Y-90790401D01*
X177238753Y-90792499D01*
X177238756Y-90792500D01*
X177238758Y-90792500D01*
X177396444Y-90792500D01*
X177396445Y-90792499D01*
X177551097Y-90761737D01*
X177696779Y-90701394D01*
X177827889Y-90613789D01*
X177939389Y-90502289D01*
X178026994Y-90371179D01*
X178087337Y-90225497D01*
X178118100Y-90070842D01*
X178118100Y-89913158D01*
X178118100Y-89913155D01*
X178118099Y-89913153D01*
X178115951Y-89902356D01*
X178087337Y-89758503D01*
X178063123Y-89700044D01*
X178026997Y-89612827D01*
X178026990Y-89612814D01*
X177939388Y-89481709D01*
X177863092Y-89405413D01*
X184652200Y-89405413D01*
X184652200Y-89542900D01*
X185627200Y-89542900D01*
X186127200Y-89542900D01*
X187102199Y-89542900D01*
X187102199Y-89405428D01*
X187102198Y-89405413D01*
X187091705Y-89302702D01*
X187036558Y-89136280D01*
X187036556Y-89136275D01*
X186944515Y-88987054D01*
X186820545Y-88863084D01*
X186671324Y-88771043D01*
X186671319Y-88771041D01*
X186504897Y-88715894D01*
X186504890Y-88715893D01*
X186402186Y-88705400D01*
X186127200Y-88705400D01*
X186127200Y-89542900D01*
X185627200Y-89542900D01*
X185627200Y-88705400D01*
X185352229Y-88705400D01*
X185352212Y-88705401D01*
X185249502Y-88715894D01*
X185083080Y-88771041D01*
X185083075Y-88771043D01*
X184933854Y-88863084D01*
X184809884Y-88987054D01*
X184717843Y-89136275D01*
X184717841Y-89136280D01*
X184662694Y-89302702D01*
X184662693Y-89302709D01*
X184652200Y-89405413D01*
X177863092Y-89405413D01*
X177827892Y-89370213D01*
X177827888Y-89370210D01*
X177696785Y-89282609D01*
X177696772Y-89282602D01*
X177551099Y-89222263D01*
X177551091Y-89222261D01*
X177488255Y-89209762D01*
X177426344Y-89177377D01*
X177424766Y-89175826D01*
X171374516Y-83125575D01*
X171364593Y-83107403D01*
X181958994Y-83107403D01*
X182056208Y-83204617D01*
X182056219Y-83204627D01*
X182136250Y-83269823D01*
X182136263Y-83269832D01*
X182292931Y-83348513D01*
X182463536Y-83388948D01*
X182638856Y-83388948D01*
X182809460Y-83348513D01*
X182966127Y-83269832D01*
X182966134Y-83269827D01*
X183046176Y-83204625D01*
X183046180Y-83204621D01*
X183240624Y-83010176D01*
X182648424Y-82417976D01*
X182648423Y-82417976D01*
X181958994Y-83107403D01*
X171364593Y-83107403D01*
X171361321Y-83101410D01*
X171345233Y-83079068D01*
X171344815Y-83071183D01*
X171341031Y-83064252D01*
X171342995Y-83036787D01*
X171341540Y-83009296D01*
X171345451Y-83002437D01*
X171346015Y-82994560D01*
X171362516Y-82972517D01*
X171376155Y-82948604D01*
X171384518Y-82943127D01*
X171387887Y-82938627D01*
X171404796Y-82927980D01*
X171409666Y-82925436D01*
X171546398Y-82868800D01*
X171606658Y-82822560D01*
X171616199Y-82817578D01*
X171640332Y-82812794D01*
X171663281Y-82803922D01*
X171674001Y-82806120D01*
X171684735Y-82803993D01*
X171707625Y-82813017D01*
X171731726Y-82817960D01*
X171749083Y-82829114D01*
X171773991Y-82848227D01*
X171800800Y-82868799D01*
X171800804Y-82868801D01*
X171833344Y-82882279D01*
X171944449Y-82928301D01*
X172059899Y-82943500D01*
X172557300Y-82943499D01*
X172557303Y-82943499D01*
X172672742Y-82928303D01*
X172672746Y-82928301D01*
X172672751Y-82928301D01*
X172816398Y-82868800D01*
X172868114Y-82829116D01*
X172933281Y-82803922D01*
X173001726Y-82817960D01*
X173019083Y-82829114D01*
X173043991Y-82848227D01*
X173070800Y-82868799D01*
X173070804Y-82868801D01*
X173103344Y-82882279D01*
X173214449Y-82928301D01*
X173329899Y-82943500D01*
X173827300Y-82943499D01*
X173827303Y-82943499D01*
X173942742Y-82928303D01*
X173942746Y-82928301D01*
X173942751Y-82928301D01*
X174086398Y-82868800D01*
X174138525Y-82828801D01*
X174203692Y-82803608D01*
X174272137Y-82817646D01*
X174289497Y-82828802D01*
X174341058Y-82868366D01*
X174484575Y-82927812D01*
X174484586Y-82927815D01*
X174598598Y-82942824D01*
X174598600Y-82942823D01*
X175098600Y-82942823D01*
X175098601Y-82942824D01*
X175172456Y-82933102D01*
X175212613Y-82927815D01*
X175212624Y-82927812D01*
X175356141Y-82868366D01*
X175356142Y-82868366D01*
X175479392Y-82773792D01*
X175573966Y-82650542D01*
X175573966Y-82650541D01*
X175633412Y-82507024D01*
X175633414Y-82507019D01*
X175648600Y-82391670D01*
X175648600Y-81563000D01*
X175098600Y-81563000D01*
X175098600Y-82942823D01*
X174598600Y-82942823D01*
X174598600Y-81437000D01*
X174618285Y-81369961D01*
X174671089Y-81324206D01*
X174722600Y-81313000D01*
X174848600Y-81313000D01*
X174848600Y-81187000D01*
X174868285Y-81119961D01*
X174921089Y-81074206D01*
X174972600Y-81063000D01*
X175648600Y-81063000D01*
X175648600Y-80234329D01*
X175633414Y-80118980D01*
X175633412Y-80118975D01*
X175572017Y-79970752D01*
X175564548Y-79901283D01*
X175595823Y-79838804D01*
X175655912Y-79803152D01*
X175686578Y-79799300D01*
X178397168Y-79799300D01*
X178397188Y-79799301D01*
X178403302Y-79799301D01*
X178551928Y-79799301D01*
X178588623Y-79792000D01*
X178673508Y-79775115D01*
X178697694Y-79770305D01*
X178754569Y-79746746D01*
X178829837Y-79715569D01*
X178899303Y-79708102D01*
X178905859Y-79709469D01*
X178958275Y-79721893D01*
X178958278Y-79721893D01*
X179133717Y-79721893D01*
X179171912Y-79712840D01*
X179241683Y-79716532D01*
X179288191Y-79745816D01*
X179863335Y-80320960D01*
X179896820Y-80382283D01*
X179896312Y-80437238D01*
X179856152Y-80606683D01*
X179856152Y-80782121D01*
X179856153Y-80782132D01*
X179896612Y-80952838D01*
X179975348Y-81109614D01*
X179975352Y-81109620D01*
X180040599Y-81189717D01*
X180040604Y-81189722D01*
X180040607Y-81189726D01*
X180588628Y-81737745D01*
X180588636Y-81737751D01*
X180588641Y-81737756D01*
X180668727Y-81802997D01*
X180668731Y-81802999D01*
X180668735Y-81803003D01*
X180668737Y-81803004D01*
X180668740Y-81803006D01*
X180825515Y-81881741D01*
X180944192Y-81909868D01*
X180996229Y-81922202D01*
X180996232Y-81922202D01*
X181171668Y-81922202D01*
X181171671Y-81922202D01*
X181175451Y-81921306D01*
X181178124Y-81921447D01*
X181178846Y-81921363D01*
X181178860Y-81921486D01*
X181245223Y-81924996D01*
X181301924Y-81965823D01*
X181327552Y-82030823D01*
X181324711Y-82070554D01*
X181323898Y-82073984D01*
X181323898Y-82249310D01*
X181364332Y-82419914D01*
X181443017Y-82576590D01*
X181508218Y-82656628D01*
X181508234Y-82656646D01*
X181605440Y-82753852D01*
X182294870Y-82064422D01*
X183001976Y-82064422D01*
X183001976Y-82064423D01*
X183594176Y-82656624D01*
X183788608Y-82462192D01*
X183788627Y-82462171D01*
X183853823Y-82382140D01*
X183853832Y-82382127D01*
X183932513Y-82225460D01*
X183972948Y-82054856D01*
X183972948Y-81879535D01*
X183932513Y-81708931D01*
X183853828Y-81552255D01*
X183788627Y-81472217D01*
X183788611Y-81472199D01*
X183691405Y-81374993D01*
X183691404Y-81374993D01*
X183001976Y-82064422D01*
X182294870Y-82064422D01*
X183337851Y-81021441D01*
X183240647Y-80924237D01*
X183240626Y-80924218D01*
X183160595Y-80859022D01*
X183160582Y-80859013D01*
X183003914Y-80780332D01*
X182833310Y-80739898D01*
X182657985Y-80739898D01*
X182654554Y-80740711D01*
X182652128Y-80740582D01*
X182650815Y-80740736D01*
X182650788Y-80740511D01*
X182584783Y-80737016D01*
X182528085Y-80696185D01*
X182502463Y-80631183D01*
X182502123Y-80613732D01*
X182502698Y-80602451D01*
X182506202Y-80587671D01*
X182506202Y-80533817D01*
X182506363Y-80530663D01*
X182516900Y-80500548D01*
X182525887Y-80469945D01*
X182528931Y-80466166D01*
X182529440Y-80464714D01*
X182531226Y-80463318D01*
X182542521Y-80449303D01*
X183967327Y-79024497D01*
X184028650Y-78991012D01*
X184055008Y-78988178D01*
X184553167Y-78988178D01*
X184620206Y-79007863D01*
X184653486Y-79039294D01*
X184683708Y-79080893D01*
X184828464Y-79225649D01*
X184962396Y-79322954D01*
X184994068Y-79345965D01*
X185110285Y-79405181D01*
X185176454Y-79438896D01*
X185176456Y-79438896D01*
X185176459Y-79438898D01*
X185280815Y-79472805D01*
X185371143Y-79502155D01*
X185472235Y-79518166D01*
X185573326Y-79534178D01*
X185573327Y-79534178D01*
X185778029Y-79534178D01*
X185778030Y-79534178D01*
X185980212Y-79502155D01*
X186174897Y-79438898D01*
X186357288Y-79345965D01*
X186468356Y-79265270D01*
X186522891Y-79225649D01*
X186522893Y-79225646D01*
X186522897Y-79225644D01*
X186667644Y-79080897D01*
X186667646Y-79080893D01*
X186667649Y-79080891D01*
X186761364Y-78951901D01*
X186787965Y-78915288D01*
X186880898Y-78732897D01*
X186944155Y-78538212D01*
X186976178Y-78336030D01*
X186976178Y-78131326D01*
X186948631Y-77957404D01*
X186944155Y-77929143D01*
X186886829Y-77752714D01*
X186880898Y-77734459D01*
X186880896Y-77734456D01*
X186880896Y-77734454D01*
X186836650Y-77647617D01*
X186787965Y-77552068D01*
X186774946Y-77534149D01*
X186667649Y-77386464D01*
X186522891Y-77241706D01*
X186357291Y-77121393D01*
X186357290Y-77121392D01*
X186357288Y-77121391D01*
X186256106Y-77069836D01*
X186174901Y-77028459D01*
X185980212Y-76965200D01*
X185805673Y-76937556D01*
X185778030Y-76933178D01*
X185573326Y-76933178D01*
X185549007Y-76937029D01*
X185371143Y-76965200D01*
X185176454Y-77028459D01*
X184994064Y-77121393D01*
X184828464Y-77241706D01*
X184683708Y-77386462D01*
X184653486Y-77428062D01*
X184598157Y-77470728D01*
X184553167Y-77479178D01*
X183616805Y-77479178D01*
X183471049Y-77508171D01*
X183471041Y-77508173D01*
X183333730Y-77565049D01*
X183210157Y-77647617D01*
X183210156Y-77647618D01*
X183180880Y-77676895D01*
X183105063Y-77752712D01*
X183105061Y-77752714D01*
X181592503Y-79265270D01*
X181531180Y-79298755D01*
X181476225Y-79298246D01*
X181366132Y-79272153D01*
X181366127Y-79272152D01*
X181366125Y-79272152D01*
X181190683Y-79272152D01*
X181062304Y-79302579D01*
X180992532Y-79298885D01*
X180946026Y-79269602D01*
X180414767Y-78738343D01*
X180381282Y-78677020D01*
X180386266Y-78607328D01*
X180391637Y-78595011D01*
X180392432Y-78593430D01*
X180432893Y-78422717D01*
X180432893Y-78247275D01*
X180403491Y-78123222D01*
X180392433Y-78076565D01*
X180392432Y-78076563D01*
X180313695Y-77919782D01*
X180313691Y-77919777D01*
X180313690Y-77919775D01*
X180248447Y-77839685D01*
X180248446Y-77839684D01*
X180248438Y-77839674D01*
X179682740Y-77273978D01*
X179602632Y-77208719D01*
X179489096Y-77151700D01*
X179445848Y-77129980D01*
X179275146Y-77089522D01*
X179275141Y-77089521D01*
X179275139Y-77089521D01*
X179142679Y-77089521D01*
X179075640Y-77069836D01*
X179029885Y-77017032D01*
X179018679Y-76965521D01*
X179018679Y-76833064D01*
X179018679Y-76833061D01*
X178981203Y-76674943D01*
X178978219Y-76662351D01*
X178978218Y-76662349D01*
X178899481Y-76505568D01*
X178899477Y-76505563D01*
X178899476Y-76505561D01*
X178834233Y-76425471D01*
X178834232Y-76425470D01*
X178834224Y-76425460D01*
X178268526Y-75859764D01*
X178188418Y-75794505D01*
X178072885Y-75736483D01*
X178031634Y-75715766D01*
X177860932Y-75675308D01*
X177860927Y-75675307D01*
X177860925Y-75675307D01*
X177685483Y-75675307D01*
X177685481Y-75675307D01*
X177685475Y-75675308D01*
X177565153Y-75703826D01*
X177495381Y-75700133D01*
X177448875Y-75670850D01*
X177264969Y-75486943D01*
X177264968Y-75486942D01*
X177208753Y-75449381D01*
X177141389Y-75404370D01*
X177141386Y-75404368D01*
X177141385Y-75404368D01*
X177060955Y-75371053D01*
X177004080Y-75347495D01*
X176979894Y-75342684D01*
X176858314Y-75318499D01*
X176858312Y-75318499D01*
X176709688Y-75318499D01*
X176703574Y-75318499D01*
X176703554Y-75318500D01*
X175933086Y-75318500D01*
X175866047Y-75298815D01*
X175820292Y-75246011D01*
X175810348Y-75176853D01*
X175839373Y-75113297D01*
X175845405Y-75106819D01*
X176139385Y-74812839D01*
X176451366Y-74500857D01*
X176512687Y-74467374D01*
X176582378Y-74472358D01*
X176604141Y-74483001D01*
X176700459Y-74542410D01*
X176700460Y-74542410D01*
X176700466Y-74542414D01*
X176867003Y-74597599D01*
X176969791Y-74608100D01*
X177969808Y-74608099D01*
X177969816Y-74608098D01*
X177969819Y-74608098D01*
X178026102Y-74602348D01*
X178072597Y-74597599D01*
X178239134Y-74542414D01*
X178388456Y-74450312D01*
X178512512Y-74326256D01*
X178515754Y-74321000D01*
X178567703Y-74274277D01*
X178621291Y-74262100D01*
X179545002Y-74262100D01*
X179545022Y-74262101D01*
X179551136Y-74262101D01*
X179699761Y-74262101D01*
X179713934Y-74259281D01*
X179772508Y-74247629D01*
X179842097Y-74253855D01*
X179884381Y-74281565D01*
X179967468Y-74364652D01*
X180014151Y-74402272D01*
X180014152Y-74402272D01*
X180014154Y-74402274D01*
X180145064Y-74462059D01*
X180145065Y-74462059D01*
X180145067Y-74462060D01*
X180287524Y-74482541D01*
X180429981Y-74462060D01*
X180560897Y-74402272D01*
X180607580Y-74364653D01*
X181806652Y-73165580D01*
X181844272Y-73118897D01*
X181904060Y-72987981D01*
X181924541Y-72845524D01*
X181904060Y-72703067D01*
X181897610Y-72688944D01*
X181844273Y-72572153D01*
X181844272Y-72572152D01*
X181844272Y-72572151D01*
X181806653Y-72525468D01*
X181806648Y-72525463D01*
X181806644Y-72525458D01*
X180607587Y-71326403D01*
X180607580Y-71326396D01*
X180560897Y-71288776D01*
X180560895Y-71288775D01*
X180560893Y-71288773D01*
X180429983Y-71228988D01*
X180429979Y-71228987D01*
X180287524Y-71208507D01*
X180145068Y-71228987D01*
X180145064Y-71228988D01*
X180014153Y-71288774D01*
X179967458Y-71326403D01*
X178768403Y-72525460D01*
X178768397Y-72525467D01*
X178730775Y-72572152D01*
X178730773Y-72572154D01*
X178699922Y-72639710D01*
X178679826Y-72662900D01*
X178661438Y-72687465D01*
X178657159Y-72689060D01*
X178654167Y-72692514D01*
X178624721Y-72701159D01*
X178595974Y-72711882D01*
X178591510Y-72710910D01*
X178587127Y-72712198D01*
X178557683Y-72703552D01*
X178527701Y-72697030D01*
X178522686Y-72693275D01*
X178520088Y-72692513D01*
X178499447Y-72675879D01*
X178418495Y-72594927D01*
X178385010Y-72533604D01*
X178389994Y-72463912D01*
X178418495Y-72419564D01*
X178512117Y-72325942D01*
X178604156Y-72176724D01*
X178604158Y-72176719D01*
X178659305Y-72010297D01*
X178659306Y-72010290D01*
X178669799Y-71907586D01*
X178669800Y-71907573D01*
X178669800Y-71757600D01*
X176269801Y-71757600D01*
X176269801Y-71907586D01*
X176280294Y-72010297D01*
X176335441Y-72176719D01*
X176335443Y-72176724D01*
X176427484Y-72325945D01*
X176521104Y-72419565D01*
X176524590Y-72425949D01*
X176530537Y-72430143D01*
X176541112Y-72456207D01*
X176554589Y-72480888D01*
X176554070Y-72488143D01*
X176556806Y-72494887D01*
X176551611Y-72522529D01*
X176549605Y-72550580D01*
X176544928Y-72558090D01*
X176543901Y-72563555D01*
X176527279Y-72586429D01*
X176523562Y-72592399D01*
X176522349Y-72593682D01*
X176427088Y-72688944D01*
X176417175Y-72705014D01*
X176408449Y-72714252D01*
X176388809Y-72725712D01*
X176371901Y-72740921D01*
X176356908Y-72744327D01*
X176348102Y-72749467D01*
X176336489Y-72748967D01*
X176318310Y-72753099D01*
X176303287Y-72753099D01*
X176243699Y-72764952D01*
X176184110Y-72776806D01*
X176157520Y-72782095D01*
X176157518Y-72782096D01*
X176157516Y-72782096D01*
X176100645Y-72805653D01*
X176020213Y-72838968D01*
X176010402Y-72845524D01*
X175979205Y-72866369D01*
X175929706Y-72899442D01*
X175896633Y-72921541D01*
X175863072Y-72955103D01*
X175791541Y-73026634D01*
X175791539Y-73026636D01*
X174288616Y-74529557D01*
X174227293Y-74563042D01*
X174157601Y-74558058D01*
X174125448Y-74540251D01*
X174111511Y-74529557D01*
X174095654Y-74517389D01*
X174095652Y-74517387D01*
X173951646Y-74457739D01*
X173951644Y-74457738D01*
X173951643Y-74457738D01*
X173835899Y-74442500D01*
X173331299Y-74442500D01*
X173215564Y-74457736D01*
X173215553Y-74457739D01*
X173071547Y-74517387D01*
X173071545Y-74517389D01*
X173019581Y-74557263D01*
X172954412Y-74582457D01*
X172885967Y-74568419D01*
X172868613Y-74557266D01*
X172816398Y-74517200D01*
X172816394Y-74517198D01*
X172672751Y-74457699D01*
X172672749Y-74457698D01*
X172557301Y-74442500D01*
X172059896Y-74442500D01*
X172047350Y-74444152D01*
X171978316Y-74433382D01*
X171926063Y-74386999D01*
X171907182Y-74319728D01*
X171927667Y-74252929D01*
X171943487Y-74233536D01*
X175069411Y-71107613D01*
X176269800Y-71107613D01*
X176269800Y-71257600D01*
X177219800Y-71257600D01*
X177719800Y-71257600D01*
X178669799Y-71257600D01*
X178669799Y-71107628D01*
X178669798Y-71107613D01*
X178659305Y-71004902D01*
X178604158Y-70838480D01*
X178604156Y-70838475D01*
X178512115Y-70689254D01*
X178388145Y-70565284D01*
X178238924Y-70473243D01*
X178238919Y-70473241D01*
X178072497Y-70418094D01*
X178072490Y-70418093D01*
X177969786Y-70407600D01*
X177719800Y-70407600D01*
X177719800Y-71257600D01*
X177219800Y-71257600D01*
X177219800Y-70407600D01*
X176969829Y-70407600D01*
X176969812Y-70407601D01*
X176867102Y-70418094D01*
X176700680Y-70473241D01*
X176700675Y-70473243D01*
X176551454Y-70565284D01*
X176427484Y-70689254D01*
X176335443Y-70838475D01*
X176335441Y-70838480D01*
X176280294Y-71004902D01*
X176280293Y-71004909D01*
X176269800Y-71107613D01*
X175069411Y-71107613D01*
X176907805Y-69269219D01*
X176969128Y-69235734D01*
X176995486Y-69232900D01*
X181144513Y-69232900D01*
X181211552Y-69252585D01*
G37*
%TD.AperFunction*%
%TA.AperFunction,Conductor*%
G36*
X229279259Y-46817186D02*
G01*
X229325014Y-46869990D01*
X229336220Y-46921501D01*
X229336220Y-105547094D01*
X229316535Y-105614133D01*
X229263731Y-105659888D01*
X229212220Y-105671094D01*
X163572699Y-105671094D01*
X163505660Y-105651409D01*
X163459905Y-105598605D01*
X163448699Y-105547094D01*
X163448699Y-101160386D01*
X165627708Y-101160386D01*
X165627708Y-101430013D01*
X165657894Y-101697919D01*
X165657896Y-101697931D01*
X165717892Y-101960794D01*
X165717895Y-101960802D01*
X165806942Y-102215282D01*
X165923922Y-102458194D01*
X165923924Y-102458197D01*
X166067370Y-102686489D01*
X166235474Y-102897285D01*
X166426123Y-103087934D01*
X166636919Y-103256038D01*
X166865211Y-103399484D01*
X167108129Y-103516467D01*
X167217436Y-103554715D01*
X167362605Y-103605512D01*
X167362613Y-103605515D01*
X167362616Y-103605515D01*
X167362617Y-103605516D01*
X167625476Y-103665512D01*
X167893395Y-103695699D01*
X167893396Y-103695700D01*
X167893399Y-103695700D01*
X168163020Y-103695700D01*
X168163020Y-103695699D01*
X168430940Y-103665512D01*
X168693799Y-103605516D01*
X168948287Y-103516467D01*
X169191205Y-103399484D01*
X169419497Y-103256038D01*
X169630293Y-103087934D01*
X169820942Y-102897285D01*
X169989046Y-102686489D01*
X170132492Y-102458197D01*
X170205208Y-102307200D01*
X179032575Y-102307200D01*
X179047586Y-102421220D01*
X179047587Y-102421224D01*
X179107033Y-102564741D01*
X179107033Y-102564742D01*
X179201607Y-102687992D01*
X179324858Y-102782566D01*
X179468375Y-102842012D01*
X179468380Y-102842014D01*
X179583729Y-102857200D01*
X180412400Y-102857200D01*
X180412400Y-102307200D01*
X179032575Y-102307200D01*
X170205208Y-102307200D01*
X170249475Y-102215279D01*
X170338524Y-101960791D01*
X170398520Y-101697932D01*
X170428708Y-101430009D01*
X170428708Y-101160391D01*
X170398520Y-100892468D01*
X170338524Y-100629609D01*
X170249475Y-100375121D01*
X170132492Y-100132203D01*
X169989046Y-99903911D01*
X169820942Y-99693115D01*
X169630293Y-99502466D01*
X169629213Y-99501605D01*
X169558812Y-99445462D01*
X169419497Y-99334362D01*
X169261821Y-99235287D01*
X169191202Y-99190914D01*
X168948290Y-99073934D01*
X168693810Y-98984887D01*
X168693802Y-98984884D01*
X168471230Y-98934084D01*
X168430940Y-98924888D01*
X168430936Y-98924887D01*
X168430927Y-98924886D01*
X168163021Y-98894700D01*
X168163017Y-98894700D01*
X167893399Y-98894700D01*
X167893394Y-98894700D01*
X167625488Y-98924886D01*
X167625476Y-98924888D01*
X167362613Y-98984884D01*
X167362605Y-98984887D01*
X167108125Y-99073934D01*
X166865213Y-99190914D01*
X166636920Y-99334361D01*
X166426123Y-99502465D01*
X166235473Y-99693115D01*
X166067369Y-99903912D01*
X165923922Y-100132205D01*
X165806942Y-100375117D01*
X165717895Y-100629597D01*
X165717892Y-100629605D01*
X165657896Y-100892468D01*
X165657894Y-100892480D01*
X165627708Y-101160386D01*
X163448699Y-101160386D01*
X163448699Y-84338623D01*
X163913699Y-84338623D01*
X163947574Y-84508918D01*
X163947577Y-84508928D01*
X164014022Y-84669343D01*
X164110495Y-84813726D01*
X164110496Y-84813727D01*
X171806694Y-92509923D01*
X171900793Y-92604022D01*
X171929478Y-92632707D01*
X171929481Y-92632709D01*
X172053421Y-92715523D01*
X172053422Y-92715523D01*
X172053423Y-92715524D01*
X172073853Y-92729175D01*
X172073858Y-92729177D01*
X172073857Y-92729177D01*
X172210363Y-92785719D01*
X172234276Y-92795624D01*
X172234280Y-92795624D01*
X172234281Y-92795625D01*
X172404576Y-92829500D01*
X172404579Y-92829500D01*
X172404580Y-92829500D01*
X184896900Y-92829500D01*
X184963939Y-92849185D01*
X185009694Y-92901989D01*
X185020900Y-92953500D01*
X185020900Y-93512700D01*
X185001215Y-93579739D01*
X184948411Y-93625494D01*
X184896902Y-93636700D01*
X184823697Y-93636700D01*
X184708257Y-93651896D01*
X184708248Y-93651899D01*
X184564605Y-93711398D01*
X184564602Y-93711399D01*
X184564602Y-93711400D01*
X184441251Y-93806051D01*
X184354963Y-93918504D01*
X184346598Y-93929405D01*
X184287099Y-94073048D01*
X184287098Y-94073050D01*
X184271900Y-94188498D01*
X184271900Y-94685903D01*
X184284509Y-94781684D01*
X184273742Y-94850719D01*
X184227361Y-94902974D01*
X184160092Y-94921858D01*
X184093292Y-94901376D01*
X184073889Y-94885548D01*
X183143805Y-93955463D01*
X183143804Y-93955462D01*
X183143800Y-93955459D01*
X183036864Y-93884008D01*
X182958875Y-93851704D01*
X182918044Y-93834791D01*
X182918038Y-93834789D01*
X182791907Y-93809700D01*
X182791905Y-93809700D01*
X182170397Y-93809700D01*
X182103358Y-93790015D01*
X182094919Y-93784082D01*
X182000198Y-93711400D01*
X182000197Y-93711399D01*
X182000195Y-93711398D01*
X181856551Y-93651899D01*
X181856549Y-93651898D01*
X181741101Y-93636700D01*
X179583696Y-93636700D01*
X179468257Y-93651896D01*
X179468248Y-93651899D01*
X179324605Y-93711398D01*
X179324602Y-93711399D01*
X179324602Y-93711400D01*
X179201251Y-93806051D01*
X179114963Y-93918504D01*
X179106598Y-93929405D01*
X179047099Y-94073048D01*
X179047098Y-94073050D01*
X179031900Y-94188498D01*
X179031900Y-94685903D01*
X179047096Y-94801342D01*
X179047099Y-94801351D01*
X179106598Y-94944995D01*
X179106600Y-94944998D01*
X179146283Y-94996714D01*
X179171477Y-95061883D01*
X179157439Y-95130328D01*
X179146283Y-95147686D01*
X179106600Y-95199401D01*
X179106598Y-95199404D01*
X179047099Y-95343048D01*
X179047098Y-95343050D01*
X179031900Y-95458498D01*
X179031900Y-95955903D01*
X179047096Y-96071342D01*
X179047099Y-96071351D01*
X179103170Y-96206718D01*
X179110639Y-96276188D01*
X179079364Y-96338667D01*
X179036062Y-96368732D01*
X178963937Y-96398606D01*
X178856997Y-96470061D01*
X178856996Y-96470062D01*
X178385063Y-96941994D01*
X178385062Y-96941995D01*
X178385059Y-96942000D01*
X178318573Y-97041505D01*
X178316909Y-97043994D01*
X178313608Y-97048934D01*
X178313607Y-97048936D01*
X178264391Y-97167755D01*
X178264389Y-97167761D01*
X178239300Y-97293892D01*
X178239300Y-97293895D01*
X178239300Y-99149705D01*
X178239300Y-99149707D01*
X178239299Y-99149707D01*
X178254456Y-99225900D01*
X178260581Y-99256691D01*
X178264391Y-99275844D01*
X178313608Y-99394664D01*
X178347551Y-99445464D01*
X178385062Y-99501604D01*
X178385063Y-99501605D01*
X178907796Y-100024337D01*
X178907800Y-100024340D01*
X178963706Y-100061695D01*
X179014736Y-100095792D01*
X179050860Y-100110755D01*
X179057518Y-100114532D01*
X179076708Y-100134355D01*
X179098189Y-100151665D01*
X179100663Y-100159100D01*
X179106115Y-100164731D01*
X179111541Y-100191780D01*
X179120255Y-100217959D01*
X179118338Y-100225663D01*
X179119858Y-100233236D01*
X179110529Y-100257060D01*
X179107108Y-100270815D01*
X179109710Y-100271893D01*
X179047099Y-100423048D01*
X179047098Y-100423050D01*
X179031900Y-100538498D01*
X179031900Y-101035903D01*
X179047096Y-101151342D01*
X179047099Y-101151351D01*
X179106598Y-101294995D01*
X179106600Y-101294998D01*
X179146597Y-101347124D01*
X179171791Y-101412294D01*
X179157752Y-101480738D01*
X179146597Y-101498096D01*
X179107036Y-101549653D01*
X179107033Y-101549658D01*
X179047587Y-101693175D01*
X179047586Y-101693179D01*
X179032574Y-101807200D01*
X180538400Y-101807200D01*
X180605439Y-101826885D01*
X180651194Y-101879689D01*
X180662400Y-101931200D01*
X180662400Y-102057200D01*
X180788400Y-102057200D01*
X180855439Y-102076885D01*
X180901194Y-102129689D01*
X180912400Y-102181200D01*
X180912400Y-102857200D01*
X181741071Y-102857200D01*
X181856419Y-102842014D01*
X181856424Y-102842012D01*
X181999941Y-102782566D01*
X181999942Y-102782566D01*
X182123192Y-102687992D01*
X182217766Y-102564742D01*
X182217766Y-102564741D01*
X182251238Y-102483933D01*
X182295078Y-102429529D01*
X182361372Y-102407464D01*
X182429072Y-102424743D01*
X182453477Y-102443701D01*
X182851199Y-102841423D01*
X184042200Y-104032424D01*
X184042221Y-104032447D01*
X184151631Y-104141857D01*
X184210665Y-104181302D01*
X184210664Y-104181302D01*
X184275200Y-104224423D01*
X184275204Y-104224425D01*
X184275211Y-104224430D01*
X184355645Y-104257746D01*
X184412520Y-104281305D01*
X184436705Y-104286115D01*
X184485594Y-104295840D01*
X184558286Y-104310301D01*
X184558288Y-104310301D01*
X184713026Y-104310301D01*
X184713046Y-104310300D01*
X193126053Y-104310300D01*
X193173501Y-104319737D01*
X193187503Y-104325537D01*
X193187508Y-104325538D01*
X193187511Y-104325539D01*
X193342153Y-104356299D01*
X193342156Y-104356300D01*
X193342158Y-104356300D01*
X193499844Y-104356300D01*
X193499845Y-104356299D01*
X193654497Y-104325537D01*
X193800179Y-104265194D01*
X193931289Y-104177589D01*
X194042789Y-104066089D01*
X194130394Y-103934979D01*
X194190737Y-103789297D01*
X194221500Y-103634642D01*
X194221500Y-103476958D01*
X194221500Y-103476955D01*
X194221499Y-103476953D01*
X194219254Y-103465665D01*
X194190737Y-103322303D01*
X194165294Y-103260877D01*
X194130397Y-103176627D01*
X194130390Y-103176614D01*
X194042789Y-103045511D01*
X194042786Y-103045507D01*
X193931292Y-102934013D01*
X193931288Y-102934010D01*
X193872960Y-102895036D01*
X193828155Y-102841423D01*
X193819448Y-102772098D01*
X193849603Y-102709071D01*
X193894396Y-102677374D01*
X193933464Y-102661192D01*
X194011305Y-102609181D01*
X204877100Y-102609181D01*
X204877100Y-102783618D01*
X204911127Y-102954683D01*
X204911129Y-102954691D01*
X204977878Y-103115839D01*
X204977883Y-103115848D01*
X205074786Y-103260873D01*
X205074789Y-103260877D01*
X205198122Y-103384210D01*
X205198126Y-103384213D01*
X205343151Y-103481116D01*
X205343157Y-103481119D01*
X205343158Y-103481120D01*
X205504309Y-103547871D01*
X205675381Y-103581899D01*
X205675385Y-103581900D01*
X205675386Y-103581900D01*
X205849815Y-103581900D01*
X205849816Y-103581899D01*
X206020891Y-103547871D01*
X206182042Y-103481120D01*
X206327074Y-103384213D01*
X206450413Y-103260874D01*
X206547320Y-103115842D01*
X206614071Y-102954691D01*
X206648100Y-102783614D01*
X206648100Y-102609186D01*
X206648099Y-102609181D01*
X213877100Y-102609181D01*
X213877100Y-102783618D01*
X213911127Y-102954683D01*
X213911129Y-102954691D01*
X213977878Y-103115839D01*
X213977883Y-103115848D01*
X214074786Y-103260873D01*
X214074789Y-103260877D01*
X214198122Y-103384210D01*
X214198126Y-103384213D01*
X214343151Y-103481116D01*
X214343157Y-103481119D01*
X214343158Y-103481120D01*
X214504309Y-103547871D01*
X214675381Y-103581899D01*
X214675385Y-103581900D01*
X214675386Y-103581900D01*
X214849815Y-103581900D01*
X214849816Y-103581899D01*
X215020891Y-103547871D01*
X215182042Y-103481120D01*
X215327074Y-103384213D01*
X215450413Y-103260874D01*
X215547320Y-103115842D01*
X215614071Y-102954691D01*
X215648100Y-102783614D01*
X215648100Y-102609186D01*
X215614071Y-102438109D01*
X215547320Y-102276958D01*
X215547319Y-102276957D01*
X215547316Y-102276951D01*
X215450413Y-102131926D01*
X215450410Y-102131922D01*
X215327077Y-102008589D01*
X215327073Y-102008586D01*
X215182048Y-101911683D01*
X215182039Y-101911678D01*
X215020891Y-101844929D01*
X215020883Y-101844927D01*
X214849818Y-101810900D01*
X214849814Y-101810900D01*
X214675386Y-101810900D01*
X214675381Y-101810900D01*
X214504316Y-101844927D01*
X214504308Y-101844929D01*
X214343160Y-101911678D01*
X214343151Y-101911683D01*
X214198126Y-102008586D01*
X214198122Y-102008589D01*
X214074789Y-102131922D01*
X214074786Y-102131926D01*
X213977883Y-102276951D01*
X213977878Y-102276960D01*
X213911129Y-102438108D01*
X213911127Y-102438116D01*
X213877100Y-102609181D01*
X206648099Y-102609181D01*
X206614071Y-102438109D01*
X206547320Y-102276958D01*
X206547319Y-102276957D01*
X206547316Y-102276951D01*
X206450413Y-102131926D01*
X206450410Y-102131922D01*
X206327077Y-102008589D01*
X206327073Y-102008586D01*
X206182048Y-101911683D01*
X206182039Y-101911678D01*
X206020891Y-101844929D01*
X206020883Y-101844927D01*
X205849818Y-101810900D01*
X205849814Y-101810900D01*
X205675386Y-101810900D01*
X205675381Y-101810900D01*
X205504316Y-101844927D01*
X205504308Y-101844929D01*
X205343160Y-101911678D01*
X205343151Y-101911683D01*
X205198126Y-102008586D01*
X205198122Y-102008589D01*
X205074789Y-102131922D01*
X205074786Y-102131926D01*
X204977883Y-102276951D01*
X204977878Y-102276960D01*
X204911129Y-102438108D01*
X204911127Y-102438116D01*
X204877100Y-102609181D01*
X194011305Y-102609181D01*
X194040400Y-102589741D01*
X194065400Y-102564741D01*
X194114729Y-102515413D01*
X196112536Y-100517604D01*
X196112539Y-100517601D01*
X196112538Y-100517601D01*
X196112541Y-100517599D01*
X196183992Y-100410664D01*
X196197531Y-100377977D01*
X207512100Y-100377977D01*
X207512100Y-101094822D01*
X207542890Y-101289226D01*
X207603717Y-101476429D01*
X207660413Y-101587700D01*
X207693076Y-101651805D01*
X207808772Y-101811046D01*
X207947954Y-101950228D01*
X208107195Y-102065924D01*
X208190055Y-102108143D01*
X208282570Y-102155282D01*
X208282572Y-102155282D01*
X208282575Y-102155284D01*
X208362336Y-102181200D01*
X208469773Y-102216109D01*
X208664178Y-102246900D01*
X208664183Y-102246900D01*
X208861022Y-102246900D01*
X209055426Y-102216109D01*
X209057980Y-102215279D01*
X209242625Y-102155284D01*
X209418005Y-102065924D01*
X209577246Y-101950228D01*
X209716428Y-101811046D01*
X209832124Y-101651805D01*
X209921484Y-101476425D01*
X209921742Y-101475628D01*
X209921956Y-101474974D01*
X209922283Y-101474494D01*
X209923345Y-101471932D01*
X209923883Y-101472155D01*
X209961397Y-101417301D01*
X210025758Y-101390107D01*
X210039884Y-101389300D01*
X210388100Y-101389300D01*
X210455139Y-101408985D01*
X210500894Y-101461789D01*
X210512100Y-101513300D01*
X210512100Y-101546415D01*
X210522600Y-101649195D01*
X210522601Y-101649197D01*
X210537174Y-101693175D01*
X210577786Y-101815735D01*
X210577787Y-101815737D01*
X210669886Y-101965051D01*
X210669889Y-101965055D01*
X210793944Y-102089110D01*
X210793948Y-102089113D01*
X210943262Y-102181212D01*
X210943264Y-102181213D01*
X210943266Y-102181214D01*
X211109803Y-102236399D01*
X211212592Y-102246900D01*
X211212597Y-102246900D01*
X212312603Y-102246900D01*
X212312608Y-102246900D01*
X212415397Y-102236399D01*
X212581934Y-102181214D01*
X212731255Y-102089111D01*
X212855311Y-101965055D01*
X212947414Y-101815734D01*
X213002599Y-101649197D01*
X213013100Y-101546408D01*
X213013100Y-101109586D01*
X222186300Y-101109586D01*
X222186300Y-101379213D01*
X222216486Y-101647119D01*
X222216487Y-101647128D01*
X222216488Y-101647132D01*
X222217555Y-101651805D01*
X222276484Y-101909994D01*
X222276487Y-101910002D01*
X222365534Y-102164482D01*
X222482514Y-102407394D01*
X222501813Y-102438108D01*
X222625962Y-102635689D01*
X222734744Y-102772098D01*
X222790500Y-102842014D01*
X222794066Y-102846485D01*
X222984715Y-103037134D01*
X223195511Y-103205238D01*
X223423803Y-103348684D01*
X223666721Y-103465667D01*
X223857849Y-103532545D01*
X223921197Y-103554712D01*
X223921205Y-103554715D01*
X223921208Y-103554715D01*
X223921209Y-103554716D01*
X224184068Y-103614712D01*
X224451987Y-103644899D01*
X224451988Y-103644900D01*
X224451991Y-103644900D01*
X224721612Y-103644900D01*
X224721612Y-103644899D01*
X224989532Y-103614712D01*
X225252391Y-103554716D01*
X225506879Y-103465667D01*
X225749797Y-103348684D01*
X225978089Y-103205238D01*
X226188885Y-103037134D01*
X226379534Y-102846485D01*
X226547638Y-102635689D01*
X226691084Y-102407397D01*
X226808067Y-102164479D01*
X226897116Y-101909991D01*
X226957112Y-101647132D01*
X226987300Y-101379209D01*
X226987300Y-101109591D01*
X226957112Y-100841668D01*
X226897116Y-100578809D01*
X226808067Y-100324321D01*
X226691084Y-100081403D01*
X226547638Y-99853111D01*
X226379534Y-99642315D01*
X226188885Y-99451666D01*
X226181105Y-99445462D01*
X226020667Y-99317517D01*
X225978089Y-99283562D01*
X225749797Y-99140116D01*
X225749794Y-99140114D01*
X225506882Y-99023134D01*
X225252402Y-98934087D01*
X225252394Y-98934084D01*
X225055246Y-98889087D01*
X224989532Y-98874088D01*
X224989528Y-98874087D01*
X224989519Y-98874086D01*
X224721613Y-98843900D01*
X224721609Y-98843900D01*
X224451991Y-98843900D01*
X224451986Y-98843900D01*
X224184080Y-98874086D01*
X224184068Y-98874088D01*
X223921205Y-98934084D01*
X223921197Y-98934087D01*
X223666717Y-99023134D01*
X223423805Y-99140114D01*
X223195512Y-99283561D01*
X222984715Y-99451665D01*
X222794065Y-99642315D01*
X222625961Y-99853112D01*
X222482514Y-100081405D01*
X222365534Y-100324317D01*
X222276487Y-100578797D01*
X222276484Y-100578805D01*
X222216488Y-100841668D01*
X222216486Y-100841680D01*
X222186300Y-101109586D01*
X213013100Y-101109586D01*
X213013100Y-99926392D01*
X213002599Y-99823603D01*
X212947414Y-99657066D01*
X212938315Y-99642315D01*
X212855313Y-99507748D01*
X212855310Y-99507744D01*
X212731255Y-99383689D01*
X212731251Y-99383686D01*
X212581937Y-99291587D01*
X212581934Y-99291586D01*
X212500496Y-99264600D01*
X212443051Y-99224827D01*
X212416228Y-99160311D01*
X212415500Y-99146894D01*
X212415500Y-92419402D01*
X212435185Y-92352363D01*
X212451819Y-92331721D01*
X215700921Y-89082619D01*
X215762244Y-89049134D01*
X215788602Y-89046300D01*
X223962875Y-89046300D01*
X224029914Y-89065985D01*
X224063192Y-89097413D01*
X224143572Y-89208046D01*
X224282754Y-89347228D01*
X224441995Y-89462924D01*
X224473511Y-89478982D01*
X224617370Y-89552282D01*
X224617372Y-89552282D01*
X224617375Y-89552284D01*
X224717717Y-89584887D01*
X224804573Y-89613109D01*
X224998978Y-89643900D01*
X224998983Y-89643900D01*
X225715822Y-89643900D01*
X225910226Y-89613109D01*
X225911134Y-89612814D01*
X226097425Y-89552284D01*
X226272805Y-89462924D01*
X226432046Y-89347228D01*
X226571228Y-89208046D01*
X226686924Y-89048805D01*
X226696615Y-89029784D01*
X226744588Y-88978989D01*
X226812408Y-88962193D01*
X226878544Y-88984729D01*
X226921996Y-89039443D01*
X226931100Y-89086079D01*
X226931100Y-89187797D01*
X226911415Y-89254836D01*
X226894781Y-89275478D01*
X226206878Y-89963381D01*
X226145555Y-89996866D01*
X226119197Y-89999700D01*
X222760493Y-89999700D01*
X222634361Y-90024789D01*
X222634355Y-90024791D01*
X222515536Y-90074007D01*
X222408598Y-90145460D01*
X219201277Y-93352781D01*
X219139954Y-93386266D01*
X219113596Y-93389100D01*
X218487798Y-93389100D01*
X218487780Y-93389101D01*
X218385003Y-93399600D01*
X218385000Y-93399601D01*
X218218468Y-93454785D01*
X218218463Y-93454787D01*
X218069142Y-93546889D01*
X217945089Y-93670942D01*
X217852987Y-93820263D01*
X217852985Y-93820268D01*
X217848173Y-93834791D01*
X217797801Y-93986803D01*
X217797801Y-93986804D01*
X217797800Y-93986804D01*
X217787300Y-94089583D01*
X217787300Y-95089601D01*
X217787301Y-95089619D01*
X217797800Y-95192396D01*
X217797801Y-95192399D01*
X217847725Y-95343057D01*
X217852986Y-95358934D01*
X217945088Y-95508256D01*
X218069144Y-95632312D01*
X218218466Y-95724414D01*
X218385003Y-95779599D01*
X218487791Y-95790100D01*
X219287808Y-95790099D01*
X219287816Y-95790098D01*
X219287819Y-95790098D01*
X219344102Y-95784348D01*
X219390597Y-95779599D01*
X219557134Y-95724414D01*
X219706456Y-95632312D01*
X219800119Y-95538649D01*
X219861442Y-95505164D01*
X219931134Y-95510148D01*
X219975481Y-95538649D01*
X220069144Y-95632312D01*
X220218466Y-95724414D01*
X220385003Y-95779599D01*
X220487791Y-95790100D01*
X221287808Y-95790099D01*
X221287816Y-95790098D01*
X221287819Y-95790098D01*
X221344102Y-95784348D01*
X221390597Y-95779599D01*
X221557134Y-95724414D01*
X221706456Y-95632312D01*
X221830512Y-95508256D01*
X221922614Y-95358934D01*
X221933031Y-95327494D01*
X221946901Y-95307461D01*
X221957024Y-95285297D01*
X221966434Y-95279249D01*
X221972803Y-95270051D01*
X221995304Y-95260695D01*
X222015802Y-95247523D01*
X222032902Y-95245064D01*
X222037319Y-95243228D01*
X222050737Y-95242500D01*
X222237065Y-95242500D01*
X222304104Y-95262185D01*
X222349859Y-95314989D01*
X222354768Y-95327489D01*
X222365188Y-95358934D01*
X222457290Y-95508256D01*
X222581346Y-95632312D01*
X222730668Y-95724414D01*
X222897205Y-95779599D01*
X222999993Y-95790100D01*
X223750010Y-95790099D01*
X223750018Y-95790098D01*
X223750021Y-95790098D01*
X223806304Y-95784348D01*
X223852799Y-95779599D01*
X224019336Y-95724414D01*
X224168658Y-95632312D01*
X224292714Y-95508256D01*
X224294753Y-95504949D01*
X224296744Y-95503158D01*
X224297195Y-95502589D01*
X224297292Y-95502665D01*
X224346697Y-95458224D01*
X224415659Y-95446998D01*
X224479742Y-95474837D01*
X224505829Y-95504939D01*
X224507681Y-95507941D01*
X224507683Y-95507944D01*
X224631654Y-95631915D01*
X224780875Y-95723956D01*
X224780880Y-95723958D01*
X224947302Y-95779105D01*
X224947309Y-95779106D01*
X225050019Y-95789599D01*
X225174999Y-95789599D01*
X225675000Y-95789599D01*
X225799972Y-95789599D01*
X225799986Y-95789598D01*
X225902697Y-95779105D01*
X226069119Y-95723958D01*
X226069124Y-95723956D01*
X226218345Y-95631915D01*
X226342315Y-95507945D01*
X226434356Y-95358724D01*
X226434358Y-95358719D01*
X226489505Y-95192297D01*
X226489506Y-95192290D01*
X226499999Y-95089586D01*
X226500000Y-95089573D01*
X226500000Y-94839600D01*
X225675000Y-94839600D01*
X225675000Y-95789599D01*
X225174999Y-95789599D01*
X225175000Y-95789598D01*
X225175000Y-94339600D01*
X225675000Y-94339600D01*
X226499999Y-94339600D01*
X226499999Y-94089628D01*
X226499998Y-94089613D01*
X226489505Y-93986902D01*
X226434358Y-93820480D01*
X226434356Y-93820475D01*
X226342315Y-93671254D01*
X226218345Y-93547284D01*
X226069124Y-93455243D01*
X226069119Y-93455241D01*
X225902697Y-93400094D01*
X225902690Y-93400093D01*
X225799986Y-93389600D01*
X225675000Y-93389600D01*
X225675000Y-94339600D01*
X225175000Y-94339600D01*
X225175000Y-93389600D01*
X225050027Y-93389600D01*
X225050012Y-93389601D01*
X224947302Y-93400094D01*
X224780880Y-93455241D01*
X224780875Y-93455243D01*
X224631654Y-93547284D01*
X224507679Y-93671259D01*
X224505826Y-93674265D01*
X224504018Y-93675890D01*
X224503202Y-93676923D01*
X224503025Y-93676783D01*
X224453873Y-93720984D01*
X224384909Y-93732199D01*
X224320830Y-93704349D01*
X224294755Y-93674253D01*
X224292714Y-93670944D01*
X224168659Y-93546889D01*
X224168658Y-93546888D01*
X224019336Y-93454786D01*
X223852799Y-93399601D01*
X223852797Y-93399600D01*
X223750012Y-93389100D01*
X223000000Y-93389100D01*
X222999982Y-93389101D01*
X222897205Y-93399600D01*
X222897202Y-93399601D01*
X222730670Y-93454785D01*
X222730665Y-93454787D01*
X222581344Y-93546889D01*
X222457291Y-93670942D01*
X222365189Y-93820263D01*
X222365187Y-93820268D01*
X222354771Y-93851704D01*
X222340900Y-93871738D01*
X222330778Y-93893903D01*
X222321367Y-93899950D01*
X222314999Y-93909149D01*
X222292497Y-93918504D01*
X222272000Y-93931677D01*
X222254899Y-93934135D01*
X222250483Y-93935972D01*
X222237065Y-93936700D01*
X222050737Y-93936700D01*
X221983698Y-93917015D01*
X221937943Y-93864211D01*
X221933031Y-93851704D01*
X221927426Y-93834789D01*
X221922614Y-93820266D01*
X221830512Y-93670944D01*
X221706456Y-93546888D01*
X221557134Y-93454786D01*
X221390597Y-93399601D01*
X221390595Y-93399600D01*
X221296834Y-93390022D01*
X221232143Y-93363626D01*
X221191991Y-93306445D01*
X221189128Y-93236634D01*
X221221754Y-93178985D01*
X223058921Y-91341819D01*
X223120244Y-91308334D01*
X223146602Y-91305500D01*
X226307900Y-91305500D01*
X226374939Y-91325185D01*
X226420694Y-91377989D01*
X226431900Y-91429500D01*
X226431900Y-91480618D01*
X226465927Y-91651683D01*
X226465929Y-91651691D01*
X226532678Y-91812839D01*
X226532683Y-91812848D01*
X226629586Y-91957873D01*
X226629589Y-91957877D01*
X226752922Y-92081210D01*
X226752926Y-92081213D01*
X226897951Y-92178116D01*
X226897957Y-92178119D01*
X226897958Y-92178120D01*
X227059109Y-92244871D01*
X227230181Y-92278899D01*
X227230185Y-92278900D01*
X227230186Y-92278900D01*
X227404615Y-92278900D01*
X227404616Y-92278899D01*
X227575691Y-92244871D01*
X227736842Y-92178120D01*
X227881874Y-92081213D01*
X228005213Y-91957874D01*
X228102120Y-91812842D01*
X228168871Y-91651691D01*
X228202900Y-91480614D01*
X228202900Y-91306186D01*
X228168871Y-91135109D01*
X228102120Y-90973958D01*
X228102119Y-90973957D01*
X228102116Y-90973951D01*
X228005213Y-90828926D01*
X228005210Y-90828922D01*
X227881877Y-90705589D01*
X227881873Y-90705586D01*
X227736848Y-90608683D01*
X227736839Y-90608678D01*
X227675951Y-90583458D01*
X227621548Y-90539617D01*
X227599483Y-90473323D01*
X227616762Y-90405624D01*
X227635719Y-90381220D01*
X228091140Y-89925800D01*
X228162592Y-89818864D01*
X228211809Y-89700044D01*
X228215252Y-89682736D01*
X228229159Y-89612821D01*
X228236900Y-89573907D01*
X228236900Y-86016292D01*
X228211810Y-85890161D01*
X228211809Y-85890160D01*
X228211809Y-85890156D01*
X228188212Y-85833187D01*
X228165353Y-85778000D01*
X228165350Y-85777994D01*
X228162593Y-85771337D01*
X228091141Y-85664401D01*
X228091139Y-85664398D01*
X228091138Y-85664397D01*
X227313005Y-84886263D01*
X227313004Y-84886262D01*
X227313000Y-84886259D01*
X227206064Y-84814808D01*
X227203454Y-84813727D01*
X227087244Y-84765591D01*
X227087238Y-84765589D01*
X226961107Y-84740500D01*
X226961105Y-84740500D01*
X226946906Y-84740500D01*
X226879867Y-84720815D01*
X226834112Y-84668011D01*
X226829200Y-84655504D01*
X226808881Y-84594186D01*
X226802214Y-84574066D01*
X226745853Y-84482692D01*
X226710113Y-84424748D01*
X226710110Y-84424744D01*
X226586055Y-84300689D01*
X226586051Y-84300686D01*
X226436737Y-84208587D01*
X226436735Y-84208586D01*
X226353465Y-84180993D01*
X226270197Y-84153401D01*
X226270195Y-84153400D01*
X226167415Y-84142900D01*
X226167408Y-84142900D01*
X224547392Y-84142900D01*
X224547384Y-84142900D01*
X224444604Y-84153400D01*
X224444603Y-84153401D01*
X224278064Y-84208586D01*
X224278062Y-84208587D01*
X224128748Y-84300686D01*
X224128744Y-84300689D01*
X224004689Y-84424744D01*
X224004686Y-84424748D01*
X223912587Y-84574062D01*
X223912586Y-84574064D01*
X223857401Y-84740603D01*
X223857400Y-84740604D01*
X223846900Y-84843384D01*
X223846900Y-85943415D01*
X223857400Y-86046195D01*
X223857401Y-86046196D01*
X223912586Y-86212735D01*
X223912587Y-86212737D01*
X224004686Y-86362051D01*
X224004689Y-86362055D01*
X224128744Y-86486110D01*
X224128748Y-86486113D01*
X224278062Y-86578212D01*
X224278064Y-86578213D01*
X224278066Y-86578214D01*
X224444603Y-86633399D01*
X224547392Y-86643900D01*
X224547397Y-86643900D01*
X226167403Y-86643900D01*
X226167408Y-86643900D01*
X226270197Y-86633399D01*
X226436734Y-86578214D01*
X226586055Y-86486111D01*
X226710111Y-86362055D01*
X226710111Y-86362054D01*
X226715218Y-86356948D01*
X226716181Y-86357911D01*
X226766854Y-86322029D01*
X226836653Y-86318889D01*
X226897069Y-86353984D01*
X226928921Y-86416171D01*
X226931100Y-86439316D01*
X226931100Y-87700720D01*
X226911415Y-87767759D01*
X226858611Y-87813514D01*
X226789453Y-87823458D01*
X226725897Y-87794433D01*
X226696615Y-87757015D01*
X226686923Y-87737994D01*
X226682605Y-87732051D01*
X226571228Y-87578754D01*
X226432046Y-87439572D01*
X226272805Y-87323876D01*
X226097429Y-87234517D01*
X225910226Y-87173690D01*
X225715822Y-87142900D01*
X225715817Y-87142900D01*
X224998983Y-87142900D01*
X224998978Y-87142900D01*
X224804573Y-87173690D01*
X224617370Y-87234517D01*
X224441994Y-87323876D01*
X224377414Y-87370797D01*
X224282754Y-87439572D01*
X224282752Y-87439574D01*
X224282751Y-87439574D01*
X224143574Y-87578751D01*
X224143574Y-87578752D01*
X224143572Y-87578754D01*
X224063193Y-87689386D01*
X224007863Y-87732051D01*
X223962875Y-87740500D01*
X215402493Y-87740500D01*
X215276361Y-87765589D01*
X215276355Y-87765591D01*
X215157536Y-87814807D01*
X215050598Y-87886260D01*
X215050595Y-87886263D01*
X211255463Y-91681394D01*
X211255462Y-91681395D01*
X211255459Y-91681400D01*
X211188859Y-91781077D01*
X211188858Y-91781078D01*
X211188857Y-91781077D01*
X211184008Y-91788335D01*
X211184007Y-91788337D01*
X211134791Y-91907155D01*
X211134789Y-91907161D01*
X211109700Y-92033292D01*
X211109700Y-99146894D01*
X211090015Y-99213933D01*
X211037211Y-99259688D01*
X211024704Y-99264600D01*
X210943265Y-99291586D01*
X210943262Y-99291587D01*
X210793948Y-99383686D01*
X210793944Y-99383689D01*
X210669889Y-99507744D01*
X210669886Y-99507748D01*
X210577787Y-99657062D01*
X210577786Y-99657064D01*
X210522601Y-99823603D01*
X210522600Y-99823604D01*
X210512100Y-99926384D01*
X210512100Y-99959500D01*
X210492415Y-100026539D01*
X210439611Y-100072294D01*
X210388100Y-100083500D01*
X210039884Y-100083500D01*
X209972845Y-100063815D01*
X209927090Y-100011011D01*
X209921956Y-99997826D01*
X209921484Y-99996376D01*
X209921484Y-99996375D01*
X209832124Y-99820995D01*
X209716428Y-99661754D01*
X209577246Y-99522572D01*
X209418005Y-99406876D01*
X209242629Y-99317517D01*
X209055426Y-99256690D01*
X208861022Y-99225900D01*
X208861017Y-99225900D01*
X208664183Y-99225900D01*
X208664178Y-99225900D01*
X208469773Y-99256690D01*
X208282570Y-99317517D01*
X208107194Y-99406876D01*
X208045547Y-99451666D01*
X207947954Y-99522572D01*
X207947952Y-99522574D01*
X207947951Y-99522574D01*
X207808774Y-99661751D01*
X207808774Y-99661752D01*
X207808772Y-99661754D01*
X207785987Y-99693115D01*
X207693076Y-99820994D01*
X207603717Y-99996370D01*
X207542890Y-100183573D01*
X207512100Y-100377977D01*
X196197531Y-100377977D01*
X196233209Y-100291844D01*
X196239991Y-100257749D01*
X196258300Y-100165705D01*
X196258300Y-90030937D01*
X196277985Y-89963898D01*
X196330789Y-89918143D01*
X196343289Y-89913233D01*
X196374734Y-89902814D01*
X196524056Y-89810712D01*
X196648112Y-89686656D01*
X196740214Y-89537334D01*
X196795399Y-89370797D01*
X196805900Y-89268009D01*
X196805900Y-89267986D01*
X197885201Y-89267986D01*
X197895694Y-89370697D01*
X197950841Y-89537119D01*
X197950843Y-89537124D01*
X198042884Y-89686345D01*
X198166854Y-89810315D01*
X198316075Y-89902356D01*
X198316080Y-89902358D01*
X198482502Y-89957505D01*
X198482509Y-89957506D01*
X198585219Y-89967999D01*
X198835199Y-89967999D01*
X199335200Y-89967999D01*
X199585172Y-89967999D01*
X199585186Y-89967998D01*
X199687897Y-89957505D01*
X199854319Y-89902358D01*
X199854324Y-89902356D01*
X200003545Y-89810315D01*
X200127515Y-89686345D01*
X200219556Y-89537124D01*
X200219558Y-89537119D01*
X200274705Y-89370697D01*
X200274706Y-89370690D01*
X200285199Y-89267986D01*
X200285200Y-89267973D01*
X200285200Y-89118000D01*
X199335200Y-89118000D01*
X199335200Y-89967999D01*
X198835199Y-89967999D01*
X198835200Y-89967998D01*
X198835200Y-89118000D01*
X197885201Y-89118000D01*
X197885201Y-89267986D01*
X196805900Y-89267986D01*
X196805899Y-88977701D01*
X201106204Y-88977701D01*
X201106399Y-88980186D01*
X201152218Y-89137898D01*
X201235814Y-89279252D01*
X201235821Y-89279261D01*
X201351938Y-89395378D01*
X201351947Y-89395385D01*
X201493303Y-89478982D01*
X201493306Y-89478983D01*
X201651004Y-89524799D01*
X201651010Y-89524800D01*
X201687850Y-89527699D01*
X201687866Y-89527700D01*
X202091000Y-89527700D01*
X202591000Y-89527700D01*
X202994134Y-89527700D01*
X202994149Y-89527699D01*
X203030989Y-89524800D01*
X203030995Y-89524799D01*
X203188693Y-89478983D01*
X203188696Y-89478982D01*
X203330052Y-89395385D01*
X203330061Y-89395378D01*
X203446178Y-89279261D01*
X203446185Y-89279252D01*
X203529781Y-89137898D01*
X203575600Y-88980186D01*
X203575795Y-88977701D01*
X203575795Y-88977700D01*
X202591000Y-88977700D01*
X202591000Y-89527700D01*
X202091000Y-89527700D01*
X202091000Y-88977700D01*
X201106205Y-88977700D01*
X201106204Y-88977701D01*
X196805899Y-88977701D01*
X196805899Y-88863084D01*
X196805899Y-88467998D01*
X196805898Y-88467980D01*
X196795399Y-88365203D01*
X196795398Y-88365200D01*
X196772130Y-88294983D01*
X196740214Y-88198666D01*
X196648112Y-88049344D01*
X196559949Y-87961181D01*
X196526464Y-87899858D01*
X196531448Y-87830166D01*
X196573320Y-87774233D01*
X196638784Y-87749816D01*
X196647630Y-87749500D01*
X198043677Y-87749500D01*
X198110716Y-87769185D01*
X198156471Y-87821989D01*
X198166415Y-87891147D01*
X198137390Y-87954703D01*
X198131358Y-87961181D01*
X198042884Y-88049654D01*
X197950843Y-88198875D01*
X197950841Y-88198880D01*
X197895694Y-88365302D01*
X197895693Y-88365309D01*
X197885200Y-88468013D01*
X197885200Y-88618000D01*
X200285199Y-88618000D01*
X200285199Y-88468028D01*
X200285198Y-88468013D01*
X200274705Y-88365302D01*
X200219558Y-88198880D01*
X200219556Y-88198875D01*
X200127515Y-88049654D01*
X200039042Y-87961181D01*
X200005557Y-87899858D01*
X200010541Y-87830166D01*
X200052413Y-87774233D01*
X200117877Y-87749816D01*
X200126723Y-87749500D01*
X201423732Y-87749500D01*
X201490771Y-87769185D01*
X201536526Y-87821989D01*
X201546470Y-87891147D01*
X201517445Y-87954703D01*
X201486853Y-87980232D01*
X201351947Y-88060014D01*
X201351938Y-88060021D01*
X201235821Y-88176138D01*
X201235814Y-88176147D01*
X201152218Y-88317501D01*
X201106399Y-88475213D01*
X201106204Y-88477698D01*
X201106205Y-88477700D01*
X203246685Y-88477700D01*
X203309806Y-88494968D01*
X203368102Y-88529444D01*
X203409724Y-88541536D01*
X203525926Y-88575297D01*
X203525929Y-88575297D01*
X203525931Y-88575298D01*
X203562806Y-88578200D01*
X203820443Y-88578200D01*
X203867895Y-88587639D01*
X203941194Y-88618000D01*
X203958876Y-88625324D01*
X203958880Y-88625324D01*
X203958881Y-88625325D01*
X204129177Y-88659200D01*
X204129180Y-88659200D01*
X204990923Y-88659200D01*
X205105493Y-88636409D01*
X205161224Y-88625324D01*
X205274992Y-88578200D01*
X205321643Y-88558877D01*
X205321644Y-88558876D01*
X205321647Y-88558875D01*
X205466024Y-88462406D01*
X205893605Y-88034824D01*
X205937922Y-87968500D01*
X205942813Y-87961181D01*
X205976119Y-87911334D01*
X205990075Y-87890447D01*
X206056524Y-87730024D01*
X206086614Y-87578754D01*
X206090400Y-87559722D01*
X206090400Y-82306181D01*
X226431900Y-82306181D01*
X226431900Y-82480618D01*
X226465927Y-82651683D01*
X226465929Y-82651691D01*
X226532678Y-82812839D01*
X226532683Y-82812848D01*
X226629586Y-82957873D01*
X226629589Y-82957877D01*
X226752922Y-83081210D01*
X226752926Y-83081213D01*
X226897951Y-83178116D01*
X226897957Y-83178119D01*
X226897958Y-83178120D01*
X227059109Y-83244871D01*
X227184573Y-83269827D01*
X227230181Y-83278899D01*
X227230185Y-83278900D01*
X227230186Y-83278900D01*
X227404615Y-83278900D01*
X227404616Y-83278899D01*
X227575691Y-83244871D01*
X227736842Y-83178120D01*
X227881874Y-83081213D01*
X228005213Y-82957874D01*
X228102120Y-82812842D01*
X228168871Y-82651691D01*
X228202900Y-82480614D01*
X228202900Y-82306186D01*
X228168871Y-82135109D01*
X228102120Y-81973958D01*
X228102119Y-81973957D01*
X228102116Y-81973951D01*
X228005213Y-81828926D01*
X228005210Y-81828922D01*
X227881877Y-81705589D01*
X227881873Y-81705586D01*
X227736848Y-81608683D01*
X227736839Y-81608678D01*
X227575691Y-81541929D01*
X227575683Y-81541927D01*
X227404618Y-81507900D01*
X227404614Y-81507900D01*
X227230186Y-81507900D01*
X227230181Y-81507900D01*
X227059116Y-81541927D01*
X227059108Y-81541929D01*
X226897960Y-81608678D01*
X226897951Y-81608683D01*
X226752926Y-81705586D01*
X226752922Y-81705589D01*
X226629589Y-81828922D01*
X226629586Y-81828926D01*
X226532683Y-81973951D01*
X226532678Y-81973960D01*
X226465929Y-82135108D01*
X226465927Y-82135116D01*
X226431900Y-82306181D01*
X206090400Y-82306181D01*
X206090400Y-81627279D01*
X206089803Y-81621217D01*
X206089844Y-81621212D01*
X206088100Y-81603504D01*
X206088100Y-79520581D01*
X226431900Y-79520581D01*
X226431900Y-79695018D01*
X226465927Y-79866083D01*
X226465929Y-79866091D01*
X226532678Y-80027239D01*
X226532683Y-80027248D01*
X226629586Y-80172273D01*
X226629589Y-80172277D01*
X226752922Y-80295610D01*
X226752926Y-80295613D01*
X226897951Y-80392516D01*
X226897957Y-80392519D01*
X226897958Y-80392520D01*
X227059109Y-80459271D01*
X227191586Y-80485622D01*
X227230181Y-80493299D01*
X227230185Y-80493300D01*
X227230186Y-80493300D01*
X227404615Y-80493300D01*
X227404616Y-80493299D01*
X227575691Y-80459271D01*
X227736842Y-80392520D01*
X227881874Y-80295613D01*
X228005213Y-80172274D01*
X228102120Y-80027242D01*
X228168871Y-79866091D01*
X228202900Y-79695014D01*
X228202900Y-79520586D01*
X228168871Y-79349509D01*
X228102120Y-79188358D01*
X228102119Y-79188357D01*
X228102116Y-79188351D01*
X228005213Y-79043326D01*
X228005210Y-79043322D01*
X227881877Y-78919989D01*
X227881873Y-78919986D01*
X227736848Y-78823083D01*
X227736839Y-78823078D01*
X227575691Y-78756329D01*
X227575683Y-78756327D01*
X227404618Y-78722300D01*
X227404614Y-78722300D01*
X227230186Y-78722300D01*
X227230181Y-78722300D01*
X227059116Y-78756327D01*
X227059108Y-78756329D01*
X226897960Y-78823078D01*
X226897951Y-78823083D01*
X226752926Y-78919986D01*
X226752922Y-78919989D01*
X226629589Y-79043322D01*
X226629586Y-79043326D01*
X226532683Y-79188351D01*
X226532678Y-79188360D01*
X226465929Y-79349508D01*
X226465927Y-79349516D01*
X226431900Y-79520581D01*
X206088100Y-79520581D01*
X206088100Y-76357800D01*
X223871416Y-76357800D01*
X224912840Y-76357800D01*
X224882155Y-76410947D01*
X224847400Y-76540657D01*
X224847400Y-76674943D01*
X224882155Y-76804653D01*
X224912840Y-76857800D01*
X223871416Y-76857800D01*
X223878181Y-76900516D01*
X223938981Y-77087637D01*
X224028304Y-77262943D01*
X224143955Y-77422121D01*
X224283078Y-77561244D01*
X224442256Y-77676895D01*
X224617564Y-77766218D01*
X224804694Y-77827021D01*
X224999018Y-77857800D01*
X225107400Y-77857800D01*
X225107400Y-77052360D01*
X225160547Y-77083045D01*
X225290257Y-77117800D01*
X225424543Y-77117800D01*
X225554253Y-77083045D01*
X225607400Y-77052360D01*
X225607400Y-77857800D01*
X225715782Y-77857800D01*
X225910105Y-77827021D01*
X226097235Y-77766218D01*
X226272543Y-77676895D01*
X226431721Y-77561244D01*
X226570844Y-77422121D01*
X226686495Y-77262943D01*
X226775818Y-77087637D01*
X226836618Y-76900516D01*
X226843384Y-76857800D01*
X225801960Y-76857800D01*
X225832645Y-76804653D01*
X225867400Y-76674943D01*
X225867400Y-76540657D01*
X225832645Y-76410947D01*
X225801960Y-76357800D01*
X226843384Y-76357800D01*
X226836618Y-76315083D01*
X226775818Y-76127962D01*
X226686495Y-75952656D01*
X226570844Y-75793478D01*
X226431721Y-75654355D01*
X226272543Y-75538704D01*
X226097235Y-75449381D01*
X225910105Y-75388578D01*
X225715782Y-75357800D01*
X225607400Y-75357800D01*
X225607400Y-76163239D01*
X225554253Y-76132555D01*
X225424543Y-76097800D01*
X225290257Y-76097800D01*
X225160547Y-76132555D01*
X225107400Y-76163239D01*
X225107400Y-75357800D01*
X224999018Y-75357800D01*
X224804694Y-75388578D01*
X224617564Y-75449381D01*
X224442256Y-75538704D01*
X224283078Y-75654355D01*
X224143955Y-75793478D01*
X224028304Y-75952656D01*
X223938981Y-76127962D01*
X223878181Y-76315083D01*
X223871416Y-76357800D01*
X206088100Y-76357800D01*
X206088100Y-74943089D01*
X206107785Y-74876050D01*
X206150098Y-74835703D01*
X206232012Y-74788411D01*
X206414061Y-74648719D01*
X206414065Y-74648714D01*
X206414070Y-74648711D01*
X206576311Y-74486470D01*
X206576314Y-74486465D01*
X206576319Y-74486461D01*
X206716011Y-74304412D01*
X206729202Y-74281565D01*
X206733974Y-74273300D01*
X206784541Y-74225084D01*
X206841361Y-74211300D01*
X211922824Y-74211300D01*
X212037394Y-74188509D01*
X212093125Y-74177424D01*
X212173336Y-74144199D01*
X212253544Y-74110977D01*
X212253545Y-74110976D01*
X212253548Y-74110975D01*
X212397925Y-74014506D01*
X212518744Y-73893687D01*
X212693675Y-73718757D01*
X213354617Y-73057814D01*
X223847400Y-73057814D01*
X223847400Y-73357800D01*
X224912840Y-73357800D01*
X224882155Y-73410947D01*
X224847400Y-73540657D01*
X224847400Y-73674943D01*
X224882155Y-73804653D01*
X224912840Y-73857800D01*
X223847400Y-73857800D01*
X223847400Y-74157785D01*
X223857893Y-74260489D01*
X223857894Y-74260496D01*
X223913041Y-74426918D01*
X223913043Y-74426923D01*
X224005084Y-74576144D01*
X224129055Y-74700115D01*
X224278276Y-74792156D01*
X224278281Y-74792158D01*
X224444703Y-74847305D01*
X224444710Y-74847306D01*
X224547414Y-74857799D01*
X224547427Y-74857800D01*
X225107400Y-74857800D01*
X225107400Y-74052360D01*
X225160547Y-74083045D01*
X225290257Y-74117800D01*
X225424543Y-74117800D01*
X225554253Y-74083045D01*
X225607400Y-74052360D01*
X225607400Y-74857800D01*
X226167373Y-74857800D01*
X226167385Y-74857799D01*
X226270089Y-74847306D01*
X226270096Y-74847305D01*
X226436518Y-74792158D01*
X226436523Y-74792156D01*
X226585744Y-74700115D01*
X226709715Y-74576144D01*
X226801756Y-74426923D01*
X226801758Y-74426918D01*
X226856905Y-74260496D01*
X226856906Y-74260489D01*
X226867399Y-74157785D01*
X226867400Y-74157772D01*
X226867400Y-73857800D01*
X225801960Y-73857800D01*
X225832645Y-73804653D01*
X225867400Y-73674943D01*
X225867400Y-73540657D01*
X225832645Y-73410947D01*
X225801960Y-73357800D01*
X226867400Y-73357800D01*
X226867400Y-73057827D01*
X226867399Y-73057814D01*
X226856906Y-72955110D01*
X226856905Y-72955103D01*
X226801758Y-72788681D01*
X226801756Y-72788676D01*
X226709715Y-72639455D01*
X226585744Y-72515484D01*
X226436523Y-72423443D01*
X226436518Y-72423441D01*
X226270096Y-72368294D01*
X226270089Y-72368293D01*
X226167385Y-72357800D01*
X225607400Y-72357800D01*
X225607400Y-73163239D01*
X225554253Y-73132555D01*
X225424543Y-73097800D01*
X225290257Y-73097800D01*
X225160547Y-73132555D01*
X225107400Y-73163239D01*
X225107400Y-72357800D01*
X224547414Y-72357800D01*
X224444710Y-72368293D01*
X224444703Y-72368294D01*
X224278281Y-72423441D01*
X224278276Y-72423443D01*
X224129055Y-72515484D01*
X224005084Y-72639455D01*
X223913043Y-72788676D01*
X223913041Y-72788681D01*
X223857894Y-72955103D01*
X223857893Y-72955110D01*
X223847400Y-73057814D01*
X213354617Y-73057814D01*
X213445447Y-72966984D01*
X214031810Y-72380620D01*
X214093133Y-72347135D01*
X214119491Y-72344301D01*
X214224351Y-72344301D01*
X214224352Y-72344301D01*
X214426534Y-72312278D01*
X214621219Y-72249021D01*
X214803610Y-72156088D01*
X214938688Y-72057949D01*
X214969213Y-72035772D01*
X214969215Y-72035769D01*
X214969219Y-72035767D01*
X215113966Y-71891020D01*
X215113968Y-71891016D01*
X215113971Y-71891014D01*
X215209399Y-71759666D01*
X215234287Y-71725411D01*
X215327220Y-71543020D01*
X215390477Y-71348335D01*
X215422500Y-71146153D01*
X215422500Y-70941449D01*
X215390477Y-70739267D01*
X215327220Y-70544582D01*
X215327220Y-70544581D01*
X215314991Y-70520581D01*
X226431900Y-70520581D01*
X226431900Y-70695018D01*
X226465927Y-70866083D01*
X226465929Y-70866091D01*
X226532678Y-71027239D01*
X226532683Y-71027248D01*
X226629586Y-71172273D01*
X226629589Y-71172277D01*
X226752922Y-71295610D01*
X226752926Y-71295613D01*
X226897951Y-71392516D01*
X226897957Y-71392519D01*
X226897958Y-71392520D01*
X227059109Y-71459271D01*
X227230181Y-71493299D01*
X227230185Y-71493300D01*
X227230186Y-71493300D01*
X227404615Y-71493300D01*
X227404616Y-71493299D01*
X227575691Y-71459271D01*
X227736842Y-71392520D01*
X227881874Y-71295613D01*
X228005213Y-71172274D01*
X228102120Y-71027242D01*
X228168871Y-70866091D01*
X228202900Y-70695014D01*
X228202900Y-70520586D01*
X228168871Y-70349509D01*
X228105529Y-70196587D01*
X228102121Y-70188360D01*
X228102116Y-70188351D01*
X228005213Y-70043326D01*
X228005210Y-70043322D01*
X227881877Y-69919989D01*
X227881873Y-69919986D01*
X227736848Y-69823083D01*
X227736839Y-69823078D01*
X227575691Y-69756329D01*
X227575683Y-69756327D01*
X227404618Y-69722300D01*
X227404614Y-69722300D01*
X227230186Y-69722300D01*
X227230181Y-69722300D01*
X227059116Y-69756327D01*
X227059108Y-69756329D01*
X226897960Y-69823078D01*
X226897951Y-69823083D01*
X226752926Y-69919986D01*
X226752922Y-69919989D01*
X226629589Y-70043322D01*
X226629586Y-70043326D01*
X226532683Y-70188351D01*
X226532678Y-70188360D01*
X226465929Y-70349508D01*
X226465927Y-70349516D01*
X226431900Y-70520581D01*
X215314991Y-70520581D01*
X215262771Y-70418094D01*
X215234287Y-70362191D01*
X215225072Y-70349508D01*
X215113971Y-70196587D01*
X214969213Y-70051829D01*
X214803613Y-69931516D01*
X214803612Y-69931515D01*
X214803610Y-69931514D01*
X214746653Y-69902492D01*
X214621223Y-69838582D01*
X214426534Y-69775323D01*
X214251995Y-69747679D01*
X214224352Y-69743301D01*
X214019648Y-69743301D01*
X213995329Y-69747152D01*
X213817465Y-69775323D01*
X213622776Y-69838582D01*
X213440386Y-69931516D01*
X213274786Y-70051829D01*
X213130028Y-70196587D01*
X213009715Y-70362187D01*
X212916781Y-70544577D01*
X212853522Y-70739266D01*
X212821500Y-70941449D01*
X212821500Y-71046309D01*
X212801815Y-71113348D01*
X212785181Y-71133990D01*
X211507190Y-72411981D01*
X211445867Y-72445466D01*
X211419509Y-72448300D01*
X206841361Y-72448300D01*
X206774322Y-72428615D01*
X206733974Y-72386300D01*
X206716011Y-72355187D01*
X206576318Y-72173138D01*
X206576311Y-72173130D01*
X206414070Y-72010889D01*
X206414061Y-72010881D01*
X206232017Y-71871192D01*
X206033290Y-71756457D01*
X206033276Y-71756450D01*
X205821287Y-71668642D01*
X205599638Y-71609252D01*
X205561615Y-71604246D01*
X205372141Y-71579300D01*
X205372134Y-71579300D01*
X205142666Y-71579300D01*
X205142658Y-71579300D01*
X204926115Y-71607809D01*
X204915162Y-71609252D01*
X204852325Y-71626089D01*
X204693512Y-71668642D01*
X204481523Y-71756450D01*
X204481509Y-71756457D01*
X204282782Y-71871192D01*
X204100738Y-72010881D01*
X203938481Y-72173138D01*
X203798792Y-72355182D01*
X203684057Y-72553909D01*
X203684050Y-72553923D01*
X203596242Y-72765912D01*
X203569325Y-72866369D01*
X203545548Y-72955110D01*
X203536853Y-72987559D01*
X203536851Y-72987570D01*
X203506900Y-73215058D01*
X203506900Y-73444541D01*
X203525059Y-73582461D01*
X203536852Y-73672038D01*
X203584892Y-73851326D01*
X203596242Y-73893687D01*
X203684050Y-74105676D01*
X203684057Y-74105690D01*
X203798792Y-74304417D01*
X203938481Y-74486461D01*
X203938489Y-74486470D01*
X204100730Y-74648711D01*
X204100738Y-74648718D01*
X204276587Y-74783653D01*
X204317789Y-74840081D01*
X204325100Y-74882028D01*
X204325100Y-81798625D01*
X204325697Y-81804688D01*
X204325655Y-81804692D01*
X204327400Y-81822398D01*
X204327400Y-86772200D01*
X204307715Y-86839239D01*
X204254911Y-86884994D01*
X204203400Y-86896200D01*
X204129178Y-86896200D01*
X203958881Y-86930074D01*
X203958871Y-86930077D01*
X203867895Y-86967761D01*
X203859718Y-86969387D01*
X203855378Y-86972177D01*
X203820443Y-86977200D01*
X203703000Y-86977200D01*
X203635961Y-86957515D01*
X203590206Y-86904711D01*
X203579000Y-86853200D01*
X203579000Y-86612013D01*
X203578999Y-86611998D01*
X203576340Y-86578213D01*
X203576098Y-86575131D01*
X203530244Y-86417302D01*
X203446581Y-86275835D01*
X203446579Y-86275833D01*
X203446576Y-86275829D01*
X203330370Y-86159623D01*
X203330362Y-86159617D01*
X203188896Y-86075955D01*
X203188893Y-86075954D01*
X203031073Y-86030102D01*
X203031067Y-86030101D01*
X202994201Y-86027200D01*
X202994194Y-86027200D01*
X202736558Y-86027200D01*
X202689105Y-86017761D01*
X202598124Y-85980075D01*
X202598116Y-85980073D01*
X202427825Y-85946200D01*
X202427821Y-85946200D01*
X202254179Y-85946200D01*
X202254174Y-85946200D01*
X202083879Y-85980073D01*
X202080299Y-85981160D01*
X202044302Y-85986500D01*
X200116430Y-85986500D01*
X200049391Y-85966815D01*
X200028749Y-85950181D01*
X200003857Y-85925289D01*
X200003856Y-85925288D01*
X199854534Y-85833186D01*
X199687997Y-85778001D01*
X199687995Y-85778000D01*
X199585210Y-85767500D01*
X198585198Y-85767500D01*
X198585180Y-85767501D01*
X198482403Y-85778000D01*
X198482400Y-85778001D01*
X198315868Y-85833185D01*
X198315863Y-85833187D01*
X198166542Y-85925289D01*
X198141651Y-85950181D01*
X198080328Y-85983666D01*
X198053970Y-85986500D01*
X196636630Y-85986500D01*
X196569591Y-85966815D01*
X196548949Y-85950181D01*
X196524057Y-85925289D01*
X196524056Y-85925288D01*
X196374734Y-85833186D01*
X196208197Y-85778001D01*
X196208195Y-85778000D01*
X196105410Y-85767500D01*
X195105398Y-85767500D01*
X195105380Y-85767501D01*
X195002603Y-85778000D01*
X195002600Y-85778001D01*
X194836068Y-85833185D01*
X194836063Y-85833187D01*
X194686742Y-85925289D01*
X194562689Y-86049342D01*
X194470587Y-86198663D01*
X194470586Y-86198666D01*
X194415401Y-86365203D01*
X194415401Y-86365204D01*
X194415400Y-86365204D01*
X194404900Y-86467983D01*
X194404900Y-87268001D01*
X194404901Y-87268019D01*
X194415400Y-87370796D01*
X194415401Y-87370799D01*
X194470585Y-87537331D01*
X194470587Y-87537336D01*
X194562689Y-87686657D01*
X194656351Y-87780319D01*
X194689836Y-87841642D01*
X194684852Y-87911334D01*
X194656351Y-87955681D01*
X194562689Y-88049342D01*
X194470587Y-88198663D01*
X194470585Y-88198668D01*
X194470515Y-88198880D01*
X194415401Y-88365203D01*
X194415401Y-88365204D01*
X194415400Y-88365204D01*
X194404900Y-88467983D01*
X194404900Y-89268001D01*
X194404901Y-89268019D01*
X194415400Y-89370796D01*
X194415401Y-89370799D01*
X194452154Y-89481711D01*
X194470586Y-89537334D01*
X194562688Y-89686656D01*
X194686744Y-89810712D01*
X194836066Y-89902814D01*
X194867505Y-89913231D01*
X194924949Y-89953003D01*
X194951772Y-90017519D01*
X194952500Y-90030937D01*
X194952500Y-99779597D01*
X194932815Y-99846636D01*
X194916181Y-99867278D01*
X193390078Y-101393381D01*
X193328755Y-101426866D01*
X193302397Y-101429700D01*
X187591629Y-101429700D01*
X187524590Y-101410015D01*
X187478835Y-101357211D01*
X187468891Y-101288053D01*
X187477068Y-101258248D01*
X187497787Y-101208223D01*
X187517662Y-101160243D01*
X187532900Y-101044499D01*
X187532899Y-100539902D01*
X187532714Y-100538499D01*
X187517663Y-100424164D01*
X187517662Y-100424163D01*
X187517662Y-100424157D01*
X187472355Y-100314777D01*
X187464887Y-100245309D01*
X187496162Y-100182830D01*
X187539129Y-100152904D01*
X187550564Y-100148127D01*
X187566244Y-100145009D01*
X187685064Y-100095792D01*
X187690374Y-100092244D01*
X187792000Y-100024341D01*
X188263940Y-99552400D01*
X188335392Y-99445464D01*
X188384609Y-99326644D01*
X188386425Y-99317516D01*
X188394715Y-99275844D01*
X188409700Y-99200507D01*
X188409700Y-97344692D01*
X188384610Y-97218561D01*
X188384609Y-97218560D01*
X188384609Y-97218556D01*
X188335392Y-97099736D01*
X188335392Y-97099735D01*
X188318076Y-97073821D01*
X188318075Y-97073819D01*
X188263940Y-96992800D01*
X188263938Y-96992797D01*
X188263937Y-96992796D01*
X187741205Y-96470063D01*
X187741204Y-96470062D01*
X187634262Y-96398606D01*
X187533629Y-96356923D01*
X187479226Y-96313082D01*
X187457161Y-96246787D01*
X187466521Y-96194909D01*
X187517701Y-96071351D01*
X187532900Y-95955901D01*
X187532899Y-95458500D01*
X187532899Y-95458498D01*
X187532899Y-95458496D01*
X187517703Y-95343057D01*
X187517701Y-95343050D01*
X187517701Y-95343049D01*
X187458200Y-95199402D01*
X187458199Y-95199401D01*
X187458199Y-95199400D01*
X187437627Y-95172591D01*
X187418516Y-95147685D01*
X187393322Y-95082519D01*
X187407360Y-95014074D01*
X187418514Y-94996716D01*
X187458200Y-94944998D01*
X187517701Y-94801351D01*
X187532900Y-94685901D01*
X187532899Y-94188500D01*
X187532899Y-94188498D01*
X187532899Y-94188496D01*
X187517703Y-94073057D01*
X187517701Y-94073050D01*
X187517701Y-94073049D01*
X187458200Y-93929402D01*
X187363549Y-93806051D01*
X187240198Y-93711400D01*
X187240194Y-93711398D01*
X187096551Y-93651899D01*
X187096549Y-93651898D01*
X186981102Y-93636700D01*
X186981101Y-93636700D01*
X186907900Y-93636700D01*
X186840861Y-93617015D01*
X186795106Y-93564211D01*
X186783900Y-93512700D01*
X186783900Y-92886430D01*
X186792544Y-92856989D01*
X186799068Y-92827003D01*
X186802822Y-92821987D01*
X186803585Y-92819391D01*
X186820219Y-92798749D01*
X186833249Y-92785719D01*
X186894572Y-92752234D01*
X186920930Y-92749400D01*
X188631808Y-92749400D01*
X188698847Y-92769085D01*
X188719489Y-92785719D01*
X189284156Y-93350385D01*
X189317641Y-93411708D01*
X189320475Y-93438066D01*
X189320475Y-95184722D01*
X189300790Y-95251761D01*
X189247986Y-95297516D01*
X189239808Y-95300904D01*
X189159646Y-95330802D01*
X189159639Y-95330806D01*
X189044430Y-95417052D01*
X189044427Y-95417055D01*
X188958181Y-95532264D01*
X188958177Y-95532271D01*
X188907883Y-95667117D01*
X188901476Y-95726716D01*
X188901475Y-95726735D01*
X188901475Y-97422470D01*
X188901476Y-97422476D01*
X188907883Y-97482083D01*
X188958177Y-97616928D01*
X188958181Y-97616935D01*
X189044427Y-97732144D01*
X189044430Y-97732147D01*
X189159639Y-97818393D01*
X189159646Y-97818397D01*
X189294492Y-97868691D01*
X189294491Y-97868691D01*
X189301419Y-97869435D01*
X189354102Y-97875100D01*
X191049847Y-97875099D01*
X191109458Y-97868691D01*
X191244306Y-97818396D01*
X191359521Y-97732146D01*
X191359523Y-97732144D01*
X191365899Y-97723626D01*
X191421831Y-97681752D01*
X191491522Y-97676765D01*
X191521464Y-97687447D01*
X191702751Y-97779818D01*
X191702753Y-97779818D01*
X191702756Y-97779820D01*
X191807112Y-97813727D01*
X191897440Y-97843077D01*
X191998532Y-97859088D01*
X192099623Y-97875100D01*
X192099624Y-97875100D01*
X192304326Y-97875100D01*
X192304327Y-97875100D01*
X192506509Y-97843077D01*
X192701194Y-97779820D01*
X192883585Y-97686887D01*
X192979876Y-97616928D01*
X193049188Y-97566571D01*
X193049190Y-97566568D01*
X193049194Y-97566566D01*
X193193941Y-97421819D01*
X193193943Y-97421815D01*
X193193946Y-97421813D01*
X193286882Y-97293895D01*
X193314262Y-97256210D01*
X193407195Y-97073819D01*
X193470452Y-96879134D01*
X193502475Y-96676952D01*
X193502475Y-96472248D01*
X193481318Y-96338667D01*
X193470452Y-96270065D01*
X193441102Y-96179737D01*
X193407195Y-96075381D01*
X193407193Y-96075378D01*
X193407193Y-96075376D01*
X193346742Y-95956736D01*
X193314262Y-95892990D01*
X193239509Y-95790100D01*
X193193946Y-95727386D01*
X193049192Y-95582632D01*
X193049187Y-95582628D01*
X193007590Y-95552406D01*
X192964924Y-95497076D01*
X192956475Y-95452088D01*
X192956475Y-79252421D01*
X192956476Y-79252400D01*
X192956476Y-79097660D01*
X192927481Y-78951901D01*
X192927480Y-78951900D01*
X192927480Y-78951896D01*
X192874125Y-78823083D01*
X192870607Y-78814590D01*
X192870605Y-78814587D01*
X192870605Y-78814586D01*
X192843205Y-78773580D01*
X192788034Y-78691009D01*
X192788032Y-78691007D01*
X192788030Y-78691004D01*
X192678622Y-78581596D01*
X192678599Y-78581575D01*
X183125849Y-69028823D01*
X187688099Y-69028823D01*
X187721974Y-69199118D01*
X187721977Y-69199128D01*
X187788422Y-69359543D01*
X187884895Y-69503926D01*
X187884896Y-69503927D01*
X191059932Y-72678962D01*
X191093417Y-72740285D01*
X191092026Y-72798736D01*
X191041130Y-72988684D01*
X191006900Y-73248672D01*
X191006900Y-73510927D01*
X191031748Y-73699653D01*
X191041130Y-73770916D01*
X191109002Y-74024218D01*
X191109004Y-74024225D01*
X191209353Y-74266490D01*
X191209358Y-74266500D01*
X191340475Y-74493603D01*
X191500118Y-74701651D01*
X191500126Y-74701660D01*
X191685540Y-74887074D01*
X191685548Y-74887081D01*
X191893596Y-75046724D01*
X192120699Y-75177841D01*
X192120709Y-75177846D01*
X192362971Y-75278194D01*
X192362981Y-75278198D01*
X192616284Y-75346070D01*
X192876280Y-75380300D01*
X192876287Y-75380300D01*
X193138513Y-75380300D01*
X193138520Y-75380300D01*
X193398516Y-75346070D01*
X193651819Y-75278198D01*
X193894097Y-75177843D01*
X194121203Y-75046724D01*
X194329251Y-74887082D01*
X194329255Y-74887077D01*
X194329260Y-74887074D01*
X194514674Y-74701660D01*
X194514677Y-74701655D01*
X194514682Y-74701651D01*
X194674324Y-74493603D01*
X194805443Y-74266497D01*
X194807932Y-74260489D01*
X194905796Y-74024225D01*
X194905796Y-74024223D01*
X194905798Y-74024219D01*
X194973670Y-73770916D01*
X195007900Y-73510920D01*
X195007900Y-73248680D01*
X194973670Y-72988684D01*
X194905798Y-72735381D01*
X194896195Y-72712198D01*
X194805446Y-72493109D01*
X194805441Y-72493099D01*
X194674324Y-72265996D01*
X194514681Y-72057948D01*
X194514674Y-72057940D01*
X194329260Y-71872526D01*
X194329251Y-71872518D01*
X194121203Y-71712875D01*
X193894100Y-71581758D01*
X193894090Y-71581753D01*
X193651828Y-71481405D01*
X193651821Y-71481403D01*
X193651819Y-71481402D01*
X193398516Y-71413530D01*
X193340739Y-71405923D01*
X193138527Y-71379300D01*
X193138520Y-71379300D01*
X192876280Y-71379300D01*
X192876272Y-71379300D01*
X192616284Y-71413530D01*
X192426336Y-71464426D01*
X192356486Y-71462763D01*
X192306562Y-71432332D01*
X189487419Y-68613189D01*
X189453934Y-68551866D01*
X189451100Y-68525508D01*
X189451100Y-67248672D01*
X205206900Y-67248672D01*
X205206900Y-67510927D01*
X205225915Y-67655351D01*
X205241130Y-67770916D01*
X205309002Y-68024218D01*
X205309005Y-68024228D01*
X205409353Y-68266490D01*
X205409358Y-68266500D01*
X205540475Y-68493603D01*
X205700118Y-68701651D01*
X205700126Y-68701660D01*
X205885540Y-68887074D01*
X205885548Y-68887081D01*
X206093596Y-69046724D01*
X206320699Y-69177841D01*
X206320709Y-69177846D01*
X206562971Y-69278194D01*
X206562981Y-69278198D01*
X206816284Y-69346070D01*
X207076280Y-69380300D01*
X207076287Y-69380300D01*
X207338513Y-69380300D01*
X207338520Y-69380300D01*
X207598516Y-69346070D01*
X207851819Y-69278198D01*
X208094097Y-69177843D01*
X208321203Y-69046724D01*
X208529251Y-68887082D01*
X208529255Y-68887077D01*
X208529260Y-68887074D01*
X208714674Y-68701660D01*
X208714677Y-68701655D01*
X208714682Y-68701651D01*
X208874324Y-68493603D01*
X209005443Y-68266497D01*
X209105798Y-68024219D01*
X209115615Y-67987581D01*
X226397900Y-67987581D01*
X226397900Y-68162018D01*
X226431927Y-68333083D01*
X226431929Y-68333091D01*
X226498678Y-68494239D01*
X226498683Y-68494248D01*
X226595586Y-68639273D01*
X226595589Y-68639277D01*
X226718922Y-68762610D01*
X226718926Y-68762613D01*
X226863951Y-68859516D01*
X226863957Y-68859519D01*
X226863958Y-68859520D01*
X227025109Y-68926271D01*
X227196181Y-68960299D01*
X227196185Y-68960300D01*
X227196186Y-68960300D01*
X227370615Y-68960300D01*
X227370616Y-68960299D01*
X227541691Y-68926271D01*
X227702842Y-68859520D01*
X227847874Y-68762613D01*
X227971213Y-68639274D01*
X228068120Y-68494242D01*
X228134871Y-68333091D01*
X228168900Y-68162014D01*
X228168900Y-67987586D01*
X228134871Y-67816509D01*
X228068120Y-67655358D01*
X228068119Y-67655357D01*
X228068116Y-67655351D01*
X227971213Y-67510326D01*
X227971210Y-67510322D01*
X227847877Y-67386989D01*
X227847873Y-67386986D01*
X227702848Y-67290083D01*
X227702839Y-67290078D01*
X227541691Y-67223329D01*
X227541683Y-67223327D01*
X227370618Y-67189300D01*
X227370614Y-67189300D01*
X227196186Y-67189300D01*
X227196181Y-67189300D01*
X227025116Y-67223327D01*
X227025108Y-67223329D01*
X226863960Y-67290078D01*
X226863951Y-67290083D01*
X226718926Y-67386986D01*
X226718922Y-67386989D01*
X226595589Y-67510322D01*
X226595586Y-67510326D01*
X226498683Y-67655351D01*
X226498678Y-67655360D01*
X226431929Y-67816508D01*
X226431927Y-67816516D01*
X226397900Y-67987581D01*
X209115615Y-67987581D01*
X209173670Y-67770916D01*
X209207900Y-67510920D01*
X209207900Y-67248680D01*
X209173670Y-66988684D01*
X209122773Y-66798733D01*
X209124436Y-66728886D01*
X209154865Y-66678963D01*
X210857451Y-64976377D01*
X223812900Y-64976377D01*
X223812900Y-65173222D01*
X223843690Y-65367626D01*
X223904517Y-65554829D01*
X223985046Y-65712875D01*
X223993876Y-65730205D01*
X224109572Y-65889446D01*
X224248754Y-66028628D01*
X224407995Y-66144324D01*
X224490855Y-66186543D01*
X224583370Y-66233682D01*
X224583372Y-66233682D01*
X224583375Y-66233684D01*
X224682821Y-66265996D01*
X224770573Y-66294509D01*
X224964978Y-66325300D01*
X224964983Y-66325300D01*
X225681822Y-66325300D01*
X225876226Y-66294509D01*
X226063425Y-66233684D01*
X226238805Y-66144324D01*
X226398046Y-66028628D01*
X226537228Y-65889446D01*
X226652924Y-65730205D01*
X226742284Y-65554825D01*
X226803109Y-65367626D01*
X226833900Y-65173222D01*
X226833900Y-64976377D01*
X226803109Y-64781973D01*
X226742282Y-64594770D01*
X226695143Y-64502255D01*
X226652924Y-64419395D01*
X226537228Y-64260154D01*
X226398046Y-64120972D01*
X226238805Y-64005276D01*
X226063429Y-63915917D01*
X225876226Y-63855090D01*
X225681822Y-63824300D01*
X225681817Y-63824300D01*
X224964983Y-63824300D01*
X224964978Y-63824300D01*
X224770573Y-63855090D01*
X224583370Y-63915917D01*
X224407994Y-64005276D01*
X224317141Y-64071285D01*
X224248754Y-64120972D01*
X224248752Y-64120974D01*
X224248751Y-64120974D01*
X224109574Y-64260151D01*
X224109574Y-64260152D01*
X224109572Y-64260154D01*
X224101200Y-64271677D01*
X223993876Y-64419394D01*
X223904517Y-64594770D01*
X223843690Y-64781973D01*
X223812900Y-64976377D01*
X210857451Y-64976377D01*
X212609821Y-63224006D01*
X212671142Y-63190523D01*
X212740834Y-63195507D01*
X212796767Y-63237379D01*
X212821184Y-63302843D01*
X212821500Y-63311689D01*
X212821500Y-64271671D01*
X212821501Y-64271677D01*
X212827908Y-64331284D01*
X212878202Y-64466129D01*
X212878206Y-64466136D01*
X212964452Y-64581345D01*
X212964455Y-64581348D01*
X213079664Y-64667594D01*
X213079671Y-64667598D01*
X213214517Y-64717892D01*
X213214516Y-64717892D01*
X213221444Y-64718636D01*
X213274127Y-64724301D01*
X214969872Y-64724300D01*
X215029483Y-64717892D01*
X215164331Y-64667597D01*
X215279546Y-64581347D01*
X215365796Y-64466132D01*
X215416091Y-64331284D01*
X215422500Y-64271674D01*
X215422499Y-62575929D01*
X215416091Y-62516318D01*
X215404958Y-62486470D01*
X215365797Y-62381472D01*
X215365793Y-62381465D01*
X215279547Y-62266256D01*
X215279544Y-62266253D01*
X215164335Y-62180007D01*
X215164328Y-62180003D01*
X215029482Y-62129709D01*
X215029483Y-62129709D01*
X214969883Y-62123302D01*
X214969881Y-62123301D01*
X214969873Y-62123301D01*
X214969865Y-62123301D01*
X213743276Y-62123301D01*
X213676237Y-62103616D01*
X213630482Y-62050812D01*
X213620538Y-61981654D01*
X213621659Y-61975110D01*
X213631899Y-61923625D01*
X213631900Y-61923622D01*
X213631900Y-61524784D01*
X223812900Y-61524784D01*
X223812900Y-62624815D01*
X223823400Y-62727595D01*
X223823401Y-62727597D01*
X223843553Y-62788411D01*
X223878586Y-62894135D01*
X223878587Y-62894137D01*
X223970686Y-63043451D01*
X223970689Y-63043455D01*
X224094744Y-63167510D01*
X224094748Y-63167513D01*
X224244062Y-63259612D01*
X224244064Y-63259613D01*
X224244066Y-63259614D01*
X224410603Y-63314799D01*
X224513392Y-63325300D01*
X224513397Y-63325300D01*
X226133403Y-63325300D01*
X226133408Y-63325300D01*
X226236197Y-63314799D01*
X226402734Y-63259614D01*
X226552055Y-63167511D01*
X226676111Y-63043455D01*
X226768214Y-62894134D01*
X226823399Y-62727597D01*
X226833900Y-62624808D01*
X226833900Y-61524792D01*
X226823399Y-61422003D01*
X226768214Y-61255466D01*
X226743298Y-61215072D01*
X226676113Y-61106148D01*
X226676110Y-61106144D01*
X226552055Y-60982089D01*
X226552051Y-60982086D01*
X226402737Y-60889987D01*
X226402735Y-60889986D01*
X226319465Y-60862393D01*
X226236197Y-60834801D01*
X226236195Y-60834800D01*
X226133415Y-60824300D01*
X226133408Y-60824300D01*
X224513392Y-60824300D01*
X224513384Y-60824300D01*
X224410604Y-60834800D01*
X224410603Y-60834801D01*
X224244064Y-60889986D01*
X224244062Y-60889987D01*
X224094748Y-60982086D01*
X224094744Y-60982089D01*
X223970689Y-61106144D01*
X223970686Y-61106148D01*
X223878587Y-61255462D01*
X223878586Y-61255464D01*
X223823401Y-61422003D01*
X223823400Y-61422004D01*
X223812900Y-61524784D01*
X213631900Y-61524784D01*
X213631900Y-58987581D01*
X226397900Y-58987581D01*
X226397900Y-59162018D01*
X226431927Y-59333083D01*
X226431929Y-59333091D01*
X226498678Y-59494239D01*
X226498683Y-59494248D01*
X226595586Y-59639273D01*
X226595589Y-59639277D01*
X226718922Y-59762610D01*
X226718926Y-59762613D01*
X226863951Y-59859516D01*
X226863957Y-59859519D01*
X226863958Y-59859520D01*
X227025109Y-59926271D01*
X227196181Y-59960299D01*
X227196185Y-59960300D01*
X227196186Y-59960300D01*
X227370615Y-59960300D01*
X227370616Y-59960299D01*
X227541691Y-59926271D01*
X227702842Y-59859520D01*
X227847874Y-59762613D01*
X227971213Y-59639274D01*
X228068120Y-59494242D01*
X228134871Y-59333091D01*
X228168900Y-59162014D01*
X228168900Y-58987586D01*
X228134871Y-58816509D01*
X228068120Y-58655358D01*
X228068119Y-58655357D01*
X228068116Y-58655351D01*
X227971213Y-58510326D01*
X227971210Y-58510322D01*
X227847877Y-58386989D01*
X227847873Y-58386986D01*
X227702848Y-58290083D01*
X227702839Y-58290078D01*
X227541691Y-58223329D01*
X227541683Y-58223327D01*
X227370618Y-58189300D01*
X227370614Y-58189300D01*
X227196186Y-58189300D01*
X227196181Y-58189300D01*
X227025116Y-58223327D01*
X227025108Y-58223329D01*
X226863960Y-58290078D01*
X226863951Y-58290083D01*
X226718926Y-58386986D01*
X226718922Y-58386989D01*
X226595589Y-58510322D01*
X226595586Y-58510326D01*
X226498683Y-58655351D01*
X226498678Y-58655360D01*
X226431929Y-58816508D01*
X226431927Y-58816516D01*
X226397900Y-58987581D01*
X213631900Y-58987581D01*
X213631900Y-52785736D01*
X213651585Y-52718697D01*
X213668219Y-52698055D01*
X213685823Y-52680451D01*
X213704228Y-52662046D01*
X213819924Y-52502805D01*
X213909284Y-52327425D01*
X213970109Y-52140226D01*
X213991586Y-52004626D01*
X214000900Y-51945822D01*
X214000900Y-51228982D01*
X213994585Y-51189109D01*
X213994585Y-51189106D01*
X213992063Y-51173186D01*
X222211700Y-51173186D01*
X222211700Y-51442813D01*
X222241886Y-51710719D01*
X222241888Y-51710731D01*
X222301884Y-51973594D01*
X222301887Y-51973602D01*
X222390934Y-52228082D01*
X222507914Y-52470994D01*
X222507916Y-52470997D01*
X222651362Y-52699289D01*
X222819466Y-52910085D01*
X223010115Y-53100734D01*
X223220911Y-53268838D01*
X223449203Y-53412284D01*
X223692121Y-53529267D01*
X223883249Y-53596145D01*
X223946597Y-53618312D01*
X223946605Y-53618315D01*
X223946608Y-53618315D01*
X223946609Y-53618316D01*
X224209468Y-53678312D01*
X224477387Y-53708499D01*
X224477388Y-53708500D01*
X224477391Y-53708500D01*
X224747012Y-53708500D01*
X224747012Y-53708499D01*
X225014932Y-53678312D01*
X225277791Y-53618316D01*
X225532279Y-53529267D01*
X225775197Y-53412284D01*
X226003489Y-53268838D01*
X226214285Y-53100734D01*
X226404934Y-52910085D01*
X226573038Y-52699289D01*
X226716484Y-52470997D01*
X226833467Y-52228079D01*
X226922516Y-51973591D01*
X226982512Y-51710732D01*
X227012700Y-51442809D01*
X227012700Y-51173191D01*
X226982512Y-50905268D01*
X226922516Y-50642409D01*
X226922297Y-50641784D01*
X226886794Y-50540321D01*
X226833467Y-50387921D01*
X226716484Y-50145003D01*
X226573038Y-49916711D01*
X226404934Y-49705915D01*
X226214285Y-49515266D01*
X226003489Y-49347162D01*
X225822612Y-49233509D01*
X225775194Y-49203714D01*
X225532282Y-49086734D01*
X225277802Y-48997687D01*
X225277794Y-48997684D01*
X225080646Y-48952687D01*
X225014932Y-48937688D01*
X225014928Y-48937687D01*
X225014919Y-48937686D01*
X224747013Y-48907500D01*
X224747009Y-48907500D01*
X224477391Y-48907500D01*
X224477386Y-48907500D01*
X224209480Y-48937686D01*
X224209468Y-48937688D01*
X223946605Y-48997684D01*
X223946597Y-48997687D01*
X223692117Y-49086734D01*
X223449205Y-49203714D01*
X223220912Y-49347161D01*
X223010115Y-49515265D01*
X222819465Y-49705915D01*
X222651361Y-49916712D01*
X222507914Y-50145005D01*
X222390934Y-50387917D01*
X222301887Y-50642397D01*
X222301884Y-50642405D01*
X222241888Y-50905268D01*
X222241886Y-50905280D01*
X222211700Y-51173186D01*
X213992063Y-51173186D01*
X213970109Y-51034573D01*
X213937097Y-50932973D01*
X213909284Y-50847375D01*
X213909282Y-50847372D01*
X213909282Y-50847370D01*
X213862143Y-50754855D01*
X213819924Y-50671995D01*
X213704228Y-50512754D01*
X213565046Y-50373572D01*
X213405805Y-50257876D01*
X213360292Y-50234686D01*
X213230429Y-50168517D01*
X213043226Y-50107690D01*
X212848822Y-50076900D01*
X212848817Y-50076900D01*
X212651983Y-50076900D01*
X212651978Y-50076900D01*
X212457573Y-50107690D01*
X212270370Y-50168517D01*
X212094994Y-50257876D01*
X212022537Y-50310520D01*
X211935754Y-50373572D01*
X211935752Y-50373574D01*
X211935751Y-50373574D01*
X211796574Y-50512751D01*
X211796574Y-50512752D01*
X211796572Y-50512754D01*
X211754694Y-50570394D01*
X211680876Y-50671994D01*
X211591517Y-50847370D01*
X211530690Y-51034573D01*
X211499900Y-51228977D01*
X211499900Y-51945822D01*
X211530690Y-52140226D01*
X211591517Y-52327429D01*
X211673631Y-52488585D01*
X211680876Y-52502805D01*
X211796572Y-52662046D01*
X211796574Y-52662048D01*
X211832581Y-52698055D01*
X211866066Y-52759378D01*
X211868900Y-52785736D01*
X211868900Y-61420307D01*
X211849215Y-61487346D01*
X211832581Y-61507988D01*
X207908237Y-65432331D01*
X207846914Y-65465816D01*
X207788463Y-65464425D01*
X207642295Y-65425260D01*
X207598516Y-65413530D01*
X207566016Y-65409251D01*
X207338527Y-65379300D01*
X207338520Y-65379300D01*
X207076280Y-65379300D01*
X207076272Y-65379300D01*
X206845172Y-65409726D01*
X206816284Y-65413530D01*
X206621149Y-65465816D01*
X206562981Y-65481402D01*
X206562971Y-65481405D01*
X206320709Y-65581753D01*
X206320699Y-65581758D01*
X206093596Y-65712875D01*
X205885548Y-65872518D01*
X205700118Y-66057948D01*
X205540475Y-66265996D01*
X205409358Y-66493099D01*
X205409353Y-66493109D01*
X205309005Y-66735371D01*
X205309002Y-66735381D01*
X205241130Y-66988685D01*
X205206900Y-67248672D01*
X189451100Y-67248672D01*
X189451100Y-61198672D01*
X191056900Y-61198672D01*
X191056900Y-61460927D01*
X191083523Y-61663139D01*
X191091130Y-61720916D01*
X191159002Y-61974218D01*
X191159005Y-61974228D01*
X191259353Y-62216490D01*
X191259358Y-62216500D01*
X191390475Y-62443603D01*
X191550118Y-62651651D01*
X191550126Y-62651660D01*
X191735540Y-62837074D01*
X191735548Y-62837081D01*
X191943596Y-62996724D01*
X192170699Y-63127841D01*
X192170709Y-63127846D01*
X192402865Y-63224008D01*
X192412981Y-63228198D01*
X192666284Y-63296070D01*
X192926280Y-63330300D01*
X192926287Y-63330300D01*
X193188513Y-63330300D01*
X193188520Y-63330300D01*
X193448516Y-63296070D01*
X193701819Y-63228198D01*
X193944097Y-63127843D01*
X194171203Y-62996724D01*
X194379251Y-62837082D01*
X194379255Y-62837077D01*
X194379260Y-62837074D01*
X194564674Y-62651660D01*
X194564677Y-62651655D01*
X194564682Y-62651651D01*
X194724324Y-62443603D01*
X194822648Y-62273300D01*
X194873214Y-62225085D01*
X194930035Y-62211300D01*
X197583023Y-62211300D01*
X197697593Y-62188509D01*
X197753324Y-62177424D01*
X197833535Y-62144199D01*
X197913743Y-62110977D01*
X197913744Y-62110976D01*
X197913747Y-62110975D01*
X198058124Y-62014506D01*
X198400601Y-61672029D01*
X198857573Y-61215058D01*
X203506900Y-61215058D01*
X203506900Y-61444541D01*
X203531846Y-61634015D01*
X203536852Y-61672038D01*
X203536853Y-61672040D01*
X203596242Y-61893687D01*
X203684050Y-62105676D01*
X203684057Y-62105690D01*
X203798792Y-62304417D01*
X203938481Y-62486461D01*
X203938489Y-62486470D01*
X204100730Y-62648711D01*
X204100738Y-62648718D01*
X204282782Y-62788407D01*
X204282785Y-62788408D01*
X204282788Y-62788411D01*
X204481512Y-62903144D01*
X204481517Y-62903146D01*
X204481523Y-62903149D01*
X204572880Y-62940990D01*
X204693513Y-62990958D01*
X204915162Y-63050348D01*
X205142666Y-63080300D01*
X205142673Y-63080300D01*
X205372127Y-63080300D01*
X205372134Y-63080300D01*
X205599638Y-63050348D01*
X205821287Y-62990958D01*
X206033288Y-62903144D01*
X206232012Y-62788411D01*
X206414061Y-62648719D01*
X206414065Y-62648714D01*
X206414070Y-62648711D01*
X206576311Y-62486470D01*
X206576314Y-62486465D01*
X206576319Y-62486461D01*
X206716011Y-62304412D01*
X206830744Y-62105688D01*
X206918558Y-61893687D01*
X206977948Y-61672038D01*
X207007900Y-61444534D01*
X207007900Y-61215066D01*
X206977948Y-60987562D01*
X206918558Y-60765913D01*
X206830744Y-60553912D01*
X206716011Y-60355188D01*
X206716008Y-60355185D01*
X206716007Y-60355182D01*
X206576318Y-60173138D01*
X206576311Y-60173130D01*
X206414070Y-60010889D01*
X206414061Y-60010881D01*
X206232017Y-59871192D01*
X206211800Y-59859520D01*
X206142108Y-59819283D01*
X206033290Y-59756457D01*
X206033276Y-59756450D01*
X205821287Y-59668642D01*
X205799764Y-59662875D01*
X205599638Y-59609252D01*
X205561615Y-59604246D01*
X205372141Y-59579300D01*
X205372134Y-59579300D01*
X205142666Y-59579300D01*
X205142658Y-59579300D01*
X204926115Y-59607809D01*
X204915162Y-59609252D01*
X204821476Y-59634354D01*
X204693512Y-59668642D01*
X204481523Y-59756450D01*
X204481509Y-59756457D01*
X204282782Y-59871192D01*
X204100738Y-60010881D01*
X203938481Y-60173138D01*
X203798792Y-60355182D01*
X203684057Y-60553909D01*
X203684050Y-60553923D01*
X203596242Y-60765912D01*
X203596242Y-60765913D01*
X203538319Y-60982089D01*
X203536853Y-60987559D01*
X203536851Y-60987570D01*
X203506900Y-61215058D01*
X198857573Y-61215058D01*
X198949305Y-61123326D01*
X207567410Y-52505219D01*
X207628733Y-52471734D01*
X207655091Y-52468900D01*
X208410489Y-52468900D01*
X208477528Y-52488585D01*
X208523283Y-52541389D01*
X208528195Y-52553896D01*
X208565586Y-52666734D01*
X208565587Y-52666737D01*
X208657686Y-52816051D01*
X208657689Y-52816055D01*
X208781744Y-52940110D01*
X208781748Y-52940113D01*
X208931062Y-53032212D01*
X208931064Y-53032213D01*
X208931066Y-53032214D01*
X209097603Y-53087399D01*
X209200392Y-53097900D01*
X209200397Y-53097900D01*
X210300403Y-53097900D01*
X210300408Y-53097900D01*
X210403197Y-53087399D01*
X210569734Y-53032214D01*
X210719055Y-52940111D01*
X210843111Y-52816055D01*
X210935214Y-52666734D01*
X210990399Y-52500197D01*
X211000900Y-52397408D01*
X211000900Y-50777392D01*
X210990399Y-50674603D01*
X210935214Y-50508066D01*
X210917206Y-50478871D01*
X210843113Y-50358748D01*
X210843110Y-50358744D01*
X210719055Y-50234689D01*
X210719051Y-50234686D01*
X210569737Y-50142587D01*
X210569735Y-50142586D01*
X210464425Y-50107690D01*
X210403197Y-50087401D01*
X210403195Y-50087400D01*
X210300415Y-50076900D01*
X210300408Y-50076900D01*
X209200392Y-50076900D01*
X209200384Y-50076900D01*
X209097604Y-50087400D01*
X209097603Y-50087401D01*
X208931064Y-50142586D01*
X208931062Y-50142587D01*
X208781748Y-50234686D01*
X208781744Y-50234689D01*
X208657689Y-50358744D01*
X208657686Y-50358748D01*
X208565587Y-50508062D01*
X208565586Y-50508065D01*
X208528195Y-50620904D01*
X208488422Y-50678349D01*
X208423906Y-50705172D01*
X208410489Y-50705900D01*
X207151777Y-50705900D01*
X206981481Y-50739774D01*
X206981471Y-50739777D01*
X206821059Y-50806221D01*
X206821046Y-50806228D01*
X206682249Y-50898970D01*
X206682245Y-50898974D01*
X206679443Y-50900845D01*
X206676674Y-50902696D01*
X197167389Y-60411981D01*
X197106066Y-60445466D01*
X197079708Y-60448300D01*
X194930035Y-60448300D01*
X194862996Y-60428615D01*
X194822648Y-60386300D01*
X194724324Y-60215996D01*
X194564681Y-60007948D01*
X194564674Y-60007940D01*
X194379260Y-59822526D01*
X194379251Y-59822518D01*
X194171203Y-59662875D01*
X193944100Y-59531758D01*
X193944090Y-59531753D01*
X193701828Y-59431405D01*
X193701821Y-59431403D01*
X193701819Y-59431402D01*
X193448516Y-59363530D01*
X193390739Y-59355923D01*
X193188527Y-59329300D01*
X193188520Y-59329300D01*
X192926280Y-59329300D01*
X192926272Y-59329300D01*
X192695172Y-59359726D01*
X192666284Y-59363530D01*
X192535479Y-59398579D01*
X192412981Y-59431402D01*
X192412971Y-59431405D01*
X192170709Y-59531753D01*
X192170699Y-59531758D01*
X191943596Y-59662875D01*
X191735548Y-59822518D01*
X191550118Y-60007948D01*
X191390475Y-60215996D01*
X191259358Y-60443099D01*
X191259353Y-60443109D01*
X191159005Y-60685371D01*
X191159002Y-60685381D01*
X191118966Y-60834800D01*
X191091130Y-60938685D01*
X191056900Y-61198672D01*
X189451100Y-61198672D01*
X189451100Y-57868492D01*
X189470785Y-57801453D01*
X189487419Y-57780811D01*
X194235611Y-53032619D01*
X194296934Y-52999134D01*
X194323292Y-52996300D01*
X195085803Y-52996300D01*
X195085808Y-52996300D01*
X195188597Y-52985799D01*
X195355134Y-52930614D01*
X195504455Y-52838511D01*
X195628511Y-52714455D01*
X195720614Y-52565134D01*
X195775799Y-52398597D01*
X195786300Y-52295808D01*
X195786300Y-51127377D01*
X196285300Y-51127377D01*
X196285300Y-51844222D01*
X196316090Y-52038626D01*
X196376917Y-52225829D01*
X196412577Y-52295815D01*
X196466276Y-52401205D01*
X196581972Y-52560446D01*
X196721154Y-52699628D01*
X196880395Y-52815324D01*
X196951762Y-52851687D01*
X197055770Y-52904682D01*
X197055772Y-52904682D01*
X197055775Y-52904684D01*
X197135573Y-52930612D01*
X197242973Y-52965509D01*
X197437378Y-52996300D01*
X197437383Y-52996300D01*
X197634222Y-52996300D01*
X197828626Y-52965509D01*
X197838505Y-52962299D01*
X198015825Y-52904684D01*
X198191205Y-52815324D01*
X198350446Y-52699628D01*
X198489628Y-52560446D01*
X198605324Y-52401205D01*
X198694684Y-52225825D01*
X198755509Y-52038626D01*
X198765809Y-51973594D01*
X198786300Y-51844222D01*
X198786300Y-51127377D01*
X198755509Y-50932973D01*
X198714326Y-50806228D01*
X198694684Y-50745775D01*
X198694682Y-50745772D01*
X198694682Y-50745770D01*
X198606653Y-50573004D01*
X198605324Y-50570395D01*
X198489628Y-50411154D01*
X198350446Y-50271972D01*
X198191205Y-50156276D01*
X198015829Y-50066917D01*
X197828626Y-50006090D01*
X197634222Y-49975300D01*
X197634217Y-49975300D01*
X197437383Y-49975300D01*
X197437378Y-49975300D01*
X197242973Y-50006090D01*
X197055770Y-50066917D01*
X196880394Y-50156276D01*
X196801482Y-50213610D01*
X196721154Y-50271972D01*
X196721152Y-50271974D01*
X196721151Y-50271974D01*
X196581974Y-50411151D01*
X196581974Y-50411152D01*
X196581972Y-50411154D01*
X196532773Y-50478870D01*
X196466276Y-50570394D01*
X196376917Y-50745770D01*
X196316090Y-50932973D01*
X196285300Y-51127377D01*
X195786300Y-51127377D01*
X195786300Y-50675792D01*
X195775799Y-50573003D01*
X195720614Y-50406466D01*
X195709175Y-50387921D01*
X195628513Y-50257148D01*
X195628510Y-50257144D01*
X195504455Y-50133089D01*
X195504451Y-50133086D01*
X195355137Y-50040987D01*
X195355135Y-50040986D01*
X195249825Y-50006090D01*
X195188597Y-49985801D01*
X195188595Y-49985800D01*
X195085815Y-49975300D01*
X195085808Y-49975300D01*
X193985792Y-49975300D01*
X193985784Y-49975300D01*
X193883004Y-49985800D01*
X193883003Y-49985801D01*
X193716464Y-50040986D01*
X193716462Y-50040987D01*
X193567148Y-50133086D01*
X193567144Y-50133089D01*
X193443089Y-50257144D01*
X193443086Y-50257148D01*
X193350987Y-50406462D01*
X193350986Y-50406464D01*
X193295801Y-50573003D01*
X193295800Y-50573004D01*
X193285300Y-50675784D01*
X193285300Y-51438307D01*
X193265615Y-51505346D01*
X193248981Y-51525988D01*
X187884896Y-56890072D01*
X187884895Y-56890073D01*
X187788422Y-57034456D01*
X187721977Y-57194871D01*
X187721974Y-57194881D01*
X187688100Y-57365177D01*
X187688100Y-57365180D01*
X187688100Y-68855179D01*
X187688100Y-69028821D01*
X187688100Y-69028823D01*
X187688099Y-69028823D01*
X183125849Y-69028823D01*
X181989369Y-67892343D01*
X181989368Y-67892342D01*
X181865792Y-67809772D01*
X181865791Y-67809771D01*
X181865789Y-67809770D01*
X181865786Y-67809768D01*
X181865781Y-67809766D01*
X181776292Y-67772699D01*
X181776285Y-67772696D01*
X181771986Y-67770916D01*
X181728480Y-67752895D01*
X181704294Y-67748084D01*
X181696923Y-67746617D01*
X181696921Y-67746617D01*
X181582714Y-67723899D01*
X181582712Y-67723899D01*
X181434088Y-67723899D01*
X181427974Y-67723899D01*
X181427954Y-67723900D01*
X176557283Y-67723900D01*
X176411527Y-67752893D01*
X176411519Y-67752895D01*
X176274208Y-67809771D01*
X176150635Y-67892339D01*
X176150634Y-67892340D01*
X176098088Y-67944887D01*
X176045541Y-67997434D01*
X176045539Y-67997436D01*
X170452543Y-73590430D01*
X170452542Y-73590431D01*
X170369968Y-73714014D01*
X170336653Y-73794442D01*
X170336654Y-73794443D01*
X170335460Y-73797327D01*
X170335452Y-73797347D01*
X170313094Y-73851322D01*
X170313093Y-73851326D01*
X170284099Y-73997085D01*
X170284099Y-74151825D01*
X170284100Y-74151846D01*
X170284100Y-74336653D01*
X170264415Y-74403692D01*
X170211611Y-74449447D01*
X170142453Y-74459391D01*
X170136807Y-74458233D01*
X170017301Y-74442500D01*
X169519896Y-74442500D01*
X169404457Y-74457696D01*
X169404448Y-74457699D01*
X169260804Y-74517198D01*
X169260801Y-74517200D01*
X169209086Y-74556883D01*
X169143917Y-74582077D01*
X169075472Y-74568039D01*
X169058114Y-74556883D01*
X169006398Y-74517200D01*
X169006395Y-74517198D01*
X168862751Y-74457699D01*
X168862749Y-74457698D01*
X168747302Y-74442500D01*
X168310300Y-74442500D01*
X168243261Y-74422815D01*
X168197506Y-74370011D01*
X168186300Y-74318500D01*
X168186300Y-73649500D01*
X168205985Y-73582461D01*
X168258789Y-73536706D01*
X168310300Y-73525500D01*
X169733423Y-73525500D01*
X169847993Y-73502709D01*
X169903724Y-73491624D01*
X170017410Y-73444534D01*
X170064143Y-73425177D01*
X170064144Y-73425176D01*
X170064147Y-73425175D01*
X170208524Y-73328706D01*
X183489906Y-60047323D01*
X183570790Y-59926271D01*
X183586375Y-59902947D01*
X183619690Y-59822518D01*
X183652825Y-59742524D01*
X183686700Y-59572220D01*
X183686700Y-59398579D01*
X183686700Y-52650136D01*
X183706385Y-52583097D01*
X183723019Y-52562455D01*
X183731578Y-52553896D01*
X183759028Y-52526446D01*
X183874724Y-52367205D01*
X183964084Y-52191825D01*
X184024909Y-52004626D01*
X184029824Y-51973594D01*
X184055700Y-51810222D01*
X184055700Y-51093377D01*
X184024909Y-50898973D01*
X183994772Y-50806221D01*
X183964084Y-50711775D01*
X183964082Y-50711772D01*
X183964082Y-50711770D01*
X183893377Y-50573004D01*
X183874724Y-50536395D01*
X183759028Y-50377154D01*
X183619846Y-50237972D01*
X183460605Y-50122276D01*
X183431980Y-50107691D01*
X183285229Y-50032917D01*
X183098026Y-49972090D01*
X182903622Y-49941300D01*
X182903617Y-49941300D01*
X182706783Y-49941300D01*
X182706778Y-49941300D01*
X182512373Y-49972090D01*
X182325170Y-50032917D01*
X182149794Y-50122276D01*
X182118511Y-50145005D01*
X181990554Y-50237972D01*
X181990552Y-50237974D01*
X181990551Y-50237974D01*
X181851374Y-50377151D01*
X181851374Y-50377152D01*
X181851372Y-50377154D01*
X181825968Y-50412120D01*
X181735676Y-50536394D01*
X181646317Y-50711770D01*
X181585490Y-50898973D01*
X181554700Y-51093377D01*
X181554700Y-51810222D01*
X181585490Y-52004626D01*
X181646317Y-52191829D01*
X181699301Y-52295815D01*
X181735676Y-52367205D01*
X181851372Y-52526446D01*
X181851374Y-52526448D01*
X181887381Y-52562455D01*
X181920866Y-52623778D01*
X181923700Y-52650136D01*
X181923700Y-59068908D01*
X181904015Y-59135947D01*
X181887381Y-59156589D01*
X169317789Y-71726181D01*
X169256466Y-71759666D01*
X169230108Y-71762500D01*
X168399430Y-71762500D01*
X168371978Y-71754439D01*
X168343822Y-71749332D01*
X168336440Y-71744004D01*
X168332391Y-71742815D01*
X168314850Y-71729176D01*
X168313273Y-71727705D01*
X168248456Y-71662888D01*
X168234665Y-71654381D01*
X168225660Y-71645982D01*
X168213882Y-71626089D01*
X168198418Y-71608897D01*
X168196415Y-71596588D01*
X168190063Y-71585860D01*
X168190909Y-71562752D01*
X168187197Y-71539934D01*
X168192165Y-71528499D01*
X168192622Y-71516037D01*
X168205826Y-71497056D01*
X168215040Y-71475852D01*
X168228984Y-71463770D01*
X168232524Y-71458682D01*
X168236982Y-71456840D01*
X168245148Y-71449765D01*
X168248142Y-71447918D01*
X168372115Y-71323945D01*
X168464156Y-71174724D01*
X168464158Y-71174719D01*
X168519305Y-71008297D01*
X168519306Y-71008290D01*
X168529799Y-70905586D01*
X168529800Y-70905573D01*
X168529800Y-70768100D01*
X166079801Y-70768100D01*
X166079801Y-70905586D01*
X166090294Y-71008297D01*
X166145441Y-71174719D01*
X166145443Y-71174724D01*
X166237484Y-71323945D01*
X166361455Y-71447916D01*
X166361459Y-71447919D01*
X166364456Y-71449768D01*
X166366079Y-71451572D01*
X166367123Y-71452398D01*
X166366981Y-71452576D01*
X166411181Y-71501716D01*
X166422402Y-71570679D01*
X166394559Y-71634761D01*
X166379305Y-71650093D01*
X166372274Y-71656022D01*
X166361144Y-71662888D01*
X166345033Y-71678998D01*
X166341016Y-71682387D01*
X166313662Y-71694440D01*
X166287428Y-71708766D01*
X166279129Y-71709658D01*
X166277079Y-71710562D01*
X166274499Y-71710156D01*
X166261070Y-71711600D01*
X166232474Y-71711600D01*
X166062183Y-71745473D01*
X166062175Y-71745475D01*
X165967234Y-71784801D01*
X165967224Y-71784806D01*
X165962063Y-71786944D01*
X165901753Y-71811925D01*
X165857021Y-71841814D01*
X165851560Y-71845462D01*
X165851550Y-71845468D01*
X165757373Y-71908395D01*
X164110495Y-73555273D01*
X164014022Y-73699656D01*
X163947577Y-73860071D01*
X163947574Y-73860083D01*
X163914928Y-74024209D01*
X163914925Y-74024225D01*
X163913700Y-74030375D01*
X163913700Y-74030380D01*
X163913700Y-84164979D01*
X163913700Y-84338621D01*
X163913700Y-84338623D01*
X163913699Y-84338623D01*
X163448699Y-84338623D01*
X163448699Y-70130613D01*
X166079800Y-70130613D01*
X166079800Y-70268100D01*
X167054800Y-70268100D01*
X167554800Y-70268100D01*
X168529799Y-70268100D01*
X168529799Y-70130628D01*
X168529798Y-70130613D01*
X168519305Y-70027902D01*
X168464158Y-69861480D01*
X168464156Y-69861475D01*
X168372115Y-69712254D01*
X168248145Y-69588284D01*
X168098924Y-69496243D01*
X168098919Y-69496241D01*
X167932497Y-69441094D01*
X167932490Y-69441093D01*
X167829786Y-69430600D01*
X167554800Y-69430600D01*
X167554800Y-70268100D01*
X167054800Y-70268100D01*
X167054800Y-69430600D01*
X166779829Y-69430600D01*
X166779812Y-69430601D01*
X166677102Y-69441094D01*
X166510680Y-69496241D01*
X166510675Y-69496243D01*
X166361454Y-69588284D01*
X166237484Y-69712254D01*
X166145443Y-69861475D01*
X166145441Y-69861480D01*
X166090294Y-70027902D01*
X166090293Y-70027909D01*
X166079800Y-70130613D01*
X163448699Y-70130613D01*
X163448699Y-51325586D01*
X165645900Y-51325586D01*
X165645900Y-51595213D01*
X165676086Y-51863119D01*
X165676088Y-51863131D01*
X165736084Y-52125994D01*
X165736087Y-52126002D01*
X165825134Y-52380482D01*
X165942114Y-52623394D01*
X165966402Y-52662048D01*
X166085562Y-52851689D01*
X166253666Y-53062485D01*
X166444315Y-53253134D01*
X166655111Y-53421238D01*
X166883403Y-53564684D01*
X167126321Y-53681667D01*
X167317449Y-53748545D01*
X167380797Y-53770712D01*
X167380805Y-53770715D01*
X167380808Y-53770715D01*
X167380809Y-53770716D01*
X167643668Y-53830712D01*
X167911587Y-53860899D01*
X167911588Y-53860900D01*
X167911591Y-53860900D01*
X168181212Y-53860900D01*
X168181212Y-53860899D01*
X168449132Y-53830712D01*
X168711991Y-53770716D01*
X168966479Y-53681667D01*
X169209397Y-53564684D01*
X169437689Y-53421238D01*
X169648485Y-53253134D01*
X169839134Y-53062485D01*
X170007238Y-52851689D01*
X170150684Y-52623397D01*
X170267667Y-52380479D01*
X170356716Y-52125991D01*
X170416712Y-51863132D01*
X170446900Y-51595209D01*
X170446900Y-51325591D01*
X170416712Y-51057668D01*
X170356716Y-50794809D01*
X170315067Y-50675784D01*
X170303170Y-50641784D01*
X178554700Y-50641784D01*
X178554700Y-52261815D01*
X178565200Y-52364595D01*
X178565201Y-52364597D01*
X178570464Y-52380479D01*
X178620386Y-52531135D01*
X178620387Y-52531137D01*
X178712486Y-52680451D01*
X178712489Y-52680455D01*
X178836544Y-52804510D01*
X178836548Y-52804513D01*
X178985862Y-52896612D01*
X178985864Y-52896613D01*
X178985866Y-52896614D01*
X179152403Y-52951799D01*
X179255192Y-52962300D01*
X179255197Y-52962300D01*
X180355203Y-52962300D01*
X180355208Y-52962300D01*
X180457997Y-52951799D01*
X180624534Y-52896614D01*
X180773855Y-52804511D01*
X180897911Y-52680455D01*
X180990014Y-52531134D01*
X181045199Y-52364597D01*
X181055700Y-52261808D01*
X181055700Y-50641792D01*
X181045199Y-50539003D01*
X180990014Y-50372466D01*
X180981550Y-50358744D01*
X180897913Y-50223148D01*
X180897910Y-50223144D01*
X180773855Y-50099089D01*
X180773851Y-50099086D01*
X180624537Y-50006987D01*
X180624535Y-50006986D01*
X180519225Y-49972090D01*
X180457997Y-49951801D01*
X180457995Y-49951800D01*
X180355215Y-49941300D01*
X180355208Y-49941300D01*
X179255192Y-49941300D01*
X179255184Y-49941300D01*
X179152404Y-49951800D01*
X179152403Y-49951801D01*
X178985864Y-50006986D01*
X178985862Y-50006987D01*
X178836548Y-50099086D01*
X178836544Y-50099089D01*
X178712489Y-50223144D01*
X178712486Y-50223148D01*
X178620387Y-50372462D01*
X178620386Y-50372464D01*
X178565201Y-50539003D01*
X178565200Y-50539004D01*
X178554700Y-50641784D01*
X170303170Y-50641784D01*
X170279103Y-50573004D01*
X170267667Y-50540321D01*
X170150684Y-50297403D01*
X170007238Y-50069111D01*
X169839134Y-49858315D01*
X169648485Y-49667666D01*
X169437689Y-49499562D01*
X169286528Y-49404581D01*
X175919700Y-49404581D01*
X175919700Y-49579018D01*
X175953727Y-49750083D01*
X175953729Y-49750091D01*
X176020478Y-49911239D01*
X176020483Y-49911248D01*
X176117386Y-50056273D01*
X176117389Y-50056277D01*
X176240722Y-50179610D01*
X176240726Y-50179613D01*
X176385751Y-50276516D01*
X176385757Y-50276519D01*
X176385758Y-50276520D01*
X176546909Y-50343271D01*
X176693674Y-50372464D01*
X176717981Y-50377299D01*
X176717985Y-50377300D01*
X176717986Y-50377300D01*
X176892415Y-50377300D01*
X176892416Y-50377299D01*
X177063491Y-50343271D01*
X177224642Y-50276520D01*
X177369674Y-50179613D01*
X177493013Y-50056274D01*
X177589920Y-49911242D01*
X177656671Y-49750091D01*
X177690700Y-49579014D01*
X177690700Y-49404586D01*
X177690699Y-49404581D01*
X184919700Y-49404581D01*
X184919700Y-49579018D01*
X184953727Y-49750083D01*
X184953729Y-49750091D01*
X185020478Y-49911239D01*
X185020483Y-49911248D01*
X185117386Y-50056273D01*
X185117389Y-50056277D01*
X185240722Y-50179610D01*
X185240726Y-50179613D01*
X185385751Y-50276516D01*
X185385757Y-50276519D01*
X185385758Y-50276520D01*
X185546909Y-50343271D01*
X185693674Y-50372464D01*
X185717981Y-50377299D01*
X185717985Y-50377300D01*
X185717986Y-50377300D01*
X185892415Y-50377300D01*
X185892416Y-50377299D01*
X186063491Y-50343271D01*
X186224642Y-50276520D01*
X186369674Y-50179613D01*
X186493013Y-50056274D01*
X186589920Y-49911242D01*
X186656671Y-49750091D01*
X186690700Y-49579014D01*
X186690700Y-49438581D01*
X190650300Y-49438581D01*
X190650300Y-49613018D01*
X190684327Y-49784083D01*
X190684329Y-49784091D01*
X190751078Y-49945239D01*
X190751083Y-49945248D01*
X190847986Y-50090273D01*
X190847989Y-50090277D01*
X190971322Y-50213610D01*
X190971326Y-50213613D01*
X191116351Y-50310516D01*
X191116360Y-50310521D01*
X191127688Y-50315213D01*
X191277509Y-50377271D01*
X191424274Y-50406464D01*
X191448581Y-50411299D01*
X191448585Y-50411300D01*
X191448586Y-50411300D01*
X191623015Y-50411300D01*
X191623016Y-50411299D01*
X191794091Y-50377271D01*
X191955242Y-50310520D01*
X192100274Y-50213613D01*
X192223613Y-50090274D01*
X192320520Y-49945242D01*
X192387271Y-49784091D01*
X192421300Y-49613014D01*
X192421300Y-49438586D01*
X192421299Y-49438581D01*
X199650300Y-49438581D01*
X199650300Y-49613018D01*
X199684327Y-49784083D01*
X199684329Y-49784091D01*
X199751078Y-49945239D01*
X199751083Y-49945248D01*
X199847986Y-50090273D01*
X199847989Y-50090277D01*
X199971322Y-50213610D01*
X199971326Y-50213613D01*
X200116351Y-50310516D01*
X200116360Y-50310521D01*
X200127688Y-50315213D01*
X200277509Y-50377271D01*
X200424274Y-50406464D01*
X200448581Y-50411299D01*
X200448585Y-50411300D01*
X200448586Y-50411300D01*
X200623015Y-50411300D01*
X200623016Y-50411299D01*
X200794091Y-50377271D01*
X200955242Y-50310520D01*
X201100274Y-50213613D01*
X201223613Y-50090274D01*
X201320520Y-49945242D01*
X201387271Y-49784091D01*
X201421300Y-49613014D01*
X201421300Y-49540181D01*
X205864900Y-49540181D01*
X205864900Y-49714618D01*
X205898927Y-49885683D01*
X205898929Y-49885691D01*
X205965678Y-50046839D01*
X205965683Y-50046848D01*
X206062586Y-50191873D01*
X206062589Y-50191877D01*
X206185922Y-50315210D01*
X206185926Y-50315213D01*
X206330951Y-50412116D01*
X206330957Y-50412119D01*
X206330958Y-50412120D01*
X206492109Y-50478871D01*
X206638874Y-50508064D01*
X206663181Y-50512899D01*
X206663185Y-50512900D01*
X206663186Y-50512900D01*
X206837615Y-50512900D01*
X206837616Y-50512899D01*
X207008691Y-50478871D01*
X207169842Y-50412120D01*
X207314874Y-50315213D01*
X207438213Y-50191874D01*
X207535120Y-50046842D01*
X207601871Y-49885691D01*
X207635900Y-49714614D01*
X207635900Y-49540186D01*
X207635899Y-49540181D01*
X214864900Y-49540181D01*
X214864900Y-49714618D01*
X214898927Y-49885683D01*
X214898929Y-49885691D01*
X214965678Y-50046839D01*
X214965683Y-50046848D01*
X215062586Y-50191873D01*
X215062589Y-50191877D01*
X215185922Y-50315210D01*
X215185926Y-50315213D01*
X215330951Y-50412116D01*
X215330957Y-50412119D01*
X215330958Y-50412120D01*
X215492109Y-50478871D01*
X215638874Y-50508064D01*
X215663181Y-50512899D01*
X215663185Y-50512900D01*
X215663186Y-50512900D01*
X215837615Y-50512900D01*
X215837616Y-50512899D01*
X216008691Y-50478871D01*
X216169842Y-50412120D01*
X216314874Y-50315213D01*
X216438213Y-50191874D01*
X216535120Y-50046842D01*
X216601871Y-49885691D01*
X216635900Y-49714614D01*
X216635900Y-49540186D01*
X216601871Y-49369109D01*
X216548033Y-49239133D01*
X216535121Y-49207960D01*
X216535116Y-49207951D01*
X216438213Y-49062926D01*
X216438210Y-49062922D01*
X216314877Y-48939589D01*
X216314873Y-48939586D01*
X216169848Y-48842683D01*
X216169839Y-48842678D01*
X216008691Y-48775929D01*
X216008683Y-48775927D01*
X215837618Y-48741900D01*
X215837614Y-48741900D01*
X215663186Y-48741900D01*
X215663181Y-48741900D01*
X215492116Y-48775927D01*
X215492108Y-48775929D01*
X215330960Y-48842678D01*
X215330951Y-48842683D01*
X215185926Y-48939586D01*
X215185922Y-48939589D01*
X215062589Y-49062922D01*
X215062586Y-49062926D01*
X214965683Y-49207951D01*
X214965678Y-49207960D01*
X214898929Y-49369108D01*
X214898927Y-49369116D01*
X214864900Y-49540181D01*
X207635899Y-49540181D01*
X207601871Y-49369109D01*
X207548033Y-49239133D01*
X207535121Y-49207960D01*
X207535116Y-49207951D01*
X207438213Y-49062926D01*
X207438210Y-49062922D01*
X207314877Y-48939589D01*
X207314873Y-48939586D01*
X207169848Y-48842683D01*
X207169839Y-48842678D01*
X207008691Y-48775929D01*
X207008683Y-48775927D01*
X206837618Y-48741900D01*
X206837614Y-48741900D01*
X206663186Y-48741900D01*
X206663181Y-48741900D01*
X206492116Y-48775927D01*
X206492108Y-48775929D01*
X206330960Y-48842678D01*
X206330951Y-48842683D01*
X206185926Y-48939586D01*
X206185922Y-48939589D01*
X206062589Y-49062922D01*
X206062586Y-49062926D01*
X205965683Y-49207951D01*
X205965678Y-49207960D01*
X205898929Y-49369108D01*
X205898927Y-49369116D01*
X205864900Y-49540181D01*
X201421300Y-49540181D01*
X201421300Y-49438586D01*
X201387271Y-49267509D01*
X201320520Y-49106358D01*
X201320519Y-49106357D01*
X201320516Y-49106351D01*
X201223613Y-48961326D01*
X201223610Y-48961322D01*
X201100277Y-48837989D01*
X201100273Y-48837986D01*
X200955248Y-48741083D01*
X200955239Y-48741078D01*
X200794091Y-48674329D01*
X200794083Y-48674327D01*
X200623018Y-48640300D01*
X200623014Y-48640300D01*
X200448586Y-48640300D01*
X200448581Y-48640300D01*
X200277516Y-48674327D01*
X200277508Y-48674329D01*
X200116360Y-48741078D01*
X200116351Y-48741083D01*
X199971326Y-48837986D01*
X199971322Y-48837989D01*
X199847989Y-48961322D01*
X199847986Y-48961326D01*
X199751083Y-49106351D01*
X199751078Y-49106360D01*
X199684329Y-49267508D01*
X199684327Y-49267516D01*
X199650300Y-49438581D01*
X192421299Y-49438581D01*
X192387271Y-49267509D01*
X192320520Y-49106358D01*
X192320519Y-49106357D01*
X192320516Y-49106351D01*
X192223613Y-48961326D01*
X192223610Y-48961322D01*
X192100277Y-48837989D01*
X192100273Y-48837986D01*
X191955248Y-48741083D01*
X191955239Y-48741078D01*
X191794091Y-48674329D01*
X191794083Y-48674327D01*
X191623018Y-48640300D01*
X191623014Y-48640300D01*
X191448586Y-48640300D01*
X191448581Y-48640300D01*
X191277516Y-48674327D01*
X191277508Y-48674329D01*
X191116360Y-48741078D01*
X191116351Y-48741083D01*
X190971326Y-48837986D01*
X190971322Y-48837989D01*
X190847989Y-48961322D01*
X190847986Y-48961326D01*
X190751083Y-49106351D01*
X190751078Y-49106360D01*
X190684329Y-49267508D01*
X190684327Y-49267516D01*
X190650300Y-49438581D01*
X186690700Y-49438581D01*
X186690700Y-49404586D01*
X186656671Y-49233509D01*
X186589920Y-49072358D01*
X186589919Y-49072357D01*
X186589916Y-49072351D01*
X186493013Y-48927326D01*
X186493010Y-48927322D01*
X186369677Y-48803989D01*
X186369673Y-48803986D01*
X186224648Y-48707083D01*
X186224639Y-48707078D01*
X186063491Y-48640329D01*
X186063483Y-48640327D01*
X185892418Y-48606300D01*
X185892414Y-48606300D01*
X185717986Y-48606300D01*
X185717981Y-48606300D01*
X185546916Y-48640327D01*
X185546908Y-48640329D01*
X185385760Y-48707078D01*
X185385751Y-48707083D01*
X185240726Y-48803986D01*
X185240722Y-48803989D01*
X185117389Y-48927322D01*
X185117386Y-48927326D01*
X185020483Y-49072351D01*
X185020478Y-49072360D01*
X184953729Y-49233508D01*
X184953727Y-49233516D01*
X184919700Y-49404581D01*
X177690699Y-49404581D01*
X177656671Y-49233509D01*
X177589920Y-49072358D01*
X177589919Y-49072357D01*
X177589916Y-49072351D01*
X177493013Y-48927326D01*
X177493010Y-48927322D01*
X177369677Y-48803989D01*
X177369673Y-48803986D01*
X177224648Y-48707083D01*
X177224639Y-48707078D01*
X177063491Y-48640329D01*
X177063483Y-48640327D01*
X176892418Y-48606300D01*
X176892414Y-48606300D01*
X176717986Y-48606300D01*
X176717981Y-48606300D01*
X176546916Y-48640327D01*
X176546908Y-48640329D01*
X176385760Y-48707078D01*
X176385751Y-48707083D01*
X176240726Y-48803986D01*
X176240722Y-48803989D01*
X176117389Y-48927322D01*
X176117386Y-48927326D01*
X176020483Y-49072351D01*
X176020478Y-49072360D01*
X175953729Y-49233508D01*
X175953727Y-49233516D01*
X175919700Y-49404581D01*
X169286528Y-49404581D01*
X169209397Y-49356116D01*
X169209394Y-49356114D01*
X168966482Y-49239134D01*
X168712002Y-49150087D01*
X168711994Y-49150084D01*
X168514846Y-49105087D01*
X168449132Y-49090088D01*
X168449128Y-49090087D01*
X168449119Y-49090086D01*
X168181213Y-49059900D01*
X168181209Y-49059900D01*
X167911591Y-49059900D01*
X167911586Y-49059900D01*
X167643680Y-49090086D01*
X167643668Y-49090088D01*
X167380805Y-49150084D01*
X167380797Y-49150087D01*
X167126317Y-49239134D01*
X166883405Y-49356114D01*
X166655112Y-49499561D01*
X166444315Y-49667665D01*
X166253665Y-49858315D01*
X166085561Y-50069112D01*
X165942114Y-50297405D01*
X165825134Y-50540317D01*
X165736087Y-50794797D01*
X165736084Y-50794805D01*
X165676088Y-51057668D01*
X165676086Y-51057680D01*
X165645900Y-51325586D01*
X163448699Y-51325586D01*
X163448699Y-46921501D01*
X163468384Y-46854462D01*
X163521188Y-46808707D01*
X163572699Y-46797501D01*
X229212220Y-46797501D01*
X229279259Y-46817186D01*
G37*
%TD.AperFunction*%
%TD*%
M02*
