%TF.GenerationSoftware,KiCad,Pcbnew,9.0.1*%
%TF.CreationDate,2026-06-27T15:59:28+08:00*%
%TF.ProjectId,IMD_latch,494d445f-6c61-4746-9368-2e6b69636164,rev?*%
%TF.SameCoordinates,Original*%
%TF.FileFunction,Soldermask,Top*%
%TF.FilePolarity,Negative*%
%FSLAX46Y46*%
G04 Gerber Fmt 4.6, Leading zero omitted, Abs format (unit mm)*
G04 Created by KiCad (PCBNEW 9.0.1) date 2026-06-27 15:59:28*
%MOMM*%
%LPD*%
G01*
G04 APERTURE LIST*
G04 Aperture macros list*
%AMRoundRect*
0 Rectangle with rounded corners*
0 $1 Rounding radius*
0 $2 $3 $4 $5 $6 $7 $8 $9 X,Y pos of 4 corners*
0 Add a 4 corners polygon primitive as box body*
4,1,4,$2,$3,$4,$5,$6,$7,$8,$9,$2,$3,0*
0 Add four circle primitives for the rounded corners*
1,1,$1+$1,$2,$3*
1,1,$1+$1,$4,$5*
1,1,$1+$1,$6,$7*
1,1,$1+$1,$8,$9*
0 Add four rect primitives between the rounded corners*
20,1,$1+$1,$2,$3,$4,$5,0*
20,1,$1+$1,$4,$5,$6,$7,0*
20,1,$1+$1,$6,$7,$8,$9,0*
20,1,$1+$1,$8,$9,$2,$3,0*%
%AMHorizOval*
0 Thick line with rounded ends*
0 $1 width*
0 $2 $3 position (X,Y) of the first rounded end (center of the circle)*
0 $4 $5 position (X,Y) of the second rounded end (center of the circle)*
0 Add line between two ends*
20,1,$1,$2,$3,$4,$5,0*
0 Add two circle primitives to create the rounded ends*
1,1,$1,$2,$3*
1,1,$1,$4,$5*%
%AMRotRect*
0 Rectangle, with rotation*
0 The origin of the aperture is its center*
0 $1 length*
0 $2 width*
0 $3 Rotation angle, in degrees counterclockwise*
0 Add horizontal line*
21,1,$1,$2,0,0,$3*%
G04 Aperture macros list end*
%ADD10C,2.500000*%
%ADD11C,3.000000*%
%ADD12R,1.600000X1.600000*%
%ADD13O,1.600000X1.600000*%
%ADD14RoundRect,0.250000X0.450000X-0.350000X0.450000X0.350000X-0.450000X0.350000X-0.450000X-0.350000X0*%
%ADD15RoundRect,0.250000X0.565685X0.070711X0.070711X0.565685X-0.565685X-0.070711X-0.070711X-0.565685X0*%
%ADD16C,4.300000*%
%ADD17C,1.270000*%
%ADD18RoundRect,0.250001X-0.499999X-0.759999X0.499999X-0.759999X0.499999X0.759999X-0.499999X0.759999X0*%
%ADD19O,1.500000X2.020000*%
%ADD20RoundRect,0.250000X-0.350000X-0.450000X0.350000X-0.450000X0.350000X0.450000X-0.350000X0.450000X0*%
%ADD21RoundRect,0.150000X-0.587500X-0.150000X0.587500X-0.150000X0.587500X0.150000X-0.587500X0.150000X0*%
%ADD22RoundRect,0.250000X0.475000X-0.337500X0.475000X0.337500X-0.475000X0.337500X-0.475000X-0.337500X0*%
%ADD23RoundRect,0.250001X0.499999X0.759999X-0.499999X0.759999X-0.499999X-0.759999X0.499999X-0.759999X0*%
%ADD24RoundRect,0.250000X-0.574524X-0.097227X-0.097227X-0.574524X0.574524X0.097227X0.097227X0.574524X0*%
%ADD25C,1.600000*%
%ADD26RoundRect,0.250001X-0.759999X0.499999X-0.759999X-0.499999X0.759999X-0.499999X0.759999X0.499999X0*%
%ADD27O,2.020000X1.500000*%
%ADD28RoundRect,0.250000X0.325000X0.450000X-0.325000X0.450000X-0.325000X-0.450000X0.325000X-0.450000X0*%
%ADD29RotRect,1.600000X1.600000X315.000000*%
%ADD30HorizOval,1.600000X0.000000X0.000000X0.000000X0.000000X0*%
%ADD31RoundRect,0.120600X0.281400X-1.111400X0.281400X1.111400X-0.281400X1.111400X-0.281400X-1.111400X0*%
%ADD32RoundRect,0.122100X0.284900X-1.109900X0.284900X1.109900X-0.284900X1.109900X-0.284900X-1.109900X0*%
%ADD33RoundRect,0.120600X-1.111400X-0.281400X1.111400X-0.281400X1.111400X0.281400X-1.111400X0.281400X0*%
%ADD34RoundRect,0.122100X-1.109900X-0.284900X1.109900X-0.284900X1.109900X0.284900X-1.109900X0.284900X0*%
%ADD35RoundRect,0.250000X-0.450000X0.350000X-0.450000X-0.350000X0.450000X-0.350000X0.450000X0.350000X0*%
G04 APERTURE END LIST*
D10*
%TO.C,K1*%
X205257400Y-73329800D03*
D11*
X193007400Y-73379800D03*
X193057400Y-61329800D03*
D10*
X205257400Y-61329800D03*
D11*
X207207400Y-67379800D03*
%TD*%
D12*
%TO.C,D1*%
X214122000Y-63423801D03*
D13*
X214122000Y-71043801D03*
%TD*%
D14*
%TO.C,R5*%
X195605400Y-88868000D03*
X195605400Y-86868000D03*
%TD*%
D15*
%TO.C,R7*%
X179116707Y-78405707D03*
X177702493Y-76991493D03*
%TD*%
D16*
%TO.C,H1*%
X168046400Y-51460400D03*
%TD*%
D17*
%TO.C,J5*%
X206750400Y-49627400D03*
X215750400Y-49627400D03*
D18*
X209750400Y-51587400D03*
D19*
X212750400Y-51587400D03*
%TD*%
D20*
%TO.C,R10*%
X218887800Y-94589600D03*
X220887800Y-94589600D03*
%TD*%
D21*
%TO.C,Q1*%
X202341000Y-86827700D03*
X202341000Y-88727700D03*
X204216000Y-87777700D03*
%TD*%
D22*
%TO.C,C2*%
X167304800Y-72593100D03*
X167304800Y-70518100D03*
%TD*%
D16*
%TO.C,H4*%
X168028208Y-101295200D03*
%TD*%
D17*
%TO.C,J3*%
X214762600Y-102696400D03*
X205762600Y-102696400D03*
D23*
X211762600Y-100736400D03*
D19*
X208762600Y-100736400D03*
%TD*%
D14*
%TO.C,R6*%
X177469800Y-73507600D03*
X177469800Y-71507600D03*
%TD*%
D24*
%TO.C,C1*%
X181181177Y-80597177D03*
X182648423Y-82064423D03*
%TD*%
D22*
%TO.C,C5*%
X185877200Y-91867900D03*
X185877200Y-89792900D03*
%TD*%
D12*
%TO.C,C4*%
X190201975Y-96574600D03*
D25*
X192201975Y-96574600D03*
%TD*%
D17*
%TO.C,J1*%
X227283400Y-59074800D03*
X227283400Y-68074800D03*
D26*
X225323400Y-62074800D03*
D27*
X225323400Y-65074800D03*
%TD*%
D28*
%TO.C,D4*%
X225425000Y-94589600D03*
X223375002Y-94589600D03*
%TD*%
D29*
%TO.C,D2*%
X180287524Y-72845524D03*
D30*
X185675678Y-78233678D03*
%TD*%
D31*
%TO.C,U2*%
X167228600Y-81313000D03*
X168498600Y-81313000D03*
X169768600Y-81313000D03*
X171038600Y-81313000D03*
X172308600Y-81313000D03*
X173578600Y-81313000D03*
X174848600Y-81313000D03*
X174848600Y-76073000D03*
D32*
X173583600Y-76073000D03*
D31*
X172308600Y-76073000D03*
X171038600Y-76073000D03*
X169768600Y-76073000D03*
X168498600Y-76073000D03*
X167228600Y-76073000D03*
%TD*%
D17*
%TO.C,J6*%
X227317400Y-70607800D03*
X227317400Y-79607800D03*
D26*
X225357400Y-73607800D03*
D27*
X225357400Y-76607800D03*
%TD*%
D17*
%TO.C,J8*%
X227317400Y-82393400D03*
X227317400Y-91393400D03*
D26*
X225357400Y-85393400D03*
D27*
X225357400Y-88393400D03*
%TD*%
D33*
%TO.C,U1*%
X180662400Y-94437200D03*
X180662400Y-95707200D03*
X180662400Y-96977200D03*
X180662400Y-98247200D03*
X180662400Y-99517200D03*
X180662400Y-100787200D03*
X180662400Y-102057200D03*
X185902400Y-102057200D03*
D34*
X185902400Y-100792200D03*
D33*
X185902400Y-99517200D03*
X185902400Y-98247200D03*
X185902400Y-96977200D03*
X185902400Y-95707200D03*
X185902400Y-94437200D03*
%TD*%
D35*
%TO.C,R2*%
X199085200Y-86868000D03*
X199085200Y-88868000D03*
%TD*%
D16*
%TO.C,H3*%
X224586800Y-101244400D03*
%TD*%
D17*
%TO.C,J4*%
X191535800Y-49525800D03*
X200535800Y-49525800D03*
D18*
X194535800Y-51485800D03*
D19*
X197535800Y-51485800D03*
%TD*%
D17*
%TO.C,J2*%
X176805200Y-49491800D03*
X185805200Y-49491800D03*
D18*
X179805200Y-51451800D03*
D19*
X182805200Y-51451800D03*
%TD*%
D16*
%TO.C,H2*%
X224612200Y-51308000D03*
%TD*%
M02*
