%TF.GenerationSoftware,KiCad,Pcbnew,9.0.1*%
%TF.CreationDate,2026-06-27T15:59:28+08:00*%
%TF.ProjectId,IMD_latch,494d445f-6c61-4746-9368-2e6b69636164,rev?*%
%TF.SameCoordinates,Original*%
%TF.FileFunction,Paste,Top*%
%TF.FilePolarity,Positive*%
%FSLAX46Y46*%
G04 Gerber Fmt 4.6, Leading zero omitted, Abs format (unit mm)*
G04 Created by KiCad (PCBNEW 9.0.1) date 2026-06-27 15:59:28*
%MOMM*%
%LPD*%
G01*
G04 APERTURE LIST*
G04 Aperture macros list*
%AMRoundRect*
0 Rectangle with rounded corners*
0 $1 Rounding radius*
0 $2 $3 $4 $5 $6 $7 $8 $9 X,Y pos of 4 corners*
0 Add a 4 corners polygon primitive as box body*
4,1,4,$2,$3,$4,$5,$6,$7,$8,$9,$2,$3,0*
0 Add four circle primitives for the rounded corners*
1,1,$1+$1,$2,$3*
1,1,$1+$1,$4,$5*
1,1,$1+$1,$6,$7*
1,1,$1+$1,$8,$9*
0 Add four rect primitives between the rounded corners*
20,1,$1+$1,$2,$3,$4,$5,0*
20,1,$1+$1,$4,$5,$6,$7,0*
20,1,$1+$1,$6,$7,$8,$9,0*
20,1,$1+$1,$8,$9,$2,$3,0*%
G04 Aperture macros list end*
%ADD10RoundRect,0.250000X0.450000X-0.350000X0.450000X0.350000X-0.450000X0.350000X-0.450000X-0.350000X0*%
%ADD11RoundRect,0.250000X0.565685X0.070711X0.070711X0.565685X-0.565685X-0.070711X-0.070711X-0.565685X0*%
%ADD12RoundRect,0.250000X-0.350000X-0.450000X0.350000X-0.450000X0.350000X0.450000X-0.350000X0.450000X0*%
%ADD13RoundRect,0.150000X-0.587500X-0.150000X0.587500X-0.150000X0.587500X0.150000X-0.587500X0.150000X0*%
%ADD14RoundRect,0.250000X0.475000X-0.337500X0.475000X0.337500X-0.475000X0.337500X-0.475000X-0.337500X0*%
%ADD15RoundRect,0.250000X-0.574524X-0.097227X-0.097227X-0.574524X0.574524X0.097227X0.097227X0.574524X0*%
%ADD16RoundRect,0.250000X0.325000X0.450000X-0.325000X0.450000X-0.325000X-0.450000X0.325000X-0.450000X0*%
%ADD17RoundRect,0.090000X0.210000X-1.040000X0.210000X1.040000X-0.210000X1.040000X-0.210000X-1.040000X0*%
%ADD18RoundRect,0.091500X0.213500X-1.038500X0.213500X1.038500X-0.213500X1.038500X-0.213500X-1.038500X0*%
%ADD19RoundRect,0.090000X-1.040000X-0.210000X1.040000X-0.210000X1.040000X0.210000X-1.040000X0.210000X0*%
%ADD20RoundRect,0.091500X-1.038500X-0.213500X1.038500X-0.213500X1.038500X0.213500X-1.038500X0.213500X0*%
%ADD21RoundRect,0.250000X-0.450000X0.350000X-0.450000X-0.350000X0.450000X-0.350000X0.450000X0.350000X0*%
G04 APERTURE END LIST*
D10*
%TO.C,R5*%
X195605400Y-88868000D03*
X195605400Y-86868000D03*
%TD*%
D11*
%TO.C,R7*%
X179116707Y-78405707D03*
X177702493Y-76991493D03*
%TD*%
D12*
%TO.C,R10*%
X218887800Y-94589600D03*
X220887800Y-94589600D03*
%TD*%
D13*
%TO.C,Q1*%
X202341000Y-86827700D03*
X202341000Y-88727700D03*
X204216000Y-87777700D03*
%TD*%
D14*
%TO.C,C2*%
X167304800Y-72593100D03*
X167304800Y-70518100D03*
%TD*%
D10*
%TO.C,R6*%
X177469800Y-73507600D03*
X177469800Y-71507600D03*
%TD*%
D15*
%TO.C,C1*%
X181181177Y-80597177D03*
X182648423Y-82064423D03*
%TD*%
D14*
%TO.C,C5*%
X185877200Y-91867900D03*
X185877200Y-89792900D03*
%TD*%
D16*
%TO.C,D4*%
X225425000Y-94589600D03*
X223375002Y-94589600D03*
%TD*%
D17*
%TO.C,U2*%
X167228600Y-81313000D03*
X168498600Y-81313000D03*
X169768600Y-81313000D03*
X171038600Y-81313000D03*
X172308600Y-81313000D03*
X173578600Y-81313000D03*
X174848600Y-81313000D03*
X174848600Y-76073000D03*
D18*
X173583600Y-76073000D03*
D17*
X172308600Y-76073000D03*
X171038600Y-76073000D03*
X169768600Y-76073000D03*
X168498600Y-76073000D03*
X167228600Y-76073000D03*
%TD*%
D19*
%TO.C,U1*%
X180662400Y-94437200D03*
X180662400Y-95707200D03*
X180662400Y-96977200D03*
X180662400Y-98247200D03*
X180662400Y-99517200D03*
X180662400Y-100787200D03*
X180662400Y-102057200D03*
X185902400Y-102057200D03*
D20*
X185902400Y-100792200D03*
D19*
X185902400Y-99517200D03*
X185902400Y-98247200D03*
X185902400Y-96977200D03*
X185902400Y-95707200D03*
X185902400Y-94437200D03*
%TD*%
D21*
%TO.C,R2*%
X199085200Y-86868000D03*
X199085200Y-88868000D03*
%TD*%
M02*
