%TF.GenerationSoftware,KiCad,Pcbnew,9.0.1*%
%TF.CreationDate,2026-06-27T15:59:28+08:00*%
%TF.ProjectId,IMD_latch,494d445f-6c61-4746-9368-2e6b69636164,rev?*%
%TF.SameCoordinates,Original*%
%TF.FileFunction,Copper,L2,Bot*%
%TF.FilePolarity,Positive*%
%FSLAX46Y46*%
G04 Gerber Fmt 4.6, Leading zero omitted, Abs format (unit mm)*
G04 Created by KiCad (PCBNEW 9.0.1) date 2026-06-27 15:59:28*
%MOMM*%
%LPD*%
G01*
G04 APERTURE LIST*
G04 Aperture macros list*
%AMRoundRect*
0 Rectangle with rounded corners*
0 $1 Rounding radius*
0 $2 $3 $4 $5 $6 $7 $8 $9 X,Y pos of 4 corners*
0 Add a 4 corners polygon primitive as box body*
4,1,4,$2,$3,$4,$5,$6,$7,$8,$9,$2,$3,0*
0 Add four circle primitives for the rounded corners*
1,1,$1+$1,$2,$3*
1,1,$1+$1,$4,$5*
1,1,$1+$1,$6,$7*
1,1,$1+$1,$8,$9*
0 Add four rect primitives between the rounded corners*
20,1,$1+$1,$2,$3,$4,$5,0*
20,1,$1+$1,$4,$5,$6,$7,0*
20,1,$1+$1,$6,$7,$8,$9,0*
20,1,$1+$1,$8,$9,$2,$3,0*%
%AMHorizOval*
0 Thick line with rounded ends*
0 $1 width*
0 $2 $3 position (X,Y) of the first rounded end (center of the circle)*
0 $4 $5 position (X,Y) of the second rounded end (center of the circle)*
0 Add line between two ends*
20,1,$1,$2,$3,$4,$5,0*
0 Add two circle primitives to create the rounded ends*
1,1,$1,$2,$3*
1,1,$1,$4,$5*%
%AMRotRect*
0 Rectangle, with rotation*
0 The origin of the aperture is its center*
0 $1 length*
0 $2 width*
0 $3 Rotation angle, in degrees counterclockwise*
0 Add horizontal line*
21,1,$1,$2,0,0,$3*%
G04 Aperture macros list end*
%TA.AperFunction,ComponentPad*%
%ADD10C,2.500000*%
%TD*%
%TA.AperFunction,ComponentPad*%
%ADD11C,3.000000*%
%TD*%
%TA.AperFunction,ComponentPad*%
%ADD12R,1.600000X1.600000*%
%TD*%
%TA.AperFunction,ComponentPad*%
%ADD13O,1.600000X1.600000*%
%TD*%
%TA.AperFunction,ComponentPad*%
%ADD14RoundRect,0.250001X-0.499999X-0.759999X0.499999X-0.759999X0.499999X0.759999X-0.499999X0.759999X0*%
%TD*%
%TA.AperFunction,ComponentPad*%
%ADD15O,1.500000X2.020000*%
%TD*%
%TA.AperFunction,SMDPad,CuDef*%
%ADD16RoundRect,0.250000X-0.450000X0.350000X-0.450000X-0.350000X0.450000X-0.350000X0.450000X0.350000X0*%
%TD*%
%TA.AperFunction,SMDPad,CuDef*%
%ADD17RoundRect,0.250000X0.350000X0.450000X-0.350000X0.450000X-0.350000X-0.450000X0.350000X-0.450000X0*%
%TD*%
%TA.AperFunction,ComponentPad*%
%ADD18RoundRect,0.250001X0.499999X0.759999X-0.499999X0.759999X-0.499999X-0.759999X0.499999X-0.759999X0*%
%TD*%
%TA.AperFunction,ComponentPad*%
%ADD19C,1.600000*%
%TD*%
%TA.AperFunction,ComponentPad*%
%ADD20RoundRect,0.250001X-0.759999X0.499999X-0.759999X-0.499999X0.759999X-0.499999X0.759999X0.499999X0*%
%TD*%
%TA.AperFunction,ComponentPad*%
%ADD21O,2.020000X1.500000*%
%TD*%
%TA.AperFunction,ComponentPad*%
%ADD22RotRect,1.600000X1.600000X315.000000*%
%TD*%
%TA.AperFunction,ComponentPad*%
%ADD23HorizOval,1.600000X0.000000X0.000000X0.000000X0.000000X0*%
%TD*%
%TA.AperFunction,ViaPad*%
%ADD24C,0.600000*%
%TD*%
%TA.AperFunction,Conductor*%
%ADD25C,0.304800*%
%TD*%
%TA.AperFunction,Conductor*%
%ADD26C,0.508000*%
%TD*%
%TA.AperFunction,Conductor*%
%ADD27C,0.762000*%
%TD*%
G04 APERTURE END LIST*
D10*
%TO.P,K1,5*%
%TO.N,Net-(D1-A)*%
X205257400Y-73329800D03*
D11*
%TO.P,K1,4*%
%TO.N,/SDC_OUT1*%
X193007400Y-73379800D03*
%TO.P,K1,3*%
%TO.N,/SDC_OUT2*%
X193057400Y-61329800D03*
D10*
%TO.P,K1,2*%
%TO.N,+12V*%
X205257400Y-61329800D03*
D11*
%TO.P,K1,1*%
%TO.N,/SDC_IN*%
X207207400Y-67379800D03*
%TD*%
D12*
%TO.P,D1,1,K*%
%TO.N,+12V*%
X214122000Y-63423801D03*
D13*
%TO.P,D1,2,A*%
%TO.N,Net-(D1-A)*%
X214122000Y-71043801D03*
%TD*%
D14*
%TO.P,J5,1,Pin_1*%
%TO.N,/SDC_OUT2*%
X209750400Y-51587400D03*
D15*
%TO.P,J5,2,Pin_2*%
%TO.N,/SDC_IN*%
X212750400Y-51587400D03*
%TD*%
D16*
%TO.P,R4,1*%
%TO.N,+12V*%
X189534800Y-98999800D03*
%TO.P,R4,2*%
%TO.N,GND*%
X189534800Y-100999800D03*
%TD*%
D17*
%TO.P,R8,1*%
%TO.N,/IMD_OKHS*%
X224545400Y-91109800D03*
%TO.P,R8,2*%
%TO.N,GND*%
X222545400Y-91109800D03*
%TD*%
D18*
%TO.P,J3,1,Pin_1*%
%TO.N,/IMD_OKHS*%
X211762600Y-100736400D03*
D15*
%TO.P,J3,2,Pin_2*%
X208762600Y-100736400D03*
%TD*%
D12*
%TO.P,C4,1*%
%TO.N,+12V*%
X190201975Y-96574600D03*
D19*
%TO.P,C4,2*%
%TO.N,/error latch with power cycle reset/_reset*%
X192201975Y-96574600D03*
%TD*%
D17*
%TO.P,R9,1*%
%TO.N,/IMD_MHS*%
X224457400Y-82626200D03*
%TO.P,R9,2*%
%TO.N,GND*%
X222457400Y-82626200D03*
%TD*%
D16*
%TO.P,R3,1*%
%TO.N,/error latch with power cycle reset/_reset*%
X192934400Y-99025200D03*
%TO.P,R3,2*%
%TO.N,GND*%
X192934400Y-101025200D03*
%TD*%
D20*
%TO.P,J1,1,Pin_1*%
%TO.N,+12V*%
X225323400Y-62074800D03*
D21*
%TO.P,J1,2,Pin_2*%
X225323400Y-65074800D03*
%TD*%
D22*
%TO.P,D2,1,K*%
%TO.N,/falling edge trigger/signal_in*%
X180287524Y-72845524D03*
D23*
%TO.P,D2,2,A*%
%TO.N,Net-(D2-A)*%
X185675678Y-78233678D03*
%TD*%
D20*
%TO.P,J6,1,Pin_1*%
%TO.N,GND*%
X225357400Y-73607800D03*
D21*
%TO.P,J6,2,Pin_2*%
X225357400Y-76607800D03*
%TD*%
D20*
%TO.P,J8,1,Pin_1*%
%TO.N,/IMD_MHS*%
X225357400Y-85393400D03*
D21*
%TO.P,J8,2,Pin_2*%
%TO.N,/IMD_OKHS*%
X225357400Y-88393400D03*
%TD*%
D17*
%TO.P,R1,1*%
%TO.N,/falling edge trigger/signal_in*%
X179790600Y-54356000D03*
%TO.P,R1,2*%
%TO.N,GND*%
X177790600Y-54356000D03*
%TD*%
D14*
%TO.P,J4,1,Pin_1*%
%TO.N,/SDC_OUT1*%
X194535800Y-51485800D03*
D15*
%TO.P,J4,2,Pin_2*%
%TO.N,/SDC_IN*%
X197535800Y-51485800D03*
%TD*%
D14*
%TO.P,J2,1,Pin_1*%
%TO.N,/falling edge trigger/signal_in*%
X179805200Y-51451800D03*
D15*
%TO.P,J2,2,Pin_2*%
%TO.N,+12V*%
X182805200Y-51451800D03*
%TD*%
D24*
%TO.N,GND*%
X204343000Y-51536600D03*
X202311000Y-53111400D03*
X209829400Y-60553600D03*
X209143600Y-54635400D03*
X221538800Y-78333600D03*
X220345000Y-73355200D03*
X225323400Y-71399400D03*
X222351600Y-71399400D03*
X213690200Y-75082400D03*
X218033600Y-100863400D03*
X201447400Y-97256600D03*
X195580000Y-64592200D03*
X191566800Y-65481200D03*
X170738800Y-65151000D03*
X167970200Y-65176400D03*
X174625000Y-62788800D03*
X171805600Y-62814200D03*
X168198800Y-62915800D03*
X174015400Y-60375800D03*
X171373800Y-60426600D03*
X168427400Y-60452000D03*
X193852800Y-91694000D03*
X193649600Y-77038200D03*
X193827400Y-85496400D03*
X186563000Y-82651600D03*
X205742300Y-91155900D03*
X200992500Y-91054300D03*
X211709000Y-68503800D03*
X199872600Y-62661800D03*
X195859400Y-58013600D03*
X192227200Y-58064400D03*
X188696600Y-51917600D03*
X185445400Y-59156600D03*
X186740800Y-70637400D03*
X185216800Y-67360800D03*
X199136000Y-74549000D03*
X170535600Y-105130600D03*
X165455600Y-104902000D03*
X163855400Y-101650800D03*
X172872400Y-102031800D03*
X170408600Y-97536000D03*
X166446200Y-97561400D03*
X220472000Y-100406200D03*
X220751400Y-103505000D03*
X223164400Y-105003600D03*
X225602800Y-104825800D03*
X227863400Y-103809800D03*
X228219000Y-101041200D03*
X225907600Y-98374200D03*
X222478600Y-98475800D03*
X165760400Y-54279800D03*
X170840400Y-53543200D03*
X164007800Y-51765200D03*
X168529000Y-54965600D03*
X171450000Y-50622200D03*
X169976800Y-48158400D03*
X166014400Y-48437800D03*
X224053400Y-47675800D03*
X228117400Y-51917600D03*
X227634800Y-48133000D03*
X227965000Y-55295800D03*
X222885000Y-55727600D03*
X219633800Y-54457600D03*
X219481400Y-50901600D03*
X219964000Y-47574200D03*
X215874600Y-47371000D03*
X198424800Y-47675800D03*
X192379600Y-47701200D03*
X186740800Y-47752000D03*
X178816000Y-47371000D03*
X173507400Y-47625000D03*
X217576400Y-73304400D03*
X216357200Y-104571800D03*
X209092800Y-104648000D03*
X203454000Y-104546400D03*
X203327000Y-100482400D03*
X209626200Y-57429400D03*
X206527400Y-57505600D03*
X215925400Y-67030600D03*
X218998800Y-67030600D03*
X218617800Y-57835800D03*
X216357200Y-57988200D03*
X214350600Y-78282800D03*
X218922600Y-83388200D03*
X213842600Y-83388200D03*
X208965800Y-83642200D03*
X218719400Y-78155800D03*
X210185000Y-78435200D03*
X200990200Y-78282800D03*
X195986400Y-78359000D03*
X198755000Y-70612000D03*
X197662800Y-66497200D03*
X201803000Y-70535800D03*
X196062600Y-70535800D03*
X200837800Y-66471800D03*
X194335400Y-66497200D03*
X181178200Y-90068400D03*
X177723800Y-81534000D03*
X167690800Y-78816200D03*
X175234600Y-72161400D03*
X173685200Y-73685400D03*
X178181000Y-66675000D03*
X184810400Y-63804800D03*
X188925200Y-81102200D03*
X188874400Y-86233000D03*
X185293000Y-86182200D03*
X180695600Y-86156800D03*
X176657000Y-84455000D03*
X198501000Y-100711000D03*
X195402200Y-104902000D03*
X186893200Y-104825800D03*
X178511200Y-104800400D03*
X174777400Y-102819200D03*
X175107600Y-100152200D03*
X174421800Y-96316800D03*
X169875200Y-93675200D03*
X165989000Y-90805000D03*
X208356200Y-94107000D03*
X204114400Y-94183200D03*
X199263000Y-94208600D03*
X208508600Y-91211400D03*
X203581000Y-91008200D03*
X198932800Y-91262200D03*
X216814400Y-97459800D03*
X214274400Y-97485200D03*
X216712800Y-94234000D03*
X214325200Y-94335600D03*
X218287600Y-92227400D03*
X214655400Y-92329000D03*
X219532200Y-90449400D03*
X216535000Y-90474800D03*
X174218600Y-58039000D03*
X171221400Y-58064400D03*
X167741600Y-58115200D03*
X176657000Y-57912000D03*
X176631600Y-60020200D03*
X176555400Y-62712600D03*
X174447200Y-64617600D03*
X172339000Y-66522600D03*
X170180000Y-68224400D03*
X167640000Y-68249800D03*
X164922200Y-68249800D03*
X164973000Y-66522600D03*
X165074600Y-64439800D03*
X165049200Y-62153800D03*
X165125400Y-60147200D03*
X165150800Y-58293000D03*
%TO.N,/error latch with power cycle reset/signal_in*%
X183603900Y-99428300D03*
X177317600Y-89992000D03*
%TO.N,/IMD_OKHS*%
X168427400Y-83972400D03*
%TO.N,/error latch with power cycle reset/_reset*%
X193421000Y-103555800D03*
%TD*%
D25*
%TO.N,/error latch with power cycle reset/signal_in*%
X177418800Y-89992000D02*
X177317600Y-89992000D01*
X183210200Y-95783400D02*
X177418800Y-89992000D01*
X183210200Y-99034600D02*
X183210200Y-95783400D01*
X183603900Y-99428300D02*
X183210200Y-99034600D01*
D26*
%TO.N,/error latch with power cycle reset/_reset*%
X194894200Y-102082600D02*
X194894200Y-99618800D01*
X193421000Y-103555800D02*
X194894200Y-102082600D01*
X194894200Y-99618800D02*
X194300600Y-99025200D01*
X194300600Y-99025200D02*
X192934400Y-99025200D01*
D25*
%TO.N,/IMD_OKHS*%
X224545400Y-89205400D02*
X225357400Y-88393400D01*
X224545400Y-91109800D02*
X224545400Y-89205400D01*
%TO.N,/IMD_MHS*%
X224457400Y-82626200D02*
X224457400Y-84493400D01*
X224457400Y-84493400D02*
X225357400Y-85393400D01*
%TO.N,/IMD_OKHS*%
X168427400Y-83972400D02*
X172848400Y-88393400D01*
X172848400Y-88393400D02*
X225357400Y-88393400D01*
D27*
%TO.N,+12V*%
X189505400Y-97271175D02*
X189505400Y-99101400D01*
X190201975Y-96574600D02*
X189505400Y-97271175D01*
D26*
%TO.N,/error latch with power cycle reset/_reset*%
X192934400Y-97307025D02*
X192201975Y-96574600D01*
X192934400Y-99025200D02*
X192934400Y-97307025D01*
%TO.N,/falling edge trigger/signal_in*%
X179832000Y-51478600D02*
X179805200Y-51451800D01*
X179832000Y-72043201D02*
X179832000Y-51478600D01*
X180538199Y-72749400D02*
X179832000Y-72043201D01*
D27*
%TO.N,/SDC_IN*%
X212750400Y-49555400D02*
X212750400Y-51587400D01*
X201625200Y-51485800D02*
X205003400Y-48107600D01*
X205003400Y-48107600D02*
X211302600Y-48107600D01*
X197535800Y-51485800D02*
X201625200Y-51485800D01*
X211302600Y-48107600D02*
X212750400Y-49555400D01*
%TO.N,+12V*%
X218640400Y-62074800D02*
X225323400Y-62074800D01*
X218643200Y-62077600D02*
X218640400Y-62074800D01*
X217296999Y-63423801D02*
X218643200Y-62077600D01*
X214122000Y-63423801D02*
X217296999Y-63423801D01*
X225323400Y-62074800D02*
X225323400Y-65074800D01*
X207416401Y-63423801D02*
X214122000Y-63423801D01*
X205257400Y-61329800D02*
X205322400Y-61329800D01*
X205322400Y-61329800D02*
X207416401Y-63423801D01*
X186471400Y-55118000D02*
X199045600Y-55118000D01*
X182805200Y-51451800D02*
X186471400Y-55118000D01*
X199045600Y-55118000D02*
X205257400Y-61329800D01*
%TD*%
%TA.AperFunction,Conductor*%
%TO.N,GND*%
G36*
X229279259Y-46817186D02*
G01*
X229325014Y-46869990D01*
X229336220Y-46921501D01*
X229336220Y-105547094D01*
X229316535Y-105614133D01*
X229263731Y-105659888D01*
X229212220Y-105671094D01*
X163572699Y-105671094D01*
X163505660Y-105651409D01*
X163459905Y-105598605D01*
X163448699Y-105547094D01*
X163448699Y-101160386D01*
X165627708Y-101160386D01*
X165627708Y-101430013D01*
X165657894Y-101697919D01*
X165657896Y-101697931D01*
X165717892Y-101960794D01*
X165717895Y-101960802D01*
X165806942Y-102215282D01*
X165923922Y-102458194D01*
X165923924Y-102458197D01*
X166067370Y-102686489D01*
X166235474Y-102897285D01*
X166426123Y-103087934D01*
X166636919Y-103256038D01*
X166865211Y-103399484D01*
X167108129Y-103516467D01*
X167217436Y-103554715D01*
X167362605Y-103605512D01*
X167362613Y-103605515D01*
X167362616Y-103605515D01*
X167362617Y-103605516D01*
X167625476Y-103665512D01*
X167893395Y-103695699D01*
X167893396Y-103695700D01*
X167893399Y-103695700D01*
X168163020Y-103695700D01*
X168163020Y-103695699D01*
X168430940Y-103665512D01*
X168693799Y-103605516D01*
X168948287Y-103516467D01*
X169191205Y-103399484D01*
X169419497Y-103256038D01*
X169630293Y-103087934D01*
X169820942Y-102897285D01*
X169989046Y-102686489D01*
X170132492Y-102458197D01*
X170249475Y-102215279D01*
X170338524Y-101960791D01*
X170398520Y-101697932D01*
X170428708Y-101430009D01*
X170428708Y-101399786D01*
X188334801Y-101399786D01*
X188345294Y-101502497D01*
X188400441Y-101668919D01*
X188400443Y-101668924D01*
X188492484Y-101818145D01*
X188616454Y-101942115D01*
X188765675Y-102034156D01*
X188765680Y-102034158D01*
X188932102Y-102089305D01*
X188932109Y-102089306D01*
X189034819Y-102099799D01*
X189284799Y-102099799D01*
X189784800Y-102099799D01*
X190034772Y-102099799D01*
X190034786Y-102099798D01*
X190137497Y-102089305D01*
X190303919Y-102034158D01*
X190303924Y-102034156D01*
X190453145Y-101942115D01*
X190577115Y-101818145D01*
X190669156Y-101668924D01*
X190669158Y-101668919D01*
X190724305Y-101502497D01*
X190724306Y-101502490D01*
X190732204Y-101425186D01*
X191734401Y-101425186D01*
X191744894Y-101527897D01*
X191800041Y-101694319D01*
X191800043Y-101694324D01*
X191892084Y-101843545D01*
X192016054Y-101967515D01*
X192165275Y-102059556D01*
X192165280Y-102059558D01*
X192331702Y-102114705D01*
X192331709Y-102114706D01*
X192434419Y-102125199D01*
X192684399Y-102125199D01*
X192684400Y-102125198D01*
X192684400Y-101275200D01*
X191734401Y-101275200D01*
X191734401Y-101425186D01*
X190732204Y-101425186D01*
X190734799Y-101399786D01*
X190734800Y-101399773D01*
X190734800Y-101249800D01*
X189784800Y-101249800D01*
X189784800Y-102099799D01*
X189284799Y-102099799D01*
X189284800Y-102099798D01*
X189284800Y-101249800D01*
X188334801Y-101249800D01*
X188334801Y-101399786D01*
X170428708Y-101399786D01*
X170428708Y-101160391D01*
X170398520Y-100892468D01*
X170338524Y-100629609D01*
X170249475Y-100375121D01*
X170132492Y-100132203D01*
X169989046Y-99903911D01*
X169820942Y-99693115D01*
X169630293Y-99502466D01*
X169419497Y-99334362D01*
X169261821Y-99235287D01*
X169191202Y-99190914D01*
X168948290Y-99073934D01*
X168693810Y-98984887D01*
X168693802Y-98984884D01*
X168471230Y-98934084D01*
X168430940Y-98924888D01*
X168430936Y-98924887D01*
X168430927Y-98924886D01*
X168163021Y-98894700D01*
X168163017Y-98894700D01*
X167893399Y-98894700D01*
X167893394Y-98894700D01*
X167625488Y-98924886D01*
X167625476Y-98924888D01*
X167362613Y-98984884D01*
X167362605Y-98984887D01*
X167108125Y-99073934D01*
X166865213Y-99190914D01*
X166636920Y-99334361D01*
X166426123Y-99502465D01*
X166235473Y-99693115D01*
X166067369Y-99903912D01*
X165923922Y-100132205D01*
X165806942Y-100375117D01*
X165717895Y-100629597D01*
X165717892Y-100629605D01*
X165657896Y-100892468D01*
X165657894Y-100892480D01*
X165627708Y-101160386D01*
X163448699Y-101160386D01*
X163448699Y-83893553D01*
X167626900Y-83893553D01*
X167626900Y-84051246D01*
X167657661Y-84205889D01*
X167657664Y-84205901D01*
X167718002Y-84351572D01*
X167718009Y-84351585D01*
X167805610Y-84482688D01*
X167805613Y-84482692D01*
X167917107Y-84594186D01*
X167917111Y-84594189D01*
X168048214Y-84681790D01*
X168048227Y-84681797D01*
X168135630Y-84717999D01*
X168193903Y-84742137D01*
X168256742Y-84754636D01*
X168318652Y-84787020D01*
X168320231Y-84788572D01*
X172432197Y-88900538D01*
X172432200Y-88900540D01*
X172539136Y-88971992D01*
X172657956Y-89021209D01*
X172657960Y-89021209D01*
X172657961Y-89021210D01*
X172784092Y-89046300D01*
X172784095Y-89046300D01*
X176885523Y-89046300D01*
X176952562Y-89065985D01*
X176998317Y-89118789D01*
X177008261Y-89187947D01*
X176979236Y-89251503D01*
X176942769Y-89277824D01*
X176943791Y-89279736D01*
X176938414Y-89282609D01*
X176807311Y-89370210D01*
X176807307Y-89370213D01*
X176695813Y-89481707D01*
X176695810Y-89481711D01*
X176608209Y-89612814D01*
X176608202Y-89612827D01*
X176547864Y-89758498D01*
X176547861Y-89758510D01*
X176517100Y-89913153D01*
X176517100Y-90070846D01*
X176547861Y-90225489D01*
X176547864Y-90225501D01*
X176608202Y-90371172D01*
X176608209Y-90371185D01*
X176695810Y-90502288D01*
X176695813Y-90502292D01*
X176807307Y-90613786D01*
X176807311Y-90613789D01*
X176938414Y-90701390D01*
X176938427Y-90701397D01*
X177084098Y-90761735D01*
X177084103Y-90761737D01*
X177238753Y-90792499D01*
X177238756Y-90792500D01*
X177238758Y-90792500D01*
X177244597Y-90792500D01*
X177311636Y-90812185D01*
X177332278Y-90828819D01*
X182520981Y-96017521D01*
X182554466Y-96078844D01*
X182557300Y-96105202D01*
X182557300Y-99098905D01*
X182557300Y-99098907D01*
X182557299Y-99098907D01*
X182576375Y-99194800D01*
X182576375Y-99194801D01*
X182582389Y-99225037D01*
X182582390Y-99225041D01*
X182582391Y-99225044D01*
X182631608Y-99343864D01*
X182703059Y-99450800D01*
X182754858Y-99502599D01*
X182787727Y-99535467D01*
X182821212Y-99596790D01*
X182821663Y-99598958D01*
X182834161Y-99661789D01*
X182834164Y-99661801D01*
X182894502Y-99807472D01*
X182894509Y-99807485D01*
X182982110Y-99938588D01*
X182982113Y-99938592D01*
X183093607Y-100050086D01*
X183093611Y-100050089D01*
X183224714Y-100137690D01*
X183224727Y-100137697D01*
X183335486Y-100183574D01*
X183370403Y-100198037D01*
X183525053Y-100228799D01*
X183525056Y-100228800D01*
X183525058Y-100228800D01*
X183682744Y-100228800D01*
X183682745Y-100228799D01*
X183837397Y-100198037D01*
X183983079Y-100137694D01*
X184114189Y-100050089D01*
X184225689Y-99938589D01*
X184313294Y-99807479D01*
X184373637Y-99661797D01*
X184404400Y-99507142D01*
X184404400Y-99349458D01*
X184404400Y-99349455D01*
X184404399Y-99349453D01*
X184386886Y-99261410D01*
X184373637Y-99194803D01*
X184350984Y-99140114D01*
X184313297Y-99049127D01*
X184313290Y-99049114D01*
X184225689Y-98918011D01*
X184225686Y-98918007D01*
X184114192Y-98806513D01*
X184114188Y-98806510D01*
X183983085Y-98718909D01*
X183983079Y-98718906D01*
X183964463Y-98711195D01*
X183964462Y-98711194D01*
X183939645Y-98700914D01*
X183885243Y-98657072D01*
X183866176Y-98599783D01*
X188334300Y-98599783D01*
X188334300Y-99399801D01*
X188334301Y-99399819D01*
X188344800Y-99502596D01*
X188344801Y-99502599D01*
X188399985Y-99669131D01*
X188399987Y-99669136D01*
X188415651Y-99694531D01*
X188485317Y-99807479D01*
X188492089Y-99818457D01*
X188586104Y-99912472D01*
X188619589Y-99973795D01*
X188614605Y-100043487D01*
X188586105Y-100087834D01*
X188492482Y-100181457D01*
X188400443Y-100330675D01*
X188400441Y-100330680D01*
X188345294Y-100497102D01*
X188345293Y-100497109D01*
X188334800Y-100599813D01*
X188334800Y-100749800D01*
X190734799Y-100749800D01*
X190734799Y-100599828D01*
X190734798Y-100599813D01*
X190724305Y-100497102D01*
X190669158Y-100330680D01*
X190669156Y-100330675D01*
X190577115Y-100181454D01*
X190483495Y-100087834D01*
X190450010Y-100026511D01*
X190454994Y-99956819D01*
X190483491Y-99912476D01*
X190577512Y-99818456D01*
X190669614Y-99669134D01*
X190724799Y-99502597D01*
X190735300Y-99399809D01*
X190735299Y-98599792D01*
X190724799Y-98497003D01*
X190669614Y-98330466D01*
X190577512Y-98181144D01*
X190483148Y-98086780D01*
X190449663Y-98025457D01*
X190454647Y-97955765D01*
X190496519Y-97899832D01*
X190561983Y-97875415D01*
X190570829Y-97875099D01*
X191049846Y-97875099D01*
X191049847Y-97875099D01*
X191109458Y-97868691D01*
X191244306Y-97818396D01*
X191359521Y-97732146D01*
X191365899Y-97723626D01*
X191421831Y-97681752D01*
X191491522Y-97676765D01*
X191521464Y-97687447D01*
X191702751Y-97779818D01*
X191702753Y-97779818D01*
X191702756Y-97779820D01*
X191807112Y-97813727D01*
X191897440Y-97843077D01*
X191969915Y-97854556D01*
X192033050Y-97884485D01*
X192069981Y-97943797D01*
X192068983Y-98013659D01*
X192030373Y-98071892D01*
X192015956Y-98082319D01*
X192015743Y-98082488D01*
X191891689Y-98206542D01*
X191799587Y-98355863D01*
X191799585Y-98355868D01*
X191771991Y-98439141D01*
X191744401Y-98522403D01*
X191744401Y-98522404D01*
X191744400Y-98522404D01*
X191733900Y-98625183D01*
X191733900Y-99425201D01*
X191733901Y-99425219D01*
X191744400Y-99527996D01*
X191744401Y-99527999D01*
X191787170Y-99657066D01*
X191799586Y-99694534D01*
X191877587Y-99820995D01*
X191891689Y-99843857D01*
X191985704Y-99937872D01*
X192019189Y-99999195D01*
X192014205Y-100068887D01*
X191985705Y-100113234D01*
X191892082Y-100206857D01*
X191800043Y-100356075D01*
X191800041Y-100356080D01*
X191744894Y-100522502D01*
X191744893Y-100522509D01*
X191734400Y-100625213D01*
X191734400Y-100775200D01*
X192810400Y-100775200D01*
X192877439Y-100794885D01*
X192923194Y-100847689D01*
X192934400Y-100899200D01*
X192934400Y-101025200D01*
X193060400Y-101025200D01*
X193127439Y-101044885D01*
X193173194Y-101097689D01*
X193184400Y-101149200D01*
X193184400Y-102125199D01*
X193434372Y-102125199D01*
X193434381Y-102125198D01*
X193477674Y-102120775D01*
X193546367Y-102133543D01*
X193597252Y-102181423D01*
X193614174Y-102249213D01*
X193591760Y-102315389D01*
X193577959Y-102331814D01*
X193096045Y-102813728D01*
X193055822Y-102840606D01*
X193041819Y-102846406D01*
X193041818Y-102846407D01*
X192910715Y-102934007D01*
X192910707Y-102934013D01*
X192799213Y-103045507D01*
X192799210Y-103045511D01*
X192711609Y-103176614D01*
X192711602Y-103176627D01*
X192651264Y-103322298D01*
X192651261Y-103322310D01*
X192620500Y-103476953D01*
X192620500Y-103634646D01*
X192651261Y-103789289D01*
X192651264Y-103789301D01*
X192711602Y-103934972D01*
X192711609Y-103934985D01*
X192799210Y-104066088D01*
X192799213Y-104066092D01*
X192910707Y-104177586D01*
X192910711Y-104177589D01*
X193041814Y-104265190D01*
X193041827Y-104265197D01*
X193187498Y-104325535D01*
X193187503Y-104325537D01*
X193342153Y-104356299D01*
X193342156Y-104356300D01*
X193342158Y-104356300D01*
X193499844Y-104356300D01*
X193499845Y-104356299D01*
X193654497Y-104325537D01*
X193800179Y-104265194D01*
X193931289Y-104177589D01*
X194042789Y-104066089D01*
X194130394Y-103934979D01*
X194136191Y-103920982D01*
X194163070Y-103880753D01*
X195375163Y-102668660D01*
X195375166Y-102668659D01*
X195434644Y-102609181D01*
X204877100Y-102609181D01*
X204877100Y-102783618D01*
X204911127Y-102954683D01*
X204911129Y-102954691D01*
X204977878Y-103115839D01*
X204977883Y-103115848D01*
X205074786Y-103260873D01*
X205074789Y-103260877D01*
X205198122Y-103384210D01*
X205198126Y-103384213D01*
X205343151Y-103481116D01*
X205343157Y-103481119D01*
X205343158Y-103481120D01*
X205504309Y-103547871D01*
X205675381Y-103581899D01*
X205675385Y-103581900D01*
X205675386Y-103581900D01*
X205849815Y-103581900D01*
X205849816Y-103581899D01*
X206020891Y-103547871D01*
X206182042Y-103481120D01*
X206327074Y-103384213D01*
X206450413Y-103260874D01*
X206547320Y-103115842D01*
X206614071Y-102954691D01*
X206648100Y-102783614D01*
X206648100Y-102609186D01*
X206648099Y-102609181D01*
X213877100Y-102609181D01*
X213877100Y-102783618D01*
X213911127Y-102954683D01*
X213911129Y-102954691D01*
X213977878Y-103115839D01*
X213977883Y-103115848D01*
X214074786Y-103260873D01*
X214074789Y-103260877D01*
X214198122Y-103384210D01*
X214198126Y-103384213D01*
X214343151Y-103481116D01*
X214343157Y-103481119D01*
X214343158Y-103481120D01*
X214504309Y-103547871D01*
X214675381Y-103581899D01*
X214675385Y-103581900D01*
X214675386Y-103581900D01*
X214849815Y-103581900D01*
X214849816Y-103581899D01*
X215020891Y-103547871D01*
X215182042Y-103481120D01*
X215327074Y-103384213D01*
X215450413Y-103260874D01*
X215547320Y-103115842D01*
X215614071Y-102954691D01*
X215648100Y-102783614D01*
X215648100Y-102609186D01*
X215614071Y-102438109D01*
X215547320Y-102276958D01*
X215547319Y-102276957D01*
X215547316Y-102276951D01*
X215450413Y-102131926D01*
X215450410Y-102131922D01*
X215327077Y-102008589D01*
X215327073Y-102008586D01*
X215182048Y-101911683D01*
X215182039Y-101911678D01*
X215020891Y-101844929D01*
X215020883Y-101844927D01*
X214849818Y-101810900D01*
X214849814Y-101810900D01*
X214675386Y-101810900D01*
X214675381Y-101810900D01*
X214504316Y-101844927D01*
X214504308Y-101844929D01*
X214343160Y-101911678D01*
X214343151Y-101911683D01*
X214198126Y-102008586D01*
X214198122Y-102008589D01*
X214074789Y-102131922D01*
X214074786Y-102131926D01*
X213977883Y-102276951D01*
X213977878Y-102276960D01*
X213911129Y-102438108D01*
X213911127Y-102438116D01*
X213877100Y-102609181D01*
X206648099Y-102609181D01*
X206614071Y-102438109D01*
X206547320Y-102276958D01*
X206547319Y-102276957D01*
X206547316Y-102276951D01*
X206450413Y-102131926D01*
X206450410Y-102131922D01*
X206327077Y-102008589D01*
X206327073Y-102008586D01*
X206182048Y-101911683D01*
X206182039Y-101911678D01*
X206020891Y-101844929D01*
X206020883Y-101844927D01*
X205849818Y-101810900D01*
X205849814Y-101810900D01*
X205675386Y-101810900D01*
X205675381Y-101810900D01*
X205504316Y-101844927D01*
X205504308Y-101844929D01*
X205343160Y-101911678D01*
X205343151Y-101911683D01*
X205198126Y-102008586D01*
X205198122Y-102008589D01*
X205074789Y-102131922D01*
X205074786Y-102131926D01*
X204977883Y-102276951D01*
X204977878Y-102276960D01*
X204911129Y-102438108D01*
X204911127Y-102438116D01*
X204877100Y-102609181D01*
X195434644Y-102609181D01*
X195480259Y-102563566D01*
X195562829Y-102439990D01*
X195619705Y-102302680D01*
X195648700Y-102156912D01*
X195648700Y-100377977D01*
X207512100Y-100377977D01*
X207512100Y-101094822D01*
X207542890Y-101289226D01*
X207603717Y-101476429D01*
X207639377Y-101546415D01*
X207693076Y-101651805D01*
X207808772Y-101811046D01*
X207947954Y-101950228D01*
X208107195Y-102065924D01*
X208153085Y-102089306D01*
X208282570Y-102155282D01*
X208282572Y-102155282D01*
X208282575Y-102155284D01*
X208362373Y-102181212D01*
X208469773Y-102216109D01*
X208664178Y-102246900D01*
X208664183Y-102246900D01*
X208861022Y-102246900D01*
X209055426Y-102216109D01*
X209057980Y-102215279D01*
X209242625Y-102155284D01*
X209418005Y-102065924D01*
X209577246Y-101950228D01*
X209716428Y-101811046D01*
X209832124Y-101651805D01*
X209921484Y-101476425D01*
X209982309Y-101289226D01*
X210013100Y-101094822D01*
X210013100Y-100377977D01*
X209982309Y-100183573D01*
X209949111Y-100081403D01*
X209921484Y-99996375D01*
X209921481Y-99996371D01*
X209921481Y-99996368D01*
X209912902Y-99979531D01*
X209912901Y-99979530D01*
X209901329Y-99956819D01*
X209885822Y-99926384D01*
X210512100Y-99926384D01*
X210512100Y-101546415D01*
X210522600Y-101649195D01*
X210522601Y-101649197D01*
X210529136Y-101668919D01*
X210577786Y-101815735D01*
X210577787Y-101815737D01*
X210669886Y-101965051D01*
X210669889Y-101965055D01*
X210793944Y-102089110D01*
X210793948Y-102089113D01*
X210943262Y-102181212D01*
X210943264Y-102181213D01*
X210943266Y-102181214D01*
X211109803Y-102236399D01*
X211212592Y-102246900D01*
X211212597Y-102246900D01*
X212312603Y-102246900D01*
X212312608Y-102246900D01*
X212415397Y-102236399D01*
X212581934Y-102181214D01*
X212731255Y-102089111D01*
X212855311Y-101965055D01*
X212947414Y-101815734D01*
X213002599Y-101649197D01*
X213013100Y-101546408D01*
X213013100Y-101109586D01*
X222186300Y-101109586D01*
X222186300Y-101379213D01*
X222216486Y-101647119D01*
X222216487Y-101647128D01*
X222216488Y-101647132D01*
X222217555Y-101651805D01*
X222276484Y-101909994D01*
X222276487Y-101910002D01*
X222365534Y-102164482D01*
X222482514Y-102407394D01*
X222482516Y-102407397D01*
X222625962Y-102635689D01*
X222661866Y-102680711D01*
X222789377Y-102840606D01*
X222794066Y-102846485D01*
X222984715Y-103037134D01*
X223195511Y-103205238D01*
X223423803Y-103348684D01*
X223666721Y-103465667D01*
X223857849Y-103532545D01*
X223921197Y-103554712D01*
X223921205Y-103554715D01*
X223921208Y-103554715D01*
X223921209Y-103554716D01*
X224184068Y-103614712D01*
X224451987Y-103644899D01*
X224451988Y-103644900D01*
X224451991Y-103644900D01*
X224721612Y-103644900D01*
X224721612Y-103644899D01*
X224989532Y-103614712D01*
X225252391Y-103554716D01*
X225506879Y-103465667D01*
X225749797Y-103348684D01*
X225978089Y-103205238D01*
X226188885Y-103037134D01*
X226379534Y-102846485D01*
X226547638Y-102635689D01*
X226691084Y-102407397D01*
X226808067Y-102164479D01*
X226897116Y-101909991D01*
X226957112Y-101647132D01*
X226987300Y-101379209D01*
X226987300Y-101109591D01*
X226957112Y-100841668D01*
X226897116Y-100578809D01*
X226808067Y-100324321D01*
X226691084Y-100081403D01*
X226547638Y-99853111D01*
X226379534Y-99642315D01*
X226188885Y-99451666D01*
X226155721Y-99425219D01*
X226123848Y-99399801D01*
X225978089Y-99283562D01*
X225749797Y-99140116D01*
X225749794Y-99140114D01*
X225506882Y-99023134D01*
X225252402Y-98934087D01*
X225252394Y-98934084D01*
X225055246Y-98889087D01*
X224989532Y-98874088D01*
X224989528Y-98874087D01*
X224989519Y-98874086D01*
X224721613Y-98843900D01*
X224721609Y-98843900D01*
X224451991Y-98843900D01*
X224451986Y-98843900D01*
X224184080Y-98874086D01*
X224184068Y-98874088D01*
X223921205Y-98934084D01*
X223921197Y-98934087D01*
X223666717Y-99023134D01*
X223423805Y-99140114D01*
X223195512Y-99283561D01*
X222984715Y-99451665D01*
X222794065Y-99642315D01*
X222625961Y-99853112D01*
X222482514Y-100081405D01*
X222365534Y-100324317D01*
X222276487Y-100578797D01*
X222276484Y-100578805D01*
X222216488Y-100841668D01*
X222216486Y-100841680D01*
X222186300Y-101109586D01*
X213013100Y-101109586D01*
X213013100Y-99926392D01*
X213002599Y-99823603D01*
X212947414Y-99657066D01*
X212938315Y-99642315D01*
X212855313Y-99507748D01*
X212855310Y-99507744D01*
X212731255Y-99383689D01*
X212731251Y-99383686D01*
X212581937Y-99291587D01*
X212581935Y-99291586D01*
X212476625Y-99256690D01*
X212415397Y-99236401D01*
X212415395Y-99236400D01*
X212312615Y-99225900D01*
X212312608Y-99225900D01*
X211212592Y-99225900D01*
X211212584Y-99225900D01*
X211109804Y-99236400D01*
X211109803Y-99236401D01*
X210943264Y-99291586D01*
X210943262Y-99291587D01*
X210793948Y-99383686D01*
X210793944Y-99383689D01*
X210669889Y-99507744D01*
X210669886Y-99507748D01*
X210577787Y-99657062D01*
X210577786Y-99657064D01*
X210522601Y-99823603D01*
X210522600Y-99823604D01*
X210512100Y-99926384D01*
X209885822Y-99926384D01*
X209832124Y-99820995D01*
X209716428Y-99661754D01*
X209577246Y-99522572D01*
X209418005Y-99406876D01*
X209404133Y-99399808D01*
X209242629Y-99317517D01*
X209055426Y-99256690D01*
X208861022Y-99225900D01*
X208861017Y-99225900D01*
X208664183Y-99225900D01*
X208664178Y-99225900D01*
X208469773Y-99256690D01*
X208282570Y-99317517D01*
X208107194Y-99406876D01*
X208045547Y-99451666D01*
X207947954Y-99522572D01*
X207947952Y-99522574D01*
X207947951Y-99522574D01*
X207808774Y-99661751D01*
X207808774Y-99661752D01*
X207808772Y-99661754D01*
X207759085Y-99730141D01*
X207693076Y-99820994D01*
X207603717Y-99996370D01*
X207542890Y-100183573D01*
X207512100Y-100377977D01*
X195648700Y-100377977D01*
X195648700Y-99544488D01*
X195619705Y-99398720D01*
X195562829Y-99261410D01*
X195559675Y-99256690D01*
X195480260Y-99137835D01*
X195480254Y-99137828D01*
X195370847Y-99028421D01*
X195370824Y-99028400D01*
X194781569Y-98439143D01*
X194781568Y-98439142D01*
X194740373Y-98411617D01*
X194657989Y-98356570D01*
X194657986Y-98356568D01*
X194657985Y-98356568D01*
X194577555Y-98323253D01*
X194520680Y-98299695D01*
X194496494Y-98294884D01*
X194374914Y-98270699D01*
X194374912Y-98270699D01*
X194226288Y-98270699D01*
X194220174Y-98270699D01*
X194220154Y-98270700D01*
X194085891Y-98270700D01*
X194018852Y-98251015D01*
X193980354Y-98211800D01*
X193977111Y-98206543D01*
X193853056Y-98082488D01*
X193853052Y-98082485D01*
X193747803Y-98017566D01*
X193701078Y-97965618D01*
X193688900Y-97912028D01*
X193688900Y-97232712D01*
X193688899Y-97232708D01*
X193659906Y-97086952D01*
X193659905Y-97086945D01*
X193603029Y-96949635D01*
X193520459Y-96826059D01*
X193517075Y-96820994D01*
X193518208Y-96820236D01*
X193493606Y-96762308D01*
X193494299Y-96728565D01*
X193502475Y-96676952D01*
X193502475Y-96472248D01*
X193470452Y-96270066D01*
X193407195Y-96075381D01*
X193407193Y-96075378D01*
X193407193Y-96075376D01*
X193373478Y-96009207D01*
X193314262Y-95892990D01*
X193306531Y-95882349D01*
X193193946Y-95727386D01*
X193049188Y-95582628D01*
X192883588Y-95462315D01*
X192883587Y-95462314D01*
X192883585Y-95462313D01*
X192811491Y-95425579D01*
X192701198Y-95369381D01*
X192506509Y-95306122D01*
X192331970Y-95278478D01*
X192304327Y-95274100D01*
X192099623Y-95274100D01*
X192075304Y-95277951D01*
X191897440Y-95306122D01*
X191702751Y-95369381D01*
X191521464Y-95461753D01*
X191452795Y-95474649D01*
X191388054Y-95448373D01*
X191365905Y-95425582D01*
X191359521Y-95417054D01*
X191244306Y-95330804D01*
X191244304Y-95330803D01*
X191244303Y-95330802D01*
X191109457Y-95280508D01*
X191109458Y-95280508D01*
X191049858Y-95274101D01*
X191049856Y-95274100D01*
X191049848Y-95274100D01*
X191049839Y-95274100D01*
X189354104Y-95274100D01*
X189354098Y-95274101D01*
X189294491Y-95280508D01*
X189159646Y-95330802D01*
X189159639Y-95330806D01*
X189044430Y-95417052D01*
X189044429Y-95417054D01*
X188958181Y-95532264D01*
X188958177Y-95532271D01*
X188907883Y-95667117D01*
X188901476Y-95726716D01*
X188901475Y-95726735D01*
X188901475Y-96577106D01*
X188894830Y-96599733D01*
X188892585Y-96623211D01*
X188884208Y-96635907D01*
X188881790Y-96644145D01*
X188874933Y-96653773D01*
X188870366Y-96659578D01*
X188820694Y-96709251D01*
X188763613Y-96794679D01*
X188760946Y-96798670D01*
X188760944Y-96798673D01*
X188724228Y-96853622D01*
X188724223Y-96853631D01*
X188657776Y-97014050D01*
X188657774Y-97014056D01*
X188623900Y-97184352D01*
X188623900Y-97997970D01*
X188604215Y-98065009D01*
X188587581Y-98085651D01*
X188492089Y-98181142D01*
X188399987Y-98330463D01*
X188399985Y-98330468D01*
X188391336Y-98356570D01*
X188344801Y-98497003D01*
X188344801Y-98497004D01*
X188344800Y-98497004D01*
X188334300Y-98599783D01*
X183866176Y-98599783D01*
X183863179Y-98590778D01*
X183863100Y-98586354D01*
X183863100Y-95719092D01*
X183838010Y-95592961D01*
X183838009Y-95592960D01*
X183838009Y-95592956D01*
X183799942Y-95501054D01*
X183788793Y-95474138D01*
X183788791Y-95474135D01*
X183780518Y-95461753D01*
X183750651Y-95417054D01*
X183717340Y-95367200D01*
X183717338Y-95367197D01*
X179959927Y-91609786D01*
X221445401Y-91609786D01*
X221455894Y-91712497D01*
X221511041Y-91878919D01*
X221511043Y-91878924D01*
X221603084Y-92028145D01*
X221727054Y-92152115D01*
X221876275Y-92244156D01*
X221876280Y-92244158D01*
X222042702Y-92299305D01*
X222042709Y-92299306D01*
X222145419Y-92309799D01*
X222295399Y-92309799D01*
X222295400Y-92309798D01*
X222295400Y-91359800D01*
X221445401Y-91359800D01*
X221445401Y-91609786D01*
X179959927Y-91609786D01*
X178959954Y-90609813D01*
X221445400Y-90609813D01*
X221445400Y-90859800D01*
X222295400Y-90859800D01*
X222295400Y-89909800D01*
X222145427Y-89909800D01*
X222145412Y-89909801D01*
X222042702Y-89920294D01*
X221876280Y-89975441D01*
X221876275Y-89975443D01*
X221727054Y-90067484D01*
X221603084Y-90191454D01*
X221511043Y-90340675D01*
X221511041Y-90340680D01*
X221455894Y-90507102D01*
X221455893Y-90507109D01*
X221445400Y-90609813D01*
X178959954Y-90609813D01*
X178089711Y-89739570D01*
X178062831Y-89699341D01*
X178026997Y-89612827D01*
X178026995Y-89612823D01*
X178026994Y-89612821D01*
X178026989Y-89612814D01*
X177939389Y-89481710D01*
X177827892Y-89370213D01*
X177827888Y-89370210D01*
X177696785Y-89282609D01*
X177691409Y-89279736D01*
X177692740Y-89277245D01*
X177647755Y-89240926D01*
X177625752Y-89174611D01*
X177643094Y-89106928D01*
X177694275Y-89059365D01*
X177749677Y-89046300D01*
X223768500Y-89046300D01*
X223835539Y-89065985D01*
X223881294Y-89118789D01*
X223892500Y-89170300D01*
X223892500Y-89895642D01*
X223872815Y-89962681D01*
X223833597Y-90001181D01*
X223726745Y-90067087D01*
X223632727Y-90161105D01*
X223571403Y-90194589D01*
X223501712Y-90189605D01*
X223457365Y-90161104D01*
X223363745Y-90067484D01*
X223214524Y-89975443D01*
X223214519Y-89975441D01*
X223048097Y-89920294D01*
X223048090Y-89920293D01*
X222945386Y-89909800D01*
X222795400Y-89909800D01*
X222795400Y-92309799D01*
X222945372Y-92309799D01*
X222945386Y-92309798D01*
X223048097Y-92299305D01*
X223214519Y-92244158D01*
X223214524Y-92244156D01*
X223363742Y-92152117D01*
X223457364Y-92058495D01*
X223518687Y-92025010D01*
X223588379Y-92029994D01*
X223632727Y-92058495D01*
X223726744Y-92152512D01*
X223876066Y-92244614D01*
X224042603Y-92299799D01*
X224145391Y-92310300D01*
X224945408Y-92310299D01*
X224945416Y-92310298D01*
X224945419Y-92310298D01*
X225001702Y-92304548D01*
X225048197Y-92299799D01*
X225214734Y-92244614D01*
X225364056Y-92152512D01*
X225488112Y-92028456D01*
X225580214Y-91879134D01*
X225635399Y-91712597D01*
X225645900Y-91609809D01*
X225645900Y-91306181D01*
X226431900Y-91306181D01*
X226431900Y-91480618D01*
X226465927Y-91651683D01*
X226465929Y-91651691D01*
X226532678Y-91812839D01*
X226532683Y-91812848D01*
X226629586Y-91957873D01*
X226629589Y-91957877D01*
X226752922Y-92081210D01*
X226752926Y-92081213D01*
X226897951Y-92178116D01*
X226897957Y-92178119D01*
X226897958Y-92178120D01*
X227059109Y-92244871D01*
X227230181Y-92278899D01*
X227230185Y-92278900D01*
X227230186Y-92278900D01*
X227404615Y-92278900D01*
X227404616Y-92278899D01*
X227575691Y-92244871D01*
X227736842Y-92178120D01*
X227881874Y-92081213D01*
X228005213Y-91957874D01*
X228102120Y-91812842D01*
X228168871Y-91651691D01*
X228202900Y-91480614D01*
X228202900Y-91306186D01*
X228168871Y-91135109D01*
X228102120Y-90973958D01*
X228102119Y-90973957D01*
X228102116Y-90973951D01*
X228005213Y-90828926D01*
X228005210Y-90828922D01*
X227881877Y-90705589D01*
X227881873Y-90705586D01*
X227736848Y-90608683D01*
X227736839Y-90608678D01*
X227575691Y-90541929D01*
X227575683Y-90541927D01*
X227404618Y-90507900D01*
X227404614Y-90507900D01*
X227230186Y-90507900D01*
X227230181Y-90507900D01*
X227059116Y-90541927D01*
X227059108Y-90541929D01*
X226897960Y-90608678D01*
X226897951Y-90608683D01*
X226752926Y-90705586D01*
X226752922Y-90705589D01*
X226629589Y-90828922D01*
X226629586Y-90828926D01*
X226532683Y-90973951D01*
X226532678Y-90973960D01*
X226465929Y-91135108D01*
X226465927Y-91135116D01*
X226431900Y-91306181D01*
X225645900Y-91306181D01*
X225645899Y-90973960D01*
X225645899Y-90609798D01*
X225645898Y-90609780D01*
X225635399Y-90507003D01*
X225635398Y-90506999D01*
X225590391Y-90371179D01*
X225580214Y-90340466D01*
X225488112Y-90191144D01*
X225364056Y-90067088D01*
X225257202Y-90001180D01*
X225250378Y-89993593D01*
X225241097Y-89989355D01*
X225227408Y-89968055D01*
X225210479Y-89949233D01*
X225207834Y-89937597D01*
X225203323Y-89930577D01*
X225198300Y-89895642D01*
X225198300Y-89767900D01*
X225217985Y-89700861D01*
X225270789Y-89655106D01*
X225322300Y-89643900D01*
X225715822Y-89643900D01*
X225910226Y-89613109D01*
X225911134Y-89612814D01*
X226097425Y-89552284D01*
X226272805Y-89462924D01*
X226432046Y-89347228D01*
X226571228Y-89208046D01*
X226686924Y-89048805D01*
X226776284Y-88873425D01*
X226837109Y-88686226D01*
X226867900Y-88491822D01*
X226867900Y-88294977D01*
X226837109Y-88100573D01*
X226776282Y-87913370D01*
X226686923Y-87737994D01*
X226674442Y-87720815D01*
X226571228Y-87578754D01*
X226432046Y-87439572D01*
X226272805Y-87323876D01*
X226097429Y-87234517D01*
X225910226Y-87173690D01*
X225715822Y-87142900D01*
X225715817Y-87142900D01*
X224998983Y-87142900D01*
X224998978Y-87142900D01*
X224804573Y-87173690D01*
X224617370Y-87234517D01*
X224441994Y-87323876D01*
X224351141Y-87389885D01*
X224282754Y-87439572D01*
X224282752Y-87439574D01*
X224282751Y-87439574D01*
X224143574Y-87578751D01*
X224143574Y-87578752D01*
X224143572Y-87578754D01*
X224063193Y-87689386D01*
X224007863Y-87732051D01*
X223962875Y-87740500D01*
X173170202Y-87740500D01*
X173103163Y-87720815D01*
X173082521Y-87704181D01*
X169243572Y-83865231D01*
X169210087Y-83803908D01*
X169209650Y-83801815D01*
X169197137Y-83738903D01*
X169167982Y-83668515D01*
X169136797Y-83593227D01*
X169136790Y-83593214D01*
X169049189Y-83462111D01*
X169049186Y-83462107D01*
X168937692Y-83350613D01*
X168937688Y-83350610D01*
X168806585Y-83263009D01*
X168806572Y-83263002D01*
X168660901Y-83202664D01*
X168660889Y-83202661D01*
X168506245Y-83171900D01*
X168506242Y-83171900D01*
X168348558Y-83171900D01*
X168348555Y-83171900D01*
X168193910Y-83202661D01*
X168193898Y-83202664D01*
X168048227Y-83263002D01*
X168048214Y-83263009D01*
X167917111Y-83350610D01*
X167917107Y-83350613D01*
X167805613Y-83462107D01*
X167805610Y-83462111D01*
X167718009Y-83593214D01*
X167718002Y-83593227D01*
X167657664Y-83738898D01*
X167657661Y-83738910D01*
X167626900Y-83893553D01*
X163448699Y-83893553D01*
X163448699Y-83126186D01*
X221357401Y-83126186D01*
X221367894Y-83228897D01*
X221423041Y-83395319D01*
X221423043Y-83395324D01*
X221515084Y-83544545D01*
X221639054Y-83668515D01*
X221788275Y-83760556D01*
X221788280Y-83760558D01*
X221954702Y-83815705D01*
X221954709Y-83815706D01*
X222057419Y-83826199D01*
X222207399Y-83826199D01*
X222207400Y-83826198D01*
X222207400Y-82876200D01*
X221357401Y-82876200D01*
X221357401Y-83126186D01*
X163448699Y-83126186D01*
X163448699Y-82126213D01*
X221357400Y-82126213D01*
X221357400Y-82376200D01*
X222207400Y-82376200D01*
X222207400Y-81426200D01*
X222707400Y-81426200D01*
X222707400Y-83826199D01*
X222857372Y-83826199D01*
X222857386Y-83826198D01*
X222960097Y-83815705D01*
X223126519Y-83760558D01*
X223126524Y-83760556D01*
X223275742Y-83668517D01*
X223369364Y-83574895D01*
X223430687Y-83541410D01*
X223500379Y-83546394D01*
X223544727Y-83574895D01*
X223638744Y-83668912D01*
X223745596Y-83734819D01*
X223792321Y-83786766D01*
X223804500Y-83840357D01*
X223804500Y-84557705D01*
X223804500Y-84557707D01*
X223804499Y-84557707D01*
X223829181Y-84681784D01*
X223829591Y-84683844D01*
X223844572Y-84720011D01*
X223853369Y-84780066D01*
X223846900Y-84843382D01*
X223846900Y-85943415D01*
X223857400Y-86046195D01*
X223857401Y-86046196D01*
X223912586Y-86212735D01*
X223912587Y-86212737D01*
X224004686Y-86362051D01*
X224004689Y-86362055D01*
X224128744Y-86486110D01*
X224128748Y-86486113D01*
X224278062Y-86578212D01*
X224278064Y-86578213D01*
X224278066Y-86578214D01*
X224444603Y-86633399D01*
X224547392Y-86643900D01*
X224547397Y-86643900D01*
X226167403Y-86643900D01*
X226167408Y-86643900D01*
X226270197Y-86633399D01*
X226436734Y-86578214D01*
X226586055Y-86486111D01*
X226710111Y-86362055D01*
X226802214Y-86212734D01*
X226857399Y-86046197D01*
X226867900Y-85943408D01*
X226867900Y-84843392D01*
X226857399Y-84740603D01*
X226802214Y-84574066D01*
X226792122Y-84557705D01*
X226710113Y-84424748D01*
X226710110Y-84424744D01*
X226586055Y-84300689D01*
X226586051Y-84300686D01*
X226436737Y-84208587D01*
X226436735Y-84208586D01*
X226353465Y-84180993D01*
X226270197Y-84153401D01*
X226270195Y-84153400D01*
X226167415Y-84142900D01*
X226167408Y-84142900D01*
X225234300Y-84142900D01*
X225225614Y-84140349D01*
X225216653Y-84141638D01*
X225192612Y-84130659D01*
X225167261Y-84123215D01*
X225161333Y-84116374D01*
X225153097Y-84112613D01*
X225138807Y-84090378D01*
X225121506Y-84070411D01*
X225119218Y-84059896D01*
X225115323Y-84053835D01*
X225110300Y-84018900D01*
X225110300Y-83840357D01*
X225129985Y-83773318D01*
X225169202Y-83734819D01*
X225276056Y-83668912D01*
X225400112Y-83544856D01*
X225492214Y-83395534D01*
X225547399Y-83228997D01*
X225557900Y-83126209D01*
X225557899Y-82306181D01*
X226431900Y-82306181D01*
X226431900Y-82480618D01*
X226465927Y-82651683D01*
X226465929Y-82651691D01*
X226532678Y-82812839D01*
X226532683Y-82812848D01*
X226629586Y-82957873D01*
X226629589Y-82957877D01*
X226752922Y-83081210D01*
X226752926Y-83081213D01*
X226897951Y-83178116D01*
X226897957Y-83178119D01*
X226897958Y-83178120D01*
X227059109Y-83244871D01*
X227230181Y-83278899D01*
X227230185Y-83278900D01*
X227230186Y-83278900D01*
X227404615Y-83278900D01*
X227404616Y-83278899D01*
X227575691Y-83244871D01*
X227736842Y-83178120D01*
X227881874Y-83081213D01*
X228005213Y-82957874D01*
X228102120Y-82812842D01*
X228168871Y-82651691D01*
X228202900Y-82480614D01*
X228202900Y-82306186D01*
X228168871Y-82135109D01*
X228102120Y-81973958D01*
X228102119Y-81973957D01*
X228102116Y-81973951D01*
X228005213Y-81828926D01*
X228005210Y-81828922D01*
X227881877Y-81705589D01*
X227881873Y-81705586D01*
X227736848Y-81608683D01*
X227736839Y-81608678D01*
X227575691Y-81541929D01*
X227575683Y-81541927D01*
X227404618Y-81507900D01*
X227404614Y-81507900D01*
X227230186Y-81507900D01*
X227230181Y-81507900D01*
X227059116Y-81541927D01*
X227059108Y-81541929D01*
X226897960Y-81608678D01*
X226897951Y-81608683D01*
X226752926Y-81705586D01*
X226752922Y-81705589D01*
X226629589Y-81828922D01*
X226629586Y-81828926D01*
X226532683Y-81973951D01*
X226532678Y-81973960D01*
X226465929Y-82135108D01*
X226465927Y-82135116D01*
X226431900Y-82306181D01*
X225557899Y-82306181D01*
X225557899Y-82126192D01*
X225547399Y-82023403D01*
X225492214Y-81856866D01*
X225400112Y-81707544D01*
X225276056Y-81583488D01*
X225126734Y-81491386D01*
X224960197Y-81436201D01*
X224960195Y-81436200D01*
X224857410Y-81425700D01*
X224057398Y-81425700D01*
X224057380Y-81425701D01*
X223954603Y-81436200D01*
X223954600Y-81436201D01*
X223788068Y-81491385D01*
X223788063Y-81491387D01*
X223638745Y-81583487D01*
X223544727Y-81677505D01*
X223483403Y-81710989D01*
X223413712Y-81706005D01*
X223369365Y-81677504D01*
X223275745Y-81583884D01*
X223126524Y-81491843D01*
X223126519Y-81491841D01*
X222960097Y-81436694D01*
X222960090Y-81436693D01*
X222857386Y-81426200D01*
X222707400Y-81426200D01*
X222207400Y-81426200D01*
X222057427Y-81426200D01*
X222057412Y-81426201D01*
X221954702Y-81436694D01*
X221788280Y-81491841D01*
X221788275Y-81491843D01*
X221639054Y-81583884D01*
X221515084Y-81707854D01*
X221423043Y-81857075D01*
X221423041Y-81857080D01*
X221367894Y-82023502D01*
X221367893Y-82023509D01*
X221357400Y-82126213D01*
X163448699Y-82126213D01*
X163448699Y-78131326D01*
X184375178Y-78131326D01*
X184375178Y-78336029D01*
X184407200Y-78538212D01*
X184470459Y-78732901D01*
X184563393Y-78915291D01*
X184683706Y-79080891D01*
X184828464Y-79225649D01*
X184983427Y-79338234D01*
X184994068Y-79345965D01*
X185107986Y-79404009D01*
X185176454Y-79438896D01*
X185176456Y-79438896D01*
X185176459Y-79438898D01*
X185280815Y-79472805D01*
X185371143Y-79502155D01*
X185472235Y-79518166D01*
X185573326Y-79534178D01*
X185573327Y-79534178D01*
X185778029Y-79534178D01*
X185778030Y-79534178D01*
X185863877Y-79520581D01*
X226431900Y-79520581D01*
X226431900Y-79695018D01*
X226465927Y-79866083D01*
X226465929Y-79866091D01*
X226532678Y-80027239D01*
X226532683Y-80027248D01*
X226629586Y-80172273D01*
X226629589Y-80172277D01*
X226752922Y-80295610D01*
X226752926Y-80295613D01*
X226897951Y-80392516D01*
X226897957Y-80392519D01*
X226897958Y-80392520D01*
X227059109Y-80459271D01*
X227230181Y-80493299D01*
X227230185Y-80493300D01*
X227230186Y-80493300D01*
X227404615Y-80493300D01*
X227404616Y-80493299D01*
X227575691Y-80459271D01*
X227736842Y-80392520D01*
X227881874Y-80295613D01*
X228005213Y-80172274D01*
X228102120Y-80027242D01*
X228168871Y-79866091D01*
X228202900Y-79695014D01*
X228202900Y-79520586D01*
X228168871Y-79349509D01*
X228102120Y-79188358D01*
X228102119Y-79188357D01*
X228102116Y-79188351D01*
X228005213Y-79043326D01*
X228005210Y-79043322D01*
X227881877Y-78919989D01*
X227881873Y-78919986D01*
X227736848Y-78823083D01*
X227736839Y-78823078D01*
X227575691Y-78756329D01*
X227575683Y-78756327D01*
X227404618Y-78722300D01*
X227404614Y-78722300D01*
X227230186Y-78722300D01*
X227230181Y-78722300D01*
X227059116Y-78756327D01*
X227059108Y-78756329D01*
X226897960Y-78823078D01*
X226897951Y-78823083D01*
X226752926Y-78919986D01*
X226752922Y-78919989D01*
X226629589Y-79043322D01*
X226629586Y-79043326D01*
X226532683Y-79188351D01*
X226532678Y-79188360D01*
X226465929Y-79349508D01*
X226465927Y-79349516D01*
X226431900Y-79520581D01*
X185863877Y-79520581D01*
X185980212Y-79502155D01*
X186174897Y-79438898D01*
X186357288Y-79345965D01*
X186378448Y-79330591D01*
X186522891Y-79225649D01*
X186522893Y-79225646D01*
X186522897Y-79225644D01*
X186667644Y-79080897D01*
X186667646Y-79080893D01*
X186667649Y-79080891D01*
X186720410Y-79008268D01*
X186787965Y-78915288D01*
X186880898Y-78732897D01*
X186944155Y-78538212D01*
X186976178Y-78336030D01*
X186976178Y-78131326D01*
X186944155Y-77929144D01*
X186880898Y-77734459D01*
X186880896Y-77734456D01*
X186880896Y-77734454D01*
X186792640Y-77561244D01*
X186787965Y-77552068D01*
X186780234Y-77541427D01*
X186667649Y-77386464D01*
X186522891Y-77241706D01*
X186357291Y-77121393D01*
X186357290Y-77121392D01*
X186357288Y-77121391D01*
X186282030Y-77083045D01*
X186174901Y-77028459D01*
X185980212Y-76965200D01*
X185841362Y-76943209D01*
X185778030Y-76933178D01*
X185573326Y-76933178D01*
X185549007Y-76937029D01*
X185371143Y-76965200D01*
X185176454Y-77028459D01*
X184994064Y-77121393D01*
X184828464Y-77241706D01*
X184683706Y-77386464D01*
X184563393Y-77552064D01*
X184470459Y-77734454D01*
X184407200Y-77929143D01*
X184375178Y-78131326D01*
X163448699Y-78131326D01*
X163448699Y-76357800D01*
X223871416Y-76357800D01*
X224912840Y-76357800D01*
X224882155Y-76410947D01*
X224847400Y-76540657D01*
X224847400Y-76674943D01*
X224882155Y-76804653D01*
X224912840Y-76857800D01*
X223871416Y-76857800D01*
X223878181Y-76900516D01*
X223938981Y-77087637D01*
X224028304Y-77262943D01*
X224143955Y-77422121D01*
X224283078Y-77561244D01*
X224442256Y-77676895D01*
X224617564Y-77766218D01*
X224804694Y-77827021D01*
X224999018Y-77857800D01*
X225107400Y-77857800D01*
X225107400Y-77052360D01*
X225160547Y-77083045D01*
X225290257Y-77117800D01*
X225424543Y-77117800D01*
X225554253Y-77083045D01*
X225607400Y-77052360D01*
X225607400Y-77857800D01*
X225715782Y-77857800D01*
X225910105Y-77827021D01*
X226097235Y-77766218D01*
X226272543Y-77676895D01*
X226431721Y-77561244D01*
X226570844Y-77422121D01*
X226686495Y-77262943D01*
X226775818Y-77087637D01*
X226836618Y-76900516D01*
X226843384Y-76857800D01*
X225801960Y-76857800D01*
X225832645Y-76804653D01*
X225867400Y-76674943D01*
X225867400Y-76540657D01*
X225832645Y-76410947D01*
X225801960Y-76357800D01*
X226843384Y-76357800D01*
X226836618Y-76315083D01*
X226775818Y-76127962D01*
X226686495Y-75952656D01*
X226570844Y-75793478D01*
X226431721Y-75654355D01*
X226272543Y-75538704D01*
X226097235Y-75449381D01*
X225910105Y-75388578D01*
X225715782Y-75357800D01*
X225607400Y-75357800D01*
X225607400Y-76163239D01*
X225554253Y-76132555D01*
X225424543Y-76097800D01*
X225290257Y-76097800D01*
X225160547Y-76132555D01*
X225107400Y-76163239D01*
X225107400Y-75357800D01*
X224999018Y-75357800D01*
X224804694Y-75388578D01*
X224617564Y-75449381D01*
X224442256Y-75538704D01*
X224283078Y-75654355D01*
X224143955Y-75793478D01*
X224028304Y-75952656D01*
X223938981Y-76127962D01*
X223878181Y-76315083D01*
X223871416Y-76357800D01*
X163448699Y-76357800D01*
X163448699Y-54855986D01*
X176690601Y-54855986D01*
X176701094Y-54958697D01*
X176756241Y-55125119D01*
X176756243Y-55125124D01*
X176848284Y-55274345D01*
X176972254Y-55398315D01*
X177121475Y-55490356D01*
X177121480Y-55490358D01*
X177287902Y-55545505D01*
X177287909Y-55545506D01*
X177390619Y-55555999D01*
X177540599Y-55555999D01*
X177540600Y-55555998D01*
X177540600Y-54606000D01*
X176690601Y-54606000D01*
X176690601Y-54855986D01*
X163448699Y-54855986D01*
X163448699Y-51325586D01*
X165645900Y-51325586D01*
X165645900Y-51595213D01*
X165676086Y-51863119D01*
X165676088Y-51863131D01*
X165736084Y-52125994D01*
X165736087Y-52126002D01*
X165825134Y-52380482D01*
X165942114Y-52623394D01*
X165966402Y-52662048D01*
X166085562Y-52851689D01*
X166253666Y-53062485D01*
X166444315Y-53253134D01*
X166655111Y-53421238D01*
X166883403Y-53564684D01*
X166883405Y-53564685D01*
X166964375Y-53603678D01*
X167126321Y-53681667D01*
X167317449Y-53748545D01*
X167380797Y-53770712D01*
X167380805Y-53770715D01*
X167380808Y-53770715D01*
X167380809Y-53770716D01*
X167643668Y-53830712D01*
X167911587Y-53860899D01*
X167911588Y-53860900D01*
X167911591Y-53860900D01*
X168181212Y-53860900D01*
X168181212Y-53860899D01*
X168224577Y-53856013D01*
X176690600Y-53856013D01*
X176690600Y-54106000D01*
X177540600Y-54106000D01*
X177540600Y-53156000D01*
X178040600Y-53156000D01*
X178040600Y-55555999D01*
X178190572Y-55555999D01*
X178190586Y-55555998D01*
X178293297Y-55545505D01*
X178459719Y-55490358D01*
X178459724Y-55490356D01*
X178608942Y-55398317D01*
X178702564Y-55304695D01*
X178706415Y-55302592D01*
X178708777Y-55298894D01*
X178736806Y-55285997D01*
X178763887Y-55271210D01*
X178768264Y-55271523D01*
X178772250Y-55269689D01*
X178802799Y-55273992D01*
X178833579Y-55276194D01*
X178838317Y-55278996D01*
X178841437Y-55279436D01*
X178855378Y-55289086D01*
X178871182Y-55298433D01*
X178874670Y-55301438D01*
X178971944Y-55398712D01*
X179026975Y-55432655D01*
X179034436Y-55439083D01*
X179048276Y-55460485D01*
X179065321Y-55479435D01*
X179067916Y-55490855D01*
X179072377Y-55497753D01*
X179072413Y-55510644D01*
X179077500Y-55533026D01*
X179077500Y-71963753D01*
X179077499Y-71963779D01*
X179077499Y-72117512D01*
X179080969Y-72134959D01*
X179074740Y-72204551D01*
X179047033Y-72246830D01*
X178768396Y-72525468D01*
X178730775Y-72572152D01*
X178730773Y-72572154D01*
X178670988Y-72703064D01*
X178670987Y-72703068D01*
X178650507Y-72845524D01*
X178670987Y-72987979D01*
X178670988Y-72987983D01*
X178730774Y-73118894D01*
X178730775Y-73118895D01*
X178730776Y-73118897D01*
X178768395Y-73165580D01*
X178768398Y-73165583D01*
X178768403Y-73165589D01*
X179685861Y-74083045D01*
X179967468Y-74364652D01*
X180014151Y-74402272D01*
X180014152Y-74402272D01*
X180014154Y-74402274D01*
X180145064Y-74462059D01*
X180145065Y-74462059D01*
X180145067Y-74462060D01*
X180287524Y-74482541D01*
X180429981Y-74462060D01*
X180560897Y-74402272D01*
X180607580Y-74364653D01*
X181723560Y-73248672D01*
X191006900Y-73248672D01*
X191006900Y-73510927D01*
X191033523Y-73713139D01*
X191041130Y-73770916D01*
X191109002Y-74024218D01*
X191109005Y-74024228D01*
X191209353Y-74266490D01*
X191209358Y-74266500D01*
X191340475Y-74493603D01*
X191500118Y-74701651D01*
X191500126Y-74701660D01*
X191685540Y-74887074D01*
X191685548Y-74887081D01*
X191893596Y-75046724D01*
X192120699Y-75177841D01*
X192120709Y-75177846D01*
X192362971Y-75278194D01*
X192362981Y-75278198D01*
X192616284Y-75346070D01*
X192876280Y-75380300D01*
X192876287Y-75380300D01*
X193138513Y-75380300D01*
X193138520Y-75380300D01*
X193398516Y-75346070D01*
X193651819Y-75278198D01*
X193894097Y-75177843D01*
X194121203Y-75046724D01*
X194329251Y-74887082D01*
X194329255Y-74887077D01*
X194329260Y-74887074D01*
X194514674Y-74701660D01*
X194514677Y-74701655D01*
X194514682Y-74701651D01*
X194674324Y-74493603D01*
X194805443Y-74266497D01*
X194905798Y-74024219D01*
X194973670Y-73770916D01*
X195007900Y-73510920D01*
X195007900Y-73248680D01*
X195003473Y-73215058D01*
X203506900Y-73215058D01*
X203506900Y-73444541D01*
X203519555Y-73540657D01*
X203536852Y-73672038D01*
X203563346Y-73770916D01*
X203596242Y-73893687D01*
X203684050Y-74105676D01*
X203684057Y-74105690D01*
X203798792Y-74304417D01*
X203938481Y-74486461D01*
X203938489Y-74486470D01*
X204100730Y-74648711D01*
X204100738Y-74648718D01*
X204282782Y-74788407D01*
X204282785Y-74788408D01*
X204282788Y-74788411D01*
X204481512Y-74903144D01*
X204481517Y-74903146D01*
X204481523Y-74903149D01*
X204572880Y-74940990D01*
X204693513Y-74990958D01*
X204915162Y-75050348D01*
X205142666Y-75080300D01*
X205142673Y-75080300D01*
X205372127Y-75080300D01*
X205372134Y-75080300D01*
X205599638Y-75050348D01*
X205821287Y-74990958D01*
X206033288Y-74903144D01*
X206232012Y-74788411D01*
X206414061Y-74648719D01*
X206414065Y-74648714D01*
X206414070Y-74648711D01*
X206576311Y-74486470D01*
X206576314Y-74486465D01*
X206576319Y-74486461D01*
X206716011Y-74304412D01*
X206830744Y-74105688D01*
X206918558Y-73893687D01*
X206977948Y-73672038D01*
X207007900Y-73444534D01*
X207007900Y-73215066D01*
X206987197Y-73057814D01*
X223847400Y-73057814D01*
X223847400Y-73357800D01*
X224912840Y-73357800D01*
X224882155Y-73410947D01*
X224847400Y-73540657D01*
X224847400Y-73674943D01*
X224882155Y-73804653D01*
X224912840Y-73857800D01*
X223847400Y-73857800D01*
X223847400Y-74157785D01*
X223857893Y-74260489D01*
X223857894Y-74260496D01*
X223913041Y-74426918D01*
X223913043Y-74426923D01*
X224005084Y-74576144D01*
X224129055Y-74700115D01*
X224278276Y-74792156D01*
X224278281Y-74792158D01*
X224444703Y-74847305D01*
X224444710Y-74847306D01*
X224547414Y-74857799D01*
X224547427Y-74857800D01*
X225107400Y-74857800D01*
X225107400Y-74052360D01*
X225160547Y-74083045D01*
X225290257Y-74117800D01*
X225424543Y-74117800D01*
X225554253Y-74083045D01*
X225607400Y-74052360D01*
X225607400Y-74857800D01*
X226167373Y-74857800D01*
X226167385Y-74857799D01*
X226270089Y-74847306D01*
X226270096Y-74847305D01*
X226436518Y-74792158D01*
X226436523Y-74792156D01*
X226585744Y-74700115D01*
X226709715Y-74576144D01*
X226801756Y-74426923D01*
X226801758Y-74426918D01*
X226856905Y-74260496D01*
X226856906Y-74260489D01*
X226867399Y-74157785D01*
X226867400Y-74157772D01*
X226867400Y-73857800D01*
X225801960Y-73857800D01*
X225832645Y-73804653D01*
X225867400Y-73674943D01*
X225867400Y-73540657D01*
X225832645Y-73410947D01*
X225801960Y-73357800D01*
X226867400Y-73357800D01*
X226867400Y-73057827D01*
X226867399Y-73057814D01*
X226856906Y-72955110D01*
X226856905Y-72955103D01*
X226801758Y-72788681D01*
X226801756Y-72788676D01*
X226709715Y-72639455D01*
X226585744Y-72515484D01*
X226436523Y-72423443D01*
X226436518Y-72423441D01*
X226270096Y-72368294D01*
X226270089Y-72368293D01*
X226167385Y-72357800D01*
X225607400Y-72357800D01*
X225607400Y-73163239D01*
X225554253Y-73132555D01*
X225424543Y-73097800D01*
X225290257Y-73097800D01*
X225160547Y-73132555D01*
X225107400Y-73163239D01*
X225107400Y-72357800D01*
X224547414Y-72357800D01*
X224444710Y-72368293D01*
X224444703Y-72368294D01*
X224278281Y-72423441D01*
X224278276Y-72423443D01*
X224129055Y-72515484D01*
X224005084Y-72639455D01*
X223913043Y-72788676D01*
X223913041Y-72788681D01*
X223857894Y-72955103D01*
X223857893Y-72955110D01*
X223847400Y-73057814D01*
X206987197Y-73057814D01*
X206977948Y-72987562D01*
X206918558Y-72765913D01*
X206838300Y-72572153D01*
X206830749Y-72553923D01*
X206830746Y-72553917D01*
X206830744Y-72553912D01*
X206716011Y-72355188D01*
X206716008Y-72355185D01*
X206716007Y-72355182D01*
X206576318Y-72173138D01*
X206576311Y-72173130D01*
X206414070Y-72010889D01*
X206414061Y-72010881D01*
X206232017Y-71871192D01*
X206033290Y-71756457D01*
X206033276Y-71756450D01*
X205821287Y-71668642D01*
X205599638Y-71609252D01*
X205561615Y-71604246D01*
X205372141Y-71579300D01*
X205372134Y-71579300D01*
X205142666Y-71579300D01*
X205142658Y-71579300D01*
X204926115Y-71607809D01*
X204915162Y-71609252D01*
X204821476Y-71634354D01*
X204693512Y-71668642D01*
X204481523Y-71756450D01*
X204481509Y-71756457D01*
X204282782Y-71871192D01*
X204100738Y-72010881D01*
X203938481Y-72173138D01*
X203798792Y-72355182D01*
X203684057Y-72553909D01*
X203684050Y-72553923D01*
X203596242Y-72765912D01*
X203561954Y-72893876D01*
X203545548Y-72955110D01*
X203536853Y-72987559D01*
X203536851Y-72987570D01*
X203506900Y-73215058D01*
X195003473Y-73215058D01*
X194973670Y-72988684D01*
X194905798Y-72735381D01*
X194905794Y-72735371D01*
X194805446Y-72493109D01*
X194805441Y-72493099D01*
X194674324Y-72265996D01*
X194514681Y-72057948D01*
X194514674Y-72057940D01*
X194329260Y-71872526D01*
X194329251Y-71872518D01*
X194121203Y-71712875D01*
X193894100Y-71581758D01*
X193894090Y-71581753D01*
X193651828Y-71481405D01*
X193651821Y-71481403D01*
X193651819Y-71481402D01*
X193398516Y-71413530D01*
X193340739Y-71405923D01*
X193138527Y-71379300D01*
X193138520Y-71379300D01*
X192876280Y-71379300D01*
X192876272Y-71379300D01*
X192645172Y-71409726D01*
X192616284Y-71413530D01*
X192445572Y-71459272D01*
X192362981Y-71481402D01*
X192362971Y-71481405D01*
X192120709Y-71581753D01*
X192120699Y-71581758D01*
X191893596Y-71712875D01*
X191685548Y-71872518D01*
X191500118Y-72057948D01*
X191340475Y-72265996D01*
X191209358Y-72493099D01*
X191209353Y-72493109D01*
X191109005Y-72735371D01*
X191109002Y-72735381D01*
X191041319Y-72987981D01*
X191041130Y-72988685D01*
X191006900Y-73248672D01*
X181723560Y-73248672D01*
X181806652Y-73165580D01*
X181844272Y-73118897D01*
X181904060Y-72987981D01*
X181924541Y-72845524D01*
X181904060Y-72703067D01*
X181844272Y-72572151D01*
X181806653Y-72525468D01*
X181806648Y-72525463D01*
X181806644Y-72525458D01*
X180622819Y-71341634D01*
X180589334Y-71280311D01*
X180586500Y-71253953D01*
X180586500Y-70941449D01*
X212821500Y-70941449D01*
X212821500Y-71146152D01*
X212853522Y-71348335D01*
X212916781Y-71543024D01*
X213009715Y-71725414D01*
X213130028Y-71891014D01*
X213274786Y-72035772D01*
X213411308Y-72134959D01*
X213440390Y-72156088D01*
X213535504Y-72204551D01*
X213622776Y-72249019D01*
X213622778Y-72249019D01*
X213622781Y-72249021D01*
X213675025Y-72265996D01*
X213817465Y-72312278D01*
X213918557Y-72328289D01*
X214019648Y-72344301D01*
X214019649Y-72344301D01*
X214224351Y-72344301D01*
X214224352Y-72344301D01*
X214426534Y-72312278D01*
X214621219Y-72249021D01*
X214803610Y-72156088D01*
X214938688Y-72057949D01*
X214969213Y-72035772D01*
X214969215Y-72035769D01*
X214969219Y-72035767D01*
X215113966Y-71891020D01*
X215113968Y-71891016D01*
X215113971Y-71891014D01*
X215166732Y-71818391D01*
X215234287Y-71725411D01*
X215327220Y-71543020D01*
X215390477Y-71348335D01*
X215422500Y-71146153D01*
X215422500Y-70941449D01*
X215390477Y-70739267D01*
X215327220Y-70544582D01*
X215327220Y-70544581D01*
X215314991Y-70520581D01*
X226431900Y-70520581D01*
X226431900Y-70695018D01*
X226465927Y-70866083D01*
X226465929Y-70866091D01*
X226532678Y-71027239D01*
X226532683Y-71027248D01*
X226629586Y-71172273D01*
X226629589Y-71172277D01*
X226752922Y-71295610D01*
X226752926Y-71295613D01*
X226897951Y-71392516D01*
X226897957Y-71392519D01*
X226897958Y-71392520D01*
X227059109Y-71459271D01*
X227230181Y-71493299D01*
X227230185Y-71493300D01*
X227230186Y-71493300D01*
X227404615Y-71493300D01*
X227404616Y-71493299D01*
X227575691Y-71459271D01*
X227736842Y-71392520D01*
X227881874Y-71295613D01*
X228005213Y-71172274D01*
X228102120Y-71027242D01*
X228168871Y-70866091D01*
X228202900Y-70695014D01*
X228202900Y-70520586D01*
X228168871Y-70349509D01*
X228105529Y-70196587D01*
X228102121Y-70188360D01*
X228102116Y-70188351D01*
X228005213Y-70043326D01*
X228005210Y-70043322D01*
X227881877Y-69919989D01*
X227881873Y-69919986D01*
X227736848Y-69823083D01*
X227736839Y-69823078D01*
X227575691Y-69756329D01*
X227575683Y-69756327D01*
X227404618Y-69722300D01*
X227404614Y-69722300D01*
X227230186Y-69722300D01*
X227230181Y-69722300D01*
X227059116Y-69756327D01*
X227059108Y-69756329D01*
X226897960Y-69823078D01*
X226897951Y-69823083D01*
X226752926Y-69919986D01*
X226752922Y-69919989D01*
X226629589Y-70043322D01*
X226629586Y-70043326D01*
X226532683Y-70188351D01*
X226532678Y-70188360D01*
X226465929Y-70349508D01*
X226465927Y-70349516D01*
X226431900Y-70520581D01*
X215314991Y-70520581D01*
X215295037Y-70481421D01*
X215234287Y-70362191D01*
X215225072Y-70349508D01*
X215113971Y-70196587D01*
X214969213Y-70051829D01*
X214803613Y-69931516D01*
X214803612Y-69931515D01*
X214803610Y-69931514D01*
X214746653Y-69902492D01*
X214621223Y-69838582D01*
X214426534Y-69775323D01*
X214251995Y-69747679D01*
X214224352Y-69743301D01*
X214019648Y-69743301D01*
X213995329Y-69747152D01*
X213817465Y-69775323D01*
X213622776Y-69838582D01*
X213440386Y-69931516D01*
X213274786Y-70051829D01*
X213130028Y-70196587D01*
X213009715Y-70362187D01*
X212916781Y-70544577D01*
X212853522Y-70739266D01*
X212821500Y-70941449D01*
X180586500Y-70941449D01*
X180586500Y-67248672D01*
X205206900Y-67248672D01*
X205206900Y-67510927D01*
X205225915Y-67655351D01*
X205241130Y-67770916D01*
X205309002Y-68024218D01*
X205309005Y-68024228D01*
X205409353Y-68266490D01*
X205409358Y-68266500D01*
X205540475Y-68493603D01*
X205700118Y-68701651D01*
X205700126Y-68701660D01*
X205885540Y-68887074D01*
X205885548Y-68887081D01*
X206093596Y-69046724D01*
X206320699Y-69177841D01*
X206320709Y-69177846D01*
X206562971Y-69278194D01*
X206562981Y-69278198D01*
X206816284Y-69346070D01*
X207076280Y-69380300D01*
X207076287Y-69380300D01*
X207338513Y-69380300D01*
X207338520Y-69380300D01*
X207598516Y-69346070D01*
X207851819Y-69278198D01*
X208094097Y-69177843D01*
X208321203Y-69046724D01*
X208529251Y-68887082D01*
X208529255Y-68887077D01*
X208529260Y-68887074D01*
X208714674Y-68701660D01*
X208714677Y-68701655D01*
X208714682Y-68701651D01*
X208874324Y-68493603D01*
X209005443Y-68266497D01*
X209105798Y-68024219D01*
X209115615Y-67987581D01*
X226397900Y-67987581D01*
X226397900Y-68162018D01*
X226431927Y-68333083D01*
X226431929Y-68333091D01*
X226498678Y-68494239D01*
X226498683Y-68494248D01*
X226595586Y-68639273D01*
X226595589Y-68639277D01*
X226718922Y-68762610D01*
X226718926Y-68762613D01*
X226863951Y-68859516D01*
X226863957Y-68859519D01*
X226863958Y-68859520D01*
X227025109Y-68926271D01*
X227196181Y-68960299D01*
X227196185Y-68960300D01*
X227196186Y-68960300D01*
X227370615Y-68960300D01*
X227370616Y-68960299D01*
X227541691Y-68926271D01*
X227702842Y-68859520D01*
X227847874Y-68762613D01*
X227971213Y-68639274D01*
X228068120Y-68494242D01*
X228134871Y-68333091D01*
X228168900Y-68162014D01*
X228168900Y-67987586D01*
X228134871Y-67816509D01*
X228068120Y-67655358D01*
X228068119Y-67655357D01*
X228068116Y-67655351D01*
X227971213Y-67510326D01*
X227971210Y-67510322D01*
X227847877Y-67386989D01*
X227847873Y-67386986D01*
X227702848Y-67290083D01*
X227702839Y-67290078D01*
X227541691Y-67223329D01*
X227541683Y-67223327D01*
X227370618Y-67189300D01*
X227370614Y-67189300D01*
X227196186Y-67189300D01*
X227196181Y-67189300D01*
X227025116Y-67223327D01*
X227025108Y-67223329D01*
X226863960Y-67290078D01*
X226863951Y-67290083D01*
X226718926Y-67386986D01*
X226718922Y-67386989D01*
X226595589Y-67510322D01*
X226595586Y-67510326D01*
X226498683Y-67655351D01*
X226498678Y-67655360D01*
X226431929Y-67816508D01*
X226431927Y-67816516D01*
X226397900Y-67987581D01*
X209115615Y-67987581D01*
X209173670Y-67770916D01*
X209207900Y-67510920D01*
X209207900Y-67248680D01*
X209173670Y-66988684D01*
X209105798Y-66735381D01*
X209105794Y-66735371D01*
X209005446Y-66493109D01*
X209005441Y-66493099D01*
X208874324Y-66265996D01*
X208714681Y-66057948D01*
X208714674Y-66057940D01*
X208529260Y-65872526D01*
X208529251Y-65872518D01*
X208321203Y-65712875D01*
X208094100Y-65581758D01*
X208094090Y-65581753D01*
X207851828Y-65481405D01*
X207851821Y-65481403D01*
X207851819Y-65481402D01*
X207598516Y-65413530D01*
X207540739Y-65405923D01*
X207338527Y-65379300D01*
X207338520Y-65379300D01*
X207076280Y-65379300D01*
X207076272Y-65379300D01*
X206845172Y-65409726D01*
X206816284Y-65413530D01*
X206562981Y-65481402D01*
X206562971Y-65481405D01*
X206320709Y-65581753D01*
X206320699Y-65581758D01*
X206093596Y-65712875D01*
X205885548Y-65872518D01*
X205700118Y-66057948D01*
X205540475Y-66265996D01*
X205409358Y-66493099D01*
X205409353Y-66493109D01*
X205309005Y-66735371D01*
X205309002Y-66735381D01*
X205241130Y-66988685D01*
X205206900Y-67248672D01*
X180586500Y-67248672D01*
X180586500Y-61198672D01*
X191056900Y-61198672D01*
X191056900Y-61460927D01*
X191067099Y-61538390D01*
X191091130Y-61720916D01*
X191105408Y-61774201D01*
X191159002Y-61974218D01*
X191159005Y-61974228D01*
X191259353Y-62216490D01*
X191259358Y-62216500D01*
X191390475Y-62443603D01*
X191550118Y-62651651D01*
X191550126Y-62651660D01*
X191735540Y-62837074D01*
X191735548Y-62837081D01*
X191943596Y-62996724D01*
X192170699Y-63127841D01*
X192170709Y-63127846D01*
X192412971Y-63228194D01*
X192412981Y-63228198D01*
X192666284Y-63296070D01*
X192926280Y-63330300D01*
X192926287Y-63330300D01*
X193188513Y-63330300D01*
X193188520Y-63330300D01*
X193448516Y-63296070D01*
X193701819Y-63228198D01*
X193944097Y-63127843D01*
X194171203Y-62996724D01*
X194379251Y-62837082D01*
X194379255Y-62837077D01*
X194379260Y-62837074D01*
X194564674Y-62651660D01*
X194564677Y-62651655D01*
X194564682Y-62651651D01*
X194724324Y-62443603D01*
X194855443Y-62216497D01*
X194955798Y-61974219D01*
X195023670Y-61720916D01*
X195057900Y-61460920D01*
X195057900Y-61198680D01*
X195023670Y-60938684D01*
X194955798Y-60685381D01*
X194955794Y-60685371D01*
X194855446Y-60443109D01*
X194855441Y-60443099D01*
X194724324Y-60215996D01*
X194564681Y-60007948D01*
X194564674Y-60007940D01*
X194379260Y-59822526D01*
X194379251Y-59822518D01*
X194171203Y-59662875D01*
X193944100Y-59531758D01*
X193944090Y-59531753D01*
X193701828Y-59431405D01*
X193701821Y-59431403D01*
X193701819Y-59431402D01*
X193448516Y-59363530D01*
X193390739Y-59355923D01*
X193188527Y-59329300D01*
X193188520Y-59329300D01*
X192926280Y-59329300D01*
X192926272Y-59329300D01*
X192695172Y-59359726D01*
X192666284Y-59363530D01*
X192412981Y-59431402D01*
X192412971Y-59431405D01*
X192170709Y-59531753D01*
X192170699Y-59531758D01*
X191943596Y-59662875D01*
X191735548Y-59822518D01*
X191550118Y-60007948D01*
X191390475Y-60215996D01*
X191259358Y-60443099D01*
X191259353Y-60443109D01*
X191159005Y-60685371D01*
X191159002Y-60685381D01*
X191118966Y-60834800D01*
X191091130Y-60938685D01*
X191056900Y-61198672D01*
X180586500Y-61198672D01*
X180586500Y-55472830D01*
X180606185Y-55405791D01*
X180622819Y-55385149D01*
X180733312Y-55274656D01*
X180825414Y-55125334D01*
X180880599Y-54958797D01*
X180891100Y-54856009D01*
X180891099Y-53855992D01*
X180880599Y-53753203D01*
X180825414Y-53586666D01*
X180733312Y-53437344D01*
X180622819Y-53326851D01*
X180608115Y-53299923D01*
X180591523Y-53274105D01*
X180590631Y-53267904D01*
X180589334Y-53265528D01*
X180586500Y-53239170D01*
X180586500Y-52989280D01*
X180606185Y-52922241D01*
X180645403Y-52883742D01*
X180697371Y-52851687D01*
X180773855Y-52804511D01*
X180897911Y-52680455D01*
X180990014Y-52531134D01*
X181045199Y-52364597D01*
X181055700Y-52261808D01*
X181055700Y-51093377D01*
X181554700Y-51093377D01*
X181554700Y-51810222D01*
X181585490Y-52004626D01*
X181646317Y-52191829D01*
X181699301Y-52295815D01*
X181735676Y-52367205D01*
X181851372Y-52526446D01*
X181990554Y-52665628D01*
X182149795Y-52781324D01*
X182216522Y-52815323D01*
X182325170Y-52870682D01*
X182325172Y-52870682D01*
X182325175Y-52870684D01*
X182404979Y-52896614D01*
X182512373Y-52931509D01*
X182706778Y-52962300D01*
X182706783Y-52962300D01*
X182903620Y-52962300D01*
X182928699Y-52958327D01*
X182984045Y-52949561D01*
X183053336Y-52958515D01*
X183091123Y-52984353D01*
X185786694Y-55679923D01*
X185909477Y-55802706D01*
X186053853Y-55899175D01*
X186100838Y-55918636D01*
X186100839Y-55918637D01*
X186100840Y-55918637D01*
X186214276Y-55965625D01*
X186384574Y-55999499D01*
X186384578Y-55999500D01*
X186384579Y-55999500D01*
X186384580Y-55999500D01*
X198629108Y-55999500D01*
X198696147Y-56019185D01*
X198716789Y-56035819D01*
X203514056Y-60833085D01*
X203547541Y-60894408D01*
X203546150Y-60952859D01*
X203536854Y-60987551D01*
X203536852Y-60987563D01*
X203506900Y-61215058D01*
X203506900Y-61444541D01*
X203531846Y-61634015D01*
X203536852Y-61672038D01*
X203536853Y-61672040D01*
X203596242Y-61893687D01*
X203684050Y-62105676D01*
X203684057Y-62105690D01*
X203798792Y-62304417D01*
X203938481Y-62486461D01*
X203938489Y-62486470D01*
X204100730Y-62648711D01*
X204100738Y-62648718D01*
X204282782Y-62788407D01*
X204282785Y-62788408D01*
X204282788Y-62788411D01*
X204481512Y-62903144D01*
X204481517Y-62903146D01*
X204481523Y-62903149D01*
X204572880Y-62940990D01*
X204693513Y-62990958D01*
X204915162Y-63050348D01*
X205142666Y-63080300D01*
X205142673Y-63080300D01*
X205372127Y-63080300D01*
X205372134Y-63080300D01*
X205599638Y-63050348D01*
X205685604Y-63027313D01*
X205755453Y-63028976D01*
X205805378Y-63059407D01*
X206731695Y-63985724D01*
X206854475Y-64108504D01*
X206854479Y-64108508D01*
X206998849Y-64204973D01*
X206998850Y-64204973D01*
X206998854Y-64204976D01*
X207039505Y-64221814D01*
X207159277Y-64271426D01*
X207329576Y-64305300D01*
X207329580Y-64305301D01*
X207329581Y-64305301D01*
X207503222Y-64305301D01*
X212732122Y-64305301D01*
X212799161Y-64324986D01*
X212844916Y-64377790D01*
X212848304Y-64385968D01*
X212878202Y-64466129D01*
X212878206Y-64466136D01*
X212964452Y-64581345D01*
X212964455Y-64581348D01*
X213079664Y-64667594D01*
X213079671Y-64667598D01*
X213214517Y-64717892D01*
X213214516Y-64717892D01*
X213221444Y-64718636D01*
X213274127Y-64724301D01*
X214969872Y-64724300D01*
X215029483Y-64717892D01*
X215164331Y-64667597D01*
X215279546Y-64581347D01*
X215365796Y-64466132D01*
X215395695Y-64385969D01*
X215437565Y-64330035D01*
X215503030Y-64305617D01*
X215511877Y-64305301D01*
X217383822Y-64305301D01*
X217498392Y-64282510D01*
X217554123Y-64271425D01*
X217634334Y-64238200D01*
X217714542Y-64204978D01*
X217714543Y-64204977D01*
X217714546Y-64204976D01*
X217858923Y-64108507D01*
X218974810Y-62992618D01*
X219036133Y-62959134D01*
X219062491Y-62956300D01*
X223847725Y-62956300D01*
X223914764Y-62975985D01*
X223953262Y-63015202D01*
X223961758Y-63028976D01*
X223970688Y-63043454D01*
X224094744Y-63167510D01*
X224094748Y-63167513D01*
X224244062Y-63259612D01*
X224244063Y-63259612D01*
X224244066Y-63259614D01*
X224339768Y-63291326D01*
X224356904Y-63297005D01*
X224414349Y-63336778D01*
X224441172Y-63401294D01*
X224441900Y-63414711D01*
X224441900Y-63917462D01*
X224422215Y-63984501D01*
X224390788Y-64017777D01*
X224273285Y-64103148D01*
X224248751Y-64120974D01*
X224109574Y-64260151D01*
X224109574Y-64260152D01*
X224109572Y-64260154D01*
X224076771Y-64305301D01*
X223993876Y-64419394D01*
X223904517Y-64594770D01*
X223843690Y-64781973D01*
X223812900Y-64976377D01*
X223812900Y-65173222D01*
X223843690Y-65367626D01*
X223904517Y-65554829D01*
X223985046Y-65712875D01*
X223993876Y-65730205D01*
X224109572Y-65889446D01*
X224248754Y-66028628D01*
X224407995Y-66144324D01*
X224490855Y-66186543D01*
X224583370Y-66233682D01*
X224583372Y-66233682D01*
X224583375Y-66233684D01*
X224682821Y-66265996D01*
X224770573Y-66294509D01*
X224964978Y-66325300D01*
X224964983Y-66325300D01*
X225681822Y-66325300D01*
X225876226Y-66294509D01*
X226063425Y-66233684D01*
X226238805Y-66144324D01*
X226398046Y-66028628D01*
X226537228Y-65889446D01*
X226652924Y-65730205D01*
X226742284Y-65554825D01*
X226803109Y-65367626D01*
X226833900Y-65173222D01*
X226833900Y-64976377D01*
X226803109Y-64781973D01*
X226742282Y-64594770D01*
X226695143Y-64502255D01*
X226652924Y-64419395D01*
X226537228Y-64260154D01*
X226398046Y-64120972D01*
X226256012Y-64017778D01*
X226213349Y-63962450D01*
X226204900Y-63917462D01*
X226204900Y-63414711D01*
X226224585Y-63347672D01*
X226277389Y-63301917D01*
X226289896Y-63297005D01*
X226301960Y-63293007D01*
X226402734Y-63259614D01*
X226552055Y-63167511D01*
X226676111Y-63043455D01*
X226768214Y-62894134D01*
X226823399Y-62727597D01*
X226833900Y-62624808D01*
X226833900Y-61524792D01*
X226823399Y-61422003D01*
X226768214Y-61255466D01*
X226750764Y-61227176D01*
X226676113Y-61106148D01*
X226676110Y-61106144D01*
X226552055Y-60982089D01*
X226552051Y-60982086D01*
X226402737Y-60889987D01*
X226402735Y-60889986D01*
X226319465Y-60862393D01*
X226236197Y-60834801D01*
X226236195Y-60834800D01*
X226133415Y-60824300D01*
X226133408Y-60824300D01*
X224513392Y-60824300D01*
X224513384Y-60824300D01*
X224410604Y-60834800D01*
X224410603Y-60834801D01*
X224244064Y-60889986D01*
X224244062Y-60889987D01*
X224094748Y-60982086D01*
X224094744Y-60982089D01*
X223970688Y-61106145D01*
X223953264Y-61134396D01*
X223901317Y-61181121D01*
X223847725Y-61193300D01*
X218553577Y-61193300D01*
X218383281Y-61227174D01*
X218383271Y-61227177D01*
X218222856Y-61293622D01*
X218078475Y-61390094D01*
X217955693Y-61512877D01*
X217955689Y-61512882D01*
X217951194Y-61519609D01*
X217935779Y-61538390D01*
X216968188Y-62505982D01*
X216906865Y-62539467D01*
X216880507Y-62542301D01*
X215511878Y-62542301D01*
X215444839Y-62522616D01*
X215399084Y-62469812D01*
X215395696Y-62461634D01*
X215365797Y-62381472D01*
X215365793Y-62381465D01*
X215279547Y-62266256D01*
X215279544Y-62266253D01*
X215164335Y-62180007D01*
X215164328Y-62180003D01*
X215029482Y-62129709D01*
X215029483Y-62129709D01*
X214969883Y-62123302D01*
X214969881Y-62123301D01*
X214969873Y-62123301D01*
X214969864Y-62123301D01*
X213274129Y-62123301D01*
X213274123Y-62123302D01*
X213214516Y-62129709D01*
X213079671Y-62180003D01*
X213079664Y-62180007D01*
X212964455Y-62266253D01*
X212964452Y-62266256D01*
X212878206Y-62381465D01*
X212878201Y-62381474D01*
X212848305Y-62461633D01*
X212806435Y-62517567D01*
X212740970Y-62541985D01*
X212732123Y-62542301D01*
X207832892Y-62542301D01*
X207765853Y-62522616D01*
X207745211Y-62505982D01*
X207013430Y-61774201D01*
X206979945Y-61712878D01*
X206978172Y-61670334D01*
X206997334Y-61524792D01*
X207007900Y-61444534D01*
X207007900Y-61215066D01*
X206977948Y-60987562D01*
X206918558Y-60765913D01*
X206830744Y-60553912D01*
X206716011Y-60355188D01*
X206716008Y-60355185D01*
X206716007Y-60355182D01*
X206576318Y-60173138D01*
X206576311Y-60173130D01*
X206414070Y-60010889D01*
X206414061Y-60010881D01*
X206232017Y-59871192D01*
X206211800Y-59859520D01*
X206147711Y-59822518D01*
X206033290Y-59756457D01*
X206033276Y-59756450D01*
X205821287Y-59668642D01*
X205799764Y-59662875D01*
X205599638Y-59609252D01*
X205561615Y-59604246D01*
X205372141Y-59579300D01*
X205372134Y-59579300D01*
X205142666Y-59579300D01*
X205142658Y-59579300D01*
X204940440Y-59605924D01*
X204915162Y-59609252D01*
X204915160Y-59609252D01*
X204915151Y-59609254D01*
X204880459Y-59618550D01*
X204810609Y-59616887D01*
X204760685Y-59586456D01*
X204243404Y-59069175D01*
X204161810Y-58987581D01*
X226397900Y-58987581D01*
X226397900Y-59162018D01*
X226431927Y-59333083D01*
X226431929Y-59333091D01*
X226498678Y-59494239D01*
X226498683Y-59494248D01*
X226595586Y-59639273D01*
X226595589Y-59639277D01*
X226718922Y-59762610D01*
X226718926Y-59762613D01*
X226863951Y-59859516D01*
X226863957Y-59859519D01*
X226863958Y-59859520D01*
X227025109Y-59926271D01*
X227196181Y-59960299D01*
X227196185Y-59960300D01*
X227196186Y-59960300D01*
X227370615Y-59960300D01*
X227370616Y-59960299D01*
X227541691Y-59926271D01*
X227702842Y-59859520D01*
X227847874Y-59762613D01*
X227971213Y-59639274D01*
X228068120Y-59494242D01*
X228134871Y-59333091D01*
X228168900Y-59162014D01*
X228168900Y-58987586D01*
X228134871Y-58816509D01*
X228068120Y-58655358D01*
X228068119Y-58655357D01*
X228068116Y-58655351D01*
X227971213Y-58510326D01*
X227971210Y-58510322D01*
X227847877Y-58386989D01*
X227847873Y-58386986D01*
X227702848Y-58290083D01*
X227702839Y-58290078D01*
X227541691Y-58223329D01*
X227541683Y-58223327D01*
X227370618Y-58189300D01*
X227370614Y-58189300D01*
X227196186Y-58189300D01*
X227196181Y-58189300D01*
X227025116Y-58223327D01*
X227025108Y-58223329D01*
X226863960Y-58290078D01*
X226863951Y-58290083D01*
X226718926Y-58386986D01*
X226718922Y-58386989D01*
X226595589Y-58510322D01*
X226595586Y-58510326D01*
X226498683Y-58655351D01*
X226498678Y-58655360D01*
X226431929Y-58816508D01*
X226431927Y-58816516D01*
X226397900Y-58987581D01*
X204161810Y-58987581D01*
X199607527Y-54433296D01*
X199607526Y-54433295D01*
X199463143Y-54336822D01*
X199302728Y-54270377D01*
X199302718Y-54270374D01*
X199132423Y-54236500D01*
X199132421Y-54236500D01*
X199132420Y-54236500D01*
X186887891Y-54236500D01*
X186820852Y-54216815D01*
X186800210Y-54200181D01*
X184092019Y-51491989D01*
X184058534Y-51430666D01*
X184055700Y-51404308D01*
X184055700Y-51093377D01*
X184024909Y-50898973D01*
X183964083Y-50711772D01*
X183945746Y-50675784D01*
X193285300Y-50675784D01*
X193285300Y-52295815D01*
X193295800Y-52398595D01*
X193295801Y-52398597D01*
X193302368Y-52418414D01*
X193350986Y-52565135D01*
X193350987Y-52565137D01*
X193443086Y-52714451D01*
X193443089Y-52714455D01*
X193567144Y-52838510D01*
X193567148Y-52838513D01*
X193716462Y-52930612D01*
X193716464Y-52930613D01*
X193716466Y-52930614D01*
X193883003Y-52985799D01*
X193985792Y-52996300D01*
X193985797Y-52996300D01*
X195085803Y-52996300D01*
X195085808Y-52996300D01*
X195188597Y-52985799D01*
X195355134Y-52930614D01*
X195504455Y-52838511D01*
X195628511Y-52714455D01*
X195720614Y-52565134D01*
X195775799Y-52398597D01*
X195786300Y-52295808D01*
X195786300Y-51127377D01*
X196285300Y-51127377D01*
X196285300Y-51844222D01*
X196316090Y-52038626D01*
X196376917Y-52225829D01*
X196455716Y-52380479D01*
X196466276Y-52401205D01*
X196581972Y-52560446D01*
X196721154Y-52699628D01*
X196880395Y-52815324D01*
X196951762Y-52851687D01*
X197055770Y-52904682D01*
X197055772Y-52904682D01*
X197055775Y-52904684D01*
X197156117Y-52937287D01*
X197242973Y-52965509D01*
X197437378Y-52996300D01*
X197437383Y-52996300D01*
X197634222Y-52996300D01*
X197828626Y-52965509D01*
X197850151Y-52958515D01*
X198015825Y-52904684D01*
X198191205Y-52815324D01*
X198350446Y-52699628D01*
X198489628Y-52560446D01*
X198592821Y-52418414D01*
X198648152Y-52375749D01*
X198693139Y-52367300D01*
X201712023Y-52367300D01*
X201826593Y-52344509D01*
X201882324Y-52333424D01*
X201973152Y-52295802D01*
X202042743Y-52266977D01*
X202042744Y-52266976D01*
X202042747Y-52266975D01*
X202187124Y-52170506D01*
X203580246Y-50777384D01*
X208499900Y-50777384D01*
X208499900Y-52397415D01*
X208510400Y-52500195D01*
X208510401Y-52500197D01*
X208519100Y-52526448D01*
X208565586Y-52666735D01*
X208565587Y-52666737D01*
X208657686Y-52816051D01*
X208657689Y-52816055D01*
X208781744Y-52940110D01*
X208781748Y-52940113D01*
X208931062Y-53032212D01*
X208931064Y-53032213D01*
X208931066Y-53032214D01*
X209097603Y-53087399D01*
X209200392Y-53097900D01*
X209200397Y-53097900D01*
X210300403Y-53097900D01*
X210300408Y-53097900D01*
X210403197Y-53087399D01*
X210569734Y-53032214D01*
X210719055Y-52940111D01*
X210843111Y-52816055D01*
X210935214Y-52666734D01*
X210990399Y-52500197D01*
X211000900Y-52397408D01*
X211000900Y-50777392D01*
X210990399Y-50674603D01*
X210935214Y-50508066D01*
X210917206Y-50478871D01*
X210843113Y-50358748D01*
X210843110Y-50358744D01*
X210719055Y-50234689D01*
X210719051Y-50234686D01*
X210569737Y-50142587D01*
X210569735Y-50142586D01*
X210486465Y-50114993D01*
X210403197Y-50087401D01*
X210403195Y-50087400D01*
X210300415Y-50076900D01*
X210300408Y-50076900D01*
X209200392Y-50076900D01*
X209200384Y-50076900D01*
X209097604Y-50087400D01*
X209097603Y-50087401D01*
X208931064Y-50142586D01*
X208931062Y-50142587D01*
X208781748Y-50234686D01*
X208781744Y-50234689D01*
X208657689Y-50358744D01*
X208657686Y-50358748D01*
X208565587Y-50508062D01*
X208565586Y-50508064D01*
X208510401Y-50674603D01*
X208510400Y-50674604D01*
X208499900Y-50777384D01*
X203580246Y-50777384D01*
X203784626Y-50573004D01*
X205332210Y-49025419D01*
X205393533Y-48991934D01*
X205419891Y-48989100D01*
X205879928Y-48989100D01*
X205946967Y-49008785D01*
X205992722Y-49061589D01*
X206002666Y-49130747D01*
X205983030Y-49181991D01*
X205965683Y-49207951D01*
X205965678Y-49207960D01*
X205898929Y-49369108D01*
X205898927Y-49369116D01*
X205864900Y-49540181D01*
X205864900Y-49714618D01*
X205898927Y-49885683D01*
X205898929Y-49885691D01*
X205965678Y-50046839D01*
X205965683Y-50046848D01*
X206062586Y-50191873D01*
X206062589Y-50191877D01*
X206185922Y-50315210D01*
X206185926Y-50315213D01*
X206330951Y-50412116D01*
X206330960Y-50412121D01*
X206367466Y-50427242D01*
X206492109Y-50478871D01*
X206638874Y-50508064D01*
X206663181Y-50512899D01*
X206663185Y-50512900D01*
X206663186Y-50512900D01*
X206837615Y-50512900D01*
X206837616Y-50512899D01*
X207008691Y-50478871D01*
X207169842Y-50412120D01*
X207314874Y-50315213D01*
X207438213Y-50191874D01*
X207535120Y-50046842D01*
X207601871Y-49885691D01*
X207635900Y-49714614D01*
X207635900Y-49540186D01*
X207601871Y-49369109D01*
X207548033Y-49239133D01*
X207535121Y-49207960D01*
X207535116Y-49207951D01*
X207517770Y-49181991D01*
X207496892Y-49115313D01*
X207515376Y-49047933D01*
X207567355Y-49001243D01*
X207620872Y-48989100D01*
X210886108Y-48989100D01*
X210953147Y-49008785D01*
X210973789Y-49025419D01*
X211832581Y-49884210D01*
X211866066Y-49945533D01*
X211868900Y-49971891D01*
X211868900Y-50389064D01*
X211849215Y-50456103D01*
X211832581Y-50476745D01*
X211796574Y-50512751D01*
X211796574Y-50512752D01*
X211796572Y-50512754D01*
X211774181Y-50543573D01*
X211680876Y-50671994D01*
X211591517Y-50847370D01*
X211530690Y-51034573D01*
X211499900Y-51228977D01*
X211499900Y-51945822D01*
X211530690Y-52140226D01*
X211591517Y-52327429D01*
X211664669Y-52470997D01*
X211680876Y-52502805D01*
X211796572Y-52662046D01*
X211935754Y-52801228D01*
X212094995Y-52916924D01*
X212159049Y-52949561D01*
X212270370Y-53006282D01*
X212270372Y-53006282D01*
X212270375Y-53006284D01*
X212350173Y-53032212D01*
X212457573Y-53067109D01*
X212651978Y-53097900D01*
X212651983Y-53097900D01*
X212848822Y-53097900D01*
X213043226Y-53067109D01*
X213057460Y-53062484D01*
X213230425Y-53006284D01*
X213405805Y-52916924D01*
X213565046Y-52801228D01*
X213704228Y-52662046D01*
X213819924Y-52502805D01*
X213909284Y-52327425D01*
X213970109Y-52140226D01*
X213991586Y-52004626D01*
X214000900Y-51945822D01*
X214000900Y-51228982D01*
X213994585Y-51189109D01*
X213994585Y-51189106D01*
X213992063Y-51173186D01*
X222211700Y-51173186D01*
X222211700Y-51442813D01*
X222241886Y-51710719D01*
X222241888Y-51710731D01*
X222301884Y-51973594D01*
X222301887Y-51973602D01*
X222390934Y-52228082D01*
X222507914Y-52470994D01*
X222507916Y-52470997D01*
X222651362Y-52699289D01*
X222819466Y-52910085D01*
X223010115Y-53100734D01*
X223220911Y-53268838D01*
X223449203Y-53412284D01*
X223692121Y-53529267D01*
X223856164Y-53586668D01*
X223946597Y-53618312D01*
X223946605Y-53618315D01*
X223946608Y-53618315D01*
X223946609Y-53618316D01*
X224209468Y-53678312D01*
X224477387Y-53708499D01*
X224477388Y-53708500D01*
X224477391Y-53708500D01*
X224747012Y-53708500D01*
X224747012Y-53708499D01*
X225014932Y-53678312D01*
X225277791Y-53618316D01*
X225532279Y-53529267D01*
X225775197Y-53412284D01*
X226003489Y-53268838D01*
X226214285Y-53100734D01*
X226404934Y-52910085D01*
X226573038Y-52699289D01*
X226716484Y-52470997D01*
X226833467Y-52228079D01*
X226922516Y-51973591D01*
X226982512Y-51710732D01*
X227012700Y-51442809D01*
X227012700Y-51173191D01*
X226982512Y-50905268D01*
X226922516Y-50642409D01*
X226922297Y-50641784D01*
X226886794Y-50540321D01*
X226833467Y-50387921D01*
X226716484Y-50145003D01*
X226573038Y-49916711D01*
X226404934Y-49705915D01*
X226214285Y-49515266D01*
X226003489Y-49347162D01*
X225822612Y-49233509D01*
X225775194Y-49203714D01*
X225532282Y-49086734D01*
X225277802Y-48997687D01*
X225277794Y-48997684D01*
X225080646Y-48952687D01*
X225014932Y-48937688D01*
X225014928Y-48937687D01*
X225014919Y-48937686D01*
X224747013Y-48907500D01*
X224747009Y-48907500D01*
X224477391Y-48907500D01*
X224477386Y-48907500D01*
X224209480Y-48937686D01*
X224209468Y-48937688D01*
X223946605Y-48997684D01*
X223946597Y-48997687D01*
X223692117Y-49086734D01*
X223449205Y-49203714D01*
X223220912Y-49347161D01*
X223010115Y-49515265D01*
X222819465Y-49705915D01*
X222651361Y-49916712D01*
X222507914Y-50145005D01*
X222390934Y-50387917D01*
X222301887Y-50642397D01*
X222301884Y-50642405D01*
X222241888Y-50905268D01*
X222241886Y-50905280D01*
X222211700Y-51173186D01*
X213992063Y-51173186D01*
X213970109Y-51034573D01*
X213937097Y-50932973D01*
X213909284Y-50847375D01*
X213909282Y-50847372D01*
X213909282Y-50847370D01*
X213862143Y-50754855D01*
X213819924Y-50671995D01*
X213704228Y-50512754D01*
X213668219Y-50476745D01*
X213634734Y-50415422D01*
X213631900Y-50389064D01*
X213631900Y-49540181D01*
X214864900Y-49540181D01*
X214864900Y-49714618D01*
X214898927Y-49885683D01*
X214898929Y-49885691D01*
X214965678Y-50046839D01*
X214965683Y-50046848D01*
X215062586Y-50191873D01*
X215062589Y-50191877D01*
X215185922Y-50315210D01*
X215185926Y-50315213D01*
X215330951Y-50412116D01*
X215330960Y-50412121D01*
X215367466Y-50427242D01*
X215492109Y-50478871D01*
X215638874Y-50508064D01*
X215663181Y-50512899D01*
X215663185Y-50512900D01*
X215663186Y-50512900D01*
X215837615Y-50512900D01*
X215837616Y-50512899D01*
X216008691Y-50478871D01*
X216169842Y-50412120D01*
X216314874Y-50315213D01*
X216438213Y-50191874D01*
X216535120Y-50046842D01*
X216601871Y-49885691D01*
X216635900Y-49714614D01*
X216635900Y-49540186D01*
X216601871Y-49369109D01*
X216548033Y-49239133D01*
X216535121Y-49207960D01*
X216535116Y-49207951D01*
X216438213Y-49062926D01*
X216438210Y-49062922D01*
X216314877Y-48939589D01*
X216314873Y-48939586D01*
X216169848Y-48842683D01*
X216169839Y-48842678D01*
X216008691Y-48775929D01*
X216008683Y-48775927D01*
X215837618Y-48741900D01*
X215837614Y-48741900D01*
X215663186Y-48741900D01*
X215663181Y-48741900D01*
X215492116Y-48775927D01*
X215492108Y-48775929D01*
X215330960Y-48842678D01*
X215330951Y-48842683D01*
X215185926Y-48939586D01*
X215185922Y-48939589D01*
X215062589Y-49062922D01*
X215062586Y-49062926D01*
X214965683Y-49207951D01*
X214965678Y-49207960D01*
X214898929Y-49369108D01*
X214898927Y-49369116D01*
X214864900Y-49540181D01*
X213631900Y-49540181D01*
X213631900Y-49468577D01*
X213598025Y-49298281D01*
X213598024Y-49298280D01*
X213598024Y-49298276D01*
X213573527Y-49239134D01*
X213531578Y-49137859D01*
X213531571Y-49137846D01*
X213435107Y-48993478D01*
X213379315Y-48937686D01*
X213312323Y-48870694D01*
X213047929Y-48606300D01*
X211864527Y-47422896D01*
X211864526Y-47422895D01*
X211720143Y-47326422D01*
X211559728Y-47259977D01*
X211559718Y-47259974D01*
X211389423Y-47226100D01*
X211389421Y-47226100D01*
X211389420Y-47226100D01*
X205090221Y-47226100D01*
X204916579Y-47226100D01*
X204916577Y-47226100D01*
X204746281Y-47259974D01*
X204746271Y-47259977D01*
X204585859Y-47326421D01*
X204585846Y-47326428D01*
X204441476Y-47422894D01*
X204441472Y-47422897D01*
X201296389Y-50567981D01*
X201235066Y-50601466D01*
X201208708Y-50604300D01*
X200869384Y-50604300D01*
X200802345Y-50584615D01*
X200756590Y-50531811D01*
X200746646Y-50462653D01*
X200775671Y-50399097D01*
X200821932Y-50365739D01*
X200955235Y-50310523D01*
X200955235Y-50310522D01*
X200955242Y-50310520D01*
X201100274Y-50213613D01*
X201223613Y-50090274D01*
X201320520Y-49945242D01*
X201387271Y-49784091D01*
X201421300Y-49613014D01*
X201421300Y-49438586D01*
X201387271Y-49267509D01*
X201320520Y-49106358D01*
X201320519Y-49106357D01*
X201320516Y-49106351D01*
X201223613Y-48961326D01*
X201223610Y-48961322D01*
X201100277Y-48837989D01*
X201100273Y-48837986D01*
X200955248Y-48741083D01*
X200955239Y-48741078D01*
X200794091Y-48674329D01*
X200794083Y-48674327D01*
X200623018Y-48640300D01*
X200623014Y-48640300D01*
X200448586Y-48640300D01*
X200448581Y-48640300D01*
X200277516Y-48674327D01*
X200277508Y-48674329D01*
X200116360Y-48741078D01*
X200116351Y-48741083D01*
X199971326Y-48837986D01*
X199971322Y-48837989D01*
X199847989Y-48961322D01*
X199847986Y-48961326D01*
X199751083Y-49106351D01*
X199751078Y-49106360D01*
X199684329Y-49267508D01*
X199684327Y-49267516D01*
X199650300Y-49438581D01*
X199650300Y-49613018D01*
X199684327Y-49784083D01*
X199684329Y-49784091D01*
X199751078Y-49945239D01*
X199751083Y-49945248D01*
X199847986Y-50090273D01*
X199847989Y-50090277D01*
X199971322Y-50213610D01*
X199971326Y-50213613D01*
X200116351Y-50310516D01*
X200116364Y-50310523D01*
X200249668Y-50365739D01*
X200304072Y-50409580D01*
X200326137Y-50475874D01*
X200308858Y-50543573D01*
X200257721Y-50591184D01*
X200202216Y-50604300D01*
X198693139Y-50604300D01*
X198626100Y-50584615D01*
X198592821Y-50553186D01*
X198538828Y-50478872D01*
X198489628Y-50411154D01*
X198350446Y-50271972D01*
X198191205Y-50156276D01*
X198015829Y-50066917D01*
X197828626Y-50006090D01*
X197634222Y-49975300D01*
X197634217Y-49975300D01*
X197437383Y-49975300D01*
X197437378Y-49975300D01*
X197242973Y-50006090D01*
X197055770Y-50066917D01*
X196880394Y-50156276D01*
X196801482Y-50213610D01*
X196721154Y-50271972D01*
X196721152Y-50271974D01*
X196721151Y-50271974D01*
X196581974Y-50411151D01*
X196581974Y-50411152D01*
X196581972Y-50411154D01*
X196544556Y-50462653D01*
X196466276Y-50570394D01*
X196376917Y-50745770D01*
X196316090Y-50932973D01*
X196285300Y-51127377D01*
X195786300Y-51127377D01*
X195786300Y-50675792D01*
X195775799Y-50573003D01*
X195720614Y-50406466D01*
X195709880Y-50389064D01*
X195628513Y-50257148D01*
X195628510Y-50257144D01*
X195504455Y-50133089D01*
X195504451Y-50133086D01*
X195355137Y-50040987D01*
X195355135Y-50040986D01*
X195249825Y-50006090D01*
X195188597Y-49985801D01*
X195188595Y-49985800D01*
X195085815Y-49975300D01*
X195085808Y-49975300D01*
X193985792Y-49975300D01*
X193985784Y-49975300D01*
X193883004Y-49985800D01*
X193883003Y-49985801D01*
X193716464Y-50040986D01*
X193716462Y-50040987D01*
X193567148Y-50133086D01*
X193567144Y-50133089D01*
X193443089Y-50257144D01*
X193443086Y-50257148D01*
X193350987Y-50406462D01*
X193350986Y-50406464D01*
X193295801Y-50573003D01*
X193295800Y-50573004D01*
X193285300Y-50675784D01*
X183945746Y-50675784D01*
X183893377Y-50573004D01*
X183874724Y-50536395D01*
X183759028Y-50377154D01*
X183619846Y-50237972D01*
X183460605Y-50122276D01*
X183415092Y-50099086D01*
X183285229Y-50032917D01*
X183098026Y-49972090D01*
X182903622Y-49941300D01*
X182903617Y-49941300D01*
X182706783Y-49941300D01*
X182706778Y-49941300D01*
X182512373Y-49972090D01*
X182325170Y-50032917D01*
X182149794Y-50122276D01*
X182118511Y-50145005D01*
X181990554Y-50237972D01*
X181990552Y-50237974D01*
X181990551Y-50237974D01*
X181851374Y-50377151D01*
X181851374Y-50377152D01*
X181851372Y-50377154D01*
X181825968Y-50412120D01*
X181735676Y-50536394D01*
X181646317Y-50711770D01*
X181585490Y-50898973D01*
X181554700Y-51093377D01*
X181055700Y-51093377D01*
X181055700Y-50641792D01*
X181045199Y-50539003D01*
X180990014Y-50372466D01*
X180981550Y-50358744D01*
X180897913Y-50223148D01*
X180897910Y-50223144D01*
X180773855Y-50099089D01*
X180773851Y-50099086D01*
X180624537Y-50006987D01*
X180624535Y-50006986D01*
X180518624Y-49971891D01*
X180457997Y-49951801D01*
X180457995Y-49951800D01*
X180355215Y-49941300D01*
X180355208Y-49941300D01*
X179255192Y-49941300D01*
X179255184Y-49941300D01*
X179152404Y-49951800D01*
X179152403Y-49951801D01*
X178985864Y-50006986D01*
X178985862Y-50006987D01*
X178836548Y-50099086D01*
X178836544Y-50099089D01*
X178712489Y-50223144D01*
X178712486Y-50223148D01*
X178620387Y-50372462D01*
X178620386Y-50372464D01*
X178565201Y-50539003D01*
X178565200Y-50539004D01*
X178554700Y-50641784D01*
X178554700Y-52261815D01*
X178565200Y-52364595D01*
X178565201Y-52364597D01*
X178570464Y-52380479D01*
X178620386Y-52531135D01*
X178620387Y-52531137D01*
X178712486Y-52680451D01*
X178712489Y-52680455D01*
X178836544Y-52804510D01*
X178836548Y-52804513D01*
X178985857Y-52896609D01*
X178985860Y-52896610D01*
X178985866Y-52896614D01*
X178992503Y-52898813D01*
X179012535Y-52912682D01*
X179034703Y-52922806D01*
X179040751Y-52932217D01*
X179049948Y-52938585D01*
X179059302Y-52961084D01*
X179072477Y-52981584D01*
X179074935Y-52998683D01*
X179076772Y-53003100D01*
X179077500Y-53016519D01*
X179077500Y-53178973D01*
X179057815Y-53246012D01*
X179018598Y-53284511D01*
X178971946Y-53313286D01*
X178877927Y-53407305D01*
X178816603Y-53440789D01*
X178746912Y-53435805D01*
X178702565Y-53407304D01*
X178608945Y-53313684D01*
X178459724Y-53221643D01*
X178459719Y-53221641D01*
X178293297Y-53166494D01*
X178293290Y-53166493D01*
X178190586Y-53156000D01*
X178040600Y-53156000D01*
X177540600Y-53156000D01*
X177390627Y-53156000D01*
X177390612Y-53156001D01*
X177287902Y-53166494D01*
X177121480Y-53221641D01*
X177121475Y-53221643D01*
X176972254Y-53313684D01*
X176848284Y-53437654D01*
X176756243Y-53586875D01*
X176756241Y-53586880D01*
X176701094Y-53753302D01*
X176701093Y-53753309D01*
X176690600Y-53856013D01*
X168224577Y-53856013D01*
X168449132Y-53830712D01*
X168711991Y-53770716D01*
X168736726Y-53762060D01*
X168811711Y-53735823D01*
X168862029Y-53718215D01*
X168966479Y-53681667D01*
X169209397Y-53564684D01*
X169437689Y-53421238D01*
X169648485Y-53253134D01*
X169839134Y-53062485D01*
X170007238Y-52851689D01*
X170150684Y-52623397D01*
X170267667Y-52380479D01*
X170356716Y-52125991D01*
X170416712Y-51863132D01*
X170446900Y-51595209D01*
X170446900Y-51325591D01*
X170416712Y-51057668D01*
X170356716Y-50794809D01*
X170267667Y-50540321D01*
X170150684Y-50297403D01*
X170007238Y-50069111D01*
X169839134Y-49858315D01*
X169648485Y-49667666D01*
X169437689Y-49499562D01*
X169286528Y-49404581D01*
X175919700Y-49404581D01*
X175919700Y-49579018D01*
X175953727Y-49750083D01*
X175953729Y-49750091D01*
X176020478Y-49911239D01*
X176020483Y-49911248D01*
X176117386Y-50056273D01*
X176117389Y-50056277D01*
X176240722Y-50179610D01*
X176240726Y-50179613D01*
X176385751Y-50276516D01*
X176385757Y-50276519D01*
X176385758Y-50276520D01*
X176546909Y-50343271D01*
X176693674Y-50372464D01*
X176717981Y-50377299D01*
X176717985Y-50377300D01*
X176717986Y-50377300D01*
X176892415Y-50377300D01*
X176892416Y-50377299D01*
X177063491Y-50343271D01*
X177224642Y-50276520D01*
X177369674Y-50179613D01*
X177493013Y-50056274D01*
X177589920Y-49911242D01*
X177656671Y-49750091D01*
X177690700Y-49579014D01*
X177690700Y-49404586D01*
X177690699Y-49404581D01*
X184919700Y-49404581D01*
X184919700Y-49579018D01*
X184953727Y-49750083D01*
X184953729Y-49750091D01*
X185020478Y-49911239D01*
X185020483Y-49911248D01*
X185117386Y-50056273D01*
X185117389Y-50056277D01*
X185240722Y-50179610D01*
X185240726Y-50179613D01*
X185385751Y-50276516D01*
X185385757Y-50276519D01*
X185385758Y-50276520D01*
X185546909Y-50343271D01*
X185693674Y-50372464D01*
X185717981Y-50377299D01*
X185717985Y-50377300D01*
X185717986Y-50377300D01*
X185892415Y-50377300D01*
X185892416Y-50377299D01*
X186063491Y-50343271D01*
X186224642Y-50276520D01*
X186369674Y-50179613D01*
X186493013Y-50056274D01*
X186589920Y-49911242D01*
X186656671Y-49750091D01*
X186690700Y-49579014D01*
X186690700Y-49438581D01*
X190650300Y-49438581D01*
X190650300Y-49613018D01*
X190684327Y-49784083D01*
X190684329Y-49784091D01*
X190751078Y-49945239D01*
X190751083Y-49945248D01*
X190847986Y-50090273D01*
X190847989Y-50090277D01*
X190971322Y-50213610D01*
X190971326Y-50213613D01*
X191116351Y-50310516D01*
X191116360Y-50310521D01*
X191127688Y-50315213D01*
X191277509Y-50377271D01*
X191424274Y-50406464D01*
X191448581Y-50411299D01*
X191448585Y-50411300D01*
X191448586Y-50411300D01*
X191623015Y-50411300D01*
X191623016Y-50411299D01*
X191794091Y-50377271D01*
X191955242Y-50310520D01*
X192100274Y-50213613D01*
X192223613Y-50090274D01*
X192320520Y-49945242D01*
X192387271Y-49784091D01*
X192421300Y-49613014D01*
X192421300Y-49438586D01*
X192387271Y-49267509D01*
X192320520Y-49106358D01*
X192320519Y-49106357D01*
X192320516Y-49106351D01*
X192223613Y-48961326D01*
X192223610Y-48961322D01*
X192100277Y-48837989D01*
X192100273Y-48837986D01*
X191955248Y-48741083D01*
X191955239Y-48741078D01*
X191794091Y-48674329D01*
X191794083Y-48674327D01*
X191623018Y-48640300D01*
X191623014Y-48640300D01*
X191448586Y-48640300D01*
X191448581Y-48640300D01*
X191277516Y-48674327D01*
X191277508Y-48674329D01*
X191116360Y-48741078D01*
X191116351Y-48741083D01*
X190971326Y-48837986D01*
X190971322Y-48837989D01*
X190847989Y-48961322D01*
X190847986Y-48961326D01*
X190751083Y-49106351D01*
X190751078Y-49106360D01*
X190684329Y-49267508D01*
X190684327Y-49267516D01*
X190650300Y-49438581D01*
X186690700Y-49438581D01*
X186690700Y-49404586D01*
X186656671Y-49233509D01*
X186589920Y-49072358D01*
X186589919Y-49072357D01*
X186589916Y-49072351D01*
X186493013Y-48927326D01*
X186493010Y-48927322D01*
X186369677Y-48803989D01*
X186369673Y-48803986D01*
X186224648Y-48707083D01*
X186224639Y-48707078D01*
X186063491Y-48640329D01*
X186063483Y-48640327D01*
X185892418Y-48606300D01*
X185892414Y-48606300D01*
X185717986Y-48606300D01*
X185717981Y-48606300D01*
X185546916Y-48640327D01*
X185546908Y-48640329D01*
X185385760Y-48707078D01*
X185385751Y-48707083D01*
X185240726Y-48803986D01*
X185240722Y-48803989D01*
X185117389Y-48927322D01*
X185117386Y-48927326D01*
X185020483Y-49072351D01*
X185020478Y-49072360D01*
X184953729Y-49233508D01*
X184953727Y-49233516D01*
X184919700Y-49404581D01*
X177690699Y-49404581D01*
X177656671Y-49233509D01*
X177589920Y-49072358D01*
X177589919Y-49072357D01*
X177589916Y-49072351D01*
X177493013Y-48927326D01*
X177493010Y-48927322D01*
X177369677Y-48803989D01*
X177369673Y-48803986D01*
X177224648Y-48707083D01*
X177224639Y-48707078D01*
X177063491Y-48640329D01*
X177063483Y-48640327D01*
X176892418Y-48606300D01*
X176892414Y-48606300D01*
X176717986Y-48606300D01*
X176717981Y-48606300D01*
X176546916Y-48640327D01*
X176546908Y-48640329D01*
X176385760Y-48707078D01*
X176385751Y-48707083D01*
X176240726Y-48803986D01*
X176240722Y-48803989D01*
X176117389Y-48927322D01*
X176117386Y-48927326D01*
X176020483Y-49072351D01*
X176020478Y-49072360D01*
X175953729Y-49233508D01*
X175953727Y-49233516D01*
X175919700Y-49404581D01*
X169286528Y-49404581D01*
X169209397Y-49356116D01*
X169209394Y-49356114D01*
X168966482Y-49239134D01*
X168712002Y-49150087D01*
X168711994Y-49150084D01*
X168514846Y-49105087D01*
X168449132Y-49090088D01*
X168449128Y-49090087D01*
X168449119Y-49090086D01*
X168181213Y-49059900D01*
X168181209Y-49059900D01*
X167911591Y-49059900D01*
X167911586Y-49059900D01*
X167643680Y-49090086D01*
X167643668Y-49090088D01*
X167380805Y-49150084D01*
X167380797Y-49150087D01*
X167126317Y-49239134D01*
X166883405Y-49356114D01*
X166655112Y-49499561D01*
X166444315Y-49667665D01*
X166253665Y-49858315D01*
X166085561Y-50069112D01*
X165942114Y-50297405D01*
X165825134Y-50540317D01*
X165736087Y-50794797D01*
X165736084Y-50794805D01*
X165676088Y-51057668D01*
X165676086Y-51057680D01*
X165645900Y-51325586D01*
X163448699Y-51325586D01*
X163448699Y-46921501D01*
X163468384Y-46854462D01*
X163521188Y-46808707D01*
X163572699Y-46797501D01*
X229212220Y-46797501D01*
X229279259Y-46817186D01*
G37*
%TD.AperFunction*%
%TD*%
M02*
