M48
; DRILL file {KiCad 9.0.1} date 2026-06-27T15:59:49+0800
; FORMAT={-:-/ absolute / metric / decimal}
; #@! TF.CreationDate,2026-06-27T15:59:49+08:00
; #@! TF.GenerationSoftware,Kicad,Pcbnew,9.0.1
; #@! TF.FileFunction,Plated,1,2,PTH
FMAT,2
METRIC
; #@! TA.AperFunction,Plated,PTH,ViaDrill
T1C0.300
; #@! TA.AperFunction,Plated,PTH,ComponentDrill
T2C0.800
; #@! TA.AperFunction,Plated,PTH,ComponentDrill
T3C1.000
; #@! TA.AperFunction,Plated,PTH,ComponentDrill
T4C1.020
; #@! TA.AperFunction,Plated,PTH,ComponentDrill
T5C1.300
%
G90
G05
T1
X163.855Y-101.651
X164.008Y-51.765
X164.922Y-68.25
X164.973Y-66.523
X165.049Y-62.154
X165.075Y-64.44
X165.125Y-60.147
X165.151Y-58.293
X165.456Y-104.902
X165.76Y-54.28
X165.989Y-90.805
X166.014Y-48.438
X166.446Y-97.561
X167.64Y-68.25
X167.691Y-78.816
X167.742Y-58.115
X167.97Y-65.176
X168.199Y-62.916
X168.427Y-60.452
X168.427Y-83.972
X168.529Y-54.966
X169.875Y-93.675
X169.977Y-48.158
X170.18Y-68.224
X170.409Y-97.536
X170.536Y-105.131
X170.739Y-65.151
X170.84Y-53.543
X171.221Y-58.064
X171.374Y-60.427
X171.45Y-50.622
X171.806Y-62.814
X172.339Y-66.523
X172.872Y-102.032
X173.507Y-47.625
X173.685Y-73.685
X174.015Y-60.376
X174.219Y-58.039
X174.422Y-96.317
X174.447Y-64.618
X174.625Y-62.789
X174.777Y-102.819
X175.108Y-100.152
X175.235Y-72.161
X176.555Y-62.713
X176.632Y-60.02
X176.657Y-57.912
X176.657Y-84.455
X177.318Y-89.992
X177.724Y-81.534
X178.181Y-66.675
X178.511Y-104.8
X178.816Y-47.371
X180.696Y-86.157
X181.178Y-90.068
X183.604Y-99.428
X184.81Y-63.805
X185.217Y-67.361
X185.293Y-86.182
X185.445Y-59.157
X186.563Y-82.652
X186.741Y-47.752
X186.741Y-70.637
X186.893Y-104.826
X188.697Y-51.918
X188.874Y-86.233
X188.925Y-81.102
X191.567Y-65.481
X192.227Y-58.064
X192.38Y-47.701
X193.421Y-103.556
X193.65Y-77.038
X193.827Y-85.496
X193.853Y-91.694
X194.335Y-66.497
X195.402Y-104.902
X195.58Y-64.592
X195.859Y-58.014
X195.986Y-78.359
X196.063Y-70.536
X197.663Y-66.497
X198.425Y-47.676
X198.501Y-100.711
X198.755Y-70.612
X198.933Y-91.262
X199.136Y-74.549
X199.263Y-94.209
X199.873Y-62.662
X200.838Y-66.472
X200.99Y-78.283
X200.992Y-91.054
X201.447Y-97.257
X201.803Y-70.536
X202.311Y-53.111
X203.327Y-100.482
X203.454Y-104.546
X203.581Y-91.008
X204.114Y-94.183
X204.343Y-51.537
X205.742Y-91.156
X206.527Y-57.506
X208.356Y-94.107
X208.509Y-91.211
X208.966Y-83.642
X209.093Y-104.648
X209.144Y-54.635
X209.626Y-57.429
X209.829Y-60.554
X210.185Y-78.435
X211.709Y-68.504
X213.69Y-75.082
X213.843Y-83.388
X214.274Y-97.485
X214.325Y-94.336
X214.351Y-78.283
X214.655Y-92.329
X215.875Y-47.371
X215.925Y-67.031
X216.357Y-57.988
X216.357Y-104.572
X216.535Y-90.475
X216.713Y-94.234
X216.814Y-97.46
X217.576Y-73.304
X218.034Y-100.863
X218.288Y-92.227
X218.618Y-57.836
X218.719Y-78.156
X218.923Y-83.388
X218.999Y-67.031
X219.481Y-50.902
X219.532Y-90.449
X219.634Y-54.458
X219.964Y-47.574
X220.345Y-73.355
X220.472Y-100.406
X220.751Y-103.505
X221.539Y-78.334
X222.352Y-71.399
X222.479Y-98.476
X222.885Y-55.728
X223.164Y-105.004
X224.053Y-47.676
X225.323Y-71.399
X225.603Y-104.826
X225.908Y-98.374
X227.635Y-48.133
X227.863Y-103.81
X227.965Y-55.296
X228.117Y-51.918
X228.219Y-101.041
T2
X180.288Y-72.846
X185.676Y-78.234
X190.202Y-96.575
X192.202Y-96.575
X214.122Y-63.424
X214.122Y-71.044
T3
X205.257Y-61.33
X205.257Y-73.33
T4
X179.805Y-51.452
X182.805Y-51.452
X194.536Y-51.486
X197.536Y-51.486
X208.763Y-100.736
X209.75Y-51.587
X211.763Y-100.736
X212.75Y-51.587
X225.323Y-62.075
X225.323Y-65.075
X225.357Y-73.608
X225.357Y-76.608
X225.357Y-85.393
X225.357Y-88.393
T5
X193.007Y-73.38
X193.057Y-61.33
X207.207Y-67.38
M30
