%TF.GenerationSoftware,KiCad,Pcbnew,9.0.1*%
%TF.CreationDate,2026-06-27T15:59:28+08:00*%
%TF.ProjectId,IMD_latch,494d445f-6c61-4746-9368-2e6b69636164,rev?*%
%TF.SameCoordinates,Original*%
%TF.FileFunction,Soldermask,Bot*%
%TF.FilePolarity,Negative*%
%FSLAX46Y46*%
G04 Gerber Fmt 4.6, Leading zero omitted, Abs format (unit mm)*
G04 Created by KiCad (PCBNEW 9.0.1) date 2026-06-27 15:59:28*
%MOMM*%
%LPD*%
G01*
G04 APERTURE LIST*
G04 Aperture macros list*
%AMRoundRect*
0 Rectangle with rounded corners*
0 $1 Rounding radius*
0 $2 $3 $4 $5 $6 $7 $8 $9 X,Y pos of 4 corners*
0 Add a 4 corners polygon primitive as box body*
4,1,4,$2,$3,$4,$5,$6,$7,$8,$9,$2,$3,0*
0 Add four circle primitives for the rounded corners*
1,1,$1+$1,$2,$3*
1,1,$1+$1,$4,$5*
1,1,$1+$1,$6,$7*
1,1,$1+$1,$8,$9*
0 Add four rect primitives between the rounded corners*
20,1,$1+$1,$2,$3,$4,$5,0*
20,1,$1+$1,$4,$5,$6,$7,0*
20,1,$1+$1,$6,$7,$8,$9,0*
20,1,$1+$1,$8,$9,$2,$3,0*%
%AMHorizOval*
0 Thick line with rounded ends*
0 $1 width*
0 $2 $3 position (X,Y) of the first rounded end (center of the circle)*
0 $4 $5 position (X,Y) of the second rounded end (center of the circle)*
0 Add line between two ends*
20,1,$1,$2,$3,$4,$5,0*
0 Add two circle primitives to create the rounded ends*
1,1,$1,$2,$3*
1,1,$1,$4,$5*%
%AMRotRect*
0 Rectangle, with rotation*
0 The origin of the aperture is its center*
0 $1 length*
0 $2 width*
0 $3 Rotation angle, in degrees counterclockwise*
0 Add horizontal line*
21,1,$1,$2,0,0,$3*%
G04 Aperture macros list end*
%ADD10C,2.500000*%
%ADD11C,3.000000*%
%ADD12R,1.600000X1.600000*%
%ADD13O,1.600000X1.600000*%
%ADD14C,4.300000*%
%ADD15C,1.270000*%
%ADD16RoundRect,0.250001X-0.499999X-0.759999X0.499999X-0.759999X0.499999X0.759999X-0.499999X0.759999X0*%
%ADD17O,1.500000X2.020000*%
%ADD18RoundRect,0.250000X-0.450000X0.350000X-0.450000X-0.350000X0.450000X-0.350000X0.450000X0.350000X0*%
%ADD19RoundRect,0.250000X0.350000X0.450000X-0.350000X0.450000X-0.350000X-0.450000X0.350000X-0.450000X0*%
%ADD20RoundRect,0.250001X0.499999X0.759999X-0.499999X0.759999X-0.499999X-0.759999X0.499999X-0.759999X0*%
%ADD21C,1.600000*%
%ADD22RoundRect,0.250001X-0.759999X0.499999X-0.759999X-0.499999X0.759999X-0.499999X0.759999X0.499999X0*%
%ADD23O,2.020000X1.500000*%
%ADD24RotRect,1.600000X1.600000X315.000000*%
%ADD25HorizOval,1.600000X0.000000X0.000000X0.000000X0.000000X0*%
G04 APERTURE END LIST*
D10*
%TO.C,K1*%
X205257400Y-73329800D03*
D11*
X193007400Y-73379800D03*
X193057400Y-61329800D03*
D10*
X205257400Y-61329800D03*
D11*
X207207400Y-67379800D03*
%TD*%
D12*
%TO.C,D1*%
X214122000Y-63423801D03*
D13*
X214122000Y-71043801D03*
%TD*%
D14*
%TO.C,H1*%
X168046400Y-51460400D03*
%TD*%
D15*
%TO.C,J5*%
X206750400Y-49627400D03*
X215750400Y-49627400D03*
D16*
X209750400Y-51587400D03*
D17*
X212750400Y-51587400D03*
%TD*%
D18*
%TO.C,R4*%
X189534800Y-98999800D03*
X189534800Y-100999800D03*
%TD*%
D19*
%TO.C,R8*%
X224545400Y-91109800D03*
X222545400Y-91109800D03*
%TD*%
D14*
%TO.C,H4*%
X168028208Y-101295200D03*
%TD*%
D15*
%TO.C,J3*%
X214762600Y-102696400D03*
X205762600Y-102696400D03*
D20*
X211762600Y-100736400D03*
D17*
X208762600Y-100736400D03*
%TD*%
D12*
%TO.C,C4*%
X190201975Y-96574600D03*
D21*
X192201975Y-96574600D03*
%TD*%
D19*
%TO.C,R9*%
X224457400Y-82626200D03*
X222457400Y-82626200D03*
%TD*%
D18*
%TO.C,R3*%
X192934400Y-99025200D03*
X192934400Y-101025200D03*
%TD*%
D15*
%TO.C,J1*%
X227283400Y-59074800D03*
X227283400Y-68074800D03*
D22*
X225323400Y-62074800D03*
D23*
X225323400Y-65074800D03*
%TD*%
D24*
%TO.C,D2*%
X180287524Y-72845524D03*
D25*
X185675678Y-78233678D03*
%TD*%
D15*
%TO.C,J6*%
X227317400Y-70607800D03*
X227317400Y-79607800D03*
D22*
X225357400Y-73607800D03*
D23*
X225357400Y-76607800D03*
%TD*%
D15*
%TO.C,J8*%
X227317400Y-82393400D03*
X227317400Y-91393400D03*
D22*
X225357400Y-85393400D03*
D23*
X225357400Y-88393400D03*
%TD*%
D19*
%TO.C,R1*%
X179790600Y-54356000D03*
X177790600Y-54356000D03*
%TD*%
D14*
%TO.C,H3*%
X224586800Y-101244400D03*
%TD*%
D15*
%TO.C,J4*%
X191535800Y-49525800D03*
X200535800Y-49525800D03*
D16*
X194535800Y-51485800D03*
D17*
X197535800Y-51485800D03*
%TD*%
D15*
%TO.C,J2*%
X176805200Y-49491800D03*
X185805200Y-49491800D03*
D16*
X179805200Y-51451800D03*
D17*
X182805200Y-51451800D03*
%TD*%
D14*
%TO.C,H2*%
X224612200Y-51308000D03*
%TD*%
M02*
