%TF.GenerationSoftware,KiCad,Pcbnew,9.0.1*%
%TF.CreationDate,2026-06-27T15:59:28+08:00*%
%TF.ProjectId,IMD_latch,494d445f-6c61-4746-9368-2e6b69636164,rev?*%
%TF.SameCoordinates,Original*%
%TF.FileFunction,Legend,Top*%
%TF.FilePolarity,Positive*%
%FSLAX46Y46*%
G04 Gerber Fmt 4.6, Leading zero omitted, Abs format (unit mm)*
G04 Created by KiCad (PCBNEW 9.0.1) date 2026-06-27 15:59:28*
%MOMM*%
%LPD*%
G01*
G04 APERTURE LIST*
%ADD10C,0.200000*%
%ADD11C,0.150000*%
%ADD12C,0.120000*%
%ADD13C,0.127000*%
G04 APERTURE END LIST*
D10*
X197118073Y-55798019D02*
X197118073Y-54798019D01*
X197594263Y-55798019D02*
X197594263Y-54798019D01*
X197594263Y-54798019D02*
X198165691Y-55798019D01*
X198165691Y-55798019D02*
X198165691Y-54798019D01*
X212281873Y-55772619D02*
X212281873Y-54772619D01*
X212758063Y-55772619D02*
X212758063Y-54772619D01*
X212758063Y-54772619D02*
X213329491Y-55772619D01*
X213329491Y-55772619D02*
X213329491Y-54772619D01*
X186961206Y-73028809D02*
X187104063Y-73076428D01*
X187104063Y-73076428D02*
X187151682Y-73124047D01*
X187151682Y-73124047D02*
X187199301Y-73219285D01*
X187199301Y-73219285D02*
X187199301Y-73362142D01*
X187199301Y-73362142D02*
X187151682Y-73457380D01*
X187151682Y-73457380D02*
X187104063Y-73505000D01*
X187104063Y-73505000D02*
X187008825Y-73552619D01*
X187008825Y-73552619D02*
X186627873Y-73552619D01*
X186627873Y-73552619D02*
X186627873Y-72552619D01*
X186627873Y-72552619D02*
X186961206Y-72552619D01*
X186961206Y-72552619D02*
X187056444Y-72600238D01*
X187056444Y-72600238D02*
X187104063Y-72647857D01*
X187104063Y-72647857D02*
X187151682Y-72743095D01*
X187151682Y-72743095D02*
X187151682Y-72838333D01*
X187151682Y-72838333D02*
X187104063Y-72933571D01*
X187104063Y-72933571D02*
X187056444Y-72981190D01*
X187056444Y-72981190D02*
X186961206Y-73028809D01*
X186961206Y-73028809D02*
X186627873Y-73028809D01*
X186656454Y-61608304D02*
X187132644Y-61608304D01*
X186561216Y-61894019D02*
X186894549Y-60894019D01*
X186894549Y-60894019D02*
X187227882Y-61894019D01*
X220972239Y-74214317D02*
X220924620Y-74309555D01*
X220924620Y-74309555D02*
X220924620Y-74452412D01*
X220924620Y-74452412D02*
X220972239Y-74595269D01*
X220972239Y-74595269D02*
X221067477Y-74690507D01*
X221067477Y-74690507D02*
X221162715Y-74738126D01*
X221162715Y-74738126D02*
X221353191Y-74785745D01*
X221353191Y-74785745D02*
X221496048Y-74785745D01*
X221496048Y-74785745D02*
X221686524Y-74738126D01*
X221686524Y-74738126D02*
X221781762Y-74690507D01*
X221781762Y-74690507D02*
X221877001Y-74595269D01*
X221877001Y-74595269D02*
X221924620Y-74452412D01*
X221924620Y-74452412D02*
X221924620Y-74357174D01*
X221924620Y-74357174D02*
X221877001Y-74214317D01*
X221877001Y-74214317D02*
X221829381Y-74166698D01*
X221829381Y-74166698D02*
X221496048Y-74166698D01*
X221496048Y-74166698D02*
X221496048Y-74357174D01*
X221924620Y-73738126D02*
X220924620Y-73738126D01*
X220924620Y-73738126D02*
X221924620Y-73166698D01*
X221924620Y-73166698D02*
X220924620Y-73166698D01*
X221924620Y-72690507D02*
X220924620Y-72690507D01*
X220924620Y-72690507D02*
X220924620Y-72452412D01*
X220924620Y-72452412D02*
X220972239Y-72309555D01*
X220972239Y-72309555D02*
X221067477Y-72214317D01*
X221067477Y-72214317D02*
X221162715Y-72166698D01*
X221162715Y-72166698D02*
X221353191Y-72119079D01*
X221353191Y-72119079D02*
X221496048Y-72119079D01*
X221496048Y-72119079D02*
X221686524Y-72166698D01*
X221686524Y-72166698D02*
X221781762Y-72214317D01*
X221781762Y-72214317D02*
X221877001Y-72309555D01*
X221877001Y-72309555D02*
X221924620Y-72452412D01*
X221924620Y-72452412D02*
X221924620Y-72690507D01*
X221509667Y-63205126D02*
X221509667Y-62443222D01*
X221890620Y-62824174D02*
X221128715Y-62824174D01*
X221890620Y-61443222D02*
X221890620Y-62014650D01*
X221890620Y-61728936D02*
X220890620Y-61728936D01*
X220890620Y-61728936D02*
X221033477Y-61824174D01*
X221033477Y-61824174D02*
X221128715Y-61919412D01*
X221128715Y-61919412D02*
X221176334Y-62014650D01*
X220985858Y-61062269D02*
X220938239Y-61014650D01*
X220938239Y-61014650D02*
X220890620Y-60919412D01*
X220890620Y-60919412D02*
X220890620Y-60681317D01*
X220890620Y-60681317D02*
X220938239Y-60586079D01*
X220938239Y-60586079D02*
X220985858Y-60538460D01*
X220985858Y-60538460D02*
X221081096Y-60490841D01*
X221081096Y-60490841D02*
X221176334Y-60490841D01*
X221176334Y-60490841D02*
X221319191Y-60538460D01*
X221319191Y-60538460D02*
X221890620Y-61109888D01*
X221890620Y-61109888D02*
X221890620Y-60490841D01*
X220890620Y-60205126D02*
X221890620Y-59871793D01*
X221890620Y-59871793D02*
X220890620Y-59538460D01*
X176877406Y-56214009D02*
X177020263Y-56261628D01*
X177020263Y-56261628D02*
X177067882Y-56309247D01*
X177067882Y-56309247D02*
X177115501Y-56404485D01*
X177115501Y-56404485D02*
X177115501Y-56547342D01*
X177115501Y-56547342D02*
X177067882Y-56642580D01*
X177067882Y-56642580D02*
X177020263Y-56690200D01*
X177020263Y-56690200D02*
X176925025Y-56737819D01*
X176925025Y-56737819D02*
X176544073Y-56737819D01*
X176544073Y-56737819D02*
X176544073Y-55737819D01*
X176544073Y-55737819D02*
X176877406Y-55737819D01*
X176877406Y-55737819D02*
X176972644Y-55785438D01*
X176972644Y-55785438D02*
X177020263Y-55833057D01*
X177020263Y-55833057D02*
X177067882Y-55928295D01*
X177067882Y-55928295D02*
X177067882Y-56023533D01*
X177067882Y-56023533D02*
X177020263Y-56118771D01*
X177020263Y-56118771D02*
X176972644Y-56166390D01*
X176972644Y-56166390D02*
X176877406Y-56214009D01*
X176877406Y-56214009D02*
X176544073Y-56214009D01*
X177401216Y-55737819D02*
X177972644Y-55737819D01*
X177686930Y-56737819D02*
X177686930Y-55737819D01*
X178305978Y-56737819D02*
X178305978Y-55737819D01*
X178305978Y-55737819D02*
X178877406Y-56737819D01*
X178877406Y-56737819D02*
X178877406Y-55737819D01*
X179353597Y-56356866D02*
X180115502Y-56356866D01*
X181957406Y-56239409D02*
X182100263Y-56287028D01*
X182100263Y-56287028D02*
X182147882Y-56334647D01*
X182147882Y-56334647D02*
X182195501Y-56429885D01*
X182195501Y-56429885D02*
X182195501Y-56572742D01*
X182195501Y-56572742D02*
X182147882Y-56667980D01*
X182147882Y-56667980D02*
X182100263Y-56715600D01*
X182100263Y-56715600D02*
X182005025Y-56763219D01*
X182005025Y-56763219D02*
X181624073Y-56763219D01*
X181624073Y-56763219D02*
X181624073Y-55763219D01*
X181624073Y-55763219D02*
X181957406Y-55763219D01*
X181957406Y-55763219D02*
X182052644Y-55810838D01*
X182052644Y-55810838D02*
X182100263Y-55858457D01*
X182100263Y-55858457D02*
X182147882Y-55953695D01*
X182147882Y-55953695D02*
X182147882Y-56048933D01*
X182147882Y-56048933D02*
X182100263Y-56144171D01*
X182100263Y-56144171D02*
X182052644Y-56191790D01*
X182052644Y-56191790D02*
X181957406Y-56239409D01*
X181957406Y-56239409D02*
X181624073Y-56239409D01*
X182481216Y-55763219D02*
X183052644Y-55763219D01*
X182766930Y-56763219D02*
X182766930Y-55763219D01*
X183385978Y-56763219D02*
X183385978Y-55763219D01*
X183385978Y-55763219D02*
X183957406Y-56763219D01*
X183957406Y-56763219D02*
X183957406Y-55763219D01*
X184433597Y-56382266D02*
X185195502Y-56382266D01*
X184814549Y-56763219D02*
X184814549Y-56001314D01*
X190110806Y-51337209D02*
X190253663Y-51384828D01*
X190253663Y-51384828D02*
X190301282Y-51432447D01*
X190301282Y-51432447D02*
X190348901Y-51527685D01*
X190348901Y-51527685D02*
X190348901Y-51670542D01*
X190348901Y-51670542D02*
X190301282Y-51765780D01*
X190301282Y-51765780D02*
X190253663Y-51813400D01*
X190253663Y-51813400D02*
X190158425Y-51861019D01*
X190158425Y-51861019D02*
X189777473Y-51861019D01*
X189777473Y-51861019D02*
X189777473Y-50861019D01*
X189777473Y-50861019D02*
X190110806Y-50861019D01*
X190110806Y-50861019D02*
X190206044Y-50908638D01*
X190206044Y-50908638D02*
X190253663Y-50956257D01*
X190253663Y-50956257D02*
X190301282Y-51051495D01*
X190301282Y-51051495D02*
X190301282Y-51146733D01*
X190301282Y-51146733D02*
X190253663Y-51241971D01*
X190253663Y-51241971D02*
X190206044Y-51289590D01*
X190206044Y-51289590D02*
X190110806Y-51337209D01*
X190110806Y-51337209D02*
X189777473Y-51337209D01*
X204792054Y-51651504D02*
X205268244Y-51651504D01*
X204696816Y-51937219D02*
X205030149Y-50937219D01*
X205030149Y-50937219D02*
X205363482Y-51937219D01*
X208763949Y-97003620D02*
X208954425Y-97003620D01*
X208954425Y-97003620D02*
X209049663Y-97051239D01*
X209049663Y-97051239D02*
X209144901Y-97146477D01*
X209144901Y-97146477D02*
X209192520Y-97336953D01*
X209192520Y-97336953D02*
X209192520Y-97670286D01*
X209192520Y-97670286D02*
X209144901Y-97860762D01*
X209144901Y-97860762D02*
X209049663Y-97956001D01*
X209049663Y-97956001D02*
X208954425Y-98003620D01*
X208954425Y-98003620D02*
X208763949Y-98003620D01*
X208763949Y-98003620D02*
X208668711Y-97956001D01*
X208668711Y-97956001D02*
X208573473Y-97860762D01*
X208573473Y-97860762D02*
X208525854Y-97670286D01*
X208525854Y-97670286D02*
X208525854Y-97336953D01*
X208525854Y-97336953D02*
X208573473Y-97146477D01*
X208573473Y-97146477D02*
X208668711Y-97051239D01*
X208668711Y-97051239D02*
X208763949Y-97003620D01*
X209621092Y-98003620D02*
X209621092Y-97003620D01*
X210192520Y-98003620D02*
X209763949Y-97432191D01*
X210192520Y-97003620D02*
X209621092Y-97575048D01*
X210621092Y-98003620D02*
X210621092Y-97003620D01*
X210621092Y-97479810D02*
X211192520Y-97479810D01*
X211192520Y-98003620D02*
X211192520Y-97003620D01*
X211621092Y-97956001D02*
X211763949Y-98003620D01*
X211763949Y-98003620D02*
X212002044Y-98003620D01*
X212002044Y-98003620D02*
X212097282Y-97956001D01*
X212097282Y-97956001D02*
X212144901Y-97908381D01*
X212144901Y-97908381D02*
X212192520Y-97813143D01*
X212192520Y-97813143D02*
X212192520Y-97717905D01*
X212192520Y-97717905D02*
X212144901Y-97622667D01*
X212144901Y-97622667D02*
X212097282Y-97575048D01*
X212097282Y-97575048D02*
X212002044Y-97527429D01*
X212002044Y-97527429D02*
X211811568Y-97479810D01*
X211811568Y-97479810D02*
X211716330Y-97432191D01*
X211716330Y-97432191D02*
X211668711Y-97384572D01*
X211668711Y-97384572D02*
X211621092Y-97289334D01*
X211621092Y-97289334D02*
X211621092Y-97194096D01*
X211621092Y-97194096D02*
X211668711Y-97098858D01*
X211668711Y-97098858D02*
X211716330Y-97051239D01*
X211716330Y-97051239D02*
X211811568Y-97003620D01*
X211811568Y-97003620D02*
X212049663Y-97003620D01*
X212049663Y-97003620D02*
X212192520Y-97051239D01*
X218403273Y-85897019D02*
X218403273Y-84897019D01*
X218403273Y-84897019D02*
X218736606Y-85611304D01*
X218736606Y-85611304D02*
X219069939Y-84897019D01*
X219069939Y-84897019D02*
X219069939Y-85897019D01*
X219546130Y-85897019D02*
X219546130Y-84897019D01*
X219546130Y-85373209D02*
X220117558Y-85373209D01*
X220117558Y-85897019D02*
X220117558Y-84897019D01*
X220546130Y-85849400D02*
X220688987Y-85897019D01*
X220688987Y-85897019D02*
X220927082Y-85897019D01*
X220927082Y-85897019D02*
X221022320Y-85849400D01*
X221022320Y-85849400D02*
X221069939Y-85801780D01*
X221069939Y-85801780D02*
X221117558Y-85706542D01*
X221117558Y-85706542D02*
X221117558Y-85611304D01*
X221117558Y-85611304D02*
X221069939Y-85516066D01*
X221069939Y-85516066D02*
X221022320Y-85468447D01*
X221022320Y-85468447D02*
X220927082Y-85420828D01*
X220927082Y-85420828D02*
X220736606Y-85373209D01*
X220736606Y-85373209D02*
X220641368Y-85325590D01*
X220641368Y-85325590D02*
X220593749Y-85277971D01*
X220593749Y-85277971D02*
X220546130Y-85182733D01*
X220546130Y-85182733D02*
X220546130Y-85087495D01*
X220546130Y-85087495D02*
X220593749Y-84992257D01*
X220593749Y-84992257D02*
X220641368Y-84944638D01*
X220641368Y-84944638D02*
X220736606Y-84897019D01*
X220736606Y-84897019D02*
X220974701Y-84897019D01*
X220974701Y-84897019D02*
X221117558Y-84944638D01*
X218619149Y-88046619D02*
X218809625Y-88046619D01*
X218809625Y-88046619D02*
X218904863Y-88094238D01*
X218904863Y-88094238D02*
X219000101Y-88189476D01*
X219000101Y-88189476D02*
X219047720Y-88379952D01*
X219047720Y-88379952D02*
X219047720Y-88713285D01*
X219047720Y-88713285D02*
X219000101Y-88903761D01*
X219000101Y-88903761D02*
X218904863Y-88999000D01*
X218904863Y-88999000D02*
X218809625Y-89046619D01*
X218809625Y-89046619D02*
X218619149Y-89046619D01*
X218619149Y-89046619D02*
X218523911Y-88999000D01*
X218523911Y-88999000D02*
X218428673Y-88903761D01*
X218428673Y-88903761D02*
X218381054Y-88713285D01*
X218381054Y-88713285D02*
X218381054Y-88379952D01*
X218381054Y-88379952D02*
X218428673Y-88189476D01*
X218428673Y-88189476D02*
X218523911Y-88094238D01*
X218523911Y-88094238D02*
X218619149Y-88046619D01*
X219476292Y-89046619D02*
X219476292Y-88046619D01*
X220047720Y-89046619D02*
X219619149Y-88475190D01*
X220047720Y-88046619D02*
X219476292Y-88618047D01*
X220476292Y-89046619D02*
X220476292Y-88046619D01*
X220476292Y-88522809D02*
X221047720Y-88522809D01*
X221047720Y-89046619D02*
X221047720Y-88046619D01*
X221476292Y-88999000D02*
X221619149Y-89046619D01*
X221619149Y-89046619D02*
X221857244Y-89046619D01*
X221857244Y-89046619D02*
X221952482Y-88999000D01*
X221952482Y-88999000D02*
X222000101Y-88951380D01*
X222000101Y-88951380D02*
X222047720Y-88856142D01*
X222047720Y-88856142D02*
X222047720Y-88760904D01*
X222047720Y-88760904D02*
X222000101Y-88665666D01*
X222000101Y-88665666D02*
X221952482Y-88618047D01*
X221952482Y-88618047D02*
X221857244Y-88570428D01*
X221857244Y-88570428D02*
X221666768Y-88522809D01*
X221666768Y-88522809D02*
X221571530Y-88475190D01*
X221571530Y-88475190D02*
X221523911Y-88427571D01*
X221523911Y-88427571D02*
X221476292Y-88332333D01*
X221476292Y-88332333D02*
X221476292Y-88237095D01*
X221476292Y-88237095D02*
X221523911Y-88141857D01*
X221523911Y-88141857D02*
X221571530Y-88094238D01*
X221571530Y-88094238D02*
X221666768Y-88046619D01*
X221666768Y-88046619D02*
X221904863Y-88046619D01*
X221904863Y-88046619D02*
X222047720Y-88094238D01*
D11*
X198369305Y-58634620D02*
X198369305Y-57634620D01*
X198940733Y-58634620D02*
X198512162Y-58063191D01*
X198940733Y-57634620D02*
X198369305Y-58206048D01*
X199893114Y-58634620D02*
X199321686Y-58634620D01*
X199607400Y-58634620D02*
X199607400Y-57634620D01*
X199607400Y-57634620D02*
X199512162Y-57777477D01*
X199512162Y-57777477D02*
X199416924Y-57872715D01*
X199416924Y-57872715D02*
X199321686Y-57920334D01*
X216696819Y-67971895D02*
X215696819Y-67971895D01*
X215696819Y-67971895D02*
X215696819Y-67733800D01*
X215696819Y-67733800D02*
X215744438Y-67590943D01*
X215744438Y-67590943D02*
X215839676Y-67495705D01*
X215839676Y-67495705D02*
X215934914Y-67448086D01*
X215934914Y-67448086D02*
X216125390Y-67400467D01*
X216125390Y-67400467D02*
X216268247Y-67400467D01*
X216268247Y-67400467D02*
X216458723Y-67448086D01*
X216458723Y-67448086D02*
X216553961Y-67495705D01*
X216553961Y-67495705D02*
X216649200Y-67590943D01*
X216649200Y-67590943D02*
X216696819Y-67733800D01*
X216696819Y-67733800D02*
X216696819Y-67971895D01*
X216696819Y-66448086D02*
X216696819Y-67019514D01*
X216696819Y-66733800D02*
X215696819Y-66733800D01*
X215696819Y-66733800D02*
X215839676Y-66829038D01*
X215839676Y-66829038D02*
X215934914Y-66924276D01*
X215934914Y-66924276D02*
X215982533Y-67019514D01*
X216376819Y-63685705D02*
X215376819Y-63685705D01*
X216376819Y-63114277D02*
X215805390Y-63542848D01*
X215376819Y-63114277D02*
X215948247Y-63685705D01*
X194410219Y-88034666D02*
X193934028Y-88367999D01*
X194410219Y-88606094D02*
X193410219Y-88606094D01*
X193410219Y-88606094D02*
X193410219Y-88225142D01*
X193410219Y-88225142D02*
X193457838Y-88129904D01*
X193457838Y-88129904D02*
X193505457Y-88082285D01*
X193505457Y-88082285D02*
X193600695Y-88034666D01*
X193600695Y-88034666D02*
X193743552Y-88034666D01*
X193743552Y-88034666D02*
X193838790Y-88082285D01*
X193838790Y-88082285D02*
X193886409Y-88129904D01*
X193886409Y-88129904D02*
X193934028Y-88225142D01*
X193934028Y-88225142D02*
X193934028Y-88606094D01*
X193410219Y-87129904D02*
X193410219Y-87606094D01*
X193410219Y-87606094D02*
X193886409Y-87653713D01*
X193886409Y-87653713D02*
X193838790Y-87606094D01*
X193838790Y-87606094D02*
X193791171Y-87510856D01*
X193791171Y-87510856D02*
X193791171Y-87272761D01*
X193791171Y-87272761D02*
X193838790Y-87177523D01*
X193838790Y-87177523D02*
X193886409Y-87129904D01*
X193886409Y-87129904D02*
X193981647Y-87082285D01*
X193981647Y-87082285D02*
X194219742Y-87082285D01*
X194219742Y-87082285D02*
X194314980Y-87129904D01*
X194314980Y-87129904D02*
X194362600Y-87177523D01*
X194362600Y-87177523D02*
X194410219Y-87272761D01*
X194410219Y-87272761D02*
X194410219Y-87510856D01*
X194410219Y-87510856D02*
X194362600Y-87606094D01*
X194362600Y-87606094D02*
X194314980Y-87653713D01*
X176803417Y-79069080D02*
X176904432Y-78496661D01*
X176399356Y-78665019D02*
X177106463Y-77957913D01*
X177106463Y-77957913D02*
X177375837Y-78227287D01*
X177375837Y-78227287D02*
X177409509Y-78328302D01*
X177409509Y-78328302D02*
X177409509Y-78395645D01*
X177409509Y-78395645D02*
X177375837Y-78496661D01*
X177375837Y-78496661D02*
X177274822Y-78597676D01*
X177274822Y-78597676D02*
X177173806Y-78631348D01*
X177173806Y-78631348D02*
X177106463Y-78631348D01*
X177106463Y-78631348D02*
X177005448Y-78597676D01*
X177005448Y-78597676D02*
X176736074Y-78328302D01*
X177746226Y-78597676D02*
X178217631Y-79069080D01*
X178217631Y-79069080D02*
X177207478Y-79473141D01*
X210917066Y-47372219D02*
X210917066Y-48086504D01*
X210917066Y-48086504D02*
X210869447Y-48229361D01*
X210869447Y-48229361D02*
X210774209Y-48324600D01*
X210774209Y-48324600D02*
X210631352Y-48372219D01*
X210631352Y-48372219D02*
X210536114Y-48372219D01*
X211869447Y-47372219D02*
X211393257Y-47372219D01*
X211393257Y-47372219D02*
X211345638Y-47848409D01*
X211345638Y-47848409D02*
X211393257Y-47800790D01*
X211393257Y-47800790D02*
X211488495Y-47753171D01*
X211488495Y-47753171D02*
X211726590Y-47753171D01*
X211726590Y-47753171D02*
X211821828Y-47800790D01*
X211821828Y-47800790D02*
X211869447Y-47848409D01*
X211869447Y-47848409D02*
X211917066Y-47943647D01*
X211917066Y-47943647D02*
X211917066Y-48181742D01*
X211917066Y-48181742D02*
X211869447Y-48276980D01*
X211869447Y-48276980D02*
X211821828Y-48324600D01*
X211821828Y-48324600D02*
X211726590Y-48372219D01*
X211726590Y-48372219D02*
X211488495Y-48372219D01*
X211488495Y-48372219D02*
X211393257Y-48324600D01*
X211393257Y-48324600D02*
X211345638Y-48276980D01*
X219321142Y-96797019D02*
X218987809Y-96320828D01*
X218749714Y-96797019D02*
X218749714Y-95797019D01*
X218749714Y-95797019D02*
X219130666Y-95797019D01*
X219130666Y-95797019D02*
X219225904Y-95844638D01*
X219225904Y-95844638D02*
X219273523Y-95892257D01*
X219273523Y-95892257D02*
X219321142Y-95987495D01*
X219321142Y-95987495D02*
X219321142Y-96130352D01*
X219321142Y-96130352D02*
X219273523Y-96225590D01*
X219273523Y-96225590D02*
X219225904Y-96273209D01*
X219225904Y-96273209D02*
X219130666Y-96320828D01*
X219130666Y-96320828D02*
X218749714Y-96320828D01*
X220273523Y-96797019D02*
X219702095Y-96797019D01*
X219987809Y-96797019D02*
X219987809Y-95797019D01*
X219987809Y-95797019D02*
X219892571Y-95939876D01*
X219892571Y-95939876D02*
X219797333Y-96035114D01*
X219797333Y-96035114D02*
X219702095Y-96082733D01*
X220892571Y-95797019D02*
X220987809Y-95797019D01*
X220987809Y-95797019D02*
X221083047Y-95844638D01*
X221083047Y-95844638D02*
X221130666Y-95892257D01*
X221130666Y-95892257D02*
X221178285Y-95987495D01*
X221178285Y-95987495D02*
X221225904Y-96177971D01*
X221225904Y-96177971D02*
X221225904Y-96416066D01*
X221225904Y-96416066D02*
X221178285Y-96606542D01*
X221178285Y-96606542D02*
X221130666Y-96701780D01*
X221130666Y-96701780D02*
X221083047Y-96749400D01*
X221083047Y-96749400D02*
X220987809Y-96797019D01*
X220987809Y-96797019D02*
X220892571Y-96797019D01*
X220892571Y-96797019D02*
X220797333Y-96749400D01*
X220797333Y-96749400D02*
X220749714Y-96701780D01*
X220749714Y-96701780D02*
X220702095Y-96606542D01*
X220702095Y-96606542D02*
X220654476Y-96416066D01*
X220654476Y-96416066D02*
X220654476Y-96177971D01*
X220654476Y-96177971D02*
X220702095Y-95987495D01*
X220702095Y-95987495D02*
X220749714Y-95892257D01*
X220749714Y-95892257D02*
X220797333Y-95844638D01*
X220797333Y-95844638D02*
X220892571Y-95797019D01*
X203183261Y-85927757D02*
X203088023Y-85880138D01*
X203088023Y-85880138D02*
X202992785Y-85784900D01*
X202992785Y-85784900D02*
X202849928Y-85642042D01*
X202849928Y-85642042D02*
X202754690Y-85594423D01*
X202754690Y-85594423D02*
X202659452Y-85594423D01*
X202707071Y-85832519D02*
X202611833Y-85784900D01*
X202611833Y-85784900D02*
X202516595Y-85689661D01*
X202516595Y-85689661D02*
X202468976Y-85499185D01*
X202468976Y-85499185D02*
X202468976Y-85165852D01*
X202468976Y-85165852D02*
X202516595Y-84975376D01*
X202516595Y-84975376D02*
X202611833Y-84880138D01*
X202611833Y-84880138D02*
X202707071Y-84832519D01*
X202707071Y-84832519D02*
X202897547Y-84832519D01*
X202897547Y-84832519D02*
X202992785Y-84880138D01*
X202992785Y-84880138D02*
X203088023Y-84975376D01*
X203088023Y-84975376D02*
X203135642Y-85165852D01*
X203135642Y-85165852D02*
X203135642Y-85499185D01*
X203135642Y-85499185D02*
X203088023Y-85689661D01*
X203088023Y-85689661D02*
X202992785Y-85784900D01*
X202992785Y-85784900D02*
X202897547Y-85832519D01*
X202897547Y-85832519D02*
X202707071Y-85832519D01*
X204088023Y-85832519D02*
X203516595Y-85832519D01*
X203802309Y-85832519D02*
X203802309Y-84832519D01*
X203802309Y-84832519D02*
X203707071Y-84975376D01*
X203707071Y-84975376D02*
X203611833Y-85070614D01*
X203611833Y-85070614D02*
X203516595Y-85118233D01*
X165984381Y-71722266D02*
X166032001Y-71769885D01*
X166032001Y-71769885D02*
X166079620Y-71912742D01*
X166079620Y-71912742D02*
X166079620Y-72007980D01*
X166079620Y-72007980D02*
X166032001Y-72150837D01*
X166032001Y-72150837D02*
X165936762Y-72246075D01*
X165936762Y-72246075D02*
X165841524Y-72293694D01*
X165841524Y-72293694D02*
X165651048Y-72341313D01*
X165651048Y-72341313D02*
X165508191Y-72341313D01*
X165508191Y-72341313D02*
X165317715Y-72293694D01*
X165317715Y-72293694D02*
X165222477Y-72246075D01*
X165222477Y-72246075D02*
X165127239Y-72150837D01*
X165127239Y-72150837D02*
X165079620Y-72007980D01*
X165079620Y-72007980D02*
X165079620Y-71912742D01*
X165079620Y-71912742D02*
X165127239Y-71769885D01*
X165127239Y-71769885D02*
X165174858Y-71722266D01*
X165174858Y-71341313D02*
X165127239Y-71293694D01*
X165127239Y-71293694D02*
X165079620Y-71198456D01*
X165079620Y-71198456D02*
X165079620Y-70960361D01*
X165079620Y-70960361D02*
X165127239Y-70865123D01*
X165127239Y-70865123D02*
X165174858Y-70817504D01*
X165174858Y-70817504D02*
X165270096Y-70769885D01*
X165270096Y-70769885D02*
X165365334Y-70769885D01*
X165365334Y-70769885D02*
X165508191Y-70817504D01*
X165508191Y-70817504D02*
X166079620Y-71388932D01*
X166079620Y-71388932D02*
X166079620Y-70769885D01*
X209929266Y-103861219D02*
X209929266Y-104575504D01*
X209929266Y-104575504D02*
X209881647Y-104718361D01*
X209881647Y-104718361D02*
X209786409Y-104813600D01*
X209786409Y-104813600D02*
X209643552Y-104861219D01*
X209643552Y-104861219D02*
X209548314Y-104861219D01*
X210310219Y-103861219D02*
X210929266Y-103861219D01*
X210929266Y-103861219D02*
X210595933Y-104242171D01*
X210595933Y-104242171D02*
X210738790Y-104242171D01*
X210738790Y-104242171D02*
X210834028Y-104289790D01*
X210834028Y-104289790D02*
X210881647Y-104337409D01*
X210881647Y-104337409D02*
X210929266Y-104432647D01*
X210929266Y-104432647D02*
X210929266Y-104670742D01*
X210929266Y-104670742D02*
X210881647Y-104765980D01*
X210881647Y-104765980D02*
X210834028Y-104813600D01*
X210834028Y-104813600D02*
X210738790Y-104861219D01*
X210738790Y-104861219D02*
X210453076Y-104861219D01*
X210453076Y-104861219D02*
X210357838Y-104813600D01*
X210357838Y-104813600D02*
X210310219Y-104765980D01*
X176274619Y-72674266D02*
X175798428Y-73007599D01*
X176274619Y-73245694D02*
X175274619Y-73245694D01*
X175274619Y-73245694D02*
X175274619Y-72864742D01*
X175274619Y-72864742D02*
X175322238Y-72769504D01*
X175322238Y-72769504D02*
X175369857Y-72721885D01*
X175369857Y-72721885D02*
X175465095Y-72674266D01*
X175465095Y-72674266D02*
X175607952Y-72674266D01*
X175607952Y-72674266D02*
X175703190Y-72721885D01*
X175703190Y-72721885D02*
X175750809Y-72769504D01*
X175750809Y-72769504D02*
X175798428Y-72864742D01*
X175798428Y-72864742D02*
X175798428Y-73245694D01*
X175274619Y-71817123D02*
X175274619Y-72007599D01*
X175274619Y-72007599D02*
X175322238Y-72102837D01*
X175322238Y-72102837D02*
X175369857Y-72150456D01*
X175369857Y-72150456D02*
X175512714Y-72245694D01*
X175512714Y-72245694D02*
X175703190Y-72293313D01*
X175703190Y-72293313D02*
X176084142Y-72293313D01*
X176084142Y-72293313D02*
X176179380Y-72245694D01*
X176179380Y-72245694D02*
X176227000Y-72198075D01*
X176227000Y-72198075D02*
X176274619Y-72102837D01*
X176274619Y-72102837D02*
X176274619Y-71912361D01*
X176274619Y-71912361D02*
X176227000Y-71817123D01*
X176227000Y-71817123D02*
X176179380Y-71769504D01*
X176179380Y-71769504D02*
X176084142Y-71721885D01*
X176084142Y-71721885D02*
X175846047Y-71721885D01*
X175846047Y-71721885D02*
X175750809Y-71769504D01*
X175750809Y-71769504D02*
X175703190Y-71817123D01*
X175703190Y-71817123D02*
X175655571Y-71912361D01*
X175655571Y-71912361D02*
X175655571Y-72102837D01*
X175655571Y-72102837D02*
X175703190Y-72198075D01*
X175703190Y-72198075D02*
X175750809Y-72245694D01*
X175750809Y-72245694D02*
X175846047Y-72293313D01*
X182730626Y-80279272D02*
X182663282Y-80279272D01*
X182663282Y-80279272D02*
X182528595Y-80211928D01*
X182528595Y-80211928D02*
X182461252Y-80144585D01*
X182461252Y-80144585D02*
X182393908Y-80009898D01*
X182393908Y-80009898D02*
X182393908Y-79875211D01*
X182393908Y-79875211D02*
X182427580Y-79774196D01*
X182427580Y-79774196D02*
X182528595Y-79605837D01*
X182528595Y-79605837D02*
X182629610Y-79504822D01*
X182629610Y-79504822D02*
X182797969Y-79403806D01*
X182797969Y-79403806D02*
X182898984Y-79370135D01*
X182898984Y-79370135D02*
X183033671Y-79370135D01*
X183033671Y-79370135D02*
X183168358Y-79437478D01*
X183168358Y-79437478D02*
X183235702Y-79504822D01*
X183235702Y-79504822D02*
X183303045Y-79639509D01*
X183303045Y-79639509D02*
X183303045Y-79706852D01*
X183336717Y-81020050D02*
X182932656Y-80615989D01*
X183134687Y-80818020D02*
X183841793Y-80110913D01*
X183841793Y-80110913D02*
X183673435Y-80144585D01*
X183673435Y-80144585D02*
X183538748Y-80144585D01*
X183538748Y-80144585D02*
X183437732Y-80110913D01*
X184556781Y-90997066D02*
X184604401Y-91044685D01*
X184604401Y-91044685D02*
X184652020Y-91187542D01*
X184652020Y-91187542D02*
X184652020Y-91282780D01*
X184652020Y-91282780D02*
X184604401Y-91425637D01*
X184604401Y-91425637D02*
X184509162Y-91520875D01*
X184509162Y-91520875D02*
X184413924Y-91568494D01*
X184413924Y-91568494D02*
X184223448Y-91616113D01*
X184223448Y-91616113D02*
X184080591Y-91616113D01*
X184080591Y-91616113D02*
X183890115Y-91568494D01*
X183890115Y-91568494D02*
X183794877Y-91520875D01*
X183794877Y-91520875D02*
X183699639Y-91425637D01*
X183699639Y-91425637D02*
X183652020Y-91282780D01*
X183652020Y-91282780D02*
X183652020Y-91187542D01*
X183652020Y-91187542D02*
X183699639Y-91044685D01*
X183699639Y-91044685D02*
X183747258Y-90997066D01*
X183652020Y-90092304D02*
X183652020Y-90568494D01*
X183652020Y-90568494D02*
X184128210Y-90616113D01*
X184128210Y-90616113D02*
X184080591Y-90568494D01*
X184080591Y-90568494D02*
X184032972Y-90473256D01*
X184032972Y-90473256D02*
X184032972Y-90235161D01*
X184032972Y-90235161D02*
X184080591Y-90139923D01*
X184080591Y-90139923D02*
X184128210Y-90092304D01*
X184128210Y-90092304D02*
X184223448Y-90044685D01*
X184223448Y-90044685D02*
X184461543Y-90044685D01*
X184461543Y-90044685D02*
X184556781Y-90092304D01*
X184556781Y-90092304D02*
X184604401Y-90139923D01*
X184604401Y-90139923D02*
X184652020Y-90235161D01*
X184652020Y-90235161D02*
X184652020Y-90473256D01*
X184652020Y-90473256D02*
X184604401Y-90568494D01*
X184604401Y-90568494D02*
X184556781Y-90616113D01*
X191035308Y-93184180D02*
X190987689Y-93231800D01*
X190987689Y-93231800D02*
X190844832Y-93279419D01*
X190844832Y-93279419D02*
X190749594Y-93279419D01*
X190749594Y-93279419D02*
X190606737Y-93231800D01*
X190606737Y-93231800D02*
X190511499Y-93136561D01*
X190511499Y-93136561D02*
X190463880Y-93041323D01*
X190463880Y-93041323D02*
X190416261Y-92850847D01*
X190416261Y-92850847D02*
X190416261Y-92707990D01*
X190416261Y-92707990D02*
X190463880Y-92517514D01*
X190463880Y-92517514D02*
X190511499Y-92422276D01*
X190511499Y-92422276D02*
X190606737Y-92327038D01*
X190606737Y-92327038D02*
X190749594Y-92279419D01*
X190749594Y-92279419D02*
X190844832Y-92279419D01*
X190844832Y-92279419D02*
X190987689Y-92327038D01*
X190987689Y-92327038D02*
X191035308Y-92374657D01*
X191892451Y-92612752D02*
X191892451Y-93279419D01*
X191654356Y-92231800D02*
X191416261Y-92946085D01*
X191416261Y-92946085D02*
X192035308Y-92946085D01*
X228448219Y-63908133D02*
X229162504Y-63908133D01*
X229162504Y-63908133D02*
X229305361Y-63955752D01*
X229305361Y-63955752D02*
X229400600Y-64050990D01*
X229400600Y-64050990D02*
X229448219Y-64193847D01*
X229448219Y-64193847D02*
X229448219Y-64289085D01*
X229448219Y-62908133D02*
X229448219Y-63479561D01*
X229448219Y-63193847D02*
X228448219Y-63193847D01*
X228448219Y-63193847D02*
X228591076Y-63289085D01*
X228591076Y-63289085D02*
X228686314Y-63384323D01*
X228686314Y-63384323D02*
X228733933Y-63479561D01*
X226735306Y-95069819D02*
X226735306Y-94069819D01*
X226735306Y-94069819D02*
X226973401Y-94069819D01*
X226973401Y-94069819D02*
X227116258Y-94117438D01*
X227116258Y-94117438D02*
X227211496Y-94212676D01*
X227211496Y-94212676D02*
X227259115Y-94307914D01*
X227259115Y-94307914D02*
X227306734Y-94498390D01*
X227306734Y-94498390D02*
X227306734Y-94641247D01*
X227306734Y-94641247D02*
X227259115Y-94831723D01*
X227259115Y-94831723D02*
X227211496Y-94926961D01*
X227211496Y-94926961D02*
X227116258Y-95022200D01*
X227116258Y-95022200D02*
X226973401Y-95069819D01*
X226973401Y-95069819D02*
X226735306Y-95069819D01*
X228163877Y-94403152D02*
X228163877Y-95069819D01*
X227925782Y-94022200D02*
X227687687Y-94736485D01*
X227687687Y-94736485D02*
X228306734Y-94736485D01*
X183637149Y-73840227D02*
X184344256Y-73133121D01*
X184344256Y-73133121D02*
X184512615Y-73301479D01*
X184512615Y-73301479D02*
X184579958Y-73436166D01*
X184579958Y-73436166D02*
X184579958Y-73570853D01*
X184579958Y-73570853D02*
X184546286Y-73671869D01*
X184546286Y-73671869D02*
X184445271Y-73840227D01*
X184445271Y-73840227D02*
X184344256Y-73941243D01*
X184344256Y-73941243D02*
X184175897Y-74042258D01*
X184175897Y-74042258D02*
X184074882Y-74075930D01*
X184074882Y-74075930D02*
X183940195Y-74075930D01*
X183940195Y-74075930D02*
X183805508Y-74008586D01*
X183805508Y-74008586D02*
X183637149Y-73840227D01*
X184950347Y-73873899D02*
X185017691Y-73873899D01*
X185017691Y-73873899D02*
X185118706Y-73907571D01*
X185118706Y-73907571D02*
X185287065Y-74075930D01*
X185287065Y-74075930D02*
X185320737Y-74176945D01*
X185320737Y-74176945D02*
X185320737Y-74244288D01*
X185320737Y-74244288D02*
X185287065Y-74345304D01*
X185287065Y-74345304D02*
X185219721Y-74412647D01*
X185219721Y-74412647D02*
X185085034Y-74479991D01*
X185085034Y-74479991D02*
X184276912Y-74479991D01*
X184276912Y-74479991D02*
X184714645Y-74917723D01*
X181053515Y-71709142D02*
X181760622Y-71002036D01*
X181457576Y-72113204D02*
X181558592Y-71406097D01*
X182164683Y-71406097D02*
X181356561Y-71406097D01*
X165058419Y-79879904D02*
X165867942Y-79879904D01*
X165867942Y-79879904D02*
X165963180Y-79832285D01*
X165963180Y-79832285D02*
X166010800Y-79784666D01*
X166010800Y-79784666D02*
X166058419Y-79689428D01*
X166058419Y-79689428D02*
X166058419Y-79498952D01*
X166058419Y-79498952D02*
X166010800Y-79403714D01*
X166010800Y-79403714D02*
X165963180Y-79356095D01*
X165963180Y-79356095D02*
X165867942Y-79308476D01*
X165867942Y-79308476D02*
X165058419Y-79308476D01*
X165153657Y-78879904D02*
X165106038Y-78832285D01*
X165106038Y-78832285D02*
X165058419Y-78737047D01*
X165058419Y-78737047D02*
X165058419Y-78498952D01*
X165058419Y-78498952D02*
X165106038Y-78403714D01*
X165106038Y-78403714D02*
X165153657Y-78356095D01*
X165153657Y-78356095D02*
X165248895Y-78308476D01*
X165248895Y-78308476D02*
X165344133Y-78308476D01*
X165344133Y-78308476D02*
X165486990Y-78356095D01*
X165486990Y-78356095D02*
X166058419Y-78927523D01*
X166058419Y-78927523D02*
X166058419Y-78308476D01*
X228482219Y-75441133D02*
X229196504Y-75441133D01*
X229196504Y-75441133D02*
X229339361Y-75488752D01*
X229339361Y-75488752D02*
X229434600Y-75583990D01*
X229434600Y-75583990D02*
X229482219Y-75726847D01*
X229482219Y-75726847D02*
X229482219Y-75822085D01*
X228482219Y-74536371D02*
X228482219Y-74726847D01*
X228482219Y-74726847D02*
X228529838Y-74822085D01*
X228529838Y-74822085D02*
X228577457Y-74869704D01*
X228577457Y-74869704D02*
X228720314Y-74964942D01*
X228720314Y-74964942D02*
X228910790Y-75012561D01*
X228910790Y-75012561D02*
X229291742Y-75012561D01*
X229291742Y-75012561D02*
X229386980Y-74964942D01*
X229386980Y-74964942D02*
X229434600Y-74917323D01*
X229434600Y-74917323D02*
X229482219Y-74822085D01*
X229482219Y-74822085D02*
X229482219Y-74631609D01*
X229482219Y-74631609D02*
X229434600Y-74536371D01*
X229434600Y-74536371D02*
X229386980Y-74488752D01*
X229386980Y-74488752D02*
X229291742Y-74441133D01*
X229291742Y-74441133D02*
X229053647Y-74441133D01*
X229053647Y-74441133D02*
X228958409Y-74488752D01*
X228958409Y-74488752D02*
X228910790Y-74536371D01*
X228910790Y-74536371D02*
X228863171Y-74631609D01*
X228863171Y-74631609D02*
X228863171Y-74822085D01*
X228863171Y-74822085D02*
X228910790Y-74917323D01*
X228910790Y-74917323D02*
X228958409Y-74964942D01*
X228958409Y-74964942D02*
X229053647Y-75012561D01*
X228482219Y-87226733D02*
X229196504Y-87226733D01*
X229196504Y-87226733D02*
X229339361Y-87274352D01*
X229339361Y-87274352D02*
X229434600Y-87369590D01*
X229434600Y-87369590D02*
X229482219Y-87512447D01*
X229482219Y-87512447D02*
X229482219Y-87607685D01*
X228910790Y-86607685D02*
X228863171Y-86702923D01*
X228863171Y-86702923D02*
X228815552Y-86750542D01*
X228815552Y-86750542D02*
X228720314Y-86798161D01*
X228720314Y-86798161D02*
X228672695Y-86798161D01*
X228672695Y-86798161D02*
X228577457Y-86750542D01*
X228577457Y-86750542D02*
X228529838Y-86702923D01*
X228529838Y-86702923D02*
X228482219Y-86607685D01*
X228482219Y-86607685D02*
X228482219Y-86417209D01*
X228482219Y-86417209D02*
X228529838Y-86321971D01*
X228529838Y-86321971D02*
X228577457Y-86274352D01*
X228577457Y-86274352D02*
X228672695Y-86226733D01*
X228672695Y-86226733D02*
X228720314Y-86226733D01*
X228720314Y-86226733D02*
X228815552Y-86274352D01*
X228815552Y-86274352D02*
X228863171Y-86321971D01*
X228863171Y-86321971D02*
X228910790Y-86417209D01*
X228910790Y-86417209D02*
X228910790Y-86607685D01*
X228910790Y-86607685D02*
X228958409Y-86702923D01*
X228958409Y-86702923D02*
X229006028Y-86750542D01*
X229006028Y-86750542D02*
X229101266Y-86798161D01*
X229101266Y-86798161D02*
X229291742Y-86798161D01*
X229291742Y-86798161D02*
X229386980Y-86750542D01*
X229386980Y-86750542D02*
X229434600Y-86702923D01*
X229434600Y-86702923D02*
X229482219Y-86607685D01*
X229482219Y-86607685D02*
X229482219Y-86417209D01*
X229482219Y-86417209D02*
X229434600Y-86321971D01*
X229434600Y-86321971D02*
X229386980Y-86274352D01*
X229386980Y-86274352D02*
X229291742Y-86226733D01*
X229291742Y-86226733D02*
X229101266Y-86226733D01*
X229101266Y-86226733D02*
X229006028Y-86274352D01*
X229006028Y-86274352D02*
X228958409Y-86321971D01*
X228958409Y-86321971D02*
X228910790Y-86417209D01*
X182095495Y-92267019D02*
X182095495Y-93076542D01*
X182095495Y-93076542D02*
X182143114Y-93171780D01*
X182143114Y-93171780D02*
X182190733Y-93219400D01*
X182190733Y-93219400D02*
X182285971Y-93267019D01*
X182285971Y-93267019D02*
X182476447Y-93267019D01*
X182476447Y-93267019D02*
X182571685Y-93219400D01*
X182571685Y-93219400D02*
X182619304Y-93171780D01*
X182619304Y-93171780D02*
X182666923Y-93076542D01*
X182666923Y-93076542D02*
X182666923Y-92267019D01*
X183666923Y-93267019D02*
X183095495Y-93267019D01*
X183381209Y-93267019D02*
X183381209Y-92267019D01*
X183381209Y-92267019D02*
X183285971Y-92409876D01*
X183285971Y-92409876D02*
X183190733Y-92505114D01*
X183190733Y-92505114D02*
X183095495Y-92552733D01*
X201190019Y-88034666D02*
X200713828Y-88367999D01*
X201190019Y-88606094D02*
X200190019Y-88606094D01*
X200190019Y-88606094D02*
X200190019Y-88225142D01*
X200190019Y-88225142D02*
X200237638Y-88129904D01*
X200237638Y-88129904D02*
X200285257Y-88082285D01*
X200285257Y-88082285D02*
X200380495Y-88034666D01*
X200380495Y-88034666D02*
X200523352Y-88034666D01*
X200523352Y-88034666D02*
X200618590Y-88082285D01*
X200618590Y-88082285D02*
X200666209Y-88129904D01*
X200666209Y-88129904D02*
X200713828Y-88225142D01*
X200713828Y-88225142D02*
X200713828Y-88606094D01*
X200285257Y-87653713D02*
X200237638Y-87606094D01*
X200237638Y-87606094D02*
X200190019Y-87510856D01*
X200190019Y-87510856D02*
X200190019Y-87272761D01*
X200190019Y-87272761D02*
X200237638Y-87177523D01*
X200237638Y-87177523D02*
X200285257Y-87129904D01*
X200285257Y-87129904D02*
X200380495Y-87082285D01*
X200380495Y-87082285D02*
X200475733Y-87082285D01*
X200475733Y-87082285D02*
X200618590Y-87129904D01*
X200618590Y-87129904D02*
X201190019Y-87701332D01*
X201190019Y-87701332D02*
X201190019Y-87082285D01*
X195702466Y-47270619D02*
X195702466Y-47984904D01*
X195702466Y-47984904D02*
X195654847Y-48127761D01*
X195654847Y-48127761D02*
X195559609Y-48223000D01*
X195559609Y-48223000D02*
X195416752Y-48270619D01*
X195416752Y-48270619D02*
X195321514Y-48270619D01*
X196607228Y-47603952D02*
X196607228Y-48270619D01*
X196369133Y-47223000D02*
X196131038Y-47937285D01*
X196131038Y-47937285D02*
X196750085Y-47937285D01*
X180971866Y-47236619D02*
X180971866Y-47950904D01*
X180971866Y-47950904D02*
X180924247Y-48093761D01*
X180924247Y-48093761D02*
X180829009Y-48189000D01*
X180829009Y-48189000D02*
X180686152Y-48236619D01*
X180686152Y-48236619D02*
X180590914Y-48236619D01*
X181400438Y-47331857D02*
X181448057Y-47284238D01*
X181448057Y-47284238D02*
X181543295Y-47236619D01*
X181543295Y-47236619D02*
X181781390Y-47236619D01*
X181781390Y-47236619D02*
X181876628Y-47284238D01*
X181876628Y-47284238D02*
X181924247Y-47331857D01*
X181924247Y-47331857D02*
X181971866Y-47427095D01*
X181971866Y-47427095D02*
X181971866Y-47522333D01*
X181971866Y-47522333D02*
X181924247Y-47665190D01*
X181924247Y-47665190D02*
X181352819Y-48236619D01*
X181352819Y-48236619D02*
X181971866Y-48236619D01*
D12*
%TO.C,K1*%
X208607400Y-75179799D02*
X208607400Y-68579801D01*
X208607400Y-75179799D02*
X188807400Y-75179800D01*
X208607400Y-66179799D02*
X208607400Y-59579801D01*
X204557400Y-67329800D02*
X205357400Y-67329800D01*
X204557400Y-67329800D02*
X204557400Y-63729800D01*
X203657400Y-61329800D02*
X201157400Y-61329800D01*
X203157400Y-69129799D02*
X199157400Y-69129799D01*
X203157400Y-65529800D02*
X203157400Y-69129799D01*
X201157400Y-73329800D02*
X203657400Y-73329800D01*
X201157400Y-73329800D02*
X201157400Y-69129800D01*
X201157400Y-65529799D02*
X201157400Y-61329800D01*
X199157400Y-69129799D02*
X199157400Y-65529800D01*
X199157400Y-65529800D02*
X203157400Y-69129799D01*
X199157400Y-65529800D02*
X203157400Y-65529800D01*
X197757400Y-67329800D02*
X197757400Y-63729800D01*
X197757400Y-67329800D02*
X196257400Y-67329800D01*
X197757400Y-63729800D02*
X204557400Y-63729800D01*
X196257400Y-67329800D02*
X191657400Y-69829800D01*
X193057401Y-71579800D02*
X193057401Y-69079800D01*
X193057401Y-63179800D02*
X193057400Y-65629800D01*
X188807400Y-75179800D02*
X188807400Y-59579800D01*
X188807400Y-59579800D02*
X208607400Y-59579801D01*
%TO.C,D1*%
X214122000Y-64463801D02*
X214122000Y-65113800D01*
X215242000Y-65113801D02*
X213002000Y-65113801D01*
X213002000Y-65113801D02*
X213002000Y-69353801D01*
X215242000Y-65713801D02*
X213002000Y-65713801D01*
X215242000Y-65833801D02*
X213002000Y-65833801D01*
X215242000Y-65953801D02*
X213002000Y-65953801D01*
X215242000Y-69353801D02*
X215242000Y-65113801D01*
X213002000Y-69353801D02*
X215242000Y-69353801D01*
X214122000Y-70003802D02*
X214122000Y-69353801D01*
%TO.C,R5*%
X194870400Y-88095064D02*
X194870400Y-87640936D01*
X196340400Y-88095064D02*
X196340400Y-87640936D01*
%TO.C,R7*%
X178050435Y-78378882D02*
X177729318Y-78057765D01*
X179089882Y-77339435D02*
X178768765Y-77018318D01*
%TO.C,J5*%
X206315400Y-50522400D02*
X206315400Y-53597400D01*
X206315400Y-53597400D02*
X216185401Y-53597400D01*
X207735400Y-49007400D02*
X207735400Y-49507400D01*
X207735400Y-49507400D02*
X214765400Y-49507399D01*
X207755399Y-49007400D02*
X207735400Y-49007400D01*
X214765400Y-49007400D02*
X214745400Y-49007400D01*
X214765400Y-49507399D02*
X214765400Y-49007400D01*
X216185401Y-53597400D02*
X216185400Y-50522400D01*
%TO.C,R10*%
X219660736Y-93854600D02*
X220114864Y-93854600D01*
X219660736Y-95324600D02*
X220114864Y-95324600D01*
%TO.C,Q1*%
X203278500Y-86217700D02*
X202628500Y-86217700D01*
X203278500Y-86217700D02*
X203928500Y-86217700D01*
X203278500Y-89337700D02*
X202628500Y-89337700D01*
X203278500Y-89337700D02*
X203928500Y-89337700D01*
X202116000Y-86267700D02*
X201876000Y-85937700D01*
X202356000Y-85937700D01*
X202116000Y-86267700D01*
G36*
X202116000Y-86267700D02*
G01*
X201876000Y-85937700D01*
X202356000Y-85937700D01*
X202116000Y-86267700D01*
G37*
%TO.C,C2*%
X166569800Y-71816853D02*
X166569800Y-71294347D01*
X168039800Y-71816853D02*
X168039800Y-71294347D01*
%TO.C,J3*%
X215197600Y-101801400D02*
X215197600Y-98726400D01*
X215197600Y-98726400D02*
X205327599Y-98726400D01*
X213777600Y-103316400D02*
X213777600Y-102816400D01*
X213777600Y-102816400D02*
X206747600Y-102816401D01*
X213757601Y-103316400D02*
X213777600Y-103316400D01*
X206747600Y-103316400D02*
X206767600Y-103316400D01*
X206747600Y-102816401D02*
X206747600Y-103316400D01*
X205327599Y-98726400D02*
X205327600Y-101801400D01*
%TO.C,R6*%
X176734800Y-72734664D02*
X176734800Y-72280536D01*
X178204800Y-72734664D02*
X178204800Y-72280536D01*
%TO.C,C1*%
X182249790Y-80626343D02*
X182619257Y-80995810D01*
X181210343Y-81665790D02*
X181579810Y-82035257D01*
%TO.C,C5*%
X185142200Y-91091653D02*
X185142200Y-90569147D01*
X186612200Y-91091653D02*
X186612200Y-90569147D01*
%TO.C,C4*%
X188397200Y-95099600D02*
X188897200Y-95099600D01*
X188647200Y-94849600D02*
X188647200Y-95349600D01*
X191201975Y-93994600D02*
X191201975Y-95534600D01*
X191201975Y-97614600D02*
X191201975Y-99154600D01*
X191241975Y-93994600D02*
X191241975Y-95534600D01*
X191241975Y-97614600D02*
X191241975Y-99154600D01*
X191281975Y-93995600D02*
X191281975Y-95534600D01*
X191281975Y-97614600D02*
X191281975Y-99153600D01*
X191321975Y-93997600D02*
X191321975Y-95534600D01*
X191321975Y-97614600D02*
X191321975Y-99151600D01*
X191361975Y-93999600D02*
X191361975Y-95534600D01*
X191361975Y-97614600D02*
X191361975Y-99149600D01*
X191401975Y-94002600D02*
X191401975Y-95534600D01*
X191401975Y-97614600D02*
X191401975Y-99146600D01*
X191441975Y-94005600D02*
X191441975Y-95534600D01*
X191441975Y-97614600D02*
X191441975Y-99143600D01*
X191481975Y-94009600D02*
X191481975Y-95534600D01*
X191481975Y-97614600D02*
X191481975Y-99139600D01*
X191521975Y-94014600D02*
X191521975Y-95534600D01*
X191521975Y-97614600D02*
X191521975Y-99134600D01*
X191561975Y-94019600D02*
X191561975Y-95534600D01*
X191561975Y-97614600D02*
X191561975Y-99129600D01*
X191601975Y-94025600D02*
X191601975Y-95534600D01*
X191601975Y-97614600D02*
X191601975Y-99123600D01*
X191641975Y-94031600D02*
X191641975Y-95534600D01*
X191641975Y-97614600D02*
X191641975Y-99117600D01*
X191681975Y-94038600D02*
X191681975Y-95534600D01*
X191681975Y-97614600D02*
X191681975Y-99110600D01*
X191721975Y-94046600D02*
X191721975Y-95534600D01*
X191721975Y-97614600D02*
X191721975Y-99102600D01*
X191761975Y-94055600D02*
X191761975Y-95534600D01*
X191761975Y-97614600D02*
X191761975Y-99093600D01*
X191801975Y-94064600D02*
X191801975Y-95534600D01*
X191801975Y-97614600D02*
X191801975Y-99084600D01*
X191841975Y-94073600D02*
X191841975Y-95534600D01*
X191841975Y-97614600D02*
X191841975Y-99075600D01*
X191881975Y-94084600D02*
X191881975Y-95534600D01*
X191881975Y-97614600D02*
X191881975Y-99064600D01*
X191921975Y-94095600D02*
X191921975Y-95534600D01*
X191921975Y-97614600D02*
X191921975Y-99053600D01*
X191961975Y-94107600D02*
X191961975Y-95534600D01*
X191961975Y-97614600D02*
X191961975Y-99041600D01*
X192001975Y-94119600D02*
X192001975Y-95534600D01*
X192001975Y-97614600D02*
X192001975Y-99029600D01*
X192041975Y-94132600D02*
X192041975Y-95534600D01*
X192041975Y-97614600D02*
X192041975Y-99016600D01*
X192081975Y-94146600D02*
X192081975Y-95534600D01*
X192081975Y-97614600D02*
X192081975Y-99002600D01*
X192121975Y-94161600D02*
X192121975Y-95534600D01*
X192121975Y-97614600D02*
X192121975Y-98987600D01*
X192161975Y-94176600D02*
X192161975Y-95534600D01*
X192161975Y-97614600D02*
X192161975Y-98972600D01*
X192201975Y-94192600D02*
X192201975Y-95534600D01*
X192201975Y-97614600D02*
X192201975Y-98956600D01*
X192241975Y-94209600D02*
X192241975Y-95534600D01*
X192241975Y-97614600D02*
X192241975Y-98939600D01*
X192281975Y-94227600D02*
X192281975Y-95534600D01*
X192281975Y-97614600D02*
X192281975Y-98921600D01*
X192321975Y-94245600D02*
X192321975Y-95534600D01*
X192321975Y-97614600D02*
X192321975Y-98903600D01*
X192361975Y-94265600D02*
X192361975Y-95534600D01*
X192361975Y-97614600D02*
X192361975Y-98883600D01*
X192401975Y-94285600D02*
X192401975Y-95534600D01*
X192401975Y-97614600D02*
X192401975Y-98863600D01*
X192441975Y-94306600D02*
X192441975Y-95534600D01*
X192441975Y-97614600D02*
X192441975Y-98842600D01*
X192481975Y-94328600D02*
X192481975Y-95534600D01*
X192481975Y-97614600D02*
X192481975Y-98820600D01*
X192521975Y-94351600D02*
X192521975Y-95534600D01*
X192521975Y-97614600D02*
X192521975Y-98797600D01*
X192561975Y-94375600D02*
X192561975Y-95534600D01*
X192561975Y-97614600D02*
X192561975Y-98773600D01*
X192601975Y-94399600D02*
X192601975Y-95534600D01*
X192601975Y-97614600D02*
X192601975Y-98749600D01*
X192641975Y-94425600D02*
X192641975Y-95534600D01*
X192641975Y-97614600D02*
X192641975Y-98723600D01*
X192681975Y-94452600D02*
X192681975Y-95534600D01*
X192681975Y-97614600D02*
X192681975Y-98696600D01*
X192721975Y-94480600D02*
X192721975Y-95534600D01*
X192721975Y-97614600D02*
X192721975Y-98668600D01*
X192761975Y-94509600D02*
X192761975Y-95534600D01*
X192761975Y-97614600D02*
X192761975Y-98639600D01*
X192801975Y-94539600D02*
X192801975Y-95534600D01*
X192801975Y-97614600D02*
X192801975Y-98609600D01*
X192841975Y-94571600D02*
X192841975Y-95534600D01*
X192841975Y-97614600D02*
X192841975Y-98577600D01*
X192881975Y-94604600D02*
X192881975Y-95534600D01*
X192881975Y-97614600D02*
X192881975Y-98544600D01*
X192921975Y-94638600D02*
X192921975Y-95534600D01*
X192921975Y-97614600D02*
X192921975Y-98510600D01*
X192961975Y-94673600D02*
X192961975Y-95534600D01*
X192961975Y-97614600D02*
X192961975Y-98475600D01*
X193001975Y-94710600D02*
X193001975Y-95534600D01*
X193001975Y-97614600D02*
X193001975Y-98438600D01*
X193041975Y-94749600D02*
X193041975Y-95534600D01*
X193041975Y-97614600D02*
X193041975Y-98399600D01*
X193081975Y-94789600D02*
X193081975Y-95534600D01*
X193081975Y-97614600D02*
X193081975Y-98359600D01*
X193121975Y-94831600D02*
X193121975Y-95534600D01*
X193121975Y-97614600D02*
X193121975Y-98317600D01*
X193161975Y-94875600D02*
X193161975Y-95534600D01*
X193161975Y-97614600D02*
X193161975Y-98273600D01*
X193201975Y-94922600D02*
X193201975Y-95534600D01*
X193201975Y-97614600D02*
X193201975Y-98226600D01*
X193241975Y-94970600D02*
X193241975Y-98178600D01*
X193281975Y-95021600D02*
X193281975Y-98127600D01*
X193321975Y-95075600D02*
X193321975Y-98073600D01*
X193361975Y-95131600D02*
X193361975Y-98017600D01*
X193401975Y-95191600D02*
X193401975Y-97957600D01*
X193441975Y-95255600D02*
X193441975Y-97893600D01*
X193481975Y-95323600D02*
X193481975Y-97825600D01*
X193521975Y-95397600D02*
X193521975Y-97751600D01*
X193561975Y-95476600D02*
X193561975Y-97672600D01*
X193601975Y-95563600D02*
X193601975Y-97585600D01*
X193641975Y-95660600D02*
X193641975Y-97488600D01*
X193681975Y-95769600D02*
X193681975Y-97379600D01*
X193721975Y-95897600D02*
X193721975Y-97251600D01*
X193761975Y-96057600D02*
X193761975Y-97091600D01*
X193801975Y-96291600D02*
X193801975Y-96857600D01*
X193821975Y-96574600D02*
G75*
G02*
X188581975Y-96574600I-2620000J0D01*
G01*
X188581975Y-96574600D02*
G75*
G02*
X193821975Y-96574600I2620000J0D01*
G01*
%TO.C,J1*%
X226388400Y-58639800D02*
X223313400Y-58639800D01*
X223313400Y-58639800D02*
X223313400Y-68509801D01*
X227903400Y-60059800D02*
X227403400Y-60059800D01*
X227403400Y-60059800D02*
X227403401Y-67089800D01*
X227903400Y-60079799D02*
X227903400Y-60059800D01*
X227903400Y-67089800D02*
X227903400Y-67069800D01*
X227403401Y-67089800D02*
X227903400Y-67089800D01*
X223313400Y-68509801D02*
X226388400Y-68509800D01*
%TO.C,D4*%
X226260001Y-95549600D02*
X226260001Y-93629600D01*
X226260001Y-93629600D02*
X223400001Y-93629600D01*
X223400001Y-95549600D02*
X226260001Y-95549600D01*
%TO.C,D2*%
X181022915Y-73580915D02*
X181482534Y-74040534D01*
X182274494Y-73248575D02*
X180690575Y-74832494D01*
X180690575Y-74832494D02*
X183688708Y-77830627D01*
X182698758Y-73672839D02*
X181114839Y-75256758D01*
X182783611Y-73757692D02*
X181199692Y-75341611D01*
X182868464Y-73842545D02*
X181284545Y-75426464D01*
X185272627Y-76246708D02*
X182274494Y-73248575D01*
X183688708Y-77830627D02*
X185272627Y-76246708D01*
X184940287Y-77498287D02*
X184480667Y-77038667D01*
D13*
%TO.C,U2*%
X166713600Y-79863000D02*
X166713600Y-77523000D01*
X175363600Y-79863000D02*
X175363600Y-77523000D01*
D10*
X167038600Y-82743000D02*
G75*
G02*
X166838600Y-82743000I-100000J0D01*
G01*
X166838600Y-82743000D02*
G75*
G02*
X167038600Y-82743000I100000J0D01*
G01*
D12*
%TO.C,J6*%
X226422400Y-70172800D02*
X223347400Y-70172800D01*
X223347400Y-70172800D02*
X223347400Y-80042801D01*
X227937400Y-71592800D02*
X227437400Y-71592800D01*
X227437400Y-71592800D02*
X227437401Y-78622800D01*
X227937400Y-71612799D02*
X227937400Y-71592800D01*
X227937400Y-78622800D02*
X227937400Y-78602800D01*
X227437401Y-78622800D02*
X227937400Y-78622800D01*
X223347400Y-80042801D02*
X226422400Y-80042800D01*
%TO.C,J8*%
X223347400Y-81958400D02*
X223347400Y-91828401D01*
X223347400Y-91828401D02*
X226422400Y-91828400D01*
X226422400Y-81958400D02*
X223347400Y-81958400D01*
X227437400Y-83378400D02*
X227437401Y-90408400D01*
X227437401Y-90408400D02*
X227937400Y-90408400D01*
X227937400Y-83378400D02*
X227437400Y-83378400D01*
X227937400Y-83398399D02*
X227937400Y-83378400D01*
X227937400Y-90408400D02*
X227937400Y-90388400D01*
D13*
%TO.C,U1*%
X182112400Y-93922200D02*
X184452400Y-93922200D01*
X182112400Y-102572200D02*
X184452400Y-102572200D01*
D10*
X179332400Y-94147200D02*
G75*
G02*
X179132400Y-94147200I-100000J0D01*
G01*
X179132400Y-94147200D02*
G75*
G02*
X179332400Y-94147200I100000J0D01*
G01*
D12*
%TO.C,R2*%
X199820200Y-87640936D02*
X199820200Y-88095064D01*
X198350200Y-87640936D02*
X198350200Y-88095064D01*
%TO.C,J4*%
X191100800Y-50420800D02*
X191100800Y-53495800D01*
X191100800Y-53495800D02*
X200970800Y-53495800D01*
X192520800Y-48905800D02*
X192520800Y-49405800D01*
X192520800Y-49405800D02*
X199550800Y-49405800D01*
X192540800Y-48905800D02*
X192520800Y-48905800D01*
X199550800Y-48905800D02*
X199530800Y-48905800D01*
X199550800Y-49405800D02*
X199550800Y-48905800D01*
X200970800Y-53495800D02*
X200970800Y-50420800D01*
%TO.C,J2*%
X176370200Y-50386800D02*
X176370200Y-53461800D01*
X176370200Y-53461800D02*
X186240200Y-53461800D01*
X177790200Y-48871800D02*
X177790200Y-49371800D01*
X177790200Y-49371800D02*
X184820200Y-49371800D01*
X177810200Y-48871800D02*
X177790200Y-48871800D01*
X184820200Y-48871800D02*
X184800200Y-48871800D01*
X184820200Y-49371800D02*
X184820200Y-48871800D01*
X186240200Y-53461800D02*
X186240200Y-50386800D01*
%TD*%
M02*
