%TF.GenerationSoftware,KiCad,Pcbnew,9.0.2*%
%TF.CreationDate,2026-04-22T11:55:21+08:00*%
%TF.ProjectId,BDUCU,42445543-552e-46b6-9963-61645f706362,rev?*%
%TF.SameCoordinates,Original*%
%TF.FileFunction,Legend,Bot*%
%TF.FilePolarity,Positive*%
%FSLAX46Y46*%
G04 Gerber Fmt 4.6, Leading zero omitted, Abs format (unit mm)*
G04 Created by KiCad (PCBNEW 9.0.2) date 2026-04-22 11:55:21*
%MOMM*%
%LPD*%
G01*
G04 APERTURE LIST*
%ADD10C,0.150000*%
%ADD11C,0.120000*%
%ADD12C,0.300000*%
%ADD13C,0.127000*%
%ADD14C,0.200000*%
G04 APERTURE END LIST*
D10*
X151442857Y-87459580D02*
X151490476Y-87507200D01*
X151490476Y-87507200D02*
X151633333Y-87554819D01*
X151633333Y-87554819D02*
X151728571Y-87554819D01*
X151728571Y-87554819D02*
X151871428Y-87507200D01*
X151871428Y-87507200D02*
X151966666Y-87411961D01*
X151966666Y-87411961D02*
X152014285Y-87316723D01*
X152014285Y-87316723D02*
X152061904Y-87126247D01*
X152061904Y-87126247D02*
X152061904Y-86983390D01*
X152061904Y-86983390D02*
X152014285Y-86792914D01*
X152014285Y-86792914D02*
X151966666Y-86697676D01*
X151966666Y-86697676D02*
X151871428Y-86602438D01*
X151871428Y-86602438D02*
X151728571Y-86554819D01*
X151728571Y-86554819D02*
X151633333Y-86554819D01*
X151633333Y-86554819D02*
X151490476Y-86602438D01*
X151490476Y-86602438D02*
X151442857Y-86650057D01*
X151061904Y-86650057D02*
X151014285Y-86602438D01*
X151014285Y-86602438D02*
X150919047Y-86554819D01*
X150919047Y-86554819D02*
X150680952Y-86554819D01*
X150680952Y-86554819D02*
X150585714Y-86602438D01*
X150585714Y-86602438D02*
X150538095Y-86650057D01*
X150538095Y-86650057D02*
X150490476Y-86745295D01*
X150490476Y-86745295D02*
X150490476Y-86840533D01*
X150490476Y-86840533D02*
X150538095Y-86983390D01*
X150538095Y-86983390D02*
X151109523Y-87554819D01*
X151109523Y-87554819D02*
X150490476Y-87554819D01*
X149585714Y-86554819D02*
X150061904Y-86554819D01*
X150061904Y-86554819D02*
X150109523Y-87031009D01*
X150109523Y-87031009D02*
X150061904Y-86983390D01*
X150061904Y-86983390D02*
X149966666Y-86935771D01*
X149966666Y-86935771D02*
X149728571Y-86935771D01*
X149728571Y-86935771D02*
X149633333Y-86983390D01*
X149633333Y-86983390D02*
X149585714Y-87031009D01*
X149585714Y-87031009D02*
X149538095Y-87126247D01*
X149538095Y-87126247D02*
X149538095Y-87364342D01*
X149538095Y-87364342D02*
X149585714Y-87459580D01*
X149585714Y-87459580D02*
X149633333Y-87507200D01*
X149633333Y-87507200D02*
X149728571Y-87554819D01*
X149728571Y-87554819D02*
X149966666Y-87554819D01*
X149966666Y-87554819D02*
X150061904Y-87507200D01*
X150061904Y-87507200D02*
X150109523Y-87459580D01*
X118242857Y-83259580D02*
X118290476Y-83307200D01*
X118290476Y-83307200D02*
X118433333Y-83354819D01*
X118433333Y-83354819D02*
X118528571Y-83354819D01*
X118528571Y-83354819D02*
X118671428Y-83307200D01*
X118671428Y-83307200D02*
X118766666Y-83211961D01*
X118766666Y-83211961D02*
X118814285Y-83116723D01*
X118814285Y-83116723D02*
X118861904Y-82926247D01*
X118861904Y-82926247D02*
X118861904Y-82783390D01*
X118861904Y-82783390D02*
X118814285Y-82592914D01*
X118814285Y-82592914D02*
X118766666Y-82497676D01*
X118766666Y-82497676D02*
X118671428Y-82402438D01*
X118671428Y-82402438D02*
X118528571Y-82354819D01*
X118528571Y-82354819D02*
X118433333Y-82354819D01*
X118433333Y-82354819D02*
X118290476Y-82402438D01*
X118290476Y-82402438D02*
X118242857Y-82450057D01*
X117861904Y-82450057D02*
X117814285Y-82402438D01*
X117814285Y-82402438D02*
X117719047Y-82354819D01*
X117719047Y-82354819D02*
X117480952Y-82354819D01*
X117480952Y-82354819D02*
X117385714Y-82402438D01*
X117385714Y-82402438D02*
X117338095Y-82450057D01*
X117338095Y-82450057D02*
X117290476Y-82545295D01*
X117290476Y-82545295D02*
X117290476Y-82640533D01*
X117290476Y-82640533D02*
X117338095Y-82783390D01*
X117338095Y-82783390D02*
X117909523Y-83354819D01*
X117909523Y-83354819D02*
X117290476Y-83354819D01*
X116338095Y-83354819D02*
X116909523Y-83354819D01*
X116623809Y-83354819D02*
X116623809Y-82354819D01*
X116623809Y-82354819D02*
X116719047Y-82497676D01*
X116719047Y-82497676D02*
X116814285Y-82592914D01*
X116814285Y-82592914D02*
X116909523Y-82640533D01*
X136255462Y-91112319D02*
X136588795Y-90636128D01*
X136826890Y-91112319D02*
X136826890Y-90112319D01*
X136826890Y-90112319D02*
X136445938Y-90112319D01*
X136445938Y-90112319D02*
X136350700Y-90159938D01*
X136350700Y-90159938D02*
X136303081Y-90207557D01*
X136303081Y-90207557D02*
X136255462Y-90302795D01*
X136255462Y-90302795D02*
X136255462Y-90445652D01*
X136255462Y-90445652D02*
X136303081Y-90540890D01*
X136303081Y-90540890D02*
X136350700Y-90588509D01*
X136350700Y-90588509D02*
X136445938Y-90636128D01*
X136445938Y-90636128D02*
X136826890Y-90636128D01*
X135874509Y-90207557D02*
X135826890Y-90159938D01*
X135826890Y-90159938D02*
X135731652Y-90112319D01*
X135731652Y-90112319D02*
X135493557Y-90112319D01*
X135493557Y-90112319D02*
X135398319Y-90159938D01*
X135398319Y-90159938D02*
X135350700Y-90207557D01*
X135350700Y-90207557D02*
X135303081Y-90302795D01*
X135303081Y-90302795D02*
X135303081Y-90398033D01*
X135303081Y-90398033D02*
X135350700Y-90540890D01*
X135350700Y-90540890D02*
X135922128Y-91112319D01*
X135922128Y-91112319D02*
X135303081Y-91112319D01*
X134969747Y-90112319D02*
X134303081Y-90112319D01*
X134303081Y-90112319D02*
X134731652Y-91112319D01*
X156895357Y-56657319D02*
X157228690Y-56181128D01*
X157466785Y-56657319D02*
X157466785Y-55657319D01*
X157466785Y-55657319D02*
X157085833Y-55657319D01*
X157085833Y-55657319D02*
X156990595Y-55704938D01*
X156990595Y-55704938D02*
X156942976Y-55752557D01*
X156942976Y-55752557D02*
X156895357Y-55847795D01*
X156895357Y-55847795D02*
X156895357Y-55990652D01*
X156895357Y-55990652D02*
X156942976Y-56085890D01*
X156942976Y-56085890D02*
X156990595Y-56133509D01*
X156990595Y-56133509D02*
X157085833Y-56181128D01*
X157085833Y-56181128D02*
X157466785Y-56181128D01*
X155990595Y-55657319D02*
X156466785Y-55657319D01*
X156466785Y-55657319D02*
X156514404Y-56133509D01*
X156514404Y-56133509D02*
X156466785Y-56085890D01*
X156466785Y-56085890D02*
X156371547Y-56038271D01*
X156371547Y-56038271D02*
X156133452Y-56038271D01*
X156133452Y-56038271D02*
X156038214Y-56085890D01*
X156038214Y-56085890D02*
X155990595Y-56133509D01*
X155990595Y-56133509D02*
X155942976Y-56228747D01*
X155942976Y-56228747D02*
X155942976Y-56466842D01*
X155942976Y-56466842D02*
X155990595Y-56562080D01*
X155990595Y-56562080D02*
X156038214Y-56609700D01*
X156038214Y-56609700D02*
X156133452Y-56657319D01*
X156133452Y-56657319D02*
X156371547Y-56657319D01*
X156371547Y-56657319D02*
X156466785Y-56609700D01*
X156466785Y-56609700D02*
X156514404Y-56562080D01*
X155085833Y-55657319D02*
X155276309Y-55657319D01*
X155276309Y-55657319D02*
X155371547Y-55704938D01*
X155371547Y-55704938D02*
X155419166Y-55752557D01*
X155419166Y-55752557D02*
X155514404Y-55895414D01*
X155514404Y-55895414D02*
X155562023Y-56085890D01*
X155562023Y-56085890D02*
X155562023Y-56466842D01*
X155562023Y-56466842D02*
X155514404Y-56562080D01*
X155514404Y-56562080D02*
X155466785Y-56609700D01*
X155466785Y-56609700D02*
X155371547Y-56657319D01*
X155371547Y-56657319D02*
X155181071Y-56657319D01*
X155181071Y-56657319D02*
X155085833Y-56609700D01*
X155085833Y-56609700D02*
X155038214Y-56562080D01*
X155038214Y-56562080D02*
X154990595Y-56466842D01*
X154990595Y-56466842D02*
X154990595Y-56228747D01*
X154990595Y-56228747D02*
X155038214Y-56133509D01*
X155038214Y-56133509D02*
X155085833Y-56085890D01*
X155085833Y-56085890D02*
X155181071Y-56038271D01*
X155181071Y-56038271D02*
X155371547Y-56038271D01*
X155371547Y-56038271D02*
X155466785Y-56085890D01*
X155466785Y-56085890D02*
X155514404Y-56133509D01*
X155514404Y-56133509D02*
X155562023Y-56228747D01*
X167442857Y-98659580D02*
X167490476Y-98707200D01*
X167490476Y-98707200D02*
X167633333Y-98754819D01*
X167633333Y-98754819D02*
X167728571Y-98754819D01*
X167728571Y-98754819D02*
X167871428Y-98707200D01*
X167871428Y-98707200D02*
X167966666Y-98611961D01*
X167966666Y-98611961D02*
X168014285Y-98516723D01*
X168014285Y-98516723D02*
X168061904Y-98326247D01*
X168061904Y-98326247D02*
X168061904Y-98183390D01*
X168061904Y-98183390D02*
X168014285Y-97992914D01*
X168014285Y-97992914D02*
X167966666Y-97897676D01*
X167966666Y-97897676D02*
X167871428Y-97802438D01*
X167871428Y-97802438D02*
X167728571Y-97754819D01*
X167728571Y-97754819D02*
X167633333Y-97754819D01*
X167633333Y-97754819D02*
X167490476Y-97802438D01*
X167490476Y-97802438D02*
X167442857Y-97850057D01*
X167061904Y-97850057D02*
X167014285Y-97802438D01*
X167014285Y-97802438D02*
X166919047Y-97754819D01*
X166919047Y-97754819D02*
X166680952Y-97754819D01*
X166680952Y-97754819D02*
X166585714Y-97802438D01*
X166585714Y-97802438D02*
X166538095Y-97850057D01*
X166538095Y-97850057D02*
X166490476Y-97945295D01*
X166490476Y-97945295D02*
X166490476Y-98040533D01*
X166490476Y-98040533D02*
X166538095Y-98183390D01*
X166538095Y-98183390D02*
X167109523Y-98754819D01*
X167109523Y-98754819D02*
X166490476Y-98754819D01*
X165919047Y-98183390D02*
X166014285Y-98135771D01*
X166014285Y-98135771D02*
X166061904Y-98088152D01*
X166061904Y-98088152D02*
X166109523Y-97992914D01*
X166109523Y-97992914D02*
X166109523Y-97945295D01*
X166109523Y-97945295D02*
X166061904Y-97850057D01*
X166061904Y-97850057D02*
X166014285Y-97802438D01*
X166014285Y-97802438D02*
X165919047Y-97754819D01*
X165919047Y-97754819D02*
X165728571Y-97754819D01*
X165728571Y-97754819D02*
X165633333Y-97802438D01*
X165633333Y-97802438D02*
X165585714Y-97850057D01*
X165585714Y-97850057D02*
X165538095Y-97945295D01*
X165538095Y-97945295D02*
X165538095Y-97992914D01*
X165538095Y-97992914D02*
X165585714Y-98088152D01*
X165585714Y-98088152D02*
X165633333Y-98135771D01*
X165633333Y-98135771D02*
X165728571Y-98183390D01*
X165728571Y-98183390D02*
X165919047Y-98183390D01*
X165919047Y-98183390D02*
X166014285Y-98231009D01*
X166014285Y-98231009D02*
X166061904Y-98278628D01*
X166061904Y-98278628D02*
X166109523Y-98373866D01*
X166109523Y-98373866D02*
X166109523Y-98564342D01*
X166109523Y-98564342D02*
X166061904Y-98659580D01*
X166061904Y-98659580D02*
X166014285Y-98707200D01*
X166014285Y-98707200D02*
X165919047Y-98754819D01*
X165919047Y-98754819D02*
X165728571Y-98754819D01*
X165728571Y-98754819D02*
X165633333Y-98707200D01*
X165633333Y-98707200D02*
X165585714Y-98659580D01*
X165585714Y-98659580D02*
X165538095Y-98564342D01*
X165538095Y-98564342D02*
X165538095Y-98373866D01*
X165538095Y-98373866D02*
X165585714Y-98278628D01*
X165585714Y-98278628D02*
X165633333Y-98231009D01*
X165633333Y-98231009D02*
X165728571Y-98183390D01*
X142988094Y-40304819D02*
X142988094Y-41114342D01*
X142988094Y-41114342D02*
X142940475Y-41209580D01*
X142940475Y-41209580D02*
X142892856Y-41257200D01*
X142892856Y-41257200D02*
X142797618Y-41304819D01*
X142797618Y-41304819D02*
X142607142Y-41304819D01*
X142607142Y-41304819D02*
X142511904Y-41257200D01*
X142511904Y-41257200D02*
X142464285Y-41209580D01*
X142464285Y-41209580D02*
X142416666Y-41114342D01*
X142416666Y-41114342D02*
X142416666Y-40304819D01*
X141416666Y-41304819D02*
X141988094Y-41304819D01*
X141702380Y-41304819D02*
X141702380Y-40304819D01*
X141702380Y-40304819D02*
X141797618Y-40447676D01*
X141797618Y-40447676D02*
X141892856Y-40542914D01*
X141892856Y-40542914D02*
X141988094Y-40590533D01*
X140845237Y-40733390D02*
X140940475Y-40685771D01*
X140940475Y-40685771D02*
X140988094Y-40638152D01*
X140988094Y-40638152D02*
X141035713Y-40542914D01*
X141035713Y-40542914D02*
X141035713Y-40495295D01*
X141035713Y-40495295D02*
X140988094Y-40400057D01*
X140988094Y-40400057D02*
X140940475Y-40352438D01*
X140940475Y-40352438D02*
X140845237Y-40304819D01*
X140845237Y-40304819D02*
X140654761Y-40304819D01*
X140654761Y-40304819D02*
X140559523Y-40352438D01*
X140559523Y-40352438D02*
X140511904Y-40400057D01*
X140511904Y-40400057D02*
X140464285Y-40495295D01*
X140464285Y-40495295D02*
X140464285Y-40542914D01*
X140464285Y-40542914D02*
X140511904Y-40638152D01*
X140511904Y-40638152D02*
X140559523Y-40685771D01*
X140559523Y-40685771D02*
X140654761Y-40733390D01*
X140654761Y-40733390D02*
X140845237Y-40733390D01*
X140845237Y-40733390D02*
X140940475Y-40781009D01*
X140940475Y-40781009D02*
X140988094Y-40828628D01*
X140988094Y-40828628D02*
X141035713Y-40923866D01*
X141035713Y-40923866D02*
X141035713Y-41114342D01*
X141035713Y-41114342D02*
X140988094Y-41209580D01*
X140988094Y-41209580D02*
X140940475Y-41257200D01*
X140940475Y-41257200D02*
X140845237Y-41304819D01*
X140845237Y-41304819D02*
X140654761Y-41304819D01*
X140654761Y-41304819D02*
X140559523Y-41257200D01*
X140559523Y-41257200D02*
X140511904Y-41209580D01*
X140511904Y-41209580D02*
X140464285Y-41114342D01*
X140464285Y-41114342D02*
X140464285Y-40923866D01*
X140464285Y-40923866D02*
X140511904Y-40828628D01*
X140511904Y-40828628D02*
X140559523Y-40781009D01*
X140559523Y-40781009D02*
X140654761Y-40733390D01*
X178904819Y-82142142D02*
X178428628Y-81808809D01*
X178904819Y-81570714D02*
X177904819Y-81570714D01*
X177904819Y-81570714D02*
X177904819Y-81951666D01*
X177904819Y-81951666D02*
X177952438Y-82046904D01*
X177952438Y-82046904D02*
X178000057Y-82094523D01*
X178000057Y-82094523D02*
X178095295Y-82142142D01*
X178095295Y-82142142D02*
X178238152Y-82142142D01*
X178238152Y-82142142D02*
X178333390Y-82094523D01*
X178333390Y-82094523D02*
X178381009Y-82046904D01*
X178381009Y-82046904D02*
X178428628Y-81951666D01*
X178428628Y-81951666D02*
X178428628Y-81570714D01*
X177904819Y-82475476D02*
X177904819Y-83094523D01*
X177904819Y-83094523D02*
X178285771Y-82761190D01*
X178285771Y-82761190D02*
X178285771Y-82904047D01*
X178285771Y-82904047D02*
X178333390Y-82999285D01*
X178333390Y-82999285D02*
X178381009Y-83046904D01*
X178381009Y-83046904D02*
X178476247Y-83094523D01*
X178476247Y-83094523D02*
X178714342Y-83094523D01*
X178714342Y-83094523D02*
X178809580Y-83046904D01*
X178809580Y-83046904D02*
X178857200Y-82999285D01*
X178857200Y-82999285D02*
X178904819Y-82904047D01*
X178904819Y-82904047D02*
X178904819Y-82618333D01*
X178904819Y-82618333D02*
X178857200Y-82523095D01*
X178857200Y-82523095D02*
X178809580Y-82475476D01*
X177904819Y-83427857D02*
X177904819Y-84046904D01*
X177904819Y-84046904D02*
X178285771Y-83713571D01*
X178285771Y-83713571D02*
X178285771Y-83856428D01*
X178285771Y-83856428D02*
X178333390Y-83951666D01*
X178333390Y-83951666D02*
X178381009Y-83999285D01*
X178381009Y-83999285D02*
X178476247Y-84046904D01*
X178476247Y-84046904D02*
X178714342Y-84046904D01*
X178714342Y-84046904D02*
X178809580Y-83999285D01*
X178809580Y-83999285D02*
X178857200Y-83951666D01*
X178857200Y-83951666D02*
X178904819Y-83856428D01*
X178904819Y-83856428D02*
X178904819Y-83570714D01*
X178904819Y-83570714D02*
X178857200Y-83475476D01*
X178857200Y-83475476D02*
X178809580Y-83427857D01*
X169286293Y-90747080D02*
X169333912Y-90794700D01*
X169333912Y-90794700D02*
X169476769Y-90842319D01*
X169476769Y-90842319D02*
X169572007Y-90842319D01*
X169572007Y-90842319D02*
X169714864Y-90794700D01*
X169714864Y-90794700D02*
X169810102Y-90699461D01*
X169810102Y-90699461D02*
X169857721Y-90604223D01*
X169857721Y-90604223D02*
X169905340Y-90413747D01*
X169905340Y-90413747D02*
X169905340Y-90270890D01*
X169905340Y-90270890D02*
X169857721Y-90080414D01*
X169857721Y-90080414D02*
X169810102Y-89985176D01*
X169810102Y-89985176D02*
X169714864Y-89889938D01*
X169714864Y-89889938D02*
X169572007Y-89842319D01*
X169572007Y-89842319D02*
X169476769Y-89842319D01*
X169476769Y-89842319D02*
X169333912Y-89889938D01*
X169333912Y-89889938D02*
X169286293Y-89937557D01*
X168952959Y-89842319D02*
X168333912Y-89842319D01*
X168333912Y-89842319D02*
X168667245Y-90223271D01*
X168667245Y-90223271D02*
X168524388Y-90223271D01*
X168524388Y-90223271D02*
X168429150Y-90270890D01*
X168429150Y-90270890D02*
X168381531Y-90318509D01*
X168381531Y-90318509D02*
X168333912Y-90413747D01*
X168333912Y-90413747D02*
X168333912Y-90651842D01*
X168333912Y-90651842D02*
X168381531Y-90747080D01*
X168381531Y-90747080D02*
X168429150Y-90794700D01*
X168429150Y-90794700D02*
X168524388Y-90842319D01*
X168524388Y-90842319D02*
X168810102Y-90842319D01*
X168810102Y-90842319D02*
X168905340Y-90794700D01*
X168905340Y-90794700D02*
X168952959Y-90747080D01*
X167714864Y-89842319D02*
X167619626Y-89842319D01*
X167619626Y-89842319D02*
X167524388Y-89889938D01*
X167524388Y-89889938D02*
X167476769Y-89937557D01*
X167476769Y-89937557D02*
X167429150Y-90032795D01*
X167429150Y-90032795D02*
X167381531Y-90223271D01*
X167381531Y-90223271D02*
X167381531Y-90461366D01*
X167381531Y-90461366D02*
X167429150Y-90651842D01*
X167429150Y-90651842D02*
X167476769Y-90747080D01*
X167476769Y-90747080D02*
X167524388Y-90794700D01*
X167524388Y-90794700D02*
X167619626Y-90842319D01*
X167619626Y-90842319D02*
X167714864Y-90842319D01*
X167714864Y-90842319D02*
X167810102Y-90794700D01*
X167810102Y-90794700D02*
X167857721Y-90747080D01*
X167857721Y-90747080D02*
X167905340Y-90651842D01*
X167905340Y-90651842D02*
X167952959Y-90461366D01*
X167952959Y-90461366D02*
X167952959Y-90223271D01*
X167952959Y-90223271D02*
X167905340Y-90032795D01*
X167905340Y-90032795D02*
X167857721Y-89937557D01*
X167857721Y-89937557D02*
X167810102Y-89889938D01*
X167810102Y-89889938D02*
X167714864Y-89842319D01*
X179190475Y-74362295D02*
X179190475Y-73562295D01*
X179190475Y-73562295D02*
X178999999Y-73562295D01*
X178999999Y-73562295D02*
X178885713Y-73600390D01*
X178885713Y-73600390D02*
X178809523Y-73676580D01*
X178809523Y-73676580D02*
X178771428Y-73752771D01*
X178771428Y-73752771D02*
X178733332Y-73905152D01*
X178733332Y-73905152D02*
X178733332Y-74019438D01*
X178733332Y-74019438D02*
X178771428Y-74171819D01*
X178771428Y-74171819D02*
X178809523Y-74248009D01*
X178809523Y-74248009D02*
X178885713Y-74324200D01*
X178885713Y-74324200D02*
X178999999Y-74362295D01*
X178999999Y-74362295D02*
X179190475Y-74362295D01*
X178047618Y-73562295D02*
X178199999Y-73562295D01*
X178199999Y-73562295D02*
X178276190Y-73600390D01*
X178276190Y-73600390D02*
X178314285Y-73638485D01*
X178314285Y-73638485D02*
X178390475Y-73752771D01*
X178390475Y-73752771D02*
X178428571Y-73905152D01*
X178428571Y-73905152D02*
X178428571Y-74209914D01*
X178428571Y-74209914D02*
X178390475Y-74286104D01*
X178390475Y-74286104D02*
X178352380Y-74324200D01*
X178352380Y-74324200D02*
X178276190Y-74362295D01*
X178276190Y-74362295D02*
X178123809Y-74362295D01*
X178123809Y-74362295D02*
X178047618Y-74324200D01*
X178047618Y-74324200D02*
X178009523Y-74286104D01*
X178009523Y-74286104D02*
X177971428Y-74209914D01*
X177971428Y-74209914D02*
X177971428Y-74019438D01*
X177971428Y-74019438D02*
X178009523Y-73943247D01*
X178009523Y-73943247D02*
X178047618Y-73905152D01*
X178047618Y-73905152D02*
X178123809Y-73867057D01*
X178123809Y-73867057D02*
X178276190Y-73867057D01*
X178276190Y-73867057D02*
X178352380Y-73905152D01*
X178352380Y-73905152D02*
X178390475Y-73943247D01*
X178390475Y-73943247D02*
X178428571Y-74019438D01*
X157642857Y-98659580D02*
X157690476Y-98707200D01*
X157690476Y-98707200D02*
X157833333Y-98754819D01*
X157833333Y-98754819D02*
X157928571Y-98754819D01*
X157928571Y-98754819D02*
X158071428Y-98707200D01*
X158071428Y-98707200D02*
X158166666Y-98611961D01*
X158166666Y-98611961D02*
X158214285Y-98516723D01*
X158214285Y-98516723D02*
X158261904Y-98326247D01*
X158261904Y-98326247D02*
X158261904Y-98183390D01*
X158261904Y-98183390D02*
X158214285Y-97992914D01*
X158214285Y-97992914D02*
X158166666Y-97897676D01*
X158166666Y-97897676D02*
X158071428Y-97802438D01*
X158071428Y-97802438D02*
X157928571Y-97754819D01*
X157928571Y-97754819D02*
X157833333Y-97754819D01*
X157833333Y-97754819D02*
X157690476Y-97802438D01*
X157690476Y-97802438D02*
X157642857Y-97850057D01*
X156690476Y-98754819D02*
X157261904Y-98754819D01*
X156976190Y-98754819D02*
X156976190Y-97754819D01*
X156976190Y-97754819D02*
X157071428Y-97897676D01*
X157071428Y-97897676D02*
X157166666Y-97992914D01*
X157166666Y-97992914D02*
X157261904Y-98040533D01*
X156214285Y-98754819D02*
X156023809Y-98754819D01*
X156023809Y-98754819D02*
X155928571Y-98707200D01*
X155928571Y-98707200D02*
X155880952Y-98659580D01*
X155880952Y-98659580D02*
X155785714Y-98516723D01*
X155785714Y-98516723D02*
X155738095Y-98326247D01*
X155738095Y-98326247D02*
X155738095Y-97945295D01*
X155738095Y-97945295D02*
X155785714Y-97850057D01*
X155785714Y-97850057D02*
X155833333Y-97802438D01*
X155833333Y-97802438D02*
X155928571Y-97754819D01*
X155928571Y-97754819D02*
X156119047Y-97754819D01*
X156119047Y-97754819D02*
X156214285Y-97802438D01*
X156214285Y-97802438D02*
X156261904Y-97850057D01*
X156261904Y-97850057D02*
X156309523Y-97945295D01*
X156309523Y-97945295D02*
X156309523Y-98183390D01*
X156309523Y-98183390D02*
X156261904Y-98278628D01*
X156261904Y-98278628D02*
X156214285Y-98326247D01*
X156214285Y-98326247D02*
X156119047Y-98373866D01*
X156119047Y-98373866D02*
X155928571Y-98373866D01*
X155928571Y-98373866D02*
X155833333Y-98326247D01*
X155833333Y-98326247D02*
X155785714Y-98278628D01*
X155785714Y-98278628D02*
X155738095Y-98183390D01*
X173942857Y-69054819D02*
X174276190Y-68578628D01*
X174514285Y-69054819D02*
X174514285Y-68054819D01*
X174514285Y-68054819D02*
X174133333Y-68054819D01*
X174133333Y-68054819D02*
X174038095Y-68102438D01*
X174038095Y-68102438D02*
X173990476Y-68150057D01*
X173990476Y-68150057D02*
X173942857Y-68245295D01*
X173942857Y-68245295D02*
X173942857Y-68388152D01*
X173942857Y-68388152D02*
X173990476Y-68483390D01*
X173990476Y-68483390D02*
X174038095Y-68531009D01*
X174038095Y-68531009D02*
X174133333Y-68578628D01*
X174133333Y-68578628D02*
X174514285Y-68578628D01*
X173609523Y-68054819D02*
X172990476Y-68054819D01*
X172990476Y-68054819D02*
X173323809Y-68435771D01*
X173323809Y-68435771D02*
X173180952Y-68435771D01*
X173180952Y-68435771D02*
X173085714Y-68483390D01*
X173085714Y-68483390D02*
X173038095Y-68531009D01*
X173038095Y-68531009D02*
X172990476Y-68626247D01*
X172990476Y-68626247D02*
X172990476Y-68864342D01*
X172990476Y-68864342D02*
X173038095Y-68959580D01*
X173038095Y-68959580D02*
X173085714Y-69007200D01*
X173085714Y-69007200D02*
X173180952Y-69054819D01*
X173180952Y-69054819D02*
X173466666Y-69054819D01*
X173466666Y-69054819D02*
X173561904Y-69007200D01*
X173561904Y-69007200D02*
X173609523Y-68959580D01*
X172133333Y-68054819D02*
X172323809Y-68054819D01*
X172323809Y-68054819D02*
X172419047Y-68102438D01*
X172419047Y-68102438D02*
X172466666Y-68150057D01*
X172466666Y-68150057D02*
X172561904Y-68292914D01*
X172561904Y-68292914D02*
X172609523Y-68483390D01*
X172609523Y-68483390D02*
X172609523Y-68864342D01*
X172609523Y-68864342D02*
X172561904Y-68959580D01*
X172561904Y-68959580D02*
X172514285Y-69007200D01*
X172514285Y-69007200D02*
X172419047Y-69054819D01*
X172419047Y-69054819D02*
X172228571Y-69054819D01*
X172228571Y-69054819D02*
X172133333Y-69007200D01*
X172133333Y-69007200D02*
X172085714Y-68959580D01*
X172085714Y-68959580D02*
X172038095Y-68864342D01*
X172038095Y-68864342D02*
X172038095Y-68626247D01*
X172038095Y-68626247D02*
X172085714Y-68531009D01*
X172085714Y-68531009D02*
X172133333Y-68483390D01*
X172133333Y-68483390D02*
X172228571Y-68435771D01*
X172228571Y-68435771D02*
X172419047Y-68435771D01*
X172419047Y-68435771D02*
X172514285Y-68483390D01*
X172514285Y-68483390D02*
X172561904Y-68531009D01*
X172561904Y-68531009D02*
X172609523Y-68626247D01*
X132395238Y-58757080D02*
X132442857Y-58804700D01*
X132442857Y-58804700D02*
X132585714Y-58852319D01*
X132585714Y-58852319D02*
X132680952Y-58852319D01*
X132680952Y-58852319D02*
X132823809Y-58804700D01*
X132823809Y-58804700D02*
X132919047Y-58709461D01*
X132919047Y-58709461D02*
X132966666Y-58614223D01*
X132966666Y-58614223D02*
X133014285Y-58423747D01*
X133014285Y-58423747D02*
X133014285Y-58280890D01*
X133014285Y-58280890D02*
X132966666Y-58090414D01*
X132966666Y-58090414D02*
X132919047Y-57995176D01*
X132919047Y-57995176D02*
X132823809Y-57899938D01*
X132823809Y-57899938D02*
X132680952Y-57852319D01*
X132680952Y-57852319D02*
X132585714Y-57852319D01*
X132585714Y-57852319D02*
X132442857Y-57899938D01*
X132442857Y-57899938D02*
X132395238Y-57947557D01*
X132014285Y-58566604D02*
X131538095Y-58566604D01*
X132109523Y-58852319D02*
X131776190Y-57852319D01*
X131776190Y-57852319D02*
X131442857Y-58852319D01*
X130585714Y-58852319D02*
X131157142Y-58852319D01*
X130871428Y-58852319D02*
X130871428Y-57852319D01*
X130871428Y-57852319D02*
X130966666Y-57995176D01*
X130966666Y-57995176D02*
X131061904Y-58090414D01*
X131061904Y-58090414D02*
X131157142Y-58138033D01*
X144544163Y-80841125D02*
X144877496Y-80364934D01*
X145115591Y-80841125D02*
X145115591Y-79841125D01*
X145115591Y-79841125D02*
X144734639Y-79841125D01*
X144734639Y-79841125D02*
X144639401Y-79888744D01*
X144639401Y-79888744D02*
X144591782Y-79936363D01*
X144591782Y-79936363D02*
X144544163Y-80031601D01*
X144544163Y-80031601D02*
X144544163Y-80174458D01*
X144544163Y-80174458D02*
X144591782Y-80269696D01*
X144591782Y-80269696D02*
X144639401Y-80317315D01*
X144639401Y-80317315D02*
X144734639Y-80364934D01*
X144734639Y-80364934D02*
X145115591Y-80364934D01*
X144210829Y-79841125D02*
X143544163Y-79841125D01*
X143544163Y-79841125D02*
X143972734Y-80841125D01*
X143210829Y-79936363D02*
X143163210Y-79888744D01*
X143163210Y-79888744D02*
X143067972Y-79841125D01*
X143067972Y-79841125D02*
X142829877Y-79841125D01*
X142829877Y-79841125D02*
X142734639Y-79888744D01*
X142734639Y-79888744D02*
X142687020Y-79936363D01*
X142687020Y-79936363D02*
X142639401Y-80031601D01*
X142639401Y-80031601D02*
X142639401Y-80126839D01*
X142639401Y-80126839D02*
X142687020Y-80269696D01*
X142687020Y-80269696D02*
X143258448Y-80841125D01*
X143258448Y-80841125D02*
X142639401Y-80841125D01*
X148994163Y-77566125D02*
X149327496Y-77089934D01*
X149565591Y-77566125D02*
X149565591Y-76566125D01*
X149565591Y-76566125D02*
X149184639Y-76566125D01*
X149184639Y-76566125D02*
X149089401Y-76613744D01*
X149089401Y-76613744D02*
X149041782Y-76661363D01*
X149041782Y-76661363D02*
X148994163Y-76756601D01*
X148994163Y-76756601D02*
X148994163Y-76899458D01*
X148994163Y-76899458D02*
X149041782Y-76994696D01*
X149041782Y-76994696D02*
X149089401Y-77042315D01*
X149089401Y-77042315D02*
X149184639Y-77089934D01*
X149184639Y-77089934D02*
X149565591Y-77089934D01*
X148660829Y-76566125D02*
X147994163Y-76566125D01*
X147994163Y-76566125D02*
X148422734Y-77566125D01*
X147089401Y-77566125D02*
X147660829Y-77566125D01*
X147375115Y-77566125D02*
X147375115Y-76566125D01*
X147375115Y-76566125D02*
X147470353Y-76708982D01*
X147470353Y-76708982D02*
X147565591Y-76804220D01*
X147565591Y-76804220D02*
X147660829Y-76851839D01*
X128690357Y-48847281D02*
X129023690Y-48371090D01*
X129261785Y-48847281D02*
X129261785Y-47847281D01*
X129261785Y-47847281D02*
X128880833Y-47847281D01*
X128880833Y-47847281D02*
X128785595Y-47894900D01*
X128785595Y-47894900D02*
X128737976Y-47942519D01*
X128737976Y-47942519D02*
X128690357Y-48037757D01*
X128690357Y-48037757D02*
X128690357Y-48180614D01*
X128690357Y-48180614D02*
X128737976Y-48275852D01*
X128737976Y-48275852D02*
X128785595Y-48323471D01*
X128785595Y-48323471D02*
X128880833Y-48371090D01*
X128880833Y-48371090D02*
X129261785Y-48371090D01*
X128357023Y-47847281D02*
X127737976Y-47847281D01*
X127737976Y-47847281D02*
X128071309Y-48228233D01*
X128071309Y-48228233D02*
X127928452Y-48228233D01*
X127928452Y-48228233D02*
X127833214Y-48275852D01*
X127833214Y-48275852D02*
X127785595Y-48323471D01*
X127785595Y-48323471D02*
X127737976Y-48418709D01*
X127737976Y-48418709D02*
X127737976Y-48656804D01*
X127737976Y-48656804D02*
X127785595Y-48752042D01*
X127785595Y-48752042D02*
X127833214Y-48799662D01*
X127833214Y-48799662D02*
X127928452Y-48847281D01*
X127928452Y-48847281D02*
X128214166Y-48847281D01*
X128214166Y-48847281D02*
X128309404Y-48799662D01*
X128309404Y-48799662D02*
X128357023Y-48752042D01*
X127357023Y-47942519D02*
X127309404Y-47894900D01*
X127309404Y-47894900D02*
X127214166Y-47847281D01*
X127214166Y-47847281D02*
X126976071Y-47847281D01*
X126976071Y-47847281D02*
X126880833Y-47894900D01*
X126880833Y-47894900D02*
X126833214Y-47942519D01*
X126833214Y-47942519D02*
X126785595Y-48037757D01*
X126785595Y-48037757D02*
X126785595Y-48132995D01*
X126785595Y-48132995D02*
X126833214Y-48275852D01*
X126833214Y-48275852D02*
X127404642Y-48847281D01*
X127404642Y-48847281D02*
X126785595Y-48847281D01*
X178904819Y-68642142D02*
X178428628Y-68308809D01*
X178904819Y-68070714D02*
X177904819Y-68070714D01*
X177904819Y-68070714D02*
X177904819Y-68451666D01*
X177904819Y-68451666D02*
X177952438Y-68546904D01*
X177952438Y-68546904D02*
X178000057Y-68594523D01*
X178000057Y-68594523D02*
X178095295Y-68642142D01*
X178095295Y-68642142D02*
X178238152Y-68642142D01*
X178238152Y-68642142D02*
X178333390Y-68594523D01*
X178333390Y-68594523D02*
X178381009Y-68546904D01*
X178381009Y-68546904D02*
X178428628Y-68451666D01*
X178428628Y-68451666D02*
X178428628Y-68070714D01*
X177904819Y-68975476D02*
X177904819Y-69594523D01*
X177904819Y-69594523D02*
X178285771Y-69261190D01*
X178285771Y-69261190D02*
X178285771Y-69404047D01*
X178285771Y-69404047D02*
X178333390Y-69499285D01*
X178333390Y-69499285D02*
X178381009Y-69546904D01*
X178381009Y-69546904D02*
X178476247Y-69594523D01*
X178476247Y-69594523D02*
X178714342Y-69594523D01*
X178714342Y-69594523D02*
X178809580Y-69546904D01*
X178809580Y-69546904D02*
X178857200Y-69499285D01*
X178857200Y-69499285D02*
X178904819Y-69404047D01*
X178904819Y-69404047D02*
X178904819Y-69118333D01*
X178904819Y-69118333D02*
X178857200Y-69023095D01*
X178857200Y-69023095D02*
X178809580Y-68975476D01*
X178238152Y-70451666D02*
X178904819Y-70451666D01*
X177857200Y-70213571D02*
X178571485Y-69975476D01*
X178571485Y-69975476D02*
X178571485Y-70594523D01*
X156895238Y-58659580D02*
X156942857Y-58707200D01*
X156942857Y-58707200D02*
X157085714Y-58754819D01*
X157085714Y-58754819D02*
X157180952Y-58754819D01*
X157180952Y-58754819D02*
X157323809Y-58707200D01*
X157323809Y-58707200D02*
X157419047Y-58611961D01*
X157419047Y-58611961D02*
X157466666Y-58516723D01*
X157466666Y-58516723D02*
X157514285Y-58326247D01*
X157514285Y-58326247D02*
X157514285Y-58183390D01*
X157514285Y-58183390D02*
X157466666Y-57992914D01*
X157466666Y-57992914D02*
X157419047Y-57897676D01*
X157419047Y-57897676D02*
X157323809Y-57802438D01*
X157323809Y-57802438D02*
X157180952Y-57754819D01*
X157180952Y-57754819D02*
X157085714Y-57754819D01*
X157085714Y-57754819D02*
X156942857Y-57802438D01*
X156942857Y-57802438D02*
X156895238Y-57850057D01*
X156514285Y-58469104D02*
X156038095Y-58469104D01*
X156609523Y-58754819D02*
X156276190Y-57754819D01*
X156276190Y-57754819D02*
X155942857Y-58754819D01*
X155180952Y-58088152D02*
X155180952Y-58754819D01*
X155419047Y-57707200D02*
X155657142Y-58421485D01*
X155657142Y-58421485D02*
X155038095Y-58421485D01*
X128690357Y-46847281D02*
X129023690Y-46371090D01*
X129261785Y-46847281D02*
X129261785Y-45847281D01*
X129261785Y-45847281D02*
X128880833Y-45847281D01*
X128880833Y-45847281D02*
X128785595Y-45894900D01*
X128785595Y-45894900D02*
X128737976Y-45942519D01*
X128737976Y-45942519D02*
X128690357Y-46037757D01*
X128690357Y-46037757D02*
X128690357Y-46180614D01*
X128690357Y-46180614D02*
X128737976Y-46275852D01*
X128737976Y-46275852D02*
X128785595Y-46323471D01*
X128785595Y-46323471D02*
X128880833Y-46371090D01*
X128880833Y-46371090D02*
X129261785Y-46371090D01*
X128357023Y-45847281D02*
X127737976Y-45847281D01*
X127737976Y-45847281D02*
X128071309Y-46228233D01*
X128071309Y-46228233D02*
X127928452Y-46228233D01*
X127928452Y-46228233D02*
X127833214Y-46275852D01*
X127833214Y-46275852D02*
X127785595Y-46323471D01*
X127785595Y-46323471D02*
X127737976Y-46418709D01*
X127737976Y-46418709D02*
X127737976Y-46656804D01*
X127737976Y-46656804D02*
X127785595Y-46752042D01*
X127785595Y-46752042D02*
X127833214Y-46799662D01*
X127833214Y-46799662D02*
X127928452Y-46847281D01*
X127928452Y-46847281D02*
X128214166Y-46847281D01*
X128214166Y-46847281D02*
X128309404Y-46799662D01*
X128309404Y-46799662D02*
X128357023Y-46752042D01*
X127404642Y-45847281D02*
X126737976Y-45847281D01*
X126737976Y-45847281D02*
X127166547Y-46847281D01*
X148519838Y-57059580D02*
X148567457Y-57107200D01*
X148567457Y-57107200D02*
X148710314Y-57154819D01*
X148710314Y-57154819D02*
X148805552Y-57154819D01*
X148805552Y-57154819D02*
X148948409Y-57107200D01*
X148948409Y-57107200D02*
X149043647Y-57011961D01*
X149043647Y-57011961D02*
X149091266Y-56916723D01*
X149091266Y-56916723D02*
X149138885Y-56726247D01*
X149138885Y-56726247D02*
X149138885Y-56583390D01*
X149138885Y-56583390D02*
X149091266Y-56392914D01*
X149091266Y-56392914D02*
X149043647Y-56297676D01*
X149043647Y-56297676D02*
X148948409Y-56202438D01*
X148948409Y-56202438D02*
X148805552Y-56154819D01*
X148805552Y-56154819D02*
X148710314Y-56154819D01*
X148710314Y-56154819D02*
X148567457Y-56202438D01*
X148567457Y-56202438D02*
X148519838Y-56250057D01*
X148138885Y-56869104D02*
X147662695Y-56869104D01*
X148234123Y-57154819D02*
X147900790Y-56154819D01*
X147900790Y-56154819D02*
X147567457Y-57154819D01*
X147329361Y-56154819D02*
X146710314Y-56154819D01*
X146710314Y-56154819D02*
X147043647Y-56535771D01*
X147043647Y-56535771D02*
X146900790Y-56535771D01*
X146900790Y-56535771D02*
X146805552Y-56583390D01*
X146805552Y-56583390D02*
X146757933Y-56631009D01*
X146757933Y-56631009D02*
X146710314Y-56726247D01*
X146710314Y-56726247D02*
X146710314Y-56964342D01*
X146710314Y-56964342D02*
X146757933Y-57059580D01*
X146757933Y-57059580D02*
X146805552Y-57107200D01*
X146805552Y-57107200D02*
X146900790Y-57154819D01*
X146900790Y-57154819D02*
X147186504Y-57154819D01*
X147186504Y-57154819D02*
X147281742Y-57107200D01*
X147281742Y-57107200D02*
X147329361Y-57059580D01*
X134179580Y-43107142D02*
X134227200Y-43059523D01*
X134227200Y-43059523D02*
X134274819Y-42916666D01*
X134274819Y-42916666D02*
X134274819Y-42821428D01*
X134274819Y-42821428D02*
X134227200Y-42678571D01*
X134227200Y-42678571D02*
X134131961Y-42583333D01*
X134131961Y-42583333D02*
X134036723Y-42535714D01*
X134036723Y-42535714D02*
X133846247Y-42488095D01*
X133846247Y-42488095D02*
X133703390Y-42488095D01*
X133703390Y-42488095D02*
X133512914Y-42535714D01*
X133512914Y-42535714D02*
X133417676Y-42583333D01*
X133417676Y-42583333D02*
X133322438Y-42678571D01*
X133322438Y-42678571D02*
X133274819Y-42821428D01*
X133274819Y-42821428D02*
X133274819Y-42916666D01*
X133274819Y-42916666D02*
X133322438Y-43059523D01*
X133322438Y-43059523D02*
X133370057Y-43107142D01*
X133608152Y-43964285D02*
X134274819Y-43964285D01*
X133227200Y-43726190D02*
X133941485Y-43488095D01*
X133941485Y-43488095D02*
X133941485Y-44107142D01*
X133370057Y-44440476D02*
X133322438Y-44488095D01*
X133322438Y-44488095D02*
X133274819Y-44583333D01*
X133274819Y-44583333D02*
X133274819Y-44821428D01*
X133274819Y-44821428D02*
X133322438Y-44916666D01*
X133322438Y-44916666D02*
X133370057Y-44964285D01*
X133370057Y-44964285D02*
X133465295Y-45011904D01*
X133465295Y-45011904D02*
X133560533Y-45011904D01*
X133560533Y-45011904D02*
X133703390Y-44964285D01*
X133703390Y-44964285D02*
X134274819Y-44392857D01*
X134274819Y-44392857D02*
X134274819Y-45011904D01*
X147047769Y-98854819D02*
X147381102Y-98378628D01*
X147619197Y-98854819D02*
X147619197Y-97854819D01*
X147619197Y-97854819D02*
X147238245Y-97854819D01*
X147238245Y-97854819D02*
X147143007Y-97902438D01*
X147143007Y-97902438D02*
X147095388Y-97950057D01*
X147095388Y-97950057D02*
X147047769Y-98045295D01*
X147047769Y-98045295D02*
X147047769Y-98188152D01*
X147047769Y-98188152D02*
X147095388Y-98283390D01*
X147095388Y-98283390D02*
X147143007Y-98331009D01*
X147143007Y-98331009D02*
X147238245Y-98378628D01*
X147238245Y-98378628D02*
X147619197Y-98378628D01*
X146666816Y-97950057D02*
X146619197Y-97902438D01*
X146619197Y-97902438D02*
X146523959Y-97854819D01*
X146523959Y-97854819D02*
X146285864Y-97854819D01*
X146285864Y-97854819D02*
X146190626Y-97902438D01*
X146190626Y-97902438D02*
X146143007Y-97950057D01*
X146143007Y-97950057D02*
X146095388Y-98045295D01*
X146095388Y-98045295D02*
X146095388Y-98140533D01*
X146095388Y-98140533D02*
X146143007Y-98283390D01*
X146143007Y-98283390D02*
X146714435Y-98854819D01*
X146714435Y-98854819D02*
X146095388Y-98854819D01*
X145523959Y-98283390D02*
X145619197Y-98235771D01*
X145619197Y-98235771D02*
X145666816Y-98188152D01*
X145666816Y-98188152D02*
X145714435Y-98092914D01*
X145714435Y-98092914D02*
X145714435Y-98045295D01*
X145714435Y-98045295D02*
X145666816Y-97950057D01*
X145666816Y-97950057D02*
X145619197Y-97902438D01*
X145619197Y-97902438D02*
X145523959Y-97854819D01*
X145523959Y-97854819D02*
X145333483Y-97854819D01*
X145333483Y-97854819D02*
X145238245Y-97902438D01*
X145238245Y-97902438D02*
X145190626Y-97950057D01*
X145190626Y-97950057D02*
X145143007Y-98045295D01*
X145143007Y-98045295D02*
X145143007Y-98092914D01*
X145143007Y-98092914D02*
X145190626Y-98188152D01*
X145190626Y-98188152D02*
X145238245Y-98235771D01*
X145238245Y-98235771D02*
X145333483Y-98283390D01*
X145333483Y-98283390D02*
X145523959Y-98283390D01*
X145523959Y-98283390D02*
X145619197Y-98331009D01*
X145619197Y-98331009D02*
X145666816Y-98378628D01*
X145666816Y-98378628D02*
X145714435Y-98473866D01*
X145714435Y-98473866D02*
X145714435Y-98664342D01*
X145714435Y-98664342D02*
X145666816Y-98759580D01*
X145666816Y-98759580D02*
X145619197Y-98807200D01*
X145619197Y-98807200D02*
X145523959Y-98854819D01*
X145523959Y-98854819D02*
X145333483Y-98854819D01*
X145333483Y-98854819D02*
X145238245Y-98807200D01*
X145238245Y-98807200D02*
X145190626Y-98759580D01*
X145190626Y-98759580D02*
X145143007Y-98664342D01*
X145143007Y-98664342D02*
X145143007Y-98473866D01*
X145143007Y-98473866D02*
X145190626Y-98378628D01*
X145190626Y-98378628D02*
X145238245Y-98331009D01*
X145238245Y-98331009D02*
X145333483Y-98283390D01*
X151947769Y-98759580D02*
X151995388Y-98807200D01*
X151995388Y-98807200D02*
X152138245Y-98854819D01*
X152138245Y-98854819D02*
X152233483Y-98854819D01*
X152233483Y-98854819D02*
X152376340Y-98807200D01*
X152376340Y-98807200D02*
X152471578Y-98711961D01*
X152471578Y-98711961D02*
X152519197Y-98616723D01*
X152519197Y-98616723D02*
X152566816Y-98426247D01*
X152566816Y-98426247D02*
X152566816Y-98283390D01*
X152566816Y-98283390D02*
X152519197Y-98092914D01*
X152519197Y-98092914D02*
X152471578Y-97997676D01*
X152471578Y-97997676D02*
X152376340Y-97902438D01*
X152376340Y-97902438D02*
X152233483Y-97854819D01*
X152233483Y-97854819D02*
X152138245Y-97854819D01*
X152138245Y-97854819D02*
X151995388Y-97902438D01*
X151995388Y-97902438D02*
X151947769Y-97950057D01*
X151566816Y-97950057D02*
X151519197Y-97902438D01*
X151519197Y-97902438D02*
X151423959Y-97854819D01*
X151423959Y-97854819D02*
X151185864Y-97854819D01*
X151185864Y-97854819D02*
X151090626Y-97902438D01*
X151090626Y-97902438D02*
X151043007Y-97950057D01*
X151043007Y-97950057D02*
X150995388Y-98045295D01*
X150995388Y-98045295D02*
X150995388Y-98140533D01*
X150995388Y-98140533D02*
X151043007Y-98283390D01*
X151043007Y-98283390D02*
X151614435Y-98854819D01*
X151614435Y-98854819D02*
X150995388Y-98854819D01*
X150662054Y-97854819D02*
X149995388Y-97854819D01*
X149995388Y-97854819D02*
X150423959Y-98854819D01*
X127942857Y-83179580D02*
X127990476Y-83227200D01*
X127990476Y-83227200D02*
X128133333Y-83274819D01*
X128133333Y-83274819D02*
X128228571Y-83274819D01*
X128228571Y-83274819D02*
X128371428Y-83227200D01*
X128371428Y-83227200D02*
X128466666Y-83131961D01*
X128466666Y-83131961D02*
X128514285Y-83036723D01*
X128514285Y-83036723D02*
X128561904Y-82846247D01*
X128561904Y-82846247D02*
X128561904Y-82703390D01*
X128561904Y-82703390D02*
X128514285Y-82512914D01*
X128514285Y-82512914D02*
X128466666Y-82417676D01*
X128466666Y-82417676D02*
X128371428Y-82322438D01*
X128371428Y-82322438D02*
X128228571Y-82274819D01*
X128228571Y-82274819D02*
X128133333Y-82274819D01*
X128133333Y-82274819D02*
X127990476Y-82322438D01*
X127990476Y-82322438D02*
X127942857Y-82370057D01*
X127561904Y-82370057D02*
X127514285Y-82322438D01*
X127514285Y-82322438D02*
X127419047Y-82274819D01*
X127419047Y-82274819D02*
X127180952Y-82274819D01*
X127180952Y-82274819D02*
X127085714Y-82322438D01*
X127085714Y-82322438D02*
X127038095Y-82370057D01*
X127038095Y-82370057D02*
X126990476Y-82465295D01*
X126990476Y-82465295D02*
X126990476Y-82560533D01*
X126990476Y-82560533D02*
X127038095Y-82703390D01*
X127038095Y-82703390D02*
X127609523Y-83274819D01*
X127609523Y-83274819D02*
X126990476Y-83274819D01*
X126609523Y-82370057D02*
X126561904Y-82322438D01*
X126561904Y-82322438D02*
X126466666Y-82274819D01*
X126466666Y-82274819D02*
X126228571Y-82274819D01*
X126228571Y-82274819D02*
X126133333Y-82322438D01*
X126133333Y-82322438D02*
X126085714Y-82370057D01*
X126085714Y-82370057D02*
X126038095Y-82465295D01*
X126038095Y-82465295D02*
X126038095Y-82560533D01*
X126038095Y-82560533D02*
X126085714Y-82703390D01*
X126085714Y-82703390D02*
X126657142Y-83274819D01*
X126657142Y-83274819D02*
X126038095Y-83274819D01*
X162542857Y-98754819D02*
X162876190Y-98278628D01*
X163114285Y-98754819D02*
X163114285Y-97754819D01*
X163114285Y-97754819D02*
X162733333Y-97754819D01*
X162733333Y-97754819D02*
X162638095Y-97802438D01*
X162638095Y-97802438D02*
X162590476Y-97850057D01*
X162590476Y-97850057D02*
X162542857Y-97945295D01*
X162542857Y-97945295D02*
X162542857Y-98088152D01*
X162542857Y-98088152D02*
X162590476Y-98183390D01*
X162590476Y-98183390D02*
X162638095Y-98231009D01*
X162638095Y-98231009D02*
X162733333Y-98278628D01*
X162733333Y-98278628D02*
X163114285Y-98278628D01*
X161685714Y-98088152D02*
X161685714Y-98754819D01*
X161923809Y-97707200D02*
X162161904Y-98421485D01*
X162161904Y-98421485D02*
X161542857Y-98421485D01*
X161114285Y-98754819D02*
X160923809Y-98754819D01*
X160923809Y-98754819D02*
X160828571Y-98707200D01*
X160828571Y-98707200D02*
X160780952Y-98659580D01*
X160780952Y-98659580D02*
X160685714Y-98516723D01*
X160685714Y-98516723D02*
X160638095Y-98326247D01*
X160638095Y-98326247D02*
X160638095Y-97945295D01*
X160638095Y-97945295D02*
X160685714Y-97850057D01*
X160685714Y-97850057D02*
X160733333Y-97802438D01*
X160733333Y-97802438D02*
X160828571Y-97754819D01*
X160828571Y-97754819D02*
X161019047Y-97754819D01*
X161019047Y-97754819D02*
X161114285Y-97802438D01*
X161114285Y-97802438D02*
X161161904Y-97850057D01*
X161161904Y-97850057D02*
X161209523Y-97945295D01*
X161209523Y-97945295D02*
X161209523Y-98183390D01*
X161209523Y-98183390D02*
X161161904Y-98278628D01*
X161161904Y-98278628D02*
X161114285Y-98326247D01*
X161114285Y-98326247D02*
X161019047Y-98373866D01*
X161019047Y-98373866D02*
X160828571Y-98373866D01*
X160828571Y-98373866D02*
X160733333Y-98326247D01*
X160733333Y-98326247D02*
X160685714Y-98278628D01*
X160685714Y-98278628D02*
X160638095Y-98183390D01*
X165771428Y-67750057D02*
X165866666Y-67702438D01*
X165866666Y-67702438D02*
X165961904Y-67607200D01*
X165961904Y-67607200D02*
X166104761Y-67464342D01*
X166104761Y-67464342D02*
X166199999Y-67416723D01*
X166199999Y-67416723D02*
X166295237Y-67416723D01*
X166247618Y-67654819D02*
X166342856Y-67607200D01*
X166342856Y-67607200D02*
X166438094Y-67511961D01*
X166438094Y-67511961D02*
X166485713Y-67321485D01*
X166485713Y-67321485D02*
X166485713Y-66988152D01*
X166485713Y-66988152D02*
X166438094Y-66797676D01*
X166438094Y-66797676D02*
X166342856Y-66702438D01*
X166342856Y-66702438D02*
X166247618Y-66654819D01*
X166247618Y-66654819D02*
X166057142Y-66654819D01*
X166057142Y-66654819D02*
X165961904Y-66702438D01*
X165961904Y-66702438D02*
X165866666Y-66797676D01*
X165866666Y-66797676D02*
X165819047Y-66988152D01*
X165819047Y-66988152D02*
X165819047Y-67321485D01*
X165819047Y-67321485D02*
X165866666Y-67511961D01*
X165866666Y-67511961D02*
X165961904Y-67607200D01*
X165961904Y-67607200D02*
X166057142Y-67654819D01*
X166057142Y-67654819D02*
X166247618Y-67654819D01*
X164866666Y-67654819D02*
X165438094Y-67654819D01*
X165152380Y-67654819D02*
X165152380Y-66654819D01*
X165152380Y-66654819D02*
X165247618Y-66797676D01*
X165247618Y-66797676D02*
X165342856Y-66892914D01*
X165342856Y-66892914D02*
X165438094Y-66940533D01*
X164533332Y-66654819D02*
X163914285Y-66654819D01*
X163914285Y-66654819D02*
X164247618Y-67035771D01*
X164247618Y-67035771D02*
X164104761Y-67035771D01*
X164104761Y-67035771D02*
X164009523Y-67083390D01*
X164009523Y-67083390D02*
X163961904Y-67131009D01*
X163961904Y-67131009D02*
X163914285Y-67226247D01*
X163914285Y-67226247D02*
X163914285Y-67464342D01*
X163914285Y-67464342D02*
X163961904Y-67559580D01*
X163961904Y-67559580D02*
X164009523Y-67607200D01*
X164009523Y-67607200D02*
X164104761Y-67654819D01*
X164104761Y-67654819D02*
X164390475Y-67654819D01*
X164390475Y-67654819D02*
X164485713Y-67607200D01*
X164485713Y-67607200D02*
X164533332Y-67559580D01*
X141114285Y-54954819D02*
X141114285Y-53954819D01*
X141114285Y-53954819D02*
X140876190Y-53954819D01*
X140876190Y-53954819D02*
X140733333Y-54002438D01*
X140733333Y-54002438D02*
X140638095Y-54097676D01*
X140638095Y-54097676D02*
X140590476Y-54192914D01*
X140590476Y-54192914D02*
X140542857Y-54383390D01*
X140542857Y-54383390D02*
X140542857Y-54526247D01*
X140542857Y-54526247D02*
X140590476Y-54716723D01*
X140590476Y-54716723D02*
X140638095Y-54811961D01*
X140638095Y-54811961D02*
X140733333Y-54907200D01*
X140733333Y-54907200D02*
X140876190Y-54954819D01*
X140876190Y-54954819D02*
X141114285Y-54954819D01*
X140161904Y-54050057D02*
X140114285Y-54002438D01*
X140114285Y-54002438D02*
X140019047Y-53954819D01*
X140019047Y-53954819D02*
X139780952Y-53954819D01*
X139780952Y-53954819D02*
X139685714Y-54002438D01*
X139685714Y-54002438D02*
X139638095Y-54050057D01*
X139638095Y-54050057D02*
X139590476Y-54145295D01*
X139590476Y-54145295D02*
X139590476Y-54240533D01*
X139590476Y-54240533D02*
X139638095Y-54383390D01*
X139638095Y-54383390D02*
X140209523Y-54954819D01*
X140209523Y-54954819D02*
X139590476Y-54954819D01*
X138638095Y-54954819D02*
X139209523Y-54954819D01*
X138923809Y-54954819D02*
X138923809Y-53954819D01*
X138923809Y-53954819D02*
X139019047Y-54097676D01*
X139019047Y-54097676D02*
X139114285Y-54192914D01*
X139114285Y-54192914D02*
X139209523Y-54240533D01*
X123142857Y-83304819D02*
X123476190Y-82828628D01*
X123714285Y-83304819D02*
X123714285Y-82304819D01*
X123714285Y-82304819D02*
X123333333Y-82304819D01*
X123333333Y-82304819D02*
X123238095Y-82352438D01*
X123238095Y-82352438D02*
X123190476Y-82400057D01*
X123190476Y-82400057D02*
X123142857Y-82495295D01*
X123142857Y-82495295D02*
X123142857Y-82638152D01*
X123142857Y-82638152D02*
X123190476Y-82733390D01*
X123190476Y-82733390D02*
X123238095Y-82781009D01*
X123238095Y-82781009D02*
X123333333Y-82828628D01*
X123333333Y-82828628D02*
X123714285Y-82828628D01*
X122190476Y-83304819D02*
X122761904Y-83304819D01*
X122476190Y-83304819D02*
X122476190Y-82304819D01*
X122476190Y-82304819D02*
X122571428Y-82447676D01*
X122571428Y-82447676D02*
X122666666Y-82542914D01*
X122666666Y-82542914D02*
X122761904Y-82590533D01*
X121857142Y-82304819D02*
X121190476Y-82304819D01*
X121190476Y-82304819D02*
X121619047Y-83304819D01*
X149438094Y-59354819D02*
X149438094Y-60164342D01*
X149438094Y-60164342D02*
X149390475Y-60259580D01*
X149390475Y-60259580D02*
X149342856Y-60307200D01*
X149342856Y-60307200D02*
X149247618Y-60354819D01*
X149247618Y-60354819D02*
X149057142Y-60354819D01*
X149057142Y-60354819D02*
X148961904Y-60307200D01*
X148961904Y-60307200D02*
X148914285Y-60259580D01*
X148914285Y-60259580D02*
X148866666Y-60164342D01*
X148866666Y-60164342D02*
X148866666Y-59354819D01*
X147866666Y-60354819D02*
X148438094Y-60354819D01*
X148152380Y-60354819D02*
X148152380Y-59354819D01*
X148152380Y-59354819D02*
X148247618Y-59497676D01*
X148247618Y-59497676D02*
X148342856Y-59592914D01*
X148342856Y-59592914D02*
X148438094Y-59640533D01*
X146961904Y-59354819D02*
X147438094Y-59354819D01*
X147438094Y-59354819D02*
X147485713Y-59831009D01*
X147485713Y-59831009D02*
X147438094Y-59783390D01*
X147438094Y-59783390D02*
X147342856Y-59735771D01*
X147342856Y-59735771D02*
X147104761Y-59735771D01*
X147104761Y-59735771D02*
X147009523Y-59783390D01*
X147009523Y-59783390D02*
X146961904Y-59831009D01*
X146961904Y-59831009D02*
X146914285Y-59926247D01*
X146914285Y-59926247D02*
X146914285Y-60164342D01*
X146914285Y-60164342D02*
X146961904Y-60259580D01*
X146961904Y-60259580D02*
X147009523Y-60307200D01*
X147009523Y-60307200D02*
X147104761Y-60354819D01*
X147104761Y-60354819D02*
X147342856Y-60354819D01*
X147342856Y-60354819D02*
X147438094Y-60307200D01*
X147438094Y-60307200D02*
X147485713Y-60259580D01*
X170799819Y-82332142D02*
X170323628Y-81998809D01*
X170799819Y-81760714D02*
X169799819Y-81760714D01*
X169799819Y-81760714D02*
X169799819Y-82141666D01*
X169799819Y-82141666D02*
X169847438Y-82236904D01*
X169847438Y-82236904D02*
X169895057Y-82284523D01*
X169895057Y-82284523D02*
X169990295Y-82332142D01*
X169990295Y-82332142D02*
X170133152Y-82332142D01*
X170133152Y-82332142D02*
X170228390Y-82284523D01*
X170228390Y-82284523D02*
X170276009Y-82236904D01*
X170276009Y-82236904D02*
X170323628Y-82141666D01*
X170323628Y-82141666D02*
X170323628Y-81760714D01*
X170133152Y-83189285D02*
X170799819Y-83189285D01*
X169752200Y-82951190D02*
X170466485Y-82713095D01*
X170466485Y-82713095D02*
X170466485Y-83332142D01*
X169799819Y-83617857D02*
X169799819Y-84236904D01*
X169799819Y-84236904D02*
X170180771Y-83903571D01*
X170180771Y-83903571D02*
X170180771Y-84046428D01*
X170180771Y-84046428D02*
X170228390Y-84141666D01*
X170228390Y-84141666D02*
X170276009Y-84189285D01*
X170276009Y-84189285D02*
X170371247Y-84236904D01*
X170371247Y-84236904D02*
X170609342Y-84236904D01*
X170609342Y-84236904D02*
X170704580Y-84189285D01*
X170704580Y-84189285D02*
X170752200Y-84141666D01*
X170752200Y-84141666D02*
X170799819Y-84046428D01*
X170799819Y-84046428D02*
X170799819Y-83760714D01*
X170799819Y-83760714D02*
X170752200Y-83665476D01*
X170752200Y-83665476D02*
X170704580Y-83617857D01*
X125528057Y-79484580D02*
X125575676Y-79532200D01*
X125575676Y-79532200D02*
X125718533Y-79579819D01*
X125718533Y-79579819D02*
X125813771Y-79579819D01*
X125813771Y-79579819D02*
X125956628Y-79532200D01*
X125956628Y-79532200D02*
X126051866Y-79436961D01*
X126051866Y-79436961D02*
X126099485Y-79341723D01*
X126099485Y-79341723D02*
X126147104Y-79151247D01*
X126147104Y-79151247D02*
X126147104Y-79008390D01*
X126147104Y-79008390D02*
X126099485Y-78817914D01*
X126099485Y-78817914D02*
X126051866Y-78722676D01*
X126051866Y-78722676D02*
X125956628Y-78627438D01*
X125956628Y-78627438D02*
X125813771Y-78579819D01*
X125813771Y-78579819D02*
X125718533Y-78579819D01*
X125718533Y-78579819D02*
X125575676Y-78627438D01*
X125575676Y-78627438D02*
X125528057Y-78675057D01*
X124575676Y-79579819D02*
X125147104Y-79579819D01*
X124861390Y-79579819D02*
X124861390Y-78579819D01*
X124861390Y-78579819D02*
X124956628Y-78722676D01*
X124956628Y-78722676D02*
X125051866Y-78817914D01*
X125051866Y-78817914D02*
X125147104Y-78865533D01*
X124242342Y-78579819D02*
X123575676Y-78579819D01*
X123575676Y-78579819D02*
X124004247Y-79579819D01*
X112742857Y-96654819D02*
X113076190Y-96178628D01*
X113314285Y-96654819D02*
X113314285Y-95654819D01*
X113314285Y-95654819D02*
X112933333Y-95654819D01*
X112933333Y-95654819D02*
X112838095Y-95702438D01*
X112838095Y-95702438D02*
X112790476Y-95750057D01*
X112790476Y-95750057D02*
X112742857Y-95845295D01*
X112742857Y-95845295D02*
X112742857Y-95988152D01*
X112742857Y-95988152D02*
X112790476Y-96083390D01*
X112790476Y-96083390D02*
X112838095Y-96131009D01*
X112838095Y-96131009D02*
X112933333Y-96178628D01*
X112933333Y-96178628D02*
X113314285Y-96178628D01*
X112361904Y-95750057D02*
X112314285Y-95702438D01*
X112314285Y-95702438D02*
X112219047Y-95654819D01*
X112219047Y-95654819D02*
X111980952Y-95654819D01*
X111980952Y-95654819D02*
X111885714Y-95702438D01*
X111885714Y-95702438D02*
X111838095Y-95750057D01*
X111838095Y-95750057D02*
X111790476Y-95845295D01*
X111790476Y-95845295D02*
X111790476Y-95940533D01*
X111790476Y-95940533D02*
X111838095Y-96083390D01*
X111838095Y-96083390D02*
X112409523Y-96654819D01*
X112409523Y-96654819D02*
X111790476Y-96654819D01*
X111409523Y-95750057D02*
X111361904Y-95702438D01*
X111361904Y-95702438D02*
X111266666Y-95654819D01*
X111266666Y-95654819D02*
X111028571Y-95654819D01*
X111028571Y-95654819D02*
X110933333Y-95702438D01*
X110933333Y-95702438D02*
X110885714Y-95750057D01*
X110885714Y-95750057D02*
X110838095Y-95845295D01*
X110838095Y-95845295D02*
X110838095Y-95940533D01*
X110838095Y-95940533D02*
X110885714Y-96083390D01*
X110885714Y-96083390D02*
X111457142Y-96654819D01*
X111457142Y-96654819D02*
X110838095Y-96654819D01*
X178805057Y-78269761D02*
X178757438Y-78174523D01*
X178757438Y-78174523D02*
X178662200Y-78079285D01*
X178662200Y-78079285D02*
X178519342Y-77936428D01*
X178519342Y-77936428D02*
X178471723Y-77841190D01*
X178471723Y-77841190D02*
X178471723Y-77745952D01*
X178709819Y-77793571D02*
X178662200Y-77698333D01*
X178662200Y-77698333D02*
X178566961Y-77603095D01*
X178566961Y-77603095D02*
X178376485Y-77555476D01*
X178376485Y-77555476D02*
X178043152Y-77555476D01*
X178043152Y-77555476D02*
X177852676Y-77603095D01*
X177852676Y-77603095D02*
X177757438Y-77698333D01*
X177757438Y-77698333D02*
X177709819Y-77793571D01*
X177709819Y-77793571D02*
X177709819Y-77984047D01*
X177709819Y-77984047D02*
X177757438Y-78079285D01*
X177757438Y-78079285D02*
X177852676Y-78174523D01*
X177852676Y-78174523D02*
X178043152Y-78222142D01*
X178043152Y-78222142D02*
X178376485Y-78222142D01*
X178376485Y-78222142D02*
X178566961Y-78174523D01*
X178566961Y-78174523D02*
X178662200Y-78079285D01*
X178662200Y-78079285D02*
X178709819Y-77984047D01*
X178709819Y-77984047D02*
X178709819Y-77793571D01*
X177709819Y-78555476D02*
X177709819Y-79174523D01*
X177709819Y-79174523D02*
X178090771Y-78841190D01*
X178090771Y-78841190D02*
X178090771Y-78984047D01*
X178090771Y-78984047D02*
X178138390Y-79079285D01*
X178138390Y-79079285D02*
X178186009Y-79126904D01*
X178186009Y-79126904D02*
X178281247Y-79174523D01*
X178281247Y-79174523D02*
X178519342Y-79174523D01*
X178519342Y-79174523D02*
X178614580Y-79126904D01*
X178614580Y-79126904D02*
X178662200Y-79079285D01*
X178662200Y-79079285D02*
X178709819Y-78984047D01*
X178709819Y-78984047D02*
X178709819Y-78698333D01*
X178709819Y-78698333D02*
X178662200Y-78603095D01*
X178662200Y-78603095D02*
X178614580Y-78555476D01*
X173871428Y-67750057D02*
X173966666Y-67702438D01*
X173966666Y-67702438D02*
X174061904Y-67607200D01*
X174061904Y-67607200D02*
X174204761Y-67464342D01*
X174204761Y-67464342D02*
X174299999Y-67416723D01*
X174299999Y-67416723D02*
X174395237Y-67416723D01*
X174347618Y-67654819D02*
X174442856Y-67607200D01*
X174442856Y-67607200D02*
X174538094Y-67511961D01*
X174538094Y-67511961D02*
X174585713Y-67321485D01*
X174585713Y-67321485D02*
X174585713Y-66988152D01*
X174585713Y-66988152D02*
X174538094Y-66797676D01*
X174538094Y-66797676D02*
X174442856Y-66702438D01*
X174442856Y-66702438D02*
X174347618Y-66654819D01*
X174347618Y-66654819D02*
X174157142Y-66654819D01*
X174157142Y-66654819D02*
X174061904Y-66702438D01*
X174061904Y-66702438D02*
X173966666Y-66797676D01*
X173966666Y-66797676D02*
X173919047Y-66988152D01*
X173919047Y-66988152D02*
X173919047Y-67321485D01*
X173919047Y-67321485D02*
X173966666Y-67511961D01*
X173966666Y-67511961D02*
X174061904Y-67607200D01*
X174061904Y-67607200D02*
X174157142Y-67654819D01*
X174157142Y-67654819D02*
X174347618Y-67654819D01*
X172966666Y-67654819D02*
X173538094Y-67654819D01*
X173252380Y-67654819D02*
X173252380Y-66654819D01*
X173252380Y-66654819D02*
X173347618Y-66797676D01*
X173347618Y-66797676D02*
X173442856Y-66892914D01*
X173442856Y-66892914D02*
X173538094Y-66940533D01*
X172014285Y-67654819D02*
X172585713Y-67654819D01*
X172299999Y-67654819D02*
X172299999Y-66654819D01*
X172299999Y-66654819D02*
X172395237Y-66797676D01*
X172395237Y-66797676D02*
X172490475Y-66892914D01*
X172490475Y-66892914D02*
X172585713Y-66940533D01*
X154142857Y-87554819D02*
X154476190Y-87078628D01*
X154714285Y-87554819D02*
X154714285Y-86554819D01*
X154714285Y-86554819D02*
X154333333Y-86554819D01*
X154333333Y-86554819D02*
X154238095Y-86602438D01*
X154238095Y-86602438D02*
X154190476Y-86650057D01*
X154190476Y-86650057D02*
X154142857Y-86745295D01*
X154142857Y-86745295D02*
X154142857Y-86888152D01*
X154142857Y-86888152D02*
X154190476Y-86983390D01*
X154190476Y-86983390D02*
X154238095Y-87031009D01*
X154238095Y-87031009D02*
X154333333Y-87078628D01*
X154333333Y-87078628D02*
X154714285Y-87078628D01*
X153238095Y-86554819D02*
X153714285Y-86554819D01*
X153714285Y-86554819D02*
X153761904Y-87031009D01*
X153761904Y-87031009D02*
X153714285Y-86983390D01*
X153714285Y-86983390D02*
X153619047Y-86935771D01*
X153619047Y-86935771D02*
X153380952Y-86935771D01*
X153380952Y-86935771D02*
X153285714Y-86983390D01*
X153285714Y-86983390D02*
X153238095Y-87031009D01*
X153238095Y-87031009D02*
X153190476Y-87126247D01*
X153190476Y-87126247D02*
X153190476Y-87364342D01*
X153190476Y-87364342D02*
X153238095Y-87459580D01*
X153238095Y-87459580D02*
X153285714Y-87507200D01*
X153285714Y-87507200D02*
X153380952Y-87554819D01*
X153380952Y-87554819D02*
X153619047Y-87554819D01*
X153619047Y-87554819D02*
X153714285Y-87507200D01*
X153714285Y-87507200D02*
X153761904Y-87459580D01*
X152238095Y-87554819D02*
X152809523Y-87554819D01*
X152523809Y-87554819D02*
X152523809Y-86554819D01*
X152523809Y-86554819D02*
X152619047Y-86697676D01*
X152619047Y-86697676D02*
X152714285Y-86792914D01*
X152714285Y-86792914D02*
X152809523Y-86840533D01*
X140042857Y-74559580D02*
X140090476Y-74607200D01*
X140090476Y-74607200D02*
X140233333Y-74654819D01*
X140233333Y-74654819D02*
X140328571Y-74654819D01*
X140328571Y-74654819D02*
X140471428Y-74607200D01*
X140471428Y-74607200D02*
X140566666Y-74511961D01*
X140566666Y-74511961D02*
X140614285Y-74416723D01*
X140614285Y-74416723D02*
X140661904Y-74226247D01*
X140661904Y-74226247D02*
X140661904Y-74083390D01*
X140661904Y-74083390D02*
X140614285Y-73892914D01*
X140614285Y-73892914D02*
X140566666Y-73797676D01*
X140566666Y-73797676D02*
X140471428Y-73702438D01*
X140471428Y-73702438D02*
X140328571Y-73654819D01*
X140328571Y-73654819D02*
X140233333Y-73654819D01*
X140233333Y-73654819D02*
X140090476Y-73702438D01*
X140090476Y-73702438D02*
X140042857Y-73750057D01*
X139185714Y-73988152D02*
X139185714Y-74654819D01*
X139423809Y-73607200D02*
X139661904Y-74321485D01*
X139661904Y-74321485D02*
X139042857Y-74321485D01*
X138138095Y-74654819D02*
X138709523Y-74654819D01*
X138423809Y-74654819D02*
X138423809Y-73654819D01*
X138423809Y-73654819D02*
X138519047Y-73797676D01*
X138519047Y-73797676D02*
X138614285Y-73892914D01*
X138614285Y-73892914D02*
X138709523Y-73940533D01*
X125542857Y-75359580D02*
X125590476Y-75407200D01*
X125590476Y-75407200D02*
X125733333Y-75454819D01*
X125733333Y-75454819D02*
X125828571Y-75454819D01*
X125828571Y-75454819D02*
X125971428Y-75407200D01*
X125971428Y-75407200D02*
X126066666Y-75311961D01*
X126066666Y-75311961D02*
X126114285Y-75216723D01*
X126114285Y-75216723D02*
X126161904Y-75026247D01*
X126161904Y-75026247D02*
X126161904Y-74883390D01*
X126161904Y-74883390D02*
X126114285Y-74692914D01*
X126114285Y-74692914D02*
X126066666Y-74597676D01*
X126066666Y-74597676D02*
X125971428Y-74502438D01*
X125971428Y-74502438D02*
X125828571Y-74454819D01*
X125828571Y-74454819D02*
X125733333Y-74454819D01*
X125733333Y-74454819D02*
X125590476Y-74502438D01*
X125590476Y-74502438D02*
X125542857Y-74550057D01*
X125161904Y-74550057D02*
X125114285Y-74502438D01*
X125114285Y-74502438D02*
X125019047Y-74454819D01*
X125019047Y-74454819D02*
X124780952Y-74454819D01*
X124780952Y-74454819D02*
X124685714Y-74502438D01*
X124685714Y-74502438D02*
X124638095Y-74550057D01*
X124638095Y-74550057D02*
X124590476Y-74645295D01*
X124590476Y-74645295D02*
X124590476Y-74740533D01*
X124590476Y-74740533D02*
X124638095Y-74883390D01*
X124638095Y-74883390D02*
X125209523Y-75454819D01*
X125209523Y-75454819D02*
X124590476Y-75454819D01*
X123971428Y-74454819D02*
X123876190Y-74454819D01*
X123876190Y-74454819D02*
X123780952Y-74502438D01*
X123780952Y-74502438D02*
X123733333Y-74550057D01*
X123733333Y-74550057D02*
X123685714Y-74645295D01*
X123685714Y-74645295D02*
X123638095Y-74835771D01*
X123638095Y-74835771D02*
X123638095Y-75073866D01*
X123638095Y-75073866D02*
X123685714Y-75264342D01*
X123685714Y-75264342D02*
X123733333Y-75359580D01*
X123733333Y-75359580D02*
X123780952Y-75407200D01*
X123780952Y-75407200D02*
X123876190Y-75454819D01*
X123876190Y-75454819D02*
X123971428Y-75454819D01*
X123971428Y-75454819D02*
X124066666Y-75407200D01*
X124066666Y-75407200D02*
X124114285Y-75359580D01*
X124114285Y-75359580D02*
X124161904Y-75264342D01*
X124161904Y-75264342D02*
X124209523Y-75073866D01*
X124209523Y-75073866D02*
X124209523Y-74835771D01*
X124209523Y-74835771D02*
X124161904Y-74645295D01*
X124161904Y-74645295D02*
X124114285Y-74550057D01*
X124114285Y-74550057D02*
X124066666Y-74502438D01*
X124066666Y-74502438D02*
X123971428Y-74454819D01*
X164781530Y-86442319D02*
X164781530Y-87251842D01*
X164781530Y-87251842D02*
X164733911Y-87347080D01*
X164733911Y-87347080D02*
X164686292Y-87394700D01*
X164686292Y-87394700D02*
X164591054Y-87442319D01*
X164591054Y-87442319D02*
X164400578Y-87442319D01*
X164400578Y-87442319D02*
X164305340Y-87394700D01*
X164305340Y-87394700D02*
X164257721Y-87347080D01*
X164257721Y-87347080D02*
X164210102Y-87251842D01*
X164210102Y-87251842D02*
X164210102Y-86442319D01*
X163210102Y-87442319D02*
X163781530Y-87442319D01*
X163495816Y-87442319D02*
X163495816Y-86442319D01*
X163495816Y-86442319D02*
X163591054Y-86585176D01*
X163591054Y-86585176D02*
X163686292Y-86680414D01*
X163686292Y-86680414D02*
X163781530Y-86728033D01*
X162876768Y-86442319D02*
X162257721Y-86442319D01*
X162257721Y-86442319D02*
X162591054Y-86823271D01*
X162591054Y-86823271D02*
X162448197Y-86823271D01*
X162448197Y-86823271D02*
X162352959Y-86870890D01*
X162352959Y-86870890D02*
X162305340Y-86918509D01*
X162305340Y-86918509D02*
X162257721Y-87013747D01*
X162257721Y-87013747D02*
X162257721Y-87251842D01*
X162257721Y-87251842D02*
X162305340Y-87347080D01*
X162305340Y-87347080D02*
X162352959Y-87394700D01*
X162352959Y-87394700D02*
X162448197Y-87442319D01*
X162448197Y-87442319D02*
X162733911Y-87442319D01*
X162733911Y-87442319D02*
X162829149Y-87394700D01*
X162829149Y-87394700D02*
X162876768Y-87347080D01*
X125527257Y-73259580D02*
X125574876Y-73307200D01*
X125574876Y-73307200D02*
X125717733Y-73354819D01*
X125717733Y-73354819D02*
X125812971Y-73354819D01*
X125812971Y-73354819D02*
X125955828Y-73307200D01*
X125955828Y-73307200D02*
X126051066Y-73211961D01*
X126051066Y-73211961D02*
X126098685Y-73116723D01*
X126098685Y-73116723D02*
X126146304Y-72926247D01*
X126146304Y-72926247D02*
X126146304Y-72783390D01*
X126146304Y-72783390D02*
X126098685Y-72592914D01*
X126098685Y-72592914D02*
X126051066Y-72497676D01*
X126051066Y-72497676D02*
X125955828Y-72402438D01*
X125955828Y-72402438D02*
X125812971Y-72354819D01*
X125812971Y-72354819D02*
X125717733Y-72354819D01*
X125717733Y-72354819D02*
X125574876Y-72402438D01*
X125574876Y-72402438D02*
X125527257Y-72450057D01*
X124574876Y-73354819D02*
X125146304Y-73354819D01*
X124860590Y-73354819D02*
X124860590Y-72354819D01*
X124860590Y-72354819D02*
X124955828Y-72497676D01*
X124955828Y-72497676D02*
X125051066Y-72592914D01*
X125051066Y-72592914D02*
X125146304Y-72640533D01*
X123717733Y-72354819D02*
X123908209Y-72354819D01*
X123908209Y-72354819D02*
X124003447Y-72402438D01*
X124003447Y-72402438D02*
X124051066Y-72450057D01*
X124051066Y-72450057D02*
X124146304Y-72592914D01*
X124146304Y-72592914D02*
X124193923Y-72783390D01*
X124193923Y-72783390D02*
X124193923Y-73164342D01*
X124193923Y-73164342D02*
X124146304Y-73259580D01*
X124146304Y-73259580D02*
X124098685Y-73307200D01*
X124098685Y-73307200D02*
X124003447Y-73354819D01*
X124003447Y-73354819D02*
X123812971Y-73354819D01*
X123812971Y-73354819D02*
X123717733Y-73307200D01*
X123717733Y-73307200D02*
X123670114Y-73259580D01*
X123670114Y-73259580D02*
X123622495Y-73164342D01*
X123622495Y-73164342D02*
X123622495Y-72926247D01*
X123622495Y-72926247D02*
X123670114Y-72831009D01*
X123670114Y-72831009D02*
X123717733Y-72783390D01*
X123717733Y-72783390D02*
X123812971Y-72735771D01*
X123812971Y-72735771D02*
X124003447Y-72735771D01*
X124003447Y-72735771D02*
X124098685Y-72783390D01*
X124098685Y-72783390D02*
X124146304Y-72831009D01*
X124146304Y-72831009D02*
X124193923Y-72926247D01*
X125512457Y-77384580D02*
X125560076Y-77432200D01*
X125560076Y-77432200D02*
X125702933Y-77479819D01*
X125702933Y-77479819D02*
X125798171Y-77479819D01*
X125798171Y-77479819D02*
X125941028Y-77432200D01*
X125941028Y-77432200D02*
X126036266Y-77336961D01*
X126036266Y-77336961D02*
X126083885Y-77241723D01*
X126083885Y-77241723D02*
X126131504Y-77051247D01*
X126131504Y-77051247D02*
X126131504Y-76908390D01*
X126131504Y-76908390D02*
X126083885Y-76717914D01*
X126083885Y-76717914D02*
X126036266Y-76622676D01*
X126036266Y-76622676D02*
X125941028Y-76527438D01*
X125941028Y-76527438D02*
X125798171Y-76479819D01*
X125798171Y-76479819D02*
X125702933Y-76479819D01*
X125702933Y-76479819D02*
X125560076Y-76527438D01*
X125560076Y-76527438D02*
X125512457Y-76575057D01*
X124560076Y-77479819D02*
X125131504Y-77479819D01*
X124845790Y-77479819D02*
X124845790Y-76479819D01*
X124845790Y-76479819D02*
X124941028Y-76622676D01*
X124941028Y-76622676D02*
X125036266Y-76717914D01*
X125036266Y-76717914D02*
X125131504Y-76765533D01*
X123988647Y-76908390D02*
X124083885Y-76860771D01*
X124083885Y-76860771D02*
X124131504Y-76813152D01*
X124131504Y-76813152D02*
X124179123Y-76717914D01*
X124179123Y-76717914D02*
X124179123Y-76670295D01*
X124179123Y-76670295D02*
X124131504Y-76575057D01*
X124131504Y-76575057D02*
X124083885Y-76527438D01*
X124083885Y-76527438D02*
X123988647Y-76479819D01*
X123988647Y-76479819D02*
X123798171Y-76479819D01*
X123798171Y-76479819D02*
X123702933Y-76527438D01*
X123702933Y-76527438D02*
X123655314Y-76575057D01*
X123655314Y-76575057D02*
X123607695Y-76670295D01*
X123607695Y-76670295D02*
X123607695Y-76717914D01*
X123607695Y-76717914D02*
X123655314Y-76813152D01*
X123655314Y-76813152D02*
X123702933Y-76860771D01*
X123702933Y-76860771D02*
X123798171Y-76908390D01*
X123798171Y-76908390D02*
X123988647Y-76908390D01*
X123988647Y-76908390D02*
X124083885Y-76956009D01*
X124083885Y-76956009D02*
X124131504Y-77003628D01*
X124131504Y-77003628D02*
X124179123Y-77098866D01*
X124179123Y-77098866D02*
X124179123Y-77289342D01*
X124179123Y-77289342D02*
X124131504Y-77384580D01*
X124131504Y-77384580D02*
X124083885Y-77432200D01*
X124083885Y-77432200D02*
X123988647Y-77479819D01*
X123988647Y-77479819D02*
X123798171Y-77479819D01*
X123798171Y-77479819D02*
X123702933Y-77432200D01*
X123702933Y-77432200D02*
X123655314Y-77384580D01*
X123655314Y-77384580D02*
X123607695Y-77289342D01*
X123607695Y-77289342D02*
X123607695Y-77098866D01*
X123607695Y-77098866D02*
X123655314Y-77003628D01*
X123655314Y-77003628D02*
X123702933Y-76956009D01*
X123702933Y-76956009D02*
X123798171Y-76908390D01*
X146679580Y-43107142D02*
X146727200Y-43059523D01*
X146727200Y-43059523D02*
X146774819Y-42916666D01*
X146774819Y-42916666D02*
X146774819Y-42821428D01*
X146774819Y-42821428D02*
X146727200Y-42678571D01*
X146727200Y-42678571D02*
X146631961Y-42583333D01*
X146631961Y-42583333D02*
X146536723Y-42535714D01*
X146536723Y-42535714D02*
X146346247Y-42488095D01*
X146346247Y-42488095D02*
X146203390Y-42488095D01*
X146203390Y-42488095D02*
X146012914Y-42535714D01*
X146012914Y-42535714D02*
X145917676Y-42583333D01*
X145917676Y-42583333D02*
X145822438Y-42678571D01*
X145822438Y-42678571D02*
X145774819Y-42821428D01*
X145774819Y-42821428D02*
X145774819Y-42916666D01*
X145774819Y-42916666D02*
X145822438Y-43059523D01*
X145822438Y-43059523D02*
X145870057Y-43107142D01*
X145774819Y-43440476D02*
X145774819Y-44059523D01*
X145774819Y-44059523D02*
X146155771Y-43726190D01*
X146155771Y-43726190D02*
X146155771Y-43869047D01*
X146155771Y-43869047D02*
X146203390Y-43964285D01*
X146203390Y-43964285D02*
X146251009Y-44011904D01*
X146251009Y-44011904D02*
X146346247Y-44059523D01*
X146346247Y-44059523D02*
X146584342Y-44059523D01*
X146584342Y-44059523D02*
X146679580Y-44011904D01*
X146679580Y-44011904D02*
X146727200Y-43964285D01*
X146727200Y-43964285D02*
X146774819Y-43869047D01*
X146774819Y-43869047D02*
X146774819Y-43583333D01*
X146774819Y-43583333D02*
X146727200Y-43488095D01*
X146727200Y-43488095D02*
X146679580Y-43440476D01*
X146774819Y-45011904D02*
X146774819Y-44440476D01*
X146774819Y-44726190D02*
X145774819Y-44726190D01*
X145774819Y-44726190D02*
X145917676Y-44630952D01*
X145917676Y-44630952D02*
X146012914Y-44535714D01*
X146012914Y-44535714D02*
X146060533Y-44440476D01*
X135345238Y-58789580D02*
X135392857Y-58837200D01*
X135392857Y-58837200D02*
X135535714Y-58884819D01*
X135535714Y-58884819D02*
X135630952Y-58884819D01*
X135630952Y-58884819D02*
X135773809Y-58837200D01*
X135773809Y-58837200D02*
X135869047Y-58741961D01*
X135869047Y-58741961D02*
X135916666Y-58646723D01*
X135916666Y-58646723D02*
X135964285Y-58456247D01*
X135964285Y-58456247D02*
X135964285Y-58313390D01*
X135964285Y-58313390D02*
X135916666Y-58122914D01*
X135916666Y-58122914D02*
X135869047Y-58027676D01*
X135869047Y-58027676D02*
X135773809Y-57932438D01*
X135773809Y-57932438D02*
X135630952Y-57884819D01*
X135630952Y-57884819D02*
X135535714Y-57884819D01*
X135535714Y-57884819D02*
X135392857Y-57932438D01*
X135392857Y-57932438D02*
X135345238Y-57980057D01*
X134964285Y-58599104D02*
X134488095Y-58599104D01*
X135059523Y-58884819D02*
X134726190Y-57884819D01*
X134726190Y-57884819D02*
X134392857Y-58884819D01*
X134107142Y-57980057D02*
X134059523Y-57932438D01*
X134059523Y-57932438D02*
X133964285Y-57884819D01*
X133964285Y-57884819D02*
X133726190Y-57884819D01*
X133726190Y-57884819D02*
X133630952Y-57932438D01*
X133630952Y-57932438D02*
X133583333Y-57980057D01*
X133583333Y-57980057D02*
X133535714Y-58075295D01*
X133535714Y-58075295D02*
X133535714Y-58170533D01*
X133535714Y-58170533D02*
X133583333Y-58313390D01*
X133583333Y-58313390D02*
X134154761Y-58884819D01*
X134154761Y-58884819D02*
X133535714Y-58884819D01*
X170799819Y-68832142D02*
X170323628Y-68498809D01*
X170799819Y-68260714D02*
X169799819Y-68260714D01*
X169799819Y-68260714D02*
X169799819Y-68641666D01*
X169799819Y-68641666D02*
X169847438Y-68736904D01*
X169847438Y-68736904D02*
X169895057Y-68784523D01*
X169895057Y-68784523D02*
X169990295Y-68832142D01*
X169990295Y-68832142D02*
X170133152Y-68832142D01*
X170133152Y-68832142D02*
X170228390Y-68784523D01*
X170228390Y-68784523D02*
X170276009Y-68736904D01*
X170276009Y-68736904D02*
X170323628Y-68641666D01*
X170323628Y-68641666D02*
X170323628Y-68260714D01*
X170133152Y-69689285D02*
X170799819Y-69689285D01*
X169752200Y-69451190D02*
X170466485Y-69213095D01*
X170466485Y-69213095D02*
X170466485Y-69832142D01*
X170133152Y-70641666D02*
X170799819Y-70641666D01*
X169752200Y-70403571D02*
X170466485Y-70165476D01*
X170466485Y-70165476D02*
X170466485Y-70784523D01*
X140242857Y-71954819D02*
X140576190Y-71478628D01*
X140814285Y-71954819D02*
X140814285Y-70954819D01*
X140814285Y-70954819D02*
X140433333Y-70954819D01*
X140433333Y-70954819D02*
X140338095Y-71002438D01*
X140338095Y-71002438D02*
X140290476Y-71050057D01*
X140290476Y-71050057D02*
X140242857Y-71145295D01*
X140242857Y-71145295D02*
X140242857Y-71288152D01*
X140242857Y-71288152D02*
X140290476Y-71383390D01*
X140290476Y-71383390D02*
X140338095Y-71431009D01*
X140338095Y-71431009D02*
X140433333Y-71478628D01*
X140433333Y-71478628D02*
X140814285Y-71478628D01*
X139385714Y-70954819D02*
X139576190Y-70954819D01*
X139576190Y-70954819D02*
X139671428Y-71002438D01*
X139671428Y-71002438D02*
X139719047Y-71050057D01*
X139719047Y-71050057D02*
X139814285Y-71192914D01*
X139814285Y-71192914D02*
X139861904Y-71383390D01*
X139861904Y-71383390D02*
X139861904Y-71764342D01*
X139861904Y-71764342D02*
X139814285Y-71859580D01*
X139814285Y-71859580D02*
X139766666Y-71907200D01*
X139766666Y-71907200D02*
X139671428Y-71954819D01*
X139671428Y-71954819D02*
X139480952Y-71954819D01*
X139480952Y-71954819D02*
X139385714Y-71907200D01*
X139385714Y-71907200D02*
X139338095Y-71859580D01*
X139338095Y-71859580D02*
X139290476Y-71764342D01*
X139290476Y-71764342D02*
X139290476Y-71526247D01*
X139290476Y-71526247D02*
X139338095Y-71431009D01*
X139338095Y-71431009D02*
X139385714Y-71383390D01*
X139385714Y-71383390D02*
X139480952Y-71335771D01*
X139480952Y-71335771D02*
X139671428Y-71335771D01*
X139671428Y-71335771D02*
X139766666Y-71383390D01*
X139766666Y-71383390D02*
X139814285Y-71431009D01*
X139814285Y-71431009D02*
X139861904Y-71526247D01*
X138814285Y-71954819D02*
X138623809Y-71954819D01*
X138623809Y-71954819D02*
X138528571Y-71907200D01*
X138528571Y-71907200D02*
X138480952Y-71859580D01*
X138480952Y-71859580D02*
X138385714Y-71716723D01*
X138385714Y-71716723D02*
X138338095Y-71526247D01*
X138338095Y-71526247D02*
X138338095Y-71145295D01*
X138338095Y-71145295D02*
X138385714Y-71050057D01*
X138385714Y-71050057D02*
X138433333Y-71002438D01*
X138433333Y-71002438D02*
X138528571Y-70954819D01*
X138528571Y-70954819D02*
X138719047Y-70954819D01*
X138719047Y-70954819D02*
X138814285Y-71002438D01*
X138814285Y-71002438D02*
X138861904Y-71050057D01*
X138861904Y-71050057D02*
X138909523Y-71145295D01*
X138909523Y-71145295D02*
X138909523Y-71383390D01*
X138909523Y-71383390D02*
X138861904Y-71478628D01*
X138861904Y-71478628D02*
X138814285Y-71526247D01*
X138814285Y-71526247D02*
X138719047Y-71573866D01*
X138719047Y-71573866D02*
X138528571Y-71573866D01*
X138528571Y-71573866D02*
X138433333Y-71526247D01*
X138433333Y-71526247D02*
X138385714Y-71478628D01*
X138385714Y-71478628D02*
X138338095Y-71383390D01*
X132442857Y-56754819D02*
X132776190Y-56278628D01*
X133014285Y-56754819D02*
X133014285Y-55754819D01*
X133014285Y-55754819D02*
X132633333Y-55754819D01*
X132633333Y-55754819D02*
X132538095Y-55802438D01*
X132538095Y-55802438D02*
X132490476Y-55850057D01*
X132490476Y-55850057D02*
X132442857Y-55945295D01*
X132442857Y-55945295D02*
X132442857Y-56088152D01*
X132442857Y-56088152D02*
X132490476Y-56183390D01*
X132490476Y-56183390D02*
X132538095Y-56231009D01*
X132538095Y-56231009D02*
X132633333Y-56278628D01*
X132633333Y-56278628D02*
X133014285Y-56278628D01*
X131538095Y-55754819D02*
X132014285Y-55754819D01*
X132014285Y-55754819D02*
X132061904Y-56231009D01*
X132061904Y-56231009D02*
X132014285Y-56183390D01*
X132014285Y-56183390D02*
X131919047Y-56135771D01*
X131919047Y-56135771D02*
X131680952Y-56135771D01*
X131680952Y-56135771D02*
X131585714Y-56183390D01*
X131585714Y-56183390D02*
X131538095Y-56231009D01*
X131538095Y-56231009D02*
X131490476Y-56326247D01*
X131490476Y-56326247D02*
X131490476Y-56564342D01*
X131490476Y-56564342D02*
X131538095Y-56659580D01*
X131538095Y-56659580D02*
X131585714Y-56707200D01*
X131585714Y-56707200D02*
X131680952Y-56754819D01*
X131680952Y-56754819D02*
X131919047Y-56754819D01*
X131919047Y-56754819D02*
X132014285Y-56707200D01*
X132014285Y-56707200D02*
X132061904Y-56659580D01*
X131157142Y-55754819D02*
X130538095Y-55754819D01*
X130538095Y-55754819D02*
X130871428Y-56135771D01*
X130871428Y-56135771D02*
X130728571Y-56135771D01*
X130728571Y-56135771D02*
X130633333Y-56183390D01*
X130633333Y-56183390D02*
X130585714Y-56231009D01*
X130585714Y-56231009D02*
X130538095Y-56326247D01*
X130538095Y-56326247D02*
X130538095Y-56564342D01*
X130538095Y-56564342D02*
X130585714Y-56659580D01*
X130585714Y-56659580D02*
X130633333Y-56707200D01*
X130633333Y-56707200D02*
X130728571Y-56754819D01*
X130728571Y-56754819D02*
X131014285Y-56754819D01*
X131014285Y-56754819D02*
X131109523Y-56707200D01*
X131109523Y-56707200D02*
X131157142Y-56659580D01*
X112742857Y-98559580D02*
X112790476Y-98607200D01*
X112790476Y-98607200D02*
X112933333Y-98654819D01*
X112933333Y-98654819D02*
X113028571Y-98654819D01*
X113028571Y-98654819D02*
X113171428Y-98607200D01*
X113171428Y-98607200D02*
X113266666Y-98511961D01*
X113266666Y-98511961D02*
X113314285Y-98416723D01*
X113314285Y-98416723D02*
X113361904Y-98226247D01*
X113361904Y-98226247D02*
X113361904Y-98083390D01*
X113361904Y-98083390D02*
X113314285Y-97892914D01*
X113314285Y-97892914D02*
X113266666Y-97797676D01*
X113266666Y-97797676D02*
X113171428Y-97702438D01*
X113171428Y-97702438D02*
X113028571Y-97654819D01*
X113028571Y-97654819D02*
X112933333Y-97654819D01*
X112933333Y-97654819D02*
X112790476Y-97702438D01*
X112790476Y-97702438D02*
X112742857Y-97750057D01*
X112361904Y-97750057D02*
X112314285Y-97702438D01*
X112314285Y-97702438D02*
X112219047Y-97654819D01*
X112219047Y-97654819D02*
X111980952Y-97654819D01*
X111980952Y-97654819D02*
X111885714Y-97702438D01*
X111885714Y-97702438D02*
X111838095Y-97750057D01*
X111838095Y-97750057D02*
X111790476Y-97845295D01*
X111790476Y-97845295D02*
X111790476Y-97940533D01*
X111790476Y-97940533D02*
X111838095Y-98083390D01*
X111838095Y-98083390D02*
X112409523Y-98654819D01*
X112409523Y-98654819D02*
X111790476Y-98654819D01*
X111457142Y-97654819D02*
X110838095Y-97654819D01*
X110838095Y-97654819D02*
X111171428Y-98035771D01*
X111171428Y-98035771D02*
X111028571Y-98035771D01*
X111028571Y-98035771D02*
X110933333Y-98083390D01*
X110933333Y-98083390D02*
X110885714Y-98131009D01*
X110885714Y-98131009D02*
X110838095Y-98226247D01*
X110838095Y-98226247D02*
X110838095Y-98464342D01*
X110838095Y-98464342D02*
X110885714Y-98559580D01*
X110885714Y-98559580D02*
X110933333Y-98607200D01*
X110933333Y-98607200D02*
X111028571Y-98654819D01*
X111028571Y-98654819D02*
X111314285Y-98654819D01*
X111314285Y-98654819D02*
X111409523Y-98607200D01*
X111409523Y-98607200D02*
X111457142Y-98559580D01*
X166695238Y-82650057D02*
X166790476Y-82602438D01*
X166790476Y-82602438D02*
X166885714Y-82507200D01*
X166885714Y-82507200D02*
X167028571Y-82364342D01*
X167028571Y-82364342D02*
X167123809Y-82316723D01*
X167123809Y-82316723D02*
X167219047Y-82316723D01*
X167171428Y-82554819D02*
X167266666Y-82507200D01*
X167266666Y-82507200D02*
X167361904Y-82411961D01*
X167361904Y-82411961D02*
X167409523Y-82221485D01*
X167409523Y-82221485D02*
X167409523Y-81888152D01*
X167409523Y-81888152D02*
X167361904Y-81697676D01*
X167361904Y-81697676D02*
X167266666Y-81602438D01*
X167266666Y-81602438D02*
X167171428Y-81554819D01*
X167171428Y-81554819D02*
X166980952Y-81554819D01*
X166980952Y-81554819D02*
X166885714Y-81602438D01*
X166885714Y-81602438D02*
X166790476Y-81697676D01*
X166790476Y-81697676D02*
X166742857Y-81888152D01*
X166742857Y-81888152D02*
X166742857Y-82221485D01*
X166742857Y-82221485D02*
X166790476Y-82411961D01*
X166790476Y-82411961D02*
X166885714Y-82507200D01*
X166885714Y-82507200D02*
X166980952Y-82554819D01*
X166980952Y-82554819D02*
X167171428Y-82554819D01*
X166409523Y-81554819D02*
X165742857Y-81554819D01*
X165742857Y-81554819D02*
X166171428Y-82554819D01*
X149044163Y-75304819D02*
X149377496Y-74828628D01*
X149615591Y-75304819D02*
X149615591Y-74304819D01*
X149615591Y-74304819D02*
X149234639Y-74304819D01*
X149234639Y-74304819D02*
X149139401Y-74352438D01*
X149139401Y-74352438D02*
X149091782Y-74400057D01*
X149091782Y-74400057D02*
X149044163Y-74495295D01*
X149044163Y-74495295D02*
X149044163Y-74638152D01*
X149044163Y-74638152D02*
X149091782Y-74733390D01*
X149091782Y-74733390D02*
X149139401Y-74781009D01*
X149139401Y-74781009D02*
X149234639Y-74828628D01*
X149234639Y-74828628D02*
X149615591Y-74828628D01*
X148139401Y-74304819D02*
X148615591Y-74304819D01*
X148615591Y-74304819D02*
X148663210Y-74781009D01*
X148663210Y-74781009D02*
X148615591Y-74733390D01*
X148615591Y-74733390D02*
X148520353Y-74685771D01*
X148520353Y-74685771D02*
X148282258Y-74685771D01*
X148282258Y-74685771D02*
X148187020Y-74733390D01*
X148187020Y-74733390D02*
X148139401Y-74781009D01*
X148139401Y-74781009D02*
X148091782Y-74876247D01*
X148091782Y-74876247D02*
X148091782Y-75114342D01*
X148091782Y-75114342D02*
X148139401Y-75209580D01*
X148139401Y-75209580D02*
X148187020Y-75257200D01*
X148187020Y-75257200D02*
X148282258Y-75304819D01*
X148282258Y-75304819D02*
X148520353Y-75304819D01*
X148520353Y-75304819D02*
X148615591Y-75257200D01*
X148615591Y-75257200D02*
X148663210Y-75209580D01*
X147710829Y-74400057D02*
X147663210Y-74352438D01*
X147663210Y-74352438D02*
X147567972Y-74304819D01*
X147567972Y-74304819D02*
X147329877Y-74304819D01*
X147329877Y-74304819D02*
X147234639Y-74352438D01*
X147234639Y-74352438D02*
X147187020Y-74400057D01*
X147187020Y-74400057D02*
X147139401Y-74495295D01*
X147139401Y-74495295D02*
X147139401Y-74590533D01*
X147139401Y-74590533D02*
X147187020Y-74733390D01*
X147187020Y-74733390D02*
X147758448Y-75304819D01*
X147758448Y-75304819D02*
X147139401Y-75304819D01*
X149238094Y-86554819D02*
X149238094Y-87364342D01*
X149238094Y-87364342D02*
X149190475Y-87459580D01*
X149190475Y-87459580D02*
X149142856Y-87507200D01*
X149142856Y-87507200D02*
X149047618Y-87554819D01*
X149047618Y-87554819D02*
X148857142Y-87554819D01*
X148857142Y-87554819D02*
X148761904Y-87507200D01*
X148761904Y-87507200D02*
X148714285Y-87459580D01*
X148714285Y-87459580D02*
X148666666Y-87364342D01*
X148666666Y-87364342D02*
X148666666Y-86554819D01*
X147666666Y-87554819D02*
X148238094Y-87554819D01*
X147952380Y-87554819D02*
X147952380Y-86554819D01*
X147952380Y-86554819D02*
X148047618Y-86697676D01*
X148047618Y-86697676D02*
X148142856Y-86792914D01*
X148142856Y-86792914D02*
X148238094Y-86840533D01*
X147047618Y-86554819D02*
X146952380Y-86554819D01*
X146952380Y-86554819D02*
X146857142Y-86602438D01*
X146857142Y-86602438D02*
X146809523Y-86650057D01*
X146809523Y-86650057D02*
X146761904Y-86745295D01*
X146761904Y-86745295D02*
X146714285Y-86935771D01*
X146714285Y-86935771D02*
X146714285Y-87173866D01*
X146714285Y-87173866D02*
X146761904Y-87364342D01*
X146761904Y-87364342D02*
X146809523Y-87459580D01*
X146809523Y-87459580D02*
X146857142Y-87507200D01*
X146857142Y-87507200D02*
X146952380Y-87554819D01*
X146952380Y-87554819D02*
X147047618Y-87554819D01*
X147047618Y-87554819D02*
X147142856Y-87507200D01*
X147142856Y-87507200D02*
X147190475Y-87459580D01*
X147190475Y-87459580D02*
X147238094Y-87364342D01*
X147238094Y-87364342D02*
X147285713Y-87173866D01*
X147285713Y-87173866D02*
X147285713Y-86935771D01*
X147285713Y-86935771D02*
X147238094Y-86745295D01*
X147238094Y-86745295D02*
X147190475Y-86650057D01*
X147190475Y-86650057D02*
X147142856Y-86602438D01*
X147142856Y-86602438D02*
X147047618Y-86554819D01*
X152934044Y-80636363D02*
X153029282Y-80588744D01*
X153029282Y-80588744D02*
X153124520Y-80493506D01*
X153124520Y-80493506D02*
X153267377Y-80350648D01*
X153267377Y-80350648D02*
X153362615Y-80303029D01*
X153362615Y-80303029D02*
X153457853Y-80303029D01*
X153410234Y-80541125D02*
X153505472Y-80493506D01*
X153505472Y-80493506D02*
X153600710Y-80398267D01*
X153600710Y-80398267D02*
X153648329Y-80207791D01*
X153648329Y-80207791D02*
X153648329Y-79874458D01*
X153648329Y-79874458D02*
X153600710Y-79683982D01*
X153600710Y-79683982D02*
X153505472Y-79588744D01*
X153505472Y-79588744D02*
X153410234Y-79541125D01*
X153410234Y-79541125D02*
X153219758Y-79541125D01*
X153219758Y-79541125D02*
X153124520Y-79588744D01*
X153124520Y-79588744D02*
X153029282Y-79683982D01*
X153029282Y-79683982D02*
X152981663Y-79874458D01*
X152981663Y-79874458D02*
X152981663Y-80207791D01*
X152981663Y-80207791D02*
X153029282Y-80398267D01*
X153029282Y-80398267D02*
X153124520Y-80493506D01*
X153124520Y-80493506D02*
X153219758Y-80541125D01*
X153219758Y-80541125D02*
X153410234Y-80541125D01*
X152505472Y-80541125D02*
X152314996Y-80541125D01*
X152314996Y-80541125D02*
X152219758Y-80493506D01*
X152219758Y-80493506D02*
X152172139Y-80445886D01*
X152172139Y-80445886D02*
X152076901Y-80303029D01*
X152076901Y-80303029D02*
X152029282Y-80112553D01*
X152029282Y-80112553D02*
X152029282Y-79731601D01*
X152029282Y-79731601D02*
X152076901Y-79636363D01*
X152076901Y-79636363D02*
X152124520Y-79588744D01*
X152124520Y-79588744D02*
X152219758Y-79541125D01*
X152219758Y-79541125D02*
X152410234Y-79541125D01*
X152410234Y-79541125D02*
X152505472Y-79588744D01*
X152505472Y-79588744D02*
X152553091Y-79636363D01*
X152553091Y-79636363D02*
X152600710Y-79731601D01*
X152600710Y-79731601D02*
X152600710Y-79969696D01*
X152600710Y-79969696D02*
X152553091Y-80064934D01*
X152553091Y-80064934D02*
X152505472Y-80112553D01*
X152505472Y-80112553D02*
X152410234Y-80160172D01*
X152410234Y-80160172D02*
X152219758Y-80160172D01*
X152219758Y-80160172D02*
X152124520Y-80112553D01*
X152124520Y-80112553D02*
X152076901Y-80064934D01*
X152076901Y-80064934D02*
X152029282Y-79969696D01*
X142147769Y-98759580D02*
X142195388Y-98807200D01*
X142195388Y-98807200D02*
X142338245Y-98854819D01*
X142338245Y-98854819D02*
X142433483Y-98854819D01*
X142433483Y-98854819D02*
X142576340Y-98807200D01*
X142576340Y-98807200D02*
X142671578Y-98711961D01*
X142671578Y-98711961D02*
X142719197Y-98616723D01*
X142719197Y-98616723D02*
X142766816Y-98426247D01*
X142766816Y-98426247D02*
X142766816Y-98283390D01*
X142766816Y-98283390D02*
X142719197Y-98092914D01*
X142719197Y-98092914D02*
X142671578Y-97997676D01*
X142671578Y-97997676D02*
X142576340Y-97902438D01*
X142576340Y-97902438D02*
X142433483Y-97854819D01*
X142433483Y-97854819D02*
X142338245Y-97854819D01*
X142338245Y-97854819D02*
X142195388Y-97902438D01*
X142195388Y-97902438D02*
X142147769Y-97950057D01*
X141766816Y-97950057D02*
X141719197Y-97902438D01*
X141719197Y-97902438D02*
X141623959Y-97854819D01*
X141623959Y-97854819D02*
X141385864Y-97854819D01*
X141385864Y-97854819D02*
X141290626Y-97902438D01*
X141290626Y-97902438D02*
X141243007Y-97950057D01*
X141243007Y-97950057D02*
X141195388Y-98045295D01*
X141195388Y-98045295D02*
X141195388Y-98140533D01*
X141195388Y-98140533D02*
X141243007Y-98283390D01*
X141243007Y-98283390D02*
X141814435Y-98854819D01*
X141814435Y-98854819D02*
X141195388Y-98854819D01*
X140338245Y-97854819D02*
X140528721Y-97854819D01*
X140528721Y-97854819D02*
X140623959Y-97902438D01*
X140623959Y-97902438D02*
X140671578Y-97950057D01*
X140671578Y-97950057D02*
X140766816Y-98092914D01*
X140766816Y-98092914D02*
X140814435Y-98283390D01*
X140814435Y-98283390D02*
X140814435Y-98664342D01*
X140814435Y-98664342D02*
X140766816Y-98759580D01*
X140766816Y-98759580D02*
X140719197Y-98807200D01*
X140719197Y-98807200D02*
X140623959Y-98854819D01*
X140623959Y-98854819D02*
X140433483Y-98854819D01*
X140433483Y-98854819D02*
X140338245Y-98807200D01*
X140338245Y-98807200D02*
X140290626Y-98759580D01*
X140290626Y-98759580D02*
X140243007Y-98664342D01*
X140243007Y-98664342D02*
X140243007Y-98426247D01*
X140243007Y-98426247D02*
X140290626Y-98331009D01*
X140290626Y-98331009D02*
X140338245Y-98283390D01*
X140338245Y-98283390D02*
X140433483Y-98235771D01*
X140433483Y-98235771D02*
X140623959Y-98235771D01*
X140623959Y-98235771D02*
X140719197Y-98283390D01*
X140719197Y-98283390D02*
X140766816Y-98331009D01*
X140766816Y-98331009D02*
X140814435Y-98426247D01*
X140138094Y-59454819D02*
X140138094Y-60264342D01*
X140138094Y-60264342D02*
X140090475Y-60359580D01*
X140090475Y-60359580D02*
X140042856Y-60407200D01*
X140042856Y-60407200D02*
X139947618Y-60454819D01*
X139947618Y-60454819D02*
X139757142Y-60454819D01*
X139757142Y-60454819D02*
X139661904Y-60407200D01*
X139661904Y-60407200D02*
X139614285Y-60359580D01*
X139614285Y-60359580D02*
X139566666Y-60264342D01*
X139566666Y-60264342D02*
X139566666Y-59454819D01*
X138566666Y-60454819D02*
X139138094Y-60454819D01*
X138852380Y-60454819D02*
X138852380Y-59454819D01*
X138852380Y-59454819D02*
X138947618Y-59597676D01*
X138947618Y-59597676D02*
X139042856Y-59692914D01*
X139042856Y-59692914D02*
X139138094Y-59740533D01*
X137709523Y-59788152D02*
X137709523Y-60454819D01*
X137947618Y-59407200D02*
X138185713Y-60121485D01*
X138185713Y-60121485D02*
X137566666Y-60121485D01*
X163499819Y-78059642D02*
X163023628Y-77726309D01*
X163499819Y-77488214D02*
X162499819Y-77488214D01*
X162499819Y-77488214D02*
X162499819Y-77869166D01*
X162499819Y-77869166D02*
X162547438Y-77964404D01*
X162547438Y-77964404D02*
X162595057Y-78012023D01*
X162595057Y-78012023D02*
X162690295Y-78059642D01*
X162690295Y-78059642D02*
X162833152Y-78059642D01*
X162833152Y-78059642D02*
X162928390Y-78012023D01*
X162928390Y-78012023D02*
X162976009Y-77964404D01*
X162976009Y-77964404D02*
X163023628Y-77869166D01*
X163023628Y-77869166D02*
X163023628Y-77488214D01*
X162833152Y-78916785D02*
X163499819Y-78916785D01*
X162452200Y-78678690D02*
X163166485Y-78440595D01*
X163166485Y-78440595D02*
X163166485Y-79059642D01*
X162499819Y-79916785D02*
X162499819Y-79440595D01*
X162499819Y-79440595D02*
X162976009Y-79392976D01*
X162976009Y-79392976D02*
X162928390Y-79440595D01*
X162928390Y-79440595D02*
X162880771Y-79535833D01*
X162880771Y-79535833D02*
X162880771Y-79773928D01*
X162880771Y-79773928D02*
X162928390Y-79869166D01*
X162928390Y-79869166D02*
X162976009Y-79916785D01*
X162976009Y-79916785D02*
X163071247Y-79964404D01*
X163071247Y-79964404D02*
X163309342Y-79964404D01*
X163309342Y-79964404D02*
X163404580Y-79916785D01*
X163404580Y-79916785D02*
X163452200Y-79869166D01*
X163452200Y-79869166D02*
X163499819Y-79773928D01*
X163499819Y-79773928D02*
X163499819Y-79535833D01*
X163499819Y-79535833D02*
X163452200Y-79440595D01*
X163452200Y-79440595D02*
X163404580Y-79392976D01*
X157414285Y-54954819D02*
X157414285Y-53954819D01*
X157414285Y-53954819D02*
X157176190Y-53954819D01*
X157176190Y-53954819D02*
X157033333Y-54002438D01*
X157033333Y-54002438D02*
X156938095Y-54097676D01*
X156938095Y-54097676D02*
X156890476Y-54192914D01*
X156890476Y-54192914D02*
X156842857Y-54383390D01*
X156842857Y-54383390D02*
X156842857Y-54526247D01*
X156842857Y-54526247D02*
X156890476Y-54716723D01*
X156890476Y-54716723D02*
X156938095Y-54811961D01*
X156938095Y-54811961D02*
X157033333Y-54907200D01*
X157033333Y-54907200D02*
X157176190Y-54954819D01*
X157176190Y-54954819D02*
X157414285Y-54954819D01*
X156461904Y-54050057D02*
X156414285Y-54002438D01*
X156414285Y-54002438D02*
X156319047Y-53954819D01*
X156319047Y-53954819D02*
X156080952Y-53954819D01*
X156080952Y-53954819D02*
X155985714Y-54002438D01*
X155985714Y-54002438D02*
X155938095Y-54050057D01*
X155938095Y-54050057D02*
X155890476Y-54145295D01*
X155890476Y-54145295D02*
X155890476Y-54240533D01*
X155890476Y-54240533D02*
X155938095Y-54383390D01*
X155938095Y-54383390D02*
X156509523Y-54954819D01*
X156509523Y-54954819D02*
X155890476Y-54954819D01*
X154985714Y-53954819D02*
X155461904Y-53954819D01*
X155461904Y-53954819D02*
X155509523Y-54431009D01*
X155509523Y-54431009D02*
X155461904Y-54383390D01*
X155461904Y-54383390D02*
X155366666Y-54335771D01*
X155366666Y-54335771D02*
X155128571Y-54335771D01*
X155128571Y-54335771D02*
X155033333Y-54383390D01*
X155033333Y-54383390D02*
X154985714Y-54431009D01*
X154985714Y-54431009D02*
X154938095Y-54526247D01*
X154938095Y-54526247D02*
X154938095Y-54764342D01*
X154938095Y-54764342D02*
X154985714Y-54859580D01*
X154985714Y-54859580D02*
X155033333Y-54907200D01*
X155033333Y-54907200D02*
X155128571Y-54954819D01*
X155128571Y-54954819D02*
X155366666Y-54954819D01*
X155366666Y-54954819D02*
X155461904Y-54907200D01*
X155461904Y-54907200D02*
X155509523Y-54859580D01*
X154761904Y-40304819D02*
X154761904Y-41114342D01*
X154761904Y-41114342D02*
X154714285Y-41209580D01*
X154714285Y-41209580D02*
X154666666Y-41257200D01*
X154666666Y-41257200D02*
X154571428Y-41304819D01*
X154571428Y-41304819D02*
X154380952Y-41304819D01*
X154380952Y-41304819D02*
X154285714Y-41257200D01*
X154285714Y-41257200D02*
X154238095Y-41209580D01*
X154238095Y-41209580D02*
X154190476Y-41114342D01*
X154190476Y-41114342D02*
X154190476Y-40304819D01*
X153285714Y-40304819D02*
X153476190Y-40304819D01*
X153476190Y-40304819D02*
X153571428Y-40352438D01*
X153571428Y-40352438D02*
X153619047Y-40400057D01*
X153619047Y-40400057D02*
X153714285Y-40542914D01*
X153714285Y-40542914D02*
X153761904Y-40733390D01*
X153761904Y-40733390D02*
X153761904Y-41114342D01*
X153761904Y-41114342D02*
X153714285Y-41209580D01*
X153714285Y-41209580D02*
X153666666Y-41257200D01*
X153666666Y-41257200D02*
X153571428Y-41304819D01*
X153571428Y-41304819D02*
X153380952Y-41304819D01*
X153380952Y-41304819D02*
X153285714Y-41257200D01*
X153285714Y-41257200D02*
X153238095Y-41209580D01*
X153238095Y-41209580D02*
X153190476Y-41114342D01*
X153190476Y-41114342D02*
X153190476Y-40876247D01*
X153190476Y-40876247D02*
X153238095Y-40781009D01*
X153238095Y-40781009D02*
X153285714Y-40733390D01*
X153285714Y-40733390D02*
X153380952Y-40685771D01*
X153380952Y-40685771D02*
X153571428Y-40685771D01*
X153571428Y-40685771D02*
X153666666Y-40733390D01*
X153666666Y-40733390D02*
X153714285Y-40781009D01*
X153714285Y-40781009D02*
X153761904Y-40876247D01*
X135364285Y-54922319D02*
X135364285Y-53922319D01*
X135364285Y-53922319D02*
X135126190Y-53922319D01*
X135126190Y-53922319D02*
X134983333Y-53969938D01*
X134983333Y-53969938D02*
X134888095Y-54065176D01*
X134888095Y-54065176D02*
X134840476Y-54160414D01*
X134840476Y-54160414D02*
X134792857Y-54350890D01*
X134792857Y-54350890D02*
X134792857Y-54493747D01*
X134792857Y-54493747D02*
X134840476Y-54684223D01*
X134840476Y-54684223D02*
X134888095Y-54779461D01*
X134888095Y-54779461D02*
X134983333Y-54874700D01*
X134983333Y-54874700D02*
X135126190Y-54922319D01*
X135126190Y-54922319D02*
X135364285Y-54922319D01*
X133840476Y-54922319D02*
X134411904Y-54922319D01*
X134126190Y-54922319D02*
X134126190Y-53922319D01*
X134126190Y-53922319D02*
X134221428Y-54065176D01*
X134221428Y-54065176D02*
X134316666Y-54160414D01*
X134316666Y-54160414D02*
X134411904Y-54208033D01*
X133364285Y-54922319D02*
X133173809Y-54922319D01*
X133173809Y-54922319D02*
X133078571Y-54874700D01*
X133078571Y-54874700D02*
X133030952Y-54827080D01*
X133030952Y-54827080D02*
X132935714Y-54684223D01*
X132935714Y-54684223D02*
X132888095Y-54493747D01*
X132888095Y-54493747D02*
X132888095Y-54112795D01*
X132888095Y-54112795D02*
X132935714Y-54017557D01*
X132935714Y-54017557D02*
X132983333Y-53969938D01*
X132983333Y-53969938D02*
X133078571Y-53922319D01*
X133078571Y-53922319D02*
X133269047Y-53922319D01*
X133269047Y-53922319D02*
X133364285Y-53969938D01*
X133364285Y-53969938D02*
X133411904Y-54017557D01*
X133411904Y-54017557D02*
X133459523Y-54112795D01*
X133459523Y-54112795D02*
X133459523Y-54350890D01*
X133459523Y-54350890D02*
X133411904Y-54446128D01*
X133411904Y-54446128D02*
X133364285Y-54493747D01*
X133364285Y-54493747D02*
X133269047Y-54541366D01*
X133269047Y-54541366D02*
X133078571Y-54541366D01*
X133078571Y-54541366D02*
X132983333Y-54493747D01*
X132983333Y-54493747D02*
X132935714Y-54446128D01*
X132935714Y-54446128D02*
X132888095Y-54350890D01*
X170662295Y-73628571D02*
X169862295Y-73628571D01*
X169862295Y-73628571D02*
X169862295Y-73819047D01*
X169862295Y-73819047D02*
X169900390Y-73933333D01*
X169900390Y-73933333D02*
X169976580Y-74009523D01*
X169976580Y-74009523D02*
X170052771Y-74047618D01*
X170052771Y-74047618D02*
X170205152Y-74085714D01*
X170205152Y-74085714D02*
X170319438Y-74085714D01*
X170319438Y-74085714D02*
X170471819Y-74047618D01*
X170471819Y-74047618D02*
X170548009Y-74009523D01*
X170548009Y-74009523D02*
X170624200Y-73933333D01*
X170624200Y-73933333D02*
X170662295Y-73819047D01*
X170662295Y-73819047D02*
X170662295Y-73628571D01*
X170662295Y-74847618D02*
X170662295Y-74390475D01*
X170662295Y-74619047D02*
X169862295Y-74619047D01*
X169862295Y-74619047D02*
X169976580Y-74542856D01*
X169976580Y-74542856D02*
X170052771Y-74466666D01*
X170052771Y-74466666D02*
X170090866Y-74390475D01*
X169862295Y-75342857D02*
X169862295Y-75419047D01*
X169862295Y-75419047D02*
X169900390Y-75495238D01*
X169900390Y-75495238D02*
X169938485Y-75533333D01*
X169938485Y-75533333D02*
X170014676Y-75571428D01*
X170014676Y-75571428D02*
X170167057Y-75609523D01*
X170167057Y-75609523D02*
X170357533Y-75609523D01*
X170357533Y-75609523D02*
X170509914Y-75571428D01*
X170509914Y-75571428D02*
X170586104Y-75533333D01*
X170586104Y-75533333D02*
X170624200Y-75495238D01*
X170624200Y-75495238D02*
X170662295Y-75419047D01*
X170662295Y-75419047D02*
X170662295Y-75342857D01*
X170662295Y-75342857D02*
X170624200Y-75266666D01*
X170624200Y-75266666D02*
X170586104Y-75228571D01*
X170586104Y-75228571D02*
X170509914Y-75190476D01*
X170509914Y-75190476D02*
X170357533Y-75152380D01*
X170357533Y-75152380D02*
X170167057Y-75152380D01*
X170167057Y-75152380D02*
X170014676Y-75190476D01*
X170014676Y-75190476D02*
X169938485Y-75228571D01*
X169938485Y-75228571D02*
X169900390Y-75266666D01*
X169900390Y-75266666D02*
X169862295Y-75342857D01*
X171604819Y-77869642D02*
X171128628Y-77536309D01*
X171604819Y-77298214D02*
X170604819Y-77298214D01*
X170604819Y-77298214D02*
X170604819Y-77679166D01*
X170604819Y-77679166D02*
X170652438Y-77774404D01*
X170652438Y-77774404D02*
X170700057Y-77822023D01*
X170700057Y-77822023D02*
X170795295Y-77869642D01*
X170795295Y-77869642D02*
X170938152Y-77869642D01*
X170938152Y-77869642D02*
X171033390Y-77822023D01*
X171033390Y-77822023D02*
X171081009Y-77774404D01*
X171081009Y-77774404D02*
X171128628Y-77679166D01*
X171128628Y-77679166D02*
X171128628Y-77298214D01*
X170604819Y-78202976D02*
X170604819Y-78822023D01*
X170604819Y-78822023D02*
X170985771Y-78488690D01*
X170985771Y-78488690D02*
X170985771Y-78631547D01*
X170985771Y-78631547D02*
X171033390Y-78726785D01*
X171033390Y-78726785D02*
X171081009Y-78774404D01*
X171081009Y-78774404D02*
X171176247Y-78822023D01*
X171176247Y-78822023D02*
X171414342Y-78822023D01*
X171414342Y-78822023D02*
X171509580Y-78774404D01*
X171509580Y-78774404D02*
X171557200Y-78726785D01*
X171557200Y-78726785D02*
X171604819Y-78631547D01*
X171604819Y-78631547D02*
X171604819Y-78345833D01*
X171604819Y-78345833D02*
X171557200Y-78250595D01*
X171557200Y-78250595D02*
X171509580Y-78202976D01*
X170604819Y-79726785D02*
X170604819Y-79250595D01*
X170604819Y-79250595D02*
X171081009Y-79202976D01*
X171081009Y-79202976D02*
X171033390Y-79250595D01*
X171033390Y-79250595D02*
X170985771Y-79345833D01*
X170985771Y-79345833D02*
X170985771Y-79583928D01*
X170985771Y-79583928D02*
X171033390Y-79679166D01*
X171033390Y-79679166D02*
X171081009Y-79726785D01*
X171081009Y-79726785D02*
X171176247Y-79774404D01*
X171176247Y-79774404D02*
X171414342Y-79774404D01*
X171414342Y-79774404D02*
X171509580Y-79726785D01*
X171509580Y-79726785D02*
X171557200Y-79679166D01*
X171557200Y-79679166D02*
X171604819Y-79583928D01*
X171604819Y-79583928D02*
X171604819Y-79345833D01*
X171604819Y-79345833D02*
X171557200Y-79250595D01*
X171557200Y-79250595D02*
X171509580Y-79202976D01*
X165820013Y-69254819D02*
X166153346Y-68778628D01*
X166391441Y-69254819D02*
X166391441Y-68254819D01*
X166391441Y-68254819D02*
X166010489Y-68254819D01*
X166010489Y-68254819D02*
X165915251Y-68302438D01*
X165915251Y-68302438D02*
X165867632Y-68350057D01*
X165867632Y-68350057D02*
X165820013Y-68445295D01*
X165820013Y-68445295D02*
X165820013Y-68588152D01*
X165820013Y-68588152D02*
X165867632Y-68683390D01*
X165867632Y-68683390D02*
X165915251Y-68731009D01*
X165915251Y-68731009D02*
X166010489Y-68778628D01*
X166010489Y-68778628D02*
X166391441Y-68778628D01*
X164962870Y-68588152D02*
X164962870Y-69254819D01*
X165200965Y-68207200D02*
X165439060Y-68921485D01*
X165439060Y-68921485D02*
X164820013Y-68921485D01*
X164010489Y-68254819D02*
X164200965Y-68254819D01*
X164200965Y-68254819D02*
X164296203Y-68302438D01*
X164296203Y-68302438D02*
X164343822Y-68350057D01*
X164343822Y-68350057D02*
X164439060Y-68492914D01*
X164439060Y-68492914D02*
X164486679Y-68683390D01*
X164486679Y-68683390D02*
X164486679Y-69064342D01*
X164486679Y-69064342D02*
X164439060Y-69159580D01*
X164439060Y-69159580D02*
X164391441Y-69207200D01*
X164391441Y-69207200D02*
X164296203Y-69254819D01*
X164296203Y-69254819D02*
X164105727Y-69254819D01*
X164105727Y-69254819D02*
X164010489Y-69207200D01*
X164010489Y-69207200D02*
X163962870Y-69159580D01*
X163962870Y-69159580D02*
X163915251Y-69064342D01*
X163915251Y-69064342D02*
X163915251Y-68826247D01*
X163915251Y-68826247D02*
X163962870Y-68731009D01*
X163962870Y-68731009D02*
X164010489Y-68683390D01*
X164010489Y-68683390D02*
X164105727Y-68635771D01*
X164105727Y-68635771D02*
X164296203Y-68635771D01*
X164296203Y-68635771D02*
X164391441Y-68683390D01*
X164391441Y-68683390D02*
X164439060Y-68731009D01*
X164439060Y-68731009D02*
X164486679Y-68826247D01*
X140642857Y-77354819D02*
X140976190Y-76878628D01*
X141214285Y-77354819D02*
X141214285Y-76354819D01*
X141214285Y-76354819D02*
X140833333Y-76354819D01*
X140833333Y-76354819D02*
X140738095Y-76402438D01*
X140738095Y-76402438D02*
X140690476Y-76450057D01*
X140690476Y-76450057D02*
X140642857Y-76545295D01*
X140642857Y-76545295D02*
X140642857Y-76688152D01*
X140642857Y-76688152D02*
X140690476Y-76783390D01*
X140690476Y-76783390D02*
X140738095Y-76831009D01*
X140738095Y-76831009D02*
X140833333Y-76878628D01*
X140833333Y-76878628D02*
X141214285Y-76878628D01*
X140309523Y-76354819D02*
X139642857Y-76354819D01*
X139642857Y-76354819D02*
X140071428Y-77354819D01*
X139071428Y-76354819D02*
X138976190Y-76354819D01*
X138976190Y-76354819D02*
X138880952Y-76402438D01*
X138880952Y-76402438D02*
X138833333Y-76450057D01*
X138833333Y-76450057D02*
X138785714Y-76545295D01*
X138785714Y-76545295D02*
X138738095Y-76735771D01*
X138738095Y-76735771D02*
X138738095Y-76973866D01*
X138738095Y-76973866D02*
X138785714Y-77164342D01*
X138785714Y-77164342D02*
X138833333Y-77259580D01*
X138833333Y-77259580D02*
X138880952Y-77307200D01*
X138880952Y-77307200D02*
X138976190Y-77354819D01*
X138976190Y-77354819D02*
X139071428Y-77354819D01*
X139071428Y-77354819D02*
X139166666Y-77307200D01*
X139166666Y-77307200D02*
X139214285Y-77259580D01*
X139214285Y-77259580D02*
X139261904Y-77164342D01*
X139261904Y-77164342D02*
X139309523Y-76973866D01*
X139309523Y-76973866D02*
X139309523Y-76735771D01*
X139309523Y-76735771D02*
X139261904Y-76545295D01*
X139261904Y-76545295D02*
X139214285Y-76450057D01*
X139214285Y-76450057D02*
X139166666Y-76402438D01*
X139166666Y-76402438D02*
X139071428Y-76354819D01*
X135442857Y-56754819D02*
X135776190Y-56278628D01*
X136014285Y-56754819D02*
X136014285Y-55754819D01*
X136014285Y-55754819D02*
X135633333Y-55754819D01*
X135633333Y-55754819D02*
X135538095Y-55802438D01*
X135538095Y-55802438D02*
X135490476Y-55850057D01*
X135490476Y-55850057D02*
X135442857Y-55945295D01*
X135442857Y-55945295D02*
X135442857Y-56088152D01*
X135442857Y-56088152D02*
X135490476Y-56183390D01*
X135490476Y-56183390D02*
X135538095Y-56231009D01*
X135538095Y-56231009D02*
X135633333Y-56278628D01*
X135633333Y-56278628D02*
X136014285Y-56278628D01*
X134538095Y-55754819D02*
X135014285Y-55754819D01*
X135014285Y-55754819D02*
X135061904Y-56231009D01*
X135061904Y-56231009D02*
X135014285Y-56183390D01*
X135014285Y-56183390D02*
X134919047Y-56135771D01*
X134919047Y-56135771D02*
X134680952Y-56135771D01*
X134680952Y-56135771D02*
X134585714Y-56183390D01*
X134585714Y-56183390D02*
X134538095Y-56231009D01*
X134538095Y-56231009D02*
X134490476Y-56326247D01*
X134490476Y-56326247D02*
X134490476Y-56564342D01*
X134490476Y-56564342D02*
X134538095Y-56659580D01*
X134538095Y-56659580D02*
X134585714Y-56707200D01*
X134585714Y-56707200D02*
X134680952Y-56754819D01*
X134680952Y-56754819D02*
X134919047Y-56754819D01*
X134919047Y-56754819D02*
X135014285Y-56707200D01*
X135014285Y-56707200D02*
X135061904Y-56659580D01*
X133633333Y-56088152D02*
X133633333Y-56754819D01*
X133871428Y-55707200D02*
X134109523Y-56421485D01*
X134109523Y-56421485D02*
X133490476Y-56421485D01*
D11*
%TO.C,C25*%
X149877605Y-90296248D02*
X149877605Y-90818752D01*
X151347605Y-90296248D02*
X151347605Y-90818752D01*
%TO.C,C21*%
X117338748Y-83765000D02*
X117861252Y-83765000D01*
X117338748Y-85235000D02*
X117861252Y-85235000D01*
%TO.C,R27*%
X137259169Y-90430436D02*
X137259169Y-90884564D01*
X138729169Y-90430436D02*
X138729169Y-90884564D01*
%TO.C,R56*%
X152272936Y-55515000D02*
X152727064Y-55515000D01*
X152272936Y-56985000D02*
X152727064Y-56985000D01*
%TO.C,C28*%
X167093513Y-93527500D02*
X166571009Y-93527500D01*
X167093513Y-94997500D02*
X166571009Y-94997500D01*
%TO.C,U18*%
X141750000Y-41690000D02*
X139800000Y-41690000D01*
X141750000Y-41690000D02*
X143700000Y-41690000D01*
X141750000Y-46810000D02*
X139800000Y-46810000D01*
X141750000Y-46810000D02*
X143700000Y-46810000D01*
X144450000Y-41785000D02*
X144210000Y-41455000D01*
X144690000Y-41455000D01*
X144450000Y-41785000D01*
G36*
X144450000Y-41785000D02*
G01*
X144210000Y-41455000D01*
X144690000Y-41455000D01*
X144450000Y-41785000D01*
G37*
%TO.C,R33*%
X176065000Y-83012064D02*
X176065000Y-82557936D01*
X177535000Y-83012064D02*
X177535000Y-82557936D01*
%TO.C,C30*%
X165408436Y-90126248D02*
X165408436Y-90648752D01*
X166878436Y-90126248D02*
X166878436Y-90648752D01*
%TO.C,D6*%
X175840000Y-71912500D02*
X177760000Y-71912500D01*
X175840000Y-75012500D02*
X175840000Y-71912500D01*
X177760000Y-71912500D02*
X177760000Y-75012500D01*
%TO.C,C19*%
X156777972Y-93527500D02*
X157300476Y-93527500D01*
X156777972Y-94997500D02*
X157300476Y-94997500D01*
%TO.C,R36*%
X173065833Y-74277500D02*
X173519961Y-74277500D01*
X173065833Y-75747500D02*
X173519961Y-75747500D01*
%TO.C,CA1*%
X138536248Y-57582500D02*
X139058752Y-57582500D01*
X138536248Y-59052500D02*
X139058752Y-59052500D01*
%TO.C,R72*%
X143674242Y-78001306D02*
X144128370Y-78001306D01*
X143674242Y-79471306D02*
X144128370Y-79471306D01*
%TO.C,R71*%
X148578370Y-78026306D02*
X148124242Y-78026306D01*
X148578370Y-79496306D02*
X148124242Y-79496306D01*
%TO.C,R32*%
X127820436Y-46007462D02*
X128274564Y-46007462D01*
X127820436Y-47477462D02*
X128274564Y-47477462D01*
%TO.C,R34*%
X176065000Y-69512064D02*
X176065000Y-69057936D01*
X177535000Y-69512064D02*
X177535000Y-69057936D01*
%TO.C,CA4*%
X152286248Y-57582500D02*
X152808752Y-57582500D01*
X152286248Y-59052500D02*
X152808752Y-59052500D01*
%TO.C,R37*%
X127820436Y-44007462D02*
X128274564Y-44007462D01*
X127820436Y-45477462D02*
X128274564Y-45477462D01*
%TO.C,CA3*%
X147688748Y-57615000D02*
X148211252Y-57615000D01*
X147688748Y-59085000D02*
X148211252Y-59085000D01*
%TO.C,C42*%
X134765000Y-43488748D02*
X134765000Y-44011252D01*
X136235000Y-43488748D02*
X136235000Y-44011252D01*
%TO.C,R28*%
X146621234Y-93697500D02*
X146167106Y-93697500D01*
X146621234Y-95167500D02*
X146167106Y-95167500D01*
%TO.C,C27*%
X151562682Y-93697500D02*
X151040178Y-93697500D01*
X151562682Y-95167500D02*
X151040178Y-95167500D01*
%TO.C,C22*%
X127561252Y-83765000D02*
X127038748Y-83765000D01*
X127561252Y-85235000D02*
X127038748Y-85235000D01*
%TO.C,R49*%
X162152065Y-93527500D02*
X161697937Y-93527500D01*
X162152065Y-94997500D02*
X161697937Y-94997500D01*
%TO.C,Q13*%
X163635000Y-71602500D02*
X163635000Y-70952500D01*
X163635000Y-71602500D02*
X163635000Y-72252500D01*
X166755000Y-71602500D02*
X166755000Y-70952500D01*
X166755000Y-71602500D02*
X166755000Y-73277500D01*
%TO.C,D21*%
X142050000Y-53932500D02*
X144050000Y-53932500D01*
X142050000Y-55132500D02*
X144050000Y-55132500D01*
X144050000Y-53932500D02*
X144050000Y-55132500D01*
%TO.C,R17*%
X122727064Y-83765000D02*
X122272936Y-83765000D01*
X122727064Y-85235000D02*
X122272936Y-85235000D01*
%TO.C,U15*%
X145880000Y-64370000D02*
X145880000Y-62370000D01*
X145880000Y-64370000D02*
X145880000Y-66320000D01*
X156000000Y-64370000D02*
X156000000Y-62420000D01*
X156000000Y-64370000D02*
X156000000Y-66320000D01*
D12*
X146590000Y-59870000D02*
G75*
G02*
X146290000Y-59870000I-150000J0D01*
G01*
X146290000Y-59870000D02*
G75*
G02*
X146590000Y-59870000I150000J0D01*
G01*
D11*
%TO.C,R43*%
X167960000Y-83202064D02*
X167960000Y-82747936D01*
X169430000Y-83202064D02*
X169430000Y-82747936D01*
%TO.C,C17*%
X121211252Y-78390000D02*
X120688748Y-78390000D01*
X121211252Y-79860000D02*
X120688748Y-79860000D01*
%TO.C,R22*%
X108765181Y-95474003D02*
X108311053Y-95474003D01*
X108765181Y-96944003D02*
X108311053Y-96944003D01*
%TO.C,Q3*%
X174295000Y-78365000D02*
X174295000Y-77715000D01*
X174295000Y-78365000D02*
X174295000Y-79015000D01*
X177415000Y-78365000D02*
X177415000Y-77715000D01*
X177415000Y-78365000D02*
X177415000Y-80040000D01*
%TO.C,Q11*%
X171740000Y-71412500D02*
X171740000Y-70762500D01*
X171740000Y-71412500D02*
X171740000Y-72062500D01*
X174860000Y-71412500D02*
X174860000Y-70762500D01*
X174860000Y-71412500D02*
X174860000Y-73087500D01*
%TO.C,R51*%
X152790000Y-90260436D02*
X152790000Y-90714564D01*
X154260000Y-90260436D02*
X154260000Y-90714564D01*
%TO.C,C41*%
X142726248Y-72890000D02*
X144148752Y-72890000D01*
X142726248Y-75610000D02*
X144148752Y-75610000D01*
%TO.C,C20*%
X121226052Y-74265000D02*
X120703548Y-74265000D01*
X121226052Y-75735000D02*
X120703548Y-75735000D01*
%TO.C,U13*%
X159975000Y-87927500D02*
X158025000Y-87927500D01*
X159975000Y-87927500D02*
X161925000Y-87927500D01*
X159975000Y-93047500D02*
X158025000Y-93047500D01*
X159975000Y-93047500D02*
X161925000Y-93047500D01*
X162675000Y-88022500D02*
X162435000Y-87692500D01*
X162915000Y-87692500D01*
X162675000Y-88022500D01*
G36*
X162675000Y-88022500D02*
G01*
X162435000Y-87692500D01*
X162915000Y-87692500D01*
X162675000Y-88022500D01*
G37*
%TO.C,C16*%
X121210452Y-72165000D02*
X120687948Y-72165000D01*
X121210452Y-73635000D02*
X120687948Y-73635000D01*
%TO.C,C18*%
X121195652Y-76290000D02*
X120673148Y-76290000D01*
X121195652Y-77760000D02*
X120673148Y-77760000D01*
%TO.C,C31*%
X147265000Y-43488748D02*
X147265000Y-44011252D01*
X148735000Y-43488748D02*
X148735000Y-44011252D01*
%TO.C,CA2*%
X143188748Y-57615000D02*
X143711252Y-57615000D01*
X143188748Y-59085000D02*
X143711252Y-59085000D01*
%TO.C,R44*%
X167960000Y-69702064D02*
X167960000Y-69247936D01*
X169430000Y-69702064D02*
X169430000Y-69247936D01*
%TO.C,R69*%
X143022936Y-70765000D02*
X143477064Y-70765000D01*
X143022936Y-72235000D02*
X143477064Y-72235000D01*
%TO.C,R53*%
X138570436Y-55515000D02*
X139024564Y-55515000D01*
X138570436Y-56985000D02*
X139024564Y-56985000D01*
%TO.C,C23*%
X108273148Y-97515000D02*
X108795652Y-97515000D01*
X108273148Y-98985000D02*
X108795652Y-98985000D01*
%TO.C,Q7*%
X166190000Y-78555000D02*
X166190000Y-77905000D01*
X166190000Y-78555000D02*
X166190000Y-79205000D01*
X169310000Y-78555000D02*
X169310000Y-77905000D01*
X169310000Y-78555000D02*
X169310000Y-80230000D01*
%TO.C,R52*%
X148628370Y-75765000D02*
X148174242Y-75765000D01*
X148628370Y-77235000D02*
X148174242Y-77235000D01*
%TO.C,U10*%
X144444169Y-88097500D02*
X142494169Y-88097500D01*
X144444169Y-88097500D02*
X146394169Y-88097500D01*
X144444169Y-93217500D02*
X142494169Y-93217500D01*
X144444169Y-93217500D02*
X146394169Y-93217500D01*
X147144169Y-88192500D02*
X146904169Y-87862500D01*
X147384169Y-87862500D01*
X147144169Y-88192500D01*
G36*
X147144169Y-88192500D02*
G01*
X146904169Y-87862500D01*
X147384169Y-87862500D01*
X147144169Y-88192500D01*
G37*
%TO.C,Q9*%
X152838806Y-76126306D02*
X152188806Y-76126306D01*
X152838806Y-76126306D02*
X153488806Y-76126306D01*
X152838806Y-79246306D02*
X152188806Y-79246306D01*
X152838806Y-79246306D02*
X153488806Y-79246306D01*
X151916306Y-79526306D02*
X151436306Y-79526306D01*
X151676306Y-79196306D01*
X151916306Y-79526306D01*
G36*
X151916306Y-79526306D02*
G01*
X151436306Y-79526306D01*
X151676306Y-79196306D01*
X151916306Y-79526306D01*
G37*
%TO.C,C26*%
X141247141Y-93697500D02*
X141769645Y-93697500D01*
X141247141Y-95167500D02*
X141769645Y-95167500D01*
D13*
%TO.C,U14*%
X136690000Y-63050000D02*
X136690000Y-65390000D01*
X145340000Y-63050000D02*
X145340000Y-65390000D01*
D14*
X137015000Y-60170000D02*
G75*
G02*
X136815000Y-60170000I-100000J0D01*
G01*
X136815000Y-60170000D02*
G75*
G02*
X137015000Y-60170000I100000J0D01*
G01*
D11*
%TO.C,R45*%
X163960000Y-78475436D02*
X163960000Y-78929564D01*
X165430000Y-78475436D02*
X165430000Y-78929564D01*
%TO.C,D25*%
X152250000Y-53900000D02*
X154250000Y-53900000D01*
X152250000Y-55100000D02*
X154250000Y-55100000D01*
X154250000Y-53900000D02*
X154250000Y-55100000D01*
%TO.C,U6*%
X154000000Y-41690000D02*
X152050000Y-41690000D01*
X154000000Y-41690000D02*
X155950000Y-41690000D01*
X154000000Y-46810000D02*
X152050000Y-46810000D01*
X154000000Y-46810000D02*
X155950000Y-46810000D01*
X156700000Y-41785000D02*
X156460000Y-41455000D01*
X156940000Y-41455000D01*
X156700000Y-41785000D01*
G36*
X156700000Y-41785000D02*
G01*
X156460000Y-41455000D01*
X156940000Y-41455000D01*
X156700000Y-41785000D01*
G37*
%TO.C,D19*%
X136300000Y-53900000D02*
X138300000Y-53900000D01*
X136300000Y-55100000D02*
X138300000Y-55100000D01*
X138300000Y-53900000D02*
X138300000Y-55100000D01*
%TO.C,D10*%
X167735000Y-72102500D02*
X169655000Y-72102500D01*
X167735000Y-75202500D02*
X167735000Y-72102500D01*
X169655000Y-72102500D02*
X169655000Y-75202500D01*
%TO.C,R35*%
X172065000Y-78285436D02*
X172065000Y-78739564D01*
X173535000Y-78285436D02*
X173535000Y-78739564D01*
%TO.C,R46*%
X164960833Y-74467500D02*
X165414961Y-74467500D01*
X164960833Y-75937500D02*
X165414961Y-75937500D01*
%TO.C,R70*%
X144128370Y-76101306D02*
X143674242Y-76101306D01*
X144128370Y-77571306D02*
X143674242Y-77571306D01*
%TO.C,R54*%
X143272936Y-55515000D02*
X143727064Y-55515000D01*
X143272936Y-56985000D02*
X143727064Y-56985000D01*
%TD*%
M02*
