M48
; DRILL file {KiCad 9.0.2} date 2026-04-22T11:55:24+0800
; FORMAT={-:-/ absolute / metric / decimal}
; #@! TF.CreationDate,2026-04-22T11:55:24+08:00
; #@! TF.GenerationSoftware,Kicad,Pcbnew,9.0.2
; #@! TF.FileFunction,Plated,1,2,PTH
FMAT,2
METRIC
; #@! TA.AperFunction,Plated,PTH,ViaDrill
T1C0.300
; #@! TA.AperFunction,Plated,PTH,ComponentDrill
T2C0.800
; #@! TA.AperFunction,Plated,PTH,ComponentDrill
T3C1.000
; #@! TA.AperFunction,Plated,PTH,ComponentDrill
T4C1.020
; #@! TA.AperFunction,Plated,PTH,ComponentDrill
T5C1.100
; #@! TA.AperFunction,Plated,PTH,ComponentDrill
T6C1.300
%
G90
G05
T1
X87.1Y-54.6
X89.847Y-63.267
X89.884Y-85.634
X89.884Y-91.384
X93.707Y-54.607
X94.1Y-84.5
X94.693Y-48.216
X94.893Y-78.316
X96.7Y-58.0
X96.8Y-89.0
X104.098Y-47.202
X104.098Y-52.282
X104.098Y-54.822
X104.098Y-57.362
X104.098Y-59.902
X104.098Y-62.442
X104.098Y-64.982
X104.098Y-67.522
X104.098Y-70.062
X104.098Y-77.682
X104.098Y-82.762
X104.098Y-85.302
X104.098Y-87.842
X104.098Y-90.382
X104.098Y-92.922
X104.098Y-95.462
X106.638Y-42.122
X106.638Y-44.662
X106.638Y-47.202
X106.638Y-49.742
X106.638Y-64.982
X106.638Y-67.522
X106.638Y-70.062
X106.638Y-72.602
X106.638Y-82.762
X108.5Y-59.134
X108.5Y-90.0
X109.178Y-42.122
X109.178Y-44.662
X109.178Y-49.742
X109.178Y-52.282
X109.178Y-54.822
X109.178Y-57.362
X109.178Y-75.142
X109.178Y-80.222
X109.178Y-85.302
X109.178Y-87.842
X109.75Y-98.25
X110.803Y-68.741
X110.803Y-78.316
X111.718Y-42.122
X111.718Y-49.742
X111.718Y-52.282
X111.718Y-54.822
X111.718Y-57.362
X111.718Y-67.522
X111.718Y-95.462
X112.9Y-85.45
X113.0Y-77.0
X113.456Y-75.544
X113.801Y-74.799
X114.258Y-42.122
X114.258Y-44.662
X114.258Y-47.202
X114.258Y-54.822
X114.258Y-57.362
X114.258Y-59.902
X114.258Y-62.442
X114.258Y-82.762
X114.258Y-85.302
X114.258Y-87.842
X114.258Y-92.922
X114.258Y-95.462
X114.258Y-98.002
X114.4Y-77.337
X115.6Y-74.15
X116.798Y-42.122
X116.798Y-98.002
X117.684Y-81.369
X118.07Y-80.668
X118.48Y-69.925
X119.0Y-80.75
X119.282Y-52.594
X119.338Y-59.902
X119.338Y-62.442
X119.338Y-98.002
X119.719Y-77.025
X119.734Y-80.375
X119.749Y-76.25
X120.534Y-69.993
X121.0Y-80.5
X121.789Y-52.594
X121.878Y-42.122
X121.878Y-44.662
X121.878Y-47.202
X121.878Y-64.982
X121.878Y-87.842
X121.878Y-92.922
X121.878Y-95.462
X121.878Y-98.002
X122.15Y-77.018
X122.75Y-80.5
X124.0Y-46.0
X124.4Y-47.0
X124.418Y-42.122
X124.418Y-44.662
X124.418Y-82.762
X124.418Y-98.002
X124.75Y-96.75
X125.0Y-74.0
X126.75Y-79.0
X126.958Y-49.742
X126.958Y-52.282
X126.958Y-82.762
X126.958Y-90.382
X127.0Y-79.763
X127.5Y-92.75
X127.5Y-95.29
X127.681Y-67.707
X127.681Y-70.007
X127.962Y-80.637
X129.0Y-78.8
X129.498Y-82.762
X129.498Y-90.382
X130.5Y-95.25
X131.5Y-64.725
X132.0Y-82.5
X132.038Y-57.362
X132.038Y-59.902
X132.657Y-78.898
X132.75Y-79.875
X132.75Y-81.875
X133.376Y-79.25
X133.376Y-81.25
X133.696Y-57.577
X133.75Y-42.5
X134.25Y-57.0
X134.5Y-83.5
X134.578Y-52.282
X134.578Y-70.062
X134.578Y-75.142
X134.578Y-85.302
X134.75Y-68.0
X135.25Y-79.0
X135.5Y-55.5
X136.1Y-69.25
X136.25Y-79.0
X136.493Y-66.466
X136.5Y-64.034
X137.118Y-75.142
X137.118Y-95.462
X137.118Y-98.002
X137.5Y-56.25
X137.582Y-58.324
X138.547Y-64.067
X139.658Y-72.602
X139.658Y-75.142
X139.95Y-56.282
X140.228Y-70.4
X140.547Y-64.067
X141.0Y-44.75
X141.75Y-74.25
X142.0Y-43.6
X142.198Y-87.842
X142.25Y-56.25
X142.297Y-58.294
X142.547Y-64.067
X142.749Y-76.804
X142.749Y-78.769
X143.469Y-84.0
X143.75Y-48.25
X144.013Y-90.657
X144.119Y-83.5
X144.413Y-89.957
X144.547Y-64.067
X144.653Y-56.282
X144.738Y-87.842
X144.825Y-61.6
X145.054Y-76.804
X145.419Y-83.644
X146.0Y-83.0
X146.495Y-61.72
X146.797Y-56.217
X146.797Y-58.383
X147.278Y-87.842
X147.278Y-98.002
X147.765Y-61.72
X148.024Y-64.524
X149.035Y-61.72
X149.504Y-78.729
X149.554Y-76.468
X149.818Y-75.142
X149.818Y-87.842
X150.529Y-65.374
X151.0Y-85.5
X151.332Y-58.324
X151.347Y-56.282
X151.575Y-61.72
X151.799Y-85.451
X152.0Y-91.757
X152.358Y-49.742
X152.358Y-59.902
X152.358Y-92.922
X152.441Y-83.0
X152.54Y-65.384
X153.653Y-56.282
X154.115Y-61.72
X154.468Y-65.31
X154.75Y-42.25
X154.898Y-59.902
X154.898Y-92.922
X155.408Y-70.673
X156.75Y-61.75
X156.75Y-77.75
X157.75Y-53.75
X157.75Y-55.133
X158.75Y-55.133
X159.0Y-84.25
X159.5Y-83.5
X159.543Y-90.487
X159.943Y-89.787
X159.978Y-42.122
X159.978Y-59.902
X159.978Y-77.682
X159.978Y-87.842
X160.7Y-79.75
X160.95Y-83.45
X162.0Y-80.5
X162.5Y-84.0
X162.518Y-42.122
X162.518Y-57.362
X162.518Y-59.902
X162.518Y-62.442
X162.518Y-67.522
X162.518Y-98.002
X165.058Y-42.122
X165.058Y-44.662
X165.058Y-59.902
X165.058Y-62.442
X165.058Y-87.842
X165.058Y-92.922
X165.75Y-51.75
X166.674Y-83.326
X166.8Y-81.093
X167.5Y-52.25
X167.598Y-42.122
X167.598Y-44.662
X167.598Y-47.202
X167.598Y-92.922
X167.843Y-91.587
X168.25Y-60.5
X170.138Y-42.122
X170.138Y-44.662
X170.138Y-47.202
X170.138Y-49.742
X170.138Y-52.282
X170.138Y-57.362
X170.138Y-67.522
X170.138Y-70.062
X170.138Y-72.602
X170.138Y-77.682
X170.138Y-82.762
X170.138Y-87.842
X170.138Y-90.382
X170.138Y-92.922
X170.138Y-95.462
X170.138Y-98.002
X170.5Y-79.75
X172.678Y-42.122
X172.678Y-47.202
X172.678Y-49.742
X172.678Y-52.282
X172.678Y-54.822
X172.678Y-57.362
X172.678Y-59.902
X172.678Y-62.442
X172.678Y-87.842
X172.678Y-90.382
X172.678Y-92.922
X172.678Y-98.002
X174.654Y-81.154
X175.218Y-42.122
X175.218Y-49.742
X175.218Y-52.282
X175.218Y-54.822
X175.218Y-62.442
X175.218Y-64.982
X175.218Y-67.522
X175.218Y-70.062
X175.218Y-82.762
X175.218Y-87.842
X175.218Y-90.382
X177.758Y-44.662
X177.758Y-47.202
X177.758Y-49.742
X177.758Y-52.282
X177.758Y-54.822
X177.758Y-57.362
X177.758Y-59.902
X177.758Y-62.442
X177.758Y-64.982
X177.758Y-85.302
X177.758Y-87.842
X177.758Y-90.382
X177.758Y-92.922
T2
X164.25Y-56.94
X164.25Y-64.56
T3
X119.956Y-87.0
X125.036Y-87.0
X143.807Y-96.957
X148.887Y-96.957
X159.338Y-96.787
X164.418Y-96.787
T4
X49.07Y-74.25
X49.07Y-77.25
X49.12Y-59.7
X49.12Y-62.7
X55.5Y-49.12
X55.5Y-91.035
X58.5Y-49.12
X58.5Y-91.035
X130.125Y-49.085
X130.125Y-52.085
X133.125Y-49.085
X133.125Y-52.085
X136.125Y-49.085
X136.125Y-52.085
X139.125Y-49.085
X139.125Y-52.085
X142.125Y-49.085
X142.125Y-52.085
X145.125Y-49.085
X145.125Y-52.085
X148.125Y-49.085
X148.125Y-52.085
X151.125Y-49.085
X151.125Y-52.085
X154.125Y-49.085
X154.125Y-52.085
X157.125Y-49.085
X157.125Y-52.085
X160.125Y-49.085
X160.125Y-52.085
X163.125Y-49.085
X163.125Y-52.085
X167.915Y-56.0
X167.915Y-59.0
X167.915Y-62.0
X170.915Y-56.0
X170.915Y-59.0
X170.915Y-62.0
T5
X160.25Y-72.0
X160.25Y-74.54
T6
X160.25Y-56.76
X160.25Y-61.84
M30
