%TF.GenerationSoftware,KiCad,Pcbnew,9.0.2*%
%TF.CreationDate,2026-04-22T11:55:21+08:00*%
%TF.ProjectId,BDUCU,42445543-552e-46b6-9963-61645f706362,rev?*%
%TF.SameCoordinates,Original*%
%TF.FileFunction,Soldermask,Top*%
%TF.FilePolarity,Negative*%
%FSLAX46Y46*%
G04 Gerber Fmt 4.6, Leading zero omitted, Abs format (unit mm)*
G04 Created by KiCad (PCBNEW 9.0.2) date 2026-04-22 11:55:21*
%MOMM*%
%LPD*%
G01*
G04 APERTURE LIST*
G04 Aperture macros list*
%AMRoundRect*
0 Rectangle with rounded corners*
0 $1 Rounding radius*
0 $2 $3 $4 $5 $6 $7 $8 $9 X,Y pos of 4 corners*
0 Add a 4 corners polygon primitive as box body*
4,1,4,$2,$3,$4,$5,$6,$7,$8,$9,$2,$3,0*
0 Add four circle primitives for the rounded corners*
1,1,$1+$1,$2,$3*
1,1,$1+$1,$4,$5*
1,1,$1+$1,$6,$7*
1,1,$1+$1,$8,$9*
0 Add four rect primitives between the rounded corners*
20,1,$1+$1,$2,$3,$4,$5,0*
20,1,$1+$1,$4,$5,$6,$7,0*
20,1,$1+$1,$6,$7,$8,$9,0*
20,1,$1+$1,$8,$9,$2,$3,0*%
G04 Aperture macros list end*
%ADD10C,4.300000*%
%ADD11RoundRect,0.278125X-0.474375X-0.389375X0.474375X-0.389375X0.474375X0.389375X-0.474375X0.389375X0*%
%ADD12RoundRect,0.150000X-0.150000X1.350000X-0.150000X-1.350000X0.150000X-1.350000X0.150000X1.350000X0*%
%ADD13RoundRect,0.150000X-0.150000X1.337500X-0.150000X-1.337500X0.150000X-1.337500X0.150000X1.337500X0*%
%ADD14RoundRect,0.278125X0.474375X0.389375X-0.474375X0.389375X-0.474375X-0.389375X0.474375X-0.389375X0*%
%ADD15C,2.400000*%
%ADD16R,5.500000X2.500000*%
%ADD17RoundRect,0.305575X0.412525X-0.460025X0.412525X0.460025X-0.412525X0.460025X-0.412525X-0.460025X0*%
%ADD18RoundRect,0.308511X0.416489X-0.457089X0.416489X0.457089X-0.416489X0.457089X-0.416489X-0.457089X0*%
%ADD19RoundRect,0.305575X0.460025X0.412525X-0.460025X0.412525X-0.460025X-0.412525X0.460025X-0.412525X0*%
%ADD20RoundRect,0.308511X0.457089X0.416489X-0.457089X0.416489X-0.457089X-0.416489X0.457089X-0.416489X0*%
%ADD21RoundRect,0.278125X-0.389375X0.474375X-0.389375X-0.474375X0.389375X-0.474375X0.389375X0.474375X0*%
%ADD22RoundRect,0.120600X-1.111400X-0.281400X1.111400X-0.281400X1.111400X0.281400X-1.111400X0.281400X0*%
%ADD23RoundRect,0.122100X-1.109900X-0.284900X1.109900X-0.284900X1.109900X0.284900X-1.109900X0.284900X0*%
%ADD24RoundRect,0.278125X0.389375X-0.474375X0.389375X0.474375X-0.389375X0.474375X-0.389375X-0.474375X0*%
%ADD25RoundRect,0.250000X0.550000X-0.550000X0.550000X0.550000X-0.550000X0.550000X-0.550000X-0.550000X0*%
%ADD26C,1.600000*%
%ADD27C,3.000000*%
%ADD28RoundRect,0.250001X0.759999X-0.499999X0.759999X0.499999X-0.759999X0.499999X-0.759999X-0.499999X0*%
%ADD29O,2.020000X1.500000*%
%ADD30R,3.250000X3.430000*%
%ADD31RoundRect,0.305575X-0.412525X0.460025X-0.412525X-0.460025X0.412525X-0.460025X0.412525X0.460025X0*%
%ADD32RoundRect,0.308511X-0.416489X0.457089X-0.416489X-0.457089X0.416489X-0.457089X0.416489X0.457089X0*%
%ADD33RoundRect,0.250000X-0.300000X0.300000X-0.300000X-0.300000X0.300000X-0.300000X0.300000X0.300000X0*%
%ADD34RoundRect,0.175000X-0.225000X-0.175000X0.225000X-0.175000X0.225000X0.175000X-0.225000X0.175000X0*%
%ADD35RoundRect,0.100000X0.100000X-0.687500X0.100000X0.687500X-0.100000X0.687500X-0.100000X-0.687500X0*%
%ADD36RoundRect,0.100000X0.099999X-0.687500X0.099999X0.687500X-0.099999X0.687500X-0.099999X-0.687500X0*%
%ADD37R,2.400000X1.500000*%
%ADD38RoundRect,0.305575X-0.460025X-0.412525X0.460025X-0.412525X0.460025X0.412525X-0.460025X0.412525X0*%
%ADD39RoundRect,0.308511X-0.457089X-0.416489X0.457089X-0.416489X0.457089X0.416489X-0.457089X0.416489X0*%
%ADD40RoundRect,0.396226X0.953774X-0.653774X0.953774X0.653774X-0.953774X0.653774X-0.953774X-0.653774X0*%
%ADD41RoundRect,0.293478X-0.406522X0.381522X-0.406522X-0.381522X0.406522X-0.381522X0.406522X0.381522X0*%
%ADD42RoundRect,0.150000X0.150000X-0.750000X0.150000X0.750000X-0.150000X0.750000X-0.150000X-0.750000X0*%
%ADD43C,1.905000*%
%ADD44RoundRect,0.162500X-1.002500X-0.162500X1.002500X-0.162500X1.002500X0.162500X-1.002500X0.162500X0*%
%ADD45RoundRect,0.160500X-1.004500X-0.160500X1.004500X-0.160500X1.004500X0.160500X-1.004500X0.160500X0*%
%ADD46RoundRect,0.162500X-1.097500X-0.162500X1.097500X-0.162500X1.097500X0.162500X-1.097500X0.162500X0*%
%ADD47RoundRect,0.250001X-0.499999X-0.759999X0.499999X-0.759999X0.499999X0.759999X-0.499999X0.759999X0*%
%ADD48O,1.500000X2.020000*%
%ADD49R,0.800000X2.310000*%
%ADD50R,0.800000X2.240000*%
%ADD51RoundRect,0.162500X-0.162500X1.052500X-0.162500X-1.052500X0.162500X-1.052500X0.162500X1.052500X0*%
%ADD52RoundRect,0.250000X0.300000X-0.300000X0.300000X0.300000X-0.300000X0.300000X-0.300000X-0.300000X0*%
%ADD53RoundRect,0.390352X0.934648X-0.722148X0.934648X0.722148X-0.934648X0.722148X-0.934648X-0.722148X0*%
%ADD54R,3.150000X1.000000*%
%ADD55RoundRect,0.150000X-1.350000X-0.150000X1.350000X-0.150000X1.350000X0.150000X-1.350000X0.150000X0*%
%ADD56RoundRect,0.150000X-1.337500X-0.150000X1.337500X-0.150000X1.337500X0.150000X-1.337500X0.150000X0*%
%ADD57RoundRect,0.304348X0.420652X0.395652X-0.420652X0.395652X-0.420652X-0.395652X0.420652X-0.395652X0*%
%ADD58RoundRect,0.250001X-0.499999X0.499999X-0.499999X-0.499999X0.499999X-0.499999X0.499999X0.499999X0*%
%ADD59C,1.500000*%
%ADD60RoundRect,0.250001X0.499999X0.759999X-0.499999X0.759999X-0.499999X-0.759999X0.499999X-0.759999X0*%
%ADD61R,0.550000X2.000000*%
%ADD62R,2.000000X0.550000*%
%ADD63R,2.000000X0.525000*%
%ADD64R,2.000000X0.575000*%
%ADD65R,0.525000X2.000000*%
%ADD66R,1.500000X1.500000*%
%ADD67RoundRect,0.250001X-0.499999X-0.499999X0.499999X-0.499999X0.499999X0.499999X-0.499999X0.499999X0*%
G04 APERTURE END LIST*
D10*
%TO.C,REF\u002A\u002A*%
X118250000Y-45000000D03*
%TD*%
D11*
%TO.C,R20*%
X89983642Y-95210600D03*
X92288642Y-95210600D03*
%TD*%
D12*
%TO.C,U3*%
X111270000Y-65500000D03*
X110000000Y-65500000D03*
D13*
X108865000Y-65487500D03*
D12*
X107460000Y-65500000D03*
X107460000Y-71500000D03*
X108730000Y-71500000D03*
X110000000Y-71500000D03*
X111270000Y-71500000D03*
%TD*%
D14*
%TO.C,R25*%
X129402500Y-57032500D03*
X127097500Y-57032500D03*
%TD*%
D15*
%TO.C,Y1*%
X125036382Y-87000000D03*
D16*
X126949819Y-86991762D03*
X118136382Y-87000000D03*
D15*
X119956382Y-87000000D03*
%TD*%
D17*
%TO.C,C3*%
X107983100Y-48215600D03*
D18*
X107990000Y-45784400D03*
%TD*%
D19*
%TO.C,C9*%
X91815600Y-54606900D03*
D20*
X89384400Y-54600000D03*
%TD*%
D19*
%TO.C,C10*%
X92315600Y-84506900D03*
D20*
X89884400Y-84500000D03*
%TD*%
D17*
%TO.C,C5*%
X94893100Y-78315600D03*
D18*
X94900000Y-75884400D03*
%TD*%
D21*
%TO.C,R50*%
X155375936Y-84035000D03*
X155375936Y-86340000D03*
%TD*%
D22*
%TO.C,U16*%
X146901306Y-70626306D03*
X146901306Y-71896306D03*
X146901306Y-73166306D03*
X146901306Y-74436306D03*
X146901306Y-75706306D03*
X146901306Y-76976306D03*
X146901306Y-78246306D03*
X152141306Y-78246306D03*
D23*
X152141306Y-76981306D03*
D22*
X152141306Y-75706306D03*
X152141306Y-74436306D03*
X152141306Y-73166306D03*
X152141306Y-71896306D03*
X152141306Y-70626306D03*
%TD*%
D24*
%TO.C,R16*%
X80067500Y-91152500D03*
X80067500Y-88847500D03*
%TD*%
%TO.C,R24*%
X172550883Y-70437500D03*
X172550883Y-68132500D03*
%TD*%
D25*
%TO.C,D12*%
X164250000Y-64560000D03*
D26*
X164250000Y-56940000D03*
%TD*%
D27*
%TO.C,J2*%
X44800000Y-61200000D03*
D28*
X49120000Y-62700000D03*
D29*
X49120000Y-59700000D03*
%TD*%
D15*
%TO.C,Y3*%
X164418282Y-96787500D03*
D16*
X166331719Y-96779262D03*
X157518282Y-96787500D03*
D15*
X159338282Y-96787500D03*
%TD*%
D30*
%TO.C,F1*%
X67450000Y-55400000D03*
X57950000Y-55400000D03*
%TD*%
D17*
%TO.C,CA5*%
X136493100Y-66465600D03*
D18*
X136500000Y-64034400D03*
%TD*%
D31*
%TO.C,C14*%
X109956900Y-90534400D03*
D32*
X109950000Y-92965600D03*
%TD*%
D33*
%TO.C,D1*%
X83000000Y-53900000D03*
X83000000Y-56700000D03*
%TD*%
D34*
%TO.C,D23*%
X149152500Y-54532500D03*
X147552500Y-54532500D03*
%TD*%
D19*
%TO.C,C12*%
X92215600Y-65606900D03*
D20*
X89784400Y-65600000D03*
%TD*%
D35*
%TO.C,U12*%
X157050000Y-91800000D03*
X157700000Y-91800000D03*
X158350000Y-91800000D03*
D36*
X159000001Y-91800000D03*
D35*
X159650000Y-91800000D03*
X160300000Y-91800000D03*
X160950000Y-91800000D03*
X161600000Y-91800000D03*
X162250000Y-91800000D03*
X162900000Y-91800000D03*
X162900000Y-85975000D03*
X162250000Y-85975000D03*
X161600000Y-85975000D03*
X160950000Y-85975000D03*
X160300000Y-85975000D03*
X159650000Y-85975000D03*
X159000000Y-85975000D03*
D36*
X158350001Y-85975000D03*
X157700001Y-85975000D03*
X157050001Y-85975000D03*
%TD*%
D21*
%TO.C,R13*%
X80132500Y-48347500D03*
X80132500Y-50652500D03*
%TD*%
D14*
%TO.C,R74*%
X118465000Y-67680000D03*
X116160000Y-67680000D03*
%TD*%
D37*
%TO.C,L1*%
X125375000Y-59475000D03*
X125375000Y-64975000D03*
%TD*%
D24*
%TO.C,R66*%
X153467500Y-66652500D03*
X153467500Y-64347500D03*
%TD*%
D38*
%TO.C,C35*%
X125250000Y-67700000D03*
D39*
X127681200Y-67706900D03*
%TD*%
D40*
%TO.C,C39*%
X116175000Y-55225000D03*
X116175000Y-51325000D03*
%TD*%
D24*
%TO.C,R38*%
X164710397Y-84175000D03*
X164710397Y-81870000D03*
%TD*%
D14*
%TO.C,R6*%
X71602500Y-97532500D03*
X69297500Y-97532500D03*
%TD*%
D17*
%TO.C,C34*%
X120653100Y-63406400D03*
D18*
X120660000Y-60975200D03*
%TD*%
D41*
%TO.C,D8*%
X164742897Y-73125000D03*
X164742897Y-75375000D03*
%TD*%
D21*
%TO.C,R63*%
X142547500Y-64067500D03*
X142547500Y-66372500D03*
%TD*%
D11*
%TO.C,R11*%
X74847500Y-42267500D03*
X77152500Y-42267500D03*
%TD*%
D24*
%TO.C,R5*%
X65567500Y-96552500D03*
X65567500Y-94247500D03*
%TD*%
D42*
%TO.C,Q1*%
X172578383Y-79465000D03*
X174478383Y-79465000D03*
X173528383Y-77265000D03*
%TD*%
%TO.C,Q12*%
X167292897Y-72750000D03*
X169192897Y-72750000D03*
X168242897Y-70550000D03*
%TD*%
D14*
%TO.C,R41*%
X169402500Y-75282500D03*
X167097500Y-75282500D03*
%TD*%
D21*
%TO.C,R12*%
X80132500Y-42947500D03*
X80132500Y-45252500D03*
%TD*%
D17*
%TO.C,C1*%
X91683100Y-48215600D03*
D18*
X91690000Y-45784400D03*
%TD*%
D24*
%TO.C,R23*%
X172550883Y-83937500D03*
X172550883Y-81632500D03*
%TD*%
D14*
%TO.C,R31*%
X177242986Y-75045000D03*
X174937986Y-75045000D03*
%TD*%
D21*
%TO.C,R40*%
X168775397Y-77597500D03*
X168775397Y-79902500D03*
%TD*%
D43*
%TO.C,K2*%
X160250000Y-61840000D03*
X160250000Y-56760000D03*
X160250000Y-72000000D03*
X160250000Y-74540000D03*
%TD*%
D14*
%TO.C,R60*%
X153700000Y-58350000D03*
X151395000Y-58350000D03*
%TD*%
D38*
%TO.C,C24*%
X137381405Y-88550600D03*
D39*
X139812605Y-88557500D03*
%TD*%
D30*
%TO.C,F2*%
X67450000Y-84800000D03*
X57950000Y-84800000D03*
%TD*%
D44*
%TO.C,U1*%
X96736500Y-54054000D03*
X96736500Y-56594000D03*
X96736500Y-59134000D03*
D45*
X96736500Y-61670000D03*
D46*
X106311500Y-61674000D03*
X106311500Y-59134000D03*
X106311500Y-56594000D03*
X106311500Y-54054000D03*
%TD*%
D11*
%TO.C,R14*%
X74847500Y-97467500D03*
X77152500Y-97467500D03*
%TD*%
D27*
%TO.C,J1*%
X57000000Y-44800000D03*
D47*
X55500000Y-49120000D03*
D48*
X58500000Y-49120000D03*
%TD*%
D14*
%TO.C,R73*%
X122965000Y-67680000D03*
X120660000Y-67680000D03*
%TD*%
D19*
%TO.C,C11*%
X92315600Y-92756900D03*
D20*
X89884400Y-92750000D03*
%TD*%
D10*
%TO.C,REF\u002A\u002A*%
X175000000Y-45000000D03*
%TD*%
D27*
%TO.C,J4*%
X44750000Y-75750000D03*
D28*
X49070000Y-77250000D03*
D29*
X49070000Y-74250000D03*
%TD*%
D49*
%TO.C,U2*%
X105410000Y-79965000D03*
X104140000Y-79965000D03*
D50*
X105410000Y-73740000D03*
X104140000Y-73740000D03*
X99060000Y-73740000D03*
X97790000Y-73740000D03*
D49*
X97790000Y-79965000D03*
%TD*%
D11*
%TO.C,R3*%
X89847500Y-63267500D03*
X92152500Y-63267500D03*
%TD*%
D51*
%TO.C,U17*%
X118100000Y-59330000D03*
X117150000Y-59330000D03*
X116200000Y-59330000D03*
X116200000Y-62900000D03*
X117150000Y-62900000D03*
X118100000Y-62900000D03*
%TD*%
D21*
%TO.C,R9*%
X65632500Y-42947500D03*
X65632500Y-45252500D03*
%TD*%
D31*
%TO.C,C33*%
X155408206Y-70700706D03*
D32*
X155401306Y-73131906D03*
%TD*%
D17*
%TO.C,C13*%
X112593100Y-61664800D03*
D18*
X112600000Y-59233600D03*
%TD*%
D10*
%TO.C,REF\u002A\u002A*%
X45000000Y-95000000D03*
%TD*%
D41*
%TO.C,D4*%
X172583383Y-72887500D03*
X172583383Y-75137500D03*
%TD*%
D14*
%TO.C,R10*%
X71602500Y-42332500D03*
X69297500Y-42332500D03*
%TD*%
D21*
%TO.C,R2*%
X110232500Y-59296700D03*
X110232500Y-61601700D03*
%TD*%
D17*
%TO.C,C6*%
X92093100Y-78315600D03*
D18*
X92100000Y-75884400D03*
%TD*%
D38*
%TO.C,C38*%
X120534400Y-69993100D03*
D39*
X122965600Y-70000000D03*
%TD*%
D21*
%TO.C,R61*%
X138547500Y-64067500D03*
X138547500Y-66372500D03*
%TD*%
D17*
%TO.C,C36*%
X119275000Y-55025000D03*
D18*
X119281900Y-52593800D03*
%TD*%
D52*
%TO.C,D2*%
X83300000Y-85900000D03*
X83300000Y-83100000D03*
%TD*%
D24*
%TO.C,R15*%
X80067500Y-96802500D03*
X80067500Y-94497500D03*
%TD*%
D10*
%TO.C,REF\u002A\u002A*%
X175000000Y-95000000D03*
%TD*%
D11*
%TO.C,R55*%
X146797500Y-56217500D03*
X149102500Y-56217500D03*
%TD*%
D21*
%TO.C,R29*%
X139845105Y-84205000D03*
X139845105Y-86510000D03*
%TD*%
D38*
%TO.C,C29*%
X152912236Y-88380600D03*
D39*
X155343436Y-88387500D03*
%TD*%
D53*
%TO.C,F7*%
X131500000Y-68500000D03*
X131500000Y-64725000D03*
%TD*%
D21*
%TO.C,R26*%
X137945105Y-84205000D03*
X137945105Y-86510000D03*
%TD*%
D17*
%TO.C,C15*%
X113243100Y-68740600D03*
D18*
X113250000Y-66309400D03*
%TD*%
D14*
%TO.C,R59*%
X149102500Y-58382500D03*
X146797500Y-58382500D03*
%TD*%
D11*
%TO.C,R75*%
X116175000Y-69925000D03*
X118480000Y-69925000D03*
%TD*%
D21*
%TO.C,R30*%
X176615883Y-77360000D03*
X176615883Y-79665000D03*
%TD*%
D54*
%TO.C,AVR-ISP1*%
X127500000Y-92750000D03*
X132550000Y-92750000D03*
X127500000Y-95290000D03*
X132550000Y-95290000D03*
X127500000Y-97830000D03*
X132550000Y-97830000D03*
%TD*%
D55*
%TO.C,U9*%
X86400000Y-56795000D03*
X86400000Y-58065000D03*
D56*
X86387500Y-59200000D03*
D55*
X86400000Y-60605000D03*
X92400000Y-60605000D03*
X92400000Y-59335000D03*
X92400000Y-58065000D03*
X92400000Y-56795000D03*
%TD*%
D21*
%TO.C,R7*%
X80132500Y-54147500D03*
X80132500Y-56452500D03*
%TD*%
D17*
%TO.C,C8*%
X110803100Y-78315600D03*
D18*
X110810000Y-75884400D03*
%TD*%
D57*
%TO.C,D3*%
X129325000Y-55000000D03*
X126975000Y-55000000D03*
%TD*%
D10*
%TO.C,REF\u002A\u002A*%
X118250000Y-95000000D03*
%TD*%
D17*
%TO.C,C7*%
X107793100Y-78315600D03*
D18*
X107800000Y-75884400D03*
%TD*%
D24*
%TO.C,R39*%
X164710397Y-70675000D03*
X164710397Y-68370000D03*
%TD*%
D27*
%TO.C,J8*%
X175235000Y-59000000D03*
D58*
X170915000Y-56000000D03*
D59*
X170915000Y-59000000D03*
X170915000Y-62000000D03*
X167915000Y-56000000D03*
X167915000Y-59000000D03*
X167915000Y-62000000D03*
%TD*%
D21*
%TO.C,R62*%
X140547500Y-64067500D03*
X140547500Y-66372500D03*
%TD*%
D27*
%TO.C,J3*%
X57000000Y-95355000D03*
D60*
X58500000Y-91035000D03*
D48*
X55500000Y-91035000D03*
%TD*%
D17*
%TO.C,C2*%
X94693100Y-48215600D03*
D18*
X94700000Y-45784400D03*
%TD*%
D15*
%TO.C,Y2*%
X148887451Y-96957500D03*
D16*
X150800888Y-96949262D03*
X141987451Y-96957500D03*
D15*
X143807451Y-96957500D03*
%TD*%
D21*
%TO.C,R8*%
X65632500Y-48447500D03*
X65632500Y-50752500D03*
%TD*%
D10*
%TO.C,REF\u002A\u002A*%
X45000000Y-45000000D03*
%TD*%
D42*
%TO.C,Q10*%
X175133383Y-72512500D03*
X177033383Y-72512500D03*
X176083383Y-70312500D03*
%TD*%
D61*
%TO.C,U8*%
X117350000Y-83025000D03*
X118150000Y-83025000D03*
X118950000Y-83025000D03*
X119750000Y-83025000D03*
X120550000Y-83025000D03*
X121350000Y-83025000D03*
X122150000Y-83025000D03*
X122950000Y-83025000D03*
D62*
X124600000Y-81375000D03*
D63*
X124600000Y-80587500D03*
D64*
X124600000Y-79762500D03*
D62*
X124600000Y-78975000D03*
X124600000Y-78175000D03*
X124600000Y-77375000D03*
X124600000Y-76575000D03*
X124600000Y-75775000D03*
D61*
X122950000Y-74125000D03*
X122150000Y-74125000D03*
X121350000Y-74125000D03*
D65*
X120537500Y-74125000D03*
D61*
X119750000Y-74125000D03*
X118950000Y-74125000D03*
X118150000Y-74125000D03*
X117350000Y-74125000D03*
D62*
X115700000Y-75775000D03*
X115700000Y-76575000D03*
X115700000Y-77375000D03*
X115700000Y-78175000D03*
X115700000Y-78975000D03*
X115700000Y-79775000D03*
X115700000Y-80575000D03*
X115700000Y-81375000D03*
%TD*%
D44*
%TO.C,U5*%
X96765000Y-85163000D03*
X96765000Y-87703000D03*
X96765000Y-90243000D03*
D45*
X96765000Y-92779000D03*
D46*
X106340000Y-92783000D03*
X106340000Y-90243000D03*
X106340000Y-87703000D03*
X106340000Y-85163000D03*
%TD*%
D35*
%TO.C,U11*%
X141519169Y-91970000D03*
X142169169Y-91970000D03*
X142819169Y-91970000D03*
D36*
X143469170Y-91970000D03*
D35*
X144119169Y-91970000D03*
X144769169Y-91970000D03*
X145419169Y-91970000D03*
X146069169Y-91970000D03*
X146719169Y-91970000D03*
X147369169Y-91970000D03*
X147369169Y-86145000D03*
X146719169Y-86145000D03*
X146069169Y-86145000D03*
X145419169Y-86145000D03*
X144769169Y-86145000D03*
X144119169Y-86145000D03*
X143469169Y-86145000D03*
D36*
X142819170Y-86145000D03*
X142169170Y-86145000D03*
X141519170Y-86145000D03*
%TD*%
D24*
%TO.C,R18*%
X80067500Y-85652500D03*
X80067500Y-83347500D03*
%TD*%
D14*
%TO.C,R57*%
X139950000Y-58350000D03*
X137645000Y-58350000D03*
%TD*%
D11*
%TO.C,R1*%
X89447500Y-52067500D03*
X91752500Y-52067500D03*
%TD*%
%TO.C,R19*%
X89947500Y-81867500D03*
X92252500Y-81867500D03*
%TD*%
D24*
%TO.C,R68*%
X149467500Y-66652500D03*
X149467500Y-64347500D03*
%TD*%
D42*
%TO.C,Q5*%
X164737897Y-79702500D03*
X166637897Y-79702500D03*
X165687897Y-77502500D03*
%TD*%
D24*
%TO.C,R65*%
X155467500Y-66652500D03*
X155467500Y-64347500D03*
%TD*%
D38*
%TO.C,C40*%
X125250000Y-70000000D03*
D39*
X127681200Y-70006900D03*
%TD*%
D31*
%TO.C,C37*%
X121788800Y-52593800D03*
D32*
X121781900Y-55025000D03*
%TD*%
D17*
%TO.C,C4*%
X110993100Y-48215600D03*
D18*
X111000000Y-45784400D03*
%TD*%
D24*
%TO.C,R67*%
X151467500Y-66652500D03*
X151467500Y-64347500D03*
%TD*%
D14*
%TO.C,R58*%
X144602500Y-58382500D03*
X142297500Y-58382500D03*
%TD*%
D66*
%TO.C,SW1*%
X104638117Y-97209003D03*
X112438117Y-97209003D03*
%TD*%
D21*
%TO.C,R48*%
X153475936Y-84035000D03*
X153475936Y-86340000D03*
%TD*%
%TO.C,R64*%
X144547500Y-64067500D03*
X144547500Y-66372500D03*
%TD*%
D27*
%TO.C,J9*%
X132285000Y-44765000D03*
X160985000Y-44765000D03*
D67*
X130125000Y-49085000D03*
D59*
X133125000Y-49085000D03*
X136125000Y-49085000D03*
X139125000Y-49085000D03*
X142125000Y-49085000D03*
X145125000Y-49085000D03*
X148125000Y-49085000D03*
X151125000Y-49085000D03*
X154125000Y-49085000D03*
X157125000Y-49085000D03*
X160125000Y-49085000D03*
X163125000Y-49085000D03*
X130125000Y-52085000D03*
X133125000Y-52085000D03*
X136125000Y-52085000D03*
X139125000Y-52085000D03*
X142125000Y-52085000D03*
X145125000Y-52085000D03*
X148125000Y-52085000D03*
X151125000Y-52085000D03*
X154125000Y-52085000D03*
X157125000Y-52085000D03*
X160125000Y-52085000D03*
X163125000Y-52085000D03*
%TD*%
D24*
%TO.C,R21*%
X112217500Y-92902500D03*
X112217500Y-90597500D03*
%TD*%
%TO.C,R4*%
X65567500Y-90952500D03*
X65567500Y-88647500D03*
%TD*%
D55*
%TO.C,U7*%
X86700000Y-86795000D03*
X86700000Y-88065000D03*
D56*
X86687500Y-89200000D03*
D55*
X86700000Y-90605000D03*
X92700000Y-90605000D03*
X92700000Y-89335000D03*
X92700000Y-88065000D03*
X92700000Y-86795000D03*
%TD*%
D49*
%TO.C,U4*%
X105410000Y-49845000D03*
X104140000Y-49845000D03*
D50*
X105410000Y-43620000D03*
X104140000Y-43620000D03*
X99060000Y-43620000D03*
X97790000Y-43620000D03*
D49*
X97790000Y-49845000D03*
%TD*%
M02*
