%TF.GenerationSoftware,KiCad,Pcbnew,9.0.8-9.0.8~ubuntu24.04.1*%
%TF.CreationDate,2026-05-01T23:07:25+08:00*%
%TF.ProjectId,vtap_hole_test,76746170-5f68-46f6-9c65-5f746573742e,rev?*%
%TF.SameCoordinates,Original*%
%TF.FileFunction,Legend,Top*%
%TF.FilePolarity,Positive*%
%FSLAX46Y46*%
G04 Gerber Fmt 4.6, Leading zero omitted, Abs format (unit mm)*
G04 Created by KiCad (PCBNEW 9.0.8-9.0.8~ubuntu24.04.1) date 2026-05-01 23:07:25*
%MOMM*%
%LPD*%
G01*
G04 APERTURE LIST*
%ADD10C,0.150000*%
%ADD11C,0.000000*%
G04 APERTURE END LIST*
D10*
X55336779Y-35259875D02*
X55336779Y-34259875D01*
X55336779Y-34736065D02*
X55908207Y-34736065D01*
X55908207Y-35259875D02*
X55908207Y-34259875D01*
X56527255Y-35259875D02*
X56432017Y-35212256D01*
X56432017Y-35212256D02*
X56384398Y-35164636D01*
X56384398Y-35164636D02*
X56336779Y-35069398D01*
X56336779Y-35069398D02*
X56336779Y-34783684D01*
X56336779Y-34783684D02*
X56384398Y-34688446D01*
X56384398Y-34688446D02*
X56432017Y-34640827D01*
X56432017Y-34640827D02*
X56527255Y-34593208D01*
X56527255Y-34593208D02*
X56670112Y-34593208D01*
X56670112Y-34593208D02*
X56765350Y-34640827D01*
X56765350Y-34640827D02*
X56812969Y-34688446D01*
X56812969Y-34688446D02*
X56860588Y-34783684D01*
X56860588Y-34783684D02*
X56860588Y-35069398D01*
X56860588Y-35069398D02*
X56812969Y-35164636D01*
X56812969Y-35164636D02*
X56765350Y-35212256D01*
X56765350Y-35212256D02*
X56670112Y-35259875D01*
X56670112Y-35259875D02*
X56527255Y-35259875D01*
X57432017Y-35259875D02*
X57336779Y-35212256D01*
X57336779Y-35212256D02*
X57289160Y-35117017D01*
X57289160Y-35117017D02*
X57289160Y-34259875D01*
X58193922Y-35212256D02*
X58098684Y-35259875D01*
X58098684Y-35259875D02*
X57908208Y-35259875D01*
X57908208Y-35259875D02*
X57812970Y-35212256D01*
X57812970Y-35212256D02*
X57765351Y-35117017D01*
X57765351Y-35117017D02*
X57765351Y-34736065D01*
X57765351Y-34736065D02*
X57812970Y-34640827D01*
X57812970Y-34640827D02*
X57908208Y-34593208D01*
X57908208Y-34593208D02*
X58098684Y-34593208D01*
X58098684Y-34593208D02*
X58193922Y-34640827D01*
X58193922Y-34640827D02*
X58241541Y-34736065D01*
X58241541Y-34736065D02*
X58241541Y-34831303D01*
X58241541Y-34831303D02*
X57765351Y-34926541D01*
X59384399Y-35212256D02*
X59527256Y-35259875D01*
X59527256Y-35259875D02*
X59765351Y-35259875D01*
X59765351Y-35259875D02*
X59860589Y-35212256D01*
X59860589Y-35212256D02*
X59908208Y-35164636D01*
X59908208Y-35164636D02*
X59955827Y-35069398D01*
X59955827Y-35069398D02*
X59955827Y-34974160D01*
X59955827Y-34974160D02*
X59908208Y-34878922D01*
X59908208Y-34878922D02*
X59860589Y-34831303D01*
X59860589Y-34831303D02*
X59765351Y-34783684D01*
X59765351Y-34783684D02*
X59574875Y-34736065D01*
X59574875Y-34736065D02*
X59479637Y-34688446D01*
X59479637Y-34688446D02*
X59432018Y-34640827D01*
X59432018Y-34640827D02*
X59384399Y-34545589D01*
X59384399Y-34545589D02*
X59384399Y-34450351D01*
X59384399Y-34450351D02*
X59432018Y-34355113D01*
X59432018Y-34355113D02*
X59479637Y-34307494D01*
X59479637Y-34307494D02*
X59574875Y-34259875D01*
X59574875Y-34259875D02*
X59812970Y-34259875D01*
X59812970Y-34259875D02*
X59955827Y-34307494D01*
X60384399Y-35259875D02*
X60384399Y-34593208D01*
X60384399Y-34259875D02*
X60336780Y-34307494D01*
X60336780Y-34307494D02*
X60384399Y-34355113D01*
X60384399Y-34355113D02*
X60432018Y-34307494D01*
X60432018Y-34307494D02*
X60384399Y-34259875D01*
X60384399Y-34259875D02*
X60384399Y-34355113D01*
X60765351Y-34593208D02*
X61289160Y-34593208D01*
X61289160Y-34593208D02*
X60765351Y-35259875D01*
X60765351Y-35259875D02*
X61289160Y-35259875D01*
X62051065Y-35212256D02*
X61955827Y-35259875D01*
X61955827Y-35259875D02*
X61765351Y-35259875D01*
X61765351Y-35259875D02*
X61670113Y-35212256D01*
X61670113Y-35212256D02*
X61622494Y-35117017D01*
X61622494Y-35117017D02*
X61622494Y-34736065D01*
X61622494Y-34736065D02*
X61670113Y-34640827D01*
X61670113Y-34640827D02*
X61765351Y-34593208D01*
X61765351Y-34593208D02*
X61955827Y-34593208D01*
X61955827Y-34593208D02*
X62051065Y-34640827D01*
X62051065Y-34640827D02*
X62098684Y-34736065D01*
X62098684Y-34736065D02*
X62098684Y-34831303D01*
X62098684Y-34831303D02*
X61622494Y-34926541D01*
X55193922Y-35869819D02*
X55765350Y-35869819D01*
X55479636Y-36869819D02*
X55479636Y-35869819D01*
X56479636Y-36822200D02*
X56384398Y-36869819D01*
X56384398Y-36869819D02*
X56193922Y-36869819D01*
X56193922Y-36869819D02*
X56098684Y-36822200D01*
X56098684Y-36822200D02*
X56051065Y-36726961D01*
X56051065Y-36726961D02*
X56051065Y-36346009D01*
X56051065Y-36346009D02*
X56098684Y-36250771D01*
X56098684Y-36250771D02*
X56193922Y-36203152D01*
X56193922Y-36203152D02*
X56384398Y-36203152D01*
X56384398Y-36203152D02*
X56479636Y-36250771D01*
X56479636Y-36250771D02*
X56527255Y-36346009D01*
X56527255Y-36346009D02*
X56527255Y-36441247D01*
X56527255Y-36441247D02*
X56051065Y-36536485D01*
X56908208Y-36822200D02*
X57003446Y-36869819D01*
X57003446Y-36869819D02*
X57193922Y-36869819D01*
X57193922Y-36869819D02*
X57289160Y-36822200D01*
X57289160Y-36822200D02*
X57336779Y-36726961D01*
X57336779Y-36726961D02*
X57336779Y-36679342D01*
X57336779Y-36679342D02*
X57289160Y-36584104D01*
X57289160Y-36584104D02*
X57193922Y-36536485D01*
X57193922Y-36536485D02*
X57051065Y-36536485D01*
X57051065Y-36536485D02*
X56955827Y-36488866D01*
X56955827Y-36488866D02*
X56908208Y-36393628D01*
X56908208Y-36393628D02*
X56908208Y-36346009D01*
X56908208Y-36346009D02*
X56955827Y-36250771D01*
X56955827Y-36250771D02*
X57051065Y-36203152D01*
X57051065Y-36203152D02*
X57193922Y-36203152D01*
X57193922Y-36203152D02*
X57289160Y-36250771D01*
X57622494Y-36203152D02*
X58003446Y-36203152D01*
X57765351Y-35869819D02*
X57765351Y-36726961D01*
X57765351Y-36726961D02*
X57812970Y-36822200D01*
X57812970Y-36822200D02*
X57908208Y-36869819D01*
X57908208Y-36869819D02*
X58003446Y-36869819D01*
X59098685Y-36869819D02*
X59098685Y-35869819D01*
X59098685Y-36250771D02*
X59193923Y-36203152D01*
X59193923Y-36203152D02*
X59384399Y-36203152D01*
X59384399Y-36203152D02*
X59479637Y-36250771D01*
X59479637Y-36250771D02*
X59527256Y-36298390D01*
X59527256Y-36298390D02*
X59574875Y-36393628D01*
X59574875Y-36393628D02*
X59574875Y-36679342D01*
X59574875Y-36679342D02*
X59527256Y-36774580D01*
X59527256Y-36774580D02*
X59479637Y-36822200D01*
X59479637Y-36822200D02*
X59384399Y-36869819D01*
X59384399Y-36869819D02*
X59193923Y-36869819D01*
X59193923Y-36869819D02*
X59098685Y-36822200D01*
X60146304Y-36869819D02*
X60051066Y-36822200D01*
X60051066Y-36822200D02*
X60003447Y-36774580D01*
X60003447Y-36774580D02*
X59955828Y-36679342D01*
X59955828Y-36679342D02*
X59955828Y-36393628D01*
X59955828Y-36393628D02*
X60003447Y-36298390D01*
X60003447Y-36298390D02*
X60051066Y-36250771D01*
X60051066Y-36250771D02*
X60146304Y-36203152D01*
X60146304Y-36203152D02*
X60289161Y-36203152D01*
X60289161Y-36203152D02*
X60384399Y-36250771D01*
X60384399Y-36250771D02*
X60432018Y-36298390D01*
X60432018Y-36298390D02*
X60479637Y-36393628D01*
X60479637Y-36393628D02*
X60479637Y-36679342D01*
X60479637Y-36679342D02*
X60432018Y-36774580D01*
X60432018Y-36774580D02*
X60384399Y-36822200D01*
X60384399Y-36822200D02*
X60289161Y-36869819D01*
X60289161Y-36869819D02*
X60146304Y-36869819D01*
X61336780Y-36869819D02*
X61336780Y-36346009D01*
X61336780Y-36346009D02*
X61289161Y-36250771D01*
X61289161Y-36250771D02*
X61193923Y-36203152D01*
X61193923Y-36203152D02*
X61003447Y-36203152D01*
X61003447Y-36203152D02*
X60908209Y-36250771D01*
X61336780Y-36822200D02*
X61241542Y-36869819D01*
X61241542Y-36869819D02*
X61003447Y-36869819D01*
X61003447Y-36869819D02*
X60908209Y-36822200D01*
X60908209Y-36822200D02*
X60860590Y-36726961D01*
X60860590Y-36726961D02*
X60860590Y-36631723D01*
X60860590Y-36631723D02*
X60908209Y-36536485D01*
X60908209Y-36536485D02*
X61003447Y-36488866D01*
X61003447Y-36488866D02*
X61241542Y-36488866D01*
X61241542Y-36488866D02*
X61336780Y-36441247D01*
X61812971Y-36869819D02*
X61812971Y-36203152D01*
X61812971Y-36393628D02*
X61860590Y-36298390D01*
X61860590Y-36298390D02*
X61908209Y-36250771D01*
X61908209Y-36250771D02*
X62003447Y-36203152D01*
X62003447Y-36203152D02*
X62098685Y-36203152D01*
X62860590Y-36869819D02*
X62860590Y-35869819D01*
X62860590Y-36822200D02*
X62765352Y-36869819D01*
X62765352Y-36869819D02*
X62574876Y-36869819D01*
X62574876Y-36869819D02*
X62479638Y-36822200D01*
X62479638Y-36822200D02*
X62432019Y-36774580D01*
X62432019Y-36774580D02*
X62384400Y-36679342D01*
X62384400Y-36679342D02*
X62384400Y-36393628D01*
X62384400Y-36393628D02*
X62432019Y-36298390D01*
X62432019Y-36298390D02*
X62479638Y-36250771D01*
X62479638Y-36250771D02*
X62574876Y-36203152D01*
X62574876Y-36203152D02*
X62765352Y-36203152D01*
X62765352Y-36203152D02*
X62860590Y-36250771D01*
X29476190Y-35890152D02*
X29476190Y-36556819D01*
X29238095Y-35509200D02*
X29000000Y-36223485D01*
X29000000Y-36223485D02*
X29619047Y-36223485D01*
X30000000Y-36461580D02*
X30047619Y-36509200D01*
X30047619Y-36509200D02*
X30000000Y-36556819D01*
X30000000Y-36556819D02*
X29952381Y-36509200D01*
X29952381Y-36509200D02*
X30000000Y-36461580D01*
X30000000Y-36461580D02*
X30000000Y-36556819D01*
X30904761Y-35556819D02*
X30714285Y-35556819D01*
X30714285Y-35556819D02*
X30619047Y-35604438D01*
X30619047Y-35604438D02*
X30571428Y-35652057D01*
X30571428Y-35652057D02*
X30476190Y-35794914D01*
X30476190Y-35794914D02*
X30428571Y-35985390D01*
X30428571Y-35985390D02*
X30428571Y-36366342D01*
X30428571Y-36366342D02*
X30476190Y-36461580D01*
X30476190Y-36461580D02*
X30523809Y-36509200D01*
X30523809Y-36509200D02*
X30619047Y-36556819D01*
X30619047Y-36556819D02*
X30809523Y-36556819D01*
X30809523Y-36556819D02*
X30904761Y-36509200D01*
X30904761Y-36509200D02*
X30952380Y-36461580D01*
X30952380Y-36461580D02*
X30999999Y-36366342D01*
X30999999Y-36366342D02*
X30999999Y-36128247D01*
X30999999Y-36128247D02*
X30952380Y-36033009D01*
X30952380Y-36033009D02*
X30904761Y-35985390D01*
X30904761Y-35985390D02*
X30809523Y-35937771D01*
X30809523Y-35937771D02*
X30619047Y-35937771D01*
X30619047Y-35937771D02*
X30523809Y-35985390D01*
X30523809Y-35985390D02*
X30476190Y-36033009D01*
X30476190Y-36033009D02*
X30428571Y-36128247D01*
X39476190Y-35890152D02*
X39476190Y-36556819D01*
X39238095Y-35509200D02*
X39000000Y-36223485D01*
X39000000Y-36223485D02*
X39619047Y-36223485D01*
X40000000Y-36461580D02*
X40047619Y-36509200D01*
X40047619Y-36509200D02*
X40000000Y-36556819D01*
X40000000Y-36556819D02*
X39952381Y-36509200D01*
X39952381Y-36509200D02*
X40000000Y-36461580D01*
X40000000Y-36461580D02*
X40000000Y-36556819D01*
X40380952Y-35556819D02*
X41047618Y-35556819D01*
X41047618Y-35556819D02*
X40619047Y-36556819D01*
X49476190Y-35890152D02*
X49476190Y-36556819D01*
X49238095Y-35509200D02*
X49000000Y-36223485D01*
X49000000Y-36223485D02*
X49619047Y-36223485D01*
X50000000Y-36461580D02*
X50047619Y-36509200D01*
X50047619Y-36509200D02*
X50000000Y-36556819D01*
X50000000Y-36556819D02*
X49952381Y-36509200D01*
X49952381Y-36509200D02*
X50000000Y-36461580D01*
X50000000Y-36461580D02*
X50000000Y-36556819D01*
X50619047Y-35985390D02*
X50523809Y-35937771D01*
X50523809Y-35937771D02*
X50476190Y-35890152D01*
X50476190Y-35890152D02*
X50428571Y-35794914D01*
X50428571Y-35794914D02*
X50428571Y-35747295D01*
X50428571Y-35747295D02*
X50476190Y-35652057D01*
X50476190Y-35652057D02*
X50523809Y-35604438D01*
X50523809Y-35604438D02*
X50619047Y-35556819D01*
X50619047Y-35556819D02*
X50809523Y-35556819D01*
X50809523Y-35556819D02*
X50904761Y-35604438D01*
X50904761Y-35604438D02*
X50952380Y-35652057D01*
X50952380Y-35652057D02*
X50999999Y-35747295D01*
X50999999Y-35747295D02*
X50999999Y-35794914D01*
X50999999Y-35794914D02*
X50952380Y-35890152D01*
X50952380Y-35890152D02*
X50904761Y-35937771D01*
X50904761Y-35937771D02*
X50809523Y-35985390D01*
X50809523Y-35985390D02*
X50619047Y-35985390D01*
X50619047Y-35985390D02*
X50523809Y-36033009D01*
X50523809Y-36033009D02*
X50476190Y-36080628D01*
X50476190Y-36080628D02*
X50428571Y-36175866D01*
X50428571Y-36175866D02*
X50428571Y-36366342D01*
X50428571Y-36366342D02*
X50476190Y-36461580D01*
X50476190Y-36461580D02*
X50523809Y-36509200D01*
X50523809Y-36509200D02*
X50619047Y-36556819D01*
X50619047Y-36556819D02*
X50809523Y-36556819D01*
X50809523Y-36556819D02*
X50904761Y-36509200D01*
X50904761Y-36509200D02*
X50952380Y-36461580D01*
X50952380Y-36461580D02*
X50999999Y-36366342D01*
X50999999Y-36366342D02*
X50999999Y-36175866D01*
X50999999Y-36175866D02*
X50952380Y-36080628D01*
X50952380Y-36080628D02*
X50904761Y-36033009D01*
X50904761Y-36033009D02*
X50809523Y-35985390D01*
X59476190Y-25788152D02*
X59476190Y-26454819D01*
X59238095Y-25407200D02*
X59000000Y-26121485D01*
X59000000Y-26121485D02*
X59619047Y-26121485D01*
X60000000Y-26359580D02*
X60047619Y-26407200D01*
X60047619Y-26407200D02*
X60000000Y-26454819D01*
X60000000Y-26454819D02*
X59952381Y-26407200D01*
X59952381Y-26407200D02*
X60000000Y-26359580D01*
X60000000Y-26359580D02*
X60000000Y-26454819D01*
X60952380Y-25454819D02*
X60476190Y-25454819D01*
X60476190Y-25454819D02*
X60428571Y-25931009D01*
X60428571Y-25931009D02*
X60476190Y-25883390D01*
X60476190Y-25883390D02*
X60571428Y-25835771D01*
X60571428Y-25835771D02*
X60809523Y-25835771D01*
X60809523Y-25835771D02*
X60904761Y-25883390D01*
X60904761Y-25883390D02*
X60952380Y-25931009D01*
X60952380Y-25931009D02*
X60999999Y-26026247D01*
X60999999Y-26026247D02*
X60999999Y-26264342D01*
X60999999Y-26264342D02*
X60952380Y-26359580D01*
X60952380Y-26359580D02*
X60904761Y-26407200D01*
X60904761Y-26407200D02*
X60809523Y-26454819D01*
X60809523Y-26454819D02*
X60571428Y-26454819D01*
X60571428Y-26454819D02*
X60476190Y-26407200D01*
X60476190Y-26407200D02*
X60428571Y-26359580D01*
X49476190Y-25890152D02*
X49476190Y-26556819D01*
X49238095Y-25509200D02*
X49000000Y-26223485D01*
X49000000Y-26223485D02*
X49619047Y-26223485D01*
X50000000Y-26461580D02*
X50047619Y-26509200D01*
X50047619Y-26509200D02*
X50000000Y-26556819D01*
X50000000Y-26556819D02*
X49952381Y-26509200D01*
X49952381Y-26509200D02*
X50000000Y-26461580D01*
X50000000Y-26461580D02*
X50000000Y-26556819D01*
X50904761Y-25890152D02*
X50904761Y-26556819D01*
X50666666Y-25509200D02*
X50428571Y-26223485D01*
X50428571Y-26223485D02*
X51047618Y-26223485D01*
X39476190Y-25890152D02*
X39476190Y-26556819D01*
X39238095Y-25509200D02*
X39000000Y-26223485D01*
X39000000Y-26223485D02*
X39619047Y-26223485D01*
X40000000Y-26461580D02*
X40047619Y-26509200D01*
X40047619Y-26509200D02*
X40000000Y-26556819D01*
X40000000Y-26556819D02*
X39952381Y-26509200D01*
X39952381Y-26509200D02*
X40000000Y-26461580D01*
X40000000Y-26461580D02*
X40000000Y-26556819D01*
X40380952Y-25556819D02*
X40999999Y-25556819D01*
X40999999Y-25556819D02*
X40666666Y-25937771D01*
X40666666Y-25937771D02*
X40809523Y-25937771D01*
X40809523Y-25937771D02*
X40904761Y-25985390D01*
X40904761Y-25985390D02*
X40952380Y-26033009D01*
X40952380Y-26033009D02*
X40999999Y-26128247D01*
X40999999Y-26128247D02*
X40999999Y-26366342D01*
X40999999Y-26366342D02*
X40952380Y-26461580D01*
X40952380Y-26461580D02*
X40904761Y-26509200D01*
X40904761Y-26509200D02*
X40809523Y-26556819D01*
X40809523Y-26556819D02*
X40523809Y-26556819D01*
X40523809Y-26556819D02*
X40428571Y-26509200D01*
X40428571Y-26509200D02*
X40380952Y-26461580D01*
X29476190Y-25890152D02*
X29476190Y-26556819D01*
X29238095Y-25509200D02*
X29000000Y-26223485D01*
X29000000Y-26223485D02*
X29619047Y-26223485D01*
X30000000Y-26461580D02*
X30047619Y-26509200D01*
X30047619Y-26509200D02*
X30000000Y-26556819D01*
X30000000Y-26556819D02*
X29952381Y-26509200D01*
X29952381Y-26509200D02*
X30000000Y-26461580D01*
X30000000Y-26461580D02*
X30000000Y-26556819D01*
X30428571Y-25652057D02*
X30476190Y-25604438D01*
X30476190Y-25604438D02*
X30571428Y-25556819D01*
X30571428Y-25556819D02*
X30809523Y-25556819D01*
X30809523Y-25556819D02*
X30904761Y-25604438D01*
X30904761Y-25604438D02*
X30952380Y-25652057D01*
X30952380Y-25652057D02*
X30999999Y-25747295D01*
X30999999Y-25747295D02*
X30999999Y-25842533D01*
X30999999Y-25842533D02*
X30952380Y-25985390D01*
X30952380Y-25985390D02*
X30380952Y-26556819D01*
X30380952Y-26556819D02*
X30999999Y-26556819D01*
D11*
%TO.C,G\u002A\u002A\u002A*%
G36*
X57212258Y-40186477D02*
G01*
X57207236Y-40191498D01*
X57202214Y-40186477D01*
X57207236Y-40181455D01*
X57212258Y-40186477D01*
G37*
G36*
X57212258Y-40216607D02*
G01*
X57207236Y-40221629D01*
X57202214Y-40216607D01*
X57207236Y-40211585D01*
X57212258Y-40216607D01*
G37*
G36*
X57302649Y-39925346D02*
G01*
X57297627Y-39930368D01*
X57292606Y-39925346D01*
X57297627Y-39920324D01*
X57302649Y-39925346D01*
G37*
G36*
X58317042Y-41020087D02*
G01*
X58312020Y-41025109D01*
X58306999Y-41020087D01*
X58312020Y-41015065D01*
X58317042Y-41020087D01*
G37*
G36*
X58588217Y-41934045D02*
G01*
X58583195Y-41939067D01*
X58578173Y-41934045D01*
X58583195Y-41929023D01*
X58588217Y-41934045D01*
G37*
G36*
X58658521Y-38840648D02*
G01*
X58653499Y-38845670D01*
X58648478Y-38840648D01*
X58653499Y-38835627D01*
X58658521Y-38840648D01*
G37*
G36*
X59110478Y-41210913D02*
G01*
X59105457Y-41215935D01*
X59100435Y-41210913D01*
X59105457Y-41205891D01*
X59110478Y-41210913D01*
G37*
G36*
X59682958Y-41120522D02*
G01*
X59677936Y-41125543D01*
X59672914Y-41120522D01*
X59677936Y-41115500D01*
X59682958Y-41120522D01*
G37*
G36*
X60054567Y-38840648D02*
G01*
X60049545Y-38845670D01*
X60044523Y-38840648D01*
X60049545Y-38835627D01*
X60054567Y-38840648D01*
G37*
G36*
X60365915Y-39935389D02*
G01*
X60360894Y-39940411D01*
X60355872Y-39935389D01*
X60360894Y-39930368D01*
X60365915Y-39935389D01*
G37*
G36*
X60627046Y-41291261D02*
G01*
X60622024Y-41296283D01*
X60617003Y-41291261D01*
X60622024Y-41286239D01*
X60627046Y-41291261D01*
G37*
G36*
X60697351Y-41672914D02*
G01*
X60692329Y-41677936D01*
X60687307Y-41672914D01*
X60692329Y-41667892D01*
X60697351Y-41672914D01*
G37*
G36*
X61028786Y-40768999D02*
G01*
X61023764Y-40774021D01*
X61018742Y-40768999D01*
X61023764Y-40763978D01*
X61028786Y-40768999D01*
G37*
G36*
X61299960Y-40266825D02*
G01*
X61294939Y-40271846D01*
X61289917Y-40266825D01*
X61294939Y-40261803D01*
X61299960Y-40266825D01*
G37*
G36*
X61380308Y-40718782D02*
G01*
X61375287Y-40723804D01*
X61370265Y-40718782D01*
X61375287Y-40713760D01*
X61380308Y-40718782D01*
G37*
G36*
X56606300Y-40024107D02*
G01*
X56607502Y-40036026D01*
X56606300Y-40037498D01*
X56600329Y-40036119D01*
X56599604Y-40030802D01*
X56603279Y-40022536D01*
X56606300Y-40024107D01*
G37*
G36*
X56888146Y-40557040D02*
G01*
X56885150Y-40561605D01*
X56874964Y-40562315D01*
X56864247Y-40559862D01*
X56868896Y-40556247D01*
X56884592Y-40555050D01*
X56888146Y-40557040D01*
G37*
G36*
X57299301Y-39883498D02*
G01*
X57300503Y-39895417D01*
X57299301Y-39896889D01*
X57293330Y-39895511D01*
X57292606Y-39890194D01*
X57296280Y-39881927D01*
X57299301Y-39883498D01*
G37*
G36*
X58323738Y-40938065D02*
G01*
X58324940Y-40949984D01*
X58323738Y-40951456D01*
X58317767Y-40950078D01*
X58317042Y-40944761D01*
X58320717Y-40936494D01*
X58323738Y-40938065D01*
G37*
G36*
X59077000Y-41239370D02*
G01*
X59075621Y-41245341D01*
X59070304Y-41246065D01*
X59062037Y-41242391D01*
X59063609Y-41239370D01*
X59075528Y-41238168D01*
X59077000Y-41239370D01*
G37*
G36*
X59468696Y-40506195D02*
G01*
X59467318Y-40512165D01*
X59462001Y-40512890D01*
X59453734Y-40509215D01*
X59455305Y-40506195D01*
X59467224Y-40504993D01*
X59468696Y-40506195D01*
G37*
G36*
X59649644Y-40541138D02*
G01*
X59650842Y-40556834D01*
X59648852Y-40560388D01*
X59644287Y-40557392D01*
X59643576Y-40547206D01*
X59646029Y-40536489D01*
X59649644Y-40541138D01*
G37*
G36*
X59961455Y-41932999D02*
G01*
X59958460Y-41937564D01*
X59948273Y-41938274D01*
X59937556Y-41935821D01*
X59942205Y-41932206D01*
X59957902Y-41931008D01*
X59961455Y-41932999D01*
G37*
G36*
X60051384Y-38883961D02*
G01*
X60052582Y-38899658D01*
X60050591Y-38903211D01*
X60046026Y-38900215D01*
X60045316Y-38890029D01*
X60047769Y-38879312D01*
X60051384Y-38883961D01*
G37*
G36*
X60252089Y-39863411D02*
G01*
X60250710Y-39869382D01*
X60245393Y-39870107D01*
X60237126Y-39866432D01*
X60238698Y-39863411D01*
X60250617Y-39862209D01*
X60252089Y-39863411D01*
G37*
G36*
X61025438Y-40978239D02*
G01*
X61026640Y-40990158D01*
X61025438Y-40991630D01*
X61019467Y-40990252D01*
X61018742Y-40984935D01*
X61022417Y-40976668D01*
X61025438Y-40978239D01*
G37*
G36*
X61095743Y-40807499D02*
G01*
X61096945Y-40819419D01*
X61095743Y-40820891D01*
X61089772Y-40819512D01*
X61089047Y-40814195D01*
X61092722Y-40805928D01*
X61095743Y-40807499D01*
G37*
G36*
X61236352Y-40907934D02*
G01*
X61234973Y-40913905D01*
X61229656Y-40914630D01*
X61221389Y-40910955D01*
X61222960Y-40907934D01*
X61234879Y-40906732D01*
X61236352Y-40907934D01*
G37*
G36*
X61306656Y-40335455D02*
G01*
X61307858Y-40347374D01*
X61306656Y-40348846D01*
X61300685Y-40347468D01*
X61299960Y-40342151D01*
X61303635Y-40333884D01*
X61306656Y-40335455D01*
G37*
G36*
X61376960Y-40355542D02*
G01*
X61378162Y-40367461D01*
X61376960Y-40368933D01*
X61370990Y-40367555D01*
X61370265Y-40362238D01*
X61373940Y-40353971D01*
X61376960Y-40355542D01*
G37*
G36*
X61377126Y-40591355D02*
G01*
X61378323Y-40607052D01*
X61376333Y-40610605D01*
X61371768Y-40607610D01*
X61371058Y-40597423D01*
X61373511Y-40586706D01*
X61377126Y-40591355D01*
G37*
G36*
X57403622Y-39554514D02*
G01*
X57397961Y-39564559D01*
X57392538Y-39567295D01*
X57383970Y-39564136D01*
X57384504Y-39559260D01*
X57392954Y-39548483D01*
X57395803Y-39547961D01*
X57403622Y-39554514D01*
G37*
G36*
X59772443Y-41087461D02*
G01*
X59771212Y-41096801D01*
X59765681Y-41104362D01*
X59759117Y-41096761D01*
X59755432Y-41081975D01*
X59757278Y-41078006D01*
X59767207Y-41076356D01*
X59772443Y-41087461D01*
G37*
G36*
X60651539Y-40956511D02*
G01*
X60647842Y-40963700D01*
X60637822Y-40970835D01*
X60633159Y-40966614D01*
X60633931Y-40952832D01*
X60637594Y-40949471D01*
X60650847Y-40946015D01*
X60651539Y-40956511D01*
G37*
G36*
X56950835Y-40550664D02*
G01*
X56951127Y-40553064D01*
X56943484Y-40562816D01*
X56941083Y-40563108D01*
X56931332Y-40555465D01*
X56931040Y-40553064D01*
X56938683Y-40543313D01*
X56941083Y-40543021D01*
X56950835Y-40550664D01*
G37*
G36*
X58294000Y-38853203D02*
G01*
X58295661Y-38882469D01*
X58294000Y-38898398D01*
X58291516Y-38903158D01*
X58289940Y-38890539D01*
X58289647Y-38875800D01*
X58290431Y-38854078D01*
X58292434Y-38848115D01*
X58294000Y-38853203D01*
G37*
G36*
X58767554Y-39254708D02*
G01*
X58768999Y-39261882D01*
X58763756Y-39275624D01*
X58758956Y-39277540D01*
X58749200Y-39270332D01*
X58748912Y-39268090D01*
X58756213Y-39254487D01*
X58758956Y-39252432D01*
X58767554Y-39254708D01*
G37*
G36*
X58956373Y-40438695D02*
G01*
X58954804Y-40442586D01*
X58945779Y-40452167D01*
X58944168Y-40452629D01*
X58939854Y-40444859D01*
X58939739Y-40442586D01*
X58947460Y-40432928D01*
X58950375Y-40432542D01*
X58956373Y-40438695D01*
G37*
G36*
X59153622Y-40570437D02*
G01*
X59155674Y-40573151D01*
X59155215Y-40582421D01*
X59151838Y-40583195D01*
X59137640Y-40575865D01*
X59135587Y-40573151D01*
X59136046Y-40563882D01*
X59139423Y-40563108D01*
X59153622Y-40570437D01*
G37*
G36*
X59401331Y-38913222D02*
G01*
X59401740Y-38915974D01*
X59398313Y-38925757D01*
X59397311Y-38926018D01*
X59388736Y-38918980D01*
X59386674Y-38915974D01*
X59387471Y-38906720D01*
X59391103Y-38905931D01*
X59401331Y-38913222D01*
G37*
G36*
X59436892Y-38836338D02*
G01*
X59411783Y-38850692D01*
X59387089Y-38863045D01*
X59376426Y-38863135D01*
X59377917Y-38850963D01*
X59378021Y-38850692D01*
X59391327Y-38839540D01*
X59410347Y-38835982D01*
X59436892Y-38836338D01*
G37*
G36*
X59696768Y-41233093D02*
G01*
X59698166Y-41245487D01*
X59697157Y-41247466D01*
X59684960Y-41255044D01*
X59669901Y-41254768D01*
X59662871Y-41247140D01*
X59670874Y-41236176D01*
X59686730Y-41230502D01*
X59696768Y-41233093D01*
G37*
G36*
X59704718Y-41603644D02*
G01*
X59713005Y-41616891D01*
X59713088Y-41618267D01*
X59706349Y-41627537D01*
X59704718Y-41627718D01*
X59697225Y-41619590D01*
X59696349Y-41613095D01*
X59700702Y-41602967D01*
X59704718Y-41603644D01*
G37*
G36*
X59792634Y-40833749D02*
G01*
X59793436Y-40839897D01*
X59787820Y-40852877D01*
X59783393Y-40854369D01*
X59775311Y-40845932D01*
X59773349Y-40833689D01*
X59777215Y-40819802D01*
X59783393Y-40819217D01*
X59792634Y-40833749D01*
G37*
G36*
X60572304Y-41020357D02*
G01*
X60572683Y-41031556D01*
X60559749Y-41041651D01*
X60553399Y-41043421D01*
X60539064Y-41039095D01*
X60536655Y-41030867D01*
X60545103Y-41017828D01*
X60557579Y-41015065D01*
X60572304Y-41020357D01*
G37*
G36*
X60667220Y-41070304D02*
G01*
X60676801Y-41079329D01*
X60677264Y-41080940D01*
X60669493Y-41085254D01*
X60667220Y-41085369D01*
X60657563Y-41077649D01*
X60657177Y-41074733D01*
X60663330Y-41068735D01*
X60667220Y-41070304D01*
G37*
G36*
X60673811Y-41262262D02*
G01*
X60672242Y-41266152D01*
X60663217Y-41275734D01*
X60661606Y-41276196D01*
X60657292Y-41268425D01*
X60657177Y-41266152D01*
X60664898Y-41256495D01*
X60667813Y-41256109D01*
X60673811Y-41262262D01*
G37*
G36*
X60697059Y-40982534D02*
G01*
X60697351Y-40984935D01*
X60689708Y-40994686D01*
X60687307Y-40994978D01*
X60677555Y-40987335D01*
X60677264Y-40984935D01*
X60684906Y-40975183D01*
X60687307Y-40974891D01*
X60697059Y-40982534D01*
G37*
G36*
X60764715Y-40862019D02*
G01*
X60766332Y-40888188D01*
X60764512Y-40902193D01*
X60761797Y-40904541D01*
X60760274Y-40890118D01*
X60760144Y-40879478D01*
X60761133Y-40860028D01*
X60763402Y-40857077D01*
X60764715Y-40862019D01*
G37*
G36*
X60848545Y-41039448D02*
G01*
X60856378Y-41043952D01*
X60863688Y-41052169D01*
X60853045Y-41058863D01*
X60834784Y-41064556D01*
X60828539Y-41059928D01*
X60827916Y-41050217D01*
X60832879Y-41036704D01*
X60848545Y-41039448D01*
G37*
G36*
X60863873Y-41100137D02*
G01*
X60863068Y-41105456D01*
X60854478Y-41115027D01*
X60853025Y-41115500D01*
X60845040Y-41108495D01*
X60842981Y-41105456D01*
X60845366Y-41096948D01*
X60853025Y-41095413D01*
X60863873Y-41100137D01*
G37*
G36*
X60866320Y-40983308D02*
G01*
X60868090Y-40994978D01*
X60862790Y-41012068D01*
X60850998Y-41013413D01*
X60842981Y-41005022D01*
X60841746Y-40988402D01*
X60852742Y-40976101D01*
X60858639Y-40974891D01*
X60866320Y-40983308D01*
G37*
G36*
X60889263Y-40906837D02*
G01*
X60889684Y-40909608D01*
X60881864Y-40921385D01*
X60878887Y-40922749D01*
X60869729Y-40917900D01*
X60868090Y-40909608D01*
X60873186Y-40897108D01*
X60878887Y-40896468D01*
X60889263Y-40906837D01*
G37*
G36*
X60901187Y-40952061D02*
G01*
X60903242Y-40954804D01*
X60900965Y-40963402D01*
X60893791Y-40964848D01*
X60880050Y-40959604D01*
X60878134Y-40954804D01*
X60885342Y-40945048D01*
X60887584Y-40944761D01*
X60901187Y-40952061D01*
G37*
G36*
X60975772Y-40862742D02*
G01*
X60978568Y-40874456D01*
X60973682Y-40891802D01*
X60963070Y-40891830D01*
X60954534Y-40878656D01*
X60949113Y-40860827D01*
X60954320Y-40854891D01*
X60963503Y-40854369D01*
X60975772Y-40862742D01*
G37*
G36*
X60978277Y-40982534D02*
G01*
X60978568Y-40984935D01*
X60970926Y-40994686D01*
X60968525Y-40994978D01*
X60958773Y-40987335D01*
X60958481Y-40984935D01*
X60966124Y-40975183D01*
X60968525Y-40974891D01*
X60978277Y-40982534D01*
G37*
G36*
X61008411Y-40951969D02*
G01*
X61008699Y-40954211D01*
X61001398Y-40967814D01*
X60998655Y-40969869D01*
X60990057Y-40967592D01*
X60988612Y-40960419D01*
X60993856Y-40946677D01*
X60998655Y-40944761D01*
X61008411Y-40951969D01*
G37*
G36*
X61081012Y-40761969D02*
G01*
X61085956Y-40770963D01*
X61073794Y-40773948D01*
X61068960Y-40774021D01*
X61052996Y-40771996D01*
X61054601Y-40764423D01*
X61056908Y-40761969D01*
X61070575Y-40755088D01*
X61081012Y-40761969D01*
G37*
G36*
X61149193Y-40972618D02*
G01*
X61149308Y-40974891D01*
X61141587Y-40984549D01*
X61138672Y-40984935D01*
X61132673Y-40978782D01*
X61134243Y-40974891D01*
X61143268Y-40965310D01*
X61144879Y-40964848D01*
X61149193Y-40972618D01*
G37*
G36*
X61197826Y-39975965D02*
G01*
X61199525Y-39980585D01*
X61191391Y-39989495D01*
X61184460Y-39990628D01*
X61171095Y-39985205D01*
X61169395Y-39980585D01*
X61177530Y-39971675D01*
X61184460Y-39970541D01*
X61197826Y-39975965D01*
G37*
G36*
X61239584Y-40952531D02*
G01*
X61239699Y-40954804D01*
X61231978Y-40964462D01*
X61229063Y-40964848D01*
X61223065Y-40958695D01*
X61224634Y-40954804D01*
X61233659Y-40945223D01*
X61235270Y-40944761D01*
X61239584Y-40952531D01*
G37*
G36*
X61379212Y-40531073D02*
G01*
X61380308Y-40537999D01*
X61378159Y-40551399D01*
X61376361Y-40553064D01*
X61369885Y-40545211D01*
X61366633Y-40537999D01*
X61366424Y-40525066D01*
X61370580Y-40522934D01*
X61379212Y-40531073D01*
G37*
G36*
X59968772Y-40482406D02*
G01*
X59982052Y-40502145D01*
X59982083Y-40522948D01*
X59968876Y-40536733D01*
X59953654Y-40533603D01*
X59943394Y-40516085D01*
X59938886Y-40491240D01*
X59945434Y-40476917D01*
X59960229Y-40476844D01*
X59968772Y-40482406D01*
G37*
G36*
X61062974Y-42000491D02*
G01*
X61065611Y-42004051D01*
X61048381Y-42010116D01*
X61036319Y-42013171D01*
X61015639Y-42015015D01*
X61008699Y-42009562D01*
X61017462Y-42002525D01*
X61038734Y-41999343D01*
X61040503Y-41999328D01*
X61062974Y-42000491D01*
G37*
G36*
X61141664Y-40844391D02*
G01*
X61150647Y-40857222D01*
X61150837Y-40859140D01*
X61144837Y-40870350D01*
X61130702Y-40867121D01*
X61120675Y-40858320D01*
X61112395Y-40843222D01*
X61113624Y-40836487D01*
X61126130Y-40835536D01*
X61141664Y-40844391D01*
G37*
G36*
X61237417Y-40846821D02*
G01*
X61233963Y-40867811D01*
X61226085Y-40879462D01*
X61209750Y-40893024D01*
X61204708Y-40890323D01*
X61211267Y-40871913D01*
X61216338Y-40861902D01*
X61228231Y-40842421D01*
X61234938Y-40840171D01*
X61237417Y-40846821D01*
G37*
G36*
X61251752Y-39958489D02*
G01*
X61259173Y-39971025D01*
X61249659Y-39980849D01*
X61229389Y-39989900D01*
X61220038Y-39985720D01*
X61219766Y-39983096D01*
X61224710Y-39968937D01*
X61229391Y-39960582D01*
X61239844Y-39951009D01*
X61251752Y-39958489D01*
G37*
G36*
X61352210Y-40566493D02*
G01*
X61359947Y-40574650D01*
X61350142Y-40584582D01*
X61344335Y-40587142D01*
X61327920Y-40592410D01*
X61318262Y-40587789D01*
X61310004Y-40578173D01*
X61304231Y-40567798D01*
X61312954Y-40563675D01*
X61328861Y-40563108D01*
X61352210Y-40566493D01*
G37*
G36*
X59239862Y-38895255D02*
G01*
X59260092Y-38913849D01*
X59264535Y-38935524D01*
X59256004Y-38955785D01*
X59237315Y-38970134D01*
X59211282Y-38974074D01*
X59193337Y-38969584D01*
X59184256Y-38956913D01*
X59180783Y-38935578D01*
X59188298Y-38908113D01*
X59207278Y-38892385D01*
X59232375Y-38892046D01*
X59239862Y-38895255D01*
G37*
G36*
X60786287Y-39311578D02*
G01*
X60801188Y-39331874D01*
X60803437Y-39356788D01*
X60791695Y-39379156D01*
X60766632Y-39396004D01*
X60740908Y-39392878D01*
X60722826Y-39378380D01*
X60711274Y-39354266D01*
X60712644Y-39328047D01*
X60725790Y-39307938D01*
X60733214Y-39303766D01*
X60762406Y-39300632D01*
X60786287Y-39311578D01*
G37*
G36*
X61354870Y-39899085D02*
G01*
X61356324Y-39921028D01*
X61356237Y-39927711D01*
X61352287Y-39955373D01*
X61341272Y-39967594D01*
X61337623Y-39968622D01*
X61322884Y-39965286D01*
X61320047Y-39958215D01*
X61323855Y-39940023D01*
X61332820Y-39917276D01*
X61343251Y-39898015D01*
X61351215Y-39890272D01*
X61354870Y-39899085D01*
G37*
G36*
X59696382Y-38838657D02*
G01*
X59701624Y-38850599D01*
X59703041Y-38877788D01*
X59703045Y-38880086D01*
X59701202Y-38909948D01*
X59694824Y-38923798D01*
X59687664Y-38926018D01*
X59670762Y-38918007D01*
X59666828Y-38911801D01*
X59662822Y-38885818D01*
X59667286Y-38859636D01*
X59678215Y-38841254D01*
X59685468Y-38837487D01*
X59696382Y-38838657D01*
G37*
G36*
X60560453Y-39312711D02*
G01*
X60573520Y-39333843D01*
X60572781Y-39359423D01*
X60561397Y-39378380D01*
X60541765Y-39393402D01*
X60526611Y-39398062D01*
X60507321Y-39391062D01*
X60491825Y-39378380D01*
X60479943Y-39353576D01*
X60482211Y-39327302D01*
X60497131Y-39307262D01*
X60506548Y-39302642D01*
X60536991Y-39300740D01*
X60560453Y-39312711D01*
G37*
G36*
X60754830Y-40946715D02*
G01*
X60766407Y-40956875D01*
X60772671Y-40976503D01*
X60772989Y-40997683D01*
X60766728Y-41012498D01*
X60760294Y-41015065D01*
X60749507Y-41008024D01*
X60750309Y-40995627D01*
X60748298Y-40976771D01*
X60740800Y-40970589D01*
X60731646Y-40960970D01*
X60736633Y-40950457D01*
X60751522Y-40946262D01*
X60754830Y-40946715D01*
G37*
G36*
X61239699Y-40783381D02*
G01*
X61233578Y-40800275D01*
X61224634Y-40804152D01*
X61211269Y-40809575D01*
X61209569Y-40814195D01*
X61201132Y-40822276D01*
X61188889Y-40824239D01*
X61174878Y-40820541D01*
X61174128Y-40814663D01*
X61185754Y-40802803D01*
X61206492Y-40786290D01*
X61209873Y-40783848D01*
X61239699Y-40762610D01*
X61239699Y-40783381D01*
G37*
G36*
X59724723Y-41156685D02*
G01*
X59724660Y-41169768D01*
X59721623Y-41186339D01*
X59715600Y-41193927D01*
X59699695Y-41198860D01*
X59690470Y-41201142D01*
X59668915Y-41203166D01*
X59662871Y-41196937D01*
X59671240Y-41187791D01*
X59682259Y-41185804D01*
X59699967Y-41177249D01*
X59704857Y-41165320D01*
X59711507Y-41149660D01*
X59718110Y-41146772D01*
X59724723Y-41156685D01*
G37*
G36*
X61360221Y-40691664D02*
G01*
X61352914Y-40702958D01*
X61349006Y-40703717D01*
X61342101Y-40711666D01*
X61343044Y-40723804D01*
X61341791Y-40740183D01*
X61329602Y-40743161D01*
X61312013Y-40731838D01*
X61300700Y-40714697D01*
X61307268Y-40705136D01*
X61318039Y-40703717D01*
X61340317Y-40697358D01*
X61348169Y-40691664D01*
X61358121Y-40684677D01*
X61360221Y-40691664D01*
G37*
G36*
X59790570Y-40873693D02*
G01*
X59796033Y-40892674D01*
X59799074Y-40921222D01*
X59799122Y-40954100D01*
X59795813Y-40984935D01*
X59789979Y-41009360D01*
X59784137Y-41020842D01*
X59781631Y-41020087D01*
X59777877Y-41004345D01*
X59775799Y-40976423D01*
X59775329Y-40942665D01*
X59776399Y-40909414D01*
X59778940Y-40883015D01*
X59782885Y-40869813D01*
X59783255Y-40869520D01*
X59790570Y-40873693D01*
G37*
G36*
X61340134Y-40620420D02*
G01*
X61344421Y-40635972D01*
X61360221Y-40636322D01*
X61376032Y-40636685D01*
X61380308Y-40652258D01*
X61380308Y-40652328D01*
X61379315Y-40668772D01*
X61377797Y-40672421D01*
X61367317Y-40669149D01*
X61359934Y-40667091D01*
X61341235Y-40655323D01*
X61328400Y-40636127D01*
X61325563Y-40617187D01*
X61329266Y-40610132D01*
X61337773Y-40606814D01*
X61340134Y-40620420D01*
G37*
G36*
X60817525Y-40862059D02*
G01*
X60817873Y-40864766D01*
X60824021Y-40870033D01*
X60837299Y-40864766D01*
X60857287Y-40855674D01*
X60862446Y-40858679D01*
X60853304Y-40874923D01*
X60846415Y-40884500D01*
X60828529Y-40904284D01*
X60813079Y-40914320D01*
X60810962Y-40914630D01*
X60801091Y-40905656D01*
X60797786Y-40884500D01*
X60800695Y-40863344D01*
X60807704Y-40854371D01*
X60807829Y-40854369D01*
X60817525Y-40862059D01*
G37*
G36*
X58984784Y-40153522D02*
G01*
X58989117Y-40163478D01*
X58987818Y-40186235D01*
X58986162Y-40199031D01*
X58980410Y-40227647D01*
X58973165Y-40246468D01*
X58969552Y-40250145D01*
X58954430Y-40259628D01*
X58945299Y-40267721D01*
X58923824Y-40281183D01*
X58906261Y-40275194D01*
X58901387Y-40257586D01*
X58907332Y-40231193D01*
X58921001Y-40201718D01*
X58939299Y-40174863D01*
X58959132Y-40156332D01*
X58973479Y-40151324D01*
X58984784Y-40153522D01*
G37*
G36*
X60988689Y-39948371D02*
G01*
X61002045Y-39963203D01*
X61003497Y-39970410D01*
X61002558Y-39970541D01*
X60987508Y-39964151D01*
X60980159Y-39958071D01*
X60966562Y-39951375D01*
X60960574Y-39956293D01*
X60945820Y-39968729D01*
X60926934Y-39975519D01*
X60914541Y-39973470D01*
X60912585Y-39961883D01*
X60924930Y-39952641D01*
X60938150Y-39950454D01*
X60955786Y-39944805D01*
X60960850Y-39938328D01*
X60969935Y-39934853D01*
X60988689Y-39948371D01*
G37*
G36*
X59994876Y-40267638D02*
G01*
X59996686Y-40287259D01*
X59994460Y-40315643D01*
X59991202Y-40354619D01*
X59989703Y-40392010D01*
X59989803Y-40406034D01*
X59988591Y-40429801D01*
X59983983Y-40442111D01*
X59982646Y-40442586D01*
X59977256Y-40433702D01*
X59974371Y-40411641D01*
X59974219Y-40404420D01*
X59971557Y-40376711D01*
X59964997Y-40357431D01*
X59963444Y-40355481D01*
X59958794Y-40339769D01*
X59960971Y-40315058D01*
X59968034Y-40288852D01*
X59978042Y-40268652D01*
X59987690Y-40261803D01*
X59994876Y-40267638D01*
G37*
G36*
X60977038Y-40765538D02*
G01*
X60998809Y-40777278D01*
X61018280Y-40796914D01*
X61030630Y-40821753D01*
X61031248Y-40824239D01*
X61032881Y-40845398D01*
X61030083Y-40865895D01*
X61024498Y-40879618D01*
X61017766Y-40880457D01*
X61016584Y-40878811D01*
X61012446Y-40862510D01*
X61011085Y-40841396D01*
X61007978Y-40814218D01*
X60998736Y-40805179D01*
X60986436Y-40812354D01*
X60967213Y-40822362D01*
X60951300Y-40816328D01*
X60943230Y-40798255D01*
X60945888Y-40776532D01*
X60957790Y-40764391D01*
X60977038Y-40765538D01*
G37*
G36*
X60549721Y-38889230D02*
G01*
X60563149Y-38900935D01*
X60571264Y-38923278D01*
X60574541Y-38958577D01*
X60573454Y-39009152D01*
X60568832Y-39073213D01*
X60561626Y-39142604D01*
X60553385Y-39192677D01*
X60543756Y-39224191D01*
X60532387Y-39237903D01*
X60518923Y-39234571D01*
X60503013Y-39214954D01*
X60502897Y-39214768D01*
X60495370Y-39192046D01*
X60489022Y-39150451D01*
X60484011Y-39091173D01*
X60482359Y-39061605D01*
X60480251Y-38996812D01*
X60481662Y-38949470D01*
X60487258Y-38917148D01*
X60497705Y-38897412D01*
X60513670Y-38887832D01*
X60530505Y-38885844D01*
X60549721Y-38889230D01*
G37*
G36*
X61289050Y-39906017D02*
G01*
X61289917Y-39908915D01*
X61280712Y-39916290D01*
X61256162Y-39920069D01*
X61245876Y-39920324D01*
X61215140Y-39922723D01*
X61196294Y-39932093D01*
X61185384Y-39945433D01*
X61169744Y-39963677D01*
X61156180Y-39970838D01*
X61149437Y-39964669D01*
X61149308Y-39962507D01*
X61155604Y-39949237D01*
X61161778Y-39942001D01*
X61168615Y-39929504D01*
X61159267Y-39920060D01*
X61152416Y-39913188D01*
X61163178Y-39910604D01*
X61170504Y-39910434D01*
X61196845Y-39908956D01*
X61231328Y-39905436D01*
X61243319Y-39903894D01*
X61275116Y-39901588D01*
X61289050Y-39906017D01*
G37*
G36*
X59237832Y-39029339D02*
G01*
X59250463Y-39039625D01*
X59259330Y-39059756D01*
X59265061Y-39092175D01*
X59268282Y-39139325D01*
X59269621Y-39203649D01*
X59269710Y-39217125D01*
X59269436Y-39277283D01*
X59267719Y-39320558D01*
X59264273Y-39350119D01*
X59258814Y-39369138D01*
X59255488Y-39375310D01*
X59234111Y-39394337D01*
X59209575Y-39396203D01*
X59192835Y-39386010D01*
X59188994Y-39372553D01*
X59185751Y-39343213D01*
X59183178Y-39302186D01*
X59181349Y-39253670D01*
X59180337Y-39201859D01*
X59180214Y-39150953D01*
X59181052Y-39105146D01*
X59182925Y-39068636D01*
X59185905Y-39045620D01*
X59186879Y-39042340D01*
X59201001Y-39030126D01*
X59220813Y-39026453D01*
X59237832Y-39029339D01*
G37*
G36*
X60776738Y-38890328D02*
G01*
X60796117Y-38909182D01*
X60803191Y-38929551D01*
X60805175Y-38955678D01*
X60804718Y-38994907D01*
X60802262Y-39042119D01*
X60798250Y-39092193D01*
X60793124Y-39140010D01*
X60787327Y-39180449D01*
X60781301Y-39208392D01*
X60778448Y-39215879D01*
X60765441Y-39233901D01*
X60750952Y-39234871D01*
X60739070Y-39228490D01*
X60732434Y-39216343D01*
X60726309Y-39187892D01*
X60720502Y-39141903D01*
X60714816Y-39077136D01*
X60714482Y-39072728D01*
X60710297Y-39015534D01*
X60707902Y-38974900D01*
X60707505Y-38947363D01*
X60709313Y-38929458D01*
X60713534Y-38917722D01*
X60720375Y-38908690D01*
X60724577Y-38904371D01*
X60751306Y-38888217D01*
X60776738Y-38890328D01*
G37*
G36*
X59894563Y-40501169D02*
G01*
X59907496Y-40520594D01*
X59914020Y-40542565D01*
X59914112Y-40544814D01*
X59919624Y-40574751D01*
X59937590Y-40590636D01*
X59954132Y-40594737D01*
X59966746Y-40597849D01*
X59974885Y-40605696D01*
X59980222Y-40622530D01*
X59984426Y-40652603D01*
X59987083Y-40678608D01*
X59991986Y-40731158D01*
X59994573Y-40767372D01*
X59994797Y-40790872D01*
X59992610Y-40805278D01*
X59987965Y-40814213D01*
X59985262Y-40817213D01*
X59976272Y-40821498D01*
X59974219Y-40811046D01*
X59969494Y-40787408D01*
X59964789Y-40776396D01*
X59951491Y-40749461D01*
X59934483Y-40711956D01*
X59916868Y-40671082D01*
X59901752Y-40634039D01*
X59892325Y-40608303D01*
X59886371Y-40583465D01*
X59881598Y-40553199D01*
X59878639Y-40523802D01*
X59878130Y-40501571D01*
X59880691Y-40492803D01*
X59894563Y-40501169D01*
G37*
G36*
X61014010Y-40299168D02*
G01*
X61023001Y-40317200D01*
X61026433Y-40336835D01*
X61025533Y-40343461D01*
X61024955Y-40367400D01*
X61030603Y-40393263D01*
X61035819Y-40420489D01*
X61029230Y-40437029D01*
X61020623Y-40458667D01*
X61020642Y-40469460D01*
X61017988Y-40483087D01*
X61001029Y-40489715D01*
X60991744Y-40490882D01*
X60967031Y-40497446D01*
X60956499Y-40513052D01*
X60955893Y-40515991D01*
X60952660Y-40529337D01*
X60948861Y-40525461D01*
X60943954Y-40509644D01*
X60941076Y-40483803D01*
X60946084Y-40471052D01*
X60951353Y-40455294D01*
X60951790Y-40428766D01*
X60950921Y-40420554D01*
X60949897Y-40389121D01*
X60957924Y-40372742D01*
X60959450Y-40371683D01*
X60968070Y-40361618D01*
X60960908Y-40350604D01*
X60950937Y-40331094D01*
X60948438Y-40314357D01*
X60951700Y-40297301D01*
X60964356Y-40295723D01*
X60967680Y-40296687D01*
X60986419Y-40296893D01*
X60993837Y-40291604D01*
X61003082Y-40288661D01*
X61014010Y-40299168D01*
G37*
G36*
X57644426Y-38898009D02*
G01*
X57683359Y-38900137D01*
X57709432Y-38904234D01*
X57725048Y-38910669D01*
X57732609Y-38919814D01*
X57734519Y-38931552D01*
X57725992Y-38954607D01*
X57700089Y-38969292D01*
X57656332Y-38975828D01*
X57638389Y-38976235D01*
X57573824Y-38976235D01*
X57573824Y-39170527D01*
X57573667Y-39238311D01*
X57573032Y-39288857D01*
X57571670Y-39325015D01*
X57569334Y-39349631D01*
X57565775Y-39365555D01*
X57560745Y-39375635D01*
X57555457Y-39381440D01*
X57528860Y-39396568D01*
X57504019Y-39391750D01*
X57490239Y-39379948D01*
X57484318Y-39370542D01*
X57479841Y-39355332D01*
X57476550Y-39331528D01*
X57474191Y-39296339D01*
X57472506Y-39246975D01*
X57471241Y-39180645D01*
X57471107Y-39171546D01*
X57468367Y-38981257D01*
X57399094Y-38976235D01*
X57350975Y-38969568D01*
X57321940Y-38957749D01*
X57311581Y-38940486D01*
X57318850Y-38918485D01*
X57324722Y-38912241D01*
X57335219Y-38907560D01*
X57353127Y-38904158D01*
X57381230Y-38901751D01*
X57422312Y-38900057D01*
X57479157Y-38898791D01*
X57518367Y-38898172D01*
X57590229Y-38897478D01*
X57644426Y-38898009D01*
G37*
G36*
X58996095Y-38896201D02*
G01*
X59047613Y-38897487D01*
X59084112Y-38900266D01*
X59108125Y-38905059D01*
X59122183Y-38912387D01*
X59128818Y-38922768D01*
X59130561Y-38936724D01*
X59130565Y-38937717D01*
X59122229Y-38957346D01*
X59096701Y-38969918D01*
X59053201Y-38975734D01*
X59030791Y-38976235D01*
X58969869Y-38976235D01*
X58969869Y-39170527D01*
X58969713Y-39238311D01*
X58969078Y-39288857D01*
X58967716Y-39325015D01*
X58965380Y-39349631D01*
X58961821Y-39365555D01*
X58956791Y-39375635D01*
X58951502Y-39381440D01*
X58924653Y-39396574D01*
X58900117Y-39392123D01*
X58888240Y-39381483D01*
X58883003Y-39369826D01*
X58878912Y-39347515D01*
X58875793Y-39312359D01*
X58873471Y-39262167D01*
X58871769Y-39194747D01*
X58871348Y-39170569D01*
X58868241Y-38976235D01*
X58804272Y-38976235D01*
X58755110Y-38972289D01*
X58723811Y-38960241D01*
X58709723Y-38939783D01*
X58708738Y-38930676D01*
X58712037Y-38918955D01*
X58723408Y-38910079D01*
X58745065Y-38903696D01*
X58779220Y-38899452D01*
X58828087Y-38896996D01*
X58893879Y-38895974D01*
X58927026Y-38895887D01*
X58996095Y-38896201D01*
G37*
G36*
X58378265Y-39031973D02*
G01*
X58428743Y-39055776D01*
X58468173Y-39093289D01*
X58494340Y-39141885D01*
X58505032Y-39198935D01*
X58502206Y-39241991D01*
X58491052Y-39287696D01*
X58472399Y-39323429D01*
X58453885Y-39346211D01*
X58414511Y-39375698D01*
X58364620Y-39392975D01*
X58310280Y-39397169D01*
X58257559Y-39387404D01*
X58235089Y-39377756D01*
X58187572Y-39342347D01*
X58156201Y-39295308D01*
X58141444Y-39237567D01*
X58141319Y-39213399D01*
X58236744Y-39213399D01*
X58237964Y-39249963D01*
X58243146Y-39273736D01*
X58254458Y-39291935D01*
X58263173Y-39301279D01*
X58296610Y-39322539D01*
X58333784Y-39326785D01*
X58368825Y-39313555D01*
X58373629Y-39309958D01*
X58397924Y-39280209D01*
X58410402Y-39243168D01*
X58412185Y-39202885D01*
X58404395Y-39163408D01*
X58388155Y-39128786D01*
X58364587Y-39103068D01*
X58334813Y-39090304D01*
X58312893Y-39090827D01*
X58275286Y-39107064D01*
X58250365Y-39138862D01*
X58238121Y-39186233D01*
X58236744Y-39213399D01*
X58141319Y-39213399D01*
X58141208Y-39191798D01*
X58155012Y-39132017D01*
X58184520Y-39083603D01*
X58227724Y-39048445D01*
X58282619Y-39028430D01*
X58318953Y-39024506D01*
X58378265Y-39031973D01*
G37*
G36*
X57957310Y-39030882D02*
G01*
X57983333Y-39041344D01*
X57999375Y-39050271D01*
X58041409Y-39085884D01*
X58070365Y-39133362D01*
X58084926Y-39188283D01*
X58083777Y-39246232D01*
X58071024Y-39290944D01*
X58041124Y-39338518D01*
X57998911Y-39372897D01*
X57948243Y-39392796D01*
X57892982Y-39396931D01*
X57836988Y-39384018D01*
X57817834Y-39375181D01*
X57777528Y-39349996D01*
X57751200Y-39322117D01*
X57736254Y-39286714D01*
X57730095Y-39238956D01*
X57729738Y-39222109D01*
X57815336Y-39222109D01*
X57825109Y-39263774D01*
X57847131Y-39303137D01*
X57853301Y-39310662D01*
X57873511Y-39323526D01*
X57905522Y-39325983D01*
X57909433Y-39325727D01*
X57939700Y-39320025D01*
X57960627Y-39304683D01*
X57972725Y-39288609D01*
X57990400Y-39246866D01*
X57995729Y-39198214D01*
X57987947Y-39152154D01*
X57984425Y-39143371D01*
X57967949Y-39121845D01*
X57942873Y-39102456D01*
X57940348Y-39101043D01*
X57904222Y-39090048D01*
X57872459Y-39095742D01*
X57846375Y-39114960D01*
X57827284Y-39144537D01*
X57816499Y-39181309D01*
X57815336Y-39222109D01*
X57729738Y-39222109D01*
X57729498Y-39210773D01*
X57730459Y-39166251D01*
X57734049Y-39136131D01*
X57741324Y-39114788D01*
X57750205Y-39100661D01*
X57783454Y-39063886D01*
X57820213Y-39041580D01*
X57866945Y-39030398D01*
X57889970Y-39028284D01*
X57929137Y-39027121D01*
X57957310Y-39030882D01*
G37*
G36*
X60293563Y-38902845D02*
G01*
X60310398Y-38919026D01*
X60320161Y-38937396D01*
X60319305Y-38948393D01*
X60317134Y-38963761D01*
X60319548Y-38988558D01*
X60319793Y-38989895D01*
X60329064Y-39015049D01*
X60349081Y-39028805D01*
X60358452Y-39031928D01*
X60384407Y-39045619D01*
X60391985Y-39063176D01*
X60381189Y-39080369D01*
X60358383Y-39091302D01*
X60335877Y-39101969D01*
X60324657Y-39115126D01*
X60324446Y-39116410D01*
X60323400Y-39142473D01*
X60323367Y-39178474D01*
X60324169Y-39218989D01*
X60325629Y-39258597D01*
X60327568Y-39291874D01*
X60329808Y-39313399D01*
X60331072Y-39318215D01*
X60344027Y-39324311D01*
X60368870Y-39327581D01*
X60376551Y-39327758D01*
X60402430Y-39329383D01*
X60413800Y-39336233D01*
X60416133Y-39349248D01*
X60408548Y-39372660D01*
X60398557Y-39384081D01*
X60372143Y-39394482D01*
X60335977Y-39397647D01*
X60298950Y-39393817D01*
X60269954Y-39383232D01*
X60266097Y-39380486D01*
X60248513Y-39358328D01*
X60236223Y-39323438D01*
X60228767Y-39273643D01*
X60225683Y-39206772D01*
X60225546Y-39189660D01*
X60224747Y-39143968D01*
X60222327Y-39115286D01*
X60217826Y-39100573D01*
X60211471Y-39096757D01*
X60190627Y-39089412D01*
X60181036Y-39072012D01*
X60183261Y-39051509D01*
X60197867Y-39034857D01*
X60206147Y-39031180D01*
X60219019Y-39022021D01*
X60224577Y-39001836D01*
X60225306Y-38982815D01*
X60230628Y-38943667D01*
X60244902Y-38913788D01*
X60265589Y-38897569D01*
X60275524Y-38895887D01*
X60293563Y-38902845D01*
G37*
G36*
X56857513Y-38999544D02*
G01*
X56927878Y-39001648D01*
X56991284Y-39004211D01*
X57045030Y-39007070D01*
X57086413Y-39010062D01*
X57112733Y-39013025D01*
X57121255Y-39015421D01*
X57134493Y-39024608D01*
X57154703Y-39031791D01*
X57176766Y-39039766D01*
X57187837Y-39047653D01*
X57201361Y-39055139D01*
X57212850Y-39056583D01*
X57228849Y-39060750D01*
X57232345Y-39066265D01*
X57240715Y-39079456D01*
X57261625Y-39095856D01*
X57288774Y-39111710D01*
X57315862Y-39123259D01*
X57334037Y-39126888D01*
X57353441Y-39130175D01*
X57365289Y-39142429D01*
X57371239Y-39167237D01*
X57372950Y-39208186D01*
X57372954Y-39211070D01*
X57370204Y-39251965D01*
X57360012Y-39275976D01*
X57339464Y-39285187D01*
X57305648Y-39281682D01*
X57282562Y-39275729D01*
X57256365Y-39266838D01*
X57238593Y-39258318D01*
X57237366Y-39257409D01*
X57223272Y-39251221D01*
X57195182Y-39242423D01*
X57158712Y-39232742D01*
X57151997Y-39231113D01*
X57114034Y-39220811D01*
X57082950Y-39210149D01*
X57064684Y-39201205D01*
X57063399Y-39200122D01*
X57043542Y-39188813D01*
X57033928Y-39187149D01*
X57015253Y-39183022D01*
X56987695Y-39172665D01*
X56976896Y-39167795D01*
X56943258Y-39155075D01*
X56901314Y-39143457D01*
X56875801Y-39138226D01*
X56799801Y-39123782D01*
X56735645Y-39107626D01*
X56675099Y-39087469D01*
X56632246Y-39070499D01*
X56609379Y-39057565D01*
X56600559Y-39039896D01*
X56599697Y-39026453D01*
X57081692Y-39026453D01*
X57085367Y-39034720D01*
X57088388Y-39033149D01*
X57089590Y-39021229D01*
X57088388Y-39019757D01*
X57082417Y-39021136D01*
X57081692Y-39026453D01*
X56599697Y-39026453D01*
X56599604Y-39025008D01*
X56599604Y-38993107D01*
X56857513Y-38999544D01*
G37*
G36*
X59863503Y-38893030D02*
G01*
X59876199Y-38915595D01*
X59882678Y-38955049D01*
X59883827Y-38990640D01*
X59885332Y-39029825D01*
X59890947Y-39050948D01*
X59902327Y-39055884D01*
X59921124Y-39046505D01*
X59928432Y-39041199D01*
X59956967Y-39029788D01*
X59995547Y-39026901D01*
X60036158Y-39032265D01*
X60070787Y-39045609D01*
X60071527Y-39046055D01*
X60092815Y-39063654D01*
X60107929Y-39088460D01*
X60117712Y-39123595D01*
X60123010Y-39172179D01*
X60124666Y-39237331D01*
X60124667Y-39242388D01*
X60122676Y-39305060D01*
X60116473Y-39349908D01*
X60105519Y-39378858D01*
X60089272Y-39393835D01*
X60081452Y-39396292D01*
X60062516Y-39396859D01*
X60049279Y-39388345D01*
X60040820Y-39368191D01*
X60036216Y-39333836D01*
X60034547Y-39282720D01*
X60034480Y-39265768D01*
X60033007Y-39201667D01*
X60028008Y-39155141D01*
X60018611Y-39123856D01*
X60003943Y-39105476D01*
X59983132Y-39097668D01*
X59971450Y-39096981D01*
X59940206Y-39103003D01*
X59915086Y-39115643D01*
X59904886Y-39124850D01*
X59897762Y-39136570D01*
X59892887Y-39154657D01*
X59889436Y-39182966D01*
X59886584Y-39225355D01*
X59884955Y-39256402D01*
X59881528Y-39312040D01*
X59877502Y-39350404D01*
X59872424Y-39374306D01*
X59865841Y-39386558D01*
X59863740Y-39388238D01*
X59835867Y-39397474D01*
X59812662Y-39389667D01*
X59803833Y-39378636D01*
X59800350Y-39361951D01*
X59797473Y-39327404D01*
X59795298Y-39277211D01*
X59793920Y-39213589D01*
X59793436Y-39138757D01*
X59793436Y-39138309D01*
X59793671Y-39060524D01*
X59794681Y-39000532D01*
X59796926Y-38956040D01*
X59800866Y-38924755D01*
X59806959Y-38904386D01*
X59815664Y-38892640D01*
X59827442Y-38887225D01*
X59842751Y-38885848D01*
X59844018Y-38885844D01*
X59863503Y-38893030D01*
G37*
G36*
X61310362Y-39972557D02*
G01*
X61322440Y-39982982D01*
X61323715Y-39985700D01*
X61335428Y-39997610D01*
X61342366Y-39998254D01*
X61351250Y-40003169D01*
X61350714Y-40010715D01*
X61346719Y-40036781D01*
X61345771Y-40071519D01*
X61347669Y-40106030D01*
X61352212Y-40131415D01*
X61353517Y-40134827D01*
X61355874Y-40156423D01*
X61351108Y-40164455D01*
X61342426Y-40180591D01*
X61340588Y-40199023D01*
X61345966Y-40210731D01*
X61349172Y-40211585D01*
X61352411Y-40221017D01*
X61354994Y-40246872D01*
X61356705Y-40285493D01*
X61357324Y-40333221D01*
X61357275Y-40347173D01*
X61356546Y-40396610D01*
X61355195Y-40437803D01*
X61353400Y-40467132D01*
X61351336Y-40480980D01*
X61350748Y-40481595D01*
X61337267Y-40478317D01*
X61327909Y-40475900D01*
X61312496Y-40463034D01*
X61304534Y-40438734D01*
X61303571Y-40409253D01*
X61307995Y-40386754D01*
X61320047Y-40386754D01*
X61325291Y-40400495D01*
X61330091Y-40402412D01*
X61339847Y-40395203D01*
X61340134Y-40392961D01*
X61332834Y-40379359D01*
X61330091Y-40377303D01*
X61321493Y-40379580D01*
X61320047Y-40386754D01*
X61307995Y-40386754D01*
X61309158Y-40380842D01*
X61320846Y-40359754D01*
X61336810Y-40352194D01*
X61348572Y-40345741D01*
X61348219Y-40330942D01*
X61336779Y-40314643D01*
X61330450Y-40309914D01*
X61315846Y-40292360D01*
X61316506Y-40274546D01*
X61316053Y-40250097D01*
X61309542Y-40236138D01*
X61302095Y-40220088D01*
X61308421Y-40209151D01*
X61316918Y-40191350D01*
X61319723Y-40166396D01*
X61316935Y-40142830D01*
X61308651Y-40129195D01*
X61307493Y-40128696D01*
X61300057Y-40121598D01*
X61304609Y-40105431D01*
X61307128Y-40100240D01*
X61315106Y-40073990D01*
X61317428Y-40043433D01*
X61314380Y-40015817D01*
X61306252Y-39998388D01*
X61303000Y-39996280D01*
X61290980Y-39985388D01*
X61289917Y-39980900D01*
X61296526Y-39971438D01*
X61310362Y-39972557D01*
G37*
G36*
X59549312Y-39035560D02*
G01*
X59574941Y-39048293D01*
X59605612Y-39070133D01*
X59623297Y-39048293D01*
X59647543Y-39030016D01*
X59673700Y-39028317D01*
X59690992Y-39038505D01*
X59695904Y-39051375D01*
X59699469Y-39079640D01*
X59701772Y-39124625D01*
X59702897Y-39187651D01*
X59703045Y-39228499D01*
X59702238Y-39308256D01*
X59699360Y-39370580D01*
X59693725Y-39418074D01*
X59684644Y-39453344D01*
X59671432Y-39478995D01*
X59653401Y-39497633D01*
X59629863Y-39511861D01*
X59628097Y-39512710D01*
X59582644Y-39527302D01*
X59529299Y-39534241D01*
X59477873Y-39532704D01*
X59452324Y-39527463D01*
X59410094Y-39509796D01*
X59378129Y-39486977D01*
X59358904Y-39461876D01*
X59354897Y-39437364D01*
X59361966Y-39422689D01*
X59381253Y-39409720D01*
X59405518Y-39413382D01*
X59436996Y-39434112D01*
X59441914Y-39438236D01*
X59480260Y-39461402D01*
X59520102Y-39469580D01*
X59557162Y-39463667D01*
X59587163Y-39444557D01*
X59605827Y-39413144D01*
X59608226Y-39403447D01*
X59611394Y-39372087D01*
X59604549Y-39357624D01*
X59585822Y-39358701D01*
X59561602Y-39369542D01*
X59515143Y-39384658D01*
X59467348Y-39384810D01*
X59424513Y-39370522D01*
X59405182Y-39356541D01*
X59374978Y-39321277D01*
X59356817Y-39280744D01*
X59348632Y-39229383D01*
X59347657Y-39201992D01*
X59348510Y-39191079D01*
X59443270Y-39191079D01*
X59444010Y-39210632D01*
X59446096Y-39248237D01*
X59450059Y-39271619D01*
X59458202Y-39286638D01*
X59472833Y-39299155D01*
X59481062Y-39304804D01*
X59504190Y-39320152D01*
X59518259Y-39326008D01*
X59531361Y-39323338D01*
X59551399Y-39313206D01*
X59587484Y-39284191D01*
X59607849Y-39242822D01*
X59612653Y-39202726D01*
X59609021Y-39167061D01*
X59595505Y-39139864D01*
X59585033Y-39127405D01*
X59551753Y-39099359D01*
X59520318Y-39090710D01*
X59488580Y-39101170D01*
X59473219Y-39112375D01*
X59456495Y-39127509D01*
X59447135Y-39141613D01*
X59443330Y-39160774D01*
X59443270Y-39191079D01*
X59348510Y-39191079D01*
X59352477Y-39140305D01*
X59368947Y-39093284D01*
X59398133Y-39058523D01*
X59416932Y-39045510D01*
X59457947Y-39030657D01*
X59504846Y-39027389D01*
X59549312Y-39035560D01*
G37*
G36*
X57621458Y-39552574D02*
G01*
X57647522Y-39568303D01*
X57670116Y-39594811D01*
X57685526Y-39629505D01*
X57688700Y-39644128D01*
X57698750Y-39712976D01*
X57707057Y-39780954D01*
X57713994Y-39852357D01*
X57719933Y-39931479D01*
X57725248Y-40022614D01*
X57729705Y-40116172D01*
X57734715Y-40203098D01*
X57741484Y-40272153D01*
X57750388Y-40325503D01*
X57761807Y-40365316D01*
X57776116Y-40393761D01*
X57778691Y-40397390D01*
X57796965Y-40429791D01*
X57815290Y-40475736D01*
X57831383Y-40528815D01*
X57841309Y-40573151D01*
X57849652Y-40605335D01*
X57860631Y-40633389D01*
X57860643Y-40633412D01*
X57872132Y-40658492D01*
X57885634Y-40691513D01*
X57890278Y-40703717D01*
X57905727Y-40740999D01*
X57919856Y-40762570D01*
X57936008Y-40772255D01*
X57951684Y-40774021D01*
X57969944Y-40778646D01*
X57975563Y-40786963D01*
X57979872Y-40803631D01*
X57990594Y-40829121D01*
X57994386Y-40836823D01*
X58007987Y-40866029D01*
X58017676Y-40891278D01*
X58018814Y-40895179D01*
X58020004Y-40910751D01*
X58008782Y-40912439D01*
X58005013Y-40911542D01*
X57988484Y-40911102D01*
X57985665Y-40919608D01*
X57994932Y-40933031D01*
X58014663Y-40947343D01*
X58020678Y-40950417D01*
X58055299Y-40961759D01*
X58077117Y-40957979D01*
X58085063Y-40940259D01*
X58078065Y-40909782D01*
X58071074Y-40894732D01*
X58064152Y-40870623D01*
X58061618Y-40838711D01*
X58063200Y-40806215D01*
X58068626Y-40780351D01*
X58075810Y-40769116D01*
X58086242Y-40773098D01*
X58104865Y-40788121D01*
X58116326Y-40799288D01*
X58132261Y-40816955D01*
X58142611Y-40833721D01*
X58149078Y-40854958D01*
X58153364Y-40886040D01*
X58156770Y-40926952D01*
X58158935Y-40969876D01*
X58158865Y-41006484D01*
X58156655Y-41031250D01*
X58154889Y-41037256D01*
X58148368Y-41055434D01*
X58148080Y-41062365D01*
X58147112Y-41083969D01*
X58138872Y-41112475D01*
X58126812Y-41137797D01*
X58118963Y-41147447D01*
X58099495Y-41155548D01*
X58069495Y-41160233D01*
X58056883Y-41160696D01*
X58010808Y-41160696D01*
X58003216Y-41221949D01*
X57995043Y-41267915D01*
X57982556Y-41317665D01*
X57974703Y-41342471D01*
X57962539Y-41379578D01*
X57952909Y-41413704D01*
X57948923Y-41431870D01*
X57942633Y-41461029D01*
X57936077Y-41482088D01*
X57916216Y-41537787D01*
X57902185Y-41588991D01*
X57895509Y-41629859D01*
X57895166Y-41638598D01*
X57892321Y-41679596D01*
X57883890Y-41737948D01*
X57870160Y-41811798D01*
X57863307Y-41844985D01*
X57857180Y-41884509D01*
X57859655Y-41906885D01*
X57871224Y-41913343D01*
X57888292Y-41907387D01*
X57913172Y-41889994D01*
X57919179Y-41884251D01*
X58216607Y-41884251D01*
X58222088Y-41894726D01*
X58233455Y-41907591D01*
X58243090Y-41914608D01*
X58244463Y-41914382D01*
X58243768Y-41904269D01*
X58240878Y-41895308D01*
X58231569Y-41882547D01*
X58220928Y-41878210D01*
X58216607Y-41884251D01*
X57919179Y-41884251D01*
X57926524Y-41877229D01*
X57941317Y-41863003D01*
X57949148Y-41858719D01*
X57958902Y-41851872D01*
X57974076Y-41837214D01*
X58147901Y-41837214D01*
X58155865Y-41848385D01*
X58163879Y-41854781D01*
X58189424Y-41867815D01*
X58208095Y-41865137D01*
X58216455Y-41847472D01*
X58216607Y-41843653D01*
X58213489Y-41824774D01*
X58207504Y-41818545D01*
X58202338Y-41810546D01*
X58203654Y-41798458D01*
X58205690Y-41782052D01*
X58198391Y-41781003D01*
X58180482Y-41795529D01*
X58171868Y-41803936D01*
X58152925Y-41824374D01*
X58147901Y-41837214D01*
X57974076Y-41837214D01*
X57977101Y-41834292D01*
X57991436Y-41818974D01*
X58015404Y-41795135D01*
X58023911Y-41788414D01*
X58126216Y-41788414D01*
X58133859Y-41798166D01*
X58136259Y-41798458D01*
X58146011Y-41790815D01*
X58146303Y-41788414D01*
X58138660Y-41778663D01*
X58136259Y-41778371D01*
X58126508Y-41786014D01*
X58126216Y-41788414D01*
X58023911Y-41788414D01*
X58037104Y-41777990D01*
X58046137Y-41773264D01*
X58059562Y-41762199D01*
X58059346Y-41752748D01*
X58061450Y-41740929D01*
X58075239Y-41738197D01*
X58094810Y-41732433D01*
X58102071Y-41724241D01*
X58113535Y-41713738D01*
X58128524Y-41716124D01*
X58138731Y-41728061D01*
X58138943Y-41739063D01*
X58140220Y-41755197D01*
X58148479Y-41758284D01*
X58167457Y-41753279D01*
X58168764Y-41739417D01*
X58159619Y-41726220D01*
X58148887Y-41709233D01*
X58154209Y-41696147D01*
X58154575Y-41695777D01*
X58165159Y-41677549D01*
X58166390Y-41670235D01*
X58172121Y-41654017D01*
X58186388Y-41630577D01*
X58191498Y-41623589D01*
X58207373Y-41599482D01*
X58215898Y-41580104D01*
X58216373Y-41576553D01*
X58220559Y-41558132D01*
X58231552Y-41530885D01*
X58246404Y-41500491D01*
X58262165Y-41472627D01*
X58275886Y-41452971D01*
X58283672Y-41446958D01*
X58297645Y-41454175D01*
X58314903Y-41471608D01*
X58315248Y-41472044D01*
X58332259Y-41489614D01*
X58345885Y-41497148D01*
X58346107Y-41497153D01*
X58355294Y-41499066D01*
X58355372Y-41508305D01*
X58346343Y-41530115D01*
X58346119Y-41530606D01*
X58340552Y-41552588D01*
X58346078Y-41577223D01*
X58352046Y-41590835D01*
X58361503Y-41616025D01*
X58363831Y-41634002D01*
X58362979Y-41636563D01*
X58363936Y-41649923D01*
X58367096Y-41652726D01*
X58376468Y-41652084D01*
X58377303Y-41648398D01*
X58384594Y-41638170D01*
X58387347Y-41637762D01*
X58395575Y-41646151D01*
X58397390Y-41657350D01*
X58405083Y-41678207D01*
X58413865Y-41686158D01*
X58423730Y-41699009D01*
X58419715Y-41711610D01*
X58405556Y-41715335D01*
X58401718Y-41714211D01*
X58385766Y-41715240D01*
X58379127Y-41731656D01*
X58381793Y-41754719D01*
X58388145Y-41771955D01*
X58397578Y-41772165D01*
X58405337Y-41766703D01*
X58416913Y-41758319D01*
X58414128Y-41763845D01*
X58409080Y-41770398D01*
X58401321Y-41789058D01*
X58403099Y-41799570D01*
X58404733Y-41807000D01*
X58400284Y-41805268D01*
X58386578Y-41806869D01*
X58373781Y-41816887D01*
X58363117Y-41836263D01*
X58365312Y-41861765D01*
X58366500Y-41866112D01*
X58371468Y-41888808D01*
X58371349Y-41901437D01*
X58371121Y-41901727D01*
X58374033Y-41910622D01*
X58382082Y-41918778D01*
X58394853Y-41933529D01*
X58397390Y-41940703D01*
X58403826Y-41957555D01*
X58419212Y-41979171D01*
X58437670Y-41998625D01*
X58453320Y-42008995D01*
X58455703Y-42009371D01*
X58471540Y-42015440D01*
X58495047Y-42030790D01*
X58506543Y-42039851D01*
X58536768Y-42064967D01*
X58555464Y-42079825D01*
X58566463Y-42087112D01*
X58573601Y-42089510D01*
X58577749Y-42089719D01*
X58586454Y-42098062D01*
X58588217Y-42108407D01*
X58592559Y-42120687D01*
X58608570Y-42128265D01*
X58635923Y-42132874D01*
X58671512Y-42139697D01*
X58704016Y-42150172D01*
X58729050Y-42162276D01*
X58742229Y-42173984D01*
X58741416Y-42181581D01*
X58727745Y-42186814D01*
X58699362Y-42192729D01*
X58661567Y-42198289D01*
X58647664Y-42199898D01*
X58598615Y-42205790D01*
X58548209Y-42212809D01*
X58506607Y-42219530D01*
X58503271Y-42220141D01*
X58464306Y-42224825D01*
X58414685Y-42227268D01*
X58363756Y-42227068D01*
X58352618Y-42226595D01*
X58307345Y-42222668D01*
X58254910Y-42215627D01*
X58200096Y-42206404D01*
X58147683Y-42195927D01*
X58102453Y-42185127D01*
X58069187Y-42174935D01*
X58055911Y-42168871D01*
X58032644Y-42157143D01*
X58023270Y-42153539D01*
X58008471Y-42145483D01*
X58005694Y-42140958D01*
X57996980Y-42134470D01*
X57974842Y-42125529D01*
X57960095Y-42120814D01*
X57927215Y-42108616D01*
X57899244Y-42094109D01*
X57892301Y-42089174D01*
X57870107Y-42070996D01*
X57873341Y-42069632D01*
X58457651Y-42069632D01*
X58461326Y-42077899D01*
X58464347Y-42076328D01*
X58465549Y-42064408D01*
X58464347Y-42062936D01*
X58458376Y-42064315D01*
X58457651Y-42069632D01*
X57873341Y-42069632D01*
X57906584Y-42055609D01*
X57926044Y-42044523D01*
X57975563Y-42044523D01*
X57980585Y-42049545D01*
X57985607Y-42044523D01*
X57984660Y-42043576D01*
X58420457Y-42043576D01*
X58427521Y-42049545D01*
X58443546Y-42058578D01*
X58445681Y-42055176D01*
X58442586Y-42049545D01*
X58427918Y-42039996D01*
X58424417Y-42039655D01*
X58420457Y-42043576D01*
X57984660Y-42043576D01*
X57980585Y-42039502D01*
X57975563Y-42044523D01*
X57926044Y-42044523D01*
X57932822Y-42040662D01*
X57945908Y-42020067D01*
X57949724Y-42004710D01*
X57949834Y-42004349D01*
X58005694Y-42004349D01*
X58010716Y-42009371D01*
X58015737Y-42004349D01*
X58010716Y-41999328D01*
X58005694Y-42004349D01*
X57949834Y-42004349D01*
X57957802Y-41978315D01*
X57967956Y-41969501D01*
X57978653Y-41979439D01*
X57979808Y-41981751D01*
X57982497Y-41982813D01*
X57980731Y-41967882D01*
X57980662Y-41967517D01*
X57980922Y-41944827D01*
X57988135Y-41936251D01*
X57995927Y-41928354D01*
X57994500Y-41925063D01*
X57982999Y-41925256D01*
X57962950Y-41933336D01*
X57941969Y-41945268D01*
X57927673Y-41957016D01*
X57925409Y-41961664D01*
X57917979Y-41969079D01*
X57901317Y-41968022D01*
X57883561Y-41960116D01*
X57874993Y-41951621D01*
X57867660Y-41941950D01*
X57867166Y-41949042D01*
X57869376Y-41960518D01*
X57870080Y-41981482D01*
X57858189Y-41991267D01*
X57854945Y-41992219D01*
X57838042Y-42005679D01*
X57834954Y-42018790D01*
X57829255Y-42038262D01*
X57821228Y-42045399D01*
X57811855Y-42057883D01*
X57800619Y-42086723D01*
X57788403Y-42128376D01*
X57776095Y-42179299D01*
X57764579Y-42235950D01*
X57754742Y-42294788D01*
X57749880Y-42330763D01*
X57745182Y-42363139D01*
X57737908Y-42406392D01*
X57729544Y-42451725D01*
X57728652Y-42456307D01*
X57721288Y-42500628D01*
X57713848Y-42556797D01*
X57707346Y-42616603D01*
X57703826Y-42657177D01*
X57700257Y-42706734D01*
X57696231Y-42766284D01*
X57691979Y-42831976D01*
X57687736Y-42899960D01*
X57683732Y-42966388D01*
X57680202Y-43027408D01*
X57677378Y-43079172D01*
X57675493Y-43117830D01*
X57674818Y-43136753D01*
X57674258Y-43164373D01*
X57141953Y-43164373D01*
X57016974Y-43164192D01*
X56907299Y-43163656D01*
X56813649Y-43162779D01*
X56736743Y-43161574D01*
X56677302Y-43160055D01*
X56636047Y-43158234D01*
X56613697Y-43156124D01*
X56609648Y-43154635D01*
X56614219Y-43140329D01*
X56625603Y-43116700D01*
X56629735Y-43109134D01*
X56642876Y-43079425D01*
X56649595Y-43051889D01*
X56649822Y-43047627D01*
X56656734Y-43024352D01*
X56669121Y-43016837D01*
X56682281Y-43008936D01*
X56684760Y-42991114D01*
X56683363Y-42980114D01*
X56682514Y-42956249D01*
X56692498Y-42943080D01*
X56701728Y-42938394D01*
X56721026Y-42921751D01*
X56726612Y-42898220D01*
X56730585Y-42864529D01*
X56738241Y-42830471D01*
X56747770Y-42802253D01*
X56757361Y-42786081D01*
X56759769Y-42784571D01*
X56768688Y-42772935D01*
X56770344Y-42762389D01*
X56774581Y-42743901D01*
X56779249Y-42738228D01*
X56786894Y-42725489D01*
X56793966Y-42701473D01*
X56794769Y-42697461D01*
X56801513Y-42674239D01*
X56809587Y-42662535D01*
X56810973Y-42662198D01*
X56819262Y-42653888D01*
X56820881Y-42644622D01*
X56826995Y-42622872D01*
X56835946Y-42607550D01*
X56847703Y-42584772D01*
X56850692Y-42569887D01*
X56855292Y-42554639D01*
X56860735Y-42551720D01*
X56868896Y-42543308D01*
X56870779Y-42531633D01*
X56874906Y-42515311D01*
X56880631Y-42511546D01*
X56889808Y-42502954D01*
X56897081Y-42483926D01*
X56904380Y-42460007D01*
X56910822Y-42446263D01*
X56917612Y-42433122D01*
X56930021Y-42406015D01*
X56945980Y-42369533D01*
X56956073Y-42345828D01*
X56979008Y-42292557D01*
X57005647Y-42232363D01*
X57031024Y-42176441D01*
X57036307Y-42165045D01*
X57064459Y-42104222D01*
X57085817Y-42056970D01*
X57102357Y-42018788D01*
X57116053Y-41985176D01*
X57122254Y-41969197D01*
X57137053Y-41935840D01*
X57155085Y-41901696D01*
X57156741Y-41898893D01*
X57180518Y-41849669D01*
X57202612Y-41786125D01*
X57221263Y-41714026D01*
X57233469Y-41647805D01*
X57240552Y-41606105D01*
X57249294Y-41572954D01*
X57262341Y-41541660D01*
X57282341Y-41505533D01*
X57302990Y-41472044D01*
X57321876Y-41441843D01*
X57336467Y-41416675D01*
X57347486Y-41393271D01*
X57355654Y-41368364D01*
X57361694Y-41338684D01*
X57366328Y-41300963D01*
X57370278Y-41251934D01*
X57374266Y-41188328D01*
X57377340Y-41135587D01*
X57379464Y-41107327D01*
X57381764Y-41088653D01*
X57382627Y-41085369D01*
X57387702Y-41063838D01*
X57388509Y-41033764D01*
X57384971Y-41006246D01*
X57383208Y-41000556D01*
X57381459Y-40968821D01*
X57388486Y-40950516D01*
X57397037Y-40921606D01*
X57392754Y-40903991D01*
X57379655Y-40877878D01*
X57372954Y-40864549D01*
X57368736Y-40846610D01*
X57365688Y-40815060D01*
X57363819Y-40774699D01*
X57363137Y-40730323D01*
X57363508Y-40698695D01*
X57433215Y-40698695D01*
X57438236Y-40703717D01*
X57443258Y-40698695D01*
X57438236Y-40693673D01*
X57433215Y-40698695D01*
X57363508Y-40698695D01*
X57363649Y-40686730D01*
X57365365Y-40648718D01*
X57368292Y-40621083D01*
X57372439Y-40608624D01*
X57372515Y-40608575D01*
X57377353Y-40596559D01*
X57373655Y-40580819D01*
X57364346Y-40573230D01*
X57355803Y-40581566D01*
X57345173Y-40601051D01*
X57336242Y-40623622D01*
X57332780Y-40640436D01*
X57327631Y-40652475D01*
X57324379Y-40653499D01*
X57321328Y-40644044D01*
X57318593Y-40618033D01*
X57316411Y-40578997D01*
X57315015Y-40530467D01*
X57314864Y-40519008D01*
X57354099Y-40519008D01*
X57356593Y-40532898D01*
X57359562Y-40536325D01*
X57374263Y-40542723D01*
X57382660Y-40532269D01*
X57382997Y-40527955D01*
X57379699Y-40522492D01*
X57494907Y-40522492D01*
X57498186Y-40532473D01*
X57510720Y-40538613D01*
X57515132Y-40537029D01*
X57519359Y-40526381D01*
X57514605Y-40519959D01*
X57501102Y-40514206D01*
X57494907Y-40522492D01*
X57379699Y-40522492D01*
X57374958Y-40514640D01*
X57367932Y-40512890D01*
X57354099Y-40519008D01*
X57314864Y-40519008D01*
X57314717Y-40507845D01*
X57314195Y-40482760D01*
X57362910Y-40482760D01*
X57366585Y-40491027D01*
X57369606Y-40489455D01*
X57370808Y-40477536D01*
X57369606Y-40476064D01*
X57363635Y-40477443D01*
X57362910Y-40482760D01*
X57314195Y-40482760D01*
X57313561Y-40452324D01*
X57311267Y-40400887D01*
X57308134Y-40358389D01*
X57304466Y-40329686D01*
X57303323Y-40324551D01*
X57297189Y-40289347D01*
X57294820Y-40249826D01*
X57294976Y-40241716D01*
X57295481Y-40206253D01*
X57294914Y-40162174D01*
X57293891Y-40131237D01*
X57291840Y-40073486D01*
X57291689Y-40035518D01*
X57293520Y-40017115D01*
X57297416Y-40018056D01*
X57303456Y-40038121D01*
X57311724Y-40077090D01*
X57312485Y-40081020D01*
X57329318Y-40172560D01*
X57342810Y-40254468D01*
X57352496Y-40323660D01*
X57357911Y-40377054D01*
X57358441Y-40385567D01*
X57361481Y-40420470D01*
X57366820Y-40437496D01*
X57375918Y-40438835D01*
X57387617Y-40429357D01*
X57397592Y-40414141D01*
X57394653Y-40395442D01*
X57391177Y-40387268D01*
X57384246Y-40366500D01*
X57389053Y-40355031D01*
X57392882Y-40352292D01*
X57400288Y-40343710D01*
X57401465Y-40327533D01*
X57396572Y-40298509D01*
X57394778Y-40290240D01*
X57390567Y-40260055D01*
X57387192Y-40212959D01*
X57384792Y-40152115D01*
X57383507Y-40080686D01*
X57383335Y-40029939D01*
X57383153Y-39964674D01*
X57382395Y-39903747D01*
X57381154Y-39850946D01*
X57379524Y-39810062D01*
X57377596Y-39784885D01*
X57377275Y-39782623D01*
X57375366Y-39751686D01*
X57381298Y-39735614D01*
X57381915Y-39735188D01*
X57387775Y-39721917D01*
X57391717Y-39693526D01*
X57393041Y-39657924D01*
X57393374Y-39621308D01*
X57395305Y-39600847D01*
X57400233Y-39592607D01*
X57409556Y-39592658D01*
X57415638Y-39594362D01*
X57434207Y-39601227D01*
X57446586Y-39611324D01*
X57456071Y-39629539D01*
X57465956Y-39660759D01*
X57469881Y-39674796D01*
X57475747Y-39700913D01*
X57480267Y-39733409D01*
X57483622Y-39775138D01*
X57485992Y-39828955D01*
X57487560Y-39897712D01*
X57488360Y-39965520D01*
X57489684Y-40070332D01*
X57491721Y-40165634D01*
X57494363Y-40250580D01*
X57497502Y-40324325D01*
X57501031Y-40386023D01*
X57504843Y-40434829D01*
X57508828Y-40469897D01*
X57512881Y-40490381D01*
X57516893Y-40495436D01*
X57520756Y-40484217D01*
X57524364Y-40455877D01*
X57527608Y-40409571D01*
X57530380Y-40344454D01*
X57531549Y-40304846D01*
X57533917Y-40214740D01*
X57535912Y-40142246D01*
X57537644Y-40084892D01*
X57539222Y-40040207D01*
X57540758Y-40005723D01*
X57542360Y-39978968D01*
X57544139Y-39957471D01*
X57546205Y-39938763D01*
X57548668Y-39920373D01*
X57548674Y-39920324D01*
X57554551Y-39887595D01*
X57561287Y-39862570D01*
X57565366Y-39853765D01*
X57569339Y-39838111D01*
X57570204Y-39809745D01*
X57568749Y-39785971D01*
X57567127Y-39752580D01*
X57569664Y-39733047D01*
X57573142Y-39729498D01*
X57579009Y-39721246D01*
X57579307Y-39695916D01*
X57574001Y-39652643D01*
X57568808Y-39621584D01*
X57566141Y-39585279D01*
X57573778Y-39563834D01*
X57595639Y-39550219D01*
X57621458Y-39552574D01*
G37*
G36*
X58771221Y-40290339D02*
G01*
X58787981Y-40306820D01*
X58794440Y-40316139D01*
X58804732Y-40335137D01*
X58804552Y-40351491D01*
X58795025Y-40373461D01*
X58784074Y-40400481D01*
X58779074Y-40422820D01*
X58779043Y-40424042D01*
X58784683Y-40440156D01*
X58796938Y-40440366D01*
X58797105Y-40440185D01*
X58873790Y-40440185D01*
X58883663Y-40441793D01*
X58896689Y-40439946D01*
X58896845Y-40436518D01*
X58883403Y-40434120D01*
X58877595Y-40435725D01*
X58873790Y-40440185D01*
X58797105Y-40440185D01*
X58804152Y-40432542D01*
X58818318Y-40424105D01*
X58829853Y-40422499D01*
X58845849Y-40418179D01*
X58849347Y-40412455D01*
X58841705Y-40402704D01*
X58839304Y-40402412D01*
X58830189Y-40394369D01*
X58829260Y-40388576D01*
X58838471Y-40368119D01*
X58862773Y-40349808D01*
X58897171Y-40335677D01*
X58936670Y-40327762D01*
X58976274Y-40328097D01*
X58977381Y-40328251D01*
X59012506Y-40339425D01*
X59047162Y-40360277D01*
X59075337Y-40386178D01*
X59091016Y-40412500D01*
X59091963Y-40416435D01*
X59090346Y-40434742D01*
X59080122Y-40439051D01*
X59067001Y-40429452D01*
X59059669Y-40415920D01*
X59039208Y-40379457D01*
X59013876Y-40359302D01*
X58987046Y-40355948D01*
X58962090Y-40369888D01*
X58943474Y-40398920D01*
X58933442Y-40431452D01*
X58937721Y-40451889D01*
X58958029Y-40463785D01*
X58976874Y-40468013D01*
X59011922Y-40474952D01*
X59051083Y-40484097D01*
X59059942Y-40486389D01*
X59088447Y-40495762D01*
X59103627Y-40507985D01*
X59112006Y-40528991D01*
X59113522Y-40535115D01*
X59117541Y-40559386D01*
X59113012Y-40576492D01*
X59096818Y-40594890D01*
X59088732Y-40602368D01*
X59070764Y-40620860D01*
X59067787Y-40631008D01*
X59080909Y-40633276D01*
X59111240Y-40628128D01*
X59136161Y-40622176D01*
X59164422Y-40613212D01*
X59177649Y-40602618D01*
X59180783Y-40587617D01*
X59185491Y-40564092D01*
X59198911Y-40557951D01*
X59209954Y-40562515D01*
X59217230Y-40572075D01*
X59211986Y-40577510D01*
X59201752Y-40591527D01*
X59203820Y-40606590D01*
X59216434Y-40613325D01*
X59239724Y-40607566D01*
X59270407Y-40593049D01*
X59300478Y-40573916D01*
X59313872Y-40562912D01*
X59337516Y-40550009D01*
X59372621Y-40547450D01*
X59376978Y-40547706D01*
X59409270Y-40546870D01*
X59424846Y-40539260D01*
X59425446Y-40538032D01*
X59438109Y-40529778D01*
X59454768Y-40530096D01*
X59476967Y-40529261D01*
X59484347Y-40516824D01*
X59476809Y-40494855D01*
X59457702Y-40469218D01*
X59425753Y-40441139D01*
X59399058Y-40432542D01*
X59372027Y-40425892D01*
X59355558Y-40415056D01*
X59341776Y-40403946D01*
X59334786Y-40408065D01*
X59333269Y-40411974D01*
X59320288Y-40431576D01*
X59293389Y-40458407D01*
X59268780Y-40479084D01*
X59248874Y-40489379D01*
X59223181Y-40497336D01*
X59203482Y-40499762D01*
X59188594Y-40494081D01*
X59172372Y-40476772D01*
X59161259Y-40461856D01*
X59143270Y-40434171D01*
X59137766Y-40416488D01*
X59141848Y-40405940D01*
X59158936Y-40394037D01*
X59166947Y-40392368D01*
X59179838Y-40388035D01*
X59177820Y-40378844D01*
X59163063Y-40370506D01*
X59158185Y-40369326D01*
X59145226Y-40366160D01*
X59150773Y-40364412D01*
X59163688Y-40363606D01*
X59195635Y-40371765D01*
X59213906Y-40387238D01*
X59229423Y-40402446D01*
X59244521Y-40407415D01*
X59267530Y-40403910D01*
X59278934Y-40401024D01*
X59310737Y-40387347D01*
X59351522Y-40387347D01*
X59356544Y-40392368D01*
X59361566Y-40387347D01*
X59356544Y-40382325D01*
X59351522Y-40387347D01*
X59310737Y-40387347D01*
X59317050Y-40384632D01*
X59340889Y-40363066D01*
X59368062Y-40341316D01*
X59406577Y-40333037D01*
X59452325Y-40338862D01*
X59467143Y-40343562D01*
X59493013Y-40350524D01*
X59509945Y-40347275D01*
X59517108Y-40342260D01*
X59537428Y-40334261D01*
X59573028Y-40329239D01*
X59603156Y-40327927D01*
X59672949Y-40327086D01*
X59678907Y-40358854D01*
X59680995Y-40389913D01*
X59676434Y-40416057D01*
X59666679Y-40431058D01*
X59661712Y-40432542D01*
X59649163Y-40425604D01*
X59631062Y-40408544D01*
X59627825Y-40404923D01*
X59603785Y-40377303D01*
X59556089Y-40402412D01*
X59522662Y-40422381D01*
X59505573Y-40437823D01*
X59505285Y-40447492D01*
X59522261Y-40450140D01*
X59539111Y-40448155D01*
X59570428Y-40446173D01*
X59594410Y-40454903D01*
X59605593Y-40462863D01*
X59624102Y-40481492D01*
X59632669Y-40498137D01*
X59632740Y-40499283D01*
X59629601Y-40507137D01*
X59617775Y-40502084D01*
X59606277Y-40493532D01*
X59584637Y-40479168D01*
X59568277Y-40472740D01*
X59567660Y-40472716D01*
X59547908Y-40481317D01*
X59532073Y-40501514D01*
X59525886Y-40524896D01*
X59527065Y-40532288D01*
X59525633Y-40557818D01*
X59517926Y-40568878D01*
X59505811Y-40578497D01*
X59502206Y-40572524D01*
X59502175Y-40570856D01*
X59508755Y-40551576D01*
X59512893Y-40546363D01*
X59516776Y-40535362D01*
X59507871Y-40529604D01*
X59495521Y-40530329D01*
X59492131Y-40546340D01*
X59485398Y-40565895D01*
X59462708Y-40579970D01*
X59459490Y-40581204D01*
X59426792Y-40603413D01*
X59411783Y-40625885D01*
X59399648Y-40646102D01*
X59382347Y-40659899D01*
X59354704Y-40670196D01*
X59318526Y-40678518D01*
X59295103Y-40690645D01*
X59279519Y-40711829D01*
X59275427Y-40735164D01*
X59281252Y-40748954D01*
X59301184Y-40759572D01*
X59330816Y-40762248D01*
X59361595Y-40757425D01*
X59384969Y-40745550D01*
X59387079Y-40743444D01*
X59408791Y-40728537D01*
X59438186Y-40718164D01*
X59440782Y-40717656D01*
X59469992Y-40710866D01*
X59492589Y-40703075D01*
X59494032Y-40702368D01*
X59511700Y-40699457D01*
X59517324Y-40703853D01*
X59527639Y-40711099D01*
X59536481Y-40701571D01*
X59541727Y-40678573D01*
X59542349Y-40664959D01*
X59545544Y-40636596D01*
X59553386Y-40615961D01*
X59554903Y-40614078D01*
X59562421Y-40602160D01*
X59554903Y-40596168D01*
X59543232Y-40584794D01*
X59542349Y-40580349D01*
X59546504Y-40575015D01*
X59554401Y-40581186D01*
X59572528Y-40589820D01*
X59597677Y-40593238D01*
X59624738Y-40596153D01*
X59643794Y-40607083D01*
X59657132Y-40629306D01*
X59667040Y-40666099D01*
X59672998Y-40701206D01*
X59679505Y-40741809D01*
X59685224Y-40766437D01*
X59691886Y-40779041D01*
X59701222Y-40783574D01*
X59709294Y-40784065D01*
X59728566Y-40778600D01*
X59733175Y-40768999D01*
X59727752Y-40755634D01*
X59723132Y-40753934D01*
X59713380Y-40746291D01*
X59713088Y-40743891D01*
X59721548Y-40735880D01*
X59734315Y-40733847D01*
X59748313Y-40736365D01*
X59751772Y-40747779D01*
X59748828Y-40766489D01*
X59740860Y-40820332D01*
X59734998Y-40894134D01*
X59732426Y-40949782D01*
X59729836Y-40983991D01*
X59725391Y-41010565D01*
X59721306Y-41021540D01*
X59714040Y-41037326D01*
X59713925Y-41041627D01*
X59713619Y-41070035D01*
X59700528Y-41084073D01*
X59691813Y-41085369D01*
X59669536Y-41094029D01*
X59643086Y-41117552D01*
X59616000Y-41152249D01*
X59596891Y-41184344D01*
X59583617Y-41208498D01*
X59573962Y-41224015D01*
X59572343Y-41225978D01*
X59560442Y-41241179D01*
X59546617Y-41263658D01*
X59535699Y-41285004D01*
X59532305Y-41295685D01*
X59528080Y-41307572D01*
X59516341Y-41334400D01*
X59498495Y-41373115D01*
X59475950Y-41420660D01*
X59451957Y-41470209D01*
X59426122Y-41524309D01*
X59403737Y-41573569D01*
X59386239Y-41614628D01*
X59375067Y-41644127D01*
X59371609Y-41657978D01*
X59378279Y-41684191D01*
X59387920Y-41699399D01*
X59399470Y-41723441D01*
X59404133Y-41758332D01*
X59404144Y-41760450D01*
X59402553Y-41800231D01*
X59398484Y-41840975D01*
X59392769Y-41877288D01*
X59386240Y-41903777D01*
X59380355Y-41914760D01*
X59373108Y-41928142D01*
X59371609Y-41940311D01*
X59364268Y-41958173D01*
X59345417Y-41983113D01*
X59319813Y-42010425D01*
X59292214Y-42035404D01*
X59267377Y-42053345D01*
X59251011Y-42059589D01*
X59232063Y-42064357D01*
X59225979Y-42069632D01*
X59212895Y-42075883D01*
X59187651Y-42079396D01*
X59177620Y-42079676D01*
X59149554Y-42081535D01*
X59133756Y-42089885D01*
X59122540Y-42108887D01*
X59122186Y-42109683D01*
X59099313Y-42144856D01*
X59065423Y-42168688D01*
X59017737Y-42182603D01*
X58970887Y-42187408D01*
X58928341Y-42188532D01*
X58897831Y-42185881D01*
X58871451Y-42178075D01*
X58844326Y-42165306D01*
X58800517Y-42142283D01*
X58769905Y-42124854D01*
X58747571Y-42109930D01*
X58728598Y-42094422D01*
X58722186Y-42088605D01*
X58698813Y-42059268D01*
X58673468Y-42014141D01*
X58647949Y-41957164D01*
X58624054Y-41892278D01*
X58606985Y-41836121D01*
X58598110Y-41808628D01*
X58590005Y-41791387D01*
X58586701Y-41788414D01*
X58577062Y-41796756D01*
X58572338Y-41815571D01*
X58573999Y-41835542D01*
X58578015Y-41843463D01*
X58583558Y-41858236D01*
X58575659Y-41878341D01*
X58571770Y-41884527D01*
X58559285Y-41900433D01*
X58552197Y-41903546D01*
X58551889Y-41902775D01*
X58548341Y-41887134D01*
X58543542Y-41865589D01*
X58530442Y-41840457D01*
X58501669Y-41822427D01*
X58501535Y-41822371D01*
X58478420Y-41810724D01*
X58470271Y-41798547D01*
X58472220Y-41781795D01*
X58470702Y-41748752D01*
X58462103Y-41730895D01*
X58449916Y-41702354D01*
X58444589Y-41671698D01*
X58442095Y-41648933D01*
X58437259Y-41637944D01*
X58436516Y-41637762D01*
X58430987Y-41628666D01*
X58425378Y-41605134D01*
X58420485Y-41572796D01*
X58417104Y-41537283D01*
X58416031Y-41504227D01*
X58416315Y-41494900D01*
X58414800Y-41475105D01*
X58831816Y-41475105D01*
X58833385Y-41520390D01*
X58837944Y-41561015D01*
X58845206Y-41589973D01*
X58846791Y-41593431D01*
X58855311Y-41616309D01*
X58862832Y-41646515D01*
X58863445Y-41649779D01*
X58873168Y-41677723D01*
X58891586Y-41712466D01*
X58910105Y-41740090D01*
X58929786Y-41769153D01*
X58942281Y-41793290D01*
X58944903Y-41806731D01*
X58940068Y-41825868D01*
X58939739Y-41830254D01*
X58932834Y-41830634D01*
X58915213Y-41820464D01*
X58902076Y-41810804D01*
X58871628Y-41790163D01*
X58853344Y-41785422D01*
X58847309Y-41796543D01*
X58853605Y-41823487D01*
X58856765Y-41831814D01*
X58872834Y-41864476D01*
X58891901Y-41893298D01*
X58896572Y-41898790D01*
X58912265Y-41917842D01*
X58919582Y-41930763D01*
X58919652Y-41931431D01*
X58912819Y-41938845D01*
X58896450Y-41935094D01*
X58877758Y-41922445D01*
X58864152Y-41911621D01*
X58859713Y-41914929D01*
X58859391Y-41921791D01*
X58862858Y-41942950D01*
X58869442Y-41964196D01*
X58880577Y-41982923D01*
X58896199Y-41985208D01*
X58899573Y-41984260D01*
X58915479Y-41982786D01*
X58919652Y-41987018D01*
X58928437Y-41995305D01*
X58950333Y-42004793D01*
X58978652Y-42013295D01*
X59006706Y-42018623D01*
X59018741Y-42019415D01*
X59035779Y-42023383D01*
X59040174Y-42029458D01*
X59046547Y-42038777D01*
X59059258Y-42035914D01*
X59065326Y-42029387D01*
X59063161Y-42017905D01*
X59055876Y-42013247D01*
X59042138Y-42000893D01*
X59040174Y-41993529D01*
X59036203Y-41977601D01*
X59025891Y-41950091D01*
X59014154Y-41922952D01*
X59001511Y-41891935D01*
X58993219Y-41861173D01*
X58988155Y-41824450D01*
X58985197Y-41775546D01*
X58984613Y-41759447D01*
X58981734Y-41703208D01*
X58977021Y-41643206D01*
X58971296Y-41589207D01*
X58968653Y-41569765D01*
X58962843Y-41525363D01*
X58961439Y-41496794D01*
X58964416Y-41480297D01*
X58968027Y-41474891D01*
X58980518Y-41469234D01*
X58992430Y-41479664D01*
X59016729Y-41499117D01*
X59048085Y-41509334D01*
X59074659Y-41507576D01*
X59087031Y-41500288D01*
X59081120Y-41492608D01*
X59073312Y-41483929D01*
X59081307Y-41476473D01*
X59099155Y-41472370D01*
X59108900Y-41486218D01*
X59110478Y-41502175D01*
X59114547Y-41523556D01*
X59124003Y-41533752D01*
X59134724Y-41528602D01*
X59135503Y-41527420D01*
X59148883Y-41522637D01*
X59160494Y-41527175D01*
X59181856Y-41532146D01*
X59212492Y-41532402D01*
X59222656Y-41531361D01*
X59253763Y-41529539D01*
X59274809Y-41535985D01*
X59289270Y-41547382D01*
X59313965Y-41562380D01*
X59334708Y-41559320D01*
X59347804Y-41540065D01*
X59359569Y-41508893D01*
X59372584Y-41480947D01*
X59383968Y-41461937D01*
X59389716Y-41456979D01*
X59398228Y-41448790D01*
X59409252Y-41428901D01*
X59410044Y-41427139D01*
X59423650Y-41404566D01*
X59446444Y-41374434D01*
X59472581Y-41344281D01*
X59503731Y-41307221D01*
X59518969Y-41279050D01*
X59519024Y-41257402D01*
X59504686Y-41239959D01*
X59481061Y-41227296D01*
X59466853Y-41232367D01*
X59462003Y-41255193D01*
X59462001Y-41255851D01*
X59453616Y-41284396D01*
X59429610Y-41302645D01*
X59391701Y-41310441D01*
X59341609Y-41307625D01*
X59281052Y-41294037D01*
X59231000Y-41277140D01*
X59197913Y-41265644D01*
X59170417Y-41258007D01*
X59158185Y-41256114D01*
X59142564Y-41247827D01*
X59139079Y-41238533D01*
X59136476Y-41217606D01*
X59135216Y-41210913D01*
X59132829Y-41195848D01*
X59200870Y-41195848D01*
X59204545Y-41204115D01*
X59207565Y-41202544D01*
X59208767Y-41190624D01*
X59207565Y-41189152D01*
X59201595Y-41190531D01*
X59200870Y-41195848D01*
X59132829Y-41195848D01*
X59132203Y-41191897D01*
X59131724Y-41187086D01*
X59131389Y-41186397D01*
X59231000Y-41186397D01*
X59233780Y-41197951D01*
X59245310Y-41203977D01*
X59270373Y-41206308D01*
X59283729Y-41206597D01*
X59318081Y-41208620D01*
X59346665Y-41212982D01*
X59356544Y-41215935D01*
X59379022Y-41224093D01*
X59390965Y-41222569D01*
X59397259Y-41215060D01*
X59407286Y-41209573D01*
X59414925Y-41215060D01*
X59430883Y-41224502D01*
X59445105Y-41224517D01*
X59449948Y-41215465D01*
X59449419Y-41213424D01*
X59437064Y-41202081D01*
X59429856Y-41200718D01*
X59409622Y-41194500D01*
X59398519Y-41187299D01*
X59381732Y-41178847D01*
X59373521Y-41179601D01*
X59358798Y-41180157D01*
X59335056Y-41174029D01*
X59332693Y-41173162D01*
X59305437Y-41166245D01*
X59285259Y-41171044D01*
X59281897Y-41173006D01*
X59266007Y-41179558D01*
X59257694Y-41171177D01*
X59257073Y-41169630D01*
X59247515Y-41159624D01*
X59237040Y-41165114D01*
X59231150Y-41182561D01*
X59231000Y-41186397D01*
X59131389Y-41186397D01*
X59127586Y-41178584D01*
X59116245Y-41185186D01*
X59097338Y-41194255D01*
X59088626Y-41194700D01*
X59053799Y-41196845D01*
X59012430Y-41211699D01*
X58970194Y-41236025D01*
X58932767Y-41266587D01*
X58906895Y-41298345D01*
X58888686Y-41323811D01*
X58870490Y-41342745D01*
X58868352Y-41344357D01*
X58854137Y-41361963D01*
X58841465Y-41389868D01*
X58838800Y-41398589D01*
X58833525Y-41432169D01*
X58831816Y-41475105D01*
X58414800Y-41475105D01*
X58413747Y-41461356D01*
X58404869Y-41431029D01*
X58404182Y-41429618D01*
X58395597Y-41405704D01*
X58394914Y-41388195D01*
X58394086Y-41369905D01*
X58386485Y-41349912D01*
X58378456Y-41326952D01*
X58384399Y-41307347D01*
X58385318Y-41305843D01*
X58396030Y-41285282D01*
X58394689Y-41278067D01*
X58388156Y-41280717D01*
X58379704Y-41275926D01*
X58369808Y-41257018D01*
X58366856Y-41248669D01*
X58357141Y-41222184D01*
X58348303Y-41204218D01*
X58346744Y-41202157D01*
X58342374Y-41185940D01*
X58343620Y-41180575D01*
X58342571Y-41165385D01*
X58339289Y-41162030D01*
X58333832Y-41148590D01*
X58333584Y-41123826D01*
X58336091Y-41106049D01*
X59542349Y-41106049D01*
X59546215Y-41119937D01*
X59552392Y-41120522D01*
X59561633Y-41105990D01*
X59562436Y-41099842D01*
X59556820Y-41086861D01*
X59552392Y-41085369D01*
X59544311Y-41093807D01*
X59542349Y-41106049D01*
X58336091Y-41106049D01*
X58337575Y-41095526D01*
X58344831Y-41071479D01*
X58351907Y-41060861D01*
X58355278Y-41055239D01*
X59542349Y-41055239D01*
X59546023Y-41063506D01*
X59549044Y-41061935D01*
X59549889Y-41053553D01*
X59684129Y-41053553D01*
X59685603Y-41062336D01*
X59693001Y-41060261D01*
X59701740Y-41045928D01*
X59702891Y-41037070D01*
X59701265Y-41025830D01*
X59694322Y-41033131D01*
X59693001Y-41035152D01*
X59684129Y-41053553D01*
X59549889Y-41053553D01*
X59550246Y-41050015D01*
X59549044Y-41048543D01*
X59543073Y-41049922D01*
X59542349Y-41055239D01*
X58355278Y-41055239D01*
X58361810Y-41044345D01*
X58368646Y-41017697D01*
X58369211Y-41013179D01*
X58369687Y-40987069D01*
X58362482Y-40974498D01*
X58355126Y-40971434D01*
X58341148Y-40962729D01*
X58337166Y-40951287D01*
X58345485Y-40944834D01*
X58347173Y-40944761D01*
X58356924Y-40937118D01*
X58357216Y-40934717D01*
X58349151Y-40925651D01*
X58343091Y-40924674D01*
X58333189Y-40917269D01*
X58334037Y-40905281D01*
X58342503Y-40889907D01*
X58354935Y-40879812D01*
X58364994Y-40878901D01*
X58367260Y-40884815D01*
X58375399Y-40893447D01*
X58382325Y-40894543D01*
X58395981Y-40890058D01*
X58394954Y-40884779D01*
X59233442Y-40884779D01*
X59236855Y-40895891D01*
X59244557Y-40903496D01*
X59248951Y-40895932D01*
X59249026Y-40880252D01*
X59247112Y-40877176D01*
X59237453Y-40874836D01*
X59233442Y-40884779D01*
X58394954Y-40884779D01*
X58394123Y-40880510D01*
X58379467Y-40872513D01*
X59303698Y-40872513D01*
X59308688Y-40894479D01*
X59316709Y-40904961D01*
X59336950Y-40917694D01*
X59364098Y-40924235D01*
X59389967Y-40923703D01*
X59406371Y-40915222D01*
X59406761Y-40914630D01*
X59421026Y-40905983D01*
X59431070Y-40904587D01*
X59443590Y-40908765D01*
X59445152Y-40924761D01*
X59443928Y-40932206D01*
X59434458Y-40957271D01*
X59422723Y-40972061D01*
X59411999Y-40981675D01*
X59417793Y-40984442D01*
X59422664Y-40984615D01*
X59441284Y-40980620D01*
X59446098Y-40977402D01*
X59458945Y-40969336D01*
X59460327Y-40969050D01*
X59495089Y-40960825D01*
X59513966Y-40944912D01*
X59520500Y-40920007D01*
X59518924Y-40895739D01*
X59507531Y-40875971D01*
X59486664Y-40856620D01*
X59460891Y-40837999D01*
X59437945Y-40830716D01*
X59407138Y-40831602D01*
X59403554Y-40831981D01*
X59351420Y-40841022D01*
X59318039Y-40854613D01*
X59303698Y-40872513D01*
X58379467Y-40872513D01*
X58378094Y-40871764D01*
X58377045Y-40871478D01*
X58364167Y-40865135D01*
X58360307Y-40851362D01*
X58362227Y-40833689D01*
X58407434Y-40833689D01*
X58411531Y-40850329D01*
X58417477Y-40854369D01*
X58426485Y-40846277D01*
X58426802Y-40844326D01*
X59231000Y-40844326D01*
X59234427Y-40854108D01*
X59235429Y-40854369D01*
X59244004Y-40847331D01*
X59246066Y-40844326D01*
X59245269Y-40835071D01*
X59241636Y-40834282D01*
X59231409Y-40841573D01*
X59231000Y-40844326D01*
X58426802Y-40844326D01*
X58427521Y-40839897D01*
X58421400Y-40822797D01*
X58417477Y-40819217D01*
X58409572Y-40822292D01*
X58407434Y-40833689D01*
X58362227Y-40833689D01*
X58362936Y-40827159D01*
X58365504Y-40800976D01*
X58361672Y-40790935D01*
X59232285Y-40790935D01*
X59235852Y-40800890D01*
X59251087Y-40804152D01*
X59267446Y-40797872D01*
X59271174Y-40789086D01*
X59269287Y-40776385D01*
X59259349Y-40775729D01*
X59246887Y-40780117D01*
X59232285Y-40790935D01*
X58361672Y-40790935D01*
X58359898Y-40786286D01*
X58342753Y-40775077D01*
X58340596Y-40773999D01*
X58312020Y-40759838D01*
X58339640Y-40756219D01*
X58361971Y-40749841D01*
X58365333Y-40740610D01*
X58349276Y-40730935D01*
X58344662Y-40729442D01*
X58322064Y-40722695D01*
X58344662Y-40711671D01*
X58364038Y-40698151D01*
X58364733Y-40688292D01*
X58347820Y-40685592D01*
X58337129Y-40687145D01*
X58315754Y-40689263D01*
X58307726Y-40682133D01*
X58306999Y-40674565D01*
X58314283Y-40652605D01*
X58322064Y-40643456D01*
X58334894Y-40623291D01*
X58337129Y-40611021D01*
X58339382Y-40604274D01*
X58393852Y-40604274D01*
X58407577Y-40612928D01*
X58414129Y-40613325D01*
X58424375Y-40604675D01*
X58427521Y-40588216D01*
X58421868Y-40568487D01*
X58409539Y-40563619D01*
X58397478Y-40574795D01*
X58394632Y-40582613D01*
X58393852Y-40604274D01*
X58339382Y-40604274D01*
X58341980Y-40596495D01*
X58352074Y-40596824D01*
X58364416Y-40598226D01*
X58365950Y-40595388D01*
X58369342Y-40562061D01*
X58385768Y-40527461D01*
X58410833Y-40497285D01*
X58440141Y-40477235D01*
X58460877Y-40472275D01*
X58495794Y-40466487D01*
X58532564Y-40452775D01*
X58562944Y-40434737D01*
X58575410Y-40422322D01*
X58596318Y-40402003D01*
X58619165Y-40388429D01*
X58641068Y-40375373D01*
X58670397Y-40352993D01*
X58698516Y-40328232D01*
X58730273Y-40300568D01*
X58753247Y-40288095D01*
X58771221Y-40290339D01*
G37*
G36*
X60165436Y-39828604D02*
G01*
X60181193Y-39844114D01*
X60193485Y-39844527D01*
X60200886Y-39839405D01*
X60211160Y-39832779D01*
X60212824Y-39840062D01*
X60209576Y-39855798D01*
X60201788Y-39880109D01*
X60193879Y-39894713D01*
X60186242Y-39912668D01*
X60185723Y-39919822D01*
X60187699Y-39929769D01*
X60194894Y-39922716D01*
X60197541Y-39918899D01*
X60206269Y-39909445D01*
X60217870Y-39909010D01*
X60238680Y-39918054D01*
X60247327Y-39922507D01*
X60274067Y-39934493D01*
X60290847Y-39935773D01*
X60300792Y-39930235D01*
X60312578Y-39923397D01*
X60315689Y-39932916D01*
X60315698Y-39934159D01*
X60310634Y-39948296D01*
X60305654Y-39950454D01*
X60297413Y-39958840D01*
X60295611Y-39969949D01*
X60290999Y-39989176D01*
X60285567Y-39995650D01*
X60276144Y-40010288D01*
X60275843Y-40013819D01*
X60280755Y-40016931D01*
X60289216Y-40008599D01*
X60310144Y-39990648D01*
X60336500Y-39979398D01*
X60359801Y-39978007D01*
X60365379Y-39980254D01*
X60368842Y-39988172D01*
X60353471Y-39997153D01*
X60349476Y-39998663D01*
X60332177Y-40006021D01*
X60333077Y-40009678D01*
X60340807Y-40010691D01*
X60368835Y-40013997D01*
X60380639Y-40015935D01*
X60402586Y-40014614D01*
X60408127Y-40011901D01*
X60747568Y-40011901D01*
X60753756Y-40017346D01*
X60757612Y-40015737D01*
X60761261Y-40010715D01*
X60797786Y-40010715D01*
X60805428Y-40020467D01*
X60807829Y-40020759D01*
X60817581Y-40013116D01*
X60817873Y-40010715D01*
X60810230Y-40000964D01*
X60807829Y-40000672D01*
X60798077Y-40008315D01*
X60797786Y-40010715D01*
X60761261Y-40010715D01*
X60767280Y-40002432D01*
X60767655Y-39999486D01*
X60761467Y-39994041D01*
X60757612Y-39995650D01*
X60747943Y-40008955D01*
X60747568Y-40011901D01*
X60408127Y-40011901D01*
X60411920Y-40010044D01*
X60429323Y-40003767D01*
X60455784Y-40001603D01*
X60457457Y-40001649D01*
X60494451Y-40001579D01*
X60538149Y-39999512D01*
X60582859Y-39995961D01*
X60622888Y-39991442D01*
X60652544Y-39986469D01*
X60664140Y-39982966D01*
X60690146Y-39976057D01*
X60727631Y-39972701D01*
X60768290Y-39972979D01*
X60803820Y-39976972D01*
X60819838Y-39981436D01*
X60840617Y-39994843D01*
X60850204Y-40009197D01*
X60855622Y-40018862D01*
X60860446Y-40014747D01*
X60859337Y-40000354D01*
X60847264Y-39982106D01*
X60827134Y-39960498D01*
X60852634Y-39960498D01*
X60874866Y-39960529D01*
X60885560Y-39960584D01*
X60892467Y-39968709D01*
X60893093Y-39973815D01*
X60899745Y-39990793D01*
X60910057Y-40003859D01*
X60924604Y-40015030D01*
X60936533Y-40010817D01*
X60941723Y-40005952D01*
X60954072Y-39996482D01*
X60961067Y-40003245D01*
X60962804Y-40007493D01*
X60968979Y-40017793D01*
X60977667Y-40012377D01*
X60983867Y-40004724D01*
X60995980Y-39991672D01*
X61005198Y-39994650D01*
X61012317Y-40003183D01*
X61026250Y-40017217D01*
X61033544Y-40020759D01*
X61037272Y-40012360D01*
X61036033Y-39991985D01*
X61030725Y-39966871D01*
X61024661Y-39949380D01*
X61024015Y-39938912D01*
X61035839Y-39932134D01*
X61063908Y-39926907D01*
X61064454Y-39926832D01*
X61094083Y-39924117D01*
X61115331Y-39924612D01*
X61120217Y-39925988D01*
X61129550Y-39937546D01*
X61121516Y-39946745D01*
X61099090Y-39950454D01*
X61077952Y-39952638D01*
X61069039Y-39957897D01*
X61069038Y-39957987D01*
X61077393Y-39967185D01*
X61096968Y-39978277D01*
X61119749Y-39987371D01*
X61136245Y-39990628D01*
X61148276Y-39996394D01*
X61149308Y-40000057D01*
X61140328Y-40006758D01*
X61117475Y-40013243D01*
X61101601Y-40015927D01*
X61063461Y-40022233D01*
X61018992Y-40031189D01*
X60995792Y-40036511D01*
X60963582Y-40043848D01*
X60939590Y-40048382D01*
X60930509Y-40049177D01*
X60916342Y-40051542D01*
X60904272Y-40055960D01*
X60880262Y-40058765D01*
X60858676Y-40054201D01*
X60828751Y-40049752D01*
X60814675Y-40055069D01*
X60798011Y-40060381D01*
X60788536Y-40052043D01*
X60780123Y-40044809D01*
X60770970Y-40054865D01*
X60768906Y-40058595D01*
X60753738Y-40073476D01*
X60725204Y-40081958D01*
X60710077Y-40083900D01*
X60659610Y-40089771D01*
X60607955Y-40097077D01*
X60560065Y-40104982D01*
X60520892Y-40112651D01*
X60495389Y-40119250D01*
X60491459Y-40120753D01*
X60468842Y-40127542D01*
X60437253Y-40133433D01*
X60427858Y-40134645D01*
X60400623Y-40138374D01*
X60383413Y-40141923D01*
X60380920Y-40143015D01*
X60380399Y-40154115D01*
X60383689Y-40176643D01*
X60384263Y-40179525D01*
X60392914Y-40204501D01*
X60403454Y-40211696D01*
X60413392Y-40200341D01*
X60416855Y-40189580D01*
X60419145Y-40185658D01*
X61031574Y-40185658D01*
X61033808Y-40191498D01*
X61046526Y-40201381D01*
X61051614Y-40197651D01*
X61082456Y-40197651D01*
X61084025Y-40201542D01*
X61093050Y-40211123D01*
X61094661Y-40211585D01*
X61098975Y-40203815D01*
X61099090Y-40201542D01*
X61091369Y-40191884D01*
X61088454Y-40191498D01*
X61082456Y-40197651D01*
X61051614Y-40197651D01*
X61056647Y-40193961D01*
X61058916Y-40181455D01*
X61054956Y-40165131D01*
X61053958Y-40164447D01*
X61103364Y-40164447D01*
X61106155Y-40177742D01*
X61112450Y-40178676D01*
X61123558Y-40167066D01*
X61124199Y-40163042D01*
X61123524Y-40161368D01*
X61159351Y-40161368D01*
X61163557Y-40177688D01*
X61169395Y-40181455D01*
X61177555Y-40173043D01*
X61179438Y-40161368D01*
X61175232Y-40145048D01*
X61169395Y-40141281D01*
X61161235Y-40149693D01*
X61159351Y-40161368D01*
X61123524Y-40161368D01*
X61119012Y-40150174D01*
X61109125Y-40151863D01*
X61103364Y-40164447D01*
X61053958Y-40164447D01*
X61049466Y-40161368D01*
X61035466Y-40169311D01*
X61031574Y-40185658D01*
X60419145Y-40185658D01*
X60427316Y-40171665D01*
X60445626Y-40168986D01*
X60465447Y-40168572D01*
X60499241Y-40165285D01*
X60503591Y-40164711D01*
X60960256Y-40164711D01*
X60964582Y-40179045D01*
X60972810Y-40181455D01*
X60985849Y-40173006D01*
X60988612Y-40160531D01*
X60984130Y-40148061D01*
X61053130Y-40148061D01*
X61061168Y-40158970D01*
X61069553Y-40161368D01*
X61078822Y-40154629D01*
X61079003Y-40152998D01*
X61072452Y-40138443D01*
X61058852Y-40136422D01*
X61057352Y-40137226D01*
X61053130Y-40148061D01*
X60984130Y-40148061D01*
X60983320Y-40145806D01*
X60972121Y-40145427D01*
X60962026Y-40158360D01*
X60960256Y-40164711D01*
X60503591Y-40164711D01*
X60541199Y-40159749D01*
X60562807Y-40156432D01*
X60609170Y-40149638D01*
X60652666Y-40144420D01*
X60686298Y-40141576D01*
X60695744Y-40141281D01*
X60730158Y-40138713D01*
X60761586Y-40132466D01*
X60763645Y-40131826D01*
X60788686Y-40126206D01*
X60825498Y-40120813D01*
X60863068Y-40117075D01*
X60905223Y-40113655D01*
X60945102Y-40110012D01*
X60971036Y-40107277D01*
X60995120Y-40106541D01*
X61008016Y-40110321D01*
X61008699Y-40111984D01*
X61016846Y-40120159D01*
X61023764Y-40121194D01*
X61037147Y-40117109D01*
X61038829Y-40113661D01*
X61047279Y-40108463D01*
X61067115Y-40107165D01*
X61090064Y-40109545D01*
X61107853Y-40115382D01*
X61108069Y-40115514D01*
X61120201Y-40114472D01*
X61126047Y-40102117D01*
X61135504Y-40085271D01*
X61144202Y-40081020D01*
X61162551Y-40079147D01*
X61188226Y-40074743D01*
X61212129Y-40073102D01*
X61219612Y-40079764D01*
X61210899Y-40087730D01*
X61189934Y-40091063D01*
X61189817Y-40091063D01*
X61160021Y-40091063D01*
X61194349Y-40125392D01*
X61214383Y-40147208D01*
X61220884Y-40160710D01*
X61215824Y-40170349D01*
X61214699Y-40171322D01*
X61205486Y-40188302D01*
X61206376Y-40197665D01*
X61205549Y-40208969D01*
X61199502Y-40209485D01*
X61185185Y-40214427D01*
X61182368Y-40219118D01*
X61183072Y-40230175D01*
X61193799Y-40229514D01*
X61208660Y-40217678D01*
X61209569Y-40216607D01*
X61226324Y-40202863D01*
X61237097Y-40206897D01*
X61239699Y-40220807D01*
X61235453Y-40251457D01*
X61220189Y-40267212D01*
X61190124Y-40271839D01*
X61188407Y-40271846D01*
X61162555Y-40270061D01*
X61151323Y-40262895D01*
X61149308Y-40251759D01*
X61144703Y-40234457D01*
X61134994Y-40234292D01*
X61126794Y-40249911D01*
X61130043Y-40273891D01*
X61148701Y-40298577D01*
X61178756Y-40319549D01*
X61197094Y-40327361D01*
X61234678Y-40340279D01*
X61238078Y-40530862D01*
X61241478Y-40721445D01*
X61208915Y-40737690D01*
X61169587Y-40752253D01*
X61141445Y-40751478D01*
X61125388Y-40735447D01*
X61123540Y-40729774D01*
X61112183Y-40709319D01*
X61099443Y-40700899D01*
X61078507Y-40698762D01*
X61046873Y-40699113D01*
X61010520Y-40701423D01*
X60975424Y-40705169D01*
X60947563Y-40709823D01*
X60932914Y-40714860D01*
X60932226Y-40715615D01*
X60921222Y-40717764D01*
X60911085Y-40711934D01*
X60901224Y-40705677D01*
X60899241Y-40712722D01*
X60902824Y-40731945D01*
X60904595Y-40763157D01*
X60898244Y-40779014D01*
X60891324Y-40796023D01*
X60892982Y-40803802D01*
X60895551Y-40821184D01*
X60893002Y-40834901D01*
X60884595Y-40848637D01*
X60874255Y-40845275D01*
X60855847Y-40839762D01*
X60837437Y-40841466D01*
X60820728Y-40844623D01*
X60820519Y-40838992D01*
X60826836Y-40830759D01*
X60834838Y-40814487D01*
X60832994Y-40806420D01*
X60823407Y-40806964D01*
X60820682Y-40811684D01*
X60808259Y-40822632D01*
X60789718Y-40822418D01*
X60775242Y-40811625D01*
X60774005Y-40809014D01*
X60765247Y-40799680D01*
X60745807Y-40797849D01*
X60725224Y-40800206D01*
X60692718Y-40808202D01*
X60669198Y-40819832D01*
X60658559Y-40832560D01*
X60661660Y-40841576D01*
X60671656Y-40841491D01*
X60674454Y-40836793D01*
X60684561Y-40825037D01*
X60694794Y-40828968D01*
X60697351Y-40839304D01*
X60691927Y-40852669D01*
X60687307Y-40854369D01*
X60679147Y-40862781D01*
X60677264Y-40874456D01*
X60681684Y-40891907D01*
X60694691Y-40891286D01*
X60706682Y-40881989D01*
X60715138Y-40876487D01*
X60715890Y-40885627D01*
X60713002Y-40899565D01*
X60703937Y-40927896D01*
X60691232Y-40938579D01*
X60670054Y-40934016D01*
X60656519Y-40927652D01*
X60636164Y-40915779D01*
X60633433Y-40908976D01*
X60639601Y-40906673D01*
X60654641Y-40897231D01*
X60655361Y-40883763D01*
X60642433Y-40874926D01*
X60637090Y-40874456D01*
X60619604Y-40869959D01*
X60620204Y-40857193D01*
X60629055Y-40846334D01*
X60635936Y-40832667D01*
X60629055Y-40822230D01*
X60617070Y-40802841D01*
X60623679Y-40789380D01*
X60647761Y-40783937D01*
X60649644Y-40783911D01*
X60677166Y-40781037D01*
X60697014Y-40774442D01*
X60716964Y-40771330D01*
X60723961Y-40775268D01*
X60740252Y-40778066D01*
X60760292Y-40769907D01*
X60776587Y-40755633D01*
X60781642Y-40740087D01*
X60781126Y-40738335D01*
X60768686Y-40730683D01*
X60742763Y-40726445D01*
X60709660Y-40725569D01*
X60675681Y-40728007D01*
X60647128Y-40733710D01*
X60633929Y-40739494D01*
X60611056Y-40747494D01*
X60597564Y-40746970D01*
X60581304Y-40750807D01*
X60572998Y-40772235D01*
X60572862Y-40810305D01*
X60576557Y-40839304D01*
X60580979Y-40877579D01*
X60578850Y-40896957D01*
X60570181Y-40897400D01*
X60561119Y-40887611D01*
X60550601Y-40877948D01*
X60547018Y-40881167D01*
X60543310Y-40900618D01*
X60540602Y-40908787D01*
X60540905Y-40920639D01*
X60556802Y-40924601D01*
X60561282Y-40924674D01*
X60579649Y-40927882D01*
X60581347Y-40935531D01*
X60567635Y-40941679D01*
X60550624Y-40940361D01*
X60531268Y-40939629D01*
X60528000Y-40949644D01*
X60541503Y-40968261D01*
X60541676Y-40968434D01*
X60555298Y-40985859D01*
X60551468Y-40993402D01*
X60539166Y-40992907D01*
X60531143Y-40993392D01*
X60526105Y-41000423D01*
X60523468Y-41017475D01*
X60522649Y-41048025D01*
X60522981Y-41089503D01*
X60523988Y-41135609D01*
X60526091Y-41166046D01*
X60530229Y-41185231D01*
X60537345Y-41197581D01*
X60548089Y-41207291D01*
X60562751Y-41220036D01*
X60561560Y-41225097D01*
X60554231Y-41225755D01*
X60546462Y-41225903D01*
X60541292Y-41228207D01*
X60538538Y-41235804D01*
X60538017Y-41251830D01*
X60539547Y-41279422D01*
X60542945Y-41321717D01*
X60546322Y-41361566D01*
X60552023Y-41413631D01*
X60559844Y-41464723D01*
X60568571Y-41507601D01*
X60574039Y-41527283D01*
X60589870Y-41569760D01*
X60607993Y-41610585D01*
X60625920Y-41644792D01*
X60641160Y-41667414D01*
X60646990Y-41672825D01*
X60656328Y-41687432D01*
X60657177Y-41693809D01*
X60662884Y-41711381D01*
X60678113Y-41740017D01*
X60700026Y-41774947D01*
X60725782Y-41811403D01*
X60732176Y-41819793D01*
X60746225Y-41838020D01*
X60759000Y-41854948D01*
X60772071Y-41872856D01*
X60787010Y-41894024D01*
X60805387Y-41920734D01*
X60828771Y-41955265D01*
X60858734Y-41999898D01*
X60896845Y-42056912D01*
X60939498Y-42120827D01*
X60974556Y-42173568D01*
X61005772Y-42220896D01*
X61031433Y-42260180D01*
X61049822Y-42288790D01*
X61059225Y-42304096D01*
X61060020Y-42305654D01*
X61066712Y-42317314D01*
X61082370Y-42342377D01*
X61104868Y-42377499D01*
X61132077Y-42419337D01*
X61141157Y-42433179D01*
X61171840Y-42480351D01*
X61200772Y-42525712D01*
X61224991Y-42564557D01*
X61241531Y-42592182D01*
X61243346Y-42595386D01*
X61265083Y-42633068D01*
X61288877Y-42672557D01*
X61295439Y-42683078D01*
X61308488Y-42705596D01*
X61328514Y-42742454D01*
X61353586Y-42789992D01*
X61381772Y-42844547D01*
X61411141Y-42902456D01*
X61411697Y-42903562D01*
X61444668Y-42970223D01*
X61468956Y-43021912D01*
X61485617Y-43061226D01*
X61495706Y-43090761D01*
X61500281Y-43113113D01*
X61500830Y-43122726D01*
X61500830Y-43164373D01*
X61280964Y-43164373D01*
X61061097Y-43164373D01*
X61044117Y-43121688D01*
X61033732Y-43095846D01*
X61022933Y-43069699D01*
X61009457Y-43037859D01*
X60991037Y-42994935D01*
X60982752Y-42975717D01*
X60972999Y-42947963D01*
X60968552Y-42925157D01*
X60968525Y-42923938D01*
X60964234Y-42903295D01*
X60953545Y-42874980D01*
X60949605Y-42866528D01*
X60934653Y-42835441D01*
X60921641Y-42807471D01*
X60919548Y-42802807D01*
X60907709Y-42778000D01*
X60899431Y-42762633D01*
X60888818Y-42741017D01*
X60874376Y-42706798D01*
X60858655Y-42666417D01*
X60844206Y-42626317D01*
X60837802Y-42606959D01*
X60828298Y-42580794D01*
X60819927Y-42564003D01*
X60817938Y-42561763D01*
X60809363Y-42549820D01*
X60795544Y-42524734D01*
X60779037Y-42491872D01*
X60762401Y-42456601D01*
X60748193Y-42424287D01*
X60738971Y-42400299D01*
X60736857Y-42391627D01*
X60731648Y-42374758D01*
X60718915Y-42347719D01*
X60706808Y-42325741D01*
X60688923Y-42294390D01*
X60674296Y-42267371D01*
X60668372Y-42255437D01*
X60656719Y-42237936D01*
X60635460Y-42212515D01*
X60613052Y-42188650D01*
X60589326Y-42163378D01*
X60572637Y-42143071D01*
X60566785Y-42132651D01*
X60560096Y-42120083D01*
X60543762Y-42101759D01*
X60541483Y-42099581D01*
X60525303Y-42081195D01*
X60519100Y-42067574D01*
X60519285Y-42066502D01*
X60514839Y-42053051D01*
X60499245Y-42032912D01*
X60477454Y-42011413D01*
X60454416Y-41993883D01*
X60448774Y-41990601D01*
X60431649Y-41977996D01*
X60426176Y-41968628D01*
X60421130Y-41954713D01*
X60408441Y-41931444D01*
X60402136Y-41921275D01*
X60385068Y-41889217D01*
X60368459Y-41849411D01*
X60361426Y-41828588D01*
X60350543Y-41794915D01*
X60340337Y-41767239D01*
X60335249Y-41755909D01*
X60327142Y-41734875D01*
X60325741Y-41725606D01*
X60319507Y-41712032D01*
X60303149Y-41688717D01*
X60280185Y-41660665D01*
X60279767Y-41660187D01*
X60244085Y-41625125D01*
X60214324Y-41608703D01*
X60189679Y-41610635D01*
X60175089Y-41622696D01*
X60154738Y-41636342D01*
X60130805Y-41631464D01*
X60102180Y-41607765D01*
X60096589Y-41601641D01*
X60073347Y-41571218D01*
X60066079Y-41548082D01*
X60074280Y-41528039D01*
X60086234Y-41515907D01*
X60112456Y-41499552D01*
X60132615Y-41500039D01*
X60140038Y-41507360D01*
X60151104Y-41513772D01*
X60154159Y-41512739D01*
X60165257Y-41516244D01*
X60183597Y-41530844D01*
X60190496Y-41537684D01*
X60211013Y-41556460D01*
X60227198Y-41566775D01*
X60230237Y-41567457D01*
X60243302Y-41574160D01*
X60263849Y-41591194D01*
X60275524Y-41602609D01*
X60302641Y-41627562D01*
X60320937Y-41635793D01*
X60332704Y-41627311D01*
X60340093Y-41602883D01*
X60348355Y-41577145D01*
X60359811Y-41560751D01*
X60361110Y-41559903D01*
X60367914Y-41552950D01*
X60370831Y-41539198D01*
X60370012Y-41514538D01*
X60365612Y-41474858D01*
X60364571Y-41466728D01*
X60359063Y-41422891D01*
X60354303Y-41382682D01*
X60351142Y-41353347D01*
X60350705Y-41348617D01*
X60352487Y-41311581D01*
X60361667Y-41264548D01*
X60376379Y-41215344D01*
X60391124Y-41179153D01*
X60411326Y-41117410D01*
X60411849Y-41058970D01*
X60405697Y-41033963D01*
X60397904Y-41002155D01*
X60399889Y-40975185D01*
X60405521Y-40956722D01*
X60417796Y-40928010D01*
X60430930Y-40905704D01*
X60432798Y-40903393D01*
X60441861Y-40885255D01*
X60451198Y-40854382D01*
X60457755Y-40823045D01*
X60464745Y-40786198D01*
X60472058Y-40755067D01*
X60477189Y-40738869D01*
X60484340Y-40721041D01*
X60798157Y-40721041D01*
X60802105Y-40743179D01*
X60810340Y-40758998D01*
X60826476Y-40772092D01*
X60836525Y-40770473D01*
X60837960Y-40763978D01*
X60830317Y-40754226D01*
X60827916Y-40753934D01*
X60820864Y-40745207D01*
X60817873Y-40724179D01*
X60817873Y-40723804D01*
X60817111Y-40718265D01*
X60849852Y-40718265D01*
X60862114Y-40732424D01*
X60879076Y-40749892D01*
X60886799Y-40752690D01*
X60888177Y-40746307D01*
X60880571Y-40735939D01*
X60865579Y-40724797D01*
X60850243Y-40715773D01*
X60849852Y-40718265D01*
X60817111Y-40718265D01*
X60814963Y-40702648D01*
X60807954Y-40693675D01*
X60807829Y-40693673D01*
X60799962Y-40701857D01*
X60798157Y-40721041D01*
X60484340Y-40721041D01*
X60484890Y-40719670D01*
X60492918Y-40698695D01*
X60707394Y-40698695D01*
X60712416Y-40703717D01*
X60717438Y-40698695D01*
X60712416Y-40693673D01*
X60707394Y-40698695D01*
X60492918Y-40698695D01*
X60496925Y-40688225D01*
X60510757Y-40651162D01*
X60511454Y-40649269D01*
X60511759Y-40648477D01*
X60617003Y-40648477D01*
X60622426Y-40661843D01*
X60627046Y-40663543D01*
X60635957Y-40655408D01*
X60636827Y-40650084D01*
X60752427Y-40650084D01*
X60762031Y-40662670D01*
X60777474Y-40672060D01*
X60785707Y-40673586D01*
X60794535Y-40671193D01*
X60788642Y-40661539D01*
X60781967Y-40654784D01*
X60765072Y-40642420D01*
X60754613Y-40640612D01*
X60752427Y-40650084D01*
X60636827Y-40650084D01*
X60637090Y-40648477D01*
X60631666Y-40635112D01*
X60627046Y-40633412D01*
X60618136Y-40641547D01*
X60617003Y-40648477D01*
X60511759Y-40648477D01*
X60525107Y-40613787D01*
X60537141Y-40585309D01*
X60545134Y-40569539D01*
X60545586Y-40568921D01*
X60551530Y-40555439D01*
X60638027Y-40555439D01*
X60646432Y-40571871D01*
X60664709Y-40582674D01*
X60692329Y-40595421D01*
X60669731Y-40610620D01*
X60653249Y-40625270D01*
X60647242Y-40637491D01*
X60653296Y-40642445D01*
X60659687Y-40641235D01*
X60671572Y-40630465D01*
X60680333Y-40617319D01*
X60800488Y-40617319D01*
X60800836Y-40628650D01*
X60805988Y-40635588D01*
X60816100Y-40655118D01*
X60818096Y-40668062D01*
X60819320Y-40680795D01*
X60825103Y-40679027D01*
X60825874Y-40678099D01*
X60878926Y-40678099D01*
X60882289Y-40680778D01*
X60884785Y-40676097D01*
X60893645Y-40668394D01*
X60961538Y-40668394D01*
X60969509Y-40678844D01*
X60979262Y-40678179D01*
X60987854Y-40664089D01*
X60988612Y-40657928D01*
X60982457Y-40644919D01*
X60969718Y-40646589D01*
X60963503Y-40653499D01*
X60961538Y-40668394D01*
X60893645Y-40668394D01*
X60898043Y-40664570D01*
X60904079Y-40663543D01*
X60915287Y-40654802D01*
X60918307Y-40638434D01*
X60916246Y-40623369D01*
X60988612Y-40623369D01*
X60996255Y-40633120D01*
X60998655Y-40633412D01*
X61008407Y-40625769D01*
X61008699Y-40623369D01*
X61001056Y-40613617D01*
X60998655Y-40613325D01*
X60988904Y-40620968D01*
X60988612Y-40623369D01*
X60916246Y-40623369D01*
X60915727Y-40619579D01*
X60910775Y-40613404D01*
X60901708Y-40621681D01*
X60890687Y-40640874D01*
X60881774Y-40662731D01*
X60878926Y-40678099D01*
X60825874Y-40678099D01*
X60837960Y-40663543D01*
X60851755Y-40641246D01*
X60857117Y-40623369D01*
X60854746Y-40616632D01*
X60849245Y-40627110D01*
X60842517Y-40639887D01*
X60833716Y-40637289D01*
X60824364Y-40628425D01*
X60808923Y-40617419D01*
X60800488Y-40617319D01*
X60680333Y-40617319D01*
X60686261Y-40608423D01*
X61084697Y-40608423D01*
X61085401Y-40632892D01*
X61088250Y-40673493D01*
X61088454Y-40676097D01*
X61097251Y-40682717D01*
X61104830Y-40683630D01*
X61125310Y-40690890D01*
X61143041Y-40707411D01*
X61149308Y-40723086D01*
X61157431Y-40732629D01*
X61164373Y-40733847D01*
X61177492Y-40727137D01*
X61179057Y-40721293D01*
X61171173Y-40708619D01*
X61151584Y-40690648D01*
X61138783Y-40681143D01*
X61125381Y-40671136D01*
X61179674Y-40671136D01*
X61186893Y-40681336D01*
X61199525Y-40683630D01*
X61216136Y-40677033D01*
X61219612Y-40667847D01*
X61213230Y-40649247D01*
X61198936Y-40631395D01*
X61184007Y-40623369D01*
X61183948Y-40623369D01*
X61183313Y-40629515D01*
X61188740Y-40637540D01*
X61194811Y-40652481D01*
X61189970Y-40658220D01*
X61179674Y-40671136D01*
X61125381Y-40671136D01*
X61115238Y-40663562D01*
X61106006Y-40651251D01*
X61108179Y-40639138D01*
X61111450Y-40633436D01*
X61128264Y-40617535D01*
X61141680Y-40613325D01*
X61156587Y-40606011D01*
X61159351Y-40597583D01*
X61165052Y-40586626D01*
X61179438Y-40588216D01*
X61192825Y-40589870D01*
X61198469Y-40580142D01*
X61199525Y-40558763D01*
X61196576Y-40534328D01*
X61189024Y-40523112D01*
X61187762Y-40522934D01*
X61171754Y-40516721D01*
X61157570Y-40506256D01*
X61141053Y-40496251D01*
X61131670Y-40497067D01*
X61133646Y-40507587D01*
X61147773Y-40524549D01*
X61153645Y-40529899D01*
X61171707Y-40546884D01*
X61175477Y-40556737D01*
X61166715Y-40564405D01*
X61166046Y-40564782D01*
X61146056Y-40579496D01*
X61130127Y-40594579D01*
X61113351Y-40607136D01*
X61104579Y-40604038D01*
X61092958Y-40593836D01*
X61090001Y-40593238D01*
X61086208Y-40596424D01*
X61084697Y-40608423D01*
X60686261Y-40608423D01*
X60686519Y-40608036D01*
X60692033Y-40597713D01*
X60705111Y-40574823D01*
X60712824Y-40569997D01*
X60715367Y-40575662D01*
X60725185Y-40590603D01*
X60733239Y-40593238D01*
X60745114Y-40585954D01*
X60746277Y-40574300D01*
X60773265Y-40574300D01*
X60773647Y-40584764D01*
X60784295Y-40588991D01*
X60790717Y-40584237D01*
X60793813Y-40577817D01*
X60887981Y-40577817D01*
X60891750Y-40591726D01*
X60894919Y-40593238D01*
X60907196Y-40587419D01*
X60917517Y-40579595D01*
X60927874Y-40573431D01*
X60991054Y-40573431D01*
X60994467Y-40584543D01*
X61002169Y-40592147D01*
X61006562Y-40584583D01*
X61006637Y-40568904D01*
X61004723Y-40565828D01*
X60995064Y-40563488D01*
X60991054Y-40573431D01*
X60927874Y-40573431D01*
X60945218Y-40563108D01*
X60980112Y-40551452D01*
X61012491Y-40547459D01*
X61023079Y-40548768D01*
X61049737Y-40546227D01*
X61073277Y-40528566D01*
X61088329Y-40500623D01*
X61090757Y-40487782D01*
X61090860Y-40473899D01*
X61179438Y-40473899D01*
X61187787Y-40490431D01*
X61197014Y-40494938D01*
X61214898Y-40492840D01*
X61217961Y-40480450D01*
X61210938Y-40470068D01*
X61205513Y-40455519D01*
X61211239Y-40445595D01*
X61217335Y-40430613D01*
X61215201Y-40424783D01*
X61205041Y-40425671D01*
X61192610Y-40438981D01*
X61182584Y-40458289D01*
X61179438Y-40473899D01*
X61090860Y-40473899D01*
X61090961Y-40460409D01*
X61088381Y-40423646D01*
X61087060Y-40412455D01*
X61179438Y-40412455D01*
X61187081Y-40422207D01*
X61189482Y-40422499D01*
X61199234Y-40414856D01*
X61199525Y-40412455D01*
X61191883Y-40402704D01*
X61189482Y-40402412D01*
X61179730Y-40410055D01*
X61179438Y-40412455D01*
X61087060Y-40412455D01*
X61085805Y-40401824D01*
X61083219Y-40362238D01*
X61179438Y-40362238D01*
X61187081Y-40371989D01*
X61189482Y-40372281D01*
X61199234Y-40364638D01*
X61199525Y-40362238D01*
X61191883Y-40352486D01*
X61189482Y-40352194D01*
X61179730Y-40359837D01*
X61179438Y-40362238D01*
X61083219Y-40362238D01*
X61082884Y-40357114D01*
X61087140Y-40322642D01*
X61088636Y-40318122D01*
X61093830Y-40296267D01*
X61092818Y-40280027D01*
X61086947Y-40274393D01*
X61078910Y-40282042D01*
X61064289Y-40290648D01*
X61057927Y-40289930D01*
X61056556Y-40283683D01*
X61071519Y-40273680D01*
X61076853Y-40271189D01*
X61101019Y-40256251D01*
X61107719Y-40242468D01*
X61099567Y-40231535D01*
X61079174Y-40225150D01*
X61049154Y-40225010D01*
X61015968Y-40231653D01*
X60983187Y-40240121D01*
X60954228Y-40245897D01*
X60948438Y-40246668D01*
X60913619Y-40253320D01*
X60896469Y-40263573D01*
X60898120Y-40276738D01*
X60898452Y-40277147D01*
X60903405Y-40291223D01*
X60900034Y-40295834D01*
X60893917Y-40309252D01*
X60890525Y-40335627D01*
X60889857Y-40368019D01*
X60891908Y-40399484D01*
X60896676Y-40423080D01*
X60900099Y-40429784D01*
X60906733Y-40443697D01*
X60899243Y-40451997D01*
X60892719Y-40459984D01*
X60902400Y-40465982D01*
X60916495Y-40479707D01*
X60914721Y-40500265D01*
X60903242Y-40516477D01*
X60894555Y-40532554D01*
X60889192Y-40555547D01*
X60887981Y-40577817D01*
X60793813Y-40577817D01*
X60796912Y-40571391D01*
X60795273Y-40567291D01*
X60783120Y-40565253D01*
X60773265Y-40574300D01*
X60746277Y-40574300D01*
X60746632Y-40570737D01*
X60737525Y-40558086D01*
X60729087Y-40543920D01*
X60727481Y-40532384D01*
X60729129Y-40526282D01*
X60750916Y-40526282D01*
X60752295Y-40532252D01*
X60757612Y-40532977D01*
X60762880Y-40530635D01*
X60801995Y-40530635D01*
X60803337Y-40533835D01*
X60815531Y-40538811D01*
X60818730Y-40537469D01*
X60823706Y-40525276D01*
X60822364Y-40522076D01*
X60810171Y-40517100D01*
X60806971Y-40518442D01*
X60801995Y-40530635D01*
X60762880Y-40530635D01*
X60765879Y-40529302D01*
X60764307Y-40526282D01*
X60752388Y-40525080D01*
X60750916Y-40526282D01*
X60729129Y-40526282D01*
X60731801Y-40516389D01*
X60737525Y-40512890D01*
X60747165Y-40505156D01*
X60747568Y-40502148D01*
X60741076Y-40492880D01*
X60726288Y-40493982D01*
X60710237Y-40502843D01*
X60699958Y-40516854D01*
X60699205Y-40520098D01*
X60694527Y-40535495D01*
X60683213Y-40534157D01*
X60676301Y-40530142D01*
X60659234Y-40523185D01*
X60648191Y-40531144D01*
X60646980Y-40532977D01*
X60638027Y-40555439D01*
X60551530Y-40555439D01*
X60552817Y-40552521D01*
X60559876Y-40525704D01*
X60561141Y-40519186D01*
X60567777Y-40489541D01*
X60575082Y-40466619D01*
X60576290Y-40463947D01*
X60576867Y-40462673D01*
X60727481Y-40462673D01*
X60734690Y-40472429D01*
X60736932Y-40472716D01*
X60750534Y-40465416D01*
X60752590Y-40462673D01*
X60750313Y-40454075D01*
X60743139Y-40452629D01*
X60729397Y-40457873D01*
X60727481Y-40462673D01*
X60576867Y-40462673D01*
X60588230Y-40437564D01*
X60707394Y-40437564D01*
X60712416Y-40442586D01*
X60717438Y-40437564D01*
X60712416Y-40432542D01*
X60707394Y-40437564D01*
X60588230Y-40437564D01*
X60598269Y-40415380D01*
X60601027Y-40407434D01*
X60737525Y-40407434D01*
X60742546Y-40412455D01*
X60747568Y-40407434D01*
X60742546Y-40402412D01*
X60737525Y-40407434D01*
X60601027Y-40407434D01*
X60612368Y-40374760D01*
X60615168Y-40358535D01*
X60719178Y-40358535D01*
X60724614Y-40373302D01*
X60734744Y-40378471D01*
X60737454Y-40377347D01*
X60745952Y-40363140D01*
X60747568Y-40351602D01*
X60742123Y-40334821D01*
X60730048Y-40334163D01*
X60722162Y-40342632D01*
X60719178Y-40358535D01*
X60615168Y-40358535D01*
X60617003Y-40347906D01*
X60621886Y-40328309D01*
X60638493Y-40315828D01*
X60669759Y-40309092D01*
X60704745Y-40306984D01*
X60735883Y-40304889D01*
X60758296Y-40301032D01*
X60764715Y-40298221D01*
X60766473Y-40288062D01*
X60752057Y-40280574D01*
X60725316Y-40276851D01*
X60692683Y-40277734D01*
X60645998Y-40287675D01*
X60610235Y-40306501D01*
X60589348Y-40331943D01*
X60587111Y-40338318D01*
X60577669Y-40358085D01*
X60560403Y-40384014D01*
X60553706Y-40392672D01*
X60534201Y-40421750D01*
X60513641Y-40459859D01*
X60501434Y-40486927D01*
X60487693Y-40518680D01*
X60475871Y-40542409D01*
X60469223Y-40552190D01*
X60461219Y-40564360D01*
X60449333Y-40589000D01*
X60436264Y-40619605D01*
X60424715Y-40649668D01*
X60417387Y-40672681D01*
X60416133Y-40680083D01*
X60409162Y-40695244D01*
X60401067Y-40703717D01*
X60388215Y-40722687D01*
X60386002Y-40733520D01*
X60377785Y-40756137D01*
X60358237Y-40773936D01*
X60335018Y-40780853D01*
X60327735Y-40779676D01*
X60318186Y-40774080D01*
X60311568Y-40761883D01*
X60306829Y-40739151D01*
X60302911Y-40701948D01*
X60301242Y-40680846D01*
X60296415Y-40632596D01*
X60290703Y-40592645D01*
X60386002Y-40592645D01*
X60393293Y-40602873D01*
X60396046Y-40603282D01*
X60405828Y-40599855D01*
X60406089Y-40598853D01*
X60399051Y-40590278D01*
X60396046Y-40588216D01*
X60386791Y-40589013D01*
X60386002Y-40592645D01*
X60290703Y-40592645D01*
X60289680Y-40585488D01*
X60282263Y-40547694D01*
X60279977Y-40539011D01*
X60273041Y-40509898D01*
X60328228Y-40509898D01*
X60329319Y-40531526D01*
X60335454Y-40544333D01*
X60341989Y-40550149D01*
X60369788Y-40562261D01*
X60392692Y-40555507D01*
X60404368Y-40540510D01*
X60410197Y-40528287D01*
X60414272Y-40515450D01*
X60416849Y-40498467D01*
X60418181Y-40473802D01*
X60418522Y-40437921D01*
X60418127Y-40387291D01*
X60417724Y-40354705D01*
X60416392Y-40307173D01*
X60413928Y-40268332D01*
X60410666Y-40241924D01*
X60406939Y-40231692D01*
X60406766Y-40231672D01*
X60396354Y-40239451D01*
X60389041Y-40263734D01*
X60384489Y-40305941D01*
X60383290Y-40330117D01*
X60380842Y-40365594D01*
X60375686Y-40386325D01*
X60366061Y-40397630D01*
X60359776Y-40401070D01*
X60347085Y-40410893D01*
X60338765Y-40429492D01*
X60332885Y-40461831D01*
X60331419Y-40473973D01*
X60328228Y-40509898D01*
X60273041Y-40509898D01*
X60271883Y-40505038D01*
X60263455Y-40459826D01*
X60256295Y-40412131D01*
X60255199Y-40403424D01*
X60249041Y-40359133D01*
X60242011Y-40318409D01*
X60235396Y-40288500D01*
X60233876Y-40283308D01*
X60228137Y-40258231D01*
X60232989Y-40241289D01*
X60243706Y-40228896D01*
X60260564Y-40215397D01*
X60273633Y-40216596D01*
X60280241Y-40221376D01*
X60296859Y-40229469D01*
X60303915Y-40223582D01*
X60296597Y-40207752D01*
X60296554Y-40207700D01*
X60291815Y-40196520D01*
X60325741Y-40196520D01*
X60331164Y-40209886D01*
X60335785Y-40211585D01*
X60344695Y-40203451D01*
X60345828Y-40196520D01*
X60340405Y-40183155D01*
X60335785Y-40181455D01*
X60326874Y-40189590D01*
X60325741Y-40196520D01*
X60291815Y-40196520D01*
X60290226Y-40192772D01*
X60295287Y-40186677D01*
X60303588Y-40176834D01*
X60293827Y-40170005D01*
X60267901Y-40166935D01*
X60245569Y-40167196D01*
X60213033Y-40170842D01*
X60187559Y-40177543D01*
X60179787Y-40181723D01*
X60163294Y-40188748D01*
X60150874Y-40182197D01*
X60136228Y-40176177D01*
X60129435Y-40185867D01*
X60132020Y-40207915D01*
X60135062Y-40216994D01*
X60146944Y-40259708D01*
X60154537Y-40315522D01*
X60158176Y-40382325D01*
X60158189Y-40419168D01*
X60155161Y-40439630D01*
X60148416Y-40447277D01*
X60145795Y-40447608D01*
X60136377Y-40444083D01*
X60128509Y-40431687D01*
X60121403Y-40407692D01*
X60114267Y-40369366D01*
X60106314Y-40313979D01*
X60105595Y-40308543D01*
X60100228Y-40260988D01*
X60099094Y-40229705D01*
X60102182Y-40211333D01*
X60105243Y-40206011D01*
X60109657Y-40194968D01*
X60097523Y-40187713D01*
X60090605Y-40185802D01*
X60054507Y-40183554D01*
X60020651Y-40192605D01*
X59998258Y-40209725D01*
X59984896Y-40220674D01*
X59975438Y-40212365D01*
X59970303Y-40185317D01*
X59969682Y-40174040D01*
X59966028Y-40147282D01*
X59955770Y-40134978D01*
X59948698Y-40132832D01*
X59928171Y-40127046D01*
X59919730Y-40117960D01*
X59924335Y-40103796D01*
X59942946Y-40082776D01*
X59976524Y-40053121D01*
X59979253Y-40050889D01*
X60521589Y-40050889D01*
X60522386Y-40060144D01*
X60526018Y-40060933D01*
X60530308Y-40057875D01*
X60720529Y-40057875D01*
X60732691Y-40060860D01*
X60737525Y-40060933D01*
X60753488Y-40058908D01*
X60751884Y-40051334D01*
X60749577Y-40048881D01*
X60735910Y-40042000D01*
X60725472Y-40048881D01*
X60720529Y-40057875D01*
X60530308Y-40057875D01*
X60536246Y-40053642D01*
X60536655Y-40050889D01*
X60533228Y-40041107D01*
X60532226Y-40040846D01*
X60523651Y-40047884D01*
X60521589Y-40050889D01*
X59979253Y-40050889D01*
X60003810Y-40030802D01*
X60044523Y-40030802D01*
X60048198Y-40039069D01*
X60051219Y-40037498D01*
X60052421Y-40025579D01*
X60051219Y-40024107D01*
X60045248Y-40025485D01*
X60044523Y-40030802D01*
X60003810Y-40030802D01*
X60031555Y-40007765D01*
X60054920Y-39987162D01*
X60064023Y-39978394D01*
X60076207Y-39968081D01*
X60087404Y-39969402D01*
X60104797Y-39983609D01*
X60107305Y-39985927D01*
X60131605Y-40004758D01*
X60148461Y-40010432D01*
X60154995Y-40002011D01*
X60155002Y-40001509D01*
X60148921Y-39992427D01*
X60182469Y-39992427D01*
X60182769Y-40008695D01*
X60188565Y-40017546D01*
X60194838Y-40009629D01*
X60199269Y-39998161D01*
X60208546Y-39978410D01*
X60216525Y-39970541D01*
X60225138Y-39978796D01*
X60230328Y-39990628D01*
X60239345Y-40006860D01*
X60246070Y-40010715D01*
X60253682Y-40002297D01*
X60255437Y-39990628D01*
X60259643Y-39974308D01*
X60265480Y-39970541D01*
X60274142Y-39962306D01*
X60275524Y-39953920D01*
X60274060Y-39942890D01*
X60266246Y-39945997D01*
X60257308Y-39953782D01*
X60240879Y-39964329D01*
X60227856Y-39959170D01*
X60226465Y-39957850D01*
X60214621Y-39952103D01*
X60201037Y-39961490D01*
X60194966Y-39968521D01*
X60182469Y-39992427D01*
X60148921Y-39992427D01*
X60147162Y-39989799D01*
X60142447Y-39987208D01*
X60135946Y-39980378D01*
X60144667Y-39971852D01*
X60153395Y-39959674D01*
X60151447Y-39953595D01*
X60141113Y-39954428D01*
X60133189Y-39963939D01*
X60124819Y-39975674D01*
X60116654Y-39972361D01*
X60106946Y-39959462D01*
X60097419Y-39941093D01*
X60102698Y-39932738D01*
X60102897Y-39932671D01*
X60113082Y-39920611D01*
X60114015Y-39915302D01*
X60134915Y-39915302D01*
X60139103Y-39928758D01*
X60151030Y-39924416D01*
X60168427Y-39904411D01*
X60179821Y-39880662D01*
X60179870Y-39860627D01*
X60168915Y-39850366D01*
X60165361Y-39850020D01*
X60157574Y-39858613D01*
X60155002Y-39875128D01*
X60151564Y-39894003D01*
X60144958Y-39900237D01*
X60136048Y-39908372D01*
X60134915Y-39915302D01*
X60114015Y-39915302D01*
X60114828Y-39910673D01*
X60122088Y-39889252D01*
X60129893Y-39880150D01*
X60140770Y-39861694D01*
X60145292Y-39836235D01*
X60145627Y-39804824D01*
X60165436Y-39828604D01*
G37*
%TD*%
M02*
