M48
; DRILL file {KiCad 9.0.2} date 2026-03-31T12:46:12+0800
; FORMAT={-:-/ absolute / metric / decimal}
; #@! TF.CreationDate,2026-03-31T12:46:12+08:00
; #@! TF.GenerationSoftware,Kicad,Pcbnew,9.0.2
; #@! TF.FileFunction,Plated,1,2,PTH
FMAT,2
METRIC
; #@! TA.AperFunction,Plated,PTH,ViaDrill
T1C0.300
; #@! TA.AperFunction,Plated,PTH,ViaDrill
T2C0.400
; #@! TA.AperFunction,Plated,PTH,ViaDrill
T3C0.500
; #@! TA.AperFunction,Plated,PTH,ComponentDrill
T4C0.800
; #@! TA.AperFunction,Plated,PTH,ComponentDrill
T5C1.000
; #@! TA.AperFunction,Plated,PTH,ComponentDrill
T6C1.100
; #@! TA.AperFunction,Plated,PTH,ComponentDrill
T7C1.200
; #@! TA.AperFunction,Plated,PTH,ComponentDrill
T8C1.300
; #@! TA.AperFunction,Plated,PTH,ComponentDrill
T9C1.600
; #@! TA.AperFunction,Plated,PTH,ComponentDrill
T10C3.200
%
G90
G05
T1
X107.75Y-94.75
X111.25Y-103.75
X112.0Y-108.0
X116.25Y-104.5
X120.75Y-106.25
X121.6Y-112.0
X121.6Y-114.0
X123.0Y-105.5
X124.819Y-101.743
X125.032Y-96.847
X125.25Y-119.874
X125.925Y-67.6
X125.925Y-71.0
X126.2Y-105.4
X127.216Y-78.607
X127.257Y-96.784
X131.35Y-97.0
X131.5Y-79.75
X131.5Y-108.0
X132.65Y-97.0
X135.25Y-97.0
X135.468Y-84.125
X137.681Y-96.993
X140.25Y-103.0
X140.297Y-98.319
X142.572Y-98.382
X142.572Y-100.687
X142.681Y-103.007
X145.2Y-128.5
X145.2Y-130.805
X145.319Y-126.093
X147.727Y-130.931
X148.968Y-99.402
X149.0Y-113.0
X149.1Y-82.507
X151.2Y-116.25
X151.2Y-123.5
X152.0Y-93.905
X152.5Y-123.5
X152.5Y-123.5
X153.007Y-66.284
X156.534Y-82.057
X157.0Y-91.5
X157.25Y-129.905
X158.0Y-91.5
X159.0Y-91.5
X160.0Y-95.5
X160.784Y-116.9
X160.784Y-121.284
X160.784Y-127.5
X163.25Y-130.0
X164.347Y-93.032
X166.653Y-93.032
X167.5Y-127.5
X169.116Y-82.043
X169.216Y-98.742
X170.5Y-89.0
X170.5Y-91.5
X170.549Y-105.299
X171.7Y-92.375
X171.7Y-99.6
X172.0Y-104.75
X172.3Y-98.5
X172.925Y-93.0
X173.25Y-120.5
X173.6Y-94.2
X173.75Y-105.5
X174.25Y-100.716
X174.395Y-93.355
X174.8Y-106.2
X175.25Y-96.0
X175.6Y-99.6
X175.75Y-90.25
X177.0Y-102.0
X177.0Y-104.75
X179.102Y-127.472
X179.165Y-125.433
X179.278Y-75.032
X180.303Y-95.0
X180.5Y-93.0
X181.0Y-89.75
X181.75Y-108.25
X182.0Y-95.0
X182.5Y-88.0
X183.284Y-135.257
X183.347Y-137.282
X184.276Y-80.286
X185.0Y-102.8
X185.5Y-91.0
X186.201Y-100.599
X186.5Y-91.0
X187.0Y-86.5
X187.5Y-91.0
X187.5Y-95.25
X187.5Y-96.75
X188.5Y-92.0
X189.5Y-93.0
X190.75Y-93.5
X191.5Y-92.75
X192.25Y-92.0
X192.864Y-88.855
X193.0Y-91.25
X193.5Y-87.5
X193.75Y-90.5
X194.216Y-95.007
X194.216Y-97.007
X194.216Y-99.007
T2
X112.0Y-66.0
X112.0Y-67.0
X112.0Y-68.0
X112.0Y-69.0
X112.0Y-70.0
X112.0Y-71.0
X112.0Y-72.0
X112.0Y-73.0
X112.0Y-74.0
X112.0Y-75.0
X112.0Y-76.0
X113.0Y-66.0
X113.0Y-67.0
X113.0Y-68.0
X113.0Y-69.0
X113.0Y-70.0
X113.0Y-71.0
X113.0Y-72.0
X113.0Y-73.0
X113.0Y-74.0
X113.0Y-75.0
X113.0Y-76.0
X114.0Y-66.0
X114.0Y-67.0
X114.0Y-75.0
X114.0Y-76.0
X115.0Y-66.0
X115.0Y-67.0
X115.0Y-75.0
X115.0Y-76.0
X116.0Y-66.0
X116.0Y-67.0
X116.0Y-75.0
X116.0Y-76.0
X117.0Y-66.0
X117.0Y-67.0
X117.0Y-75.0
X117.0Y-76.0
X118.0Y-66.0
X118.0Y-67.0
X118.0Y-75.0
X118.0Y-76.0
X119.0Y-66.0
X119.0Y-67.0
X119.0Y-75.0
X119.0Y-76.0
X120.0Y-66.0
X120.0Y-67.0
X120.0Y-75.0
X120.0Y-76.0
T3
X153.216Y-88.007
T5
X124.55Y-84.6
X147.5Y-68.75
X159.663Y-84.5
X164.743Y-84.5
X184.868Y-84.89
X188.46Y-88.482
T6
X175.699Y-123.09
X175.699Y-129.59
X180.199Y-123.09
X180.199Y-129.59
T7
X173.25Y-110.29
X173.25Y-112.83
X175.79Y-107.75
X175.79Y-110.29
X175.79Y-112.83
T8
X173.25Y-107.75
T9
X109.975Y-88.02
X109.975Y-92.17
X109.975Y-95.5
X109.975Y-98.83
X109.975Y-102.135
X109.975Y-105.49
X109.975Y-108.82
X109.975Y-112.97
X114.175Y-88.02
X114.175Y-92.17
X114.175Y-95.5
X114.175Y-98.83
X114.175Y-102.135
X114.175Y-105.49
X114.175Y-108.82
X114.175Y-112.97
X118.375Y-88.02
X118.375Y-92.17
X118.375Y-95.5
X118.375Y-98.83
X118.375Y-102.135
X118.375Y-105.49
X118.375Y-108.82
X118.375Y-112.97
T10
X189.968Y-70.598
X189.968Y-132.098
T4
G00X126.95Y-84.6
M15
G01X128.15Y-84.6
M16
G05
G00X147.5Y-66.35
M15
G01X147.5Y-65.15
M16
G05
M30
