M48
; DRILL file {KiCad 9.0.2} date 2026-04-09T10:56:13+0800
; FORMAT={-:-/ absolute / metric / decimal}
; #@! TF.CreationDate,2026-04-09T10:56:13+08:00
; #@! TF.GenerationSoftware,Kicad,Pcbnew,9.0.2
; #@! TF.FileFunction,Plated,1,2,PTH
FMAT,2
METRIC
; #@! TA.AperFunction,Plated,PTH,ViaDrill
T1C0.300
; #@! TA.AperFunction,Plated,PTH,ViaDrill
T2C0.400
; #@! TA.AperFunction,Plated,PTH,ViaDrill
T3C0.500
; #@! TA.AperFunction,Plated,PTH,ComponentDrill
T4C0.800
; #@! TA.AperFunction,Plated,PTH,ComponentDrill
T5C1.000
; #@! TA.AperFunction,Plated,PTH,ComponentDrill
T6C1.100
; #@! TA.AperFunction,Plated,PTH,ComponentDrill
T7C1.200
; #@! TA.AperFunction,Plated,PTH,ComponentDrill
T8C1.300
; #@! TA.AperFunction,Plated,PTH,ComponentDrill
T9C1.600
; #@! TA.AperFunction,Plated,PTH,ComponentDrill
T10C3.200
%
G90
G05
T1
X105.08Y-82.86
X105.08Y-85.4
X105.08Y-87.94
X105.08Y-90.48
X105.08Y-93.02
X105.08Y-113.34
X107.62Y-65.08
X107.62Y-67.62
X107.62Y-70.16
X107.62Y-72.7
X107.62Y-75.24
X107.62Y-77.78
X107.62Y-80.32
X107.62Y-82.86
X107.62Y-85.4
X107.62Y-87.94
X107.62Y-90.48
X107.62Y-93.02
X107.62Y-98.1
X107.62Y-100.64
X107.62Y-103.18
X107.62Y-105.72
X107.62Y-108.26
X107.62Y-110.8
X107.62Y-115.88
X107.62Y-118.42
X107.62Y-120.96
X107.62Y-123.5
X107.62Y-126.04
X107.62Y-128.58
X107.62Y-131.12
X107.62Y-133.66
X107.62Y-136.2
X107.75Y-94.75
X110.16Y-65.08
X110.16Y-67.62
X110.16Y-70.16
X110.16Y-72.7
X110.16Y-75.24
X110.16Y-77.78
X110.16Y-82.86
X110.16Y-85.4
X110.16Y-110.8
X110.16Y-118.42
X110.16Y-123.5
X110.16Y-126.04
X110.16Y-128.58
X110.16Y-131.12
X110.16Y-133.66
X110.16Y-136.2
X110.16Y-138.74
X111.25Y-103.75
X112.0Y-108.0
X112.7Y-77.78
X112.7Y-82.86
X112.7Y-85.4
X112.7Y-90.48
X112.7Y-100.64
X112.7Y-115.88
X112.7Y-123.5
X112.7Y-126.04
X112.7Y-128.58
X112.7Y-131.12
X112.7Y-133.66
X112.7Y-136.2
X112.7Y-138.74
X115.24Y-77.78
X115.24Y-80.32
X115.24Y-85.4
X115.24Y-115.88
X115.24Y-123.5
X115.24Y-126.04
X115.24Y-128.58
X115.24Y-131.12
X115.24Y-133.66
X115.24Y-136.2
X115.24Y-138.74
X116.25Y-104.5
X117.78Y-77.78
X117.78Y-80.32
X117.78Y-85.4
X117.78Y-115.88
X117.78Y-120.96
X117.78Y-123.5
X117.78Y-126.04
X117.78Y-128.58
X117.78Y-131.12
X117.78Y-133.66
X117.78Y-136.2
X117.78Y-138.74
X120.32Y-77.78
X120.32Y-80.32
X120.32Y-93.02
X120.32Y-98.1
X120.32Y-108.26
X120.32Y-115.88
X120.32Y-120.96
X120.32Y-123.5
X120.32Y-126.04
X120.32Y-128.58
X120.32Y-131.12
X120.32Y-133.66
X120.32Y-136.2
X120.32Y-138.74
X120.75Y-106.25
X121.6Y-112.0
X121.6Y-114.0
X122.86Y-65.08
X122.86Y-90.48
X122.86Y-93.02
X122.86Y-95.56
X122.86Y-98.1
X122.86Y-108.26
X122.86Y-120.96
X122.86Y-123.5
X122.86Y-126.04
X122.86Y-128.58
X122.86Y-131.12
X122.86Y-133.66
X122.86Y-136.2
X122.86Y-138.74
X123.0Y-105.5
X124.819Y-101.743
X125.032Y-96.847
X125.25Y-119.874
X125.4Y-65.08
X125.4Y-90.48
X125.4Y-93.02
X125.4Y-95.56
X125.4Y-103.18
X125.4Y-108.26
X125.4Y-123.5
X125.4Y-126.04
X125.4Y-131.12
X125.4Y-133.66
X125.4Y-136.2
X125.4Y-138.74
X125.925Y-67.6
X125.925Y-71.0
X126.2Y-105.4
X127.216Y-78.607
X127.257Y-96.784
X127.94Y-65.08
X127.94Y-80.32
X127.94Y-82.86
X127.94Y-90.48
X127.94Y-93.02
X127.94Y-103.18
X127.94Y-108.26
X127.94Y-110.8
X127.94Y-115.88
X127.94Y-120.96
X127.94Y-123.5
X127.94Y-126.04
X127.94Y-131.12
X127.94Y-133.66
X127.94Y-136.2
X127.94Y-138.74
X130.48Y-65.08
X130.48Y-75.24
X130.48Y-77.78
X130.48Y-82.86
X130.48Y-85.4
X130.48Y-90.48
X130.48Y-93.02
X130.48Y-95.56
X130.48Y-110.8
X130.48Y-115.88
X130.48Y-120.96
X130.48Y-123.5
X130.48Y-126.04
X130.48Y-131.12
X130.48Y-133.66
X130.48Y-136.2
X130.48Y-138.74
X131.35Y-97.0
X131.5Y-79.75
X131.5Y-108.0
X132.65Y-97.0
X133.02Y-75.24
X133.02Y-77.78
X133.02Y-82.86
X133.02Y-85.4
X133.02Y-90.48
X133.02Y-93.02
X133.02Y-95.56
X133.02Y-103.18
X133.02Y-108.26
X133.02Y-110.8
X133.02Y-115.88
X133.02Y-120.96
X133.02Y-123.5
X133.02Y-126.04
X133.02Y-131.12
X133.02Y-133.66
X133.02Y-136.2
X133.02Y-138.74
X135.25Y-97.0
X135.468Y-84.125
X135.56Y-82.86
X135.56Y-85.4
X135.56Y-90.48
X135.56Y-93.02
X135.56Y-95.56
X135.56Y-108.26
X135.56Y-110.8
X135.56Y-115.88
X135.56Y-120.96
X135.56Y-123.5
X135.56Y-126.04
X135.56Y-131.12
X135.56Y-133.66
X135.56Y-136.2
X135.56Y-138.74
X137.681Y-96.993
X138.1Y-82.86
X138.1Y-85.4
X138.1Y-90.48
X138.1Y-93.02
X138.1Y-95.56
X138.1Y-105.72
X138.1Y-108.26
X138.1Y-110.8
X138.1Y-115.88
X138.1Y-120.96
X138.1Y-123.5
X138.1Y-126.04
X138.1Y-131.12
X138.1Y-133.66
X138.1Y-136.2
X138.1Y-138.74
X140.25Y-103.0
X140.297Y-98.319
X140.64Y-65.08
X140.64Y-72.7
X140.64Y-75.24
X140.64Y-77.78
X140.64Y-80.32
X140.64Y-82.86
X140.64Y-85.4
X140.64Y-90.48
X140.64Y-93.02
X140.64Y-95.56
X140.64Y-115.88
X140.64Y-120.96
X140.64Y-123.5
X140.64Y-126.04
X140.64Y-131.12
X140.64Y-133.66
X140.64Y-136.2
X140.64Y-138.74
X142.572Y-98.382
X142.572Y-100.687
X142.681Y-103.007
X143.18Y-65.08
X143.18Y-72.7
X143.18Y-75.24
X143.18Y-77.78
X143.18Y-80.32
X143.18Y-82.86
X143.18Y-85.4
X143.18Y-90.48
X143.18Y-93.02
X143.18Y-95.56
X143.18Y-105.72
X143.18Y-108.26
X143.18Y-110.8
X143.18Y-115.88
X143.18Y-120.96
X143.18Y-123.5
X143.18Y-126.04
X143.18Y-131.12
X143.18Y-133.66
X143.18Y-136.2
X143.18Y-138.74
X145.2Y-128.5
X145.2Y-130.805
X145.319Y-126.093
X145.72Y-65.08
X145.72Y-72.7
X145.72Y-75.24
X145.72Y-77.78
X145.72Y-80.32
X145.72Y-82.86
X145.72Y-85.4
X145.72Y-90.48
X145.72Y-95.56
X145.72Y-98.1
X145.72Y-100.64
X145.72Y-103.18
X145.72Y-105.72
X145.72Y-108.26
X145.72Y-110.8
X145.72Y-115.88
X145.72Y-120.96
X145.72Y-123.5
X145.72Y-133.66
X145.72Y-136.2
X145.72Y-138.74
X147.727Y-130.931
X148.26Y-72.7
X148.26Y-75.24
X148.26Y-77.78
X148.26Y-80.32
X148.26Y-85.4
X148.26Y-95.56
X148.26Y-103.18
X148.26Y-105.72
X148.26Y-108.26
X148.26Y-110.8
X148.26Y-115.88
X148.26Y-120.96
X148.26Y-123.5
X148.26Y-133.66
X148.26Y-136.2
X148.26Y-138.74
X148.968Y-99.402
X149.0Y-113.0
X149.1Y-82.507
X150.8Y-65.08
X150.8Y-72.7
X150.8Y-75.24
X150.8Y-77.78
X150.8Y-80.32
X150.8Y-82.86
X150.8Y-85.4
X150.8Y-95.56
X150.8Y-98.1
X150.8Y-100.64
X150.8Y-103.18
X150.8Y-105.72
X150.8Y-108.26
X150.8Y-110.8
X150.8Y-113.34
X150.8Y-133.66
X150.8Y-136.2
X150.8Y-138.74
X151.2Y-116.25
X151.2Y-123.5
X152.0Y-93.905
X152.5Y-123.5
X153.007Y-66.284
X153.34Y-72.7
X153.34Y-75.24
X153.34Y-77.78
X153.34Y-100.64
X153.34Y-103.18
X153.34Y-105.72
X153.34Y-108.26
X153.34Y-110.8
X153.34Y-113.34
X153.34Y-120.96
X153.34Y-131.12
X153.34Y-138.74
X155.88Y-65.08
X155.88Y-72.7
X155.88Y-75.24
X155.88Y-77.78
X155.88Y-80.32
X155.88Y-90.48
X155.88Y-93.02
X155.88Y-95.56
X155.88Y-98.1
X155.88Y-100.64
X155.88Y-103.18
X155.88Y-108.26
X155.88Y-110.8
X155.88Y-113.34
X155.88Y-120.96
X155.88Y-123.5
X155.88Y-131.12
X155.88Y-138.74
X156.534Y-82.057
X157.0Y-91.5
X157.25Y-129.905
X158.0Y-91.5
X158.42Y-65.08
X158.42Y-72.7
X158.42Y-75.24
X158.42Y-80.32
X158.42Y-87.94
X158.42Y-95.56
X158.42Y-98.1
X158.42Y-100.64
X158.42Y-103.18
X158.42Y-105.72
X158.42Y-108.26
X158.42Y-110.8
X158.42Y-113.34
X158.42Y-120.96
X158.42Y-131.12
X158.42Y-133.66
X158.42Y-138.74
X159.0Y-91.5
X160.0Y-95.5
X160.784Y-116.9
X160.784Y-121.284
X160.784Y-127.5
X160.96Y-65.08
X160.96Y-80.32
X160.96Y-93.02
X160.96Y-98.1
X160.96Y-100.64
X160.96Y-103.18
X160.96Y-105.72
X160.96Y-108.26
X160.96Y-110.8
X160.96Y-133.66
X160.96Y-138.74
X163.25Y-130.0
X163.5Y-65.08
X163.5Y-72.7
X163.5Y-75.24
X163.5Y-77.78
X163.5Y-80.32
X163.5Y-98.1
X163.5Y-100.64
X163.5Y-103.18
X163.5Y-105.72
X163.5Y-108.26
X163.5Y-110.8
X163.5Y-113.34
X163.5Y-120.96
X163.5Y-133.66
X163.5Y-138.74
X164.347Y-93.032
X166.04Y-65.08
X166.04Y-70.16
X166.04Y-72.7
X166.04Y-75.24
X166.04Y-77.78
X166.04Y-80.32
X166.04Y-98.1
X166.04Y-100.64
X166.04Y-103.18
X166.04Y-105.72
X166.04Y-128.58
X166.04Y-131.12
X166.04Y-133.66
X166.04Y-138.74
X166.653Y-93.032
X167.5Y-127.5
X168.58Y-65.08
X168.58Y-70.16
X168.58Y-72.7
X168.58Y-75.24
X168.58Y-77.78
X168.58Y-80.32
X168.58Y-100.64
X168.58Y-103.18
X168.58Y-105.72
X168.58Y-108.26
X168.58Y-110.8
X168.58Y-113.34
X168.58Y-120.96
X168.58Y-123.5
X168.58Y-126.04
X168.58Y-128.58
X168.58Y-131.12
X168.58Y-133.66
X168.58Y-136.2
X168.58Y-138.74
X169.116Y-82.043
X169.216Y-98.742
X170.5Y-89.0
X170.5Y-91.5
X170.549Y-105.299
X171.12Y-65.08
X171.12Y-80.32
X171.12Y-82.86
X171.12Y-85.4
X171.12Y-110.8
X171.12Y-113.34
X171.12Y-120.96
X171.12Y-123.5
X171.12Y-126.04
X171.12Y-128.58
X171.12Y-131.12
X171.12Y-133.66
X171.12Y-136.2
X171.12Y-138.74
X171.7Y-92.375
X171.7Y-99.6
X172.0Y-104.75
X172.3Y-98.5
X172.925Y-93.0
X173.6Y-94.2
X173.66Y-65.08
X173.66Y-67.62
X173.66Y-70.16
X173.66Y-72.7
X173.66Y-80.32
X173.66Y-82.86
X173.66Y-85.4
X173.66Y-87.94
X173.66Y-95.56
X173.66Y-123.5
X173.66Y-126.04
X173.66Y-128.58
X173.66Y-131.12
X173.66Y-133.66
X173.66Y-136.2
X173.66Y-138.74
X173.75Y-105.5
X174.25Y-100.716
X174.395Y-93.355
X174.8Y-106.2
X175.25Y-96.0
X175.6Y-99.6
X175.75Y-90.25
X176.2Y-65.08
X176.2Y-67.62
X176.2Y-70.16
X176.2Y-72.7
X176.2Y-77.78
X176.2Y-80.32
X176.2Y-82.86
X176.2Y-85.4
X176.2Y-87.94
X176.2Y-131.12
X176.2Y-133.66
X176.2Y-136.2
X176.2Y-138.74
X177.0Y-102.0
X177.0Y-104.75
X178.74Y-65.08
X178.74Y-67.62
X178.74Y-70.16
X178.74Y-72.7
X178.74Y-77.78
X178.74Y-80.32
X178.74Y-82.86
X178.74Y-85.4
X178.74Y-87.94
X178.74Y-131.12
X178.74Y-133.66
X178.74Y-136.2
X178.74Y-138.74
X179.102Y-127.472
X179.165Y-125.433
X179.278Y-75.032
X180.303Y-95.0
X180.5Y-93.0
X181.0Y-89.75
X181.28Y-65.08
X181.28Y-67.62
X181.28Y-70.16
X181.28Y-72.7
X181.28Y-75.24
X181.28Y-77.78
X181.28Y-80.32
X181.28Y-85.4
X181.28Y-87.94
X181.28Y-98.1
X181.28Y-103.18
X181.28Y-105.72
X181.28Y-110.8
X181.28Y-113.34
X181.28Y-115.88
X181.28Y-126.04
X181.28Y-131.12
X181.28Y-133.66
X181.28Y-136.2
X181.28Y-138.74
X181.75Y-108.25
X182.0Y-95.0
X182.5Y-88.0
X183.284Y-135.257
X183.347Y-137.282
X183.82Y-65.08
X183.82Y-67.62
X183.82Y-70.16
X183.82Y-72.7
X183.82Y-75.24
X183.82Y-77.78
X183.82Y-95.56
X183.82Y-105.72
X183.82Y-108.26
X183.82Y-110.8
X183.82Y-113.34
X183.82Y-123.5
X183.82Y-126.04
X183.82Y-128.58
X183.82Y-131.12
X183.82Y-133.66
X183.82Y-138.74
X184.276Y-80.286
X185.0Y-102.8
X185.5Y-91.0
X186.201Y-100.599
X186.36Y-65.08
X186.36Y-67.62
X186.36Y-70.16
X186.36Y-72.7
X186.36Y-75.24
X186.36Y-77.78
X186.36Y-80.32
X186.36Y-118.42
X186.36Y-123.5
X186.36Y-126.04
X186.36Y-128.58
X186.36Y-131.12
X186.36Y-138.74
X186.5Y-91.0
X187.0Y-86.5
X187.5Y-91.0
X187.5Y-95.25
X187.5Y-96.75
X188.5Y-92.0
X188.9Y-65.08
X188.9Y-80.32
X188.9Y-82.86
X188.9Y-120.96
X188.9Y-123.5
X188.9Y-126.04
X188.9Y-128.58
X188.9Y-136.2
X188.9Y-138.74
X189.5Y-93.0
X190.75Y-93.5
X191.44Y-65.08
X191.44Y-80.32
X191.44Y-82.86
X191.44Y-85.4
X191.44Y-100.64
X191.44Y-103.18
X191.44Y-105.72
X191.44Y-108.26
X191.44Y-110.8
X191.44Y-113.34
X191.44Y-115.88
X191.44Y-118.42
X191.44Y-120.96
X191.44Y-123.5
X191.44Y-126.04
X191.44Y-128.58
X191.44Y-136.2
X191.44Y-138.74
X191.5Y-92.75
X192.25Y-92.0
X192.864Y-88.855
X193.0Y-91.25
X193.5Y-87.5
X193.75Y-90.5
X193.98Y-65.08
X193.98Y-67.62
X193.98Y-70.16
X193.98Y-72.7
X193.98Y-75.24
X193.98Y-77.78
X193.98Y-82.86
X193.98Y-85.4
X193.98Y-100.64
X193.98Y-103.18
X193.98Y-105.72
X193.98Y-108.26
X193.98Y-110.8
X193.98Y-113.34
X193.98Y-115.88
X193.98Y-118.42
X193.98Y-120.96
X193.98Y-123.5
X193.98Y-126.04
X193.98Y-128.58
X193.98Y-131.12
X193.98Y-133.66
X193.98Y-136.2
X194.216Y-95.007
X194.216Y-97.007
X194.216Y-99.007
T2
X112.0Y-66.0
X112.0Y-67.0
X112.0Y-68.0
X112.0Y-69.0
X112.0Y-70.0
X112.0Y-71.0
X112.0Y-72.0
X112.0Y-73.0
X112.0Y-74.0
X112.0Y-75.0
X112.0Y-76.0
X113.0Y-66.0
X113.0Y-67.0
X113.0Y-68.0
X113.0Y-69.0
X113.0Y-70.0
X113.0Y-71.0
X113.0Y-72.0
X113.0Y-73.0
X113.0Y-74.0
X113.0Y-75.0
X113.0Y-76.0
X114.0Y-66.0
X114.0Y-67.0
X114.0Y-75.0
X114.0Y-76.0
X115.0Y-66.0
X115.0Y-67.0
X115.0Y-75.0
X115.0Y-76.0
X116.0Y-66.0
X116.0Y-67.0
X116.0Y-75.0
X116.0Y-76.0
X117.0Y-66.0
X117.0Y-67.0
X117.0Y-75.0
X117.0Y-76.0
X118.0Y-66.0
X118.0Y-67.0
X118.0Y-75.0
X118.0Y-76.0
X119.0Y-66.0
X119.0Y-67.0
X119.0Y-75.0
X119.0Y-76.0
X120.0Y-66.0
X120.0Y-67.0
X120.0Y-75.0
X120.0Y-76.0
T3
X153.216Y-88.007
T5
X124.55Y-84.6
X147.5Y-68.75
X159.663Y-84.5
X164.743Y-84.5
X184.868Y-84.89
X188.46Y-88.482
T6
X175.699Y-123.09
X175.699Y-129.59
X180.199Y-123.09
X180.199Y-129.59
T7
X173.25Y-110.29
X173.25Y-112.83
X175.79Y-107.75
X175.79Y-110.29
X175.79Y-112.83
T8
X173.25Y-107.75
T9
X109.975Y-88.02
X109.975Y-92.17
X109.975Y-95.5
X109.975Y-98.83
X109.975Y-102.135
X109.975Y-105.49
X109.975Y-108.82
X109.975Y-112.97
X114.175Y-88.02
X114.175Y-92.17
X114.175Y-95.5
X114.175Y-98.83
X114.175Y-102.135
X114.175Y-105.49
X114.175Y-108.82
X114.175Y-112.97
X118.375Y-88.02
X118.375Y-92.17
X118.375Y-95.5
X118.375Y-98.83
X118.375Y-102.135
X118.375Y-105.49
X118.375Y-108.82
X118.375Y-112.97
T10
X189.968Y-70.598
X189.968Y-132.098
T4
G00X126.95Y-84.6
M15
G01X128.15Y-84.6
M16
G05
G00X147.5Y-66.35
M15
G01X147.5Y-65.15
M16
G05
M30
