%TF.GenerationSoftware,KiCad,Pcbnew,9.0.2*%
%TF.CreationDate,2026-03-31T12:46:09+08:00*%
%TF.ProjectId,SSRU_v3.3,53535255-5f76-4332-9e33-2e6b69636164,rev?*%
%TF.SameCoordinates,Original*%
%TF.FileFunction,Legend,Bot*%
%TF.FilePolarity,Positive*%
%FSLAX46Y46*%
G04 Gerber Fmt 4.6, Leading zero omitted, Abs format (unit mm)*
G04 Created by KiCad (PCBNEW 9.0.2) date 2026-03-31 12:46:09*
%MOMM*%
%LPD*%
G01*
G04 APERTURE LIST*
%ADD10C,0.100000*%
%ADD11C,0.150000*%
%ADD12C,0.120000*%
G04 APERTURE END LIST*
D10*
X179750000Y-78750000D02*
X182750000Y-78750000D01*
X182750000Y-82750000D01*
X179750000Y-82750000D01*
X179750000Y-78750000D01*
X161250000Y-79500000D02*
X170250000Y-79500000D01*
X170250000Y-81000000D01*
X161250000Y-81000000D01*
X161250000Y-79500000D01*
X184500000Y-78750000D02*
X182750000Y-78750000D01*
X175699200Y-124500000D02*
X180199200Y-124500000D01*
X180199200Y-128500000D01*
X175699200Y-128500000D01*
X175699200Y-124500000D01*
X175250000Y-97250000D02*
X178250000Y-97250000D01*
X178250000Y-101750000D01*
X175250000Y-101750000D01*
X175250000Y-97250000D01*
X159750000Y-90000000D02*
X163250000Y-90000000D01*
X163250000Y-94000000D01*
X159750000Y-94000000D01*
X159750000Y-90000000D01*
X173250000Y-97250000D02*
X175250000Y-97250000D01*
X175250000Y-101750000D01*
X173250000Y-101750000D01*
X173250000Y-97250000D01*
X194500000Y-88750000D02*
X184500000Y-78750000D01*
X163250000Y-90000000D02*
X167750000Y-90000000D01*
X167750000Y-94000000D01*
X163250000Y-94000000D01*
X163250000Y-90000000D01*
X182250000Y-134250000D02*
X186750000Y-134250000D01*
X186750000Y-138250000D01*
X182250000Y-138250000D01*
X182250000Y-134250000D01*
X187000000Y-78250000D02*
X193000000Y-78250000D01*
X193000000Y-79750000D01*
X187000000Y-79750000D01*
X187000000Y-78250000D01*
X172250000Y-124500000D02*
X175750000Y-124500000D01*
X175750000Y-128500000D01*
X172250000Y-128500000D01*
X172250000Y-124500000D01*
X135000000Y-94000000D02*
X138500000Y-94000000D01*
X138500000Y-96000000D01*
X135000000Y-96000000D01*
X135000000Y-94000000D01*
X178750000Y-134250000D02*
X182250000Y-134250000D01*
X182250000Y-138250000D01*
X178750000Y-138250000D01*
X178750000Y-134250000D01*
X187000000Y-73750000D02*
X193000000Y-73750000D01*
X193000000Y-78250000D01*
X187000000Y-78250000D01*
X187000000Y-73750000D01*
X134250000Y-96000000D02*
X138750000Y-96000000D01*
X138750000Y-98000000D01*
X134250000Y-98000000D01*
X134250000Y-96000000D01*
X155500000Y-81000000D02*
X170250000Y-81000000D01*
X170250000Y-83000000D01*
X155500000Y-83000000D01*
X155500000Y-81000000D01*
D11*
X177166666Y-98609580D02*
X177214285Y-98657200D01*
X177214285Y-98657200D02*
X177357142Y-98704819D01*
X177357142Y-98704819D02*
X177452380Y-98704819D01*
X177452380Y-98704819D02*
X177595237Y-98657200D01*
X177595237Y-98657200D02*
X177690475Y-98561961D01*
X177690475Y-98561961D02*
X177738094Y-98466723D01*
X177738094Y-98466723D02*
X177785713Y-98276247D01*
X177785713Y-98276247D02*
X177785713Y-98133390D01*
X177785713Y-98133390D02*
X177738094Y-97942914D01*
X177738094Y-97942914D02*
X177690475Y-97847676D01*
X177690475Y-97847676D02*
X177595237Y-97752438D01*
X177595237Y-97752438D02*
X177452380Y-97704819D01*
X177452380Y-97704819D02*
X177357142Y-97704819D01*
X177357142Y-97704819D02*
X177214285Y-97752438D01*
X177214285Y-97752438D02*
X177166666Y-97800057D01*
X176309523Y-98038152D02*
X176309523Y-98704819D01*
X176547618Y-97657200D02*
X176785713Y-98371485D01*
X176785713Y-98371485D02*
X176166666Y-98371485D01*
X152142857Y-97454819D02*
X152476190Y-96978628D01*
X152714285Y-97454819D02*
X152714285Y-96454819D01*
X152714285Y-96454819D02*
X152333333Y-96454819D01*
X152333333Y-96454819D02*
X152238095Y-96502438D01*
X152238095Y-96502438D02*
X152190476Y-96550057D01*
X152190476Y-96550057D02*
X152142857Y-96645295D01*
X152142857Y-96645295D02*
X152142857Y-96788152D01*
X152142857Y-96788152D02*
X152190476Y-96883390D01*
X152190476Y-96883390D02*
X152238095Y-96931009D01*
X152238095Y-96931009D02*
X152333333Y-96978628D01*
X152333333Y-96978628D02*
X152714285Y-96978628D01*
X151285714Y-96788152D02*
X151285714Y-97454819D01*
X151523809Y-96407200D02*
X151761904Y-97121485D01*
X151761904Y-97121485D02*
X151142857Y-97121485D01*
X150571428Y-96454819D02*
X150476190Y-96454819D01*
X150476190Y-96454819D02*
X150380952Y-96502438D01*
X150380952Y-96502438D02*
X150333333Y-96550057D01*
X150333333Y-96550057D02*
X150285714Y-96645295D01*
X150285714Y-96645295D02*
X150238095Y-96835771D01*
X150238095Y-96835771D02*
X150238095Y-97073866D01*
X150238095Y-97073866D02*
X150285714Y-97264342D01*
X150285714Y-97264342D02*
X150333333Y-97359580D01*
X150333333Y-97359580D02*
X150380952Y-97407200D01*
X150380952Y-97407200D02*
X150476190Y-97454819D01*
X150476190Y-97454819D02*
X150571428Y-97454819D01*
X150571428Y-97454819D02*
X150666666Y-97407200D01*
X150666666Y-97407200D02*
X150714285Y-97359580D01*
X150714285Y-97359580D02*
X150761904Y-97264342D01*
X150761904Y-97264342D02*
X150809523Y-97073866D01*
X150809523Y-97073866D02*
X150809523Y-96835771D01*
X150809523Y-96835771D02*
X150761904Y-96645295D01*
X150761904Y-96645295D02*
X150714285Y-96550057D01*
X150714285Y-96550057D02*
X150666666Y-96502438D01*
X150666666Y-96502438D02*
X150571428Y-96454819D01*
X169392857Y-80609580D02*
X169440476Y-80657200D01*
X169440476Y-80657200D02*
X169583333Y-80704819D01*
X169583333Y-80704819D02*
X169678571Y-80704819D01*
X169678571Y-80704819D02*
X169821428Y-80657200D01*
X169821428Y-80657200D02*
X169916666Y-80561961D01*
X169916666Y-80561961D02*
X169964285Y-80466723D01*
X169964285Y-80466723D02*
X170011904Y-80276247D01*
X170011904Y-80276247D02*
X170011904Y-80133390D01*
X170011904Y-80133390D02*
X169964285Y-79942914D01*
X169964285Y-79942914D02*
X169916666Y-79847676D01*
X169916666Y-79847676D02*
X169821428Y-79752438D01*
X169821428Y-79752438D02*
X169678571Y-79704819D01*
X169678571Y-79704819D02*
X169583333Y-79704819D01*
X169583333Y-79704819D02*
X169440476Y-79752438D01*
X169440476Y-79752438D02*
X169392857Y-79800057D01*
X169011904Y-79800057D02*
X168964285Y-79752438D01*
X168964285Y-79752438D02*
X168869047Y-79704819D01*
X168869047Y-79704819D02*
X168630952Y-79704819D01*
X168630952Y-79704819D02*
X168535714Y-79752438D01*
X168535714Y-79752438D02*
X168488095Y-79800057D01*
X168488095Y-79800057D02*
X168440476Y-79895295D01*
X168440476Y-79895295D02*
X168440476Y-79990533D01*
X168440476Y-79990533D02*
X168488095Y-80133390D01*
X168488095Y-80133390D02*
X169059523Y-80704819D01*
X169059523Y-80704819D02*
X168440476Y-80704819D01*
X167583333Y-79704819D02*
X167773809Y-79704819D01*
X167773809Y-79704819D02*
X167869047Y-79752438D01*
X167869047Y-79752438D02*
X167916666Y-79800057D01*
X167916666Y-79800057D02*
X168011904Y-79942914D01*
X168011904Y-79942914D02*
X168059523Y-80133390D01*
X168059523Y-80133390D02*
X168059523Y-80514342D01*
X168059523Y-80514342D02*
X168011904Y-80609580D01*
X168011904Y-80609580D02*
X167964285Y-80657200D01*
X167964285Y-80657200D02*
X167869047Y-80704819D01*
X167869047Y-80704819D02*
X167678571Y-80704819D01*
X167678571Y-80704819D02*
X167583333Y-80657200D01*
X167583333Y-80657200D02*
X167535714Y-80609580D01*
X167535714Y-80609580D02*
X167488095Y-80514342D01*
X167488095Y-80514342D02*
X167488095Y-80276247D01*
X167488095Y-80276247D02*
X167535714Y-80181009D01*
X167535714Y-80181009D02*
X167583333Y-80133390D01*
X167583333Y-80133390D02*
X167678571Y-80085771D01*
X167678571Y-80085771D02*
X167869047Y-80085771D01*
X167869047Y-80085771D02*
X167964285Y-80133390D01*
X167964285Y-80133390D02*
X168011904Y-80181009D01*
X168011904Y-80181009D02*
X168059523Y-80276247D01*
X162142857Y-91359580D02*
X162190476Y-91407200D01*
X162190476Y-91407200D02*
X162333333Y-91454819D01*
X162333333Y-91454819D02*
X162428571Y-91454819D01*
X162428571Y-91454819D02*
X162571428Y-91407200D01*
X162571428Y-91407200D02*
X162666666Y-91311961D01*
X162666666Y-91311961D02*
X162714285Y-91216723D01*
X162714285Y-91216723D02*
X162761904Y-91026247D01*
X162761904Y-91026247D02*
X162761904Y-90883390D01*
X162761904Y-90883390D02*
X162714285Y-90692914D01*
X162714285Y-90692914D02*
X162666666Y-90597676D01*
X162666666Y-90597676D02*
X162571428Y-90502438D01*
X162571428Y-90502438D02*
X162428571Y-90454819D01*
X162428571Y-90454819D02*
X162333333Y-90454819D01*
X162333333Y-90454819D02*
X162190476Y-90502438D01*
X162190476Y-90502438D02*
X162142857Y-90550057D01*
X161809523Y-90454819D02*
X161190476Y-90454819D01*
X161190476Y-90454819D02*
X161523809Y-90835771D01*
X161523809Y-90835771D02*
X161380952Y-90835771D01*
X161380952Y-90835771D02*
X161285714Y-90883390D01*
X161285714Y-90883390D02*
X161238095Y-90931009D01*
X161238095Y-90931009D02*
X161190476Y-91026247D01*
X161190476Y-91026247D02*
X161190476Y-91264342D01*
X161190476Y-91264342D02*
X161238095Y-91359580D01*
X161238095Y-91359580D02*
X161285714Y-91407200D01*
X161285714Y-91407200D02*
X161380952Y-91454819D01*
X161380952Y-91454819D02*
X161666666Y-91454819D01*
X161666666Y-91454819D02*
X161761904Y-91407200D01*
X161761904Y-91407200D02*
X161809523Y-91359580D01*
X160714285Y-91454819D02*
X160523809Y-91454819D01*
X160523809Y-91454819D02*
X160428571Y-91407200D01*
X160428571Y-91407200D02*
X160380952Y-91359580D01*
X160380952Y-91359580D02*
X160285714Y-91216723D01*
X160285714Y-91216723D02*
X160238095Y-91026247D01*
X160238095Y-91026247D02*
X160238095Y-90645295D01*
X160238095Y-90645295D02*
X160285714Y-90550057D01*
X160285714Y-90550057D02*
X160333333Y-90502438D01*
X160333333Y-90502438D02*
X160428571Y-90454819D01*
X160428571Y-90454819D02*
X160619047Y-90454819D01*
X160619047Y-90454819D02*
X160714285Y-90502438D01*
X160714285Y-90502438D02*
X160761904Y-90550057D01*
X160761904Y-90550057D02*
X160809523Y-90645295D01*
X160809523Y-90645295D02*
X160809523Y-90883390D01*
X160809523Y-90883390D02*
X160761904Y-90978628D01*
X160761904Y-90978628D02*
X160714285Y-91026247D01*
X160714285Y-91026247D02*
X160619047Y-91073866D01*
X160619047Y-91073866D02*
X160428571Y-91073866D01*
X160428571Y-91073866D02*
X160333333Y-91026247D01*
X160333333Y-91026247D02*
X160285714Y-90978628D01*
X160285714Y-90978628D02*
X160238095Y-90883390D01*
X181892857Y-79859580D02*
X181940476Y-79907200D01*
X181940476Y-79907200D02*
X182083333Y-79954819D01*
X182083333Y-79954819D02*
X182178571Y-79954819D01*
X182178571Y-79954819D02*
X182321428Y-79907200D01*
X182321428Y-79907200D02*
X182416666Y-79811961D01*
X182416666Y-79811961D02*
X182464285Y-79716723D01*
X182464285Y-79716723D02*
X182511904Y-79526247D01*
X182511904Y-79526247D02*
X182511904Y-79383390D01*
X182511904Y-79383390D02*
X182464285Y-79192914D01*
X182464285Y-79192914D02*
X182416666Y-79097676D01*
X182416666Y-79097676D02*
X182321428Y-79002438D01*
X182321428Y-79002438D02*
X182178571Y-78954819D01*
X182178571Y-78954819D02*
X182083333Y-78954819D01*
X182083333Y-78954819D02*
X181940476Y-79002438D01*
X181940476Y-79002438D02*
X181892857Y-79050057D01*
X180940476Y-79954819D02*
X181511904Y-79954819D01*
X181226190Y-79954819D02*
X181226190Y-78954819D01*
X181226190Y-78954819D02*
X181321428Y-79097676D01*
X181321428Y-79097676D02*
X181416666Y-79192914D01*
X181416666Y-79192914D02*
X181511904Y-79240533D01*
X180607142Y-78954819D02*
X179940476Y-78954819D01*
X179940476Y-78954819D02*
X180369047Y-79954819D01*
X166392857Y-80704819D02*
X166726190Y-80228628D01*
X166964285Y-80704819D02*
X166964285Y-79704819D01*
X166964285Y-79704819D02*
X166583333Y-79704819D01*
X166583333Y-79704819D02*
X166488095Y-79752438D01*
X166488095Y-79752438D02*
X166440476Y-79800057D01*
X166440476Y-79800057D02*
X166392857Y-79895295D01*
X166392857Y-79895295D02*
X166392857Y-80038152D01*
X166392857Y-80038152D02*
X166440476Y-80133390D01*
X166440476Y-80133390D02*
X166488095Y-80181009D01*
X166488095Y-80181009D02*
X166583333Y-80228628D01*
X166583333Y-80228628D02*
X166964285Y-80228628D01*
X165440476Y-80704819D02*
X166011904Y-80704819D01*
X165726190Y-80704819D02*
X165726190Y-79704819D01*
X165726190Y-79704819D02*
X165821428Y-79847676D01*
X165821428Y-79847676D02*
X165916666Y-79942914D01*
X165916666Y-79942914D02*
X166011904Y-79990533D01*
X164535714Y-79704819D02*
X165011904Y-79704819D01*
X165011904Y-79704819D02*
X165059523Y-80181009D01*
X165059523Y-80181009D02*
X165011904Y-80133390D01*
X165011904Y-80133390D02*
X164916666Y-80085771D01*
X164916666Y-80085771D02*
X164678571Y-80085771D01*
X164678571Y-80085771D02*
X164583333Y-80133390D01*
X164583333Y-80133390D02*
X164535714Y-80181009D01*
X164535714Y-80181009D02*
X164488095Y-80276247D01*
X164488095Y-80276247D02*
X164488095Y-80514342D01*
X164488095Y-80514342D02*
X164535714Y-80609580D01*
X164535714Y-80609580D02*
X164583333Y-80657200D01*
X164583333Y-80657200D02*
X164678571Y-80704819D01*
X164678571Y-80704819D02*
X164916666Y-80704819D01*
X164916666Y-80704819D02*
X165011904Y-80657200D01*
X165011904Y-80657200D02*
X165059523Y-80609580D01*
X181916666Y-82359580D02*
X181964285Y-82407200D01*
X181964285Y-82407200D02*
X182107142Y-82454819D01*
X182107142Y-82454819D02*
X182202380Y-82454819D01*
X182202380Y-82454819D02*
X182345237Y-82407200D01*
X182345237Y-82407200D02*
X182440475Y-82311961D01*
X182440475Y-82311961D02*
X182488094Y-82216723D01*
X182488094Y-82216723D02*
X182535713Y-82026247D01*
X182535713Y-82026247D02*
X182535713Y-81883390D01*
X182535713Y-81883390D02*
X182488094Y-81692914D01*
X182488094Y-81692914D02*
X182440475Y-81597676D01*
X182440475Y-81597676D02*
X182345237Y-81502438D01*
X182345237Y-81502438D02*
X182202380Y-81454819D01*
X182202380Y-81454819D02*
X182107142Y-81454819D01*
X182107142Y-81454819D02*
X181964285Y-81502438D01*
X181964285Y-81502438D02*
X181916666Y-81550057D01*
X181011904Y-81454819D02*
X181488094Y-81454819D01*
X181488094Y-81454819D02*
X181535713Y-81931009D01*
X181535713Y-81931009D02*
X181488094Y-81883390D01*
X181488094Y-81883390D02*
X181392856Y-81835771D01*
X181392856Y-81835771D02*
X181154761Y-81835771D01*
X181154761Y-81835771D02*
X181059523Y-81883390D01*
X181059523Y-81883390D02*
X181011904Y-81931009D01*
X181011904Y-81931009D02*
X180964285Y-82026247D01*
X180964285Y-82026247D02*
X180964285Y-82264342D01*
X180964285Y-82264342D02*
X181011904Y-82359580D01*
X181011904Y-82359580D02*
X181059523Y-82407200D01*
X181059523Y-82407200D02*
X181154761Y-82454819D01*
X181154761Y-82454819D02*
X181392856Y-82454819D01*
X181392856Y-82454819D02*
X181488094Y-82407200D01*
X181488094Y-82407200D02*
X181535713Y-82359580D01*
X162142857Y-93454819D02*
X162476190Y-92978628D01*
X162714285Y-93454819D02*
X162714285Y-92454819D01*
X162714285Y-92454819D02*
X162333333Y-92454819D01*
X162333333Y-92454819D02*
X162238095Y-92502438D01*
X162238095Y-92502438D02*
X162190476Y-92550057D01*
X162190476Y-92550057D02*
X162142857Y-92645295D01*
X162142857Y-92645295D02*
X162142857Y-92788152D01*
X162142857Y-92788152D02*
X162190476Y-92883390D01*
X162190476Y-92883390D02*
X162238095Y-92931009D01*
X162238095Y-92931009D02*
X162333333Y-92978628D01*
X162333333Y-92978628D02*
X162714285Y-92978628D01*
X161190476Y-93454819D02*
X161761904Y-93454819D01*
X161476190Y-93454819D02*
X161476190Y-92454819D01*
X161476190Y-92454819D02*
X161571428Y-92597676D01*
X161571428Y-92597676D02*
X161666666Y-92692914D01*
X161666666Y-92692914D02*
X161761904Y-92740533D01*
X160333333Y-92454819D02*
X160523809Y-92454819D01*
X160523809Y-92454819D02*
X160619047Y-92502438D01*
X160619047Y-92502438D02*
X160666666Y-92550057D01*
X160666666Y-92550057D02*
X160761904Y-92692914D01*
X160761904Y-92692914D02*
X160809523Y-92883390D01*
X160809523Y-92883390D02*
X160809523Y-93264342D01*
X160809523Y-93264342D02*
X160761904Y-93359580D01*
X160761904Y-93359580D02*
X160714285Y-93407200D01*
X160714285Y-93407200D02*
X160619047Y-93454819D01*
X160619047Y-93454819D02*
X160428571Y-93454819D01*
X160428571Y-93454819D02*
X160333333Y-93407200D01*
X160333333Y-93407200D02*
X160285714Y-93359580D01*
X160285714Y-93359580D02*
X160238095Y-93264342D01*
X160238095Y-93264342D02*
X160238095Y-93026247D01*
X160238095Y-93026247D02*
X160285714Y-92931009D01*
X160285714Y-92931009D02*
X160333333Y-92883390D01*
X160333333Y-92883390D02*
X160428571Y-92835771D01*
X160428571Y-92835771D02*
X160619047Y-92835771D01*
X160619047Y-92835771D02*
X160714285Y-92883390D01*
X160714285Y-92883390D02*
X160761904Y-92931009D01*
X160761904Y-92931009D02*
X160809523Y-93026247D01*
X163392857Y-80609580D02*
X163440476Y-80657200D01*
X163440476Y-80657200D02*
X163583333Y-80704819D01*
X163583333Y-80704819D02*
X163678571Y-80704819D01*
X163678571Y-80704819D02*
X163821428Y-80657200D01*
X163821428Y-80657200D02*
X163916666Y-80561961D01*
X163916666Y-80561961D02*
X163964285Y-80466723D01*
X163964285Y-80466723D02*
X164011904Y-80276247D01*
X164011904Y-80276247D02*
X164011904Y-80133390D01*
X164011904Y-80133390D02*
X163964285Y-79942914D01*
X163964285Y-79942914D02*
X163916666Y-79847676D01*
X163916666Y-79847676D02*
X163821428Y-79752438D01*
X163821428Y-79752438D02*
X163678571Y-79704819D01*
X163678571Y-79704819D02*
X163583333Y-79704819D01*
X163583333Y-79704819D02*
X163440476Y-79752438D01*
X163440476Y-79752438D02*
X163392857Y-79800057D01*
X163011904Y-79800057D02*
X162964285Y-79752438D01*
X162964285Y-79752438D02*
X162869047Y-79704819D01*
X162869047Y-79704819D02*
X162630952Y-79704819D01*
X162630952Y-79704819D02*
X162535714Y-79752438D01*
X162535714Y-79752438D02*
X162488095Y-79800057D01*
X162488095Y-79800057D02*
X162440476Y-79895295D01*
X162440476Y-79895295D02*
X162440476Y-79990533D01*
X162440476Y-79990533D02*
X162488095Y-80133390D01*
X162488095Y-80133390D02*
X163059523Y-80704819D01*
X163059523Y-80704819D02*
X162440476Y-80704819D01*
X162107142Y-79704819D02*
X161440476Y-79704819D01*
X161440476Y-79704819D02*
X161869047Y-80704819D01*
X156404819Y-122666666D02*
X157119104Y-122666666D01*
X157119104Y-122666666D02*
X157261961Y-122619047D01*
X157261961Y-122619047D02*
X157357200Y-122523809D01*
X157357200Y-122523809D02*
X157404819Y-122380952D01*
X157404819Y-122380952D02*
X157404819Y-122285714D01*
X157404819Y-123142857D02*
X156404819Y-123142857D01*
X156404819Y-123142857D02*
X156404819Y-123523809D01*
X156404819Y-123523809D02*
X156452438Y-123619047D01*
X156452438Y-123619047D02*
X156500057Y-123666666D01*
X156500057Y-123666666D02*
X156595295Y-123714285D01*
X156595295Y-123714285D02*
X156738152Y-123714285D01*
X156738152Y-123714285D02*
X156833390Y-123666666D01*
X156833390Y-123666666D02*
X156881009Y-123619047D01*
X156881009Y-123619047D02*
X156928628Y-123523809D01*
X156928628Y-123523809D02*
X156928628Y-123142857D01*
X156738152Y-124571428D02*
X157404819Y-124571428D01*
X156357200Y-124333333D02*
X157071485Y-124095238D01*
X157071485Y-124095238D02*
X157071485Y-124714285D01*
X181916666Y-81204819D02*
X182249999Y-80728628D01*
X182488094Y-81204819D02*
X182488094Y-80204819D01*
X182488094Y-80204819D02*
X182107142Y-80204819D01*
X182107142Y-80204819D02*
X182011904Y-80252438D01*
X182011904Y-80252438D02*
X181964285Y-80300057D01*
X181964285Y-80300057D02*
X181916666Y-80395295D01*
X181916666Y-80395295D02*
X181916666Y-80538152D01*
X181916666Y-80538152D02*
X181964285Y-80633390D01*
X181964285Y-80633390D02*
X182011904Y-80681009D01*
X182011904Y-80681009D02*
X182107142Y-80728628D01*
X182107142Y-80728628D02*
X182488094Y-80728628D01*
X181059523Y-80538152D02*
X181059523Y-81204819D01*
X181297618Y-80157200D02*
X181535713Y-80871485D01*
X181535713Y-80871485D02*
X180916666Y-80871485D01*
X180916666Y-137704819D02*
X181249999Y-137228628D01*
X181488094Y-137704819D02*
X181488094Y-136704819D01*
X181488094Y-136704819D02*
X181107142Y-136704819D01*
X181107142Y-136704819D02*
X181011904Y-136752438D01*
X181011904Y-136752438D02*
X180964285Y-136800057D01*
X180964285Y-136800057D02*
X180916666Y-136895295D01*
X180916666Y-136895295D02*
X180916666Y-137038152D01*
X180916666Y-137038152D02*
X180964285Y-137133390D01*
X180964285Y-137133390D02*
X181011904Y-137181009D01*
X181011904Y-137181009D02*
X181107142Y-137228628D01*
X181107142Y-137228628D02*
X181488094Y-137228628D01*
X180440475Y-137704819D02*
X180249999Y-137704819D01*
X180249999Y-137704819D02*
X180154761Y-137657200D01*
X180154761Y-137657200D02*
X180107142Y-137609580D01*
X180107142Y-137609580D02*
X180011904Y-137466723D01*
X180011904Y-137466723D02*
X179964285Y-137276247D01*
X179964285Y-137276247D02*
X179964285Y-136895295D01*
X179964285Y-136895295D02*
X180011904Y-136800057D01*
X180011904Y-136800057D02*
X180059523Y-136752438D01*
X180059523Y-136752438D02*
X180154761Y-136704819D01*
X180154761Y-136704819D02*
X180345237Y-136704819D01*
X180345237Y-136704819D02*
X180440475Y-136752438D01*
X180440475Y-136752438D02*
X180488094Y-136800057D01*
X180488094Y-136800057D02*
X180535713Y-136895295D01*
X180535713Y-136895295D02*
X180535713Y-137133390D01*
X180535713Y-137133390D02*
X180488094Y-137228628D01*
X180488094Y-137228628D02*
X180440475Y-137276247D01*
X180440475Y-137276247D02*
X180345237Y-137323866D01*
X180345237Y-137323866D02*
X180154761Y-137323866D01*
X180154761Y-137323866D02*
X180059523Y-137276247D01*
X180059523Y-137276247D02*
X180011904Y-137228628D01*
X180011904Y-137228628D02*
X179964285Y-137133390D01*
X192142857Y-79454819D02*
X192476190Y-78978628D01*
X192714285Y-79454819D02*
X192714285Y-78454819D01*
X192714285Y-78454819D02*
X192333333Y-78454819D01*
X192333333Y-78454819D02*
X192238095Y-78502438D01*
X192238095Y-78502438D02*
X192190476Y-78550057D01*
X192190476Y-78550057D02*
X192142857Y-78645295D01*
X192142857Y-78645295D02*
X192142857Y-78788152D01*
X192142857Y-78788152D02*
X192190476Y-78883390D01*
X192190476Y-78883390D02*
X192238095Y-78931009D01*
X192238095Y-78931009D02*
X192333333Y-78978628D01*
X192333333Y-78978628D02*
X192714285Y-78978628D01*
X191190476Y-79454819D02*
X191761904Y-79454819D01*
X191476190Y-79454819D02*
X191476190Y-78454819D01*
X191476190Y-78454819D02*
X191571428Y-78597676D01*
X191571428Y-78597676D02*
X191666666Y-78692914D01*
X191666666Y-78692914D02*
X191761904Y-78740533D01*
X190571428Y-78454819D02*
X190476190Y-78454819D01*
X190476190Y-78454819D02*
X190380952Y-78502438D01*
X190380952Y-78502438D02*
X190333333Y-78550057D01*
X190333333Y-78550057D02*
X190285714Y-78645295D01*
X190285714Y-78645295D02*
X190238095Y-78835771D01*
X190238095Y-78835771D02*
X190238095Y-79073866D01*
X190238095Y-79073866D02*
X190285714Y-79264342D01*
X190285714Y-79264342D02*
X190333333Y-79359580D01*
X190333333Y-79359580D02*
X190380952Y-79407200D01*
X190380952Y-79407200D02*
X190476190Y-79454819D01*
X190476190Y-79454819D02*
X190571428Y-79454819D01*
X190571428Y-79454819D02*
X190666666Y-79407200D01*
X190666666Y-79407200D02*
X190714285Y-79359580D01*
X190714285Y-79359580D02*
X190761904Y-79264342D01*
X190761904Y-79264342D02*
X190809523Y-79073866D01*
X190809523Y-79073866D02*
X190809523Y-78835771D01*
X190809523Y-78835771D02*
X190761904Y-78645295D01*
X190761904Y-78645295D02*
X190714285Y-78550057D01*
X190714285Y-78550057D02*
X190666666Y-78502438D01*
X190666666Y-78502438D02*
X190571428Y-78454819D01*
X177583333Y-100204819D02*
X177583333Y-100919104D01*
X177583333Y-100919104D02*
X177630952Y-101061961D01*
X177630952Y-101061961D02*
X177726190Y-101157200D01*
X177726190Y-101157200D02*
X177869047Y-101204819D01*
X177869047Y-101204819D02*
X177964285Y-101204819D01*
X177107142Y-101204819D02*
X177107142Y-100204819D01*
X177107142Y-100204819D02*
X176726190Y-100204819D01*
X176726190Y-100204819D02*
X176630952Y-100252438D01*
X176630952Y-100252438D02*
X176583333Y-100300057D01*
X176583333Y-100300057D02*
X176535714Y-100395295D01*
X176535714Y-100395295D02*
X176535714Y-100538152D01*
X176535714Y-100538152D02*
X176583333Y-100633390D01*
X176583333Y-100633390D02*
X176630952Y-100681009D01*
X176630952Y-100681009D02*
X176726190Y-100728628D01*
X176726190Y-100728628D02*
X177107142Y-100728628D01*
X175583333Y-101204819D02*
X176154761Y-101204819D01*
X175869047Y-101204819D02*
X175869047Y-100204819D01*
X175869047Y-100204819D02*
X175964285Y-100347676D01*
X175964285Y-100347676D02*
X176059523Y-100442914D01*
X176059523Y-100442914D02*
X176154761Y-100490533D01*
X189142857Y-79359580D02*
X189190476Y-79407200D01*
X189190476Y-79407200D02*
X189333333Y-79454819D01*
X189333333Y-79454819D02*
X189428571Y-79454819D01*
X189428571Y-79454819D02*
X189571428Y-79407200D01*
X189571428Y-79407200D02*
X189666666Y-79311961D01*
X189666666Y-79311961D02*
X189714285Y-79216723D01*
X189714285Y-79216723D02*
X189761904Y-79026247D01*
X189761904Y-79026247D02*
X189761904Y-78883390D01*
X189761904Y-78883390D02*
X189714285Y-78692914D01*
X189714285Y-78692914D02*
X189666666Y-78597676D01*
X189666666Y-78597676D02*
X189571428Y-78502438D01*
X189571428Y-78502438D02*
X189428571Y-78454819D01*
X189428571Y-78454819D02*
X189333333Y-78454819D01*
X189333333Y-78454819D02*
X189190476Y-78502438D01*
X189190476Y-78502438D02*
X189142857Y-78550057D01*
X188761904Y-78550057D02*
X188714285Y-78502438D01*
X188714285Y-78502438D02*
X188619047Y-78454819D01*
X188619047Y-78454819D02*
X188380952Y-78454819D01*
X188380952Y-78454819D02*
X188285714Y-78502438D01*
X188285714Y-78502438D02*
X188238095Y-78550057D01*
X188238095Y-78550057D02*
X188190476Y-78645295D01*
X188190476Y-78645295D02*
X188190476Y-78740533D01*
X188190476Y-78740533D02*
X188238095Y-78883390D01*
X188238095Y-78883390D02*
X188809523Y-79454819D01*
X188809523Y-79454819D02*
X188190476Y-79454819D01*
X187714285Y-79454819D02*
X187523809Y-79454819D01*
X187523809Y-79454819D02*
X187428571Y-79407200D01*
X187428571Y-79407200D02*
X187380952Y-79359580D01*
X187380952Y-79359580D02*
X187285714Y-79216723D01*
X187285714Y-79216723D02*
X187238095Y-79026247D01*
X187238095Y-79026247D02*
X187238095Y-78645295D01*
X187238095Y-78645295D02*
X187285714Y-78550057D01*
X187285714Y-78550057D02*
X187333333Y-78502438D01*
X187333333Y-78502438D02*
X187428571Y-78454819D01*
X187428571Y-78454819D02*
X187619047Y-78454819D01*
X187619047Y-78454819D02*
X187714285Y-78502438D01*
X187714285Y-78502438D02*
X187761904Y-78550057D01*
X187761904Y-78550057D02*
X187809523Y-78645295D01*
X187809523Y-78645295D02*
X187809523Y-78883390D01*
X187809523Y-78883390D02*
X187761904Y-78978628D01*
X187761904Y-78978628D02*
X187714285Y-79026247D01*
X187714285Y-79026247D02*
X187619047Y-79073866D01*
X187619047Y-79073866D02*
X187428571Y-79073866D01*
X187428571Y-79073866D02*
X187333333Y-79026247D01*
X187333333Y-79026247D02*
X187285714Y-78978628D01*
X187285714Y-78978628D02*
X187238095Y-78883390D01*
X181142857Y-135609580D02*
X181190476Y-135657200D01*
X181190476Y-135657200D02*
X181333333Y-135704819D01*
X181333333Y-135704819D02*
X181428571Y-135704819D01*
X181428571Y-135704819D02*
X181571428Y-135657200D01*
X181571428Y-135657200D02*
X181666666Y-135561961D01*
X181666666Y-135561961D02*
X181714285Y-135466723D01*
X181714285Y-135466723D02*
X181761904Y-135276247D01*
X181761904Y-135276247D02*
X181761904Y-135133390D01*
X181761904Y-135133390D02*
X181714285Y-134942914D01*
X181714285Y-134942914D02*
X181666666Y-134847676D01*
X181666666Y-134847676D02*
X181571428Y-134752438D01*
X181571428Y-134752438D02*
X181428571Y-134704819D01*
X181428571Y-134704819D02*
X181333333Y-134704819D01*
X181333333Y-134704819D02*
X181190476Y-134752438D01*
X181190476Y-134752438D02*
X181142857Y-134800057D01*
X180761904Y-134800057D02*
X180714285Y-134752438D01*
X180714285Y-134752438D02*
X180619047Y-134704819D01*
X180619047Y-134704819D02*
X180380952Y-134704819D01*
X180380952Y-134704819D02*
X180285714Y-134752438D01*
X180285714Y-134752438D02*
X180238095Y-134800057D01*
X180238095Y-134800057D02*
X180190476Y-134895295D01*
X180190476Y-134895295D02*
X180190476Y-134990533D01*
X180190476Y-134990533D02*
X180238095Y-135133390D01*
X180238095Y-135133390D02*
X180809523Y-135704819D01*
X180809523Y-135704819D02*
X180190476Y-135704819D01*
X179333333Y-135038152D02*
X179333333Y-135704819D01*
X179571428Y-134657200D02*
X179809523Y-135371485D01*
X179809523Y-135371485D02*
X179190476Y-135371485D01*
X137142857Y-95359580D02*
X137190476Y-95407200D01*
X137190476Y-95407200D02*
X137333333Y-95454819D01*
X137333333Y-95454819D02*
X137428571Y-95454819D01*
X137428571Y-95454819D02*
X137571428Y-95407200D01*
X137571428Y-95407200D02*
X137666666Y-95311961D01*
X137666666Y-95311961D02*
X137714285Y-95216723D01*
X137714285Y-95216723D02*
X137761904Y-95026247D01*
X137761904Y-95026247D02*
X137761904Y-94883390D01*
X137761904Y-94883390D02*
X137714285Y-94692914D01*
X137714285Y-94692914D02*
X137666666Y-94597676D01*
X137666666Y-94597676D02*
X137571428Y-94502438D01*
X137571428Y-94502438D02*
X137428571Y-94454819D01*
X137428571Y-94454819D02*
X137333333Y-94454819D01*
X137333333Y-94454819D02*
X137190476Y-94502438D01*
X137190476Y-94502438D02*
X137142857Y-94550057D01*
X136761904Y-94550057D02*
X136714285Y-94502438D01*
X136714285Y-94502438D02*
X136619047Y-94454819D01*
X136619047Y-94454819D02*
X136380952Y-94454819D01*
X136380952Y-94454819D02*
X136285714Y-94502438D01*
X136285714Y-94502438D02*
X136238095Y-94550057D01*
X136238095Y-94550057D02*
X136190476Y-94645295D01*
X136190476Y-94645295D02*
X136190476Y-94740533D01*
X136190476Y-94740533D02*
X136238095Y-94883390D01*
X136238095Y-94883390D02*
X136809523Y-95454819D01*
X136809523Y-95454819D02*
X136190476Y-95454819D01*
X135857142Y-94454819D02*
X135238095Y-94454819D01*
X135238095Y-94454819D02*
X135571428Y-94835771D01*
X135571428Y-94835771D02*
X135428571Y-94835771D01*
X135428571Y-94835771D02*
X135333333Y-94883390D01*
X135333333Y-94883390D02*
X135285714Y-94931009D01*
X135285714Y-94931009D02*
X135238095Y-95026247D01*
X135238095Y-95026247D02*
X135238095Y-95264342D01*
X135238095Y-95264342D02*
X135285714Y-95359580D01*
X135285714Y-95359580D02*
X135333333Y-95407200D01*
X135333333Y-95407200D02*
X135428571Y-95454819D01*
X135428571Y-95454819D02*
X135714285Y-95454819D01*
X135714285Y-95454819D02*
X135809523Y-95407200D01*
X135809523Y-95407200D02*
X135857142Y-95359580D01*
X174642857Y-125859580D02*
X174690476Y-125907200D01*
X174690476Y-125907200D02*
X174833333Y-125954819D01*
X174833333Y-125954819D02*
X174928571Y-125954819D01*
X174928571Y-125954819D02*
X175071428Y-125907200D01*
X175071428Y-125907200D02*
X175166666Y-125811961D01*
X175166666Y-125811961D02*
X175214285Y-125716723D01*
X175214285Y-125716723D02*
X175261904Y-125526247D01*
X175261904Y-125526247D02*
X175261904Y-125383390D01*
X175261904Y-125383390D02*
X175214285Y-125192914D01*
X175214285Y-125192914D02*
X175166666Y-125097676D01*
X175166666Y-125097676D02*
X175071428Y-125002438D01*
X175071428Y-125002438D02*
X174928571Y-124954819D01*
X174928571Y-124954819D02*
X174833333Y-124954819D01*
X174833333Y-124954819D02*
X174690476Y-125002438D01*
X174690476Y-125002438D02*
X174642857Y-125050057D01*
X173690476Y-125954819D02*
X174261904Y-125954819D01*
X173976190Y-125954819D02*
X173976190Y-124954819D01*
X173976190Y-124954819D02*
X174071428Y-125097676D01*
X174071428Y-125097676D02*
X174166666Y-125192914D01*
X174166666Y-125192914D02*
X174261904Y-125240533D01*
X173119047Y-125383390D02*
X173214285Y-125335771D01*
X173214285Y-125335771D02*
X173261904Y-125288152D01*
X173261904Y-125288152D02*
X173309523Y-125192914D01*
X173309523Y-125192914D02*
X173309523Y-125145295D01*
X173309523Y-125145295D02*
X173261904Y-125050057D01*
X173261904Y-125050057D02*
X173214285Y-125002438D01*
X173214285Y-125002438D02*
X173119047Y-124954819D01*
X173119047Y-124954819D02*
X172928571Y-124954819D01*
X172928571Y-124954819D02*
X172833333Y-125002438D01*
X172833333Y-125002438D02*
X172785714Y-125050057D01*
X172785714Y-125050057D02*
X172738095Y-125145295D01*
X172738095Y-125145295D02*
X172738095Y-125192914D01*
X172738095Y-125192914D02*
X172785714Y-125288152D01*
X172785714Y-125288152D02*
X172833333Y-125335771D01*
X172833333Y-125335771D02*
X172928571Y-125383390D01*
X172928571Y-125383390D02*
X173119047Y-125383390D01*
X173119047Y-125383390D02*
X173214285Y-125431009D01*
X173214285Y-125431009D02*
X173261904Y-125478628D01*
X173261904Y-125478628D02*
X173309523Y-125573866D01*
X173309523Y-125573866D02*
X173309523Y-125764342D01*
X173309523Y-125764342D02*
X173261904Y-125859580D01*
X173261904Y-125859580D02*
X173214285Y-125907200D01*
X173214285Y-125907200D02*
X173119047Y-125954819D01*
X173119047Y-125954819D02*
X172928571Y-125954819D01*
X172928571Y-125954819D02*
X172833333Y-125907200D01*
X172833333Y-125907200D02*
X172785714Y-125859580D01*
X172785714Y-125859580D02*
X172738095Y-125764342D01*
X172738095Y-125764342D02*
X172738095Y-125573866D01*
X172738095Y-125573866D02*
X172785714Y-125478628D01*
X172785714Y-125478628D02*
X172833333Y-125431009D01*
X172833333Y-125431009D02*
X172928571Y-125383390D01*
X174666666Y-127954819D02*
X174999999Y-127478628D01*
X175238094Y-127954819D02*
X175238094Y-126954819D01*
X175238094Y-126954819D02*
X174857142Y-126954819D01*
X174857142Y-126954819D02*
X174761904Y-127002438D01*
X174761904Y-127002438D02*
X174714285Y-127050057D01*
X174714285Y-127050057D02*
X174666666Y-127145295D01*
X174666666Y-127145295D02*
X174666666Y-127288152D01*
X174666666Y-127288152D02*
X174714285Y-127383390D01*
X174714285Y-127383390D02*
X174761904Y-127431009D01*
X174761904Y-127431009D02*
X174857142Y-127478628D01*
X174857142Y-127478628D02*
X175238094Y-127478628D01*
X173761904Y-126954819D02*
X174238094Y-126954819D01*
X174238094Y-126954819D02*
X174285713Y-127431009D01*
X174285713Y-127431009D02*
X174238094Y-127383390D01*
X174238094Y-127383390D02*
X174142856Y-127335771D01*
X174142856Y-127335771D02*
X173904761Y-127335771D01*
X173904761Y-127335771D02*
X173809523Y-127383390D01*
X173809523Y-127383390D02*
X173761904Y-127431009D01*
X173761904Y-127431009D02*
X173714285Y-127526247D01*
X173714285Y-127526247D02*
X173714285Y-127764342D01*
X173714285Y-127764342D02*
X173761904Y-127859580D01*
X173761904Y-127859580D02*
X173809523Y-127907200D01*
X173809523Y-127907200D02*
X173904761Y-127954819D01*
X173904761Y-127954819D02*
X174142856Y-127954819D01*
X174142856Y-127954819D02*
X174238094Y-127907200D01*
X174238094Y-127907200D02*
X174285713Y-127859580D01*
X136333333Y-106754819D02*
X136333333Y-107469104D01*
X136333333Y-107469104D02*
X136380952Y-107611961D01*
X136380952Y-107611961D02*
X136476190Y-107707200D01*
X136476190Y-107707200D02*
X136619047Y-107754819D01*
X136619047Y-107754819D02*
X136714285Y-107754819D01*
X135857142Y-107754819D02*
X135857142Y-106754819D01*
X135857142Y-106754819D02*
X135476190Y-106754819D01*
X135476190Y-106754819D02*
X135380952Y-106802438D01*
X135380952Y-106802438D02*
X135333333Y-106850057D01*
X135333333Y-106850057D02*
X135285714Y-106945295D01*
X135285714Y-106945295D02*
X135285714Y-107088152D01*
X135285714Y-107088152D02*
X135333333Y-107183390D01*
X135333333Y-107183390D02*
X135380952Y-107231009D01*
X135380952Y-107231009D02*
X135476190Y-107278628D01*
X135476190Y-107278628D02*
X135857142Y-107278628D01*
X134952380Y-106754819D02*
X134333333Y-106754819D01*
X134333333Y-106754819D02*
X134666666Y-107135771D01*
X134666666Y-107135771D02*
X134523809Y-107135771D01*
X134523809Y-107135771D02*
X134428571Y-107183390D01*
X134428571Y-107183390D02*
X134380952Y-107231009D01*
X134380952Y-107231009D02*
X134333333Y-107326247D01*
X134333333Y-107326247D02*
X134333333Y-107564342D01*
X134333333Y-107564342D02*
X134380952Y-107659580D01*
X134380952Y-107659580D02*
X134428571Y-107707200D01*
X134428571Y-107707200D02*
X134523809Y-107754819D01*
X134523809Y-107754819D02*
X134809523Y-107754819D01*
X134809523Y-107754819D02*
X134904761Y-107707200D01*
X134904761Y-107707200D02*
X134952380Y-107659580D01*
X132833333Y-98254819D02*
X132833333Y-98969104D01*
X132833333Y-98969104D02*
X132880952Y-99111961D01*
X132880952Y-99111961D02*
X132976190Y-99207200D01*
X132976190Y-99207200D02*
X133119047Y-99254819D01*
X133119047Y-99254819D02*
X133214285Y-99254819D01*
X132357142Y-99254819D02*
X132357142Y-98254819D01*
X132357142Y-98254819D02*
X131976190Y-98254819D01*
X131976190Y-98254819D02*
X131880952Y-98302438D01*
X131880952Y-98302438D02*
X131833333Y-98350057D01*
X131833333Y-98350057D02*
X131785714Y-98445295D01*
X131785714Y-98445295D02*
X131785714Y-98588152D01*
X131785714Y-98588152D02*
X131833333Y-98683390D01*
X131833333Y-98683390D02*
X131880952Y-98731009D01*
X131880952Y-98731009D02*
X131976190Y-98778628D01*
X131976190Y-98778628D02*
X132357142Y-98778628D01*
X131404761Y-98350057D02*
X131357142Y-98302438D01*
X131357142Y-98302438D02*
X131261904Y-98254819D01*
X131261904Y-98254819D02*
X131023809Y-98254819D01*
X131023809Y-98254819D02*
X130928571Y-98302438D01*
X130928571Y-98302438D02*
X130880952Y-98350057D01*
X130880952Y-98350057D02*
X130833333Y-98445295D01*
X130833333Y-98445295D02*
X130833333Y-98540533D01*
X130833333Y-98540533D02*
X130880952Y-98683390D01*
X130880952Y-98683390D02*
X131452380Y-99254819D01*
X131452380Y-99254819D02*
X130833333Y-99254819D01*
D12*
%TO.C,C4*%
X173515000Y-99238748D02*
X173515000Y-99761252D01*
X174985000Y-99238748D02*
X174985000Y-99761252D01*
%TO.C,R40*%
X148265000Y-98022936D02*
X148265000Y-98477064D01*
X149735000Y-98022936D02*
X149735000Y-98477064D01*
%TO.C,C26*%
X168161252Y-81315000D02*
X167638748Y-81315000D01*
X168161252Y-82785000D02*
X167638748Y-82785000D01*
%TO.C,C39*%
X165761252Y-90265000D02*
X165238748Y-90265000D01*
X165761252Y-91735000D02*
X165238748Y-91735000D01*
%TO.C,C17*%
X184435984Y-81475431D02*
X184805451Y-81844898D01*
X185475431Y-80435984D02*
X185844898Y-80805451D01*
%TO.C,R15*%
X162622936Y-81316052D02*
X163077064Y-81316052D01*
X162622936Y-82786052D02*
X163077064Y-82786052D01*
%TO.C,C5*%
X191665010Y-88704457D02*
X191295543Y-88334990D01*
X192704457Y-87665010D02*
X192334990Y-87295543D01*
%TO.C,R16*%
X165272936Y-92265000D02*
X165727064Y-92265000D01*
X165272936Y-93735000D02*
X165727064Y-93735000D01*
%TO.C,C27*%
X157488748Y-81315000D02*
X158011252Y-81315000D01*
X157488748Y-82785000D02*
X158011252Y-82785000D01*
%TO.C,JP4*%
X157750000Y-122100000D02*
X157750000Y-124900000D01*
X157750000Y-124900000D02*
X159750000Y-124900000D01*
X159750000Y-122100000D02*
X157750000Y-122100000D01*
X159750000Y-124900000D02*
X159750000Y-122100000D01*
%TO.C,R4*%
X187919718Y-84981842D02*
X188240835Y-85302959D01*
X188959165Y-83942395D02*
X189280282Y-84263512D01*
%TO.C,R9*%
X184272936Y-136515000D02*
X184727064Y-136515000D01*
X184272936Y-137985000D02*
X184727064Y-137985000D01*
%TO.C,R10*%
X190265000Y-76227064D02*
X190265000Y-75772936D01*
X191735000Y-76227064D02*
X191735000Y-75772936D01*
%TO.C,JP1*%
X173750000Y-102250000D02*
X173750000Y-104250000D01*
X173750000Y-104250000D02*
X176550000Y-104250000D01*
X176550000Y-102250000D02*
X173750000Y-102250000D01*
X176550000Y-104250000D02*
X176550000Y-102250000D01*
%TO.C,C29*%
X188265000Y-76261252D02*
X188265000Y-75738748D01*
X189735000Y-76261252D02*
X189735000Y-75738748D01*
%TO.C,C24*%
X184238748Y-134515000D02*
X184761252Y-134515000D01*
X184238748Y-135985000D02*
X184761252Y-135985000D01*
%TO.C,C23*%
X136204348Y-96258100D02*
X136726852Y-96258100D01*
X136204348Y-97728100D02*
X136726852Y-97728100D01*
%TO.C,C18*%
X178210452Y-124705000D02*
X177687948Y-124705000D01*
X178210452Y-126175000D02*
X177687948Y-126175000D01*
%TO.C,R5*%
X177722136Y-126705000D02*
X178176264Y-126705000D01*
X177722136Y-128175000D02*
X178176264Y-128175000D01*
%TO.C,JP3*%
X134100000Y-104500000D02*
X134100000Y-106500000D01*
X134100000Y-106500000D02*
X136900000Y-106500000D01*
X136900000Y-104500000D02*
X134100000Y-104500000D01*
X136900000Y-106500000D02*
X136900000Y-104500000D01*
%TO.C,JP2*%
X130600000Y-96000000D02*
X130600000Y-98000000D01*
X130600000Y-98000000D02*
X133400000Y-98000000D01*
X133400000Y-96000000D02*
X130600000Y-96000000D01*
X133400000Y-98000000D02*
X133400000Y-96000000D01*
%TO.C,JP5*%
X150450000Y-122500000D02*
X150450000Y-124500000D01*
X150450000Y-124500000D02*
X153250000Y-124500000D01*
X153250000Y-122500000D02*
X150450000Y-122500000D01*
X153250000Y-124500000D02*
X153250000Y-122500000D01*
%TD*%
M02*
