%TF.GenerationSoftware,KiCad,Pcbnew,9.0.2*%
%TF.CreationDate,2026-03-31T12:46:09+08:00*%
%TF.ProjectId,SSRU_v3.3,53535255-5f76-4332-9e33-2e6b69636164,rev?*%
%TF.SameCoordinates,Original*%
%TF.FileFunction,Copper,L2,Bot*%
%TF.FilePolarity,Positive*%
%FSLAX46Y46*%
G04 Gerber Fmt 4.6, Leading zero omitted, Abs format (unit mm)*
G04 Created by KiCad (PCBNEW 9.0.2) date 2026-03-31 12:46:09*
%MOMM*%
%LPD*%
G01*
G04 APERTURE LIST*
G04 Aperture macros list*
%AMRoundRect*
0 Rectangle with rounded corners*
0 $1 Rounding radius*
0 $2 $3 $4 $5 $6 $7 $8 $9 X,Y pos of 4 corners*
0 Add a 4 corners polygon primitive as box body*
4,1,4,$2,$3,$4,$5,$6,$7,$8,$9,$2,$3,0*
0 Add four circle primitives for the rounded corners*
1,1,$1+$1,$2,$3*
1,1,$1+$1,$4,$5*
1,1,$1+$1,$6,$7*
1,1,$1+$1,$8,$9*
0 Add four rect primitives between the rounded corners*
20,1,$1+$1,$2,$3,$4,$5,0*
20,1,$1+$1,$4,$5,$6,$7,0*
20,1,$1+$1,$6,$7,$8,$9,0*
20,1,$1+$1,$8,$9,$2,$3,0*%
G04 Aperture macros list end*
%TA.AperFunction,ComponentPad*%
%ADD10R,2.000000X1.600000*%
%TD*%
%TA.AperFunction,ComponentPad*%
%ADD11O,3.000000X1.600000*%
%TD*%
%TA.AperFunction,ComponentPad*%
%ADD12C,2.600000*%
%TD*%
%TA.AperFunction,ComponentPad*%
%ADD13C,5.500000*%
%TD*%
%TA.AperFunction,ComponentPad*%
%ADD14R,2.000000X2.000000*%
%TD*%
%TA.AperFunction,ComponentPad*%
%ADD15C,2.000000*%
%TD*%
%TA.AperFunction,ComponentPad*%
%ADD16C,2.400000*%
%TD*%
%TA.AperFunction,ComponentPad*%
%ADD17R,1.600000X2.000000*%
%TD*%
%TA.AperFunction,ComponentPad*%
%ADD18O,1.600000X3.000000*%
%TD*%
%TA.AperFunction,SMDPad,CuDef*%
%ADD19RoundRect,0.305575X-0.412525X0.460025X-0.412525X-0.460025X0.412525X-0.460025X0.412525X0.460025X0*%
%TD*%
%TA.AperFunction,SMDPad,CuDef*%
%ADD20RoundRect,0.308511X-0.416489X0.457089X-0.416489X-0.457089X0.416489X-0.457089X0.416489X0.457089X0*%
%TD*%
%TA.AperFunction,SMDPad,CuDef*%
%ADD21RoundRect,0.278125X-0.389375X0.474375X-0.389375X-0.474375X0.389375X-0.474375X0.389375X0.474375X0*%
%TD*%
%TA.AperFunction,SMDPad,CuDef*%
%ADD22RoundRect,0.305575X0.460025X0.412525X-0.460025X0.412525X-0.460025X-0.412525X0.460025X-0.412525X0*%
%TD*%
%TA.AperFunction,SMDPad,CuDef*%
%ADD23RoundRect,0.308511X0.457089X0.416489X-0.457089X0.416489X-0.457089X-0.416489X0.457089X-0.416489X0*%
%TD*%
%TA.AperFunction,SMDPad,CuDef*%
%ADD24RoundRect,0.305575X-0.616986X0.033588X0.033588X-0.616986X0.616986X-0.033588X-0.033588X0.616986X0*%
%TD*%
%TA.AperFunction,SMDPad,CuDef*%
%ADD25RoundRect,0.308511X-0.617713X0.028709X0.028709X-0.617713X0.617713X-0.028709X-0.028709X0.617713X0*%
%TD*%
%TA.AperFunction,SMDPad,CuDef*%
%ADD26RoundRect,0.278125X-0.474375X-0.389375X0.474375X-0.389375X0.474375X0.389375X-0.474375X0.389375X0*%
%TD*%
%TA.AperFunction,SMDPad,CuDef*%
%ADD27RoundRect,0.305575X0.616986X-0.033588X-0.033588X0.616986X-0.616986X0.033588X0.033588X-0.616986X0*%
%TD*%
%TA.AperFunction,SMDPad,CuDef*%
%ADD28RoundRect,0.308511X0.617713X-0.028709X-0.028709X0.617713X-0.617713X0.028709X0.028709X-0.617713X0*%
%TD*%
%TA.AperFunction,SMDPad,CuDef*%
%ADD29RoundRect,0.305575X-0.460025X-0.412525X0.460025X-0.412525X0.460025X0.412525X-0.460025X0.412525X0*%
%TD*%
%TA.AperFunction,SMDPad,CuDef*%
%ADD30RoundRect,0.308511X-0.457089X-0.416489X0.457089X-0.416489X0.457089X0.416489X-0.457089X0.416489X0*%
%TD*%
%TA.AperFunction,SMDPad,CuDef*%
%ADD31R,1.500000X1.000000*%
%TD*%
%TA.AperFunction,SMDPad,CuDef*%
%ADD32RoundRect,0.278125X-0.610763X0.060104X0.060104X-0.610763X0.610763X-0.060104X-0.060104X0.610763X0*%
%TD*%
%TA.AperFunction,SMDPad,CuDef*%
%ADD33RoundRect,0.278125X0.389375X-0.474375X0.389375X0.474375X-0.389375X0.474375X-0.389375X-0.474375X0*%
%TD*%
%TA.AperFunction,SMDPad,CuDef*%
%ADD34R,1.000000X1.500000*%
%TD*%
%TA.AperFunction,SMDPad,CuDef*%
%ADD35RoundRect,0.305575X0.412525X-0.460025X0.412525X0.460025X-0.412525X0.460025X-0.412525X-0.460025X0*%
%TD*%
%TA.AperFunction,SMDPad,CuDef*%
%ADD36RoundRect,0.308511X0.416489X-0.457089X0.416489X0.457089X-0.416489X0.457089X-0.416489X-0.457089X0*%
%TD*%
%TA.AperFunction,ViaPad*%
%ADD37C,0.600000*%
%TD*%
%TA.AperFunction,ViaPad*%
%ADD38C,1.000000*%
%TD*%
%TA.AperFunction,ViaPad*%
%ADD39C,0.800000*%
%TD*%
%TA.AperFunction,Conductor*%
%ADD40C,0.500000*%
%TD*%
%TA.AperFunction,Conductor*%
%ADD41C,1.000000*%
%TD*%
%TA.AperFunction,Conductor*%
%ADD42C,0.250000*%
%TD*%
%TA.AperFunction,Conductor*%
%ADD43C,0.200000*%
%TD*%
G04 APERTURE END LIST*
D10*
%TO.P,C7,1*%
%TO.N,+12V*%
X124550000Y-84600000D03*
D11*
%TO.P,C7,2*%
%TO.N,GND*%
X127550000Y-84600000D03*
%TD*%
D12*
%TO.P,J2,1,Pin_1*%
%TO.N,+12V*%
X118375000Y-88020000D03*
%TO.P,J2,2,Pin_2*%
%TO.N,CAN1+*%
X118375000Y-92170000D03*
%TO.P,J2,3,Pin_3*%
%TO.N,+5V*%
X118375000Y-95500000D03*
%TO.P,J2,4,Pin_4*%
X118375000Y-98830000D03*
%TO.P,J2,5,Pin_5*%
X118375000Y-102135000D03*
%TO.P,J2,6,Pin_6*%
X118375000Y-105490000D03*
%TO.P,J2,7,Pin_7*%
X118375000Y-108820000D03*
%TO.P,J2,8,Pin_8*%
%TO.N,DS18B20*%
X118375000Y-112970000D03*
%TO.P,J2,9,Pin_9*%
%TO.N,+5V*%
X114175000Y-88020000D03*
%TO.P,J2,10,Pin_10*%
%TO.N,CAN1-*%
X114175000Y-92170000D03*
%TO.P,J2,11,Pin_11*%
%TO.N,I2C+*%
X114175000Y-95500000D03*
%TO.P,J2,12,Pin_12*%
%TO.N,POT1_IN*%
X114175000Y-98830000D03*
%TO.P,J2,13,Pin_13*%
%TO.N,POT2_IN*%
X114175000Y-102135000D03*
%TO.P,J2,14,Pin_14*%
%TO.N,FLOW_IN*%
X114175000Y-105490000D03*
%TO.P,J2,15,Pin_15*%
%TO.N,PUMP_NTC_50k_IN*%
X114175000Y-108820000D03*
%TO.P,J2,16,Pin_16*%
%TO.N,GND*%
X114175000Y-112970000D03*
%TO.P,J2,17,Pin_17*%
%TO.N,+5V*%
X109975000Y-88020000D03*
%TO.P,J2,18,Pin_18*%
%TO.N,GND*%
X109975000Y-92170000D03*
%TO.P,J2,19,Pin_19*%
%TO.N,I2C-*%
X109975000Y-95500000D03*
%TO.P,J2,20,Pin_20*%
%TO.N,GND*%
X109975000Y-98830000D03*
%TO.P,J2,21,Pin_21*%
X109975000Y-102135000D03*
%TO.P,J2,22,Pin_22*%
X109975000Y-105490000D03*
%TO.P,J2,23,Pin_23*%
%TO.N,DICK_IN*%
X109975000Y-108820000D03*
%TO.P,J2,24,Pin_24*%
%TO.N,GND*%
X109975000Y-112970000D03*
%TD*%
D13*
%TO.P,H2,1,1*%
%TO.N,GND2*%
X189967641Y-132097800D03*
%TD*%
D14*
%TO.P,J4,1,MISO*%
%TO.N,MISO*%
X173250000Y-107750000D03*
D15*
%TO.P,J4,2,VCC*%
%TO.N,+5V*%
X175790000Y-107750000D03*
%TO.P,J4,3,SCK*%
%TO.N,SCK*%
X173250000Y-110290000D03*
%TO.P,J4,4,MOSI*%
%TO.N,MOSI*%
X175790000Y-110290000D03*
%TO.P,J4,5,~{RST}*%
%TO.N,RST*%
X173250000Y-112830000D03*
%TO.P,J4,6,GND*%
%TO.N,GND*%
X175790000Y-112830000D03*
%TD*%
%TO.P,SW1,1,1*%
%TO.N,GND*%
X180199200Y-123090000D03*
X180199200Y-129590000D03*
%TO.P,SW1,2,2*%
%TO.N,RST*%
X175699200Y-123090000D03*
X175699200Y-129590000D03*
%TD*%
D16*
%TO.P,Y4,1,1*%
%TO.N,Net-(U6-OSC2)*%
X164743282Y-84500000D03*
%TO.P,Y4,2,2*%
%TO.N,Net-(U6-OSC1)*%
X159663282Y-84500000D03*
%TD*%
%TO.P,Y1,1,1*%
%TO.N,XTAL2*%
X184867589Y-84890266D03*
%TO.P,Y1,2,2*%
%TO.N,XTAL1*%
X188459691Y-88482368D03*
%TD*%
D13*
%TO.P,H1,1,1*%
%TO.N,GND1*%
X189967641Y-70597800D03*
%TD*%
D17*
%TO.P,C11,1*%
%TO.N,Net-(U4-FB)*%
X147500000Y-68750000D03*
D18*
%TO.P,C11,2*%
%TO.N,GND*%
X147500000Y-65750000D03*
%TD*%
D19*
%TO.P,C4,1*%
%TO.N,GND*%
X174243100Y-98284400D03*
D20*
%TO.P,C4,2*%
%TO.N,Net-(JP1-B)*%
X174250000Y-100715600D03*
%TD*%
D21*
%TO.P,R40,1*%
%TO.N,+5V*%
X148967500Y-97097500D03*
%TO.P,R40,2*%
%TO.N,DS18B20*%
X148967500Y-99402500D03*
%TD*%
D22*
%TO.P,C26,1*%
%TO.N,GND*%
X169115600Y-82043100D03*
D23*
%TO.P,C26,2*%
%TO.N,Net-(U6-OSC2)*%
X166684400Y-82050000D03*
%TD*%
D22*
%TO.P,C39,1*%
%TO.N,GND*%
X166715600Y-90993100D03*
D23*
%TO.P,C39,2*%
%TO.N,+5V*%
X164284400Y-91000000D03*
%TD*%
D24*
%TO.P,C17,1*%
%TO.N,GND*%
X184276003Y-80285761D03*
D25*
%TO.P,C17,2*%
%TO.N,XTAL2*%
X186000000Y-82000000D03*
%TD*%
D26*
%TO.P,R15,1*%
%TO.N,Net-(U6-OSC1)*%
X161697500Y-82083552D03*
%TO.P,R15,2*%
%TO.N,Net-(U6-OSC2)*%
X164002500Y-82083552D03*
%TD*%
D27*
%TO.P,C5,1*%
%TO.N,GND*%
X192864438Y-88854680D03*
D28*
%TO.P,C5,2*%
%TO.N,XTAL1*%
X191140441Y-87140441D03*
%TD*%
D26*
%TO.P,R16,1*%
%TO.N,Net-(U6-~{RESET})*%
X164347500Y-93032500D03*
%TO.P,R16,2*%
%TO.N,+5V*%
X166652500Y-93032500D03*
%TD*%
D29*
%TO.P,C27,1*%
%TO.N,GND*%
X156534400Y-82056900D03*
D30*
%TO.P,C27,2*%
%TO.N,Net-(U6-OSC1)*%
X158965600Y-82050000D03*
%TD*%
D31*
%TO.P,JP4,1,A*%
%TO.N,DICK_IN*%
X158750000Y-122850000D03*
%TO.P,JP4,2,B*%
%TO.N,DICK_OUT*%
X158750000Y-124150000D03*
%TD*%
D32*
%TO.P,R4,1*%
%TO.N,XTAL2*%
X187762078Y-83830717D03*
%TO.P,R4,2*%
%TO.N,XTAL1*%
X189391960Y-85460599D03*
%TD*%
D26*
%TO.P,R9,1*%
%TO.N,GND*%
X183347500Y-137282500D03*
%TO.P,R9,2*%
%TO.N,GND2*%
X185652500Y-137282500D03*
%TD*%
D33*
%TO.P,R10,1*%
%TO.N,GND*%
X191032500Y-77152500D03*
%TO.P,R10,2*%
%TO.N,GND1*%
X191032500Y-74847500D03*
%TD*%
D34*
%TO.P,JP1,1,A*%
%TO.N,+5V*%
X175800000Y-103250000D03*
%TO.P,JP1,2,B*%
%TO.N,Net-(JP1-B)*%
X174500000Y-103250000D03*
%TD*%
D35*
%TO.P,C29,1*%
%TO.N,GND*%
X189006900Y-77215600D03*
D36*
%TO.P,C29,2*%
%TO.N,GND1*%
X189000000Y-74784400D03*
%TD*%
D29*
%TO.P,C24,1*%
%TO.N,GND*%
X183284400Y-135256900D03*
D30*
%TO.P,C24,2*%
%TO.N,GND2*%
X185715600Y-135250000D03*
%TD*%
D29*
%TO.P,C23,1*%
%TO.N,GND*%
X135250000Y-97000000D03*
D30*
%TO.P,C23,2*%
%TO.N,+5V*%
X137681200Y-96993100D03*
%TD*%
D22*
%TO.P,C18,1*%
%TO.N,GND*%
X179164800Y-125433100D03*
D23*
%TO.P,C18,2*%
%TO.N,RST*%
X176733600Y-125440000D03*
%TD*%
D26*
%TO.P,R5,1*%
%TO.N,RST*%
X176796700Y-127472500D03*
%TO.P,R5,2*%
%TO.N,+5V*%
X179101700Y-127472500D03*
%TD*%
D34*
%TO.P,JP3,1,A*%
%TO.N,POT2_IN*%
X134850000Y-105500000D03*
%TO.P,JP3,2,B*%
%TO.N,POT2_OUT*%
X136150000Y-105500000D03*
%TD*%
%TO.P,JP2,1,A*%
%TO.N,POT1_IN*%
X131350000Y-97000000D03*
%TO.P,JP2,2,B*%
%TO.N,POT1_OUT*%
X132650000Y-97000000D03*
%TD*%
%TO.P,JP5,1,A*%
%TO.N,PUMP_NTC_50k_IN*%
X152500000Y-123500000D03*
%TO.P,JP5,2,B*%
%TO.N,PUMP_NTC_50k_OUT*%
X151200000Y-123500000D03*
%TD*%
D37*
%TO.N,DS18B20*%
X160000000Y-95500000D03*
%TO.N,+5V*%
X166652500Y-93032500D03*
X167500000Y-127500000D03*
X157000000Y-91500000D03*
X159000000Y-91500000D03*
X179101700Y-127472500D03*
X180302944Y-95000000D03*
X158000000Y-91500000D03*
X137681200Y-96993100D03*
D38*
X153215600Y-88006900D03*
D37*
%TO.N,DS18B20*%
X149000000Y-113000000D03*
X175750000Y-90250000D03*
X148967500Y-99402500D03*
%TO.N,RST*%
X173250000Y-120500000D03*
X186200520Y-100599480D03*
D39*
%TO.N,GND*%
X117000000Y-75000000D03*
D37*
X127256900Y-96784400D03*
D39*
X119000000Y-75000000D03*
X112000000Y-74000000D03*
D37*
X135467500Y-84125000D03*
D39*
X116000000Y-76000000D03*
X115000000Y-66000000D03*
X120000000Y-75000000D03*
X112000000Y-68000000D03*
D37*
X177000000Y-102000000D03*
D39*
X113000000Y-66000000D03*
X114000000Y-67000000D03*
D37*
X182500000Y-88000000D03*
X142681200Y-103006900D03*
D39*
X116000000Y-66000000D03*
D37*
X116250000Y-104500000D03*
D39*
X118000000Y-75000000D03*
X117000000Y-67000000D03*
X112000000Y-70000000D03*
X113000000Y-69000000D03*
D37*
X185500000Y-91000000D03*
D39*
X113000000Y-70000000D03*
D37*
X188500000Y-92000000D03*
X177000000Y-104750000D03*
X135250000Y-97000000D03*
D39*
X120000000Y-67000000D03*
X116000000Y-75000000D03*
D37*
X183347500Y-137282500D03*
X182000000Y-95000000D03*
D39*
X119000000Y-66000000D03*
X112000000Y-66000000D03*
X112000000Y-71000000D03*
D37*
X152000000Y-93905000D03*
X156534400Y-82056900D03*
D39*
X117000000Y-76000000D03*
X113000000Y-73000000D03*
D37*
X169215600Y-98742048D03*
D39*
X115000000Y-75000000D03*
D37*
X169115600Y-82043100D03*
X170500000Y-91500000D03*
X123000000Y-105500000D03*
D39*
X120000000Y-66000000D03*
D37*
X187000000Y-86500000D03*
X140296900Y-98318800D03*
D39*
X112000000Y-67000000D03*
D37*
X107750000Y-94750000D03*
X173600000Y-94200000D03*
X153006900Y-66284400D03*
D39*
X113000000Y-68000000D03*
D37*
X193750000Y-90500000D03*
X179164800Y-125433100D03*
X121600000Y-114000000D03*
X192864438Y-88854680D03*
X187500000Y-95250000D03*
X127215600Y-78606900D03*
D39*
X113000000Y-67000000D03*
X114000000Y-76000000D03*
D37*
X125925000Y-71000000D03*
X145318800Y-126093100D03*
X181750000Y-108250000D03*
X125925000Y-67600000D03*
D39*
X113000000Y-76000000D03*
D37*
X187500000Y-91000000D03*
X187500000Y-96750000D03*
X131500000Y-79750000D03*
X184276003Y-80285761D03*
D39*
X112000000Y-75000000D03*
D37*
X112000000Y-108000000D03*
X194215600Y-97006900D03*
X181000000Y-89750000D03*
D39*
X119000000Y-67000000D03*
X113000000Y-75000000D03*
D37*
X194215600Y-99006900D03*
D39*
X119000000Y-76000000D03*
D37*
X149100000Y-82507500D03*
D39*
X112000000Y-69000000D03*
D37*
X121600000Y-112000000D03*
X189500000Y-93000000D03*
X131500000Y-108000000D03*
X180500000Y-93000000D03*
X174800000Y-106200000D03*
D39*
X112000000Y-76000000D03*
X115000000Y-67000000D03*
D37*
X194215600Y-95006900D03*
X145200000Y-130805000D03*
X125032500Y-96847500D03*
X111250000Y-103750000D03*
D39*
X117000000Y-66000000D03*
D37*
X142572500Y-98381900D03*
D39*
X113000000Y-74000000D03*
X115000000Y-76000000D03*
D37*
X193000000Y-91250000D03*
D39*
X113000000Y-71000000D03*
D37*
X124818800Y-101743100D03*
D39*
X118000000Y-66000000D03*
D37*
X175600000Y-99600000D03*
X175250000Y-96000000D03*
D39*
X112000000Y-72000000D03*
D37*
X183284400Y-135256900D03*
X193500000Y-87500000D03*
X190750000Y-93500000D03*
D39*
X114000000Y-66000000D03*
X113000000Y-72000000D03*
D37*
X147727500Y-130931200D03*
X185000000Y-102800000D03*
X186500000Y-91000000D03*
X191500000Y-92750000D03*
D39*
X116000000Y-67000000D03*
X114000000Y-75000000D03*
D37*
X192250000Y-92000000D03*
X179277500Y-75032500D03*
D39*
X112000000Y-73000000D03*
D37*
X120750000Y-106250000D03*
D39*
X120000000Y-76000000D03*
D37*
X170500000Y-89000000D03*
D39*
X118000000Y-76000000D03*
X118000000Y-67000000D03*
D37*
%TO.N,POT1_IN*%
X131350000Y-97000000D03*
%TO.N,POT2_IN*%
X142572500Y-100686900D03*
X126200000Y-105400000D03*
%TO.N,FLOW_IN*%
X125250000Y-119874000D03*
%TO.N,POT1_OUT*%
X132650000Y-97000000D03*
%TO.N,MISO*%
X171700000Y-92375000D03*
X170549265Y-105299264D03*
X171700000Y-99600000D03*
X174395101Y-93354899D03*
%TO.N,Net-(U6-~{RESET})*%
X164347500Y-93032500D03*
%TO.N,MOSI*%
X172924971Y-93000000D03*
X172300000Y-98500000D03*
X172000000Y-104750000D03*
X173750000Y-105500000D03*
%TO.N,DICK_IN*%
X163250000Y-130000000D03*
X157250000Y-129905000D03*
%TO.N,POT2_OUT*%
X140250000Y-103000000D03*
%TO.N,Net-(JP1-B)*%
X174250000Y-100715600D03*
%TO.N,DICK_OUT*%
X160784400Y-127500000D03*
X160784400Y-121284400D03*
X160784400Y-116900000D03*
%TO.N,PUMP_NTC_50k_IN*%
X152500000Y-123500000D03*
X145200000Y-128500000D03*
X152500000Y-123500000D03*
%TO.N,PUMP_NTC_50k_OUT*%
X151200000Y-123500000D03*
X151200000Y-116250000D03*
%TD*%
D40*
%TO.N,+5V*%
X166652500Y-109032500D02*
X166652500Y-126652500D01*
X156750000Y-107000000D02*
X164620000Y-107000000D01*
X164620000Y-107000000D02*
X166652500Y-109032500D01*
X166652500Y-126652500D02*
X167500000Y-127500000D01*
X155000000Y-105250000D02*
X156750000Y-107000000D01*
X154243100Y-96993100D02*
X155000000Y-97750000D01*
X153250000Y-96993100D02*
X154243100Y-96993100D01*
X155000000Y-97750000D02*
X155000000Y-105250000D01*
D41*
X153215600Y-96958700D02*
X153215600Y-88006900D01*
X153250000Y-96993100D02*
X153215600Y-96958700D01*
D40*
X153250000Y-96993100D02*
X137681200Y-96993100D01*
X156506900Y-88006900D02*
X157000000Y-88500000D01*
X157000000Y-88500000D02*
X157000000Y-91500000D01*
X153215600Y-88006900D02*
X156506900Y-88006900D01*
X180302944Y-95912656D02*
X180302944Y-95000000D01*
X175790000Y-101710000D02*
X179000000Y-98500000D01*
X122006900Y-93993100D02*
X122006900Y-88006900D01*
D41*
X115000000Y-83500000D02*
X120125000Y-83500000D01*
D40*
X157000000Y-91500000D02*
X158000000Y-91500000D01*
X158000000Y-91500000D02*
X159000000Y-91500000D01*
X118375000Y-95500000D02*
X118375000Y-108820000D01*
X159000000Y-91500000D02*
X162500000Y-91500000D01*
D41*
X120125000Y-83500000D02*
X121000000Y-84375000D01*
D40*
X179000000Y-97215600D02*
X180302944Y-95912656D01*
D41*
X114175000Y-88020000D02*
X114175000Y-84325000D01*
X122006900Y-88006900D02*
X153215600Y-88006900D01*
D40*
X118375000Y-95500000D02*
X120500000Y-95500000D01*
X162500000Y-91500000D02*
X163000000Y-91000000D01*
D41*
X114175000Y-84325000D02*
X115000000Y-83500000D01*
D40*
X164620000Y-91000000D02*
X166652500Y-93032500D01*
X163000000Y-91000000D02*
X164284400Y-91000000D01*
D41*
X109975000Y-88020000D02*
X114175000Y-88020000D01*
D40*
X120500000Y-95500000D02*
X122006900Y-93993100D01*
D41*
X121000000Y-84375000D02*
X121000000Y-87000000D01*
D40*
X179000000Y-98500000D02*
X179000000Y-97215600D01*
D41*
X121000000Y-87000000D02*
X122006900Y-88006900D01*
D40*
X164284400Y-91000000D02*
X164620000Y-91000000D01*
X175790000Y-107750000D02*
X175790000Y-101710000D01*
%TO.N,XTAL1*%
X188459691Y-88482368D02*
X189798514Y-88482368D01*
X189437922Y-85460599D02*
X189391960Y-85460599D01*
X191140441Y-87140441D02*
X191117764Y-87140441D01*
X189798514Y-88482368D02*
X191140441Y-87140441D01*
X191117764Y-87140441D02*
X189437922Y-85460599D01*
%TO.N,Net-(U6-OSC2)*%
X166684400Y-83158882D02*
X165343282Y-84500000D01*
X166684400Y-82050000D02*
X166684400Y-83158882D01*
X166650848Y-82083552D02*
X166684400Y-82050000D01*
X164002500Y-82083552D02*
X166650848Y-82083552D01*
%TO.N,Net-(U6-OSC1)*%
X158965600Y-82050000D02*
X161663948Y-82050000D01*
X161663948Y-82050000D02*
X161697500Y-82083552D01*
X158965600Y-83202318D02*
X160263282Y-84500000D01*
X158965600Y-82050000D02*
X158965600Y-83202318D01*
D42*
%TO.N,DS18B20*%
X160000000Y-95500000D02*
X161000000Y-94500000D01*
X149000000Y-113000000D02*
X149000000Y-99435000D01*
X169250000Y-94000000D02*
X169250000Y-90625000D01*
X169625000Y-90250000D02*
X175750000Y-90250000D01*
X169250000Y-90625000D02*
X169625000Y-90250000D01*
X149000000Y-99435000D02*
X148967500Y-99402500D01*
X168750000Y-94500000D02*
X169250000Y-94000000D01*
X161000000Y-94500000D02*
X168750000Y-94500000D01*
D40*
%TO.N,XTAL2*%
X184867589Y-83132411D02*
X186000000Y-82000000D01*
X184867589Y-84890266D02*
X184867589Y-83132411D01*
X186000000Y-82000000D02*
X186000000Y-82068639D01*
X186000000Y-82068639D02*
X187762078Y-83830717D01*
D42*
%TO.N,RST*%
X173250000Y-120500000D02*
X173250000Y-112830000D01*
D41*
X176796700Y-128492500D02*
X175699200Y-129590000D01*
D42*
X186200520Y-100599480D02*
X189000000Y-103398960D01*
D41*
X176733600Y-125440000D02*
X176733600Y-127409400D01*
X176733600Y-124124400D02*
X175699200Y-123090000D01*
X176733600Y-127409400D02*
X176796700Y-127472500D01*
X176733600Y-125440000D02*
X176733600Y-124124400D01*
D42*
X189000000Y-103398960D02*
X189000000Y-119250000D01*
D41*
X176796700Y-127472500D02*
X176796700Y-128492500D01*
D42*
X189000000Y-119250000D02*
X187750000Y-120500000D01*
X187750000Y-120500000D02*
X173250000Y-120500000D01*
%TO.N,POT2_IN*%
X135200000Y-100500000D02*
X142385600Y-100500000D01*
X142385600Y-100500000D02*
X142572500Y-100686900D01*
D43*
X126300000Y-105500000D02*
X126200000Y-105400000D01*
D42*
X134850000Y-105500000D02*
X134850000Y-100850000D01*
X134850000Y-100850000D02*
X135200000Y-100500000D01*
D43*
X134850000Y-105500000D02*
X126300000Y-105500000D01*
D42*
%TO.N,FLOW_IN*%
X125250000Y-119874000D02*
X125250000Y-111500000D01*
X125250000Y-111500000D02*
X124350000Y-110600000D01*
X124350000Y-110600000D02*
X116850000Y-110600000D01*
X116250000Y-107565000D02*
X114175000Y-105490000D01*
X116850000Y-110600000D02*
X116250000Y-110000000D01*
X116250000Y-110000000D02*
X116250000Y-107565000D01*
D43*
%TO.N,MISO*%
X171700000Y-92400000D02*
X171700000Y-99600000D01*
X174395101Y-93354899D02*
X173440202Y-92400000D01*
X173440202Y-92400000D02*
X171700000Y-92400000D01*
D42*
X170549265Y-105299264D02*
X173000001Y-107750000D01*
X173000001Y-107750000D02*
X173250000Y-107750000D01*
D43*
%TO.N,MOSI*%
X172250000Y-94150000D02*
X172924971Y-93475029D01*
X172300000Y-98500000D02*
X172250000Y-98450000D01*
X172924971Y-93475029D02*
X172924971Y-93000000D01*
X172250000Y-98450000D02*
X172250000Y-94150000D01*
X172000000Y-104750000D02*
X172750000Y-105500000D01*
X173750000Y-105500000D02*
X172750000Y-105500000D01*
D42*
%TO.N,DICK_IN*%
X117000000Y-115000000D02*
X116500000Y-114500000D01*
X158750000Y-122850000D02*
X162850000Y-122850000D01*
X160741943Y-129918900D02*
X160735075Y-129925768D01*
X162850000Y-122850000D02*
X163250000Y-123250000D01*
X122500000Y-115000000D02*
X117000000Y-115000000D01*
X157250000Y-129905000D02*
X125505000Y-129905000D01*
X116500000Y-114500000D02*
X116500000Y-111900000D01*
X160750000Y-129918900D02*
X160741943Y-129918900D01*
X123800000Y-128200000D02*
X123800000Y-116300000D01*
X115200000Y-110600000D02*
X111755000Y-110600000D01*
X163250000Y-123250000D02*
X163250000Y-130000000D01*
X125505000Y-129905000D02*
X123800000Y-128200000D01*
X111755000Y-110600000D02*
X109975000Y-108820000D01*
X123800000Y-116300000D02*
X122500000Y-115000000D01*
X116500000Y-111900000D02*
X115200000Y-110600000D01*
D43*
%TO.N,POT2_OUT*%
X137000000Y-103000000D02*
X140250000Y-103000000D01*
X136150000Y-103850000D02*
X137000000Y-103000000D01*
X136150000Y-105500000D02*
X136150000Y-103850000D01*
D41*
%TO.N,GND2*%
X189869841Y-132000000D02*
X189967641Y-132097800D01*
X185715600Y-137219400D02*
X185652500Y-137282500D01*
X188965600Y-132000000D02*
X189869841Y-132000000D01*
X185715600Y-135250000D02*
X188965600Y-132000000D01*
X185715600Y-135250000D02*
X185715600Y-137219400D01*
%TO.N,GND1*%
X190969400Y-74784400D02*
X191032500Y-74847500D01*
X189967641Y-73816759D02*
X189000000Y-74784400D01*
X189967641Y-70597800D02*
X189967641Y-73816759D01*
X189000000Y-74784400D02*
X190969400Y-74784400D01*
D40*
%TO.N,Net-(JP1-B)*%
X174500000Y-102750000D02*
X174500000Y-100965600D01*
X174500000Y-100965600D02*
X174250000Y-100715600D01*
D42*
%TO.N,DICK_OUT*%
X158750000Y-124150000D02*
X160400000Y-124150000D01*
X160750000Y-124500000D02*
X160750000Y-127465600D01*
X160400000Y-124150000D02*
X160750000Y-124500000D01*
X160750000Y-127465600D02*
X160784400Y-127500000D01*
X160784400Y-116900000D02*
X160784400Y-121284400D01*
%TO.N,PUMP_NTC_50k_IN*%
X116500000Y-111145000D02*
X123945000Y-111145000D01*
X123945000Y-111145000D02*
X124600000Y-111800000D01*
X124600000Y-127600000D02*
X125500000Y-128500000D01*
X124600000Y-111800000D02*
X124600000Y-127600000D01*
X125500000Y-128500000D02*
X145200000Y-128500000D01*
X114175000Y-108820000D02*
X116500000Y-111145000D01*
%TO.N,PUMP_NTC_50k_OUT*%
X151200000Y-116250000D02*
X151200000Y-123500000D01*
%TD*%
%TA.AperFunction,Conductor*%
%TO.N,GND*%
G36*
X123825850Y-111490185D02*
G01*
X123846492Y-111506819D01*
X124238181Y-111898508D01*
X124271666Y-111959831D01*
X124274500Y-111986189D01*
X124274500Y-116014810D01*
X124268261Y-116036055D01*
X124266682Y-116058142D01*
X124258609Y-116068925D01*
X124254815Y-116081849D01*
X124238082Y-116096347D01*
X124224812Y-116114076D01*
X124212189Y-116118784D01*
X124202011Y-116127604D01*
X124180095Y-116130755D01*
X124159348Y-116138494D01*
X124146185Y-116135630D01*
X124132853Y-116137548D01*
X124112710Y-116128349D01*
X124091075Y-116123643D01*
X124073348Y-116110373D01*
X124069297Y-116108523D01*
X124062820Y-116102493D01*
X124056674Y-116096347D01*
X123999862Y-116039535D01*
X123999859Y-116039533D01*
X122699862Y-114739535D01*
X122662750Y-114718108D01*
X122625640Y-114696682D01*
X122584246Y-114685591D01*
X122542853Y-114674500D01*
X122542852Y-114674500D01*
X118767716Y-114674500D01*
X118700677Y-114654815D01*
X118654922Y-114602011D01*
X118644978Y-114532853D01*
X118674003Y-114469297D01*
X118729397Y-114432569D01*
X118825041Y-114401492D01*
X118950992Y-114360568D01*
X119161433Y-114253343D01*
X119352510Y-114114517D01*
X119519517Y-113947510D01*
X119658343Y-113756433D01*
X119765568Y-113545992D01*
X119838553Y-113321368D01*
X119860746Y-113181247D01*
X119875500Y-113088097D01*
X119875500Y-112851902D01*
X119838553Y-112618631D01*
X119765566Y-112394003D01*
X119690015Y-112245727D01*
X119658343Y-112183567D01*
X119519517Y-111992490D01*
X119352510Y-111825483D01*
X119172664Y-111694816D01*
X119130000Y-111639488D01*
X119124021Y-111569874D01*
X119156627Y-111508080D01*
X119217466Y-111473722D01*
X119245551Y-111470500D01*
X123758811Y-111470500D01*
X123825850Y-111490185D01*
G37*
%TD.AperFunction*%
%TA.AperFunction,Conductor*%
G36*
X115080850Y-110945185D02*
G01*
X115101492Y-110961819D01*
X116138181Y-111998507D01*
X116171666Y-112059830D01*
X116174500Y-112086188D01*
X116174500Y-112535699D01*
X116154815Y-112602738D01*
X116102011Y-112648493D01*
X116032853Y-112658437D01*
X115969297Y-112629412D01*
X115931523Y-112570634D01*
X115930725Y-112567792D01*
X115883129Y-112390162D01*
X115792840Y-112172183D01*
X115792833Y-112172168D01*
X115751509Y-112100594D01*
X114972660Y-112879444D01*
X114944257Y-112736649D01*
X114883951Y-112591058D01*
X114796401Y-112460030D01*
X114684970Y-112348599D01*
X114553942Y-112261049D01*
X114408351Y-112200743D01*
X114265555Y-112172339D01*
X115044404Y-111393489D01*
X114972826Y-111352164D01*
X114972816Y-111352159D01*
X114754836Y-111261870D01*
X114754838Y-111261870D01*
X114526914Y-111200799D01*
X114311504Y-111172439D01*
X114247608Y-111144172D01*
X114209137Y-111085848D01*
X114208306Y-111015983D01*
X114245378Y-110956760D01*
X114308584Y-110926981D01*
X114327690Y-110925500D01*
X115013811Y-110925500D01*
X115080850Y-110945185D01*
G37*
%TD.AperFunction*%
%TA.AperFunction,Conductor*%
G36*
X191395200Y-62598406D02*
G01*
X191841669Y-62616875D01*
X191851847Y-62617718D01*
X192292754Y-62672680D01*
X192302822Y-62674360D01*
X192737672Y-62765541D01*
X192747575Y-62768048D01*
X193173406Y-62894827D01*
X193183089Y-62898152D01*
X193390031Y-62978902D01*
X193596980Y-63059655D01*
X193606344Y-63063762D01*
X193817872Y-63167173D01*
X194005490Y-63258895D01*
X194014503Y-63263773D01*
X194396149Y-63491187D01*
X194404729Y-63496792D01*
X194766310Y-63754958D01*
X194774397Y-63761253D01*
X194874148Y-63845738D01*
X195113394Y-64048371D01*
X195113404Y-64048379D01*
X195120945Y-64055320D01*
X195435099Y-64369476D01*
X195442040Y-64377016D01*
X195729180Y-64716044D01*
X195735474Y-64724132D01*
X195993622Y-65085692D01*
X195999228Y-65094272D01*
X196226644Y-65475928D01*
X196231522Y-65484941D01*
X196426649Y-65884083D01*
X196430765Y-65893468D01*
X196592258Y-66307340D01*
X196595584Y-66317026D01*
X196665633Y-66552317D01*
X196722354Y-66742841D01*
X196724870Y-66752776D01*
X196816042Y-67187595D01*
X196817729Y-67197704D01*
X196872683Y-67638571D01*
X196873529Y-67648785D01*
X196891994Y-68095244D01*
X196892100Y-68100354D01*
X196899507Y-134163748D01*
X196900569Y-134171810D01*
X196899882Y-134171900D01*
X196902729Y-134197623D01*
X196888287Y-134546818D01*
X196887441Y-134557032D01*
X196832487Y-134997904D01*
X196830800Y-135008013D01*
X196739628Y-135442835D01*
X196737112Y-135452770D01*
X196610343Y-135878582D01*
X196607015Y-135888275D01*
X196445521Y-136302151D01*
X196441405Y-136311536D01*
X196246279Y-136710677D01*
X196241401Y-136719691D01*
X196013981Y-137101352D01*
X196008376Y-137109931D01*
X195750219Y-137471506D01*
X195743924Y-137479594D01*
X195456788Y-137818617D01*
X195449847Y-137826157D01*
X195135696Y-138140312D01*
X195128156Y-138147253D01*
X194789136Y-138434392D01*
X194781048Y-138440687D01*
X194419470Y-138698851D01*
X194410890Y-138704456D01*
X194029241Y-138931872D01*
X194020228Y-138936750D01*
X193621094Y-139131879D01*
X193611709Y-139135996D01*
X193197824Y-139297498D01*
X193188131Y-139300826D01*
X192762321Y-139427599D01*
X192752386Y-139430115D01*
X192317564Y-139521291D01*
X192307455Y-139522978D01*
X191866585Y-139577937D01*
X191856372Y-139578783D01*
X191474800Y-139594568D01*
X191411341Y-139597194D01*
X191406217Y-139597300D01*
X110402561Y-139597300D01*
X110397437Y-139597194D01*
X109950983Y-139578728D01*
X109940769Y-139577882D01*
X109499900Y-139522928D01*
X109489791Y-139521241D01*
X109054971Y-139430069D01*
X109045036Y-139427553D01*
X108619226Y-139300784D01*
X108609533Y-139297456D01*
X108195660Y-139135961D01*
X108186275Y-139131845D01*
X107787136Y-138936719D01*
X107778122Y-138931841D01*
X107396455Y-138704416D01*
X107387876Y-138698810D01*
X107026312Y-138440659D01*
X107018224Y-138434364D01*
X106679203Y-138147228D01*
X106671663Y-138140287D01*
X106357512Y-137826136D01*
X106350571Y-137818596D01*
X106319999Y-137782500D01*
X182102540Y-137782500D01*
X182109708Y-137846117D01*
X182167622Y-138011628D01*
X182167625Y-138011634D01*
X182260908Y-138160092D01*
X182260913Y-138160098D01*
X182384901Y-138284086D01*
X182384907Y-138284091D01*
X182533365Y-138377374D01*
X182533368Y-138377376D01*
X182698882Y-138435292D01*
X182829419Y-138449999D01*
X182829420Y-138450000D01*
X182847500Y-138450000D01*
X182847500Y-137782500D01*
X182102540Y-137782500D01*
X106319999Y-137782500D01*
X106265069Y-137717644D01*
X106063431Y-137479570D01*
X106057140Y-137471487D01*
X105798989Y-137109923D01*
X105793383Y-137101344D01*
X105751561Y-137031159D01*
X105565955Y-136719672D01*
X105561080Y-136710663D01*
X105555439Y-136699125D01*
X105411605Y-136404905D01*
X105365954Y-136311524D01*
X105361838Y-136302139D01*
X105314301Y-136180314D01*
X105200338Y-135888254D01*
X105197018Y-135878582D01*
X105160792Y-135756900D01*
X182023561Y-135756900D01*
X182034029Y-135849821D01*
X182093980Y-136021153D01*
X182093984Y-136021160D01*
X182190566Y-136174871D01*
X182253401Y-136237706D01*
X182286886Y-136299029D01*
X182281902Y-136368721D01*
X182262681Y-136402682D01*
X182260915Y-136404896D01*
X182167625Y-136553365D01*
X182167622Y-136553371D01*
X182109708Y-136718882D01*
X182102540Y-136782499D01*
X182102540Y-136782500D01*
X182847500Y-136782500D01*
X182847500Y-136605000D01*
X182820719Y-136578219D01*
X182787234Y-136516896D01*
X182784400Y-136490538D01*
X182784400Y-135756900D01*
X182023561Y-135756900D01*
X105160792Y-135756900D01*
X105070242Y-135452750D01*
X105067732Y-135442835D01*
X104976555Y-135007994D01*
X104974872Y-134997904D01*
X104944831Y-134756899D01*
X182023558Y-134756899D01*
X182023558Y-134756900D01*
X182784400Y-134756900D01*
X182784400Y-134038800D01*
X183784400Y-134038800D01*
X183784400Y-135985000D01*
X183811181Y-136011781D01*
X183844666Y-136073104D01*
X183847500Y-136099462D01*
X183847500Y-138450000D01*
X183865580Y-138450000D01*
X183865580Y-138449999D01*
X183996117Y-138435292D01*
X184161631Y-138377376D01*
X184161634Y-138377374D01*
X184310092Y-138284091D01*
X184310098Y-138284086D01*
X184434086Y-138160098D01*
X184434091Y-138160092D01*
X184527374Y-138011634D01*
X184527378Y-138011626D01*
X184548377Y-137951613D01*
X184589098Y-137894837D01*
X184654050Y-137869088D01*
X184722612Y-137882543D01*
X184764686Y-137918255D01*
X184836206Y-138013794D01*
X184946386Y-138096274D01*
X184946387Y-138096274D01*
X184946388Y-138096275D01*
X185030565Y-138127671D01*
X185064457Y-138140312D01*
X185075335Y-138144369D01*
X185075334Y-138144369D01*
X185075340Y-138144371D01*
X185132346Y-138150500D01*
X185132356Y-138150500D01*
X186172644Y-138150500D01*
X186172654Y-138150500D01*
X186229660Y-138144371D01*
X186358614Y-138096274D01*
X186468794Y-138013794D01*
X186551274Y-137903614D01*
X186599371Y-137774660D01*
X186605500Y-137717654D01*
X186605500Y-136847346D01*
X186599371Y-136790340D01*
X186596447Y-136782500D01*
X186551275Y-136661388D01*
X186551274Y-136661387D01*
X186551274Y-136661386D01*
X186468794Y-136551206D01*
X186465786Y-136548954D01*
X186463535Y-136545948D01*
X186462520Y-136544932D01*
X186462666Y-136544785D01*
X186423917Y-136493019D01*
X186416100Y-136449689D01*
X186416100Y-136182176D01*
X186435785Y-136115137D01*
X186465790Y-136082909D01*
X186478888Y-136073104D01*
X186536315Y-136030115D01*
X186624031Y-135912940D01*
X186675182Y-135775800D01*
X186678293Y-135746861D01*
X186681699Y-135715189D01*
X186681699Y-135715182D01*
X186681700Y-135715173D01*
X186681699Y-135325917D01*
X186701383Y-135258879D01*
X186718013Y-135238242D01*
X187739049Y-134217207D01*
X187800372Y-134183722D01*
X187870064Y-134188706D01*
X187914411Y-134217207D01*
X187998488Y-134301284D01*
X188257581Y-134507904D01*
X188538180Y-134684216D01*
X188836754Y-134828002D01*
X189071678Y-134910205D01*
X189149539Y-134937450D01*
X189149547Y-134937453D01*
X189149550Y-134937453D01*
X189149551Y-134937454D01*
X189472635Y-135011196D01*
X189472644Y-135011197D01*
X189472649Y-135011198D01*
X189692174Y-135035932D01*
X189801938Y-135048299D01*
X189801941Y-135048300D01*
X189801944Y-135048300D01*
X190133341Y-135048300D01*
X190133342Y-135048299D01*
X190301637Y-135029337D01*
X190462632Y-135011198D01*
X190462635Y-135011197D01*
X190462647Y-135011196D01*
X190785731Y-134937454D01*
X191098528Y-134828002D01*
X191397102Y-134684216D01*
X191677701Y-134507904D01*
X191936794Y-134301284D01*
X192171125Y-134066953D01*
X192377745Y-133807860D01*
X192554057Y-133527261D01*
X192697843Y-133228687D01*
X192807295Y-132915890D01*
X192881037Y-132592806D01*
X192918141Y-132263497D01*
X192918141Y-131932103D01*
X192881037Y-131602794D01*
X192807295Y-131279710D01*
X192697843Y-130966913D01*
X192554057Y-130668339D01*
X192377745Y-130387740D01*
X192171125Y-130128647D01*
X191936794Y-129894316D01*
X191913885Y-129876047D01*
X191827070Y-129806814D01*
X191677701Y-129687696D01*
X191447707Y-129543181D01*
X191397099Y-129511382D01*
X191098531Y-129367599D01*
X190785742Y-129258149D01*
X190785734Y-129258146D01*
X190543418Y-129202839D01*
X190462647Y-129184404D01*
X190462644Y-129184403D01*
X190462632Y-129184401D01*
X190133344Y-129147300D01*
X190133338Y-129147300D01*
X189801944Y-129147300D01*
X189801937Y-129147300D01*
X189472649Y-129184401D01*
X189472635Y-129184404D01*
X189149547Y-129258146D01*
X189149539Y-129258149D01*
X188836750Y-129367599D01*
X188538182Y-129511382D01*
X188257582Y-129687695D01*
X187998488Y-129894315D01*
X187764156Y-130128647D01*
X187557536Y-130387741D01*
X187381223Y-130668341D01*
X187237440Y-130966909D01*
X187127990Y-131279698D01*
X187127987Y-131279706D01*
X187054245Y-131602794D01*
X187054242Y-131602808D01*
X187017141Y-131932096D01*
X187017141Y-132263503D01*
X187054242Y-132592791D01*
X187054245Y-132592805D01*
X187099927Y-132792950D01*
X187095654Y-132862689D01*
X187066717Y-132908224D01*
X185686760Y-134288181D01*
X185625437Y-134321666D01*
X185599079Y-134324500D01*
X185209830Y-134324500D01*
X185209824Y-134324501D01*
X185149197Y-134331018D01*
X185012060Y-134382168D01*
X184894885Y-134469885D01*
X184807169Y-134587059D01*
X184772133Y-134680993D01*
X184730262Y-134736926D01*
X184664797Y-134761342D01*
X184596524Y-134746490D01*
X184547119Y-134697084D01*
X184535059Y-134665240D01*
X184534771Y-134663979D01*
X184474819Y-134492646D01*
X184474815Y-134492639D01*
X184378233Y-134338928D01*
X184249871Y-134210566D01*
X184096160Y-134113984D01*
X184096158Y-134113983D01*
X183924810Y-134054026D01*
X183789669Y-134038800D01*
X183784400Y-134038800D01*
X182784400Y-134038800D01*
X182779133Y-134038801D01*
X182643989Y-134054026D01*
X182643976Y-134054029D01*
X182472646Y-134113980D01*
X182472639Y-134113984D01*
X182318928Y-134210566D01*
X182190566Y-134338928D01*
X182093984Y-134492639D01*
X182093983Y-134492641D01*
X182034027Y-134663987D01*
X182034026Y-134663992D01*
X182023558Y-134756899D01*
X104944831Y-134756899D01*
X104919915Y-134557009D01*
X104919072Y-134546836D01*
X104900606Y-134100362D01*
X104900500Y-134095238D01*
X104900500Y-130943919D01*
X179552384Y-130943919D01*
X179623397Y-130980102D01*
X179847952Y-131053065D01*
X179847951Y-131053065D01*
X180081148Y-131090000D01*
X180317252Y-131090000D01*
X180550447Y-131053065D01*
X180774997Y-130980104D01*
X180846014Y-130943919D01*
X180199201Y-130297106D01*
X180199200Y-130297106D01*
X179552384Y-130943919D01*
X104900500Y-130943919D01*
X104900500Y-121031910D01*
X104900500Y-121031908D01*
X104866392Y-120904614D01*
X104864932Y-120902086D01*
X104841684Y-120861819D01*
X104800500Y-120790486D01*
X104707314Y-120697300D01*
X104650250Y-120664354D01*
X104593187Y-120631408D01*
X104524829Y-120613092D01*
X104465892Y-120597300D01*
X104465891Y-120597300D01*
X103024500Y-120597300D01*
X103015814Y-120594749D01*
X103006853Y-120596038D01*
X102982812Y-120585059D01*
X102957461Y-120577615D01*
X102951533Y-120570774D01*
X102943297Y-120567013D01*
X102929007Y-120544778D01*
X102911706Y-120524811D01*
X102909418Y-120514296D01*
X102905523Y-120508235D01*
X102900500Y-120473300D01*
X102900500Y-120376902D01*
X108524500Y-120376902D01*
X108524500Y-120613097D01*
X108561446Y-120846368D01*
X108634433Y-121070996D01*
X108709595Y-121218508D01*
X108741657Y-121281433D01*
X108880483Y-121472510D01*
X109047490Y-121639517D01*
X109238567Y-121778343D01*
X109337991Y-121829002D01*
X109449003Y-121885566D01*
X109449005Y-121885566D01*
X109449008Y-121885568D01*
X109569412Y-121924689D01*
X109673631Y-121958553D01*
X109906903Y-121995500D01*
X109906908Y-121995500D01*
X115643097Y-121995500D01*
X115876368Y-121958553D01*
X116100992Y-121885568D01*
X116311433Y-121778343D01*
X116502510Y-121639517D01*
X116669517Y-121472510D01*
X116808343Y-121281433D01*
X116915568Y-121070992D01*
X116988553Y-120846368D01*
X116994738Y-120807316D01*
X117025500Y-120613097D01*
X117025500Y-120376902D01*
X116988553Y-120143631D01*
X116954689Y-120039412D01*
X116915568Y-119919008D01*
X116915566Y-119919005D01*
X116915566Y-119919003D01*
X116808342Y-119708566D01*
X116788179Y-119680814D01*
X116669517Y-119517490D01*
X116502510Y-119350483D01*
X116311433Y-119211657D01*
X116302582Y-119207147D01*
X116100996Y-119104433D01*
X115876368Y-119031446D01*
X115643097Y-118994500D01*
X115643092Y-118994500D01*
X109906908Y-118994500D01*
X109906903Y-118994500D01*
X109673631Y-119031446D01*
X109449003Y-119104433D01*
X109238566Y-119211657D01*
X109129550Y-119290862D01*
X109047490Y-119350483D01*
X109047488Y-119350485D01*
X109047487Y-119350485D01*
X108880485Y-119517487D01*
X108880485Y-119517488D01*
X108880483Y-119517490D01*
X108844742Y-119566683D01*
X108741657Y-119708566D01*
X108634433Y-119919003D01*
X108561446Y-120143631D01*
X108524500Y-120376902D01*
X102900500Y-120376902D01*
X102900500Y-118619500D01*
X102920185Y-118552461D01*
X102972989Y-118506706D01*
X103024500Y-118495500D01*
X104756113Y-118495500D01*
X104756120Y-118495500D01*
X105016116Y-118461270D01*
X105269419Y-118393398D01*
X105511697Y-118293043D01*
X105738803Y-118161924D01*
X105946851Y-118002282D01*
X105946855Y-118002277D01*
X105946860Y-118002274D01*
X106132274Y-117816860D01*
X106132277Y-117816855D01*
X106132282Y-117816851D01*
X106291924Y-117608803D01*
X106423043Y-117381697D01*
X106523398Y-117139419D01*
X106591270Y-116886116D01*
X106625500Y-116626120D01*
X106625500Y-116363880D01*
X106591270Y-116103884D01*
X106523398Y-115850581D01*
X106481529Y-115749500D01*
X106423046Y-115608309D01*
X106423041Y-115608299D01*
X106291924Y-115381196D01*
X106132281Y-115173148D01*
X106132274Y-115173140D01*
X105946860Y-114987726D01*
X105946851Y-114987718D01*
X105738803Y-114828075D01*
X105511700Y-114696958D01*
X105511690Y-114696953D01*
X105317769Y-114616629D01*
X105269428Y-114596605D01*
X105269421Y-114596603D01*
X105269419Y-114596602D01*
X105016116Y-114528730D01*
X104958339Y-114521123D01*
X104756127Y-114494500D01*
X104756120Y-114494500D01*
X103024500Y-114494500D01*
X102957461Y-114474815D01*
X102911706Y-114422011D01*
X102900500Y-114370500D01*
X102900500Y-112852014D01*
X108175000Y-112852014D01*
X108175000Y-113087985D01*
X108205799Y-113321914D01*
X108266870Y-113549837D01*
X108357159Y-113767816D01*
X108357164Y-113767826D01*
X108398489Y-113839403D01*
X109177339Y-113060554D01*
X109205743Y-113203351D01*
X109266049Y-113348942D01*
X109353599Y-113479970D01*
X109465030Y-113591401D01*
X109596058Y-113678951D01*
X109741649Y-113739257D01*
X109884445Y-113767660D01*
X109105594Y-114546509D01*
X109177168Y-114587833D01*
X109177183Y-114587840D01*
X109395163Y-114678129D01*
X109395161Y-114678129D01*
X109623085Y-114739200D01*
X109857014Y-114769999D01*
X109857029Y-114770000D01*
X110092971Y-114770000D01*
X110092985Y-114769999D01*
X110326914Y-114739200D01*
X110554837Y-114678129D01*
X110772819Y-114587839D01*
X110772828Y-114587834D01*
X110844404Y-114546509D01*
X110065554Y-113767660D01*
X110208351Y-113739257D01*
X110353942Y-113678951D01*
X110484970Y-113591401D01*
X110596401Y-113479970D01*
X110683951Y-113348942D01*
X110744257Y-113203351D01*
X110772660Y-113060554D01*
X111551509Y-113839404D01*
X111592834Y-113767828D01*
X111592839Y-113767819D01*
X111683129Y-113549837D01*
X111744200Y-113321914D01*
X111774999Y-113087985D01*
X111775000Y-113087971D01*
X111775000Y-112852028D01*
X111774999Y-112852014D01*
X111744200Y-112618085D01*
X111683129Y-112390162D01*
X111592840Y-112172183D01*
X111592833Y-112172168D01*
X111551509Y-112100594D01*
X110772660Y-112879444D01*
X110744257Y-112736649D01*
X110683951Y-112591058D01*
X110596401Y-112460030D01*
X110484970Y-112348599D01*
X110353942Y-112261049D01*
X110208351Y-112200743D01*
X110065555Y-112172339D01*
X110844404Y-111393489D01*
X110772826Y-111352164D01*
X110772816Y-111352159D01*
X110554836Y-111261870D01*
X110554838Y-111261870D01*
X110326914Y-111200799D01*
X110092985Y-111170000D01*
X109857014Y-111170000D01*
X109623085Y-111200799D01*
X109395165Y-111261869D01*
X109177176Y-111352163D01*
X109177170Y-111352166D01*
X109105595Y-111393489D01*
X109884445Y-112172339D01*
X109741649Y-112200743D01*
X109596058Y-112261049D01*
X109465030Y-112348599D01*
X109353599Y-112460030D01*
X109266049Y-112591058D01*
X109205743Y-112736649D01*
X109177339Y-112879445D01*
X108398489Y-112100595D01*
X108357166Y-112172170D01*
X108357163Y-112172176D01*
X108266869Y-112390165D01*
X108205799Y-112618085D01*
X108175000Y-112852014D01*
X102900500Y-112852014D01*
X102900500Y-92052014D01*
X108175000Y-92052014D01*
X108175000Y-92287985D01*
X108205799Y-92521914D01*
X108266870Y-92749837D01*
X108357159Y-92967816D01*
X108357164Y-92967826D01*
X108398489Y-93039403D01*
X109177339Y-92260554D01*
X109205743Y-92403351D01*
X109266049Y-92548942D01*
X109353599Y-92679970D01*
X109465030Y-92791401D01*
X109596058Y-92878951D01*
X109741649Y-92939257D01*
X109884445Y-92967660D01*
X109105594Y-93746509D01*
X109177168Y-93787833D01*
X109177183Y-93787840D01*
X109398918Y-93879685D01*
X109398224Y-93881360D01*
X109449354Y-93917310D01*
X109475710Y-93982018D01*
X109462898Y-94050703D01*
X109414986Y-94101558D01*
X109399793Y-94109107D01*
X109399005Y-94109433D01*
X109188566Y-94216657D01*
X109079550Y-94295862D01*
X108997490Y-94355483D01*
X108997488Y-94355485D01*
X108997487Y-94355485D01*
X108830485Y-94522487D01*
X108830485Y-94522488D01*
X108830483Y-94522490D01*
X108774532Y-94599500D01*
X108691657Y-94713566D01*
X108584433Y-94924003D01*
X108511446Y-95148631D01*
X108474500Y-95381902D01*
X108474500Y-95618097D01*
X108511446Y-95851368D01*
X108584433Y-96075996D01*
X108688994Y-96281206D01*
X108691657Y-96286433D01*
X108830483Y-96477510D01*
X108997490Y-96644517D01*
X109188567Y-96783343D01*
X109399008Y-96890568D01*
X109399015Y-96890570D01*
X109399775Y-96890885D01*
X109400024Y-96891086D01*
X109403349Y-96892780D01*
X109402993Y-96893477D01*
X109454187Y-96934715D01*
X109476264Y-97001005D01*
X109458998Y-97068708D01*
X109407870Y-97116328D01*
X109398833Y-97120108D01*
X109398919Y-97120315D01*
X109177176Y-97212163D01*
X109177170Y-97212166D01*
X109105595Y-97253489D01*
X109884445Y-98032339D01*
X109741649Y-98060743D01*
X109596058Y-98121049D01*
X109465030Y-98208599D01*
X109353599Y-98320030D01*
X109266049Y-98451058D01*
X109205743Y-98596649D01*
X109177339Y-98739445D01*
X108398489Y-97960595D01*
X108357166Y-98032170D01*
X108357163Y-98032176D01*
X108266869Y-98250165D01*
X108205799Y-98478085D01*
X108175000Y-98712014D01*
X108175000Y-98947985D01*
X108205799Y-99181914D01*
X108266870Y-99409837D01*
X108357159Y-99627816D01*
X108357164Y-99627826D01*
X108398489Y-99699403D01*
X109177339Y-98920554D01*
X109205743Y-99063351D01*
X109266049Y-99208942D01*
X109353599Y-99339970D01*
X109465030Y-99451401D01*
X109596058Y-99538951D01*
X109741649Y-99599257D01*
X109884445Y-99627660D01*
X109105594Y-100406509D01*
X109113468Y-100466317D01*
X109113468Y-100498688D01*
X109105594Y-100558488D01*
X109884445Y-101337339D01*
X109741649Y-101365743D01*
X109596058Y-101426049D01*
X109465030Y-101513599D01*
X109353599Y-101625030D01*
X109266049Y-101756058D01*
X109205743Y-101901649D01*
X109177339Y-102044445D01*
X108398489Y-101265595D01*
X108357166Y-101337170D01*
X108357163Y-101337176D01*
X108266869Y-101555165D01*
X108205799Y-101783085D01*
X108175000Y-102017014D01*
X108175000Y-102252985D01*
X108205799Y-102486914D01*
X108266870Y-102714837D01*
X108357159Y-102932816D01*
X108357164Y-102932826D01*
X108398489Y-103004403D01*
X109177339Y-102225554D01*
X109205743Y-102368351D01*
X109266049Y-102513942D01*
X109353599Y-102644970D01*
X109465030Y-102756401D01*
X109596058Y-102843951D01*
X109741649Y-102904257D01*
X109884445Y-102932660D01*
X109120047Y-103697056D01*
X109147735Y-103766674D01*
X109150438Y-103795682D01*
X109155952Y-103824286D01*
X109153642Y-103830055D01*
X109154219Y-103836243D01*
X109140812Y-103862102D01*
X109129984Y-103889151D01*
X109124184Y-103894176D01*
X109122061Y-103898272D01*
X109114340Y-103902706D01*
X109106071Y-103909871D01*
X109105595Y-103913489D01*
X109884445Y-104692339D01*
X109741649Y-104720743D01*
X109596058Y-104781049D01*
X109465030Y-104868599D01*
X109353599Y-104980030D01*
X109266049Y-105111058D01*
X109205743Y-105256649D01*
X109177339Y-105399445D01*
X108398489Y-104620595D01*
X108357164Y-104692173D01*
X108266869Y-104910165D01*
X108205799Y-105138085D01*
X108175000Y-105372014D01*
X108175000Y-105607985D01*
X108205799Y-105841914D01*
X108266870Y-106069837D01*
X108357159Y-106287816D01*
X108357164Y-106287826D01*
X108398489Y-106359403D01*
X109177339Y-105580554D01*
X109205743Y-105723351D01*
X109266049Y-105868942D01*
X109353599Y-105999970D01*
X109465030Y-106111401D01*
X109596058Y-106198951D01*
X109741649Y-106259257D01*
X109884445Y-106287660D01*
X109105594Y-107066509D01*
X109177168Y-107107833D01*
X109177183Y-107107840D01*
X109398918Y-107199685D01*
X109398224Y-107201360D01*
X109449354Y-107237310D01*
X109475710Y-107302018D01*
X109462898Y-107370703D01*
X109414986Y-107421558D01*
X109399793Y-107429107D01*
X109399005Y-107429433D01*
X109188566Y-107536657D01*
X109079550Y-107615862D01*
X108997490Y-107675483D01*
X108997488Y-107675485D01*
X108997487Y-107675485D01*
X108830485Y-107842487D01*
X108830485Y-107842488D01*
X108830483Y-107842490D01*
X108829033Y-107844486D01*
X108691657Y-108033566D01*
X108584433Y-108244003D01*
X108511446Y-108468631D01*
X108474500Y-108701902D01*
X108474500Y-108938097D01*
X108511446Y-109171368D01*
X108584433Y-109395996D01*
X108691657Y-109606433D01*
X108830483Y-109797510D01*
X108997490Y-109964517D01*
X109188567Y-110103343D01*
X109246484Y-110132853D01*
X109399003Y-110210566D01*
X109399005Y-110210566D01*
X109399008Y-110210568D01*
X109480114Y-110236921D01*
X109623631Y-110283553D01*
X109856903Y-110320500D01*
X109856908Y-110320500D01*
X110093097Y-110320500D01*
X110326368Y-110283553D01*
X110364146Y-110271278D01*
X110550992Y-110210568D01*
X110705396Y-110131894D01*
X110774065Y-110118999D01*
X110838806Y-110145275D01*
X110849372Y-110154699D01*
X111555138Y-110860465D01*
X111629361Y-110903318D01*
X111712147Y-110925500D01*
X111797853Y-110925500D01*
X114022310Y-110925500D01*
X114089349Y-110945185D01*
X114135104Y-110997989D01*
X114145048Y-111067147D01*
X114116023Y-111130703D01*
X114057245Y-111168477D01*
X114038496Y-111172439D01*
X113823085Y-111200799D01*
X113595165Y-111261869D01*
X113377176Y-111352163D01*
X113377170Y-111352166D01*
X113305595Y-111393489D01*
X114084445Y-112172339D01*
X113941649Y-112200743D01*
X113796058Y-112261049D01*
X113665030Y-112348599D01*
X113553599Y-112460030D01*
X113466049Y-112591058D01*
X113405743Y-112736649D01*
X113377339Y-112879445D01*
X112598489Y-112100595D01*
X112557166Y-112172170D01*
X112557163Y-112172176D01*
X112466869Y-112390165D01*
X112405799Y-112618085D01*
X112375000Y-112852014D01*
X112375000Y-113087985D01*
X112405799Y-113321914D01*
X112466870Y-113549837D01*
X112557159Y-113767816D01*
X112557164Y-113767826D01*
X112598489Y-113839403D01*
X113377339Y-113060554D01*
X113405743Y-113203351D01*
X113466049Y-113348942D01*
X113553599Y-113479970D01*
X113665030Y-113591401D01*
X113796058Y-113678951D01*
X113941649Y-113739257D01*
X114084445Y-113767660D01*
X113305594Y-114546509D01*
X113377168Y-114587833D01*
X113377183Y-114587840D01*
X113595163Y-114678129D01*
X113595161Y-114678129D01*
X113823085Y-114739200D01*
X114057014Y-114769999D01*
X114057029Y-114770000D01*
X114292971Y-114770000D01*
X114292985Y-114769999D01*
X114526914Y-114739200D01*
X114754837Y-114678129D01*
X114972819Y-114587839D01*
X114972828Y-114587834D01*
X115044404Y-114546509D01*
X114265554Y-113767660D01*
X114408351Y-113739257D01*
X114553942Y-113678951D01*
X114684970Y-113591401D01*
X114796401Y-113479970D01*
X114883951Y-113348942D01*
X114944257Y-113203351D01*
X114972660Y-113060555D01*
X115751509Y-113839404D01*
X115792834Y-113767828D01*
X115792839Y-113767819D01*
X115883129Y-113549837D01*
X115930725Y-113372207D01*
X115967090Y-113312546D01*
X116029937Y-113282017D01*
X116099312Y-113290312D01*
X116153190Y-113334797D01*
X116174465Y-113401349D01*
X116174500Y-113404300D01*
X116174500Y-114542852D01*
X116196682Y-114625640D01*
X116203923Y-114638181D01*
X116239535Y-114699862D01*
X116739533Y-115199859D01*
X116739535Y-115199862D01*
X116800138Y-115260465D01*
X116837250Y-115281891D01*
X116846370Y-115287157D01*
X116846373Y-115287159D01*
X116865709Y-115298322D01*
X116874361Y-115303318D01*
X116957147Y-115325500D01*
X122313811Y-115325500D01*
X122380850Y-115345185D01*
X122401492Y-115361819D01*
X123438181Y-116398507D01*
X123471666Y-116459830D01*
X123474500Y-116486188D01*
X123474500Y-128242852D01*
X123496682Y-128325640D01*
X123512216Y-128352545D01*
X123539535Y-128399862D01*
X125305138Y-130165465D01*
X125379361Y-130208318D01*
X125462147Y-130230500D01*
X125547853Y-130230500D01*
X156816324Y-130230500D01*
X156883363Y-130250185D01*
X156904005Y-130266819D01*
X156942686Y-130305500D01*
X157056814Y-130371392D01*
X157184108Y-130405500D01*
X157184110Y-130405500D01*
X157315890Y-130405500D01*
X157315892Y-130405500D01*
X157443186Y-130371392D01*
X157557314Y-130305500D01*
X157650500Y-130212314D01*
X157716392Y-130098186D01*
X157750500Y-129970892D01*
X157750500Y-129882915D01*
X160409575Y-129882915D01*
X160409575Y-129968620D01*
X160431757Y-130051408D01*
X160440119Y-130065891D01*
X160474610Y-130125630D01*
X160535213Y-130186233D01*
X160597539Y-130222217D01*
X160609432Y-130229084D01*
X160609436Y-130229086D01*
X160692222Y-130251268D01*
X160692224Y-130251268D01*
X160777926Y-130251268D01*
X160777928Y-130251268D01*
X160860714Y-130229086D01*
X160860718Y-130229083D01*
X160863727Y-130227837D01*
X160872437Y-130223543D01*
X160875628Y-130222220D01*
X160875638Y-130222218D01*
X160949862Y-130179365D01*
X161010465Y-130118762D01*
X161053318Y-130044538D01*
X161075500Y-129961753D01*
X161075500Y-129876047D01*
X161053318Y-129793262D01*
X161053314Y-129793255D01*
X161010469Y-129719044D01*
X161010463Y-129719036D01*
X160949863Y-129658436D01*
X160949855Y-129658430D01*
X160875644Y-129615585D01*
X160875640Y-129615583D01*
X160875638Y-129615582D01*
X160792853Y-129593400D01*
X160784796Y-129593400D01*
X160699090Y-129593400D01*
X160616304Y-129615582D01*
X160616301Y-129615583D01*
X160579193Y-129637007D01*
X160579193Y-129637008D01*
X160549754Y-129654005D01*
X160542081Y-129658435D01*
X160542078Y-129658437D01*
X160474612Y-129725903D01*
X160474610Y-129725906D01*
X160431757Y-129800127D01*
X160409575Y-129882915D01*
X157750500Y-129882915D01*
X157750500Y-129839108D01*
X157716392Y-129711814D01*
X157650500Y-129597686D01*
X157557314Y-129504500D01*
X157477356Y-129458336D01*
X157443187Y-129438608D01*
X157379539Y-129421554D01*
X157315892Y-129404500D01*
X157184108Y-129404500D01*
X157056812Y-129438608D01*
X156942686Y-129504500D01*
X156942683Y-129504502D01*
X156904005Y-129543181D01*
X156842682Y-129576666D01*
X156816324Y-129579500D01*
X125691189Y-129579500D01*
X125624150Y-129559815D01*
X125603508Y-129543181D01*
X124161819Y-128101492D01*
X124147115Y-128074564D01*
X124130523Y-128048746D01*
X124129631Y-128042545D01*
X124128334Y-128040169D01*
X124125500Y-128013811D01*
X124125500Y-127885189D01*
X124145185Y-127818150D01*
X124197989Y-127772395D01*
X124267147Y-127762451D01*
X124330703Y-127791476D01*
X124337181Y-127797508D01*
X124339535Y-127799862D01*
X125300138Y-128760465D01*
X125374361Y-128803318D01*
X125457147Y-128825500D01*
X144766324Y-128825500D01*
X144833363Y-128845185D01*
X144854005Y-128861819D01*
X144892686Y-128900500D01*
X145006814Y-128966392D01*
X145134108Y-129000500D01*
X145134110Y-129000500D01*
X145265890Y-129000500D01*
X145265892Y-129000500D01*
X145393186Y-128966392D01*
X145507314Y-128900500D01*
X145600500Y-128807314D01*
X145666392Y-128693186D01*
X145700500Y-128565892D01*
X145700500Y-128434108D01*
X145666392Y-128306814D01*
X145600500Y-128192686D01*
X145507314Y-128099500D01*
X145419406Y-128048746D01*
X145393187Y-128033608D01*
X145319302Y-128013811D01*
X145265892Y-127999500D01*
X145134108Y-127999500D01*
X145006812Y-128033608D01*
X144892686Y-128099500D01*
X144892683Y-128099502D01*
X144854005Y-128138181D01*
X144792682Y-128171666D01*
X144766324Y-128174500D01*
X125686189Y-128174500D01*
X125619150Y-128154815D01*
X125598508Y-128138181D01*
X124961819Y-127501492D01*
X124928334Y-127440169D01*
X124925500Y-127413811D01*
X124925500Y-122730247D01*
X150499500Y-122730247D01*
X150499500Y-124269752D01*
X150511131Y-124328229D01*
X150511132Y-124328230D01*
X150555447Y-124394552D01*
X150621769Y-124438867D01*
X150621770Y-124438868D01*
X150680247Y-124450499D01*
X150680250Y-124450500D01*
X150680252Y-124450500D01*
X151719750Y-124450500D01*
X151719751Y-124450499D01*
X151734568Y-124447552D01*
X151778229Y-124438868D01*
X151778231Y-124438867D01*
X151781108Y-124436945D01*
X151788335Y-124434681D01*
X151789513Y-124434194D01*
X151789556Y-124434299D01*
X151847785Y-124416066D01*
X151915165Y-124434550D01*
X151918892Y-124436945D01*
X151921768Y-124438867D01*
X151921770Y-124438868D01*
X151980247Y-124450499D01*
X151980250Y-124450500D01*
X151980252Y-124450500D01*
X153019750Y-124450500D01*
X153019751Y-124450499D01*
X153034568Y-124447552D01*
X153078229Y-124438868D01*
X153078229Y-124438867D01*
X153078231Y-124438867D01*
X153144552Y-124394552D01*
X153188867Y-124328231D01*
X153188867Y-124328229D01*
X153188868Y-124328229D01*
X153200499Y-124269752D01*
X153200500Y-124269750D01*
X153200500Y-122730249D01*
X153200499Y-122730247D01*
X153188868Y-122671770D01*
X153188867Y-122671769D01*
X153144552Y-122605447D01*
X153078230Y-122561132D01*
X153078229Y-122561131D01*
X153019752Y-122549500D01*
X153019748Y-122549500D01*
X151980252Y-122549500D01*
X151980247Y-122549500D01*
X151921770Y-122561131D01*
X151921768Y-122561132D01*
X151918887Y-122563058D01*
X151911655Y-122565322D01*
X151910487Y-122565806D01*
X151910443Y-122565701D01*
X151852209Y-122583933D01*
X151829000Y-122582162D01*
X151803021Y-122577698D01*
X151778231Y-122561133D01*
X151719748Y-122549500D01*
X151638923Y-122549500D01*
X151628500Y-122547709D01*
X151606241Y-122536797D01*
X151582461Y-122529815D01*
X151575419Y-122521688D01*
X151565763Y-122516955D01*
X151552936Y-122495742D01*
X151536706Y-122477011D01*
X151533949Y-122464340D01*
X151529611Y-122457165D01*
X151529921Y-122445824D01*
X151525500Y-122425500D01*
X151525500Y-122330247D01*
X157799500Y-122330247D01*
X157799500Y-123369752D01*
X157811131Y-123428229D01*
X157811132Y-123428231D01*
X157813058Y-123431113D01*
X157815322Y-123438344D01*
X157815806Y-123439513D01*
X157815701Y-123439556D01*
X157833933Y-123497791D01*
X157815446Y-123565171D01*
X157813058Y-123568887D01*
X157811132Y-123571768D01*
X157811131Y-123571770D01*
X157799500Y-123630247D01*
X157799500Y-124669752D01*
X157811131Y-124728229D01*
X157811132Y-124728230D01*
X157855447Y-124794552D01*
X157921769Y-124838867D01*
X157921770Y-124838868D01*
X157980247Y-124850499D01*
X157980250Y-124850500D01*
X157980252Y-124850500D01*
X159519750Y-124850500D01*
X159519751Y-124850499D01*
X159537444Y-124846980D01*
X159578229Y-124838868D01*
X159578229Y-124838867D01*
X159578231Y-124838867D01*
X159644552Y-124794552D01*
X159688867Y-124728231D01*
X159688867Y-124728229D01*
X159688868Y-124728229D01*
X159700499Y-124669752D01*
X159700500Y-124669750D01*
X159700500Y-124599500D01*
X159720185Y-124532461D01*
X159772989Y-124486706D01*
X159824500Y-124475500D01*
X160213810Y-124475500D01*
X160243246Y-124484143D01*
X160273236Y-124490667D01*
X160278253Y-124494422D01*
X160280849Y-124495185D01*
X160301491Y-124511818D01*
X160388181Y-124598507D01*
X160421666Y-124659830D01*
X160424500Y-124686189D01*
X160424500Y-127100724D01*
X160404815Y-127167763D01*
X160388181Y-127188405D01*
X160383902Y-127192683D01*
X160383900Y-127192686D01*
X160318008Y-127306812D01*
X160283900Y-127434108D01*
X160283900Y-127565891D01*
X160318008Y-127693187D01*
X160336745Y-127725639D01*
X160383900Y-127807314D01*
X160477086Y-127900500D01*
X160591214Y-127966392D01*
X160718508Y-128000500D01*
X160718510Y-128000500D01*
X160850290Y-128000500D01*
X160850292Y-128000500D01*
X160977586Y-127966392D01*
X161091714Y-127900500D01*
X161184900Y-127807314D01*
X161250792Y-127693186D01*
X161284900Y-127565892D01*
X161284900Y-127434108D01*
X161250792Y-127306814D01*
X161184900Y-127192686D01*
X161111819Y-127119605D01*
X161078334Y-127058282D01*
X161075500Y-127031924D01*
X161075500Y-124552855D01*
X161075501Y-124552842D01*
X161075501Y-124457148D01*
X161073720Y-124450500D01*
X161053318Y-124374361D01*
X161026684Y-124328231D01*
X161010465Y-124300138D01*
X160949862Y-124239535D01*
X160949859Y-124239533D01*
X160599862Y-123889535D01*
X160562750Y-123868108D01*
X160525640Y-123846682D01*
X160484246Y-123835591D01*
X160442853Y-123824500D01*
X160442852Y-123824500D01*
X159824500Y-123824500D01*
X159757461Y-123804815D01*
X159711706Y-123752011D01*
X159702291Y-123721500D01*
X159700500Y-123711077D01*
X159700500Y-123630252D01*
X159688867Y-123571769D01*
X159672300Y-123546976D01*
X159667837Y-123521000D01*
X159668947Y-123511418D01*
X159666066Y-123502215D01*
X159672905Y-123477281D01*
X159675884Y-123451596D01*
X159681998Y-123444136D01*
X159684550Y-123434835D01*
X159686945Y-123431108D01*
X159688867Y-123428231D01*
X159688868Y-123428229D01*
X159700499Y-123369752D01*
X159700500Y-123369750D01*
X159700500Y-123299500D01*
X159720185Y-123232461D01*
X159772989Y-123186706D01*
X159824500Y-123175500D01*
X162663811Y-123175500D01*
X162693251Y-123184144D01*
X162723238Y-123190668D01*
X162728253Y-123194422D01*
X162730850Y-123195185D01*
X162751492Y-123211819D01*
X162888181Y-123348508D01*
X162921666Y-123409831D01*
X162924500Y-123436189D01*
X162924500Y-129566324D01*
X162904815Y-129633363D01*
X162888181Y-129654005D01*
X162849502Y-129692683D01*
X162849500Y-129692686D01*
X162783608Y-129806812D01*
X162763217Y-129882915D01*
X162749500Y-129934108D01*
X162749500Y-130065892D01*
X162763666Y-130118762D01*
X162783608Y-130193187D01*
X162801244Y-130223732D01*
X162849500Y-130307314D01*
X162942686Y-130400500D01*
X163056814Y-130466392D01*
X163184108Y-130500500D01*
X163184110Y-130500500D01*
X163315890Y-130500500D01*
X163315892Y-130500500D01*
X163443186Y-130466392D01*
X163557314Y-130400500D01*
X163650500Y-130307314D01*
X163716392Y-130193186D01*
X163750500Y-130065892D01*
X163750500Y-129934108D01*
X163716392Y-129806814D01*
X163650500Y-129692686D01*
X163611819Y-129654005D01*
X163578334Y-129592682D01*
X163575500Y-129566324D01*
X163575500Y-123207149D01*
X163575500Y-123207147D01*
X163553318Y-123124362D01*
X163533479Y-123089999D01*
X163510469Y-123050144D01*
X163510463Y-123050136D01*
X163049864Y-122589537D01*
X163049862Y-122589535D01*
X163012750Y-122568108D01*
X162975640Y-122546682D01*
X162912689Y-122529815D01*
X162892853Y-122524500D01*
X162892852Y-122524500D01*
X159824500Y-122524500D01*
X159757461Y-122504815D01*
X159711706Y-122452011D01*
X159700500Y-122400500D01*
X159700500Y-122330249D01*
X159700499Y-122330247D01*
X159688868Y-122271770D01*
X159688867Y-122271769D01*
X159644552Y-122205447D01*
X159578230Y-122161132D01*
X159578229Y-122161131D01*
X159519752Y-122149500D01*
X159519748Y-122149500D01*
X157980252Y-122149500D01*
X157980247Y-122149500D01*
X157921770Y-122161131D01*
X157921769Y-122161132D01*
X157855447Y-122205447D01*
X157811132Y-122271769D01*
X157811131Y-122271770D01*
X157799500Y-122330247D01*
X151525500Y-122330247D01*
X151525500Y-116834108D01*
X160283900Y-116834108D01*
X160283900Y-116965891D01*
X160318008Y-117093187D01*
X160344700Y-117139418D01*
X160383900Y-117207314D01*
X160383902Y-117207316D01*
X160422581Y-117245995D01*
X160456066Y-117307318D01*
X160458900Y-117333676D01*
X160458900Y-120850724D01*
X160439215Y-120917763D01*
X160422581Y-120938405D01*
X160383902Y-120977083D01*
X160383900Y-120977086D01*
X160318008Y-121091212D01*
X160283900Y-121218508D01*
X160283900Y-121350291D01*
X160318008Y-121477587D01*
X160329967Y-121498300D01*
X160383900Y-121591714D01*
X160477086Y-121684900D01*
X160591214Y-121750792D01*
X160718508Y-121784900D01*
X160718510Y-121784900D01*
X160850290Y-121784900D01*
X160850292Y-121784900D01*
X160977586Y-121750792D01*
X161091714Y-121684900D01*
X161184900Y-121591714D01*
X161250792Y-121477586D01*
X161284900Y-121350292D01*
X161284900Y-121218508D01*
X161250792Y-121091214D01*
X161184900Y-120977086D01*
X161146219Y-120938405D01*
X161112734Y-120877082D01*
X161109900Y-120850724D01*
X161109900Y-117333676D01*
X161129585Y-117266637D01*
X161146219Y-117245995D01*
X161184900Y-117207314D01*
X161250792Y-117093186D01*
X161284900Y-116965892D01*
X161284900Y-116834108D01*
X161250792Y-116706814D01*
X161184900Y-116592686D01*
X161091714Y-116499500D01*
X161023004Y-116459830D01*
X160977587Y-116433608D01*
X160913939Y-116416554D01*
X160850292Y-116399500D01*
X160718508Y-116399500D01*
X160591212Y-116433608D01*
X160477086Y-116499500D01*
X160477083Y-116499502D01*
X160383902Y-116592683D01*
X160383900Y-116592686D01*
X160318008Y-116706812D01*
X160283900Y-116834108D01*
X151525500Y-116834108D01*
X151525500Y-116683676D01*
X151545185Y-116616637D01*
X151561819Y-116595995D01*
X151565131Y-116592683D01*
X151600500Y-116557314D01*
X151666392Y-116443186D01*
X151700500Y-116315892D01*
X151700500Y-116184108D01*
X151666392Y-116056814D01*
X151600500Y-115942686D01*
X151507314Y-115849500D01*
X151450250Y-115816554D01*
X151393187Y-115783608D01*
X151329539Y-115766554D01*
X151265892Y-115749500D01*
X151134108Y-115749500D01*
X151006812Y-115783608D01*
X150892686Y-115849500D01*
X150892683Y-115849502D01*
X150799502Y-115942683D01*
X150799500Y-115942686D01*
X150733608Y-116056812D01*
X150699500Y-116184108D01*
X150699500Y-116315891D01*
X150733608Y-116443187D01*
X150743217Y-116459830D01*
X150799500Y-116557314D01*
X150799502Y-116557316D01*
X150838181Y-116595995D01*
X150871666Y-116657318D01*
X150874500Y-116683676D01*
X150874500Y-122425500D01*
X150854815Y-122492539D01*
X150802011Y-122538294D01*
X150750500Y-122549500D01*
X150680247Y-122549500D01*
X150621770Y-122561131D01*
X150621769Y-122561132D01*
X150555447Y-122605447D01*
X150511132Y-122671769D01*
X150511131Y-122671770D01*
X150499500Y-122730247D01*
X124925500Y-122730247D01*
X124925500Y-120466806D01*
X124945185Y-120399767D01*
X124997989Y-120354012D01*
X125067147Y-120344068D01*
X125081585Y-120347029D01*
X125184108Y-120374500D01*
X125184110Y-120374500D01*
X125315890Y-120374500D01*
X125315892Y-120374500D01*
X125443186Y-120340392D01*
X125557314Y-120274500D01*
X125650500Y-120181314D01*
X125716392Y-120067186D01*
X125750500Y-119939892D01*
X125750500Y-119808108D01*
X125716392Y-119680814D01*
X125650500Y-119566686D01*
X125611819Y-119528005D01*
X125578334Y-119466682D01*
X125575500Y-119440324D01*
X125575500Y-111457149D01*
X125575500Y-111457147D01*
X125553318Y-111374362D01*
X125553318Y-111374361D01*
X125510465Y-111300138D01*
X124549862Y-110339535D01*
X124512750Y-110318108D01*
X124475640Y-110296682D01*
X124426640Y-110283553D01*
X124392853Y-110274500D01*
X124392852Y-110274500D01*
X119307488Y-110274500D01*
X119240449Y-110254815D01*
X119194694Y-110202011D01*
X119184750Y-110132853D01*
X119213775Y-110069297D01*
X119234599Y-110050184D01*
X119352510Y-109964517D01*
X119519517Y-109797510D01*
X119658343Y-109606433D01*
X119765568Y-109395992D01*
X119838553Y-109171368D01*
X119850095Y-109098493D01*
X119875500Y-108938097D01*
X119875500Y-108701902D01*
X119838553Y-108468631D01*
X119765566Y-108244003D01*
X119658342Y-108033566D01*
X119519517Y-107842490D01*
X119352510Y-107675483D01*
X119161433Y-107536657D01*
X118950996Y-107429433D01*
X118926758Y-107421558D01*
X118911179Y-107416496D01*
X118853506Y-107377059D01*
X118826308Y-107312700D01*
X118825500Y-107298566D01*
X118825500Y-107011433D01*
X118845185Y-106944394D01*
X118897989Y-106898639D01*
X118911172Y-106893505D01*
X118950992Y-106880568D01*
X119161433Y-106773343D01*
X119352510Y-106634517D01*
X119519517Y-106467510D01*
X119658343Y-106276433D01*
X119765568Y-106065992D01*
X119838553Y-105841368D01*
X119875500Y-105608097D01*
X119875500Y-105371902D01*
X119871299Y-105345379D01*
X119869514Y-105334108D01*
X125699500Y-105334108D01*
X125699500Y-105465892D01*
X125715770Y-105526613D01*
X125733608Y-105593187D01*
X125766554Y-105650250D01*
X125799500Y-105707314D01*
X125892686Y-105800500D01*
X125964417Y-105841914D01*
X126006810Y-105866390D01*
X126006814Y-105866392D01*
X126134108Y-105900500D01*
X126134110Y-105900500D01*
X126265890Y-105900500D01*
X126265892Y-105900500D01*
X126393186Y-105866392D01*
X126473219Y-105820185D01*
X126478540Y-105817113D01*
X126540540Y-105800500D01*
X134025500Y-105800500D01*
X134092539Y-105820185D01*
X134138294Y-105872989D01*
X134149500Y-105924500D01*
X134149500Y-106269752D01*
X134161131Y-106328229D01*
X134161132Y-106328230D01*
X134205447Y-106394552D01*
X134271769Y-106438867D01*
X134271770Y-106438868D01*
X134330247Y-106450499D01*
X134330250Y-106450500D01*
X134330252Y-106450500D01*
X135369750Y-106450500D01*
X135369751Y-106450499D01*
X135384568Y-106447552D01*
X135428229Y-106438868D01*
X135428231Y-106438867D01*
X135431108Y-106436945D01*
X135438335Y-106434681D01*
X135439513Y-106434194D01*
X135439556Y-106434299D01*
X135497785Y-106416066D01*
X135565165Y-106434550D01*
X135568892Y-106436945D01*
X135571768Y-106438867D01*
X135571770Y-106438868D01*
X135630247Y-106450499D01*
X135630250Y-106450500D01*
X135630252Y-106450500D01*
X136669750Y-106450500D01*
X136669751Y-106450499D01*
X136684568Y-106447552D01*
X136728229Y-106438868D01*
X136728229Y-106438867D01*
X136728231Y-106438867D01*
X136794552Y-106394552D01*
X136838867Y-106328231D01*
X136838867Y-106328229D01*
X136838868Y-106328229D01*
X136850499Y-106269752D01*
X136850500Y-106269750D01*
X136850500Y-104730249D01*
X136850499Y-104730247D01*
X136838868Y-104671770D01*
X136838867Y-104671769D01*
X136794552Y-104605447D01*
X136728230Y-104561132D01*
X136728229Y-104561131D01*
X136669752Y-104549500D01*
X136669748Y-104549500D01*
X136574500Y-104549500D01*
X136507461Y-104529815D01*
X136461706Y-104477011D01*
X136450500Y-104425500D01*
X136450500Y-104025833D01*
X136470185Y-103958794D01*
X136486819Y-103938152D01*
X137088152Y-103336819D01*
X137149475Y-103303334D01*
X137175833Y-103300500D01*
X139791324Y-103300500D01*
X139858363Y-103320185D01*
X139879005Y-103336819D01*
X139942686Y-103400500D01*
X140056814Y-103466392D01*
X140184108Y-103500500D01*
X140184110Y-103500500D01*
X140315890Y-103500500D01*
X140315892Y-103500500D01*
X140443186Y-103466392D01*
X140557314Y-103400500D01*
X140650500Y-103307314D01*
X140716392Y-103193186D01*
X140750500Y-103065892D01*
X140750500Y-102934108D01*
X140716392Y-102806814D01*
X140650500Y-102692686D01*
X140557314Y-102599500D01*
X140500250Y-102566554D01*
X140443187Y-102533608D01*
X140369791Y-102513942D01*
X140315892Y-102499500D01*
X140184108Y-102499500D01*
X140056812Y-102533608D01*
X139942686Y-102599500D01*
X139942683Y-102599502D01*
X139879005Y-102663181D01*
X139817682Y-102696666D01*
X139791324Y-102699500D01*
X136960438Y-102699500D01*
X136884010Y-102719978D01*
X136815489Y-102759540D01*
X136815486Y-102759542D01*
X135909541Y-103665487D01*
X135909535Y-103665495D01*
X135869982Y-103734004D01*
X135869979Y-103734009D01*
X135849500Y-103810439D01*
X135849500Y-104425500D01*
X135829815Y-104492539D01*
X135777011Y-104538294D01*
X135744228Y-104548078D01*
X135734921Y-104549500D01*
X135630252Y-104549500D01*
X135571769Y-104561133D01*
X135545975Y-104578368D01*
X135518728Y-104582531D01*
X135510311Y-104581396D01*
X135502209Y-104583933D01*
X135476209Y-104576799D01*
X135449485Y-104573197D01*
X135443018Y-104567693D01*
X135434829Y-104565446D01*
X135431113Y-104563058D01*
X135428231Y-104561132D01*
X135428229Y-104561131D01*
X135369752Y-104549500D01*
X135369748Y-104549500D01*
X135299500Y-104549500D01*
X135232461Y-104529815D01*
X135186706Y-104477011D01*
X135175500Y-104425500D01*
X135175500Y-101036188D01*
X135184144Y-101006747D01*
X135190668Y-100976761D01*
X135194422Y-100971745D01*
X135195185Y-100969149D01*
X135211819Y-100948507D01*
X135298507Y-100861819D01*
X135359830Y-100828334D01*
X135386188Y-100825500D01*
X142003001Y-100825500D01*
X142070040Y-100845185D01*
X142110388Y-100887500D01*
X142171997Y-100994210D01*
X142171999Y-100994212D01*
X142172000Y-100994214D01*
X142265186Y-101087400D01*
X142379314Y-101153292D01*
X142506608Y-101187400D01*
X142506610Y-101187400D01*
X142638390Y-101187400D01*
X142638392Y-101187400D01*
X142765686Y-101153292D01*
X142879814Y-101087400D01*
X142973000Y-100994214D01*
X143038892Y-100880086D01*
X143073000Y-100752792D01*
X143073000Y-100621008D01*
X143038892Y-100493714D01*
X142973000Y-100379586D01*
X142879814Y-100286400D01*
X142822750Y-100253454D01*
X142765687Y-100220508D01*
X142685349Y-100198982D01*
X142638392Y-100186400D01*
X142506608Y-100186400D01*
X142498482Y-100186400D01*
X142498482Y-100185507D01*
X142460158Y-100182995D01*
X142428453Y-100174500D01*
X135250465Y-100174500D01*
X135250449Y-100174499D01*
X135242853Y-100174499D01*
X135157147Y-100174499D01*
X135116066Y-100185507D01*
X135074360Y-100196682D01*
X135070377Y-100198982D01*
X135051594Y-100209827D01*
X135032990Y-100220568D01*
X135000139Y-100239534D01*
X135000136Y-100239536D01*
X134589537Y-100650135D01*
X134589535Y-100650138D01*
X134546682Y-100724359D01*
X134546146Y-100726360D01*
X134537008Y-100760465D01*
X134537008Y-100760466D01*
X134537007Y-100760465D01*
X134524500Y-100807143D01*
X134524500Y-104425500D01*
X134504815Y-104492539D01*
X134452011Y-104538294D01*
X134400500Y-104549500D01*
X134330247Y-104549500D01*
X134271770Y-104561131D01*
X134271769Y-104561132D01*
X134205447Y-104605447D01*
X134161132Y-104671769D01*
X134161131Y-104671770D01*
X134149500Y-104730247D01*
X134149500Y-105075500D01*
X134129815Y-105142539D01*
X134077011Y-105188294D01*
X134025500Y-105199500D01*
X126733760Y-105199500D01*
X126666721Y-105179815D01*
X126626373Y-105137500D01*
X126600500Y-105092686D01*
X126507314Y-104999500D01*
X126450250Y-104966554D01*
X126393187Y-104933608D01*
X126320018Y-104914003D01*
X126265892Y-104899500D01*
X126134108Y-104899500D01*
X126006812Y-104933608D01*
X125892686Y-104999500D01*
X125892683Y-104999502D01*
X125799502Y-105092683D01*
X125799500Y-105092686D01*
X125733608Y-105206812D01*
X125721902Y-105250500D01*
X125699500Y-105334108D01*
X119869514Y-105334108D01*
X119838553Y-105138631D01*
X119775049Y-104943187D01*
X119765568Y-104914008D01*
X119765566Y-104914005D01*
X119765566Y-104914003D01*
X119694315Y-104774167D01*
X119658343Y-104703567D01*
X119519517Y-104512490D01*
X119352510Y-104345483D01*
X119161433Y-104206657D01*
X119126518Y-104188867D01*
X118950996Y-104099433D01*
X118934740Y-104094151D01*
X118911179Y-104086496D01*
X118853506Y-104047059D01*
X118826308Y-103982700D01*
X118825500Y-103968566D01*
X118825500Y-103656433D01*
X118845185Y-103589394D01*
X118897989Y-103543639D01*
X118911172Y-103538505D01*
X118950992Y-103525568D01*
X119161433Y-103418343D01*
X119352510Y-103279517D01*
X119519517Y-103112510D01*
X119658343Y-102921433D01*
X119765568Y-102710992D01*
X119838553Y-102486368D01*
X119848784Y-102421770D01*
X119875500Y-102253097D01*
X119875500Y-102016902D01*
X119838553Y-101783631D01*
X119786695Y-101624031D01*
X119765568Y-101559008D01*
X119765566Y-101559005D01*
X119765566Y-101559003D01*
X119694301Y-101419139D01*
X119658343Y-101348567D01*
X119519517Y-101157490D01*
X119352510Y-100990483D01*
X119161433Y-100851657D01*
X119110097Y-100825500D01*
X118950996Y-100744433D01*
X118934740Y-100739151D01*
X118911179Y-100731496D01*
X118853506Y-100692059D01*
X118826308Y-100627700D01*
X118825500Y-100613566D01*
X118825500Y-100351433D01*
X118845185Y-100284394D01*
X118897989Y-100238639D01*
X118911172Y-100233505D01*
X118950992Y-100220568D01*
X119161433Y-100113343D01*
X119352510Y-99974517D01*
X119519517Y-99807510D01*
X119658343Y-99616433D01*
X119765568Y-99405992D01*
X119838553Y-99181368D01*
X119840721Y-99167680D01*
X119875500Y-98948097D01*
X119875500Y-98882346D01*
X148099500Y-98882346D01*
X148099500Y-99922654D01*
X148105629Y-99979660D01*
X148105630Y-99979665D01*
X148153724Y-100108611D01*
X148153725Y-100108612D01*
X148153726Y-100108614D01*
X148236206Y-100218794D01*
X148346386Y-100301274D01*
X148346387Y-100301274D01*
X148346388Y-100301275D01*
X148475335Y-100349369D01*
X148475334Y-100349369D01*
X148475340Y-100349371D01*
X148532346Y-100355500D01*
X148550500Y-100355500D01*
X148617539Y-100375185D01*
X148663294Y-100427989D01*
X148674500Y-100479500D01*
X148674500Y-112566324D01*
X148654815Y-112633363D01*
X148638181Y-112654005D01*
X148599502Y-112692683D01*
X148599500Y-112692686D01*
X148533608Y-112806812D01*
X148502078Y-112924486D01*
X148499500Y-112934108D01*
X148499500Y-113065892D01*
X148505450Y-113088097D01*
X148533608Y-113193187D01*
X148566554Y-113250250D01*
X148599500Y-113307314D01*
X148692686Y-113400500D01*
X148806814Y-113466392D01*
X148934108Y-113500500D01*
X148934110Y-113500500D01*
X149065890Y-113500500D01*
X149065892Y-113500500D01*
X149193186Y-113466392D01*
X149307314Y-113400500D01*
X149400500Y-113307314D01*
X149466392Y-113193186D01*
X149500500Y-113065892D01*
X149500500Y-112934108D01*
X149466392Y-112806814D01*
X149400500Y-112692686D01*
X149361819Y-112654005D01*
X149328334Y-112592682D01*
X149325500Y-112566324D01*
X149325500Y-100475177D01*
X149345185Y-100408138D01*
X149397989Y-100362383D01*
X149436239Y-100351889D01*
X149459660Y-100349371D01*
X149588614Y-100301274D01*
X149698794Y-100218794D01*
X149781274Y-100108614D01*
X149829371Y-99979660D01*
X149835500Y-99922654D01*
X149835500Y-98882346D01*
X149829371Y-98825340D01*
X149829369Y-98825334D01*
X149781275Y-98696388D01*
X149781274Y-98696387D01*
X149781274Y-98696386D01*
X149698794Y-98586206D01*
X149588614Y-98503726D01*
X149588612Y-98503725D01*
X149588611Y-98503724D01*
X149459664Y-98455630D01*
X149459665Y-98455630D01*
X149459661Y-98455629D01*
X149459660Y-98455629D01*
X149402654Y-98449500D01*
X148532346Y-98449500D01*
X148475340Y-98455629D01*
X148475338Y-98455629D01*
X148475334Y-98455630D01*
X148346388Y-98503724D01*
X148346386Y-98503726D01*
X148236206Y-98586206D01*
X148153726Y-98696386D01*
X148153724Y-98696388D01*
X148105630Y-98825334D01*
X148105629Y-98825338D01*
X148105629Y-98825340D01*
X148099500Y-98882346D01*
X119875500Y-98882346D01*
X119875500Y-98711902D01*
X119838553Y-98478631D01*
X119804689Y-98374412D01*
X119765568Y-98254008D01*
X119765566Y-98254005D01*
X119765566Y-98254003D01*
X119683462Y-98092866D01*
X119658343Y-98043567D01*
X119519517Y-97852490D01*
X119352510Y-97685483D01*
X119161433Y-97546657D01*
X119120705Y-97525905D01*
X118950996Y-97439433D01*
X118934740Y-97434151D01*
X118911179Y-97426496D01*
X118853506Y-97387059D01*
X118826308Y-97322700D01*
X118825500Y-97308566D01*
X118825500Y-97021433D01*
X118845185Y-96954394D01*
X118897989Y-96908639D01*
X118911172Y-96903505D01*
X118950992Y-96890568D01*
X119161433Y-96783343D01*
X119352510Y-96644517D01*
X119519517Y-96477510D01*
X119658343Y-96286433D01*
X119686971Y-96230247D01*
X130649500Y-96230247D01*
X130649500Y-97769752D01*
X130661131Y-97828229D01*
X130661132Y-97828230D01*
X130705447Y-97894552D01*
X130771769Y-97938867D01*
X130771770Y-97938868D01*
X130830247Y-97950499D01*
X130830250Y-97950500D01*
X130830252Y-97950500D01*
X131869750Y-97950500D01*
X131869751Y-97950499D01*
X131884568Y-97947552D01*
X131928229Y-97938868D01*
X131928231Y-97938867D01*
X131931108Y-97936945D01*
X131938335Y-97934681D01*
X131939513Y-97934194D01*
X131939556Y-97934299D01*
X131997785Y-97916066D01*
X132065165Y-97934550D01*
X132068892Y-97936945D01*
X132071768Y-97938867D01*
X132071770Y-97938868D01*
X132130247Y-97950499D01*
X132130250Y-97950500D01*
X132130252Y-97950500D01*
X133169750Y-97950500D01*
X133169751Y-97950499D01*
X133184568Y-97947552D01*
X133228229Y-97938868D01*
X133228229Y-97938867D01*
X133228231Y-97938867D01*
X133294552Y-97894552D01*
X133338867Y-97828231D01*
X133338867Y-97828229D01*
X133338868Y-97828229D01*
X133349810Y-97773215D01*
X133350500Y-97769748D01*
X133350500Y-97500000D01*
X133989161Y-97500000D01*
X133999629Y-97592921D01*
X134059580Y-97764253D01*
X134059584Y-97764260D01*
X134156166Y-97917971D01*
X134284528Y-98046333D01*
X134438239Y-98142915D01*
X134438241Y-98142916D01*
X134609589Y-98202873D01*
X134744727Y-98218099D01*
X134744739Y-98218100D01*
X134750000Y-98218099D01*
X134750000Y-97500000D01*
X133989161Y-97500000D01*
X133350500Y-97500000D01*
X133350500Y-96499999D01*
X133989158Y-96499999D01*
X133989158Y-96500000D01*
X134750000Y-96500000D01*
X134750000Y-95781900D01*
X134744733Y-95781901D01*
X134609589Y-95797126D01*
X134609576Y-95797129D01*
X134438246Y-95857080D01*
X134438239Y-95857084D01*
X134284528Y-95953666D01*
X134156166Y-96082028D01*
X134059584Y-96235739D01*
X134059583Y-96235741D01*
X133999627Y-96407087D01*
X133999626Y-96407092D01*
X133989158Y-96499999D01*
X133350500Y-96499999D01*
X133350500Y-96230252D01*
X133350500Y-96230249D01*
X133350499Y-96230247D01*
X133338868Y-96171770D01*
X133338867Y-96171769D01*
X133294552Y-96105447D01*
X133228230Y-96061132D01*
X133228229Y-96061131D01*
X133169752Y-96049500D01*
X133169748Y-96049500D01*
X132130252Y-96049500D01*
X132130247Y-96049500D01*
X132071770Y-96061131D01*
X132071768Y-96061132D01*
X132068887Y-96063058D01*
X132061655Y-96065322D01*
X132060487Y-96065806D01*
X132060443Y-96065701D01*
X132002209Y-96083933D01*
X131934829Y-96065446D01*
X131931113Y-96063058D01*
X131928231Y-96061132D01*
X131928229Y-96061131D01*
X131869752Y-96049500D01*
X131869748Y-96049500D01*
X130830252Y-96049500D01*
X130830247Y-96049500D01*
X130771770Y-96061131D01*
X130771769Y-96061132D01*
X130705447Y-96105447D01*
X130661132Y-96171769D01*
X130661131Y-96171770D01*
X130649500Y-96230247D01*
X119686971Y-96230247D01*
X119765568Y-96075992D01*
X119780571Y-96029815D01*
X119783312Y-96023712D01*
X119801845Y-96002044D01*
X119817941Y-95978506D01*
X119824265Y-95975833D01*
X119828728Y-95970616D01*
X119856032Y-95962408D01*
X119882300Y-95951308D01*
X119895465Y-95950555D01*
X119895640Y-95950503D01*
X119895763Y-95950538D01*
X119896434Y-95950500D01*
X120559308Y-95950500D01*
X120559309Y-95950500D01*
X120649673Y-95926286D01*
X120673887Y-95919799D01*
X120776614Y-95860489D01*
X122367389Y-94269714D01*
X122409554Y-94196682D01*
X122413666Y-94189561D01*
X122426696Y-94166991D01*
X122426697Y-94166990D01*
X122426697Y-94166988D01*
X122426699Y-94166986D01*
X122457400Y-94052409D01*
X122457400Y-88831400D01*
X122477085Y-88764361D01*
X122529889Y-88718606D01*
X122581400Y-88707400D01*
X152391100Y-88707400D01*
X152458139Y-88727085D01*
X152503894Y-88779889D01*
X152515100Y-88831400D01*
X152515100Y-96418600D01*
X152495415Y-96485639D01*
X152442611Y-96531394D01*
X152391100Y-96542600D01*
X149923769Y-96542600D01*
X149856730Y-96522915D01*
X149810975Y-96470111D01*
X149807587Y-96461933D01*
X149781275Y-96391388D01*
X149781274Y-96391387D01*
X149781274Y-96391386D01*
X149698794Y-96281206D01*
X149588614Y-96198726D01*
X149588612Y-96198725D01*
X149588611Y-96198724D01*
X149459664Y-96150630D01*
X149459665Y-96150630D01*
X149459661Y-96150629D01*
X149459660Y-96150629D01*
X149402654Y-96144500D01*
X148532346Y-96144500D01*
X148475340Y-96150629D01*
X148475338Y-96150629D01*
X148475334Y-96150630D01*
X148346388Y-96198724D01*
X148346386Y-96198726D01*
X148236206Y-96281206D01*
X148153726Y-96391386D01*
X148153724Y-96391388D01*
X148127413Y-96461933D01*
X148085542Y-96517867D01*
X148020077Y-96542284D01*
X148011231Y-96542600D01*
X138754962Y-96542600D01*
X138687923Y-96522915D01*
X138642168Y-96470111D01*
X138638785Y-96461947D01*
X138589631Y-96330160D01*
X138501915Y-96212985D01*
X138431504Y-96160276D01*
X138384742Y-96125270D01*
X138384740Y-96125269D01*
X138247600Y-96074118D01*
X138247598Y-96074117D01*
X138247596Y-96074117D01*
X138186980Y-96067600D01*
X137175430Y-96067600D01*
X137175424Y-96067601D01*
X137114797Y-96074118D01*
X136977660Y-96125268D01*
X136860485Y-96212985D01*
X136772769Y-96330159D01*
X136737733Y-96424093D01*
X136695862Y-96480026D01*
X136630397Y-96504442D01*
X136562124Y-96489590D01*
X136512719Y-96440184D01*
X136500659Y-96408340D01*
X136500371Y-96407079D01*
X136440419Y-96235746D01*
X136440415Y-96235739D01*
X136343833Y-96082028D01*
X136215471Y-95953666D01*
X136061760Y-95857084D01*
X136061758Y-95857083D01*
X135890410Y-95797126D01*
X135755269Y-95781900D01*
X135750000Y-95781900D01*
X135750000Y-98218099D01*
X135755265Y-98218099D01*
X135755270Y-98218098D01*
X135890410Y-98202873D01*
X135890423Y-98202870D01*
X136061753Y-98142919D01*
X136061760Y-98142915D01*
X136215471Y-98046333D01*
X136343833Y-97917971D01*
X136440415Y-97764260D01*
X136440416Y-97764258D01*
X136500374Y-97592907D01*
X136501924Y-97586120D01*
X136504004Y-97586595D01*
X136527065Y-97531683D01*
X136584650Y-97492114D01*
X136654487Y-97489961D01*
X136714401Y-97525905D01*
X136739417Y-97566623D01*
X136768269Y-97643976D01*
X136772769Y-97656040D01*
X136860485Y-97773215D01*
X136977660Y-97860931D01*
X137114800Y-97912082D01*
X137175427Y-97918600D01*
X138186972Y-97918599D01*
X138247600Y-97912082D01*
X138384740Y-97860931D01*
X138501915Y-97773215D01*
X138589631Y-97656040D01*
X138638781Y-97524264D01*
X138680652Y-97468333D01*
X138746117Y-97443916D01*
X138754962Y-97443600D01*
X147975500Y-97443600D01*
X148042539Y-97463285D01*
X148088294Y-97516089D01*
X148099500Y-97567600D01*
X148099500Y-97617654D01*
X148105629Y-97674660D01*
X148105630Y-97674665D01*
X148153724Y-97803611D01*
X148153725Y-97803612D01*
X148153726Y-97803614D01*
X148236206Y-97913794D01*
X148346386Y-97996274D01*
X148346387Y-97996274D01*
X148346388Y-97996275D01*
X148430565Y-98027671D01*
X148473184Y-98043567D01*
X148475335Y-98044369D01*
X148475334Y-98044369D01*
X148475340Y-98044371D01*
X148532346Y-98050500D01*
X148532356Y-98050500D01*
X149402644Y-98050500D01*
X149402654Y-98050500D01*
X149459660Y-98044371D01*
X149588614Y-97996274D01*
X149698794Y-97913794D01*
X149781274Y-97803614D01*
X149829371Y-97674660D01*
X149835500Y-97617654D01*
X149835500Y-97567600D01*
X149855185Y-97500561D01*
X149907989Y-97454806D01*
X149959500Y-97443600D01*
X152658481Y-97443600D01*
X152725520Y-97463285D01*
X152746157Y-97479914D01*
X152782332Y-97516089D01*
X152803457Y-97537214D01*
X152918192Y-97613877D01*
X153045667Y-97666678D01*
X153045672Y-97666680D01*
X153045676Y-97666680D01*
X153045677Y-97666681D01*
X153181003Y-97693600D01*
X153181006Y-97693600D01*
X153318996Y-97693600D01*
X153414210Y-97674660D01*
X153454328Y-97666680D01*
X153572688Y-97617654D01*
X153581807Y-97613877D01*
X153581808Y-97613876D01*
X153581811Y-97613875D01*
X153696543Y-97537214D01*
X153753839Y-97479917D01*
X153780770Y-97465211D01*
X153806584Y-97448623D01*
X153812783Y-97447731D01*
X153815160Y-97446434D01*
X153841519Y-97443600D01*
X154005135Y-97443600D01*
X154072174Y-97463285D01*
X154092816Y-97479919D01*
X154513181Y-97900284D01*
X154546666Y-97961607D01*
X154549500Y-97987965D01*
X154549500Y-105309309D01*
X154566272Y-105371902D01*
X154569517Y-105384012D01*
X154569517Y-105384013D01*
X154580199Y-105423885D01*
X154586103Y-105434110D01*
X154639511Y-105526614D01*
X156473386Y-107360490D01*
X156473388Y-107360491D01*
X156473392Y-107360494D01*
X156576110Y-107419798D01*
X156576113Y-107419799D01*
X156593653Y-107424498D01*
X156593656Y-107424500D01*
X156593657Y-107424500D01*
X156610863Y-107429110D01*
X156690691Y-107450500D01*
X164382035Y-107450500D01*
X164449074Y-107470185D01*
X164469716Y-107486819D01*
X166165681Y-109182784D01*
X166199166Y-109244107D01*
X166202000Y-109270465D01*
X166202000Y-126711808D01*
X166222582Y-126788624D01*
X166232700Y-126826385D01*
X166232701Y-126826388D01*
X166247134Y-126851386D01*
X166292011Y-126929114D01*
X166292013Y-126929116D01*
X167001887Y-127638990D01*
X167029163Y-127686233D01*
X167030499Y-127685680D01*
X167033607Y-127693185D01*
X167052345Y-127725639D01*
X167099500Y-127807314D01*
X167192686Y-127900500D01*
X167306814Y-127966392D01*
X167434108Y-128000500D01*
X167434110Y-128000500D01*
X167565890Y-128000500D01*
X167565892Y-128000500D01*
X167693186Y-127966392D01*
X167807314Y-127900500D01*
X167900500Y-127807314D01*
X167966392Y-127693186D01*
X168000500Y-127565892D01*
X168000500Y-127434108D01*
X167966392Y-127306814D01*
X167900500Y-127192686D01*
X167807314Y-127099500D01*
X167699678Y-127037356D01*
X167693185Y-127033607D01*
X167685680Y-127030499D01*
X167686233Y-127029163D01*
X167638990Y-127001887D01*
X167139319Y-126502216D01*
X167105834Y-126440893D01*
X167103000Y-126414535D01*
X167103000Y-122995513D01*
X174498700Y-122995513D01*
X174498700Y-123184486D01*
X174528259Y-123371118D01*
X174586654Y-123550836D01*
X174651375Y-123677857D01*
X174672440Y-123719199D01*
X174783510Y-123872073D01*
X174917127Y-124005690D01*
X175070001Y-124116760D01*
X175149547Y-124157290D01*
X175238363Y-124202545D01*
X175238365Y-124202545D01*
X175238368Y-124202547D01*
X175323555Y-124230226D01*
X175418081Y-124260940D01*
X175604714Y-124290500D01*
X175604719Y-124290500D01*
X175793680Y-124290500D01*
X175793681Y-124290500D01*
X175830866Y-124284610D01*
X175836291Y-124285311D01*
X175841418Y-124283399D01*
X175870569Y-124289740D01*
X175900158Y-124293564D01*
X175905762Y-124297396D01*
X175909691Y-124298251D01*
X175937945Y-124319402D01*
X175996781Y-124378238D01*
X176030266Y-124439561D01*
X176033100Y-124465919D01*
X176033100Y-124507823D01*
X176013415Y-124574862D01*
X175983411Y-124607090D01*
X175912885Y-124659885D01*
X175825170Y-124777057D01*
X175825169Y-124777060D01*
X175778776Y-124901445D01*
X175774017Y-124914203D01*
X175767500Y-124974810D01*
X175767500Y-125905169D01*
X175767501Y-125905175D01*
X175774018Y-125965802D01*
X175825168Y-126102939D01*
X175912886Y-126220116D01*
X175983410Y-126272909D01*
X176025282Y-126328842D01*
X176033100Y-126372176D01*
X176033100Y-126639689D01*
X176013415Y-126706728D01*
X175983414Y-126738954D01*
X175980408Y-126741204D01*
X175980407Y-126741205D01*
X175980406Y-126741206D01*
X175916642Y-126826385D01*
X175897926Y-126851386D01*
X175897924Y-126851388D01*
X175849830Y-126980334D01*
X175849829Y-126980338D01*
X175849829Y-126980340D01*
X175843700Y-127037346D01*
X175843700Y-127907654D01*
X175848548Y-127952744D01*
X175849830Y-127964665D01*
X175897924Y-128093611D01*
X175897925Y-128093612D01*
X175897926Y-128093614D01*
X175958477Y-128174500D01*
X175964966Y-128183168D01*
X175984300Y-128235003D01*
X175989383Y-128248633D01*
X175974531Y-128316906D01*
X175953380Y-128345160D01*
X175937944Y-128360596D01*
X175876621Y-128394081D01*
X175830867Y-128395389D01*
X175793682Y-128389500D01*
X175793681Y-128389500D01*
X175604719Y-128389500D01*
X175604714Y-128389500D01*
X175418081Y-128419059D01*
X175238363Y-128477454D01*
X175070000Y-128563240D01*
X174991272Y-128620440D01*
X174917127Y-128674310D01*
X174917125Y-128674312D01*
X174917124Y-128674312D01*
X174783512Y-128807924D01*
X174783512Y-128807925D01*
X174783510Y-128807927D01*
X174744355Y-128861819D01*
X174672440Y-128960800D01*
X174586654Y-129129163D01*
X174528259Y-129308881D01*
X174498700Y-129495513D01*
X174498700Y-129684486D01*
X174528259Y-129871118D01*
X174586654Y-130050836D01*
X174655643Y-130186233D01*
X174672440Y-130219199D01*
X174783510Y-130372073D01*
X174917127Y-130505690D01*
X175070001Y-130616760D01*
X175149547Y-130657290D01*
X175238363Y-130702545D01*
X175238365Y-130702545D01*
X175238368Y-130702547D01*
X175334697Y-130733846D01*
X175418081Y-130760940D01*
X175604714Y-130790500D01*
X175604719Y-130790500D01*
X175793686Y-130790500D01*
X175869823Y-130778441D01*
X175980318Y-130760940D01*
X176160032Y-130702547D01*
X176328399Y-130616760D01*
X176481273Y-130505690D01*
X176614890Y-130372073D01*
X176725960Y-130219199D01*
X176811747Y-130050832D01*
X176870140Y-129871118D01*
X176881041Y-129802292D01*
X176899700Y-129684486D01*
X176899700Y-129495521D01*
X176899699Y-129495513D01*
X176895966Y-129471947D01*
X178699200Y-129471947D01*
X178699200Y-129708052D01*
X178736134Y-129941247D01*
X178809098Y-130165805D01*
X178845278Y-130236813D01*
X178845279Y-130236814D01*
X179492094Y-129590000D01*
X179492094Y-129589999D01*
X179419686Y-129517591D01*
X179649200Y-129517591D01*
X179649200Y-129662409D01*
X179686682Y-129802292D01*
X179759090Y-129927708D01*
X179861492Y-130030110D01*
X179986908Y-130102518D01*
X180126791Y-130140000D01*
X180271609Y-130140000D01*
X180411492Y-130102518D01*
X180536908Y-130030110D01*
X180639310Y-129927708D01*
X180711718Y-129802292D01*
X180749200Y-129662409D01*
X180749200Y-129589999D01*
X180906306Y-129589999D01*
X180906306Y-129590000D01*
X181553119Y-130236814D01*
X181589304Y-130165797D01*
X181662265Y-129941247D01*
X181699200Y-129708052D01*
X181699200Y-129471947D01*
X181662265Y-129238752D01*
X181589302Y-129014197D01*
X181553119Y-128943184D01*
X180906306Y-129589999D01*
X180749200Y-129589999D01*
X180749200Y-129517591D01*
X180711718Y-129377708D01*
X180639310Y-129252292D01*
X180536908Y-129149890D01*
X180411492Y-129077482D01*
X180271609Y-129040000D01*
X180126791Y-129040000D01*
X179986908Y-129077482D01*
X179861492Y-129149890D01*
X179759090Y-129252292D01*
X179686682Y-129377708D01*
X179649200Y-129517591D01*
X179419686Y-129517591D01*
X178845278Y-128943184D01*
X178809094Y-129014202D01*
X178809094Y-129014203D01*
X178736134Y-129238751D01*
X178699200Y-129471947D01*
X176895966Y-129471947D01*
X176893809Y-129458330D01*
X176902762Y-129389042D01*
X176928596Y-129351258D01*
X177340813Y-128939043D01*
X177379860Y-128880606D01*
X177417475Y-128824311D01*
X177449948Y-128745913D01*
X177470280Y-128696829D01*
X177484440Y-128625639D01*
X177497200Y-128561493D01*
X177497200Y-128352545D01*
X177516885Y-128285506D01*
X177546883Y-128253283D01*
X177612994Y-128203794D01*
X177695474Y-128093614D01*
X177743571Y-127964660D01*
X177749700Y-127907654D01*
X177749700Y-127037346D01*
X177743571Y-126980340D01*
X177724465Y-126929114D01*
X177695475Y-126851388D01*
X177695474Y-126851387D01*
X177695474Y-126851386D01*
X177612994Y-126741206D01*
X177502814Y-126658726D01*
X177502812Y-126658725D01*
X177498677Y-126656467D01*
X177489151Y-126646942D01*
X177476897Y-126641346D01*
X177464926Y-126622718D01*
X177449270Y-126607064D01*
X177445583Y-126592620D01*
X177439123Y-126582568D01*
X177434100Y-126547633D01*
X177434100Y-126372176D01*
X177453785Y-126305137D01*
X177483790Y-126272909D01*
X177554315Y-126220115D01*
X177642031Y-126102940D01*
X177677067Y-126009005D01*
X177718936Y-125953074D01*
X177784401Y-125928657D01*
X177852674Y-125943509D01*
X177902079Y-125992914D01*
X177914138Y-126024748D01*
X177914428Y-126026019D01*
X177974380Y-126197353D01*
X177974384Y-126197360D01*
X178070966Y-126351071D01*
X178199328Y-126479433D01*
X178283360Y-126532234D01*
X178329651Y-126584569D01*
X178340299Y-126653622D01*
X178311924Y-126717471D01*
X178291703Y-126736492D01*
X178285409Y-126741204D01*
X178285406Y-126741206D01*
X178221642Y-126826385D01*
X178202926Y-126851386D01*
X178202924Y-126851388D01*
X178154830Y-126980334D01*
X178154829Y-126980338D01*
X178154829Y-126980340D01*
X178148700Y-127037346D01*
X178148700Y-127907654D01*
X178153548Y-127952744D01*
X178154830Y-127964665D01*
X178202924Y-128093611D01*
X178202925Y-128093612D01*
X178202926Y-128093614D01*
X178285406Y-128203794D01*
X178395586Y-128286274D01*
X178395587Y-128286274D01*
X178395588Y-128286275D01*
X178450651Y-128306812D01*
X178501128Y-128325639D01*
X178524535Y-128334369D01*
X178524534Y-128334369D01*
X178524540Y-128334371D01*
X178581546Y-128340500D01*
X178581556Y-128340500D01*
X179605444Y-128340500D01*
X179672483Y-128360185D01*
X179693125Y-128376819D01*
X180199200Y-128882894D01*
X180199201Y-128882894D01*
X180846014Y-128236079D01*
X180846013Y-128236078D01*
X180775005Y-128199898D01*
X180550447Y-128126934D01*
X180550448Y-128126934D01*
X180317252Y-128090000D01*
X180173141Y-128090000D01*
X180106102Y-128070315D01*
X180060347Y-128017511D01*
X180049852Y-127952744D01*
X180054699Y-127907661D01*
X180054700Y-127907654D01*
X180054700Y-127037346D01*
X180048571Y-126980340D01*
X180029465Y-126929114D01*
X180000475Y-126851388D01*
X180000474Y-126851386D01*
X179932931Y-126761159D01*
X179908515Y-126695698D01*
X179923366Y-126627425D01*
X179970821Y-126579968D01*
X179970665Y-126579720D01*
X179971754Y-126579035D01*
X179972771Y-126578019D01*
X179976052Y-126576334D01*
X180130271Y-126479433D01*
X180258633Y-126351071D01*
X180355215Y-126197360D01*
X180355216Y-126197358D01*
X180415172Y-126026012D01*
X180415173Y-126026007D01*
X180425641Y-125933100D01*
X179288800Y-125933100D01*
X179221761Y-125913415D01*
X179176006Y-125860611D01*
X179164800Y-125809100D01*
X179164800Y-125433100D01*
X178788800Y-125433100D01*
X178721761Y-125413415D01*
X178676006Y-125360611D01*
X178664800Y-125309100D01*
X178664800Y-124331505D01*
X179664800Y-124331505D01*
X179664800Y-124933100D01*
X180425639Y-124933100D01*
X180415170Y-124840178D01*
X180376140Y-124728636D01*
X180372578Y-124658857D01*
X180407306Y-124598230D01*
X180469299Y-124566002D01*
X180473783Y-124565208D01*
X180550447Y-124553065D01*
X180774997Y-124480104D01*
X180846014Y-124443919D01*
X180199200Y-123797106D01*
X179664800Y-124331505D01*
X178664800Y-124331505D01*
X178664800Y-124215000D01*
X178659533Y-124215001D01*
X178524389Y-124230226D01*
X178524376Y-124230229D01*
X178353046Y-124290180D01*
X178353039Y-124290184D01*
X178199328Y-124386766D01*
X178070966Y-124515128D01*
X177974384Y-124668839D01*
X177974383Y-124668841D01*
X177914425Y-124840192D01*
X177912876Y-124846980D01*
X177910800Y-124846506D01*
X177887712Y-124901445D01*
X177830114Y-124940996D01*
X177760277Y-124943129D01*
X177700373Y-124907167D01*
X177675382Y-124866475D01*
X177642031Y-124777060D01*
X177605477Y-124728230D01*
X177554315Y-124659885D01*
X177483788Y-124607089D01*
X177441918Y-124551156D01*
X177434100Y-124507823D01*
X177434100Y-124055404D01*
X177407181Y-123920077D01*
X177407180Y-123920076D01*
X177407180Y-123920072D01*
X177387299Y-123872074D01*
X177354377Y-123792592D01*
X177277712Y-123677854D01*
X177277711Y-123677853D01*
X176928602Y-123328745D01*
X176895117Y-123267422D01*
X176893810Y-123221665D01*
X176895967Y-123208052D01*
X176899700Y-123184481D01*
X176899700Y-122995519D01*
X176899700Y-122995514D01*
X176898268Y-122986474D01*
X176898268Y-122986473D01*
X176895967Y-122971947D01*
X178699200Y-122971947D01*
X178699200Y-123208052D01*
X178736134Y-123441247D01*
X178809098Y-123665805D01*
X178845278Y-123736813D01*
X178845279Y-123736814D01*
X179492094Y-123090000D01*
X179492094Y-123089999D01*
X179419686Y-123017591D01*
X179649200Y-123017591D01*
X179649200Y-123162409D01*
X179686682Y-123302292D01*
X179759090Y-123427708D01*
X179861492Y-123530110D01*
X179986908Y-123602518D01*
X180126791Y-123640000D01*
X180271609Y-123640000D01*
X180411492Y-123602518D01*
X180536908Y-123530110D01*
X180639310Y-123427708D01*
X180711718Y-123302292D01*
X180749200Y-123162409D01*
X180749200Y-123089999D01*
X180906306Y-123089999D01*
X180906306Y-123090000D01*
X181553119Y-123736814D01*
X181589304Y-123665797D01*
X181662265Y-123441247D01*
X181699200Y-123208052D01*
X181699200Y-122971947D01*
X181662265Y-122738752D01*
X181589302Y-122514197D01*
X181553119Y-122443184D01*
X180906306Y-123089999D01*
X180749200Y-123089999D01*
X180749200Y-123017591D01*
X180711718Y-122877708D01*
X180639310Y-122752292D01*
X180536908Y-122649890D01*
X180411492Y-122577482D01*
X180271609Y-122540000D01*
X180126791Y-122540000D01*
X179986908Y-122577482D01*
X179861492Y-122649890D01*
X179759090Y-122752292D01*
X179686682Y-122877708D01*
X179649200Y-123017591D01*
X179419686Y-123017591D01*
X178845278Y-122443184D01*
X178809094Y-122514202D01*
X178809094Y-122514203D01*
X178736134Y-122738751D01*
X178699200Y-122971947D01*
X176895967Y-122971947D01*
X176870140Y-122808881D01*
X176811745Y-122629163D01*
X176754572Y-122516955D01*
X176725960Y-122460801D01*
X176614890Y-122307927D01*
X176481273Y-122174310D01*
X176328399Y-122063240D01*
X176160036Y-121977454D01*
X175980318Y-121919059D01*
X175869810Y-121901557D01*
X175793686Y-121889500D01*
X175793681Y-121889500D01*
X175604719Y-121889500D01*
X175604714Y-121889500D01*
X175418081Y-121919059D01*
X175238363Y-121977454D01*
X175070000Y-122063240D01*
X174982779Y-122126610D01*
X174917127Y-122174310D01*
X174917125Y-122174312D01*
X174917124Y-122174312D01*
X174783512Y-122307924D01*
X174783512Y-122307925D01*
X174783510Y-122307927D01*
X174767292Y-122330249D01*
X174672440Y-122460800D01*
X174586654Y-122629163D01*
X174528259Y-122808881D01*
X174498700Y-122995513D01*
X167103000Y-122995513D01*
X167103000Y-121736078D01*
X179552384Y-121736078D01*
X180199200Y-122382894D01*
X180199201Y-122382894D01*
X180846014Y-121736079D01*
X180846013Y-121736078D01*
X180775005Y-121699898D01*
X180550447Y-121626934D01*
X180550448Y-121626934D01*
X180317252Y-121590000D01*
X180081148Y-121590000D01*
X179847951Y-121626934D01*
X179623403Y-121699894D01*
X179623402Y-121699894D01*
X179552384Y-121736078D01*
X167103000Y-121736078D01*
X167103000Y-108973193D01*
X167103000Y-108973191D01*
X167072299Y-108858614D01*
X167072299Y-108858613D01*
X167012989Y-108755886D01*
X164896614Y-106639511D01*
X164837614Y-106605447D01*
X164793888Y-106580201D01*
X164781780Y-106576957D01*
X164769673Y-106573713D01*
X164769670Y-106573712D01*
X164722716Y-106561131D01*
X164679309Y-106549500D01*
X164679308Y-106549500D01*
X156987966Y-106549500D01*
X156920927Y-106529815D01*
X156900285Y-106513181D01*
X155620476Y-105233372D01*
X170048765Y-105233372D01*
X170048765Y-105365156D01*
X170053818Y-105384013D01*
X170082873Y-105492451D01*
X170102599Y-105526616D01*
X170148765Y-105606578D01*
X170241951Y-105699764D01*
X170356079Y-105765656D01*
X170483373Y-105799764D01*
X170538076Y-105799764D01*
X170605115Y-105819449D01*
X170625757Y-105836083D01*
X172013181Y-107223507D01*
X172046666Y-107284830D01*
X172049500Y-107311188D01*
X172049500Y-108769752D01*
X172061131Y-108828229D01*
X172061132Y-108828230D01*
X172105447Y-108894552D01*
X172171769Y-108938867D01*
X172171770Y-108938868D01*
X172230247Y-108950499D01*
X172230250Y-108950500D01*
X172718090Y-108950500D01*
X172785129Y-108970185D01*
X172830884Y-109022989D01*
X172840828Y-109092147D01*
X172811803Y-109155703D01*
X172774385Y-109184985D01*
X172620800Y-109263240D01*
X172533579Y-109326610D01*
X172467927Y-109374310D01*
X172467925Y-109374312D01*
X172467924Y-109374312D01*
X172334312Y-109507924D01*
X172334312Y-109507925D01*
X172334310Y-109507927D01*
X172294038Y-109563357D01*
X172223240Y-109660800D01*
X172137454Y-109829163D01*
X172079059Y-110008881D01*
X172049500Y-110195513D01*
X172049500Y-110384486D01*
X172079059Y-110571118D01*
X172137454Y-110750836D01*
X172215148Y-110903317D01*
X172223240Y-110919199D01*
X172334310Y-111072073D01*
X172467927Y-111205690D01*
X172620801Y-111316760D01*
X172700347Y-111357290D01*
X172789163Y-111402545D01*
X172789165Y-111402545D01*
X172789168Y-111402547D01*
X172878734Y-111431649D01*
X172910803Y-111442069D01*
X172968478Y-111481507D01*
X172995676Y-111545866D01*
X172983761Y-111614712D01*
X172936516Y-111666188D01*
X172910803Y-111677931D01*
X172789163Y-111717454D01*
X172620800Y-111803240D01*
X172546605Y-111857147D01*
X172467927Y-111914310D01*
X172467925Y-111914312D01*
X172467924Y-111914312D01*
X172334312Y-112047924D01*
X172334312Y-112047925D01*
X172334310Y-112047927D01*
X172325662Y-112059830D01*
X172223240Y-112200800D01*
X172137454Y-112369163D01*
X172079059Y-112548881D01*
X172049500Y-112735513D01*
X172049500Y-112924486D01*
X172079059Y-113111118D01*
X172137454Y-113290836D01*
X172196030Y-113405797D01*
X172223240Y-113459199D01*
X172334310Y-113612073D01*
X172467927Y-113745690D01*
X172620801Y-113856760D01*
X172789168Y-113942547D01*
X172838817Y-113958679D01*
X172896492Y-113998115D01*
X172923692Y-114062473D01*
X172924500Y-114076610D01*
X172924500Y-120066324D01*
X172904815Y-120133363D01*
X172888181Y-120154005D01*
X172849502Y-120192683D01*
X172849500Y-120192686D01*
X172783608Y-120306812D01*
X172749500Y-120434108D01*
X172749500Y-120565892D01*
X172750808Y-120570774D01*
X172783608Y-120693187D01*
X172785983Y-120697300D01*
X172849500Y-120807314D01*
X172942686Y-120900500D01*
X173056814Y-120966392D01*
X173184108Y-121000500D01*
X173184110Y-121000500D01*
X173315890Y-121000500D01*
X173315892Y-121000500D01*
X173443186Y-120966392D01*
X173557314Y-120900500D01*
X173595995Y-120861819D01*
X173657318Y-120828334D01*
X173683676Y-120825500D01*
X187792851Y-120825500D01*
X187792853Y-120825500D01*
X187875639Y-120803318D01*
X187949862Y-120760465D01*
X189260465Y-119449862D01*
X189303318Y-119375639D01*
X189325500Y-119292853D01*
X189325500Y-119207147D01*
X189325500Y-103451815D01*
X189325501Y-103451802D01*
X189325501Y-103356109D01*
X189315875Y-103320185D01*
X189303318Y-103273322D01*
X189261274Y-103200500D01*
X189260465Y-103199098D01*
X189199862Y-103138495D01*
X189199859Y-103138493D01*
X188009331Y-101947965D01*
X186737339Y-100675972D01*
X186703854Y-100614649D01*
X186701020Y-100588291D01*
X186701020Y-100533590D01*
X186701020Y-100533588D01*
X186666912Y-100406294D01*
X186601020Y-100292166D01*
X186507834Y-100198980D01*
X186421608Y-100149197D01*
X186393707Y-100133088D01*
X186320012Y-100113342D01*
X186266412Y-100098980D01*
X186134628Y-100098980D01*
X186007332Y-100133088D01*
X185893206Y-100198980D01*
X185893203Y-100198982D01*
X185800022Y-100292163D01*
X185800020Y-100292166D01*
X185734128Y-100406292D01*
X185700020Y-100533588D01*
X185700020Y-100665371D01*
X185734128Y-100792667D01*
X185753085Y-100825500D01*
X185800020Y-100906794D01*
X185893206Y-100999980D01*
X186007334Y-101065872D01*
X186134628Y-101099980D01*
X186189331Y-101099980D01*
X186256370Y-101119665D01*
X186277012Y-101136299D01*
X188638181Y-103497467D01*
X188671666Y-103558790D01*
X188674500Y-103585148D01*
X188674500Y-119063811D01*
X188654815Y-119130850D01*
X188638181Y-119151492D01*
X187651492Y-120138181D01*
X187590169Y-120171666D01*
X187563811Y-120174500D01*
X173699500Y-120174500D01*
X173632461Y-120154815D01*
X173586706Y-120102011D01*
X173575500Y-120050500D01*
X173575500Y-114183919D01*
X175143184Y-114183919D01*
X175214197Y-114220102D01*
X175438752Y-114293065D01*
X175438751Y-114293065D01*
X175671948Y-114330000D01*
X175908052Y-114330000D01*
X176141247Y-114293065D01*
X176365797Y-114220104D01*
X176436814Y-114183919D01*
X175790001Y-113537106D01*
X175790000Y-113537106D01*
X175143184Y-114183919D01*
X173575500Y-114183919D01*
X173575500Y-114076610D01*
X173595185Y-114009571D01*
X173647989Y-113963816D01*
X173661174Y-113958681D01*
X173710832Y-113942547D01*
X173879199Y-113856760D01*
X174032073Y-113745690D01*
X174165690Y-113612073D01*
X174246191Y-113501272D01*
X174301521Y-113458607D01*
X174371134Y-113452628D01*
X174408775Y-113472489D01*
X174436079Y-113476814D01*
X175082894Y-112830000D01*
X175003903Y-112751009D01*
X175190000Y-112751009D01*
X175190000Y-112908991D01*
X175230889Y-113061591D01*
X175309881Y-113198408D01*
X175421592Y-113310119D01*
X175558409Y-113389111D01*
X175711009Y-113430000D01*
X175868991Y-113430000D01*
X176021591Y-113389111D01*
X176158408Y-113310119D01*
X176270119Y-113198408D01*
X176349111Y-113061591D01*
X176390000Y-112908991D01*
X176390000Y-112829999D01*
X176497106Y-112829999D01*
X176497106Y-112830001D01*
X177143919Y-113476814D01*
X177180104Y-113405797D01*
X177253065Y-113181247D01*
X177290000Y-112948052D01*
X177290000Y-112711947D01*
X177253065Y-112478752D01*
X177180102Y-112254197D01*
X177143919Y-112183184D01*
X176497106Y-112829999D01*
X176390000Y-112829999D01*
X176390000Y-112751009D01*
X176349111Y-112598409D01*
X176270119Y-112461592D01*
X176158408Y-112349881D01*
X176021591Y-112270889D01*
X175868991Y-112230000D01*
X175711009Y-112230000D01*
X175558409Y-112270889D01*
X175421592Y-112349881D01*
X175309881Y-112461592D01*
X175230889Y-112598409D01*
X175190000Y-112751009D01*
X175003903Y-112751009D01*
X174436078Y-112183184D01*
X174415084Y-112186510D01*
X174409018Y-112192933D01*
X174341197Y-112209727D01*
X174275062Y-112187189D01*
X174246191Y-112158727D01*
X174165690Y-112047927D01*
X174032073Y-111914310D01*
X173879199Y-111803240D01*
X173822517Y-111774359D01*
X173710836Y-111717454D01*
X173616052Y-111686657D01*
X173589195Y-111677930D01*
X173531521Y-111638493D01*
X173504323Y-111574134D01*
X173516238Y-111505288D01*
X173563482Y-111453812D01*
X173589194Y-111442069D01*
X173710832Y-111402547D01*
X173879199Y-111316760D01*
X174032073Y-111205690D01*
X174165690Y-111072073D01*
X174276760Y-110919199D01*
X174362547Y-110750832D01*
X174402069Y-110629195D01*
X174441507Y-110571521D01*
X174505866Y-110544323D01*
X174574712Y-110556238D01*
X174626188Y-110603482D01*
X174637931Y-110629196D01*
X174677454Y-110750836D01*
X174755148Y-110903317D01*
X174763240Y-110919199D01*
X174874310Y-111072073D01*
X175007927Y-111205690D01*
X175085252Y-111261870D01*
X175118727Y-111286191D01*
X175161392Y-111341521D01*
X175167371Y-111411135D01*
X175147509Y-111448777D01*
X175143184Y-111476078D01*
X175790000Y-112122894D01*
X175790001Y-112122894D01*
X176436814Y-111476079D01*
X176433488Y-111455084D01*
X176427066Y-111449018D01*
X176410272Y-111381197D01*
X176432810Y-111315062D01*
X176461273Y-111286191D01*
X176494748Y-111261870D01*
X176572073Y-111205690D01*
X176705690Y-111072073D01*
X176816760Y-110919199D01*
X176902547Y-110750832D01*
X176960940Y-110571118D01*
X176965184Y-110544323D01*
X176990500Y-110384486D01*
X176990500Y-110195513D01*
X176960940Y-110008881D01*
X176902545Y-109829163D01*
X176816759Y-109660800D01*
X176705690Y-109507927D01*
X176572073Y-109374310D01*
X176419199Y-109263240D01*
X176250836Y-109177454D01*
X176176472Y-109153291D01*
X176129195Y-109137930D01*
X176071521Y-109098493D01*
X176044323Y-109034134D01*
X176056238Y-108965288D01*
X176103482Y-108913812D01*
X176129194Y-108902069D01*
X176250832Y-108862547D01*
X176419199Y-108776760D01*
X176572073Y-108665690D01*
X176705690Y-108532073D01*
X176816760Y-108379199D01*
X176902547Y-108210832D01*
X176960940Y-108031118D01*
X176990500Y-107844486D01*
X176990500Y-107655513D01*
X176960940Y-107468881D01*
X176931105Y-107377059D01*
X176902547Y-107289168D01*
X176902545Y-107289165D01*
X176902545Y-107289163D01*
X176816759Y-107120800D01*
X176807343Y-107107840D01*
X176705690Y-106967927D01*
X176572073Y-106834310D01*
X176466970Y-106757948D01*
X176419194Y-106723236D01*
X176308205Y-106666684D01*
X176257409Y-106618710D01*
X176240500Y-106556200D01*
X176240500Y-104318027D01*
X176260185Y-104250988D01*
X176312989Y-104205233D01*
X176340304Y-104196410D01*
X176378231Y-104188867D01*
X176444552Y-104144552D01*
X176488867Y-104078231D01*
X176488867Y-104078229D01*
X176488868Y-104078229D01*
X176499168Y-104026446D01*
X176500500Y-104019748D01*
X176500500Y-102480252D01*
X176500500Y-102480249D01*
X176500499Y-102480247D01*
X176488868Y-102421770D01*
X176488867Y-102421769D01*
X176444552Y-102355447D01*
X176378230Y-102311132D01*
X176378229Y-102311131D01*
X176340309Y-102303589D01*
X176312185Y-102288878D01*
X176283297Y-102275685D01*
X176281439Y-102272795D01*
X176278398Y-102271204D01*
X176262693Y-102243625D01*
X176245523Y-102216907D01*
X176244862Y-102212311D01*
X176243824Y-102210488D01*
X176240500Y-102181972D01*
X176240500Y-101947965D01*
X176260185Y-101880926D01*
X176276819Y-101860284D01*
X177806603Y-100330500D01*
X179360490Y-98776613D01*
X179419799Y-98673886D01*
X179419800Y-98673883D01*
X179424970Y-98654589D01*
X179424970Y-98654588D01*
X179429423Y-98637965D01*
X179450500Y-98559309D01*
X179450500Y-97453565D01*
X179470185Y-97386526D01*
X179486819Y-97365884D01*
X180069361Y-96783342D01*
X180663433Y-96189270D01*
X180722743Y-96086543D01*
X180732668Y-96049500D01*
X180753444Y-95971965D01*
X180753444Y-95253936D01*
X180767562Y-95201246D01*
X180766226Y-95200693D01*
X180769332Y-95193192D01*
X180769336Y-95193186D01*
X180803444Y-95065892D01*
X180803444Y-94934108D01*
X180769336Y-94806814D01*
X180703444Y-94692686D01*
X180610258Y-94599500D01*
X180553194Y-94566554D01*
X180496131Y-94533608D01*
X180432483Y-94516554D01*
X180368836Y-94499500D01*
X180237052Y-94499500D01*
X180109756Y-94533608D01*
X179995630Y-94599500D01*
X179995627Y-94599502D01*
X179902446Y-94692683D01*
X179902444Y-94692686D01*
X179836552Y-94806812D01*
X179802444Y-94934108D01*
X179802444Y-95065891D01*
X179836552Y-95193186D01*
X179839662Y-95200693D01*
X179838325Y-95201246D01*
X179852444Y-95253936D01*
X179852444Y-95674691D01*
X179832759Y-95741730D01*
X179816125Y-95762372D01*
X178639513Y-96938983D01*
X178639509Y-96938989D01*
X178580201Y-97041712D01*
X178580200Y-97041717D01*
X178549500Y-97156291D01*
X178549500Y-98262035D01*
X178529815Y-98329074D01*
X178513181Y-98349716D01*
X175429513Y-101433383D01*
X175429509Y-101433389D01*
X175370201Y-101536112D01*
X175370200Y-101536117D01*
X175339500Y-101650691D01*
X175339500Y-102185950D01*
X175319815Y-102252989D01*
X175267011Y-102298744D01*
X175258166Y-102302379D01*
X175249128Y-102305690D01*
X175221769Y-102311133D01*
X175206576Y-102321284D01*
X175192666Y-102326382D01*
X175171984Y-102327741D01*
X175152209Y-102333933D01*
X175137828Y-102329987D01*
X175122947Y-102330966D01*
X175104814Y-102320929D01*
X175084829Y-102315446D01*
X175081113Y-102313058D01*
X175078230Y-102311132D01*
X175050308Y-102305578D01*
X174988397Y-102273193D01*
X174953823Y-102212477D01*
X174950500Y-102183961D01*
X174950500Y-101657984D01*
X174970185Y-101590945D01*
X175000191Y-101558716D01*
X175030110Y-101536319D01*
X175030110Y-101536318D01*
X175030115Y-101536315D01*
X175117831Y-101419140D01*
X175168982Y-101282000D01*
X175171418Y-101259336D01*
X175175499Y-101221389D01*
X175175499Y-101221382D01*
X175175500Y-101221373D01*
X175175499Y-100209828D01*
X175168982Y-100149200D01*
X175162972Y-100133088D01*
X175117831Y-100012060D01*
X175109177Y-100000500D01*
X175030115Y-99894885D01*
X174959704Y-99842176D01*
X174912942Y-99807170D01*
X174912940Y-99807169D01*
X174819005Y-99772133D01*
X174763073Y-99730262D01*
X174738657Y-99664797D01*
X174753509Y-99596524D01*
X174802915Y-99547119D01*
X174834762Y-99535058D01*
X174836024Y-99534769D01*
X175007353Y-99474819D01*
X175007360Y-99474815D01*
X175161071Y-99378233D01*
X175289433Y-99249871D01*
X175386015Y-99096160D01*
X175386016Y-99096158D01*
X175445973Y-98924810D01*
X175461199Y-98789669D01*
X175461200Y-98789665D01*
X175461200Y-98784400D01*
X173025001Y-98784400D01*
X173025001Y-98789670D01*
X173040226Y-98924810D01*
X173040229Y-98924823D01*
X173100180Y-99096153D01*
X173100184Y-99096160D01*
X173196766Y-99249871D01*
X173325128Y-99378233D01*
X173478839Y-99474815D01*
X173478841Y-99474816D01*
X173650192Y-99534774D01*
X173656980Y-99536324D01*
X173656504Y-99538404D01*
X173711419Y-99561467D01*
X173750986Y-99619054D01*
X173753138Y-99688890D01*
X173717191Y-99748804D01*
X173676476Y-99773817D01*
X173587059Y-99807169D01*
X173469885Y-99894885D01*
X173382170Y-100012057D01*
X173382169Y-100012060D01*
X173344393Y-100113342D01*
X173331017Y-100149203D01*
X173324500Y-100209810D01*
X173324500Y-101221369D01*
X173324501Y-101221375D01*
X173331018Y-101282002D01*
X173382168Y-101419139D01*
X173382169Y-101419140D01*
X173469885Y-101536315D01*
X173587060Y-101624031D01*
X173724200Y-101675182D01*
X173784827Y-101681700D01*
X173925500Y-101681699D01*
X173992539Y-101701383D01*
X174038294Y-101754187D01*
X174049500Y-101805699D01*
X174049500Y-102183961D01*
X174029815Y-102251000D01*
X173977011Y-102296755D01*
X173949692Y-102305578D01*
X173921770Y-102311132D01*
X173921769Y-102311132D01*
X173855447Y-102355447D01*
X173811132Y-102421769D01*
X173811131Y-102421770D01*
X173799500Y-102480247D01*
X173799500Y-104019752D01*
X173811131Y-104078229D01*
X173811132Y-104078230D01*
X173855447Y-104144552D01*
X173921769Y-104188867D01*
X173921770Y-104188868D01*
X173980247Y-104200499D01*
X173980250Y-104200500D01*
X173980252Y-104200500D01*
X175019750Y-104200500D01*
X175019751Y-104200499D01*
X175040315Y-104196409D01*
X175078229Y-104188868D01*
X175078231Y-104188867D01*
X175081108Y-104186945D01*
X175088335Y-104184681D01*
X175089513Y-104184194D01*
X175089556Y-104184299D01*
X175147785Y-104166066D01*
X175192666Y-104173617D01*
X175206573Y-104178713D01*
X175221769Y-104188867D01*
X175249134Y-104194310D01*
X175258166Y-104197620D01*
X175278829Y-104212904D01*
X175301600Y-104224815D01*
X175306453Y-104233336D01*
X175314339Y-104239170D01*
X175323458Y-104263197D01*
X175336176Y-104285530D01*
X175338056Y-104301660D01*
X175339131Y-104304493D01*
X175338650Y-104306763D01*
X175339500Y-104314049D01*
X175339500Y-106556200D01*
X175319815Y-106623239D01*
X175271795Y-106666684D01*
X175160805Y-106723236D01*
X175091840Y-106773343D01*
X175007927Y-106834310D01*
X175007925Y-106834312D01*
X175007924Y-106834312D01*
X174874312Y-106967924D01*
X174874312Y-106967925D01*
X174874310Y-106967927D01*
X174857910Y-106990500D01*
X174763240Y-107120800D01*
X174684985Y-107274385D01*
X174637010Y-107325181D01*
X174569189Y-107341976D01*
X174503054Y-107319439D01*
X174459603Y-107264723D01*
X174450500Y-107218090D01*
X174450500Y-106730249D01*
X174450499Y-106730247D01*
X174438868Y-106671770D01*
X174438867Y-106671769D01*
X174394552Y-106605447D01*
X174328230Y-106561132D01*
X174328229Y-106561131D01*
X174269752Y-106549500D01*
X174269748Y-106549500D01*
X172311190Y-106549500D01*
X172244151Y-106529815D01*
X172223509Y-106513181D01*
X171086084Y-105375756D01*
X171052599Y-105314433D01*
X171049765Y-105288075D01*
X171049765Y-105233374D01*
X171049765Y-105233372D01*
X171015657Y-105106078D01*
X170949765Y-104991950D01*
X170856579Y-104898764D01*
X170792639Y-104861848D01*
X170742452Y-104832872D01*
X170679076Y-104815891D01*
X170615157Y-104798764D01*
X170483373Y-104798764D01*
X170356077Y-104832872D01*
X170241951Y-104898764D01*
X170241948Y-104898766D01*
X170148767Y-104991947D01*
X170148765Y-104991950D01*
X170082873Y-105106076D01*
X170070970Y-105150500D01*
X170048765Y-105233372D01*
X155620476Y-105233372D01*
X155486819Y-105099715D01*
X155453334Y-105038392D01*
X155450500Y-105012034D01*
X155450500Y-104684108D01*
X171499500Y-104684108D01*
X171499500Y-104815892D01*
X171504050Y-104832872D01*
X171533608Y-104943187D01*
X171554880Y-104980030D01*
X171599500Y-105057314D01*
X171692686Y-105150500D01*
X171806814Y-105216392D01*
X171934108Y-105250500D01*
X171934110Y-105250500D01*
X172024167Y-105250500D01*
X172091206Y-105270185D01*
X172111848Y-105286819D01*
X172509540Y-105684511D01*
X172565489Y-105740460D01*
X172565491Y-105740461D01*
X172565495Y-105740464D01*
X172609128Y-105765655D01*
X172634011Y-105780021D01*
X172710438Y-105800500D01*
X173291324Y-105800500D01*
X173358363Y-105820185D01*
X173379005Y-105836819D01*
X173442686Y-105900500D01*
X173556814Y-105966392D01*
X173684108Y-106000500D01*
X173684110Y-106000500D01*
X173815890Y-106000500D01*
X173815892Y-106000500D01*
X173943186Y-105966392D01*
X174057314Y-105900500D01*
X174150500Y-105807314D01*
X174216392Y-105693186D01*
X174250500Y-105565892D01*
X174250500Y-105434108D01*
X174216392Y-105306814D01*
X174150500Y-105192686D01*
X174057314Y-105099500D01*
X173994780Y-105063396D01*
X173943187Y-105033608D01*
X173862670Y-105012034D01*
X173815892Y-104999500D01*
X173684108Y-104999500D01*
X173556812Y-105033608D01*
X173442686Y-105099500D01*
X173442683Y-105099502D01*
X173379005Y-105163181D01*
X173317682Y-105196666D01*
X173291324Y-105199500D01*
X172925833Y-105199500D01*
X172858794Y-105179815D01*
X172838152Y-105163181D01*
X172536819Y-104861848D01*
X172503334Y-104800525D01*
X172500500Y-104774167D01*
X172500500Y-104684110D01*
X172500500Y-104684108D01*
X172466392Y-104556814D01*
X172400500Y-104442686D01*
X172307314Y-104349500D01*
X172224453Y-104301660D01*
X172193187Y-104283608D01*
X172117010Y-104263197D01*
X172065892Y-104249500D01*
X171934108Y-104249500D01*
X171806812Y-104283608D01*
X171692686Y-104349500D01*
X171692683Y-104349502D01*
X171599502Y-104442683D01*
X171599500Y-104442686D01*
X171533608Y-104556812D01*
X171518392Y-104613601D01*
X171499500Y-104684108D01*
X155450500Y-104684108D01*
X155450500Y-97690693D01*
X155450500Y-97690691D01*
X155419799Y-97576114D01*
X155419799Y-97576113D01*
X155360489Y-97473386D01*
X154519714Y-96632611D01*
X154468350Y-96602956D01*
X154416988Y-96573301D01*
X154404880Y-96570057D01*
X154392773Y-96566813D01*
X154392770Y-96566812D01*
X154354578Y-96556578D01*
X154302409Y-96542600D01*
X154302408Y-96542600D01*
X154040100Y-96542600D01*
X153973061Y-96522915D01*
X153927306Y-96470111D01*
X153916100Y-96418600D01*
X153916100Y-95434108D01*
X159499500Y-95434108D01*
X159499500Y-95565891D01*
X159533608Y-95693187D01*
X159552584Y-95726053D01*
X159599500Y-95807314D01*
X159692686Y-95900500D01*
X159779294Y-95950503D01*
X159799913Y-95962408D01*
X159806814Y-95966392D01*
X159934108Y-96000500D01*
X159934110Y-96000500D01*
X160065890Y-96000500D01*
X160065892Y-96000500D01*
X160193186Y-95966392D01*
X160307314Y-95900500D01*
X160400500Y-95807314D01*
X160466392Y-95693186D01*
X160500500Y-95565892D01*
X160500500Y-95511188D01*
X160520185Y-95444149D01*
X160536819Y-95423507D01*
X161098507Y-94861819D01*
X161159830Y-94828334D01*
X161186188Y-94825500D01*
X168792851Y-94825500D01*
X168792853Y-94825500D01*
X168875639Y-94803318D01*
X168949862Y-94760465D01*
X169449859Y-94260466D01*
X169449862Y-94260465D01*
X169510465Y-94199862D01*
X169531891Y-94162750D01*
X169553318Y-94125639D01*
X169575500Y-94042853D01*
X169575500Y-93957147D01*
X169575500Y-92309108D01*
X171199500Y-92309108D01*
X171199500Y-92440892D01*
X171213791Y-92494227D01*
X171233608Y-92568187D01*
X171250448Y-92597354D01*
X171299500Y-92682314D01*
X171299502Y-92682316D01*
X171363181Y-92745995D01*
X171396666Y-92807318D01*
X171399500Y-92833676D01*
X171399500Y-99141323D01*
X171379815Y-99208362D01*
X171363182Y-99229004D01*
X171299500Y-99292686D01*
X171233608Y-99406812D01*
X171221661Y-99451401D01*
X171199500Y-99534108D01*
X171199500Y-99665892D01*
X171216554Y-99729539D01*
X171233608Y-99793187D01*
X171241879Y-99807512D01*
X171299500Y-99907314D01*
X171392686Y-100000500D01*
X171506814Y-100066392D01*
X171634108Y-100100500D01*
X171634110Y-100100500D01*
X171765890Y-100100500D01*
X171765892Y-100100500D01*
X171893186Y-100066392D01*
X172007314Y-100000500D01*
X172100500Y-99907314D01*
X172166392Y-99793186D01*
X172200500Y-99665892D01*
X172200500Y-99534108D01*
X172166392Y-99406814D01*
X172165917Y-99405992D01*
X172127799Y-99339970D01*
X172100500Y-99292686D01*
X172036818Y-99229004D01*
X172022113Y-99202073D01*
X172005523Y-99176258D01*
X172004631Y-99170055D01*
X172003334Y-99167680D01*
X172000500Y-99141323D01*
X172000500Y-99099504D01*
X172020185Y-99032465D01*
X172072989Y-98986710D01*
X172142147Y-98976766D01*
X172156571Y-98979724D01*
X172234108Y-99000500D01*
X172234111Y-99000500D01*
X172365890Y-99000500D01*
X172365892Y-99000500D01*
X172493186Y-98966392D01*
X172607314Y-98900500D01*
X172700500Y-98807314D01*
X172766392Y-98693186D01*
X172800500Y-98565892D01*
X172800500Y-98434108D01*
X172766392Y-98306814D01*
X172700500Y-98192686D01*
X172607314Y-98099500D01*
X172607311Y-98099498D01*
X172600865Y-98094552D01*
X172602158Y-98092866D01*
X172593297Y-98088820D01*
X172580550Y-98068985D01*
X172564280Y-98051920D01*
X172561065Y-98038665D01*
X172555523Y-98030042D01*
X172550500Y-97995107D01*
X172550500Y-97779130D01*
X173025000Y-97779130D01*
X173025000Y-97784400D01*
X173743100Y-97784400D01*
X174743100Y-97784400D01*
X175461199Y-97784400D01*
X175461199Y-97779135D01*
X175461198Y-97779129D01*
X175445973Y-97643989D01*
X175445970Y-97643976D01*
X175386019Y-97472646D01*
X175386015Y-97472639D01*
X175289433Y-97318928D01*
X175161071Y-97190566D01*
X175007360Y-97093984D01*
X175007358Y-97093983D01*
X174836014Y-97034028D01*
X174743100Y-97023558D01*
X174743100Y-97784400D01*
X173743100Y-97784400D01*
X173743100Y-97023558D01*
X173743099Y-97023558D01*
X173650192Y-97034026D01*
X173650187Y-97034027D01*
X173478841Y-97093983D01*
X173478839Y-97093984D01*
X173325128Y-97190566D01*
X173196766Y-97318928D01*
X173100184Y-97472639D01*
X173100183Y-97472641D01*
X173040226Y-97643989D01*
X173025000Y-97779130D01*
X172550500Y-97779130D01*
X172550500Y-94325833D01*
X172570185Y-94258794D01*
X172586819Y-94238152D01*
X172867824Y-93957147D01*
X173165431Y-93659540D01*
X173179645Y-93634920D01*
X173204992Y-93591018D01*
X173225471Y-93514591D01*
X173225471Y-93442696D01*
X173229522Y-93427240D01*
X173239633Y-93410444D01*
X173245156Y-93391637D01*
X173261790Y-93370995D01*
X173265526Y-93367259D01*
X173325471Y-93307314D01*
X173391363Y-93193186D01*
X173423910Y-93071717D01*
X173460272Y-93012061D01*
X173523119Y-92981531D01*
X173592495Y-92989825D01*
X173631364Y-93016133D01*
X173858282Y-93243051D01*
X173891767Y-93304374D01*
X173894601Y-93330732D01*
X173894601Y-93420790D01*
X173928709Y-93548086D01*
X173935916Y-93560568D01*
X173994601Y-93662213D01*
X174087787Y-93755399D01*
X174201915Y-93821291D01*
X174329209Y-93855399D01*
X174329211Y-93855399D01*
X174460991Y-93855399D01*
X174460993Y-93855399D01*
X174588287Y-93821291D01*
X174702415Y-93755399D01*
X174795601Y-93662213D01*
X174861493Y-93548085D01*
X174895601Y-93420791D01*
X174895601Y-93289007D01*
X174861493Y-93161713D01*
X174795601Y-93047585D01*
X174702415Y-92954399D01*
X174645351Y-92921453D01*
X174588288Y-92888507D01*
X174524640Y-92871453D01*
X174460993Y-92854399D01*
X174370934Y-92854399D01*
X174303895Y-92834714D01*
X174283253Y-92818080D01*
X173624714Y-92159541D01*
X173624706Y-92159535D01*
X173556197Y-92119982D01*
X173556192Y-92119979D01*
X173530715Y-92113152D01*
X173479764Y-92099500D01*
X173479762Y-92099500D01*
X172183676Y-92099500D01*
X172116637Y-92079815D01*
X172095995Y-92063181D01*
X172007316Y-91974502D01*
X172007314Y-91974500D01*
X171941754Y-91936649D01*
X171893187Y-91908608D01*
X171829539Y-91891554D01*
X171765892Y-91874500D01*
X171634108Y-91874500D01*
X171506812Y-91908608D01*
X171392686Y-91974500D01*
X171392683Y-91974502D01*
X171299502Y-92067683D01*
X171299500Y-92067686D01*
X171233608Y-92181812D01*
X171205160Y-92287985D01*
X171199500Y-92309108D01*
X169575500Y-92309108D01*
X169575500Y-90811189D01*
X169584144Y-90781748D01*
X169590668Y-90751762D01*
X169594422Y-90746746D01*
X169595185Y-90744150D01*
X169611819Y-90723508D01*
X169723508Y-90611819D01*
X169784831Y-90578334D01*
X169811189Y-90575500D01*
X175316324Y-90575500D01*
X175383363Y-90595185D01*
X175404005Y-90611819D01*
X175442686Y-90650500D01*
X175556814Y-90716392D01*
X175684108Y-90750500D01*
X175684110Y-90750500D01*
X175815890Y-90750500D01*
X175815892Y-90750500D01*
X175943186Y-90716392D01*
X176057314Y-90650500D01*
X176150500Y-90557314D01*
X176216392Y-90443186D01*
X176250500Y-90315892D01*
X176250500Y-90184108D01*
X176219807Y-90069559D01*
X192356665Y-90069559D01*
X192360386Y-90073280D01*
X192466720Y-90158080D01*
X192466725Y-90158083D01*
X192630274Y-90236843D01*
X192807257Y-90277240D01*
X192807259Y-90277241D01*
X192988792Y-90277241D01*
X192988793Y-90277240D01*
X193165778Y-90236843D01*
X193329324Y-90158084D01*
X193329327Y-90158082D01*
X193402433Y-90099781D01*
X193402433Y-90099780D01*
X192864439Y-89561786D01*
X192864438Y-89561786D01*
X192356665Y-90069559D01*
X176219807Y-90069559D01*
X176216392Y-90056814D01*
X176150500Y-89942686D01*
X176057314Y-89849500D01*
X176000250Y-89816554D01*
X175943187Y-89783608D01*
X175879539Y-89766554D01*
X175815892Y-89749500D01*
X175684108Y-89749500D01*
X175556812Y-89783608D01*
X175442686Y-89849500D01*
X175442683Y-89849502D01*
X175404005Y-89888181D01*
X175342682Y-89921666D01*
X175316324Y-89924500D01*
X169582147Y-89924500D01*
X169499359Y-89946682D01*
X169425138Y-89989535D01*
X169425135Y-89989537D01*
X168989537Y-90425135D01*
X168989533Y-90425141D01*
X168946681Y-90499361D01*
X168946682Y-90499362D01*
X168924500Y-90582147D01*
X168924500Y-93813811D01*
X168904815Y-93880850D01*
X168888181Y-93901492D01*
X168651492Y-94138181D01*
X168590169Y-94171666D01*
X168563811Y-94174500D01*
X161050465Y-94174500D01*
X161050449Y-94174499D01*
X161042853Y-94174499D01*
X160957148Y-94174499D01*
X160957147Y-94174499D01*
X160900935Y-94189560D01*
X160900936Y-94189561D01*
X160874363Y-94196681D01*
X160874355Y-94196685D01*
X160800144Y-94239530D01*
X160800136Y-94239536D01*
X160076492Y-94963181D01*
X160015169Y-94996666D01*
X159988811Y-94999500D01*
X159934108Y-94999500D01*
X159806812Y-95033608D01*
X159692686Y-95099500D01*
X159692683Y-95099502D01*
X159599502Y-95192683D01*
X159599500Y-95192686D01*
X159533608Y-95306812D01*
X159499500Y-95434108D01*
X153916100Y-95434108D01*
X153916100Y-88581400D01*
X153935785Y-88514361D01*
X153988589Y-88468606D01*
X154040100Y-88457400D01*
X156268935Y-88457400D01*
X156298375Y-88466044D01*
X156328362Y-88472568D01*
X156333377Y-88476322D01*
X156335974Y-88477085D01*
X156356616Y-88493719D01*
X156513181Y-88650284D01*
X156546666Y-88711607D01*
X156549500Y-88737965D01*
X156549500Y-91246062D01*
X156535383Y-91298751D01*
X156536719Y-91299304D01*
X156533608Y-91306814D01*
X156499500Y-91434108D01*
X156499500Y-91565891D01*
X156533608Y-91693187D01*
X156566554Y-91750250D01*
X156599500Y-91807314D01*
X156692686Y-91900500D01*
X156780272Y-91951068D01*
X156801425Y-91963281D01*
X156806814Y-91966392D01*
X156934108Y-92000500D01*
X156934110Y-92000500D01*
X157065890Y-92000500D01*
X157065892Y-92000500D01*
X157193186Y-91966392D01*
X157193194Y-91966387D01*
X157200696Y-91963281D01*
X157201249Y-91964618D01*
X157253937Y-91950500D01*
X157746063Y-91950500D01*
X157798750Y-91964618D01*
X157799304Y-91963281D01*
X157806807Y-91966388D01*
X157806814Y-91966392D01*
X157934108Y-92000500D01*
X157934110Y-92000500D01*
X158065890Y-92000500D01*
X158065892Y-92000500D01*
X158193186Y-91966392D01*
X158193194Y-91966387D01*
X158200696Y-91963281D01*
X158201249Y-91964618D01*
X158253937Y-91950500D01*
X158746063Y-91950500D01*
X158798750Y-91964618D01*
X158799304Y-91963281D01*
X158806807Y-91966388D01*
X158806814Y-91966392D01*
X158934108Y-92000500D01*
X158934110Y-92000500D01*
X159065890Y-92000500D01*
X159065892Y-92000500D01*
X159193186Y-91966392D01*
X159193194Y-91966387D01*
X159200696Y-91963281D01*
X159201249Y-91964618D01*
X159253937Y-91950500D01*
X162559307Y-91950500D01*
X162559309Y-91950500D01*
X162652610Y-91925500D01*
X162673887Y-91919799D01*
X162776614Y-91860489D01*
X163130381Y-91506721D01*
X163191703Y-91473238D01*
X163261395Y-91478222D01*
X163317328Y-91520094D01*
X163334242Y-91551069D01*
X163350258Y-91594008D01*
X163375969Y-91662940D01*
X163463685Y-91780115D01*
X163580860Y-91867831D01*
X163718000Y-91918982D01*
X163738508Y-91921186D01*
X163767740Y-91924330D01*
X163832291Y-91951068D01*
X163872139Y-92008461D01*
X163874632Y-92078286D01*
X163838979Y-92138374D01*
X163776500Y-92169649D01*
X163771362Y-92170387D01*
X163770335Y-92170630D01*
X163641388Y-92218724D01*
X163641386Y-92218726D01*
X163531206Y-92301206D01*
X163448726Y-92411386D01*
X163448724Y-92411388D01*
X163400630Y-92540334D01*
X163400629Y-92540338D01*
X163400629Y-92540340D01*
X163394500Y-92597346D01*
X163394500Y-93467654D01*
X163400629Y-93524660D01*
X163400630Y-93524665D01*
X163448724Y-93653611D01*
X163448725Y-93653612D01*
X163448726Y-93653614D01*
X163531206Y-93763794D01*
X163641386Y-93846274D01*
X163641387Y-93846274D01*
X163641388Y-93846275D01*
X163770335Y-93894369D01*
X163770334Y-93894369D01*
X163770340Y-93894371D01*
X163827346Y-93900500D01*
X163827356Y-93900500D01*
X164867644Y-93900500D01*
X164867654Y-93900500D01*
X164924660Y-93894371D01*
X165053614Y-93846274D01*
X165163794Y-93763794D01*
X165246274Y-93653614D01*
X165294371Y-93524660D01*
X165300500Y-93467654D01*
X165300500Y-92616965D01*
X165306738Y-92595719D01*
X165308318Y-92573631D01*
X165316390Y-92562847D01*
X165320185Y-92549926D01*
X165336918Y-92535426D01*
X165350190Y-92517698D01*
X165362810Y-92512990D01*
X165372989Y-92504171D01*
X165394906Y-92501019D01*
X165415654Y-92493281D01*
X165428814Y-92496143D01*
X165442147Y-92494227D01*
X165462290Y-92503426D01*
X165483927Y-92508133D01*
X165501652Y-92521401D01*
X165505703Y-92523252D01*
X165512181Y-92529284D01*
X165663181Y-92680284D01*
X165696666Y-92741607D01*
X165699500Y-92767965D01*
X165699500Y-93467654D01*
X165705629Y-93524660D01*
X165705630Y-93524665D01*
X165753724Y-93653611D01*
X165753725Y-93653612D01*
X165753726Y-93653614D01*
X165836206Y-93763794D01*
X165946386Y-93846274D01*
X165946387Y-93846274D01*
X165946388Y-93846275D01*
X166075335Y-93894369D01*
X166075334Y-93894369D01*
X166075340Y-93894371D01*
X166132346Y-93900500D01*
X166132356Y-93900500D01*
X167172644Y-93900500D01*
X167172654Y-93900500D01*
X167229660Y-93894371D01*
X167358614Y-93846274D01*
X167468794Y-93763794D01*
X167551274Y-93653614D01*
X167599371Y-93524660D01*
X167605500Y-93467654D01*
X167605500Y-92597346D01*
X167599371Y-92540340D01*
X167597538Y-92535426D01*
X167551275Y-92411388D01*
X167551274Y-92411386D01*
X167545259Y-92403351D01*
X167483731Y-92321159D01*
X167459315Y-92255698D01*
X167474166Y-92187425D01*
X167521621Y-92139968D01*
X167521465Y-92139720D01*
X167522554Y-92139035D01*
X167523571Y-92138019D01*
X167526852Y-92136334D01*
X167681071Y-92039433D01*
X167809433Y-91911071D01*
X167906015Y-91757360D01*
X167906016Y-91757358D01*
X167965972Y-91586012D01*
X167965973Y-91586007D01*
X167976441Y-91493100D01*
X166839600Y-91493100D01*
X166772561Y-91473415D01*
X166726806Y-91420611D01*
X166715600Y-91369100D01*
X166715600Y-90993100D01*
X166339600Y-90993100D01*
X166272561Y-90973415D01*
X166226806Y-90920611D01*
X166215600Y-90869100D01*
X166215600Y-90493100D01*
X167215600Y-90493100D01*
X167976439Y-90493100D01*
X167965970Y-90400178D01*
X167906019Y-90228846D01*
X167906015Y-90228839D01*
X167809433Y-90075128D01*
X167681071Y-89946766D01*
X167527360Y-89850184D01*
X167527358Y-89850183D01*
X167356010Y-89790226D01*
X167220869Y-89775000D01*
X167215600Y-89775000D01*
X167215600Y-90493100D01*
X166215600Y-90493100D01*
X166215600Y-89775000D01*
X166210333Y-89775001D01*
X166075189Y-89790226D01*
X166075176Y-89790229D01*
X165903846Y-89850180D01*
X165903839Y-89850184D01*
X165750128Y-89946766D01*
X165621766Y-90075128D01*
X165525184Y-90228839D01*
X165525183Y-90228841D01*
X165465225Y-90400192D01*
X165463676Y-90406980D01*
X165461600Y-90406506D01*
X165438512Y-90461445D01*
X165380914Y-90500996D01*
X165311077Y-90503129D01*
X165251173Y-90467167D01*
X165226182Y-90426475D01*
X165192831Y-90337060D01*
X165148050Y-90277240D01*
X165105115Y-90219885D01*
X165034704Y-90167176D01*
X164987942Y-90132170D01*
X164987940Y-90132169D01*
X164850800Y-90081018D01*
X164850798Y-90081017D01*
X164850796Y-90081017D01*
X164790180Y-90074500D01*
X163778630Y-90074500D01*
X163778624Y-90074501D01*
X163717997Y-90081018D01*
X163580860Y-90132168D01*
X163463685Y-90219885D01*
X163375970Y-90337057D01*
X163375969Y-90337060D01*
X163326818Y-90468835D01*
X163284948Y-90524767D01*
X163219483Y-90549184D01*
X163210638Y-90549500D01*
X162940691Y-90549500D01*
X162850325Y-90573713D01*
X162850324Y-90573712D01*
X162826115Y-90580200D01*
X162826106Y-90580204D01*
X162723392Y-90639505D01*
X162723384Y-90639511D01*
X162349716Y-91013181D01*
X162288393Y-91046666D01*
X162262035Y-91049500D01*
X159253937Y-91049500D01*
X159201249Y-91035381D01*
X159200696Y-91036719D01*
X159193188Y-91033609D01*
X159193186Y-91033608D01*
X159065892Y-90999500D01*
X158934108Y-90999500D01*
X158806814Y-91033608D01*
X158799304Y-91036719D01*
X158798750Y-91035381D01*
X158746063Y-91049500D01*
X158253937Y-91049500D01*
X158201249Y-91035381D01*
X158200696Y-91036719D01*
X158193188Y-91033609D01*
X158193186Y-91033608D01*
X158065892Y-90999500D01*
X157934108Y-90999500D01*
X157806814Y-91033608D01*
X157799304Y-91036719D01*
X157798750Y-91035381D01*
X157792575Y-91037036D01*
X157780998Y-91044477D01*
X157746063Y-91049500D01*
X157574500Y-91049500D01*
X157507461Y-91029815D01*
X157461706Y-90977011D01*
X157450500Y-90925500D01*
X157450500Y-88440693D01*
X157450500Y-88440691D01*
X157432134Y-88372146D01*
X187059191Y-88372146D01*
X187059191Y-88592590D01*
X187060114Y-88598419D01*
X187093676Y-88810320D01*
X187161794Y-89019971D01*
X187161795Y-89019974D01*
X187261878Y-89216393D01*
X187391443Y-89394726D01*
X187391447Y-89394731D01*
X187547327Y-89550611D01*
X187547332Y-89550615D01*
X187702883Y-89663628D01*
X187725669Y-89680183D01*
X187854066Y-89745605D01*
X187922084Y-89780263D01*
X187922087Y-89780264D01*
X188026912Y-89814323D01*
X188131740Y-89848383D01*
X188349469Y-89882868D01*
X188349470Y-89882868D01*
X188569912Y-89882868D01*
X188569913Y-89882868D01*
X188787642Y-89848383D01*
X188997297Y-89780263D01*
X189193713Y-89680183D01*
X189372056Y-89550610D01*
X189527933Y-89394733D01*
X189657506Y-89216390D01*
X189757586Y-89019974D01*
X189758495Y-89017175D01*
X189759129Y-89016248D01*
X189759450Y-89015474D01*
X189759612Y-89015541D01*
X189763681Y-89009590D01*
X189765268Y-89000537D01*
X189783091Y-88981201D01*
X189797929Y-88959499D01*
X189807648Y-88954559D01*
X189812623Y-88949163D01*
X189830621Y-88942884D01*
X189845163Y-88935494D01*
X189855241Y-88932868D01*
X189857823Y-88932868D01*
X189948187Y-88908654D01*
X189972401Y-88902167D01*
X190075128Y-88842857D01*
X190721604Y-88196379D01*
X190782925Y-88162896D01*
X190852616Y-88167880D01*
X190887092Y-88187513D01*
X190891125Y-88190763D01*
X190891126Y-88190763D01*
X190891128Y-88190765D01*
X191024270Y-88251568D01*
X191169150Y-88272399D01*
X191314029Y-88251568D01*
X191314031Y-88251567D01*
X191405223Y-88209922D01*
X191474381Y-88199978D01*
X191537937Y-88229003D01*
X191575711Y-88287781D01*
X191575711Y-88357651D01*
X191561727Y-88388689D01*
X191561035Y-88389789D01*
X191482274Y-88553339D01*
X191441877Y-88730324D01*
X191441877Y-88911860D01*
X191482274Y-89088843D01*
X191561034Y-89252391D01*
X191561040Y-89252401D01*
X191645833Y-89358729D01*
X191645837Y-89358734D01*
X191649556Y-89362453D01*
X192157331Y-88854680D01*
X193571544Y-88854680D01*
X194109538Y-89392675D01*
X194109539Y-89392675D01*
X194167840Y-89319569D01*
X194167842Y-89319566D01*
X194246601Y-89156020D01*
X194286998Y-88979035D01*
X194286999Y-88979033D01*
X194286999Y-88797501D01*
X194286998Y-88797499D01*
X194246601Y-88620516D01*
X194167841Y-88456968D01*
X194167835Y-88456958D01*
X194083042Y-88350630D01*
X194079318Y-88346906D01*
X193571544Y-88854680D01*
X192157331Y-88854680D01*
X192296375Y-88715637D01*
X192510885Y-88501127D01*
X193372210Y-87639800D01*
X193372210Y-87639799D01*
X193368489Y-87636079D01*
X193262155Y-87551279D01*
X193262150Y-87551276D01*
X193098601Y-87472516D01*
X192921618Y-87432119D01*
X192740082Y-87432119D01*
X192563097Y-87472516D01*
X192399550Y-87551276D01*
X192393650Y-87554984D01*
X192392520Y-87553186D01*
X192337305Y-87575708D01*
X192268614Y-87562931D01*
X192217735Y-87515044D01*
X192200823Y-87447252D01*
X192211923Y-87400840D01*
X192251568Y-87314029D01*
X192272399Y-87169150D01*
X192251568Y-87024270D01*
X192251567Y-87024268D01*
X192251566Y-87024263D01*
X192190767Y-86891133D01*
X192190765Y-86891128D01*
X192161238Y-86854487D01*
X192152505Y-86843650D01*
X192152501Y-86843646D01*
X191437238Y-86128385D01*
X191437230Y-86128378D01*
X191437230Y-86128377D01*
X191437224Y-86128372D01*
X191389756Y-86090118D01*
X191379604Y-86085482D01*
X191256612Y-86029314D01*
X191256610Y-86029313D01*
X191111732Y-86008483D01*
X190966851Y-86029314D01*
X190966850Y-86029314D01*
X190826655Y-86093339D01*
X190825627Y-86091090D01*
X190769954Y-86106362D01*
X190703277Y-86085482D01*
X190684489Y-86070063D01*
X190466325Y-85851899D01*
X190432840Y-85790576D01*
X190437824Y-85720884D01*
X190441199Y-85712736D01*
X190466683Y-85656934D01*
X190486270Y-85520703D01*
X190466683Y-85384472D01*
X190466681Y-85384465D01*
X190409512Y-85259282D01*
X190409507Y-85259274D01*
X190376420Y-85218218D01*
X190373533Y-85214635D01*
X189637924Y-84479026D01*
X189624466Y-84468180D01*
X189593284Y-84443051D01*
X189593276Y-84443046D01*
X189468093Y-84385877D01*
X189468086Y-84385875D01*
X189331856Y-84366289D01*
X189195625Y-84385875D01*
X189195618Y-84385877D01*
X189070435Y-84443046D01*
X189070427Y-84443051D01*
X189025789Y-84479025D01*
X189025780Y-84479033D01*
X188410394Y-85094419D01*
X188410386Y-85094428D01*
X188374412Y-85139066D01*
X188374407Y-85139074D01*
X188317238Y-85264257D01*
X188317236Y-85264264D01*
X188297650Y-85400495D01*
X188317236Y-85536725D01*
X188317238Y-85536732D01*
X188374407Y-85661915D01*
X188374412Y-85661923D01*
X188399541Y-85693105D01*
X188410387Y-85706563D01*
X189145996Y-86442172D01*
X189163723Y-86456457D01*
X189190635Y-86478146D01*
X189190643Y-86478151D01*
X189315826Y-86535320D01*
X189315833Y-86535322D01*
X189452064Y-86554909D01*
X189588295Y-86535322D01*
X189707174Y-86481031D01*
X189776330Y-86471088D01*
X189839886Y-86500112D01*
X189846365Y-86506145D01*
X190055515Y-86715295D01*
X190089000Y-86776618D01*
X190084016Y-86846310D01*
X190080629Y-86854487D01*
X190029313Y-86966853D01*
X190008483Y-87111732D01*
X190029313Y-87256610D01*
X190029315Y-87256618D01*
X190090114Y-87389748D01*
X190090120Y-87389759D01*
X190093372Y-87393794D01*
X190120108Y-87458346D01*
X190107700Y-87527105D01*
X190084499Y-87559278D01*
X189858498Y-87785279D01*
X189797175Y-87818764D01*
X189727483Y-87813780D01*
X189671550Y-87771908D01*
X189660331Y-87753891D01*
X189657503Y-87748341D01*
X189527938Y-87570009D01*
X189527934Y-87570004D01*
X189372054Y-87414124D01*
X189372049Y-87414120D01*
X189193716Y-87284555D01*
X189193715Y-87284554D01*
X189193713Y-87284553D01*
X189129426Y-87251797D01*
X188997297Y-87184472D01*
X188997294Y-87184471D01*
X188787643Y-87116353D01*
X188678777Y-87099110D01*
X188569913Y-87081868D01*
X188349469Y-87081868D01*
X188276892Y-87093363D01*
X188131738Y-87116353D01*
X187922087Y-87184471D01*
X187922084Y-87184472D01*
X187725665Y-87284555D01*
X187547332Y-87414120D01*
X187547327Y-87414124D01*
X187391447Y-87570004D01*
X187391443Y-87570009D01*
X187261878Y-87748342D01*
X187161795Y-87944761D01*
X187161794Y-87944764D01*
X187093676Y-88154415D01*
X187074989Y-88272399D01*
X187059191Y-88372146D01*
X157432134Y-88372146D01*
X157428250Y-88357651D01*
X157423176Y-88338714D01*
X157419800Y-88326117D01*
X157419799Y-88326113D01*
X157397668Y-88287781D01*
X157360494Y-88223392D01*
X157360488Y-88223384D01*
X156783516Y-87646413D01*
X156783514Y-87646411D01*
X156732150Y-87616756D01*
X156680788Y-87587101D01*
X156668680Y-87583857D01*
X156656573Y-87580613D01*
X156656570Y-87580612D01*
X156616976Y-87570003D01*
X156566209Y-87556400D01*
X156566208Y-87556400D01*
X153807118Y-87556400D01*
X153740079Y-87536715D01*
X153719441Y-87520085D01*
X153662142Y-87462786D01*
X153662141Y-87462785D01*
X153662140Y-87462784D01*
X153547417Y-87386128D01*
X153547404Y-87386121D01*
X153419932Y-87333321D01*
X153419922Y-87333318D01*
X153284595Y-87306400D01*
X153284593Y-87306400D01*
X122348419Y-87306400D01*
X122281380Y-87286715D01*
X122260738Y-87270081D01*
X121736819Y-86746162D01*
X121703334Y-86684839D01*
X121700500Y-86658481D01*
X121700500Y-84306005D01*
X121688266Y-84244506D01*
X121688266Y-84244504D01*
X121679513Y-84200500D01*
X121673580Y-84170672D01*
X121620775Y-84043189D01*
X121544114Y-83928457D01*
X121544112Y-83928454D01*
X121395905Y-83780247D01*
X123349500Y-83780247D01*
X123349500Y-85419752D01*
X123361131Y-85478229D01*
X123361132Y-85478230D01*
X123405447Y-85544552D01*
X123471769Y-85588867D01*
X123471770Y-85588868D01*
X123530247Y-85600499D01*
X123530250Y-85600500D01*
X123530252Y-85600500D01*
X125569750Y-85600500D01*
X125569751Y-85600499D01*
X125584568Y-85597552D01*
X125628229Y-85588868D01*
X125628229Y-85588867D01*
X125628231Y-85588867D01*
X125694552Y-85544552D01*
X125715360Y-85513410D01*
X125768972Y-85468606D01*
X125838297Y-85459899D01*
X125901324Y-85490053D01*
X125906143Y-85494621D01*
X126003104Y-85591582D01*
X126168650Y-85711859D01*
X126350968Y-85804755D01*
X126545582Y-85867990D01*
X126747683Y-85900000D01*
X127050000Y-85900000D01*
X128050000Y-85900000D01*
X128352317Y-85900000D01*
X128554417Y-85867990D01*
X128749031Y-85804755D01*
X128931349Y-85711859D01*
X129096894Y-85591582D01*
X129096895Y-85591582D01*
X129241582Y-85446895D01*
X129241582Y-85446894D01*
X129361856Y-85281353D01*
X129361861Y-85281345D01*
X129454261Y-85100000D01*
X128050000Y-85100000D01*
X128050000Y-85900000D01*
X127050000Y-85900000D01*
X127050000Y-85000000D01*
X128202661Y-85000000D01*
X128304394Y-84972741D01*
X128395606Y-84920080D01*
X128470080Y-84845606D01*
X128522741Y-84754394D01*
X128550000Y-84652661D01*
X128550000Y-84547339D01*
X128522741Y-84445606D01*
X128470080Y-84354394D01*
X128395606Y-84279920D01*
X128304394Y-84227259D01*
X128202661Y-84200000D01*
X127050000Y-84200000D01*
X127050000Y-84100000D01*
X128050000Y-84100000D01*
X129454260Y-84100000D01*
X129361861Y-83918654D01*
X129361856Y-83918646D01*
X129241582Y-83753105D01*
X129241582Y-83753104D01*
X129096895Y-83608417D01*
X128931349Y-83488140D01*
X128749031Y-83395244D01*
X128554417Y-83332009D01*
X128352317Y-83300000D01*
X128050000Y-83300000D01*
X128050000Y-84100000D01*
X127050000Y-84100000D01*
X127050000Y-83300000D01*
X126747683Y-83300000D01*
X126545582Y-83332009D01*
X126350968Y-83395244D01*
X126168650Y-83488140D01*
X126003108Y-83608414D01*
X125906143Y-83705379D01*
X125844819Y-83738863D01*
X125775128Y-83733879D01*
X125719195Y-83692007D01*
X125715360Y-83686589D01*
X125694551Y-83655447D01*
X125628230Y-83611132D01*
X125628229Y-83611131D01*
X125569752Y-83599500D01*
X125569748Y-83599500D01*
X123530252Y-83599500D01*
X123530247Y-83599500D01*
X123471770Y-83611131D01*
X123471769Y-83611132D01*
X123405447Y-83655447D01*
X123361132Y-83721769D01*
X123361131Y-83721770D01*
X123349500Y-83780247D01*
X121395905Y-83780247D01*
X120571545Y-82955887D01*
X120456807Y-82879222D01*
X120329332Y-82826421D01*
X120329322Y-82826418D01*
X120193996Y-82799500D01*
X120193994Y-82799500D01*
X120193993Y-82799500D01*
X114931007Y-82799500D01*
X114931003Y-82799500D01*
X114822590Y-82821065D01*
X114822589Y-82821065D01*
X114795681Y-82826418D01*
X114795671Y-82826420D01*
X114668190Y-82879224D01*
X114553454Y-82955887D01*
X113630887Y-83878454D01*
X113554222Y-83993192D01*
X113501421Y-84120667D01*
X113501418Y-84120679D01*
X113480632Y-84225180D01*
X113480632Y-84225183D01*
X113474500Y-84256006D01*
X113474500Y-86616883D01*
X113454815Y-86683922D01*
X113406799Y-86727366D01*
X113388569Y-86736655D01*
X113318864Y-86787299D01*
X113197490Y-86875483D01*
X113197488Y-86875485D01*
X113197487Y-86875485D01*
X113030485Y-87042487D01*
X113030485Y-87042488D01*
X113030483Y-87042490D01*
X113001873Y-87081868D01*
X112891657Y-87233566D01*
X112882368Y-87251797D01*
X112834392Y-87302592D01*
X112771884Y-87319500D01*
X111378116Y-87319500D01*
X111311077Y-87299815D01*
X111267632Y-87251797D01*
X111258342Y-87233566D01*
X111237102Y-87204332D01*
X111119517Y-87042490D01*
X110952510Y-86875483D01*
X110761433Y-86736657D01*
X110761429Y-86736655D01*
X110550996Y-86629433D01*
X110326368Y-86556446D01*
X110093097Y-86519500D01*
X110093092Y-86519500D01*
X109856908Y-86519500D01*
X109856903Y-86519500D01*
X109623631Y-86556446D01*
X109399003Y-86629433D01*
X109188566Y-86736657D01*
X109118864Y-86787299D01*
X108997490Y-86875483D01*
X108997488Y-86875485D01*
X108997487Y-86875485D01*
X108830485Y-87042487D01*
X108830485Y-87042488D01*
X108830483Y-87042490D01*
X108801873Y-87081868D01*
X108691657Y-87233566D01*
X108584433Y-87444003D01*
X108511446Y-87668631D01*
X108474500Y-87901902D01*
X108474500Y-88138097D01*
X108511446Y-88371368D01*
X108584433Y-88595996D01*
X108657902Y-88740185D01*
X108691657Y-88806433D01*
X108830483Y-88997510D01*
X108997490Y-89164517D01*
X109188567Y-89303343D01*
X109287991Y-89354002D01*
X109399003Y-89410566D01*
X109399005Y-89410566D01*
X109399008Y-89410568D01*
X109519412Y-89449689D01*
X109623631Y-89483553D01*
X109856903Y-89520500D01*
X109856908Y-89520500D01*
X110093097Y-89520500D01*
X110326368Y-89483553D01*
X110550992Y-89410568D01*
X110761433Y-89303343D01*
X110952510Y-89164517D01*
X111119517Y-88997510D01*
X111258343Y-88806433D01*
X111267632Y-88788203D01*
X111315608Y-88737408D01*
X111378116Y-88720500D01*
X112771884Y-88720500D01*
X112838923Y-88740185D01*
X112882368Y-88788203D01*
X112891657Y-88806433D01*
X113030483Y-88997510D01*
X113197490Y-89164517D01*
X113388567Y-89303343D01*
X113487991Y-89354002D01*
X113599003Y-89410566D01*
X113599005Y-89410566D01*
X113599008Y-89410568D01*
X113719412Y-89449689D01*
X113823631Y-89483553D01*
X114056903Y-89520500D01*
X114056908Y-89520500D01*
X114293097Y-89520500D01*
X114526368Y-89483553D01*
X114750992Y-89410568D01*
X114961433Y-89303343D01*
X115152510Y-89164517D01*
X115319517Y-88997510D01*
X115458343Y-88806433D01*
X115565568Y-88595992D01*
X115638553Y-88371368D01*
X115654228Y-88272399D01*
X115675500Y-88138097D01*
X115675500Y-87901902D01*
X116874500Y-87901902D01*
X116874500Y-88138097D01*
X116911446Y-88371368D01*
X116984433Y-88595996D01*
X117057902Y-88740185D01*
X117091657Y-88806433D01*
X117230483Y-88997510D01*
X117397490Y-89164517D01*
X117588567Y-89303343D01*
X117687991Y-89354002D01*
X117799003Y-89410566D01*
X117799005Y-89410566D01*
X117799008Y-89410568D01*
X117919412Y-89449689D01*
X118023631Y-89483553D01*
X118256903Y-89520500D01*
X118256908Y-89520500D01*
X118493097Y-89520500D01*
X118726368Y-89483553D01*
X118950992Y-89410568D01*
X119161433Y-89303343D01*
X119352510Y-89164517D01*
X119519517Y-88997510D01*
X119658343Y-88806433D01*
X119765568Y-88595992D01*
X119838553Y-88371368D01*
X119854228Y-88272399D01*
X119875500Y-88138097D01*
X119875500Y-87901902D01*
X119838553Y-87668631D01*
X119788649Y-87515044D01*
X119765568Y-87444008D01*
X119765566Y-87444005D01*
X119765566Y-87444003D01*
X119685423Y-87286715D01*
X119658343Y-87233567D01*
X119519517Y-87042490D01*
X119352510Y-86875483D01*
X119161433Y-86736657D01*
X119161429Y-86736655D01*
X118950996Y-86629433D01*
X118726368Y-86556446D01*
X118493097Y-86519500D01*
X118493092Y-86519500D01*
X118256908Y-86519500D01*
X118256903Y-86519500D01*
X118023631Y-86556446D01*
X117799003Y-86629433D01*
X117588566Y-86736657D01*
X117518864Y-86787299D01*
X117397490Y-86875483D01*
X117397488Y-86875485D01*
X117397487Y-86875485D01*
X117230485Y-87042487D01*
X117230485Y-87042488D01*
X117230483Y-87042490D01*
X117201873Y-87081868D01*
X117091657Y-87233566D01*
X116984433Y-87444003D01*
X116911446Y-87668631D01*
X116874500Y-87901902D01*
X115675500Y-87901902D01*
X115638553Y-87668631D01*
X115588649Y-87515044D01*
X115565568Y-87444008D01*
X115565566Y-87444005D01*
X115565566Y-87444003D01*
X115485423Y-87286715D01*
X115458343Y-87233567D01*
X115319517Y-87042490D01*
X115152510Y-86875483D01*
X114961433Y-86736657D01*
X114961432Y-86736656D01*
X114961430Y-86736655D01*
X114943201Y-86727366D01*
X114892407Y-86679390D01*
X114875500Y-86616883D01*
X114875500Y-84666519D01*
X114895185Y-84599480D01*
X114911819Y-84578838D01*
X115253838Y-84236819D01*
X115315161Y-84203334D01*
X115341519Y-84200500D01*
X119783481Y-84200500D01*
X119850520Y-84220185D01*
X119871162Y-84236819D01*
X120263181Y-84628838D01*
X120296666Y-84690161D01*
X120299500Y-84716519D01*
X120299500Y-86931006D01*
X120299500Y-87068994D01*
X120299500Y-87068996D01*
X120299499Y-87068996D01*
X120326418Y-87204322D01*
X120326421Y-87204332D01*
X120379222Y-87331807D01*
X120455887Y-87446545D01*
X120455888Y-87446546D01*
X121520081Y-88510738D01*
X121553566Y-88572061D01*
X121556400Y-88598419D01*
X121556400Y-93755135D01*
X121536715Y-93822174D01*
X121520081Y-93842816D01*
X120349716Y-95013181D01*
X120288393Y-95046666D01*
X120262035Y-95049500D01*
X119896434Y-95049500D01*
X119829395Y-95029815D01*
X119783640Y-94977011D01*
X119778503Y-94963819D01*
X119768849Y-94934108D01*
X119765568Y-94924008D01*
X119765566Y-94924005D01*
X119765566Y-94924003D01*
X119704073Y-94803317D01*
X119658343Y-94713567D01*
X119519517Y-94522490D01*
X119352510Y-94355483D01*
X119161433Y-94216657D01*
X119122228Y-94196681D01*
X118950996Y-94109433D01*
X118726368Y-94036446D01*
X118493097Y-93999500D01*
X118493092Y-93999500D01*
X118256908Y-93999500D01*
X118256903Y-93999500D01*
X118023631Y-94036446D01*
X117799003Y-94109433D01*
X117588566Y-94216657D01*
X117479550Y-94295862D01*
X117397490Y-94355483D01*
X117397488Y-94355485D01*
X117397487Y-94355485D01*
X117230485Y-94522487D01*
X117230485Y-94522488D01*
X117230483Y-94522490D01*
X117174532Y-94599500D01*
X117091657Y-94713566D01*
X116984433Y-94924003D01*
X116911446Y-95148631D01*
X116874500Y-95381902D01*
X116874500Y-95618097D01*
X116911446Y-95851368D01*
X116984433Y-96075996D01*
X117088994Y-96281206D01*
X117091657Y-96286433D01*
X117230483Y-96477510D01*
X117397490Y-96644517D01*
X117588567Y-96783343D01*
X117799008Y-96890568D01*
X117838817Y-96903502D01*
X117896491Y-96942937D01*
X117923691Y-97007295D01*
X117924500Y-97021433D01*
X117924500Y-97308566D01*
X117904815Y-97375605D01*
X117852011Y-97421360D01*
X117838825Y-97426494D01*
X117822488Y-97431802D01*
X117799003Y-97439433D01*
X117588566Y-97546657D01*
X117496047Y-97613877D01*
X117397490Y-97685483D01*
X117397488Y-97685485D01*
X117397487Y-97685485D01*
X117230485Y-97852487D01*
X117230485Y-97852488D01*
X117230483Y-97852490D01*
X117187187Y-97912082D01*
X117091657Y-98043566D01*
X116984433Y-98254003D01*
X116911446Y-98478631D01*
X116874500Y-98711902D01*
X116874500Y-98948097D01*
X116911446Y-99181368D01*
X116962980Y-99339970D01*
X116984432Y-99405992D01*
X117091657Y-99616433D01*
X117230483Y-99807510D01*
X117397490Y-99974517D01*
X117588567Y-100113343D01*
X117799008Y-100220568D01*
X117838817Y-100233502D01*
X117896491Y-100272937D01*
X117923691Y-100337295D01*
X117924500Y-100351433D01*
X117924500Y-100613566D01*
X117904815Y-100680605D01*
X117852011Y-100726360D01*
X117838825Y-100731494D01*
X117822488Y-100736802D01*
X117799003Y-100744433D01*
X117588566Y-100851657D01*
X117512675Y-100906796D01*
X117397490Y-100990483D01*
X117397488Y-100990485D01*
X117397487Y-100990485D01*
X117230485Y-101157487D01*
X117230485Y-101157488D01*
X117230483Y-101157490D01*
X117208753Y-101187399D01*
X117091657Y-101348566D01*
X116984433Y-101559003D01*
X116911446Y-101783631D01*
X116874500Y-102016902D01*
X116874500Y-102253097D01*
X116911446Y-102486368D01*
X116962980Y-102644970D01*
X116984432Y-102710992D01*
X117091657Y-102921433D01*
X117230483Y-103112510D01*
X117397490Y-103279517D01*
X117588567Y-103418343D01*
X117799008Y-103525568D01*
X117838817Y-103538502D01*
X117896491Y-103577937D01*
X117923691Y-103642295D01*
X117924500Y-103656433D01*
X117924500Y-103968566D01*
X117904815Y-104035605D01*
X117852011Y-104081360D01*
X117838825Y-104086494D01*
X117822488Y-104091802D01*
X117799003Y-104099433D01*
X117588566Y-104206657D01*
X117482653Y-104283608D01*
X117397490Y-104345483D01*
X117397488Y-104345485D01*
X117397487Y-104345485D01*
X117230485Y-104512487D01*
X117230485Y-104512488D01*
X117230483Y-104512490D01*
X117170862Y-104594550D01*
X117091657Y-104703566D01*
X116984433Y-104914003D01*
X116911446Y-105138631D01*
X116874500Y-105371902D01*
X116874500Y-105608097D01*
X116911446Y-105841368D01*
X116952070Y-105966392D01*
X116984432Y-106065992D01*
X117091657Y-106276433D01*
X117230483Y-106467510D01*
X117397490Y-106634517D01*
X117588567Y-106773343D01*
X117799008Y-106880568D01*
X117838817Y-106893502D01*
X117896491Y-106932937D01*
X117923691Y-106997295D01*
X117924500Y-107011433D01*
X117924500Y-107298566D01*
X117904815Y-107365605D01*
X117852011Y-107411360D01*
X117838825Y-107416494D01*
X117823242Y-107421558D01*
X117799003Y-107429433D01*
X117588566Y-107536657D01*
X117479550Y-107615862D01*
X117397490Y-107675483D01*
X117397488Y-107675485D01*
X117397487Y-107675485D01*
X117230485Y-107842487D01*
X117230485Y-107842488D01*
X117230483Y-107842490D01*
X117229033Y-107844486D01*
X117091657Y-108033566D01*
X116984433Y-108244003D01*
X116911446Y-108468631D01*
X116874500Y-108701902D01*
X116874500Y-108938097D01*
X116911446Y-109171368D01*
X116984433Y-109395996D01*
X117091657Y-109606433D01*
X117230483Y-109797510D01*
X117397490Y-109964517D01*
X117515398Y-110050183D01*
X117558063Y-110105512D01*
X117564042Y-110175126D01*
X117531436Y-110236921D01*
X117470597Y-110271278D01*
X117442512Y-110274500D01*
X117036189Y-110274500D01*
X116969150Y-110254815D01*
X116948508Y-110238181D01*
X116611819Y-109901492D01*
X116578334Y-109840169D01*
X116575500Y-109813811D01*
X116575500Y-107522149D01*
X116575499Y-107522145D01*
X116561228Y-107468882D01*
X116553318Y-107439361D01*
X116510465Y-107365138D01*
X115509699Y-106364372D01*
X115476214Y-106303049D01*
X115481198Y-106233357D01*
X115486895Y-106220396D01*
X115565567Y-106065994D01*
X115586848Y-106000500D01*
X115638553Y-105841368D01*
X115675500Y-105608097D01*
X115675500Y-105371902D01*
X115638553Y-105138631D01*
X115575049Y-104943187D01*
X115565568Y-104914008D01*
X115565566Y-104914005D01*
X115565566Y-104914003D01*
X115494315Y-104774167D01*
X115458343Y-104703567D01*
X115319517Y-104512490D01*
X115152510Y-104345483D01*
X114961433Y-104206657D01*
X114926518Y-104188867D01*
X114750996Y-104099433D01*
X114526368Y-104026446D01*
X114293097Y-103989500D01*
X114293092Y-103989500D01*
X114056908Y-103989500D01*
X114056903Y-103989500D01*
X113823631Y-104026446D01*
X113599003Y-104099433D01*
X113388566Y-104206657D01*
X113282653Y-104283608D01*
X113197490Y-104345483D01*
X113197488Y-104345485D01*
X113197487Y-104345485D01*
X113030485Y-104512487D01*
X113030485Y-104512488D01*
X113030483Y-104512490D01*
X112970862Y-104594550D01*
X112891657Y-104703566D01*
X112784433Y-104914003D01*
X112711446Y-105138631D01*
X112674500Y-105371902D01*
X112674500Y-105608097D01*
X112711446Y-105841368D01*
X112752070Y-105966392D01*
X112784432Y-106065992D01*
X112891657Y-106276433D01*
X113030483Y-106467510D01*
X113197490Y-106634517D01*
X113388567Y-106773343D01*
X113470863Y-106815275D01*
X113599003Y-106880566D01*
X113599005Y-106880566D01*
X113599008Y-106880568D01*
X113638812Y-106893501D01*
X113823631Y-106953553D01*
X114056903Y-106990500D01*
X114056908Y-106990500D01*
X114293097Y-106990500D01*
X114526368Y-106953553D01*
X114589817Y-106932937D01*
X114750992Y-106880568D01*
X114905396Y-106801894D01*
X114974065Y-106788999D01*
X115038806Y-106815275D01*
X115049372Y-106824699D01*
X115888181Y-107663508D01*
X115921666Y-107724831D01*
X115924500Y-107751189D01*
X115924500Y-109809811D01*
X115904815Y-109876850D01*
X115852011Y-109922605D01*
X115782853Y-109932549D01*
X115719297Y-109903524D01*
X115712819Y-109897492D01*
X115509699Y-109694372D01*
X115476214Y-109633049D01*
X115481198Y-109563357D01*
X115486895Y-109550396D01*
X115565566Y-109395996D01*
X115565566Y-109395995D01*
X115565568Y-109395992D01*
X115638553Y-109171368D01*
X115650095Y-109098493D01*
X115675500Y-108938097D01*
X115675500Y-108701902D01*
X115638553Y-108468631D01*
X115565566Y-108244003D01*
X115458342Y-108033566D01*
X115319517Y-107842490D01*
X115152510Y-107675483D01*
X114961433Y-107536657D01*
X114750996Y-107429433D01*
X114526368Y-107356446D01*
X114293097Y-107319500D01*
X114293092Y-107319500D01*
X114056908Y-107319500D01*
X114056903Y-107319500D01*
X113823631Y-107356446D01*
X113599003Y-107429433D01*
X113388566Y-107536657D01*
X113279550Y-107615862D01*
X113197490Y-107675483D01*
X113197488Y-107675485D01*
X113197487Y-107675485D01*
X113030485Y-107842487D01*
X113030485Y-107842488D01*
X113030483Y-107842490D01*
X113029033Y-107844486D01*
X112891657Y-108033566D01*
X112784433Y-108244003D01*
X112711446Y-108468631D01*
X112674500Y-108701902D01*
X112674500Y-108938097D01*
X112711446Y-109171368D01*
X112784433Y-109395996D01*
X112891657Y-109606433D01*
X113030483Y-109797510D01*
X113197490Y-109964517D01*
X113315398Y-110050183D01*
X113358063Y-110105512D01*
X113364042Y-110175126D01*
X113331436Y-110236921D01*
X113270597Y-110271278D01*
X113242512Y-110274500D01*
X111941189Y-110274500D01*
X111874150Y-110254815D01*
X111853508Y-110238181D01*
X111309699Y-109694372D01*
X111276214Y-109633049D01*
X111281198Y-109563357D01*
X111286895Y-109550396D01*
X111365566Y-109395996D01*
X111365566Y-109395995D01*
X111365568Y-109395992D01*
X111438553Y-109171368D01*
X111450095Y-109098493D01*
X111475500Y-108938097D01*
X111475500Y-108701902D01*
X111438553Y-108468631D01*
X111365566Y-108244003D01*
X111258342Y-108033566D01*
X111119517Y-107842490D01*
X110952510Y-107675483D01*
X110761433Y-107536657D01*
X110550999Y-107429435D01*
X110550213Y-107429110D01*
X110549959Y-107428905D01*
X110546651Y-107427220D01*
X110547004Y-107426525D01*
X110495806Y-107385274D01*
X110473734Y-107318982D01*
X110491007Y-107251281D01*
X110542140Y-107203665D01*
X110551169Y-107199895D01*
X110551082Y-107199685D01*
X110772819Y-107107839D01*
X110772828Y-107107834D01*
X110844404Y-107066509D01*
X110065554Y-106287660D01*
X110208351Y-106259257D01*
X110353942Y-106198951D01*
X110484970Y-106111401D01*
X110596401Y-105999970D01*
X110683951Y-105868942D01*
X110744257Y-105723351D01*
X110772660Y-105580554D01*
X111551509Y-106359404D01*
X111592834Y-106287828D01*
X111592839Y-106287819D01*
X111683129Y-106069837D01*
X111744200Y-105841914D01*
X111774999Y-105607985D01*
X111775000Y-105607971D01*
X111775000Y-105372028D01*
X111774999Y-105372014D01*
X111744200Y-105138085D01*
X111683129Y-104910162D01*
X111592840Y-104692183D01*
X111592833Y-104692168D01*
X111551509Y-104620594D01*
X110772660Y-105399444D01*
X110744257Y-105256649D01*
X110683951Y-105111058D01*
X110596401Y-104980030D01*
X110484970Y-104868599D01*
X110353942Y-104781049D01*
X110208351Y-104720743D01*
X110065555Y-104692339D01*
X110844404Y-103913489D01*
X110843605Y-103907427D01*
X110807270Y-103869319D01*
X110794046Y-103800712D01*
X110820014Y-103735847D01*
X110843928Y-103715125D01*
X110844404Y-103711509D01*
X110065554Y-102932660D01*
X110208351Y-102904257D01*
X110353942Y-102843951D01*
X110484970Y-102756401D01*
X110596401Y-102644970D01*
X110683951Y-102513942D01*
X110744257Y-102368351D01*
X110772660Y-102225554D01*
X111551509Y-103004404D01*
X111592834Y-102932828D01*
X111592839Y-102932819D01*
X111683129Y-102714837D01*
X111744200Y-102486914D01*
X111774999Y-102252985D01*
X111775000Y-102252971D01*
X111775000Y-102017026D01*
X111774999Y-102017016D01*
X111774984Y-102016902D01*
X112674500Y-102016902D01*
X112674500Y-102253097D01*
X112711446Y-102486368D01*
X112762980Y-102644970D01*
X112784432Y-102710992D01*
X112891657Y-102921433D01*
X113030483Y-103112510D01*
X113197490Y-103279517D01*
X113388567Y-103418343D01*
X113454234Y-103451802D01*
X113599003Y-103525566D01*
X113599005Y-103525566D01*
X113599008Y-103525568D01*
X113719412Y-103564689D01*
X113823631Y-103598553D01*
X114056903Y-103635500D01*
X114056908Y-103635500D01*
X114293097Y-103635500D01*
X114526368Y-103598553D01*
X114589817Y-103577937D01*
X114750992Y-103525568D01*
X114961433Y-103418343D01*
X115152510Y-103279517D01*
X115319517Y-103112510D01*
X115458343Y-102921433D01*
X115565568Y-102710992D01*
X115638553Y-102486368D01*
X115648784Y-102421770D01*
X115675500Y-102253097D01*
X115675500Y-102016902D01*
X115638553Y-101783631D01*
X115586695Y-101624031D01*
X115565568Y-101559008D01*
X115565566Y-101559005D01*
X115565566Y-101559003D01*
X115494301Y-101419139D01*
X115458343Y-101348567D01*
X115319517Y-101157490D01*
X115152510Y-100990483D01*
X114961433Y-100851657D01*
X114910097Y-100825500D01*
X114750996Y-100744433D01*
X114526368Y-100671446D01*
X114293097Y-100634500D01*
X114293092Y-100634500D01*
X114056908Y-100634500D01*
X114056903Y-100634500D01*
X113823631Y-100671446D01*
X113599003Y-100744433D01*
X113388566Y-100851657D01*
X113312675Y-100906796D01*
X113197490Y-100990483D01*
X113197488Y-100990485D01*
X113197487Y-100990485D01*
X113030485Y-101157487D01*
X113030485Y-101157488D01*
X113030483Y-101157490D01*
X113008753Y-101187399D01*
X112891657Y-101348566D01*
X112784433Y-101559003D01*
X112711446Y-101783631D01*
X112674500Y-102016902D01*
X111774984Y-102016902D01*
X111744200Y-101783085D01*
X111683129Y-101555162D01*
X111592840Y-101337183D01*
X111592833Y-101337168D01*
X111551509Y-101265594D01*
X110772660Y-102044444D01*
X110744257Y-101901649D01*
X110683951Y-101756058D01*
X110596401Y-101625030D01*
X110484970Y-101513599D01*
X110353942Y-101426049D01*
X110208351Y-101365743D01*
X110065555Y-101337339D01*
X110844403Y-100558489D01*
X110836530Y-100498689D01*
X110836530Y-100466316D01*
X110844404Y-100406509D01*
X110065554Y-99627660D01*
X110208351Y-99599257D01*
X110353942Y-99538951D01*
X110484970Y-99451401D01*
X110596401Y-99339970D01*
X110683951Y-99208942D01*
X110744257Y-99063351D01*
X110772660Y-98920554D01*
X111551509Y-99699404D01*
X111592834Y-99627828D01*
X111592839Y-99627819D01*
X111683129Y-99409837D01*
X111744200Y-99181914D01*
X111774999Y-98947985D01*
X111775000Y-98947971D01*
X111775000Y-98712026D01*
X111774999Y-98712016D01*
X111774984Y-98711902D01*
X112674500Y-98711902D01*
X112674500Y-98948097D01*
X112711446Y-99181368D01*
X112762980Y-99339970D01*
X112784432Y-99405992D01*
X112891657Y-99616433D01*
X113030483Y-99807510D01*
X113197490Y-99974517D01*
X113388567Y-100113343D01*
X113487991Y-100164002D01*
X113599003Y-100220566D01*
X113599005Y-100220566D01*
X113599008Y-100220568D01*
X113719412Y-100259689D01*
X113823631Y-100293553D01*
X114056903Y-100330500D01*
X114056908Y-100330500D01*
X114293097Y-100330500D01*
X114526368Y-100293553D01*
X114548376Y-100286402D01*
X114750992Y-100220568D01*
X114961433Y-100113343D01*
X115152510Y-99974517D01*
X115319517Y-99807510D01*
X115458343Y-99616433D01*
X115565568Y-99405992D01*
X115638553Y-99181368D01*
X115640721Y-99167680D01*
X115675500Y-98948097D01*
X115675500Y-98711902D01*
X115638553Y-98478631D01*
X115604689Y-98374412D01*
X115565568Y-98254008D01*
X115565566Y-98254005D01*
X115565566Y-98254003D01*
X115483462Y-98092866D01*
X115458343Y-98043567D01*
X115319517Y-97852490D01*
X115152510Y-97685483D01*
X114961433Y-97546657D01*
X114920705Y-97525905D01*
X114750996Y-97439433D01*
X114526368Y-97366446D01*
X114293097Y-97329500D01*
X114293092Y-97329500D01*
X114056908Y-97329500D01*
X114056903Y-97329500D01*
X113823631Y-97366446D01*
X113599003Y-97439433D01*
X113388566Y-97546657D01*
X113296047Y-97613877D01*
X113197490Y-97685483D01*
X113197488Y-97685485D01*
X113197487Y-97685485D01*
X113030485Y-97852487D01*
X113030485Y-97852488D01*
X113030483Y-97852490D01*
X112987187Y-97912082D01*
X112891657Y-98043566D01*
X112784433Y-98254003D01*
X112711446Y-98478631D01*
X112674500Y-98711902D01*
X111774984Y-98711902D01*
X111744200Y-98478085D01*
X111683129Y-98250162D01*
X111592840Y-98032183D01*
X111592833Y-98032168D01*
X111551509Y-97960594D01*
X110772660Y-98739444D01*
X110744257Y-98596649D01*
X110683951Y-98451058D01*
X110596401Y-98320030D01*
X110484970Y-98208599D01*
X110353942Y-98121049D01*
X110208351Y-98060743D01*
X110065555Y-98032339D01*
X110844404Y-97253489D01*
X110772826Y-97212164D01*
X110772816Y-97212159D01*
X110551082Y-97120315D01*
X110551768Y-97118657D01*
X110500593Y-97082624D01*
X110474281Y-97017898D01*
X110487139Y-96949222D01*
X110535085Y-96898399D01*
X110550232Y-96890882D01*
X110550979Y-96890571D01*
X110550992Y-96890568D01*
X110761433Y-96783343D01*
X110952510Y-96644517D01*
X111119517Y-96477510D01*
X111258343Y-96286433D01*
X111365568Y-96075992D01*
X111438553Y-95851368D01*
X111445530Y-95807316D01*
X111475500Y-95618097D01*
X111475500Y-95381902D01*
X112674500Y-95381902D01*
X112674500Y-95618097D01*
X112711446Y-95851368D01*
X112784433Y-96075996D01*
X112888994Y-96281206D01*
X112891657Y-96286433D01*
X113030483Y-96477510D01*
X113197490Y-96644517D01*
X113388567Y-96783343D01*
X113487991Y-96834002D01*
X113599003Y-96890566D01*
X113599005Y-96890566D01*
X113599008Y-96890568D01*
X113638812Y-96903501D01*
X113823631Y-96963553D01*
X114056903Y-97000500D01*
X114056908Y-97000500D01*
X114293097Y-97000500D01*
X114526368Y-96963553D01*
X114589817Y-96942937D01*
X114750992Y-96890568D01*
X114961433Y-96783343D01*
X115152510Y-96644517D01*
X115319517Y-96477510D01*
X115458343Y-96286433D01*
X115565568Y-96075992D01*
X115638553Y-95851368D01*
X115645530Y-95807316D01*
X115675500Y-95618097D01*
X115675500Y-95381902D01*
X115638553Y-95148631D01*
X115568850Y-94934110D01*
X115565568Y-94924008D01*
X115565566Y-94924005D01*
X115565566Y-94924003D01*
X115504073Y-94803317D01*
X115458343Y-94713567D01*
X115319517Y-94522490D01*
X115152510Y-94355483D01*
X114961433Y-94216657D01*
X114922228Y-94196681D01*
X114750996Y-94109433D01*
X114526368Y-94036446D01*
X114293097Y-93999500D01*
X114293092Y-93999500D01*
X114056908Y-93999500D01*
X114056903Y-93999500D01*
X113823631Y-94036446D01*
X113599003Y-94109433D01*
X113388566Y-94216657D01*
X113279550Y-94295862D01*
X113197490Y-94355483D01*
X113197488Y-94355485D01*
X113197487Y-94355485D01*
X113030485Y-94522487D01*
X113030485Y-94522488D01*
X113030483Y-94522490D01*
X112974532Y-94599500D01*
X112891657Y-94713566D01*
X112784433Y-94924003D01*
X112711446Y-95148631D01*
X112674500Y-95381902D01*
X111475500Y-95381902D01*
X111438553Y-95148631D01*
X111368850Y-94934110D01*
X111365568Y-94924008D01*
X111365566Y-94924005D01*
X111365566Y-94924003D01*
X111304073Y-94803317D01*
X111258343Y-94713567D01*
X111119517Y-94522490D01*
X110952510Y-94355483D01*
X110761433Y-94216657D01*
X110708252Y-94189560D01*
X110550999Y-94109435D01*
X110550213Y-94109110D01*
X110549959Y-94108905D01*
X110546651Y-94107220D01*
X110547004Y-94106525D01*
X110495806Y-94065274D01*
X110473734Y-93998982D01*
X110491007Y-93931281D01*
X110542140Y-93883665D01*
X110551169Y-93879895D01*
X110551082Y-93879685D01*
X110772819Y-93787839D01*
X110772828Y-93787834D01*
X110844404Y-93746509D01*
X110065554Y-92967660D01*
X110208351Y-92939257D01*
X110353942Y-92878951D01*
X110484970Y-92791401D01*
X110596401Y-92679970D01*
X110683951Y-92548942D01*
X110744257Y-92403351D01*
X110772660Y-92260554D01*
X111551509Y-93039404D01*
X111592834Y-92967828D01*
X111592839Y-92967819D01*
X111683129Y-92749837D01*
X111744200Y-92521914D01*
X111774999Y-92287985D01*
X111775000Y-92287971D01*
X111775000Y-92052026D01*
X111774999Y-92052016D01*
X111774984Y-92051902D01*
X112674500Y-92051902D01*
X112674500Y-92288097D01*
X112711446Y-92521368D01*
X112784433Y-92745996D01*
X112833425Y-92842147D01*
X112891657Y-92956433D01*
X113030483Y-93147510D01*
X113197490Y-93314517D01*
X113388567Y-93453343D01*
X113487991Y-93504002D01*
X113599003Y-93560566D01*
X113599005Y-93560566D01*
X113599008Y-93560568D01*
X113692723Y-93591018D01*
X113823631Y-93633553D01*
X114056903Y-93670500D01*
X114056908Y-93670500D01*
X114293097Y-93670500D01*
X114526368Y-93633553D01*
X114750992Y-93560568D01*
X114961433Y-93453343D01*
X115152510Y-93314517D01*
X115319517Y-93147510D01*
X115458343Y-92956433D01*
X115565568Y-92745992D01*
X115638553Y-92521368D01*
X115655972Y-92411388D01*
X115675500Y-92288097D01*
X115675500Y-92051902D01*
X116874500Y-92051902D01*
X116874500Y-92288097D01*
X116911446Y-92521368D01*
X116984433Y-92745996D01*
X117033425Y-92842147D01*
X117091657Y-92956433D01*
X117230483Y-93147510D01*
X117397490Y-93314517D01*
X117588567Y-93453343D01*
X117687991Y-93504002D01*
X117799003Y-93560566D01*
X117799005Y-93560566D01*
X117799008Y-93560568D01*
X117892723Y-93591018D01*
X118023631Y-93633553D01*
X118256903Y-93670500D01*
X118256908Y-93670500D01*
X118493097Y-93670500D01*
X118726368Y-93633553D01*
X118950992Y-93560568D01*
X119161433Y-93453343D01*
X119352510Y-93314517D01*
X119519517Y-93147510D01*
X119658343Y-92956433D01*
X119765568Y-92745992D01*
X119838553Y-92521368D01*
X119855972Y-92411388D01*
X119875500Y-92288097D01*
X119875500Y-92051902D01*
X119838553Y-91818631D01*
X119765566Y-91594003D01*
X119677218Y-91420611D01*
X119658343Y-91383567D01*
X119519517Y-91192490D01*
X119352510Y-91025483D01*
X119161433Y-90886657D01*
X118950996Y-90779433D01*
X118726368Y-90706446D01*
X118493097Y-90669500D01*
X118493092Y-90669500D01*
X118256908Y-90669500D01*
X118256903Y-90669500D01*
X118023631Y-90706446D01*
X117799003Y-90779433D01*
X117588566Y-90886657D01*
X117541833Y-90920611D01*
X117397490Y-91025483D01*
X117397488Y-91025485D01*
X117397487Y-91025485D01*
X117230485Y-91192487D01*
X117230485Y-91192488D01*
X117230483Y-91192490D01*
X117191561Y-91246062D01*
X117091657Y-91383566D01*
X116984433Y-91594003D01*
X116911446Y-91818631D01*
X116874500Y-92051902D01*
X115675500Y-92051902D01*
X115638553Y-91818631D01*
X115565566Y-91594003D01*
X115477218Y-91420611D01*
X115458343Y-91383567D01*
X115319517Y-91192490D01*
X115152510Y-91025483D01*
X114961433Y-90886657D01*
X114750996Y-90779433D01*
X114526368Y-90706446D01*
X114293097Y-90669500D01*
X114293092Y-90669500D01*
X114056908Y-90669500D01*
X114056903Y-90669500D01*
X113823631Y-90706446D01*
X113599003Y-90779433D01*
X113388566Y-90886657D01*
X113341833Y-90920611D01*
X113197490Y-91025483D01*
X113197488Y-91025485D01*
X113197487Y-91025485D01*
X113030485Y-91192487D01*
X113030485Y-91192488D01*
X113030483Y-91192490D01*
X112991561Y-91246062D01*
X112891657Y-91383566D01*
X112784433Y-91594003D01*
X112711446Y-91818631D01*
X112674500Y-92051902D01*
X111774984Y-92051902D01*
X111744200Y-91818085D01*
X111683129Y-91590162D01*
X111592840Y-91372183D01*
X111592833Y-91372168D01*
X111551509Y-91300594D01*
X110772660Y-92079444D01*
X110744257Y-91936649D01*
X110683951Y-91791058D01*
X110596401Y-91660030D01*
X110484970Y-91548599D01*
X110353942Y-91461049D01*
X110208351Y-91400743D01*
X110065555Y-91372339D01*
X110844404Y-90593489D01*
X110772826Y-90552164D01*
X110772816Y-90552159D01*
X110554836Y-90461870D01*
X110554838Y-90461870D01*
X110326914Y-90400799D01*
X110092985Y-90370000D01*
X109857014Y-90370000D01*
X109623085Y-90400799D01*
X109395165Y-90461869D01*
X109177176Y-90552163D01*
X109177170Y-90552166D01*
X109105595Y-90593489D01*
X109884445Y-91372339D01*
X109741649Y-91400743D01*
X109596058Y-91461049D01*
X109465030Y-91548599D01*
X109353599Y-91660030D01*
X109266049Y-91791058D01*
X109205743Y-91936649D01*
X109177339Y-92079445D01*
X108398489Y-91300595D01*
X108357166Y-91372170D01*
X108357163Y-91372176D01*
X108266869Y-91590165D01*
X108205799Y-91818085D01*
X108175000Y-92052014D01*
X102900500Y-92052014D01*
X102900500Y-82556900D01*
X155273561Y-82556900D01*
X155284029Y-82649821D01*
X155343980Y-82821153D01*
X155343984Y-82821160D01*
X155440566Y-82974871D01*
X155568928Y-83103233D01*
X155722639Y-83199815D01*
X155722641Y-83199816D01*
X155893989Y-83259773D01*
X156029127Y-83274999D01*
X156029139Y-83275000D01*
X156034400Y-83274999D01*
X157034400Y-83274999D01*
X157039665Y-83274999D01*
X157039670Y-83274998D01*
X157174810Y-83259773D01*
X157174823Y-83259770D01*
X157346153Y-83199819D01*
X157346160Y-83199815D01*
X157499871Y-83103233D01*
X157628233Y-82974871D01*
X157724815Y-82821160D01*
X157724816Y-82821158D01*
X157784774Y-82649807D01*
X157786324Y-82643020D01*
X157788404Y-82643495D01*
X157811465Y-82588583D01*
X157869050Y-82549014D01*
X157938887Y-82546861D01*
X157998801Y-82582805D01*
X158023817Y-82623523D01*
X158054083Y-82704666D01*
X158057169Y-82712940D01*
X158144885Y-82830115D01*
X158262060Y-82917831D01*
X158399200Y-82968982D01*
X158404354Y-82969536D01*
X158468904Y-82996271D01*
X158508753Y-83053663D01*
X158515100Y-83092825D01*
X158515100Y-83261627D01*
X158534163Y-83332769D01*
X158545801Y-83376205D01*
X158598169Y-83466908D01*
X158600527Y-83472009D01*
X158604865Y-83501230D01*
X158611831Y-83529940D01*
X158609940Y-83535403D01*
X158610789Y-83541121D01*
X158598642Y-83568044D01*
X158588979Y-83595967D01*
X158588290Y-83596925D01*
X158465466Y-83765978D01*
X158365386Y-83962393D01*
X158365385Y-83962396D01*
X158297267Y-84172047D01*
X158287008Y-84236819D01*
X158262782Y-84389778D01*
X158262782Y-84610222D01*
X158269504Y-84652661D01*
X158297267Y-84827952D01*
X158365385Y-85037603D01*
X158365386Y-85037606D01*
X158417084Y-85139066D01*
X158457414Y-85218218D01*
X158465469Y-85234025D01*
X158595034Y-85412358D01*
X158595038Y-85412363D01*
X158750918Y-85568243D01*
X158750923Y-85568247D01*
X158906474Y-85681260D01*
X158929260Y-85697815D01*
X159057657Y-85763237D01*
X159125675Y-85797895D01*
X159125678Y-85797896D01*
X159230503Y-85831955D01*
X159335331Y-85866015D01*
X159553060Y-85900500D01*
X159553061Y-85900500D01*
X159773503Y-85900500D01*
X159773504Y-85900500D01*
X159991233Y-85866015D01*
X160200888Y-85797895D01*
X160397304Y-85697815D01*
X160575647Y-85568242D01*
X160731524Y-85412365D01*
X160861097Y-85234022D01*
X160961177Y-85037606D01*
X161029297Y-84827951D01*
X161063782Y-84610222D01*
X161063782Y-84389778D01*
X161029297Y-84172049D01*
X160995237Y-84067221D01*
X160961178Y-83962396D01*
X160961177Y-83962393D01*
X160924708Y-83890821D01*
X160861097Y-83765978D01*
X160828978Y-83721770D01*
X160731529Y-83587641D01*
X160731525Y-83587636D01*
X160575645Y-83431756D01*
X160575640Y-83431752D01*
X160397307Y-83302187D01*
X160397306Y-83302186D01*
X160397304Y-83302185D01*
X160334378Y-83270122D01*
X160200888Y-83202104D01*
X160200885Y-83202103D01*
X159991234Y-83133985D01*
X159776869Y-83100033D01*
X159713734Y-83070104D01*
X159676803Y-83010792D01*
X159677801Y-82940930D01*
X159716411Y-82882697D01*
X159721945Y-82878301D01*
X159786315Y-82830115D01*
X159874031Y-82712940D01*
X159923181Y-82581164D01*
X159965052Y-82525233D01*
X160030517Y-82500816D01*
X160039362Y-82500500D01*
X160636481Y-82500500D01*
X160703520Y-82520185D01*
X160749275Y-82572989D01*
X160752663Y-82581167D01*
X160798724Y-82704663D01*
X160798725Y-82704664D01*
X160798726Y-82704666D01*
X160881206Y-82814846D01*
X160991386Y-82897326D01*
X160991387Y-82897326D01*
X160991388Y-82897327D01*
X161120335Y-82945421D01*
X161120334Y-82945421D01*
X161120340Y-82945423D01*
X161177346Y-82951552D01*
X161177356Y-82951552D01*
X162217644Y-82951552D01*
X162217654Y-82951552D01*
X162274660Y-82945423D01*
X162403614Y-82897326D01*
X162513794Y-82814846D01*
X162596274Y-82704666D01*
X162644371Y-82575712D01*
X162650500Y-82518706D01*
X162650500Y-81648398D01*
X163049500Y-81648398D01*
X163049500Y-82518706D01*
X163055629Y-82575712D01*
X163055630Y-82575717D01*
X163103724Y-82704663D01*
X163103725Y-82704664D01*
X163103726Y-82704666D01*
X163186206Y-82814846D01*
X163296386Y-82897326D01*
X163296387Y-82897326D01*
X163296388Y-82897327D01*
X163425335Y-82945421D01*
X163425334Y-82945421D01*
X163425340Y-82945423D01*
X163482346Y-82951552D01*
X163482356Y-82951552D01*
X164193893Y-82951552D01*
X164260932Y-82971237D01*
X164306687Y-83024041D01*
X164316631Y-83093199D01*
X164287606Y-83156755D01*
X164232211Y-83193483D01*
X164205678Y-83202103D01*
X164205675Y-83202104D01*
X164009256Y-83302187D01*
X163830923Y-83431752D01*
X163830918Y-83431756D01*
X163675038Y-83587636D01*
X163675034Y-83587641D01*
X163545469Y-83765974D01*
X163445386Y-83962393D01*
X163445385Y-83962396D01*
X163377267Y-84172047D01*
X163367008Y-84236819D01*
X163342782Y-84389778D01*
X163342782Y-84610222D01*
X163349504Y-84652661D01*
X163377267Y-84827952D01*
X163445385Y-85037603D01*
X163445386Y-85037606D01*
X163497084Y-85139066D01*
X163537414Y-85218218D01*
X163545469Y-85234025D01*
X163675034Y-85412358D01*
X163675038Y-85412363D01*
X163830918Y-85568243D01*
X163830923Y-85568247D01*
X163986474Y-85681260D01*
X164009260Y-85697815D01*
X164137657Y-85763237D01*
X164205675Y-85797895D01*
X164205678Y-85797896D01*
X164310503Y-85831955D01*
X164415331Y-85866015D01*
X164633060Y-85900500D01*
X164633061Y-85900500D01*
X164853503Y-85900500D01*
X164853504Y-85900500D01*
X165071233Y-85866015D01*
X165280888Y-85797895D01*
X165477304Y-85697815D01*
X165655647Y-85568242D01*
X165811524Y-85412365D01*
X165941097Y-85234022D01*
X166041177Y-85037606D01*
X166109297Y-84827951D01*
X166116885Y-84780044D01*
X183467089Y-84780044D01*
X183467089Y-85000488D01*
X183472968Y-85037606D01*
X183501574Y-85218218D01*
X183569692Y-85427869D01*
X183569693Y-85427872D01*
X183629146Y-85544552D01*
X183657653Y-85600500D01*
X183669776Y-85624291D01*
X183799341Y-85802624D01*
X183799345Y-85802629D01*
X183955225Y-85958509D01*
X183955230Y-85958513D01*
X184108767Y-86070063D01*
X184133567Y-86088081D01*
X184255269Y-86150092D01*
X184329982Y-86188161D01*
X184329985Y-86188162D01*
X184434810Y-86222221D01*
X184539638Y-86256281D01*
X184757367Y-86290766D01*
X184757368Y-86290766D01*
X184977810Y-86290766D01*
X184977811Y-86290766D01*
X185195540Y-86256281D01*
X185405195Y-86188161D01*
X185601611Y-86088081D01*
X185779954Y-85958508D01*
X185935831Y-85802631D01*
X186065404Y-85624288D01*
X186165484Y-85427872D01*
X186233604Y-85218217D01*
X186268089Y-85000488D01*
X186268089Y-84780044D01*
X186233604Y-84562315D01*
X186176277Y-84385877D01*
X186165485Y-84352662D01*
X186165484Y-84352659D01*
X186110376Y-84244506D01*
X186065404Y-84156244D01*
X186007604Y-84076688D01*
X185935836Y-83977907D01*
X185935832Y-83977902D01*
X185779952Y-83822022D01*
X185779947Y-83822018D01*
X185601614Y-83692453D01*
X185601613Y-83692452D01*
X185601611Y-83692451D01*
X185405195Y-83592371D01*
X185405189Y-83592369D01*
X185405184Y-83592367D01*
X185403760Y-83591904D01*
X185403288Y-83591581D01*
X185400692Y-83590506D01*
X185400918Y-83589960D01*
X185383366Y-83577956D01*
X185360886Y-83567690D01*
X185355028Y-83558575D01*
X185346088Y-83552461D01*
X185336471Y-83529700D01*
X185323112Y-83508912D01*
X185320750Y-83492490D01*
X185318896Y-83488100D01*
X185318089Y-83473977D01*
X185318089Y-83370375D01*
X185337774Y-83303336D01*
X185354404Y-83282698D01*
X185581163Y-83055938D01*
X185642484Y-83022455D01*
X185712175Y-83027439D01*
X185746651Y-83047072D01*
X185750684Y-83050322D01*
X185750685Y-83050322D01*
X185750687Y-83050324D01*
X185883829Y-83111127D01*
X186028709Y-83131958D01*
X186173588Y-83111127D01*
X186173590Y-83111126D01*
X186254401Y-83074222D01*
X186323559Y-83064278D01*
X186387115Y-83093303D01*
X186393593Y-83099335D01*
X186702121Y-83407863D01*
X186735606Y-83469186D01*
X186730622Y-83538878D01*
X186727235Y-83547055D01*
X186687355Y-83634381D01*
X186687354Y-83634382D01*
X186667768Y-83770613D01*
X186687354Y-83906843D01*
X186687356Y-83906850D01*
X186744525Y-84032033D01*
X186744530Y-84032041D01*
X186769659Y-84063223D01*
X186780505Y-84076681D01*
X187516114Y-84812290D01*
X187533841Y-84826575D01*
X187560753Y-84848264D01*
X187560761Y-84848269D01*
X187685944Y-84905438D01*
X187685951Y-84905440D01*
X187822182Y-84925027D01*
X187958413Y-84905440D01*
X187958414Y-84905439D01*
X187958419Y-84905438D01*
X188083602Y-84848269D01*
X188083610Y-84848264D01*
X188092795Y-84840861D01*
X188128250Y-84812290D01*
X188743651Y-84196889D01*
X188776405Y-84156244D01*
X188779625Y-84152249D01*
X188779630Y-84152241D01*
X188836799Y-84027058D01*
X188836801Y-84027051D01*
X188841669Y-83993192D01*
X188856388Y-83890821D01*
X188836801Y-83754590D01*
X188836799Y-83754583D01*
X188779630Y-83629400D01*
X188779625Y-83629392D01*
X188749788Y-83592369D01*
X188743651Y-83584753D01*
X188008042Y-82849144D01*
X187984429Y-82830115D01*
X187963402Y-82813169D01*
X187963394Y-82813164D01*
X187838211Y-82755995D01*
X187838204Y-82755993D01*
X187701974Y-82736407D01*
X187565743Y-82755993D01*
X187565742Y-82755994D01*
X187478416Y-82795874D01*
X187409257Y-82805817D01*
X187345701Y-82776791D01*
X187339224Y-82770760D01*
X187050933Y-82482468D01*
X187017448Y-82421145D01*
X187022432Y-82351453D01*
X187042065Y-82316977D01*
X187050324Y-82306730D01*
X187111127Y-82173588D01*
X187131958Y-82028709D01*
X187111127Y-81883829D01*
X187111126Y-81883827D01*
X187111125Y-81883822D01*
X187050326Y-81750692D01*
X187050324Y-81750687D01*
X187012063Y-81703208D01*
X186296792Y-80987939D01*
X186296789Y-80987936D01*
X186296783Y-80987931D01*
X186249315Y-80949677D01*
X186116171Y-80888873D01*
X186116169Y-80888872D01*
X185971291Y-80868042D01*
X185826411Y-80888872D01*
X185735216Y-80930519D01*
X185666057Y-80940462D01*
X185602502Y-80911436D01*
X185564728Y-80852657D01*
X185564729Y-80782788D01*
X185578724Y-80751733D01*
X185579411Y-80750639D01*
X185658166Y-80587101D01*
X185698563Y-80410116D01*
X185698564Y-80410114D01*
X185698564Y-80228582D01*
X185698563Y-80228580D01*
X185658166Y-80051597D01*
X185579406Y-79888049D01*
X185579400Y-79888039D01*
X185494607Y-79781711D01*
X185490883Y-79777987D01*
X183768230Y-81500640D01*
X183771951Y-81504361D01*
X183878285Y-81589161D01*
X183878290Y-81589164D01*
X184041839Y-81667924D01*
X184218822Y-81708321D01*
X184218824Y-81708322D01*
X184400357Y-81708322D01*
X184400358Y-81708321D01*
X184577343Y-81667924D01*
X184740890Y-81589164D01*
X184746791Y-81585457D01*
X184747924Y-81587260D01*
X184803089Y-81564736D01*
X184871785Y-81577488D01*
X184922681Y-81625356D01*
X184939619Y-81693142D01*
X184928517Y-81739602D01*
X184888872Y-81826412D01*
X184868042Y-81971291D01*
X184888872Y-82116169D01*
X184888874Y-82116177D01*
X184949673Y-82249307D01*
X184949679Y-82249318D01*
X184952931Y-82253353D01*
X184979667Y-82317905D01*
X184967259Y-82386664D01*
X184944058Y-82418837D01*
X184507102Y-82855794D01*
X184507100Y-82855797D01*
X184447789Y-82958524D01*
X184447788Y-82958527D01*
X184441301Y-82982735D01*
X184441302Y-82982736D01*
X184417089Y-83073102D01*
X184417089Y-83473977D01*
X184397404Y-83541016D01*
X184344600Y-83586771D01*
X184331418Y-83591904D01*
X184329993Y-83592367D01*
X184329988Y-83592369D01*
X184329985Y-83592370D01*
X184329983Y-83592371D01*
X184247535Y-83634381D01*
X184133563Y-83692453D01*
X183955230Y-83822018D01*
X183955225Y-83822022D01*
X183799345Y-83977902D01*
X183799341Y-83977907D01*
X183669776Y-84156240D01*
X183569693Y-84352659D01*
X183569692Y-84352662D01*
X183501574Y-84562313D01*
X183481325Y-84690161D01*
X183467089Y-84780044D01*
X166116885Y-84780044D01*
X166120948Y-84754394D01*
X166137060Y-84652661D01*
X166143782Y-84610222D01*
X166143782Y-84389778D01*
X166143782Y-84387964D01*
X166163467Y-84320925D01*
X166180101Y-84300283D01*
X166589563Y-83890821D01*
X167044889Y-83435496D01*
X167104199Y-83332769D01*
X167123261Y-83261627D01*
X167134900Y-83218191D01*
X167134900Y-83092825D01*
X167154585Y-83025786D01*
X167207389Y-82980031D01*
X167245652Y-82969535D01*
X167250800Y-82968982D01*
X167250802Y-82968981D01*
X167250804Y-82968981D01*
X167344769Y-82933933D01*
X167387940Y-82917831D01*
X167505115Y-82830115D01*
X167592831Y-82712940D01*
X167627867Y-82619005D01*
X167669736Y-82563074D01*
X167735201Y-82538657D01*
X167803474Y-82553509D01*
X167852879Y-82602914D01*
X167864938Y-82634748D01*
X167865228Y-82636019D01*
X167925180Y-82807353D01*
X167925184Y-82807360D01*
X168021766Y-82961071D01*
X168150128Y-83089433D01*
X168303839Y-83186015D01*
X168303841Y-83186016D01*
X168475189Y-83245973D01*
X168610327Y-83261199D01*
X168610339Y-83261200D01*
X168615600Y-83261199D01*
X169615600Y-83261199D01*
X169620865Y-83261199D01*
X169620870Y-83261198D01*
X169756010Y-83245973D01*
X169756023Y-83245970D01*
X169927353Y-83186019D01*
X169927360Y-83186015D01*
X170081071Y-83089433D01*
X170209433Y-82961071D01*
X170306015Y-82807360D01*
X170306016Y-82807358D01*
X170365972Y-82636012D01*
X170365973Y-82636007D01*
X170376441Y-82543100D01*
X169615600Y-82543100D01*
X169615600Y-83261199D01*
X168615600Y-83261199D01*
X168615600Y-81543100D01*
X169615600Y-81543100D01*
X170376439Y-81543100D01*
X170365970Y-81450178D01*
X170306019Y-81278846D01*
X170306015Y-81278839D01*
X170209433Y-81125128D01*
X170081071Y-80996766D01*
X169927360Y-80900184D01*
X169927358Y-80900183D01*
X169756010Y-80840226D01*
X169620869Y-80825000D01*
X169615600Y-80825000D01*
X169615600Y-81543100D01*
X168615600Y-81543100D01*
X168615600Y-80825000D01*
X168610333Y-80825001D01*
X168475189Y-80840226D01*
X168475176Y-80840229D01*
X168303846Y-80900180D01*
X168303839Y-80900184D01*
X168150128Y-80996766D01*
X168021766Y-81125128D01*
X167925184Y-81278839D01*
X167925183Y-81278841D01*
X167865225Y-81450192D01*
X167863676Y-81456980D01*
X167861600Y-81456506D01*
X167838512Y-81511445D01*
X167780914Y-81550996D01*
X167711077Y-81553129D01*
X167651173Y-81517167D01*
X167626182Y-81476475D01*
X167592831Y-81387060D01*
X167592829Y-81387057D01*
X167505115Y-81269885D01*
X167432535Y-81215552D01*
X167387942Y-81182170D01*
X167387940Y-81182169D01*
X167250800Y-81131018D01*
X167250798Y-81131017D01*
X167250796Y-81131017D01*
X167190180Y-81124500D01*
X166178630Y-81124500D01*
X166178624Y-81124501D01*
X166117997Y-81131018D01*
X165980860Y-81182168D01*
X165863685Y-81269885D01*
X165775970Y-81387057D01*
X165724816Y-81524205D01*
X165723034Y-81531750D01*
X165721283Y-81531336D01*
X165698278Y-81586865D01*
X165640883Y-81626709D01*
X165601732Y-81633052D01*
X165051005Y-81633052D01*
X164983966Y-81613367D01*
X164938211Y-81560563D01*
X164934823Y-81552386D01*
X164901274Y-81462438D01*
X164884113Y-81439514D01*
X164818794Y-81352258D01*
X164708614Y-81269778D01*
X164708612Y-81269777D01*
X164708611Y-81269776D01*
X164579664Y-81221682D01*
X164579665Y-81221682D01*
X164579661Y-81221681D01*
X164579660Y-81221681D01*
X164522654Y-81215552D01*
X163482346Y-81215552D01*
X163425340Y-81221681D01*
X163425338Y-81221681D01*
X163425334Y-81221682D01*
X163296388Y-81269776D01*
X163296386Y-81269778D01*
X163186206Y-81352258D01*
X163103726Y-81462438D01*
X163103724Y-81462440D01*
X163055630Y-81591386D01*
X163055629Y-81591390D01*
X163055629Y-81591392D01*
X163049500Y-81648398D01*
X162650500Y-81648398D01*
X162644371Y-81591392D01*
X162642683Y-81586865D01*
X162596275Y-81462440D01*
X162596274Y-81462439D01*
X162596274Y-81462438D01*
X162513794Y-81352258D01*
X162403614Y-81269778D01*
X162403612Y-81269777D01*
X162403611Y-81269776D01*
X162274664Y-81221682D01*
X162274665Y-81221682D01*
X162274661Y-81221681D01*
X162274660Y-81221681D01*
X162217654Y-81215552D01*
X161177346Y-81215552D01*
X161120340Y-81221681D01*
X161120338Y-81221681D01*
X161120334Y-81221682D01*
X160991388Y-81269776D01*
X160991386Y-81269778D01*
X160881206Y-81352258D01*
X160798726Y-81462438D01*
X160798723Y-81462442D01*
X160777692Y-81518832D01*
X160735821Y-81574766D01*
X160670357Y-81599184D01*
X160661510Y-81599500D01*
X160039362Y-81599500D01*
X159972323Y-81579815D01*
X159926568Y-81527011D01*
X159923185Y-81518847D01*
X159874031Y-81387060D01*
X159786315Y-81269885D01*
X159713735Y-81215552D01*
X159669142Y-81182170D01*
X159669140Y-81182169D01*
X159532000Y-81131018D01*
X159531998Y-81131017D01*
X159531996Y-81131017D01*
X159471380Y-81124500D01*
X158459830Y-81124500D01*
X158459824Y-81124501D01*
X158399197Y-81131018D01*
X158262060Y-81182168D01*
X158144885Y-81269885D01*
X158057169Y-81387059D01*
X158022133Y-81480993D01*
X157980262Y-81536926D01*
X157914797Y-81561342D01*
X157846524Y-81546490D01*
X157797119Y-81497084D01*
X157785059Y-81465240D01*
X157784771Y-81463979D01*
X157724819Y-81292646D01*
X157724815Y-81292639D01*
X157628233Y-81138928D01*
X157499871Y-81010566D01*
X157346160Y-80913984D01*
X157346158Y-80913983D01*
X157174810Y-80854026D01*
X157039669Y-80838800D01*
X157034400Y-80838800D01*
X157034400Y-83274999D01*
X156034400Y-83274999D01*
X156034400Y-82556900D01*
X155273561Y-82556900D01*
X102900500Y-82556900D01*
X102900500Y-80472300D01*
X102920185Y-80405261D01*
X102972989Y-80359506D01*
X103024500Y-80348300D01*
X104465890Y-80348300D01*
X104465892Y-80348300D01*
X104593186Y-80314192D01*
X104707314Y-80248300D01*
X104778712Y-80176902D01*
X108724500Y-80176902D01*
X108724500Y-80413097D01*
X108761446Y-80646368D01*
X108834433Y-80870996D01*
X108894015Y-80987931D01*
X108941657Y-81081433D01*
X109080483Y-81272510D01*
X109247490Y-81439517D01*
X109438567Y-81578343D01*
X109530835Y-81625356D01*
X109649003Y-81685566D01*
X109649005Y-81685566D01*
X109649008Y-81685568D01*
X109769412Y-81724689D01*
X109873631Y-81758553D01*
X110106903Y-81795500D01*
X110106908Y-81795500D01*
X113443097Y-81795500D01*
X113676368Y-81758553D01*
X113900992Y-81685568D01*
X114111433Y-81578343D01*
X114140948Y-81556899D01*
X155273558Y-81556899D01*
X155273558Y-81556900D01*
X156034400Y-81556900D01*
X156034400Y-80838800D01*
X156029133Y-80838801D01*
X155893989Y-80854026D01*
X155893976Y-80854029D01*
X155722646Y-80913980D01*
X155722639Y-80913984D01*
X155568928Y-81010566D01*
X155440566Y-81138928D01*
X155343984Y-81292639D01*
X155343983Y-81292641D01*
X155284027Y-81463987D01*
X155284026Y-81463992D01*
X155273558Y-81556899D01*
X114140948Y-81556899D01*
X114302510Y-81439517D01*
X114469517Y-81272510D01*
X114608343Y-81081433D01*
X114715568Y-80870992D01*
X114788553Y-80646368D01*
X114808580Y-80519924D01*
X114825500Y-80413097D01*
X114825500Y-80176903D01*
X114825015Y-80173842D01*
X114825015Y-80173841D01*
X114823045Y-80161405D01*
X182853442Y-80161405D01*
X182853442Y-80342941D01*
X182893839Y-80519924D01*
X182972599Y-80683472D01*
X182972605Y-80683482D01*
X183057398Y-80789810D01*
X183061122Y-80793534D01*
X183568896Y-80285760D01*
X183568896Y-80285759D01*
X183030900Y-79747764D01*
X183030899Y-79747764D01*
X182972605Y-79820863D01*
X182972599Y-79820873D01*
X182893839Y-79984420D01*
X182853442Y-80161405D01*
X114823045Y-80161405D01*
X114788553Y-79943631D01*
X114748663Y-79820863D01*
X114715568Y-79719008D01*
X114715566Y-79719005D01*
X114715566Y-79719003D01*
X114644054Y-79578654D01*
X114608343Y-79508567D01*
X114469517Y-79317490D01*
X114302510Y-79150483D01*
X114151348Y-79040657D01*
X183738006Y-79040657D01*
X183738006Y-79040658D01*
X184276001Y-79578654D01*
X184276002Y-79578654D01*
X184783775Y-79070881D01*
X184780054Y-79067160D01*
X184673720Y-78982360D01*
X184673715Y-78982357D01*
X184510166Y-78903597D01*
X184333183Y-78863200D01*
X184151647Y-78863200D01*
X183974662Y-78903597D01*
X183811115Y-78982357D01*
X183811105Y-78982363D01*
X183738006Y-79040657D01*
X114151348Y-79040657D01*
X114111433Y-79011657D01*
X113900996Y-78904433D01*
X113676368Y-78831446D01*
X113443097Y-78794500D01*
X113443092Y-78794500D01*
X110106908Y-78794500D01*
X110106903Y-78794500D01*
X109873631Y-78831446D01*
X109649003Y-78904433D01*
X109438566Y-79011657D01*
X109362174Y-79067160D01*
X109247490Y-79150483D01*
X109247488Y-79150485D01*
X109247487Y-79150485D01*
X109080485Y-79317487D01*
X109080485Y-79317488D01*
X109080483Y-79317490D01*
X109058825Y-79347300D01*
X108941657Y-79508566D01*
X108834433Y-79719003D01*
X108761446Y-79943631D01*
X108724500Y-80176902D01*
X104778712Y-80176902D01*
X104800500Y-80155114D01*
X104866392Y-80040986D01*
X104900500Y-79913692D01*
X104900500Y-77720870D01*
X187788801Y-77720870D01*
X187804026Y-77856010D01*
X187804029Y-77856023D01*
X187863980Y-78027353D01*
X187863984Y-78027360D01*
X187960566Y-78181071D01*
X188088928Y-78309433D01*
X188242639Y-78406015D01*
X188242641Y-78406016D01*
X188413987Y-78465972D01*
X188413992Y-78465973D01*
X188506899Y-78476441D01*
X188506900Y-78476441D01*
X188506900Y-77715600D01*
X189506900Y-77715600D01*
X189506900Y-78476439D01*
X189599821Y-78465970D01*
X189771153Y-78406019D01*
X189771160Y-78406015D01*
X189924868Y-78309434D01*
X189987706Y-78246597D01*
X190049029Y-78213112D01*
X190118721Y-78218096D01*
X190152705Y-78237334D01*
X190154911Y-78239093D01*
X190303365Y-78332374D01*
X190303371Y-78332377D01*
X190468882Y-78390291D01*
X190532499Y-78397459D01*
X190532500Y-78397459D01*
X191532500Y-78397459D01*
X191596117Y-78390291D01*
X191761628Y-78332377D01*
X191761634Y-78332374D01*
X191910092Y-78239091D01*
X191910098Y-78239086D01*
X192034086Y-78115098D01*
X192034091Y-78115092D01*
X192127374Y-77966634D01*
X192127376Y-77966631D01*
X192185292Y-77801117D01*
X192199999Y-77670580D01*
X192200000Y-77670580D01*
X192200000Y-77652500D01*
X191532500Y-77652500D01*
X191532500Y-78397459D01*
X190532500Y-78397459D01*
X190532500Y-77652500D01*
X190355000Y-77652500D01*
X190328219Y-77679281D01*
X190266896Y-77712766D01*
X190240538Y-77715600D01*
X189506900Y-77715600D01*
X188506900Y-77715600D01*
X187788801Y-77715600D01*
X187788801Y-77720870D01*
X104900500Y-77720870D01*
X104900500Y-70432096D01*
X187017141Y-70432096D01*
X187017141Y-70763503D01*
X187054242Y-71092791D01*
X187054245Y-71092805D01*
X187127987Y-71415893D01*
X187127990Y-71415901D01*
X187237440Y-71728690D01*
X187381223Y-72027258D01*
X187381225Y-72027261D01*
X187557537Y-72307860D01*
X187764157Y-72566953D01*
X187998488Y-72801284D01*
X188257581Y-73007904D01*
X188538180Y-73184216D01*
X188836754Y-73328002D01*
X188952816Y-73368613D01*
X189116429Y-73425865D01*
X189117495Y-73426630D01*
X189118808Y-73426724D01*
X189145801Y-73446931D01*
X189173205Y-73466586D01*
X189173689Y-73467809D01*
X189174741Y-73468596D01*
X189186518Y-73500173D01*
X189198952Y-73531539D01*
X189198698Y-73532828D01*
X189199158Y-73534060D01*
X189191993Y-73566993D01*
X189185496Y-73600101D01*
X189184494Y-73601468D01*
X189184306Y-73602333D01*
X189163155Y-73630587D01*
X189011761Y-73781981D01*
X188950438Y-73815466D01*
X188924080Y-73818300D01*
X188534830Y-73818300D01*
X188534824Y-73818301D01*
X188474197Y-73824818D01*
X188337060Y-73875968D01*
X188219885Y-73963685D01*
X188132170Y-74080857D01*
X188081017Y-74218003D01*
X188074500Y-74278610D01*
X188074500Y-75290169D01*
X188074501Y-75290175D01*
X188081018Y-75350802D01*
X188132168Y-75487939D01*
X188132169Y-75487940D01*
X188219885Y-75605115D01*
X188337060Y-75692831D01*
X188430994Y-75727867D01*
X188486925Y-75769737D01*
X188511342Y-75835201D01*
X188496490Y-75903474D01*
X188447085Y-75952879D01*
X188415254Y-75964937D01*
X188413984Y-75965226D01*
X188242646Y-76025180D01*
X188242639Y-76025184D01*
X188088928Y-76121766D01*
X187960566Y-76250128D01*
X187863984Y-76403839D01*
X187863983Y-76403841D01*
X187804026Y-76575189D01*
X187788800Y-76710330D01*
X187788800Y-76715600D01*
X189735000Y-76715600D01*
X189761781Y-76688819D01*
X189823104Y-76655334D01*
X189849462Y-76652500D01*
X192200000Y-76652500D01*
X192200000Y-76634420D01*
X192199999Y-76634419D01*
X192185292Y-76503882D01*
X192127376Y-76338368D01*
X192127374Y-76338365D01*
X192034091Y-76189907D01*
X192034086Y-76189901D01*
X191910098Y-76065913D01*
X191910092Y-76065908D01*
X191761634Y-75972625D01*
X191761628Y-75972622D01*
X191701612Y-75951622D01*
X191644836Y-75910900D01*
X191619088Y-75845947D01*
X191632544Y-75777386D01*
X191668253Y-75735315D01*
X191763794Y-75663794D01*
X191846274Y-75553614D01*
X191894371Y-75424660D01*
X191900500Y-75367654D01*
X191900500Y-74327346D01*
X191894371Y-74270340D01*
X191894369Y-74270334D01*
X191846275Y-74141388D01*
X191846274Y-74141387D01*
X191846274Y-74141386D01*
X191763794Y-74031206D01*
X191653614Y-73948726D01*
X191653612Y-73948725D01*
X191653611Y-73948724D01*
X191524664Y-73900630D01*
X191524665Y-73900630D01*
X191524661Y-73900629D01*
X191524660Y-73900629D01*
X191467654Y-73894500D01*
X191467645Y-73894500D01*
X190792141Y-73894500D01*
X190783455Y-73891949D01*
X190774494Y-73893238D01*
X190750453Y-73882259D01*
X190725102Y-73874815D01*
X190719174Y-73867974D01*
X190710938Y-73864213D01*
X190696648Y-73841978D01*
X190679347Y-73822011D01*
X190677059Y-73811496D01*
X190673164Y-73805435D01*
X190668141Y-73770500D01*
X190668141Y-73563179D01*
X190687826Y-73496140D01*
X190740630Y-73450385D01*
X190764543Y-73442289D01*
X190785731Y-73437454D01*
X191098528Y-73328002D01*
X191397102Y-73184216D01*
X191677701Y-73007904D01*
X191936794Y-72801284D01*
X192171125Y-72566953D01*
X192377745Y-72307860D01*
X192554057Y-72027261D01*
X192697843Y-71728687D01*
X192807295Y-71415890D01*
X192881037Y-71092806D01*
X192918141Y-70763497D01*
X192918141Y-70432103D01*
X192881037Y-70102794D01*
X192807295Y-69779710D01*
X192697843Y-69466913D01*
X192554057Y-69168339D01*
X192377745Y-68887740D01*
X192171125Y-68628647D01*
X191936794Y-68394316D01*
X191677701Y-68187696D01*
X191397102Y-68011384D01*
X191397099Y-68011382D01*
X191098531Y-67867599D01*
X190785742Y-67758149D01*
X190785734Y-67758146D01*
X190543418Y-67702839D01*
X190462647Y-67684404D01*
X190462644Y-67684403D01*
X190462632Y-67684401D01*
X190133344Y-67647300D01*
X190133338Y-67647300D01*
X189801944Y-67647300D01*
X189801937Y-67647300D01*
X189472649Y-67684401D01*
X189472635Y-67684404D01*
X189149547Y-67758146D01*
X189149539Y-67758149D01*
X188836750Y-67867599D01*
X188538182Y-68011382D01*
X188257582Y-68187695D01*
X187998488Y-68394315D01*
X187764156Y-68628647D01*
X187557536Y-68887741D01*
X187381223Y-69168341D01*
X187237440Y-69466909D01*
X187127990Y-69779698D01*
X187127987Y-69779706D01*
X187054245Y-70102794D01*
X187054242Y-70102808D01*
X187017141Y-70432096D01*
X104900500Y-70432096D01*
X104900500Y-68100354D01*
X104900606Y-68095237D01*
X104914548Y-67758149D01*
X104919072Y-67648761D01*
X104919915Y-67638592D01*
X104974874Y-67197681D01*
X104976554Y-67187609D01*
X105067734Y-66752751D01*
X105070245Y-66742841D01*
X105197022Y-66317005D01*
X105200341Y-66307340D01*
X105222715Y-66250000D01*
X146200000Y-66250000D01*
X146200000Y-66552317D01*
X146232009Y-66754417D01*
X146295244Y-66949031D01*
X146388140Y-67131349D01*
X146508417Y-67296894D01*
X146508417Y-67296895D01*
X146605378Y-67393856D01*
X146638863Y-67455179D01*
X146633879Y-67524871D01*
X146592007Y-67580804D01*
X146586590Y-67584637D01*
X146555449Y-67605445D01*
X146555448Y-67605446D01*
X146511132Y-67671769D01*
X146511131Y-67671770D01*
X146499500Y-67730247D01*
X146499500Y-69769752D01*
X146511131Y-69828229D01*
X146511132Y-69828230D01*
X146555447Y-69894552D01*
X146621769Y-69938867D01*
X146621770Y-69938868D01*
X146680247Y-69950499D01*
X146680250Y-69950500D01*
X146680252Y-69950500D01*
X148319750Y-69950500D01*
X148319751Y-69950499D01*
X148334568Y-69947552D01*
X148378229Y-69938868D01*
X148378229Y-69938867D01*
X148378231Y-69938867D01*
X148444552Y-69894552D01*
X148488867Y-69828231D01*
X148488867Y-69828229D01*
X148488868Y-69828229D01*
X148500499Y-69769752D01*
X148500500Y-69769750D01*
X148500500Y-67730249D01*
X148500499Y-67730247D01*
X148488868Y-67671770D01*
X148488867Y-67671769D01*
X148444551Y-67605446D01*
X148413410Y-67584638D01*
X148368605Y-67531025D01*
X148359899Y-67461700D01*
X148390055Y-67398673D01*
X148394621Y-67393855D01*
X148491585Y-67296891D01*
X148611859Y-67131349D01*
X148704755Y-66949031D01*
X148767990Y-66754417D01*
X148800000Y-66552317D01*
X148800000Y-66250000D01*
X147900000Y-66250000D01*
X147900000Y-65250000D01*
X148000000Y-65250000D01*
X148800000Y-65250000D01*
X148800000Y-64947682D01*
X148767990Y-64745582D01*
X148704755Y-64550968D01*
X148611859Y-64368650D01*
X148491582Y-64203105D01*
X148491582Y-64203104D01*
X148346895Y-64058417D01*
X148181349Y-63938140D01*
X148000000Y-63845738D01*
X148000000Y-65250000D01*
X147900000Y-65250000D01*
X147900000Y-65097339D01*
X147872741Y-64995606D01*
X147820080Y-64904394D01*
X147745606Y-64829920D01*
X147654394Y-64777259D01*
X147552661Y-64750000D01*
X147447339Y-64750000D01*
X147345606Y-64777259D01*
X147254394Y-64829920D01*
X147179920Y-64904394D01*
X147127259Y-64995606D01*
X147100000Y-65097339D01*
X147100000Y-66250000D01*
X146200000Y-66250000D01*
X105222715Y-66250000D01*
X105361840Y-65893454D01*
X105365954Y-65884075D01*
X105561088Y-65484920D01*
X105565955Y-65475928D01*
X105793389Y-65094245D01*
X105798982Y-65085685D01*
X105897514Y-64947682D01*
X146200000Y-64947682D01*
X146200000Y-65250000D01*
X147000000Y-65250000D01*
X147000000Y-63845738D01*
X146818650Y-63938140D01*
X146653105Y-64058417D01*
X146653104Y-64058417D01*
X146508417Y-64203104D01*
X146508417Y-64203105D01*
X146388140Y-64368650D01*
X146295244Y-64550968D01*
X146232009Y-64745582D01*
X146200000Y-64947682D01*
X105897514Y-64947682D01*
X106057162Y-64724082D01*
X106063422Y-64716040D01*
X106350581Y-64376991D01*
X106357500Y-64369475D01*
X106671675Y-64055300D01*
X106679191Y-64048381D01*
X107018240Y-63761222D01*
X107026294Y-63754953D01*
X107387885Y-63496782D01*
X107396449Y-63491187D01*
X107778136Y-63263749D01*
X107787120Y-63258888D01*
X108186280Y-63063751D01*
X108195654Y-63059640D01*
X108609553Y-62898136D01*
X108619205Y-62894822D01*
X109045055Y-62768041D01*
X109054951Y-62765534D01*
X109489809Y-62674354D01*
X109499881Y-62672674D01*
X109940792Y-62617715D01*
X109950961Y-62616872D01*
X110397437Y-62598405D01*
X110402561Y-62598300D01*
X110465892Y-62598300D01*
X191326745Y-62598300D01*
X191390075Y-62598300D01*
X191395200Y-62598406D01*
G37*
%TD.AperFunction*%
%TD*%
M02*
