%TF.GenerationSoftware,KiCad,Pcbnew,10.0.3*%
%TF.CreationDate,2026-08-28T17:51:20+08:00*%
%TF.ProjectId,BDUCU,42445543-552e-46b6-9963-61645f706362,rev?*%
%TF.SameCoordinates,Original*%
%TF.FileFunction,Paste,Bot*%
%TF.FilePolarity,Positive*%
%FSLAX46Y46*%
G04 Gerber Fmt 4.6, Leading zero omitted, Abs format (unit mm)*
G04 Created by KiCad (PCBNEW 10.0.3) date 2026-08-28 17:51:20*
%MOMM*%
%LPD*%
G01*
G04 APERTURE LIST*
G04 Aperture macros list*
%AMRoundRect*
0 Rectangle with rounded corners*
0 $1 Rounding radius*
0 $2 $3 $4 $5 $6 $7 $8 $9 X,Y pos of 4 corners*
0 Add a 4 corners polygon primitive as box body*
4,1,4,$2,$3,$4,$5,$6,$7,$8,$9,$2,$3,0*
0 Add four circle primitives for the rounded corners*
1,1,$1+$1,$2,$3*
1,1,$1+$1,$4,$5*
1,1,$1+$1,$6,$7*
1,1,$1+$1,$8,$9*
0 Add four rect primitives between the rounded corners*
20,1,$1+$1,$2,$3,$4,$5,0*
20,1,$1+$1,$4,$5,$6,$7,0*
20,1,$1+$1,$6,$7,$8,$9,0*
20,1,$1+$1,$8,$9,$2,$3,0*%
G04 Aperture macros list end*
%ADD10RoundRect,0.305575X-0.460025X-0.412525X0.460025X-0.412525X0.460025X0.412525X-0.460025X0.412525X0*%
%ADD11RoundRect,0.308511X-0.457089X-0.416489X0.457089X-0.416489X0.457089X0.416489X-0.457089X0.416489X0*%
%ADD12RoundRect,0.278125X0.389375X-0.474375X0.389375X0.474375X-0.389375X0.474375X-0.389375X-0.474375X0*%
%ADD13RoundRect,0.278125X-0.474375X-0.389375X0.474375X-0.389375X0.474375X0.389375X-0.474375X0.389375X0*%
%ADD14RoundRect,0.305575X0.460025X0.412525X-0.460025X0.412525X-0.460025X-0.412525X0.460025X-0.412525X0*%
%ADD15RoundRect,0.308511X0.457089X0.416489X-0.457089X0.416489X-0.457089X-0.416489X0.457089X-0.416489X0*%
%ADD16RoundRect,0.150000X-0.150000X1.350000X-0.150000X-1.350000X0.150000X-1.350000X0.150000X1.350000X0*%
%ADD17RoundRect,0.150000X-0.150000X1.337500X-0.150000X-1.337500X0.150000X-1.337500X0.150000X1.337500X0*%
%ADD18RoundRect,0.305575X0.412525X-0.460025X0.412525X0.460025X-0.412525X0.460025X-0.412525X-0.460025X0*%
%ADD19RoundRect,0.308511X0.416489X-0.457089X0.416489X0.457089X-0.416489X0.457089X-0.416489X-0.457089X0*%
%ADD20RoundRect,0.250000X0.300000X0.300000X-0.300000X0.300000X-0.300000X-0.300000X0.300000X-0.300000X0*%
%ADD21RoundRect,0.278125X-0.389375X0.474375X-0.389375X-0.474375X0.389375X-0.474375X0.389375X0.474375X0*%
%ADD22RoundRect,0.150000X-0.150000X0.750000X-0.150000X-0.750000X0.150000X-0.750000X0.150000X0.750000X0*%
%ADD23RoundRect,0.278125X0.474375X0.389375X-0.474375X0.389375X-0.474375X-0.389375X0.474375X-0.389375X0*%
%ADD24RoundRect,0.293478X0.381522X0.406522X-0.381522X0.406522X-0.381522X-0.406522X0.381522X-0.406522X0*%
%ADD25RoundRect,0.150000X-0.750000X-0.150000X0.750000X-0.150000X0.750000X0.150000X-0.750000X0.150000X0*%
%ADD26RoundRect,0.150000X-1.350000X-0.150000X1.350000X-0.150000X1.350000X0.150000X-1.350000X0.150000X0*%
%ADD27RoundRect,0.150000X-1.337500X-0.150000X1.337500X-0.150000X1.337500X0.150000X-1.337500X0.150000X0*%
G04 APERTURE END LIST*
D10*
%TO.C,C26*%
X116384400Y-89406900D03*
D11*
X118815600Y-89400000D03*
%TD*%
D12*
%TO.C,R27*%
X161900000Y-81752500D03*
X161900000Y-79447500D03*
%TD*%
D13*
%TO.C,R39*%
X146547500Y-92842132D03*
X148852500Y-92842132D03*
%TD*%
D14*
%TO.C,C30*%
X146224671Y-89594151D03*
D15*
X143793471Y-89601051D03*
%TD*%
D13*
%TO.C,R32*%
X139857500Y-97273750D03*
X142162500Y-97273750D03*
%TD*%
D16*
%TO.C,U9*%
X143195000Y-43750000D03*
X144465000Y-43750000D03*
D17*
X145600000Y-43737500D03*
D16*
X147005000Y-43750000D03*
X147005000Y-49750000D03*
X145735000Y-49750000D03*
X144465000Y-49750000D03*
X143195000Y-49750000D03*
%TD*%
D18*
%TO.C,C32*%
X132406900Y-83515600D03*
D19*
X132400000Y-81084400D03*
%TD*%
D20*
%TO.C,D8*%
X141320000Y-56325000D03*
X138520000Y-56325000D03*
%TD*%
D12*
%TO.C,R67*%
X138705000Y-68860000D03*
X138705000Y-66555000D03*
%TD*%
D10*
%TO.C,C29*%
X133793471Y-89607951D03*
D11*
X136224671Y-89601051D03*
%TD*%
D21*
%TO.C,R60*%
X149625000Y-66275000D03*
X149625000Y-68580000D03*
%TD*%
D22*
%TO.C,Q5*%
X150750000Y-92609632D03*
X152650000Y-92609632D03*
X151700000Y-94809632D03*
%TD*%
%TO.C,Q1*%
X130302500Y-92952500D03*
X132202500Y-92952500D03*
X131252500Y-95152500D03*
%TD*%
D23*
%TO.C,R48*%
X133152500Y-75367500D03*
X130847500Y-75367500D03*
%TD*%
%TO.C,R21*%
X156952500Y-52167500D03*
X154647500Y-52167500D03*
%TD*%
D13*
%TO.C,R31*%
X126100000Y-93185000D03*
X128405000Y-93185000D03*
%TD*%
D21*
%TO.C,R34*%
X137435000Y-92821250D03*
X137435000Y-95126250D03*
%TD*%
D13*
%TO.C,R59*%
X138472500Y-60557500D03*
X140777500Y-60557500D03*
%TD*%
D18*
%TO.C,C21*%
X148306900Y-83215600D03*
D19*
X148300000Y-80784400D03*
%TD*%
D21*
%TO.C,R22*%
X154767500Y-47480000D03*
X154767500Y-49785000D03*
%TD*%
D10*
%TO.C,C17*%
X143984400Y-53006900D03*
D11*
X146415600Y-53000000D03*
%TD*%
D23*
%TO.C,R23*%
X158045240Y-89654098D03*
X155740240Y-89654098D03*
%TD*%
D14*
%TO.C,C19*%
X163015600Y-89680749D03*
D15*
X160584400Y-89687649D03*
%TD*%
D14*
%TO.C,C27*%
X128515600Y-89393100D03*
D15*
X126084400Y-89400000D03*
%TD*%
D23*
%TO.C,R47*%
X141150830Y-89567500D03*
X138845830Y-89567500D03*
%TD*%
D20*
%TO.C,D9*%
X145870000Y-56325000D03*
X143070000Y-56325000D03*
%TD*%
D23*
%TO.C,R28*%
X123652500Y-89367500D03*
X121347500Y-89367500D03*
%TD*%
D24*
%TO.C,D4*%
X137435000Y-97273750D03*
X135185000Y-97273750D03*
%TD*%
D14*
%TO.C,C24*%
X122165600Y-79118100D03*
D15*
X119734400Y-79125000D03*
%TD*%
D21*
%TO.C,R62*%
X153625000Y-66275000D03*
X153625000Y-68580000D03*
%TD*%
D23*
%TO.C,R30*%
X109690617Y-96176503D03*
X107385617Y-96176503D03*
%TD*%
D25*
%TO.C,Q6*%
X160657500Y-94783382D03*
X160657500Y-92883382D03*
X162857500Y-93833382D03*
%TD*%
D23*
%TO.C,R55*%
X145375000Y-58425000D03*
X143070000Y-58425000D03*
%TD*%
D12*
%TO.C,R51*%
X145132500Y-81552500D03*
X145132500Y-79247500D03*
%TD*%
D13*
%TO.C,R57*%
X143070000Y-60590000D03*
X145375000Y-60590000D03*
%TD*%
%TO.C,R40*%
X160305000Y-96930882D03*
X162610000Y-96930882D03*
%TD*%
D12*
%TO.C,R33*%
X135185000Y-95126250D03*
X135185000Y-92821250D03*
%TD*%
D24*
%TO.C,D6*%
X157882500Y-96930882D03*
X155632500Y-96930882D03*
%TD*%
D10*
%TO.C,C22*%
X117302400Y-75006900D03*
D11*
X119733600Y-75000000D03*
%TD*%
D26*
%TO.C,U14*%
X135809071Y-82305000D03*
X135809071Y-81035000D03*
D27*
X135796571Y-79900000D03*
D26*
X135809071Y-78495000D03*
X141809071Y-78495000D03*
X141809071Y-79765000D03*
X141809071Y-81035000D03*
X141809071Y-82305000D03*
%TD*%
D10*
%TO.C,C23*%
X117302400Y-77006900D03*
D11*
X119733600Y-77000000D03*
%TD*%
D14*
%TO.C,C28*%
X122164800Y-72893100D03*
D15*
X119733600Y-72900000D03*
%TD*%
D10*
%TO.C,C16*%
X131352500Y-54206900D03*
D11*
X133783700Y-54200000D03*
%TD*%
D21*
%TO.C,R63*%
X151625000Y-66275000D03*
X151625000Y-68580000D03*
%TD*%
D10*
%TO.C,C25*%
X107318800Y-98256900D03*
D11*
X109750000Y-98250000D03*
%TD*%
D26*
%TO.C,U11*%
X152667500Y-82475149D03*
X152667500Y-81205149D03*
D27*
X152655000Y-80070149D03*
D26*
X152667500Y-78665149D03*
X158667500Y-78665149D03*
X158667500Y-79935149D03*
X158667500Y-81205149D03*
X158667500Y-82475149D03*
%TD*%
D25*
%TO.C,Q2*%
X140210000Y-95126250D03*
X140210000Y-93226250D03*
X142410000Y-94176250D03*
%TD*%
D10*
%TO.C,C18*%
X150791363Y-89694549D03*
D11*
X153222563Y-89687649D03*
%TD*%
D16*
%TO.C,U8*%
X131352500Y-45000000D03*
X132622500Y-45000000D03*
D17*
X133757500Y-44987500D03*
D16*
X135162500Y-45000000D03*
X135162500Y-51000000D03*
X133892500Y-51000000D03*
X132622500Y-51000000D03*
X131352500Y-51000000D03*
%TD*%
D13*
%TO.C,R56*%
X152222500Y-60557500D03*
X154527500Y-60557500D03*
%TD*%
D21*
%TO.C,R42*%
X157882500Y-92478382D03*
X157882500Y-94783382D03*
%TD*%
D12*
%TO.C,R65*%
X142705000Y-68860000D03*
X142705000Y-66555000D03*
%TD*%
%TO.C,R66*%
X136705000Y-68860000D03*
X136705000Y-66555000D03*
%TD*%
%TO.C,R64*%
X140705000Y-68860000D03*
X140705000Y-66555000D03*
%TD*%
D13*
%TO.C,R58*%
X147570000Y-60590000D03*
X149875000Y-60590000D03*
%TD*%
D12*
%TO.C,R50*%
X129532500Y-83352500D03*
X129532500Y-81047500D03*
%TD*%
D23*
%TO.C,R24*%
X150152500Y-75267820D03*
X147847500Y-75267820D03*
%TD*%
D21*
%TO.C,R61*%
X147625000Y-66275000D03*
X147625000Y-68580000D03*
%TD*%
D12*
%TO.C,R41*%
X155632500Y-94783382D03*
X155632500Y-92478382D03*
%TD*%
D23*
%TO.C,R54*%
X149825000Y-58425000D03*
X147520000Y-58425000D03*
%TD*%
M02*
