%TF.GenerationSoftware,KiCad,Pcbnew,10.0.3*%
%TF.CreationDate,2026-08-28T17:51:20+08:00*%
%TF.ProjectId,BDUCU,42445543-552e-46b6-9963-61645f706362,rev?*%
%TF.SameCoordinates,Original*%
%TF.FileFunction,Legend,Bot*%
%TF.FilePolarity,Positive*%
%FSLAX46Y46*%
G04 Gerber Fmt 4.6, Leading zero omitted, Abs format (unit mm)*
G04 Created by KiCad (PCBNEW 10.0.3) date 2026-08-28 17:51:20*
%MOMM*%
%LPD*%
G01*
G04 APERTURE LIST*
%ADD10C,0.100000*%
%ADD11C,0.150000*%
%ADD12C,0.120000*%
G04 APERTURE END LIST*
D10*
X40000000Y-40000000D02*
X50000000Y-40000000D01*
X50000000Y-50000000D01*
X40000000Y-50000000D01*
X40000000Y-40000000D01*
G36*
X40000000Y-40000000D02*
G01*
X50000000Y-40000000D01*
X50000000Y-50000000D01*
X40000000Y-50000000D01*
X40000000Y-40000000D01*
G37*
X40000000Y-90000000D02*
X50000000Y-90000000D01*
X50000000Y-100000000D01*
X40000000Y-100000000D01*
X40000000Y-90000000D01*
G36*
X40000000Y-90000000D02*
G01*
X50000000Y-90000000D01*
X50000000Y-100000000D01*
X40000000Y-100000000D01*
X40000000Y-90000000D01*
G37*
X40755660Y-52500000D02*
X50744339Y-52500000D01*
X50744339Y-59765228D01*
X40755660Y-59765228D01*
X40755660Y-52500000D01*
G36*
X40755660Y-52500000D02*
G01*
X50744339Y-52500000D01*
X50744339Y-59765228D01*
X40755660Y-59765228D01*
X40755660Y-52500000D01*
G37*
X40755660Y-66250000D02*
X50744339Y-66250000D01*
X50744339Y-73515228D01*
X40755660Y-73515228D01*
X40755660Y-66250000D01*
G36*
X40755660Y-66250000D02*
G01*
X50744339Y-66250000D01*
X50744339Y-73515228D01*
X40755660Y-73515228D01*
X40755660Y-66250000D01*
G37*
X40755660Y-79750000D02*
X50744339Y-79750000D01*
X50744339Y-87015228D01*
X40755660Y-87015228D01*
X40755660Y-79750000D01*
G36*
X40755660Y-79750000D02*
G01*
X50744339Y-79750000D01*
X50744339Y-87015228D01*
X40755660Y-87015228D01*
X40755660Y-79750000D01*
G37*
X53357313Y-40755751D02*
X60622541Y-40755751D01*
X60622541Y-50744430D01*
X53357313Y-50744430D01*
X53357313Y-40755751D01*
G36*
X53357313Y-40755751D02*
G01*
X60622541Y-40755751D01*
X60622541Y-50744430D01*
X53357313Y-50744430D01*
X53357313Y-40755751D01*
G37*
X125464409Y-42750000D02*
X129535592Y-42750000D01*
X129535592Y-54227298D01*
X125464409Y-54227298D01*
X125464409Y-42750000D01*
G36*
X125464409Y-42750000D02*
G01*
X129535592Y-42750000D01*
X129535592Y-54227298D01*
X125464409Y-54227298D01*
X125464409Y-42750000D01*
G37*
X136664409Y-42749999D02*
X142135592Y-42749999D01*
X142135592Y-54245497D01*
X136664409Y-54245497D01*
X136664409Y-42749999D01*
G36*
X136664409Y-42749999D02*
G01*
X142135592Y-42749999D01*
X142135592Y-54245497D01*
X136664409Y-54245497D01*
X136664409Y-42749999D01*
G37*
X147864409Y-43418199D02*
X153335592Y-43418199D01*
X153335592Y-54245497D01*
X147864409Y-54245497D01*
X147864409Y-43418199D01*
G36*
X147864409Y-43418199D02*
G01*
X153335592Y-43418199D01*
X153335592Y-54245497D01*
X147864409Y-54245497D01*
X147864409Y-43418199D01*
G37*
X161664409Y-43418199D02*
X167135592Y-43418199D01*
X167135592Y-54245497D01*
X161664409Y-54245497D01*
X161664409Y-43418199D01*
G36*
X161664409Y-43418199D02*
G01*
X167135592Y-43418199D01*
X167135592Y-54245497D01*
X161664409Y-54245497D01*
X161664409Y-43418199D01*
G37*
X166086351Y-61264409D02*
X177750000Y-61264409D01*
X177750000Y-73000000D01*
X166086351Y-73000000D01*
X166086351Y-61264409D01*
G36*
X166086351Y-61264409D02*
G01*
X177750000Y-61264409D01*
X177750000Y-73000000D01*
X166086351Y-73000000D01*
X166086351Y-61264409D01*
G37*
X166168176Y-78750000D02*
X177831825Y-78750000D01*
X177831825Y-87367796D01*
X166168176Y-87367796D01*
X166168176Y-78750000D01*
G36*
X166168176Y-78750000D02*
G01*
X177831825Y-78750000D01*
X177831825Y-87367796D01*
X166168176Y-87367796D01*
X166168176Y-78750000D01*
G37*
X170000000Y-40000000D02*
X180000000Y-40000000D01*
X180000000Y-50000000D01*
X170000000Y-50000000D01*
X170000000Y-40000000D01*
G36*
X170000000Y-40000000D02*
G01*
X180000000Y-40000000D01*
X180000000Y-50000000D01*
X170000000Y-50000000D01*
X170000000Y-40000000D01*
G37*
X170000000Y-90000000D02*
X180000000Y-90000000D01*
X180000000Y-100000000D01*
X170000000Y-100000000D01*
X170000000Y-90000000D01*
G36*
X170000000Y-90000000D02*
G01*
X180000000Y-90000000D01*
X180000000Y-100000000D01*
X170000000Y-100000000D01*
X170000000Y-90000000D01*
G37*
D11*
X51254819Y-55866666D02*
X51969104Y-55866666D01*
X51969104Y-55866666D02*
X52111961Y-55819047D01*
X52111961Y-55819047D02*
X52207200Y-55723809D01*
X52207200Y-55723809D02*
X52254819Y-55580952D01*
X52254819Y-55580952D02*
X52254819Y-55485714D01*
X51588152Y-56771428D02*
X52254819Y-56771428D01*
X51207200Y-56533333D02*
X51921485Y-56295238D01*
X51921485Y-56295238D02*
X51921485Y-56914285D01*
X57533333Y-51054819D02*
X57533333Y-51769104D01*
X57533333Y-51769104D02*
X57580952Y-51911961D01*
X57580952Y-51911961D02*
X57676190Y-52007200D01*
X57676190Y-52007200D02*
X57819047Y-52054819D01*
X57819047Y-52054819D02*
X57914285Y-52054819D01*
X57152380Y-51054819D02*
X56533333Y-51054819D01*
X56533333Y-51054819D02*
X56866666Y-51435771D01*
X56866666Y-51435771D02*
X56723809Y-51435771D01*
X56723809Y-51435771D02*
X56628571Y-51483390D01*
X56628571Y-51483390D02*
X56580952Y-51531009D01*
X56580952Y-51531009D02*
X56533333Y-51626247D01*
X56533333Y-51626247D02*
X56533333Y-51864342D01*
X56533333Y-51864342D02*
X56580952Y-51959580D01*
X56580952Y-51959580D02*
X56628571Y-52007200D01*
X56628571Y-52007200D02*
X56723809Y-52054819D01*
X56723809Y-52054819D02*
X57009523Y-52054819D01*
X57009523Y-52054819D02*
X57104761Y-52007200D01*
X57104761Y-52007200D02*
X57152380Y-51959580D01*
X50954819Y-69416666D02*
X51669104Y-69416666D01*
X51669104Y-69416666D02*
X51811961Y-69369047D01*
X51811961Y-69369047D02*
X51907200Y-69273809D01*
X51907200Y-69273809D02*
X51954819Y-69130952D01*
X51954819Y-69130952D02*
X51954819Y-69035714D01*
X51050057Y-69845238D02*
X51002438Y-69892857D01*
X51002438Y-69892857D02*
X50954819Y-69988095D01*
X50954819Y-69988095D02*
X50954819Y-70226190D01*
X50954819Y-70226190D02*
X51002438Y-70321428D01*
X51002438Y-70321428D02*
X51050057Y-70369047D01*
X51050057Y-70369047D02*
X51145295Y-70416666D01*
X51145295Y-70416666D02*
X51240533Y-70416666D01*
X51240533Y-70416666D02*
X51383390Y-70369047D01*
X51383390Y-70369047D02*
X51954819Y-69797619D01*
X51954819Y-69797619D02*
X51954819Y-70416666D01*
X50954819Y-83416666D02*
X51669104Y-83416666D01*
X51669104Y-83416666D02*
X51811961Y-83369047D01*
X51811961Y-83369047D02*
X51907200Y-83273809D01*
X51907200Y-83273809D02*
X51954819Y-83130952D01*
X51954819Y-83130952D02*
X51954819Y-83035714D01*
X51954819Y-84416666D02*
X51954819Y-83845238D01*
X51954819Y-84130952D02*
X50954819Y-84130952D01*
X50954819Y-84130952D02*
X51097676Y-84035714D01*
X51097676Y-84035714D02*
X51192914Y-83940476D01*
X51192914Y-83940476D02*
X51240533Y-83845238D01*
X118242857Y-88159580D02*
X118290476Y-88207200D01*
X118290476Y-88207200D02*
X118433333Y-88254819D01*
X118433333Y-88254819D02*
X118528571Y-88254819D01*
X118528571Y-88254819D02*
X118671428Y-88207200D01*
X118671428Y-88207200D02*
X118766666Y-88111961D01*
X118766666Y-88111961D02*
X118814285Y-88016723D01*
X118814285Y-88016723D02*
X118861904Y-87826247D01*
X118861904Y-87826247D02*
X118861904Y-87683390D01*
X118861904Y-87683390D02*
X118814285Y-87492914D01*
X118814285Y-87492914D02*
X118766666Y-87397676D01*
X118766666Y-87397676D02*
X118671428Y-87302438D01*
X118671428Y-87302438D02*
X118528571Y-87254819D01*
X118528571Y-87254819D02*
X118433333Y-87254819D01*
X118433333Y-87254819D02*
X118290476Y-87302438D01*
X118290476Y-87302438D02*
X118242857Y-87350057D01*
X117861904Y-87350057D02*
X117814285Y-87302438D01*
X117814285Y-87302438D02*
X117719047Y-87254819D01*
X117719047Y-87254819D02*
X117480952Y-87254819D01*
X117480952Y-87254819D02*
X117385714Y-87302438D01*
X117385714Y-87302438D02*
X117338095Y-87350057D01*
X117338095Y-87350057D02*
X117290476Y-87445295D01*
X117290476Y-87445295D02*
X117290476Y-87540533D01*
X117290476Y-87540533D02*
X117338095Y-87683390D01*
X117338095Y-87683390D02*
X117909523Y-88254819D01*
X117909523Y-88254819D02*
X117290476Y-88254819D01*
X116433333Y-87254819D02*
X116623809Y-87254819D01*
X116623809Y-87254819D02*
X116719047Y-87302438D01*
X116719047Y-87302438D02*
X116766666Y-87350057D01*
X116766666Y-87350057D02*
X116861904Y-87492914D01*
X116861904Y-87492914D02*
X116909523Y-87683390D01*
X116909523Y-87683390D02*
X116909523Y-88064342D01*
X116909523Y-88064342D02*
X116861904Y-88159580D01*
X116861904Y-88159580D02*
X116814285Y-88207200D01*
X116814285Y-88207200D02*
X116719047Y-88254819D01*
X116719047Y-88254819D02*
X116528571Y-88254819D01*
X116528571Y-88254819D02*
X116433333Y-88207200D01*
X116433333Y-88207200D02*
X116385714Y-88159580D01*
X116385714Y-88159580D02*
X116338095Y-88064342D01*
X116338095Y-88064342D02*
X116338095Y-87826247D01*
X116338095Y-87826247D02*
X116385714Y-87731009D01*
X116385714Y-87731009D02*
X116433333Y-87683390D01*
X116433333Y-87683390D02*
X116528571Y-87635771D01*
X116528571Y-87635771D02*
X116719047Y-87635771D01*
X116719047Y-87635771D02*
X116814285Y-87683390D01*
X116814285Y-87683390D02*
X116861904Y-87731009D01*
X116861904Y-87731009D02*
X116909523Y-87826247D01*
X162542857Y-84454819D02*
X162876190Y-83978628D01*
X163114285Y-84454819D02*
X163114285Y-83454819D01*
X163114285Y-83454819D02*
X162733333Y-83454819D01*
X162733333Y-83454819D02*
X162638095Y-83502438D01*
X162638095Y-83502438D02*
X162590476Y-83550057D01*
X162590476Y-83550057D02*
X162542857Y-83645295D01*
X162542857Y-83645295D02*
X162542857Y-83788152D01*
X162542857Y-83788152D02*
X162590476Y-83883390D01*
X162590476Y-83883390D02*
X162638095Y-83931009D01*
X162638095Y-83931009D02*
X162733333Y-83978628D01*
X162733333Y-83978628D02*
X163114285Y-83978628D01*
X162161904Y-83550057D02*
X162114285Y-83502438D01*
X162114285Y-83502438D02*
X162019047Y-83454819D01*
X162019047Y-83454819D02*
X161780952Y-83454819D01*
X161780952Y-83454819D02*
X161685714Y-83502438D01*
X161685714Y-83502438D02*
X161638095Y-83550057D01*
X161638095Y-83550057D02*
X161590476Y-83645295D01*
X161590476Y-83645295D02*
X161590476Y-83740533D01*
X161590476Y-83740533D02*
X161638095Y-83883390D01*
X161638095Y-83883390D02*
X162209523Y-84454819D01*
X162209523Y-84454819D02*
X161590476Y-84454819D01*
X161257142Y-83454819D02*
X160590476Y-83454819D01*
X160590476Y-83454819D02*
X161019047Y-84454819D01*
X148042857Y-95354819D02*
X148376190Y-94878628D01*
X148614285Y-95354819D02*
X148614285Y-94354819D01*
X148614285Y-94354819D02*
X148233333Y-94354819D01*
X148233333Y-94354819D02*
X148138095Y-94402438D01*
X148138095Y-94402438D02*
X148090476Y-94450057D01*
X148090476Y-94450057D02*
X148042857Y-94545295D01*
X148042857Y-94545295D02*
X148042857Y-94688152D01*
X148042857Y-94688152D02*
X148090476Y-94783390D01*
X148090476Y-94783390D02*
X148138095Y-94831009D01*
X148138095Y-94831009D02*
X148233333Y-94878628D01*
X148233333Y-94878628D02*
X148614285Y-94878628D01*
X147709523Y-94354819D02*
X147090476Y-94354819D01*
X147090476Y-94354819D02*
X147423809Y-94735771D01*
X147423809Y-94735771D02*
X147280952Y-94735771D01*
X147280952Y-94735771D02*
X147185714Y-94783390D01*
X147185714Y-94783390D02*
X147138095Y-94831009D01*
X147138095Y-94831009D02*
X147090476Y-94926247D01*
X147090476Y-94926247D02*
X147090476Y-95164342D01*
X147090476Y-95164342D02*
X147138095Y-95259580D01*
X147138095Y-95259580D02*
X147185714Y-95307200D01*
X147185714Y-95307200D02*
X147280952Y-95354819D01*
X147280952Y-95354819D02*
X147566666Y-95354819D01*
X147566666Y-95354819D02*
X147661904Y-95307200D01*
X147661904Y-95307200D02*
X147709523Y-95259580D01*
X146614285Y-95354819D02*
X146423809Y-95354819D01*
X146423809Y-95354819D02*
X146328571Y-95307200D01*
X146328571Y-95307200D02*
X146280952Y-95259580D01*
X146280952Y-95259580D02*
X146185714Y-95116723D01*
X146185714Y-95116723D02*
X146138095Y-94926247D01*
X146138095Y-94926247D02*
X146138095Y-94545295D01*
X146138095Y-94545295D02*
X146185714Y-94450057D01*
X146185714Y-94450057D02*
X146233333Y-94402438D01*
X146233333Y-94402438D02*
X146328571Y-94354819D01*
X146328571Y-94354819D02*
X146519047Y-94354819D01*
X146519047Y-94354819D02*
X146614285Y-94402438D01*
X146614285Y-94402438D02*
X146661904Y-94450057D01*
X146661904Y-94450057D02*
X146709523Y-94545295D01*
X146709523Y-94545295D02*
X146709523Y-94783390D01*
X146709523Y-94783390D02*
X146661904Y-94878628D01*
X146661904Y-94878628D02*
X146614285Y-94926247D01*
X146614285Y-94926247D02*
X146519047Y-94973866D01*
X146519047Y-94973866D02*
X146328571Y-94973866D01*
X146328571Y-94973866D02*
X146233333Y-94926247D01*
X146233333Y-94926247D02*
X146185714Y-94878628D01*
X146185714Y-94878628D02*
X146138095Y-94783390D01*
X146042857Y-88359580D02*
X146090476Y-88407200D01*
X146090476Y-88407200D02*
X146233333Y-88454819D01*
X146233333Y-88454819D02*
X146328571Y-88454819D01*
X146328571Y-88454819D02*
X146471428Y-88407200D01*
X146471428Y-88407200D02*
X146566666Y-88311961D01*
X146566666Y-88311961D02*
X146614285Y-88216723D01*
X146614285Y-88216723D02*
X146661904Y-88026247D01*
X146661904Y-88026247D02*
X146661904Y-87883390D01*
X146661904Y-87883390D02*
X146614285Y-87692914D01*
X146614285Y-87692914D02*
X146566666Y-87597676D01*
X146566666Y-87597676D02*
X146471428Y-87502438D01*
X146471428Y-87502438D02*
X146328571Y-87454819D01*
X146328571Y-87454819D02*
X146233333Y-87454819D01*
X146233333Y-87454819D02*
X146090476Y-87502438D01*
X146090476Y-87502438D02*
X146042857Y-87550057D01*
X145709523Y-87454819D02*
X145090476Y-87454819D01*
X145090476Y-87454819D02*
X145423809Y-87835771D01*
X145423809Y-87835771D02*
X145280952Y-87835771D01*
X145280952Y-87835771D02*
X145185714Y-87883390D01*
X145185714Y-87883390D02*
X145138095Y-87931009D01*
X145138095Y-87931009D02*
X145090476Y-88026247D01*
X145090476Y-88026247D02*
X145090476Y-88264342D01*
X145090476Y-88264342D02*
X145138095Y-88359580D01*
X145138095Y-88359580D02*
X145185714Y-88407200D01*
X145185714Y-88407200D02*
X145280952Y-88454819D01*
X145280952Y-88454819D02*
X145566666Y-88454819D01*
X145566666Y-88454819D02*
X145661904Y-88407200D01*
X145661904Y-88407200D02*
X145709523Y-88359580D01*
X144471428Y-87454819D02*
X144376190Y-87454819D01*
X144376190Y-87454819D02*
X144280952Y-87502438D01*
X144280952Y-87502438D02*
X144233333Y-87550057D01*
X144233333Y-87550057D02*
X144185714Y-87645295D01*
X144185714Y-87645295D02*
X144138095Y-87835771D01*
X144138095Y-87835771D02*
X144138095Y-88073866D01*
X144138095Y-88073866D02*
X144185714Y-88264342D01*
X144185714Y-88264342D02*
X144233333Y-88359580D01*
X144233333Y-88359580D02*
X144280952Y-88407200D01*
X144280952Y-88407200D02*
X144376190Y-88454819D01*
X144376190Y-88454819D02*
X144471428Y-88454819D01*
X144471428Y-88454819D02*
X144566666Y-88407200D01*
X144566666Y-88407200D02*
X144614285Y-88359580D01*
X144614285Y-88359580D02*
X144661904Y-88264342D01*
X144661904Y-88264342D02*
X144709523Y-88073866D01*
X144709523Y-88073866D02*
X144709523Y-87835771D01*
X144709523Y-87835771D02*
X144661904Y-87645295D01*
X144661904Y-87645295D02*
X144614285Y-87550057D01*
X144614285Y-87550057D02*
X144566666Y-87502438D01*
X144566666Y-87502438D02*
X144471428Y-87454819D01*
X141652857Y-99346069D02*
X141986190Y-98869878D01*
X142224285Y-99346069D02*
X142224285Y-98346069D01*
X142224285Y-98346069D02*
X141843333Y-98346069D01*
X141843333Y-98346069D02*
X141748095Y-98393688D01*
X141748095Y-98393688D02*
X141700476Y-98441307D01*
X141700476Y-98441307D02*
X141652857Y-98536545D01*
X141652857Y-98536545D02*
X141652857Y-98679402D01*
X141652857Y-98679402D02*
X141700476Y-98774640D01*
X141700476Y-98774640D02*
X141748095Y-98822259D01*
X141748095Y-98822259D02*
X141843333Y-98869878D01*
X141843333Y-98869878D02*
X142224285Y-98869878D01*
X141319523Y-98346069D02*
X140700476Y-98346069D01*
X140700476Y-98346069D02*
X141033809Y-98727021D01*
X141033809Y-98727021D02*
X140890952Y-98727021D01*
X140890952Y-98727021D02*
X140795714Y-98774640D01*
X140795714Y-98774640D02*
X140748095Y-98822259D01*
X140748095Y-98822259D02*
X140700476Y-98917497D01*
X140700476Y-98917497D02*
X140700476Y-99155592D01*
X140700476Y-99155592D02*
X140748095Y-99250830D01*
X140748095Y-99250830D02*
X140795714Y-99298450D01*
X140795714Y-99298450D02*
X140890952Y-99346069D01*
X140890952Y-99346069D02*
X141176666Y-99346069D01*
X141176666Y-99346069D02*
X141271904Y-99298450D01*
X141271904Y-99298450D02*
X141319523Y-99250830D01*
X140319523Y-98441307D02*
X140271904Y-98393688D01*
X140271904Y-98393688D02*
X140176666Y-98346069D01*
X140176666Y-98346069D02*
X139938571Y-98346069D01*
X139938571Y-98346069D02*
X139843333Y-98393688D01*
X139843333Y-98393688D02*
X139795714Y-98441307D01*
X139795714Y-98441307D02*
X139748095Y-98536545D01*
X139748095Y-98536545D02*
X139748095Y-98631783D01*
X139748095Y-98631783D02*
X139795714Y-98774640D01*
X139795714Y-98774640D02*
X140367142Y-99346069D01*
X140367142Y-99346069D02*
X139748095Y-99346069D01*
X145961904Y-40454819D02*
X145961904Y-41264342D01*
X145961904Y-41264342D02*
X145914285Y-41359580D01*
X145914285Y-41359580D02*
X145866666Y-41407200D01*
X145866666Y-41407200D02*
X145771428Y-41454819D01*
X145771428Y-41454819D02*
X145580952Y-41454819D01*
X145580952Y-41454819D02*
X145485714Y-41407200D01*
X145485714Y-41407200D02*
X145438095Y-41359580D01*
X145438095Y-41359580D02*
X145390476Y-41264342D01*
X145390476Y-41264342D02*
X145390476Y-40454819D01*
X144866666Y-41454819D02*
X144676190Y-41454819D01*
X144676190Y-41454819D02*
X144580952Y-41407200D01*
X144580952Y-41407200D02*
X144533333Y-41359580D01*
X144533333Y-41359580D02*
X144438095Y-41216723D01*
X144438095Y-41216723D02*
X144390476Y-41026247D01*
X144390476Y-41026247D02*
X144390476Y-40645295D01*
X144390476Y-40645295D02*
X144438095Y-40550057D01*
X144438095Y-40550057D02*
X144485714Y-40502438D01*
X144485714Y-40502438D02*
X144580952Y-40454819D01*
X144580952Y-40454819D02*
X144771428Y-40454819D01*
X144771428Y-40454819D02*
X144866666Y-40502438D01*
X144866666Y-40502438D02*
X144914285Y-40550057D01*
X144914285Y-40550057D02*
X144961904Y-40645295D01*
X144961904Y-40645295D02*
X144961904Y-40883390D01*
X144961904Y-40883390D02*
X144914285Y-40978628D01*
X144914285Y-40978628D02*
X144866666Y-41026247D01*
X144866666Y-41026247D02*
X144771428Y-41073866D01*
X144771428Y-41073866D02*
X144580952Y-41073866D01*
X144580952Y-41073866D02*
X144485714Y-41026247D01*
X144485714Y-41026247D02*
X144438095Y-40978628D01*
X144438095Y-40978628D02*
X144390476Y-40883390D01*
X133142857Y-85759580D02*
X133190476Y-85807200D01*
X133190476Y-85807200D02*
X133333333Y-85854819D01*
X133333333Y-85854819D02*
X133428571Y-85854819D01*
X133428571Y-85854819D02*
X133571428Y-85807200D01*
X133571428Y-85807200D02*
X133666666Y-85711961D01*
X133666666Y-85711961D02*
X133714285Y-85616723D01*
X133714285Y-85616723D02*
X133761904Y-85426247D01*
X133761904Y-85426247D02*
X133761904Y-85283390D01*
X133761904Y-85283390D02*
X133714285Y-85092914D01*
X133714285Y-85092914D02*
X133666666Y-84997676D01*
X133666666Y-84997676D02*
X133571428Y-84902438D01*
X133571428Y-84902438D02*
X133428571Y-84854819D01*
X133428571Y-84854819D02*
X133333333Y-84854819D01*
X133333333Y-84854819D02*
X133190476Y-84902438D01*
X133190476Y-84902438D02*
X133142857Y-84950057D01*
X132809523Y-84854819D02*
X132190476Y-84854819D01*
X132190476Y-84854819D02*
X132523809Y-85235771D01*
X132523809Y-85235771D02*
X132380952Y-85235771D01*
X132380952Y-85235771D02*
X132285714Y-85283390D01*
X132285714Y-85283390D02*
X132238095Y-85331009D01*
X132238095Y-85331009D02*
X132190476Y-85426247D01*
X132190476Y-85426247D02*
X132190476Y-85664342D01*
X132190476Y-85664342D02*
X132238095Y-85759580D01*
X132238095Y-85759580D02*
X132285714Y-85807200D01*
X132285714Y-85807200D02*
X132380952Y-85854819D01*
X132380952Y-85854819D02*
X132666666Y-85854819D01*
X132666666Y-85854819D02*
X132761904Y-85807200D01*
X132761904Y-85807200D02*
X132809523Y-85759580D01*
X131809523Y-84950057D02*
X131761904Y-84902438D01*
X131761904Y-84902438D02*
X131666666Y-84854819D01*
X131666666Y-84854819D02*
X131428571Y-84854819D01*
X131428571Y-84854819D02*
X131333333Y-84902438D01*
X131333333Y-84902438D02*
X131285714Y-84950057D01*
X131285714Y-84950057D02*
X131238095Y-85045295D01*
X131238095Y-85045295D02*
X131238095Y-85140533D01*
X131238095Y-85140533D02*
X131285714Y-85283390D01*
X131285714Y-85283390D02*
X131857142Y-85854819D01*
X131857142Y-85854819D02*
X131238095Y-85854819D01*
X137338094Y-56854819D02*
X137338094Y-55854819D01*
X137338094Y-55854819D02*
X137099999Y-55854819D01*
X137099999Y-55854819D02*
X136957142Y-55902438D01*
X136957142Y-55902438D02*
X136861904Y-55997676D01*
X136861904Y-55997676D02*
X136814285Y-56092914D01*
X136814285Y-56092914D02*
X136766666Y-56283390D01*
X136766666Y-56283390D02*
X136766666Y-56426247D01*
X136766666Y-56426247D02*
X136814285Y-56616723D01*
X136814285Y-56616723D02*
X136861904Y-56711961D01*
X136861904Y-56711961D02*
X136957142Y-56807200D01*
X136957142Y-56807200D02*
X137099999Y-56854819D01*
X137099999Y-56854819D02*
X137338094Y-56854819D01*
X136195237Y-56283390D02*
X136290475Y-56235771D01*
X136290475Y-56235771D02*
X136338094Y-56188152D01*
X136338094Y-56188152D02*
X136385713Y-56092914D01*
X136385713Y-56092914D02*
X136385713Y-56045295D01*
X136385713Y-56045295D02*
X136338094Y-55950057D01*
X136338094Y-55950057D02*
X136290475Y-55902438D01*
X136290475Y-55902438D02*
X136195237Y-55854819D01*
X136195237Y-55854819D02*
X136004761Y-55854819D01*
X136004761Y-55854819D02*
X135909523Y-55902438D01*
X135909523Y-55902438D02*
X135861904Y-55950057D01*
X135861904Y-55950057D02*
X135814285Y-56045295D01*
X135814285Y-56045295D02*
X135814285Y-56092914D01*
X135814285Y-56092914D02*
X135861904Y-56188152D01*
X135861904Y-56188152D02*
X135909523Y-56235771D01*
X135909523Y-56235771D02*
X136004761Y-56283390D01*
X136004761Y-56283390D02*
X136195237Y-56283390D01*
X136195237Y-56283390D02*
X136290475Y-56331009D01*
X136290475Y-56331009D02*
X136338094Y-56378628D01*
X136338094Y-56378628D02*
X136385713Y-56473866D01*
X136385713Y-56473866D02*
X136385713Y-56664342D01*
X136385713Y-56664342D02*
X136338094Y-56759580D01*
X136338094Y-56759580D02*
X136290475Y-56807200D01*
X136290475Y-56807200D02*
X136195237Y-56854819D01*
X136195237Y-56854819D02*
X136004761Y-56854819D01*
X136004761Y-56854819D02*
X135909523Y-56807200D01*
X135909523Y-56807200D02*
X135861904Y-56759580D01*
X135861904Y-56759580D02*
X135814285Y-56664342D01*
X135814285Y-56664342D02*
X135814285Y-56473866D01*
X135814285Y-56473866D02*
X135861904Y-56378628D01*
X135861904Y-56378628D02*
X135909523Y-56331009D01*
X135909523Y-56331009D02*
X136004761Y-56283390D01*
X138954819Y-71257142D02*
X138478628Y-70923809D01*
X138954819Y-70685714D02*
X137954819Y-70685714D01*
X137954819Y-70685714D02*
X137954819Y-71066666D01*
X137954819Y-71066666D02*
X138002438Y-71161904D01*
X138002438Y-71161904D02*
X138050057Y-71209523D01*
X138050057Y-71209523D02*
X138145295Y-71257142D01*
X138145295Y-71257142D02*
X138288152Y-71257142D01*
X138288152Y-71257142D02*
X138383390Y-71209523D01*
X138383390Y-71209523D02*
X138431009Y-71161904D01*
X138431009Y-71161904D02*
X138478628Y-71066666D01*
X138478628Y-71066666D02*
X138478628Y-70685714D01*
X137954819Y-72114285D02*
X137954819Y-71923809D01*
X137954819Y-71923809D02*
X138002438Y-71828571D01*
X138002438Y-71828571D02*
X138050057Y-71780952D01*
X138050057Y-71780952D02*
X138192914Y-71685714D01*
X138192914Y-71685714D02*
X138383390Y-71638095D01*
X138383390Y-71638095D02*
X138764342Y-71638095D01*
X138764342Y-71638095D02*
X138859580Y-71685714D01*
X138859580Y-71685714D02*
X138907200Y-71733333D01*
X138907200Y-71733333D02*
X138954819Y-71828571D01*
X138954819Y-71828571D02*
X138954819Y-72019047D01*
X138954819Y-72019047D02*
X138907200Y-72114285D01*
X138907200Y-72114285D02*
X138859580Y-72161904D01*
X138859580Y-72161904D02*
X138764342Y-72209523D01*
X138764342Y-72209523D02*
X138526247Y-72209523D01*
X138526247Y-72209523D02*
X138431009Y-72161904D01*
X138431009Y-72161904D02*
X138383390Y-72114285D01*
X138383390Y-72114285D02*
X138335771Y-72019047D01*
X138335771Y-72019047D02*
X138335771Y-71828571D01*
X138335771Y-71828571D02*
X138383390Y-71733333D01*
X138383390Y-71733333D02*
X138431009Y-71685714D01*
X138431009Y-71685714D02*
X138526247Y-71638095D01*
X137954819Y-72542857D02*
X137954819Y-73209523D01*
X137954819Y-73209523D02*
X138954819Y-72780952D01*
X135342857Y-88359580D02*
X135390476Y-88407200D01*
X135390476Y-88407200D02*
X135533333Y-88454819D01*
X135533333Y-88454819D02*
X135628571Y-88454819D01*
X135628571Y-88454819D02*
X135771428Y-88407200D01*
X135771428Y-88407200D02*
X135866666Y-88311961D01*
X135866666Y-88311961D02*
X135914285Y-88216723D01*
X135914285Y-88216723D02*
X135961904Y-88026247D01*
X135961904Y-88026247D02*
X135961904Y-87883390D01*
X135961904Y-87883390D02*
X135914285Y-87692914D01*
X135914285Y-87692914D02*
X135866666Y-87597676D01*
X135866666Y-87597676D02*
X135771428Y-87502438D01*
X135771428Y-87502438D02*
X135628571Y-87454819D01*
X135628571Y-87454819D02*
X135533333Y-87454819D01*
X135533333Y-87454819D02*
X135390476Y-87502438D01*
X135390476Y-87502438D02*
X135342857Y-87550057D01*
X134961904Y-87550057D02*
X134914285Y-87502438D01*
X134914285Y-87502438D02*
X134819047Y-87454819D01*
X134819047Y-87454819D02*
X134580952Y-87454819D01*
X134580952Y-87454819D02*
X134485714Y-87502438D01*
X134485714Y-87502438D02*
X134438095Y-87550057D01*
X134438095Y-87550057D02*
X134390476Y-87645295D01*
X134390476Y-87645295D02*
X134390476Y-87740533D01*
X134390476Y-87740533D02*
X134438095Y-87883390D01*
X134438095Y-87883390D02*
X135009523Y-88454819D01*
X135009523Y-88454819D02*
X134390476Y-88454819D01*
X133914285Y-88454819D02*
X133723809Y-88454819D01*
X133723809Y-88454819D02*
X133628571Y-88407200D01*
X133628571Y-88407200D02*
X133580952Y-88359580D01*
X133580952Y-88359580D02*
X133485714Y-88216723D01*
X133485714Y-88216723D02*
X133438095Y-88026247D01*
X133438095Y-88026247D02*
X133438095Y-87645295D01*
X133438095Y-87645295D02*
X133485714Y-87550057D01*
X133485714Y-87550057D02*
X133533333Y-87502438D01*
X133533333Y-87502438D02*
X133628571Y-87454819D01*
X133628571Y-87454819D02*
X133819047Y-87454819D01*
X133819047Y-87454819D02*
X133914285Y-87502438D01*
X133914285Y-87502438D02*
X133961904Y-87550057D01*
X133961904Y-87550057D02*
X134009523Y-87645295D01*
X134009523Y-87645295D02*
X134009523Y-87883390D01*
X134009523Y-87883390D02*
X133961904Y-87978628D01*
X133961904Y-87978628D02*
X133914285Y-88026247D01*
X133914285Y-88026247D02*
X133819047Y-88073866D01*
X133819047Y-88073866D02*
X133628571Y-88073866D01*
X133628571Y-88073866D02*
X133533333Y-88026247D01*
X133533333Y-88026247D02*
X133485714Y-87978628D01*
X133485714Y-87978628D02*
X133438095Y-87883390D01*
X150112319Y-71057142D02*
X149636128Y-70723809D01*
X150112319Y-70485714D02*
X149112319Y-70485714D01*
X149112319Y-70485714D02*
X149112319Y-70866666D01*
X149112319Y-70866666D02*
X149159938Y-70961904D01*
X149159938Y-70961904D02*
X149207557Y-71009523D01*
X149207557Y-71009523D02*
X149302795Y-71057142D01*
X149302795Y-71057142D02*
X149445652Y-71057142D01*
X149445652Y-71057142D02*
X149540890Y-71009523D01*
X149540890Y-71009523D02*
X149588509Y-70961904D01*
X149588509Y-70961904D02*
X149636128Y-70866666D01*
X149636128Y-70866666D02*
X149636128Y-70485714D01*
X149112319Y-71914285D02*
X149112319Y-71723809D01*
X149112319Y-71723809D02*
X149159938Y-71628571D01*
X149159938Y-71628571D02*
X149207557Y-71580952D01*
X149207557Y-71580952D02*
X149350414Y-71485714D01*
X149350414Y-71485714D02*
X149540890Y-71438095D01*
X149540890Y-71438095D02*
X149921842Y-71438095D01*
X149921842Y-71438095D02*
X150017080Y-71485714D01*
X150017080Y-71485714D02*
X150064700Y-71533333D01*
X150064700Y-71533333D02*
X150112319Y-71628571D01*
X150112319Y-71628571D02*
X150112319Y-71819047D01*
X150112319Y-71819047D02*
X150064700Y-71914285D01*
X150064700Y-71914285D02*
X150017080Y-71961904D01*
X150017080Y-71961904D02*
X149921842Y-72009523D01*
X149921842Y-72009523D02*
X149683747Y-72009523D01*
X149683747Y-72009523D02*
X149588509Y-71961904D01*
X149588509Y-71961904D02*
X149540890Y-71914285D01*
X149540890Y-71914285D02*
X149493271Y-71819047D01*
X149493271Y-71819047D02*
X149493271Y-71628571D01*
X149493271Y-71628571D02*
X149540890Y-71533333D01*
X149540890Y-71533333D02*
X149588509Y-71485714D01*
X149588509Y-71485714D02*
X149683747Y-71438095D01*
X149112319Y-72628571D02*
X149112319Y-72723809D01*
X149112319Y-72723809D02*
X149159938Y-72819047D01*
X149159938Y-72819047D02*
X149207557Y-72866666D01*
X149207557Y-72866666D02*
X149302795Y-72914285D01*
X149302795Y-72914285D02*
X149493271Y-72961904D01*
X149493271Y-72961904D02*
X149731366Y-72961904D01*
X149731366Y-72961904D02*
X149921842Y-72914285D01*
X149921842Y-72914285D02*
X150017080Y-72866666D01*
X150017080Y-72866666D02*
X150064700Y-72819047D01*
X150064700Y-72819047D02*
X150112319Y-72723809D01*
X150112319Y-72723809D02*
X150112319Y-72628571D01*
X150112319Y-72628571D02*
X150064700Y-72533333D01*
X150064700Y-72533333D02*
X150017080Y-72485714D01*
X150017080Y-72485714D02*
X149921842Y-72438095D01*
X149921842Y-72438095D02*
X149731366Y-72390476D01*
X149731366Y-72390476D02*
X149493271Y-72390476D01*
X149493271Y-72390476D02*
X149302795Y-72438095D01*
X149302795Y-72438095D02*
X149207557Y-72485714D01*
X149207557Y-72485714D02*
X149159938Y-72533333D01*
X149159938Y-72533333D02*
X149112319Y-72628571D01*
X151795238Y-97550057D02*
X151890476Y-97502438D01*
X151890476Y-97502438D02*
X151985714Y-97407200D01*
X151985714Y-97407200D02*
X152128571Y-97264342D01*
X152128571Y-97264342D02*
X152223809Y-97216723D01*
X152223809Y-97216723D02*
X152319047Y-97216723D01*
X152271428Y-97454819D02*
X152366666Y-97407200D01*
X152366666Y-97407200D02*
X152461904Y-97311961D01*
X152461904Y-97311961D02*
X152509523Y-97121485D01*
X152509523Y-97121485D02*
X152509523Y-96788152D01*
X152509523Y-96788152D02*
X152461904Y-96597676D01*
X152461904Y-96597676D02*
X152366666Y-96502438D01*
X152366666Y-96502438D02*
X152271428Y-96454819D01*
X152271428Y-96454819D02*
X152080952Y-96454819D01*
X152080952Y-96454819D02*
X151985714Y-96502438D01*
X151985714Y-96502438D02*
X151890476Y-96597676D01*
X151890476Y-96597676D02*
X151842857Y-96788152D01*
X151842857Y-96788152D02*
X151842857Y-97121485D01*
X151842857Y-97121485D02*
X151890476Y-97311961D01*
X151890476Y-97311961D02*
X151985714Y-97407200D01*
X151985714Y-97407200D02*
X152080952Y-97454819D01*
X152080952Y-97454819D02*
X152271428Y-97454819D01*
X150938095Y-96454819D02*
X151414285Y-96454819D01*
X151414285Y-96454819D02*
X151461904Y-96931009D01*
X151461904Y-96931009D02*
X151414285Y-96883390D01*
X151414285Y-96883390D02*
X151319047Y-96835771D01*
X151319047Y-96835771D02*
X151080952Y-96835771D01*
X151080952Y-96835771D02*
X150985714Y-96883390D01*
X150985714Y-96883390D02*
X150938095Y-96931009D01*
X150938095Y-96931009D02*
X150890476Y-97026247D01*
X150890476Y-97026247D02*
X150890476Y-97264342D01*
X150890476Y-97264342D02*
X150938095Y-97359580D01*
X150938095Y-97359580D02*
X150985714Y-97407200D01*
X150985714Y-97407200D02*
X151080952Y-97454819D01*
X151080952Y-97454819D02*
X151319047Y-97454819D01*
X151319047Y-97454819D02*
X151414285Y-97407200D01*
X151414285Y-97407200D02*
X151461904Y-97359580D01*
X131295238Y-97550057D02*
X131390476Y-97502438D01*
X131390476Y-97502438D02*
X131485714Y-97407200D01*
X131485714Y-97407200D02*
X131628571Y-97264342D01*
X131628571Y-97264342D02*
X131723809Y-97216723D01*
X131723809Y-97216723D02*
X131819047Y-97216723D01*
X131771428Y-97454819D02*
X131866666Y-97407200D01*
X131866666Y-97407200D02*
X131961904Y-97311961D01*
X131961904Y-97311961D02*
X132009523Y-97121485D01*
X132009523Y-97121485D02*
X132009523Y-96788152D01*
X132009523Y-96788152D02*
X131961904Y-96597676D01*
X131961904Y-96597676D02*
X131866666Y-96502438D01*
X131866666Y-96502438D02*
X131771428Y-96454819D01*
X131771428Y-96454819D02*
X131580952Y-96454819D01*
X131580952Y-96454819D02*
X131485714Y-96502438D01*
X131485714Y-96502438D02*
X131390476Y-96597676D01*
X131390476Y-96597676D02*
X131342857Y-96788152D01*
X131342857Y-96788152D02*
X131342857Y-97121485D01*
X131342857Y-97121485D02*
X131390476Y-97311961D01*
X131390476Y-97311961D02*
X131485714Y-97407200D01*
X131485714Y-97407200D02*
X131580952Y-97454819D01*
X131580952Y-97454819D02*
X131771428Y-97454819D01*
X130390476Y-97454819D02*
X130961904Y-97454819D01*
X130676190Y-97454819D02*
X130676190Y-96454819D01*
X130676190Y-96454819D02*
X130771428Y-96597676D01*
X130771428Y-96597676D02*
X130866666Y-96692914D01*
X130866666Y-96692914D02*
X130961904Y-96740533D01*
X128742857Y-75954819D02*
X129076190Y-75478628D01*
X129314285Y-75954819D02*
X129314285Y-74954819D01*
X129314285Y-74954819D02*
X128933333Y-74954819D01*
X128933333Y-74954819D02*
X128838095Y-75002438D01*
X128838095Y-75002438D02*
X128790476Y-75050057D01*
X128790476Y-75050057D02*
X128742857Y-75145295D01*
X128742857Y-75145295D02*
X128742857Y-75288152D01*
X128742857Y-75288152D02*
X128790476Y-75383390D01*
X128790476Y-75383390D02*
X128838095Y-75431009D01*
X128838095Y-75431009D02*
X128933333Y-75478628D01*
X128933333Y-75478628D02*
X129314285Y-75478628D01*
X127885714Y-75288152D02*
X127885714Y-75954819D01*
X128123809Y-74907200D02*
X128361904Y-75621485D01*
X128361904Y-75621485D02*
X127742857Y-75621485D01*
X127219047Y-75383390D02*
X127314285Y-75335771D01*
X127314285Y-75335771D02*
X127361904Y-75288152D01*
X127361904Y-75288152D02*
X127409523Y-75192914D01*
X127409523Y-75192914D02*
X127409523Y-75145295D01*
X127409523Y-75145295D02*
X127361904Y-75050057D01*
X127361904Y-75050057D02*
X127314285Y-75002438D01*
X127314285Y-75002438D02*
X127219047Y-74954819D01*
X127219047Y-74954819D02*
X127028571Y-74954819D01*
X127028571Y-74954819D02*
X126933333Y-75002438D01*
X126933333Y-75002438D02*
X126885714Y-75050057D01*
X126885714Y-75050057D02*
X126838095Y-75145295D01*
X126838095Y-75145295D02*
X126838095Y-75192914D01*
X126838095Y-75192914D02*
X126885714Y-75288152D01*
X126885714Y-75288152D02*
X126933333Y-75335771D01*
X126933333Y-75335771D02*
X127028571Y-75383390D01*
X127028571Y-75383390D02*
X127219047Y-75383390D01*
X127219047Y-75383390D02*
X127314285Y-75431009D01*
X127314285Y-75431009D02*
X127361904Y-75478628D01*
X127361904Y-75478628D02*
X127409523Y-75573866D01*
X127409523Y-75573866D02*
X127409523Y-75764342D01*
X127409523Y-75764342D02*
X127361904Y-75859580D01*
X127361904Y-75859580D02*
X127314285Y-75907200D01*
X127314285Y-75907200D02*
X127219047Y-75954819D01*
X127219047Y-75954819D02*
X127028571Y-75954819D01*
X127028571Y-75954819D02*
X126933333Y-75907200D01*
X126933333Y-75907200D02*
X126885714Y-75859580D01*
X126885714Y-75859580D02*
X126838095Y-75764342D01*
X126838095Y-75764342D02*
X126838095Y-75573866D01*
X126838095Y-75573866D02*
X126885714Y-75478628D01*
X126885714Y-75478628D02*
X126933333Y-75431009D01*
X126933333Y-75431009D02*
X127028571Y-75383390D01*
X156342857Y-54554819D02*
X156676190Y-54078628D01*
X156914285Y-54554819D02*
X156914285Y-53554819D01*
X156914285Y-53554819D02*
X156533333Y-53554819D01*
X156533333Y-53554819D02*
X156438095Y-53602438D01*
X156438095Y-53602438D02*
X156390476Y-53650057D01*
X156390476Y-53650057D02*
X156342857Y-53745295D01*
X156342857Y-53745295D02*
X156342857Y-53888152D01*
X156342857Y-53888152D02*
X156390476Y-53983390D01*
X156390476Y-53983390D02*
X156438095Y-54031009D01*
X156438095Y-54031009D02*
X156533333Y-54078628D01*
X156533333Y-54078628D02*
X156914285Y-54078628D01*
X155961904Y-53650057D02*
X155914285Y-53602438D01*
X155914285Y-53602438D02*
X155819047Y-53554819D01*
X155819047Y-53554819D02*
X155580952Y-53554819D01*
X155580952Y-53554819D02*
X155485714Y-53602438D01*
X155485714Y-53602438D02*
X155438095Y-53650057D01*
X155438095Y-53650057D02*
X155390476Y-53745295D01*
X155390476Y-53745295D02*
X155390476Y-53840533D01*
X155390476Y-53840533D02*
X155438095Y-53983390D01*
X155438095Y-53983390D02*
X156009523Y-54554819D01*
X156009523Y-54554819D02*
X155390476Y-54554819D01*
X154438095Y-54554819D02*
X155009523Y-54554819D01*
X154723809Y-54554819D02*
X154723809Y-53554819D01*
X154723809Y-53554819D02*
X154819047Y-53697676D01*
X154819047Y-53697676D02*
X154914285Y-53792914D01*
X154914285Y-53792914D02*
X155009523Y-53840533D01*
X127895357Y-95257319D02*
X128228690Y-94781128D01*
X128466785Y-95257319D02*
X128466785Y-94257319D01*
X128466785Y-94257319D02*
X128085833Y-94257319D01*
X128085833Y-94257319D02*
X127990595Y-94304938D01*
X127990595Y-94304938D02*
X127942976Y-94352557D01*
X127942976Y-94352557D02*
X127895357Y-94447795D01*
X127895357Y-94447795D02*
X127895357Y-94590652D01*
X127895357Y-94590652D02*
X127942976Y-94685890D01*
X127942976Y-94685890D02*
X127990595Y-94733509D01*
X127990595Y-94733509D02*
X128085833Y-94781128D01*
X128085833Y-94781128D02*
X128466785Y-94781128D01*
X127562023Y-94257319D02*
X126942976Y-94257319D01*
X126942976Y-94257319D02*
X127276309Y-94638271D01*
X127276309Y-94638271D02*
X127133452Y-94638271D01*
X127133452Y-94638271D02*
X127038214Y-94685890D01*
X127038214Y-94685890D02*
X126990595Y-94733509D01*
X126990595Y-94733509D02*
X126942976Y-94828747D01*
X126942976Y-94828747D02*
X126942976Y-95066842D01*
X126942976Y-95066842D02*
X126990595Y-95162080D01*
X126990595Y-95162080D02*
X127038214Y-95209700D01*
X127038214Y-95209700D02*
X127133452Y-95257319D01*
X127133452Y-95257319D02*
X127419166Y-95257319D01*
X127419166Y-95257319D02*
X127514404Y-95209700D01*
X127514404Y-95209700D02*
X127562023Y-95162080D01*
X125990595Y-95257319D02*
X126562023Y-95257319D01*
X126276309Y-95257319D02*
X126276309Y-94257319D01*
X126276309Y-94257319D02*
X126371547Y-94400176D01*
X126371547Y-94400176D02*
X126466785Y-94495414D01*
X126466785Y-94495414D02*
X126562023Y-94543033D01*
X138342857Y-91754819D02*
X138676190Y-91278628D01*
X138914285Y-91754819D02*
X138914285Y-90754819D01*
X138914285Y-90754819D02*
X138533333Y-90754819D01*
X138533333Y-90754819D02*
X138438095Y-90802438D01*
X138438095Y-90802438D02*
X138390476Y-90850057D01*
X138390476Y-90850057D02*
X138342857Y-90945295D01*
X138342857Y-90945295D02*
X138342857Y-91088152D01*
X138342857Y-91088152D02*
X138390476Y-91183390D01*
X138390476Y-91183390D02*
X138438095Y-91231009D01*
X138438095Y-91231009D02*
X138533333Y-91278628D01*
X138533333Y-91278628D02*
X138914285Y-91278628D01*
X138009523Y-90754819D02*
X137390476Y-90754819D01*
X137390476Y-90754819D02*
X137723809Y-91135771D01*
X137723809Y-91135771D02*
X137580952Y-91135771D01*
X137580952Y-91135771D02*
X137485714Y-91183390D01*
X137485714Y-91183390D02*
X137438095Y-91231009D01*
X137438095Y-91231009D02*
X137390476Y-91326247D01*
X137390476Y-91326247D02*
X137390476Y-91564342D01*
X137390476Y-91564342D02*
X137438095Y-91659580D01*
X137438095Y-91659580D02*
X137485714Y-91707200D01*
X137485714Y-91707200D02*
X137580952Y-91754819D01*
X137580952Y-91754819D02*
X137866666Y-91754819D01*
X137866666Y-91754819D02*
X137961904Y-91707200D01*
X137961904Y-91707200D02*
X138009523Y-91659580D01*
X136533333Y-91088152D02*
X136533333Y-91754819D01*
X136771428Y-90707200D02*
X137009523Y-91421485D01*
X137009523Y-91421485D02*
X136390476Y-91421485D01*
X140267857Y-62629819D02*
X140601190Y-62153628D01*
X140839285Y-62629819D02*
X140839285Y-61629819D01*
X140839285Y-61629819D02*
X140458333Y-61629819D01*
X140458333Y-61629819D02*
X140363095Y-61677438D01*
X140363095Y-61677438D02*
X140315476Y-61725057D01*
X140315476Y-61725057D02*
X140267857Y-61820295D01*
X140267857Y-61820295D02*
X140267857Y-61963152D01*
X140267857Y-61963152D02*
X140315476Y-62058390D01*
X140315476Y-62058390D02*
X140363095Y-62106009D01*
X140363095Y-62106009D02*
X140458333Y-62153628D01*
X140458333Y-62153628D02*
X140839285Y-62153628D01*
X139363095Y-61629819D02*
X139839285Y-61629819D01*
X139839285Y-61629819D02*
X139886904Y-62106009D01*
X139886904Y-62106009D02*
X139839285Y-62058390D01*
X139839285Y-62058390D02*
X139744047Y-62010771D01*
X139744047Y-62010771D02*
X139505952Y-62010771D01*
X139505952Y-62010771D02*
X139410714Y-62058390D01*
X139410714Y-62058390D02*
X139363095Y-62106009D01*
X139363095Y-62106009D02*
X139315476Y-62201247D01*
X139315476Y-62201247D02*
X139315476Y-62439342D01*
X139315476Y-62439342D02*
X139363095Y-62534580D01*
X139363095Y-62534580D02*
X139410714Y-62582200D01*
X139410714Y-62582200D02*
X139505952Y-62629819D01*
X139505952Y-62629819D02*
X139744047Y-62629819D01*
X139744047Y-62629819D02*
X139839285Y-62582200D01*
X139839285Y-62582200D02*
X139886904Y-62534580D01*
X138839285Y-62629819D02*
X138648809Y-62629819D01*
X138648809Y-62629819D02*
X138553571Y-62582200D01*
X138553571Y-62582200D02*
X138505952Y-62534580D01*
X138505952Y-62534580D02*
X138410714Y-62391723D01*
X138410714Y-62391723D02*
X138363095Y-62201247D01*
X138363095Y-62201247D02*
X138363095Y-61820295D01*
X138363095Y-61820295D02*
X138410714Y-61725057D01*
X138410714Y-61725057D02*
X138458333Y-61677438D01*
X138458333Y-61677438D02*
X138553571Y-61629819D01*
X138553571Y-61629819D02*
X138744047Y-61629819D01*
X138744047Y-61629819D02*
X138839285Y-61677438D01*
X138839285Y-61677438D02*
X138886904Y-61725057D01*
X138886904Y-61725057D02*
X138934523Y-61820295D01*
X138934523Y-61820295D02*
X138934523Y-62058390D01*
X138934523Y-62058390D02*
X138886904Y-62153628D01*
X138886904Y-62153628D02*
X138839285Y-62201247D01*
X138839285Y-62201247D02*
X138744047Y-62248866D01*
X138744047Y-62248866D02*
X138553571Y-62248866D01*
X138553571Y-62248866D02*
X138458333Y-62201247D01*
X138458333Y-62201247D02*
X138410714Y-62153628D01*
X138410714Y-62153628D02*
X138363095Y-62058390D01*
X148942857Y-85459580D02*
X148990476Y-85507200D01*
X148990476Y-85507200D02*
X149133333Y-85554819D01*
X149133333Y-85554819D02*
X149228571Y-85554819D01*
X149228571Y-85554819D02*
X149371428Y-85507200D01*
X149371428Y-85507200D02*
X149466666Y-85411961D01*
X149466666Y-85411961D02*
X149514285Y-85316723D01*
X149514285Y-85316723D02*
X149561904Y-85126247D01*
X149561904Y-85126247D02*
X149561904Y-84983390D01*
X149561904Y-84983390D02*
X149514285Y-84792914D01*
X149514285Y-84792914D02*
X149466666Y-84697676D01*
X149466666Y-84697676D02*
X149371428Y-84602438D01*
X149371428Y-84602438D02*
X149228571Y-84554819D01*
X149228571Y-84554819D02*
X149133333Y-84554819D01*
X149133333Y-84554819D02*
X148990476Y-84602438D01*
X148990476Y-84602438D02*
X148942857Y-84650057D01*
X148561904Y-84650057D02*
X148514285Y-84602438D01*
X148514285Y-84602438D02*
X148419047Y-84554819D01*
X148419047Y-84554819D02*
X148180952Y-84554819D01*
X148180952Y-84554819D02*
X148085714Y-84602438D01*
X148085714Y-84602438D02*
X148038095Y-84650057D01*
X148038095Y-84650057D02*
X147990476Y-84745295D01*
X147990476Y-84745295D02*
X147990476Y-84840533D01*
X147990476Y-84840533D02*
X148038095Y-84983390D01*
X148038095Y-84983390D02*
X148609523Y-85554819D01*
X148609523Y-85554819D02*
X147990476Y-85554819D01*
X147038095Y-85554819D02*
X147609523Y-85554819D01*
X147323809Y-85554819D02*
X147323809Y-84554819D01*
X147323809Y-84554819D02*
X147419047Y-84697676D01*
X147419047Y-84697676D02*
X147514285Y-84792914D01*
X147514285Y-84792914D02*
X147609523Y-84840533D01*
X155154819Y-43542142D02*
X154678628Y-43208809D01*
X155154819Y-42970714D02*
X154154819Y-42970714D01*
X154154819Y-42970714D02*
X154154819Y-43351666D01*
X154154819Y-43351666D02*
X154202438Y-43446904D01*
X154202438Y-43446904D02*
X154250057Y-43494523D01*
X154250057Y-43494523D02*
X154345295Y-43542142D01*
X154345295Y-43542142D02*
X154488152Y-43542142D01*
X154488152Y-43542142D02*
X154583390Y-43494523D01*
X154583390Y-43494523D02*
X154631009Y-43446904D01*
X154631009Y-43446904D02*
X154678628Y-43351666D01*
X154678628Y-43351666D02*
X154678628Y-42970714D01*
X154250057Y-43923095D02*
X154202438Y-43970714D01*
X154202438Y-43970714D02*
X154154819Y-44065952D01*
X154154819Y-44065952D02*
X154154819Y-44304047D01*
X154154819Y-44304047D02*
X154202438Y-44399285D01*
X154202438Y-44399285D02*
X154250057Y-44446904D01*
X154250057Y-44446904D02*
X154345295Y-44494523D01*
X154345295Y-44494523D02*
X154440533Y-44494523D01*
X154440533Y-44494523D02*
X154583390Y-44446904D01*
X154583390Y-44446904D02*
X155154819Y-43875476D01*
X155154819Y-43875476D02*
X155154819Y-44494523D01*
X154250057Y-44875476D02*
X154202438Y-44923095D01*
X154202438Y-44923095D02*
X154154819Y-45018333D01*
X154154819Y-45018333D02*
X154154819Y-45256428D01*
X154154819Y-45256428D02*
X154202438Y-45351666D01*
X154202438Y-45351666D02*
X154250057Y-45399285D01*
X154250057Y-45399285D02*
X154345295Y-45446904D01*
X154345295Y-45446904D02*
X154440533Y-45446904D01*
X154440533Y-45446904D02*
X154583390Y-45399285D01*
X154583390Y-45399285D02*
X155154819Y-44827857D01*
X155154819Y-44827857D02*
X155154819Y-45446904D01*
X145842857Y-54959580D02*
X145890476Y-55007200D01*
X145890476Y-55007200D02*
X146033333Y-55054819D01*
X146033333Y-55054819D02*
X146128571Y-55054819D01*
X146128571Y-55054819D02*
X146271428Y-55007200D01*
X146271428Y-55007200D02*
X146366666Y-54911961D01*
X146366666Y-54911961D02*
X146414285Y-54816723D01*
X146414285Y-54816723D02*
X146461904Y-54626247D01*
X146461904Y-54626247D02*
X146461904Y-54483390D01*
X146461904Y-54483390D02*
X146414285Y-54292914D01*
X146414285Y-54292914D02*
X146366666Y-54197676D01*
X146366666Y-54197676D02*
X146271428Y-54102438D01*
X146271428Y-54102438D02*
X146128571Y-54054819D01*
X146128571Y-54054819D02*
X146033333Y-54054819D01*
X146033333Y-54054819D02*
X145890476Y-54102438D01*
X145890476Y-54102438D02*
X145842857Y-54150057D01*
X144890476Y-55054819D02*
X145461904Y-55054819D01*
X145176190Y-55054819D02*
X145176190Y-54054819D01*
X145176190Y-54054819D02*
X145271428Y-54197676D01*
X145271428Y-54197676D02*
X145366666Y-54292914D01*
X145366666Y-54292914D02*
X145461904Y-54340533D01*
X144557142Y-54054819D02*
X143890476Y-54054819D01*
X143890476Y-54054819D02*
X144319047Y-55054819D01*
X157542857Y-88254819D02*
X157876190Y-87778628D01*
X158114285Y-88254819D02*
X158114285Y-87254819D01*
X158114285Y-87254819D02*
X157733333Y-87254819D01*
X157733333Y-87254819D02*
X157638095Y-87302438D01*
X157638095Y-87302438D02*
X157590476Y-87350057D01*
X157590476Y-87350057D02*
X157542857Y-87445295D01*
X157542857Y-87445295D02*
X157542857Y-87588152D01*
X157542857Y-87588152D02*
X157590476Y-87683390D01*
X157590476Y-87683390D02*
X157638095Y-87731009D01*
X157638095Y-87731009D02*
X157733333Y-87778628D01*
X157733333Y-87778628D02*
X158114285Y-87778628D01*
X157161904Y-87350057D02*
X157114285Y-87302438D01*
X157114285Y-87302438D02*
X157019047Y-87254819D01*
X157019047Y-87254819D02*
X156780952Y-87254819D01*
X156780952Y-87254819D02*
X156685714Y-87302438D01*
X156685714Y-87302438D02*
X156638095Y-87350057D01*
X156638095Y-87350057D02*
X156590476Y-87445295D01*
X156590476Y-87445295D02*
X156590476Y-87540533D01*
X156590476Y-87540533D02*
X156638095Y-87683390D01*
X156638095Y-87683390D02*
X157209523Y-88254819D01*
X157209523Y-88254819D02*
X156590476Y-88254819D01*
X156257142Y-87254819D02*
X155638095Y-87254819D01*
X155638095Y-87254819D02*
X155971428Y-87635771D01*
X155971428Y-87635771D02*
X155828571Y-87635771D01*
X155828571Y-87635771D02*
X155733333Y-87683390D01*
X155733333Y-87683390D02*
X155685714Y-87731009D01*
X155685714Y-87731009D02*
X155638095Y-87826247D01*
X155638095Y-87826247D02*
X155638095Y-88064342D01*
X155638095Y-88064342D02*
X155685714Y-88159580D01*
X155685714Y-88159580D02*
X155733333Y-88207200D01*
X155733333Y-88207200D02*
X155828571Y-88254819D01*
X155828571Y-88254819D02*
X156114285Y-88254819D01*
X156114285Y-88254819D02*
X156209523Y-88207200D01*
X156209523Y-88207200D02*
X156257142Y-88159580D01*
X162842857Y-88059580D02*
X162890476Y-88107200D01*
X162890476Y-88107200D02*
X163033333Y-88154819D01*
X163033333Y-88154819D02*
X163128571Y-88154819D01*
X163128571Y-88154819D02*
X163271428Y-88107200D01*
X163271428Y-88107200D02*
X163366666Y-88011961D01*
X163366666Y-88011961D02*
X163414285Y-87916723D01*
X163414285Y-87916723D02*
X163461904Y-87726247D01*
X163461904Y-87726247D02*
X163461904Y-87583390D01*
X163461904Y-87583390D02*
X163414285Y-87392914D01*
X163414285Y-87392914D02*
X163366666Y-87297676D01*
X163366666Y-87297676D02*
X163271428Y-87202438D01*
X163271428Y-87202438D02*
X163128571Y-87154819D01*
X163128571Y-87154819D02*
X163033333Y-87154819D01*
X163033333Y-87154819D02*
X162890476Y-87202438D01*
X162890476Y-87202438D02*
X162842857Y-87250057D01*
X161890476Y-88154819D02*
X162461904Y-88154819D01*
X162176190Y-88154819D02*
X162176190Y-87154819D01*
X162176190Y-87154819D02*
X162271428Y-87297676D01*
X162271428Y-87297676D02*
X162366666Y-87392914D01*
X162366666Y-87392914D02*
X162461904Y-87440533D01*
X161414285Y-88154819D02*
X161223809Y-88154819D01*
X161223809Y-88154819D02*
X161128571Y-88107200D01*
X161128571Y-88107200D02*
X161080952Y-88059580D01*
X161080952Y-88059580D02*
X160985714Y-87916723D01*
X160985714Y-87916723D02*
X160938095Y-87726247D01*
X160938095Y-87726247D02*
X160938095Y-87345295D01*
X160938095Y-87345295D02*
X160985714Y-87250057D01*
X160985714Y-87250057D02*
X161033333Y-87202438D01*
X161033333Y-87202438D02*
X161128571Y-87154819D01*
X161128571Y-87154819D02*
X161319047Y-87154819D01*
X161319047Y-87154819D02*
X161414285Y-87202438D01*
X161414285Y-87202438D02*
X161461904Y-87250057D01*
X161461904Y-87250057D02*
X161509523Y-87345295D01*
X161509523Y-87345295D02*
X161509523Y-87583390D01*
X161509523Y-87583390D02*
X161461904Y-87678628D01*
X161461904Y-87678628D02*
X161414285Y-87726247D01*
X161414285Y-87726247D02*
X161319047Y-87773866D01*
X161319047Y-87773866D02*
X161128571Y-87773866D01*
X161128571Y-87773866D02*
X161033333Y-87726247D01*
X161033333Y-87726247D02*
X160985714Y-87678628D01*
X160985714Y-87678628D02*
X160938095Y-87583390D01*
X127942857Y-88079580D02*
X127990476Y-88127200D01*
X127990476Y-88127200D02*
X128133333Y-88174819D01*
X128133333Y-88174819D02*
X128228571Y-88174819D01*
X128228571Y-88174819D02*
X128371428Y-88127200D01*
X128371428Y-88127200D02*
X128466666Y-88031961D01*
X128466666Y-88031961D02*
X128514285Y-87936723D01*
X128514285Y-87936723D02*
X128561904Y-87746247D01*
X128561904Y-87746247D02*
X128561904Y-87603390D01*
X128561904Y-87603390D02*
X128514285Y-87412914D01*
X128514285Y-87412914D02*
X128466666Y-87317676D01*
X128466666Y-87317676D02*
X128371428Y-87222438D01*
X128371428Y-87222438D02*
X128228571Y-87174819D01*
X128228571Y-87174819D02*
X128133333Y-87174819D01*
X128133333Y-87174819D02*
X127990476Y-87222438D01*
X127990476Y-87222438D02*
X127942857Y-87270057D01*
X127561904Y-87270057D02*
X127514285Y-87222438D01*
X127514285Y-87222438D02*
X127419047Y-87174819D01*
X127419047Y-87174819D02*
X127180952Y-87174819D01*
X127180952Y-87174819D02*
X127085714Y-87222438D01*
X127085714Y-87222438D02*
X127038095Y-87270057D01*
X127038095Y-87270057D02*
X126990476Y-87365295D01*
X126990476Y-87365295D02*
X126990476Y-87460533D01*
X126990476Y-87460533D02*
X127038095Y-87603390D01*
X127038095Y-87603390D02*
X127609523Y-88174819D01*
X127609523Y-88174819D02*
X126990476Y-88174819D01*
X126657142Y-87174819D02*
X125990476Y-87174819D01*
X125990476Y-87174819D02*
X126419047Y-88174819D01*
X140616186Y-88354819D02*
X140949519Y-87878628D01*
X141187614Y-88354819D02*
X141187614Y-87354819D01*
X141187614Y-87354819D02*
X140806662Y-87354819D01*
X140806662Y-87354819D02*
X140711424Y-87402438D01*
X140711424Y-87402438D02*
X140663805Y-87450057D01*
X140663805Y-87450057D02*
X140616186Y-87545295D01*
X140616186Y-87545295D02*
X140616186Y-87688152D01*
X140616186Y-87688152D02*
X140663805Y-87783390D01*
X140663805Y-87783390D02*
X140711424Y-87831009D01*
X140711424Y-87831009D02*
X140806662Y-87878628D01*
X140806662Y-87878628D02*
X141187614Y-87878628D01*
X139759043Y-87688152D02*
X139759043Y-88354819D01*
X139997138Y-87307200D02*
X140235233Y-88021485D01*
X140235233Y-88021485D02*
X139616186Y-88021485D01*
X139330471Y-87354819D02*
X138663805Y-87354819D01*
X138663805Y-87354819D02*
X139092376Y-88354819D01*
X148838094Y-56754819D02*
X148838094Y-55754819D01*
X148838094Y-55754819D02*
X148599999Y-55754819D01*
X148599999Y-55754819D02*
X148457142Y-55802438D01*
X148457142Y-55802438D02*
X148361904Y-55897676D01*
X148361904Y-55897676D02*
X148314285Y-55992914D01*
X148314285Y-55992914D02*
X148266666Y-56183390D01*
X148266666Y-56183390D02*
X148266666Y-56326247D01*
X148266666Y-56326247D02*
X148314285Y-56516723D01*
X148314285Y-56516723D02*
X148361904Y-56611961D01*
X148361904Y-56611961D02*
X148457142Y-56707200D01*
X148457142Y-56707200D02*
X148599999Y-56754819D01*
X148599999Y-56754819D02*
X148838094Y-56754819D01*
X147790475Y-56754819D02*
X147599999Y-56754819D01*
X147599999Y-56754819D02*
X147504761Y-56707200D01*
X147504761Y-56707200D02*
X147457142Y-56659580D01*
X147457142Y-56659580D02*
X147361904Y-56516723D01*
X147361904Y-56516723D02*
X147314285Y-56326247D01*
X147314285Y-56326247D02*
X147314285Y-55945295D01*
X147314285Y-55945295D02*
X147361904Y-55850057D01*
X147361904Y-55850057D02*
X147409523Y-55802438D01*
X147409523Y-55802438D02*
X147504761Y-55754819D01*
X147504761Y-55754819D02*
X147695237Y-55754819D01*
X147695237Y-55754819D02*
X147790475Y-55802438D01*
X147790475Y-55802438D02*
X147838094Y-55850057D01*
X147838094Y-55850057D02*
X147885713Y-55945295D01*
X147885713Y-55945295D02*
X147885713Y-56183390D01*
X147885713Y-56183390D02*
X147838094Y-56278628D01*
X147838094Y-56278628D02*
X147790475Y-56326247D01*
X147790475Y-56326247D02*
X147695237Y-56373866D01*
X147695237Y-56373866D02*
X147504761Y-56373866D01*
X147504761Y-56373866D02*
X147409523Y-56326247D01*
X147409523Y-56326247D02*
X147361904Y-56278628D01*
X147361904Y-56278628D02*
X147314285Y-56183390D01*
X123142857Y-88204819D02*
X123476190Y-87728628D01*
X123714285Y-88204819D02*
X123714285Y-87204819D01*
X123714285Y-87204819D02*
X123333333Y-87204819D01*
X123333333Y-87204819D02*
X123238095Y-87252438D01*
X123238095Y-87252438D02*
X123190476Y-87300057D01*
X123190476Y-87300057D02*
X123142857Y-87395295D01*
X123142857Y-87395295D02*
X123142857Y-87538152D01*
X123142857Y-87538152D02*
X123190476Y-87633390D01*
X123190476Y-87633390D02*
X123238095Y-87681009D01*
X123238095Y-87681009D02*
X123333333Y-87728628D01*
X123333333Y-87728628D02*
X123714285Y-87728628D01*
X122761904Y-87300057D02*
X122714285Y-87252438D01*
X122714285Y-87252438D02*
X122619047Y-87204819D01*
X122619047Y-87204819D02*
X122380952Y-87204819D01*
X122380952Y-87204819D02*
X122285714Y-87252438D01*
X122285714Y-87252438D02*
X122238095Y-87300057D01*
X122238095Y-87300057D02*
X122190476Y-87395295D01*
X122190476Y-87395295D02*
X122190476Y-87490533D01*
X122190476Y-87490533D02*
X122238095Y-87633390D01*
X122238095Y-87633390D02*
X122809523Y-88204819D01*
X122809523Y-88204819D02*
X122190476Y-88204819D01*
X121619047Y-87633390D02*
X121714285Y-87585771D01*
X121714285Y-87585771D02*
X121761904Y-87538152D01*
X121761904Y-87538152D02*
X121809523Y-87442914D01*
X121809523Y-87442914D02*
X121809523Y-87395295D01*
X121809523Y-87395295D02*
X121761904Y-87300057D01*
X121761904Y-87300057D02*
X121714285Y-87252438D01*
X121714285Y-87252438D02*
X121619047Y-87204819D01*
X121619047Y-87204819D02*
X121428571Y-87204819D01*
X121428571Y-87204819D02*
X121333333Y-87252438D01*
X121333333Y-87252438D02*
X121285714Y-87300057D01*
X121285714Y-87300057D02*
X121238095Y-87395295D01*
X121238095Y-87395295D02*
X121238095Y-87442914D01*
X121238095Y-87442914D02*
X121285714Y-87538152D01*
X121285714Y-87538152D02*
X121333333Y-87585771D01*
X121333333Y-87585771D02*
X121428571Y-87633390D01*
X121428571Y-87633390D02*
X121619047Y-87633390D01*
X121619047Y-87633390D02*
X121714285Y-87681009D01*
X121714285Y-87681009D02*
X121761904Y-87728628D01*
X121761904Y-87728628D02*
X121809523Y-87823866D01*
X121809523Y-87823866D02*
X121809523Y-88014342D01*
X121809523Y-88014342D02*
X121761904Y-88109580D01*
X121761904Y-88109580D02*
X121714285Y-88157200D01*
X121714285Y-88157200D02*
X121619047Y-88204819D01*
X121619047Y-88204819D02*
X121428571Y-88204819D01*
X121428571Y-88204819D02*
X121333333Y-88157200D01*
X121333333Y-88157200D02*
X121285714Y-88109580D01*
X121285714Y-88109580D02*
X121238095Y-88014342D01*
X121238095Y-88014342D02*
X121238095Y-87823866D01*
X121238095Y-87823866D02*
X121285714Y-87728628D01*
X121285714Y-87728628D02*
X121333333Y-87681009D01*
X121333333Y-87681009D02*
X121428571Y-87633390D01*
X136990475Y-99419428D02*
X136990475Y-98619428D01*
X136990475Y-98619428D02*
X136799999Y-98619428D01*
X136799999Y-98619428D02*
X136685713Y-98657523D01*
X136685713Y-98657523D02*
X136609523Y-98733713D01*
X136609523Y-98733713D02*
X136571428Y-98809904D01*
X136571428Y-98809904D02*
X136533332Y-98962285D01*
X136533332Y-98962285D02*
X136533332Y-99076571D01*
X136533332Y-99076571D02*
X136571428Y-99228952D01*
X136571428Y-99228952D02*
X136609523Y-99305142D01*
X136609523Y-99305142D02*
X136685713Y-99381333D01*
X136685713Y-99381333D02*
X136799999Y-99419428D01*
X136799999Y-99419428D02*
X136990475Y-99419428D01*
X135847618Y-98886094D02*
X135847618Y-99419428D01*
X136038094Y-98581333D02*
X136228571Y-99152761D01*
X136228571Y-99152761D02*
X135733332Y-99152761D01*
X125528057Y-79484580D02*
X125575676Y-79532200D01*
X125575676Y-79532200D02*
X125718533Y-79579819D01*
X125718533Y-79579819D02*
X125813771Y-79579819D01*
X125813771Y-79579819D02*
X125956628Y-79532200D01*
X125956628Y-79532200D02*
X126051866Y-79436961D01*
X126051866Y-79436961D02*
X126099485Y-79341723D01*
X126099485Y-79341723D02*
X126147104Y-79151247D01*
X126147104Y-79151247D02*
X126147104Y-79008390D01*
X126147104Y-79008390D02*
X126099485Y-78817914D01*
X126099485Y-78817914D02*
X126051866Y-78722676D01*
X126051866Y-78722676D02*
X125956628Y-78627438D01*
X125956628Y-78627438D02*
X125813771Y-78579819D01*
X125813771Y-78579819D02*
X125718533Y-78579819D01*
X125718533Y-78579819D02*
X125575676Y-78627438D01*
X125575676Y-78627438D02*
X125528057Y-78675057D01*
X125147104Y-78675057D02*
X125099485Y-78627438D01*
X125099485Y-78627438D02*
X125004247Y-78579819D01*
X125004247Y-78579819D02*
X124766152Y-78579819D01*
X124766152Y-78579819D02*
X124670914Y-78627438D01*
X124670914Y-78627438D02*
X124623295Y-78675057D01*
X124623295Y-78675057D02*
X124575676Y-78770295D01*
X124575676Y-78770295D02*
X124575676Y-78865533D01*
X124575676Y-78865533D02*
X124623295Y-79008390D01*
X124623295Y-79008390D02*
X125194723Y-79579819D01*
X125194723Y-79579819D02*
X124575676Y-79579819D01*
X123718533Y-78913152D02*
X123718533Y-79579819D01*
X123956628Y-78532200D02*
X124194723Y-79246485D01*
X124194723Y-79246485D02*
X123575676Y-79246485D01*
X154212319Y-71057142D02*
X153736128Y-70723809D01*
X154212319Y-70485714D02*
X153212319Y-70485714D01*
X153212319Y-70485714D02*
X153212319Y-70866666D01*
X153212319Y-70866666D02*
X153259938Y-70961904D01*
X153259938Y-70961904D02*
X153307557Y-71009523D01*
X153307557Y-71009523D02*
X153402795Y-71057142D01*
X153402795Y-71057142D02*
X153545652Y-71057142D01*
X153545652Y-71057142D02*
X153640890Y-71009523D01*
X153640890Y-71009523D02*
X153688509Y-70961904D01*
X153688509Y-70961904D02*
X153736128Y-70866666D01*
X153736128Y-70866666D02*
X153736128Y-70485714D01*
X153212319Y-71914285D02*
X153212319Y-71723809D01*
X153212319Y-71723809D02*
X153259938Y-71628571D01*
X153259938Y-71628571D02*
X153307557Y-71580952D01*
X153307557Y-71580952D02*
X153450414Y-71485714D01*
X153450414Y-71485714D02*
X153640890Y-71438095D01*
X153640890Y-71438095D02*
X154021842Y-71438095D01*
X154021842Y-71438095D02*
X154117080Y-71485714D01*
X154117080Y-71485714D02*
X154164700Y-71533333D01*
X154164700Y-71533333D02*
X154212319Y-71628571D01*
X154212319Y-71628571D02*
X154212319Y-71819047D01*
X154212319Y-71819047D02*
X154164700Y-71914285D01*
X154164700Y-71914285D02*
X154117080Y-71961904D01*
X154117080Y-71961904D02*
X154021842Y-72009523D01*
X154021842Y-72009523D02*
X153783747Y-72009523D01*
X153783747Y-72009523D02*
X153688509Y-71961904D01*
X153688509Y-71961904D02*
X153640890Y-71914285D01*
X153640890Y-71914285D02*
X153593271Y-71819047D01*
X153593271Y-71819047D02*
X153593271Y-71628571D01*
X153593271Y-71628571D02*
X153640890Y-71533333D01*
X153640890Y-71533333D02*
X153688509Y-71485714D01*
X153688509Y-71485714D02*
X153783747Y-71438095D01*
X153307557Y-72390476D02*
X153259938Y-72438095D01*
X153259938Y-72438095D02*
X153212319Y-72533333D01*
X153212319Y-72533333D02*
X153212319Y-72771428D01*
X153212319Y-72771428D02*
X153259938Y-72866666D01*
X153259938Y-72866666D02*
X153307557Y-72914285D01*
X153307557Y-72914285D02*
X153402795Y-72961904D01*
X153402795Y-72961904D02*
X153498033Y-72961904D01*
X153498033Y-72961904D02*
X153640890Y-72914285D01*
X153640890Y-72914285D02*
X154212319Y-72342857D01*
X154212319Y-72342857D02*
X154212319Y-72961904D01*
X112742857Y-96654819D02*
X113076190Y-96178628D01*
X113314285Y-96654819D02*
X113314285Y-95654819D01*
X113314285Y-95654819D02*
X112933333Y-95654819D01*
X112933333Y-95654819D02*
X112838095Y-95702438D01*
X112838095Y-95702438D02*
X112790476Y-95750057D01*
X112790476Y-95750057D02*
X112742857Y-95845295D01*
X112742857Y-95845295D02*
X112742857Y-95988152D01*
X112742857Y-95988152D02*
X112790476Y-96083390D01*
X112790476Y-96083390D02*
X112838095Y-96131009D01*
X112838095Y-96131009D02*
X112933333Y-96178628D01*
X112933333Y-96178628D02*
X113314285Y-96178628D01*
X112409523Y-95654819D02*
X111790476Y-95654819D01*
X111790476Y-95654819D02*
X112123809Y-96035771D01*
X112123809Y-96035771D02*
X111980952Y-96035771D01*
X111980952Y-96035771D02*
X111885714Y-96083390D01*
X111885714Y-96083390D02*
X111838095Y-96131009D01*
X111838095Y-96131009D02*
X111790476Y-96226247D01*
X111790476Y-96226247D02*
X111790476Y-96464342D01*
X111790476Y-96464342D02*
X111838095Y-96559580D01*
X111838095Y-96559580D02*
X111885714Y-96607200D01*
X111885714Y-96607200D02*
X111980952Y-96654819D01*
X111980952Y-96654819D02*
X112266666Y-96654819D01*
X112266666Y-96654819D02*
X112361904Y-96607200D01*
X112361904Y-96607200D02*
X112409523Y-96559580D01*
X111171428Y-95654819D02*
X111076190Y-95654819D01*
X111076190Y-95654819D02*
X110980952Y-95702438D01*
X110980952Y-95702438D02*
X110933333Y-95750057D01*
X110933333Y-95750057D02*
X110885714Y-95845295D01*
X110885714Y-95845295D02*
X110838095Y-96035771D01*
X110838095Y-96035771D02*
X110838095Y-96273866D01*
X110838095Y-96273866D02*
X110885714Y-96464342D01*
X110885714Y-96464342D02*
X110933333Y-96559580D01*
X110933333Y-96559580D02*
X110980952Y-96607200D01*
X110980952Y-96607200D02*
X111076190Y-96654819D01*
X111076190Y-96654819D02*
X111171428Y-96654819D01*
X111171428Y-96654819D02*
X111266666Y-96607200D01*
X111266666Y-96607200D02*
X111314285Y-96559580D01*
X111314285Y-96559580D02*
X111361904Y-96464342D01*
X111361904Y-96464342D02*
X111409523Y-96273866D01*
X111409523Y-96273866D02*
X111409523Y-96035771D01*
X111409523Y-96035771D02*
X111361904Y-95845295D01*
X111361904Y-95845295D02*
X111314285Y-95750057D01*
X111314285Y-95750057D02*
X111266666Y-95702438D01*
X111266666Y-95702438D02*
X111171428Y-95654819D01*
X165395238Y-94350057D02*
X165490476Y-94302438D01*
X165490476Y-94302438D02*
X165585714Y-94207200D01*
X165585714Y-94207200D02*
X165728571Y-94064342D01*
X165728571Y-94064342D02*
X165823809Y-94016723D01*
X165823809Y-94016723D02*
X165919047Y-94016723D01*
X165871428Y-94254819D02*
X165966666Y-94207200D01*
X165966666Y-94207200D02*
X166061904Y-94111961D01*
X166061904Y-94111961D02*
X166109523Y-93921485D01*
X166109523Y-93921485D02*
X166109523Y-93588152D01*
X166109523Y-93588152D02*
X166061904Y-93397676D01*
X166061904Y-93397676D02*
X165966666Y-93302438D01*
X165966666Y-93302438D02*
X165871428Y-93254819D01*
X165871428Y-93254819D02*
X165680952Y-93254819D01*
X165680952Y-93254819D02*
X165585714Y-93302438D01*
X165585714Y-93302438D02*
X165490476Y-93397676D01*
X165490476Y-93397676D02*
X165442857Y-93588152D01*
X165442857Y-93588152D02*
X165442857Y-93921485D01*
X165442857Y-93921485D02*
X165490476Y-94111961D01*
X165490476Y-94111961D02*
X165585714Y-94207200D01*
X165585714Y-94207200D02*
X165680952Y-94254819D01*
X165680952Y-94254819D02*
X165871428Y-94254819D01*
X164585714Y-93254819D02*
X164776190Y-93254819D01*
X164776190Y-93254819D02*
X164871428Y-93302438D01*
X164871428Y-93302438D02*
X164919047Y-93350057D01*
X164919047Y-93350057D02*
X165014285Y-93492914D01*
X165014285Y-93492914D02*
X165061904Y-93683390D01*
X165061904Y-93683390D02*
X165061904Y-94064342D01*
X165061904Y-94064342D02*
X165014285Y-94159580D01*
X165014285Y-94159580D02*
X164966666Y-94207200D01*
X164966666Y-94207200D02*
X164871428Y-94254819D01*
X164871428Y-94254819D02*
X164680952Y-94254819D01*
X164680952Y-94254819D02*
X164585714Y-94207200D01*
X164585714Y-94207200D02*
X164538095Y-94159580D01*
X164538095Y-94159580D02*
X164490476Y-94064342D01*
X164490476Y-94064342D02*
X164490476Y-93826247D01*
X164490476Y-93826247D02*
X164538095Y-93731009D01*
X164538095Y-93731009D02*
X164585714Y-93683390D01*
X164585714Y-93683390D02*
X164680952Y-93635771D01*
X164680952Y-93635771D02*
X164871428Y-93635771D01*
X164871428Y-93635771D02*
X164966666Y-93683390D01*
X164966666Y-93683390D02*
X165014285Y-93731009D01*
X165014285Y-93731009D02*
X165061904Y-93826247D01*
X140842857Y-58954819D02*
X141176190Y-58478628D01*
X141414285Y-58954819D02*
X141414285Y-57954819D01*
X141414285Y-57954819D02*
X141033333Y-57954819D01*
X141033333Y-57954819D02*
X140938095Y-58002438D01*
X140938095Y-58002438D02*
X140890476Y-58050057D01*
X140890476Y-58050057D02*
X140842857Y-58145295D01*
X140842857Y-58145295D02*
X140842857Y-58288152D01*
X140842857Y-58288152D02*
X140890476Y-58383390D01*
X140890476Y-58383390D02*
X140938095Y-58431009D01*
X140938095Y-58431009D02*
X141033333Y-58478628D01*
X141033333Y-58478628D02*
X141414285Y-58478628D01*
X139938095Y-57954819D02*
X140414285Y-57954819D01*
X140414285Y-57954819D02*
X140461904Y-58431009D01*
X140461904Y-58431009D02*
X140414285Y-58383390D01*
X140414285Y-58383390D02*
X140319047Y-58335771D01*
X140319047Y-58335771D02*
X140080952Y-58335771D01*
X140080952Y-58335771D02*
X139985714Y-58383390D01*
X139985714Y-58383390D02*
X139938095Y-58431009D01*
X139938095Y-58431009D02*
X139890476Y-58526247D01*
X139890476Y-58526247D02*
X139890476Y-58764342D01*
X139890476Y-58764342D02*
X139938095Y-58859580D01*
X139938095Y-58859580D02*
X139985714Y-58907200D01*
X139985714Y-58907200D02*
X140080952Y-58954819D01*
X140080952Y-58954819D02*
X140319047Y-58954819D01*
X140319047Y-58954819D02*
X140414285Y-58907200D01*
X140414285Y-58907200D02*
X140461904Y-58859580D01*
X138985714Y-57954819D02*
X139461904Y-57954819D01*
X139461904Y-57954819D02*
X139509523Y-58431009D01*
X139509523Y-58431009D02*
X139461904Y-58383390D01*
X139461904Y-58383390D02*
X139366666Y-58335771D01*
X139366666Y-58335771D02*
X139128571Y-58335771D01*
X139128571Y-58335771D02*
X139033333Y-58383390D01*
X139033333Y-58383390D02*
X138985714Y-58431009D01*
X138985714Y-58431009D02*
X138938095Y-58526247D01*
X138938095Y-58526247D02*
X138938095Y-58764342D01*
X138938095Y-58764342D02*
X138985714Y-58859580D01*
X138985714Y-58859580D02*
X139033333Y-58907200D01*
X139033333Y-58907200D02*
X139128571Y-58954819D01*
X139128571Y-58954819D02*
X139366666Y-58954819D01*
X139366666Y-58954819D02*
X139461904Y-58907200D01*
X139461904Y-58907200D02*
X139509523Y-58859580D01*
X145767857Y-84242319D02*
X146101190Y-83766128D01*
X146339285Y-84242319D02*
X146339285Y-83242319D01*
X146339285Y-83242319D02*
X145958333Y-83242319D01*
X145958333Y-83242319D02*
X145863095Y-83289938D01*
X145863095Y-83289938D02*
X145815476Y-83337557D01*
X145815476Y-83337557D02*
X145767857Y-83432795D01*
X145767857Y-83432795D02*
X145767857Y-83575652D01*
X145767857Y-83575652D02*
X145815476Y-83670890D01*
X145815476Y-83670890D02*
X145863095Y-83718509D01*
X145863095Y-83718509D02*
X145958333Y-83766128D01*
X145958333Y-83766128D02*
X146339285Y-83766128D01*
X144863095Y-83242319D02*
X145339285Y-83242319D01*
X145339285Y-83242319D02*
X145386904Y-83718509D01*
X145386904Y-83718509D02*
X145339285Y-83670890D01*
X145339285Y-83670890D02*
X145244047Y-83623271D01*
X145244047Y-83623271D02*
X145005952Y-83623271D01*
X145005952Y-83623271D02*
X144910714Y-83670890D01*
X144910714Y-83670890D02*
X144863095Y-83718509D01*
X144863095Y-83718509D02*
X144815476Y-83813747D01*
X144815476Y-83813747D02*
X144815476Y-84051842D01*
X144815476Y-84051842D02*
X144863095Y-84147080D01*
X144863095Y-84147080D02*
X144910714Y-84194700D01*
X144910714Y-84194700D02*
X145005952Y-84242319D01*
X145005952Y-84242319D02*
X145244047Y-84242319D01*
X145244047Y-84242319D02*
X145339285Y-84194700D01*
X145339285Y-84194700D02*
X145386904Y-84147080D01*
X143863095Y-84242319D02*
X144434523Y-84242319D01*
X144148809Y-84242319D02*
X144148809Y-83242319D01*
X144148809Y-83242319D02*
X144244047Y-83385176D01*
X144244047Y-83385176D02*
X144339285Y-83480414D01*
X144339285Y-83480414D02*
X144434523Y-83528033D01*
X144865357Y-62662319D02*
X145198690Y-62186128D01*
X145436785Y-62662319D02*
X145436785Y-61662319D01*
X145436785Y-61662319D02*
X145055833Y-61662319D01*
X145055833Y-61662319D02*
X144960595Y-61709938D01*
X144960595Y-61709938D02*
X144912976Y-61757557D01*
X144912976Y-61757557D02*
X144865357Y-61852795D01*
X144865357Y-61852795D02*
X144865357Y-61995652D01*
X144865357Y-61995652D02*
X144912976Y-62090890D01*
X144912976Y-62090890D02*
X144960595Y-62138509D01*
X144960595Y-62138509D02*
X145055833Y-62186128D01*
X145055833Y-62186128D02*
X145436785Y-62186128D01*
X143960595Y-61662319D02*
X144436785Y-61662319D01*
X144436785Y-61662319D02*
X144484404Y-62138509D01*
X144484404Y-62138509D02*
X144436785Y-62090890D01*
X144436785Y-62090890D02*
X144341547Y-62043271D01*
X144341547Y-62043271D02*
X144103452Y-62043271D01*
X144103452Y-62043271D02*
X144008214Y-62090890D01*
X144008214Y-62090890D02*
X143960595Y-62138509D01*
X143960595Y-62138509D02*
X143912976Y-62233747D01*
X143912976Y-62233747D02*
X143912976Y-62471842D01*
X143912976Y-62471842D02*
X143960595Y-62567080D01*
X143960595Y-62567080D02*
X144008214Y-62614700D01*
X144008214Y-62614700D02*
X144103452Y-62662319D01*
X144103452Y-62662319D02*
X144341547Y-62662319D01*
X144341547Y-62662319D02*
X144436785Y-62614700D01*
X144436785Y-62614700D02*
X144484404Y-62567080D01*
X143579642Y-61662319D02*
X142912976Y-61662319D01*
X142912976Y-61662319D02*
X143341547Y-62662319D01*
X162100357Y-99003201D02*
X162433690Y-98527010D01*
X162671785Y-99003201D02*
X162671785Y-98003201D01*
X162671785Y-98003201D02*
X162290833Y-98003201D01*
X162290833Y-98003201D02*
X162195595Y-98050820D01*
X162195595Y-98050820D02*
X162147976Y-98098439D01*
X162147976Y-98098439D02*
X162100357Y-98193677D01*
X162100357Y-98193677D02*
X162100357Y-98336534D01*
X162100357Y-98336534D02*
X162147976Y-98431772D01*
X162147976Y-98431772D02*
X162195595Y-98479391D01*
X162195595Y-98479391D02*
X162290833Y-98527010D01*
X162290833Y-98527010D02*
X162671785Y-98527010D01*
X161243214Y-98336534D02*
X161243214Y-99003201D01*
X161481309Y-97955582D02*
X161719404Y-98669867D01*
X161719404Y-98669867D02*
X161100357Y-98669867D01*
X160528928Y-98003201D02*
X160433690Y-98003201D01*
X160433690Y-98003201D02*
X160338452Y-98050820D01*
X160338452Y-98050820D02*
X160290833Y-98098439D01*
X160290833Y-98098439D02*
X160243214Y-98193677D01*
X160243214Y-98193677D02*
X160195595Y-98384153D01*
X160195595Y-98384153D02*
X160195595Y-98622248D01*
X160195595Y-98622248D02*
X160243214Y-98812724D01*
X160243214Y-98812724D02*
X160290833Y-98907962D01*
X160290833Y-98907962D02*
X160338452Y-98955582D01*
X160338452Y-98955582D02*
X160433690Y-99003201D01*
X160433690Y-99003201D02*
X160528928Y-99003201D01*
X160528928Y-99003201D02*
X160624166Y-98955582D01*
X160624166Y-98955582D02*
X160671785Y-98907962D01*
X160671785Y-98907962D02*
X160719404Y-98812724D01*
X160719404Y-98812724D02*
X160767023Y-98622248D01*
X160767023Y-98622248D02*
X160767023Y-98384153D01*
X160767023Y-98384153D02*
X160719404Y-98193677D01*
X160719404Y-98193677D02*
X160671785Y-98098439D01*
X160671785Y-98098439D02*
X160624166Y-98050820D01*
X160624166Y-98050820D02*
X160528928Y-98003201D01*
X135442857Y-91754819D02*
X135776190Y-91278628D01*
X136014285Y-91754819D02*
X136014285Y-90754819D01*
X136014285Y-90754819D02*
X135633333Y-90754819D01*
X135633333Y-90754819D02*
X135538095Y-90802438D01*
X135538095Y-90802438D02*
X135490476Y-90850057D01*
X135490476Y-90850057D02*
X135442857Y-90945295D01*
X135442857Y-90945295D02*
X135442857Y-91088152D01*
X135442857Y-91088152D02*
X135490476Y-91183390D01*
X135490476Y-91183390D02*
X135538095Y-91231009D01*
X135538095Y-91231009D02*
X135633333Y-91278628D01*
X135633333Y-91278628D02*
X136014285Y-91278628D01*
X135109523Y-90754819D02*
X134490476Y-90754819D01*
X134490476Y-90754819D02*
X134823809Y-91135771D01*
X134823809Y-91135771D02*
X134680952Y-91135771D01*
X134680952Y-91135771D02*
X134585714Y-91183390D01*
X134585714Y-91183390D02*
X134538095Y-91231009D01*
X134538095Y-91231009D02*
X134490476Y-91326247D01*
X134490476Y-91326247D02*
X134490476Y-91564342D01*
X134490476Y-91564342D02*
X134538095Y-91659580D01*
X134538095Y-91659580D02*
X134585714Y-91707200D01*
X134585714Y-91707200D02*
X134680952Y-91754819D01*
X134680952Y-91754819D02*
X134966666Y-91754819D01*
X134966666Y-91754819D02*
X135061904Y-91707200D01*
X135061904Y-91707200D02*
X135109523Y-91659580D01*
X134157142Y-90754819D02*
X133538095Y-90754819D01*
X133538095Y-90754819D02*
X133871428Y-91135771D01*
X133871428Y-91135771D02*
X133728571Y-91135771D01*
X133728571Y-91135771D02*
X133633333Y-91183390D01*
X133633333Y-91183390D02*
X133585714Y-91231009D01*
X133585714Y-91231009D02*
X133538095Y-91326247D01*
X133538095Y-91326247D02*
X133538095Y-91564342D01*
X133538095Y-91564342D02*
X133585714Y-91659580D01*
X133585714Y-91659580D02*
X133633333Y-91707200D01*
X133633333Y-91707200D02*
X133728571Y-91754819D01*
X133728571Y-91754819D02*
X134014285Y-91754819D01*
X134014285Y-91754819D02*
X134109523Y-91707200D01*
X134109523Y-91707200D02*
X134157142Y-91659580D01*
X157395475Y-98836074D02*
X157395475Y-98036074D01*
X157395475Y-98036074D02*
X157204999Y-98036074D01*
X157204999Y-98036074D02*
X157090713Y-98074169D01*
X157090713Y-98074169D02*
X157014523Y-98150359D01*
X157014523Y-98150359D02*
X156976428Y-98226550D01*
X156976428Y-98226550D02*
X156938332Y-98378931D01*
X156938332Y-98378931D02*
X156938332Y-98493217D01*
X156938332Y-98493217D02*
X156976428Y-98645598D01*
X156976428Y-98645598D02*
X157014523Y-98721788D01*
X157014523Y-98721788D02*
X157090713Y-98797979D01*
X157090713Y-98797979D02*
X157204999Y-98836074D01*
X157204999Y-98836074D02*
X157395475Y-98836074D01*
X156252618Y-98036074D02*
X156404999Y-98036074D01*
X156404999Y-98036074D02*
X156481190Y-98074169D01*
X156481190Y-98074169D02*
X156519285Y-98112264D01*
X156519285Y-98112264D02*
X156595475Y-98226550D01*
X156595475Y-98226550D02*
X156633571Y-98378931D01*
X156633571Y-98378931D02*
X156633571Y-98683693D01*
X156633571Y-98683693D02*
X156595475Y-98759883D01*
X156595475Y-98759883D02*
X156557380Y-98797979D01*
X156557380Y-98797979D02*
X156481190Y-98836074D01*
X156481190Y-98836074D02*
X156328809Y-98836074D01*
X156328809Y-98836074D02*
X156252618Y-98797979D01*
X156252618Y-98797979D02*
X156214523Y-98759883D01*
X156214523Y-98759883D02*
X156176428Y-98683693D01*
X156176428Y-98683693D02*
X156176428Y-98493217D01*
X156176428Y-98493217D02*
X156214523Y-98417026D01*
X156214523Y-98417026D02*
X156252618Y-98378931D01*
X156252618Y-98378931D02*
X156328809Y-98340836D01*
X156328809Y-98340836D02*
X156481190Y-98340836D01*
X156481190Y-98340836D02*
X156557380Y-98378931D01*
X156557380Y-98378931D02*
X156595475Y-98417026D01*
X156595475Y-98417026D02*
X156633571Y-98493217D01*
X115225657Y-75359580D02*
X115273276Y-75407200D01*
X115273276Y-75407200D02*
X115416133Y-75454819D01*
X115416133Y-75454819D02*
X115511371Y-75454819D01*
X115511371Y-75454819D02*
X115654228Y-75407200D01*
X115654228Y-75407200D02*
X115749466Y-75311961D01*
X115749466Y-75311961D02*
X115797085Y-75216723D01*
X115797085Y-75216723D02*
X115844704Y-75026247D01*
X115844704Y-75026247D02*
X115844704Y-74883390D01*
X115844704Y-74883390D02*
X115797085Y-74692914D01*
X115797085Y-74692914D02*
X115749466Y-74597676D01*
X115749466Y-74597676D02*
X115654228Y-74502438D01*
X115654228Y-74502438D02*
X115511371Y-74454819D01*
X115511371Y-74454819D02*
X115416133Y-74454819D01*
X115416133Y-74454819D02*
X115273276Y-74502438D01*
X115273276Y-74502438D02*
X115225657Y-74550057D01*
X114844704Y-74550057D02*
X114797085Y-74502438D01*
X114797085Y-74502438D02*
X114701847Y-74454819D01*
X114701847Y-74454819D02*
X114463752Y-74454819D01*
X114463752Y-74454819D02*
X114368514Y-74502438D01*
X114368514Y-74502438D02*
X114320895Y-74550057D01*
X114320895Y-74550057D02*
X114273276Y-74645295D01*
X114273276Y-74645295D02*
X114273276Y-74740533D01*
X114273276Y-74740533D02*
X114320895Y-74883390D01*
X114320895Y-74883390D02*
X114892323Y-75454819D01*
X114892323Y-75454819D02*
X114273276Y-75454819D01*
X113892323Y-74550057D02*
X113844704Y-74502438D01*
X113844704Y-74502438D02*
X113749466Y-74454819D01*
X113749466Y-74454819D02*
X113511371Y-74454819D01*
X113511371Y-74454819D02*
X113416133Y-74502438D01*
X113416133Y-74502438D02*
X113368514Y-74550057D01*
X113368514Y-74550057D02*
X113320895Y-74645295D01*
X113320895Y-74645295D02*
X113320895Y-74740533D01*
X113320895Y-74740533D02*
X113368514Y-74883390D01*
X113368514Y-74883390D02*
X113939942Y-75454819D01*
X113939942Y-75454819D02*
X113320895Y-75454819D01*
X136478729Y-83354819D02*
X136478729Y-84164342D01*
X136478729Y-84164342D02*
X136431110Y-84259580D01*
X136431110Y-84259580D02*
X136383491Y-84307200D01*
X136383491Y-84307200D02*
X136288253Y-84354819D01*
X136288253Y-84354819D02*
X136097777Y-84354819D01*
X136097777Y-84354819D02*
X136002539Y-84307200D01*
X136002539Y-84307200D02*
X135954920Y-84259580D01*
X135954920Y-84259580D02*
X135907301Y-84164342D01*
X135907301Y-84164342D02*
X135907301Y-83354819D01*
X134907301Y-84354819D02*
X135478729Y-84354819D01*
X135193015Y-84354819D02*
X135193015Y-83354819D01*
X135193015Y-83354819D02*
X135288253Y-83497676D01*
X135288253Y-83497676D02*
X135383491Y-83592914D01*
X135383491Y-83592914D02*
X135478729Y-83640533D01*
X134050158Y-83688152D02*
X134050158Y-84354819D01*
X134288253Y-83307200D02*
X134526348Y-84021485D01*
X134526348Y-84021485D02*
X133907301Y-84021485D01*
X115225657Y-77359580D02*
X115273276Y-77407200D01*
X115273276Y-77407200D02*
X115416133Y-77454819D01*
X115416133Y-77454819D02*
X115511371Y-77454819D01*
X115511371Y-77454819D02*
X115654228Y-77407200D01*
X115654228Y-77407200D02*
X115749466Y-77311961D01*
X115749466Y-77311961D02*
X115797085Y-77216723D01*
X115797085Y-77216723D02*
X115844704Y-77026247D01*
X115844704Y-77026247D02*
X115844704Y-76883390D01*
X115844704Y-76883390D02*
X115797085Y-76692914D01*
X115797085Y-76692914D02*
X115749466Y-76597676D01*
X115749466Y-76597676D02*
X115654228Y-76502438D01*
X115654228Y-76502438D02*
X115511371Y-76454819D01*
X115511371Y-76454819D02*
X115416133Y-76454819D01*
X115416133Y-76454819D02*
X115273276Y-76502438D01*
X115273276Y-76502438D02*
X115225657Y-76550057D01*
X114844704Y-76550057D02*
X114797085Y-76502438D01*
X114797085Y-76502438D02*
X114701847Y-76454819D01*
X114701847Y-76454819D02*
X114463752Y-76454819D01*
X114463752Y-76454819D02*
X114368514Y-76502438D01*
X114368514Y-76502438D02*
X114320895Y-76550057D01*
X114320895Y-76550057D02*
X114273276Y-76645295D01*
X114273276Y-76645295D02*
X114273276Y-76740533D01*
X114273276Y-76740533D02*
X114320895Y-76883390D01*
X114320895Y-76883390D02*
X114892323Y-77454819D01*
X114892323Y-77454819D02*
X114273276Y-77454819D01*
X113939942Y-76454819D02*
X113320895Y-76454819D01*
X113320895Y-76454819D02*
X113654228Y-76835771D01*
X113654228Y-76835771D02*
X113511371Y-76835771D01*
X113511371Y-76835771D02*
X113416133Y-76883390D01*
X113416133Y-76883390D02*
X113368514Y-76931009D01*
X113368514Y-76931009D02*
X113320895Y-77026247D01*
X113320895Y-77026247D02*
X113320895Y-77264342D01*
X113320895Y-77264342D02*
X113368514Y-77359580D01*
X113368514Y-77359580D02*
X113416133Y-77407200D01*
X113416133Y-77407200D02*
X113511371Y-77454819D01*
X113511371Y-77454819D02*
X113797085Y-77454819D01*
X113797085Y-77454819D02*
X113892323Y-77407200D01*
X113892323Y-77407200D02*
X113939942Y-77359580D01*
X125527257Y-73259580D02*
X125574876Y-73307200D01*
X125574876Y-73307200D02*
X125717733Y-73354819D01*
X125717733Y-73354819D02*
X125812971Y-73354819D01*
X125812971Y-73354819D02*
X125955828Y-73307200D01*
X125955828Y-73307200D02*
X126051066Y-73211961D01*
X126051066Y-73211961D02*
X126098685Y-73116723D01*
X126098685Y-73116723D02*
X126146304Y-72926247D01*
X126146304Y-72926247D02*
X126146304Y-72783390D01*
X126146304Y-72783390D02*
X126098685Y-72592914D01*
X126098685Y-72592914D02*
X126051066Y-72497676D01*
X126051066Y-72497676D02*
X125955828Y-72402438D01*
X125955828Y-72402438D02*
X125812971Y-72354819D01*
X125812971Y-72354819D02*
X125717733Y-72354819D01*
X125717733Y-72354819D02*
X125574876Y-72402438D01*
X125574876Y-72402438D02*
X125527257Y-72450057D01*
X125146304Y-72450057D02*
X125098685Y-72402438D01*
X125098685Y-72402438D02*
X125003447Y-72354819D01*
X125003447Y-72354819D02*
X124765352Y-72354819D01*
X124765352Y-72354819D02*
X124670114Y-72402438D01*
X124670114Y-72402438D02*
X124622495Y-72450057D01*
X124622495Y-72450057D02*
X124574876Y-72545295D01*
X124574876Y-72545295D02*
X124574876Y-72640533D01*
X124574876Y-72640533D02*
X124622495Y-72783390D01*
X124622495Y-72783390D02*
X125193923Y-73354819D01*
X125193923Y-73354819D02*
X124574876Y-73354819D01*
X124003447Y-72783390D02*
X124098685Y-72735771D01*
X124098685Y-72735771D02*
X124146304Y-72688152D01*
X124146304Y-72688152D02*
X124193923Y-72592914D01*
X124193923Y-72592914D02*
X124193923Y-72545295D01*
X124193923Y-72545295D02*
X124146304Y-72450057D01*
X124146304Y-72450057D02*
X124098685Y-72402438D01*
X124098685Y-72402438D02*
X124003447Y-72354819D01*
X124003447Y-72354819D02*
X123812971Y-72354819D01*
X123812971Y-72354819D02*
X123717733Y-72402438D01*
X123717733Y-72402438D02*
X123670114Y-72450057D01*
X123670114Y-72450057D02*
X123622495Y-72545295D01*
X123622495Y-72545295D02*
X123622495Y-72592914D01*
X123622495Y-72592914D02*
X123670114Y-72688152D01*
X123670114Y-72688152D02*
X123717733Y-72735771D01*
X123717733Y-72735771D02*
X123812971Y-72783390D01*
X123812971Y-72783390D02*
X124003447Y-72783390D01*
X124003447Y-72783390D02*
X124098685Y-72831009D01*
X124098685Y-72831009D02*
X124146304Y-72878628D01*
X124146304Y-72878628D02*
X124193923Y-72973866D01*
X124193923Y-72973866D02*
X124193923Y-73164342D01*
X124193923Y-73164342D02*
X124146304Y-73259580D01*
X124146304Y-73259580D02*
X124098685Y-73307200D01*
X124098685Y-73307200D02*
X124003447Y-73354819D01*
X124003447Y-73354819D02*
X123812971Y-73354819D01*
X123812971Y-73354819D02*
X123717733Y-73307200D01*
X123717733Y-73307200D02*
X123670114Y-73259580D01*
X123670114Y-73259580D02*
X123622495Y-73164342D01*
X123622495Y-73164342D02*
X123622495Y-72973866D01*
X123622495Y-72973866D02*
X123670114Y-72878628D01*
X123670114Y-72878628D02*
X123717733Y-72831009D01*
X123717733Y-72831009D02*
X123812971Y-72783390D01*
X133242857Y-56959580D02*
X133290476Y-57007200D01*
X133290476Y-57007200D02*
X133433333Y-57054819D01*
X133433333Y-57054819D02*
X133528571Y-57054819D01*
X133528571Y-57054819D02*
X133671428Y-57007200D01*
X133671428Y-57007200D02*
X133766666Y-56911961D01*
X133766666Y-56911961D02*
X133814285Y-56816723D01*
X133814285Y-56816723D02*
X133861904Y-56626247D01*
X133861904Y-56626247D02*
X133861904Y-56483390D01*
X133861904Y-56483390D02*
X133814285Y-56292914D01*
X133814285Y-56292914D02*
X133766666Y-56197676D01*
X133766666Y-56197676D02*
X133671428Y-56102438D01*
X133671428Y-56102438D02*
X133528571Y-56054819D01*
X133528571Y-56054819D02*
X133433333Y-56054819D01*
X133433333Y-56054819D02*
X133290476Y-56102438D01*
X133290476Y-56102438D02*
X133242857Y-56150057D01*
X132290476Y-57054819D02*
X132861904Y-57054819D01*
X132576190Y-57054819D02*
X132576190Y-56054819D01*
X132576190Y-56054819D02*
X132671428Y-56197676D01*
X132671428Y-56197676D02*
X132766666Y-56292914D01*
X132766666Y-56292914D02*
X132861904Y-56340533D01*
X131433333Y-56054819D02*
X131623809Y-56054819D01*
X131623809Y-56054819D02*
X131719047Y-56102438D01*
X131719047Y-56102438D02*
X131766666Y-56150057D01*
X131766666Y-56150057D02*
X131861904Y-56292914D01*
X131861904Y-56292914D02*
X131909523Y-56483390D01*
X131909523Y-56483390D02*
X131909523Y-56864342D01*
X131909523Y-56864342D02*
X131861904Y-56959580D01*
X131861904Y-56959580D02*
X131814285Y-57007200D01*
X131814285Y-57007200D02*
X131719047Y-57054819D01*
X131719047Y-57054819D02*
X131528571Y-57054819D01*
X131528571Y-57054819D02*
X131433333Y-57007200D01*
X131433333Y-57007200D02*
X131385714Y-56959580D01*
X131385714Y-56959580D02*
X131338095Y-56864342D01*
X131338095Y-56864342D02*
X131338095Y-56626247D01*
X131338095Y-56626247D02*
X131385714Y-56531009D01*
X131385714Y-56531009D02*
X131433333Y-56483390D01*
X131433333Y-56483390D02*
X131528571Y-56435771D01*
X131528571Y-56435771D02*
X131719047Y-56435771D01*
X131719047Y-56435771D02*
X131814285Y-56483390D01*
X131814285Y-56483390D02*
X131861904Y-56531009D01*
X131861904Y-56531009D02*
X131909523Y-56626247D01*
X152198716Y-70957142D02*
X151722525Y-70623809D01*
X152198716Y-70385714D02*
X151198716Y-70385714D01*
X151198716Y-70385714D02*
X151198716Y-70766666D01*
X151198716Y-70766666D02*
X151246335Y-70861904D01*
X151246335Y-70861904D02*
X151293954Y-70909523D01*
X151293954Y-70909523D02*
X151389192Y-70957142D01*
X151389192Y-70957142D02*
X151532049Y-70957142D01*
X151532049Y-70957142D02*
X151627287Y-70909523D01*
X151627287Y-70909523D02*
X151674906Y-70861904D01*
X151674906Y-70861904D02*
X151722525Y-70766666D01*
X151722525Y-70766666D02*
X151722525Y-70385714D01*
X151198716Y-71814285D02*
X151198716Y-71623809D01*
X151198716Y-71623809D02*
X151246335Y-71528571D01*
X151246335Y-71528571D02*
X151293954Y-71480952D01*
X151293954Y-71480952D02*
X151436811Y-71385714D01*
X151436811Y-71385714D02*
X151627287Y-71338095D01*
X151627287Y-71338095D02*
X152008239Y-71338095D01*
X152008239Y-71338095D02*
X152103477Y-71385714D01*
X152103477Y-71385714D02*
X152151097Y-71433333D01*
X152151097Y-71433333D02*
X152198716Y-71528571D01*
X152198716Y-71528571D02*
X152198716Y-71719047D01*
X152198716Y-71719047D02*
X152151097Y-71814285D01*
X152151097Y-71814285D02*
X152103477Y-71861904D01*
X152103477Y-71861904D02*
X152008239Y-71909523D01*
X152008239Y-71909523D02*
X151770144Y-71909523D01*
X151770144Y-71909523D02*
X151674906Y-71861904D01*
X151674906Y-71861904D02*
X151627287Y-71814285D01*
X151627287Y-71814285D02*
X151579668Y-71719047D01*
X151579668Y-71719047D02*
X151579668Y-71528571D01*
X151579668Y-71528571D02*
X151627287Y-71433333D01*
X151627287Y-71433333D02*
X151674906Y-71385714D01*
X151674906Y-71385714D02*
X151770144Y-71338095D01*
X151198716Y-72242857D02*
X151198716Y-72861904D01*
X151198716Y-72861904D02*
X151579668Y-72528571D01*
X151579668Y-72528571D02*
X151579668Y-72671428D01*
X151579668Y-72671428D02*
X151627287Y-72766666D01*
X151627287Y-72766666D02*
X151674906Y-72814285D01*
X151674906Y-72814285D02*
X151770144Y-72861904D01*
X151770144Y-72861904D02*
X152008239Y-72861904D01*
X152008239Y-72861904D02*
X152103477Y-72814285D01*
X152103477Y-72814285D02*
X152151097Y-72766666D01*
X152151097Y-72766666D02*
X152198716Y-72671428D01*
X152198716Y-72671428D02*
X152198716Y-72385714D01*
X152198716Y-72385714D02*
X152151097Y-72290476D01*
X152151097Y-72290476D02*
X152103477Y-72242857D01*
X112742857Y-98559580D02*
X112790476Y-98607200D01*
X112790476Y-98607200D02*
X112933333Y-98654819D01*
X112933333Y-98654819D02*
X113028571Y-98654819D01*
X113028571Y-98654819D02*
X113171428Y-98607200D01*
X113171428Y-98607200D02*
X113266666Y-98511961D01*
X113266666Y-98511961D02*
X113314285Y-98416723D01*
X113314285Y-98416723D02*
X113361904Y-98226247D01*
X113361904Y-98226247D02*
X113361904Y-98083390D01*
X113361904Y-98083390D02*
X113314285Y-97892914D01*
X113314285Y-97892914D02*
X113266666Y-97797676D01*
X113266666Y-97797676D02*
X113171428Y-97702438D01*
X113171428Y-97702438D02*
X113028571Y-97654819D01*
X113028571Y-97654819D02*
X112933333Y-97654819D01*
X112933333Y-97654819D02*
X112790476Y-97702438D01*
X112790476Y-97702438D02*
X112742857Y-97750057D01*
X112361904Y-97750057D02*
X112314285Y-97702438D01*
X112314285Y-97702438D02*
X112219047Y-97654819D01*
X112219047Y-97654819D02*
X111980952Y-97654819D01*
X111980952Y-97654819D02*
X111885714Y-97702438D01*
X111885714Y-97702438D02*
X111838095Y-97750057D01*
X111838095Y-97750057D02*
X111790476Y-97845295D01*
X111790476Y-97845295D02*
X111790476Y-97940533D01*
X111790476Y-97940533D02*
X111838095Y-98083390D01*
X111838095Y-98083390D02*
X112409523Y-98654819D01*
X112409523Y-98654819D02*
X111790476Y-98654819D01*
X110885714Y-97654819D02*
X111361904Y-97654819D01*
X111361904Y-97654819D02*
X111409523Y-98131009D01*
X111409523Y-98131009D02*
X111361904Y-98083390D01*
X111361904Y-98083390D02*
X111266666Y-98035771D01*
X111266666Y-98035771D02*
X111028571Y-98035771D01*
X111028571Y-98035771D02*
X110933333Y-98083390D01*
X110933333Y-98083390D02*
X110885714Y-98131009D01*
X110885714Y-98131009D02*
X110838095Y-98226247D01*
X110838095Y-98226247D02*
X110838095Y-98464342D01*
X110838095Y-98464342D02*
X110885714Y-98559580D01*
X110885714Y-98559580D02*
X110933333Y-98607200D01*
X110933333Y-98607200D02*
X111028571Y-98654819D01*
X111028571Y-98654819D02*
X111266666Y-98654819D01*
X111266666Y-98654819D02*
X111361904Y-98607200D01*
X111361904Y-98607200D02*
X111409523Y-98559580D01*
X153349763Y-83582468D02*
X153349763Y-84391991D01*
X153349763Y-84391991D02*
X153302144Y-84487229D01*
X153302144Y-84487229D02*
X153254525Y-84534849D01*
X153254525Y-84534849D02*
X153159287Y-84582468D01*
X153159287Y-84582468D02*
X152968811Y-84582468D01*
X152968811Y-84582468D02*
X152873573Y-84534849D01*
X152873573Y-84534849D02*
X152825954Y-84487229D01*
X152825954Y-84487229D02*
X152778335Y-84391991D01*
X152778335Y-84391991D02*
X152778335Y-83582468D01*
X151778335Y-84582468D02*
X152349763Y-84582468D01*
X152064049Y-84582468D02*
X152064049Y-83582468D01*
X152064049Y-83582468D02*
X152159287Y-83725325D01*
X152159287Y-83725325D02*
X152254525Y-83820563D01*
X152254525Y-83820563D02*
X152349763Y-83868182D01*
X150825954Y-84582468D02*
X151397382Y-84582468D01*
X151111668Y-84582468D02*
X151111668Y-83582468D01*
X151111668Y-83582468D02*
X151206906Y-83725325D01*
X151206906Y-83725325D02*
X151302144Y-83820563D01*
X151302144Y-83820563D02*
X151397382Y-83868182D01*
X141495238Y-92250057D02*
X141590476Y-92202438D01*
X141590476Y-92202438D02*
X141685714Y-92107200D01*
X141685714Y-92107200D02*
X141828571Y-91964342D01*
X141828571Y-91964342D02*
X141923809Y-91916723D01*
X141923809Y-91916723D02*
X142019047Y-91916723D01*
X141971428Y-92154819D02*
X142066666Y-92107200D01*
X142066666Y-92107200D02*
X142161904Y-92011961D01*
X142161904Y-92011961D02*
X142209523Y-91821485D01*
X142209523Y-91821485D02*
X142209523Y-91488152D01*
X142209523Y-91488152D02*
X142161904Y-91297676D01*
X142161904Y-91297676D02*
X142066666Y-91202438D01*
X142066666Y-91202438D02*
X141971428Y-91154819D01*
X141971428Y-91154819D02*
X141780952Y-91154819D01*
X141780952Y-91154819D02*
X141685714Y-91202438D01*
X141685714Y-91202438D02*
X141590476Y-91297676D01*
X141590476Y-91297676D02*
X141542857Y-91488152D01*
X141542857Y-91488152D02*
X141542857Y-91821485D01*
X141542857Y-91821485D02*
X141590476Y-92011961D01*
X141590476Y-92011961D02*
X141685714Y-92107200D01*
X141685714Y-92107200D02*
X141780952Y-92154819D01*
X141780952Y-92154819D02*
X141971428Y-92154819D01*
X141161904Y-91250057D02*
X141114285Y-91202438D01*
X141114285Y-91202438D02*
X141019047Y-91154819D01*
X141019047Y-91154819D02*
X140780952Y-91154819D01*
X140780952Y-91154819D02*
X140685714Y-91202438D01*
X140685714Y-91202438D02*
X140638095Y-91250057D01*
X140638095Y-91250057D02*
X140590476Y-91345295D01*
X140590476Y-91345295D02*
X140590476Y-91440533D01*
X140590476Y-91440533D02*
X140638095Y-91583390D01*
X140638095Y-91583390D02*
X141209523Y-92154819D01*
X141209523Y-92154819D02*
X140590476Y-92154819D01*
X152242857Y-88059580D02*
X152290476Y-88107200D01*
X152290476Y-88107200D02*
X152433333Y-88154819D01*
X152433333Y-88154819D02*
X152528571Y-88154819D01*
X152528571Y-88154819D02*
X152671428Y-88107200D01*
X152671428Y-88107200D02*
X152766666Y-88011961D01*
X152766666Y-88011961D02*
X152814285Y-87916723D01*
X152814285Y-87916723D02*
X152861904Y-87726247D01*
X152861904Y-87726247D02*
X152861904Y-87583390D01*
X152861904Y-87583390D02*
X152814285Y-87392914D01*
X152814285Y-87392914D02*
X152766666Y-87297676D01*
X152766666Y-87297676D02*
X152671428Y-87202438D01*
X152671428Y-87202438D02*
X152528571Y-87154819D01*
X152528571Y-87154819D02*
X152433333Y-87154819D01*
X152433333Y-87154819D02*
X152290476Y-87202438D01*
X152290476Y-87202438D02*
X152242857Y-87250057D01*
X151290476Y-88154819D02*
X151861904Y-88154819D01*
X151576190Y-88154819D02*
X151576190Y-87154819D01*
X151576190Y-87154819D02*
X151671428Y-87297676D01*
X151671428Y-87297676D02*
X151766666Y-87392914D01*
X151766666Y-87392914D02*
X151861904Y-87440533D01*
X150719047Y-87583390D02*
X150814285Y-87535771D01*
X150814285Y-87535771D02*
X150861904Y-87488152D01*
X150861904Y-87488152D02*
X150909523Y-87392914D01*
X150909523Y-87392914D02*
X150909523Y-87345295D01*
X150909523Y-87345295D02*
X150861904Y-87250057D01*
X150861904Y-87250057D02*
X150814285Y-87202438D01*
X150814285Y-87202438D02*
X150719047Y-87154819D01*
X150719047Y-87154819D02*
X150528571Y-87154819D01*
X150528571Y-87154819D02*
X150433333Y-87202438D01*
X150433333Y-87202438D02*
X150385714Y-87250057D01*
X150385714Y-87250057D02*
X150338095Y-87345295D01*
X150338095Y-87345295D02*
X150338095Y-87392914D01*
X150338095Y-87392914D02*
X150385714Y-87488152D01*
X150385714Y-87488152D02*
X150433333Y-87535771D01*
X150433333Y-87535771D02*
X150528571Y-87583390D01*
X150528571Y-87583390D02*
X150719047Y-87583390D01*
X150719047Y-87583390D02*
X150814285Y-87631009D01*
X150814285Y-87631009D02*
X150861904Y-87678628D01*
X150861904Y-87678628D02*
X150909523Y-87773866D01*
X150909523Y-87773866D02*
X150909523Y-87964342D01*
X150909523Y-87964342D02*
X150861904Y-88059580D01*
X150861904Y-88059580D02*
X150814285Y-88107200D01*
X150814285Y-88107200D02*
X150719047Y-88154819D01*
X150719047Y-88154819D02*
X150528571Y-88154819D01*
X150528571Y-88154819D02*
X150433333Y-88107200D01*
X150433333Y-88107200D02*
X150385714Y-88059580D01*
X150385714Y-88059580D02*
X150338095Y-87964342D01*
X150338095Y-87964342D02*
X150338095Y-87773866D01*
X150338095Y-87773866D02*
X150385714Y-87678628D01*
X150385714Y-87678628D02*
X150433333Y-87631009D01*
X150433333Y-87631009D02*
X150528571Y-87583390D01*
X134061904Y-41554819D02*
X134061904Y-42364342D01*
X134061904Y-42364342D02*
X134014285Y-42459580D01*
X134014285Y-42459580D02*
X133966666Y-42507200D01*
X133966666Y-42507200D02*
X133871428Y-42554819D01*
X133871428Y-42554819D02*
X133680952Y-42554819D01*
X133680952Y-42554819D02*
X133585714Y-42507200D01*
X133585714Y-42507200D02*
X133538095Y-42459580D01*
X133538095Y-42459580D02*
X133490476Y-42364342D01*
X133490476Y-42364342D02*
X133490476Y-41554819D01*
X132871428Y-41983390D02*
X132966666Y-41935771D01*
X132966666Y-41935771D02*
X133014285Y-41888152D01*
X133014285Y-41888152D02*
X133061904Y-41792914D01*
X133061904Y-41792914D02*
X133061904Y-41745295D01*
X133061904Y-41745295D02*
X133014285Y-41650057D01*
X133014285Y-41650057D02*
X132966666Y-41602438D01*
X132966666Y-41602438D02*
X132871428Y-41554819D01*
X132871428Y-41554819D02*
X132680952Y-41554819D01*
X132680952Y-41554819D02*
X132585714Y-41602438D01*
X132585714Y-41602438D02*
X132538095Y-41650057D01*
X132538095Y-41650057D02*
X132490476Y-41745295D01*
X132490476Y-41745295D02*
X132490476Y-41792914D01*
X132490476Y-41792914D02*
X132538095Y-41888152D01*
X132538095Y-41888152D02*
X132585714Y-41935771D01*
X132585714Y-41935771D02*
X132680952Y-41983390D01*
X132680952Y-41983390D02*
X132871428Y-41983390D01*
X132871428Y-41983390D02*
X132966666Y-42031009D01*
X132966666Y-42031009D02*
X133014285Y-42078628D01*
X133014285Y-42078628D02*
X133061904Y-42173866D01*
X133061904Y-42173866D02*
X133061904Y-42364342D01*
X133061904Y-42364342D02*
X133014285Y-42459580D01*
X133014285Y-42459580D02*
X132966666Y-42507200D01*
X132966666Y-42507200D02*
X132871428Y-42554819D01*
X132871428Y-42554819D02*
X132680952Y-42554819D01*
X132680952Y-42554819D02*
X132585714Y-42507200D01*
X132585714Y-42507200D02*
X132538095Y-42459580D01*
X132538095Y-42459580D02*
X132490476Y-42364342D01*
X132490476Y-42364342D02*
X132490476Y-42173866D01*
X132490476Y-42173866D02*
X132538095Y-42078628D01*
X132538095Y-42078628D02*
X132585714Y-42031009D01*
X132585714Y-42031009D02*
X132680952Y-41983390D01*
X154042857Y-62954819D02*
X154376190Y-62478628D01*
X154614285Y-62954819D02*
X154614285Y-61954819D01*
X154614285Y-61954819D02*
X154233333Y-61954819D01*
X154233333Y-61954819D02*
X154138095Y-62002438D01*
X154138095Y-62002438D02*
X154090476Y-62050057D01*
X154090476Y-62050057D02*
X154042857Y-62145295D01*
X154042857Y-62145295D02*
X154042857Y-62288152D01*
X154042857Y-62288152D02*
X154090476Y-62383390D01*
X154090476Y-62383390D02*
X154138095Y-62431009D01*
X154138095Y-62431009D02*
X154233333Y-62478628D01*
X154233333Y-62478628D02*
X154614285Y-62478628D01*
X153138095Y-61954819D02*
X153614285Y-61954819D01*
X153614285Y-61954819D02*
X153661904Y-62431009D01*
X153661904Y-62431009D02*
X153614285Y-62383390D01*
X153614285Y-62383390D02*
X153519047Y-62335771D01*
X153519047Y-62335771D02*
X153280952Y-62335771D01*
X153280952Y-62335771D02*
X153185714Y-62383390D01*
X153185714Y-62383390D02*
X153138095Y-62431009D01*
X153138095Y-62431009D02*
X153090476Y-62526247D01*
X153090476Y-62526247D02*
X153090476Y-62764342D01*
X153090476Y-62764342D02*
X153138095Y-62859580D01*
X153138095Y-62859580D02*
X153185714Y-62907200D01*
X153185714Y-62907200D02*
X153280952Y-62954819D01*
X153280952Y-62954819D02*
X153519047Y-62954819D01*
X153519047Y-62954819D02*
X153614285Y-62907200D01*
X153614285Y-62907200D02*
X153661904Y-62859580D01*
X152233333Y-61954819D02*
X152423809Y-61954819D01*
X152423809Y-61954819D02*
X152519047Y-62002438D01*
X152519047Y-62002438D02*
X152566666Y-62050057D01*
X152566666Y-62050057D02*
X152661904Y-62192914D01*
X152661904Y-62192914D02*
X152709523Y-62383390D01*
X152709523Y-62383390D02*
X152709523Y-62764342D01*
X152709523Y-62764342D02*
X152661904Y-62859580D01*
X152661904Y-62859580D02*
X152614285Y-62907200D01*
X152614285Y-62907200D02*
X152519047Y-62954819D01*
X152519047Y-62954819D02*
X152328571Y-62954819D01*
X152328571Y-62954819D02*
X152233333Y-62907200D01*
X152233333Y-62907200D02*
X152185714Y-62859580D01*
X152185714Y-62859580D02*
X152138095Y-62764342D01*
X152138095Y-62764342D02*
X152138095Y-62526247D01*
X152138095Y-62526247D02*
X152185714Y-62431009D01*
X152185714Y-62431009D02*
X152233333Y-62383390D01*
X152233333Y-62383390D02*
X152328571Y-62335771D01*
X152328571Y-62335771D02*
X152519047Y-62335771D01*
X152519047Y-62335771D02*
X152614285Y-62383390D01*
X152614285Y-62383390D02*
X152661904Y-62431009D01*
X152661904Y-62431009D02*
X152709523Y-62526247D01*
X159242857Y-91554819D02*
X159576190Y-91078628D01*
X159814285Y-91554819D02*
X159814285Y-90554819D01*
X159814285Y-90554819D02*
X159433333Y-90554819D01*
X159433333Y-90554819D02*
X159338095Y-90602438D01*
X159338095Y-90602438D02*
X159290476Y-90650057D01*
X159290476Y-90650057D02*
X159242857Y-90745295D01*
X159242857Y-90745295D02*
X159242857Y-90888152D01*
X159242857Y-90888152D02*
X159290476Y-90983390D01*
X159290476Y-90983390D02*
X159338095Y-91031009D01*
X159338095Y-91031009D02*
X159433333Y-91078628D01*
X159433333Y-91078628D02*
X159814285Y-91078628D01*
X158385714Y-90888152D02*
X158385714Y-91554819D01*
X158623809Y-90507200D02*
X158861904Y-91221485D01*
X158861904Y-91221485D02*
X158242857Y-91221485D01*
X157909523Y-90650057D02*
X157861904Y-90602438D01*
X157861904Y-90602438D02*
X157766666Y-90554819D01*
X157766666Y-90554819D02*
X157528571Y-90554819D01*
X157528571Y-90554819D02*
X157433333Y-90602438D01*
X157433333Y-90602438D02*
X157385714Y-90650057D01*
X157385714Y-90650057D02*
X157338095Y-90745295D01*
X157338095Y-90745295D02*
X157338095Y-90840533D01*
X157338095Y-90840533D02*
X157385714Y-90983390D01*
X157385714Y-90983390D02*
X157957142Y-91554819D01*
X157957142Y-91554819D02*
X157338095Y-91554819D01*
X142954819Y-71257142D02*
X142478628Y-70923809D01*
X142954819Y-70685714D02*
X141954819Y-70685714D01*
X141954819Y-70685714D02*
X141954819Y-71066666D01*
X141954819Y-71066666D02*
X142002438Y-71161904D01*
X142002438Y-71161904D02*
X142050057Y-71209523D01*
X142050057Y-71209523D02*
X142145295Y-71257142D01*
X142145295Y-71257142D02*
X142288152Y-71257142D01*
X142288152Y-71257142D02*
X142383390Y-71209523D01*
X142383390Y-71209523D02*
X142431009Y-71161904D01*
X142431009Y-71161904D02*
X142478628Y-71066666D01*
X142478628Y-71066666D02*
X142478628Y-70685714D01*
X141954819Y-72114285D02*
X141954819Y-71923809D01*
X141954819Y-71923809D02*
X142002438Y-71828571D01*
X142002438Y-71828571D02*
X142050057Y-71780952D01*
X142050057Y-71780952D02*
X142192914Y-71685714D01*
X142192914Y-71685714D02*
X142383390Y-71638095D01*
X142383390Y-71638095D02*
X142764342Y-71638095D01*
X142764342Y-71638095D02*
X142859580Y-71685714D01*
X142859580Y-71685714D02*
X142907200Y-71733333D01*
X142907200Y-71733333D02*
X142954819Y-71828571D01*
X142954819Y-71828571D02*
X142954819Y-72019047D01*
X142954819Y-72019047D02*
X142907200Y-72114285D01*
X142907200Y-72114285D02*
X142859580Y-72161904D01*
X142859580Y-72161904D02*
X142764342Y-72209523D01*
X142764342Y-72209523D02*
X142526247Y-72209523D01*
X142526247Y-72209523D02*
X142431009Y-72161904D01*
X142431009Y-72161904D02*
X142383390Y-72114285D01*
X142383390Y-72114285D02*
X142335771Y-72019047D01*
X142335771Y-72019047D02*
X142335771Y-71828571D01*
X142335771Y-71828571D02*
X142383390Y-71733333D01*
X142383390Y-71733333D02*
X142431009Y-71685714D01*
X142431009Y-71685714D02*
X142526247Y-71638095D01*
X141954819Y-73114285D02*
X141954819Y-72638095D01*
X141954819Y-72638095D02*
X142431009Y-72590476D01*
X142431009Y-72590476D02*
X142383390Y-72638095D01*
X142383390Y-72638095D02*
X142335771Y-72733333D01*
X142335771Y-72733333D02*
X142335771Y-72971428D01*
X142335771Y-72971428D02*
X142383390Y-73066666D01*
X142383390Y-73066666D02*
X142431009Y-73114285D01*
X142431009Y-73114285D02*
X142526247Y-73161904D01*
X142526247Y-73161904D02*
X142764342Y-73161904D01*
X142764342Y-73161904D02*
X142859580Y-73114285D01*
X142859580Y-73114285D02*
X142907200Y-73066666D01*
X142907200Y-73066666D02*
X142954819Y-72971428D01*
X142954819Y-72971428D02*
X142954819Y-72733333D01*
X142954819Y-72733333D02*
X142907200Y-72638095D01*
X142907200Y-72638095D02*
X142859580Y-72590476D01*
X136954819Y-71257142D02*
X136478628Y-70923809D01*
X136954819Y-70685714D02*
X135954819Y-70685714D01*
X135954819Y-70685714D02*
X135954819Y-71066666D01*
X135954819Y-71066666D02*
X136002438Y-71161904D01*
X136002438Y-71161904D02*
X136050057Y-71209523D01*
X136050057Y-71209523D02*
X136145295Y-71257142D01*
X136145295Y-71257142D02*
X136288152Y-71257142D01*
X136288152Y-71257142D02*
X136383390Y-71209523D01*
X136383390Y-71209523D02*
X136431009Y-71161904D01*
X136431009Y-71161904D02*
X136478628Y-71066666D01*
X136478628Y-71066666D02*
X136478628Y-70685714D01*
X135954819Y-72114285D02*
X135954819Y-71923809D01*
X135954819Y-71923809D02*
X136002438Y-71828571D01*
X136002438Y-71828571D02*
X136050057Y-71780952D01*
X136050057Y-71780952D02*
X136192914Y-71685714D01*
X136192914Y-71685714D02*
X136383390Y-71638095D01*
X136383390Y-71638095D02*
X136764342Y-71638095D01*
X136764342Y-71638095D02*
X136859580Y-71685714D01*
X136859580Y-71685714D02*
X136907200Y-71733333D01*
X136907200Y-71733333D02*
X136954819Y-71828571D01*
X136954819Y-71828571D02*
X136954819Y-72019047D01*
X136954819Y-72019047D02*
X136907200Y-72114285D01*
X136907200Y-72114285D02*
X136859580Y-72161904D01*
X136859580Y-72161904D02*
X136764342Y-72209523D01*
X136764342Y-72209523D02*
X136526247Y-72209523D01*
X136526247Y-72209523D02*
X136431009Y-72161904D01*
X136431009Y-72161904D02*
X136383390Y-72114285D01*
X136383390Y-72114285D02*
X136335771Y-72019047D01*
X136335771Y-72019047D02*
X136335771Y-71828571D01*
X136335771Y-71828571D02*
X136383390Y-71733333D01*
X136383390Y-71733333D02*
X136431009Y-71685714D01*
X136431009Y-71685714D02*
X136526247Y-71638095D01*
X135954819Y-73066666D02*
X135954819Y-72876190D01*
X135954819Y-72876190D02*
X136002438Y-72780952D01*
X136002438Y-72780952D02*
X136050057Y-72733333D01*
X136050057Y-72733333D02*
X136192914Y-72638095D01*
X136192914Y-72638095D02*
X136383390Y-72590476D01*
X136383390Y-72590476D02*
X136764342Y-72590476D01*
X136764342Y-72590476D02*
X136859580Y-72638095D01*
X136859580Y-72638095D02*
X136907200Y-72685714D01*
X136907200Y-72685714D02*
X136954819Y-72780952D01*
X136954819Y-72780952D02*
X136954819Y-72971428D01*
X136954819Y-72971428D02*
X136907200Y-73066666D01*
X136907200Y-73066666D02*
X136859580Y-73114285D01*
X136859580Y-73114285D02*
X136764342Y-73161904D01*
X136764342Y-73161904D02*
X136526247Y-73161904D01*
X136526247Y-73161904D02*
X136431009Y-73114285D01*
X136431009Y-73114285D02*
X136383390Y-73066666D01*
X136383390Y-73066666D02*
X136335771Y-72971428D01*
X136335771Y-72971428D02*
X136335771Y-72780952D01*
X136335771Y-72780952D02*
X136383390Y-72685714D01*
X136383390Y-72685714D02*
X136431009Y-72638095D01*
X136431009Y-72638095D02*
X136526247Y-72590476D01*
X140954819Y-71257142D02*
X140478628Y-70923809D01*
X140954819Y-70685714D02*
X139954819Y-70685714D01*
X139954819Y-70685714D02*
X139954819Y-71066666D01*
X139954819Y-71066666D02*
X140002438Y-71161904D01*
X140002438Y-71161904D02*
X140050057Y-71209523D01*
X140050057Y-71209523D02*
X140145295Y-71257142D01*
X140145295Y-71257142D02*
X140288152Y-71257142D01*
X140288152Y-71257142D02*
X140383390Y-71209523D01*
X140383390Y-71209523D02*
X140431009Y-71161904D01*
X140431009Y-71161904D02*
X140478628Y-71066666D01*
X140478628Y-71066666D02*
X140478628Y-70685714D01*
X139954819Y-72114285D02*
X139954819Y-71923809D01*
X139954819Y-71923809D02*
X140002438Y-71828571D01*
X140002438Y-71828571D02*
X140050057Y-71780952D01*
X140050057Y-71780952D02*
X140192914Y-71685714D01*
X140192914Y-71685714D02*
X140383390Y-71638095D01*
X140383390Y-71638095D02*
X140764342Y-71638095D01*
X140764342Y-71638095D02*
X140859580Y-71685714D01*
X140859580Y-71685714D02*
X140907200Y-71733333D01*
X140907200Y-71733333D02*
X140954819Y-71828571D01*
X140954819Y-71828571D02*
X140954819Y-72019047D01*
X140954819Y-72019047D02*
X140907200Y-72114285D01*
X140907200Y-72114285D02*
X140859580Y-72161904D01*
X140859580Y-72161904D02*
X140764342Y-72209523D01*
X140764342Y-72209523D02*
X140526247Y-72209523D01*
X140526247Y-72209523D02*
X140431009Y-72161904D01*
X140431009Y-72161904D02*
X140383390Y-72114285D01*
X140383390Y-72114285D02*
X140335771Y-72019047D01*
X140335771Y-72019047D02*
X140335771Y-71828571D01*
X140335771Y-71828571D02*
X140383390Y-71733333D01*
X140383390Y-71733333D02*
X140431009Y-71685714D01*
X140431009Y-71685714D02*
X140526247Y-71638095D01*
X140288152Y-73066666D02*
X140954819Y-73066666D01*
X139907200Y-72828571D02*
X140621485Y-72590476D01*
X140621485Y-72590476D02*
X140621485Y-73209523D01*
X149342857Y-62954819D02*
X149676190Y-62478628D01*
X149914285Y-62954819D02*
X149914285Y-61954819D01*
X149914285Y-61954819D02*
X149533333Y-61954819D01*
X149533333Y-61954819D02*
X149438095Y-62002438D01*
X149438095Y-62002438D02*
X149390476Y-62050057D01*
X149390476Y-62050057D02*
X149342857Y-62145295D01*
X149342857Y-62145295D02*
X149342857Y-62288152D01*
X149342857Y-62288152D02*
X149390476Y-62383390D01*
X149390476Y-62383390D02*
X149438095Y-62431009D01*
X149438095Y-62431009D02*
X149533333Y-62478628D01*
X149533333Y-62478628D02*
X149914285Y-62478628D01*
X148438095Y-61954819D02*
X148914285Y-61954819D01*
X148914285Y-61954819D02*
X148961904Y-62431009D01*
X148961904Y-62431009D02*
X148914285Y-62383390D01*
X148914285Y-62383390D02*
X148819047Y-62335771D01*
X148819047Y-62335771D02*
X148580952Y-62335771D01*
X148580952Y-62335771D02*
X148485714Y-62383390D01*
X148485714Y-62383390D02*
X148438095Y-62431009D01*
X148438095Y-62431009D02*
X148390476Y-62526247D01*
X148390476Y-62526247D02*
X148390476Y-62764342D01*
X148390476Y-62764342D02*
X148438095Y-62859580D01*
X148438095Y-62859580D02*
X148485714Y-62907200D01*
X148485714Y-62907200D02*
X148580952Y-62954819D01*
X148580952Y-62954819D02*
X148819047Y-62954819D01*
X148819047Y-62954819D02*
X148914285Y-62907200D01*
X148914285Y-62907200D02*
X148961904Y-62859580D01*
X147819047Y-62383390D02*
X147914285Y-62335771D01*
X147914285Y-62335771D02*
X147961904Y-62288152D01*
X147961904Y-62288152D02*
X148009523Y-62192914D01*
X148009523Y-62192914D02*
X148009523Y-62145295D01*
X148009523Y-62145295D02*
X147961904Y-62050057D01*
X147961904Y-62050057D02*
X147914285Y-62002438D01*
X147914285Y-62002438D02*
X147819047Y-61954819D01*
X147819047Y-61954819D02*
X147628571Y-61954819D01*
X147628571Y-61954819D02*
X147533333Y-62002438D01*
X147533333Y-62002438D02*
X147485714Y-62050057D01*
X147485714Y-62050057D02*
X147438095Y-62145295D01*
X147438095Y-62145295D02*
X147438095Y-62192914D01*
X147438095Y-62192914D02*
X147485714Y-62288152D01*
X147485714Y-62288152D02*
X147533333Y-62335771D01*
X147533333Y-62335771D02*
X147628571Y-62383390D01*
X147628571Y-62383390D02*
X147819047Y-62383390D01*
X147819047Y-62383390D02*
X147914285Y-62431009D01*
X147914285Y-62431009D02*
X147961904Y-62478628D01*
X147961904Y-62478628D02*
X148009523Y-62573866D01*
X148009523Y-62573866D02*
X148009523Y-62764342D01*
X148009523Y-62764342D02*
X147961904Y-62859580D01*
X147961904Y-62859580D02*
X147914285Y-62907200D01*
X147914285Y-62907200D02*
X147819047Y-62954819D01*
X147819047Y-62954819D02*
X147628571Y-62954819D01*
X147628571Y-62954819D02*
X147533333Y-62907200D01*
X147533333Y-62907200D02*
X147485714Y-62859580D01*
X147485714Y-62859580D02*
X147438095Y-62764342D01*
X147438095Y-62764342D02*
X147438095Y-62573866D01*
X147438095Y-62573866D02*
X147485714Y-62478628D01*
X147485714Y-62478628D02*
X147533333Y-62431009D01*
X147533333Y-62431009D02*
X147628571Y-62383390D01*
X130313028Y-85839819D02*
X130646361Y-85363628D01*
X130884456Y-85839819D02*
X130884456Y-84839819D01*
X130884456Y-84839819D02*
X130503504Y-84839819D01*
X130503504Y-84839819D02*
X130408266Y-84887438D01*
X130408266Y-84887438D02*
X130360647Y-84935057D01*
X130360647Y-84935057D02*
X130313028Y-85030295D01*
X130313028Y-85030295D02*
X130313028Y-85173152D01*
X130313028Y-85173152D02*
X130360647Y-85268390D01*
X130360647Y-85268390D02*
X130408266Y-85316009D01*
X130408266Y-85316009D02*
X130503504Y-85363628D01*
X130503504Y-85363628D02*
X130884456Y-85363628D01*
X129408266Y-84839819D02*
X129884456Y-84839819D01*
X129884456Y-84839819D02*
X129932075Y-85316009D01*
X129932075Y-85316009D02*
X129884456Y-85268390D01*
X129884456Y-85268390D02*
X129789218Y-85220771D01*
X129789218Y-85220771D02*
X129551123Y-85220771D01*
X129551123Y-85220771D02*
X129455885Y-85268390D01*
X129455885Y-85268390D02*
X129408266Y-85316009D01*
X129408266Y-85316009D02*
X129360647Y-85411247D01*
X129360647Y-85411247D02*
X129360647Y-85649342D01*
X129360647Y-85649342D02*
X129408266Y-85744580D01*
X129408266Y-85744580D02*
X129455885Y-85792200D01*
X129455885Y-85792200D02*
X129551123Y-85839819D01*
X129551123Y-85839819D02*
X129789218Y-85839819D01*
X129789218Y-85839819D02*
X129884456Y-85792200D01*
X129884456Y-85792200D02*
X129932075Y-85744580D01*
X128741599Y-84839819D02*
X128646361Y-84839819D01*
X128646361Y-84839819D02*
X128551123Y-84887438D01*
X128551123Y-84887438D02*
X128503504Y-84935057D01*
X128503504Y-84935057D02*
X128455885Y-85030295D01*
X128455885Y-85030295D02*
X128408266Y-85220771D01*
X128408266Y-85220771D02*
X128408266Y-85458866D01*
X128408266Y-85458866D02*
X128455885Y-85649342D01*
X128455885Y-85649342D02*
X128503504Y-85744580D01*
X128503504Y-85744580D02*
X128551123Y-85792200D01*
X128551123Y-85792200D02*
X128646361Y-85839819D01*
X128646361Y-85839819D02*
X128741599Y-85839819D01*
X128741599Y-85839819D02*
X128836837Y-85792200D01*
X128836837Y-85792200D02*
X128884456Y-85744580D01*
X128884456Y-85744580D02*
X128932075Y-85649342D01*
X128932075Y-85649342D02*
X128979694Y-85458866D01*
X128979694Y-85458866D02*
X128979694Y-85220771D01*
X128979694Y-85220771D02*
X128932075Y-85030295D01*
X128932075Y-85030295D02*
X128884456Y-84935057D01*
X128884456Y-84935057D02*
X128836837Y-84887438D01*
X128836837Y-84887438D02*
X128741599Y-84839819D01*
X145742857Y-75754819D02*
X146076190Y-75278628D01*
X146314285Y-75754819D02*
X146314285Y-74754819D01*
X146314285Y-74754819D02*
X145933333Y-74754819D01*
X145933333Y-74754819D02*
X145838095Y-74802438D01*
X145838095Y-74802438D02*
X145790476Y-74850057D01*
X145790476Y-74850057D02*
X145742857Y-74945295D01*
X145742857Y-74945295D02*
X145742857Y-75088152D01*
X145742857Y-75088152D02*
X145790476Y-75183390D01*
X145790476Y-75183390D02*
X145838095Y-75231009D01*
X145838095Y-75231009D02*
X145933333Y-75278628D01*
X145933333Y-75278628D02*
X146314285Y-75278628D01*
X145361904Y-74850057D02*
X145314285Y-74802438D01*
X145314285Y-74802438D02*
X145219047Y-74754819D01*
X145219047Y-74754819D02*
X144980952Y-74754819D01*
X144980952Y-74754819D02*
X144885714Y-74802438D01*
X144885714Y-74802438D02*
X144838095Y-74850057D01*
X144838095Y-74850057D02*
X144790476Y-74945295D01*
X144790476Y-74945295D02*
X144790476Y-75040533D01*
X144790476Y-75040533D02*
X144838095Y-75183390D01*
X144838095Y-75183390D02*
X145409523Y-75754819D01*
X145409523Y-75754819D02*
X144790476Y-75754819D01*
X143933333Y-75088152D02*
X143933333Y-75754819D01*
X144171428Y-74707200D02*
X144409523Y-75421485D01*
X144409523Y-75421485D02*
X143790476Y-75421485D01*
X148112319Y-71057142D02*
X147636128Y-70723809D01*
X148112319Y-70485714D02*
X147112319Y-70485714D01*
X147112319Y-70485714D02*
X147112319Y-70866666D01*
X147112319Y-70866666D02*
X147159938Y-70961904D01*
X147159938Y-70961904D02*
X147207557Y-71009523D01*
X147207557Y-71009523D02*
X147302795Y-71057142D01*
X147302795Y-71057142D02*
X147445652Y-71057142D01*
X147445652Y-71057142D02*
X147540890Y-71009523D01*
X147540890Y-71009523D02*
X147588509Y-70961904D01*
X147588509Y-70961904D02*
X147636128Y-70866666D01*
X147636128Y-70866666D02*
X147636128Y-70485714D01*
X147112319Y-71914285D02*
X147112319Y-71723809D01*
X147112319Y-71723809D02*
X147159938Y-71628571D01*
X147159938Y-71628571D02*
X147207557Y-71580952D01*
X147207557Y-71580952D02*
X147350414Y-71485714D01*
X147350414Y-71485714D02*
X147540890Y-71438095D01*
X147540890Y-71438095D02*
X147921842Y-71438095D01*
X147921842Y-71438095D02*
X148017080Y-71485714D01*
X148017080Y-71485714D02*
X148064700Y-71533333D01*
X148064700Y-71533333D02*
X148112319Y-71628571D01*
X148112319Y-71628571D02*
X148112319Y-71819047D01*
X148112319Y-71819047D02*
X148064700Y-71914285D01*
X148064700Y-71914285D02*
X148017080Y-71961904D01*
X148017080Y-71961904D02*
X147921842Y-72009523D01*
X147921842Y-72009523D02*
X147683747Y-72009523D01*
X147683747Y-72009523D02*
X147588509Y-71961904D01*
X147588509Y-71961904D02*
X147540890Y-71914285D01*
X147540890Y-71914285D02*
X147493271Y-71819047D01*
X147493271Y-71819047D02*
X147493271Y-71628571D01*
X147493271Y-71628571D02*
X147540890Y-71533333D01*
X147540890Y-71533333D02*
X147588509Y-71485714D01*
X147588509Y-71485714D02*
X147683747Y-71438095D01*
X148112319Y-72961904D02*
X148112319Y-72390476D01*
X148112319Y-72676190D02*
X147112319Y-72676190D01*
X147112319Y-72676190D02*
X147255176Y-72580952D01*
X147255176Y-72580952D02*
X147350414Y-72485714D01*
X147350414Y-72485714D02*
X147398033Y-72390476D01*
X155742857Y-91554819D02*
X156076190Y-91078628D01*
X156314285Y-91554819D02*
X156314285Y-90554819D01*
X156314285Y-90554819D02*
X155933333Y-90554819D01*
X155933333Y-90554819D02*
X155838095Y-90602438D01*
X155838095Y-90602438D02*
X155790476Y-90650057D01*
X155790476Y-90650057D02*
X155742857Y-90745295D01*
X155742857Y-90745295D02*
X155742857Y-90888152D01*
X155742857Y-90888152D02*
X155790476Y-90983390D01*
X155790476Y-90983390D02*
X155838095Y-91031009D01*
X155838095Y-91031009D02*
X155933333Y-91078628D01*
X155933333Y-91078628D02*
X156314285Y-91078628D01*
X154885714Y-90888152D02*
X154885714Y-91554819D01*
X155123809Y-90507200D02*
X155361904Y-91221485D01*
X155361904Y-91221485D02*
X154742857Y-91221485D01*
X153838095Y-91554819D02*
X154409523Y-91554819D01*
X154123809Y-91554819D02*
X154123809Y-90554819D01*
X154123809Y-90554819D02*
X154219047Y-90697676D01*
X154219047Y-90697676D02*
X154314285Y-90792914D01*
X154314285Y-90792914D02*
X154409523Y-90840533D01*
X153542857Y-58854819D02*
X153876190Y-58378628D01*
X154114285Y-58854819D02*
X154114285Y-57854819D01*
X154114285Y-57854819D02*
X153733333Y-57854819D01*
X153733333Y-57854819D02*
X153638095Y-57902438D01*
X153638095Y-57902438D02*
X153590476Y-57950057D01*
X153590476Y-57950057D02*
X153542857Y-58045295D01*
X153542857Y-58045295D02*
X153542857Y-58188152D01*
X153542857Y-58188152D02*
X153590476Y-58283390D01*
X153590476Y-58283390D02*
X153638095Y-58331009D01*
X153638095Y-58331009D02*
X153733333Y-58378628D01*
X153733333Y-58378628D02*
X154114285Y-58378628D01*
X152638095Y-57854819D02*
X153114285Y-57854819D01*
X153114285Y-57854819D02*
X153161904Y-58331009D01*
X153161904Y-58331009D02*
X153114285Y-58283390D01*
X153114285Y-58283390D02*
X153019047Y-58235771D01*
X153019047Y-58235771D02*
X152780952Y-58235771D01*
X152780952Y-58235771D02*
X152685714Y-58283390D01*
X152685714Y-58283390D02*
X152638095Y-58331009D01*
X152638095Y-58331009D02*
X152590476Y-58426247D01*
X152590476Y-58426247D02*
X152590476Y-58664342D01*
X152590476Y-58664342D02*
X152638095Y-58759580D01*
X152638095Y-58759580D02*
X152685714Y-58807200D01*
X152685714Y-58807200D02*
X152780952Y-58854819D01*
X152780952Y-58854819D02*
X153019047Y-58854819D01*
X153019047Y-58854819D02*
X153114285Y-58807200D01*
X153114285Y-58807200D02*
X153161904Y-58759580D01*
X151733333Y-58188152D02*
X151733333Y-58854819D01*
X151971428Y-57807200D02*
X152209523Y-58521485D01*
X152209523Y-58521485D02*
X151590476Y-58521485D01*
%TO.C,C26*%
D12*
X117338748Y-88665000D02*
X117861252Y-88665000D01*
X117338748Y-90135000D02*
X117861252Y-90135000D01*
%TO.C,R27*%
X161132500Y-80827064D02*
X161132500Y-80372936D01*
X162602500Y-80827064D02*
X162602500Y-80372936D01*
%TO.C,R39*%
X147472936Y-92074632D02*
X147927064Y-92074632D01*
X147472936Y-93544632D02*
X147927064Y-93544632D01*
%TO.C,C30*%
X145270323Y-88866051D02*
X144747819Y-88866051D01*
X145270323Y-90336051D02*
X144747819Y-90336051D01*
%TO.C,R32*%
X140782936Y-96506250D02*
X141237064Y-96506250D01*
X140782936Y-97976250D02*
X141237064Y-97976250D01*
%TO.C,U9*%
X142540000Y-46750000D02*
X142540000Y-44800000D01*
X142540000Y-46750000D02*
X142540000Y-48700000D01*
X147660000Y-46750000D02*
X147660000Y-44800000D01*
X147660000Y-46750000D02*
X147660000Y-48700000D01*
X142635000Y-44050000D02*
X142305000Y-43810000D01*
X142305000Y-44290000D01*
X142635000Y-44050000D01*
G36*
X142635000Y-44050000D02*
G01*
X142305000Y-44290000D01*
X142305000Y-43810000D01*
X142635000Y-44050000D01*
G37*
%TO.C,C32*%
X131665000Y-82561252D02*
X131665000Y-82038748D01*
X133135000Y-82561252D02*
X133135000Y-82038748D01*
%TO.C,D8*%
X142130000Y-55325000D02*
X138270000Y-55325000D01*
X142130000Y-55325000D02*
X142130000Y-57325000D01*
X142130000Y-57325000D02*
X138270000Y-57325000D01*
%TO.C,R67*%
X137937500Y-67934564D02*
X137937500Y-67480436D01*
X139407500Y-67934564D02*
X139407500Y-67480436D01*
%TO.C,C29*%
X134747819Y-88866051D02*
X135270323Y-88866051D01*
X134747819Y-90336051D02*
X135270323Y-90336051D01*
%TO.C,R60*%
X148922500Y-67200436D02*
X148922500Y-67654564D01*
X150392500Y-67200436D02*
X150392500Y-67654564D01*
%TO.C,Q5*%
X150140000Y-93709632D02*
X150140000Y-92034632D01*
X150140000Y-93709632D02*
X150140000Y-94359632D01*
X153260000Y-93709632D02*
X153260000Y-93059632D01*
X153260000Y-93709632D02*
X153260000Y-94359632D01*
%TO.C,Q1*%
X129692500Y-94052500D02*
X129692500Y-92377500D01*
X129692500Y-94052500D02*
X129692500Y-94702500D01*
X132812500Y-94052500D02*
X132812500Y-93402500D01*
X132812500Y-94052500D02*
X132812500Y-94702500D01*
%TO.C,R48*%
X132227064Y-74665000D02*
X131772936Y-74665000D01*
X132227064Y-76135000D02*
X131772936Y-76135000D01*
%TO.C,R21*%
X156027064Y-51465000D02*
X155572936Y-51465000D01*
X156027064Y-52935000D02*
X155572936Y-52935000D01*
%TO.C,R31*%
X127025436Y-92417500D02*
X127479564Y-92417500D01*
X127025436Y-93887500D02*
X127479564Y-93887500D01*
%TO.C,R34*%
X136732500Y-93746686D02*
X136732500Y-94200814D01*
X138202500Y-93746686D02*
X138202500Y-94200814D01*
%TO.C,R59*%
X139397936Y-59790000D02*
X139852064Y-59790000D01*
X139397936Y-61260000D02*
X139852064Y-61260000D01*
%TO.C,C21*%
X147565000Y-82261252D02*
X147565000Y-81738748D01*
X149035000Y-82261252D02*
X149035000Y-81738748D01*
%TO.C,R22*%
X154065000Y-48405436D02*
X154065000Y-48859564D01*
X155535000Y-48405436D02*
X155535000Y-48859564D01*
%TO.C,C17*%
X144938748Y-52265000D02*
X145461252Y-52265000D01*
X144938748Y-53735000D02*
X145461252Y-53735000D01*
%TO.C,R23*%
X157119804Y-88951598D02*
X156665676Y-88951598D01*
X157119804Y-90421598D02*
X156665676Y-90421598D01*
%TO.C,C19*%
X162061252Y-88952649D02*
X161538748Y-88952649D01*
X162061252Y-90422649D02*
X161538748Y-90422649D01*
%TO.C,C27*%
X127561252Y-88665000D02*
X127038748Y-88665000D01*
X127561252Y-90135000D02*
X127038748Y-90135000D01*
%TO.C,R47*%
X140225394Y-88865000D02*
X139771266Y-88865000D01*
X140225394Y-90335000D02*
X139771266Y-90335000D01*
%TO.C,D9*%
X146680000Y-55325000D02*
X142820000Y-55325000D01*
X146680000Y-55325000D02*
X146680000Y-57325000D01*
X146680000Y-57325000D02*
X142820000Y-57325000D01*
%TO.C,R28*%
X122727064Y-88665000D02*
X122272936Y-88665000D01*
X122727064Y-90135000D02*
X122272936Y-90135000D01*
%TO.C,D4*%
X135310000Y-96313750D02*
X138410000Y-96313750D01*
X138410000Y-96313750D02*
X138410000Y-98233750D01*
X138410000Y-98233750D02*
X135310000Y-98233750D01*
%TO.C,C24*%
X121211252Y-78390000D02*
X120688748Y-78390000D01*
X121211252Y-79860000D02*
X120688748Y-79860000D01*
%TO.C,R62*%
X152922500Y-67200436D02*
X152922500Y-67654564D01*
X154392500Y-67200436D02*
X154392500Y-67654564D01*
%TO.C,R30*%
X108765181Y-95474003D02*
X108311053Y-95474003D01*
X108765181Y-96944003D02*
X108311053Y-96944003D01*
%TO.C,Q6*%
X161757500Y-92273382D02*
X161107500Y-92273382D01*
X161757500Y-92273382D02*
X162407500Y-92273382D01*
X161757500Y-95393382D02*
X160082500Y-95393382D01*
X161757500Y-95393382D02*
X162407500Y-95393382D01*
%TO.C,R55*%
X144449564Y-57722500D02*
X143995436Y-57722500D01*
X144449564Y-59192500D02*
X143995436Y-59192500D01*
%TO.C,R51*%
X144365000Y-80627064D02*
X144365000Y-80172936D01*
X145835000Y-80627064D02*
X145835000Y-80172936D01*
%TO.C,R57*%
X143995436Y-59822500D02*
X144449564Y-59822500D01*
X143995436Y-61292500D02*
X144449564Y-61292500D01*
%TO.C,R40*%
X161230436Y-96163382D02*
X161684564Y-96163382D01*
X161230436Y-97633382D02*
X161684564Y-97633382D01*
%TO.C,R33*%
X134417500Y-94200814D02*
X134417500Y-93746686D01*
X135887500Y-94200814D02*
X135887500Y-93746686D01*
%TO.C,D6*%
X155757500Y-95970882D02*
X158857500Y-95970882D01*
X158857500Y-95970882D02*
X158857500Y-97890882D01*
X158857500Y-97890882D02*
X155757500Y-97890882D01*
%TO.C,C22*%
X118256748Y-74265000D02*
X118779252Y-74265000D01*
X118256748Y-75735000D02*
X118779252Y-75735000D01*
%TO.C,U14*%
X138809071Y-77840000D02*
X136859071Y-77840000D01*
X138809071Y-77840000D02*
X140759071Y-77840000D01*
X138809071Y-82960000D02*
X136859071Y-82960000D01*
X138809071Y-82960000D02*
X140759071Y-82960000D01*
X136109071Y-82865000D02*
X135869071Y-83195000D01*
X136349071Y-83195000D01*
X136109071Y-82865000D01*
G36*
X136349071Y-83195000D02*
G01*
X135869071Y-83195000D01*
X136109071Y-82865000D01*
X136349071Y-83195000D01*
G37*
%TO.C,C23*%
X118256748Y-76265000D02*
X118779252Y-76265000D01*
X118256748Y-77735000D02*
X118779252Y-77735000D01*
%TO.C,C28*%
X121210452Y-72165000D02*
X120687948Y-72165000D01*
X121210452Y-73635000D02*
X120687948Y-73635000D01*
%TO.C,C16*%
X132306848Y-53465000D02*
X132829352Y-53465000D01*
X132306848Y-54935000D02*
X132829352Y-54935000D01*
%TO.C,R63*%
X150922500Y-67200436D02*
X150922500Y-67654564D01*
X152392500Y-67200436D02*
X152392500Y-67654564D01*
%TO.C,C25*%
X108273148Y-97515000D02*
X108795652Y-97515000D01*
X108273148Y-98985000D02*
X108795652Y-98985000D01*
%TO.C,U11*%
X155667500Y-78010149D02*
X153717500Y-78010149D01*
X155667500Y-78010149D02*
X157617500Y-78010149D01*
X155667500Y-83130149D02*
X153717500Y-83130149D01*
X155667500Y-83130149D02*
X157617500Y-83130149D01*
X152967500Y-83035149D02*
X152727500Y-83365149D01*
X153207500Y-83365149D01*
X152967500Y-83035149D01*
G36*
X153207500Y-83365149D02*
G01*
X152727500Y-83365149D01*
X152967500Y-83035149D01*
X153207500Y-83365149D01*
G37*
%TO.C,Q2*%
X141310000Y-92616250D02*
X140660000Y-92616250D01*
X141310000Y-92616250D02*
X141960000Y-92616250D01*
X141310000Y-95736250D02*
X139635000Y-95736250D01*
X141310000Y-95736250D02*
X141960000Y-95736250D01*
%TO.C,C18*%
X151745711Y-88952649D02*
X152268215Y-88952649D01*
X151745711Y-90422649D02*
X152268215Y-90422649D01*
%TO.C,U8*%
X130697500Y-48000000D02*
X130697500Y-46050000D01*
X130697500Y-48000000D02*
X130697500Y-49950000D01*
X135817500Y-48000000D02*
X135817500Y-46050000D01*
X135817500Y-48000000D02*
X135817500Y-49950000D01*
X130792500Y-45300000D02*
X130462500Y-45060000D01*
X130462500Y-45540000D01*
X130792500Y-45300000D01*
G36*
X130792500Y-45300000D02*
G01*
X130462500Y-45540000D01*
X130462500Y-45060000D01*
X130792500Y-45300000D01*
G37*
%TO.C,R56*%
X153147936Y-59790000D02*
X153602064Y-59790000D01*
X153147936Y-61260000D02*
X153602064Y-61260000D01*
%TO.C,R42*%
X157180000Y-93403818D02*
X157180000Y-93857946D01*
X158650000Y-93403818D02*
X158650000Y-93857946D01*
%TO.C,R65*%
X141937500Y-67934564D02*
X141937500Y-67480436D01*
X143407500Y-67934564D02*
X143407500Y-67480436D01*
%TO.C,R66*%
X135937500Y-67934564D02*
X135937500Y-67480436D01*
X137407500Y-67934564D02*
X137407500Y-67480436D01*
%TO.C,R64*%
X139937500Y-67934564D02*
X139937500Y-67480436D01*
X141407500Y-67934564D02*
X141407500Y-67480436D01*
%TO.C,R58*%
X148495436Y-59822500D02*
X148949564Y-59822500D01*
X148495436Y-61292500D02*
X148949564Y-61292500D01*
%TO.C,R50*%
X128765000Y-82427064D02*
X128765000Y-81972936D01*
X130235000Y-82427064D02*
X130235000Y-81972936D01*
%TO.C,R24*%
X149227064Y-74565320D02*
X148772936Y-74565320D01*
X149227064Y-76035320D02*
X148772936Y-76035320D01*
%TO.C,R61*%
X146922500Y-67200436D02*
X146922500Y-67654564D01*
X148392500Y-67200436D02*
X148392500Y-67654564D01*
%TO.C,R41*%
X154865000Y-93857946D02*
X154865000Y-93403818D01*
X156335000Y-93857946D02*
X156335000Y-93403818D01*
%TO.C,R54*%
X148899564Y-57722500D02*
X148445436Y-57722500D01*
X148899564Y-59192500D02*
X148445436Y-59192500D01*
%TD*%
M02*
