%TF.GenerationSoftware,KiCad,Pcbnew,10.0.3*%
%TF.CreationDate,2026-08-28T17:51:20+08:00*%
%TF.ProjectId,BDUCU,42445543-552e-46b6-9963-61645f706362,rev?*%
%TF.SameCoordinates,Original*%
%TF.FileFunction,Soldermask,Top*%
%TF.FilePolarity,Negative*%
%FSLAX46Y46*%
G04 Gerber Fmt 4.6, Leading zero omitted, Abs format (unit mm)*
G04 Created by KiCad (PCBNEW 10.0.3) date 2026-08-28 17:51:20*
%MOMM*%
%LPD*%
G01*
G04 APERTURE LIST*
G04 Aperture macros list*
%AMRoundRect*
0 Rectangle with rounded corners*
0 $1 Rounding radius*
0 $2 $3 $4 $5 $6 $7 $8 $9 X,Y pos of 4 corners*
0 Add a 4 corners polygon primitive as box body*
4,1,4,$2,$3,$4,$5,$6,$7,$8,$9,$2,$3,0*
0 Add four circle primitives for the rounded corners*
1,1,$1+$1,$2,$3*
1,1,$1+$1,$4,$5*
1,1,$1+$1,$6,$7*
1,1,$1+$1,$8,$9*
0 Add four rect primitives between the rounded corners*
20,1,$1+$1,$2,$3,$4,$5,0*
20,1,$1+$1,$4,$5,$6,$7,0*
20,1,$1+$1,$6,$7,$8,$9,0*
20,1,$1+$1,$8,$9,$2,$3,0*%
G04 Aperture macros list end*
%ADD10C,3.000000*%
%ADD11RoundRect,0.283334X-0.566666X-0.566666X0.566666X-0.566666X0.566666X0.566666X-0.566666X0.566666X0*%
%ADD12C,1.700000*%
%ADD13C,4.300000*%
%ADD14RoundRect,0.278125X-0.474375X-0.389375X0.474375X-0.389375X0.474375X0.389375X-0.474375X0.389375X0*%
%ADD15RoundRect,0.150000X-0.150000X1.350000X-0.150000X-1.350000X0.150000X-1.350000X0.150000X1.350000X0*%
%ADD16RoundRect,0.150000X-0.150000X1.337500X-0.150000X-1.337500X0.150000X-1.337500X0.150000X1.337500X0*%
%ADD17RoundRect,0.278125X0.389375X-0.474375X0.389375X0.474375X-0.389375X0.474375X-0.389375X-0.474375X0*%
%ADD18C,2.400000*%
%ADD19R,5.500000X2.500000*%
%ADD20RoundRect,0.305575X-0.460025X-0.412525X0.460025X-0.412525X0.460025X0.412525X-0.460025X0.412525X0*%
%ADD21RoundRect,0.308511X-0.457089X-0.416489X0.457089X-0.416489X0.457089X0.416489X-0.457089X0.416489X0*%
%ADD22RoundRect,0.305575X0.412525X-0.460025X0.412525X0.460025X-0.412525X0.460025X-0.412525X-0.460025X0*%
%ADD23RoundRect,0.308511X0.416489X-0.457089X0.416489X0.457089X-0.416489X0.457089X-0.416489X-0.457089X0*%
%ADD24RoundRect,0.250000X0.300000X0.300000X-0.300000X0.300000X-0.300000X-0.300000X0.300000X-0.300000X0*%
%ADD25RoundRect,0.305575X0.460025X0.412525X-0.460025X0.412525X-0.460025X-0.412525X0.460025X-0.412525X0*%
%ADD26RoundRect,0.308511X0.457089X0.416489X-0.457089X0.416489X-0.457089X-0.416489X0.457089X-0.416489X0*%
%ADD27RoundRect,0.278125X0.474375X0.389375X-0.474375X0.389375X-0.474375X-0.389375X0.474375X-0.389375X0*%
%ADD28RoundRect,0.293478X0.381522X0.406522X-0.381522X0.406522X-0.381522X-0.406522X0.381522X-0.406522X0*%
%ADD29RoundRect,0.250001X0.759999X-0.499999X0.759999X0.499999X-0.759999X0.499999X-0.759999X-0.499999X0*%
%ADD30O,2.020000X1.500000*%
%ADD31R,3.250000X3.430000*%
%ADD32RoundRect,0.305575X-0.412525X0.460025X-0.412525X-0.460025X0.412525X-0.460025X0.412525X0.460025X0*%
%ADD33RoundRect,0.308511X-0.416489X0.457089X-0.416489X-0.457089X0.416489X-0.457089X0.416489X0.457089X0*%
%ADD34RoundRect,0.250000X-0.300000X0.300000X-0.300000X-0.300000X0.300000X-0.300000X0.300000X0.300000X0*%
%ADD35RoundRect,0.100000X0.100000X-0.687500X0.100000X0.687500X-0.100000X0.687500X-0.100000X-0.687500X0*%
%ADD36RoundRect,0.100000X0.099999X-0.687500X0.099999X0.687500X-0.099999X0.687500X-0.099999X-0.687500X0*%
%ADD37RoundRect,0.278125X-0.389375X0.474375X-0.389375X-0.474375X0.389375X-0.474375X0.389375X0.474375X0*%
%ADD38R,2.400000X2.400000*%
%ADD39RoundRect,0.396226X0.953774X-0.653774X0.953774X0.653774X-0.953774X0.653774X-0.953774X-0.653774X0*%
%ADD40RoundRect,0.162500X-1.002500X-0.162500X1.002500X-0.162500X1.002500X0.162500X-1.002500X0.162500X0*%
%ADD41RoundRect,0.160500X-1.004500X-0.160500X1.004500X-0.160500X1.004500X0.160500X-1.004500X0.160500X0*%
%ADD42RoundRect,0.162500X-1.097500X-0.162500X1.097500X-0.162500X1.097500X0.162500X-1.097500X0.162500X0*%
%ADD43RoundRect,0.250001X-0.499999X-0.759999X0.499999X-0.759999X0.499999X0.759999X-0.499999X0.759999X0*%
%ADD44O,1.500000X2.020000*%
%ADD45R,0.800000X2.310000*%
%ADD46R,0.800000X2.240000*%
%ADD47RoundRect,0.162500X-0.162500X1.052500X-0.162500X-1.052500X0.162500X-1.052500X0.162500X1.052500X0*%
%ADD48RoundRect,0.150000X-0.750000X-0.150000X0.750000X-0.150000X0.750000X0.150000X-0.750000X0.150000X0*%
%ADD49RoundRect,0.150000X0.150000X-0.750000X0.150000X0.750000X-0.150000X0.750000X-0.150000X-0.750000X0*%
%ADD50RoundRect,0.150000X-0.150000X1.000000X-0.150000X-1.000000X0.150000X-1.000000X0.150000X1.000000X0*%
%ADD51RoundRect,0.151250X-0.151250X0.998750X-0.151250X-0.998750X0.151250X-0.998750X0.151250X0.998750X0*%
%ADD52RoundRect,0.148750X-0.148750X1.001250X-0.148750X-1.001250X0.148750X-1.001250X0.148750X1.001250X0*%
%ADD53RoundRect,0.283334X-0.566666X0.566666X-0.566666X-0.566666X0.566666X-0.566666X0.566666X0.566666X0*%
%ADD54RoundRect,0.250000X0.300000X-0.300000X0.300000X0.300000X-0.300000X0.300000X-0.300000X-0.300000X0*%
%ADD55RoundRect,0.390352X0.934648X-0.722148X0.934648X0.722148X-0.934648X0.722148X-0.934648X-0.722148X0*%
%ADD56R,1.700000X1.700000*%
%ADD57RoundRect,0.150000X-1.350000X-0.150000X1.350000X-0.150000X1.350000X0.150000X-1.350000X0.150000X0*%
%ADD58RoundRect,0.150000X-1.337500X-0.150000X1.337500X-0.150000X1.337500X0.150000X-1.337500X0.150000X0*%
%ADD59RoundRect,0.304348X0.395652X-0.420652X0.395652X0.420652X-0.395652X0.420652X-0.395652X-0.420652X0*%
%ADD60R,0.550000X2.000000*%
%ADD61R,2.000000X0.550000*%
%ADD62R,2.000000X0.525000*%
%ADD63R,2.000000X0.575000*%
%ADD64R,0.525000X2.000000*%
%ADD65RoundRect,0.120600X-0.281400X1.111400X-0.281400X-1.111400X0.281400X-1.111400X0.281400X1.111400X0*%
%ADD66RoundRect,0.122100X-0.284900X1.109900X-0.284900X-1.109900X0.284900X-1.109900X0.284900X1.109900X0*%
%ADD67R,1.500000X1.500000*%
G04 APERTURE END LIST*
D10*
%TO.C,J13*%
X150600000Y-45465000D03*
D11*
X149100000Y-49785000D03*
D12*
X152100000Y-49785000D03*
X149100000Y-52785000D03*
X152100000Y-52785000D03*
%TD*%
D13*
%TO.C,REF\u002A\u002A*%
X118250000Y-45000000D03*
%TD*%
D14*
%TO.C,R17*%
X89983642Y-95210600D03*
X92288642Y-95210600D03*
%TD*%
D15*
%TO.C,U7*%
X111270000Y-65500000D03*
X110000000Y-65500000D03*
D16*
X108865000Y-65487500D03*
D15*
X107460000Y-65500000D03*
X107460000Y-71500000D03*
X108730000Y-71500000D03*
X110000000Y-71500000D03*
X111270000Y-71500000D03*
%TD*%
D17*
%TO.C,R29*%
X130383750Y-56505000D03*
X130383750Y-54200000D03*
%TD*%
D18*
%TO.C,Y2*%
X125093282Y-87000000D03*
D19*
X127006719Y-86991762D03*
X118193282Y-87000000D03*
D18*
X120013282Y-87000000D03*
%TD*%
D20*
%TO.C,C20*%
X147784400Y-77493100D03*
D21*
X150215600Y-77500000D03*
%TD*%
D22*
%TO.C,C11*%
X108493100Y-49845000D03*
D23*
X108500000Y-47413800D03*
%TD*%
D24*
%TO.C,D10*%
X155022500Y-56325000D03*
X152222500Y-56325000D03*
%TD*%
D25*
%TO.C,C1*%
X91815600Y-54606900D03*
D26*
X89384400Y-54600000D03*
%TD*%
D25*
%TO.C,C2*%
X92315600Y-84506900D03*
D26*
X89884400Y-84500000D03*
%TD*%
D27*
%TO.C,R52*%
X140825000Y-58490000D03*
X138520000Y-58490000D03*
%TD*%
D22*
%TO.C,C4*%
X94893100Y-78315600D03*
D23*
X94900000Y-75884400D03*
%TD*%
D27*
%TO.C,R49*%
X133152500Y-75332820D03*
X130847500Y-75332820D03*
%TD*%
D17*
%TO.C,R13*%
X80067500Y-91152500D03*
X80067500Y-88847500D03*
%TD*%
D28*
%TO.C,D5*%
X157882500Y-92530882D03*
X155632500Y-92530882D03*
%TD*%
D10*
%TO.C,J4*%
X44800000Y-56250000D03*
D29*
X49120000Y-57750000D03*
D30*
X49120000Y-54750000D03*
%TD*%
D18*
%TO.C,Y3*%
X142502353Y-87000000D03*
D19*
X144415790Y-86991762D03*
X135602353Y-87000000D03*
D18*
X137422353Y-87000000D03*
%TD*%
D31*
%TO.C,F2*%
X68000000Y-55400000D03*
X58500000Y-55400000D03*
%TD*%
D32*
%TO.C,CA1*%
X156806900Y-66384400D03*
D33*
X156800000Y-68815600D03*
%TD*%
D32*
%TO.C,C10*%
X110006900Y-90684400D03*
D33*
X110000000Y-93115600D03*
%TD*%
D34*
%TO.C,D1*%
X83000000Y-53900000D03*
X83000000Y-56700000D03*
%TD*%
D25*
%TO.C,C8*%
X92215600Y-65606900D03*
D26*
X89784400Y-65600000D03*
%TD*%
D35*
%TO.C,U13*%
X135193674Y-83112500D03*
X135843674Y-83112500D03*
X136493674Y-83112500D03*
D36*
X137143675Y-83112500D03*
D35*
X137793674Y-83112500D03*
X138443674Y-83112500D03*
X139093674Y-83112500D03*
X139743674Y-83112500D03*
X140393674Y-83112500D03*
X141043674Y-83112500D03*
X141043674Y-77287500D03*
X140393674Y-77287500D03*
X139743674Y-77287500D03*
X139093674Y-77287500D03*
X138443674Y-77287500D03*
X137793674Y-77287500D03*
X137143674Y-77287500D03*
D36*
X136493675Y-77287500D03*
X135843675Y-77287500D03*
X135193675Y-77287500D03*
%TD*%
D37*
%TO.C,R9*%
X80132500Y-48347500D03*
X80132500Y-50652500D03*
%TD*%
D27*
%TO.C,R69*%
X118465000Y-67680000D03*
X116160000Y-67680000D03*
%TD*%
D38*
%TO.C,L1*%
X125375000Y-59025000D03*
X125375000Y-65425000D03*
%TD*%
D20*
%TO.C,C37*%
X125250000Y-67700000D03*
D21*
X127681200Y-67706900D03*
%TD*%
D39*
%TO.C,C33*%
X116175000Y-55225000D03*
X116175000Y-51325000D03*
%TD*%
D27*
%TO.C,R6*%
X71602500Y-97532500D03*
X69297500Y-97532500D03*
%TD*%
D22*
%TO.C,C36*%
X120653100Y-63406400D03*
D23*
X120660000Y-60975200D03*
%TD*%
D25*
%TO.C,CA2*%
X154590600Y-60531900D03*
D26*
X152159400Y-60525000D03*
%TD*%
D14*
%TO.C,R7*%
X74847500Y-42267500D03*
X77152500Y-42267500D03*
%TD*%
D10*
%TO.C,J7*%
X127500000Y-45465000D03*
D11*
X127500000Y-49785000D03*
D12*
X127500000Y-52785000D03*
%TD*%
D17*
%TO.C,R4*%
X65567500Y-96552500D03*
X65567500Y-94247500D03*
%TD*%
%TO.C,R38*%
X157882500Y-96935882D03*
X157882500Y-94630882D03*
%TD*%
D37*
%TO.C,R8*%
X80132500Y-42947500D03*
X80132500Y-45252500D03*
%TD*%
D22*
%TO.C,C3*%
X91683100Y-48215600D03*
D23*
X91690000Y-45784400D03*
%TD*%
D14*
%TO.C,R35*%
X146547500Y-96624632D03*
X148852500Y-96624632D03*
%TD*%
D25*
%TO.C,CA4*%
X140840600Y-60531900D03*
D26*
X138409400Y-60525000D03*
%TD*%
D31*
%TO.C,F1*%
X67450000Y-84800000D03*
X57950000Y-84800000D03*
%TD*%
D25*
%TO.C,CA3*%
X145438100Y-60564400D03*
D26*
X143006900Y-60557500D03*
%TD*%
D40*
%TO.C,U4*%
X96736500Y-54054000D03*
X96736500Y-56594000D03*
X96736500Y-59134000D03*
D41*
X96736500Y-61670000D03*
D42*
X106311500Y-61674000D03*
X106311500Y-59134000D03*
X106311500Y-56594000D03*
X106311500Y-54054000D03*
%TD*%
D14*
%TO.C,R11*%
X74847500Y-97467500D03*
X77152500Y-97467500D03*
%TD*%
D10*
%TO.C,J3*%
X57000000Y-44800000D03*
D43*
X55500000Y-49120000D03*
D44*
X58500000Y-49120000D03*
%TD*%
D27*
%TO.C,R68*%
X122965000Y-67680000D03*
X120660000Y-67680000D03*
%TD*%
D25*
%TO.C,C7*%
X92315600Y-92756900D03*
D26*
X89884400Y-92750000D03*
%TD*%
D13*
%TO.C,REF\u002A\u002A*%
X175000000Y-45000000D03*
%TD*%
D10*
%TO.C,J2*%
X44750000Y-69875000D03*
D29*
X49070000Y-71375000D03*
D30*
X49070000Y-68375000D03*
%TD*%
D45*
%TO.C,U5*%
X105410000Y-79965000D03*
X104140000Y-79965000D03*
D46*
X105410000Y-73740000D03*
X104140000Y-73740000D03*
X99060000Y-73740000D03*
X97790000Y-73740000D03*
D45*
X97790000Y-79965000D03*
%TD*%
D14*
%TO.C,R18*%
X89847500Y-63267500D03*
X92152500Y-63267500D03*
%TD*%
D47*
%TO.C,U17*%
X118100000Y-59330000D03*
X117150000Y-59330000D03*
X116200000Y-59330000D03*
X116200000Y-62900000D03*
X117150000Y-62900000D03*
X118100000Y-62900000D03*
%TD*%
D37*
%TO.C,R3*%
X65632500Y-42947500D03*
X65632500Y-45252500D03*
%TD*%
D48*
%TO.C,Q8*%
X140210000Y-94973750D03*
X140210000Y-96873750D03*
X142410000Y-95923750D03*
%TD*%
D22*
%TO.C,C9*%
X112593100Y-61664800D03*
D23*
X112600000Y-59233600D03*
%TD*%
D49*
%TO.C,Q3*%
X150750000Y-96857132D03*
X152650000Y-96857132D03*
X151700000Y-94657132D03*
%TD*%
D13*
%TO.C,REF\u002A\u002A*%
X45000000Y-95000000D03*
%TD*%
D27*
%TO.C,R5*%
X71602500Y-42332500D03*
X69297500Y-42332500D03*
%TD*%
D50*
%TO.C,U16*%
X145677500Y-63927500D03*
X144407500Y-63927500D03*
X143137500Y-63927500D03*
X141867500Y-63927500D03*
X140597500Y-63927500D03*
D51*
X139330000Y-63927500D03*
D50*
X138057500Y-63927500D03*
X136787500Y-63927500D03*
X136787500Y-69227500D03*
X138057500Y-69227500D03*
X139327500Y-69227500D03*
X140597500Y-69227500D03*
X141867500Y-69227500D03*
D52*
X143135000Y-69227500D03*
D50*
X144407500Y-69227500D03*
X145677500Y-69227500D03*
%TD*%
D37*
%TO.C,R19*%
X110232500Y-59296700D03*
X110232500Y-61601700D03*
%TD*%
D22*
%TO.C,C6*%
X92093100Y-78315600D03*
D23*
X92100000Y-75884400D03*
%TD*%
D14*
%TO.C,R43*%
X126100000Y-96967500D03*
X128405000Y-96967500D03*
%TD*%
D10*
%TO.C,J6*%
X174667094Y-83001515D03*
D53*
X170347094Y-80001515D03*
D12*
X170347094Y-83001515D03*
X170347094Y-86001515D03*
X167347094Y-80001515D03*
X167347094Y-83001515D03*
X167347094Y-86001515D03*
%TD*%
D20*
%TO.C,C39*%
X120534400Y-69993100D03*
D21*
X122965600Y-70000000D03*
%TD*%
D22*
%TO.C,C34*%
X119275000Y-55025000D03*
D23*
X119281900Y-52593800D03*
%TD*%
D54*
%TO.C,D2*%
X83300000Y-85900000D03*
X83300000Y-83100000D03*
%TD*%
D17*
%TO.C,R12*%
X80067500Y-96802500D03*
X80067500Y-94497500D03*
%TD*%
D37*
%TO.C,R37*%
X155632500Y-94630882D03*
X155632500Y-96935882D03*
%TD*%
D13*
%TO.C,REF\u002A\u002A*%
X175000000Y-95000000D03*
%TD*%
D27*
%TO.C,R25*%
X150152500Y-75332820D03*
X147847500Y-75332820D03*
%TD*%
D20*
%TO.C,C31*%
X130884400Y-77393100D03*
D21*
X133315600Y-77400000D03*
%TD*%
D55*
%TO.C,F3*%
X131500000Y-68500000D03*
X131500000Y-64725000D03*
%TD*%
D27*
%TO.C,R26*%
X148452500Y-83132500D03*
X146147500Y-83132500D03*
%TD*%
D10*
%TO.C,J11*%
X164400000Y-45465000D03*
D11*
X162900000Y-49785000D03*
D12*
X165900000Y-49785000D03*
X162900000Y-52785000D03*
X165900000Y-52785000D03*
%TD*%
D32*
%TO.C,C15*%
X113206900Y-69584400D03*
D33*
X113200000Y-72015600D03*
%TD*%
D14*
%TO.C,R70*%
X116175000Y-69925000D03*
X118480000Y-69925000D03*
%TD*%
D56*
%TO.C,AVR-ISP1*%
X160325000Y-69460000D03*
D12*
X162865000Y-69460000D03*
X160325000Y-72000000D03*
X162865000Y-72000000D03*
X160325000Y-74540000D03*
X162865000Y-74540000D03*
%TD*%
D57*
%TO.C,U1*%
X86400000Y-56795000D03*
X86400000Y-58065000D03*
D58*
X86387500Y-59200000D03*
D57*
X86400000Y-60605000D03*
X92400000Y-60605000D03*
X92400000Y-59335000D03*
X92400000Y-58065000D03*
X92400000Y-56795000D03*
%TD*%
D25*
%TO.C,CA5*%
X149938100Y-60564400D03*
D26*
X147506900Y-60557500D03*
%TD*%
D37*
%TO.C,R10*%
X80132500Y-54147500D03*
X80132500Y-56452500D03*
%TD*%
D14*
%TO.C,R44*%
X139857500Y-92873750D03*
X142162500Y-92873750D03*
%TD*%
D22*
%TO.C,C14*%
X110803100Y-80015600D03*
D23*
X110810000Y-77584400D03*
%TD*%
D59*
%TO.C,D3*%
X132416250Y-56550000D03*
X132416250Y-54200000D03*
%TD*%
D13*
%TO.C,REF\u002A\u002A*%
X118250000Y-95000000D03*
%TD*%
D22*
%TO.C,C12*%
X107793100Y-80015600D03*
D23*
X107800000Y-77584400D03*
%TD*%
D27*
%TO.C,R53*%
X154527500Y-58490000D03*
X152222500Y-58490000D03*
%TD*%
D10*
%TO.C,J1*%
X44750000Y-83500000D03*
D29*
X49070000Y-85000000D03*
D30*
X49070000Y-82000000D03*
%TD*%
D22*
%TO.C,C5*%
X94693100Y-48215600D03*
D23*
X94700000Y-45784400D03*
%TD*%
D18*
%TO.C,Y1*%
X159493282Y-87041988D03*
D19*
X161406719Y-87033750D03*
X152593282Y-87041988D03*
D18*
X154413282Y-87041988D03*
%TD*%
D37*
%TO.C,R1*%
X65632500Y-48447500D03*
X65632500Y-50752500D03*
%TD*%
D49*
%TO.C,Q7*%
X130302500Y-97200000D03*
X132202500Y-97200000D03*
X131252500Y-95000000D03*
%TD*%
D13*
%TO.C,REF\u002A\u002A*%
X45000000Y-45000000D03*
%TD*%
D60*
%TO.C,U12*%
X117350000Y-83025000D03*
X118150000Y-83025000D03*
X118950000Y-83025000D03*
X119750000Y-83025000D03*
X120550000Y-83025000D03*
X121350000Y-83025000D03*
X122150000Y-83025000D03*
X122950000Y-83025000D03*
D61*
X124600000Y-81375000D03*
D62*
X124600000Y-80587500D03*
D63*
X124600000Y-79762500D03*
D61*
X124600000Y-78975000D03*
X124600000Y-78175000D03*
X124600000Y-77375000D03*
X124600000Y-76575000D03*
X124600000Y-75775000D03*
D60*
X122950000Y-74125000D03*
X122150000Y-74125000D03*
X121350000Y-74125000D03*
D64*
X120537500Y-74125000D03*
D60*
X119750000Y-74125000D03*
X118950000Y-74125000D03*
X118150000Y-74125000D03*
X117350000Y-74125000D03*
D61*
X115700000Y-75775000D03*
X115700000Y-76575000D03*
X115700000Y-77375000D03*
X115700000Y-78175000D03*
X115700000Y-78975000D03*
X115700000Y-79775000D03*
X115700000Y-80575000D03*
X115700000Y-81375000D03*
%TD*%
D24*
%TO.C,D11*%
X150320000Y-56325000D03*
X147520000Y-56325000D03*
%TD*%
D65*
%TO.C,U15*%
X154967500Y-63807500D03*
X153697500Y-63807500D03*
X152427500Y-63807500D03*
X151157500Y-63807500D03*
X149887500Y-63807500D03*
X148617500Y-63807500D03*
X147347500Y-63807500D03*
X147347500Y-69047500D03*
D66*
X148612500Y-69047500D03*
D65*
X149887500Y-69047500D03*
X151157500Y-69047500D03*
X152427500Y-69047500D03*
X153697500Y-69047500D03*
X154967500Y-69047500D03*
%TD*%
D37*
%TO.C,R45*%
X135185000Y-94973750D03*
X135185000Y-97278750D03*
%TD*%
D28*
%TO.C,D7*%
X137435000Y-92873750D03*
X135185000Y-92873750D03*
%TD*%
D40*
%TO.C,U6*%
X96765000Y-85163000D03*
X96765000Y-87703000D03*
X96765000Y-90243000D03*
D41*
X96765000Y-92779000D03*
D42*
X106340000Y-92783000D03*
X106340000Y-90243000D03*
X106340000Y-87703000D03*
X106340000Y-85163000D03*
%TD*%
D35*
%TO.C,U10*%
X152049218Y-83347649D03*
X152699218Y-83347649D03*
X153349218Y-83347649D03*
D36*
X153999219Y-83347649D03*
D35*
X154649218Y-83347649D03*
X155299218Y-83347649D03*
X155949218Y-83347649D03*
X156599218Y-83347649D03*
X157249218Y-83347649D03*
X157899218Y-83347649D03*
X157899218Y-77522649D03*
X157249218Y-77522649D03*
X156599218Y-77522649D03*
X155949218Y-77522649D03*
X155299218Y-77522649D03*
X154649218Y-77522649D03*
X153999218Y-77522649D03*
D36*
X153349219Y-77522649D03*
X152699219Y-77522649D03*
X152049219Y-77522649D03*
%TD*%
D17*
%TO.C,R14*%
X80067500Y-85652500D03*
X80067500Y-83347500D03*
%TD*%
D14*
%TO.C,R15*%
X89447500Y-52067500D03*
X91752500Y-52067500D03*
%TD*%
%TO.C,R16*%
X89947500Y-81867500D03*
X92252500Y-81867500D03*
%TD*%
D20*
%TO.C,C38*%
X125250000Y-70000000D03*
D21*
X127681200Y-70006900D03*
%TD*%
D32*
%TO.C,C35*%
X121788800Y-52593800D03*
D33*
X121781900Y-55025000D03*
%TD*%
D22*
%TO.C,C13*%
X110993100Y-49845000D03*
D23*
X111000000Y-47413800D03*
%TD*%
D14*
%TO.C,R36*%
X160305000Y-92530882D03*
X162610000Y-92530882D03*
%TD*%
D67*
%TO.C,SW1*%
X104638117Y-97209003D03*
X112438117Y-97209003D03*
%TD*%
D17*
%TO.C,R46*%
X137435000Y-97278750D03*
X137435000Y-94973750D03*
%TD*%
D10*
%TO.C,J10*%
X174635000Y-64860000D03*
X174635000Y-69560000D03*
D53*
X170315000Y-62700000D03*
D12*
X170315000Y-65700000D03*
X170315000Y-68700000D03*
X170315000Y-71700000D03*
X167315000Y-62700000D03*
X167315000Y-65700000D03*
X167315000Y-68700000D03*
X167315000Y-71700000D03*
%TD*%
D17*
%TO.C,R20*%
X112167500Y-93016359D03*
X112167500Y-90711359D03*
%TD*%
%TO.C,R2*%
X65567500Y-90952500D03*
X65567500Y-88647500D03*
%TD*%
D48*
%TO.C,Q4*%
X160657500Y-94630882D03*
X160657500Y-96530882D03*
X162857500Y-95580882D03*
%TD*%
D57*
%TO.C,U2*%
X86700000Y-86795000D03*
X86700000Y-88065000D03*
D58*
X86687500Y-89200000D03*
D57*
X86700000Y-90605000D03*
X92700000Y-90605000D03*
X92700000Y-89335000D03*
X92700000Y-88065000D03*
X92700000Y-86795000D03*
%TD*%
D45*
%TO.C,U3*%
X105410000Y-49845000D03*
X104140000Y-49845000D03*
D46*
X105410000Y-43620000D03*
X104140000Y-43620000D03*
X99060000Y-43620000D03*
X97790000Y-43620000D03*
D45*
X97790000Y-49845000D03*
%TD*%
D10*
%TO.C,J12*%
X139400000Y-45465000D03*
D11*
X137900000Y-49785000D03*
D12*
X140900000Y-49785000D03*
X137900000Y-52785000D03*
X140900000Y-52785000D03*
%TD*%
M02*
