M48
; DRILL file KiCad 10.0.3 date 2026-08-28T17:51:21
; FORMAT={-:-/ absolute / metric / decimal}
; #@! TF.CreationDate,2026-08-28T17:51:21+08:00
; #@! TF.GenerationSoftware,Kicad,Pcbnew,10.0.3
; #@! TF.FileFunction,Plated,1,2,PTH
FMAT,2
METRIC
; #@! TA.AperFunction,Plated,PTH,ViaDrill
T1C0.300
; #@! TA.AperFunction,Plated,PTH,ComponentDrill
T2C1.000
; #@! TA.AperFunction,Plated,PTH,ComponentDrill
T3C1.020
%
G90
G05
T1
X87.1Y-54.6
X89.847Y-63.267
X89.884Y-85.634
X89.884Y-91.384
X93.707Y-54.607
X94.1Y-84.5
X94.693Y-48.216
X94.893Y-78.316
X96.7Y-58.0
X96.8Y-89.0
X104.14Y-43.62
X104.638Y-97.209
X105.41Y-43.62
X106.7Y-42.85
X106.7Y-48.85
X106.7Y-50.85
X106.7Y-74.85
X106.7Y-88.85
X106.7Y-94.85
X107.319Y-98.257
X107.386Y-96.177
X107.46Y-65.5
X107.8Y-77.584
X108.5Y-47.414
X108.5Y-59.134
X108.5Y-90.3
X108.7Y-42.85
X108.7Y-44.85
X110.0Y-68.0
X110.0Y-93.116
X110.233Y-59.297
X110.7Y-42.85
X110.7Y-44.85
X110.7Y-52.85
X110.7Y-54.85
X110.7Y-56.85
X110.7Y-68.85
X110.7Y-82.85
X110.7Y-84.85
X110.7Y-88.85
X110.803Y-80.016
X111.0Y-47.414
X111.2Y-63.4
X111.2Y-86.85
X111.593Y-73.6
X112.4Y-97.2
X112.7Y-94.85
X112.8Y-78.6
X112.843Y-76.375
X112.843Y-77.4
X113.4Y-75.4
X113.6Y-79.025
X114.2Y-76.4
X114.7Y-44.85
X114.7Y-46.85
X114.7Y-48.85
X114.7Y-92.85
X114.7Y-94.85
X114.7Y-96.85
X114.875Y-70.4
X115.7Y-83.5
X115.8Y-74.2
X116.7Y-48.85
X117.2Y-66.0
X117.4Y-81.0
X118.1Y-59.33
X118.469Y-78.803
X118.48Y-69.925
X118.7Y-50.85
X118.7Y-80.85
X119.282Y-52.594
X119.719Y-76.985
X119.734Y-79.125
X120.534Y-69.993
X120.7Y-50.85
X121.0Y-43.0
X121.0Y-76.0
X121.2Y-66.2
X121.2Y-92.85
X121.2Y-96.85
X121.5Y-46.5
X121.789Y-52.594
X122.166Y-79.118
X122.2Y-76.8
X122.7Y-42.85
X122.7Y-44.85
X122.7Y-46.85
X122.7Y-50.85
X122.7Y-58.85
X122.7Y-64.85
X122.7Y-92.85
X122.7Y-94.85
X122.7Y-96.85
X122.95Y-77.45
X124.0Y-74.0
X124.6Y-83.0
X124.7Y-42.85
X124.7Y-44.85
X124.7Y-46.85
X124.7Y-54.85
X124.7Y-84.85
X126.0Y-74.0
X126.0Y-91.4
X126.1Y-75.775
X126.1Y-76.575
X126.115Y-93.2
X126.7Y-42.85
X126.7Y-54.85
X126.7Y-56.85
X126.7Y-84.85
X127.681Y-67.707
X127.681Y-70.007
X128.7Y-42.85
X128.7Y-54.85
X128.7Y-56.85
X128.7Y-58.85
X129.2Y-79.2
X129.532Y-81.047
X129.532Y-83.352
X130.3Y-89.3
X130.384Y-56.505
X130.7Y-42.85
X130.847Y-75.367
X131.3Y-85.0
X131.5Y-64.725
X131.649Y-79.835
X132.168Y-74.354
X132.2Y-95.1
X132.407Y-83.516
X132.416Y-56.55
X132.667Y-78.933
X132.675Y-79.819
X132.7Y-58.85
X132.7Y-60.85
X132.7Y-98.85
X133.2Y-96.6
X133.4Y-93.6
X133.5Y-95.1
X133.655Y-84.464
X133.784Y-54.2
X133.793Y-89.608
X134.495Y-76.055
X134.7Y-56.85
X134.7Y-58.85
X134.7Y-60.85
X134.7Y-62.85
X134.7Y-66.85
X134.7Y-68.85
X134.7Y-70.85
X134.7Y-98.85
X135.162Y-45.0
X136.2Y-94.0
X136.421Y-75.421
X136.7Y-42.85
X136.7Y-44.85
X136.7Y-46.85
X136.7Y-56.85
X136.7Y-58.85
X136.7Y-60.85
X137.0Y-74.6
X137.705Y-67.705
X138.058Y-63.927
X138.454Y-84.6
X138.52Y-58.49
X138.7Y-42.85
X138.7Y-54.85
X139.927Y-67.707
X140.0Y-71.5
X140.597Y-63.927
X140.825Y-58.49
X140.841Y-60.532
X141.32Y-56.325
X141.711Y-67.578
X142.162Y-92.874
X142.162Y-97.274
X142.5Y-77.0
X142.7Y-84.85
X143.137Y-63.927
X144.0Y-71.5
X144.2Y-96.0
X144.25Y-77.75
X144.272Y-67.337
X144.407Y-63.927
X144.7Y-84.85
X145.375Y-58.425
X145.375Y-60.59
X145.513Y-75.697
X145.557Y-74.857
X145.677Y-63.927
X145.87Y-56.325
X146.147Y-83.132
X146.225Y-89.594
X146.4Y-74.6
X146.416Y-53.0
X146.5Y-81.5
X146.547Y-96.625
X146.7Y-84.85
X147.005Y-43.75
X147.2Y-78.8
X147.347Y-63.807
X147.52Y-58.49
X147.625Y-66.275
X147.847Y-75.333
X148.308Y-79.292
X148.7Y-42.85
X148.7Y-94.85
X149.042Y-74.158
X149.625Y-66.275
X149.7Y-80.0
X149.875Y-60.501
X149.995Y-79.211
X150.25Y-71.25
X150.4Y-84.58
X150.6Y-50.0
X150.7Y-42.85
X150.791Y-89.695
X151.5Y-76.3
X151.6Y-92.2
X151.625Y-66.275
X152.222Y-58.49
X152.25Y-74.25
X152.65Y-94.757
X152.7Y-42.85
X152.7Y-44.85
X152.7Y-46.85
X153.234Y-75.334
X153.6Y-62.0
X153.625Y-66.275
X153.9Y-94.757
X154.528Y-58.49
X154.591Y-60.532
X154.7Y-42.85
X154.7Y-44.85
X154.7Y-70.85
X154.767Y-47.48
X155.0Y-65.75
X155.3Y-75.4
X155.3Y-84.8
X156.0Y-62.0
X156.7Y-42.85
X156.7Y-44.85
X156.7Y-46.85
X156.7Y-48.85
X156.7Y-74.85
X156.8Y-68.816
X156.952Y-52.167
X157.5Y-57.0
X158.7Y-42.85
X158.7Y-44.85
X158.7Y-46.85
X158.7Y-48.85
X158.7Y-50.85
X158.7Y-52.85
X158.7Y-60.85
X158.7Y-62.85
X158.7Y-64.85
X158.7Y-66.85
X158.7Y-72.85
X158.7Y-74.85
X158.7Y-84.85
X158.8Y-76.8
X160.7Y-42.85
X160.7Y-44.85
X160.7Y-46.85
X160.7Y-48.85
X160.7Y-50.85
X160.7Y-64.85
X160.7Y-76.85
X160.7Y-80.85
X160.7Y-84.85
X161.0Y-63.0
X161.0Y-84.0
X162.346Y-47.204
X162.4Y-62.6
X162.61Y-92.531
X162.61Y-96.931
X162.7Y-42.85
X162.7Y-54.85
X162.7Y-66.85
X162.7Y-84.85
X163.0Y-84.0
X163.016Y-89.681
X163.2Y-60.2
X164.346Y-48.497
X164.7Y-42.85
X164.7Y-68.85
X164.7Y-70.85
X164.7Y-72.85
X164.7Y-74.85
X164.7Y-76.85
X164.7Y-96.85
X166.7Y-42.85
X166.7Y-44.85
X166.7Y-46.85
X166.7Y-54.85
X166.7Y-60.85
X168.7Y-42.85
X168.7Y-44.85
X168.7Y-46.85
X168.7Y-48.85
X168.7Y-60.85
X168.7Y-70.85
X168.7Y-72.85
X168.7Y-74.85
X168.7Y-76.85
X168.7Y-78.85
X168.7Y-80.85
X168.7Y-84.85
X168.7Y-86.85
X168.7Y-88.85
X168.7Y-90.85
X168.7Y-92.85
X168.7Y-94.85
X168.7Y-96.85
X170.315Y-57.2
X170.7Y-42.85
X170.7Y-44.85
X170.7Y-46.85
X170.7Y-48.85
X170.7Y-50.85
X170.7Y-52.85
X170.7Y-54.85
X170.7Y-74.85
X170.7Y-76.85
X170.7Y-88.85
X170.7Y-90.85
X170.7Y-92.85
X170.7Y-94.85
X170.7Y-96.85
X172.346Y-43.204
X172.346Y-47.204
X172.7Y-48.85
X172.7Y-50.85
X172.7Y-52.85
X172.7Y-54.85
X172.7Y-56.85
X172.7Y-60.85
X172.7Y-62.85
X172.7Y-66.85
X172.7Y-78.85
X172.7Y-80.85
X172.7Y-84.85
X172.7Y-86.85
X172.7Y-88.85
X172.7Y-90.85
X172.7Y-92.35
X174.7Y-48.85
X174.7Y-50.85
X174.7Y-52.85
X174.7Y-54.85
X174.7Y-56.85
X174.7Y-60.85
X174.7Y-72.85
X174.7Y-74.85
X174.7Y-76.85
X174.7Y-78.85
X174.7Y-80.85
X174.7Y-86.85
X174.7Y-88.85
X174.7Y-90.85
X176.7Y-48.85
X176.7Y-50.85
X176.7Y-52.85
X176.7Y-54.85
X176.7Y-56.85
X176.7Y-60.85
X176.7Y-62.85
X176.7Y-66.85
X176.7Y-68.85
X176.7Y-70.85
X176.7Y-72.85
X176.7Y-74.85
X176.7Y-76.85
X176.7Y-78.85
X176.7Y-80.85
X176.7Y-84.85
X176.7Y-86.85
X176.7Y-88.85
X176.7Y-90.85
T2
X120.013Y-87.0
X125.093Y-87.0
X137.422Y-87.0
X142.502Y-87.0
X154.413Y-87.042
X159.493Y-87.042
X160.325Y-69.46
X160.325Y-72.0
X160.325Y-74.54
X162.865Y-69.46
X162.865Y-72.0
X162.865Y-74.54
T3
X49.07Y-68.375
X49.07Y-71.375
X49.07Y-82.0
X49.07Y-85.0
X49.12Y-54.75
X49.12Y-57.75
X55.5Y-49.12
X58.5Y-49.12
X127.5Y-49.785
X127.5Y-52.785
X137.9Y-49.785
X137.9Y-52.785
X140.9Y-49.785
X140.9Y-52.785
X149.1Y-49.785
X149.1Y-52.785
X152.1Y-49.785
X152.1Y-52.785
X162.9Y-49.785
X162.9Y-52.785
X165.9Y-49.785
X165.9Y-52.785
X167.315Y-62.7
X167.315Y-65.7
X167.315Y-68.7
X167.315Y-71.7
X167.347Y-80.002
X167.347Y-83.002
X167.347Y-86.002
X170.315Y-62.7
X170.315Y-65.7
X170.315Y-68.7
X170.315Y-71.7
X170.347Y-80.002
X170.347Y-83.002
X170.347Y-86.002
M30
