M48
; DRILL file {KiCad 7.0.11-rc3} date Fri Dec  5 15:52:15 2025
; FORMAT={-:-/ absolute / inch / decimal}
; #@! TF.CreationDate,2025-12-05T15:52:15+08:00
; #@! TF.GenerationSoftware,Kicad,Pcbnew,7.0.11-rc3
; #@! TF.FileFunction,Plated,1,2,PTH
FMAT,2
INCH
; #@! TA.AperFunction,Plated,PTH,ViaDrill
T1C0.0118
; #@! TA.AperFunction,Plated,PTH,ComponentDrill
T2C0.0374
%
G90
G05
T1
X4.7441Y-3.6772
X4.8349Y-3.2304
X4.8642Y-3.6772
X4.9529Y-2.9272
X5.1916Y-2.9272
X5.2244Y-3.7362
X5.2835Y-3.6624
X5.3189Y-3.6614
X5.4302Y-2.9272
X5.5433Y-3.7835
X5.5748Y-3.7835
X5.6102Y-3.7835
X5.6417Y-3.7835
X5.6688Y-2.9272
X5.6732Y-3.7835
X5.7047Y-3.7835
X5.7362Y-3.7844
X5.9075Y-2.9272
X6.1461Y-2.9272
X6.3848Y-2.9272
T2
X4.9202Y-2.1073
X5.0186Y-2.1073
X5.1171Y-2.1073
X5.2155Y-2.1073
X5.3139Y-2.1073
X5.4123Y-2.1073
X5.5108Y-2.1073
X5.6092Y-2.1073
X5.7076Y-2.1073
X5.806Y-2.1073
X5.9045Y-2.1073
X6.0029Y-2.1073
X6.1013Y-2.1073
X6.1997Y-2.1073
X6.2982Y-2.1073
M30
