%TF.GenerationSoftware,KiCad,Pcbnew,7.0.11-rc3*%
%TF.CreationDate,2025-12-05T15:52:12+08:00*%
%TF.ProjectId,vtap_test_led,76746170-5f74-4657-9374-5f6c65642e6b,rev?*%
%TF.SameCoordinates,Original*%
%TF.FileFunction,Copper,L2,Bot*%
%TF.FilePolarity,Positive*%
%FSLAX46Y46*%
G04 Gerber Fmt 4.6, Leading zero omitted, Abs format (unit mm)*
G04 Created by KiCad (PCBNEW 7.0.11-rc3) date 2025-12-05 15:52:12*
%MOMM*%
%LPD*%
G01*
G04 APERTURE LIST*
G04 Aperture macros list*
%AMRoundRect*
0 Rectangle with rounded corners*
0 $1 Rounding radius*
0 $2 $3 $4 $5 $6 $7 $8 $9 X,Y pos of 4 corners*
0 Add a 4 corners polygon primitive as box body*
4,1,4,$2,$3,$4,$5,$6,$7,$8,$9,$2,$3,0*
0 Add four circle primitives for the rounded corners*
1,1,$1+$1,$2,$3*
1,1,$1+$1,$4,$5*
1,1,$1+$1,$6,$7*
1,1,$1+$1,$8,$9*
0 Add four rect primitives between the rounded corners*
20,1,$1+$1,$2,$3,$4,$5,0*
20,1,$1+$1,$4,$5,$6,$7,0*
20,1,$1+$1,$6,$7,$8,$9,0*
20,1,$1+$1,$8,$9,$2,$3,0*%
G04 Aperture macros list end*
%TA.AperFunction,ComponentPad*%
%ADD10RoundRect,0.250000X0.600000X0.725000X-0.600000X0.725000X-0.600000X-0.725000X0.600000X-0.725000X0*%
%TD*%
%TA.AperFunction,ComponentPad*%
%ADD11O,1.700000X1.950000*%
%TD*%
%TA.AperFunction,SMDPad,CuDef*%
%ADD12R,0.350000X1.800000*%
%TD*%
%TA.AperFunction,SMDPad,CuDef*%
%ADD13R,2.500000X2.000000*%
%TD*%
%TA.AperFunction,ViaPad*%
%ADD14C,0.600000*%
%TD*%
%TA.AperFunction,Conductor*%
%ADD15C,0.200000*%
%TD*%
G04 APERTURE END LIST*
D10*
%TO.P,J2,1,Pin_1*%
%TO.N,Net-(J2-Pin_1)*%
X159973358Y-53525000D03*
D11*
%TO.P,J2,2,Pin_2*%
%TO.N,Net-(J2-Pin_2)*%
X157473358Y-53525000D03*
%TO.P,J2,3,Pin_3*%
%TO.N,Net-(J2-Pin_3)*%
X154973358Y-53525000D03*
%TO.P,J2,4,Pin_4*%
%TO.N,Net-(J2-Pin_4)*%
X152473358Y-53525000D03*
%TO.P,J2,5,Pin_5*%
%TO.N,Net-(J2-Pin_5)*%
X149973358Y-53525000D03*
%TO.P,J2,6,Pin_6*%
%TO.N,Net-(J2-Pin_6)*%
X147473358Y-53525000D03*
%TO.P,J2,7,Pin_7*%
%TO.N,Net-(J2-Pin_7)*%
X144973358Y-53525000D03*
%TO.P,J2,8,Pin_8*%
%TO.N,Net-(J2-Pin_8)*%
X142473358Y-53525000D03*
%TO.P,J2,9,Pin_9*%
%TO.N,Net-(J2-Pin_9)*%
X139973358Y-53525000D03*
%TO.P,J2,10,Pin_10*%
%TO.N,Net-(J2-Pin_10)*%
X137473358Y-53525000D03*
%TO.P,J2,11,Pin_11*%
%TO.N,Net-(J2-Pin_11)*%
X134973358Y-53525000D03*
%TO.P,J2,12,Pin_12*%
%TO.N,Net-(J2-Pin_12)*%
X132473358Y-53525000D03*
%TO.P,J2,13,Pin_13*%
%TO.N,Net-(J2-Pin_13)*%
X129973358Y-53525000D03*
%TO.P,J2,14,Pin_14*%
%TO.N,Net-(J2-Pin_14)*%
X127473358Y-53525000D03*
%TO.P,J2,15,Pin_15*%
%TO.N,Net-(J2-Pin_15)*%
X124973358Y-53525000D03*
%TD*%
D12*
%TO.P,J1,1,Pin_1*%
%TO.N,CELL_14*%
X145197508Y-89199999D03*
%TO.P,J1,2,Pin_2*%
%TO.N,CELL_12*%
X144562508Y-89199999D03*
%TO.P,J1,3,Pin_3*%
%TO.N,CELL_10*%
X143927508Y-89199999D03*
%TO.P,J1,4,Pin_4*%
%TO.N,CELL_8*%
X143292508Y-89199999D03*
%TO.P,J1,5,Pin_5*%
%TO.N,CELL_6*%
X142657508Y-89199999D03*
%TO.P,J1,6,Pin_6*%
%TO.N,CELL_4*%
X142022508Y-89199999D03*
%TO.P,J1,7,Pin_7*%
%TO.N,CELL_2*%
X141387508Y-89199999D03*
%TO.P,J1,8,Pin_8*%
%TO.N,CELL_0*%
X140752508Y-89199999D03*
%TO.P,J1,9,Pin_9*%
%TO.N,Net-(J1-Pin_9)*%
X140117508Y-89199999D03*
%TO.P,J1,10,Pin_10*%
%TO.N,Net-(J1-Pin_10)*%
X139482508Y-89199999D03*
%TO.P,J1,11,Pin_11*%
%TO.N,CELL_13*%
X145197508Y-93399998D03*
%TO.P,J1,12,Pin_12*%
%TO.N,CELL_11*%
X144562508Y-93399998D03*
%TO.P,J1,13,Pin_13*%
%TO.N,CELL_9*%
X143927508Y-93399998D03*
%TO.P,J1,14,Pin_14*%
%TO.N,CELL_7*%
X143292508Y-93399998D03*
%TO.P,J1,15,Pin_15*%
%TO.N,CELL_5*%
X142657508Y-93399998D03*
%TO.P,J1,16,Pin_16*%
%TO.N,CELL_3*%
X142022508Y-93399998D03*
%TO.P,J1,17,Pin_17*%
%TO.N,CELL_1*%
X141387508Y-93399998D03*
%TO.P,J1,18,Pin_18*%
%TO.N,Net-(J1-Pin_18)*%
X140752508Y-93399998D03*
%TO.P,J1,19,Pin_19*%
%TO.N,Net-(J1-Pin_19)*%
X140117508Y-93399998D03*
%TO.P,J1,20,Pin_20*%
%TO.N,Net-(J1-Pin_20)*%
X139482508Y-93399998D03*
D13*
%TO.P,J1,P1*%
%TO.N,N/C*%
X148250000Y-91300000D03*
%TO.P,J1,P2*%
X136430016Y-91300000D03*
%TD*%
D14*
%TO.N,Net-(J1-Pin_10)*%
X120500000Y-93400000D03*
%TO.N,Net-(J1-Pin_9)*%
X123550000Y-93400000D03*
%TO.N,Net-(J1-Pin_18)*%
X132700000Y-94900000D03*
%TO.N,Net-(J1-Pin_19)*%
X134200000Y-93024263D03*
%TO.N,Net-(J1-Pin_20)*%
X135100000Y-93000000D03*
%TO.N,CELL_14*%
X162173358Y-74350000D03*
%TO.N,CELL_13*%
X145699632Y-96124552D03*
%TO.N,CELL_12*%
X156111817Y-74350000D03*
%TO.N,CELL_11*%
X144900006Y-96100000D03*
%TO.N,CELL_10*%
X150050279Y-74350000D03*
%TO.N,CELL_9*%
X144100003Y-96100000D03*
%TO.N,CELL_8*%
X143988741Y-74350000D03*
%TO.N,CELL_7*%
X143300000Y-96100000D03*
%TO.N,CELL_6*%
X137927203Y-74350000D03*
%TO.N,CELL_5*%
X142500000Y-96100000D03*
%TO.N,CELL_4*%
X131865665Y-74350000D03*
%TO.N,CELL_3*%
X141600000Y-96100000D03*
%TO.N,CELL_2*%
X125804127Y-74350000D03*
%TO.N,CELL_1*%
X140799997Y-96100000D03*
%TO.N,CELL_0*%
X122806910Y-82052500D03*
%TD*%
D15*
%TO.N,Net-(J1-Pin_10)*%
X120500000Y-94700000D02*
X120500000Y-93400000D01*
X120900000Y-95100000D02*
X120500000Y-94700000D01*
X124900000Y-89100000D02*
X124900000Y-93900000D01*
X123700000Y-95100000D02*
X120900000Y-95100000D01*
X126100000Y-87900000D02*
X124900000Y-89100000D01*
X124900000Y-93900000D02*
X123700000Y-95100000D01*
X139300000Y-87900000D02*
X126100000Y-87900000D01*
X139482508Y-88082508D02*
X139300000Y-87900000D01*
X139482508Y-89199999D02*
X139482508Y-88082508D01*
%TO.N,Net-(J1-Pin_9)*%
X123500000Y-89000000D02*
X123500000Y-93350000D01*
X125000000Y-87500000D02*
X123500000Y-89000000D01*
X123500000Y-93350000D02*
X123550000Y-93400000D01*
X139800000Y-87500000D02*
X125000000Y-87500000D01*
X140117508Y-87817508D02*
X139800000Y-87500000D01*
X140117508Y-89199999D02*
X140117508Y-87817508D01*
%TO.N,Net-(J1-Pin_18)*%
X132700000Y-95600000D02*
X132700000Y-94900000D01*
X135100000Y-96800000D02*
X133900000Y-96800000D01*
X138452506Y-96800000D02*
X135100000Y-96800000D01*
X133900000Y-96800000D02*
X132700000Y-95600000D01*
%TO.N,Net-(J1-Pin_19)*%
X135034314Y-96300000D02*
X135200000Y-96300000D01*
X134200000Y-93024263D02*
X134200000Y-95465686D01*
X134200000Y-95465686D02*
X135034314Y-96300000D01*
%TO.N,Net-(J1-Pin_20)*%
X135200000Y-95900000D02*
X137707506Y-95900000D01*
X139482508Y-94124998D02*
X139482508Y-93399998D01*
X135100000Y-95800000D02*
X135200000Y-95900000D01*
X137707506Y-95900000D02*
X139482508Y-94124998D01*
X135100000Y-93000000D02*
X135100000Y-95800000D01*
%TO.N,Net-(J1-Pin_19)*%
X138317506Y-96300000D02*
X135200000Y-96300000D01*
X140117508Y-94499998D02*
X138317506Y-96300000D01*
X140117508Y-93399998D02*
X140117508Y-94499998D01*
%TO.N,Net-(J1-Pin_18)*%
X140752508Y-94499998D02*
X138452506Y-96800000D01*
X140752508Y-93399998D02*
X140752508Y-94499998D01*
%TO.N,CELL_14*%
X160800000Y-86600000D02*
X162173358Y-85226642D01*
X145197508Y-87252492D02*
X145850000Y-86600000D01*
X145850000Y-86600000D02*
X160800000Y-86600000D01*
X162173358Y-85226642D02*
X162173358Y-74350000D01*
X145197508Y-89199999D02*
X145197508Y-87252492D01*
%TO.N,CELL_13*%
X145650000Y-95550000D02*
X145197508Y-95097508D01*
X145197508Y-95097508D02*
X145197508Y-93399998D01*
X145650000Y-96074920D02*
X145650000Y-95550000D01*
X145699632Y-96124552D02*
X145650000Y-96074920D01*
%TO.N,CELL_12*%
X155450000Y-86000000D02*
X156111817Y-85338183D01*
X145600000Y-86000000D02*
X155450000Y-86000000D01*
X144562508Y-87037492D02*
X145600000Y-86000000D01*
X156111817Y-85338183D02*
X156111817Y-74350000D01*
X144562508Y-89199999D02*
X144562508Y-87037492D01*
%TO.N,CELL_11*%
X144562508Y-95662502D02*
X144850006Y-95950000D01*
X144850006Y-95950000D02*
X144850006Y-96050000D01*
X144562508Y-93399998D02*
X144562508Y-95662502D01*
%TO.N,CELL_10*%
X150150000Y-84950000D02*
X150150000Y-74449721D01*
X145550000Y-84950000D02*
X150150000Y-84950000D01*
X150150000Y-74449721D02*
X150050279Y-74350000D01*
X143927508Y-86572492D02*
X145550000Y-84950000D01*
X143927508Y-89199999D02*
X143927508Y-86572492D01*
%TO.N,CELL_9*%
X143927508Y-93399998D02*
X143927508Y-95927505D01*
X143927508Y-95927505D02*
X144100003Y-96100000D01*
%TO.N,CELL_8*%
X144000000Y-84150000D02*
X144000000Y-74361259D01*
X143292508Y-89199999D02*
X143292508Y-84857492D01*
X143292508Y-84857492D02*
X144000000Y-84150000D01*
X144000000Y-74361259D02*
X143988741Y-74350000D01*
%TO.N,CELL_7*%
X143292508Y-96042508D02*
X143300000Y-96050000D01*
X143292508Y-93399998D02*
X143292508Y-96042508D01*
%TO.N,CELL_6*%
X139500000Y-84100000D02*
X137927203Y-82527203D01*
X137927203Y-82527203D02*
X137927203Y-74350000D01*
X142657508Y-89199999D02*
X142657508Y-85057508D01*
X141700000Y-84100000D02*
X139500000Y-84100000D01*
X142657508Y-85057508D02*
X141700000Y-84100000D01*
%TO.N,CELL_5*%
X142657508Y-93399998D02*
X142657508Y-95942492D01*
X142657508Y-95942492D02*
X142500000Y-96100000D01*
%TO.N,CELL_4*%
X138000000Y-85850000D02*
X131865665Y-79715665D01*
X141400000Y-85850000D02*
X138000000Y-85850000D01*
X142022508Y-86472508D02*
X141400000Y-85850000D01*
X142022508Y-89199999D02*
X142022508Y-86472508D01*
X131865665Y-79715665D02*
X131865665Y-74350000D01*
%TO.N,CELL_3*%
X141600000Y-96100000D02*
X142022508Y-95677492D01*
X142022508Y-95677492D02*
X142022508Y-93399998D01*
%TO.N,CELL_2*%
X125804127Y-83554127D02*
X125804127Y-74350000D01*
X128500000Y-86250000D02*
X125804127Y-83554127D01*
X140550000Y-86250000D02*
X128500000Y-86250000D01*
X141387508Y-87087508D02*
X140550000Y-86250000D01*
X141387508Y-89199999D02*
X141387508Y-87087508D01*
%TO.N,CELL_1*%
X141000000Y-95899997D02*
X141000000Y-95650000D01*
X141387508Y-95262492D02*
X141387508Y-93399998D01*
X140799997Y-96100000D02*
X141000000Y-95899997D01*
X141000000Y-95650000D02*
X141387508Y-95262492D01*
%TO.N,CELL_0*%
X140150000Y-86650000D02*
X125200000Y-86650000D01*
X122806910Y-84256910D02*
X122806910Y-82052500D01*
X125200000Y-86650000D02*
X122806910Y-84256910D01*
X140752508Y-89199999D02*
X140752508Y-87252508D01*
X140752508Y-87252508D02*
X140150000Y-86650000D01*
%TD*%
M02*
