%TF.GenerationSoftware,KiCad,Pcbnew,7.0.11-rc3*%
%TF.CreationDate,2025-12-05T15:52:12+08:00*%
%TF.ProjectId,vtap_test_led,76746170-5f74-4657-9374-5f6c65642e6b,rev?*%
%TF.SameCoordinates,Original*%
%TF.FileFunction,Legend,Top*%
%TF.FilePolarity,Positive*%
%FSLAX46Y46*%
G04 Gerber Fmt 4.6, Leading zero omitted, Abs format (unit mm)*
G04 Created by KiCad (PCBNEW 7.0.11-rc3) date 2025-12-05 15:52:12*
%MOMM*%
%LPD*%
G01*
G04 APERTURE LIST*
%ADD10C,0.300000*%
%ADD11C,0.150000*%
%ADD12C,0.120000*%
G04 APERTURE END LIST*
D10*
X120857143Y-90600828D02*
X120142857Y-90600828D01*
X120142857Y-90600828D02*
X120071429Y-91315114D01*
X120071429Y-91315114D02*
X120142857Y-91243685D01*
X120142857Y-91243685D02*
X120285715Y-91172257D01*
X120285715Y-91172257D02*
X120642857Y-91172257D01*
X120642857Y-91172257D02*
X120785715Y-91243685D01*
X120785715Y-91243685D02*
X120857143Y-91315114D01*
X120857143Y-91315114D02*
X120928572Y-91457971D01*
X120928572Y-91457971D02*
X120928572Y-91815114D01*
X120928572Y-91815114D02*
X120857143Y-91957971D01*
X120857143Y-91957971D02*
X120785715Y-92029400D01*
X120785715Y-92029400D02*
X120642857Y-92100828D01*
X120642857Y-92100828D02*
X120285715Y-92100828D01*
X120285715Y-92100828D02*
X120142857Y-92029400D01*
X120142857Y-92029400D02*
X120071429Y-91957971D01*
X123885715Y-91100828D02*
X123885715Y-92100828D01*
X123528572Y-90529400D02*
X123171429Y-91600828D01*
X123171429Y-91600828D02*
X124100000Y-91600828D01*
X126100000Y-90600828D02*
X127028572Y-90600828D01*
X127028572Y-90600828D02*
X126528572Y-91172257D01*
X126528572Y-91172257D02*
X126742857Y-91172257D01*
X126742857Y-91172257D02*
X126885715Y-91243685D01*
X126885715Y-91243685D02*
X126957143Y-91315114D01*
X126957143Y-91315114D02*
X127028572Y-91457971D01*
X127028572Y-91457971D02*
X127028572Y-91815114D01*
X127028572Y-91815114D02*
X126957143Y-91957971D01*
X126957143Y-91957971D02*
X126885715Y-92029400D01*
X126885715Y-92029400D02*
X126742857Y-92100828D01*
X126742857Y-92100828D02*
X126314286Y-92100828D01*
X126314286Y-92100828D02*
X126171429Y-92029400D01*
X126171429Y-92029400D02*
X126100000Y-91957971D01*
X129271429Y-90743685D02*
X129342857Y-90672257D01*
X129342857Y-90672257D02*
X129485715Y-90600828D01*
X129485715Y-90600828D02*
X129842857Y-90600828D01*
X129842857Y-90600828D02*
X129985715Y-90672257D01*
X129985715Y-90672257D02*
X130057143Y-90743685D01*
X130057143Y-90743685D02*
X130128572Y-90886542D01*
X130128572Y-90886542D02*
X130128572Y-91029400D01*
X130128572Y-91029400D02*
X130057143Y-91243685D01*
X130057143Y-91243685D02*
X129200000Y-92100828D01*
X129200000Y-92100828D02*
X130128572Y-92100828D01*
X133128572Y-92100828D02*
X132271429Y-92100828D01*
X132700000Y-92100828D02*
X132700000Y-90600828D01*
X132700000Y-90600828D02*
X132557143Y-90815114D01*
X132557143Y-90815114D02*
X132414286Y-90957971D01*
X132414286Y-90957971D02*
X132271429Y-91029400D01*
D11*
X125433333Y-89554819D02*
X125433333Y-88554819D01*
X125433333Y-88554819D02*
X126004761Y-89554819D01*
X126004761Y-89554819D02*
X126004761Y-88554819D01*
X126338095Y-88554819D02*
X126909523Y-88554819D01*
X126623809Y-89554819D02*
X126623809Y-88554819D01*
X127814285Y-89459580D02*
X127766666Y-89507200D01*
X127766666Y-89507200D02*
X127623809Y-89554819D01*
X127623809Y-89554819D02*
X127528571Y-89554819D01*
X127528571Y-89554819D02*
X127385714Y-89507200D01*
X127385714Y-89507200D02*
X127290476Y-89411961D01*
X127290476Y-89411961D02*
X127242857Y-89316723D01*
X127242857Y-89316723D02*
X127195238Y-89126247D01*
X127195238Y-89126247D02*
X127195238Y-88983390D01*
X127195238Y-88983390D02*
X127242857Y-88792914D01*
X127242857Y-88792914D02*
X127290476Y-88697676D01*
X127290476Y-88697676D02*
X127385714Y-88602438D01*
X127385714Y-88602438D02*
X127528571Y-88554819D01*
X127528571Y-88554819D02*
X127623809Y-88554819D01*
X127623809Y-88554819D02*
X127766666Y-88602438D01*
X127766666Y-88602438D02*
X127814285Y-88650057D01*
X153593922Y-90939819D02*
X153927255Y-91939819D01*
X153927255Y-91939819D02*
X154260588Y-90939819D01*
X154736779Y-91939819D02*
X154641541Y-91892200D01*
X154641541Y-91892200D02*
X154593922Y-91844580D01*
X154593922Y-91844580D02*
X154546303Y-91749342D01*
X154546303Y-91749342D02*
X154546303Y-91463628D01*
X154546303Y-91463628D02*
X154593922Y-91368390D01*
X154593922Y-91368390D02*
X154641541Y-91320771D01*
X154641541Y-91320771D02*
X154736779Y-91273152D01*
X154736779Y-91273152D02*
X154879636Y-91273152D01*
X154879636Y-91273152D02*
X154974874Y-91320771D01*
X154974874Y-91320771D02*
X155022493Y-91368390D01*
X155022493Y-91368390D02*
X155070112Y-91463628D01*
X155070112Y-91463628D02*
X155070112Y-91749342D01*
X155070112Y-91749342D02*
X155022493Y-91844580D01*
X155022493Y-91844580D02*
X154974874Y-91892200D01*
X154974874Y-91892200D02*
X154879636Y-91939819D01*
X154879636Y-91939819D02*
X154736779Y-91939819D01*
X155641541Y-91939819D02*
X155546303Y-91892200D01*
X155546303Y-91892200D02*
X155498684Y-91796961D01*
X155498684Y-91796961D02*
X155498684Y-90939819D01*
X155879637Y-91273152D02*
X156260589Y-91273152D01*
X156022494Y-90939819D02*
X156022494Y-91796961D01*
X156022494Y-91796961D02*
X156070113Y-91892200D01*
X156070113Y-91892200D02*
X156165351Y-91939819D01*
X156165351Y-91939819D02*
X156260589Y-91939819D01*
X157022494Y-91939819D02*
X157022494Y-91416009D01*
X157022494Y-91416009D02*
X156974875Y-91320771D01*
X156974875Y-91320771D02*
X156879637Y-91273152D01*
X156879637Y-91273152D02*
X156689161Y-91273152D01*
X156689161Y-91273152D02*
X156593923Y-91320771D01*
X157022494Y-91892200D02*
X156927256Y-91939819D01*
X156927256Y-91939819D02*
X156689161Y-91939819D01*
X156689161Y-91939819D02*
X156593923Y-91892200D01*
X156593923Y-91892200D02*
X156546304Y-91796961D01*
X156546304Y-91796961D02*
X156546304Y-91701723D01*
X156546304Y-91701723D02*
X156593923Y-91606485D01*
X156593923Y-91606485D02*
X156689161Y-91558866D01*
X156689161Y-91558866D02*
X156927256Y-91558866D01*
X156927256Y-91558866D02*
X157022494Y-91511247D01*
X157927256Y-91273152D02*
X157927256Y-92082676D01*
X157927256Y-92082676D02*
X157879637Y-92177914D01*
X157879637Y-92177914D02*
X157832018Y-92225533D01*
X157832018Y-92225533D02*
X157736780Y-92273152D01*
X157736780Y-92273152D02*
X157593923Y-92273152D01*
X157593923Y-92273152D02*
X157498685Y-92225533D01*
X157927256Y-91892200D02*
X157832018Y-91939819D01*
X157832018Y-91939819D02*
X157641542Y-91939819D01*
X157641542Y-91939819D02*
X157546304Y-91892200D01*
X157546304Y-91892200D02*
X157498685Y-91844580D01*
X157498685Y-91844580D02*
X157451066Y-91749342D01*
X157451066Y-91749342D02*
X157451066Y-91463628D01*
X157451066Y-91463628D02*
X157498685Y-91368390D01*
X157498685Y-91368390D02*
X157546304Y-91320771D01*
X157546304Y-91320771D02*
X157641542Y-91273152D01*
X157641542Y-91273152D02*
X157832018Y-91273152D01*
X157832018Y-91273152D02*
X157927256Y-91320771D01*
X158784399Y-91892200D02*
X158689161Y-91939819D01*
X158689161Y-91939819D02*
X158498685Y-91939819D01*
X158498685Y-91939819D02*
X158403447Y-91892200D01*
X158403447Y-91892200D02*
X158355828Y-91796961D01*
X158355828Y-91796961D02*
X158355828Y-91416009D01*
X158355828Y-91416009D02*
X158403447Y-91320771D01*
X158403447Y-91320771D02*
X158498685Y-91273152D01*
X158498685Y-91273152D02*
X158689161Y-91273152D01*
X158689161Y-91273152D02*
X158784399Y-91320771D01*
X158784399Y-91320771D02*
X158832018Y-91416009D01*
X158832018Y-91416009D02*
X158832018Y-91511247D01*
X158832018Y-91511247D02*
X158355828Y-91606485D01*
X159879638Y-90939819D02*
X160451066Y-90939819D01*
X160165352Y-91939819D02*
X160165352Y-90939819D01*
X161212971Y-91939819D02*
X161212971Y-91416009D01*
X161212971Y-91416009D02*
X161165352Y-91320771D01*
X161165352Y-91320771D02*
X161070114Y-91273152D01*
X161070114Y-91273152D02*
X160879638Y-91273152D01*
X160879638Y-91273152D02*
X160784400Y-91320771D01*
X161212971Y-91892200D02*
X161117733Y-91939819D01*
X161117733Y-91939819D02*
X160879638Y-91939819D01*
X160879638Y-91939819D02*
X160784400Y-91892200D01*
X160784400Y-91892200D02*
X160736781Y-91796961D01*
X160736781Y-91796961D02*
X160736781Y-91701723D01*
X160736781Y-91701723D02*
X160784400Y-91606485D01*
X160784400Y-91606485D02*
X160879638Y-91558866D01*
X160879638Y-91558866D02*
X161117733Y-91558866D01*
X161117733Y-91558866D02*
X161212971Y-91511247D01*
X161689162Y-91273152D02*
X161689162Y-92273152D01*
X161689162Y-91320771D02*
X161784400Y-91273152D01*
X161784400Y-91273152D02*
X161974876Y-91273152D01*
X161974876Y-91273152D02*
X162070114Y-91320771D01*
X162070114Y-91320771D02*
X162117733Y-91368390D01*
X162117733Y-91368390D02*
X162165352Y-91463628D01*
X162165352Y-91463628D02*
X162165352Y-91749342D01*
X162165352Y-91749342D02*
X162117733Y-91844580D01*
X162117733Y-91844580D02*
X162070114Y-91892200D01*
X162070114Y-91892200D02*
X161974876Y-91939819D01*
X161974876Y-91939819D02*
X161784400Y-91939819D01*
X161784400Y-91939819D02*
X161689162Y-91892200D01*
X163212972Y-90939819D02*
X163784400Y-90939819D01*
X163498686Y-91939819D02*
X163498686Y-90939819D01*
X164498686Y-91892200D02*
X164403448Y-91939819D01*
X164403448Y-91939819D02*
X164212972Y-91939819D01*
X164212972Y-91939819D02*
X164117734Y-91892200D01*
X164117734Y-91892200D02*
X164070115Y-91796961D01*
X164070115Y-91796961D02*
X164070115Y-91416009D01*
X164070115Y-91416009D02*
X164117734Y-91320771D01*
X164117734Y-91320771D02*
X164212972Y-91273152D01*
X164212972Y-91273152D02*
X164403448Y-91273152D01*
X164403448Y-91273152D02*
X164498686Y-91320771D01*
X164498686Y-91320771D02*
X164546305Y-91416009D01*
X164546305Y-91416009D02*
X164546305Y-91511247D01*
X164546305Y-91511247D02*
X164070115Y-91606485D01*
X164927258Y-91892200D02*
X165022496Y-91939819D01*
X165022496Y-91939819D02*
X165212972Y-91939819D01*
X165212972Y-91939819D02*
X165308210Y-91892200D01*
X165308210Y-91892200D02*
X165355829Y-91796961D01*
X165355829Y-91796961D02*
X165355829Y-91749342D01*
X165355829Y-91749342D02*
X165308210Y-91654104D01*
X165308210Y-91654104D02*
X165212972Y-91606485D01*
X165212972Y-91606485D02*
X165070115Y-91606485D01*
X165070115Y-91606485D02*
X164974877Y-91558866D01*
X164974877Y-91558866D02*
X164927258Y-91463628D01*
X164927258Y-91463628D02*
X164927258Y-91416009D01*
X164927258Y-91416009D02*
X164974877Y-91320771D01*
X164974877Y-91320771D02*
X165070115Y-91273152D01*
X165070115Y-91273152D02*
X165212972Y-91273152D01*
X165212972Y-91273152D02*
X165308210Y-91320771D01*
X165641544Y-91273152D02*
X166022496Y-91273152D01*
X165784401Y-90939819D02*
X165784401Y-91796961D01*
X165784401Y-91796961D02*
X165832020Y-91892200D01*
X165832020Y-91892200D02*
X165927258Y-91939819D01*
X165927258Y-91939819D02*
X166022496Y-91939819D01*
X153641541Y-92883152D02*
X153879636Y-93549819D01*
X153879636Y-93549819D02*
X154117731Y-92883152D01*
X155022493Y-93549819D02*
X154451065Y-93549819D01*
X154736779Y-93549819D02*
X154736779Y-92549819D01*
X154736779Y-92549819D02*
X154641541Y-92692676D01*
X154641541Y-92692676D02*
X154546303Y-92787914D01*
X154546303Y-92787914D02*
X154451065Y-92835533D01*
X155451065Y-93454580D02*
X155498684Y-93502200D01*
X155498684Y-93502200D02*
X155451065Y-93549819D01*
X155451065Y-93549819D02*
X155403446Y-93502200D01*
X155403446Y-93502200D02*
X155451065Y-93454580D01*
X155451065Y-93454580D02*
X155451065Y-93549819D01*
X156117731Y-92549819D02*
X156212969Y-92549819D01*
X156212969Y-92549819D02*
X156308207Y-92597438D01*
X156308207Y-92597438D02*
X156355826Y-92645057D01*
X156355826Y-92645057D02*
X156403445Y-92740295D01*
X156403445Y-92740295D02*
X156451064Y-92930771D01*
X156451064Y-92930771D02*
X156451064Y-93168866D01*
X156451064Y-93168866D02*
X156403445Y-93359342D01*
X156403445Y-93359342D02*
X156355826Y-93454580D01*
X156355826Y-93454580D02*
X156308207Y-93502200D01*
X156308207Y-93502200D02*
X156212969Y-93549819D01*
X156212969Y-93549819D02*
X156117731Y-93549819D01*
X156117731Y-93549819D02*
X156022493Y-93502200D01*
X156022493Y-93502200D02*
X155974874Y-93454580D01*
X155974874Y-93454580D02*
X155927255Y-93359342D01*
X155927255Y-93359342D02*
X155879636Y-93168866D01*
X155879636Y-93168866D02*
X155879636Y-92930771D01*
X155879636Y-92930771D02*
X155927255Y-92740295D01*
X155927255Y-92740295D02*
X155974874Y-92645057D01*
X155974874Y-92645057D02*
X156022493Y-92597438D01*
X156022493Y-92597438D02*
X156117731Y-92549819D01*
X157593922Y-92645057D02*
X157641541Y-92597438D01*
X157641541Y-92597438D02*
X157736779Y-92549819D01*
X157736779Y-92549819D02*
X157974874Y-92549819D01*
X157974874Y-92549819D02*
X158070112Y-92597438D01*
X158070112Y-92597438D02*
X158117731Y-92645057D01*
X158117731Y-92645057D02*
X158165350Y-92740295D01*
X158165350Y-92740295D02*
X158165350Y-92835533D01*
X158165350Y-92835533D02*
X158117731Y-92978390D01*
X158117731Y-92978390D02*
X157546303Y-93549819D01*
X157546303Y-93549819D02*
X158165350Y-93549819D01*
X158784398Y-92549819D02*
X158879636Y-92549819D01*
X158879636Y-92549819D02*
X158974874Y-92597438D01*
X158974874Y-92597438D02*
X159022493Y-92645057D01*
X159022493Y-92645057D02*
X159070112Y-92740295D01*
X159070112Y-92740295D02*
X159117731Y-92930771D01*
X159117731Y-92930771D02*
X159117731Y-93168866D01*
X159117731Y-93168866D02*
X159070112Y-93359342D01*
X159070112Y-93359342D02*
X159022493Y-93454580D01*
X159022493Y-93454580D02*
X158974874Y-93502200D01*
X158974874Y-93502200D02*
X158879636Y-93549819D01*
X158879636Y-93549819D02*
X158784398Y-93549819D01*
X158784398Y-93549819D02*
X158689160Y-93502200D01*
X158689160Y-93502200D02*
X158641541Y-93454580D01*
X158641541Y-93454580D02*
X158593922Y-93359342D01*
X158593922Y-93359342D02*
X158546303Y-93168866D01*
X158546303Y-93168866D02*
X158546303Y-92930771D01*
X158546303Y-92930771D02*
X158593922Y-92740295D01*
X158593922Y-92740295D02*
X158641541Y-92645057D01*
X158641541Y-92645057D02*
X158689160Y-92597438D01*
X158689160Y-92597438D02*
X158784398Y-92549819D01*
X159498684Y-92645057D02*
X159546303Y-92597438D01*
X159546303Y-92597438D02*
X159641541Y-92549819D01*
X159641541Y-92549819D02*
X159879636Y-92549819D01*
X159879636Y-92549819D02*
X159974874Y-92597438D01*
X159974874Y-92597438D02*
X160022493Y-92645057D01*
X160022493Y-92645057D02*
X160070112Y-92740295D01*
X160070112Y-92740295D02*
X160070112Y-92835533D01*
X160070112Y-92835533D02*
X160022493Y-92978390D01*
X160022493Y-92978390D02*
X159451065Y-93549819D01*
X159451065Y-93549819D02*
X160070112Y-93549819D01*
X160974874Y-92549819D02*
X160498684Y-92549819D01*
X160498684Y-92549819D02*
X160451065Y-93026009D01*
X160451065Y-93026009D02*
X160498684Y-92978390D01*
X160498684Y-92978390D02*
X160593922Y-92930771D01*
X160593922Y-92930771D02*
X160832017Y-92930771D01*
X160832017Y-92930771D02*
X160927255Y-92978390D01*
X160927255Y-92978390D02*
X160974874Y-93026009D01*
X160974874Y-93026009D02*
X161022493Y-93121247D01*
X161022493Y-93121247D02*
X161022493Y-93359342D01*
X161022493Y-93359342D02*
X160974874Y-93454580D01*
X160974874Y-93454580D02*
X160927255Y-93502200D01*
X160927255Y-93502200D02*
X160832017Y-93549819D01*
X160832017Y-93549819D02*
X160593922Y-93549819D01*
X160593922Y-93549819D02*
X160498684Y-93502200D01*
X160498684Y-93502200D02*
X160451065Y-93454580D01*
X162165350Y-92502200D02*
X161308208Y-93787914D01*
X163022493Y-93549819D02*
X162451065Y-93549819D01*
X162736779Y-93549819D02*
X162736779Y-92549819D01*
X162736779Y-92549819D02*
X162641541Y-92692676D01*
X162641541Y-92692676D02*
X162546303Y-92787914D01*
X162546303Y-92787914D02*
X162451065Y-92835533D01*
X163403446Y-92645057D02*
X163451065Y-92597438D01*
X163451065Y-92597438D02*
X163546303Y-92549819D01*
X163546303Y-92549819D02*
X163784398Y-92549819D01*
X163784398Y-92549819D02*
X163879636Y-92597438D01*
X163879636Y-92597438D02*
X163927255Y-92645057D01*
X163927255Y-92645057D02*
X163974874Y-92740295D01*
X163974874Y-92740295D02*
X163974874Y-92835533D01*
X163974874Y-92835533D02*
X163927255Y-92978390D01*
X163927255Y-92978390D02*
X163355827Y-93549819D01*
X163355827Y-93549819D02*
X163974874Y-93549819D01*
X165117731Y-92502200D02*
X164260589Y-93787914D01*
X165641541Y-92549819D02*
X165736779Y-92549819D01*
X165736779Y-92549819D02*
X165832017Y-92597438D01*
X165832017Y-92597438D02*
X165879636Y-92645057D01*
X165879636Y-92645057D02*
X165927255Y-92740295D01*
X165927255Y-92740295D02*
X165974874Y-92930771D01*
X165974874Y-92930771D02*
X165974874Y-93168866D01*
X165974874Y-93168866D02*
X165927255Y-93359342D01*
X165927255Y-93359342D02*
X165879636Y-93454580D01*
X165879636Y-93454580D02*
X165832017Y-93502200D01*
X165832017Y-93502200D02*
X165736779Y-93549819D01*
X165736779Y-93549819D02*
X165641541Y-93549819D01*
X165641541Y-93549819D02*
X165546303Y-93502200D01*
X165546303Y-93502200D02*
X165498684Y-93454580D01*
X165498684Y-93454580D02*
X165451065Y-93359342D01*
X165451065Y-93359342D02*
X165403446Y-93168866D01*
X165403446Y-93168866D02*
X165403446Y-92930771D01*
X165403446Y-92930771D02*
X165451065Y-92740295D01*
X165451065Y-92740295D02*
X165498684Y-92645057D01*
X165498684Y-92645057D02*
X165546303Y-92597438D01*
X165546303Y-92597438D02*
X165641541Y-92549819D01*
X166879636Y-92549819D02*
X166403446Y-92549819D01*
X166403446Y-92549819D02*
X166355827Y-93026009D01*
X166355827Y-93026009D02*
X166403446Y-92978390D01*
X166403446Y-92978390D02*
X166498684Y-92930771D01*
X166498684Y-92930771D02*
X166736779Y-92930771D01*
X166736779Y-92930771D02*
X166832017Y-92978390D01*
X166832017Y-92978390D02*
X166879636Y-93026009D01*
X166879636Y-93026009D02*
X166927255Y-93121247D01*
X166927255Y-93121247D02*
X166927255Y-93359342D01*
X166927255Y-93359342D02*
X166879636Y-93454580D01*
X166879636Y-93454580D02*
X166832017Y-93502200D01*
X166832017Y-93502200D02*
X166736779Y-93549819D01*
X166736779Y-93549819D02*
X166498684Y-93549819D01*
X166498684Y-93549819D02*
X166403446Y-93502200D01*
X166403446Y-93502200D02*
X166355827Y-93454580D01*
D10*
X164473558Y-53677733D02*
X165997368Y-53677733D01*
X165235463Y-54439638D02*
X165235463Y-52915828D01*
X164773558Y-68277733D02*
X166297368Y-68277733D01*
X165535463Y-69039638D02*
X165535463Y-67515828D01*
D11*
X149511958Y-64817857D02*
X149035767Y-65151190D01*
X149511958Y-65389285D02*
X148511958Y-65389285D01*
X148511958Y-65389285D02*
X148511958Y-65008333D01*
X148511958Y-65008333D02*
X148559577Y-64913095D01*
X148559577Y-64913095D02*
X148607196Y-64865476D01*
X148607196Y-64865476D02*
X148702434Y-64817857D01*
X148702434Y-64817857D02*
X148845291Y-64817857D01*
X148845291Y-64817857D02*
X148940529Y-64865476D01*
X148940529Y-64865476D02*
X148988148Y-64913095D01*
X148988148Y-64913095D02*
X149035767Y-65008333D01*
X149035767Y-65008333D02*
X149035767Y-65389285D01*
X148607196Y-64436904D02*
X148559577Y-64389285D01*
X148559577Y-64389285D02*
X148511958Y-64294047D01*
X148511958Y-64294047D02*
X148511958Y-64055952D01*
X148511958Y-64055952D02*
X148559577Y-63960714D01*
X148559577Y-63960714D02*
X148607196Y-63913095D01*
X148607196Y-63913095D02*
X148702434Y-63865476D01*
X148702434Y-63865476D02*
X148797672Y-63865476D01*
X148797672Y-63865476D02*
X148940529Y-63913095D01*
X148940529Y-63913095D02*
X149511958Y-64484523D01*
X149511958Y-64484523D02*
X149511958Y-63865476D01*
X148511958Y-63246428D02*
X148511958Y-63151190D01*
X148511958Y-63151190D02*
X148559577Y-63055952D01*
X148559577Y-63055952D02*
X148607196Y-63008333D01*
X148607196Y-63008333D02*
X148702434Y-62960714D01*
X148702434Y-62960714D02*
X148892910Y-62913095D01*
X148892910Y-62913095D02*
X149131005Y-62913095D01*
X149131005Y-62913095D02*
X149321481Y-62960714D01*
X149321481Y-62960714D02*
X149416719Y-63008333D01*
X149416719Y-63008333D02*
X149464339Y-63055952D01*
X149464339Y-63055952D02*
X149511958Y-63151190D01*
X149511958Y-63151190D02*
X149511958Y-63246428D01*
X149511958Y-63246428D02*
X149464339Y-63341666D01*
X149464339Y-63341666D02*
X149416719Y-63389285D01*
X149416719Y-63389285D02*
X149321481Y-63436904D01*
X149321481Y-63436904D02*
X149131005Y-63484523D01*
X149131005Y-63484523D02*
X148892910Y-63484523D01*
X148892910Y-63484523D02*
X148702434Y-63436904D01*
X148702434Y-63436904D02*
X148607196Y-63389285D01*
X148607196Y-63389285D02*
X148559577Y-63341666D01*
X148559577Y-63341666D02*
X148511958Y-63246428D01*
X147370264Y-72740475D02*
X146570264Y-72740475D01*
X146570264Y-72740475D02*
X146570264Y-72549999D01*
X146570264Y-72549999D02*
X146608359Y-72435713D01*
X146608359Y-72435713D02*
X146684549Y-72359523D01*
X146684549Y-72359523D02*
X146760740Y-72321428D01*
X146760740Y-72321428D02*
X146913121Y-72283332D01*
X146913121Y-72283332D02*
X147027407Y-72283332D01*
X147027407Y-72283332D02*
X147179788Y-72321428D01*
X147179788Y-72321428D02*
X147255978Y-72359523D01*
X147255978Y-72359523D02*
X147332169Y-72435713D01*
X147332169Y-72435713D02*
X147370264Y-72549999D01*
X147370264Y-72549999D02*
X147370264Y-72740475D01*
X146570264Y-71597618D02*
X146570264Y-71749999D01*
X146570264Y-71749999D02*
X146608359Y-71826190D01*
X146608359Y-71826190D02*
X146646454Y-71864285D01*
X146646454Y-71864285D02*
X146760740Y-71940475D01*
X146760740Y-71940475D02*
X146913121Y-71978571D01*
X146913121Y-71978571D02*
X147217883Y-71978571D01*
X147217883Y-71978571D02*
X147294073Y-71940475D01*
X147294073Y-71940475D02*
X147332169Y-71902380D01*
X147332169Y-71902380D02*
X147370264Y-71826190D01*
X147370264Y-71826190D02*
X147370264Y-71673809D01*
X147370264Y-71673809D02*
X147332169Y-71597618D01*
X147332169Y-71597618D02*
X147294073Y-71559523D01*
X147294073Y-71559523D02*
X147217883Y-71521428D01*
X147217883Y-71521428D02*
X147027407Y-71521428D01*
X147027407Y-71521428D02*
X146951216Y-71559523D01*
X146951216Y-71559523D02*
X146913121Y-71597618D01*
X146913121Y-71597618D02*
X146875026Y-71673809D01*
X146875026Y-71673809D02*
X146875026Y-71826190D01*
X146875026Y-71826190D02*
X146913121Y-71902380D01*
X146913121Y-71902380D02*
X146951216Y-71940475D01*
X146951216Y-71940475D02*
X147027407Y-71978571D01*
X129540532Y-64817857D02*
X129064341Y-65151190D01*
X129540532Y-65389285D02*
X128540532Y-65389285D01*
X128540532Y-65389285D02*
X128540532Y-65008333D01*
X128540532Y-65008333D02*
X128588151Y-64913095D01*
X128588151Y-64913095D02*
X128635770Y-64865476D01*
X128635770Y-64865476D02*
X128731008Y-64817857D01*
X128731008Y-64817857D02*
X128873865Y-64817857D01*
X128873865Y-64817857D02*
X128969103Y-64865476D01*
X128969103Y-64865476D02*
X129016722Y-64913095D01*
X129016722Y-64913095D02*
X129064341Y-65008333D01*
X129064341Y-65008333D02*
X129064341Y-65389285D01*
X128635770Y-64436904D02*
X128588151Y-64389285D01*
X128588151Y-64389285D02*
X128540532Y-64294047D01*
X128540532Y-64294047D02*
X128540532Y-64055952D01*
X128540532Y-64055952D02*
X128588151Y-63960714D01*
X128588151Y-63960714D02*
X128635770Y-63913095D01*
X128635770Y-63913095D02*
X128731008Y-63865476D01*
X128731008Y-63865476D02*
X128826246Y-63865476D01*
X128826246Y-63865476D02*
X128969103Y-63913095D01*
X128969103Y-63913095D02*
X129540532Y-64484523D01*
X129540532Y-64484523D02*
X129540532Y-63865476D01*
X128540532Y-63008333D02*
X128540532Y-63198809D01*
X128540532Y-63198809D02*
X128588151Y-63294047D01*
X128588151Y-63294047D02*
X128635770Y-63341666D01*
X128635770Y-63341666D02*
X128778627Y-63436904D01*
X128778627Y-63436904D02*
X128969103Y-63484523D01*
X128969103Y-63484523D02*
X129350055Y-63484523D01*
X129350055Y-63484523D02*
X129445293Y-63436904D01*
X129445293Y-63436904D02*
X129492913Y-63389285D01*
X129492913Y-63389285D02*
X129540532Y-63294047D01*
X129540532Y-63294047D02*
X129540532Y-63103571D01*
X129540532Y-63103571D02*
X129492913Y-63008333D01*
X129492913Y-63008333D02*
X129445293Y-62960714D01*
X129445293Y-62960714D02*
X129350055Y-62913095D01*
X129350055Y-62913095D02*
X129111960Y-62913095D01*
X129111960Y-62913095D02*
X129016722Y-62960714D01*
X129016722Y-62960714D02*
X128969103Y-63008333D01*
X128969103Y-63008333D02*
X128921484Y-63103571D01*
X128921484Y-63103571D02*
X128921484Y-63294047D01*
X128921484Y-63294047D02*
X128969103Y-63389285D01*
X128969103Y-63389285D02*
X129016722Y-63436904D01*
X129016722Y-63436904D02*
X129111960Y-63484523D01*
X142140024Y-56529819D02*
X142140024Y-57244104D01*
X142140024Y-57244104D02*
X142092405Y-57386961D01*
X142092405Y-57386961D02*
X141997167Y-57482200D01*
X141997167Y-57482200D02*
X141854310Y-57529819D01*
X141854310Y-57529819D02*
X141759072Y-57529819D01*
X142568596Y-56625057D02*
X142616215Y-56577438D01*
X142616215Y-56577438D02*
X142711453Y-56529819D01*
X142711453Y-56529819D02*
X142949548Y-56529819D01*
X142949548Y-56529819D02*
X143044786Y-56577438D01*
X143044786Y-56577438D02*
X143092405Y-56625057D01*
X143092405Y-56625057D02*
X143140024Y-56720295D01*
X143140024Y-56720295D02*
X143140024Y-56815533D01*
X143140024Y-56815533D02*
X143092405Y-56958390D01*
X143092405Y-56958390D02*
X142520977Y-57529819D01*
X142520977Y-57529819D02*
X143140024Y-57529819D01*
X166054819Y-64817857D02*
X165578628Y-65151190D01*
X166054819Y-65389285D02*
X165054819Y-65389285D01*
X165054819Y-65389285D02*
X165054819Y-65008333D01*
X165054819Y-65008333D02*
X165102438Y-64913095D01*
X165102438Y-64913095D02*
X165150057Y-64865476D01*
X165150057Y-64865476D02*
X165245295Y-64817857D01*
X165245295Y-64817857D02*
X165388152Y-64817857D01*
X165388152Y-64817857D02*
X165483390Y-64865476D01*
X165483390Y-64865476D02*
X165531009Y-64913095D01*
X165531009Y-64913095D02*
X165578628Y-65008333D01*
X165578628Y-65008333D02*
X165578628Y-65389285D01*
X166054819Y-63865476D02*
X166054819Y-64436904D01*
X166054819Y-64151190D02*
X165054819Y-64151190D01*
X165054819Y-64151190D02*
X165197676Y-64246428D01*
X165197676Y-64246428D02*
X165292914Y-64341666D01*
X165292914Y-64341666D02*
X165340533Y-64436904D01*
X165054819Y-62960714D02*
X165054819Y-63436904D01*
X165054819Y-63436904D02*
X165531009Y-63484523D01*
X165531009Y-63484523D02*
X165483390Y-63436904D01*
X165483390Y-63436904D02*
X165435771Y-63341666D01*
X165435771Y-63341666D02*
X165435771Y-63103571D01*
X165435771Y-63103571D02*
X165483390Y-63008333D01*
X165483390Y-63008333D02*
X165531009Y-62960714D01*
X165531009Y-62960714D02*
X165626247Y-62913095D01*
X165626247Y-62913095D02*
X165864342Y-62913095D01*
X165864342Y-62913095D02*
X165959580Y-62960714D01*
X165959580Y-62960714D02*
X166007200Y-63008333D01*
X166007200Y-63008333D02*
X166054819Y-63103571D01*
X166054819Y-63103571D02*
X166054819Y-63341666D01*
X166054819Y-63341666D02*
X166007200Y-63436904D01*
X166007200Y-63436904D02*
X165959580Y-63484523D01*
X153536919Y-84516666D02*
X153060728Y-84849999D01*
X153536919Y-85088094D02*
X152536919Y-85088094D01*
X152536919Y-85088094D02*
X152536919Y-84707142D01*
X152536919Y-84707142D02*
X152584538Y-84611904D01*
X152584538Y-84611904D02*
X152632157Y-84564285D01*
X152632157Y-84564285D02*
X152727395Y-84516666D01*
X152727395Y-84516666D02*
X152870252Y-84516666D01*
X152870252Y-84516666D02*
X152965490Y-84564285D01*
X152965490Y-84564285D02*
X153013109Y-84611904D01*
X153013109Y-84611904D02*
X153060728Y-84707142D01*
X153060728Y-84707142D02*
X153060728Y-85088094D01*
X152870252Y-83659523D02*
X153536919Y-83659523D01*
X152489300Y-83897618D02*
X153203585Y-84135713D01*
X153203585Y-84135713D02*
X153203585Y-83516666D01*
X123124112Y-73121428D02*
X122324112Y-73121428D01*
X122324112Y-73121428D02*
X122324112Y-72930952D01*
X122324112Y-72930952D02*
X122362207Y-72816666D01*
X122362207Y-72816666D02*
X122438397Y-72740476D01*
X122438397Y-72740476D02*
X122514588Y-72702381D01*
X122514588Y-72702381D02*
X122666969Y-72664285D01*
X122666969Y-72664285D02*
X122781255Y-72664285D01*
X122781255Y-72664285D02*
X122933636Y-72702381D01*
X122933636Y-72702381D02*
X123009826Y-72740476D01*
X123009826Y-72740476D02*
X123086017Y-72816666D01*
X123086017Y-72816666D02*
X123124112Y-72930952D01*
X123124112Y-72930952D02*
X123124112Y-73121428D01*
X123124112Y-71902381D02*
X123124112Y-72359524D01*
X123124112Y-72130952D02*
X122324112Y-72130952D01*
X122324112Y-72130952D02*
X122438397Y-72207143D01*
X122438397Y-72207143D02*
X122514588Y-72283333D01*
X122514588Y-72283333D02*
X122552683Y-72359524D01*
X122590778Y-71216666D02*
X123124112Y-71216666D01*
X122286017Y-71407142D02*
X122857445Y-71597619D01*
X122857445Y-71597619D02*
X122857445Y-71102380D01*
X150506150Y-84516666D02*
X150029959Y-84849999D01*
X150506150Y-85088094D02*
X149506150Y-85088094D01*
X149506150Y-85088094D02*
X149506150Y-84707142D01*
X149506150Y-84707142D02*
X149553769Y-84611904D01*
X149553769Y-84611904D02*
X149601388Y-84564285D01*
X149601388Y-84564285D02*
X149696626Y-84516666D01*
X149696626Y-84516666D02*
X149839483Y-84516666D01*
X149839483Y-84516666D02*
X149934721Y-84564285D01*
X149934721Y-84564285D02*
X149982340Y-84611904D01*
X149982340Y-84611904D02*
X150029959Y-84707142D01*
X150029959Y-84707142D02*
X150029959Y-85088094D01*
X149506150Y-83611904D02*
X149506150Y-84088094D01*
X149506150Y-84088094D02*
X149982340Y-84135713D01*
X149982340Y-84135713D02*
X149934721Y-84088094D01*
X149934721Y-84088094D02*
X149887102Y-83992856D01*
X149887102Y-83992856D02*
X149887102Y-83754761D01*
X149887102Y-83754761D02*
X149934721Y-83659523D01*
X149934721Y-83659523D02*
X149982340Y-83611904D01*
X149982340Y-83611904D02*
X150077578Y-83564285D01*
X150077578Y-83564285D02*
X150315673Y-83564285D01*
X150315673Y-83564285D02*
X150410911Y-83611904D01*
X150410911Y-83611904D02*
X150458531Y-83659523D01*
X150458531Y-83659523D02*
X150506150Y-83754761D01*
X150506150Y-83754761D02*
X150506150Y-83992856D01*
X150506150Y-83992856D02*
X150458531Y-84088094D01*
X150458531Y-84088094D02*
X150410911Y-84135713D01*
X135352305Y-85469047D02*
X134876114Y-85802380D01*
X135352305Y-86040475D02*
X134352305Y-86040475D01*
X134352305Y-86040475D02*
X134352305Y-85659523D01*
X134352305Y-85659523D02*
X134399924Y-85564285D01*
X134399924Y-85564285D02*
X134447543Y-85516666D01*
X134447543Y-85516666D02*
X134542781Y-85469047D01*
X134542781Y-85469047D02*
X134685638Y-85469047D01*
X134685638Y-85469047D02*
X134780876Y-85516666D01*
X134780876Y-85516666D02*
X134828495Y-85564285D01*
X134828495Y-85564285D02*
X134876114Y-85659523D01*
X134876114Y-85659523D02*
X134876114Y-86040475D01*
X135352305Y-84516666D02*
X135352305Y-85088094D01*
X135352305Y-84802380D02*
X134352305Y-84802380D01*
X134352305Y-84802380D02*
X134495162Y-84897618D01*
X134495162Y-84897618D02*
X134590400Y-84992856D01*
X134590400Y-84992856D02*
X134638019Y-85088094D01*
X134352305Y-83897618D02*
X134352305Y-83802380D01*
X134352305Y-83802380D02*
X134399924Y-83707142D01*
X134399924Y-83707142D02*
X134447543Y-83659523D01*
X134447543Y-83659523D02*
X134542781Y-83611904D01*
X134542781Y-83611904D02*
X134733257Y-83564285D01*
X134733257Y-83564285D02*
X134971352Y-83564285D01*
X134971352Y-83564285D02*
X135161828Y-83611904D01*
X135161828Y-83611904D02*
X135257066Y-83659523D01*
X135257066Y-83659523D02*
X135304686Y-83707142D01*
X135304686Y-83707142D02*
X135352305Y-83802380D01*
X135352305Y-83802380D02*
X135352305Y-83897618D01*
X135352305Y-83897618D02*
X135304686Y-83992856D01*
X135304686Y-83992856D02*
X135257066Y-84040475D01*
X135257066Y-84040475D02*
X135161828Y-84088094D01*
X135161828Y-84088094D02*
X134971352Y-84135713D01*
X134971352Y-84135713D02*
X134733257Y-84135713D01*
X134733257Y-84135713D02*
X134542781Y-84088094D01*
X134542781Y-84088094D02*
X134447543Y-84040475D01*
X134447543Y-84040475D02*
X134399924Y-83992856D01*
X134399924Y-83992856D02*
X134352305Y-83897618D01*
X147475381Y-84516666D02*
X146999190Y-84849999D01*
X147475381Y-85088094D02*
X146475381Y-85088094D01*
X146475381Y-85088094D02*
X146475381Y-84707142D01*
X146475381Y-84707142D02*
X146523000Y-84611904D01*
X146523000Y-84611904D02*
X146570619Y-84564285D01*
X146570619Y-84564285D02*
X146665857Y-84516666D01*
X146665857Y-84516666D02*
X146808714Y-84516666D01*
X146808714Y-84516666D02*
X146903952Y-84564285D01*
X146903952Y-84564285D02*
X146951571Y-84611904D01*
X146951571Y-84611904D02*
X146999190Y-84707142D01*
X146999190Y-84707142D02*
X146999190Y-85088094D01*
X146475381Y-83659523D02*
X146475381Y-83849999D01*
X146475381Y-83849999D02*
X146523000Y-83945237D01*
X146523000Y-83945237D02*
X146570619Y-83992856D01*
X146570619Y-83992856D02*
X146713476Y-84088094D01*
X146713476Y-84088094D02*
X146903952Y-84135713D01*
X146903952Y-84135713D02*
X147284904Y-84135713D01*
X147284904Y-84135713D02*
X147380142Y-84088094D01*
X147380142Y-84088094D02*
X147427762Y-84040475D01*
X147427762Y-84040475D02*
X147475381Y-83945237D01*
X147475381Y-83945237D02*
X147475381Y-83754761D01*
X147475381Y-83754761D02*
X147427762Y-83659523D01*
X147427762Y-83659523D02*
X147380142Y-83611904D01*
X147380142Y-83611904D02*
X147284904Y-83564285D01*
X147284904Y-83564285D02*
X147046809Y-83564285D01*
X147046809Y-83564285D02*
X146951571Y-83611904D01*
X146951571Y-83611904D02*
X146903952Y-83659523D01*
X146903952Y-83659523D02*
X146856333Y-83754761D01*
X146856333Y-83754761D02*
X146856333Y-83945237D01*
X146856333Y-83945237D02*
X146903952Y-84040475D01*
X146903952Y-84040475D02*
X146951571Y-84088094D01*
X146951571Y-84088094D02*
X147046809Y-84135713D01*
X126154881Y-73121428D02*
X125354881Y-73121428D01*
X125354881Y-73121428D02*
X125354881Y-72930952D01*
X125354881Y-72930952D02*
X125392976Y-72816666D01*
X125392976Y-72816666D02*
X125469166Y-72740476D01*
X125469166Y-72740476D02*
X125545357Y-72702381D01*
X125545357Y-72702381D02*
X125697738Y-72664285D01*
X125697738Y-72664285D02*
X125812024Y-72664285D01*
X125812024Y-72664285D02*
X125964405Y-72702381D01*
X125964405Y-72702381D02*
X126040595Y-72740476D01*
X126040595Y-72740476D02*
X126116786Y-72816666D01*
X126116786Y-72816666D02*
X126154881Y-72930952D01*
X126154881Y-72930952D02*
X126154881Y-73121428D01*
X126154881Y-71902381D02*
X126154881Y-72359524D01*
X126154881Y-72130952D02*
X125354881Y-72130952D01*
X125354881Y-72130952D02*
X125469166Y-72207143D01*
X125469166Y-72207143D02*
X125545357Y-72283333D01*
X125545357Y-72283333D02*
X125583452Y-72359524D01*
X125354881Y-71635714D02*
X125354881Y-71140476D01*
X125354881Y-71140476D02*
X125659643Y-71407142D01*
X125659643Y-71407142D02*
X125659643Y-71292857D01*
X125659643Y-71292857D02*
X125697738Y-71216666D01*
X125697738Y-71216666D02*
X125735833Y-71178571D01*
X125735833Y-71178571D02*
X125812024Y-71140476D01*
X125812024Y-71140476D02*
X126002500Y-71140476D01*
X126002500Y-71140476D02*
X126078690Y-71178571D01*
X126078690Y-71178571D02*
X126116786Y-71216666D01*
X126116786Y-71216666D02*
X126154881Y-71292857D01*
X126154881Y-71292857D02*
X126154881Y-71521428D01*
X126154881Y-71521428D02*
X126116786Y-71597619D01*
X126116786Y-71597619D02*
X126078690Y-71635714D01*
X144444612Y-84516666D02*
X143968421Y-84849999D01*
X144444612Y-85088094D02*
X143444612Y-85088094D01*
X143444612Y-85088094D02*
X143444612Y-84707142D01*
X143444612Y-84707142D02*
X143492231Y-84611904D01*
X143492231Y-84611904D02*
X143539850Y-84564285D01*
X143539850Y-84564285D02*
X143635088Y-84516666D01*
X143635088Y-84516666D02*
X143777945Y-84516666D01*
X143777945Y-84516666D02*
X143873183Y-84564285D01*
X143873183Y-84564285D02*
X143920802Y-84611904D01*
X143920802Y-84611904D02*
X143968421Y-84707142D01*
X143968421Y-84707142D02*
X143968421Y-85088094D01*
X143444612Y-84183332D02*
X143444612Y-83516666D01*
X143444612Y-83516666D02*
X144444612Y-83945237D01*
X141308726Y-72740475D02*
X140508726Y-72740475D01*
X140508726Y-72740475D02*
X140508726Y-72549999D01*
X140508726Y-72549999D02*
X140546821Y-72435713D01*
X140546821Y-72435713D02*
X140623011Y-72359523D01*
X140623011Y-72359523D02*
X140699202Y-72321428D01*
X140699202Y-72321428D02*
X140851583Y-72283332D01*
X140851583Y-72283332D02*
X140965869Y-72283332D01*
X140965869Y-72283332D02*
X141118250Y-72321428D01*
X141118250Y-72321428D02*
X141194440Y-72359523D01*
X141194440Y-72359523D02*
X141270631Y-72435713D01*
X141270631Y-72435713D02*
X141308726Y-72549999D01*
X141308726Y-72549999D02*
X141308726Y-72740475D01*
X140851583Y-71826190D02*
X140813488Y-71902380D01*
X140813488Y-71902380D02*
X140775392Y-71940475D01*
X140775392Y-71940475D02*
X140699202Y-71978571D01*
X140699202Y-71978571D02*
X140661107Y-71978571D01*
X140661107Y-71978571D02*
X140584916Y-71940475D01*
X140584916Y-71940475D02*
X140546821Y-71902380D01*
X140546821Y-71902380D02*
X140508726Y-71826190D01*
X140508726Y-71826190D02*
X140508726Y-71673809D01*
X140508726Y-71673809D02*
X140546821Y-71597618D01*
X140546821Y-71597618D02*
X140584916Y-71559523D01*
X140584916Y-71559523D02*
X140661107Y-71521428D01*
X140661107Y-71521428D02*
X140699202Y-71521428D01*
X140699202Y-71521428D02*
X140775392Y-71559523D01*
X140775392Y-71559523D02*
X140813488Y-71597618D01*
X140813488Y-71597618D02*
X140851583Y-71673809D01*
X140851583Y-71673809D02*
X140851583Y-71826190D01*
X140851583Y-71826190D02*
X140889678Y-71902380D01*
X140889678Y-71902380D02*
X140927773Y-71940475D01*
X140927773Y-71940475D02*
X141003964Y-71978571D01*
X141003964Y-71978571D02*
X141156345Y-71978571D01*
X141156345Y-71978571D02*
X141232535Y-71940475D01*
X141232535Y-71940475D02*
X141270631Y-71902380D01*
X141270631Y-71902380D02*
X141308726Y-71826190D01*
X141308726Y-71826190D02*
X141308726Y-71673809D01*
X141308726Y-71673809D02*
X141270631Y-71597618D01*
X141270631Y-71597618D02*
X141232535Y-71559523D01*
X141232535Y-71559523D02*
X141156345Y-71521428D01*
X141156345Y-71521428D02*
X141003964Y-71521428D01*
X141003964Y-71521428D02*
X140927773Y-71559523D01*
X140927773Y-71559523D02*
X140889678Y-71597618D01*
X140889678Y-71597618D02*
X140851583Y-71673809D01*
X138277957Y-72740475D02*
X137477957Y-72740475D01*
X137477957Y-72740475D02*
X137477957Y-72549999D01*
X137477957Y-72549999D02*
X137516052Y-72435713D01*
X137516052Y-72435713D02*
X137592242Y-72359523D01*
X137592242Y-72359523D02*
X137668433Y-72321428D01*
X137668433Y-72321428D02*
X137820814Y-72283332D01*
X137820814Y-72283332D02*
X137935100Y-72283332D01*
X137935100Y-72283332D02*
X138087481Y-72321428D01*
X138087481Y-72321428D02*
X138163671Y-72359523D01*
X138163671Y-72359523D02*
X138239862Y-72435713D01*
X138239862Y-72435713D02*
X138277957Y-72549999D01*
X138277957Y-72549999D02*
X138277957Y-72740475D01*
X138277957Y-71902380D02*
X138277957Y-71749999D01*
X138277957Y-71749999D02*
X138239862Y-71673809D01*
X138239862Y-71673809D02*
X138201766Y-71635713D01*
X138201766Y-71635713D02*
X138087481Y-71559523D01*
X138087481Y-71559523D02*
X137935100Y-71521428D01*
X137935100Y-71521428D02*
X137630338Y-71521428D01*
X137630338Y-71521428D02*
X137554147Y-71559523D01*
X137554147Y-71559523D02*
X137516052Y-71597618D01*
X137516052Y-71597618D02*
X137477957Y-71673809D01*
X137477957Y-71673809D02*
X137477957Y-71826190D01*
X137477957Y-71826190D02*
X137516052Y-71902380D01*
X137516052Y-71902380D02*
X137554147Y-71940475D01*
X137554147Y-71940475D02*
X137630338Y-71978571D01*
X137630338Y-71978571D02*
X137820814Y-71978571D01*
X137820814Y-71978571D02*
X137897004Y-71940475D01*
X137897004Y-71940475D02*
X137935100Y-71902380D01*
X137935100Y-71902380D02*
X137973195Y-71826190D01*
X137973195Y-71826190D02*
X137973195Y-71673809D01*
X137973195Y-71673809D02*
X137935100Y-71597618D01*
X137935100Y-71597618D02*
X137897004Y-71559523D01*
X137897004Y-71559523D02*
X137820814Y-71521428D01*
X126259998Y-85469047D02*
X125783807Y-85802380D01*
X126259998Y-86040475D02*
X125259998Y-86040475D01*
X125259998Y-86040475D02*
X125259998Y-85659523D01*
X125259998Y-85659523D02*
X125307617Y-85564285D01*
X125307617Y-85564285D02*
X125355236Y-85516666D01*
X125355236Y-85516666D02*
X125450474Y-85469047D01*
X125450474Y-85469047D02*
X125593331Y-85469047D01*
X125593331Y-85469047D02*
X125688569Y-85516666D01*
X125688569Y-85516666D02*
X125736188Y-85564285D01*
X125736188Y-85564285D02*
X125783807Y-85659523D01*
X125783807Y-85659523D02*
X125783807Y-86040475D01*
X126259998Y-84516666D02*
X126259998Y-85088094D01*
X126259998Y-84802380D02*
X125259998Y-84802380D01*
X125259998Y-84802380D02*
X125402855Y-84897618D01*
X125402855Y-84897618D02*
X125498093Y-84992856D01*
X125498093Y-84992856D02*
X125545712Y-85088094D01*
X125259998Y-84183332D02*
X125259998Y-83564285D01*
X125259998Y-83564285D02*
X125640950Y-83897618D01*
X125640950Y-83897618D02*
X125640950Y-83754761D01*
X125640950Y-83754761D02*
X125688569Y-83659523D01*
X125688569Y-83659523D02*
X125736188Y-83611904D01*
X125736188Y-83611904D02*
X125831426Y-83564285D01*
X125831426Y-83564285D02*
X126069521Y-83564285D01*
X126069521Y-83564285D02*
X126164759Y-83611904D01*
X126164759Y-83611904D02*
X126212379Y-83659523D01*
X126212379Y-83659523D02*
X126259998Y-83754761D01*
X126259998Y-83754761D02*
X126259998Y-84040475D01*
X126259998Y-84040475D02*
X126212379Y-84135713D01*
X126212379Y-84135713D02*
X126164759Y-84183332D01*
X135247188Y-73121428D02*
X134447188Y-73121428D01*
X134447188Y-73121428D02*
X134447188Y-72930952D01*
X134447188Y-72930952D02*
X134485283Y-72816666D01*
X134485283Y-72816666D02*
X134561473Y-72740476D01*
X134561473Y-72740476D02*
X134637664Y-72702381D01*
X134637664Y-72702381D02*
X134790045Y-72664285D01*
X134790045Y-72664285D02*
X134904331Y-72664285D01*
X134904331Y-72664285D02*
X135056712Y-72702381D01*
X135056712Y-72702381D02*
X135132902Y-72740476D01*
X135132902Y-72740476D02*
X135209093Y-72816666D01*
X135209093Y-72816666D02*
X135247188Y-72930952D01*
X135247188Y-72930952D02*
X135247188Y-73121428D01*
X135247188Y-71902381D02*
X135247188Y-72359524D01*
X135247188Y-72130952D02*
X134447188Y-72130952D01*
X134447188Y-72130952D02*
X134561473Y-72207143D01*
X134561473Y-72207143D02*
X134637664Y-72283333D01*
X134637664Y-72283333D02*
X134675759Y-72359524D01*
X134447188Y-71407142D02*
X134447188Y-71330952D01*
X134447188Y-71330952D02*
X134485283Y-71254761D01*
X134485283Y-71254761D02*
X134523378Y-71216666D01*
X134523378Y-71216666D02*
X134599569Y-71178571D01*
X134599569Y-71178571D02*
X134751950Y-71140476D01*
X134751950Y-71140476D02*
X134942426Y-71140476D01*
X134942426Y-71140476D02*
X135094807Y-71178571D01*
X135094807Y-71178571D02*
X135170997Y-71216666D01*
X135170997Y-71216666D02*
X135209093Y-71254761D01*
X135209093Y-71254761D02*
X135247188Y-71330952D01*
X135247188Y-71330952D02*
X135247188Y-71407142D01*
X135247188Y-71407142D02*
X135209093Y-71483333D01*
X135209093Y-71483333D02*
X135170997Y-71521428D01*
X135170997Y-71521428D02*
X135094807Y-71559523D01*
X135094807Y-71559523D02*
X134942426Y-71597619D01*
X134942426Y-71597619D02*
X134751950Y-71597619D01*
X134751950Y-71597619D02*
X134599569Y-71559523D01*
X134599569Y-71559523D02*
X134523378Y-71521428D01*
X134523378Y-71521428D02*
X134485283Y-71483333D01*
X134485283Y-71483333D02*
X134447188Y-71407142D01*
X132216419Y-73121428D02*
X131416419Y-73121428D01*
X131416419Y-73121428D02*
X131416419Y-72930952D01*
X131416419Y-72930952D02*
X131454514Y-72816666D01*
X131454514Y-72816666D02*
X131530704Y-72740476D01*
X131530704Y-72740476D02*
X131606895Y-72702381D01*
X131606895Y-72702381D02*
X131759276Y-72664285D01*
X131759276Y-72664285D02*
X131873562Y-72664285D01*
X131873562Y-72664285D02*
X132025943Y-72702381D01*
X132025943Y-72702381D02*
X132102133Y-72740476D01*
X132102133Y-72740476D02*
X132178324Y-72816666D01*
X132178324Y-72816666D02*
X132216419Y-72930952D01*
X132216419Y-72930952D02*
X132216419Y-73121428D01*
X132216419Y-71902381D02*
X132216419Y-72359524D01*
X132216419Y-72130952D02*
X131416419Y-72130952D01*
X131416419Y-72130952D02*
X131530704Y-72207143D01*
X131530704Y-72207143D02*
X131606895Y-72283333D01*
X131606895Y-72283333D02*
X131644990Y-72359524D01*
X132216419Y-71140476D02*
X132216419Y-71597619D01*
X132216419Y-71369047D02*
X131416419Y-71369047D01*
X131416419Y-71369047D02*
X131530704Y-71445238D01*
X131530704Y-71445238D02*
X131606895Y-71521428D01*
X131606895Y-71521428D02*
X131644990Y-71597619D01*
X156462571Y-72740475D02*
X155662571Y-72740475D01*
X155662571Y-72740475D02*
X155662571Y-72549999D01*
X155662571Y-72549999D02*
X155700666Y-72435713D01*
X155700666Y-72435713D02*
X155776856Y-72359523D01*
X155776856Y-72359523D02*
X155853047Y-72321428D01*
X155853047Y-72321428D02*
X156005428Y-72283332D01*
X156005428Y-72283332D02*
X156119714Y-72283332D01*
X156119714Y-72283332D02*
X156272095Y-72321428D01*
X156272095Y-72321428D02*
X156348285Y-72359523D01*
X156348285Y-72359523D02*
X156424476Y-72435713D01*
X156424476Y-72435713D02*
X156462571Y-72549999D01*
X156462571Y-72549999D02*
X156462571Y-72740475D01*
X155662571Y-72016666D02*
X155662571Y-71521428D01*
X155662571Y-71521428D02*
X155967333Y-71788094D01*
X155967333Y-71788094D02*
X155967333Y-71673809D01*
X155967333Y-71673809D02*
X156005428Y-71597618D01*
X156005428Y-71597618D02*
X156043523Y-71559523D01*
X156043523Y-71559523D02*
X156119714Y-71521428D01*
X156119714Y-71521428D02*
X156310190Y-71521428D01*
X156310190Y-71521428D02*
X156386380Y-71559523D01*
X156386380Y-71559523D02*
X156424476Y-71597618D01*
X156424476Y-71597618D02*
X156462571Y-71673809D01*
X156462571Y-71673809D02*
X156462571Y-71902380D01*
X156462571Y-71902380D02*
X156424476Y-71978571D01*
X156424476Y-71978571D02*
X156386380Y-72016666D01*
X159493340Y-72740475D02*
X158693340Y-72740475D01*
X158693340Y-72740475D02*
X158693340Y-72549999D01*
X158693340Y-72549999D02*
X158731435Y-72435713D01*
X158731435Y-72435713D02*
X158807625Y-72359523D01*
X158807625Y-72359523D02*
X158883816Y-72321428D01*
X158883816Y-72321428D02*
X159036197Y-72283332D01*
X159036197Y-72283332D02*
X159150483Y-72283332D01*
X159150483Y-72283332D02*
X159302864Y-72321428D01*
X159302864Y-72321428D02*
X159379054Y-72359523D01*
X159379054Y-72359523D02*
X159455245Y-72435713D01*
X159455245Y-72435713D02*
X159493340Y-72549999D01*
X159493340Y-72549999D02*
X159493340Y-72740475D01*
X158769530Y-71978571D02*
X158731435Y-71940475D01*
X158731435Y-71940475D02*
X158693340Y-71864285D01*
X158693340Y-71864285D02*
X158693340Y-71673809D01*
X158693340Y-71673809D02*
X158731435Y-71597618D01*
X158731435Y-71597618D02*
X158769530Y-71559523D01*
X158769530Y-71559523D02*
X158845721Y-71521428D01*
X158845721Y-71521428D02*
X158921911Y-71521428D01*
X158921911Y-71521428D02*
X159036197Y-71559523D01*
X159036197Y-71559523D02*
X159493340Y-72016666D01*
X159493340Y-72016666D02*
X159493340Y-71521428D01*
X129290767Y-85469047D02*
X128814576Y-85802380D01*
X129290767Y-86040475D02*
X128290767Y-86040475D01*
X128290767Y-86040475D02*
X128290767Y-85659523D01*
X128290767Y-85659523D02*
X128338386Y-85564285D01*
X128338386Y-85564285D02*
X128386005Y-85516666D01*
X128386005Y-85516666D02*
X128481243Y-85469047D01*
X128481243Y-85469047D02*
X128624100Y-85469047D01*
X128624100Y-85469047D02*
X128719338Y-85516666D01*
X128719338Y-85516666D02*
X128766957Y-85564285D01*
X128766957Y-85564285D02*
X128814576Y-85659523D01*
X128814576Y-85659523D02*
X128814576Y-86040475D01*
X129290767Y-84516666D02*
X129290767Y-85088094D01*
X129290767Y-84802380D02*
X128290767Y-84802380D01*
X128290767Y-84802380D02*
X128433624Y-84897618D01*
X128433624Y-84897618D02*
X128528862Y-84992856D01*
X128528862Y-84992856D02*
X128576481Y-85088094D01*
X128386005Y-84135713D02*
X128338386Y-84088094D01*
X128338386Y-84088094D02*
X128290767Y-83992856D01*
X128290767Y-83992856D02*
X128290767Y-83754761D01*
X128290767Y-83754761D02*
X128338386Y-83659523D01*
X128338386Y-83659523D02*
X128386005Y-83611904D01*
X128386005Y-83611904D02*
X128481243Y-83564285D01*
X128481243Y-83564285D02*
X128576481Y-83564285D01*
X128576481Y-83564285D02*
X128719338Y-83611904D01*
X128719338Y-83611904D02*
X129290767Y-84183332D01*
X129290767Y-84183332D02*
X129290767Y-83564285D01*
X144339495Y-72740475D02*
X143539495Y-72740475D01*
X143539495Y-72740475D02*
X143539495Y-72549999D01*
X143539495Y-72549999D02*
X143577590Y-72435713D01*
X143577590Y-72435713D02*
X143653780Y-72359523D01*
X143653780Y-72359523D02*
X143729971Y-72321428D01*
X143729971Y-72321428D02*
X143882352Y-72283332D01*
X143882352Y-72283332D02*
X143996638Y-72283332D01*
X143996638Y-72283332D02*
X144149019Y-72321428D01*
X144149019Y-72321428D02*
X144225209Y-72359523D01*
X144225209Y-72359523D02*
X144301400Y-72435713D01*
X144301400Y-72435713D02*
X144339495Y-72549999D01*
X144339495Y-72549999D02*
X144339495Y-72740475D01*
X143539495Y-72016666D02*
X143539495Y-71483332D01*
X143539495Y-71483332D02*
X144339495Y-71826190D01*
X153431802Y-72740475D02*
X152631802Y-72740475D01*
X152631802Y-72740475D02*
X152631802Y-72549999D01*
X152631802Y-72549999D02*
X152669897Y-72435713D01*
X152669897Y-72435713D02*
X152746087Y-72359523D01*
X152746087Y-72359523D02*
X152822278Y-72321428D01*
X152822278Y-72321428D02*
X152974659Y-72283332D01*
X152974659Y-72283332D02*
X153088945Y-72283332D01*
X153088945Y-72283332D02*
X153241326Y-72321428D01*
X153241326Y-72321428D02*
X153317516Y-72359523D01*
X153317516Y-72359523D02*
X153393707Y-72435713D01*
X153393707Y-72435713D02*
X153431802Y-72549999D01*
X153431802Y-72549999D02*
X153431802Y-72740475D01*
X152898468Y-71597618D02*
X153431802Y-71597618D01*
X152593707Y-71788094D02*
X153165135Y-71978571D01*
X153165135Y-71978571D02*
X153165135Y-71483332D01*
X162629229Y-84516666D02*
X162153038Y-84849999D01*
X162629229Y-85088094D02*
X161629229Y-85088094D01*
X161629229Y-85088094D02*
X161629229Y-84707142D01*
X161629229Y-84707142D02*
X161676848Y-84611904D01*
X161676848Y-84611904D02*
X161724467Y-84564285D01*
X161724467Y-84564285D02*
X161819705Y-84516666D01*
X161819705Y-84516666D02*
X161962562Y-84516666D01*
X161962562Y-84516666D02*
X162057800Y-84564285D01*
X162057800Y-84564285D02*
X162105419Y-84611904D01*
X162105419Y-84611904D02*
X162153038Y-84707142D01*
X162153038Y-84707142D02*
X162153038Y-85088094D01*
X162629229Y-83564285D02*
X162629229Y-84135713D01*
X162629229Y-83849999D02*
X161629229Y-83849999D01*
X161629229Y-83849999D02*
X161772086Y-83945237D01*
X161772086Y-83945237D02*
X161867324Y-84040475D01*
X161867324Y-84040475D02*
X161914943Y-84135713D01*
X162826242Y-64817857D02*
X162350051Y-65151190D01*
X162826242Y-65389285D02*
X161826242Y-65389285D01*
X161826242Y-65389285D02*
X161826242Y-65008333D01*
X161826242Y-65008333D02*
X161873861Y-64913095D01*
X161873861Y-64913095D02*
X161921480Y-64865476D01*
X161921480Y-64865476D02*
X162016718Y-64817857D01*
X162016718Y-64817857D02*
X162159575Y-64817857D01*
X162159575Y-64817857D02*
X162254813Y-64865476D01*
X162254813Y-64865476D02*
X162302432Y-64913095D01*
X162302432Y-64913095D02*
X162350051Y-65008333D01*
X162350051Y-65008333D02*
X162350051Y-65389285D01*
X162826242Y-63865476D02*
X162826242Y-64436904D01*
X162826242Y-64151190D02*
X161826242Y-64151190D01*
X161826242Y-64151190D02*
X161969099Y-64246428D01*
X161969099Y-64246428D02*
X162064337Y-64341666D01*
X162064337Y-64341666D02*
X162111956Y-64436904D01*
X161826242Y-63008333D02*
X161826242Y-63198809D01*
X161826242Y-63198809D02*
X161873861Y-63294047D01*
X161873861Y-63294047D02*
X161921480Y-63341666D01*
X161921480Y-63341666D02*
X162064337Y-63436904D01*
X162064337Y-63436904D02*
X162254813Y-63484523D01*
X162254813Y-63484523D02*
X162635765Y-63484523D01*
X162635765Y-63484523D02*
X162731003Y-63436904D01*
X162731003Y-63436904D02*
X162778623Y-63389285D01*
X162778623Y-63389285D02*
X162826242Y-63294047D01*
X162826242Y-63294047D02*
X162826242Y-63103571D01*
X162826242Y-63103571D02*
X162778623Y-63008333D01*
X162778623Y-63008333D02*
X162731003Y-62960714D01*
X162731003Y-62960714D02*
X162635765Y-62913095D01*
X162635765Y-62913095D02*
X162397670Y-62913095D01*
X162397670Y-62913095D02*
X162302432Y-62960714D01*
X162302432Y-62960714D02*
X162254813Y-63008333D01*
X162254813Y-63008333D02*
X162207194Y-63103571D01*
X162207194Y-63103571D02*
X162207194Y-63294047D01*
X162207194Y-63294047D02*
X162254813Y-63389285D01*
X162254813Y-63389285D02*
X162302432Y-63436904D01*
X162302432Y-63436904D02*
X162397670Y-63484523D01*
X159598457Y-84516666D02*
X159122266Y-84849999D01*
X159598457Y-85088094D02*
X158598457Y-85088094D01*
X158598457Y-85088094D02*
X158598457Y-84707142D01*
X158598457Y-84707142D02*
X158646076Y-84611904D01*
X158646076Y-84611904D02*
X158693695Y-84564285D01*
X158693695Y-84564285D02*
X158788933Y-84516666D01*
X158788933Y-84516666D02*
X158931790Y-84516666D01*
X158931790Y-84516666D02*
X159027028Y-84564285D01*
X159027028Y-84564285D02*
X159074647Y-84611904D01*
X159074647Y-84611904D02*
X159122266Y-84707142D01*
X159122266Y-84707142D02*
X159122266Y-85088094D01*
X158693695Y-84135713D02*
X158646076Y-84088094D01*
X158646076Y-84088094D02*
X158598457Y-83992856D01*
X158598457Y-83992856D02*
X158598457Y-83754761D01*
X158598457Y-83754761D02*
X158646076Y-83659523D01*
X158646076Y-83659523D02*
X158693695Y-83611904D01*
X158693695Y-83611904D02*
X158788933Y-83564285D01*
X158788933Y-83564285D02*
X158884171Y-83564285D01*
X158884171Y-83564285D02*
X159027028Y-83611904D01*
X159027028Y-83611904D02*
X159598457Y-84183332D01*
X159598457Y-84183332D02*
X159598457Y-83564285D01*
X132321536Y-85469047D02*
X131845345Y-85802380D01*
X132321536Y-86040475D02*
X131321536Y-86040475D01*
X131321536Y-86040475D02*
X131321536Y-85659523D01*
X131321536Y-85659523D02*
X131369155Y-85564285D01*
X131369155Y-85564285D02*
X131416774Y-85516666D01*
X131416774Y-85516666D02*
X131512012Y-85469047D01*
X131512012Y-85469047D02*
X131654869Y-85469047D01*
X131654869Y-85469047D02*
X131750107Y-85516666D01*
X131750107Y-85516666D02*
X131797726Y-85564285D01*
X131797726Y-85564285D02*
X131845345Y-85659523D01*
X131845345Y-85659523D02*
X131845345Y-86040475D01*
X132321536Y-84516666D02*
X132321536Y-85088094D01*
X132321536Y-84802380D02*
X131321536Y-84802380D01*
X131321536Y-84802380D02*
X131464393Y-84897618D01*
X131464393Y-84897618D02*
X131559631Y-84992856D01*
X131559631Y-84992856D02*
X131607250Y-85088094D01*
X132321536Y-83564285D02*
X132321536Y-84135713D01*
X132321536Y-83849999D02*
X131321536Y-83849999D01*
X131321536Y-83849999D02*
X131464393Y-83945237D01*
X131464393Y-83945237D02*
X131559631Y-84040475D01*
X131559631Y-84040475D02*
X131607250Y-84135713D01*
X126211961Y-64817857D02*
X125735770Y-65151190D01*
X126211961Y-65389285D02*
X125211961Y-65389285D01*
X125211961Y-65389285D02*
X125211961Y-65008333D01*
X125211961Y-65008333D02*
X125259580Y-64913095D01*
X125259580Y-64913095D02*
X125307199Y-64865476D01*
X125307199Y-64865476D02*
X125402437Y-64817857D01*
X125402437Y-64817857D02*
X125545294Y-64817857D01*
X125545294Y-64817857D02*
X125640532Y-64865476D01*
X125640532Y-64865476D02*
X125688151Y-64913095D01*
X125688151Y-64913095D02*
X125735770Y-65008333D01*
X125735770Y-65008333D02*
X125735770Y-65389285D01*
X125307199Y-64436904D02*
X125259580Y-64389285D01*
X125259580Y-64389285D02*
X125211961Y-64294047D01*
X125211961Y-64294047D02*
X125211961Y-64055952D01*
X125211961Y-64055952D02*
X125259580Y-63960714D01*
X125259580Y-63960714D02*
X125307199Y-63913095D01*
X125307199Y-63913095D02*
X125402437Y-63865476D01*
X125402437Y-63865476D02*
X125497675Y-63865476D01*
X125497675Y-63865476D02*
X125640532Y-63913095D01*
X125640532Y-63913095D02*
X126211961Y-64484523D01*
X126211961Y-64484523D02*
X126211961Y-63865476D01*
X125211961Y-63532142D02*
X125211961Y-62865476D01*
X125211961Y-62865476D02*
X126211961Y-63294047D01*
X152840529Y-64817857D02*
X152364338Y-65151190D01*
X152840529Y-65389285D02*
X151840529Y-65389285D01*
X151840529Y-65389285D02*
X151840529Y-65008333D01*
X151840529Y-65008333D02*
X151888148Y-64913095D01*
X151888148Y-64913095D02*
X151935767Y-64865476D01*
X151935767Y-64865476D02*
X152031005Y-64817857D01*
X152031005Y-64817857D02*
X152173862Y-64817857D01*
X152173862Y-64817857D02*
X152269100Y-64865476D01*
X152269100Y-64865476D02*
X152316719Y-64913095D01*
X152316719Y-64913095D02*
X152364338Y-65008333D01*
X152364338Y-65008333D02*
X152364338Y-65389285D01*
X152840529Y-63865476D02*
X152840529Y-64436904D01*
X152840529Y-64151190D02*
X151840529Y-64151190D01*
X151840529Y-64151190D02*
X151983386Y-64246428D01*
X151983386Y-64246428D02*
X152078624Y-64341666D01*
X152078624Y-64341666D02*
X152126243Y-64436904D01*
X152840529Y-63389285D02*
X152840529Y-63198809D01*
X152840529Y-63198809D02*
X152792910Y-63103571D01*
X152792910Y-63103571D02*
X152745290Y-63055952D01*
X152745290Y-63055952D02*
X152602433Y-62960714D01*
X152602433Y-62960714D02*
X152411957Y-62913095D01*
X152411957Y-62913095D02*
X152031005Y-62913095D01*
X152031005Y-62913095D02*
X151935767Y-62960714D01*
X151935767Y-62960714D02*
X151888148Y-63008333D01*
X151888148Y-63008333D02*
X151840529Y-63103571D01*
X151840529Y-63103571D02*
X151840529Y-63294047D01*
X151840529Y-63294047D02*
X151888148Y-63389285D01*
X151888148Y-63389285D02*
X151935767Y-63436904D01*
X151935767Y-63436904D02*
X152031005Y-63484523D01*
X152031005Y-63484523D02*
X152269100Y-63484523D01*
X152269100Y-63484523D02*
X152364338Y-63436904D01*
X152364338Y-63436904D02*
X152411957Y-63389285D01*
X152411957Y-63389285D02*
X152459576Y-63294047D01*
X152459576Y-63294047D02*
X152459576Y-63103571D01*
X152459576Y-63103571D02*
X152411957Y-63008333D01*
X152411957Y-63008333D02*
X152364338Y-62960714D01*
X152364338Y-62960714D02*
X152269100Y-62913095D01*
X141413843Y-84516666D02*
X140937652Y-84849999D01*
X141413843Y-85088094D02*
X140413843Y-85088094D01*
X140413843Y-85088094D02*
X140413843Y-84707142D01*
X140413843Y-84707142D02*
X140461462Y-84611904D01*
X140461462Y-84611904D02*
X140509081Y-84564285D01*
X140509081Y-84564285D02*
X140604319Y-84516666D01*
X140604319Y-84516666D02*
X140747176Y-84516666D01*
X140747176Y-84516666D02*
X140842414Y-84564285D01*
X140842414Y-84564285D02*
X140890033Y-84611904D01*
X140890033Y-84611904D02*
X140937652Y-84707142D01*
X140937652Y-84707142D02*
X140937652Y-85088094D01*
X140842414Y-83945237D02*
X140794795Y-84040475D01*
X140794795Y-84040475D02*
X140747176Y-84088094D01*
X140747176Y-84088094D02*
X140651938Y-84135713D01*
X140651938Y-84135713D02*
X140604319Y-84135713D01*
X140604319Y-84135713D02*
X140509081Y-84088094D01*
X140509081Y-84088094D02*
X140461462Y-84040475D01*
X140461462Y-84040475D02*
X140413843Y-83945237D01*
X140413843Y-83945237D02*
X140413843Y-83754761D01*
X140413843Y-83754761D02*
X140461462Y-83659523D01*
X140461462Y-83659523D02*
X140509081Y-83611904D01*
X140509081Y-83611904D02*
X140604319Y-83564285D01*
X140604319Y-83564285D02*
X140651938Y-83564285D01*
X140651938Y-83564285D02*
X140747176Y-83611904D01*
X140747176Y-83611904D02*
X140794795Y-83659523D01*
X140794795Y-83659523D02*
X140842414Y-83754761D01*
X140842414Y-83754761D02*
X140842414Y-83945237D01*
X140842414Y-83945237D02*
X140890033Y-84040475D01*
X140890033Y-84040475D02*
X140937652Y-84088094D01*
X140937652Y-84088094D02*
X141032890Y-84135713D01*
X141032890Y-84135713D02*
X141223366Y-84135713D01*
X141223366Y-84135713D02*
X141318604Y-84088094D01*
X141318604Y-84088094D02*
X141366224Y-84040475D01*
X141366224Y-84040475D02*
X141413843Y-83945237D01*
X141413843Y-83945237D02*
X141413843Y-83754761D01*
X141413843Y-83754761D02*
X141366224Y-83659523D01*
X141366224Y-83659523D02*
X141318604Y-83611904D01*
X141318604Y-83611904D02*
X141223366Y-83564285D01*
X141223366Y-83564285D02*
X141032890Y-83564285D01*
X141032890Y-83564285D02*
X140937652Y-83611904D01*
X140937652Y-83611904D02*
X140890033Y-83659523D01*
X140890033Y-83659523D02*
X140842414Y-83754761D01*
X122731455Y-64817857D02*
X122255264Y-65151190D01*
X122731455Y-65389285D02*
X121731455Y-65389285D01*
X121731455Y-65389285D02*
X121731455Y-65008333D01*
X121731455Y-65008333D02*
X121779074Y-64913095D01*
X121779074Y-64913095D02*
X121826693Y-64865476D01*
X121826693Y-64865476D02*
X121921931Y-64817857D01*
X121921931Y-64817857D02*
X122064788Y-64817857D01*
X122064788Y-64817857D02*
X122160026Y-64865476D01*
X122160026Y-64865476D02*
X122207645Y-64913095D01*
X122207645Y-64913095D02*
X122255264Y-65008333D01*
X122255264Y-65008333D02*
X122255264Y-65389285D01*
X121826693Y-64436904D02*
X121779074Y-64389285D01*
X121779074Y-64389285D02*
X121731455Y-64294047D01*
X121731455Y-64294047D02*
X121731455Y-64055952D01*
X121731455Y-64055952D02*
X121779074Y-63960714D01*
X121779074Y-63960714D02*
X121826693Y-63913095D01*
X121826693Y-63913095D02*
X121921931Y-63865476D01*
X121921931Y-63865476D02*
X122017169Y-63865476D01*
X122017169Y-63865476D02*
X122160026Y-63913095D01*
X122160026Y-63913095D02*
X122731455Y-64484523D01*
X122731455Y-64484523D02*
X122731455Y-63865476D01*
X122160026Y-63294047D02*
X122112407Y-63389285D01*
X122112407Y-63389285D02*
X122064788Y-63436904D01*
X122064788Y-63436904D02*
X121969550Y-63484523D01*
X121969550Y-63484523D02*
X121921931Y-63484523D01*
X121921931Y-63484523D02*
X121826693Y-63436904D01*
X121826693Y-63436904D02*
X121779074Y-63389285D01*
X121779074Y-63389285D02*
X121731455Y-63294047D01*
X121731455Y-63294047D02*
X121731455Y-63103571D01*
X121731455Y-63103571D02*
X121779074Y-63008333D01*
X121779074Y-63008333D02*
X121826693Y-62960714D01*
X121826693Y-62960714D02*
X121921931Y-62913095D01*
X121921931Y-62913095D02*
X121969550Y-62913095D01*
X121969550Y-62913095D02*
X122064788Y-62960714D01*
X122064788Y-62960714D02*
X122112407Y-63008333D01*
X122112407Y-63008333D02*
X122160026Y-63103571D01*
X122160026Y-63103571D02*
X122160026Y-63294047D01*
X122160026Y-63294047D02*
X122207645Y-63389285D01*
X122207645Y-63389285D02*
X122255264Y-63436904D01*
X122255264Y-63436904D02*
X122350502Y-63484523D01*
X122350502Y-63484523D02*
X122540978Y-63484523D01*
X122540978Y-63484523D02*
X122636216Y-63436904D01*
X122636216Y-63436904D02*
X122683836Y-63389285D01*
X122683836Y-63389285D02*
X122731455Y-63294047D01*
X122731455Y-63294047D02*
X122731455Y-63103571D01*
X122731455Y-63103571D02*
X122683836Y-63008333D01*
X122683836Y-63008333D02*
X122636216Y-62960714D01*
X122636216Y-62960714D02*
X122540978Y-62913095D01*
X122540978Y-62913095D02*
X122350502Y-62913095D01*
X122350502Y-62913095D02*
X122255264Y-62960714D01*
X122255264Y-62960714D02*
X122207645Y-63008333D01*
X122207645Y-63008333D02*
X122160026Y-63103571D01*
X123229229Y-85469047D02*
X122753038Y-85802380D01*
X123229229Y-86040475D02*
X122229229Y-86040475D01*
X122229229Y-86040475D02*
X122229229Y-85659523D01*
X122229229Y-85659523D02*
X122276848Y-85564285D01*
X122276848Y-85564285D02*
X122324467Y-85516666D01*
X122324467Y-85516666D02*
X122419705Y-85469047D01*
X122419705Y-85469047D02*
X122562562Y-85469047D01*
X122562562Y-85469047D02*
X122657800Y-85516666D01*
X122657800Y-85516666D02*
X122705419Y-85564285D01*
X122705419Y-85564285D02*
X122753038Y-85659523D01*
X122753038Y-85659523D02*
X122753038Y-86040475D01*
X123229229Y-84516666D02*
X123229229Y-85088094D01*
X123229229Y-84802380D02*
X122229229Y-84802380D01*
X122229229Y-84802380D02*
X122372086Y-84897618D01*
X122372086Y-84897618D02*
X122467324Y-84992856D01*
X122467324Y-84992856D02*
X122514943Y-85088094D01*
X122562562Y-83659523D02*
X123229229Y-83659523D01*
X122181610Y-83897618D02*
X122895895Y-84135713D01*
X122895895Y-84135713D02*
X122895895Y-83516666D01*
X139526245Y-64817857D02*
X139050054Y-65151190D01*
X139526245Y-65389285D02*
X138526245Y-65389285D01*
X138526245Y-65389285D02*
X138526245Y-65008333D01*
X138526245Y-65008333D02*
X138573864Y-64913095D01*
X138573864Y-64913095D02*
X138621483Y-64865476D01*
X138621483Y-64865476D02*
X138716721Y-64817857D01*
X138716721Y-64817857D02*
X138859578Y-64817857D01*
X138859578Y-64817857D02*
X138954816Y-64865476D01*
X138954816Y-64865476D02*
X139002435Y-64913095D01*
X139002435Y-64913095D02*
X139050054Y-65008333D01*
X139050054Y-65008333D02*
X139050054Y-65389285D01*
X138621483Y-64436904D02*
X138573864Y-64389285D01*
X138573864Y-64389285D02*
X138526245Y-64294047D01*
X138526245Y-64294047D02*
X138526245Y-64055952D01*
X138526245Y-64055952D02*
X138573864Y-63960714D01*
X138573864Y-63960714D02*
X138621483Y-63913095D01*
X138621483Y-63913095D02*
X138716721Y-63865476D01*
X138716721Y-63865476D02*
X138811959Y-63865476D01*
X138811959Y-63865476D02*
X138954816Y-63913095D01*
X138954816Y-63913095D02*
X139526245Y-64484523D01*
X139526245Y-64484523D02*
X139526245Y-63865476D01*
X138526245Y-63532142D02*
X138526245Y-62913095D01*
X138526245Y-62913095D02*
X138907197Y-63246428D01*
X138907197Y-63246428D02*
X138907197Y-63103571D01*
X138907197Y-63103571D02*
X138954816Y-63008333D01*
X138954816Y-63008333D02*
X139002435Y-62960714D01*
X139002435Y-62960714D02*
X139097673Y-62913095D01*
X139097673Y-62913095D02*
X139335768Y-62913095D01*
X139335768Y-62913095D02*
X139431006Y-62960714D01*
X139431006Y-62960714D02*
X139478626Y-63008333D01*
X139478626Y-63008333D02*
X139526245Y-63103571D01*
X139526245Y-63103571D02*
X139526245Y-63389285D01*
X139526245Y-63389285D02*
X139478626Y-63484523D01*
X139478626Y-63484523D02*
X139431006Y-63532142D01*
X159497671Y-64817857D02*
X159021480Y-65151190D01*
X159497671Y-65389285D02*
X158497671Y-65389285D01*
X158497671Y-65389285D02*
X158497671Y-65008333D01*
X158497671Y-65008333D02*
X158545290Y-64913095D01*
X158545290Y-64913095D02*
X158592909Y-64865476D01*
X158592909Y-64865476D02*
X158688147Y-64817857D01*
X158688147Y-64817857D02*
X158831004Y-64817857D01*
X158831004Y-64817857D02*
X158926242Y-64865476D01*
X158926242Y-64865476D02*
X158973861Y-64913095D01*
X158973861Y-64913095D02*
X159021480Y-65008333D01*
X159021480Y-65008333D02*
X159021480Y-65389285D01*
X159497671Y-63865476D02*
X159497671Y-64436904D01*
X159497671Y-64151190D02*
X158497671Y-64151190D01*
X158497671Y-64151190D02*
X158640528Y-64246428D01*
X158640528Y-64246428D02*
X158735766Y-64341666D01*
X158735766Y-64341666D02*
X158783385Y-64436904D01*
X158497671Y-63532142D02*
X158497671Y-62865476D01*
X158497671Y-62865476D02*
X159497671Y-63294047D01*
X156169100Y-64817857D02*
X155692909Y-65151190D01*
X156169100Y-65389285D02*
X155169100Y-65389285D01*
X155169100Y-65389285D02*
X155169100Y-65008333D01*
X155169100Y-65008333D02*
X155216719Y-64913095D01*
X155216719Y-64913095D02*
X155264338Y-64865476D01*
X155264338Y-64865476D02*
X155359576Y-64817857D01*
X155359576Y-64817857D02*
X155502433Y-64817857D01*
X155502433Y-64817857D02*
X155597671Y-64865476D01*
X155597671Y-64865476D02*
X155645290Y-64913095D01*
X155645290Y-64913095D02*
X155692909Y-65008333D01*
X155692909Y-65008333D02*
X155692909Y-65389285D01*
X156169100Y-63865476D02*
X156169100Y-64436904D01*
X156169100Y-64151190D02*
X155169100Y-64151190D01*
X155169100Y-64151190D02*
X155311957Y-64246428D01*
X155311957Y-64246428D02*
X155407195Y-64341666D01*
X155407195Y-64341666D02*
X155454814Y-64436904D01*
X155597671Y-63294047D02*
X155550052Y-63389285D01*
X155550052Y-63389285D02*
X155502433Y-63436904D01*
X155502433Y-63436904D02*
X155407195Y-63484523D01*
X155407195Y-63484523D02*
X155359576Y-63484523D01*
X155359576Y-63484523D02*
X155264338Y-63436904D01*
X155264338Y-63436904D02*
X155216719Y-63389285D01*
X155216719Y-63389285D02*
X155169100Y-63294047D01*
X155169100Y-63294047D02*
X155169100Y-63103571D01*
X155169100Y-63103571D02*
X155216719Y-63008333D01*
X155216719Y-63008333D02*
X155264338Y-62960714D01*
X155264338Y-62960714D02*
X155359576Y-62913095D01*
X155359576Y-62913095D02*
X155407195Y-62913095D01*
X155407195Y-62913095D02*
X155502433Y-62960714D01*
X155502433Y-62960714D02*
X155550052Y-63008333D01*
X155550052Y-63008333D02*
X155597671Y-63103571D01*
X155597671Y-63103571D02*
X155597671Y-63294047D01*
X155597671Y-63294047D02*
X155645290Y-63389285D01*
X155645290Y-63389285D02*
X155692909Y-63436904D01*
X155692909Y-63436904D02*
X155788147Y-63484523D01*
X155788147Y-63484523D02*
X155978623Y-63484523D01*
X155978623Y-63484523D02*
X156073861Y-63436904D01*
X156073861Y-63436904D02*
X156121481Y-63389285D01*
X156121481Y-63389285D02*
X156169100Y-63294047D01*
X156169100Y-63294047D02*
X156169100Y-63103571D01*
X156169100Y-63103571D02*
X156121481Y-63008333D01*
X156121481Y-63008333D02*
X156073861Y-62960714D01*
X156073861Y-62960714D02*
X155978623Y-62913095D01*
X155978623Y-62913095D02*
X155788147Y-62913095D01*
X155788147Y-62913095D02*
X155692909Y-62960714D01*
X155692909Y-62960714D02*
X155645290Y-63008333D01*
X155645290Y-63008333D02*
X155597671Y-63103571D01*
X138383074Y-84516666D02*
X137906883Y-84849999D01*
X138383074Y-85088094D02*
X137383074Y-85088094D01*
X137383074Y-85088094D02*
X137383074Y-84707142D01*
X137383074Y-84707142D02*
X137430693Y-84611904D01*
X137430693Y-84611904D02*
X137478312Y-84564285D01*
X137478312Y-84564285D02*
X137573550Y-84516666D01*
X137573550Y-84516666D02*
X137716407Y-84516666D01*
X137716407Y-84516666D02*
X137811645Y-84564285D01*
X137811645Y-84564285D02*
X137859264Y-84611904D01*
X137859264Y-84611904D02*
X137906883Y-84707142D01*
X137906883Y-84707142D02*
X137906883Y-85088094D01*
X138383074Y-84040475D02*
X138383074Y-83849999D01*
X138383074Y-83849999D02*
X138335455Y-83754761D01*
X138335455Y-83754761D02*
X138287835Y-83707142D01*
X138287835Y-83707142D02*
X138144978Y-83611904D01*
X138144978Y-83611904D02*
X137954502Y-83564285D01*
X137954502Y-83564285D02*
X137573550Y-83564285D01*
X137573550Y-83564285D02*
X137478312Y-83611904D01*
X137478312Y-83611904D02*
X137430693Y-83659523D01*
X137430693Y-83659523D02*
X137383074Y-83754761D01*
X137383074Y-83754761D02*
X137383074Y-83945237D01*
X137383074Y-83945237D02*
X137430693Y-84040475D01*
X137430693Y-84040475D02*
X137478312Y-84088094D01*
X137478312Y-84088094D02*
X137573550Y-84135713D01*
X137573550Y-84135713D02*
X137811645Y-84135713D01*
X137811645Y-84135713D02*
X137906883Y-84088094D01*
X137906883Y-84088094D02*
X137954502Y-84040475D01*
X137954502Y-84040475D02*
X138002121Y-83945237D01*
X138002121Y-83945237D02*
X138002121Y-83754761D01*
X138002121Y-83754761D02*
X137954502Y-83659523D01*
X137954502Y-83659523D02*
X137906883Y-83611904D01*
X137906883Y-83611904D02*
X137811645Y-83564285D01*
X129185650Y-73121428D02*
X128385650Y-73121428D01*
X128385650Y-73121428D02*
X128385650Y-72930952D01*
X128385650Y-72930952D02*
X128423745Y-72816666D01*
X128423745Y-72816666D02*
X128499935Y-72740476D01*
X128499935Y-72740476D02*
X128576126Y-72702381D01*
X128576126Y-72702381D02*
X128728507Y-72664285D01*
X128728507Y-72664285D02*
X128842793Y-72664285D01*
X128842793Y-72664285D02*
X128995174Y-72702381D01*
X128995174Y-72702381D02*
X129071364Y-72740476D01*
X129071364Y-72740476D02*
X129147555Y-72816666D01*
X129147555Y-72816666D02*
X129185650Y-72930952D01*
X129185650Y-72930952D02*
X129185650Y-73121428D01*
X129185650Y-71902381D02*
X129185650Y-72359524D01*
X129185650Y-72130952D02*
X128385650Y-72130952D01*
X128385650Y-72130952D02*
X128499935Y-72207143D01*
X128499935Y-72207143D02*
X128576126Y-72283333D01*
X128576126Y-72283333D02*
X128614221Y-72359524D01*
X128461840Y-71597619D02*
X128423745Y-71559523D01*
X128423745Y-71559523D02*
X128385650Y-71483333D01*
X128385650Y-71483333D02*
X128385650Y-71292857D01*
X128385650Y-71292857D02*
X128423745Y-71216666D01*
X128423745Y-71216666D02*
X128461840Y-71178571D01*
X128461840Y-71178571D02*
X128538031Y-71140476D01*
X128538031Y-71140476D02*
X128614221Y-71140476D01*
X128614221Y-71140476D02*
X128728507Y-71178571D01*
X128728507Y-71178571D02*
X129185650Y-71635714D01*
X129185650Y-71635714D02*
X129185650Y-71140476D01*
X119554819Y-64817857D02*
X119078628Y-65151190D01*
X119554819Y-65389285D02*
X118554819Y-65389285D01*
X118554819Y-65389285D02*
X118554819Y-65008333D01*
X118554819Y-65008333D02*
X118602438Y-64913095D01*
X118602438Y-64913095D02*
X118650057Y-64865476D01*
X118650057Y-64865476D02*
X118745295Y-64817857D01*
X118745295Y-64817857D02*
X118888152Y-64817857D01*
X118888152Y-64817857D02*
X118983390Y-64865476D01*
X118983390Y-64865476D02*
X119031009Y-64913095D01*
X119031009Y-64913095D02*
X119078628Y-65008333D01*
X119078628Y-65008333D02*
X119078628Y-65389285D01*
X118650057Y-64436904D02*
X118602438Y-64389285D01*
X118602438Y-64389285D02*
X118554819Y-64294047D01*
X118554819Y-64294047D02*
X118554819Y-64055952D01*
X118554819Y-64055952D02*
X118602438Y-63960714D01*
X118602438Y-63960714D02*
X118650057Y-63913095D01*
X118650057Y-63913095D02*
X118745295Y-63865476D01*
X118745295Y-63865476D02*
X118840533Y-63865476D01*
X118840533Y-63865476D02*
X118983390Y-63913095D01*
X118983390Y-63913095D02*
X119554819Y-64484523D01*
X119554819Y-64484523D02*
X119554819Y-63865476D01*
X119554819Y-63389285D02*
X119554819Y-63198809D01*
X119554819Y-63198809D02*
X119507200Y-63103571D01*
X119507200Y-63103571D02*
X119459580Y-63055952D01*
X119459580Y-63055952D02*
X119316723Y-62960714D01*
X119316723Y-62960714D02*
X119126247Y-62913095D01*
X119126247Y-62913095D02*
X118745295Y-62913095D01*
X118745295Y-62913095D02*
X118650057Y-62960714D01*
X118650057Y-62960714D02*
X118602438Y-63008333D01*
X118602438Y-63008333D02*
X118554819Y-63103571D01*
X118554819Y-63103571D02*
X118554819Y-63294047D01*
X118554819Y-63294047D02*
X118602438Y-63389285D01*
X118602438Y-63389285D02*
X118650057Y-63436904D01*
X118650057Y-63436904D02*
X118745295Y-63484523D01*
X118745295Y-63484523D02*
X118983390Y-63484523D01*
X118983390Y-63484523D02*
X119078628Y-63436904D01*
X119078628Y-63436904D02*
X119126247Y-63389285D01*
X119126247Y-63389285D02*
X119173866Y-63294047D01*
X119173866Y-63294047D02*
X119173866Y-63103571D01*
X119173866Y-63103571D02*
X119126247Y-63008333D01*
X119126247Y-63008333D02*
X119078628Y-62960714D01*
X119078628Y-62960714D02*
X118983390Y-62913095D01*
X146183387Y-64817857D02*
X145707196Y-65151190D01*
X146183387Y-65389285D02*
X145183387Y-65389285D01*
X145183387Y-65389285D02*
X145183387Y-65008333D01*
X145183387Y-65008333D02*
X145231006Y-64913095D01*
X145231006Y-64913095D02*
X145278625Y-64865476D01*
X145278625Y-64865476D02*
X145373863Y-64817857D01*
X145373863Y-64817857D02*
X145516720Y-64817857D01*
X145516720Y-64817857D02*
X145611958Y-64865476D01*
X145611958Y-64865476D02*
X145659577Y-64913095D01*
X145659577Y-64913095D02*
X145707196Y-65008333D01*
X145707196Y-65008333D02*
X145707196Y-65389285D01*
X145278625Y-64436904D02*
X145231006Y-64389285D01*
X145231006Y-64389285D02*
X145183387Y-64294047D01*
X145183387Y-64294047D02*
X145183387Y-64055952D01*
X145183387Y-64055952D02*
X145231006Y-63960714D01*
X145231006Y-63960714D02*
X145278625Y-63913095D01*
X145278625Y-63913095D02*
X145373863Y-63865476D01*
X145373863Y-63865476D02*
X145469101Y-63865476D01*
X145469101Y-63865476D02*
X145611958Y-63913095D01*
X145611958Y-63913095D02*
X146183387Y-64484523D01*
X146183387Y-64484523D02*
X146183387Y-63865476D01*
X146183387Y-62913095D02*
X146183387Y-63484523D01*
X146183387Y-63198809D02*
X145183387Y-63198809D01*
X145183387Y-63198809D02*
X145326244Y-63294047D01*
X145326244Y-63294047D02*
X145421482Y-63389285D01*
X145421482Y-63389285D02*
X145469101Y-63484523D01*
X142854816Y-64817857D02*
X142378625Y-65151190D01*
X142854816Y-65389285D02*
X141854816Y-65389285D01*
X141854816Y-65389285D02*
X141854816Y-65008333D01*
X141854816Y-65008333D02*
X141902435Y-64913095D01*
X141902435Y-64913095D02*
X141950054Y-64865476D01*
X141950054Y-64865476D02*
X142045292Y-64817857D01*
X142045292Y-64817857D02*
X142188149Y-64817857D01*
X142188149Y-64817857D02*
X142283387Y-64865476D01*
X142283387Y-64865476D02*
X142331006Y-64913095D01*
X142331006Y-64913095D02*
X142378625Y-65008333D01*
X142378625Y-65008333D02*
X142378625Y-65389285D01*
X141950054Y-64436904D02*
X141902435Y-64389285D01*
X141902435Y-64389285D02*
X141854816Y-64294047D01*
X141854816Y-64294047D02*
X141854816Y-64055952D01*
X141854816Y-64055952D02*
X141902435Y-63960714D01*
X141902435Y-63960714D02*
X141950054Y-63913095D01*
X141950054Y-63913095D02*
X142045292Y-63865476D01*
X142045292Y-63865476D02*
X142140530Y-63865476D01*
X142140530Y-63865476D02*
X142283387Y-63913095D01*
X142283387Y-63913095D02*
X142854816Y-64484523D01*
X142854816Y-64484523D02*
X142854816Y-63865476D01*
X141950054Y-63484523D02*
X141902435Y-63436904D01*
X141902435Y-63436904D02*
X141854816Y-63341666D01*
X141854816Y-63341666D02*
X141854816Y-63103571D01*
X141854816Y-63103571D02*
X141902435Y-63008333D01*
X141902435Y-63008333D02*
X141950054Y-62960714D01*
X141950054Y-62960714D02*
X142045292Y-62913095D01*
X142045292Y-62913095D02*
X142140530Y-62913095D01*
X142140530Y-62913095D02*
X142283387Y-62960714D01*
X142283387Y-62960714D02*
X142854816Y-63532142D01*
X142854816Y-63532142D02*
X142854816Y-62913095D01*
X136197674Y-64817857D02*
X135721483Y-65151190D01*
X136197674Y-65389285D02*
X135197674Y-65389285D01*
X135197674Y-65389285D02*
X135197674Y-65008333D01*
X135197674Y-65008333D02*
X135245293Y-64913095D01*
X135245293Y-64913095D02*
X135292912Y-64865476D01*
X135292912Y-64865476D02*
X135388150Y-64817857D01*
X135388150Y-64817857D02*
X135531007Y-64817857D01*
X135531007Y-64817857D02*
X135626245Y-64865476D01*
X135626245Y-64865476D02*
X135673864Y-64913095D01*
X135673864Y-64913095D02*
X135721483Y-65008333D01*
X135721483Y-65008333D02*
X135721483Y-65389285D01*
X135292912Y-64436904D02*
X135245293Y-64389285D01*
X135245293Y-64389285D02*
X135197674Y-64294047D01*
X135197674Y-64294047D02*
X135197674Y-64055952D01*
X135197674Y-64055952D02*
X135245293Y-63960714D01*
X135245293Y-63960714D02*
X135292912Y-63913095D01*
X135292912Y-63913095D02*
X135388150Y-63865476D01*
X135388150Y-63865476D02*
X135483388Y-63865476D01*
X135483388Y-63865476D02*
X135626245Y-63913095D01*
X135626245Y-63913095D02*
X136197674Y-64484523D01*
X136197674Y-64484523D02*
X136197674Y-63865476D01*
X135531007Y-63008333D02*
X136197674Y-63008333D01*
X135150055Y-63246428D02*
X135864340Y-63484523D01*
X135864340Y-63484523D02*
X135864340Y-62865476D01*
X156567688Y-84516666D02*
X156091497Y-84849999D01*
X156567688Y-85088094D02*
X155567688Y-85088094D01*
X155567688Y-85088094D02*
X155567688Y-84707142D01*
X155567688Y-84707142D02*
X155615307Y-84611904D01*
X155615307Y-84611904D02*
X155662926Y-84564285D01*
X155662926Y-84564285D02*
X155758164Y-84516666D01*
X155758164Y-84516666D02*
X155901021Y-84516666D01*
X155901021Y-84516666D02*
X155996259Y-84564285D01*
X155996259Y-84564285D02*
X156043878Y-84611904D01*
X156043878Y-84611904D02*
X156091497Y-84707142D01*
X156091497Y-84707142D02*
X156091497Y-85088094D01*
X155567688Y-84183332D02*
X155567688Y-83564285D01*
X155567688Y-83564285D02*
X155948640Y-83897618D01*
X155948640Y-83897618D02*
X155948640Y-83754761D01*
X155948640Y-83754761D02*
X155996259Y-83659523D01*
X155996259Y-83659523D02*
X156043878Y-83611904D01*
X156043878Y-83611904D02*
X156139116Y-83564285D01*
X156139116Y-83564285D02*
X156377211Y-83564285D01*
X156377211Y-83564285D02*
X156472449Y-83611904D01*
X156472449Y-83611904D02*
X156520069Y-83659523D01*
X156520069Y-83659523D02*
X156567688Y-83754761D01*
X156567688Y-83754761D02*
X156567688Y-84040475D01*
X156567688Y-84040475D02*
X156520069Y-84135713D01*
X156520069Y-84135713D02*
X156472449Y-84183332D01*
X162524112Y-72740475D02*
X161724112Y-72740475D01*
X161724112Y-72740475D02*
X161724112Y-72549999D01*
X161724112Y-72549999D02*
X161762207Y-72435713D01*
X161762207Y-72435713D02*
X161838397Y-72359523D01*
X161838397Y-72359523D02*
X161914588Y-72321428D01*
X161914588Y-72321428D02*
X162066969Y-72283332D01*
X162066969Y-72283332D02*
X162181255Y-72283332D01*
X162181255Y-72283332D02*
X162333636Y-72321428D01*
X162333636Y-72321428D02*
X162409826Y-72359523D01*
X162409826Y-72359523D02*
X162486017Y-72435713D01*
X162486017Y-72435713D02*
X162524112Y-72549999D01*
X162524112Y-72549999D02*
X162524112Y-72740475D01*
X162524112Y-71521428D02*
X162524112Y-71978571D01*
X162524112Y-71749999D02*
X161724112Y-71749999D01*
X161724112Y-71749999D02*
X161838397Y-71826190D01*
X161838397Y-71826190D02*
X161914588Y-71902380D01*
X161914588Y-71902380D02*
X161952683Y-71978571D01*
X150401033Y-72740475D02*
X149601033Y-72740475D01*
X149601033Y-72740475D02*
X149601033Y-72549999D01*
X149601033Y-72549999D02*
X149639128Y-72435713D01*
X149639128Y-72435713D02*
X149715318Y-72359523D01*
X149715318Y-72359523D02*
X149791509Y-72321428D01*
X149791509Y-72321428D02*
X149943890Y-72283332D01*
X149943890Y-72283332D02*
X150058176Y-72283332D01*
X150058176Y-72283332D02*
X150210557Y-72321428D01*
X150210557Y-72321428D02*
X150286747Y-72359523D01*
X150286747Y-72359523D02*
X150362938Y-72435713D01*
X150362938Y-72435713D02*
X150401033Y-72549999D01*
X150401033Y-72549999D02*
X150401033Y-72740475D01*
X149601033Y-71559523D02*
X149601033Y-71940475D01*
X149601033Y-71940475D02*
X149981985Y-71978571D01*
X149981985Y-71978571D02*
X149943890Y-71940475D01*
X149943890Y-71940475D02*
X149905795Y-71864285D01*
X149905795Y-71864285D02*
X149905795Y-71673809D01*
X149905795Y-71673809D02*
X149943890Y-71597618D01*
X149943890Y-71597618D02*
X149981985Y-71559523D01*
X149981985Y-71559523D02*
X150058176Y-71521428D01*
X150058176Y-71521428D02*
X150248652Y-71521428D01*
X150248652Y-71521428D02*
X150324842Y-71559523D01*
X150324842Y-71559523D02*
X150362938Y-71597618D01*
X150362938Y-71597618D02*
X150401033Y-71673809D01*
X150401033Y-71673809D02*
X150401033Y-71864285D01*
X150401033Y-71864285D02*
X150362938Y-71940475D01*
X150362938Y-71940475D02*
X150324842Y-71978571D01*
X132869103Y-64817857D02*
X132392912Y-65151190D01*
X132869103Y-65389285D02*
X131869103Y-65389285D01*
X131869103Y-65389285D02*
X131869103Y-65008333D01*
X131869103Y-65008333D02*
X131916722Y-64913095D01*
X131916722Y-64913095D02*
X131964341Y-64865476D01*
X131964341Y-64865476D02*
X132059579Y-64817857D01*
X132059579Y-64817857D02*
X132202436Y-64817857D01*
X132202436Y-64817857D02*
X132297674Y-64865476D01*
X132297674Y-64865476D02*
X132345293Y-64913095D01*
X132345293Y-64913095D02*
X132392912Y-65008333D01*
X132392912Y-65008333D02*
X132392912Y-65389285D01*
X131964341Y-64436904D02*
X131916722Y-64389285D01*
X131916722Y-64389285D02*
X131869103Y-64294047D01*
X131869103Y-64294047D02*
X131869103Y-64055952D01*
X131869103Y-64055952D02*
X131916722Y-63960714D01*
X131916722Y-63960714D02*
X131964341Y-63913095D01*
X131964341Y-63913095D02*
X132059579Y-63865476D01*
X132059579Y-63865476D02*
X132154817Y-63865476D01*
X132154817Y-63865476D02*
X132297674Y-63913095D01*
X132297674Y-63913095D02*
X132869103Y-64484523D01*
X132869103Y-64484523D02*
X132869103Y-63865476D01*
X131869103Y-62960714D02*
X131869103Y-63436904D01*
X131869103Y-63436904D02*
X132345293Y-63484523D01*
X132345293Y-63484523D02*
X132297674Y-63436904D01*
X132297674Y-63436904D02*
X132250055Y-63341666D01*
X132250055Y-63341666D02*
X132250055Y-63103571D01*
X132250055Y-63103571D02*
X132297674Y-63008333D01*
X132297674Y-63008333D02*
X132345293Y-62960714D01*
X132345293Y-62960714D02*
X132440531Y-62913095D01*
X132440531Y-62913095D02*
X132678626Y-62913095D01*
X132678626Y-62913095D02*
X132773864Y-62960714D01*
X132773864Y-62960714D02*
X132821484Y-63008333D01*
X132821484Y-63008333D02*
X132869103Y-63103571D01*
X132869103Y-63103571D02*
X132869103Y-63341666D01*
X132869103Y-63341666D02*
X132821484Y-63436904D01*
X132821484Y-63436904D02*
X132773864Y-63484523D01*
D12*
%TO.C,TP20*%
X121200000Y-93400000D02*
G75*
G03*
X119800000Y-93400000I-700000J0D01*
G01*
X119800000Y-93400000D02*
G75*
G03*
X121200000Y-93400000I700000J0D01*
G01*
%TO.C,TP19*%
X124250000Y-93400000D02*
G75*
G03*
X122850000Y-93400000I-700000J0D01*
G01*
X122850000Y-93400000D02*
G75*
G03*
X124250000Y-93400000I700000J0D01*
G01*
%TO.C,TP18*%
X127300000Y-93400000D02*
G75*
G03*
X125900000Y-93400000I-700000J0D01*
G01*
X125900000Y-93400000D02*
G75*
G03*
X127300000Y-93400000I700000J0D01*
G01*
%TO.C,TP17*%
X130350000Y-93400000D02*
G75*
G03*
X128950000Y-93400000I-700000J0D01*
G01*
X128950000Y-93400000D02*
G75*
G03*
X130350000Y-93400000I700000J0D01*
G01*
%TO.C,TP16*%
X133400000Y-93400000D02*
G75*
G03*
X132000000Y-93400000I-700000J0D01*
G01*
X132000000Y-93400000D02*
G75*
G03*
X133400000Y-93400000I700000J0D01*
G01*
%TO.C,R20*%
X148147139Y-60727064D02*
X148147139Y-59272936D01*
X149967139Y-60727064D02*
X149967139Y-59272936D01*
%TO.C,TP4*%
X153781048Y-68300000D02*
G75*
G03*
X152381048Y-68300000I-700000J0D01*
G01*
X152381048Y-68300000D02*
G75*
G03*
X153781048Y-68300000I700000J0D01*
G01*
%TO.C,D6*%
X146059510Y-77625000D02*
X147979510Y-77625000D01*
X147979510Y-77625000D02*
X147979510Y-74525000D01*
X146059510Y-74525000D02*
X146059510Y-77625000D01*
%TO.C,TP3*%
X156811817Y-68300000D02*
G75*
G03*
X155411817Y-68300000I-700000J0D01*
G01*
X155411817Y-68300000D02*
G75*
G03*
X156811817Y-68300000I700000J0D01*
G01*
%TO.C,R26*%
X128175713Y-60727064D02*
X128175713Y-59272936D01*
X129995713Y-60727064D02*
X129995713Y-59272936D01*
%TO.C,TP7*%
X144688741Y-68300000D02*
G75*
G03*
X143288741Y-68300000I-700000J0D01*
G01*
X143288741Y-68300000D02*
G75*
G03*
X144688741Y-68300000I700000J0D01*
G01*
%TO.C,J2*%
X162823358Y-56275000D02*
X162823358Y-55025000D01*
X162533358Y-55985000D02*
X162533358Y-50015000D01*
X162533358Y-50015000D02*
X122413358Y-50015000D01*
X162523358Y-55975000D02*
X162523358Y-55225000D01*
X162523358Y-55225000D02*
X160723358Y-55225000D01*
X162523358Y-53725000D02*
X161773358Y-53725000D01*
X161773358Y-53725000D02*
X161773358Y-50775000D01*
X161773358Y-50775000D02*
X142473358Y-50775000D01*
X161573358Y-56275000D02*
X162823358Y-56275000D01*
X160723358Y-55975000D02*
X162523358Y-55975000D01*
X160723358Y-55225000D02*
X160723358Y-55975000D01*
X159223358Y-55975000D02*
X159223358Y-55225000D01*
X159223358Y-55225000D02*
X125723358Y-55225000D01*
X125723358Y-55975000D02*
X159223358Y-55975000D01*
X125723358Y-55225000D02*
X125723358Y-55975000D01*
X124223358Y-55975000D02*
X124223358Y-55225000D01*
X124223358Y-55225000D02*
X122423358Y-55225000D01*
X123173358Y-53725000D02*
X123173358Y-50775000D01*
X123173358Y-50775000D02*
X142473358Y-50775000D01*
X122423358Y-55975000D02*
X124223358Y-55975000D01*
X122423358Y-55225000D02*
X122423358Y-55975000D01*
X122423358Y-53725000D02*
X123173358Y-53725000D01*
X122413358Y-55985000D02*
X162533358Y-55985000D01*
X122413358Y-50015000D02*
X122413358Y-55985000D01*
%TO.C,R15*%
X164690000Y-60727064D02*
X164690000Y-59272936D01*
X166510000Y-60727064D02*
X166510000Y-59272936D01*
%TO.C,R4*%
X153817100Y-80672936D02*
X153817100Y-81127064D01*
X152347100Y-80672936D02*
X152347100Y-81127064D01*
%TO.C,D14*%
X121813358Y-77625000D02*
X123733358Y-77625000D01*
X123733358Y-77625000D02*
X123733358Y-74525000D01*
X121813358Y-74525000D02*
X121813358Y-77625000D01*
%TO.C,R5*%
X150786331Y-80672936D02*
X150786331Y-81127064D01*
X149316331Y-80672936D02*
X149316331Y-81127064D01*
%TO.C,R10*%
X135632486Y-80672936D02*
X135632486Y-81127064D01*
X134162486Y-80672936D02*
X134162486Y-81127064D01*
%TO.C,TP14*%
X123473358Y-68300000D02*
G75*
G03*
X122073358Y-68300000I-700000J0D01*
G01*
X122073358Y-68300000D02*
G75*
G03*
X123473358Y-68300000I700000J0D01*
G01*
%TO.C,R6*%
X147755562Y-80672936D02*
X147755562Y-81127064D01*
X146285562Y-80672936D02*
X146285562Y-81127064D01*
%TO.C,D13*%
X124844127Y-77625000D02*
X126764127Y-77625000D01*
X126764127Y-77625000D02*
X126764127Y-74525000D01*
X124844127Y-74525000D02*
X124844127Y-77625000D01*
%TO.C,TP6*%
X147719510Y-68300000D02*
G75*
G03*
X146319510Y-68300000I-700000J0D01*
G01*
X146319510Y-68300000D02*
G75*
G03*
X147719510Y-68300000I700000J0D01*
G01*
%TO.C,R7*%
X144724793Y-80672936D02*
X144724793Y-81127064D01*
X143254793Y-80672936D02*
X143254793Y-81127064D01*
%TO.C,D8*%
X139997972Y-77625000D02*
X141917972Y-77625000D01*
X141917972Y-77625000D02*
X141917972Y-74525000D01*
X139997972Y-74525000D02*
X139997972Y-77625000D01*
%TO.C,TP8*%
X141657972Y-68300000D02*
G75*
G03*
X140257972Y-68300000I-700000J0D01*
G01*
X140257972Y-68300000D02*
G75*
G03*
X141657972Y-68300000I700000J0D01*
G01*
%TO.C,TP5*%
X150750279Y-68300000D02*
G75*
G03*
X149350279Y-68300000I-700000J0D01*
G01*
X149350279Y-68300000D02*
G75*
G03*
X150750279Y-68300000I700000J0D01*
G01*
%TO.C,D9*%
X136967203Y-77625000D02*
X138887203Y-77625000D01*
X138887203Y-77625000D02*
X138887203Y-74525000D01*
X136967203Y-74525000D02*
X136967203Y-77625000D01*
%TO.C,R13*%
X126540179Y-80672936D02*
X126540179Y-81127064D01*
X125070179Y-80672936D02*
X125070179Y-81127064D01*
%TO.C,D10*%
X133936434Y-77625000D02*
X135856434Y-77625000D01*
X135856434Y-77625000D02*
X135856434Y-74525000D01*
X133936434Y-74525000D02*
X133936434Y-77625000D01*
%TO.C,D11*%
X130905665Y-77625000D02*
X132825665Y-77625000D01*
X132825665Y-77625000D02*
X132825665Y-74525000D01*
X130905665Y-74525000D02*
X130905665Y-77625000D01*
%TO.C,TP13*%
X126504127Y-68300000D02*
G75*
G03*
X125104127Y-68300000I-700000J0D01*
G01*
X125104127Y-68300000D02*
G75*
G03*
X126504127Y-68300000I700000J0D01*
G01*
%TO.C,TP11*%
X132565665Y-68300000D02*
G75*
G03*
X131165665Y-68300000I-700000J0D01*
G01*
X131165665Y-68300000D02*
G75*
G03*
X132565665Y-68300000I700000J0D01*
G01*
%TO.C,D3*%
X155151817Y-77625000D02*
X157071817Y-77625000D01*
X157071817Y-77625000D02*
X157071817Y-74525000D01*
X155151817Y-74525000D02*
X155151817Y-77625000D01*
%TO.C,D2*%
X158182586Y-77625000D02*
X160102586Y-77625000D01*
X160102586Y-77625000D02*
X160102586Y-74525000D01*
X158182586Y-74525000D02*
X158182586Y-77625000D01*
%TO.C,R12*%
X129570948Y-80672936D02*
X129570948Y-81127064D01*
X128100948Y-80672936D02*
X128100948Y-81127064D01*
%TO.C,D7*%
X143028741Y-77625000D02*
X144948741Y-77625000D01*
X144948741Y-77625000D02*
X144948741Y-74525000D01*
X143028741Y-74525000D02*
X143028741Y-77625000D01*
%TO.C,D4*%
X152121048Y-77625000D02*
X154041048Y-77625000D01*
X154041048Y-77625000D02*
X154041048Y-74525000D01*
X152121048Y-74525000D02*
X152121048Y-77625000D01*
%TO.C,R1*%
X162909410Y-80672936D02*
X162909410Y-81127064D01*
X161439410Y-80672936D02*
X161439410Y-81127064D01*
%TO.C,R16*%
X161461423Y-60727064D02*
X161461423Y-59272936D01*
X163281423Y-60727064D02*
X163281423Y-59272936D01*
%TO.C,TP10*%
X135596434Y-68300000D02*
G75*
G03*
X134196434Y-68300000I-700000J0D01*
G01*
X134196434Y-68300000D02*
G75*
G03*
X135596434Y-68300000I700000J0D01*
G01*
%TO.C,R2*%
X159878638Y-80672936D02*
X159878638Y-81127064D01*
X158408638Y-80672936D02*
X158408638Y-81127064D01*
%TO.C,R11*%
X132601717Y-80672936D02*
X132601717Y-81127064D01*
X131131717Y-80672936D02*
X131131717Y-81127064D01*
%TO.C,R27*%
X124847142Y-60727064D02*
X124847142Y-59272936D01*
X126667142Y-60727064D02*
X126667142Y-59272936D01*
%TO.C,R19*%
X151475710Y-60727064D02*
X151475710Y-59272936D01*
X153295710Y-60727064D02*
X153295710Y-59272936D01*
%TO.C,R8*%
X141694024Y-80672936D02*
X141694024Y-81127064D01*
X140224024Y-80672936D02*
X140224024Y-81127064D01*
%TO.C,TP2*%
X159842586Y-68300000D02*
G75*
G03*
X158442586Y-68300000I-700000J0D01*
G01*
X158442586Y-68300000D02*
G75*
G03*
X159842586Y-68300000I700000J0D01*
G01*
%TO.C,R28*%
X121518571Y-60727064D02*
X121518571Y-59272936D01*
X123338571Y-60727064D02*
X123338571Y-59272936D01*
%TO.C,R14*%
X123509410Y-80672936D02*
X123509410Y-81127064D01*
X122039410Y-80672936D02*
X122039410Y-81127064D01*
%TO.C,R23*%
X138161426Y-60727064D02*
X138161426Y-59272936D01*
X139981426Y-60727064D02*
X139981426Y-59272936D01*
%TO.C,G\u002A\u002A\u002A*%
G36*
X156147365Y-87969671D02*
G01*
X156898766Y-87969685D01*
X156897180Y-87971146D01*
X156896789Y-87971510D01*
X156895958Y-87972292D01*
X156894694Y-87973483D01*
X156893004Y-87975077D01*
X156890896Y-87977066D01*
X156888378Y-87979444D01*
X156885456Y-87982202D01*
X156882139Y-87985334D01*
X156878435Y-87988832D01*
X156874351Y-87992690D01*
X156869894Y-87996900D01*
X156865073Y-88001455D01*
X156859894Y-88006348D01*
X156854365Y-88011571D01*
X156848495Y-88017118D01*
X156842290Y-88022981D01*
X156835759Y-88029153D01*
X156828908Y-88035627D01*
X156821746Y-88042395D01*
X156814279Y-88049451D01*
X156806517Y-88056787D01*
X156798465Y-88064396D01*
X156790133Y-88072271D01*
X156781527Y-88080405D01*
X156772655Y-88088790D01*
X156763525Y-88097419D01*
X156754144Y-88106286D01*
X156744520Y-88115382D01*
X156734660Y-88124701D01*
X156724573Y-88134236D01*
X156714265Y-88143979D01*
X156703745Y-88153923D01*
X156693019Y-88164061D01*
X156682096Y-88174385D01*
X156670983Y-88184890D01*
X156659688Y-88195566D01*
X156648219Y-88206408D01*
X156636582Y-88217408D01*
X156624786Y-88228558D01*
X156612838Y-88239853D01*
X156600746Y-88251283D01*
X156588517Y-88262843D01*
X156576159Y-88274525D01*
X156563680Y-88286321D01*
X156551088Y-88298226D01*
X156538388Y-88310230D01*
X156525591Y-88322328D01*
X156512702Y-88334512D01*
X156499730Y-88346775D01*
X156486683Y-88359110D01*
X156473567Y-88371509D01*
X156460391Y-88383965D01*
X156447162Y-88396471D01*
X156433887Y-88409020D01*
X156420575Y-88421605D01*
X156407233Y-88434219D01*
X156393868Y-88446854D01*
X156380488Y-88459503D01*
X156367101Y-88472159D01*
X156353715Y-88484814D01*
X156340336Y-88497463D01*
X156326973Y-88510096D01*
X156313633Y-88522708D01*
X156300324Y-88535291D01*
X156287053Y-88547837D01*
X156273828Y-88560340D01*
X156260657Y-88572793D01*
X156247547Y-88585188D01*
X156234506Y-88597518D01*
X156221541Y-88609775D01*
X156208660Y-88621953D01*
X156195871Y-88634045D01*
X156183181Y-88646043D01*
X156170598Y-88657940D01*
X156158130Y-88669729D01*
X156145783Y-88681403D01*
X156133566Y-88692954D01*
X156121487Y-88704375D01*
X156109552Y-88715659D01*
X156097770Y-88726800D01*
X156086147Y-88737789D01*
X156074693Y-88748619D01*
X156063414Y-88759284D01*
X156052318Y-88769776D01*
X156041412Y-88780088D01*
X156030704Y-88790213D01*
X156020202Y-88800143D01*
X156009914Y-88809872D01*
X155999846Y-88819392D01*
X155990007Y-88828696D01*
X155980405Y-88837777D01*
X155971045Y-88846627D01*
X155961938Y-88855240D01*
X155953089Y-88863608D01*
X155944507Y-88871723D01*
X155936199Y-88879580D01*
X155928173Y-88887171D01*
X155920437Y-88894488D01*
X155912997Y-88901524D01*
X155905862Y-88908272D01*
X155899039Y-88914725D01*
X155892536Y-88920876D01*
X155886361Y-88926717D01*
X155880521Y-88932241D01*
X155875023Y-88937442D01*
X155869875Y-88942312D01*
X155865086Y-88946843D01*
X155860662Y-88951029D01*
X155856611Y-88954862D01*
X155852941Y-88958335D01*
X155849659Y-88961442D01*
X155846773Y-88964174D01*
X155844291Y-88966524D01*
X155842219Y-88968486D01*
X155840567Y-88970052D01*
X155839341Y-88971215D01*
X155838548Y-88971968D01*
X155838198Y-88972304D01*
X155838180Y-88972322D01*
X155838405Y-88972540D01*
X155839076Y-88973178D01*
X155840185Y-88974232D01*
X155841727Y-88975694D01*
X155843696Y-88977559D01*
X155846085Y-88979821D01*
X155848887Y-88982474D01*
X155852098Y-88985513D01*
X155855710Y-88988931D01*
X155859718Y-88992722D01*
X155864114Y-88996882D01*
X155868893Y-89001402D01*
X155874049Y-89006279D01*
X155879575Y-89011506D01*
X155885466Y-89017076D01*
X155891714Y-89022985D01*
X155898314Y-89029226D01*
X155905259Y-89035794D01*
X155912543Y-89042682D01*
X155920160Y-89049884D01*
X155928104Y-89057395D01*
X155936369Y-89065209D01*
X155944948Y-89073320D01*
X155953834Y-89081722D01*
X155963023Y-89090409D01*
X155972507Y-89099375D01*
X155982280Y-89108614D01*
X155992337Y-89118121D01*
X156002670Y-89127889D01*
X156013274Y-89137913D01*
X156024142Y-89148187D01*
X156035268Y-89158704D01*
X156046646Y-89169460D01*
X156058270Y-89180447D01*
X156070133Y-89191661D01*
X156082229Y-89203095D01*
X156094553Y-89214743D01*
X156107097Y-89226600D01*
X156119855Y-89238659D01*
X156132822Y-89250916D01*
X156145991Y-89263362D01*
X156159355Y-89275994D01*
X156172909Y-89288805D01*
X156186646Y-89301789D01*
X156200561Y-89314940D01*
X156214646Y-89328252D01*
X156228896Y-89341720D01*
X156243304Y-89355337D01*
X156257864Y-89369098D01*
X156272570Y-89382997D01*
X156287416Y-89397028D01*
X156302396Y-89411184D01*
X156317502Y-89425461D01*
X156332729Y-89439852D01*
X156348072Y-89454351D01*
X156363522Y-89468952D01*
X156368384Y-89473547D01*
X156383867Y-89488179D01*
X156399244Y-89502711D01*
X156414508Y-89517136D01*
X156429653Y-89531450D01*
X156444673Y-89545645D01*
X156459561Y-89559716D01*
X156474312Y-89573657D01*
X156488919Y-89587462D01*
X156503375Y-89601125D01*
X156517676Y-89614641D01*
X156531813Y-89628003D01*
X156545782Y-89641206D01*
X156559575Y-89654243D01*
X156573187Y-89667109D01*
X156586612Y-89679798D01*
X156599843Y-89692304D01*
X156612873Y-89704621D01*
X156625698Y-89716744D01*
X156638310Y-89728665D01*
X156650703Y-89740380D01*
X156662871Y-89751883D01*
X156674808Y-89763167D01*
X156686508Y-89774227D01*
X156697963Y-89785056D01*
X156709169Y-89795650D01*
X156720119Y-89806001D01*
X156730806Y-89816105D01*
X156741225Y-89825955D01*
X156751368Y-89835545D01*
X156761231Y-89844870D01*
X156770806Y-89853923D01*
X156780088Y-89862699D01*
X156789070Y-89871192D01*
X156797746Y-89879396D01*
X156806109Y-89887304D01*
X156814155Y-89894912D01*
X156821875Y-89902213D01*
X156829264Y-89909201D01*
X156836316Y-89915870D01*
X156843025Y-89922215D01*
X156849384Y-89928230D01*
X156855387Y-89933908D01*
X156861028Y-89939245D01*
X156866300Y-89944233D01*
X156871198Y-89948867D01*
X156875715Y-89953141D01*
X156879845Y-89957050D01*
X156883581Y-89960587D01*
X156886918Y-89963746D01*
X156889850Y-89966522D01*
X156892369Y-89968908D01*
X156894469Y-89970900D01*
X156896146Y-89972490D01*
X156897391Y-89973673D01*
X156898200Y-89974443D01*
X156898565Y-89974795D01*
X156898588Y-89974818D01*
X156898279Y-89974824D01*
X156897358Y-89974831D01*
X156895833Y-89974838D01*
X156893712Y-89974844D01*
X156891004Y-89974851D01*
X156887717Y-89974857D01*
X156883860Y-89974863D01*
X156879440Y-89974870D01*
X156874468Y-89974876D01*
X156868950Y-89974882D01*
X156862896Y-89974888D01*
X156856314Y-89974894D01*
X156849212Y-89974900D01*
X156841599Y-89974906D01*
X156833483Y-89974912D01*
X156824873Y-89974918D01*
X156815777Y-89974924D01*
X156806203Y-89974929D01*
X156796161Y-89974935D01*
X156785658Y-89974940D01*
X156774704Y-89974945D01*
X156763305Y-89974950D01*
X156751472Y-89974956D01*
X156739212Y-89974961D01*
X156726533Y-89974965D01*
X156713445Y-89974970D01*
X156699956Y-89974975D01*
X156686074Y-89974979D01*
X156671807Y-89974984D01*
X156657164Y-89974988D01*
X156642154Y-89974992D01*
X156626785Y-89974997D01*
X156611065Y-89975000D01*
X156595003Y-89975004D01*
X156578607Y-89975008D01*
X156561887Y-89975012D01*
X156544849Y-89975015D01*
X156527503Y-89975018D01*
X156509857Y-89975021D01*
X156491919Y-89975024D01*
X156473699Y-89975027D01*
X156455204Y-89975030D01*
X156436443Y-89975032D01*
X156417424Y-89975035D01*
X156398156Y-89975037D01*
X156378648Y-89975039D01*
X156358907Y-89975041D01*
X156338942Y-89975043D01*
X156318762Y-89975044D01*
X156298375Y-89975046D01*
X156277789Y-89975047D01*
X156257014Y-89975048D01*
X156236057Y-89975049D01*
X156214927Y-89975050D01*
X156193632Y-89975050D01*
X156172181Y-89975050D01*
X156150582Y-89975050D01*
X156147287Y-89975050D01*
X155395963Y-89975050D01*
X155395963Y-88972353D01*
X155395963Y-88098836D01*
X155525143Y-88098836D01*
X155525143Y-88972198D01*
X155525143Y-89845560D01*
X156049386Y-89845560D01*
X156573629Y-89845560D01*
X156572859Y-89844808D01*
X156572611Y-89844572D01*
X156571917Y-89843916D01*
X156570786Y-89842846D01*
X156569223Y-89841368D01*
X156567236Y-89839489D01*
X156564831Y-89837215D01*
X156562015Y-89834553D01*
X156558794Y-89831508D01*
X156555176Y-89828087D01*
X156551166Y-89824297D01*
X156546773Y-89820143D01*
X156542001Y-89815633D01*
X156536859Y-89810771D01*
X156531352Y-89805566D01*
X156525488Y-89800022D01*
X156519272Y-89794147D01*
X156512713Y-89787947D01*
X156505816Y-89781428D01*
X156498589Y-89774596D01*
X156491037Y-89767457D01*
X156483168Y-89760019D01*
X156474988Y-89752287D01*
X156466504Y-89744268D01*
X156457723Y-89735968D01*
X156448652Y-89727393D01*
X156439296Y-89718550D01*
X156429664Y-89709445D01*
X156419761Y-89700084D01*
X156409594Y-89690474D01*
X156399170Y-89680621D01*
X156388495Y-89670532D01*
X156377577Y-89660212D01*
X156366422Y-89649668D01*
X156355037Y-89638906D01*
X156343428Y-89627933D01*
X156331602Y-89616755D01*
X156319566Y-89605379D01*
X156307326Y-89593810D01*
X156294890Y-89582055D01*
X156282264Y-89570121D01*
X156269454Y-89558013D01*
X156256467Y-89545738D01*
X156243311Y-89533303D01*
X156229991Y-89520713D01*
X156216514Y-89507975D01*
X156202888Y-89495096D01*
X156189118Y-89482081D01*
X156175212Y-89468937D01*
X156161176Y-89455670D01*
X156147017Y-89442288D01*
X156132742Y-89428795D01*
X156118357Y-89415198D01*
X156110955Y-89408202D01*
X156096519Y-89394558D01*
X156082191Y-89381014D01*
X156067976Y-89367578D01*
X156053882Y-89354255D01*
X156039915Y-89341052D01*
X156026082Y-89327976D01*
X156012389Y-89315031D01*
X155998844Y-89302226D01*
X155985452Y-89289566D01*
X155972221Y-89277057D01*
X155959157Y-89264706D01*
X155946268Y-89252519D01*
X155933558Y-89240503D01*
X155921037Y-89228663D01*
X155908709Y-89217007D01*
X155896581Y-89205539D01*
X155884662Y-89194268D01*
X155872956Y-89183198D01*
X155861471Y-89172337D01*
X155850213Y-89161691D01*
X155839190Y-89151265D01*
X155828407Y-89141067D01*
X155817871Y-89131103D01*
X155807590Y-89121378D01*
X155797570Y-89111900D01*
X155787817Y-89102674D01*
X155778338Y-89093708D01*
X155769140Y-89085006D01*
X155760230Y-89076576D01*
X155751613Y-89068424D01*
X155743298Y-89060557D01*
X155735291Y-89052979D01*
X155727597Y-89045699D01*
X155720225Y-89038722D01*
X155713180Y-89032054D01*
X155706469Y-89025702D01*
X155700100Y-89019672D01*
X155694078Y-89013971D01*
X155688411Y-89008604D01*
X155683104Y-89003579D01*
X155678165Y-88998901D01*
X155673601Y-88994576D01*
X155669418Y-88990612D01*
X155665622Y-88987014D01*
X155662222Y-88983789D01*
X155659222Y-88980943D01*
X155656630Y-88978482D01*
X155654452Y-88976413D01*
X155652696Y-88974742D01*
X155651367Y-88973475D01*
X155650473Y-88972619D01*
X155650021Y-88972180D01*
X155649962Y-88972118D01*
X155650191Y-88971899D01*
X155650864Y-88971259D01*
X155651976Y-88970205D01*
X155653519Y-88968744D01*
X155655487Y-88966881D01*
X155657872Y-88964624D01*
X155660669Y-88961978D01*
X155663870Y-88958950D01*
X155667468Y-88955545D01*
X155671458Y-88951771D01*
X155675833Y-88947634D01*
X155680585Y-88943140D01*
X155685708Y-88938296D01*
X155691195Y-88933107D01*
X155697040Y-88927580D01*
X155703236Y-88921721D01*
X155709776Y-88915538D01*
X155716653Y-88909035D01*
X155723861Y-88902220D01*
X155731394Y-88895098D01*
X155739243Y-88887677D01*
X155747404Y-88879962D01*
X155755868Y-88871959D01*
X155764630Y-88863676D01*
X155773683Y-88855118D01*
X155783019Y-88846292D01*
X155792632Y-88837203D01*
X155802516Y-88827860D01*
X155812664Y-88818267D01*
X155823069Y-88808431D01*
X155833725Y-88798358D01*
X155844624Y-88788055D01*
X155855760Y-88777528D01*
X155867127Y-88766783D01*
X155878717Y-88755828D01*
X155890524Y-88744667D01*
X155902541Y-88733307D01*
X155914762Y-88721756D01*
X155927179Y-88710018D01*
X155939787Y-88698101D01*
X155952578Y-88686010D01*
X155965546Y-88673752D01*
X155978684Y-88661334D01*
X155991986Y-88648762D01*
X156005444Y-88636041D01*
X156019052Y-88623179D01*
X156032803Y-88610182D01*
X156046690Y-88597055D01*
X156060708Y-88583806D01*
X156074849Y-88570441D01*
X156089106Y-88556966D01*
X156103473Y-88543387D01*
X156109699Y-88537502D01*
X156124120Y-88523872D01*
X156138435Y-88510342D01*
X156152638Y-88496918D01*
X156166723Y-88483605D01*
X156180683Y-88470411D01*
X156194511Y-88457341D01*
X156208200Y-88444402D01*
X156221744Y-88431601D01*
X156235135Y-88418943D01*
X156248368Y-88406436D01*
X156261435Y-88394085D01*
X156274329Y-88381896D01*
X156287045Y-88369877D01*
X156299574Y-88358034D01*
X156311911Y-88346373D01*
X156324049Y-88334900D01*
X156335980Y-88323622D01*
X156347699Y-88312544D01*
X156359198Y-88301675D01*
X156370471Y-88291019D01*
X156381511Y-88280583D01*
X156392311Y-88270374D01*
X156402864Y-88260397D01*
X156413165Y-88250660D01*
X156423205Y-88241169D01*
X156432978Y-88231930D01*
X156442479Y-88222949D01*
X156451699Y-88214233D01*
X156460632Y-88205788D01*
X156469271Y-88197620D01*
X156477610Y-88189737D01*
X156485642Y-88182143D01*
X156493360Y-88174847D01*
X156500757Y-88167853D01*
X156507827Y-88161169D01*
X156514563Y-88154800D01*
X156520958Y-88148754D01*
X156527005Y-88143035D01*
X156532698Y-88137652D01*
X156538031Y-88132610D01*
X156542995Y-88127916D01*
X156547585Y-88123575D01*
X156551793Y-88119595D01*
X156555614Y-88115982D01*
X156559040Y-88112741D01*
X156562064Y-88109880D01*
X156564680Y-88107405D01*
X156566881Y-88105322D01*
X156568661Y-88103637D01*
X156570012Y-88102357D01*
X156570928Y-88101489D01*
X156571402Y-88101038D01*
X156571466Y-88100976D01*
X156573637Y-88098836D01*
X156049390Y-88098836D01*
X155525143Y-88098836D01*
X155395963Y-88098836D01*
X155395963Y-87969657D01*
X156147365Y-87969671D01*
G37*
G36*
X153961786Y-87910908D02*
G01*
X153967483Y-87919282D01*
X153973444Y-87928046D01*
X153979667Y-87937194D01*
X153986146Y-87946720D01*
X153992878Y-87956617D01*
X153999857Y-87966878D01*
X154007080Y-87977497D01*
X154014541Y-87988467D01*
X154022238Y-87999783D01*
X154030164Y-88011437D01*
X154038316Y-88023423D01*
X154046690Y-88035735D01*
X154055280Y-88048366D01*
X154064083Y-88061309D01*
X154073094Y-88074558D01*
X154082309Y-88088107D01*
X154091723Y-88101949D01*
X154101331Y-88116077D01*
X154111130Y-88130485D01*
X154121115Y-88145167D01*
X154131282Y-88160116D01*
X154141626Y-88175326D01*
X154152142Y-88190789D01*
X154162827Y-88206500D01*
X154173675Y-88222453D01*
X154184683Y-88238639D01*
X154195846Y-88255054D01*
X154207160Y-88271691D01*
X154218620Y-88288542D01*
X154230222Y-88305602D01*
X154241961Y-88322864D01*
X154253833Y-88340322D01*
X154265833Y-88357969D01*
X154277958Y-88375798D01*
X154290203Y-88393803D01*
X154302562Y-88411978D01*
X154315033Y-88430317D01*
X154327610Y-88448811D01*
X154340289Y-88467456D01*
X154353066Y-88486245D01*
X154365936Y-88505170D01*
X154378894Y-88524226D01*
X154391937Y-88543407D01*
X154405060Y-88562704D01*
X154418259Y-88582113D01*
X154431528Y-88601627D01*
X154444865Y-88621239D01*
X154458263Y-88640942D01*
X154471720Y-88660731D01*
X154485230Y-88680598D01*
X154498788Y-88700537D01*
X154512392Y-88720542D01*
X154526036Y-88740606D01*
X154539715Y-88760723D01*
X154553426Y-88780886D01*
X154567164Y-88801088D01*
X154580924Y-88821324D01*
X154594702Y-88841586D01*
X154608494Y-88861869D01*
X154622295Y-88882165D01*
X154636102Y-88902468D01*
X154649908Y-88922772D01*
X154663711Y-88943071D01*
X154677505Y-88963356D01*
X154691286Y-88983623D01*
X154705050Y-89003865D01*
X154718793Y-89024075D01*
X154732509Y-89044247D01*
X154746195Y-89064374D01*
X154759846Y-89084449D01*
X154773457Y-89104467D01*
X154787025Y-89124420D01*
X154800545Y-89144303D01*
X154814012Y-89164108D01*
X154827422Y-89183830D01*
X154840770Y-89203461D01*
X154854053Y-89222995D01*
X154867266Y-89242426D01*
X154880404Y-89261748D01*
X154893462Y-89280953D01*
X154906438Y-89300035D01*
X154919325Y-89318988D01*
X154932120Y-89337806D01*
X154944818Y-89356481D01*
X154957415Y-89375007D01*
X154969907Y-89393378D01*
X154982288Y-89411588D01*
X154994555Y-89429629D01*
X155006703Y-89447495D01*
X155018728Y-89465180D01*
X155030625Y-89482677D01*
X155042390Y-89499980D01*
X155054019Y-89517083D01*
X155065506Y-89533978D01*
X155076848Y-89550659D01*
X155088041Y-89567121D01*
X155099079Y-89583355D01*
X155109959Y-89599356D01*
X155120675Y-89615118D01*
X155131224Y-89630633D01*
X155141602Y-89645896D01*
X155151803Y-89660899D01*
X155161823Y-89675637D01*
X155171658Y-89690102D01*
X155181304Y-89704289D01*
X155190755Y-89718191D01*
X155200009Y-89731801D01*
X155209059Y-89745112D01*
X155217902Y-89758119D01*
X155226534Y-89770815D01*
X155234950Y-89783194D01*
X155243145Y-89795248D01*
X155251115Y-89806971D01*
X155258856Y-89818357D01*
X155266363Y-89829400D01*
X155273632Y-89840092D01*
X155280659Y-89850428D01*
X155287438Y-89860400D01*
X155293967Y-89870003D01*
X155300239Y-89879230D01*
X155306251Y-89888074D01*
X155311999Y-89896529D01*
X155317477Y-89904588D01*
X155322682Y-89912245D01*
X155327609Y-89919494D01*
X155332254Y-89926327D01*
X155336612Y-89932739D01*
X155340679Y-89938723D01*
X155344450Y-89944272D01*
X155347922Y-89949379D01*
X155351089Y-89954040D01*
X155353947Y-89958246D01*
X155356492Y-89961991D01*
X155358719Y-89965270D01*
X155360624Y-89968075D01*
X155362203Y-89970399D01*
X155363451Y-89972238D01*
X155364363Y-89973583D01*
X155364936Y-89974428D01*
X155365165Y-89974767D01*
X155365169Y-89974774D01*
X155364863Y-89974783D01*
X155363943Y-89974792D01*
X155362415Y-89974801D01*
X155360287Y-89974809D01*
X155357565Y-89974818D01*
X155354257Y-89974826D01*
X155350369Y-89974834D01*
X155345907Y-89974842D01*
X155340880Y-89974850D01*
X155335293Y-89974858D01*
X155329154Y-89974866D01*
X155322470Y-89974874D01*
X155315246Y-89974881D01*
X155307491Y-89974889D01*
X155299211Y-89974896D01*
X155290413Y-89974903D01*
X155281103Y-89974910D01*
X155271289Y-89974917D01*
X155260978Y-89974924D01*
X155250176Y-89974930D01*
X155238890Y-89974937D01*
X155227127Y-89974943D01*
X155214894Y-89974949D01*
X155202198Y-89974955D01*
X155189046Y-89974961D01*
X155175444Y-89974967D01*
X155161400Y-89974972D01*
X155146920Y-89974977D01*
X155132011Y-89974983D01*
X155116680Y-89974988D01*
X155100934Y-89974992D01*
X155084779Y-89974997D01*
X155068223Y-89975002D01*
X155051273Y-89975006D01*
X155033935Y-89975010D01*
X155016216Y-89975014D01*
X154998123Y-89975018D01*
X154979663Y-89975021D01*
X154960843Y-89975025D01*
X154941669Y-89975028D01*
X154922149Y-89975031D01*
X154902289Y-89975034D01*
X154882097Y-89975036D01*
X154861578Y-89975039D01*
X154840741Y-89975041D01*
X154819591Y-89975043D01*
X154798136Y-89975044D01*
X154776383Y-89975046D01*
X154754338Y-89975047D01*
X154732008Y-89975048D01*
X154709400Y-89975049D01*
X154686521Y-89975050D01*
X154663379Y-89975050D01*
X154639978Y-89975050D01*
X154634097Y-89975050D01*
X154607446Y-89975050D01*
X154581410Y-89975050D01*
X154555983Y-89975050D01*
X154531157Y-89975050D01*
X154506927Y-89975049D01*
X154483287Y-89975048D01*
X154460229Y-89975048D01*
X154437748Y-89975047D01*
X154415837Y-89975046D01*
X154394489Y-89975044D01*
X154373700Y-89975043D01*
X154353461Y-89975042D01*
X154333768Y-89975040D01*
X154314612Y-89975038D01*
X154295989Y-89975036D01*
X154277892Y-89975034D01*
X154260314Y-89975032D01*
X154243248Y-89975029D01*
X154226690Y-89975027D01*
X154210632Y-89975024D01*
X154195068Y-89975021D01*
X154179991Y-89975018D01*
X154165396Y-89975014D01*
X154151275Y-89975011D01*
X154137623Y-89975007D01*
X154124434Y-89975003D01*
X154111700Y-89974999D01*
X154099415Y-89974995D01*
X154087574Y-89974990D01*
X154076169Y-89974986D01*
X154065195Y-89974981D01*
X154054645Y-89974976D01*
X154044512Y-89974970D01*
X154034791Y-89974965D01*
X154025475Y-89974959D01*
X154016557Y-89974953D01*
X154008032Y-89974946D01*
X153999892Y-89974940D01*
X153992132Y-89974933D01*
X153984746Y-89974926D01*
X153977726Y-89974919D01*
X153971066Y-89974912D01*
X153964761Y-89974904D01*
X153958804Y-89974896D01*
X153953187Y-89974888D01*
X153947906Y-89974879D01*
X153942954Y-89974870D01*
X153938324Y-89974861D01*
X153934010Y-89974852D01*
X153930006Y-89974842D01*
X153926305Y-89974832D01*
X153922901Y-89974822D01*
X153919787Y-89974812D01*
X153916958Y-89974801D01*
X153914406Y-89974790D01*
X153912126Y-89974779D01*
X153910111Y-89974767D01*
X153908355Y-89974755D01*
X153906852Y-89974743D01*
X153905594Y-89974731D01*
X153904576Y-89974718D01*
X153903792Y-89974705D01*
X153903234Y-89974691D01*
X153902898Y-89974677D01*
X153902775Y-89974663D01*
X153902775Y-89974662D01*
X153902771Y-89974344D01*
X153902768Y-89973411D01*
X153902764Y-89971871D01*
X153902761Y-89969732D01*
X153902758Y-89967000D01*
X153902754Y-89963682D01*
X153902751Y-89959785D01*
X153902748Y-89955317D01*
X153902745Y-89950284D01*
X153902742Y-89944694D01*
X153902740Y-89938553D01*
X153902737Y-89931870D01*
X153902734Y-89924650D01*
X153902731Y-89916900D01*
X153902729Y-89908629D01*
X153902726Y-89899843D01*
X153902724Y-89890549D01*
X153902722Y-89880754D01*
X153902719Y-89870465D01*
X153902717Y-89859689D01*
X153902715Y-89848434D01*
X153902715Y-89845560D01*
X154032121Y-89845560D01*
X154576493Y-89845560D01*
X155120864Y-89845560D01*
X155119965Y-89844240D01*
X155119768Y-89843951D01*
X155119226Y-89843154D01*
X155118343Y-89841856D01*
X155117124Y-89840063D01*
X155115572Y-89837781D01*
X155113692Y-89835017D01*
X155111488Y-89831776D01*
X155108965Y-89828064D01*
X155106125Y-89823889D01*
X155102974Y-89819255D01*
X155099516Y-89814170D01*
X155095755Y-89808639D01*
X155091695Y-89802669D01*
X155087341Y-89796265D01*
X155082696Y-89789434D01*
X155077765Y-89782183D01*
X155072552Y-89774516D01*
X155067061Y-89766441D01*
X155061296Y-89757964D01*
X155055262Y-89749090D01*
X155048963Y-89739827D01*
X155042403Y-89730179D01*
X155035586Y-89720154D01*
X155028516Y-89709758D01*
X155021198Y-89698996D01*
X155013636Y-89687875D01*
X155005834Y-89676401D01*
X154997796Y-89664580D01*
X154989526Y-89652419D01*
X154981029Y-89639923D01*
X154972309Y-89627099D01*
X154963370Y-89613953D01*
X154954215Y-89600491D01*
X154944851Y-89586719D01*
X154935280Y-89572644D01*
X154925506Y-89558271D01*
X154915535Y-89543608D01*
X154905370Y-89528659D01*
X154895015Y-89513431D01*
X154884475Y-89497931D01*
X154873754Y-89482164D01*
X154862856Y-89466137D01*
X154851784Y-89449856D01*
X154840545Y-89433327D01*
X154829141Y-89416556D01*
X154817576Y-89399549D01*
X154805856Y-89382313D01*
X154793984Y-89364854D01*
X154781964Y-89347178D01*
X154769801Y-89329291D01*
X154757499Y-89311199D01*
X154745062Y-89292909D01*
X154732493Y-89274426D01*
X154719799Y-89255757D01*
X154706982Y-89236908D01*
X154694047Y-89217886D01*
X154680997Y-89198696D01*
X154667838Y-89179344D01*
X154654574Y-89159837D01*
X154641208Y-89140181D01*
X154627744Y-89120382D01*
X154614188Y-89100446D01*
X154600543Y-89080379D01*
X154586814Y-89060188D01*
X154575864Y-89044086D01*
X154562072Y-89023804D01*
X154548362Y-89003642D01*
X154534738Y-88983606D01*
X154521204Y-88963703D01*
X154507764Y-88943939D01*
X154494423Y-88924319D01*
X154481184Y-88904850D01*
X154468052Y-88885538D01*
X154455030Y-88866390D01*
X154442125Y-88847411D01*
X154429338Y-88828608D01*
X154416675Y-88809986D01*
X154404140Y-88791553D01*
X154391737Y-88773313D01*
X154379469Y-88755274D01*
X154367343Y-88737441D01*
X154355361Y-88719821D01*
X154343527Y-88702420D01*
X154331846Y-88685243D01*
X154320323Y-88668298D01*
X154308961Y-88651590D01*
X154297764Y-88635126D01*
X154286738Y-88618911D01*
X154275885Y-88602951D01*
X154265210Y-88587254D01*
X154254717Y-88571825D01*
X154244411Y-88556670D01*
X154234295Y-88541796D01*
X154224375Y-88527208D01*
X154214653Y-88512914D01*
X154205135Y-88498918D01*
X154195824Y-88485227D01*
X154186725Y-88471847D01*
X154177842Y-88458785D01*
X154169179Y-88446047D01*
X154160740Y-88433638D01*
X154152529Y-88421565D01*
X154144551Y-88409835D01*
X154136810Y-88398452D01*
X154129309Y-88387425D01*
X154122054Y-88376757D01*
X154115049Y-88366457D01*
X154108297Y-88356529D01*
X154101802Y-88346981D01*
X154095570Y-88337818D01*
X154089604Y-88329046D01*
X154083908Y-88320672D01*
X154078487Y-88312702D01*
X154073345Y-88305142D01*
X154068485Y-88297998D01*
X154063913Y-88291276D01*
X154059632Y-88284982D01*
X154055646Y-88279124D01*
X154051960Y-88273706D01*
X154048578Y-88268735D01*
X154045505Y-88264217D01*
X154042743Y-88260158D01*
X154040298Y-88256565D01*
X154038174Y-88253444D01*
X154036375Y-88250800D01*
X154034904Y-88248640D01*
X154033767Y-88246971D01*
X154032967Y-88245797D01*
X154032510Y-88245126D01*
X154032392Y-88244956D01*
X154032384Y-88245256D01*
X154032376Y-88246171D01*
X154032368Y-88247691D01*
X154032361Y-88249811D01*
X154032353Y-88252523D01*
X154032345Y-88255819D01*
X154032338Y-88259692D01*
X154032330Y-88264136D01*
X154032323Y-88269141D01*
X154032316Y-88274702D01*
X154032309Y-88280811D01*
X154032301Y-88287460D01*
X154032294Y-88294643D01*
X154032288Y-88302352D01*
X154032281Y-88310579D01*
X154032274Y-88319317D01*
X154032268Y-88328560D01*
X154032261Y-88338299D01*
X154032255Y-88348528D01*
X154032249Y-88359238D01*
X154032243Y-88370424D01*
X154032237Y-88382077D01*
X154032231Y-88394190D01*
X154032225Y-88406756D01*
X154032219Y-88419767D01*
X154032214Y-88433216D01*
X154032208Y-88447096D01*
X154032203Y-88461400D01*
X154032198Y-88476120D01*
X154032193Y-88491249D01*
X154032188Y-88506780D01*
X154032184Y-88522704D01*
X154032179Y-88539016D01*
X154032175Y-88555707D01*
X154032171Y-88572771D01*
X154032167Y-88590200D01*
X154032163Y-88607986D01*
X154032159Y-88626123D01*
X154032155Y-88644603D01*
X154032152Y-88663418D01*
X154032149Y-88682562D01*
X154032146Y-88702027D01*
X154032143Y-88721806D01*
X154032140Y-88741892D01*
X154032137Y-88762276D01*
X154032135Y-88782953D01*
X154032133Y-88803913D01*
X154032131Y-88825152D01*
X154032129Y-88846660D01*
X154032127Y-88868430D01*
X154032126Y-88890456D01*
X154032125Y-88912730D01*
X154032123Y-88935245D01*
X154032123Y-88957992D01*
X154032122Y-88980966D01*
X154032121Y-89004159D01*
X154032121Y-89027563D01*
X154032121Y-89045110D01*
X154032121Y-89845560D01*
X153902715Y-89845560D01*
X153902713Y-89836706D01*
X153902711Y-89824512D01*
X153902709Y-89811860D01*
X153902707Y-89798757D01*
X153902705Y-89785209D01*
X153902704Y-89771224D01*
X153902702Y-89756809D01*
X153902701Y-89741971D01*
X153902699Y-89726717D01*
X153902698Y-89711053D01*
X153902697Y-89694988D01*
X153902695Y-89678528D01*
X153902694Y-89661680D01*
X153902693Y-89644452D01*
X153902692Y-89626849D01*
X153902691Y-89608881D01*
X153902690Y-89590552D01*
X153902690Y-89571872D01*
X153902689Y-89552846D01*
X153902689Y-89533481D01*
X153902688Y-89513786D01*
X153902688Y-89493766D01*
X153902687Y-89473429D01*
X153902687Y-89452783D01*
X153902687Y-89431833D01*
X153902687Y-89410587D01*
X153902687Y-89389053D01*
X153902687Y-89367237D01*
X153902687Y-89345146D01*
X153902687Y-89322787D01*
X153902688Y-89300168D01*
X153902688Y-89277296D01*
X153902689Y-89254177D01*
X153902689Y-89230819D01*
X153902690Y-89207229D01*
X153902691Y-89183413D01*
X153902692Y-89159379D01*
X153902693Y-89135134D01*
X153902694Y-89110686D01*
X153902695Y-89086040D01*
X153902696Y-89061205D01*
X153902698Y-89036186D01*
X153902699Y-89010992D01*
X153902701Y-88985630D01*
X153902702Y-88960106D01*
X153902704Y-88934427D01*
X153902706Y-88908601D01*
X153902707Y-88899225D01*
X153902786Y-87824175D01*
X153961786Y-87910908D01*
G37*
%TO.C,R17*%
X158132852Y-60727064D02*
X158132852Y-59272936D01*
X159952852Y-60727064D02*
X159952852Y-59272936D01*
%TO.C,R18*%
X154804281Y-60727064D02*
X154804281Y-59272936D01*
X156624281Y-60727064D02*
X156624281Y-59272936D01*
%TO.C,R9*%
X138663255Y-80672936D02*
X138663255Y-81127064D01*
X137193255Y-80672936D02*
X137193255Y-81127064D01*
%TO.C,D12*%
X127874896Y-77625000D02*
X129794896Y-77625000D01*
X129794896Y-77625000D02*
X129794896Y-74525000D01*
X127874896Y-74525000D02*
X127874896Y-77625000D01*
%TO.C,R29*%
X118190000Y-60727064D02*
X118190000Y-59272936D01*
X120010000Y-60727064D02*
X120010000Y-59272936D01*
%TO.C,TP1*%
X162873358Y-68300000D02*
G75*
G03*
X161473358Y-68300000I-700000J0D01*
G01*
X161473358Y-68300000D02*
G75*
G03*
X162873358Y-68300000I700000J0D01*
G01*
%TO.C,R21*%
X144818568Y-60727064D02*
X144818568Y-59272936D01*
X146638568Y-60727064D02*
X146638568Y-59272936D01*
%TO.C,R22*%
X141489997Y-60727064D02*
X141489997Y-59272936D01*
X143309997Y-60727064D02*
X143309997Y-59272936D01*
%TO.C,R24*%
X134832855Y-60727064D02*
X134832855Y-59272936D01*
X136652855Y-60727064D02*
X136652855Y-59272936D01*
%TO.C,R3*%
X156847869Y-80672936D02*
X156847869Y-81127064D01*
X155377869Y-80672936D02*
X155377869Y-81127064D01*
%TO.C,TP9*%
X138627203Y-68300000D02*
G75*
G03*
X137227203Y-68300000I-700000J0D01*
G01*
X137227203Y-68300000D02*
G75*
G03*
X138627203Y-68300000I700000J0D01*
G01*
%TO.C,D1*%
X161213358Y-77625000D02*
X163133358Y-77625000D01*
X163133358Y-77625000D02*
X163133358Y-74525000D01*
X161213358Y-74525000D02*
X161213358Y-77625000D01*
%TO.C,D5*%
X149090279Y-77625000D02*
X151010279Y-77625000D01*
X151010279Y-77625000D02*
X151010279Y-74525000D01*
X149090279Y-74525000D02*
X149090279Y-77625000D01*
%TO.C,R25*%
X131504284Y-60727064D02*
X131504284Y-59272936D01*
X133324284Y-60727064D02*
X133324284Y-59272936D01*
%TO.C,TP12*%
X129534896Y-68300000D02*
G75*
G03*
X128134896Y-68300000I-700000J0D01*
G01*
X128134896Y-68300000D02*
G75*
G03*
X129534896Y-68300000I700000J0D01*
G01*
%TO.C,TP15*%
X119000000Y-67600000D02*
X120400000Y-67600000D01*
X119000000Y-69000000D02*
X119000000Y-67600000D01*
X120400000Y-67600000D02*
X120400000Y-69000000D01*
X120400000Y-69000000D02*
X119000000Y-69000000D01*
%TD*%
M02*
