%TF.GenerationSoftware,KiCad,Pcbnew,7.0.11-rc3*%
%TF.CreationDate,2025-12-05T15:52:15+08:00*%
%TF.ProjectId,vtap_test_led,76746170-5f74-4657-9374-5f6c65642e6b,rev?*%
%TF.SameCoordinates,Original*%
%TF.FileFunction,Drillmap*%
%TF.FilePolarity,Positive*%
%FSLAX45Y45*%
G04 Gerber Fmt 4.5, Leading zero omitted, Abs format (unit mm)*
G04 Created by KiCad (PCBNEW 7.0.11-rc3) date 2025-12-05 15:52:15*
%MOMM*%
%LPD*%
G01*
G04 APERTURE LIST*
%ADD10C,0.050000*%
%ADD11C,0.200000*%
%ADD12C,0.100000*%
G04 APERTURE END LIST*
D10*
X11580000Y-4740000D02*
X16840000Y-4740000D01*
X16840000Y-9850000D01*
X11580000Y-9850000D01*
X11580000Y-4740000D01*
D11*
D12*
X13788002Y-9095000D02*
X13858002Y-9165000D01*
X13858002Y-9095000D02*
X13788002Y-9165000D01*
X14690000Y-9130000D02*
G75*
G03*
X14600000Y-9130000I-45000J0D01*
G01*
X14600000Y-9130000D02*
G75*
G03*
X14690000Y-9130000I45000J0D01*
G01*
D11*
X11838277Y-10163984D02*
X11838277Y-9963984D01*
X11838277Y-9963984D02*
X11885896Y-9963984D01*
X11885896Y-9963984D02*
X11914467Y-9973508D01*
X11914467Y-9973508D02*
X11933515Y-9992555D01*
X11933515Y-9992555D02*
X11943039Y-10011603D01*
X11943039Y-10011603D02*
X11952562Y-10049698D01*
X11952562Y-10049698D02*
X11952562Y-10078270D01*
X11952562Y-10078270D02*
X11943039Y-10116365D01*
X11943039Y-10116365D02*
X11933515Y-10135412D01*
X11933515Y-10135412D02*
X11914467Y-10154460D01*
X11914467Y-10154460D02*
X11885896Y-10163984D01*
X11885896Y-10163984D02*
X11838277Y-10163984D01*
X12038277Y-10163984D02*
X12038277Y-10030650D01*
X12038277Y-10068746D02*
X12047801Y-10049698D01*
X12047801Y-10049698D02*
X12057324Y-10040174D01*
X12057324Y-10040174D02*
X12076372Y-10030650D01*
X12076372Y-10030650D02*
X12095420Y-10030650D01*
X12162086Y-10163984D02*
X12162086Y-10030650D01*
X12162086Y-9963984D02*
X12152562Y-9973508D01*
X12152562Y-9973508D02*
X12162086Y-9983031D01*
X12162086Y-9983031D02*
X12171610Y-9973508D01*
X12171610Y-9973508D02*
X12162086Y-9963984D01*
X12162086Y-9963984D02*
X12162086Y-9983031D01*
X12285896Y-10163984D02*
X12266848Y-10154460D01*
X12266848Y-10154460D02*
X12257324Y-10135412D01*
X12257324Y-10135412D02*
X12257324Y-9963984D01*
X12390658Y-10163984D02*
X12371610Y-10154460D01*
X12371610Y-10154460D02*
X12362086Y-10135412D01*
X12362086Y-10135412D02*
X12362086Y-9963984D01*
X12619229Y-10163984D02*
X12619229Y-9963984D01*
X12619229Y-9963984D02*
X12685896Y-10106841D01*
X12685896Y-10106841D02*
X12752562Y-9963984D01*
X12752562Y-9963984D02*
X12752562Y-10163984D01*
X12933515Y-10163984D02*
X12933515Y-10059222D01*
X12933515Y-10059222D02*
X12923991Y-10040174D01*
X12923991Y-10040174D02*
X12904943Y-10030650D01*
X12904943Y-10030650D02*
X12866848Y-10030650D01*
X12866848Y-10030650D02*
X12847801Y-10040174D01*
X12933515Y-10154460D02*
X12914467Y-10163984D01*
X12914467Y-10163984D02*
X12866848Y-10163984D01*
X12866848Y-10163984D02*
X12847801Y-10154460D01*
X12847801Y-10154460D02*
X12838277Y-10135412D01*
X12838277Y-10135412D02*
X12838277Y-10116365D01*
X12838277Y-10116365D02*
X12847801Y-10097317D01*
X12847801Y-10097317D02*
X12866848Y-10087793D01*
X12866848Y-10087793D02*
X12914467Y-10087793D01*
X12914467Y-10087793D02*
X12933515Y-10078270D01*
X13028753Y-10030650D02*
X13028753Y-10230650D01*
X13028753Y-10040174D02*
X13047801Y-10030650D01*
X13047801Y-10030650D02*
X13085896Y-10030650D01*
X13085896Y-10030650D02*
X13104943Y-10040174D01*
X13104943Y-10040174D02*
X13114467Y-10049698D01*
X13114467Y-10049698D02*
X13123991Y-10068746D01*
X13123991Y-10068746D02*
X13123991Y-10125889D01*
X13123991Y-10125889D02*
X13114467Y-10144936D01*
X13114467Y-10144936D02*
X13104943Y-10154460D01*
X13104943Y-10154460D02*
X13085896Y-10163984D01*
X13085896Y-10163984D02*
X13047801Y-10163984D01*
X13047801Y-10163984D02*
X13028753Y-10154460D01*
X13209705Y-10144936D02*
X13219229Y-10154460D01*
X13219229Y-10154460D02*
X13209705Y-10163984D01*
X13209705Y-10163984D02*
X13200182Y-10154460D01*
X13200182Y-10154460D02*
X13209705Y-10144936D01*
X13209705Y-10144936D02*
X13209705Y-10163984D01*
X13209705Y-10040174D02*
X13219229Y-10049698D01*
X13219229Y-10049698D02*
X13209705Y-10059222D01*
X13209705Y-10059222D02*
X13200182Y-10049698D01*
X13200182Y-10049698D02*
X13209705Y-10040174D01*
X13209705Y-10040174D02*
X13209705Y-10059222D01*
D12*
X11507500Y-10457500D02*
X11577500Y-10527500D01*
X11577500Y-10457500D02*
X11507500Y-10527500D01*
D11*
X11876372Y-10383984D02*
X11895420Y-10383984D01*
X11895420Y-10383984D02*
X11914467Y-10393508D01*
X11914467Y-10393508D02*
X11923991Y-10403031D01*
X11923991Y-10403031D02*
X11933515Y-10422079D01*
X11933515Y-10422079D02*
X11943039Y-10460174D01*
X11943039Y-10460174D02*
X11943039Y-10507793D01*
X11943039Y-10507793D02*
X11933515Y-10545889D01*
X11933515Y-10545889D02*
X11923991Y-10564936D01*
X11923991Y-10564936D02*
X11914467Y-10574460D01*
X11914467Y-10574460D02*
X11895420Y-10583984D01*
X11895420Y-10583984D02*
X11876372Y-10583984D01*
X11876372Y-10583984D02*
X11857324Y-10574460D01*
X11857324Y-10574460D02*
X11847801Y-10564936D01*
X11847801Y-10564936D02*
X11838277Y-10545889D01*
X11838277Y-10545889D02*
X11828753Y-10507793D01*
X11828753Y-10507793D02*
X11828753Y-10460174D01*
X11828753Y-10460174D02*
X11838277Y-10422079D01*
X11838277Y-10422079D02*
X11847801Y-10403031D01*
X11847801Y-10403031D02*
X11857324Y-10393508D01*
X11857324Y-10393508D02*
X11876372Y-10383984D01*
X12028753Y-10564936D02*
X12038277Y-10574460D01*
X12038277Y-10574460D02*
X12028753Y-10583984D01*
X12028753Y-10583984D02*
X12019229Y-10574460D01*
X12019229Y-10574460D02*
X12028753Y-10564936D01*
X12028753Y-10564936D02*
X12028753Y-10583984D01*
X12104943Y-10383984D02*
X12238277Y-10383984D01*
X12238277Y-10383984D02*
X12152562Y-10583984D01*
X12352562Y-10383984D02*
X12371610Y-10383984D01*
X12371610Y-10383984D02*
X12390658Y-10393508D01*
X12390658Y-10393508D02*
X12400182Y-10403031D01*
X12400182Y-10403031D02*
X12409705Y-10422079D01*
X12409705Y-10422079D02*
X12419229Y-10460174D01*
X12419229Y-10460174D02*
X12419229Y-10507793D01*
X12419229Y-10507793D02*
X12409705Y-10545889D01*
X12409705Y-10545889D02*
X12400182Y-10564936D01*
X12400182Y-10564936D02*
X12390658Y-10574460D01*
X12390658Y-10574460D02*
X12371610Y-10583984D01*
X12371610Y-10583984D02*
X12352562Y-10583984D01*
X12352562Y-10583984D02*
X12333515Y-10574460D01*
X12333515Y-10574460D02*
X12323991Y-10564936D01*
X12323991Y-10564936D02*
X12314467Y-10545889D01*
X12314467Y-10545889D02*
X12304943Y-10507793D01*
X12304943Y-10507793D02*
X12304943Y-10460174D01*
X12304943Y-10460174D02*
X12314467Y-10422079D01*
X12314467Y-10422079D02*
X12323991Y-10403031D01*
X12323991Y-10403031D02*
X12333515Y-10393508D01*
X12333515Y-10393508D02*
X12352562Y-10383984D01*
X12543039Y-10383984D02*
X12562086Y-10383984D01*
X12562086Y-10383984D02*
X12581134Y-10393508D01*
X12581134Y-10393508D02*
X12590658Y-10403031D01*
X12590658Y-10403031D02*
X12600182Y-10422079D01*
X12600182Y-10422079D02*
X12609705Y-10460174D01*
X12609705Y-10460174D02*
X12609705Y-10507793D01*
X12609705Y-10507793D02*
X12600182Y-10545889D01*
X12600182Y-10545889D02*
X12590658Y-10564936D01*
X12590658Y-10564936D02*
X12581134Y-10574460D01*
X12581134Y-10574460D02*
X12562086Y-10583984D01*
X12562086Y-10583984D02*
X12543039Y-10583984D01*
X12543039Y-10583984D02*
X12523991Y-10574460D01*
X12523991Y-10574460D02*
X12514467Y-10564936D01*
X12514467Y-10564936D02*
X12504943Y-10545889D01*
X12504943Y-10545889D02*
X12495420Y-10507793D01*
X12495420Y-10507793D02*
X12495420Y-10460174D01*
X12495420Y-10460174D02*
X12504943Y-10422079D01*
X12504943Y-10422079D02*
X12514467Y-10403031D01*
X12514467Y-10403031D02*
X12523991Y-10393508D01*
X12523991Y-10393508D02*
X12543039Y-10383984D01*
X12695420Y-10583984D02*
X12695420Y-10450650D01*
X12695420Y-10469698D02*
X12704943Y-10460174D01*
X12704943Y-10460174D02*
X12723991Y-10450650D01*
X12723991Y-10450650D02*
X12752563Y-10450650D01*
X12752563Y-10450650D02*
X12771610Y-10460174D01*
X12771610Y-10460174D02*
X12781134Y-10479222D01*
X12781134Y-10479222D02*
X12781134Y-10583984D01*
X12781134Y-10479222D02*
X12790658Y-10460174D01*
X12790658Y-10460174D02*
X12809705Y-10450650D01*
X12809705Y-10450650D02*
X12838277Y-10450650D01*
X12838277Y-10450650D02*
X12857324Y-10460174D01*
X12857324Y-10460174D02*
X12866848Y-10479222D01*
X12866848Y-10479222D02*
X12866848Y-10583984D01*
X12962086Y-10583984D02*
X12962086Y-10450650D01*
X12962086Y-10469698D02*
X12971610Y-10460174D01*
X12971610Y-10460174D02*
X12990658Y-10450650D01*
X12990658Y-10450650D02*
X13019229Y-10450650D01*
X13019229Y-10450650D02*
X13038277Y-10460174D01*
X13038277Y-10460174D02*
X13047801Y-10479222D01*
X13047801Y-10479222D02*
X13047801Y-10583984D01*
X13047801Y-10479222D02*
X13057324Y-10460174D01*
X13057324Y-10460174D02*
X13076372Y-10450650D01*
X13076372Y-10450650D02*
X13104943Y-10450650D01*
X13104943Y-10450650D02*
X13123991Y-10460174D01*
X13123991Y-10460174D02*
X13133515Y-10479222D01*
X13133515Y-10479222D02*
X13133515Y-10583984D01*
X13523991Y-10374460D02*
X13352563Y-10631603D01*
X13781134Y-10383984D02*
X13800182Y-10383984D01*
X13800182Y-10383984D02*
X13819229Y-10393508D01*
X13819229Y-10393508D02*
X13828753Y-10403031D01*
X13828753Y-10403031D02*
X13838277Y-10422079D01*
X13838277Y-10422079D02*
X13847801Y-10460174D01*
X13847801Y-10460174D02*
X13847801Y-10507793D01*
X13847801Y-10507793D02*
X13838277Y-10545889D01*
X13838277Y-10545889D02*
X13828753Y-10564936D01*
X13828753Y-10564936D02*
X13819229Y-10574460D01*
X13819229Y-10574460D02*
X13800182Y-10583984D01*
X13800182Y-10583984D02*
X13781134Y-10583984D01*
X13781134Y-10583984D02*
X13762086Y-10574460D01*
X13762086Y-10574460D02*
X13752563Y-10564936D01*
X13752563Y-10564936D02*
X13743039Y-10545889D01*
X13743039Y-10545889D02*
X13733515Y-10507793D01*
X13733515Y-10507793D02*
X13733515Y-10460174D01*
X13733515Y-10460174D02*
X13743039Y-10422079D01*
X13743039Y-10422079D02*
X13752563Y-10403031D01*
X13752563Y-10403031D02*
X13762086Y-10393508D01*
X13762086Y-10393508D02*
X13781134Y-10383984D01*
X13933515Y-10564936D02*
X13943039Y-10574460D01*
X13943039Y-10574460D02*
X13933515Y-10583984D01*
X13933515Y-10583984D02*
X13923991Y-10574460D01*
X13923991Y-10574460D02*
X13933515Y-10564936D01*
X13933515Y-10564936D02*
X13933515Y-10583984D01*
X14066848Y-10383984D02*
X14085896Y-10383984D01*
X14085896Y-10383984D02*
X14104944Y-10393508D01*
X14104944Y-10393508D02*
X14114467Y-10403031D01*
X14114467Y-10403031D02*
X14123991Y-10422079D01*
X14123991Y-10422079D02*
X14133515Y-10460174D01*
X14133515Y-10460174D02*
X14133515Y-10507793D01*
X14133515Y-10507793D02*
X14123991Y-10545889D01*
X14123991Y-10545889D02*
X14114467Y-10564936D01*
X14114467Y-10564936D02*
X14104944Y-10574460D01*
X14104944Y-10574460D02*
X14085896Y-10583984D01*
X14085896Y-10583984D02*
X14066848Y-10583984D01*
X14066848Y-10583984D02*
X14047801Y-10574460D01*
X14047801Y-10574460D02*
X14038277Y-10564936D01*
X14038277Y-10564936D02*
X14028753Y-10545889D01*
X14028753Y-10545889D02*
X14019229Y-10507793D01*
X14019229Y-10507793D02*
X14019229Y-10460174D01*
X14019229Y-10460174D02*
X14028753Y-10422079D01*
X14028753Y-10422079D02*
X14038277Y-10403031D01*
X14038277Y-10403031D02*
X14047801Y-10393508D01*
X14047801Y-10393508D02*
X14066848Y-10383984D01*
X14209706Y-10403031D02*
X14219229Y-10393508D01*
X14219229Y-10393508D02*
X14238277Y-10383984D01*
X14238277Y-10383984D02*
X14285896Y-10383984D01*
X14285896Y-10383984D02*
X14304944Y-10393508D01*
X14304944Y-10393508D02*
X14314467Y-10403031D01*
X14314467Y-10403031D02*
X14323991Y-10422079D01*
X14323991Y-10422079D02*
X14323991Y-10441127D01*
X14323991Y-10441127D02*
X14314467Y-10469698D01*
X14314467Y-10469698D02*
X14200182Y-10583984D01*
X14200182Y-10583984D02*
X14323991Y-10583984D01*
X14390658Y-10383984D02*
X14523991Y-10383984D01*
X14523991Y-10383984D02*
X14438277Y-10583984D01*
X14685896Y-10383984D02*
X14647801Y-10383984D01*
X14647801Y-10383984D02*
X14628753Y-10393508D01*
X14628753Y-10393508D02*
X14619229Y-10403031D01*
X14619229Y-10403031D02*
X14600182Y-10431603D01*
X14600182Y-10431603D02*
X14590658Y-10469698D01*
X14590658Y-10469698D02*
X14590658Y-10545889D01*
X14590658Y-10545889D02*
X14600182Y-10564936D01*
X14600182Y-10564936D02*
X14609706Y-10574460D01*
X14609706Y-10574460D02*
X14628753Y-10583984D01*
X14628753Y-10583984D02*
X14666848Y-10583984D01*
X14666848Y-10583984D02*
X14685896Y-10574460D01*
X14685896Y-10574460D02*
X14695420Y-10564936D01*
X14695420Y-10564936D02*
X14704944Y-10545889D01*
X14704944Y-10545889D02*
X14704944Y-10498270D01*
X14704944Y-10498270D02*
X14695420Y-10479222D01*
X14695420Y-10479222D02*
X14685896Y-10469698D01*
X14685896Y-10469698D02*
X14666848Y-10460174D01*
X14666848Y-10460174D02*
X14628753Y-10460174D01*
X14628753Y-10460174D02*
X14609706Y-10469698D01*
X14609706Y-10469698D02*
X14600182Y-10479222D01*
X14600182Y-10479222D02*
X14590658Y-10498270D01*
X14781134Y-10383984D02*
X14781134Y-10422079D01*
X14857325Y-10383984D02*
X14857325Y-10422079D01*
X15152563Y-10660174D02*
X15143039Y-10650650D01*
X15143039Y-10650650D02*
X15123991Y-10622079D01*
X15123991Y-10622079D02*
X15114468Y-10603031D01*
X15114468Y-10603031D02*
X15104944Y-10574460D01*
X15104944Y-10574460D02*
X15095420Y-10526841D01*
X15095420Y-10526841D02*
X15095420Y-10488746D01*
X15095420Y-10488746D02*
X15104944Y-10441127D01*
X15104944Y-10441127D02*
X15114468Y-10412555D01*
X15114468Y-10412555D02*
X15123991Y-10393508D01*
X15123991Y-10393508D02*
X15143039Y-10364936D01*
X15143039Y-10364936D02*
X15152563Y-10355412D01*
X15333515Y-10583984D02*
X15219229Y-10583984D01*
X15276372Y-10583984D02*
X15276372Y-10383984D01*
X15276372Y-10383984D02*
X15257325Y-10412555D01*
X15257325Y-10412555D02*
X15238277Y-10431603D01*
X15238277Y-10431603D02*
X15219229Y-10441127D01*
X15571610Y-10583984D02*
X15571610Y-10383984D01*
X15657325Y-10583984D02*
X15657325Y-10479222D01*
X15657325Y-10479222D02*
X15647801Y-10460174D01*
X15647801Y-10460174D02*
X15628753Y-10450650D01*
X15628753Y-10450650D02*
X15600182Y-10450650D01*
X15600182Y-10450650D02*
X15581134Y-10460174D01*
X15581134Y-10460174D02*
X15571610Y-10469698D01*
X15781134Y-10583984D02*
X15762087Y-10574460D01*
X15762087Y-10574460D02*
X15752563Y-10564936D01*
X15752563Y-10564936D02*
X15743039Y-10545889D01*
X15743039Y-10545889D02*
X15743039Y-10488746D01*
X15743039Y-10488746D02*
X15752563Y-10469698D01*
X15752563Y-10469698D02*
X15762087Y-10460174D01*
X15762087Y-10460174D02*
X15781134Y-10450650D01*
X15781134Y-10450650D02*
X15809706Y-10450650D01*
X15809706Y-10450650D02*
X15828753Y-10460174D01*
X15828753Y-10460174D02*
X15838277Y-10469698D01*
X15838277Y-10469698D02*
X15847801Y-10488746D01*
X15847801Y-10488746D02*
X15847801Y-10545889D01*
X15847801Y-10545889D02*
X15838277Y-10564936D01*
X15838277Y-10564936D02*
X15828753Y-10574460D01*
X15828753Y-10574460D02*
X15809706Y-10583984D01*
X15809706Y-10583984D02*
X15781134Y-10583984D01*
X15962087Y-10583984D02*
X15943039Y-10574460D01*
X15943039Y-10574460D02*
X15933515Y-10555412D01*
X15933515Y-10555412D02*
X15933515Y-10383984D01*
X16114468Y-10574460D02*
X16095420Y-10583984D01*
X16095420Y-10583984D02*
X16057325Y-10583984D01*
X16057325Y-10583984D02*
X16038277Y-10574460D01*
X16038277Y-10574460D02*
X16028753Y-10555412D01*
X16028753Y-10555412D02*
X16028753Y-10479222D01*
X16028753Y-10479222D02*
X16038277Y-10460174D01*
X16038277Y-10460174D02*
X16057325Y-10450650D01*
X16057325Y-10450650D02*
X16095420Y-10450650D01*
X16095420Y-10450650D02*
X16114468Y-10460174D01*
X16114468Y-10460174D02*
X16123991Y-10479222D01*
X16123991Y-10479222D02*
X16123991Y-10498270D01*
X16123991Y-10498270D02*
X16028753Y-10517317D01*
X16190658Y-10660174D02*
X16200182Y-10650650D01*
X16200182Y-10650650D02*
X16219230Y-10622079D01*
X16219230Y-10622079D02*
X16228753Y-10603031D01*
X16228753Y-10603031D02*
X16238277Y-10574460D01*
X16238277Y-10574460D02*
X16247801Y-10526841D01*
X16247801Y-10526841D02*
X16247801Y-10488746D01*
X16247801Y-10488746D02*
X16238277Y-10441127D01*
X16238277Y-10441127D02*
X16228753Y-10412555D01*
X16228753Y-10412555D02*
X16219230Y-10393508D01*
X16219230Y-10393508D02*
X16200182Y-10364936D01*
X16200182Y-10364936D02*
X16190658Y-10355412D01*
X16552563Y-10660174D02*
X16543039Y-10650650D01*
X16543039Y-10650650D02*
X16523991Y-10622079D01*
X16523991Y-10622079D02*
X16514468Y-10603031D01*
X16514468Y-10603031D02*
X16504944Y-10574460D01*
X16504944Y-10574460D02*
X16495420Y-10526841D01*
X16495420Y-10526841D02*
X16495420Y-10488746D01*
X16495420Y-10488746D02*
X16504944Y-10441127D01*
X16504944Y-10441127D02*
X16514468Y-10412555D01*
X16514468Y-10412555D02*
X16523991Y-10393508D01*
X16523991Y-10393508D02*
X16543039Y-10364936D01*
X16543039Y-10364936D02*
X16552563Y-10355412D01*
X16628753Y-10450650D02*
X16628753Y-10583984D01*
X16628753Y-10469698D02*
X16638277Y-10460174D01*
X16638277Y-10460174D02*
X16657325Y-10450650D01*
X16657325Y-10450650D02*
X16685896Y-10450650D01*
X16685896Y-10450650D02*
X16704944Y-10460174D01*
X16704944Y-10460174D02*
X16714468Y-10479222D01*
X16714468Y-10479222D02*
X16714468Y-10583984D01*
X16838277Y-10583984D02*
X16819230Y-10574460D01*
X16819230Y-10574460D02*
X16809706Y-10564936D01*
X16809706Y-10564936D02*
X16800182Y-10545889D01*
X16800182Y-10545889D02*
X16800182Y-10488746D01*
X16800182Y-10488746D02*
X16809706Y-10469698D01*
X16809706Y-10469698D02*
X16819230Y-10460174D01*
X16819230Y-10460174D02*
X16838277Y-10450650D01*
X16838277Y-10450650D02*
X16866849Y-10450650D01*
X16866849Y-10450650D02*
X16885896Y-10460174D01*
X16885896Y-10460174D02*
X16895420Y-10469698D01*
X16895420Y-10469698D02*
X16904944Y-10488746D01*
X16904944Y-10488746D02*
X16904944Y-10545889D01*
X16904944Y-10545889D02*
X16895420Y-10564936D01*
X16895420Y-10564936D02*
X16885896Y-10574460D01*
X16885896Y-10574460D02*
X16866849Y-10583984D01*
X16866849Y-10583984D02*
X16838277Y-10583984D01*
X16962087Y-10450650D02*
X17038277Y-10450650D01*
X16990658Y-10383984D02*
X16990658Y-10555412D01*
X16990658Y-10555412D02*
X17000182Y-10574460D01*
X17000182Y-10574460D02*
X17019230Y-10583984D01*
X17019230Y-10583984D02*
X17038277Y-10583984D01*
X17257325Y-10450650D02*
X17257325Y-10650650D01*
X17257325Y-10460174D02*
X17276373Y-10450650D01*
X17276373Y-10450650D02*
X17314468Y-10450650D01*
X17314468Y-10450650D02*
X17333515Y-10460174D01*
X17333515Y-10460174D02*
X17343039Y-10469698D01*
X17343039Y-10469698D02*
X17352563Y-10488746D01*
X17352563Y-10488746D02*
X17352563Y-10545889D01*
X17352563Y-10545889D02*
X17343039Y-10564936D01*
X17343039Y-10564936D02*
X17333515Y-10574460D01*
X17333515Y-10574460D02*
X17314468Y-10583984D01*
X17314468Y-10583984D02*
X17276373Y-10583984D01*
X17276373Y-10583984D02*
X17257325Y-10574460D01*
X17466849Y-10583984D02*
X17447801Y-10574460D01*
X17447801Y-10574460D02*
X17438277Y-10555412D01*
X17438277Y-10555412D02*
X17438277Y-10383984D01*
X17628754Y-10583984D02*
X17628754Y-10479222D01*
X17628754Y-10479222D02*
X17619230Y-10460174D01*
X17619230Y-10460174D02*
X17600182Y-10450650D01*
X17600182Y-10450650D02*
X17562087Y-10450650D01*
X17562087Y-10450650D02*
X17543039Y-10460174D01*
X17628754Y-10574460D02*
X17609706Y-10583984D01*
X17609706Y-10583984D02*
X17562087Y-10583984D01*
X17562087Y-10583984D02*
X17543039Y-10574460D01*
X17543039Y-10574460D02*
X17533515Y-10555412D01*
X17533515Y-10555412D02*
X17533515Y-10536365D01*
X17533515Y-10536365D02*
X17543039Y-10517317D01*
X17543039Y-10517317D02*
X17562087Y-10507793D01*
X17562087Y-10507793D02*
X17609706Y-10507793D01*
X17609706Y-10507793D02*
X17628754Y-10498270D01*
X17695420Y-10450650D02*
X17771611Y-10450650D01*
X17723992Y-10383984D02*
X17723992Y-10555412D01*
X17723992Y-10555412D02*
X17733515Y-10574460D01*
X17733515Y-10574460D02*
X17752563Y-10583984D01*
X17752563Y-10583984D02*
X17771611Y-10583984D01*
X17914468Y-10574460D02*
X17895420Y-10583984D01*
X17895420Y-10583984D02*
X17857325Y-10583984D01*
X17857325Y-10583984D02*
X17838277Y-10574460D01*
X17838277Y-10574460D02*
X17828754Y-10555412D01*
X17828754Y-10555412D02*
X17828754Y-10479222D01*
X17828754Y-10479222D02*
X17838277Y-10460174D01*
X17838277Y-10460174D02*
X17857325Y-10450650D01*
X17857325Y-10450650D02*
X17895420Y-10450650D01*
X17895420Y-10450650D02*
X17914468Y-10460174D01*
X17914468Y-10460174D02*
X17923992Y-10479222D01*
X17923992Y-10479222D02*
X17923992Y-10498270D01*
X17923992Y-10498270D02*
X17828754Y-10517317D01*
X18095420Y-10583984D02*
X18095420Y-10383984D01*
X18095420Y-10574460D02*
X18076373Y-10583984D01*
X18076373Y-10583984D02*
X18038277Y-10583984D01*
X18038277Y-10583984D02*
X18019230Y-10574460D01*
X18019230Y-10574460D02*
X18009706Y-10564936D01*
X18009706Y-10564936D02*
X18000182Y-10545889D01*
X18000182Y-10545889D02*
X18000182Y-10488746D01*
X18000182Y-10488746D02*
X18009706Y-10469698D01*
X18009706Y-10469698D02*
X18019230Y-10460174D01*
X18019230Y-10460174D02*
X18038277Y-10450650D01*
X18038277Y-10450650D02*
X18076373Y-10450650D01*
X18076373Y-10450650D02*
X18095420Y-10460174D01*
X18171611Y-10660174D02*
X18181135Y-10650650D01*
X18181135Y-10650650D02*
X18200182Y-10622079D01*
X18200182Y-10622079D02*
X18209706Y-10603031D01*
X18209706Y-10603031D02*
X18219230Y-10574460D01*
X18219230Y-10574460D02*
X18228754Y-10526841D01*
X18228754Y-10526841D02*
X18228754Y-10488746D01*
X18228754Y-10488746D02*
X18219230Y-10441127D01*
X18219230Y-10441127D02*
X18209706Y-10412555D01*
X18209706Y-10412555D02*
X18200182Y-10393508D01*
X18200182Y-10393508D02*
X18181135Y-10364936D01*
X18181135Y-10364936D02*
X18171611Y-10355412D01*
D12*
X11577500Y-10756500D02*
G75*
G03*
X11487500Y-10756500I-45000J0D01*
G01*
X11487500Y-10756500D02*
G75*
G03*
X11577500Y-10756500I45000J0D01*
G01*
D11*
X11876372Y-10647984D02*
X11895420Y-10647984D01*
X11895420Y-10647984D02*
X11914467Y-10657508D01*
X11914467Y-10657508D02*
X11923991Y-10667031D01*
X11923991Y-10667031D02*
X11933515Y-10686079D01*
X11933515Y-10686079D02*
X11943039Y-10724174D01*
X11943039Y-10724174D02*
X11943039Y-10771793D01*
X11943039Y-10771793D02*
X11933515Y-10809889D01*
X11933515Y-10809889D02*
X11923991Y-10828936D01*
X11923991Y-10828936D02*
X11914467Y-10838460D01*
X11914467Y-10838460D02*
X11895420Y-10847984D01*
X11895420Y-10847984D02*
X11876372Y-10847984D01*
X11876372Y-10847984D02*
X11857324Y-10838460D01*
X11857324Y-10838460D02*
X11847801Y-10828936D01*
X11847801Y-10828936D02*
X11838277Y-10809889D01*
X11838277Y-10809889D02*
X11828753Y-10771793D01*
X11828753Y-10771793D02*
X11828753Y-10724174D01*
X11828753Y-10724174D02*
X11838277Y-10686079D01*
X11838277Y-10686079D02*
X11847801Y-10667031D01*
X11847801Y-10667031D02*
X11857324Y-10657508D01*
X11857324Y-10657508D02*
X11876372Y-10647984D01*
X12028753Y-10828936D02*
X12038277Y-10838460D01*
X12038277Y-10838460D02*
X12028753Y-10847984D01*
X12028753Y-10847984D02*
X12019229Y-10838460D01*
X12019229Y-10838460D02*
X12028753Y-10828936D01*
X12028753Y-10828936D02*
X12028753Y-10847984D01*
X12133515Y-10847984D02*
X12171610Y-10847984D01*
X12171610Y-10847984D02*
X12190658Y-10838460D01*
X12190658Y-10838460D02*
X12200182Y-10828936D01*
X12200182Y-10828936D02*
X12219229Y-10800365D01*
X12219229Y-10800365D02*
X12228753Y-10762270D01*
X12228753Y-10762270D02*
X12228753Y-10686079D01*
X12228753Y-10686079D02*
X12219229Y-10667031D01*
X12219229Y-10667031D02*
X12209705Y-10657508D01*
X12209705Y-10657508D02*
X12190658Y-10647984D01*
X12190658Y-10647984D02*
X12152562Y-10647984D01*
X12152562Y-10647984D02*
X12133515Y-10657508D01*
X12133515Y-10657508D02*
X12123991Y-10667031D01*
X12123991Y-10667031D02*
X12114467Y-10686079D01*
X12114467Y-10686079D02*
X12114467Y-10733698D01*
X12114467Y-10733698D02*
X12123991Y-10752746D01*
X12123991Y-10752746D02*
X12133515Y-10762270D01*
X12133515Y-10762270D02*
X12152562Y-10771793D01*
X12152562Y-10771793D02*
X12190658Y-10771793D01*
X12190658Y-10771793D02*
X12209705Y-10762270D01*
X12209705Y-10762270D02*
X12219229Y-10752746D01*
X12219229Y-10752746D02*
X12228753Y-10733698D01*
X12352562Y-10647984D02*
X12371610Y-10647984D01*
X12371610Y-10647984D02*
X12390658Y-10657508D01*
X12390658Y-10657508D02*
X12400182Y-10667031D01*
X12400182Y-10667031D02*
X12409705Y-10686079D01*
X12409705Y-10686079D02*
X12419229Y-10724174D01*
X12419229Y-10724174D02*
X12419229Y-10771793D01*
X12419229Y-10771793D02*
X12409705Y-10809889D01*
X12409705Y-10809889D02*
X12400182Y-10828936D01*
X12400182Y-10828936D02*
X12390658Y-10838460D01*
X12390658Y-10838460D02*
X12371610Y-10847984D01*
X12371610Y-10847984D02*
X12352562Y-10847984D01*
X12352562Y-10847984D02*
X12333515Y-10838460D01*
X12333515Y-10838460D02*
X12323991Y-10828936D01*
X12323991Y-10828936D02*
X12314467Y-10809889D01*
X12314467Y-10809889D02*
X12304943Y-10771793D01*
X12304943Y-10771793D02*
X12304943Y-10724174D01*
X12304943Y-10724174D02*
X12314467Y-10686079D01*
X12314467Y-10686079D02*
X12323991Y-10667031D01*
X12323991Y-10667031D02*
X12333515Y-10657508D01*
X12333515Y-10657508D02*
X12352562Y-10647984D01*
X12543039Y-10647984D02*
X12562086Y-10647984D01*
X12562086Y-10647984D02*
X12581134Y-10657508D01*
X12581134Y-10657508D02*
X12590658Y-10667031D01*
X12590658Y-10667031D02*
X12600182Y-10686079D01*
X12600182Y-10686079D02*
X12609705Y-10724174D01*
X12609705Y-10724174D02*
X12609705Y-10771793D01*
X12609705Y-10771793D02*
X12600182Y-10809889D01*
X12600182Y-10809889D02*
X12590658Y-10828936D01*
X12590658Y-10828936D02*
X12581134Y-10838460D01*
X12581134Y-10838460D02*
X12562086Y-10847984D01*
X12562086Y-10847984D02*
X12543039Y-10847984D01*
X12543039Y-10847984D02*
X12523991Y-10838460D01*
X12523991Y-10838460D02*
X12514467Y-10828936D01*
X12514467Y-10828936D02*
X12504943Y-10809889D01*
X12504943Y-10809889D02*
X12495420Y-10771793D01*
X12495420Y-10771793D02*
X12495420Y-10724174D01*
X12495420Y-10724174D02*
X12504943Y-10686079D01*
X12504943Y-10686079D02*
X12514467Y-10667031D01*
X12514467Y-10667031D02*
X12523991Y-10657508D01*
X12523991Y-10657508D02*
X12543039Y-10647984D01*
X12695420Y-10847984D02*
X12695420Y-10714650D01*
X12695420Y-10733698D02*
X12704943Y-10724174D01*
X12704943Y-10724174D02*
X12723991Y-10714650D01*
X12723991Y-10714650D02*
X12752563Y-10714650D01*
X12752563Y-10714650D02*
X12771610Y-10724174D01*
X12771610Y-10724174D02*
X12781134Y-10743222D01*
X12781134Y-10743222D02*
X12781134Y-10847984D01*
X12781134Y-10743222D02*
X12790658Y-10724174D01*
X12790658Y-10724174D02*
X12809705Y-10714650D01*
X12809705Y-10714650D02*
X12838277Y-10714650D01*
X12838277Y-10714650D02*
X12857324Y-10724174D01*
X12857324Y-10724174D02*
X12866848Y-10743222D01*
X12866848Y-10743222D02*
X12866848Y-10847984D01*
X12962086Y-10847984D02*
X12962086Y-10714650D01*
X12962086Y-10733698D02*
X12971610Y-10724174D01*
X12971610Y-10724174D02*
X12990658Y-10714650D01*
X12990658Y-10714650D02*
X13019229Y-10714650D01*
X13019229Y-10714650D02*
X13038277Y-10724174D01*
X13038277Y-10724174D02*
X13047801Y-10743222D01*
X13047801Y-10743222D02*
X13047801Y-10847984D01*
X13047801Y-10743222D02*
X13057324Y-10724174D01*
X13057324Y-10724174D02*
X13076372Y-10714650D01*
X13076372Y-10714650D02*
X13104943Y-10714650D01*
X13104943Y-10714650D02*
X13123991Y-10724174D01*
X13123991Y-10724174D02*
X13133515Y-10743222D01*
X13133515Y-10743222D02*
X13133515Y-10847984D01*
X13523991Y-10638460D02*
X13352563Y-10895603D01*
X13781134Y-10647984D02*
X13800182Y-10647984D01*
X13800182Y-10647984D02*
X13819229Y-10657508D01*
X13819229Y-10657508D02*
X13828753Y-10667031D01*
X13828753Y-10667031D02*
X13838277Y-10686079D01*
X13838277Y-10686079D02*
X13847801Y-10724174D01*
X13847801Y-10724174D02*
X13847801Y-10771793D01*
X13847801Y-10771793D02*
X13838277Y-10809889D01*
X13838277Y-10809889D02*
X13828753Y-10828936D01*
X13828753Y-10828936D02*
X13819229Y-10838460D01*
X13819229Y-10838460D02*
X13800182Y-10847984D01*
X13800182Y-10847984D02*
X13781134Y-10847984D01*
X13781134Y-10847984D02*
X13762086Y-10838460D01*
X13762086Y-10838460D02*
X13752563Y-10828936D01*
X13752563Y-10828936D02*
X13743039Y-10809889D01*
X13743039Y-10809889D02*
X13733515Y-10771793D01*
X13733515Y-10771793D02*
X13733515Y-10724174D01*
X13733515Y-10724174D02*
X13743039Y-10686079D01*
X13743039Y-10686079D02*
X13752563Y-10667031D01*
X13752563Y-10667031D02*
X13762086Y-10657508D01*
X13762086Y-10657508D02*
X13781134Y-10647984D01*
X13933515Y-10828936D02*
X13943039Y-10838460D01*
X13943039Y-10838460D02*
X13933515Y-10847984D01*
X13933515Y-10847984D02*
X13923991Y-10838460D01*
X13923991Y-10838460D02*
X13933515Y-10828936D01*
X13933515Y-10828936D02*
X13933515Y-10847984D01*
X14066848Y-10647984D02*
X14085896Y-10647984D01*
X14085896Y-10647984D02*
X14104944Y-10657508D01*
X14104944Y-10657508D02*
X14114467Y-10667031D01*
X14114467Y-10667031D02*
X14123991Y-10686079D01*
X14123991Y-10686079D02*
X14133515Y-10724174D01*
X14133515Y-10724174D02*
X14133515Y-10771793D01*
X14133515Y-10771793D02*
X14123991Y-10809889D01*
X14123991Y-10809889D02*
X14114467Y-10828936D01*
X14114467Y-10828936D02*
X14104944Y-10838460D01*
X14104944Y-10838460D02*
X14085896Y-10847984D01*
X14085896Y-10847984D02*
X14066848Y-10847984D01*
X14066848Y-10847984D02*
X14047801Y-10838460D01*
X14047801Y-10838460D02*
X14038277Y-10828936D01*
X14038277Y-10828936D02*
X14028753Y-10809889D01*
X14028753Y-10809889D02*
X14019229Y-10771793D01*
X14019229Y-10771793D02*
X14019229Y-10724174D01*
X14019229Y-10724174D02*
X14028753Y-10686079D01*
X14028753Y-10686079D02*
X14038277Y-10667031D01*
X14038277Y-10667031D02*
X14047801Y-10657508D01*
X14047801Y-10657508D02*
X14066848Y-10647984D01*
X14200182Y-10647984D02*
X14323991Y-10647984D01*
X14323991Y-10647984D02*
X14257325Y-10724174D01*
X14257325Y-10724174D02*
X14285896Y-10724174D01*
X14285896Y-10724174D02*
X14304944Y-10733698D01*
X14304944Y-10733698D02*
X14314467Y-10743222D01*
X14314467Y-10743222D02*
X14323991Y-10762270D01*
X14323991Y-10762270D02*
X14323991Y-10809889D01*
X14323991Y-10809889D02*
X14314467Y-10828936D01*
X14314467Y-10828936D02*
X14304944Y-10838460D01*
X14304944Y-10838460D02*
X14285896Y-10847984D01*
X14285896Y-10847984D02*
X14228753Y-10847984D01*
X14228753Y-10847984D02*
X14209706Y-10838460D01*
X14209706Y-10838460D02*
X14200182Y-10828936D01*
X14504944Y-10647984D02*
X14409706Y-10647984D01*
X14409706Y-10647984D02*
X14400182Y-10743222D01*
X14400182Y-10743222D02*
X14409706Y-10733698D01*
X14409706Y-10733698D02*
X14428753Y-10724174D01*
X14428753Y-10724174D02*
X14476372Y-10724174D01*
X14476372Y-10724174D02*
X14495420Y-10733698D01*
X14495420Y-10733698D02*
X14504944Y-10743222D01*
X14504944Y-10743222D02*
X14514467Y-10762270D01*
X14514467Y-10762270D02*
X14514467Y-10809889D01*
X14514467Y-10809889D02*
X14504944Y-10828936D01*
X14504944Y-10828936D02*
X14495420Y-10838460D01*
X14495420Y-10838460D02*
X14476372Y-10847984D01*
X14476372Y-10847984D02*
X14428753Y-10847984D01*
X14428753Y-10847984D02*
X14409706Y-10838460D01*
X14409706Y-10838460D02*
X14400182Y-10828936D01*
X14685896Y-10714650D02*
X14685896Y-10847984D01*
X14638277Y-10638460D02*
X14590658Y-10781317D01*
X14590658Y-10781317D02*
X14714467Y-10781317D01*
X14781134Y-10647984D02*
X14781134Y-10686079D01*
X14857325Y-10647984D02*
X14857325Y-10686079D01*
X15152563Y-10924174D02*
X15143039Y-10914650D01*
X15143039Y-10914650D02*
X15123991Y-10886079D01*
X15123991Y-10886079D02*
X15114468Y-10867031D01*
X15114468Y-10867031D02*
X15104944Y-10838460D01*
X15104944Y-10838460D02*
X15095420Y-10790841D01*
X15095420Y-10790841D02*
X15095420Y-10752746D01*
X15095420Y-10752746D02*
X15104944Y-10705127D01*
X15104944Y-10705127D02*
X15114468Y-10676555D01*
X15114468Y-10676555D02*
X15123991Y-10657508D01*
X15123991Y-10657508D02*
X15143039Y-10628936D01*
X15143039Y-10628936D02*
X15152563Y-10619412D01*
X15333515Y-10847984D02*
X15219229Y-10847984D01*
X15276372Y-10847984D02*
X15276372Y-10647984D01*
X15276372Y-10647984D02*
X15257325Y-10676555D01*
X15257325Y-10676555D02*
X15238277Y-10695603D01*
X15238277Y-10695603D02*
X15219229Y-10705127D01*
X15571610Y-10847984D02*
X15571610Y-10647984D01*
X15657325Y-10847984D02*
X15657325Y-10743222D01*
X15657325Y-10743222D02*
X15647801Y-10724174D01*
X15647801Y-10724174D02*
X15628753Y-10714650D01*
X15628753Y-10714650D02*
X15600182Y-10714650D01*
X15600182Y-10714650D02*
X15581134Y-10724174D01*
X15581134Y-10724174D02*
X15571610Y-10733698D01*
X15781134Y-10847984D02*
X15762087Y-10838460D01*
X15762087Y-10838460D02*
X15752563Y-10828936D01*
X15752563Y-10828936D02*
X15743039Y-10809889D01*
X15743039Y-10809889D02*
X15743039Y-10752746D01*
X15743039Y-10752746D02*
X15752563Y-10733698D01*
X15752563Y-10733698D02*
X15762087Y-10724174D01*
X15762087Y-10724174D02*
X15781134Y-10714650D01*
X15781134Y-10714650D02*
X15809706Y-10714650D01*
X15809706Y-10714650D02*
X15828753Y-10724174D01*
X15828753Y-10724174D02*
X15838277Y-10733698D01*
X15838277Y-10733698D02*
X15847801Y-10752746D01*
X15847801Y-10752746D02*
X15847801Y-10809889D01*
X15847801Y-10809889D02*
X15838277Y-10828936D01*
X15838277Y-10828936D02*
X15828753Y-10838460D01*
X15828753Y-10838460D02*
X15809706Y-10847984D01*
X15809706Y-10847984D02*
X15781134Y-10847984D01*
X15962087Y-10847984D02*
X15943039Y-10838460D01*
X15943039Y-10838460D02*
X15933515Y-10819412D01*
X15933515Y-10819412D02*
X15933515Y-10647984D01*
X16114468Y-10838460D02*
X16095420Y-10847984D01*
X16095420Y-10847984D02*
X16057325Y-10847984D01*
X16057325Y-10847984D02*
X16038277Y-10838460D01*
X16038277Y-10838460D02*
X16028753Y-10819412D01*
X16028753Y-10819412D02*
X16028753Y-10743222D01*
X16028753Y-10743222D02*
X16038277Y-10724174D01*
X16038277Y-10724174D02*
X16057325Y-10714650D01*
X16057325Y-10714650D02*
X16095420Y-10714650D01*
X16095420Y-10714650D02*
X16114468Y-10724174D01*
X16114468Y-10724174D02*
X16123991Y-10743222D01*
X16123991Y-10743222D02*
X16123991Y-10762270D01*
X16123991Y-10762270D02*
X16028753Y-10781317D01*
X16190658Y-10924174D02*
X16200182Y-10914650D01*
X16200182Y-10914650D02*
X16219230Y-10886079D01*
X16219230Y-10886079D02*
X16228753Y-10867031D01*
X16228753Y-10867031D02*
X16238277Y-10838460D01*
X16238277Y-10838460D02*
X16247801Y-10790841D01*
X16247801Y-10790841D02*
X16247801Y-10752746D01*
X16247801Y-10752746D02*
X16238277Y-10705127D01*
X16238277Y-10705127D02*
X16228753Y-10676555D01*
X16228753Y-10676555D02*
X16219230Y-10657508D01*
X16219230Y-10657508D02*
X16200182Y-10628936D01*
X16200182Y-10628936D02*
X16190658Y-10619412D01*
X16552563Y-10924174D02*
X16543039Y-10914650D01*
X16543039Y-10914650D02*
X16523991Y-10886079D01*
X16523991Y-10886079D02*
X16514468Y-10867031D01*
X16514468Y-10867031D02*
X16504944Y-10838460D01*
X16504944Y-10838460D02*
X16495420Y-10790841D01*
X16495420Y-10790841D02*
X16495420Y-10752746D01*
X16495420Y-10752746D02*
X16504944Y-10705127D01*
X16504944Y-10705127D02*
X16514468Y-10676555D01*
X16514468Y-10676555D02*
X16523991Y-10657508D01*
X16523991Y-10657508D02*
X16543039Y-10628936D01*
X16543039Y-10628936D02*
X16552563Y-10619412D01*
X16628753Y-10714650D02*
X16628753Y-10847984D01*
X16628753Y-10733698D02*
X16638277Y-10724174D01*
X16638277Y-10724174D02*
X16657325Y-10714650D01*
X16657325Y-10714650D02*
X16685896Y-10714650D01*
X16685896Y-10714650D02*
X16704944Y-10724174D01*
X16704944Y-10724174D02*
X16714468Y-10743222D01*
X16714468Y-10743222D02*
X16714468Y-10847984D01*
X16838277Y-10847984D02*
X16819230Y-10838460D01*
X16819230Y-10838460D02*
X16809706Y-10828936D01*
X16809706Y-10828936D02*
X16800182Y-10809889D01*
X16800182Y-10809889D02*
X16800182Y-10752746D01*
X16800182Y-10752746D02*
X16809706Y-10733698D01*
X16809706Y-10733698D02*
X16819230Y-10724174D01*
X16819230Y-10724174D02*
X16838277Y-10714650D01*
X16838277Y-10714650D02*
X16866849Y-10714650D01*
X16866849Y-10714650D02*
X16885896Y-10724174D01*
X16885896Y-10724174D02*
X16895420Y-10733698D01*
X16895420Y-10733698D02*
X16904944Y-10752746D01*
X16904944Y-10752746D02*
X16904944Y-10809889D01*
X16904944Y-10809889D02*
X16895420Y-10828936D01*
X16895420Y-10828936D02*
X16885896Y-10838460D01*
X16885896Y-10838460D02*
X16866849Y-10847984D01*
X16866849Y-10847984D02*
X16838277Y-10847984D01*
X16962087Y-10714650D02*
X17038277Y-10714650D01*
X16990658Y-10647984D02*
X16990658Y-10819412D01*
X16990658Y-10819412D02*
X17000182Y-10838460D01*
X17000182Y-10838460D02*
X17019230Y-10847984D01*
X17019230Y-10847984D02*
X17038277Y-10847984D01*
X17257325Y-10714650D02*
X17257325Y-10914650D01*
X17257325Y-10724174D02*
X17276373Y-10714650D01*
X17276373Y-10714650D02*
X17314468Y-10714650D01*
X17314468Y-10714650D02*
X17333515Y-10724174D01*
X17333515Y-10724174D02*
X17343039Y-10733698D01*
X17343039Y-10733698D02*
X17352563Y-10752746D01*
X17352563Y-10752746D02*
X17352563Y-10809889D01*
X17352563Y-10809889D02*
X17343039Y-10828936D01*
X17343039Y-10828936D02*
X17333515Y-10838460D01*
X17333515Y-10838460D02*
X17314468Y-10847984D01*
X17314468Y-10847984D02*
X17276373Y-10847984D01*
X17276373Y-10847984D02*
X17257325Y-10838460D01*
X17466849Y-10847984D02*
X17447801Y-10838460D01*
X17447801Y-10838460D02*
X17438277Y-10819412D01*
X17438277Y-10819412D02*
X17438277Y-10647984D01*
X17628754Y-10847984D02*
X17628754Y-10743222D01*
X17628754Y-10743222D02*
X17619230Y-10724174D01*
X17619230Y-10724174D02*
X17600182Y-10714650D01*
X17600182Y-10714650D02*
X17562087Y-10714650D01*
X17562087Y-10714650D02*
X17543039Y-10724174D01*
X17628754Y-10838460D02*
X17609706Y-10847984D01*
X17609706Y-10847984D02*
X17562087Y-10847984D01*
X17562087Y-10847984D02*
X17543039Y-10838460D01*
X17543039Y-10838460D02*
X17533515Y-10819412D01*
X17533515Y-10819412D02*
X17533515Y-10800365D01*
X17533515Y-10800365D02*
X17543039Y-10781317D01*
X17543039Y-10781317D02*
X17562087Y-10771793D01*
X17562087Y-10771793D02*
X17609706Y-10771793D01*
X17609706Y-10771793D02*
X17628754Y-10762270D01*
X17695420Y-10714650D02*
X17771611Y-10714650D01*
X17723992Y-10647984D02*
X17723992Y-10819412D01*
X17723992Y-10819412D02*
X17733515Y-10838460D01*
X17733515Y-10838460D02*
X17752563Y-10847984D01*
X17752563Y-10847984D02*
X17771611Y-10847984D01*
X17914468Y-10838460D02*
X17895420Y-10847984D01*
X17895420Y-10847984D02*
X17857325Y-10847984D01*
X17857325Y-10847984D02*
X17838277Y-10838460D01*
X17838277Y-10838460D02*
X17828754Y-10819412D01*
X17828754Y-10819412D02*
X17828754Y-10743222D01*
X17828754Y-10743222D02*
X17838277Y-10724174D01*
X17838277Y-10724174D02*
X17857325Y-10714650D01*
X17857325Y-10714650D02*
X17895420Y-10714650D01*
X17895420Y-10714650D02*
X17914468Y-10724174D01*
X17914468Y-10724174D02*
X17923992Y-10743222D01*
X17923992Y-10743222D02*
X17923992Y-10762270D01*
X17923992Y-10762270D02*
X17828754Y-10781317D01*
X18095420Y-10847984D02*
X18095420Y-10647984D01*
X18095420Y-10838460D02*
X18076373Y-10847984D01*
X18076373Y-10847984D02*
X18038277Y-10847984D01*
X18038277Y-10847984D02*
X18019230Y-10838460D01*
X18019230Y-10838460D02*
X18009706Y-10828936D01*
X18009706Y-10828936D02*
X18000182Y-10809889D01*
X18000182Y-10809889D02*
X18000182Y-10752746D01*
X18000182Y-10752746D02*
X18009706Y-10733698D01*
X18009706Y-10733698D02*
X18019230Y-10724174D01*
X18019230Y-10724174D02*
X18038277Y-10714650D01*
X18038277Y-10714650D02*
X18076373Y-10714650D01*
X18076373Y-10714650D02*
X18095420Y-10724174D01*
X18171611Y-10924174D02*
X18181135Y-10914650D01*
X18181135Y-10914650D02*
X18200182Y-10886079D01*
X18200182Y-10886079D02*
X18209706Y-10867031D01*
X18209706Y-10867031D02*
X18219230Y-10838460D01*
X18219230Y-10838460D02*
X18228754Y-10790841D01*
X18228754Y-10790841D02*
X18228754Y-10752746D01*
X18228754Y-10752746D02*
X18219230Y-10705127D01*
X18219230Y-10705127D02*
X18209706Y-10676555D01*
X18209706Y-10676555D02*
X18200182Y-10657508D01*
X18200182Y-10657508D02*
X18181135Y-10628936D01*
X18181135Y-10628936D02*
X18171611Y-10619412D01*
M02*
