%TF.GenerationSoftware,KiCad,Pcbnew,7.0.11-rc3*%
%TF.CreationDate,2025-12-05T15:52:12+08:00*%
%TF.ProjectId,vtap_test_led,76746170-5f74-4657-9374-5f6c65642e6b,rev?*%
%TF.SameCoordinates,Original*%
%TF.FileFunction,Copper,L1,Top*%
%TF.FilePolarity,Positive*%
%FSLAX46Y46*%
G04 Gerber Fmt 4.6, Leading zero omitted, Abs format (unit mm)*
G04 Created by KiCad (PCBNEW 7.0.11-rc3) date 2025-12-05 15:52:12*
%MOMM*%
%LPD*%
G01*
G04 APERTURE LIST*
G04 Aperture macros list*
%AMRoundRect*
0 Rectangle with rounded corners*
0 $1 Rounding radius*
0 $2 $3 $4 $5 $6 $7 $8 $9 X,Y pos of 4 corners*
0 Add a 4 corners polygon primitive as box body*
4,1,4,$2,$3,$4,$5,$6,$7,$8,$9,$2,$3,0*
0 Add four circle primitives for the rounded corners*
1,1,$1+$1,$2,$3*
1,1,$1+$1,$4,$5*
1,1,$1+$1,$6,$7*
1,1,$1+$1,$8,$9*
0 Add four rect primitives between the rounded corners*
20,1,$1+$1,$2,$3,$4,$5,0*
20,1,$1+$1,$4,$5,$6,$7,0*
20,1,$1+$1,$6,$7,$8,$9,0*
20,1,$1+$1,$8,$9,$2,$3,0*%
G04 Aperture macros list end*
%TA.AperFunction,SMDPad,CuDef*%
%ADD10C,1.000000*%
%TD*%
%TA.AperFunction,SMDPad,CuDef*%
%ADD11RoundRect,0.250000X0.625000X-0.400000X0.625000X0.400000X-0.625000X0.400000X-0.625000X-0.400000X0*%
%TD*%
%TA.AperFunction,SMDPad,CuDef*%
%ADD12RoundRect,0.304348X0.395652X-0.420652X0.395652X0.420652X-0.395652X0.420652X-0.395652X-0.420652X0*%
%TD*%
%TA.AperFunction,ComponentPad*%
%ADD13RoundRect,0.250000X0.600000X0.725000X-0.600000X0.725000X-0.600000X-0.725000X0.600000X-0.725000X0*%
%TD*%
%TA.AperFunction,ComponentPad*%
%ADD14O,1.700000X1.950000*%
%TD*%
%TA.AperFunction,SMDPad,CuDef*%
%ADD15RoundRect,0.278125X-0.389375X0.474375X-0.389375X-0.474375X0.389375X-0.474375X0.389375X0.474375X0*%
%TD*%
%TA.AperFunction,SMDPad,CuDef*%
%ADD16R,1.000000X1.000000*%
%TD*%
%TA.AperFunction,ViaPad*%
%ADD17C,0.600000*%
%TD*%
%TA.AperFunction,Conductor*%
%ADD18C,0.200000*%
%TD*%
G04 APERTURE END LIST*
D10*
%TO.P,TP20,1,1*%
%TO.N,Net-(J1-Pin_10)*%
X120500000Y-93400000D03*
%TD*%
%TO.P,TP19,1,1*%
%TO.N,Net-(J1-Pin_9)*%
X123550000Y-93400000D03*
%TD*%
%TO.P,TP18,1,1*%
%TO.N,Net-(J1-Pin_20)*%
X126600000Y-93400000D03*
%TD*%
%TO.P,TP17,1,1*%
%TO.N,Net-(J1-Pin_19)*%
X129650000Y-93400000D03*
%TD*%
%TO.P,TP16,1,1*%
%TO.N,Net-(J1-Pin_18)*%
X132700000Y-93400000D03*
%TD*%
D11*
%TO.P,R20,1*%
%TO.N,CELL_9*%
X149057139Y-61550000D03*
%TO.P,R20,2*%
%TO.N,Net-(J2-Pin_6)*%
X149057139Y-58450000D03*
%TD*%
D10*
%TO.P,TP4,1,1*%
%TO.N,CELL_11*%
X153081048Y-68300000D03*
%TD*%
D12*
%TO.P,D6,1,K*%
%TO.N,Net-(D6-K)*%
X147019510Y-76700000D03*
%TO.P,D6,2,A*%
%TO.N,CELL_9*%
X147019510Y-74350000D03*
%TD*%
D10*
%TO.P,TP3,1,1*%
%TO.N,CELL_12*%
X156111817Y-68300000D03*
%TD*%
D11*
%TO.P,R26,1*%
%TO.N,CELL_3*%
X129085713Y-61550000D03*
%TO.P,R26,2*%
%TO.N,Net-(J2-Pin_12)*%
X129085713Y-58450000D03*
%TD*%
D10*
%TO.P,TP7,1,1*%
%TO.N,CELL_8*%
X143988741Y-68300000D03*
%TD*%
D13*
%TO.P,J2,1,Pin_1*%
%TO.N,Net-(J2-Pin_1)*%
X159973358Y-53525000D03*
D14*
%TO.P,J2,2,Pin_2*%
%TO.N,Net-(J2-Pin_2)*%
X157473358Y-53525000D03*
%TO.P,J2,3,Pin_3*%
%TO.N,Net-(J2-Pin_3)*%
X154973358Y-53525000D03*
%TO.P,J2,4,Pin_4*%
%TO.N,Net-(J2-Pin_4)*%
X152473358Y-53525000D03*
%TO.P,J2,5,Pin_5*%
%TO.N,Net-(J2-Pin_5)*%
X149973358Y-53525000D03*
%TO.P,J2,6,Pin_6*%
%TO.N,Net-(J2-Pin_6)*%
X147473358Y-53525000D03*
%TO.P,J2,7,Pin_7*%
%TO.N,Net-(J2-Pin_7)*%
X144973358Y-53525000D03*
%TO.P,J2,8,Pin_8*%
%TO.N,Net-(J2-Pin_8)*%
X142473358Y-53525000D03*
%TO.P,J2,9,Pin_9*%
%TO.N,Net-(J2-Pin_9)*%
X139973358Y-53525000D03*
%TO.P,J2,10,Pin_10*%
%TO.N,Net-(J2-Pin_10)*%
X137473358Y-53525000D03*
%TO.P,J2,11,Pin_11*%
%TO.N,Net-(J2-Pin_11)*%
X134973358Y-53525000D03*
%TO.P,J2,12,Pin_12*%
%TO.N,Net-(J2-Pin_12)*%
X132473358Y-53525000D03*
%TO.P,J2,13,Pin_13*%
%TO.N,Net-(J2-Pin_13)*%
X129973358Y-53525000D03*
%TO.P,J2,14,Pin_14*%
%TO.N,Net-(J2-Pin_14)*%
X127473358Y-53525000D03*
%TO.P,J2,15,Pin_15*%
%TO.N,Net-(J2-Pin_15)*%
X124973358Y-53525000D03*
%TD*%
D11*
%TO.P,R15,1*%
%TO.N,CELL_14*%
X165600000Y-61550000D03*
%TO.P,R15,2*%
%TO.N,Net-(J2-Pin_1)*%
X165600000Y-58450000D03*
%TD*%
D15*
%TO.P,R4,1*%
%TO.N,Net-(D4-K)*%
X153114600Y-79747500D03*
%TO.P,R4,2*%
%TO.N,CELL_10*%
X153114600Y-82052500D03*
%TD*%
D12*
%TO.P,D14,1,K*%
%TO.N,Net-(D14-K)*%
X122773358Y-76700000D03*
%TO.P,D14,2,A*%
%TO.N,CELL_1*%
X122773358Y-74350000D03*
%TD*%
D15*
%TO.P,R5,1*%
%TO.N,Net-(D5-K)*%
X150083831Y-79747500D03*
%TO.P,R5,2*%
%TO.N,CELL_9*%
X150083831Y-82052500D03*
%TD*%
%TO.P,R10,1*%
%TO.N,Net-(D10-K)*%
X134929986Y-79747500D03*
%TO.P,R10,2*%
%TO.N,CELL_4*%
X134929986Y-82052500D03*
%TD*%
D10*
%TO.P,TP14,1,1*%
%TO.N,CELL_1*%
X122773358Y-68300000D03*
%TD*%
D15*
%TO.P,R6,1*%
%TO.N,Net-(D6-K)*%
X147053062Y-79747500D03*
%TO.P,R6,2*%
%TO.N,CELL_8*%
X147053062Y-82052500D03*
%TD*%
D12*
%TO.P,D13,1,K*%
%TO.N,Net-(D13-K)*%
X125804127Y-76700000D03*
%TO.P,D13,2,A*%
%TO.N,CELL_2*%
X125804127Y-74350000D03*
%TD*%
D10*
%TO.P,TP6,1,1*%
%TO.N,CELL_9*%
X147019510Y-68300000D03*
%TD*%
D15*
%TO.P,R7,1*%
%TO.N,Net-(D7-K)*%
X144022293Y-79747500D03*
%TO.P,R7,2*%
%TO.N,CELL_7*%
X144022293Y-82052500D03*
%TD*%
D12*
%TO.P,D8,1,K*%
%TO.N,Net-(D8-K)*%
X140957972Y-76700000D03*
%TO.P,D8,2,A*%
%TO.N,CELL_7*%
X140957972Y-74350000D03*
%TD*%
D10*
%TO.P,TP8,1,1*%
%TO.N,CELL_7*%
X140957972Y-68300000D03*
%TD*%
%TO.P,TP5,1,1*%
%TO.N,CELL_10*%
X150050279Y-68300000D03*
%TD*%
D12*
%TO.P,D9,1,K*%
%TO.N,Net-(D9-K)*%
X137927203Y-76700000D03*
%TO.P,D9,2,A*%
%TO.N,CELL_6*%
X137927203Y-74350000D03*
%TD*%
D15*
%TO.P,R13,1*%
%TO.N,Net-(D13-K)*%
X125837679Y-79747500D03*
%TO.P,R13,2*%
%TO.N,CELL_1*%
X125837679Y-82052500D03*
%TD*%
D12*
%TO.P,D10,1,K*%
%TO.N,Net-(D10-K)*%
X134896434Y-76700000D03*
%TO.P,D10,2,A*%
%TO.N,CELL_5*%
X134896434Y-74350000D03*
%TD*%
%TO.P,D11,1,K*%
%TO.N,Net-(D11-K)*%
X131865665Y-76700000D03*
%TO.P,D11,2,A*%
%TO.N,CELL_4*%
X131865665Y-74350000D03*
%TD*%
D10*
%TO.P,TP13,1,1*%
%TO.N,CELL_2*%
X125804127Y-68300000D03*
%TD*%
%TO.P,TP11,1,1*%
%TO.N,CELL_4*%
X131865665Y-68300000D03*
%TD*%
D12*
%TO.P,D3,1,K*%
%TO.N,Net-(D3-K)*%
X156111817Y-76700000D03*
%TO.P,D3,2,A*%
%TO.N,CELL_12*%
X156111817Y-74350000D03*
%TD*%
%TO.P,D2,1,K*%
%TO.N,Net-(D2-K)*%
X159142586Y-76700000D03*
%TO.P,D2,2,A*%
%TO.N,CELL_13*%
X159142586Y-74350000D03*
%TD*%
D15*
%TO.P,R12,1*%
%TO.N,Net-(D12-K)*%
X128868448Y-79747500D03*
%TO.P,R12,2*%
%TO.N,CELL_2*%
X128868448Y-82052500D03*
%TD*%
D12*
%TO.P,D7,1,K*%
%TO.N,Net-(D7-K)*%
X143988741Y-76700000D03*
%TO.P,D7,2,A*%
%TO.N,CELL_8*%
X143988741Y-74350000D03*
%TD*%
%TO.P,D4,1,K*%
%TO.N,Net-(D4-K)*%
X153081048Y-76700000D03*
%TO.P,D4,2,A*%
%TO.N,CELL_11*%
X153081048Y-74350000D03*
%TD*%
D15*
%TO.P,R1,1*%
%TO.N,Net-(D1-K)*%
X162206910Y-79747500D03*
%TO.P,R1,2*%
%TO.N,CELL_13*%
X162206910Y-82052500D03*
%TD*%
D11*
%TO.P,R16,1*%
%TO.N,CELL_13*%
X162371423Y-61550000D03*
%TO.P,R16,2*%
%TO.N,Net-(J2-Pin_2)*%
X162371423Y-58450000D03*
%TD*%
D10*
%TO.P,TP10,1,1*%
%TO.N,CELL_5*%
X134896434Y-68300000D03*
%TD*%
D15*
%TO.P,R2,1*%
%TO.N,Net-(D2-K)*%
X159176138Y-79747500D03*
%TO.P,R2,2*%
%TO.N,CELL_12*%
X159176138Y-82052500D03*
%TD*%
%TO.P,R11,1*%
%TO.N,Net-(D11-K)*%
X131899217Y-79747500D03*
%TO.P,R11,2*%
%TO.N,CELL_3*%
X131899217Y-82052500D03*
%TD*%
D11*
%TO.P,R27,1*%
%TO.N,CELL_2*%
X125757142Y-61550000D03*
%TO.P,R27,2*%
%TO.N,Net-(J2-Pin_13)*%
X125757142Y-58450000D03*
%TD*%
%TO.P,R19,1*%
%TO.N,CELL_10*%
X152385710Y-61550000D03*
%TO.P,R19,2*%
%TO.N,Net-(J2-Pin_5)*%
X152385710Y-58450000D03*
%TD*%
D15*
%TO.P,R8,1*%
%TO.N,Net-(D8-K)*%
X140991524Y-79747500D03*
%TO.P,R8,2*%
%TO.N,CELL_6*%
X140991524Y-82052500D03*
%TD*%
D10*
%TO.P,TP2,1,1*%
%TO.N,CELL_13*%
X159142586Y-68300000D03*
%TD*%
D11*
%TO.P,R28,1*%
%TO.N,CELL_1*%
X122428571Y-61550000D03*
%TO.P,R28,2*%
%TO.N,Net-(J2-Pin_14)*%
X122428571Y-58450000D03*
%TD*%
D15*
%TO.P,R14,1*%
%TO.N,Net-(D14-K)*%
X122806910Y-79747500D03*
%TO.P,R14,2*%
%TO.N,CELL_0*%
X122806910Y-82052500D03*
%TD*%
D11*
%TO.P,R23,1*%
%TO.N,CELL_6*%
X139071426Y-61550000D03*
%TO.P,R23,2*%
%TO.N,Net-(J2-Pin_9)*%
X139071426Y-58450000D03*
%TD*%
%TO.P,R17,1*%
%TO.N,CELL_12*%
X159042852Y-61550000D03*
%TO.P,R17,2*%
%TO.N,Net-(J2-Pin_3)*%
X159042852Y-58450000D03*
%TD*%
%TO.P,R18,1*%
%TO.N,CELL_11*%
X155714281Y-61550000D03*
%TO.P,R18,2*%
%TO.N,Net-(J2-Pin_4)*%
X155714281Y-58450000D03*
%TD*%
D15*
%TO.P,R9,1*%
%TO.N,Net-(D9-K)*%
X137960755Y-79747500D03*
%TO.P,R9,2*%
%TO.N,CELL_5*%
X137960755Y-82052500D03*
%TD*%
D12*
%TO.P,D12,1,K*%
%TO.N,Net-(D12-K)*%
X128834896Y-76700000D03*
%TO.P,D12,2,A*%
%TO.N,CELL_3*%
X128834896Y-74350000D03*
%TD*%
D11*
%TO.P,R29,1*%
%TO.N,CELL_0*%
X119100000Y-61550000D03*
%TO.P,R29,2*%
%TO.N,Net-(J2-Pin_15)*%
X119100000Y-58450000D03*
%TD*%
D10*
%TO.P,TP1,1,1*%
%TO.N,CELL_14*%
X162173358Y-68300000D03*
%TD*%
D11*
%TO.P,R21,1*%
%TO.N,CELL_8*%
X145728568Y-61550000D03*
%TO.P,R21,2*%
%TO.N,Net-(J2-Pin_7)*%
X145728568Y-58450000D03*
%TD*%
%TO.P,R22,1*%
%TO.N,CELL_7*%
X142399997Y-61550000D03*
%TO.P,R22,2*%
%TO.N,Net-(J2-Pin_8)*%
X142399997Y-58450000D03*
%TD*%
%TO.P,R24,1*%
%TO.N,CELL_5*%
X135742855Y-61550000D03*
%TO.P,R24,2*%
%TO.N,Net-(J2-Pin_10)*%
X135742855Y-58450000D03*
%TD*%
D15*
%TO.P,R3,1*%
%TO.N,Net-(D3-K)*%
X156145369Y-79747500D03*
%TO.P,R3,2*%
%TO.N,CELL_11*%
X156145369Y-82052500D03*
%TD*%
D10*
%TO.P,TP9,1,1*%
%TO.N,CELL_6*%
X137927203Y-68300000D03*
%TD*%
D12*
%TO.P,D1,1,K*%
%TO.N,Net-(D1-K)*%
X162173358Y-76700000D03*
%TO.P,D1,2,A*%
%TO.N,CELL_14*%
X162173358Y-74350000D03*
%TD*%
%TO.P,D5,1,K*%
%TO.N,Net-(D5-K)*%
X150050279Y-76700000D03*
%TO.P,D5,2,A*%
%TO.N,CELL_10*%
X150050279Y-74350000D03*
%TD*%
D11*
%TO.P,R25,1*%
%TO.N,CELL_4*%
X132414284Y-61550000D03*
%TO.P,R25,2*%
%TO.N,Net-(J2-Pin_11)*%
X132414284Y-58450000D03*
%TD*%
D10*
%TO.P,TP12,1,1*%
%TO.N,CELL_3*%
X128834896Y-68300000D03*
%TD*%
D16*
%TO.P,TP15,1,1*%
%TO.N,CELL_0*%
X119700000Y-68300000D03*
%TD*%
D17*
%TO.N,Net-(J1-Pin_10)*%
X120500000Y-93400000D03*
%TO.N,Net-(J1-Pin_9)*%
X123550000Y-93400000D03*
%TO.N,Net-(J1-Pin_18)*%
X132700000Y-94900000D03*
%TO.N,Net-(J1-Pin_19)*%
X134200000Y-93024263D03*
%TO.N,Net-(J1-Pin_20)*%
X135100000Y-93000000D03*
%TO.N,CELL_14*%
X162173358Y-74350000D03*
%TO.N,CELL_13*%
X145699632Y-96124552D03*
%TO.N,CELL_12*%
X156111817Y-74350000D03*
%TO.N,CELL_11*%
X144900006Y-96100000D03*
%TO.N,CELL_10*%
X150050279Y-74350000D03*
%TO.N,CELL_9*%
X144100003Y-96100000D03*
%TO.N,CELL_8*%
X143988741Y-74350000D03*
%TO.N,CELL_7*%
X143300000Y-96100000D03*
%TO.N,CELL_6*%
X137927203Y-74350000D03*
%TO.N,CELL_5*%
X142500000Y-96100000D03*
%TO.N,CELL_4*%
X131865665Y-74350000D03*
%TO.N,CELL_3*%
X141600000Y-96100000D03*
%TO.N,CELL_2*%
X125804127Y-74350000D03*
%TO.N,CELL_1*%
X140799997Y-96100000D03*
%TO.N,CELL_0*%
X122806910Y-82052500D03*
%TD*%
D18*
%TO.N,Net-(J1-Pin_18)*%
X132700000Y-94900000D02*
X132700000Y-93400000D01*
%TO.N,Net-(J1-Pin_19)*%
X133600000Y-92100000D02*
X130100000Y-92100000D01*
X130100000Y-92100000D02*
X129650000Y-92550000D01*
X134200000Y-92700000D02*
X133600000Y-92100000D01*
X129650000Y-92550000D02*
X129650000Y-93400000D01*
X134200000Y-93024263D02*
X134200000Y-92700000D01*
%TO.N,Net-(J1-Pin_20)*%
X126600000Y-92200000D02*
X126600000Y-93400000D01*
X127100000Y-91700000D02*
X126600000Y-92200000D01*
X135100000Y-92750000D02*
X134050000Y-91700000D01*
X135100000Y-93000000D02*
X135100000Y-92750000D01*
X134050000Y-91700000D02*
X127100000Y-91700000D01*
%TO.N,Net-(D1-K)*%
X162206910Y-79747500D02*
X162206910Y-76733552D01*
X162206910Y-76733552D02*
X162173358Y-76700000D01*
%TO.N,CELL_14*%
X165600000Y-64873358D02*
X162173358Y-68300000D01*
X162173358Y-74350000D02*
X162173358Y-68300000D01*
X165600000Y-61550000D02*
X165600000Y-64873358D01*
%TO.N,Net-(D2-K)*%
X159176138Y-76733552D02*
X159142586Y-76700000D01*
X159176138Y-79747500D02*
X159176138Y-76733552D01*
%TO.N,CELL_13*%
X160750000Y-75957414D02*
X159142586Y-74350000D01*
X145650000Y-89600000D02*
X148650000Y-86600000D01*
X159142586Y-74350000D02*
X159142586Y-67500000D01*
X159500000Y-86600000D02*
X162206910Y-83893090D01*
X162371423Y-65071163D02*
X159142586Y-68300000D01*
X160750000Y-81550000D02*
X160750000Y-75957414D01*
X161252500Y-82052500D02*
X160750000Y-81550000D01*
X145650000Y-96074920D02*
X145650000Y-89600000D01*
X148650000Y-86600000D02*
X159500000Y-86600000D01*
X162206910Y-82052500D02*
X161252500Y-82052500D01*
X162371423Y-61550000D02*
X162371423Y-65071163D01*
X162206910Y-83893090D02*
X162206910Y-82052500D01*
X159142586Y-68300000D02*
X159142586Y-67500000D01*
X145699632Y-96124552D02*
X145650000Y-96074920D01*
%TO.N,Net-(D3-K)*%
X156145369Y-76733552D02*
X156111817Y-76700000D01*
X156145369Y-79747500D02*
X156145369Y-76733552D01*
%TO.N,CELL_12*%
X159042852Y-65368965D02*
X156111817Y-68300000D01*
X159042852Y-61550000D02*
X159042852Y-65368965D01*
X158252500Y-82052500D02*
X157750000Y-81550000D01*
X157750000Y-81550000D02*
X157750000Y-74900000D01*
X156111817Y-74350000D02*
X156111817Y-68300000D01*
X157750000Y-74900000D02*
X157200000Y-74350000D01*
X159176138Y-82052500D02*
X158252500Y-82052500D01*
X157200000Y-74350000D02*
X156111817Y-74350000D01*
%TO.N,Net-(D4-K)*%
X153114600Y-76733552D02*
X153081048Y-76700000D01*
X153114600Y-79747500D02*
X153114600Y-76733552D01*
%TO.N,CELL_11*%
X153081048Y-74350000D02*
X153081048Y-68300000D01*
X155052500Y-82052500D02*
X154550000Y-81550000D01*
X154550000Y-74550000D02*
X154350000Y-74350000D01*
X156145369Y-82052500D02*
X155052500Y-82052500D01*
X149000000Y-85500000D02*
X153700000Y-85500000D01*
X144900006Y-96051474D02*
X144500000Y-95651468D01*
X144500000Y-90000000D02*
X149000000Y-85500000D01*
X154350000Y-74350000D02*
X153081048Y-74350000D01*
X154550000Y-81550000D02*
X154550000Y-74550000D01*
X155714281Y-61550000D02*
X155714281Y-65666767D01*
X153700000Y-85500000D02*
X156145369Y-83054631D01*
X156145369Y-83054631D02*
X156145369Y-82052500D01*
X155714281Y-65666767D02*
X153081048Y-68300000D01*
X144900006Y-96100000D02*
X144900006Y-96051474D01*
X144500000Y-95651468D02*
X144500000Y-90000000D01*
%TO.N,Net-(D5-K)*%
X150083831Y-79747500D02*
X150083831Y-76733552D01*
X150083831Y-76733552D02*
X150050279Y-76700000D01*
%TO.N,CELL_10*%
X152385710Y-61550000D02*
X152385710Y-65964569D01*
X151550000Y-81600000D02*
X151550000Y-74850000D01*
X153114600Y-82052500D02*
X152002500Y-82052500D01*
X152002500Y-82052500D02*
X151550000Y-81600000D01*
X151550000Y-74850000D02*
X151050000Y-74350000D01*
X151050000Y-74350000D02*
X150050279Y-74350000D01*
X150050279Y-74350000D02*
X150050279Y-68300000D01*
X152385710Y-65964569D02*
X150050279Y-68300000D01*
%TO.N,Net-(D6-K)*%
X147053062Y-79747500D02*
X147053062Y-76733552D01*
X147053062Y-76733552D02*
X147019510Y-76700000D01*
%TO.N,CELL_9*%
X150083831Y-83766169D02*
X150083831Y-82052500D01*
X149057139Y-66262371D02*
X147019510Y-68300000D01*
X148550000Y-74950000D02*
X147950000Y-74350000D01*
X149057139Y-61550000D02*
X149057139Y-66262371D01*
X148750000Y-85100000D02*
X150083831Y-83766169D01*
X149002500Y-82052500D02*
X148550000Y-81600000D01*
X143900000Y-95750000D02*
X143900000Y-85100000D01*
X150083831Y-82052500D02*
X149002500Y-82052500D01*
X148550000Y-81600000D02*
X148550000Y-74950000D01*
X143900000Y-85100000D02*
X148750000Y-85100000D01*
X147019510Y-74350000D02*
X147019510Y-68300000D01*
X144200000Y-96050000D02*
X143900000Y-95750000D01*
X147950000Y-74350000D02*
X147019510Y-74350000D01*
%TO.N,Net-(D7-K)*%
X143988741Y-76700000D02*
X143988741Y-79713948D01*
X143988741Y-79713948D02*
X144022293Y-79747500D01*
%TO.N,CELL_8*%
X143988741Y-74350000D02*
X143988741Y-68300000D01*
X145728568Y-66560173D02*
X143988741Y-68300000D01*
X145728568Y-61550000D02*
X145728568Y-66560173D01*
X144850000Y-74350000D02*
X143988741Y-74350000D01*
X146852500Y-82052500D02*
X145600000Y-80800000D01*
X147053062Y-82052500D02*
X146852500Y-82052500D01*
X145600000Y-75100000D02*
X144850000Y-74350000D01*
X145600000Y-80800000D02*
X145600000Y-75100000D01*
%TO.N,Net-(D8-K)*%
X140991524Y-79747500D02*
X140991524Y-76733552D01*
X140991524Y-76733552D02*
X140957972Y-76700000D01*
%TO.N,CELL_7*%
X144022293Y-82052500D02*
X143302500Y-82052500D01*
X142450000Y-74950000D02*
X141850000Y-74350000D01*
X142450000Y-81200000D02*
X142450000Y-74950000D01*
X144022293Y-83627707D02*
X144022293Y-82052500D01*
X143300000Y-84350000D02*
X144022293Y-83627707D01*
X142399997Y-61550000D02*
X142399997Y-66857975D01*
X141850000Y-74350000D02*
X140957972Y-74350000D01*
X143300000Y-96050000D02*
X143300000Y-84350000D01*
X142399997Y-66857975D02*
X140957972Y-68300000D01*
X143302500Y-82052500D02*
X142450000Y-81200000D01*
X140957972Y-74350000D02*
X140957972Y-68300000D01*
%TO.N,Net-(D9-K)*%
X137960755Y-79747500D02*
X137960755Y-76733552D01*
X137960755Y-76733552D02*
X137927203Y-76700000D01*
%TO.N,CELL_6*%
X139450000Y-81550000D02*
X139450000Y-74950000D01*
X138850000Y-74350000D02*
X137927203Y-74350000D01*
X140991524Y-82052500D02*
X139952500Y-82052500D01*
X139450000Y-74950000D02*
X138850000Y-74350000D01*
X137927203Y-74350000D02*
X137927203Y-68300000D01*
X139952500Y-82052500D02*
X139450000Y-81550000D01*
X139071426Y-61550000D02*
X139071426Y-67155777D01*
X139071426Y-67155777D02*
X137927203Y-68300000D01*
%TO.N,Net-(D10-K)*%
X134929986Y-79747500D02*
X134929986Y-76733552D01*
X134929986Y-76733552D02*
X134896434Y-76700000D01*
%TO.N,CELL_5*%
X142500000Y-85200000D02*
X142100000Y-84800000D01*
X136350000Y-81300000D02*
X136350000Y-74900000D01*
X137960755Y-82052500D02*
X137102500Y-82052500D01*
X135800000Y-74350000D02*
X134896434Y-74350000D01*
X137960755Y-83410755D02*
X137960755Y-82052500D01*
X142500000Y-96050000D02*
X142500000Y-85200000D01*
X134896434Y-74350000D02*
X134896434Y-68300000D01*
X136350000Y-74900000D02*
X135800000Y-74350000D01*
X137102500Y-82052500D02*
X136350000Y-81300000D01*
X139350000Y-84800000D02*
X137960755Y-83410755D01*
X135742855Y-67453579D02*
X134896434Y-68300000D01*
X142100000Y-84800000D02*
X139350000Y-84800000D01*
X135742855Y-61550000D02*
X135742855Y-67453579D01*
%TO.N,Net-(D11-K)*%
X131899217Y-76733552D02*
X131865665Y-76700000D01*
X131899217Y-79747500D02*
X131899217Y-76733552D01*
%TO.N,CELL_4*%
X132414284Y-61550000D02*
X132414284Y-67751381D01*
X132414284Y-67751381D02*
X131865665Y-68300000D01*
X133300000Y-81450000D02*
X133300000Y-74950000D01*
X133300000Y-74950000D02*
X132700000Y-74350000D01*
X134929986Y-82052500D02*
X133902500Y-82052500D01*
X133902500Y-82052500D02*
X133300000Y-81450000D01*
X131865665Y-74350000D02*
X131865665Y-68300000D01*
X132700000Y-74350000D02*
X131865665Y-74350000D01*
%TO.N,Net-(D12-K)*%
X128868448Y-76733552D02*
X128834896Y-76700000D01*
X128868448Y-79747500D02*
X128868448Y-76733552D01*
%TO.N,CELL_3*%
X131899217Y-82052500D02*
X131302500Y-82052500D01*
X141200000Y-85300000D02*
X133500000Y-85300000D01*
X131302500Y-82052500D02*
X130350000Y-81100000D01*
X129085713Y-68049183D02*
X128834896Y-68300000D01*
X130350000Y-81100000D02*
X130350000Y-75200000D01*
X130350000Y-75200000D02*
X129500000Y-74350000D01*
X133500000Y-85300000D02*
X131899217Y-83699217D01*
X129500000Y-74350000D02*
X128834896Y-74350000D01*
X141600000Y-96100000D02*
X141600000Y-85700000D01*
X141600000Y-85700000D02*
X141200000Y-85300000D01*
X129085713Y-61550000D02*
X129085713Y-68049183D01*
X131899217Y-83699217D02*
X131899217Y-82052500D01*
X128834896Y-74350000D02*
X128834896Y-68300000D01*
%TO.N,Net-(D13-K)*%
X125837679Y-79747500D02*
X125837679Y-76733552D01*
X125837679Y-76733552D02*
X125804127Y-76700000D01*
%TO.N,CELL_2*%
X127300000Y-81400000D02*
X127300000Y-75250000D01*
X128868448Y-82052500D02*
X127952500Y-82052500D01*
X127952500Y-82052500D02*
X127300000Y-81400000D01*
X125757142Y-61550000D02*
X125757142Y-68253015D01*
X125757142Y-68253015D02*
X125804127Y-68300000D01*
X125804127Y-74350000D02*
X125804127Y-68300000D01*
X127300000Y-75250000D02*
X126400000Y-74350000D01*
X126400000Y-74350000D02*
X125804127Y-74350000D01*
%TO.N,Net-(D14-K)*%
X122773358Y-79713948D02*
X122806910Y-79747500D01*
X122773358Y-76700000D02*
X122773358Y-79713948D01*
%TO.N,CELL_1*%
X129735179Y-85950000D02*
X125837679Y-82052500D01*
X140300000Y-87400000D02*
X138850000Y-85950000D01*
X138850000Y-85950000D02*
X129735179Y-85950000D01*
X140300000Y-95600003D02*
X140300000Y-87400000D01*
X124300000Y-74900000D02*
X123750000Y-74350000D01*
X122428571Y-67955213D02*
X122773358Y-68300000D01*
X122428571Y-61550000D02*
X122428571Y-67955213D01*
X125002500Y-82052500D02*
X124300000Y-81350000D01*
X140799997Y-96100000D02*
X140300000Y-95600003D01*
X122773358Y-74350000D02*
X122773358Y-68300000D01*
X124300000Y-81350000D02*
X124300000Y-74900000D01*
X123750000Y-74350000D02*
X122773358Y-74350000D01*
X125837679Y-82052500D02*
X125002500Y-82052500D01*
%TO.N,CELL_0*%
X119100000Y-67700000D02*
X119700000Y-68300000D01*
X119700000Y-68300000D02*
X119700000Y-80800000D01*
X119100000Y-61550000D02*
X119100000Y-67700000D01*
X119700000Y-80800000D02*
X120952500Y-82052500D01*
X120952500Y-82052500D02*
X122806910Y-82052500D01*
%TO.N,Net-(J2-Pin_1)*%
X160675000Y-53525000D02*
X159973358Y-53525000D01*
X165600000Y-58450000D02*
X160675000Y-53525000D01*
%TO.N,Net-(J2-Pin_2)*%
X157473358Y-53551935D02*
X157473358Y-53525000D01*
X162371423Y-58450000D02*
X157473358Y-53551935D01*
%TO.N,Net-(J2-Pin_3)*%
X159042852Y-57594494D02*
X154973358Y-53525000D01*
X159042852Y-58450000D02*
X159042852Y-57594494D01*
%TO.N,Net-(J2-Pin_4)*%
X155714281Y-56765923D02*
X152473358Y-53525000D01*
X155714281Y-58450000D02*
X155714281Y-56765923D01*
%TO.N,Net-(J2-Pin_5)*%
X152385710Y-58450000D02*
X152385710Y-55937352D01*
X152385710Y-55937352D02*
X149973358Y-53525000D01*
%TO.N,Net-(J2-Pin_6)*%
X149057139Y-58450000D02*
X149057139Y-55108781D01*
X149057139Y-55108781D02*
X147473358Y-53525000D01*
%TO.N,Net-(J2-Pin_7)*%
X145728568Y-54280210D02*
X144973358Y-53525000D01*
X145728568Y-58450000D02*
X145728568Y-54280210D01*
%TO.N,Net-(J2-Pin_8)*%
X142399997Y-53598361D02*
X142473358Y-53525000D01*
X142399997Y-58450000D02*
X142399997Y-53598361D01*
%TO.N,Net-(J2-Pin_9)*%
X139071426Y-54426932D02*
X139973358Y-53525000D01*
X139071426Y-58450000D02*
X139071426Y-54426932D01*
%TO.N,Net-(J2-Pin_10)*%
X135742855Y-58450000D02*
X135742855Y-55255503D01*
X135742855Y-55255503D02*
X137473358Y-53525000D01*
%TO.N,Net-(J2-Pin_11)*%
X132414284Y-56084074D02*
X134973358Y-53525000D01*
X132414284Y-58450000D02*
X132414284Y-56084074D01*
%TO.N,Net-(J2-Pin_12)*%
X129085713Y-56912645D02*
X132473358Y-53525000D01*
X129085713Y-58450000D02*
X129085713Y-56912645D01*
%TO.N,Net-(J2-Pin_13)*%
X125757142Y-58450000D02*
X125757142Y-57741216D01*
X125757142Y-57741216D02*
X129973358Y-53525000D01*
%TO.N,Net-(J2-Pin_14)*%
X122428571Y-58450000D02*
X122548358Y-58450000D01*
X122548358Y-58450000D02*
X127473358Y-53525000D01*
%TO.N,Net-(J2-Pin_15)*%
X120048358Y-58450000D02*
X124973358Y-53525000D01*
X119100000Y-58450000D02*
X120048358Y-58450000D01*
%TD*%
M02*
