%TF.GenerationSoftware,KiCad,Pcbnew,7.0.11-rc3*%
%TF.CreationDate,2025-12-05T15:52:12+08:00*%
%TF.ProjectId,vtap_test_led,76746170-5f74-4657-9374-5f6c65642e6b,rev?*%
%TF.SameCoordinates,Original*%
%TF.FileFunction,Legend,Bot*%
%TF.FilePolarity,Positive*%
%FSLAX46Y46*%
G04 Gerber Fmt 4.6, Leading zero omitted, Abs format (unit mm)*
G04 Created by KiCad (PCBNEW 7.0.11-rc3) date 2025-12-05 15:52:12*
%MOMM*%
%LPD*%
G01*
G04 APERTURE LIST*
%ADD10C,0.150000*%
%ADD11C,0.152400*%
G04 APERTURE END LIST*
D10*
X142633333Y-86754819D02*
X142633333Y-87469104D01*
X142633333Y-87469104D02*
X142680952Y-87611961D01*
X142680952Y-87611961D02*
X142776190Y-87707200D01*
X142776190Y-87707200D02*
X142919047Y-87754819D01*
X142919047Y-87754819D02*
X143014285Y-87754819D01*
X141633333Y-87754819D02*
X142204761Y-87754819D01*
X141919047Y-87754819D02*
X141919047Y-86754819D01*
X141919047Y-86754819D02*
X142014285Y-86897676D01*
X142014285Y-86897676D02*
X142109523Y-86992914D01*
X142109523Y-86992914D02*
X142204761Y-87040533D01*
D11*
%TO.C,J1*%
X150473994Y-89835000D02*
X149203994Y-89200000D01*
X150473994Y-88565000D02*
X150473994Y-89835000D01*
X149203994Y-89200000D02*
X150473994Y-88565000D01*
X148949994Y-93900000D02*
X145692548Y-93900000D01*
X148949994Y-92620040D02*
X148949994Y-93900000D01*
X148949994Y-88700000D02*
X148949994Y-89979960D01*
X145692548Y-88700000D02*
X148949994Y-88700000D01*
X138987468Y-93900000D02*
X135730022Y-93900000D01*
X135730022Y-93900000D02*
X135730022Y-92620040D01*
X135730022Y-89979960D02*
X135730022Y-88700000D01*
X135730022Y-88700000D02*
X138987468Y-88700000D01*
%TD*%
M02*
