M48
; DRILL file KiCad 10.0.1 date 2026-09-06T22:40:22
; FORMAT={-:-/ absolute / metric / decimal}
; #@! TF.CreationDate,2026-09-06T22:40:22+08:00
; #@! TF.GenerationSoftware,Kicad,Pcbnew,10.0.1
; #@! TF.FileFunction,Plated,1,2,PTH
FMAT,2
METRIC
; #@! TA.AperFunction,Plated,PTH,ViaDrill
T1C0.300
; #@! TA.AperFunction,Plated,PTH,ViaDrill
T2C0.400
; #@! TA.AperFunction,Plated,PTH,ComponentDrill
T3C1.000
%
G90
G05
T1
X101.625Y-99.72
X101.803Y-88.392
X102.26Y-56.54
X103.124Y-121.488
X103.226Y-50.876
X103.556Y-81.813
X103.632Y-70.51
X103.734Y-66.65
X104.089Y-86.284
X104.572Y-77.394
X104.572Y-97.638
X105.028Y-91.185
X105.537Y-88.417
X105.562Y-44.247
X105.562Y-76.2
X106.02Y-73.203
X106.029Y-118.142
X106.121Y-78.308
X106.401Y-121.488
X106.48Y-99.078
X107.366Y-107.264
X107.467Y-67.31
X108.038Y-91.477
X108.282Y-72.898
X108.509Y-103.683
X108.56Y-82.017
X109.04Y-81.377
X109.068Y-62.027
X109.068Y-64.084
X109.118Y-77.038
X109.118Y-79.172
X109.144Y-71.45
X109.449Y-49.86
X109.652Y-57.429
X109.677Y-55.093
X109.939Y-81.382
X110.312Y-71.323
X110.973Y-121.514
X111.074Y-71.948
X111.227Y-91.262
X111.76Y-80.569
X112.014Y-73.279
X112.268Y-118.186
X112.385Y-79.781
X112.497Y-105.816
X112.497Y-109.093
X112.522Y-99.568
X112.522Y-102.845
X112.547Y-111.455
X112.547Y-114.732
X113.064Y-82.22
X113.081Y-77.14
X113.132Y-59.817
X113.161Y-88.502
X113.182Y-62.535
X113.487Y-65.684
X114.706Y-49.962
X115.214Y-43.536
X116.281Y-107.239
X116.459Y-118.161
X116.459Y-121.437
X116.789Y-83.617
X116.967Y-89.281
X117.373Y-62.916
X117.373Y-76.606
X117.45Y-57.302
X117.5Y-69.621
X117.958Y-79.35
X118.821Y-89.332
X120.32Y-92.989
X120.802Y-79.35
X120.955Y-89.306
X120.98Y-121.92
X121.158Y-97.79
X121.26Y-91.694
X121.717Y-93.269
X122.53Y-138.481
X122.784Y-116.281
X123.215Y-83.744
X123.342Y-43.739
X123.596Y-37.592
X123.698Y-97.0
X123.8Y-116.332
X123.952Y-45.923
X124.054Y-40.081
X124.612Y-105.613
X124.612Y-106.413
X124.917Y-99.365
X125.527Y-111.506
X125.552Y-51.435
X125.562Y-49.435
X125.628Y-139.09
X126.086Y-64.897
X126.187Y-114.544
X126.228Y-97.749
X126.543Y-52.73
X126.67Y-89.535
X127.0Y-50.495
X127.254Y-107.696
X127.254Y-108.585
X127.254Y-109.601
X127.305Y-121.971
X127.5Y-99.25
X127.508Y-106.934
X128.727Y-83.566
X128.829Y-89.611
X128.829Y-114.605
X128.981Y-79.096
X129.286Y-50.14
X129.489Y-116.84
X130.0Y-97.75
X130.429Y-82.042
X130.658Y-50.063
X130.845Y-59.672
X130.87Y-65.895
X131.741Y-110.998
X131.816Y-104.553
X131.816Y-106.966
X131.877Y-51.537
X131.978Y-116.423
X132.486Y-120.244
X132.515Y-48.991
X133.299Y-48.835
X133.401Y-88.595
X133.426Y-39.573
X134.112Y-43.536
X134.366Y-127.965
X134.976Y-98.755
X134.994Y-92.282
X136.855Y-108.712
X137.084Y-103.2
X137.321Y-87.09
X138.227Y-98.146
X138.481Y-110.236
X138.505Y-118.23
X139.116Y-43.231
X139.116Y-88.316
X139.268Y-51.003
X139.345Y-109.626
X139.355Y-118.22
X139.471Y-66.802
X139.776Y-58.649
X140.132Y-95.733
X140.157Y-109.576
X140.175Y-118.23
X140.36Y-112.268
X140.691Y-127.965
X140.716Y-124.562
X140.975Y-118.23
X141.097Y-70.612
X141.351Y-39.675
X141.478Y-77.978
X141.503Y-84.785
X141.8Y-98.019
X142.24Y-63.754
X142.551Y-113.284
X142.621Y-118.237
X143.383Y-114.935
X143.827Y-110.299
X143.866Y-97.612
X144.145Y-114.3
X144.399Y-110.998
X145.11Y-60.198
X145.415Y-52.273
X145.745Y-91.516
X145.796Y-75.235
X145.796Y-82.296
X145.796Y-115.951
X146.253Y-117.145
X146.279Y-89.408
X146.507Y-39.319
X146.507Y-54.94
X146.685Y-85.776
X146.964Y-70.282
X147.015Y-127.965
X147.066Y-138.465
X148.064Y-106.867
X148.539Y-44.958
X148.793Y-120.752
X150.045Y-106.867
X150.063Y-139.09
X150.574Y-116.426
X150.597Y-71.399
X150.652Y-112.388
X151.232Y-126.99
X151.943Y-109.118
X152.026Y-106.867
X152.273Y-114.808
X152.603Y-111.88
X153.365Y-109.677
X153.772Y-108.966
X154.178Y-102.133
X154.28Y-113.487
X154.686Y-110.388
X155.118Y-71.984
X155.397Y-38.811
X158.293Y-97.638
X158.344Y-94.767
X158.496Y-83.617
X158.547Y-80.315
X158.598Y-50.952
X158.699Y-62.636
X159.004Y-123.85
X159.156Y-113.03
T2
X103.353Y-54.356
X103.378Y-60.249
X105.126Y-64.89
X105.238Y-49.041
X107.112Y-74.244
X107.442Y-47.119
X107.509Y-54.356
X107.557Y-56.566
X108.814Y-96.873
X113.944Y-132.944
X114.875Y-44.824
X115.027Y-38.728
X118.608Y-51.442
X119.685Y-131.521
X125.257Y-78.01
X128.387Y-37.98
X128.397Y-53.365
X128.62Y-132.944
X130.692Y-37.98
X130.908Y-57.487
X132.461Y-100.141
X134.112Y-104.521
X134.976Y-59.436
X137.36Y-61.692
X137.363Y-37.973
X137.41Y-53.238
X138.928Y-104.489
X141.09Y-131.54
X144.825Y-99.816
X144.825Y-102.0
X145.688Y-104.556
X148.221Y-110.284
X148.539Y-38.303
X149.53Y-61.646
X153.111Y-132.944
X156.464Y-62.94
X156.666Y-65.94
X156.667Y-59.944
X157.6Y-99.4
X157.785Y-126.88
T3
X116.332Y-104.631
X116.332Y-109.711
X138.235Y-124.45
X143.315Y-124.45
M30
