%TF.GenerationSoftware,KiCad,Pcbnew,10.0.1*%
%TF.CreationDate,2026-09-06T22:40:29+08:00*%
%TF.ProjectId,AMS_SLAVE_TEST,414d535f-534c-4415-9645-5f544553542e,rev?*%
%TF.SameCoordinates,Original*%
%TF.FileFunction,Copper,L2,Bot*%
%TF.FilePolarity,Positive*%
%FSLAX46Y46*%
G04 Gerber Fmt 4.6, Leading zero omitted, Abs format (unit mm)*
G04 Created by KiCad (PCBNEW 10.0.1) date 2026-09-06 22:40:29*
%MOMM*%
%LPD*%
G01*
G04 APERTURE LIST*
%TA.AperFunction,ComponentPad*%
%ADD10C,2.400000*%
%TD*%
%TA.AperFunction,ViaPad*%
%ADD11C,0.600000*%
%TD*%
%TA.AperFunction,ViaPad*%
%ADD12C,0.800000*%
%TD*%
%TA.AperFunction,Conductor*%
%ADD13C,0.250000*%
%TD*%
%TA.AperFunction,Conductor*%
%ADD14C,0.500000*%
%TD*%
%TA.AperFunction,Conductor*%
%ADD15C,1.000000*%
%TD*%
G04 APERTURE END LIST*
D10*
%TO.P,Y1,1,1_1*%
%TO.N,/XTAL_MCP2*%
X116332000Y-109710600D03*
%TO.P,Y1,2,2_2*%
%TO.N,/XTAL_MCP1*%
X116332000Y-104630600D03*
%TD*%
%TO.P,Y2,1,1_1*%
%TO.N,/XTAL2*%
X143315000Y-124450000D03*
%TO.P,Y2,2,2_2*%
%TO.N,/XTAL1*%
X138235000Y-124450000D03*
%TD*%
D11*
%TO.N,GND*%
X116789200Y-83616800D03*
%TO.N,/cell monitoring/VC8*%
X132514545Y-48990848D03*
%TO.N,GND*%
X127000000Y-50495200D03*
X129286000Y-50139600D03*
X126542800Y-52730400D03*
X115214400Y-43535600D03*
X123952000Y-45923200D03*
X123342400Y-43738800D03*
X124053600Y-40081200D03*
X123596400Y-37592000D03*
X103632000Y-70510400D03*
X116281200Y-107238800D03*
X133400800Y-88595200D03*
X120954800Y-89306400D03*
X117957600Y-79349600D03*
X121716800Y-93268800D03*
X121158000Y-97790000D03*
X159004000Y-123850400D03*
X159156400Y-113030000D03*
X158292800Y-97637600D03*
X158496000Y-83616800D03*
X139268200Y-51003200D03*
X109448600Y-49860200D03*
X145110200Y-60198000D03*
X112496600Y-109093000D03*
X145796000Y-82296000D03*
X141097000Y-70612000D03*
X103225600Y-50876200D03*
X146278600Y-89408000D03*
X132486400Y-120243600D03*
X140716000Y-124561600D03*
X116459000Y-118160800D03*
X104571800Y-77393800D03*
X146507200Y-39319200D03*
X101803200Y-88392000D03*
X109677200Y-55092600D03*
D12*
X157600000Y-99400000D03*
D11*
X109118400Y-79171800D03*
X154178000Y-102133400D03*
X155397200Y-38811200D03*
X146507200Y-54940200D03*
X134366000Y-127965200D03*
X126669800Y-89535000D03*
X139115800Y-88315800D03*
X106400600Y-121488200D03*
X109118400Y-77038200D03*
X113487200Y-65684400D03*
X139115800Y-43230800D03*
X105562400Y-44246800D03*
X128828800Y-89611200D03*
X117373400Y-76606400D03*
X137083800Y-103200200D03*
X131740600Y-110998000D03*
X140690600Y-127965200D03*
X128727200Y-83566000D03*
X112014000Y-73279000D03*
X139776200Y-58648600D03*
X151942800Y-109118400D03*
X112522000Y-99568000D03*
X116967000Y-89281000D03*
X116459000Y-121437400D03*
X103124000Y-121488200D03*
X113182400Y-62534800D03*
X105562400Y-76200000D03*
X145745200Y-91516200D03*
X139471400Y-66802000D03*
X109143800Y-71450200D03*
X158597600Y-50952400D03*
X102260400Y-56540400D03*
X112547400Y-111455200D03*
X117373400Y-62915800D03*
X129489200Y-116840000D03*
X141351000Y-39674800D03*
X112547400Y-114731800D03*
X128981200Y-79095600D03*
X104089200Y-86283800D03*
X109067600Y-62026800D03*
X107365800Y-107264200D03*
X112522000Y-102844600D03*
X140131800Y-95732600D03*
X141503400Y-84785200D03*
X126085600Y-64897000D03*
X146253200Y-117144800D03*
X104571800Y-97637600D03*
X123215400Y-83743800D03*
X101625400Y-99720400D03*
D12*
X157784800Y-126880000D03*
D11*
X113080800Y-77139800D03*
X142240000Y-63754000D03*
X158343600Y-94767400D03*
X131876800Y-51536600D03*
X117449600Y-57302400D03*
X155117800Y-71983600D03*
X125526800Y-111506000D03*
X117500400Y-69621400D03*
X114706400Y-49961800D03*
X109651800Y-57429400D03*
X133426200Y-39573200D03*
X145796000Y-75234800D03*
X110972600Y-121513600D03*
X120980200Y-121920000D03*
X120802400Y-79349600D03*
X112496600Y-105816400D03*
X108508800Y-103682800D03*
X158699200Y-62636400D03*
X143865600Y-97612200D03*
X150596600Y-71399400D03*
X158546800Y-80314800D03*
X148793200Y-120751600D03*
X127304800Y-121970800D03*
X118821200Y-89331800D03*
X109067600Y-64084200D03*
X145415000Y-52273200D03*
X146685000Y-85775800D03*
X147015200Y-127965200D03*
X148539200Y-44958000D03*
X154279600Y-113487200D03*
X106121200Y-78308200D03*
X140360400Y-112268000D03*
X134112000Y-43535600D03*
X141478000Y-77978000D03*
X146964400Y-70281800D03*
X113131600Y-59817000D03*
X150651800Y-112388100D03*
D12*
%TO.N,/cell monitoring/TP8*%
X128387500Y-37980100D03*
X156665600Y-65940000D03*
X148539200Y-38303200D03*
%TO.N,+3V3*%
X148220600Y-110284000D03*
X108813600Y-96872600D03*
X132461000Y-100141000D03*
X134112000Y-104521000D03*
X138928500Y-104488500D03*
X145688000Y-104555603D03*
%TO.N,VCC2*%
X113944400Y-132943600D03*
X128620000Y-132943600D03*
X153111200Y-132943600D03*
%TO.N,GND2*%
X119684800Y-131521200D03*
X141090000Y-131539600D03*
D11*
%TO.N,Net-(RBOOT1-Pad1)*%
X106029100Y-118142500D03*
X112268000Y-118186200D03*
%TO.N,/cell monitoring/TP1*%
X137320783Y-87089500D03*
X120319800Y-92989400D03*
%TO.N,/cell monitoring/VC0*%
X121259600Y-91694000D03*
X134994300Y-92282500D03*
D12*
%TO.N,/cell monitoring/VC5*%
X107442000Y-47119400D03*
X149529800Y-61645800D03*
X137359600Y-61692434D03*
D11*
X108282500Y-72898000D03*
D12*
X107509000Y-54356000D03*
D11*
%TO.N,/CANL*%
X122529600Y-138480800D03*
X147066000Y-138465400D03*
%TO.N,/CANH*%
X125628400Y-139090400D03*
X150063200Y-139090400D03*
%TO.N,/cell monitoring/VC7*%
X133299200Y-48834895D03*
X108559600Y-82016600D03*
%TO.N,/RST*%
X123698000Y-97000000D03*
X130000000Y-97750000D03*
%TO.N,/cell monitoring/VC11*%
X130844900Y-59671700D03*
X111760000Y-80568800D03*
%TO.N,/SDA*%
X105027908Y-91184908D03*
X141800000Y-98018600D03*
%TO.N,/ALERT*%
X103555800Y-81813400D03*
X106480400Y-99078100D03*
X134975600Y-98755200D03*
%TO.N,/cell monitoring/BAT*%
X113160576Y-88502144D03*
X106019600Y-73202800D03*
D12*
%TO.N,/cell monitoring/VC15*%
X107111800Y-74244200D03*
X125256900Y-78010500D03*
%TO.N,/cell monitoring/TP9*%
X115027100Y-38727900D03*
X156464000Y-62940000D03*
D11*
%TO.N,/cell monitoring/VC12*%
X112385000Y-79781400D03*
X130870300Y-65894700D03*
%TO.N,/cell monitoring/VC13*%
X113063600Y-82219800D03*
X130429000Y-82042000D03*
%TO.N,Net-(U2-RXCAN)*%
X124612400Y-106413203D03*
X123799600Y-116332000D03*
%TO.N,Net-(U2-TXCAN)*%
X122783600Y-116281200D03*
X124612400Y-105613200D03*
D12*
%TO.N,/cell monitoring/VC5X*%
X103378000Y-60248800D03*
X103352600Y-54356000D03*
X105238200Y-49041400D03*
D11*
X108038200Y-91477400D03*
D12*
X134975600Y-59436000D03*
X137410400Y-53238400D03*
%TO.N,/cell monitoring/TP10*%
X114874700Y-44823900D03*
X156667200Y-59944000D03*
D11*
%TO.N,/cell monitoring/VC9*%
X109938600Y-81381600D03*
X130657600Y-50063400D03*
%TO.N,/cell monitoring/VC10B*%
X125552200Y-51435000D03*
X111074200Y-71948200D03*
%TO.N,/NTC2+*%
X143827500Y-110299500D03*
X152273000Y-114808000D03*
%TO.N,/cell monitoring/VC10X*%
X111226600Y-91262200D03*
D12*
X118608500Y-51442100D03*
X130908000Y-57487100D03*
X128397000Y-53365400D03*
X105126300Y-64890100D03*
D11*
%TO.N,/SCL*%
X105537000Y-88417400D03*
X138226800Y-98145600D03*
%TO.N,/cell monitoring/VC10*%
X110312200Y-71323200D03*
X107467400Y-67310000D03*
X125561700Y-49435500D03*
%TO.N,/~{RX0BF}*%
X131816500Y-106966500D03*
X136855200Y-108712000D03*
%TO.N,Net-(Q10-S)*%
X103733600Y-66649600D03*
D12*
X107557500Y-56565800D03*
%TO.N,/cell monitoring/VC8*%
X137363200Y-37973000D03*
X130692500Y-37980100D03*
D11*
X109039602Y-81376598D03*
%TO.N,/~{INT}*%
X131816500Y-104553500D03*
X138480800Y-110236000D03*
%TO.N,/SCK*%
X124917200Y-99364800D03*
X127254000Y-109601000D03*
X145796000Y-115951000D03*
%TO.N,/MOSI*%
X126228162Y-97749038D03*
X127254000Y-108585000D03*
X143383000Y-114935000D03*
%TO.N,/MISO*%
X144145000Y-114300000D03*
X127500000Y-99250000D03*
X127254000Y-107696000D03*
%TO.N,/CS*%
X127508000Y-106934000D03*
X150574042Y-116426500D03*
X142550920Y-113284000D03*
X142621000Y-118237000D03*
%TO.N,Net-(JP2-A)*%
X151231600Y-126989600D03*
X138505000Y-118230000D03*
%TO.N,Net-(JP3-A)*%
X131978400Y-116423200D03*
X139355000Y-118220000D03*
%TO.N,Net-(JP4-A)*%
X126187200Y-114543600D03*
X140175000Y-118230000D03*
%TO.N,Net-(JP1-A)*%
X140975003Y-118230000D03*
X128828800Y-114604800D03*
%TO.N,/NTC1+*%
X152603200Y-111880000D03*
X144399000Y-110998000D03*
%TO.N,/NTC3+*%
X154686000Y-110388400D03*
X152026100Y-106867300D03*
%TO.N,/NTC4+*%
X148063700Y-106867300D03*
X153365200Y-109677200D03*
%TO.N,/NTC5+*%
X150044900Y-106867300D03*
X153771600Y-108966000D03*
%TO.N,/PD0*%
X140157200Y-109575600D03*
D12*
X144825000Y-102000000D03*
D11*
%TO.N,/PD1*%
X139345000Y-109626400D03*
D12*
X144825000Y-99815600D03*
%TD*%
%TO.N,/cell monitoring/VC0*%
D13*
X134405800Y-91694000D02*
X134994300Y-92282500D01*
X121259600Y-91694000D02*
X134405800Y-91694000D01*
%TO.N,/cell monitoring/TP8*%
D14*
X128387500Y-37017300D02*
X128387500Y-37980100D01*
X148539200Y-38303200D02*
X148539200Y-41605200D01*
X152146000Y-45212000D02*
X152146000Y-64617600D01*
X148539200Y-38252400D02*
X146851600Y-36564800D01*
X128840000Y-36564800D02*
X128387500Y-37017300D01*
X148539200Y-41605200D02*
X152146000Y-45212000D01*
X153468400Y-65940000D02*
X156665600Y-65940000D01*
X146851600Y-36564800D02*
X128840000Y-36564800D01*
X156718000Y-65887600D02*
X156665600Y-65940000D01*
X148539200Y-38303200D02*
X148539200Y-38252400D01*
X152146000Y-64617600D02*
X153468400Y-65940000D01*
%TO.N,+3V3*%
X109471000Y-96215200D02*
X131215200Y-96215200D01*
X145688000Y-109213600D02*
X146758400Y-110284000D01*
X138896000Y-104521000D02*
X138928500Y-104488500D01*
X134112000Y-104521000D02*
X138896000Y-104521000D01*
X145620897Y-104488500D02*
X145688000Y-104555603D01*
X132461000Y-97461000D02*
X132461000Y-100141000D01*
X146758400Y-110284000D02*
X148220600Y-110284000D01*
X108813600Y-96872600D02*
X109471000Y-96215200D01*
X138928500Y-104488500D02*
X145620897Y-104488500D01*
X131215200Y-96215200D02*
X132461000Y-97461000D01*
X145688000Y-104555603D02*
X145688000Y-109213600D01*
%TO.N,VCC2*%
D15*
X113944400Y-132943600D02*
X128620000Y-132943600D01*
X128620000Y-132943600D02*
X153111200Y-132943600D01*
%TO.N,GND2*%
X141071600Y-131521200D02*
X141090000Y-131539600D01*
X119684800Y-131521200D02*
X141071600Y-131521200D01*
D14*
X141043600Y-131586000D02*
X141090000Y-131539600D01*
%TO.N,Net-(RBOOT1-Pad1)*%
D13*
X112268000Y-118186200D02*
X106072800Y-118186200D01*
X106072800Y-118186200D02*
X106029100Y-118142500D01*
%TO.N,/cell monitoring/TP1*%
X137320783Y-90161617D02*
X137320783Y-87089500D01*
X136413400Y-91069000D02*
X137320783Y-90161617D01*
X120970200Y-91069000D02*
X136413400Y-91069000D01*
X120319800Y-92989400D02*
X120319800Y-91719400D01*
X120319800Y-91719400D02*
X120970200Y-91069000D01*
%TO.N,/cell monitoring/VC5*%
X107670600Y-54356000D02*
X107509000Y-54356000D01*
D14*
X149529800Y-50927000D02*
X149529800Y-61645800D01*
D13*
X108282500Y-54967900D02*
X107670600Y-54356000D01*
D14*
X107495200Y-47066200D02*
X145669000Y-47066200D01*
X107442000Y-47119400D02*
X107495200Y-47066200D01*
D13*
X108282500Y-72898000D02*
X108282500Y-54967900D01*
D14*
X145669000Y-47066200D02*
X149529800Y-50927000D01*
X137406234Y-61645800D02*
X137359600Y-61692434D01*
X149529800Y-61645800D02*
X137406234Y-61645800D01*
%TO.N,/CANL*%
D13*
X122545000Y-138465400D02*
X122529600Y-138480800D01*
X147066000Y-138465400D02*
X122545000Y-138465400D01*
%TO.N,/CANH*%
X125628400Y-139090400D02*
X150063200Y-139090400D01*
%TO.N,/cell monitoring/VC7*%
X134061200Y-49708011D02*
X133243642Y-48890453D01*
X108559600Y-82016600D02*
X108559600Y-85826600D01*
X137168596Y-64066000D02*
X134806396Y-64066000D01*
X137871200Y-83997800D02*
X137871200Y-64768604D01*
X134442200Y-87426800D02*
X137871200Y-83997800D01*
X108559600Y-85826600D02*
X110159800Y-87426800D01*
X137871200Y-64768604D02*
X137168596Y-64066000D01*
X134061200Y-63320804D02*
X134061200Y-49708011D01*
X110159800Y-87426800D02*
X134442200Y-87426800D01*
X134806396Y-64066000D02*
X134061200Y-63320804D01*
%TO.N,/RST*%
X123698000Y-97000000D02*
X129250000Y-97000000D01*
X129250000Y-97000000D02*
X130000000Y-97750000D01*
%TO.N,/cell monitoring/VC11*%
X130863200Y-59690000D02*
X132359400Y-59690000D01*
X130844900Y-59671700D02*
X130863200Y-59690000D01*
X112122800Y-80931600D02*
X111760000Y-80568800D01*
X132711200Y-80037804D02*
X131817404Y-80931600D01*
X132711200Y-60041800D02*
X132711200Y-80037804D01*
X132359400Y-59690000D02*
X132711200Y-60041800D01*
X131817404Y-80931600D02*
X112122800Y-80931600D01*
%TO.N,/SDA*%
X105783196Y-94740200D02*
X105027908Y-93984912D01*
X141249400Y-97485200D02*
X135994392Y-97485200D01*
X105027908Y-93984912D02*
X105027908Y-91184908D01*
X135043592Y-96534400D02*
X133620365Y-96534400D01*
X135994392Y-97485200D02*
X135043592Y-96534400D01*
X141800000Y-98018600D02*
X141782800Y-98018600D01*
X131826165Y-94740200D02*
X105783196Y-94740200D01*
X133620365Y-96534400D02*
X131826165Y-94740200D01*
X141782800Y-98018600D02*
X141249400Y-97485200D01*
%TO.N,/ALERT*%
X131723986Y-95910814D02*
X131453373Y-95640200D01*
X134975600Y-98755200D02*
X134975600Y-97739200D01*
X103555800Y-81813400D02*
X103149400Y-81813400D01*
X131453373Y-95640200D02*
X106975600Y-95640200D01*
X106480400Y-96135400D02*
X106480400Y-99078100D01*
X133247573Y-97434400D02*
X131723986Y-95910814D01*
X134670800Y-97434400D02*
X133247573Y-97434400D01*
X102768400Y-97536000D02*
X104310500Y-99078100D01*
X106975600Y-95640200D02*
X106480400Y-96135400D01*
X103149400Y-81813400D02*
X102768400Y-82194400D01*
X102768400Y-82194400D02*
X102768400Y-97536000D01*
X134975600Y-97739200D02*
X134670800Y-97434400D01*
X104310500Y-99078100D02*
X106480400Y-99078100D01*
%TO.N,/cell monitoring/BAT*%
X103936800Y-79121000D02*
X104853992Y-79121000D01*
X103421600Y-78605800D02*
X103936800Y-79121000D01*
X104853992Y-79121000D02*
X106767200Y-81034208D01*
X106019600Y-73202800D02*
X103809800Y-73202800D01*
X108291536Y-88502144D02*
X113160576Y-88502144D01*
X106767200Y-81034208D02*
X106767200Y-86977808D01*
X103421600Y-73591000D02*
X103421600Y-78605800D01*
X106767200Y-86977808D02*
X108291536Y-88502144D01*
X103809800Y-73202800D02*
X103421600Y-73591000D01*
%TO.N,/cell monitoring/VC15*%
D14*
X125256900Y-75371300D02*
X125256900Y-78010500D01*
X124129800Y-74244200D02*
X125256900Y-75371300D01*
X107111800Y-74244200D02*
X124129800Y-74244200D01*
%TO.N,/cell monitoring/TP9*%
X156464000Y-62940000D02*
X154278400Y-62940000D01*
X116128800Y-35864800D02*
X115027100Y-36966500D01*
X154278400Y-62940000D02*
X152846000Y-61507600D01*
X149606000Y-41682050D02*
X149606000Y-37744400D01*
X156464000Y-62940000D02*
X156465200Y-62941200D01*
X147726400Y-35864800D02*
X116128800Y-35864800D01*
X115027100Y-36966500D02*
X115027100Y-38727900D01*
X149606000Y-37744400D02*
X147726400Y-35864800D01*
X152846000Y-44922050D02*
X149606000Y-41682050D01*
X152846000Y-61507600D02*
X152846000Y-44922050D01*
%TO.N,/cell monitoring/VC12*%
D13*
X112385000Y-79781400D02*
X112385000Y-79923800D01*
X112385000Y-79923800D02*
X112942800Y-80481600D01*
X132261200Y-66627600D02*
X131528300Y-65894700D01*
X112942800Y-80481600D02*
X131631008Y-80481600D01*
X131528300Y-65894700D02*
X130870300Y-65894700D01*
X132261200Y-79851408D02*
X132261200Y-66627600D01*
X131631008Y-80481600D02*
X132261200Y-79851408D01*
%TO.N,/cell monitoring/VC13*%
X113063600Y-82219800D02*
X113139800Y-82143600D01*
X113139800Y-82143600D02*
X130327400Y-82143600D01*
X130327400Y-82143600D02*
X130429000Y-82042000D01*
%TO.N,Net-(U2-RXCAN)*%
X123596400Y-106426000D02*
X124599603Y-106426000D01*
X123233600Y-115766000D02*
X123233600Y-106788800D01*
X124599603Y-106426000D02*
X124612400Y-106413203D01*
X123233600Y-106788800D02*
X123596400Y-106426000D01*
X123799600Y-116332000D02*
X123233600Y-115766000D01*
%TO.N,Net-(U2-TXCAN)*%
X123342400Y-105613200D02*
X122783600Y-106172000D01*
X122783600Y-106172000D02*
X122783600Y-116281200D01*
X124612400Y-105613200D02*
X123342400Y-105613200D01*
%TO.N,/cell monitoring/VC5X*%
X105867200Y-81407000D02*
X105867200Y-87350600D01*
D14*
X137410400Y-48688200D02*
X137410400Y-53238400D01*
X137410400Y-58652200D02*
X137410400Y-53238400D01*
X105238200Y-49041400D02*
X106310200Y-47969400D01*
D13*
X103378000Y-64440100D02*
X103376304Y-64440100D01*
D14*
X134975600Y-59436000D02*
X135051800Y-59359800D01*
X103378000Y-54381400D02*
X103352600Y-54356000D01*
D13*
X102521600Y-65294804D02*
X102521600Y-78978592D01*
X103564008Y-80021000D02*
X104481200Y-80021000D01*
D14*
X136691600Y-47969400D02*
X137410400Y-48688200D01*
X135051800Y-59359800D02*
X136702800Y-59359800D01*
D13*
X104481200Y-80021000D02*
X105867200Y-81407000D01*
D14*
X136702800Y-59359800D02*
X137410400Y-58652200D01*
D13*
X102521600Y-78978592D02*
X103564008Y-80021000D01*
X105867200Y-87350600D02*
X108038200Y-89521600D01*
X108038200Y-89521600D02*
X108038200Y-91477400D01*
D14*
X103378000Y-60248800D02*
X103378000Y-54381400D01*
D13*
X108026200Y-91465400D02*
X108038200Y-91477400D01*
X103376304Y-64440100D02*
X102521600Y-65294804D01*
D14*
X106310200Y-47969400D02*
X136691600Y-47969400D01*
D13*
X103378000Y-60248800D02*
X103378000Y-64440100D01*
%TO.N,/cell monitoring/TP10*%
D14*
X150306000Y-41392100D02*
X150306000Y-37454450D01*
X150306000Y-37454450D02*
X148016349Y-35164800D01*
X113842800Y-37095200D02*
X113842800Y-43792000D01*
X153546000Y-44632100D02*
X150306000Y-41392100D01*
X113842800Y-43792000D02*
X114874700Y-44823900D01*
X148016349Y-35164800D02*
X115773200Y-35164800D01*
X154127200Y-59944000D02*
X153546000Y-59362800D01*
X115773200Y-35164800D02*
X113842800Y-37095200D01*
X153546000Y-59362800D02*
X153546000Y-44632100D01*
X156667200Y-59944000D02*
X154127200Y-59944000D01*
%TO.N,/cell monitoring/VC9*%
D13*
X109938600Y-81381600D02*
X132003800Y-81381600D01*
X133161200Y-80224200D02*
X133161200Y-50941400D01*
X133161200Y-50941400D02*
X132283200Y-50063400D01*
X132003800Y-81381600D02*
X133161200Y-80224200D01*
X132283200Y-50063400D02*
X130657600Y-50063400D01*
%TO.N,/cell monitoring/VC10B*%
X124079000Y-51993800D02*
X124637800Y-51435000D01*
X122413996Y-71948200D02*
X124079000Y-70283196D01*
X124079000Y-70283196D02*
X124079000Y-51993800D01*
X124637800Y-51435000D02*
X125552200Y-51435000D01*
X111074200Y-71948200D02*
X122413996Y-71948200D01*
%TO.N,/NTC2+*%
X152273000Y-114300000D02*
X152273000Y-114808000D01*
X143774000Y-110353000D02*
X143774000Y-112735200D01*
X145026800Y-113988000D02*
X151961000Y-113988000D01*
X143774000Y-112735200D02*
X145026800Y-113988000D01*
X151961000Y-113988000D02*
X152273000Y-114300000D01*
X143827500Y-110299500D02*
X143774000Y-110353000D01*
%TO.N,/cell monitoring/VC10X*%
X110693200Y-89281000D02*
X111226600Y-89814400D01*
X102971600Y-65481200D02*
X102971600Y-78792196D01*
X102971600Y-78792196D02*
X103750404Y-79571000D01*
X108433996Y-89281000D02*
X110693200Y-89281000D01*
X103750404Y-79571000D02*
X104667596Y-79571000D01*
D14*
X106342700Y-51442100D02*
X105126300Y-52658500D01*
X128397000Y-57073800D02*
X128810300Y-57487100D01*
D13*
X103562700Y-64890100D02*
X102971600Y-65481200D01*
D14*
X127180800Y-48669400D02*
X119554800Y-48669400D01*
D13*
X104667596Y-79571000D02*
X106317200Y-81220604D01*
D14*
X128397000Y-53365400D02*
X128397000Y-49885600D01*
D13*
X106317200Y-87164204D02*
X108433996Y-89281000D01*
D14*
X105126300Y-52658500D02*
X105126300Y-64890100D01*
D13*
X106317200Y-81220604D02*
X106317200Y-87164204D01*
D14*
X118608500Y-51442100D02*
X106342700Y-51442100D01*
X119554800Y-48669400D02*
X118608500Y-49615700D01*
X118608500Y-49615700D02*
X118608500Y-51442100D01*
D13*
X111226600Y-89814400D02*
X111226600Y-91262200D01*
D14*
X128397000Y-49885600D02*
X127180800Y-48669400D01*
D13*
X105126300Y-64890100D02*
X103562700Y-64890100D01*
D14*
X128810300Y-57487100D02*
X130908000Y-57487100D01*
X128397000Y-53365400D02*
X128397000Y-57073800D01*
%TO.N,/SCL*%
D13*
X134857196Y-96984400D02*
X133433969Y-96984400D01*
X104978200Y-88417400D02*
X105537000Y-88417400D01*
X104402908Y-88992692D02*
X104978200Y-88417400D01*
X138226800Y-98145600D02*
X136018396Y-98145600D01*
X133433969Y-96984400D02*
X131639769Y-95190200D01*
X105596800Y-95190200D02*
X104402908Y-93996308D01*
X104402908Y-93996308D02*
X104402908Y-88992692D01*
X131639769Y-95190200D02*
X105596800Y-95190200D01*
X136018396Y-98145600D02*
X134857196Y-96984400D01*
%TO.N,/cell monitoring/VC10*%
X107984600Y-73669200D02*
X109693400Y-73669200D01*
X110312200Y-73050400D02*
X110312200Y-71323200D01*
X122402600Y-71323200D02*
X123629000Y-70096800D01*
X123629000Y-49980000D02*
X124173500Y-49435500D01*
X107467400Y-67310000D02*
X107467400Y-73152000D01*
X124173500Y-49435500D02*
X125561700Y-49435500D01*
X110312200Y-71323200D02*
X122402600Y-71323200D01*
X109693400Y-73669200D02*
X110312200Y-73050400D01*
X107467400Y-73152000D02*
X107984600Y-73669200D01*
X123629000Y-70096800D02*
X123629000Y-49980000D01*
%TO.N,/~{RX0BF}*%
X136855200Y-108712000D02*
X136855200Y-107442000D01*
X136398000Y-106984800D02*
X131834800Y-106984800D01*
X136855200Y-107442000D02*
X136398000Y-106984800D01*
X131834800Y-106984800D02*
X131816500Y-106966500D01*
%TO.N,Net-(Q10-S)*%
X107137200Y-66649600D02*
X107557500Y-66229300D01*
X103733600Y-66649600D02*
X107137200Y-66649600D01*
X107557500Y-66229300D02*
X107557500Y-56565800D01*
%TO.N,/cell monitoring/VC8*%
D14*
X130699600Y-37973000D02*
X130692500Y-37980100D01*
X137363200Y-37973000D02*
X130699600Y-37973000D01*
%TO.N,/~{INT}*%
D13*
X132726000Y-106513200D02*
X131816500Y-105603700D01*
X138480800Y-107391200D02*
X137602800Y-106513200D01*
X137602800Y-106513200D02*
X132726000Y-106513200D01*
X138480800Y-110236000D02*
X138480800Y-107391200D01*
X131816500Y-105603700D02*
X131816500Y-104553500D01*
%TO.N,/SCK*%
X145796000Y-115951000D02*
X134747000Y-115951000D01*
X124917200Y-99364800D02*
X125831600Y-100279200D01*
X133477000Y-114681000D02*
X133477000Y-110490000D01*
X134747000Y-115951000D02*
X133477000Y-114681000D01*
X125831600Y-100279200D02*
X125831600Y-108864400D01*
X132588000Y-109601000D02*
X127254000Y-109601000D01*
X125831600Y-108864400D02*
X126568200Y-109601000D01*
X133477000Y-110490000D02*
X132588000Y-109601000D01*
X126568200Y-109601000D02*
X127254000Y-109601000D01*
%TO.N,/MOSI*%
X127820000Y-109151000D02*
X132774396Y-109151000D01*
X133927000Y-110303604D02*
X133927000Y-114494604D01*
X126228162Y-97749038D02*
X126288800Y-97809676D01*
X132774396Y-109151000D02*
X133927000Y-110303604D01*
X142748000Y-114935000D02*
X143383000Y-114935000D01*
X126288800Y-107619800D02*
X127254000Y-108585000D01*
X126288800Y-97809676D02*
X126288800Y-107619800D01*
X133927000Y-114494604D02*
X134933396Y-115501000D01*
X127254000Y-108585000D02*
X127820000Y-109151000D01*
X134933396Y-115501000D02*
X142182000Y-115501000D01*
X142182000Y-115501000D02*
X142748000Y-114935000D01*
%TO.N,/MISO*%
X134377000Y-110117208D02*
X134377000Y-114308208D01*
X126738800Y-100011200D02*
X127500000Y-99250000D01*
X127254000Y-107696000D02*
X126738800Y-107180800D01*
X127254000Y-107696000D02*
X128259000Y-108701000D01*
X132960792Y-108701000D02*
X134377000Y-110117208D01*
X135119792Y-115051000D02*
X141995604Y-115051000D01*
X142746604Y-114300000D02*
X144145000Y-114300000D01*
X141995604Y-115051000D02*
X142746604Y-114300000D01*
X128259000Y-108701000D02*
X132960792Y-108701000D01*
X126738800Y-107180800D02*
X126738800Y-100011200D01*
X134377000Y-114308208D02*
X135119792Y-115051000D01*
%TO.N,/CS*%
X142494000Y-113916208D02*
X141809208Y-114601000D01*
X133147188Y-108251000D02*
X128825000Y-108251000D01*
X135306188Y-114601000D02*
X134827000Y-114121812D01*
X134827000Y-109930812D02*
X133147188Y-108251000D01*
X142550920Y-113284000D02*
X142494000Y-113340920D01*
X149987000Y-118237000D02*
X150574042Y-117649958D01*
X141809208Y-114601000D02*
X135306188Y-114601000D01*
X150574042Y-117649958D02*
X150574042Y-116426500D01*
X142621000Y-118237000D02*
X149987000Y-118237000D01*
X134827000Y-114121812D02*
X134827000Y-109930812D01*
X142494000Y-113340920D02*
X142494000Y-113916208D01*
X128825000Y-108251000D02*
X127508000Y-106934000D01*
%TO.N,Net-(JP2-A)*%
X138505000Y-118230000D02*
X138525000Y-118230000D01*
X151231600Y-119430800D02*
X151231600Y-126989600D01*
X138505000Y-118388200D02*
X138988800Y-118872000D01*
X150672800Y-118872000D02*
X151231600Y-119430800D01*
X138988800Y-118872000D02*
X150672800Y-118872000D01*
X138505000Y-118230000D02*
X138505000Y-118388200D01*
%TO.N,Net-(JP3-A)*%
X133310012Y-116423200D02*
X131978400Y-116423200D01*
X139355000Y-117638000D02*
X139018000Y-117301000D01*
X139355000Y-118220000D02*
X139355000Y-117638000D01*
X139018000Y-117301000D02*
X134187812Y-117301000D01*
X134187812Y-117301000D02*
X133310012Y-116423200D01*
%TO.N,Net-(JP4-A)*%
X140175000Y-118230000D02*
X140175000Y-117442000D01*
X139584000Y-116851000D02*
X134374208Y-116851000D01*
X126187200Y-115163600D02*
X126187200Y-114543600D01*
X126821800Y-115798200D02*
X126187200Y-115163600D01*
X140175000Y-117442000D02*
X139584000Y-116851000D01*
X133321408Y-115798200D02*
X126821800Y-115798200D01*
X134374208Y-116851000D02*
X133321408Y-115798200D01*
%TO.N,Net-(JP1-A)*%
X128828800Y-114604800D02*
X132764404Y-114604800D01*
X140975003Y-117226003D02*
X140975003Y-118230000D01*
X132764404Y-114604800D02*
X134560604Y-116401000D01*
X140150000Y-116401000D02*
X140975003Y-117226003D01*
X134560604Y-116401000D02*
X140150000Y-116401000D01*
%TO.N,/NTC1+*%
X144399000Y-112723804D02*
X144399000Y-110998000D01*
X152019000Y-113538000D02*
X145213196Y-113538000D01*
X152603200Y-112953800D02*
X152019000Y-113538000D01*
X145213196Y-113538000D02*
X144399000Y-112723804D01*
X152603200Y-111880000D02*
X152603200Y-112953800D01*
%TO.N,/NTC3+*%
X154686000Y-110388400D02*
X154686000Y-107442000D01*
X154686000Y-107442000D02*
X154111300Y-106867300D01*
X154111300Y-106867300D02*
X152026100Y-106867300D01*
%TO.N,/NTC4+*%
X152958800Y-109270800D02*
X152958800Y-108508800D01*
X152603200Y-108153200D02*
X148590000Y-108153200D01*
X148063700Y-107626900D02*
X148063700Y-106867300D01*
X153365200Y-109677200D02*
X152958800Y-109270800D01*
X148590000Y-108153200D02*
X148063700Y-107626900D01*
X152958800Y-108508800D02*
X152603200Y-108153200D01*
%TO.N,/NTC5+*%
X150266400Y-107645200D02*
X150044900Y-107423700D01*
X153771600Y-107971600D02*
X153445200Y-107645200D01*
X153445200Y-107645200D02*
X150266400Y-107645200D01*
X150044900Y-107423700D02*
X150044900Y-106867300D01*
X153771600Y-108966000D02*
X153771600Y-107971600D01*
%TO.N,/PD0*%
X140157200Y-109575600D02*
X140157200Y-107364404D01*
X138405996Y-105613200D02*
X133959600Y-105613200D01*
X133959600Y-105613200D02*
X133248400Y-104902000D01*
X133992796Y-102000000D02*
X144825000Y-102000000D01*
X133248400Y-102744396D02*
X133992796Y-102000000D01*
X133248400Y-104902000D02*
X133248400Y-102744396D01*
X140157200Y-107364404D02*
X138405996Y-105613200D01*
%TO.N,/PD1*%
X143950000Y-101550000D02*
X144825000Y-100675000D01*
X139345000Y-107188600D02*
X138219600Y-106063200D01*
X139345000Y-109626400D02*
X139345000Y-107188600D01*
X132798400Y-102558000D02*
X133806400Y-101550000D01*
X138219600Y-106063200D02*
X133773204Y-106063200D01*
X144825000Y-100675000D02*
X144825000Y-99815600D01*
X132798400Y-105088396D02*
X132798400Y-102558000D01*
X133806400Y-101550000D02*
X143950000Y-101550000D01*
X133773204Y-106063200D02*
X132798400Y-105088396D01*
%TO.N,/cell monitoring/VC8*%
X109039602Y-81376598D02*
X109474000Y-81810996D01*
X109474000Y-81810996D02*
X109474000Y-86104604D01*
X109474000Y-86104604D02*
X110346196Y-86976800D01*
X110346196Y-86976800D02*
X134255804Y-86976800D01*
X137421200Y-83811404D02*
X137421200Y-64955000D01*
X134255804Y-86976800D02*
X137421200Y-83811404D01*
X137421200Y-64955000D02*
X136982200Y-64516000D01*
X136982200Y-64516000D02*
X134620000Y-64516000D01*
X134620000Y-64516000D02*
X133611200Y-63507200D01*
X133611200Y-63507200D02*
X133611200Y-50045200D01*
X132556848Y-48990848D02*
X132514545Y-48990848D01*
X133611200Y-50045200D02*
X132556848Y-48990848D01*
%TD*%
%TA.AperFunction,Conductor*%
%TO.N,GND*%
G36*
X131668202Y-48739585D02*
G01*
X131713957Y-48792389D01*
X131723901Y-48861547D01*
X131722780Y-48868092D01*
X131714045Y-48912003D01*
X131714045Y-49069694D01*
X131744806Y-49224337D01*
X131744809Y-49224349D01*
X131762247Y-49266448D01*
X131769716Y-49335917D01*
X131738440Y-49398396D01*
X131678351Y-49434048D01*
X131647686Y-49437900D01*
X131199950Y-49437900D01*
X131132911Y-49418215D01*
X131131059Y-49417002D01*
X131036784Y-49354009D01*
X131036772Y-49354002D01*
X130891101Y-49293664D01*
X130891089Y-49293661D01*
X130736445Y-49262900D01*
X130736442Y-49262900D01*
X130578758Y-49262900D01*
X130578755Y-49262900D01*
X130424110Y-49293661D01*
X130424098Y-49293664D01*
X130278427Y-49354002D01*
X130278414Y-49354009D01*
X130147311Y-49441610D01*
X130147307Y-49441613D01*
X130035813Y-49553107D01*
X130035810Y-49553111D01*
X129948209Y-49684214D01*
X129948202Y-49684227D01*
X129887864Y-49829898D01*
X129887861Y-49829910D01*
X129857100Y-49984553D01*
X129857100Y-50142246D01*
X129887861Y-50296889D01*
X129887864Y-50296901D01*
X129948202Y-50442572D01*
X129948209Y-50442585D01*
X130035810Y-50573688D01*
X130035813Y-50573692D01*
X130147307Y-50685186D01*
X130147311Y-50685189D01*
X130278414Y-50772790D01*
X130278427Y-50772797D01*
X130396984Y-50821904D01*
X130424103Y-50833137D01*
X130578753Y-50863899D01*
X130578756Y-50863900D01*
X130578758Y-50863900D01*
X130736444Y-50863900D01*
X130736445Y-50863899D01*
X130891097Y-50833137D01*
X131036779Y-50772794D01*
X131131059Y-50709798D01*
X131197736Y-50688920D01*
X131199950Y-50688900D01*
X131972748Y-50688900D01*
X132039787Y-50708585D01*
X132060429Y-50725219D01*
X132499381Y-51164171D01*
X132532866Y-51225494D01*
X132535700Y-51251852D01*
X132535700Y-58940500D01*
X132516015Y-59007539D01*
X132463211Y-59053294D01*
X132411700Y-59064500D01*
X131414638Y-59064500D01*
X131347599Y-59044815D01*
X131345747Y-59043602D01*
X131224085Y-58962309D01*
X131224072Y-58962302D01*
X131078401Y-58901964D01*
X131078389Y-58901961D01*
X130923745Y-58871200D01*
X130923742Y-58871200D01*
X130766058Y-58871200D01*
X130766055Y-58871200D01*
X130611410Y-58901961D01*
X130611398Y-58901964D01*
X130465727Y-58962302D01*
X130465714Y-58962309D01*
X130334611Y-59049910D01*
X130334607Y-59049913D01*
X130223113Y-59161407D01*
X130223110Y-59161411D01*
X130135509Y-59292514D01*
X130135502Y-59292527D01*
X130075164Y-59438198D01*
X130075161Y-59438210D01*
X130044400Y-59592853D01*
X130044400Y-59750546D01*
X130075161Y-59905189D01*
X130075164Y-59905201D01*
X130135502Y-60050872D01*
X130135509Y-60050885D01*
X130223110Y-60181988D01*
X130223113Y-60181992D01*
X130334607Y-60293486D01*
X130334611Y-60293489D01*
X130465714Y-60381090D01*
X130465727Y-60381097D01*
X130611398Y-60441435D01*
X130611403Y-60441437D01*
X130766053Y-60472199D01*
X130766056Y-60472200D01*
X130766058Y-60472200D01*
X130923744Y-60472200D01*
X130923745Y-60472199D01*
X131078397Y-60441437D01*
X131224079Y-60381094D01*
X131290971Y-60336397D01*
X131357648Y-60315520D01*
X131359862Y-60315500D01*
X131961700Y-60315500D01*
X132028739Y-60335185D01*
X132074494Y-60387989D01*
X132085700Y-60439500D01*
X132085700Y-65282872D01*
X132082836Y-65292623D01*
X132084103Y-65302706D01*
X132073159Y-65325580D01*
X132066015Y-65349911D01*
X132058335Y-65356565D01*
X132053949Y-65365734D01*
X132032372Y-65379062D01*
X132013211Y-65395666D01*
X132003153Y-65397112D01*
X131994506Y-65402454D01*
X131969150Y-65402001D01*
X131944053Y-65405610D01*
X131932948Y-65401355D01*
X131924648Y-65401207D01*
X131892810Y-65385975D01*
X131890469Y-65384411D01*
X131866681Y-65368516D01*
X131838838Y-65349911D01*
X131824587Y-65340388D01*
X131767252Y-65316640D01*
X131738300Y-65304648D01*
X131710752Y-65293237D01*
X131650329Y-65281218D01*
X131645996Y-65280356D01*
X131645992Y-65280355D01*
X131589910Y-65269200D01*
X131589907Y-65269200D01*
X131589906Y-65269200D01*
X131412650Y-65269200D01*
X131345611Y-65249515D01*
X131343759Y-65248302D01*
X131249484Y-65185309D01*
X131249472Y-65185302D01*
X131103801Y-65124964D01*
X131103789Y-65124961D01*
X130949145Y-65094200D01*
X130949142Y-65094200D01*
X130791458Y-65094200D01*
X130791455Y-65094200D01*
X130636810Y-65124961D01*
X130636798Y-65124964D01*
X130491127Y-65185302D01*
X130491114Y-65185309D01*
X130360011Y-65272910D01*
X130360007Y-65272913D01*
X130248513Y-65384407D01*
X130248510Y-65384411D01*
X130160909Y-65515514D01*
X130160902Y-65515527D01*
X130100564Y-65661198D01*
X130100561Y-65661210D01*
X130069800Y-65815853D01*
X130069800Y-65973546D01*
X130100561Y-66128189D01*
X130100564Y-66128201D01*
X130160902Y-66273872D01*
X130160909Y-66273885D01*
X130248510Y-66404988D01*
X130248513Y-66404992D01*
X130360007Y-66516486D01*
X130360011Y-66516489D01*
X130491114Y-66604090D01*
X130491127Y-66604097D01*
X130576505Y-66639461D01*
X130636803Y-66664437D01*
X130767830Y-66690500D01*
X130791453Y-66695199D01*
X130791456Y-66695200D01*
X130791458Y-66695200D01*
X130949144Y-66695200D01*
X130949145Y-66695199D01*
X131103797Y-66664437D01*
X131246208Y-66605448D01*
X131315674Y-66597980D01*
X131378154Y-66629255D01*
X131381339Y-66632329D01*
X131599381Y-66850371D01*
X131632866Y-66911694D01*
X131635700Y-66938052D01*
X131635700Y-79540956D01*
X131616015Y-79607995D01*
X131599381Y-79628637D01*
X131408237Y-79819781D01*
X131346914Y-79853266D01*
X131320556Y-79856100D01*
X113309500Y-79856100D01*
X113242461Y-79836415D01*
X113196706Y-79783611D01*
X113185500Y-79732100D01*
X113185500Y-79702555D01*
X113185499Y-79702553D01*
X113166690Y-79607995D01*
X113154737Y-79547903D01*
X113154735Y-79547898D01*
X113094397Y-79402227D01*
X113094390Y-79402214D01*
X113006789Y-79271111D01*
X113006786Y-79271107D01*
X112895292Y-79159613D01*
X112895288Y-79159610D01*
X112764185Y-79072009D01*
X112764172Y-79072002D01*
X112618501Y-79011664D01*
X112618489Y-79011661D01*
X112463845Y-78980900D01*
X112463842Y-78980900D01*
X112306158Y-78980900D01*
X112306155Y-78980900D01*
X112151510Y-79011661D01*
X112151498Y-79011664D01*
X112005827Y-79072002D01*
X112005814Y-79072009D01*
X111874711Y-79159610D01*
X111874707Y-79159613D01*
X111763213Y-79271107D01*
X111763210Y-79271111D01*
X111675609Y-79402214D01*
X111675602Y-79402227D01*
X111615264Y-79547898D01*
X111615261Y-79547910D01*
X111584498Y-79702559D01*
X111584341Y-79704163D01*
X111584023Y-79704948D01*
X111583311Y-79708532D01*
X111582631Y-79708396D01*
X111558178Y-79768949D01*
X111508392Y-79806564D01*
X111380824Y-79859404D01*
X111380814Y-79859409D01*
X111249711Y-79947010D01*
X111249707Y-79947013D01*
X111138213Y-80058507D01*
X111138210Y-80058511D01*
X111050609Y-80189614D01*
X111050602Y-80189627D01*
X110990264Y-80335298D01*
X110990261Y-80335310D01*
X110959500Y-80489953D01*
X110959500Y-80632100D01*
X110939815Y-80699139D01*
X110887011Y-80744894D01*
X110835500Y-80756100D01*
X110480950Y-80756100D01*
X110413911Y-80736415D01*
X110412059Y-80735202D01*
X110317784Y-80672209D01*
X110317772Y-80672202D01*
X110172101Y-80611864D01*
X110172089Y-80611861D01*
X110017445Y-80581100D01*
X110017442Y-80581100D01*
X109859758Y-80581100D01*
X109859755Y-80581100D01*
X109705110Y-80611861D01*
X109705098Y-80611864D01*
X109559428Y-80672202D01*
X109554047Y-80675079D01*
X109553130Y-80673363D01*
X109495010Y-80691538D01*
X109427637Y-80673028D01*
X109423953Y-80670660D01*
X109418784Y-80667206D01*
X109418783Y-80667205D01*
X109418781Y-80667204D01*
X109418778Y-80667202D01*
X109418773Y-80667200D01*
X109273103Y-80606862D01*
X109273091Y-80606859D01*
X109118447Y-80576098D01*
X109118444Y-80576098D01*
X108960760Y-80576098D01*
X108960757Y-80576098D01*
X108806112Y-80606859D01*
X108806100Y-80606862D01*
X108660429Y-80667200D01*
X108660416Y-80667207D01*
X108529313Y-80754808D01*
X108529309Y-80754811D01*
X108417815Y-80866305D01*
X108417812Y-80866309D01*
X108330211Y-80997412D01*
X108330204Y-80997425D01*
X108269866Y-81143096D01*
X108269863Y-81143106D01*
X108255252Y-81216560D01*
X108222866Y-81278471D01*
X108185556Y-81303889D01*
X108185794Y-81304334D01*
X108181660Y-81306543D01*
X108181105Y-81306922D01*
X108180425Y-81307203D01*
X108180418Y-81307207D01*
X108049315Y-81394807D01*
X108049307Y-81394813D01*
X107937813Y-81506307D01*
X107937810Y-81506311D01*
X107850209Y-81637414D01*
X107850202Y-81637427D01*
X107789864Y-81783098D01*
X107789861Y-81783110D01*
X107759100Y-81937753D01*
X107759100Y-82095443D01*
X107789861Y-82250089D01*
X107789864Y-82250101D01*
X107850202Y-82395772D01*
X107850209Y-82395784D01*
X107913202Y-82490059D01*
X107934080Y-82556736D01*
X107934100Y-82558950D01*
X107934100Y-85888211D01*
X107958135Y-86009044D01*
X107958140Y-86009061D01*
X108005285Y-86122881D01*
X108005287Y-86122884D01*
X108005288Y-86122886D01*
X108034237Y-86166210D01*
X108073742Y-86225333D01*
X108160867Y-86312458D01*
X108160869Y-86312459D01*
X108171073Y-86322663D01*
X109513372Y-87664963D01*
X109546857Y-87726286D01*
X109541873Y-87795978D01*
X109500001Y-87851911D01*
X109434537Y-87876328D01*
X109425691Y-87876644D01*
X108601989Y-87876644D01*
X108534950Y-87856959D01*
X108514308Y-87840325D01*
X107429019Y-86755036D01*
X107395534Y-86693713D01*
X107392700Y-86667355D01*
X107392700Y-81101949D01*
X107392701Y-81101928D01*
X107392701Y-80972599D01*
X107373175Y-80874441D01*
X107373174Y-80874440D01*
X107371314Y-80865086D01*
X107368663Y-80851756D01*
X107338065Y-80777886D01*
X107321512Y-80737923D01*
X107321511Y-80737921D01*
X107321510Y-80737919D01*
X107253058Y-80635475D01*
X107253055Y-80635471D01*
X105350153Y-78732571D01*
X105339851Y-78722269D01*
X105339850Y-78722267D01*
X105252725Y-78635142D01*
X105190330Y-78593451D01*
X105183987Y-78589212D01*
X105183983Y-78589209D01*
X105150282Y-78566690D01*
X105150278Y-78566688D01*
X105069784Y-78533347D01*
X105036444Y-78519537D01*
X104976021Y-78507518D01*
X104971298Y-78506578D01*
X104971296Y-78506578D01*
X104915602Y-78495500D01*
X104915599Y-78495500D01*
X104915598Y-78495500D01*
X104247252Y-78495500D01*
X104217811Y-78486855D01*
X104187825Y-78480332D01*
X104182809Y-78476577D01*
X104180213Y-78475815D01*
X104159571Y-78459181D01*
X104083419Y-78383029D01*
X104049934Y-78321706D01*
X104047100Y-78295348D01*
X104047100Y-73952300D01*
X104066785Y-73885261D01*
X104119589Y-73839506D01*
X104171100Y-73828300D01*
X105477250Y-73828300D01*
X105544289Y-73847985D01*
X105546141Y-73849198D01*
X105640421Y-73912194D01*
X105640423Y-73912195D01*
X105640427Y-73912197D01*
X105737246Y-73952300D01*
X105786103Y-73972537D01*
X105940753Y-74003299D01*
X105940756Y-74003300D01*
X106090482Y-74003300D01*
X106157521Y-74022985D01*
X106203276Y-74075789D01*
X106213220Y-74144947D01*
X106212098Y-74151497D01*
X106211300Y-74155507D01*
X106211300Y-74332895D01*
X106245903Y-74506858D01*
X106245906Y-74506867D01*
X106313783Y-74670740D01*
X106313790Y-74670753D01*
X106412335Y-74818234D01*
X106412338Y-74818238D01*
X106537761Y-74943661D01*
X106537765Y-74943664D01*
X106685246Y-75042209D01*
X106685259Y-75042216D01*
X106808163Y-75093123D01*
X106849134Y-75110094D01*
X106849136Y-75110094D01*
X106849141Y-75110096D01*
X107023104Y-75144699D01*
X107023107Y-75144700D01*
X107023109Y-75144700D01*
X107200493Y-75144700D01*
X107200494Y-75144699D01*
X107258482Y-75133164D01*
X107374458Y-75110096D01*
X107374461Y-75110094D01*
X107374466Y-75110094D01*
X107538347Y-75042213D01*
X107538350Y-75042210D01*
X107538352Y-75042210D01*
X107578178Y-75015599D01*
X107644855Y-74994720D01*
X107647070Y-74994700D01*
X123767570Y-74994700D01*
X123834609Y-75014385D01*
X123855251Y-75031019D01*
X124470081Y-75645848D01*
X124503566Y-75707171D01*
X124506400Y-75733529D01*
X124506400Y-77475229D01*
X124486715Y-77542268D01*
X124485502Y-77544120D01*
X124458888Y-77583949D01*
X124458887Y-77583952D01*
X124391006Y-77747832D01*
X124391003Y-77747841D01*
X124356400Y-77921804D01*
X124356400Y-78099195D01*
X124391003Y-78273158D01*
X124391006Y-78273167D01*
X124458883Y-78437040D01*
X124458890Y-78437053D01*
X124557435Y-78584534D01*
X124557438Y-78584538D01*
X124682861Y-78709961D01*
X124682865Y-78709964D01*
X124830346Y-78808509D01*
X124830359Y-78808516D01*
X124953263Y-78859423D01*
X124994234Y-78876394D01*
X124994236Y-78876394D01*
X124994241Y-78876396D01*
X125168204Y-78910999D01*
X125168207Y-78911000D01*
X125168209Y-78911000D01*
X125345593Y-78911000D01*
X125345594Y-78910999D01*
X125403582Y-78899464D01*
X125519558Y-78876396D01*
X125519561Y-78876394D01*
X125519566Y-78876394D01*
X125683447Y-78808513D01*
X125830935Y-78709964D01*
X125956364Y-78584535D01*
X126054913Y-78437047D01*
X126122794Y-78273166D01*
X126157400Y-78099191D01*
X126157400Y-77921809D01*
X126157400Y-77921806D01*
X126157399Y-77921804D01*
X126122796Y-77747841D01*
X126122793Y-77747832D01*
X126054913Y-77583953D01*
X126054911Y-77583951D01*
X126054911Y-77583949D01*
X126028298Y-77544120D01*
X126007420Y-77477442D01*
X126007400Y-77475229D01*
X126007400Y-75297379D01*
X125978559Y-75152392D01*
X125978558Y-75152391D01*
X125978558Y-75152387D01*
X125932923Y-75042213D01*
X125921987Y-75015811D01*
X125921980Y-75015798D01*
X125839852Y-74892885D01*
X125839851Y-74892884D01*
X125735316Y-74788349D01*
X125453825Y-74506858D01*
X124608221Y-73661252D01*
X124608220Y-73661251D01*
X124527616Y-73607394D01*
X124527615Y-73607393D01*
X124485300Y-73579119D01*
X124485288Y-73579112D01*
X124348717Y-73522543D01*
X124348707Y-73522540D01*
X124203720Y-73493700D01*
X124203718Y-73493700D01*
X110991195Y-73493700D01*
X110924156Y-73474015D01*
X110878401Y-73421211D01*
X110868457Y-73352053D01*
X110876634Y-73322247D01*
X110893453Y-73281642D01*
X110913663Y-73232852D01*
X110937700Y-73112006D01*
X110937700Y-72872700D01*
X110957385Y-72805661D01*
X111010189Y-72759906D01*
X111061700Y-72748700D01*
X111153044Y-72748700D01*
X111153045Y-72748699D01*
X111307697Y-72717937D01*
X111453379Y-72657594D01*
X111547659Y-72594598D01*
X111614336Y-72573720D01*
X111616550Y-72573700D01*
X122475604Y-72573700D01*
X122475604Y-72573699D01*
X122583190Y-72552300D01*
X122596448Y-72549663D01*
X122629788Y-72535852D01*
X122710282Y-72502512D01*
X122776165Y-72458489D01*
X122812729Y-72434058D01*
X122899854Y-72346933D01*
X122899855Y-72346931D01*
X122906921Y-72339865D01*
X122906924Y-72339861D01*
X124477729Y-70769056D01*
X124477733Y-70769054D01*
X124564858Y-70681929D01*
X124633311Y-70579482D01*
X124680463Y-70465648D01*
X124704500Y-70344802D01*
X124704500Y-52304252D01*
X124713144Y-52274811D01*
X124719668Y-52244825D01*
X124723422Y-52239809D01*
X124724185Y-52237213D01*
X124740814Y-52216576D01*
X124860573Y-52096817D01*
X124921895Y-52063334D01*
X124948253Y-52060500D01*
X125009850Y-52060500D01*
X125076889Y-52080185D01*
X125078741Y-52081398D01*
X125173021Y-52144394D01*
X125173023Y-52144395D01*
X125173027Y-52144397D01*
X125289401Y-52192600D01*
X125318703Y-52204737D01*
X125473353Y-52235499D01*
X125473356Y-52235500D01*
X125473358Y-52235500D01*
X125631044Y-52235500D01*
X125631045Y-52235499D01*
X125785697Y-52204737D01*
X125931379Y-52144394D01*
X126062489Y-52056789D01*
X126173989Y-51945289D01*
X126261594Y-51814179D01*
X126321937Y-51668497D01*
X126352700Y-51513842D01*
X126352700Y-51356158D01*
X126352700Y-51356155D01*
X126352699Y-51356153D01*
X126321938Y-51201510D01*
X126321937Y-51201503D01*
X126306474Y-51164171D01*
X126261597Y-51055827D01*
X126261590Y-51055814D01*
X126173989Y-50924711D01*
X126173986Y-50924707D01*
X126062492Y-50813213D01*
X126062488Y-50813210D01*
X125931385Y-50725609D01*
X125931372Y-50725602D01*
X125785701Y-50665264D01*
X125785689Y-50665261D01*
X125631045Y-50634500D01*
X125631042Y-50634500D01*
X125473358Y-50634500D01*
X125473355Y-50634500D01*
X125318710Y-50665261D01*
X125318698Y-50665264D01*
X125173027Y-50725602D01*
X125173015Y-50725609D01*
X125078741Y-50788602D01*
X125012064Y-50809480D01*
X125009850Y-50809500D01*
X124705541Y-50809500D01*
X124705521Y-50809499D01*
X124699407Y-50809499D01*
X124576194Y-50809499D01*
X124475397Y-50829548D01*
X124475392Y-50829548D01*
X124455349Y-50833536D01*
X124455348Y-50833536D01*
X124425950Y-50845713D01*
X124356480Y-50853180D01*
X124294002Y-50821904D01*
X124258351Y-50761814D01*
X124254500Y-50731151D01*
X124254500Y-50290452D01*
X124263144Y-50261011D01*
X124269668Y-50231025D01*
X124273422Y-50226009D01*
X124274185Y-50223413D01*
X124290819Y-50202771D01*
X124396271Y-50097319D01*
X124457594Y-50063834D01*
X124483952Y-50061000D01*
X125019350Y-50061000D01*
X125086389Y-50080685D01*
X125088241Y-50081898D01*
X125182521Y-50144894D01*
X125182523Y-50144895D01*
X125182527Y-50144897D01*
X125328198Y-50205235D01*
X125328203Y-50205237D01*
X125457847Y-50231025D01*
X125482853Y-50235999D01*
X125482856Y-50236000D01*
X125482858Y-50236000D01*
X125640544Y-50236000D01*
X125640545Y-50235999D01*
X125795197Y-50205237D01*
X125940879Y-50144894D01*
X126071989Y-50057289D01*
X126183489Y-49945789D01*
X126271094Y-49814679D01*
X126331437Y-49668997D01*
X126351193Y-49569677D01*
X126361133Y-49519709D01*
X126393518Y-49457798D01*
X126454234Y-49423224D01*
X126482750Y-49419900D01*
X126818570Y-49419900D01*
X126885609Y-49439585D01*
X126906251Y-49456219D01*
X127610181Y-50160148D01*
X127643666Y-50221471D01*
X127646500Y-50247829D01*
X127646500Y-52830129D01*
X127626815Y-52897168D01*
X127625602Y-52899020D01*
X127598988Y-52938849D01*
X127598987Y-52938852D01*
X127531106Y-53102732D01*
X127531103Y-53102741D01*
X127496500Y-53276704D01*
X127496500Y-53454095D01*
X127531103Y-53628058D01*
X127531106Y-53628067D01*
X127598984Y-53791942D01*
X127598985Y-53791943D01*
X127598987Y-53791947D01*
X127625602Y-53831778D01*
X127646480Y-53898455D01*
X127646500Y-53900669D01*
X127646500Y-57147718D01*
X127646500Y-57147720D01*
X127646499Y-57147720D01*
X127675340Y-57292707D01*
X127675343Y-57292717D01*
X127731912Y-57429288D01*
X127731916Y-57429295D01*
X127756640Y-57466297D01*
X127756641Y-57466300D01*
X127756642Y-57466300D01*
X127814051Y-57552220D01*
X127814052Y-57552221D01*
X128011590Y-57749758D01*
X128227348Y-57965515D01*
X128227349Y-57965516D01*
X128322967Y-58061134D01*
X128331885Y-58070052D01*
X128454798Y-58152180D01*
X128454811Y-58152187D01*
X128591382Y-58208756D01*
X128591387Y-58208758D01*
X128591391Y-58208758D01*
X128591392Y-58208759D01*
X128736379Y-58237600D01*
X128736382Y-58237600D01*
X130372730Y-58237600D01*
X130439769Y-58257285D01*
X130441622Y-58258499D01*
X130481447Y-58285110D01*
X130481450Y-58285111D01*
X130481453Y-58285113D01*
X130645334Y-58352994D01*
X130645336Y-58352994D01*
X130645341Y-58352996D01*
X130819304Y-58387599D01*
X130819307Y-58387600D01*
X130819309Y-58387600D01*
X130996693Y-58387600D01*
X130996694Y-58387599D01*
X131054682Y-58376064D01*
X131170658Y-58352996D01*
X131170661Y-58352994D01*
X131170666Y-58352994D01*
X131334547Y-58285113D01*
X131482035Y-58186564D01*
X131607464Y-58061135D01*
X131706013Y-57913647D01*
X131773894Y-57749766D01*
X131808500Y-57575791D01*
X131808500Y-57398409D01*
X131808500Y-57398406D01*
X131808499Y-57398404D01*
X131773896Y-57224441D01*
X131773893Y-57224432D01*
X131706016Y-57060559D01*
X131706009Y-57060546D01*
X131607464Y-56913065D01*
X131607461Y-56913061D01*
X131482038Y-56787638D01*
X131482034Y-56787635D01*
X131334553Y-56689090D01*
X131334540Y-56689083D01*
X131170667Y-56621206D01*
X131170658Y-56621203D01*
X130996694Y-56586600D01*
X130996691Y-56586600D01*
X130819309Y-56586600D01*
X130819306Y-56586600D01*
X130645341Y-56621203D01*
X130645332Y-56621206D01*
X130481452Y-56689087D01*
X130481447Y-56689089D01*
X130441622Y-56715701D01*
X130374945Y-56736580D01*
X130372730Y-56736600D01*
X129271500Y-56736600D01*
X129204461Y-56716915D01*
X129158706Y-56664111D01*
X129147500Y-56612600D01*
X129147500Y-53900669D01*
X129167185Y-53833630D01*
X129168398Y-53831778D01*
X129195013Y-53791947D01*
X129262894Y-53628066D01*
X129276835Y-53557983D01*
X129297499Y-53454095D01*
X129297500Y-53454093D01*
X129297500Y-53276706D01*
X129297499Y-53276704D01*
X129262896Y-53102741D01*
X129262893Y-53102732D01*
X129195013Y-52938853D01*
X129195011Y-52938851D01*
X129195011Y-52938849D01*
X129168398Y-52899020D01*
X129147520Y-52832342D01*
X129147500Y-52830129D01*
X129147500Y-49811681D01*
X129147499Y-49811680D01*
X129135015Y-49748915D01*
X129118659Y-49666688D01*
X129071613Y-49553111D01*
X129062084Y-49530105D01*
X129059046Y-49525559D01*
X128988314Y-49419700D01*
X128988311Y-49419696D01*
X128987321Y-49418215D01*
X128979952Y-49407185D01*
X128759505Y-49186738D01*
X128504349Y-48931581D01*
X128470864Y-48870258D01*
X128475848Y-48800566D01*
X128517720Y-48744633D01*
X128583184Y-48720216D01*
X128592030Y-48719900D01*
X131601163Y-48719900D01*
X131668202Y-48739585D01*
G37*
%TD.AperFunction*%
%TA.AperFunction,Conductor*%
G36*
X133991903Y-64772939D02*
G01*
X133998360Y-64778950D01*
X134192499Y-64973090D01*
X134221268Y-65001859D01*
X134323710Y-65070309D01*
X134323711Y-65070309D01*
X134323715Y-65070312D01*
X134381937Y-65094428D01*
X134437548Y-65117463D01*
X134457597Y-65121451D01*
X134523006Y-65134462D01*
X134558392Y-65141501D01*
X134558394Y-65141501D01*
X134687721Y-65141501D01*
X134687741Y-65141500D01*
X136671700Y-65141500D01*
X136738739Y-65161185D01*
X136784494Y-65213989D01*
X136795700Y-65265500D01*
X136795700Y-83500952D01*
X136776015Y-83567991D01*
X136759381Y-83588633D01*
X134033033Y-86314981D01*
X133971710Y-86348466D01*
X133945352Y-86351300D01*
X110656649Y-86351300D01*
X110589610Y-86331615D01*
X110568968Y-86314981D01*
X110135819Y-85881832D01*
X110102334Y-85820509D01*
X110099500Y-85794151D01*
X110099500Y-82264261D01*
X110119185Y-82197222D01*
X110171989Y-82151467D01*
X110176026Y-82149709D01*
X110260142Y-82114868D01*
X110317773Y-82090997D01*
X110317775Y-82090995D01*
X110317779Y-82090994D01*
X110412059Y-82027998D01*
X110478736Y-82007120D01*
X110480950Y-82007100D01*
X112139471Y-82007100D01*
X112206510Y-82026785D01*
X112252265Y-82079589D01*
X112261476Y-82134866D01*
X112263100Y-82134866D01*
X112263100Y-82298646D01*
X112293861Y-82453289D01*
X112293864Y-82453301D01*
X112354202Y-82598972D01*
X112354209Y-82598985D01*
X112441810Y-82730088D01*
X112441813Y-82730092D01*
X112553307Y-82841586D01*
X112553311Y-82841589D01*
X112684414Y-82929190D01*
X112684427Y-82929197D01*
X112830098Y-82989535D01*
X112830103Y-82989537D01*
X112984753Y-83020299D01*
X112984756Y-83020300D01*
X112984758Y-83020300D01*
X113142444Y-83020300D01*
X113142445Y-83020299D01*
X113297097Y-82989537D01*
X113442779Y-82929194D01*
X113573889Y-82841589D01*
X113610058Y-82805420D01*
X113671380Y-82771934D01*
X113697740Y-82769100D01*
X130067903Y-82769100D01*
X130115355Y-82778539D01*
X130195503Y-82811737D01*
X130195506Y-82811737D01*
X130195511Y-82811739D01*
X130350153Y-82842499D01*
X130350156Y-82842500D01*
X130350158Y-82842500D01*
X130507844Y-82842500D01*
X130507845Y-82842499D01*
X130662497Y-82811737D01*
X130808179Y-82751394D01*
X130939289Y-82663789D01*
X131050789Y-82552289D01*
X131138394Y-82421179D01*
X131198737Y-82275497D01*
X131225499Y-82140958D01*
X131229499Y-82120848D01*
X131229687Y-82118944D01*
X131230063Y-82118010D01*
X131230689Y-82114868D01*
X131231285Y-82114986D01*
X131255849Y-82054157D01*
X131312884Y-82013799D01*
X131353090Y-82007100D01*
X132065408Y-82007100D01*
X132065408Y-82007099D01*
X132134041Y-81993448D01*
X132186252Y-81983063D01*
X132219592Y-81969252D01*
X132300086Y-81935912D01*
X132356653Y-81898114D01*
X132402533Y-81867458D01*
X132489658Y-81780333D01*
X132489659Y-81780330D01*
X132496725Y-81773265D01*
X132496728Y-81773261D01*
X133559929Y-80710060D01*
X133559933Y-80710058D01*
X133647058Y-80622933D01*
X133715511Y-80520486D01*
X133715512Y-80520485D01*
X133752205Y-80431900D01*
X133762663Y-80406652D01*
X133779395Y-80322533D01*
X133786700Y-80285807D01*
X133786700Y-80162593D01*
X133786700Y-64866652D01*
X133806385Y-64799613D01*
X133859189Y-64753858D01*
X133928347Y-64743914D01*
X133991903Y-64772939D01*
G37*
%TD.AperFunction*%
%TA.AperFunction,Conductor*%
G36*
X123023067Y-49421101D02*
G01*
X123027229Y-49420175D01*
X123056300Y-49430859D01*
X123086015Y-49439585D01*
X123088806Y-49442807D01*
X123092809Y-49444278D01*
X123111491Y-49468986D01*
X123131770Y-49492389D01*
X123132376Y-49496607D01*
X123134949Y-49500010D01*
X123137306Y-49530894D01*
X123141714Y-49561547D01*
X123139989Y-49566046D01*
X123140267Y-49569677D01*
X123128092Y-49602804D01*
X123125320Y-49607938D01*
X123108915Y-49632490D01*
X123074688Y-49683714D01*
X123045048Y-49755273D01*
X123042620Y-49761132D01*
X123042619Y-49761136D01*
X123027538Y-49797545D01*
X123027535Y-49797555D01*
X123003500Y-49918389D01*
X123003500Y-69786347D01*
X122983815Y-69853386D01*
X122967181Y-69874028D01*
X122179829Y-70661381D01*
X122118506Y-70694866D01*
X122092148Y-70697700D01*
X110854550Y-70697700D01*
X110787511Y-70678015D01*
X110785659Y-70676802D01*
X110691384Y-70613809D01*
X110691372Y-70613802D01*
X110545701Y-70553464D01*
X110545689Y-70553461D01*
X110391045Y-70522700D01*
X110391042Y-70522700D01*
X110233358Y-70522700D01*
X110233355Y-70522700D01*
X110078710Y-70553461D01*
X110078698Y-70553464D01*
X109933027Y-70613802D01*
X109933014Y-70613809D01*
X109801911Y-70701410D01*
X109801907Y-70701413D01*
X109690413Y-70812907D01*
X109690410Y-70812911D01*
X109602809Y-70944014D01*
X109602802Y-70944027D01*
X109542464Y-71089698D01*
X109542461Y-71089710D01*
X109511700Y-71244353D01*
X109511700Y-71402046D01*
X109542461Y-71556689D01*
X109542464Y-71556701D01*
X109602802Y-71702372D01*
X109602809Y-71702384D01*
X109665802Y-71796659D01*
X109686680Y-71863336D01*
X109686700Y-71865550D01*
X109686700Y-72739947D01*
X109667015Y-72806986D01*
X109650381Y-72827628D01*
X109470629Y-73007381D01*
X109443701Y-73022084D01*
X109417883Y-73038677D01*
X109411682Y-73039568D01*
X109409306Y-73040866D01*
X109382948Y-73043700D01*
X109207000Y-73043700D01*
X109139961Y-73024015D01*
X109094206Y-72971211D01*
X109083000Y-72919700D01*
X109083000Y-72819155D01*
X109082999Y-72819153D01*
X109067244Y-72739947D01*
X109052237Y-72664503D01*
X109050661Y-72660698D01*
X108991897Y-72518828D01*
X108991896Y-72518827D01*
X108991894Y-72518821D01*
X108928897Y-72424539D01*
X108908020Y-72357863D01*
X108908000Y-72355650D01*
X108908000Y-54906293D01*
X108907999Y-54906289D01*
X108898870Y-54860392D01*
X108883963Y-54785448D01*
X108836811Y-54671614D01*
X108836810Y-54671613D01*
X108836807Y-54671607D01*
X108768358Y-54569167D01*
X108768355Y-54569163D01*
X108678137Y-54478945D01*
X108678106Y-54478916D01*
X108421944Y-54222754D01*
X108388459Y-54161431D01*
X108388022Y-54159339D01*
X108374894Y-54093334D01*
X108347741Y-54027781D01*
X108307016Y-53929459D01*
X108307009Y-53929446D01*
X108208464Y-53781965D01*
X108208461Y-53781961D01*
X108083038Y-53656538D01*
X108083034Y-53656535D01*
X107935553Y-53557990D01*
X107935540Y-53557983D01*
X107771667Y-53490106D01*
X107771658Y-53490103D01*
X107597694Y-53455500D01*
X107597691Y-53455500D01*
X107420309Y-53455500D01*
X107420306Y-53455500D01*
X107246341Y-53490103D01*
X107246332Y-53490106D01*
X107082459Y-53557983D01*
X107082446Y-53557990D01*
X106934965Y-53656535D01*
X106934961Y-53656538D01*
X106809538Y-53781961D01*
X106809535Y-53781965D01*
X106710990Y-53929446D01*
X106710983Y-53929459D01*
X106643106Y-54093332D01*
X106643103Y-54093341D01*
X106608500Y-54267304D01*
X106608500Y-54444695D01*
X106643103Y-54618658D01*
X106643106Y-54618667D01*
X106710983Y-54782540D01*
X106710990Y-54782553D01*
X106809535Y-54930034D01*
X106809538Y-54930038D01*
X106934961Y-55055461D01*
X106934965Y-55055464D01*
X107082446Y-55154009D01*
X107082459Y-55154016D01*
X107205363Y-55204923D01*
X107246334Y-55221894D01*
X107246336Y-55221894D01*
X107246341Y-55221896D01*
X107420304Y-55256499D01*
X107420307Y-55256500D01*
X107533000Y-55256500D01*
X107541685Y-55259050D01*
X107550647Y-55257762D01*
X107574687Y-55268740D01*
X107600039Y-55276185D01*
X107605966Y-55283025D01*
X107614203Y-55286787D01*
X107628492Y-55309021D01*
X107645794Y-55328989D01*
X107648081Y-55339503D01*
X107651977Y-55345565D01*
X107657000Y-55380500D01*
X107657000Y-55541300D01*
X107637315Y-55608339D01*
X107584511Y-55654094D01*
X107533000Y-55665300D01*
X107468806Y-55665300D01*
X107294841Y-55699903D01*
X107294832Y-55699906D01*
X107130959Y-55767783D01*
X107130946Y-55767790D01*
X106983465Y-55866335D01*
X106983461Y-55866338D01*
X106858038Y-55991761D01*
X106858035Y-55991765D01*
X106759490Y-56139246D01*
X106759483Y-56139259D01*
X106691606Y-56303132D01*
X106691603Y-56303141D01*
X106657000Y-56477104D01*
X106657000Y-56654495D01*
X106691603Y-56828458D01*
X106691606Y-56828467D01*
X106759483Y-56992340D01*
X106759490Y-56992353D01*
X106858035Y-57139834D01*
X106858038Y-57139838D01*
X106895680Y-57177479D01*
X106929166Y-57238801D01*
X106932000Y-57265161D01*
X106932000Y-65900100D01*
X106912315Y-65967139D01*
X106859511Y-66012894D01*
X106808000Y-66024100D01*
X105300101Y-66024100D01*
X105233062Y-66004415D01*
X105187307Y-65951611D01*
X105177363Y-65882453D01*
X105206388Y-65818897D01*
X105265166Y-65781123D01*
X105275910Y-65778483D01*
X105388958Y-65755996D01*
X105388961Y-65755994D01*
X105388966Y-65755994D01*
X105552847Y-65688113D01*
X105700335Y-65589564D01*
X105825764Y-65464135D01*
X105924313Y-65316647D01*
X105930088Y-65302706D01*
X105943966Y-65269200D01*
X105992194Y-65152766D01*
X105994338Y-65141990D01*
X106022876Y-64998518D01*
X106026800Y-64978791D01*
X106026800Y-64801409D01*
X106026800Y-64801406D01*
X106026799Y-64801404D01*
X105992196Y-64627441D01*
X105992193Y-64627432D01*
X105967591Y-64568037D01*
X105924313Y-64463553D01*
X105924311Y-64463551D01*
X105924311Y-64463549D01*
X105897698Y-64423720D01*
X105876820Y-64357042D01*
X105876800Y-64354829D01*
X105876800Y-53020729D01*
X105896485Y-52953690D01*
X105913119Y-52933048D01*
X106617248Y-52228919D01*
X106678571Y-52195434D01*
X106704929Y-52192600D01*
X118073230Y-52192600D01*
X118140269Y-52212285D01*
X118142122Y-52213499D01*
X118181947Y-52240110D01*
X118181950Y-52240111D01*
X118181953Y-52240113D01*
X118345834Y-52307994D01*
X118345836Y-52307994D01*
X118345841Y-52307996D01*
X118519804Y-52342599D01*
X118519807Y-52342600D01*
X118519809Y-52342600D01*
X118697193Y-52342600D01*
X118697194Y-52342599D01*
X118755182Y-52331064D01*
X118871158Y-52307996D01*
X118871161Y-52307994D01*
X118871166Y-52307994D01*
X119035047Y-52240113D01*
X119182535Y-52141564D01*
X119307964Y-52016135D01*
X119406513Y-51868647D01*
X119474394Y-51704766D01*
X119481609Y-51668497D01*
X119508999Y-51530795D01*
X119509000Y-51530793D01*
X119509000Y-51353406D01*
X119508999Y-51353404D01*
X119474396Y-51179441D01*
X119474393Y-51179432D01*
X119468072Y-51164171D01*
X119406513Y-51015553D01*
X119406511Y-51015551D01*
X119406511Y-51015549D01*
X119379898Y-50975720D01*
X119359020Y-50909042D01*
X119359000Y-50906829D01*
X119359000Y-49977929D01*
X119378685Y-49910890D01*
X119395319Y-49890248D01*
X119829348Y-49456219D01*
X119890671Y-49422734D01*
X119917029Y-49419900D01*
X123018976Y-49419900D01*
X123023067Y-49421101D01*
G37*
%TD.AperFunction*%
%TA.AperFunction,Conductor*%
G36*
X106610349Y-67294785D02*
G01*
X106656104Y-67347589D01*
X106665619Y-67382886D01*
X106665711Y-67382868D01*
X106665983Y-67384237D01*
X106666713Y-67386944D01*
X106666900Y-67388848D01*
X106697661Y-67543489D01*
X106697664Y-67543501D01*
X106758002Y-67689172D01*
X106758009Y-67689184D01*
X106821002Y-67783459D01*
X106841880Y-67850136D01*
X106841900Y-67852350D01*
X106841900Y-72593659D01*
X106822215Y-72660698D01*
X106769411Y-72706453D01*
X106700253Y-72716397D01*
X106636697Y-72687372D01*
X106630219Y-72681340D01*
X106529892Y-72581013D01*
X106529888Y-72581010D01*
X106398785Y-72493409D01*
X106398772Y-72493402D01*
X106253101Y-72433064D01*
X106253089Y-72433061D01*
X106098445Y-72402300D01*
X106098442Y-72402300D01*
X105940758Y-72402300D01*
X105940755Y-72402300D01*
X105786110Y-72433061D01*
X105786098Y-72433064D01*
X105640427Y-72493402D01*
X105640415Y-72493409D01*
X105546141Y-72556402D01*
X105479464Y-72577280D01*
X105477250Y-72577300D01*
X103871412Y-72577300D01*
X103871407Y-72577299D01*
X103748194Y-72577299D01*
X103734476Y-72580027D01*
X103723444Y-72580236D01*
X103699947Y-72573816D01*
X103675688Y-72571643D01*
X103666846Y-72564772D01*
X103656045Y-72561822D01*
X103639748Y-72543718D01*
X103620515Y-72528774D01*
X103616791Y-72518214D01*
X103609300Y-72509893D01*
X103605378Y-72485852D01*
X103597277Y-72462882D01*
X103597100Y-72456258D01*
X103597100Y-67574100D01*
X103616785Y-67507061D01*
X103669589Y-67461306D01*
X103721100Y-67450100D01*
X103812444Y-67450100D01*
X103812445Y-67450099D01*
X103967097Y-67419337D01*
X104112779Y-67358994D01*
X104207059Y-67295998D01*
X104273736Y-67275120D01*
X104275950Y-67275100D01*
X106543310Y-67275100D01*
X106610349Y-67294785D01*
G37*
%TD.AperFunction*%
%TA.AperFunction,Conductor*%
G36*
X166754418Y-32840816D02*
G01*
X166954561Y-32855130D01*
X166972063Y-32857647D01*
X167163795Y-32899355D01*
X167180760Y-32904336D01*
X167364611Y-32972909D01*
X167380694Y-32980253D01*
X167497495Y-33044032D01*
X167552908Y-33074290D01*
X167567791Y-33083855D01*
X167724864Y-33201438D01*
X167738235Y-33213024D01*
X167876975Y-33351764D01*
X167888561Y-33365135D01*
X168006144Y-33522208D01*
X168015709Y-33537091D01*
X168109743Y-33709300D01*
X168117093Y-33725394D01*
X168185661Y-33909234D01*
X168190645Y-33926209D01*
X168232351Y-34117931D01*
X168234869Y-34135442D01*
X168249184Y-34335580D01*
X168249500Y-34344427D01*
X168249500Y-41335572D01*
X168249184Y-41344419D01*
X168234869Y-41544557D01*
X168232351Y-41562068D01*
X168190645Y-41753790D01*
X168185661Y-41770765D01*
X168117093Y-41954605D01*
X168109743Y-41970699D01*
X168015709Y-42142908D01*
X168006144Y-42157791D01*
X167888561Y-42314864D01*
X167876975Y-42328235D01*
X167738235Y-42466975D01*
X167724864Y-42478561D01*
X167567791Y-42596144D01*
X167552908Y-42605709D01*
X167380699Y-42699743D01*
X167364605Y-42707093D01*
X167180765Y-42775661D01*
X167163790Y-42780645D01*
X166972068Y-42822351D01*
X166954557Y-42824869D01*
X166773779Y-42837799D01*
X166754417Y-42839184D01*
X166745572Y-42839500D01*
X162598746Y-42839500D01*
X162448598Y-42857731D01*
X162298449Y-42875963D01*
X162149459Y-42912685D01*
X162004728Y-42948358D01*
X161721886Y-43055627D01*
X161615711Y-43111352D01*
X161454032Y-43196207D01*
X161454030Y-43196208D01*
X161454025Y-43196211D01*
X161205070Y-43368054D01*
X160978648Y-43568646D01*
X160978646Y-43568648D01*
X160778054Y-43795070D01*
X160606211Y-44044025D01*
X160465627Y-44311886D01*
X160358358Y-44594728D01*
X160358357Y-44594734D01*
X160285963Y-44888449D01*
X160275321Y-44976091D01*
X160249500Y-45188745D01*
X160249500Y-128610995D01*
X160229815Y-128678034D01*
X160177011Y-128723789D01*
X160125500Y-128734995D01*
X130374000Y-128734990D01*
X130306961Y-128715305D01*
X130261206Y-128662501D01*
X130250000Y-128610990D01*
X130250000Y-124338549D01*
X136534500Y-124338549D01*
X136534500Y-124561450D01*
X136534501Y-124561466D01*
X136563594Y-124782452D01*
X136563595Y-124782457D01*
X136563596Y-124782463D01*
X136563597Y-124782465D01*
X136621290Y-124997780D01*
X136621293Y-124997790D01*
X136706593Y-125203722D01*
X136706595Y-125203726D01*
X136818052Y-125396774D01*
X136818057Y-125396780D01*
X136818058Y-125396782D01*
X136953751Y-125573622D01*
X136953757Y-125573629D01*
X137111370Y-125731242D01*
X137111376Y-125731247D01*
X137288226Y-125866948D01*
X137481274Y-125978405D01*
X137687219Y-126063710D01*
X137902537Y-126121404D01*
X138123543Y-126150500D01*
X138123550Y-126150500D01*
X138346450Y-126150500D01*
X138346457Y-126150500D01*
X138567463Y-126121404D01*
X138782781Y-126063710D01*
X138988726Y-125978405D01*
X139181774Y-125866948D01*
X139358624Y-125731247D01*
X139516247Y-125573624D01*
X139651948Y-125396774D01*
X139763405Y-125203726D01*
X139848710Y-124997781D01*
X139906404Y-124782463D01*
X139935500Y-124561457D01*
X139935500Y-124338549D01*
X141614500Y-124338549D01*
X141614500Y-124561450D01*
X141614501Y-124561466D01*
X141643594Y-124782452D01*
X141643595Y-124782457D01*
X141643596Y-124782463D01*
X141643597Y-124782465D01*
X141701290Y-124997780D01*
X141701293Y-124997790D01*
X141786593Y-125203722D01*
X141786595Y-125203726D01*
X141898052Y-125396774D01*
X141898057Y-125396780D01*
X141898058Y-125396782D01*
X142033751Y-125573622D01*
X142033757Y-125573629D01*
X142191370Y-125731242D01*
X142191376Y-125731247D01*
X142368226Y-125866948D01*
X142561274Y-125978405D01*
X142767219Y-126063710D01*
X142982537Y-126121404D01*
X143203543Y-126150500D01*
X143203550Y-126150500D01*
X143426450Y-126150500D01*
X143426457Y-126150500D01*
X143647463Y-126121404D01*
X143862781Y-126063710D01*
X144068726Y-125978405D01*
X144261774Y-125866948D01*
X144438624Y-125731247D01*
X144596247Y-125573624D01*
X144731948Y-125396774D01*
X144843405Y-125203726D01*
X144928710Y-124997781D01*
X144986404Y-124782463D01*
X145015500Y-124561457D01*
X145015500Y-124338543D01*
X144986404Y-124117537D01*
X144928710Y-123902219D01*
X144843405Y-123696274D01*
X144731948Y-123503226D01*
X144688574Y-123446700D01*
X144596248Y-123326377D01*
X144596242Y-123326370D01*
X144438629Y-123168757D01*
X144438622Y-123168751D01*
X144261782Y-123033058D01*
X144261780Y-123033057D01*
X144261774Y-123033052D01*
X144068726Y-122921595D01*
X144068722Y-122921593D01*
X143862790Y-122836293D01*
X143862783Y-122836291D01*
X143862781Y-122836290D01*
X143647463Y-122778596D01*
X143647457Y-122778595D01*
X143647452Y-122778594D01*
X143426466Y-122749501D01*
X143426463Y-122749500D01*
X143426457Y-122749500D01*
X143203543Y-122749500D01*
X143203537Y-122749500D01*
X143203533Y-122749501D01*
X142982547Y-122778594D01*
X142982540Y-122778595D01*
X142982537Y-122778596D01*
X142767219Y-122836290D01*
X142767209Y-122836293D01*
X142561277Y-122921593D01*
X142561273Y-122921595D01*
X142368226Y-123033052D01*
X142368217Y-123033058D01*
X142191377Y-123168751D01*
X142191370Y-123168757D01*
X142033757Y-123326370D01*
X142033751Y-123326377D01*
X141898058Y-123503217D01*
X141898052Y-123503226D01*
X141786595Y-123696273D01*
X141786593Y-123696277D01*
X141701293Y-123902209D01*
X141701290Y-123902219D01*
X141643597Y-124117534D01*
X141643594Y-124117547D01*
X141614501Y-124338533D01*
X141614500Y-124338549D01*
X139935500Y-124338549D01*
X139935500Y-124338543D01*
X139906404Y-124117537D01*
X139848710Y-123902219D01*
X139763405Y-123696274D01*
X139651948Y-123503226D01*
X139608574Y-123446700D01*
X139516248Y-123326377D01*
X139516242Y-123326370D01*
X139358629Y-123168757D01*
X139358622Y-123168751D01*
X139181782Y-123033058D01*
X139181780Y-123033057D01*
X139181774Y-123033052D01*
X138988726Y-122921595D01*
X138988722Y-122921593D01*
X138782790Y-122836293D01*
X138782783Y-122836291D01*
X138782781Y-122836290D01*
X138567463Y-122778596D01*
X138567457Y-122778595D01*
X138567452Y-122778594D01*
X138346466Y-122749501D01*
X138346463Y-122749500D01*
X138346457Y-122749500D01*
X138123543Y-122749500D01*
X138123537Y-122749500D01*
X138123533Y-122749501D01*
X137902547Y-122778594D01*
X137902540Y-122778595D01*
X137902537Y-122778596D01*
X137687219Y-122836290D01*
X137687209Y-122836293D01*
X137481277Y-122921593D01*
X137481273Y-122921595D01*
X137288226Y-123033052D01*
X137288217Y-123033058D01*
X137111377Y-123168751D01*
X137111370Y-123168757D01*
X136953757Y-123326370D01*
X136953751Y-123326377D01*
X136818058Y-123503217D01*
X136818052Y-123503226D01*
X136706595Y-123696273D01*
X136706593Y-123696277D01*
X136621293Y-123902209D01*
X136621290Y-123902219D01*
X136563597Y-124117534D01*
X136563594Y-124117547D01*
X136534501Y-124338533D01*
X136534500Y-124338549D01*
X130250000Y-124338549D01*
X130250000Y-123507425D01*
X130249999Y-123507424D01*
X101394550Y-123519143D01*
X101327503Y-123499486D01*
X101281727Y-123446700D01*
X101270500Y-123395143D01*
X101270500Y-118063653D01*
X105228600Y-118063653D01*
X105228600Y-118221346D01*
X105259361Y-118375989D01*
X105259364Y-118376001D01*
X105319702Y-118521672D01*
X105319709Y-118521685D01*
X105407310Y-118652788D01*
X105407313Y-118652792D01*
X105518807Y-118764286D01*
X105518811Y-118764289D01*
X105649914Y-118851890D01*
X105649927Y-118851897D01*
X105755430Y-118895597D01*
X105795603Y-118912237D01*
X105932130Y-118939394D01*
X105950253Y-118942999D01*
X105950256Y-118943000D01*
X105950258Y-118943000D01*
X106107944Y-118943000D01*
X106107945Y-118942999D01*
X106262597Y-118912237D01*
X106408279Y-118851894D01*
X106437158Y-118832597D01*
X106503834Y-118811720D01*
X106506048Y-118811700D01*
X111725650Y-118811700D01*
X111792689Y-118831385D01*
X111794541Y-118832598D01*
X111888821Y-118895594D01*
X111888823Y-118895595D01*
X111888827Y-118895597D01*
X112003270Y-118943000D01*
X112034503Y-118955937D01*
X112189153Y-118986699D01*
X112189156Y-118986700D01*
X112189158Y-118986700D01*
X112346844Y-118986700D01*
X112346845Y-118986699D01*
X112501497Y-118955937D01*
X112647179Y-118895594D01*
X112778289Y-118807989D01*
X112889789Y-118696489D01*
X112977394Y-118565379D01*
X113037737Y-118419697D01*
X113068500Y-118265042D01*
X113068500Y-118107358D01*
X113068500Y-118107355D01*
X113068499Y-118107353D01*
X113037738Y-117952710D01*
X113037737Y-117952703D01*
X113026884Y-117926501D01*
X112977397Y-117807027D01*
X112977390Y-117807014D01*
X112889789Y-117675911D01*
X112889786Y-117675907D01*
X112778292Y-117564413D01*
X112778288Y-117564410D01*
X112647185Y-117476809D01*
X112647172Y-117476802D01*
X112501501Y-117416464D01*
X112501489Y-117416461D01*
X112346845Y-117385700D01*
X112346842Y-117385700D01*
X112189158Y-117385700D01*
X112189155Y-117385700D01*
X112034510Y-117416461D01*
X112034498Y-117416464D01*
X111888827Y-117476802D01*
X111888815Y-117476809D01*
X111794541Y-117539802D01*
X111727864Y-117560680D01*
X111725650Y-117560700D01*
X106630741Y-117560700D01*
X106563702Y-117541015D01*
X106543060Y-117524381D01*
X106539392Y-117520713D01*
X106539388Y-117520710D01*
X106408285Y-117433109D01*
X106408272Y-117433102D01*
X106262601Y-117372764D01*
X106262589Y-117372761D01*
X106107945Y-117342000D01*
X106107942Y-117342000D01*
X105950258Y-117342000D01*
X105950255Y-117342000D01*
X105795610Y-117372761D01*
X105795598Y-117372764D01*
X105649927Y-117433102D01*
X105649914Y-117433109D01*
X105518811Y-117520710D01*
X105518807Y-117520713D01*
X105407313Y-117632207D01*
X105407310Y-117632211D01*
X105319709Y-117763314D01*
X105319702Y-117763327D01*
X105259364Y-117908998D01*
X105259361Y-117909010D01*
X105228600Y-118063653D01*
X101270500Y-118063653D01*
X101270500Y-109599149D01*
X114631500Y-109599149D01*
X114631500Y-109822050D01*
X114631501Y-109822066D01*
X114660594Y-110043052D01*
X114660595Y-110043057D01*
X114660596Y-110043063D01*
X114709748Y-110226500D01*
X114718290Y-110258380D01*
X114718293Y-110258390D01*
X114797265Y-110449044D01*
X114803595Y-110464326D01*
X114915052Y-110657374D01*
X114915057Y-110657380D01*
X114915058Y-110657382D01*
X115050751Y-110834222D01*
X115050757Y-110834229D01*
X115208370Y-110991842D01*
X115208376Y-110991847D01*
X115385226Y-111127548D01*
X115578274Y-111239005D01*
X115784219Y-111324310D01*
X115999537Y-111382004D01*
X116220543Y-111411100D01*
X116220550Y-111411100D01*
X116443450Y-111411100D01*
X116443457Y-111411100D01*
X116664463Y-111382004D01*
X116879781Y-111324310D01*
X117085726Y-111239005D01*
X117278774Y-111127548D01*
X117455624Y-110991847D01*
X117613247Y-110834224D01*
X117748948Y-110657374D01*
X117860405Y-110464326D01*
X117945710Y-110258381D01*
X118003404Y-110043063D01*
X118032500Y-109822057D01*
X118032500Y-109599143D01*
X118003404Y-109378137D01*
X117945710Y-109162819D01*
X117944826Y-109160686D01*
X117897675Y-109046851D01*
X117860405Y-108956874D01*
X117748948Y-108763826D01*
X117653211Y-108639058D01*
X117613248Y-108586977D01*
X117613242Y-108586970D01*
X117455629Y-108429357D01*
X117455622Y-108429351D01*
X117278782Y-108293658D01*
X117278780Y-108293657D01*
X117278774Y-108293652D01*
X117085726Y-108182195D01*
X117085722Y-108182193D01*
X116879790Y-108096893D01*
X116879783Y-108096891D01*
X116879781Y-108096890D01*
X116664463Y-108039196D01*
X116664457Y-108039195D01*
X116664452Y-108039194D01*
X116443466Y-108010101D01*
X116443463Y-108010100D01*
X116443457Y-108010100D01*
X116220543Y-108010100D01*
X116220537Y-108010100D01*
X116220533Y-108010101D01*
X115999547Y-108039194D01*
X115999540Y-108039195D01*
X115999537Y-108039196D01*
X115784219Y-108096890D01*
X115784209Y-108096893D01*
X115578277Y-108182193D01*
X115578273Y-108182195D01*
X115385226Y-108293652D01*
X115385217Y-108293658D01*
X115208377Y-108429351D01*
X115208370Y-108429357D01*
X115050757Y-108586970D01*
X115050751Y-108586977D01*
X114915058Y-108763817D01*
X114915052Y-108763826D01*
X114803595Y-108956873D01*
X114803593Y-108956877D01*
X114718293Y-109162809D01*
X114718290Y-109162819D01*
X114670250Y-109342110D01*
X114660597Y-109378134D01*
X114660594Y-109378147D01*
X114631501Y-109599133D01*
X114631500Y-109599149D01*
X101270500Y-109599149D01*
X101270500Y-104519149D01*
X114631500Y-104519149D01*
X114631500Y-104742050D01*
X114631501Y-104742066D01*
X114660594Y-104963052D01*
X114660595Y-104963057D01*
X114660596Y-104963063D01*
X114704615Y-105127344D01*
X114718290Y-105178380D01*
X114718293Y-105178390D01*
X114803593Y-105384322D01*
X114803595Y-105384326D01*
X114915052Y-105577374D01*
X114915057Y-105577380D01*
X114915058Y-105577382D01*
X115050751Y-105754222D01*
X115050757Y-105754229D01*
X115208370Y-105911842D01*
X115208377Y-105911848D01*
X115245251Y-105940142D01*
X115385226Y-106047548D01*
X115578274Y-106159005D01*
X115657147Y-106191675D01*
X115736639Y-106224602D01*
X115784219Y-106244310D01*
X115999537Y-106302004D01*
X116220543Y-106331100D01*
X116220550Y-106331100D01*
X116443450Y-106331100D01*
X116443457Y-106331100D01*
X116664463Y-106302004D01*
X116879781Y-106244310D01*
X117085726Y-106159005D01*
X117278774Y-106047548D01*
X117455624Y-105911847D01*
X117613247Y-105754224D01*
X117748948Y-105577374D01*
X117860405Y-105384326D01*
X117945710Y-105178381D01*
X118003404Y-104963063D01*
X118032500Y-104742057D01*
X118032500Y-104519143D01*
X118003404Y-104298137D01*
X117945710Y-104082819D01*
X117860405Y-103876874D01*
X117748948Y-103683826D01*
X117700544Y-103620744D01*
X117613248Y-103506977D01*
X117613242Y-103506970D01*
X117455629Y-103349357D01*
X117455622Y-103349351D01*
X117278782Y-103213658D01*
X117278780Y-103213657D01*
X117278774Y-103213652D01*
X117085726Y-103102195D01*
X117085722Y-103102193D01*
X116879790Y-103016893D01*
X116879783Y-103016891D01*
X116879781Y-103016890D01*
X116664463Y-102959196D01*
X116664457Y-102959195D01*
X116664452Y-102959194D01*
X116443466Y-102930101D01*
X116443463Y-102930100D01*
X116443457Y-102930100D01*
X116220543Y-102930100D01*
X116220537Y-102930100D01*
X116220533Y-102930101D01*
X115999547Y-102959194D01*
X115999540Y-102959195D01*
X115999537Y-102959196D01*
X115834244Y-103003486D01*
X115784219Y-103016890D01*
X115784209Y-103016893D01*
X115578277Y-103102193D01*
X115578273Y-103102195D01*
X115385226Y-103213652D01*
X115385217Y-103213658D01*
X115208377Y-103349351D01*
X115208370Y-103349357D01*
X115050757Y-103506970D01*
X115050751Y-103506977D01*
X114915058Y-103683817D01*
X114915052Y-103683826D01*
X114803595Y-103876873D01*
X114803593Y-103876877D01*
X114718293Y-104082809D01*
X114718290Y-104082819D01*
X114661988Y-104292944D01*
X114660597Y-104298134D01*
X114660594Y-104298147D01*
X114631501Y-104519133D01*
X114631500Y-104519149D01*
X101270500Y-104519149D01*
X101270500Y-65233198D01*
X101896100Y-65233198D01*
X101896100Y-79040198D01*
X101917844Y-79149519D01*
X101919944Y-79160076D01*
X101920137Y-79161043D01*
X101920137Y-79161044D01*
X101967285Y-79274873D01*
X101967287Y-79274876D01*
X101967288Y-79274878D01*
X101999000Y-79322337D01*
X102035742Y-79377325D01*
X102122867Y-79464450D01*
X102122869Y-79464451D01*
X102132957Y-79474539D01*
X103165271Y-80506855D01*
X103165275Y-80506858D01*
X103267720Y-80575310D01*
X103267719Y-80575310D01*
X103267721Y-80575311D01*
X103267723Y-80575312D01*
X103308290Y-80592115D01*
X103381556Y-80622463D01*
X103401605Y-80626451D01*
X103476568Y-80641362D01*
X103502400Y-80646501D01*
X103502402Y-80646501D01*
X103631729Y-80646501D01*
X103631749Y-80646500D01*
X104170748Y-80646500D01*
X104237787Y-80666185D01*
X104258429Y-80682819D01*
X105205381Y-81629771D01*
X105238866Y-81691094D01*
X105241700Y-81717452D01*
X105241700Y-87412204D01*
X105265543Y-87532080D01*
X105265736Y-87533047D01*
X105267501Y-87538859D01*
X105265542Y-87539453D01*
X105268104Y-87564718D01*
X105271806Y-87599131D01*
X105271630Y-87599481D01*
X105271670Y-87599873D01*
X105256005Y-87630700D01*
X105240534Y-87661612D01*
X105240135Y-87661930D01*
X105240018Y-87662163D01*
X105238778Y-87663018D01*
X105212404Y-87684143D01*
X105205069Y-87688435D01*
X105157821Y-87708006D01*
X105060462Y-87773059D01*
X105057279Y-87774922D01*
X105026812Y-87782502D01*
X104996864Y-87791880D01*
X104994650Y-87791900D01*
X104916589Y-87791900D01*
X104861688Y-87802820D01*
X104861681Y-87802822D01*
X104856171Y-87803918D01*
X104795748Y-87815937D01*
X104748597Y-87835467D01*
X104742535Y-87837977D01*
X104742528Y-87837980D01*
X104681918Y-87863085D01*
X104662771Y-87875879D01*
X104656390Y-87880143D01*
X104656389Y-87880144D01*
X104656388Y-87880143D01*
X104579466Y-87931542D01*
X104579465Y-87931543D01*
X104535904Y-87975105D01*
X104492342Y-88018667D01*
X103917052Y-88593956D01*
X103917046Y-88593964D01*
X103882822Y-88645181D01*
X103882823Y-88645182D01*
X103848596Y-88696405D01*
X103848595Y-88696407D01*
X103836053Y-88726689D01*
X103836052Y-88726690D01*
X103807699Y-88795141D01*
X103807699Y-88795142D01*
X103801446Y-88810237D01*
X103801443Y-88810247D01*
X103778083Y-88927690D01*
X103778082Y-88927697D01*
X103777408Y-88931079D01*
X103777408Y-94057919D01*
X103801443Y-94178752D01*
X103801448Y-94178769D01*
X103848593Y-94292589D01*
X103848596Y-94292595D01*
X103865679Y-94318160D01*
X103881253Y-94341467D01*
X103917050Y-94395041D01*
X104004175Y-94482166D01*
X104004178Y-94482168D01*
X104011542Y-94489532D01*
X105107816Y-95585806D01*
X105107845Y-95585837D01*
X105198063Y-95676055D01*
X105198067Y-95676058D01*
X105300507Y-95744507D01*
X105300513Y-95744510D01*
X105300514Y-95744511D01*
X105414348Y-95791663D01*
X105474771Y-95803681D01*
X105535193Y-95815700D01*
X105535194Y-95815700D01*
X105755143Y-95815700D01*
X105775357Y-95821635D01*
X105796395Y-95822763D01*
X105808208Y-95831282D01*
X105822182Y-95835385D01*
X105835977Y-95851305D01*
X105853067Y-95863629D01*
X105858399Y-95877182D01*
X105867937Y-95888189D01*
X105870935Y-95909042D01*
X105878649Y-95928647D01*
X105877319Y-95953444D01*
X105877881Y-95957347D01*
X105876761Y-95963890D01*
X105870317Y-95996287D01*
X105859923Y-96048543D01*
X105859922Y-96048545D01*
X105854900Y-96073791D01*
X105854900Y-98328600D01*
X105835215Y-98395639D01*
X105782411Y-98441394D01*
X105730900Y-98452600D01*
X104620952Y-98452600D01*
X104553913Y-98432915D01*
X104533271Y-98416281D01*
X103430219Y-97313229D01*
X103396734Y-97251906D01*
X103393900Y-97225548D01*
X103393900Y-82737900D01*
X103413585Y-82670861D01*
X103466389Y-82625106D01*
X103517900Y-82613900D01*
X103634644Y-82613900D01*
X103634645Y-82613899D01*
X103789297Y-82583137D01*
X103934979Y-82522794D01*
X104066089Y-82435189D01*
X104177589Y-82323689D01*
X104265194Y-82192579D01*
X104325537Y-82046897D01*
X104356300Y-81892242D01*
X104356300Y-81734558D01*
X104356300Y-81734555D01*
X104356299Y-81734553D01*
X104336978Y-81637421D01*
X104325537Y-81579903D01*
X104325535Y-81579898D01*
X104265197Y-81434227D01*
X104265190Y-81434214D01*
X104177589Y-81303111D01*
X104177586Y-81303107D01*
X104066092Y-81191613D01*
X104066088Y-81191610D01*
X103934985Y-81104009D01*
X103934972Y-81104002D01*
X103789301Y-81043664D01*
X103789289Y-81043661D01*
X103634645Y-81012900D01*
X103634642Y-81012900D01*
X103476958Y-81012900D01*
X103476955Y-81012900D01*
X103322310Y-81043661D01*
X103322298Y-81043664D01*
X103176627Y-81104002D01*
X103176614Y-81104009D01*
X103056005Y-81184598D01*
X103011306Y-81203113D01*
X102966953Y-81211935D01*
X102966947Y-81211937D01*
X102853116Y-81259087D01*
X102761966Y-81319991D01*
X102761967Y-81319992D01*
X102750662Y-81327545D01*
X102750660Y-81327547D01*
X102448438Y-81629771D01*
X102369669Y-81708540D01*
X102369667Y-81708542D01*
X102343656Y-81734553D01*
X102282540Y-81795668D01*
X102256832Y-81834145D01*
X102256830Y-81834148D01*
X102218009Y-81892246D01*
X102214089Y-81898113D01*
X102214085Y-81898118D01*
X102181027Y-81977930D01*
X102181027Y-81977931D01*
X102168937Y-82007120D01*
X102166935Y-82011954D01*
X102154918Y-82072365D01*
X102154918Y-82072371D01*
X102151216Y-82090990D01*
X102150332Y-82095434D01*
X102150330Y-82095443D01*
X102142900Y-82132792D01*
X102142900Y-97597611D01*
X102166935Y-97718444D01*
X102166940Y-97718461D01*
X102214085Y-97832281D01*
X102214087Y-97832285D01*
X102225467Y-97849315D01*
X102225468Y-97849317D01*
X102282541Y-97934732D01*
X102282544Y-97934736D01*
X102373986Y-98026178D01*
X102374008Y-98026198D01*
X103824639Y-99476829D01*
X103824642Y-99476833D01*
X103911767Y-99563958D01*
X103963159Y-99598297D01*
X104014215Y-99632412D01*
X104067698Y-99654565D01*
X104128048Y-99679563D01*
X104230222Y-99699886D01*
X104248889Y-99703599D01*
X104248893Y-99703600D01*
X104248894Y-99703600D01*
X105938050Y-99703600D01*
X106005089Y-99723285D01*
X106006941Y-99724498D01*
X106101221Y-99787494D01*
X106101223Y-99787495D01*
X106101227Y-99787497D01*
X106246898Y-99847835D01*
X106246903Y-99847837D01*
X106367302Y-99871786D01*
X106401553Y-99878599D01*
X106401556Y-99878600D01*
X106401558Y-99878600D01*
X106559244Y-99878600D01*
X106559245Y-99878599D01*
X106713897Y-99847837D01*
X106859579Y-99787494D01*
X106990689Y-99699889D01*
X107102189Y-99588389D01*
X107189794Y-99457279D01*
X107250137Y-99311597D01*
X107280900Y-99156942D01*
X107280900Y-98999258D01*
X107280900Y-98999255D01*
X107280899Y-98999253D01*
X107264207Y-98915337D01*
X107250137Y-98844603D01*
X107228453Y-98792253D01*
X107189797Y-98698928D01*
X107189796Y-98698927D01*
X107189794Y-98698921D01*
X107126797Y-98604639D01*
X107105920Y-98537963D01*
X107105900Y-98535750D01*
X107105900Y-96445853D01*
X107114544Y-96416415D01*
X107121068Y-96386425D01*
X107124822Y-96381409D01*
X107125585Y-96378814D01*
X107142220Y-96358171D01*
X107198374Y-96302018D01*
X107259697Y-96268534D01*
X107286054Y-96265700D01*
X107905106Y-96265700D01*
X107972145Y-96285385D01*
X108017900Y-96338189D01*
X108027844Y-96407347D01*
X108017108Y-96440088D01*
X108017918Y-96440424D01*
X107947706Y-96609932D01*
X107947703Y-96609941D01*
X107913100Y-96783904D01*
X107913100Y-96961295D01*
X107947703Y-97135258D01*
X107947706Y-97135267D01*
X108015583Y-97299140D01*
X108015590Y-97299153D01*
X108114135Y-97446634D01*
X108114138Y-97446638D01*
X108239561Y-97572061D01*
X108239565Y-97572064D01*
X108387046Y-97670609D01*
X108387059Y-97670616D01*
X108509963Y-97721523D01*
X108550934Y-97738494D01*
X108550936Y-97738494D01*
X108550941Y-97738496D01*
X108724904Y-97773099D01*
X108724907Y-97773100D01*
X108724909Y-97773100D01*
X108902293Y-97773100D01*
X108902294Y-97773099D01*
X108960282Y-97761564D01*
X109076258Y-97738496D01*
X109076261Y-97738494D01*
X109076266Y-97738494D01*
X109238831Y-97671158D01*
X109240140Y-97670616D01*
X109240140Y-97670615D01*
X109240147Y-97670613D01*
X109387635Y-97572064D01*
X109513064Y-97446635D01*
X109611613Y-97299147D01*
X109679494Y-97135266D01*
X109688839Y-97088280D01*
X109697604Y-97071524D01*
X109701626Y-97053041D01*
X109720363Y-97028014D01*
X109721222Y-97026373D01*
X109722779Y-97024788D01*
X109745554Y-97002015D01*
X109806878Y-96968533D01*
X109833231Y-96965700D01*
X122773969Y-96965700D01*
X122841008Y-96985385D01*
X122886763Y-97038189D01*
X122896121Y-97072905D01*
X122896311Y-97072868D01*
X122896871Y-97075688D01*
X122897372Y-97077543D01*
X122897500Y-97078848D01*
X122928261Y-97233489D01*
X122928264Y-97233501D01*
X122988602Y-97379172D01*
X122988609Y-97379185D01*
X123076210Y-97510288D01*
X123076213Y-97510292D01*
X123187707Y-97621786D01*
X123187711Y-97621789D01*
X123318814Y-97709390D01*
X123318827Y-97709397D01*
X123415646Y-97749500D01*
X123464503Y-97769737D01*
X123600914Y-97796871D01*
X123619153Y-97800499D01*
X123619156Y-97800500D01*
X123619158Y-97800500D01*
X123776844Y-97800500D01*
X123776845Y-97800499D01*
X123931497Y-97769737D01*
X124077179Y-97709394D01*
X124171459Y-97646398D01*
X124238136Y-97625520D01*
X124240350Y-97625500D01*
X125303662Y-97625500D01*
X125370701Y-97645185D01*
X125416456Y-97697989D01*
X125427662Y-97749500D01*
X125427662Y-97827884D01*
X125458423Y-97982527D01*
X125458426Y-97982539D01*
X125518764Y-98128210D01*
X125518771Y-98128223D01*
X125606372Y-98259326D01*
X125606374Y-98259329D01*
X125626979Y-98279933D01*
X125660466Y-98341255D01*
X125663300Y-98367616D01*
X125663300Y-98679459D01*
X125643615Y-98746498D01*
X125590811Y-98792253D01*
X125521653Y-98802197D01*
X125458097Y-98773172D01*
X125451619Y-98767140D01*
X125427492Y-98743013D01*
X125427488Y-98743010D01*
X125296385Y-98655409D01*
X125296372Y-98655402D01*
X125150701Y-98595064D01*
X125150689Y-98595061D01*
X124996045Y-98564300D01*
X124996042Y-98564300D01*
X124838358Y-98564300D01*
X124838355Y-98564300D01*
X124683710Y-98595061D01*
X124683698Y-98595064D01*
X124538027Y-98655402D01*
X124538014Y-98655409D01*
X124406911Y-98743010D01*
X124406907Y-98743013D01*
X124295413Y-98854507D01*
X124295410Y-98854511D01*
X124207809Y-98985614D01*
X124207802Y-98985627D01*
X124147464Y-99131298D01*
X124147461Y-99131310D01*
X124116700Y-99285953D01*
X124116700Y-99443646D01*
X124147461Y-99598289D01*
X124147463Y-99598297D01*
X124207802Y-99743972D01*
X124207809Y-99743985D01*
X124295410Y-99875088D01*
X124295413Y-99875092D01*
X124406907Y-99986586D01*
X124406911Y-99986589D01*
X124538014Y-100074190D01*
X124538027Y-100074197D01*
X124625430Y-100110399D01*
X124683703Y-100134537D01*
X124794916Y-100156658D01*
X124856823Y-100189041D01*
X124858403Y-100190593D01*
X125169781Y-100501971D01*
X125203266Y-100563294D01*
X125206100Y-100589652D01*
X125206100Y-104815156D01*
X125186415Y-104882195D01*
X125133611Y-104927950D01*
X125064453Y-104937894D01*
X125013209Y-104918258D01*
X124991585Y-104903809D01*
X124991572Y-104903802D01*
X124845901Y-104843464D01*
X124845889Y-104843461D01*
X124691245Y-104812700D01*
X124691242Y-104812700D01*
X124533558Y-104812700D01*
X124533555Y-104812700D01*
X124378910Y-104843461D01*
X124378898Y-104843464D01*
X124233227Y-104903802D01*
X124233215Y-104903809D01*
X124138941Y-104966802D01*
X124072264Y-104987680D01*
X124070050Y-104987700D01*
X123410141Y-104987700D01*
X123410121Y-104987699D01*
X123404007Y-104987699D01*
X123280794Y-104987699D01*
X123179997Y-105007748D01*
X123179992Y-105007748D01*
X123159953Y-105011735D01*
X123159948Y-105011736D01*
X123159948Y-105011737D01*
X123123610Y-105026789D01*
X123123608Y-105026790D01*
X123123607Y-105026789D01*
X123046111Y-105058889D01*
X122943667Y-105127341D01*
X122943663Y-105127344D01*
X122493636Y-105577373D01*
X122384869Y-105686140D01*
X122384867Y-105686142D01*
X122341304Y-105729704D01*
X122297742Y-105773266D01*
X122272035Y-105811740D01*
X122272034Y-105811739D01*
X122229289Y-105875712D01*
X122229285Y-105875719D01*
X122202602Y-105940141D01*
X122202602Y-105940142D01*
X122182137Y-105989546D01*
X122182137Y-105989548D01*
X122160584Y-106097909D01*
X122158100Y-106110396D01*
X122158100Y-115738850D01*
X122138415Y-115805889D01*
X122137202Y-115807741D01*
X122074209Y-115902015D01*
X122074202Y-115902028D01*
X122013864Y-116047698D01*
X122013861Y-116047710D01*
X121983100Y-116202353D01*
X121983100Y-116360046D01*
X122013861Y-116514689D01*
X122013864Y-116514701D01*
X122074202Y-116660372D01*
X122074209Y-116660385D01*
X122161810Y-116791488D01*
X122161813Y-116791492D01*
X122273307Y-116902986D01*
X122273311Y-116902989D01*
X122404414Y-116990590D01*
X122404427Y-116990597D01*
X122550098Y-117050935D01*
X122550103Y-117050937D01*
X122643918Y-117069598D01*
X122704753Y-117081699D01*
X122704756Y-117081700D01*
X122704758Y-117081700D01*
X122862444Y-117081700D01*
X122862445Y-117081699D01*
X123017097Y-117050937D01*
X123162779Y-116990594D01*
X123184694Y-116975950D01*
X123251370Y-116955072D01*
X123318750Y-116973556D01*
X123322476Y-116975950D01*
X123420414Y-117041390D01*
X123420427Y-117041397D01*
X123566098Y-117101735D01*
X123566103Y-117101737D01*
X123720753Y-117132499D01*
X123720756Y-117132500D01*
X123720758Y-117132500D01*
X123878444Y-117132500D01*
X123878445Y-117132499D01*
X124033097Y-117101737D01*
X124178779Y-117041394D01*
X124309889Y-116953789D01*
X124421389Y-116842289D01*
X124508994Y-116711179D01*
X124569337Y-116565497D01*
X124600100Y-116410842D01*
X124600100Y-116253158D01*
X124600100Y-116253155D01*
X124600099Y-116253153D01*
X124569338Y-116098510D01*
X124569337Y-116098503D01*
X124548293Y-116047698D01*
X124508997Y-115952827D01*
X124508990Y-115952814D01*
X124421389Y-115821711D01*
X124421386Y-115821707D01*
X124309892Y-115710213D01*
X124309888Y-115710210D01*
X124178785Y-115622609D01*
X124178772Y-115622602D01*
X124033101Y-115562264D01*
X124033091Y-115562261D01*
X123958908Y-115547505D01*
X123896997Y-115515120D01*
X123862423Y-115454404D01*
X123859100Y-115425888D01*
X123859100Y-107175500D01*
X123861650Y-107166814D01*
X123860362Y-107157853D01*
X123871340Y-107133812D01*
X123878785Y-107108461D01*
X123885625Y-107102533D01*
X123889387Y-107094297D01*
X123911621Y-107080007D01*
X123931589Y-107062706D01*
X123942103Y-107060418D01*
X123948165Y-107056523D01*
X123983100Y-107051500D01*
X124089202Y-107051500D01*
X124156241Y-107071185D01*
X124158093Y-107072398D01*
X124190867Y-107094297D01*
X124233221Y-107122597D01*
X124233223Y-107122598D01*
X124233227Y-107122600D01*
X124378898Y-107182938D01*
X124378903Y-107182940D01*
X124521206Y-107211246D01*
X124533553Y-107213702D01*
X124533556Y-107213703D01*
X124533558Y-107213703D01*
X124691244Y-107213703D01*
X124691245Y-107213702D01*
X124845897Y-107182940D01*
X124991579Y-107122597D01*
X124991588Y-107122591D01*
X125013207Y-107108146D01*
X125079884Y-107087266D01*
X125147264Y-107105749D01*
X125193956Y-107157727D01*
X125206100Y-107211246D01*
X125206100Y-108926006D01*
X125215943Y-108975498D01*
X125230135Y-109046846D01*
X125230136Y-109046850D01*
X125230137Y-109046852D01*
X125236872Y-109063111D01*
X125277288Y-109160686D01*
X125308094Y-109206789D01*
X125312402Y-109213237D01*
X125312404Y-109213240D01*
X125345738Y-109263128D01*
X125345739Y-109263129D01*
X125345742Y-109263133D01*
X125432867Y-109350258D01*
X125432869Y-109350259D01*
X125439935Y-109357325D01*
X125439934Y-109357325D01*
X125439938Y-109357328D01*
X126169463Y-110086855D01*
X126169467Y-110086858D01*
X126271910Y-110155309D01*
X126271911Y-110155309D01*
X126271915Y-110155312D01*
X126325398Y-110177465D01*
X126385748Y-110202463D01*
X126506589Y-110226499D01*
X126506593Y-110226500D01*
X126506594Y-110226500D01*
X126711650Y-110226500D01*
X126778689Y-110246185D01*
X126780541Y-110247398D01*
X126842217Y-110288609D01*
X126874821Y-110310394D01*
X126874823Y-110310395D01*
X126874827Y-110310397D01*
X127020498Y-110370735D01*
X127020503Y-110370737D01*
X127148187Y-110396135D01*
X127175153Y-110401499D01*
X127175156Y-110401500D01*
X127175158Y-110401500D01*
X127332844Y-110401500D01*
X127332845Y-110401499D01*
X127487497Y-110370737D01*
X127600166Y-110324067D01*
X127633172Y-110310397D01*
X127633172Y-110310396D01*
X127633179Y-110310394D01*
X127727459Y-110247398D01*
X127794136Y-110226520D01*
X127796350Y-110226500D01*
X132277548Y-110226500D01*
X132344587Y-110246185D01*
X132365229Y-110262819D01*
X132815181Y-110712771D01*
X132848666Y-110774094D01*
X132851500Y-110800452D01*
X132851500Y-113855300D01*
X132831815Y-113922339D01*
X132779011Y-113968094D01*
X132727500Y-113979300D01*
X129371150Y-113979300D01*
X129304111Y-113959615D01*
X129302259Y-113958402D01*
X129207984Y-113895409D01*
X129207972Y-113895402D01*
X129062301Y-113835064D01*
X129062289Y-113835061D01*
X128907645Y-113804300D01*
X128907642Y-113804300D01*
X128749958Y-113804300D01*
X128749955Y-113804300D01*
X128595310Y-113835061D01*
X128595298Y-113835064D01*
X128449627Y-113895402D01*
X128449614Y-113895409D01*
X128318511Y-113983010D01*
X128318507Y-113983013D01*
X128207013Y-114094507D01*
X128207010Y-114094511D01*
X128119409Y-114225614D01*
X128119402Y-114225627D01*
X128059064Y-114371298D01*
X128059061Y-114371310D01*
X128028300Y-114525953D01*
X128028300Y-114683646D01*
X128059061Y-114838289D01*
X128059064Y-114838301D01*
X128119402Y-114983972D01*
X128122279Y-114989354D01*
X128119990Y-114990576D01*
X128137497Y-115046489D01*
X128119011Y-115113868D01*
X128067032Y-115160558D01*
X128013517Y-115172700D01*
X127132252Y-115172700D01*
X127102811Y-115164055D01*
X127072825Y-115157532D01*
X127067809Y-115153777D01*
X127065213Y-115153015D01*
X127044571Y-115136381D01*
X126935959Y-115027769D01*
X126902474Y-114966446D01*
X126907458Y-114896754D01*
X126909060Y-114892681D01*
X126956937Y-114777097D01*
X126987700Y-114622442D01*
X126987700Y-114464758D01*
X126987700Y-114464755D01*
X126987699Y-114464753D01*
X126969112Y-114371310D01*
X126956937Y-114310103D01*
X126947620Y-114287610D01*
X126896597Y-114164427D01*
X126896590Y-114164414D01*
X126808989Y-114033311D01*
X126808986Y-114033307D01*
X126697492Y-113921813D01*
X126697488Y-113921810D01*
X126566385Y-113834209D01*
X126566372Y-113834202D01*
X126420701Y-113773864D01*
X126420689Y-113773861D01*
X126266045Y-113743100D01*
X126266042Y-113743100D01*
X126108358Y-113743100D01*
X126108355Y-113743100D01*
X125953710Y-113773861D01*
X125953698Y-113773864D01*
X125808027Y-113834202D01*
X125808014Y-113834209D01*
X125676911Y-113921810D01*
X125676907Y-113921813D01*
X125565413Y-114033307D01*
X125565410Y-114033311D01*
X125477809Y-114164414D01*
X125477802Y-114164427D01*
X125417464Y-114310098D01*
X125417461Y-114310110D01*
X125386700Y-114464753D01*
X125386700Y-114622446D01*
X125417461Y-114777089D01*
X125417464Y-114777101D01*
X125477802Y-114922772D01*
X125477809Y-114922784D01*
X125540802Y-115017059D01*
X125546105Y-115033542D01*
X125555441Y-115047053D01*
X125560433Y-115078078D01*
X125561631Y-115081801D01*
X125561700Y-115083861D01*
X125561700Y-115101993D01*
X125561700Y-115225207D01*
X125565416Y-115243888D01*
X125567389Y-115253811D01*
X125567390Y-115253818D01*
X125585735Y-115346045D01*
X125585736Y-115346049D01*
X125585737Y-115346052D01*
X125592472Y-115362311D01*
X125632888Y-115459886D01*
X125632889Y-115459888D01*
X125632890Y-115459889D01*
X125632890Y-115459890D01*
X125646796Y-115480701D01*
X125646797Y-115480702D01*
X125701341Y-115562332D01*
X125701344Y-115562336D01*
X125792786Y-115653778D01*
X125792808Y-115653798D01*
X126335939Y-116196929D01*
X126335942Y-116196933D01*
X126423067Y-116284058D01*
X126492092Y-116330179D01*
X126525515Y-116352512D01*
X126592197Y-116380132D01*
X126639348Y-116399663D01*
X126695550Y-116410842D01*
X126760191Y-116423699D01*
X126760192Y-116423700D01*
X126760193Y-116423700D01*
X126760194Y-116423700D01*
X131060552Y-116423700D01*
X131127591Y-116443385D01*
X131173346Y-116496189D01*
X131182169Y-116523508D01*
X131208661Y-116656691D01*
X131208664Y-116656701D01*
X131269002Y-116802372D01*
X131269009Y-116802385D01*
X131356610Y-116933488D01*
X131356613Y-116933492D01*
X131468107Y-117044986D01*
X131468111Y-117044989D01*
X131599214Y-117132590D01*
X131599227Y-117132597D01*
X131744898Y-117192935D01*
X131744903Y-117192937D01*
X131899553Y-117223699D01*
X131899556Y-117223700D01*
X131899558Y-117223700D01*
X132057244Y-117223700D01*
X132057245Y-117223699D01*
X132211897Y-117192937D01*
X132357579Y-117132594D01*
X132451859Y-117069598D01*
X132518536Y-117048720D01*
X132520750Y-117048700D01*
X132999560Y-117048700D01*
X133066599Y-117068385D01*
X133087241Y-117085019D01*
X133789075Y-117786855D01*
X133789079Y-117786858D01*
X133891522Y-117855309D01*
X133891523Y-117855309D01*
X133891527Y-117855312D01*
X133946478Y-117878073D01*
X134005360Y-117902463D01*
X134025409Y-117906451D01*
X134085808Y-117918465D01*
X134126204Y-117926501D01*
X134126206Y-117926501D01*
X134255533Y-117926501D01*
X134255553Y-117926500D01*
X137598093Y-117926500D01*
X137665132Y-117946185D01*
X137710887Y-117998989D01*
X137720831Y-118068147D01*
X137719710Y-118074692D01*
X137704500Y-118151155D01*
X137704500Y-118308846D01*
X137735261Y-118463489D01*
X137735264Y-118463501D01*
X137795602Y-118609172D01*
X137795609Y-118609185D01*
X137883210Y-118740288D01*
X137883213Y-118740292D01*
X137994710Y-118851789D01*
X138085179Y-118912238D01*
X138125821Y-118939394D01*
X138125827Y-118939396D01*
X138125828Y-118939397D01*
X138181189Y-118962328D01*
X138221418Y-118989208D01*
X138590063Y-119357855D01*
X138590067Y-119357858D01*
X138692510Y-119426309D01*
X138692511Y-119426309D01*
X138692515Y-119426312D01*
X138759197Y-119453932D01*
X138806348Y-119473463D01*
X138826397Y-119477451D01*
X138891424Y-119490385D01*
X138927192Y-119497501D01*
X138927194Y-119497501D01*
X139056521Y-119497501D01*
X139056541Y-119497500D01*
X150362348Y-119497500D01*
X150391788Y-119506144D01*
X150421775Y-119512668D01*
X150426790Y-119516422D01*
X150429387Y-119517185D01*
X150450029Y-119533819D01*
X150569781Y-119653571D01*
X150603266Y-119714894D01*
X150606100Y-119741252D01*
X150606100Y-126447250D01*
X150586415Y-126514289D01*
X150585202Y-126516141D01*
X150522209Y-126610415D01*
X150522202Y-126610428D01*
X150461864Y-126756098D01*
X150461861Y-126756110D01*
X150431100Y-126910753D01*
X150431100Y-127068446D01*
X150461861Y-127223089D01*
X150461864Y-127223101D01*
X150522202Y-127368772D01*
X150522209Y-127368785D01*
X150609810Y-127499888D01*
X150609813Y-127499892D01*
X150721307Y-127611386D01*
X150721311Y-127611389D01*
X150852414Y-127698990D01*
X150852427Y-127698997D01*
X150998098Y-127759335D01*
X150998103Y-127759337D01*
X151152753Y-127790099D01*
X151152756Y-127790100D01*
X151152758Y-127790100D01*
X151310444Y-127790100D01*
X151310445Y-127790099D01*
X151465097Y-127759337D01*
X151610779Y-127698994D01*
X151741889Y-127611389D01*
X151853389Y-127499889D01*
X151940994Y-127368779D01*
X152001337Y-127223097D01*
X152032100Y-127068442D01*
X152032100Y-126910758D01*
X152032100Y-126910755D01*
X152032099Y-126910753D01*
X152001338Y-126756110D01*
X152001337Y-126756103D01*
X151940994Y-126610421D01*
X151877997Y-126516139D01*
X151857120Y-126449463D01*
X151857100Y-126447250D01*
X151857100Y-119498541D01*
X151857101Y-119498520D01*
X151857101Y-119369191D01*
X151833064Y-119248355D01*
X151833063Y-119248349D01*
X151785912Y-119134515D01*
X151717458Y-119032067D01*
X151717455Y-119032063D01*
X151168622Y-118483232D01*
X151158659Y-118473269D01*
X151158658Y-118473267D01*
X151071533Y-118386142D01*
X151020309Y-118351915D01*
X150987901Y-118330260D01*
X150943097Y-118276648D01*
X150934390Y-118207323D01*
X150964545Y-118144296D01*
X150969113Y-118139477D01*
X150972773Y-118135816D01*
X150972775Y-118135816D01*
X151059900Y-118048691D01*
X151128353Y-117946244D01*
X151128354Y-117946243D01*
X151164979Y-117857821D01*
X151175505Y-117832410D01*
X151189246Y-117763327D01*
X151195533Y-117731723D01*
X151195533Y-117731718D01*
X151199542Y-117711565D01*
X151199542Y-117588351D01*
X151199542Y-116968850D01*
X151219227Y-116901811D01*
X151220440Y-116899959D01*
X151258974Y-116842289D01*
X151283436Y-116805679D01*
X151343779Y-116659997D01*
X151374542Y-116505342D01*
X151374542Y-116347658D01*
X151374542Y-116347655D01*
X151374541Y-116347653D01*
X151361891Y-116284058D01*
X151343779Y-116193003D01*
X151340256Y-116184497D01*
X151283439Y-116047327D01*
X151283432Y-116047314D01*
X151195831Y-115916211D01*
X151195828Y-115916207D01*
X151084334Y-115804713D01*
X151084330Y-115804710D01*
X150953227Y-115717109D01*
X150953214Y-115717102D01*
X150807543Y-115656764D01*
X150807531Y-115656761D01*
X150652887Y-115626000D01*
X150652884Y-115626000D01*
X150495200Y-115626000D01*
X150495197Y-115626000D01*
X150340552Y-115656761D01*
X150340540Y-115656764D01*
X150194869Y-115717102D01*
X150194856Y-115717109D01*
X150063753Y-115804710D01*
X150063749Y-115804713D01*
X149952255Y-115916207D01*
X149952252Y-115916211D01*
X149864651Y-116047314D01*
X149864644Y-116047327D01*
X149804306Y-116192998D01*
X149804303Y-116193010D01*
X149773542Y-116347653D01*
X149773542Y-116505346D01*
X149804303Y-116659989D01*
X149804306Y-116660001D01*
X149864644Y-116805672D01*
X149864651Y-116805684D01*
X149927644Y-116899959D01*
X149948522Y-116966636D01*
X149948542Y-116968850D01*
X149948542Y-117339506D01*
X149939897Y-117368946D01*
X149933374Y-117398933D01*
X149929619Y-117403948D01*
X149928857Y-117406545D01*
X149912223Y-117427187D01*
X149764229Y-117575181D01*
X149702906Y-117608666D01*
X149676548Y-117611500D01*
X143163350Y-117611500D01*
X143096311Y-117591815D01*
X143094459Y-117590602D01*
X143000184Y-117527609D01*
X143000172Y-117527602D01*
X142854501Y-117467264D01*
X142854489Y-117467261D01*
X142699845Y-117436500D01*
X142699842Y-117436500D01*
X142542158Y-117436500D01*
X142542155Y-117436500D01*
X142387510Y-117467261D01*
X142387498Y-117467264D01*
X142241827Y-117527602D01*
X142241814Y-117527609D01*
X142110711Y-117615210D01*
X142110707Y-117615213D01*
X141999213Y-117726707D01*
X141999210Y-117726711D01*
X141911603Y-117857823D01*
X141908815Y-117863040D01*
X141859851Y-117912881D01*
X141791712Y-117928339D01*
X141726034Y-117904504D01*
X141695067Y-117871500D01*
X141689119Y-117862221D01*
X141684397Y-117850821D01*
X141620727Y-117755532D01*
X141620110Y-117754569D01*
X141610617Y-117722102D01*
X141600523Y-117689863D01*
X141600503Y-117687650D01*
X141600503Y-117164400D01*
X141600503Y-117164397D01*
X141598065Y-117152142D01*
X141576466Y-117043551D01*
X141529314Y-116929717D01*
X141526276Y-116925170D01*
X141516540Y-116910598D01*
X141516532Y-116910588D01*
X141513935Y-116906701D01*
X141460861Y-116827270D01*
X141416474Y-116782883D01*
X141411846Y-116776976D01*
X141401581Y-116751203D01*
X141388288Y-116726858D01*
X141388835Y-116719200D01*
X141385994Y-116712065D01*
X141391293Y-116684834D01*
X141393272Y-116657166D01*
X141397874Y-116651018D01*
X141399341Y-116643482D01*
X141418518Y-116623441D01*
X141435144Y-116601233D01*
X141442338Y-116598549D01*
X141447647Y-116593002D01*
X141474616Y-116586510D01*
X141500608Y-116576816D01*
X141509454Y-116576500D01*
X145253650Y-116576500D01*
X145320689Y-116596185D01*
X145322541Y-116597398D01*
X145416821Y-116660394D01*
X145416823Y-116660395D01*
X145416827Y-116660397D01*
X145558792Y-116719200D01*
X145562503Y-116720737D01*
X145715665Y-116751203D01*
X145717153Y-116751499D01*
X145717156Y-116751500D01*
X145717158Y-116751500D01*
X145874844Y-116751500D01*
X145874845Y-116751499D01*
X146029497Y-116720737D01*
X146175179Y-116660394D01*
X146306289Y-116572789D01*
X146417789Y-116461289D01*
X146505394Y-116330179D01*
X146565737Y-116184497D01*
X146596500Y-116029842D01*
X146596500Y-115872158D01*
X146596500Y-115872155D01*
X146596499Y-115872153D01*
X146586465Y-115821711D01*
X146565737Y-115717503D01*
X146562716Y-115710210D01*
X146505397Y-115571827D01*
X146505390Y-115571814D01*
X146417789Y-115440711D01*
X146417786Y-115440707D01*
X146306292Y-115329213D01*
X146306288Y-115329210D01*
X146175185Y-115241609D01*
X146175172Y-115241602D01*
X146029501Y-115181264D01*
X146029489Y-115181261D01*
X145874845Y-115150500D01*
X145874842Y-115150500D01*
X145717158Y-115150500D01*
X145717155Y-115150500D01*
X145562510Y-115181261D01*
X145562498Y-115181264D01*
X145416827Y-115241602D01*
X145416815Y-115241609D01*
X145322541Y-115304602D01*
X145255864Y-115325480D01*
X145253650Y-115325500D01*
X144351684Y-115325500D01*
X144284645Y-115305815D01*
X144238890Y-115253011D01*
X144228946Y-115183853D01*
X144257971Y-115120297D01*
X144316749Y-115082523D01*
X144327492Y-115079883D01*
X144362035Y-115073011D01*
X144378497Y-115069737D01*
X144524179Y-115009394D01*
X144655289Y-114921789D01*
X144766789Y-114810289D01*
X144854394Y-114679179D01*
X144854395Y-114679175D01*
X144854461Y-114679054D01*
X144854514Y-114678999D01*
X144857779Y-114674114D01*
X144858705Y-114674732D01*
X144903420Y-114629207D01*
X144963823Y-114613500D01*
X144965193Y-114613500D01*
X144965194Y-114613500D01*
X151348500Y-114613500D01*
X151415539Y-114633185D01*
X151461294Y-114685989D01*
X151472500Y-114737500D01*
X151472500Y-114886846D01*
X151503261Y-115041489D01*
X151503264Y-115041501D01*
X151563602Y-115187172D01*
X151563609Y-115187185D01*
X151651210Y-115318288D01*
X151651213Y-115318292D01*
X151762707Y-115429786D01*
X151762711Y-115429789D01*
X151893814Y-115517390D01*
X151893827Y-115517397D01*
X152025220Y-115571821D01*
X152039503Y-115577737D01*
X152194153Y-115608499D01*
X152194156Y-115608500D01*
X152194158Y-115608500D01*
X152351844Y-115608500D01*
X152351845Y-115608499D01*
X152506497Y-115577737D01*
X152652179Y-115517394D01*
X152783289Y-115429789D01*
X152894789Y-115318289D01*
X152982394Y-115187179D01*
X152984845Y-115181263D01*
X153018297Y-115100500D01*
X153042737Y-115041497D01*
X153073500Y-114886842D01*
X153073500Y-114729158D01*
X153073500Y-114729155D01*
X153073499Y-114729153D01*
X153063558Y-114679179D01*
X153042737Y-114574503D01*
X153022627Y-114525953D01*
X152982395Y-114428823D01*
X152919399Y-114334542D01*
X152900461Y-114287610D01*
X152898501Y-114276716D01*
X152898501Y-114238394D01*
X152874463Y-114117549D01*
X152871442Y-114110256D01*
X152848762Y-114055500D01*
X152827312Y-114003715D01*
X152795306Y-113955815D01*
X152758858Y-113901266D01*
X152737271Y-113879679D01*
X152703786Y-113818356D01*
X152708770Y-113748664D01*
X152737266Y-113704322D01*
X153089058Y-113352533D01*
X153157512Y-113250085D01*
X153204663Y-113136251D01*
X153228701Y-113015406D01*
X153228701Y-112892193D01*
X153228701Y-112887083D01*
X153228700Y-112887057D01*
X153228700Y-112422350D01*
X153248385Y-112355311D01*
X153249598Y-112353459D01*
X153250009Y-112352843D01*
X153312594Y-112259179D01*
X153372937Y-112113497D01*
X153403700Y-111958842D01*
X153403700Y-111801158D01*
X153403700Y-111801155D01*
X153403699Y-111801153D01*
X153372938Y-111646510D01*
X153372937Y-111646503D01*
X153372935Y-111646498D01*
X153312597Y-111500827D01*
X153312590Y-111500814D01*
X153224989Y-111369711D01*
X153224986Y-111369707D01*
X153113492Y-111258213D01*
X153113488Y-111258210D01*
X152982385Y-111170609D01*
X152982372Y-111170602D01*
X152836701Y-111110264D01*
X152836689Y-111110261D01*
X152682045Y-111079500D01*
X152682042Y-111079500D01*
X152524358Y-111079500D01*
X152524355Y-111079500D01*
X152369710Y-111110261D01*
X152369698Y-111110264D01*
X152224027Y-111170602D01*
X152224014Y-111170609D01*
X152092911Y-111258210D01*
X152092907Y-111258213D01*
X151981413Y-111369707D01*
X151981410Y-111369711D01*
X151893809Y-111500814D01*
X151893802Y-111500827D01*
X151833464Y-111646498D01*
X151833461Y-111646510D01*
X151802700Y-111801153D01*
X151802700Y-111958846D01*
X151833461Y-112113489D01*
X151833464Y-112113501D01*
X151893802Y-112259172D01*
X151893809Y-112259184D01*
X151956802Y-112353459D01*
X151962452Y-112371505D01*
X151972677Y-112387415D01*
X151977128Y-112418374D01*
X151977680Y-112420136D01*
X151977700Y-112422350D01*
X151977700Y-112643347D01*
X151958015Y-112710386D01*
X151941385Y-112731023D01*
X151796227Y-112876182D01*
X151734907Y-112909666D01*
X151708548Y-112912500D01*
X145523648Y-112912500D01*
X145456609Y-112892815D01*
X145435967Y-112876181D01*
X145060819Y-112501033D01*
X145027334Y-112439710D01*
X145024500Y-112413352D01*
X145024500Y-111540350D01*
X145044185Y-111473311D01*
X145045398Y-111471459D01*
X145045809Y-111470843D01*
X145108394Y-111377179D01*
X145168737Y-111231497D01*
X145199500Y-111076842D01*
X145199500Y-110919158D01*
X145199500Y-110919155D01*
X145199499Y-110919153D01*
X145195428Y-110898688D01*
X145168737Y-110764503D01*
X145167610Y-110761781D01*
X145108397Y-110618827D01*
X145108390Y-110618814D01*
X145020789Y-110487711D01*
X145020786Y-110487707D01*
X144909292Y-110376213D01*
X144909288Y-110376210D01*
X144778185Y-110288609D01*
X144778176Y-110288604D01*
X144690478Y-110252279D01*
X144636075Y-110208438D01*
X144616314Y-110161909D01*
X144601385Y-110086858D01*
X144597237Y-110066003D01*
X144587735Y-110043063D01*
X144536897Y-109920327D01*
X144536890Y-109920314D01*
X144449289Y-109789211D01*
X144449286Y-109789207D01*
X144337792Y-109677713D01*
X144337788Y-109677710D01*
X144206685Y-109590109D01*
X144206672Y-109590102D01*
X144061001Y-109529764D01*
X144060989Y-109529761D01*
X143906345Y-109499000D01*
X143906342Y-109499000D01*
X143748658Y-109499000D01*
X143748655Y-109499000D01*
X143594010Y-109529761D01*
X143593998Y-109529764D01*
X143448327Y-109590102D01*
X143448314Y-109590109D01*
X143317211Y-109677710D01*
X143317207Y-109677713D01*
X143205713Y-109789207D01*
X143205710Y-109789211D01*
X143118109Y-109920314D01*
X143118102Y-109920327D01*
X143057764Y-110065998D01*
X143057761Y-110066010D01*
X143027000Y-110220653D01*
X143027000Y-110378346D01*
X143057761Y-110532989D01*
X143057764Y-110533001D01*
X143118103Y-110678674D01*
X143118104Y-110678675D01*
X143118106Y-110678679D01*
X143127602Y-110692890D01*
X143148480Y-110759567D01*
X143148500Y-110761781D01*
X143148500Y-112488548D01*
X143128815Y-112555587D01*
X143076011Y-112601342D01*
X143006853Y-112611286D01*
X142955611Y-112591651D01*
X142930108Y-112574611D01*
X142930092Y-112574602D01*
X142784421Y-112514264D01*
X142784409Y-112514261D01*
X142629765Y-112483500D01*
X142629762Y-112483500D01*
X142472078Y-112483500D01*
X142472075Y-112483500D01*
X142317430Y-112514261D01*
X142317418Y-112514264D01*
X142171747Y-112574602D01*
X142171734Y-112574609D01*
X142040631Y-112662210D01*
X142040627Y-112662213D01*
X141929133Y-112773707D01*
X141929130Y-112773711D01*
X141841529Y-112904814D01*
X141841522Y-112904827D01*
X141781184Y-113050498D01*
X141781181Y-113050510D01*
X141750420Y-113205153D01*
X141750420Y-113362846D01*
X141781181Y-113517489D01*
X141781184Y-113517501D01*
X141815944Y-113601419D01*
X141823413Y-113670888D01*
X141792138Y-113733367D01*
X141789065Y-113736552D01*
X141586435Y-113939182D01*
X141525115Y-113972666D01*
X141498756Y-113975500D01*
X135616640Y-113975500D01*
X135587199Y-113966855D01*
X135557213Y-113960332D01*
X135552197Y-113956577D01*
X135549601Y-113955815D01*
X135528959Y-113939181D01*
X135488819Y-113899041D01*
X135455334Y-113837718D01*
X135452500Y-113811360D01*
X135452500Y-109869207D01*
X135452095Y-109867174D01*
X135452098Y-109867140D01*
X135452089Y-109867142D01*
X135436893Y-109790744D01*
X135436893Y-109790743D01*
X135431294Y-109762593D01*
X135428463Y-109748360D01*
X135412558Y-109709961D01*
X135400082Y-109679841D01*
X135381314Y-109634531D01*
X135381312Y-109634528D01*
X135381312Y-109634527D01*
X135357144Y-109598358D01*
X135312858Y-109532079D01*
X135225733Y-109444954D01*
X135225729Y-109444951D01*
X133637386Y-107856608D01*
X133637366Y-107856586D01*
X133602761Y-107821981D01*
X133569276Y-107760658D01*
X133574260Y-107690966D01*
X133616132Y-107635033D01*
X133681596Y-107610616D01*
X133690442Y-107610300D01*
X136087548Y-107610300D01*
X136116988Y-107618944D01*
X136146975Y-107625468D01*
X136151990Y-107629222D01*
X136154587Y-107629985D01*
X136175229Y-107646619D01*
X136193381Y-107664771D01*
X136226866Y-107726094D01*
X136229700Y-107752452D01*
X136229700Y-108169650D01*
X136210015Y-108236689D01*
X136208802Y-108238541D01*
X136145809Y-108332815D01*
X136145802Y-108332828D01*
X136085464Y-108478498D01*
X136085461Y-108478510D01*
X136054700Y-108633153D01*
X136054700Y-108790846D01*
X136085461Y-108945489D01*
X136085464Y-108945501D01*
X136145802Y-109091172D01*
X136145809Y-109091185D01*
X136233410Y-109222288D01*
X136233413Y-109222292D01*
X136344907Y-109333786D01*
X136344911Y-109333789D01*
X136476014Y-109421390D01*
X136476027Y-109421397D01*
X136616174Y-109479447D01*
X136621703Y-109481737D01*
X136776353Y-109512499D01*
X136776356Y-109512500D01*
X136776358Y-109512500D01*
X136934044Y-109512500D01*
X136934045Y-109512499D01*
X137088697Y-109481737D01*
X137201366Y-109435067D01*
X137234372Y-109421397D01*
X137234372Y-109421396D01*
X137234379Y-109421394D01*
X137365489Y-109333789D01*
X137476989Y-109222289D01*
X137564594Y-109091179D01*
X137616739Y-108965289D01*
X137660579Y-108910885D01*
X137726873Y-108888820D01*
X137794573Y-108906099D01*
X137842184Y-108957236D01*
X137855300Y-109012741D01*
X137855300Y-109693650D01*
X137835615Y-109760689D01*
X137834402Y-109762541D01*
X137771409Y-109856815D01*
X137771402Y-109856828D01*
X137711064Y-110002498D01*
X137711061Y-110002510D01*
X137680300Y-110157153D01*
X137680300Y-110314846D01*
X137711061Y-110469489D01*
X137711064Y-110469501D01*
X137771402Y-110615172D01*
X137771409Y-110615185D01*
X137859010Y-110746288D01*
X137859013Y-110746292D01*
X137970507Y-110857786D01*
X137970511Y-110857789D01*
X138101614Y-110945390D01*
X138101627Y-110945397D01*
X138247107Y-111005656D01*
X138247303Y-111005737D01*
X138401953Y-111036499D01*
X138401956Y-111036500D01*
X138401958Y-111036500D01*
X138559644Y-111036500D01*
X138559645Y-111036499D01*
X138714297Y-111005737D01*
X138851063Y-110949087D01*
X138859972Y-110945397D01*
X138859972Y-110945396D01*
X138859979Y-110945394D01*
X138991089Y-110857789D01*
X139102589Y-110746289D01*
X139190194Y-110615179D01*
X139190195Y-110615176D01*
X139190197Y-110615173D01*
X139236474Y-110503448D01*
X139280314Y-110449044D01*
X139346608Y-110426979D01*
X139351035Y-110426900D01*
X139423844Y-110426900D01*
X139423845Y-110426899D01*
X139578497Y-110396137D01*
X139724179Y-110335794D01*
X139736604Y-110327491D01*
X139803279Y-110306611D01*
X139852948Y-110316029D01*
X139923703Y-110345337D01*
X140051387Y-110370735D01*
X140078353Y-110376099D01*
X140078356Y-110376100D01*
X140078358Y-110376100D01*
X140236044Y-110376100D01*
X140236045Y-110376099D01*
X140390697Y-110345337D01*
X140503366Y-110298667D01*
X140536372Y-110284997D01*
X140536372Y-110284996D01*
X140536379Y-110284994D01*
X140667489Y-110197389D01*
X140778989Y-110085889D01*
X140866594Y-109954779D01*
X140926937Y-109809097D01*
X140957700Y-109654442D01*
X140957700Y-109496758D01*
X140957700Y-109496755D01*
X140957699Y-109496753D01*
X140955558Y-109485989D01*
X140926937Y-109342103D01*
X140923492Y-109333786D01*
X140866597Y-109196428D01*
X140866596Y-109196427D01*
X140866594Y-109196421D01*
X140803597Y-109102139D01*
X140782720Y-109035463D01*
X140782700Y-109033250D01*
X140782700Y-107302795D01*
X140778382Y-107281092D01*
X140778382Y-107281087D01*
X140762252Y-107199997D01*
X140758663Y-107181952D01*
X140711511Y-107068118D01*
X140699239Y-107049752D01*
X140643058Y-106965671D01*
X140555933Y-106878546D01*
X140555932Y-106878545D01*
X139209687Y-105532300D01*
X139176202Y-105470977D01*
X139181186Y-105401285D01*
X139223058Y-105345352D01*
X139249905Y-105330063D01*
X139355047Y-105286513D01*
X139355050Y-105286510D01*
X139355052Y-105286510D01*
X139394878Y-105259899D01*
X139461555Y-105239020D01*
X139463770Y-105239000D01*
X144813500Y-105239000D01*
X144880539Y-105258685D01*
X144926294Y-105311489D01*
X144937500Y-105363000D01*
X144937500Y-109287518D01*
X144937500Y-109287520D01*
X144937499Y-109287520D01*
X144966340Y-109432507D01*
X144966343Y-109432517D01*
X145022912Y-109569088D01*
X145022920Y-109569102D01*
X145053983Y-109615590D01*
X145053984Y-109615593D01*
X145053985Y-109615593D01*
X145095491Y-109677713D01*
X145105051Y-109692020D01*
X145105052Y-109692021D01*
X146175449Y-110762416D01*
X146247255Y-110834222D01*
X146279985Y-110866952D01*
X146402898Y-110949080D01*
X146402911Y-110949087D01*
X146539482Y-111005656D01*
X146539487Y-111005658D01*
X146539491Y-111005658D01*
X146539492Y-111005659D01*
X146684479Y-111034500D01*
X146684482Y-111034500D01*
X147685330Y-111034500D01*
X147752369Y-111054185D01*
X147754222Y-111055399D01*
X147794047Y-111082010D01*
X147794050Y-111082011D01*
X147794053Y-111082013D01*
X147957934Y-111149894D01*
X147957936Y-111149894D01*
X147957941Y-111149896D01*
X148131904Y-111184499D01*
X148131907Y-111184500D01*
X148131909Y-111184500D01*
X148309293Y-111184500D01*
X148309294Y-111184499D01*
X148367282Y-111172964D01*
X148483258Y-111149896D01*
X148483261Y-111149894D01*
X148483266Y-111149894D01*
X148647147Y-111082013D01*
X148794635Y-110983464D01*
X148920064Y-110858035D01*
X149018613Y-110710547D01*
X149086494Y-110546666D01*
X149089213Y-110533001D01*
X149118334Y-110386597D01*
X149121100Y-110372691D01*
X149121100Y-110195309D01*
X149121100Y-110195306D01*
X149121099Y-110195304D01*
X149086496Y-110021341D01*
X149086493Y-110021332D01*
X149081479Y-110009228D01*
X149058926Y-109954779D01*
X149018616Y-109857459D01*
X149018609Y-109857446D01*
X148920064Y-109709965D01*
X148920061Y-109709961D01*
X148794638Y-109584538D01*
X148794634Y-109584535D01*
X148647153Y-109485990D01*
X148647140Y-109485983D01*
X148483267Y-109418106D01*
X148483258Y-109418103D01*
X148309294Y-109383500D01*
X148309291Y-109383500D01*
X148131909Y-109383500D01*
X148131906Y-109383500D01*
X147957941Y-109418103D01*
X147957932Y-109418106D01*
X147794052Y-109485987D01*
X147794047Y-109485989D01*
X147754222Y-109512601D01*
X147687545Y-109533480D01*
X147685330Y-109533500D01*
X147120629Y-109533500D01*
X147053590Y-109513815D01*
X147032948Y-109497181D01*
X146474819Y-108939051D01*
X146441334Y-108877728D01*
X146438500Y-108851370D01*
X146438500Y-106788453D01*
X147263200Y-106788453D01*
X147263200Y-106946146D01*
X147293961Y-107100789D01*
X147293964Y-107100801D01*
X147354302Y-107246472D01*
X147354309Y-107246484D01*
X147417302Y-107340759D01*
X147438180Y-107407436D01*
X147438200Y-107409650D01*
X147438200Y-107688506D01*
X147447347Y-107734498D01*
X147462235Y-107809347D01*
X147462237Y-107809352D01*
X147469817Y-107827651D01*
X147509388Y-107923186D01*
X147541169Y-107970748D01*
X147545402Y-107977083D01*
X147545406Y-107977091D01*
X147577838Y-108025628D01*
X147577839Y-108025629D01*
X147577842Y-108025633D01*
X147664967Y-108112758D01*
X147664969Y-108112759D01*
X147672035Y-108119825D01*
X147672034Y-108119825D01*
X147672038Y-108119828D01*
X148191263Y-108639055D01*
X148191267Y-108639058D01*
X148293708Y-108707508D01*
X148293715Y-108707512D01*
X148354049Y-108732503D01*
X148407548Y-108754663D01*
X148427597Y-108758651D01*
X148489154Y-108770895D01*
X148528392Y-108778701D01*
X148528394Y-108778701D01*
X148657721Y-108778701D01*
X148657741Y-108778700D01*
X152209300Y-108778700D01*
X152276339Y-108798385D01*
X152322094Y-108851189D01*
X152333300Y-108902700D01*
X152333300Y-109332411D01*
X152342805Y-109380198D01*
X152342810Y-109380218D01*
X152343463Y-109383500D01*
X152357337Y-109453252D01*
X152364803Y-109471276D01*
X152368186Y-109479444D01*
X152368187Y-109479447D01*
X152404485Y-109567081D01*
X152404490Y-109567090D01*
X152433444Y-109610421D01*
X152433445Y-109610422D01*
X152472940Y-109669531D01*
X152472941Y-109669532D01*
X152472942Y-109669533D01*
X152539406Y-109735997D01*
X152572890Y-109797318D01*
X152573341Y-109799486D01*
X152595461Y-109910689D01*
X152595464Y-109910701D01*
X152655802Y-110056372D01*
X152655809Y-110056385D01*
X152743410Y-110187488D01*
X152743413Y-110187492D01*
X152854907Y-110298986D01*
X152854911Y-110298989D01*
X152986014Y-110386590D01*
X152986027Y-110386597D01*
X153131698Y-110446935D01*
X153131703Y-110446937D01*
X153286353Y-110477699D01*
X153286356Y-110477700D01*
X153286358Y-110477700D01*
X153444044Y-110477700D01*
X153444045Y-110477699D01*
X153598697Y-110446937D01*
X153720346Y-110396548D01*
X153789812Y-110389080D01*
X153852292Y-110420355D01*
X153887944Y-110480444D01*
X153889413Y-110486918D01*
X153916261Y-110621891D01*
X153916264Y-110621901D01*
X153976602Y-110767572D01*
X153976609Y-110767585D01*
X154064210Y-110898688D01*
X154064213Y-110898692D01*
X154175707Y-111010186D01*
X154175711Y-111010189D01*
X154306814Y-111097790D01*
X154306827Y-111097797D01*
X154432600Y-111149893D01*
X154452503Y-111158137D01*
X154585033Y-111184499D01*
X154607153Y-111188899D01*
X154607156Y-111188900D01*
X154607158Y-111188900D01*
X154764844Y-111188900D01*
X154764845Y-111188899D01*
X154919497Y-111158137D01*
X155065179Y-111097794D01*
X155196289Y-111010189D01*
X155307789Y-110898689D01*
X155395394Y-110767579D01*
X155455737Y-110621897D01*
X155486500Y-110467242D01*
X155486500Y-110309558D01*
X155486500Y-110309555D01*
X155486499Y-110309553D01*
X155475106Y-110252279D01*
X155455737Y-110154903D01*
X155414927Y-110056379D01*
X155395397Y-110009228D01*
X155395396Y-110009227D01*
X155395394Y-110009221D01*
X155332397Y-109914939D01*
X155311520Y-109848263D01*
X155311500Y-109846050D01*
X155311500Y-107509741D01*
X155311501Y-107509720D01*
X155311501Y-107380391D01*
X155287465Y-107259557D01*
X155287463Y-107259553D01*
X155287463Y-107259549D01*
X155283593Y-107250207D01*
X155257633Y-107187533D01*
X155240312Y-107145715D01*
X155171858Y-107043267D01*
X155171855Y-107043263D01*
X154607245Y-106478655D01*
X154597159Y-106468569D01*
X154597158Y-106468567D01*
X154510033Y-106381442D01*
X154455061Y-106344711D01*
X154448465Y-106340303D01*
X154448461Y-106340300D01*
X154407590Y-106312990D01*
X154407586Y-106312988D01*
X154381070Y-106302005D01*
X154327092Y-106279647D01*
X154293752Y-106265837D01*
X154233329Y-106253818D01*
X154228606Y-106252878D01*
X154228604Y-106252878D01*
X154172910Y-106241800D01*
X154172907Y-106241800D01*
X154172906Y-106241800D01*
X152568450Y-106241800D01*
X152501411Y-106222115D01*
X152499559Y-106220902D01*
X152405284Y-106157909D01*
X152405272Y-106157902D01*
X152259601Y-106097564D01*
X152259589Y-106097561D01*
X152104945Y-106066800D01*
X152104942Y-106066800D01*
X151947258Y-106066800D01*
X151947255Y-106066800D01*
X151792610Y-106097561D01*
X151792598Y-106097564D01*
X151646927Y-106157902D01*
X151646914Y-106157909D01*
X151515811Y-106245510D01*
X151515807Y-106245513D01*
X151404313Y-106357007D01*
X151404310Y-106357011D01*
X151316709Y-106488114D01*
X151316702Y-106488127D01*
X151256364Y-106633798D01*
X151256361Y-106633810D01*
X151225600Y-106788453D01*
X151225600Y-106895700D01*
X151223049Y-106904385D01*
X151224338Y-106913347D01*
X151213359Y-106937387D01*
X151205915Y-106962739D01*
X151199074Y-106968666D01*
X151195313Y-106976903D01*
X151173078Y-106991192D01*
X151153111Y-107008494D01*
X151142596Y-107010781D01*
X151136535Y-107014677D01*
X151101600Y-107019700D01*
X150969400Y-107019700D01*
X150902361Y-107000015D01*
X150856606Y-106947211D01*
X150845400Y-106895700D01*
X150845400Y-106788455D01*
X150845399Y-106788453D01*
X150814637Y-106633803D01*
X150795381Y-106587314D01*
X150754297Y-106488127D01*
X150754290Y-106488114D01*
X150666689Y-106357011D01*
X150666686Y-106357007D01*
X150555192Y-106245513D01*
X150555188Y-106245510D01*
X150424085Y-106157909D01*
X150424072Y-106157902D01*
X150278401Y-106097564D01*
X150278389Y-106097561D01*
X150123745Y-106066800D01*
X150123742Y-106066800D01*
X149966058Y-106066800D01*
X149966055Y-106066800D01*
X149811410Y-106097561D01*
X149811398Y-106097564D01*
X149665727Y-106157902D01*
X149665714Y-106157909D01*
X149534611Y-106245510D01*
X149534607Y-106245513D01*
X149423113Y-106357007D01*
X149423110Y-106357011D01*
X149335509Y-106488114D01*
X149335502Y-106488127D01*
X149275164Y-106633798D01*
X149275161Y-106633810D01*
X149244400Y-106788453D01*
X149244400Y-106946146D01*
X149275161Y-107100789D01*
X149275164Y-107100801D01*
X149335502Y-107246472D01*
X149335509Y-107246485D01*
X149394526Y-107334809D01*
X149415404Y-107401486D01*
X149396920Y-107468866D01*
X149344941Y-107515557D01*
X149291424Y-107527700D01*
X148900454Y-107527700D01*
X148871017Y-107519056D01*
X148841028Y-107512533D01*
X148836011Y-107508777D01*
X148833415Y-107508015D01*
X148812774Y-107491382D01*
X148762851Y-107441460D01*
X148729365Y-107380137D01*
X148734349Y-107310446D01*
X148747424Y-107284896D01*
X148773094Y-107246479D01*
X148833437Y-107100797D01*
X148864200Y-106946142D01*
X148864200Y-106788458D01*
X148864200Y-106788455D01*
X148864199Y-106788453D01*
X148833437Y-106633803D01*
X148814181Y-106587314D01*
X148773097Y-106488127D01*
X148773090Y-106488114D01*
X148685489Y-106357011D01*
X148685486Y-106357007D01*
X148573992Y-106245513D01*
X148573988Y-106245510D01*
X148442885Y-106157909D01*
X148442872Y-106157902D01*
X148297201Y-106097564D01*
X148297189Y-106097561D01*
X148142545Y-106066800D01*
X148142542Y-106066800D01*
X147984858Y-106066800D01*
X147984855Y-106066800D01*
X147830210Y-106097561D01*
X147830198Y-106097564D01*
X147684527Y-106157902D01*
X147684514Y-106157909D01*
X147553411Y-106245510D01*
X147553407Y-106245513D01*
X147441913Y-106357007D01*
X147441910Y-106357011D01*
X147354309Y-106488114D01*
X147354302Y-106488127D01*
X147293964Y-106633798D01*
X147293961Y-106633810D01*
X147263200Y-106788453D01*
X146438500Y-106788453D01*
X146438500Y-105090872D01*
X146458185Y-105023833D01*
X146459398Y-105021981D01*
X146466243Y-105011737D01*
X146486013Y-104982150D01*
X146553894Y-104818269D01*
X146554514Y-104815156D01*
X146588499Y-104644298D01*
X146588500Y-104644296D01*
X146588500Y-104466909D01*
X146588499Y-104466907D01*
X146553896Y-104292944D01*
X146553893Y-104292935D01*
X146486016Y-104129062D01*
X146486009Y-104129049D01*
X146387464Y-103981568D01*
X146387461Y-103981564D01*
X146262038Y-103856141D01*
X146262034Y-103856138D01*
X146114553Y-103757593D01*
X146114540Y-103757586D01*
X145950667Y-103689709D01*
X145950658Y-103689706D01*
X145776694Y-103655103D01*
X145776691Y-103655103D01*
X145599309Y-103655103D01*
X145599306Y-103655103D01*
X145425341Y-103689706D01*
X145425332Y-103689709D01*
X145331536Y-103728561D01*
X145284084Y-103738000D01*
X139463770Y-103738000D01*
X139396731Y-103718315D01*
X139394878Y-103717101D01*
X139355052Y-103690489D01*
X139355047Y-103690487D01*
X139191167Y-103622606D01*
X139191158Y-103622603D01*
X139017194Y-103588000D01*
X139017191Y-103588000D01*
X138839809Y-103588000D01*
X138839806Y-103588000D01*
X138665841Y-103622603D01*
X138665832Y-103622606D01*
X138501959Y-103690483D01*
X138501952Y-103690487D01*
X138462123Y-103717101D01*
X138413480Y-103749602D01*
X138346805Y-103770480D01*
X138344591Y-103770500D01*
X134647270Y-103770500D01*
X134580231Y-103750815D01*
X134578378Y-103749601D01*
X134538552Y-103722989D01*
X134538547Y-103722987D01*
X134374667Y-103655106D01*
X134374658Y-103655103D01*
X134200694Y-103620500D01*
X134200691Y-103620500D01*
X134023309Y-103620500D01*
X134023304Y-103620500D01*
X134022079Y-103620744D01*
X134021425Y-103620685D01*
X134017246Y-103621097D01*
X134017167Y-103620303D01*
X133952488Y-103614509D01*
X133897315Y-103571640D01*
X133874077Y-103505748D01*
X133873900Y-103499124D01*
X133873900Y-103054848D01*
X133893585Y-102987809D01*
X133910219Y-102967167D01*
X134215567Y-102661819D01*
X134276890Y-102628334D01*
X134303248Y-102625500D01*
X144125639Y-102625500D01*
X144192678Y-102645185D01*
X144213321Y-102661820D01*
X144250961Y-102699461D01*
X144250965Y-102699464D01*
X144398446Y-102798009D01*
X144398459Y-102798016D01*
X144521363Y-102848923D01*
X144562334Y-102865894D01*
X144562336Y-102865894D01*
X144562341Y-102865896D01*
X144736304Y-102900499D01*
X144736307Y-102900500D01*
X144736309Y-102900500D01*
X144913693Y-102900500D01*
X144913694Y-102900499D01*
X144971682Y-102888964D01*
X145087658Y-102865896D01*
X145087661Y-102865894D01*
X145087666Y-102865894D01*
X145251547Y-102798013D01*
X145399035Y-102699464D01*
X145524464Y-102574035D01*
X145623013Y-102426547D01*
X145690894Y-102262666D01*
X145691084Y-102261714D01*
X145725499Y-102088695D01*
X145725500Y-102088693D01*
X145725500Y-101911306D01*
X145725499Y-101911304D01*
X145690896Y-101737341D01*
X145690893Y-101737332D01*
X145623016Y-101573459D01*
X145623009Y-101573446D01*
X145524464Y-101425965D01*
X145524461Y-101425961D01*
X145399038Y-101300538D01*
X145399034Y-101300535D01*
X145335629Y-101258169D01*
X145329554Y-101250900D01*
X145321038Y-101246755D01*
X145307511Y-101224525D01*
X145290824Y-101204557D01*
X145289643Y-101195158D01*
X145284720Y-101187067D01*
X145285359Y-101161051D01*
X145282117Y-101135232D01*
X145286250Y-101124828D01*
X145286438Y-101117218D01*
X145296925Y-101097963D01*
X145301884Y-101085483D01*
X145307728Y-101076862D01*
X145310858Y-101073733D01*
X145379311Y-100971286D01*
X145379312Y-100971285D01*
X145412360Y-100891500D01*
X145426463Y-100857452D01*
X145450500Y-100736606D01*
X145450500Y-100514961D01*
X145470185Y-100447922D01*
X145486820Y-100427279D01*
X145524461Y-100389638D01*
X145524464Y-100389635D01*
X145623013Y-100242147D01*
X145690894Y-100078266D01*
X145691704Y-100074197D01*
X145725499Y-99904295D01*
X145725500Y-99904293D01*
X145725500Y-99726906D01*
X145725499Y-99726904D01*
X145690896Y-99552941D01*
X145690893Y-99552932D01*
X145623016Y-99389059D01*
X145623009Y-99389046D01*
X145524464Y-99241565D01*
X145524461Y-99241561D01*
X145399038Y-99116138D01*
X145399034Y-99116135D01*
X145251553Y-99017590D01*
X145251540Y-99017583D01*
X145087667Y-98949706D01*
X145087658Y-98949703D01*
X144913694Y-98915100D01*
X144913691Y-98915100D01*
X144736309Y-98915100D01*
X144736306Y-98915100D01*
X144562341Y-98949703D01*
X144562332Y-98949706D01*
X144398459Y-99017583D01*
X144398446Y-99017590D01*
X144250965Y-99116135D01*
X144250961Y-99116138D01*
X144125538Y-99241561D01*
X144125535Y-99241565D01*
X144026990Y-99389046D01*
X144026983Y-99389059D01*
X143959106Y-99552932D01*
X143959103Y-99552941D01*
X143924500Y-99726904D01*
X143924500Y-99904295D01*
X143959103Y-100078258D01*
X143959106Y-100078267D01*
X144026983Y-100242140D01*
X144026990Y-100242152D01*
X144109148Y-100365109D01*
X144130026Y-100431786D01*
X144111542Y-100499166D01*
X144093727Y-100521681D01*
X143727229Y-100888181D01*
X143665906Y-100921666D01*
X143639548Y-100924500D01*
X133744789Y-100924500D01*
X133684371Y-100936518D01*
X133641143Y-100945116D01*
X133623946Y-100948537D01*
X133510116Y-100995687D01*
X133510107Y-100995692D01*
X133407668Y-101064140D01*
X133373846Y-101097963D01*
X133320542Y-101151267D01*
X133320539Y-101151270D01*
X132399670Y-102072139D01*
X132399667Y-102072142D01*
X132356104Y-102115704D01*
X132312542Y-102159266D01*
X132291950Y-102190085D01*
X132291949Y-102190084D01*
X132244086Y-102261716D01*
X132244085Y-102261718D01*
X132210747Y-102342207D01*
X132205223Y-102355543D01*
X132196937Y-102375545D01*
X132196935Y-102375553D01*
X132172900Y-102496389D01*
X132172900Y-103657115D01*
X132153215Y-103724154D01*
X132100411Y-103769909D01*
X132031253Y-103779853D01*
X132024709Y-103778732D01*
X131895346Y-103753000D01*
X131895342Y-103753000D01*
X131737658Y-103753000D01*
X131737655Y-103753000D01*
X131583010Y-103783761D01*
X131582998Y-103783764D01*
X131437327Y-103844102D01*
X131437314Y-103844109D01*
X131306211Y-103931710D01*
X131306207Y-103931713D01*
X131194713Y-104043207D01*
X131194710Y-104043211D01*
X131107109Y-104174314D01*
X131107102Y-104174327D01*
X131046764Y-104319998D01*
X131046761Y-104320010D01*
X131016000Y-104474653D01*
X131016000Y-104632346D01*
X131046761Y-104786989D01*
X131046764Y-104787001D01*
X131107102Y-104932672D01*
X131107109Y-104932684D01*
X131170102Y-105026959D01*
X131190980Y-105093636D01*
X131191000Y-105095850D01*
X131191000Y-105665307D01*
X131195144Y-105686144D01*
X131208686Y-105754229D01*
X131211210Y-105766914D01*
X131212474Y-105773266D01*
X131215038Y-105786155D01*
X131262185Y-105899980D01*
X131262187Y-105899983D01*
X131262188Y-105899986D01*
X131289020Y-105940142D01*
X131330642Y-106002433D01*
X131417767Y-106089558D01*
X131417770Y-106089560D01*
X131422527Y-106094317D01*
X131425610Y-106097909D01*
X131438112Y-106125631D01*
X131452681Y-106152311D01*
X131452333Y-106157164D01*
X131454335Y-106161601D01*
X131449865Y-106191675D01*
X131447697Y-106222003D01*
X131444780Y-106225899D01*
X131444065Y-106230712D01*
X131424046Y-106253595D01*
X131405825Y-106277936D01*
X131400406Y-106281771D01*
X131306211Y-106344710D01*
X131306207Y-106344713D01*
X131194713Y-106456207D01*
X131194710Y-106456211D01*
X131107109Y-106587314D01*
X131107102Y-106587327D01*
X131046764Y-106732998D01*
X131046761Y-106733010D01*
X131016000Y-106887653D01*
X131016000Y-107045346D01*
X131046761Y-107199989D01*
X131046764Y-107200001D01*
X131107102Y-107345672D01*
X131107109Y-107345685D01*
X131165190Y-107432609D01*
X131186068Y-107499287D01*
X131167583Y-107566667D01*
X131115604Y-107613357D01*
X131062088Y-107625500D01*
X129135452Y-107625500D01*
X129068413Y-107605815D01*
X129047771Y-107589181D01*
X128333793Y-106875203D01*
X128300308Y-106813880D01*
X128299887Y-106811864D01*
X128277737Y-106700503D01*
X128250107Y-106633798D01*
X128217397Y-106554827D01*
X128217390Y-106554814D01*
X128129789Y-106423711D01*
X128129786Y-106423707D01*
X128018292Y-106312213D01*
X128018288Y-106312210D01*
X127887185Y-106224609D01*
X127887172Y-106224602D01*
X127741501Y-106164264D01*
X127741489Y-106164261D01*
X127586845Y-106133500D01*
X127586842Y-106133500D01*
X127488300Y-106133500D01*
X127421261Y-106113815D01*
X127375506Y-106061011D01*
X127364300Y-106009500D01*
X127364300Y-100321651D01*
X127372944Y-100292210D01*
X127379468Y-100262224D01*
X127383222Y-100257208D01*
X127383985Y-100254612D01*
X127400610Y-100233979D01*
X127558798Y-100075790D01*
X127620118Y-100042308D01*
X127622128Y-100041889D01*
X127733497Y-100019737D01*
X127879179Y-99959394D01*
X128010289Y-99871789D01*
X128121789Y-99760289D01*
X128209394Y-99629179D01*
X128269737Y-99483497D01*
X128300500Y-99328842D01*
X128300500Y-99171158D01*
X128300500Y-99171155D01*
X128300499Y-99171153D01*
X128269953Y-99017590D01*
X128269737Y-99016503D01*
X128258221Y-98988701D01*
X128209397Y-98870827D01*
X128209390Y-98870814D01*
X128121789Y-98739711D01*
X128121786Y-98739707D01*
X128010292Y-98628213D01*
X128010288Y-98628210D01*
X127879185Y-98540609D01*
X127879172Y-98540602D01*
X127733501Y-98480264D01*
X127733489Y-98480261D01*
X127578845Y-98449500D01*
X127578842Y-98449500D01*
X127421158Y-98449500D01*
X127421155Y-98449500D01*
X127266510Y-98480261D01*
X127266498Y-98480264D01*
X127120827Y-98540602D01*
X127120813Y-98540610D01*
X127107188Y-98549714D01*
X127097489Y-98552750D01*
X127089811Y-98559404D01*
X127064711Y-98563012D01*
X127040511Y-98570590D01*
X127030712Y-98567901D01*
X127020653Y-98569348D01*
X126997584Y-98558812D01*
X126973131Y-98552104D01*
X126966341Y-98544544D01*
X126957097Y-98540323D01*
X126943386Y-98518988D01*
X126926442Y-98500124D01*
X126923811Y-98488528D01*
X126919323Y-98481545D01*
X126914300Y-98446610D01*
X126914300Y-98200637D01*
X126933985Y-98133598D01*
X126935201Y-98131741D01*
X126936107Y-98130385D01*
X126937556Y-98128217D01*
X126950303Y-98097444D01*
X126979813Y-98026198D01*
X126997899Y-97982535D01*
X127028662Y-97827880D01*
X127028662Y-97749500D01*
X127048347Y-97682461D01*
X127101151Y-97636706D01*
X127152662Y-97625500D01*
X128939548Y-97625500D01*
X128968988Y-97634144D01*
X128998975Y-97640668D01*
X129003990Y-97644422D01*
X129006587Y-97645185D01*
X129027229Y-97661819D01*
X129174205Y-97808795D01*
X129207690Y-97870118D01*
X129208141Y-97872285D01*
X129230261Y-97983489D01*
X129230264Y-97983501D01*
X129290602Y-98129172D01*
X129290609Y-98129185D01*
X129378210Y-98260288D01*
X129378213Y-98260292D01*
X129489707Y-98371786D01*
X129489711Y-98371789D01*
X129620814Y-98459390D01*
X129620827Y-98459397D01*
X129764695Y-98518988D01*
X129766503Y-98519737D01*
X129917207Y-98549714D01*
X129921153Y-98550499D01*
X129921156Y-98550500D01*
X129921158Y-98550500D01*
X130078844Y-98550500D01*
X130078845Y-98550499D01*
X130233497Y-98519737D01*
X130379179Y-98459394D01*
X130510289Y-98371789D01*
X130621789Y-98260289D01*
X130709394Y-98129179D01*
X130709793Y-98128217D01*
X130752058Y-98026178D01*
X130769737Y-97983497D01*
X130800500Y-97828842D01*
X130800500Y-97671158D01*
X130800500Y-97671155D01*
X130800499Y-97671153D01*
X130769738Y-97516510D01*
X130769737Y-97516503D01*
X130740797Y-97446634D01*
X130709397Y-97370827D01*
X130709390Y-97370814D01*
X130621789Y-97239711D01*
X130621786Y-97239707D01*
X130559460Y-97177381D01*
X130548847Y-97157944D01*
X130534347Y-97141211D01*
X130532430Y-97127879D01*
X130525975Y-97116058D01*
X130527554Y-97093971D01*
X130524403Y-97072053D01*
X130529998Y-97059801D01*
X130530959Y-97046366D01*
X130544229Y-97028639D01*
X130553428Y-97008497D01*
X130564759Y-97001214D01*
X130572831Y-96990433D01*
X130593576Y-96982695D01*
X130612206Y-96970723D01*
X130634124Y-96967571D01*
X130638295Y-96966016D01*
X130647141Y-96965700D01*
X130852970Y-96965700D01*
X130920009Y-96985385D01*
X130940651Y-97002019D01*
X131674181Y-97735548D01*
X131707666Y-97796871D01*
X131710500Y-97823229D01*
X131710500Y-99605729D01*
X131690815Y-99672768D01*
X131689602Y-99674620D01*
X131662988Y-99714449D01*
X131662987Y-99714452D01*
X131595106Y-99878332D01*
X131595103Y-99878341D01*
X131560500Y-100052304D01*
X131560500Y-100229695D01*
X131595103Y-100403658D01*
X131595106Y-100403667D01*
X131662983Y-100567540D01*
X131662990Y-100567553D01*
X131761535Y-100715034D01*
X131761538Y-100715038D01*
X131886961Y-100840461D01*
X131886965Y-100840464D01*
X132034446Y-100939009D01*
X132034459Y-100939016D01*
X132157363Y-100989923D01*
X132198334Y-101006894D01*
X132198336Y-101006894D01*
X132198341Y-101006896D01*
X132372304Y-101041499D01*
X132372307Y-101041500D01*
X132372309Y-101041500D01*
X132549693Y-101041500D01*
X132549694Y-101041499D01*
X132607682Y-101029964D01*
X132723658Y-101006896D01*
X132723661Y-101006894D01*
X132723666Y-101006894D01*
X132887547Y-100939013D01*
X133035035Y-100840464D01*
X133160464Y-100715035D01*
X133259013Y-100567547D01*
X133326894Y-100403666D01*
X133329685Y-100389638D01*
X133361499Y-100229695D01*
X133361500Y-100229693D01*
X133361500Y-100052306D01*
X133361499Y-100052304D01*
X133326896Y-99878341D01*
X133326893Y-99878332D01*
X133289267Y-99787494D01*
X133259013Y-99714453D01*
X133259011Y-99714451D01*
X133259011Y-99714449D01*
X133232398Y-99674620D01*
X133211520Y-99607942D01*
X133211500Y-99605729D01*
X133211500Y-98183900D01*
X133231185Y-98116861D01*
X133283989Y-98071106D01*
X133335500Y-98059900D01*
X134226100Y-98059900D01*
X134234785Y-98062450D01*
X134243747Y-98061162D01*
X134267787Y-98072140D01*
X134293139Y-98079585D01*
X134299066Y-98086425D01*
X134307303Y-98090187D01*
X134321592Y-98112421D01*
X134338894Y-98132389D01*
X134341181Y-98142903D01*
X134345077Y-98148965D01*
X134350100Y-98183900D01*
X134350100Y-98212850D01*
X134330415Y-98279889D01*
X134329202Y-98281741D01*
X134266209Y-98376015D01*
X134266202Y-98376028D01*
X134205864Y-98521698D01*
X134205861Y-98521710D01*
X134175100Y-98676353D01*
X134175100Y-98834046D01*
X134205861Y-98988689D01*
X134205864Y-98988701D01*
X134266202Y-99134372D01*
X134266209Y-99134385D01*
X134353810Y-99265488D01*
X134353813Y-99265492D01*
X134465307Y-99376986D01*
X134465311Y-99376989D01*
X134596414Y-99464590D01*
X134596427Y-99464597D01*
X134742098Y-99524935D01*
X134742103Y-99524937D01*
X134882888Y-99552941D01*
X134896753Y-99555699D01*
X134896756Y-99555700D01*
X134896758Y-99555700D01*
X135054444Y-99555700D01*
X135054445Y-99555699D01*
X135209097Y-99524937D01*
X135354779Y-99464594D01*
X135485889Y-99376989D01*
X135597389Y-99265489D01*
X135684994Y-99134379D01*
X135745337Y-98988697D01*
X135770829Y-98860537D01*
X135803213Y-98798628D01*
X135863929Y-98764054D01*
X135916636Y-98763113D01*
X135956789Y-98771100D01*
X135956790Y-98771100D01*
X137684450Y-98771100D01*
X137751489Y-98790785D01*
X137753341Y-98791998D01*
X137847621Y-98854994D01*
X137847623Y-98854995D01*
X137847627Y-98854997D01*
X137992731Y-98915100D01*
X137993303Y-98915337D01*
X138147953Y-98946099D01*
X138147956Y-98946100D01*
X138147958Y-98946100D01*
X138305644Y-98946100D01*
X138305645Y-98946099D01*
X138460297Y-98915337D01*
X138605979Y-98854994D01*
X138737089Y-98767389D01*
X138848589Y-98655889D01*
X138936194Y-98524779D01*
X138938283Y-98519737D01*
X138988796Y-98397785D01*
X138996537Y-98379097D01*
X139020170Y-98260288D01*
X139027299Y-98224448D01*
X139027487Y-98222544D01*
X139027863Y-98221610D01*
X139028489Y-98218468D01*
X139029085Y-98218586D01*
X139053649Y-98157757D01*
X139110684Y-98117399D01*
X139150890Y-98110700D01*
X140900373Y-98110700D01*
X140967412Y-98130385D01*
X141013167Y-98183189D01*
X141021990Y-98210508D01*
X141030261Y-98252091D01*
X141030264Y-98252101D01*
X141090602Y-98397772D01*
X141090609Y-98397785D01*
X141178210Y-98528888D01*
X141178213Y-98528892D01*
X141289707Y-98640386D01*
X141289711Y-98640389D01*
X141420814Y-98727990D01*
X141420827Y-98727997D01*
X141529891Y-98773172D01*
X141566503Y-98788337D01*
X141721153Y-98819099D01*
X141721156Y-98819100D01*
X141721158Y-98819100D01*
X141878844Y-98819100D01*
X141878845Y-98819099D01*
X142033497Y-98788337D01*
X142179179Y-98727994D01*
X142310289Y-98640389D01*
X142421789Y-98528889D01*
X142509394Y-98397779D01*
X142510281Y-98395639D01*
X142538049Y-98328600D01*
X142569737Y-98252097D01*
X142600500Y-98097442D01*
X142600500Y-97939758D01*
X142600500Y-97939755D01*
X142600499Y-97939753D01*
X142587079Y-97872285D01*
X142569737Y-97785103D01*
X142563372Y-97769737D01*
X142509397Y-97639427D01*
X142509390Y-97639414D01*
X142421789Y-97508311D01*
X142421786Y-97508307D01*
X142310292Y-97396813D01*
X142310288Y-97396810D01*
X142179185Y-97309209D01*
X142179172Y-97309202D01*
X142033501Y-97248864D01*
X142033491Y-97248861D01*
X141900812Y-97222469D01*
X141884055Y-97213703D01*
X141865577Y-97209684D01*
X141840540Y-97190941D01*
X141838901Y-97190084D01*
X141837323Y-97188533D01*
X141742328Y-97093538D01*
X141742326Y-97093535D01*
X141742325Y-97093534D01*
X141742325Y-97093535D01*
X141735258Y-97086468D01*
X141735258Y-97086467D01*
X141648133Y-96999342D01*
X141648132Y-96999341D01*
X141648131Y-96999340D01*
X141597245Y-96965339D01*
X141597241Y-96965337D01*
X141591186Y-96961291D01*
X141545686Y-96930888D01*
X141465192Y-96897547D01*
X141456982Y-96894146D01*
X141431853Y-96883737D01*
X141421827Y-96881743D01*
X141371429Y-96871718D01*
X141311010Y-96859700D01*
X141311007Y-96859700D01*
X141311006Y-96859700D01*
X136304844Y-96859700D01*
X136237805Y-96840015D01*
X136217163Y-96823381D01*
X135537084Y-96143302D01*
X135529452Y-96135670D01*
X135529450Y-96135667D01*
X135442325Y-96048542D01*
X135379713Y-96006706D01*
X135373443Y-96002516D01*
X135373438Y-96002512D01*
X135339882Y-95980090D01*
X135339878Y-95980088D01*
X135259384Y-95946747D01*
X135226044Y-95932937D01*
X135165621Y-95920918D01*
X135160898Y-95919978D01*
X135160896Y-95919978D01*
X135105202Y-95908900D01*
X135105199Y-95908900D01*
X135105198Y-95908900D01*
X133930817Y-95908900D01*
X133863778Y-95889215D01*
X133843136Y-95872581D01*
X132319315Y-94348760D01*
X132312025Y-94341470D01*
X132312023Y-94341467D01*
X132224898Y-94254342D01*
X132173674Y-94220115D01*
X132122451Y-94185888D01*
X132122448Y-94185886D01*
X132122445Y-94185885D01*
X132048768Y-94155368D01*
X132048766Y-94155367D01*
X132041957Y-94152547D01*
X132008617Y-94138737D01*
X131948194Y-94126718D01*
X131943471Y-94125778D01*
X131943469Y-94125778D01*
X131887775Y-94114700D01*
X131887772Y-94114700D01*
X131887771Y-94114700D01*
X106093649Y-94114700D01*
X106026610Y-94095015D01*
X106005968Y-94078381D01*
X105689727Y-93762140D01*
X105656242Y-93700817D01*
X105653408Y-93674459D01*
X105653408Y-92910553D01*
X119519300Y-92910553D01*
X119519300Y-93068246D01*
X119550061Y-93222889D01*
X119550064Y-93222901D01*
X119610402Y-93368572D01*
X119610409Y-93368585D01*
X119698010Y-93499688D01*
X119698013Y-93499692D01*
X119809507Y-93611186D01*
X119809511Y-93611189D01*
X119940614Y-93698790D01*
X119940627Y-93698797D01*
X120005870Y-93725821D01*
X120086303Y-93759137D01*
X120240953Y-93789899D01*
X120240956Y-93789900D01*
X120240958Y-93789900D01*
X120398644Y-93789900D01*
X120398645Y-93789899D01*
X120553297Y-93759137D01*
X120698979Y-93698794D01*
X120830089Y-93611189D01*
X120941589Y-93499689D01*
X121029194Y-93368579D01*
X121089537Y-93222897D01*
X121120300Y-93068242D01*
X121120300Y-92910558D01*
X121120300Y-92910555D01*
X121120299Y-92910553D01*
X121119052Y-92904286D01*
X121089537Y-92755903D01*
X121051944Y-92665146D01*
X121044476Y-92595680D01*
X121075751Y-92533200D01*
X121135840Y-92497548D01*
X121174666Y-92494597D01*
X121174666Y-92494500D01*
X121175954Y-92494500D01*
X121178665Y-92494294D01*
X121180756Y-92494500D01*
X121180758Y-92494500D01*
X121338444Y-92494500D01*
X121338445Y-92494499D01*
X121493097Y-92463737D01*
X121638779Y-92403394D01*
X121733059Y-92340398D01*
X121799736Y-92319520D01*
X121801950Y-92319500D01*
X134083713Y-92319500D01*
X134150752Y-92339185D01*
X134196507Y-92391989D01*
X134205330Y-92419309D01*
X134224561Y-92515989D01*
X134224564Y-92516001D01*
X134284902Y-92661672D01*
X134284909Y-92661685D01*
X134372510Y-92792788D01*
X134372513Y-92792792D01*
X134484007Y-92904286D01*
X134484011Y-92904289D01*
X134615114Y-92991890D01*
X134615127Y-92991897D01*
X134760798Y-93052235D01*
X134760803Y-93052237D01*
X134915453Y-93082999D01*
X134915456Y-93083000D01*
X134915458Y-93083000D01*
X135073144Y-93083000D01*
X135073145Y-93082999D01*
X135227797Y-93052237D01*
X135373479Y-92991894D01*
X135504589Y-92904289D01*
X135616089Y-92792789D01*
X135703694Y-92661679D01*
X135764037Y-92515997D01*
X135794800Y-92361342D01*
X135794800Y-92203658D01*
X135794800Y-92203655D01*
X135794799Y-92203653D01*
X135791446Y-92186797D01*
X135764037Y-92049003D01*
X135764035Y-92048998D01*
X135703697Y-91903327D01*
X135703688Y-91903311D01*
X135693050Y-91887389D01*
X135672173Y-91820712D01*
X135690658Y-91753332D01*
X135742638Y-91706642D01*
X135796153Y-91694500D01*
X136475007Y-91694500D01*
X136535429Y-91682481D01*
X136595852Y-91670463D01*
X136650442Y-91647851D01*
X136656176Y-91645475D01*
X136656179Y-91645475D01*
X136709681Y-91623314D01*
X136709680Y-91623314D01*
X136709686Y-91623312D01*
X136760909Y-91589084D01*
X136812133Y-91554858D01*
X136899258Y-91467733D01*
X136899258Y-91467731D01*
X136909466Y-91457524D01*
X136909467Y-91457521D01*
X137806640Y-90560351D01*
X137811682Y-90552806D01*
X137875094Y-90457903D01*
X137922246Y-90344069D01*
X137946283Y-90223223D01*
X137946283Y-87631850D01*
X137965968Y-87564811D01*
X137967181Y-87562959D01*
X137987165Y-87533051D01*
X138030177Y-87468679D01*
X138090520Y-87322997D01*
X138121283Y-87168342D01*
X138121283Y-87010658D01*
X138121283Y-87010655D01*
X138121282Y-87010653D01*
X138090521Y-86856010D01*
X138090520Y-86856003D01*
X138090518Y-86855998D01*
X138030180Y-86710327D01*
X138030173Y-86710314D01*
X137942572Y-86579211D01*
X137942569Y-86579207D01*
X137831075Y-86467713D01*
X137831071Y-86467710D01*
X137699968Y-86380109D01*
X137699955Y-86380102D01*
X137554284Y-86319764D01*
X137554272Y-86319761D01*
X137399628Y-86289000D01*
X137399625Y-86289000D01*
X137241941Y-86289000D01*
X137241938Y-86289000D01*
X137087293Y-86319761D01*
X137087281Y-86319764D01*
X136941610Y-86380102D01*
X136941597Y-86380109D01*
X136810494Y-86467710D01*
X136810490Y-86467713D01*
X136698996Y-86579207D01*
X136698993Y-86579211D01*
X136611392Y-86710314D01*
X136611385Y-86710327D01*
X136551047Y-86855998D01*
X136551044Y-86856010D01*
X136520283Y-87010653D01*
X136520283Y-87168346D01*
X136551044Y-87322989D01*
X136551047Y-87323001D01*
X136611385Y-87468672D01*
X136611392Y-87468684D01*
X136674385Y-87562959D01*
X136695263Y-87629636D01*
X136695283Y-87631850D01*
X136695283Y-89851164D01*
X136675598Y-89918203D01*
X136658964Y-89938845D01*
X136190629Y-90407181D01*
X136129306Y-90440666D01*
X136102948Y-90443500D01*
X121037941Y-90443500D01*
X121037921Y-90443499D01*
X121031807Y-90443499D01*
X120908594Y-90443499D01*
X120807797Y-90463548D01*
X120807792Y-90463548D01*
X120787749Y-90467536D01*
X120787747Y-90467536D01*
X120740597Y-90487067D01*
X120673919Y-90514685D01*
X120673917Y-90514686D01*
X120571466Y-90583141D01*
X120571463Y-90583144D01*
X119921069Y-91233540D01*
X119833944Y-91320664D01*
X119833938Y-91320672D01*
X119765490Y-91423108D01*
X119765489Y-91423110D01*
X119735423Y-91495698D01*
X119718336Y-91536947D01*
X119718336Y-91536948D01*
X119717437Y-91541468D01*
X119717438Y-91541469D01*
X119699431Y-91632000D01*
X119699430Y-91632002D01*
X119694300Y-91657791D01*
X119694300Y-92447050D01*
X119674615Y-92514089D01*
X119673426Y-92515903D01*
X119652602Y-92547068D01*
X119610409Y-92610215D01*
X119610402Y-92610228D01*
X119550064Y-92755898D01*
X119550061Y-92755910D01*
X119519300Y-92910553D01*
X105653408Y-92910553D01*
X105653408Y-91727258D01*
X105673093Y-91660219D01*
X105674306Y-91658367D01*
X105685662Y-91641372D01*
X105737302Y-91564087D01*
X105740552Y-91556242D01*
X105777214Y-91467730D01*
X105797645Y-91418405D01*
X105828408Y-91263750D01*
X105828408Y-91106066D01*
X105828408Y-91106063D01*
X105828407Y-91106061D01*
X105826849Y-91098228D01*
X105797645Y-90951411D01*
X105769315Y-90883015D01*
X105737305Y-90805735D01*
X105737298Y-90805722D01*
X105649697Y-90674619D01*
X105649694Y-90674615D01*
X105538200Y-90563121D01*
X105538196Y-90563118D01*
X105407093Y-90475517D01*
X105407080Y-90475510D01*
X105261409Y-90415172D01*
X105261399Y-90415169D01*
X105128216Y-90388677D01*
X105066305Y-90356292D01*
X105031731Y-90295576D01*
X105028408Y-90267060D01*
X105028408Y-89303144D01*
X105037052Y-89273704D01*
X105043575Y-89243719D01*
X105047330Y-89238701D01*
X105048093Y-89236105D01*
X105064722Y-89215467D01*
X105096106Y-89184083D01*
X105157426Y-89150599D01*
X105227118Y-89155583D01*
X105231215Y-89157194D01*
X105303503Y-89187137D01*
X105458153Y-89217899D01*
X105458156Y-89217900D01*
X105458158Y-89217900D01*
X105615844Y-89217900D01*
X105615845Y-89217899D01*
X105770497Y-89187137D01*
X105916179Y-89126794D01*
X106047289Y-89039189D01*
X106158789Y-88927689D01*
X106235430Y-88812987D01*
X106289038Y-88768186D01*
X106358363Y-88759477D01*
X106421391Y-88789632D01*
X106426210Y-88794200D01*
X107376381Y-89744371D01*
X107409866Y-89805694D01*
X107412700Y-89832052D01*
X107412700Y-90935050D01*
X107393015Y-91002089D01*
X107391826Y-91003903D01*
X107371002Y-91035068D01*
X107328809Y-91098215D01*
X107328802Y-91098228D01*
X107268464Y-91243898D01*
X107268461Y-91243910D01*
X107237700Y-91398553D01*
X107237700Y-91556246D01*
X107268461Y-91710889D01*
X107268464Y-91710901D01*
X107328802Y-91856572D01*
X107328809Y-91856585D01*
X107416410Y-91987688D01*
X107416413Y-91987692D01*
X107527907Y-92099186D01*
X107527911Y-92099189D01*
X107659014Y-92186790D01*
X107659027Y-92186797D01*
X107804698Y-92247135D01*
X107804703Y-92247137D01*
X107959353Y-92277899D01*
X107959356Y-92277900D01*
X107959358Y-92277900D01*
X108117044Y-92277900D01*
X108117045Y-92277899D01*
X108271697Y-92247137D01*
X108417379Y-92186794D01*
X108548489Y-92099189D01*
X108659989Y-91987689D01*
X108747594Y-91856579D01*
X108807937Y-91710897D01*
X108838700Y-91556242D01*
X108838700Y-91398558D01*
X108838700Y-91398555D01*
X108838699Y-91398553D01*
X108823206Y-91320664D01*
X108807937Y-91243903D01*
X108782857Y-91183353D01*
X108747597Y-91098228D01*
X108747596Y-91098227D01*
X108747594Y-91098221D01*
X108684597Y-91003939D01*
X108663720Y-90937263D01*
X108663700Y-90935050D01*
X108663700Y-90030500D01*
X108683385Y-89963461D01*
X108736189Y-89917706D01*
X108787700Y-89906500D01*
X110382748Y-89906500D01*
X110412188Y-89915144D01*
X110442175Y-89921668D01*
X110447190Y-89925422D01*
X110449787Y-89926185D01*
X110470429Y-89942819D01*
X110564781Y-90037171D01*
X110598266Y-90098494D01*
X110601100Y-90124852D01*
X110601100Y-90719850D01*
X110581415Y-90786889D01*
X110580202Y-90788741D01*
X110517209Y-90883015D01*
X110517202Y-90883028D01*
X110456864Y-91028698D01*
X110456861Y-91028710D01*
X110426100Y-91183353D01*
X110426100Y-91341046D01*
X110456861Y-91495689D01*
X110456864Y-91495701D01*
X110517202Y-91641372D01*
X110517209Y-91641385D01*
X110604810Y-91772488D01*
X110604813Y-91772492D01*
X110716307Y-91883986D01*
X110716311Y-91883989D01*
X110847414Y-91971590D01*
X110847427Y-91971597D01*
X110993098Y-92031935D01*
X110993103Y-92031937D01*
X111147753Y-92062699D01*
X111147756Y-92062700D01*
X111147758Y-92062700D01*
X111305444Y-92062700D01*
X111305445Y-92062699D01*
X111460097Y-92031937D01*
X111605779Y-91971594D01*
X111736889Y-91883989D01*
X111848389Y-91772489D01*
X111935994Y-91641379D01*
X111996337Y-91495697D01*
X112027100Y-91341042D01*
X112027100Y-91183358D01*
X112027100Y-91183355D01*
X112027099Y-91183353D01*
X111996337Y-91028703D01*
X111935994Y-90883021D01*
X111872997Y-90788739D01*
X111852120Y-90722063D01*
X111852100Y-90719850D01*
X111852100Y-89882141D01*
X111852101Y-89882120D01*
X111852101Y-89752791D01*
X111828064Y-89631955D01*
X111828063Y-89631949D01*
X111780912Y-89518115D01*
X111712458Y-89415667D01*
X111712455Y-89415663D01*
X111636117Y-89339325D01*
X111602632Y-89278002D01*
X111607616Y-89208310D01*
X111649488Y-89152377D01*
X111714952Y-89127960D01*
X111723798Y-89127644D01*
X112618226Y-89127644D01*
X112685265Y-89147329D01*
X112687117Y-89148542D01*
X112781397Y-89211538D01*
X112781399Y-89211539D01*
X112781403Y-89211541D01*
X112859089Y-89243719D01*
X112927079Y-89271881D01*
X113081729Y-89302643D01*
X113081732Y-89302644D01*
X113081734Y-89302644D01*
X113239420Y-89302644D01*
X113239421Y-89302643D01*
X113394073Y-89271881D01*
X113539755Y-89211538D01*
X113670865Y-89123933D01*
X113782365Y-89012433D01*
X113869970Y-88881323D01*
X113930313Y-88735641D01*
X113961076Y-88580986D01*
X113961076Y-88423302D01*
X113961076Y-88423299D01*
X113961075Y-88423297D01*
X113930314Y-88268654D01*
X113930313Y-88268647D01*
X113911716Y-88223751D01*
X113904248Y-88154284D01*
X113935523Y-88091804D01*
X113995612Y-88056152D01*
X114026278Y-88052300D01*
X134503808Y-88052300D01*
X134503808Y-88052299D01*
X134574588Y-88038221D01*
X134624652Y-88028263D01*
X134657992Y-88014452D01*
X134738486Y-87981112D01*
X134789709Y-87946884D01*
X134840933Y-87912658D01*
X134928058Y-87825533D01*
X134928059Y-87825531D01*
X134935125Y-87818465D01*
X134935128Y-87818461D01*
X138269929Y-84483660D01*
X138269933Y-84483658D01*
X138357058Y-84396533D01*
X138425511Y-84294086D01*
X138472663Y-84180252D01*
X138496700Y-84059406D01*
X138496700Y-64706998D01*
X138493617Y-64691500D01*
X138472663Y-64586153D01*
X138469123Y-64577607D01*
X138455072Y-64543683D01*
X138455071Y-64543680D01*
X138455071Y-64543679D01*
X138425514Y-64472322D01*
X138425513Y-64472320D01*
X138419654Y-64463552D01*
X138393039Y-64423720D01*
X138382666Y-64408195D01*
X138382663Y-64408192D01*
X138377650Y-64400689D01*
X138357058Y-64369871D01*
X138269933Y-64282746D01*
X138269929Y-64282743D01*
X137658794Y-63671608D01*
X137658774Y-63671586D01*
X137567329Y-63580141D01*
X137521921Y-63549801D01*
X137521920Y-63549800D01*
X137516105Y-63545915D01*
X137464882Y-63511688D01*
X137384388Y-63478347D01*
X137369053Y-63471995D01*
X137351049Y-63464537D01*
X137341023Y-63462543D01*
X137290625Y-63452518D01*
X137230206Y-63440500D01*
X137230203Y-63440500D01*
X137230202Y-63440500D01*
X135116848Y-63440500D01*
X135049809Y-63420815D01*
X135029167Y-63404181D01*
X134723019Y-63098033D01*
X134689534Y-63036710D01*
X134686700Y-63010352D01*
X134686700Y-60447770D01*
X134706385Y-60380731D01*
X134759189Y-60334976D01*
X134828347Y-60325032D01*
X134834881Y-60326151D01*
X134866507Y-60332441D01*
X134886908Y-60336500D01*
X134886909Y-60336500D01*
X135064293Y-60336500D01*
X135064294Y-60336499D01*
X135122282Y-60324964D01*
X135238258Y-60301896D01*
X135238261Y-60301894D01*
X135238266Y-60301894D01*
X135402147Y-60234013D01*
X135443073Y-60206667D01*
X135554700Y-60132080D01*
X135556089Y-60134159D01*
X135610327Y-60111132D01*
X135624666Y-60110300D01*
X136776720Y-60110300D01*
X136874262Y-60090896D01*
X136921713Y-60081458D01*
X137058295Y-60024884D01*
X137116289Y-59986134D01*
X137181216Y-59942752D01*
X137993352Y-59130615D01*
X138047276Y-59049911D01*
X138075484Y-59007695D01*
X138127804Y-58881384D01*
X138132059Y-58871112D01*
X138160900Y-58726117D01*
X138160900Y-58578282D01*
X138160900Y-53773669D01*
X138180585Y-53706630D01*
X138181798Y-53704778D01*
X138208413Y-53664947D01*
X138276294Y-53501066D01*
X138310900Y-53327091D01*
X138310900Y-53149709D01*
X138310900Y-53149706D01*
X138310899Y-53149704D01*
X138276296Y-52975741D01*
X138276293Y-52975732D01*
X138267163Y-52953690D01*
X138208413Y-52811853D01*
X138208411Y-52811851D01*
X138208411Y-52811849D01*
X138181798Y-52772020D01*
X138160920Y-52705342D01*
X138160900Y-52703129D01*
X138160900Y-48614280D01*
X138153936Y-48579276D01*
X138143492Y-48526768D01*
X138132059Y-48469288D01*
X138089005Y-48365347D01*
X138075484Y-48332705D01*
X138015804Y-48243387D01*
X137993352Y-48209784D01*
X137811949Y-48028381D01*
X137778464Y-47967058D01*
X137783448Y-47897366D01*
X137825320Y-47841433D01*
X137890784Y-47817016D01*
X137899630Y-47816700D01*
X145306770Y-47816700D01*
X145373809Y-47836385D01*
X145394451Y-47853019D01*
X148742981Y-51201549D01*
X148776466Y-51262872D01*
X148779300Y-51289230D01*
X148779300Y-60771300D01*
X148759615Y-60838339D01*
X148706811Y-60884094D01*
X148655300Y-60895300D01*
X137812934Y-60895300D01*
X137765482Y-60885861D01*
X137622267Y-60826540D01*
X137622258Y-60826537D01*
X137448294Y-60791934D01*
X137448291Y-60791934D01*
X137270909Y-60791934D01*
X137270906Y-60791934D01*
X137096941Y-60826537D01*
X137096932Y-60826540D01*
X136933059Y-60894417D01*
X136933046Y-60894424D01*
X136785565Y-60992969D01*
X136785561Y-60992972D01*
X136660138Y-61118395D01*
X136660135Y-61118399D01*
X136561590Y-61265880D01*
X136561583Y-61265893D01*
X136493706Y-61429766D01*
X136493703Y-61429775D01*
X136459100Y-61603738D01*
X136459100Y-61781129D01*
X136493703Y-61955092D01*
X136493706Y-61955101D01*
X136561583Y-62118974D01*
X136561590Y-62118987D01*
X136660135Y-62266468D01*
X136660138Y-62266472D01*
X136785561Y-62391895D01*
X136785565Y-62391898D01*
X136933046Y-62490443D01*
X136933059Y-62490450D01*
X136988609Y-62513459D01*
X137096934Y-62558328D01*
X137096936Y-62558328D01*
X137096941Y-62558330D01*
X137270904Y-62592933D01*
X137270907Y-62592934D01*
X137270909Y-62592934D01*
X137448293Y-62592934D01*
X137448294Y-62592933D01*
X137506282Y-62581398D01*
X137622258Y-62558330D01*
X137622261Y-62558328D01*
X137622266Y-62558328D01*
X137786147Y-62490447D01*
X137895771Y-62417197D01*
X137962448Y-62396320D01*
X137964662Y-62396300D01*
X148994530Y-62396300D01*
X149061569Y-62415985D01*
X149063422Y-62417199D01*
X149103247Y-62443810D01*
X149103250Y-62443811D01*
X149103253Y-62443813D01*
X149267134Y-62511694D01*
X149267136Y-62511694D01*
X149267141Y-62511696D01*
X149441104Y-62546299D01*
X149441107Y-62546300D01*
X149441109Y-62546300D01*
X149618493Y-62546300D01*
X149618494Y-62546299D01*
X149676482Y-62534764D01*
X149792458Y-62511696D01*
X149792461Y-62511694D01*
X149792466Y-62511694D01*
X149956347Y-62443813D01*
X150103835Y-62345264D01*
X150229264Y-62219835D01*
X150327813Y-62072347D01*
X150395694Y-61908466D01*
X150430300Y-61734491D01*
X150430300Y-61557109D01*
X150430300Y-61557106D01*
X150430299Y-61557104D01*
X150395696Y-61383141D01*
X150395693Y-61383132D01*
X150327813Y-61219253D01*
X150327811Y-61219251D01*
X150327811Y-61219249D01*
X150301198Y-61179420D01*
X150280320Y-61112742D01*
X150280300Y-61110529D01*
X150280300Y-50853081D01*
X150276333Y-50833138D01*
X150265169Y-50777016D01*
X150251459Y-50708088D01*
X150206485Y-50599512D01*
X150194884Y-50571505D01*
X150161986Y-50522270D01*
X150161985Y-50522268D01*
X150112756Y-50448589D01*
X150112752Y-50448584D01*
X146147421Y-46483252D01*
X146147420Y-46483251D01*
X146052661Y-46419936D01*
X146024495Y-46401116D01*
X146024488Y-46401112D01*
X145887917Y-46344543D01*
X145887907Y-46344540D01*
X145742920Y-46315700D01*
X145742918Y-46315700D01*
X107879481Y-46315700D01*
X107832029Y-46306261D01*
X107704667Y-46253506D01*
X107704658Y-46253503D01*
X107530694Y-46218900D01*
X107530691Y-46218900D01*
X107353309Y-46218900D01*
X107353306Y-46218900D01*
X107179341Y-46253503D01*
X107179332Y-46253506D01*
X107015459Y-46321383D01*
X107015446Y-46321390D01*
X106867965Y-46419935D01*
X106867961Y-46419938D01*
X106742538Y-46545361D01*
X106742535Y-46545365D01*
X106643990Y-46692846D01*
X106643983Y-46692859D01*
X106576106Y-46856732D01*
X106576103Y-46856741D01*
X106541500Y-47030704D01*
X106541500Y-47094900D01*
X106521815Y-47161939D01*
X106469011Y-47207694D01*
X106417500Y-47218900D01*
X106236280Y-47218900D01*
X106091292Y-47247740D01*
X106091282Y-47247743D01*
X105954711Y-47304312D01*
X105954704Y-47304316D01*
X105935381Y-47317227D01*
X105925653Y-47323728D01*
X105831782Y-47386449D01*
X105831781Y-47386450D01*
X105086007Y-48132223D01*
X105024684Y-48165708D01*
X105022519Y-48166159D01*
X104975537Y-48175504D01*
X104975531Y-48175506D01*
X104811659Y-48243383D01*
X104811651Y-48243388D01*
X104664165Y-48341935D01*
X104664161Y-48341938D01*
X104538738Y-48467361D01*
X104538735Y-48467365D01*
X104440190Y-48614846D01*
X104440183Y-48614859D01*
X104372306Y-48778732D01*
X104372303Y-48778741D01*
X104337700Y-48952704D01*
X104337700Y-49130095D01*
X104372303Y-49304058D01*
X104372306Y-49304067D01*
X104440183Y-49467940D01*
X104440190Y-49467953D01*
X104538735Y-49615434D01*
X104538738Y-49615438D01*
X104664161Y-49740861D01*
X104664165Y-49740864D01*
X104811646Y-49839409D01*
X104811659Y-49839416D01*
X104934381Y-49890248D01*
X104975534Y-49907294D01*
X104975536Y-49907294D01*
X104975541Y-49907296D01*
X105149504Y-49941899D01*
X105149507Y-49941900D01*
X105149509Y-49941900D01*
X105326893Y-49941900D01*
X105326894Y-49941899D01*
X105403975Y-49926567D01*
X105500858Y-49907296D01*
X105500861Y-49907294D01*
X105500866Y-49907294D01*
X105664747Y-49839413D01*
X105812235Y-49740864D01*
X105937664Y-49615435D01*
X106036213Y-49467947D01*
X106040028Y-49458738D01*
X106055617Y-49421101D01*
X106104094Y-49304066D01*
X106113439Y-49257080D01*
X106145822Y-49195172D01*
X106147316Y-49193650D01*
X106584749Y-48756219D01*
X106646072Y-48722734D01*
X106672430Y-48719900D01*
X118143570Y-48719900D01*
X118210609Y-48739585D01*
X118256364Y-48792389D01*
X118266308Y-48861547D01*
X118237283Y-48925103D01*
X118231251Y-48931581D01*
X118025550Y-49137281D01*
X118025547Y-49137284D01*
X117992503Y-49186738D01*
X117992504Y-49186739D01*
X117943413Y-49260208D01*
X117886843Y-49396782D01*
X117886840Y-49396792D01*
X117858000Y-49541779D01*
X117858000Y-50567600D01*
X117838315Y-50634639D01*
X117785511Y-50680394D01*
X117734000Y-50691600D01*
X106268780Y-50691600D01*
X106123792Y-50720440D01*
X106123782Y-50720443D01*
X105987211Y-50777012D01*
X105987203Y-50777017D01*
X105864284Y-50859148D01*
X105864280Y-50859151D01*
X104543345Y-52180086D01*
X104526877Y-52204735D01*
X104526876Y-52204737D01*
X104461213Y-52303008D01*
X104404643Y-52439582D01*
X104404640Y-52439592D01*
X104375800Y-52584579D01*
X104375800Y-53857695D01*
X104356115Y-53924734D01*
X104303311Y-53970489D01*
X104234153Y-53980433D01*
X104170597Y-53951408D01*
X104148698Y-53926586D01*
X104052064Y-53781965D01*
X104052061Y-53781961D01*
X103926638Y-53656538D01*
X103926634Y-53656535D01*
X103779153Y-53557990D01*
X103779140Y-53557983D01*
X103615267Y-53490106D01*
X103615258Y-53490103D01*
X103441294Y-53455500D01*
X103441291Y-53455500D01*
X103263909Y-53455500D01*
X103263906Y-53455500D01*
X103089941Y-53490103D01*
X103089932Y-53490106D01*
X102926059Y-53557983D01*
X102926046Y-53557990D01*
X102778565Y-53656535D01*
X102778561Y-53656538D01*
X102653138Y-53781961D01*
X102653135Y-53781965D01*
X102554590Y-53929446D01*
X102554583Y-53929459D01*
X102486706Y-54093332D01*
X102486703Y-54093341D01*
X102452100Y-54267304D01*
X102452100Y-54444695D01*
X102486703Y-54618658D01*
X102486706Y-54618667D01*
X102554584Y-54782542D01*
X102554585Y-54782543D01*
X102554587Y-54782547D01*
X102576700Y-54815641D01*
X102606602Y-54860392D01*
X102627480Y-54927069D01*
X102627500Y-54929283D01*
X102627500Y-59713529D01*
X102607815Y-59780568D01*
X102606602Y-59782420D01*
X102579988Y-59822249D01*
X102579987Y-59822252D01*
X102512106Y-59986132D01*
X102512103Y-59986141D01*
X102477500Y-60160104D01*
X102477500Y-60337495D01*
X102512103Y-60511458D01*
X102512106Y-60511467D01*
X102579983Y-60675340D01*
X102579990Y-60675353D01*
X102678535Y-60822834D01*
X102678538Y-60822838D01*
X102716180Y-60860479D01*
X102749666Y-60921801D01*
X102752500Y-60948161D01*
X102752500Y-64127951D01*
X102732815Y-64194990D01*
X102716181Y-64215632D01*
X102388134Y-64543679D01*
X102122870Y-64808943D01*
X102122867Y-64808946D01*
X102095306Y-64836507D01*
X102035742Y-64896070D01*
X102015150Y-64926889D01*
X102015149Y-64926888D01*
X101967289Y-64998515D01*
X101965904Y-65001859D01*
X101949459Y-65041563D01*
X101920137Y-65112352D01*
X101896100Y-65233198D01*
X101270500Y-65233198D01*
X101270500Y-43865920D01*
X113092299Y-43865920D01*
X113121140Y-44010907D01*
X113121143Y-44010917D01*
X113177712Y-44147488D01*
X113177716Y-44147495D01*
X113193787Y-44171547D01*
X113193788Y-44171550D01*
X113259846Y-44270414D01*
X113259852Y-44270421D01*
X113965523Y-44976091D01*
X113999008Y-45037414D01*
X113999459Y-45039580D01*
X114008804Y-45086560D01*
X114008806Y-45086568D01*
X114076683Y-45250440D01*
X114076690Y-45250453D01*
X114175235Y-45397934D01*
X114175238Y-45397938D01*
X114300661Y-45523361D01*
X114300665Y-45523364D01*
X114448146Y-45621909D01*
X114448159Y-45621916D01*
X114571063Y-45672823D01*
X114612034Y-45689794D01*
X114612036Y-45689794D01*
X114612041Y-45689796D01*
X114786004Y-45724399D01*
X114786007Y-45724400D01*
X114786009Y-45724400D01*
X114963393Y-45724400D01*
X114963394Y-45724399D01*
X115021382Y-45712864D01*
X115137358Y-45689796D01*
X115137361Y-45689794D01*
X115137366Y-45689794D01*
X115301247Y-45621913D01*
X115448735Y-45523364D01*
X115574164Y-45397935D01*
X115672713Y-45250447D01*
X115740594Y-45086566D01*
X115775200Y-44912591D01*
X115775200Y-44735209D01*
X115775200Y-44735206D01*
X115775199Y-44735204D01*
X115740596Y-44561241D01*
X115740593Y-44561232D01*
X115739328Y-44558179D01*
X115679270Y-44413182D01*
X115672716Y-44397359D01*
X115672709Y-44397346D01*
X115574164Y-44249865D01*
X115574161Y-44249861D01*
X115448738Y-44124438D01*
X115448734Y-44124435D01*
X115301253Y-44025890D01*
X115301240Y-44025883D01*
X115137368Y-43958006D01*
X115137360Y-43958004D01*
X115090380Y-43948659D01*
X115028469Y-43916274D01*
X115026891Y-43914723D01*
X114629619Y-43517451D01*
X114596134Y-43456128D01*
X114593300Y-43429770D01*
X114593300Y-39708486D01*
X114612985Y-39641447D01*
X114665789Y-39595692D01*
X114734947Y-39585748D01*
X114758551Y-39592224D01*
X114758611Y-39592027D01*
X114764441Y-39593796D01*
X114938404Y-39628399D01*
X114938407Y-39628400D01*
X114938409Y-39628400D01*
X115115793Y-39628400D01*
X115115794Y-39628399D01*
X115173782Y-39616864D01*
X115289758Y-39593796D01*
X115289761Y-39593794D01*
X115289766Y-39593794D01*
X115453647Y-39525913D01*
X115601135Y-39427364D01*
X115726564Y-39301935D01*
X115825113Y-39154447D01*
X115892994Y-38990566D01*
X115927600Y-38816591D01*
X115927600Y-38639209D01*
X115927600Y-38639206D01*
X115927599Y-38639204D01*
X115892996Y-38465241D01*
X115892993Y-38465232D01*
X115868729Y-38406653D01*
X115825113Y-38301353D01*
X115825111Y-38301351D01*
X115825111Y-38301349D01*
X115798498Y-38261520D01*
X115777620Y-38194842D01*
X115777600Y-38192629D01*
X115777600Y-37328730D01*
X115797285Y-37261691D01*
X115813919Y-37241049D01*
X116403349Y-36651619D01*
X116464672Y-36618134D01*
X116491030Y-36615300D01*
X127556100Y-36615300D01*
X127623139Y-36634985D01*
X127668894Y-36687789D01*
X127678838Y-36756947D01*
X127670661Y-36786752D01*
X127665843Y-36798382D01*
X127665840Y-36798392D01*
X127637000Y-36943379D01*
X127637000Y-37444829D01*
X127617315Y-37511868D01*
X127616102Y-37513720D01*
X127589488Y-37553549D01*
X127589487Y-37553552D01*
X127521606Y-37717432D01*
X127521603Y-37717441D01*
X127487000Y-37891404D01*
X127487000Y-38068795D01*
X127521603Y-38242758D01*
X127521606Y-38242767D01*
X127589483Y-38406640D01*
X127589490Y-38406653D01*
X127688035Y-38554134D01*
X127688038Y-38554138D01*
X127813461Y-38679561D01*
X127813465Y-38679564D01*
X127960946Y-38778109D01*
X127960959Y-38778116D01*
X128083863Y-38829023D01*
X128124834Y-38845994D01*
X128124836Y-38845994D01*
X128124841Y-38845996D01*
X128298804Y-38880599D01*
X128298807Y-38880600D01*
X128298809Y-38880600D01*
X128476193Y-38880600D01*
X128476194Y-38880599D01*
X128534182Y-38869064D01*
X128650158Y-38845996D01*
X128650161Y-38845994D01*
X128650166Y-38845994D01*
X128814047Y-38778113D01*
X128961535Y-38679564D01*
X129086964Y-38554135D01*
X129185513Y-38406647D01*
X129253394Y-38242766D01*
X129254807Y-38235666D01*
X129287999Y-38068795D01*
X129288000Y-38068793D01*
X129288000Y-37891406D01*
X129287999Y-37891404D01*
X129253396Y-37717441D01*
X129253393Y-37717432D01*
X129185515Y-37553559D01*
X129185513Y-37553553D01*
X129185511Y-37553551D01*
X129185511Y-37553549D01*
X129158898Y-37513720D01*
X129153247Y-37495673D01*
X129143023Y-37479764D01*
X129138571Y-37448802D01*
X129138020Y-37447042D01*
X129138000Y-37444829D01*
X129138000Y-37439300D01*
X129157685Y-37372261D01*
X129210489Y-37326506D01*
X129262000Y-37315300D01*
X129821695Y-37315300D01*
X129888734Y-37334985D01*
X129934489Y-37387789D01*
X129944433Y-37456947D01*
X129924797Y-37508190D01*
X129921103Y-37513720D01*
X129894487Y-37553552D01*
X129894483Y-37553559D01*
X129826606Y-37717432D01*
X129826603Y-37717441D01*
X129792000Y-37891404D01*
X129792000Y-38068795D01*
X129826603Y-38242758D01*
X129826606Y-38242767D01*
X129894483Y-38406640D01*
X129894490Y-38406653D01*
X129993035Y-38554134D01*
X129993038Y-38554138D01*
X130118461Y-38679561D01*
X130118465Y-38679564D01*
X130265946Y-38778109D01*
X130265959Y-38778116D01*
X130388863Y-38829023D01*
X130429834Y-38845994D01*
X130429836Y-38845994D01*
X130429841Y-38845996D01*
X130603804Y-38880599D01*
X130603807Y-38880600D01*
X130603809Y-38880600D01*
X130781193Y-38880600D01*
X130781194Y-38880599D01*
X130839182Y-38869064D01*
X130955158Y-38845996D01*
X130955161Y-38845994D01*
X130955166Y-38845994D01*
X131119047Y-38778113D01*
X131169505Y-38744397D01*
X131236182Y-38723520D01*
X131238396Y-38723500D01*
X136827930Y-38723500D01*
X136894969Y-38743185D01*
X136896822Y-38744399D01*
X136936647Y-38771010D01*
X136936650Y-38771011D01*
X136936653Y-38771013D01*
X137100534Y-38838894D01*
X137100536Y-38838894D01*
X137100541Y-38838896D01*
X137274504Y-38873499D01*
X137274507Y-38873500D01*
X137274509Y-38873500D01*
X137451893Y-38873500D01*
X137451894Y-38873499D01*
X137509882Y-38861964D01*
X137625858Y-38838896D01*
X137625861Y-38838894D01*
X137625866Y-38838894D01*
X137789747Y-38771013D01*
X137937235Y-38672464D01*
X138062664Y-38547035D01*
X138161213Y-38399547D01*
X138229094Y-38235666D01*
X138230173Y-38230245D01*
X138263699Y-38061695D01*
X138263700Y-38061693D01*
X138263700Y-37884306D01*
X138263699Y-37884304D01*
X138229096Y-37710341D01*
X138229093Y-37710332D01*
X138161216Y-37546459D01*
X138161206Y-37546441D01*
X138135648Y-37508190D01*
X138114770Y-37441513D01*
X138133255Y-37374133D01*
X138185234Y-37327443D01*
X138238750Y-37315300D01*
X146489370Y-37315300D01*
X146556409Y-37334985D01*
X146577051Y-37351619D01*
X147617410Y-38391978D01*
X147650895Y-38453301D01*
X147651346Y-38455468D01*
X147673303Y-38565858D01*
X147673306Y-38565867D01*
X147741184Y-38729742D01*
X147741185Y-38729743D01*
X147741187Y-38729747D01*
X147767802Y-38769578D01*
X147788680Y-38836255D01*
X147788700Y-38838469D01*
X147788700Y-41679118D01*
X147788700Y-41679120D01*
X147788699Y-41679120D01*
X147817540Y-41824107D01*
X147817543Y-41824117D01*
X147874114Y-41960692D01*
X147874115Y-41960694D01*
X147874116Y-41960695D01*
X147880800Y-41970699D01*
X147907012Y-42009927D01*
X147907013Y-42009930D01*
X147956246Y-42083614D01*
X147956252Y-42083621D01*
X151359181Y-45486548D01*
X151392666Y-45547871D01*
X151395500Y-45574229D01*
X151395500Y-64691518D01*
X151395500Y-64691520D01*
X151395499Y-64691520D01*
X151424340Y-64836507D01*
X151424343Y-64836517D01*
X151480913Y-64973090D01*
X151480914Y-64973091D01*
X151480916Y-64973095D01*
X151495159Y-64994411D01*
X151548408Y-65074106D01*
X151563051Y-65096020D01*
X152989981Y-66522950D01*
X152989984Y-66522952D01*
X153061532Y-66570758D01*
X153112905Y-66605084D01*
X153249487Y-66661658D01*
X153249491Y-66661658D01*
X153249492Y-66661659D01*
X153394479Y-66690500D01*
X153394482Y-66690500D01*
X153394483Y-66690500D01*
X153542317Y-66690500D01*
X156130330Y-66690500D01*
X156197369Y-66710185D01*
X156199222Y-66711399D01*
X156239047Y-66738010D01*
X156239050Y-66738011D01*
X156239053Y-66738013D01*
X156402934Y-66805894D01*
X156402936Y-66805894D01*
X156402941Y-66805896D01*
X156576904Y-66840499D01*
X156576907Y-66840500D01*
X156576909Y-66840500D01*
X156754293Y-66840500D01*
X156754294Y-66840499D01*
X156812282Y-66828964D01*
X156928258Y-66805896D01*
X156928261Y-66805894D01*
X156928266Y-66805894D01*
X157092147Y-66738013D01*
X157239635Y-66639464D01*
X157365064Y-66514035D01*
X157463613Y-66366547D01*
X157531494Y-66202666D01*
X157546309Y-66128189D01*
X157566099Y-66028695D01*
X157566100Y-66028693D01*
X157566100Y-65851306D01*
X157566099Y-65851304D01*
X157531496Y-65677341D01*
X157531493Y-65677332D01*
X157463616Y-65513459D01*
X157463609Y-65513446D01*
X157365064Y-65365965D01*
X157365061Y-65365961D01*
X157239638Y-65240538D01*
X157239634Y-65240535D01*
X157092153Y-65141990D01*
X157092140Y-65141983D01*
X156928267Y-65074106D01*
X156928258Y-65074103D01*
X156754294Y-65039500D01*
X156754291Y-65039500D01*
X156576909Y-65039500D01*
X156576906Y-65039500D01*
X156402941Y-65074103D01*
X156402932Y-65074106D01*
X156239052Y-65141987D01*
X156239047Y-65141989D01*
X156199222Y-65168601D01*
X156132545Y-65189480D01*
X156130330Y-65189500D01*
X153830630Y-65189500D01*
X153763591Y-65169815D01*
X153742949Y-65153181D01*
X152932819Y-64343051D01*
X152899334Y-64281728D01*
X152896500Y-64255370D01*
X152896500Y-62918829D01*
X152916185Y-62851790D01*
X152968989Y-62806035D01*
X153038147Y-62796091D01*
X153101703Y-62825116D01*
X153108181Y-62831148D01*
X153695449Y-63418416D01*
X153799984Y-63522951D01*
X153799987Y-63522953D01*
X153799988Y-63522954D01*
X153922903Y-63605083D01*
X153922906Y-63605085D01*
X153973065Y-63625861D01*
X153979480Y-63628518D01*
X154059488Y-63661659D01*
X154175641Y-63684763D01*
X154198780Y-63689365D01*
X154204481Y-63690500D01*
X154204482Y-63690500D01*
X154204483Y-63690500D01*
X154352318Y-63690500D01*
X155928730Y-63690500D01*
X155995769Y-63710185D01*
X155997622Y-63711399D01*
X156037447Y-63738010D01*
X156037450Y-63738011D01*
X156037453Y-63738013D01*
X156201334Y-63805894D01*
X156201336Y-63805894D01*
X156201341Y-63805896D01*
X156375304Y-63840499D01*
X156375307Y-63840500D01*
X156375309Y-63840500D01*
X156552693Y-63840500D01*
X156552694Y-63840499D01*
X156610682Y-63828964D01*
X156726658Y-63805896D01*
X156726661Y-63805894D01*
X156726666Y-63805894D01*
X156890547Y-63738013D01*
X157038035Y-63639464D01*
X157163464Y-63514035D01*
X157262013Y-63366547D01*
X157329894Y-63202666D01*
X157364500Y-63028691D01*
X157364500Y-62851309D01*
X157364500Y-62851306D01*
X157364499Y-62851304D01*
X157329896Y-62677341D01*
X157329893Y-62677332D01*
X157262016Y-62513459D01*
X157262009Y-62513446D01*
X157163464Y-62365965D01*
X157163461Y-62365961D01*
X157038038Y-62240538D01*
X157038034Y-62240535D01*
X156890553Y-62141990D01*
X156890540Y-62141983D01*
X156726667Y-62074106D01*
X156726658Y-62074103D01*
X156552694Y-62039500D01*
X156552691Y-62039500D01*
X156375309Y-62039500D01*
X156375306Y-62039500D01*
X156201341Y-62074103D01*
X156201332Y-62074106D01*
X156037452Y-62141987D01*
X156037447Y-62141989D01*
X155997622Y-62168601D01*
X155930945Y-62189480D01*
X155928730Y-62189500D01*
X154640629Y-62189500D01*
X154573590Y-62169815D01*
X154552948Y-62153181D01*
X153632819Y-61233051D01*
X153599334Y-61171728D01*
X153596500Y-61145370D01*
X153596500Y-60722091D01*
X153616185Y-60655052D01*
X153668989Y-60609297D01*
X153738147Y-60599353D01*
X153767952Y-60607530D01*
X153901182Y-60662715D01*
X153908287Y-60665658D01*
X153908291Y-60665658D01*
X153908292Y-60665659D01*
X154053279Y-60694500D01*
X154053282Y-60694500D01*
X154053283Y-60694500D01*
X154201117Y-60694500D01*
X156131930Y-60694500D01*
X156198969Y-60714185D01*
X156200822Y-60715399D01*
X156240647Y-60742010D01*
X156240650Y-60742011D01*
X156240653Y-60742013D01*
X156404534Y-60809894D01*
X156404536Y-60809894D01*
X156404541Y-60809896D01*
X156578504Y-60844499D01*
X156578507Y-60844500D01*
X156578509Y-60844500D01*
X156755893Y-60844500D01*
X156755894Y-60844499D01*
X156813882Y-60832964D01*
X156929858Y-60809896D01*
X156929861Y-60809894D01*
X156929866Y-60809894D01*
X157093747Y-60742013D01*
X157241235Y-60643464D01*
X157366664Y-60518035D01*
X157465213Y-60370547D01*
X157533094Y-60206666D01*
X157567700Y-60032691D01*
X157567700Y-59855309D01*
X157567700Y-59855306D01*
X157567699Y-59855304D01*
X157533096Y-59681341D01*
X157533093Y-59681332D01*
X157465216Y-59517459D01*
X157465209Y-59517446D01*
X157366664Y-59369965D01*
X157366661Y-59369961D01*
X157241238Y-59244538D01*
X157241234Y-59244535D01*
X157093753Y-59145990D01*
X157093740Y-59145983D01*
X156929867Y-59078106D01*
X156929858Y-59078103D01*
X156755894Y-59043500D01*
X156755891Y-59043500D01*
X156578509Y-59043500D01*
X156578506Y-59043500D01*
X156404541Y-59078103D01*
X156404532Y-59078106D01*
X156240652Y-59145987D01*
X156240647Y-59145989D01*
X156200822Y-59172601D01*
X156134145Y-59193480D01*
X156131930Y-59193500D01*
X154489430Y-59193500D01*
X154459989Y-59184855D01*
X154430003Y-59178332D01*
X154424987Y-59174577D01*
X154422391Y-59173815D01*
X154401749Y-59157181D01*
X154332819Y-59088251D01*
X154299334Y-59026928D01*
X154296500Y-59000570D01*
X154296500Y-44558179D01*
X154267659Y-44413192D01*
X154267658Y-44413191D01*
X154267658Y-44413187D01*
X154261099Y-44397353D01*
X154211086Y-44276609D01*
X154211085Y-44276607D01*
X154206948Y-44270416D01*
X154178186Y-44227370D01*
X154164411Y-44206753D01*
X154128956Y-44153689D01*
X154128952Y-44153684D01*
X151092819Y-41117551D01*
X151059334Y-41056228D01*
X151056500Y-41029870D01*
X151056500Y-37380529D01*
X151027659Y-37235542D01*
X151027658Y-37235541D01*
X151027658Y-37235537D01*
X150971084Y-37098955D01*
X150938186Y-37049720D01*
X150919183Y-37021279D01*
X150895068Y-36985186D01*
X161619500Y-36985186D01*
X161619500Y-37254813D01*
X161649686Y-37522719D01*
X161649687Y-37522728D01*
X161649688Y-37522732D01*
X161656723Y-37553553D01*
X161709684Y-37785594D01*
X161709687Y-37785602D01*
X161798734Y-38040082D01*
X161915714Y-38282994D01*
X161915716Y-38282997D01*
X162059162Y-38511289D01*
X162227266Y-38722085D01*
X162417915Y-38912734D01*
X162628711Y-39080838D01*
X162857003Y-39224284D01*
X163099921Y-39341267D01*
X163291049Y-39408145D01*
X163354397Y-39430312D01*
X163354405Y-39430315D01*
X163354408Y-39430315D01*
X163354409Y-39430316D01*
X163617268Y-39490312D01*
X163885187Y-39520499D01*
X163885188Y-39520500D01*
X163885191Y-39520500D01*
X164154812Y-39520500D01*
X164154812Y-39520499D01*
X164422732Y-39490312D01*
X164685591Y-39430316D01*
X164940079Y-39341267D01*
X165182997Y-39224284D01*
X165411289Y-39080838D01*
X165622085Y-38912734D01*
X165812734Y-38722085D01*
X165980838Y-38511289D01*
X166124284Y-38282997D01*
X166241267Y-38040079D01*
X166330316Y-37785591D01*
X166390312Y-37522732D01*
X166420500Y-37254809D01*
X166420500Y-36985191D01*
X166390312Y-36717268D01*
X166330316Y-36454409D01*
X166241267Y-36199921D01*
X166124284Y-35957003D01*
X165980838Y-35728711D01*
X165812734Y-35517915D01*
X165622085Y-35327266D01*
X165411289Y-35159162D01*
X165182997Y-35015716D01*
X165182994Y-35015714D01*
X164940082Y-34898734D01*
X164685602Y-34809687D01*
X164685594Y-34809684D01*
X164488446Y-34764687D01*
X164422732Y-34749688D01*
X164422728Y-34749687D01*
X164422719Y-34749686D01*
X164154813Y-34719500D01*
X164154809Y-34719500D01*
X163885191Y-34719500D01*
X163885186Y-34719500D01*
X163617280Y-34749686D01*
X163617268Y-34749688D01*
X163354405Y-34809684D01*
X163354397Y-34809687D01*
X163099917Y-34898734D01*
X162857005Y-35015714D01*
X162628712Y-35159161D01*
X162417915Y-35327265D01*
X162227265Y-35517915D01*
X162059161Y-35728712D01*
X161915714Y-35957005D01*
X161798734Y-36199917D01*
X161709687Y-36454397D01*
X161709684Y-36454405D01*
X161649688Y-36717268D01*
X161649686Y-36717280D01*
X161619500Y-36985186D01*
X150895068Y-36985186D01*
X150888956Y-36976039D01*
X150888952Y-36976034D01*
X148494770Y-34581852D01*
X148494763Y-34581846D01*
X148421078Y-34532612D01*
X148421078Y-34532613D01*
X148371840Y-34499713D01*
X148235266Y-34443143D01*
X148235256Y-34443140D01*
X148090269Y-34414300D01*
X148090267Y-34414300D01*
X115699282Y-34414300D01*
X115699280Y-34414300D01*
X115554292Y-34443140D01*
X115554286Y-34443142D01*
X115417708Y-34499714D01*
X115417696Y-34499721D01*
X115368469Y-34532613D01*
X115294788Y-34581844D01*
X115294780Y-34581850D01*
X113259850Y-36616781D01*
X113259848Y-36616784D01*
X113245193Y-36638718D01*
X113245191Y-36638719D01*
X113245191Y-36638720D01*
X113177716Y-36739703D01*
X113177714Y-36739706D01*
X113121143Y-36876282D01*
X113121140Y-36876292D01*
X113092300Y-37021279D01*
X113092300Y-37021282D01*
X113092300Y-43865918D01*
X113092300Y-43865920D01*
X113092299Y-43865920D01*
X101270500Y-43865920D01*
X101270500Y-36985186D01*
X103219500Y-36985186D01*
X103219500Y-37254813D01*
X103249686Y-37522719D01*
X103249687Y-37522728D01*
X103249688Y-37522732D01*
X103256723Y-37553553D01*
X103309684Y-37785594D01*
X103309687Y-37785602D01*
X103398734Y-38040082D01*
X103515714Y-38282994D01*
X103515716Y-38282997D01*
X103659162Y-38511289D01*
X103827266Y-38722085D01*
X104017915Y-38912734D01*
X104228711Y-39080838D01*
X104457003Y-39224284D01*
X104699921Y-39341267D01*
X104891049Y-39408145D01*
X104954397Y-39430312D01*
X104954405Y-39430315D01*
X104954408Y-39430315D01*
X104954409Y-39430316D01*
X105217268Y-39490312D01*
X105485187Y-39520499D01*
X105485188Y-39520500D01*
X105485191Y-39520500D01*
X105754812Y-39520500D01*
X105754812Y-39520499D01*
X106022732Y-39490312D01*
X106285591Y-39430316D01*
X106540079Y-39341267D01*
X106782997Y-39224284D01*
X107011289Y-39080838D01*
X107222085Y-38912734D01*
X107412734Y-38722085D01*
X107580838Y-38511289D01*
X107724284Y-38282997D01*
X107841267Y-38040079D01*
X107930316Y-37785591D01*
X107990312Y-37522732D01*
X108020500Y-37254809D01*
X108020500Y-36985191D01*
X107990312Y-36717268D01*
X107930316Y-36454409D01*
X107841267Y-36199921D01*
X107724284Y-35957003D01*
X107580838Y-35728711D01*
X107412734Y-35517915D01*
X107222085Y-35327266D01*
X107011289Y-35159162D01*
X106782997Y-35015716D01*
X106782994Y-35015714D01*
X106540082Y-34898734D01*
X106285602Y-34809687D01*
X106285594Y-34809684D01*
X106088446Y-34764687D01*
X106022732Y-34749688D01*
X106022728Y-34749687D01*
X106022719Y-34749686D01*
X105754813Y-34719500D01*
X105754809Y-34719500D01*
X105485191Y-34719500D01*
X105485186Y-34719500D01*
X105217280Y-34749686D01*
X105217268Y-34749688D01*
X104954405Y-34809684D01*
X104954397Y-34809687D01*
X104699917Y-34898734D01*
X104457005Y-35015714D01*
X104228712Y-35159161D01*
X104017915Y-35327265D01*
X103827265Y-35517915D01*
X103659161Y-35728712D01*
X103515714Y-35957005D01*
X103398734Y-36199917D01*
X103309687Y-36454397D01*
X103309684Y-36454405D01*
X103249688Y-36717268D01*
X103249686Y-36717280D01*
X103219500Y-36985186D01*
X101270500Y-36985186D01*
X101270500Y-34344427D01*
X101270816Y-34335581D01*
X101285130Y-34135443D01*
X101285131Y-34135434D01*
X101287646Y-34117938D01*
X101329356Y-33926200D01*
X101334335Y-33909242D01*
X101402911Y-33725382D01*
X101410251Y-33709310D01*
X101504294Y-33537083D01*
X101513850Y-33522214D01*
X101631443Y-33365128D01*
X101643017Y-33351771D01*
X101781771Y-33213017D01*
X101795128Y-33201443D01*
X101952214Y-33083850D01*
X101967083Y-33074294D01*
X102139310Y-32980251D01*
X102155382Y-32972911D01*
X102339242Y-32904335D01*
X102356200Y-32899356D01*
X102547938Y-32857646D01*
X102565436Y-32855130D01*
X102765582Y-32840816D01*
X102774428Y-32840500D01*
X102835892Y-32840500D01*
X166684108Y-32840500D01*
X166745572Y-32840500D01*
X166754418Y-32840816D01*
G37*
%TD.AperFunction*%
%TD*%
M02*
