%TF.GenerationSoftware,KiCad,Pcbnew,10.0.1*%
%TF.CreationDate,2026-09-06T22:40:29+08:00*%
%TF.ProjectId,AMS_SLAVE_TEST,414d535f-534c-4415-9645-5f544553542e,rev?*%
%TF.SameCoordinates,Original*%
%TF.FileFunction,Legend,Bot*%
%TF.FilePolarity,Positive*%
%FSLAX46Y46*%
G04 Gerber Fmt 4.6, Leading zero omitted, Abs format (unit mm)*
G04 Created by KiCad (PCBNEW 10.0.1) date 2026-09-06 22:40:29*
%MOMM*%
%LPD*%
G01*
G04 APERTURE LIST*
%ADD10C,0.100000*%
G04 APERTURE END LIST*
D10*
X147242816Y-76049865D02*
X147242816Y-76526055D01*
X147528531Y-75954627D02*
X146528531Y-76287960D01*
X146528531Y-76287960D02*
X147528531Y-76621293D01*
X147528531Y-76954627D02*
X146528531Y-76954627D01*
X146528531Y-76954627D02*
X147242816Y-77287960D01*
X147242816Y-77287960D02*
X146528531Y-77621293D01*
X146528531Y-77621293D02*
X147528531Y-77621293D01*
X147480912Y-78049865D02*
X147528531Y-78192722D01*
X147528531Y-78192722D02*
X147528531Y-78430817D01*
X147528531Y-78430817D02*
X147480912Y-78526055D01*
X147480912Y-78526055D02*
X147433292Y-78573674D01*
X147433292Y-78573674D02*
X147338054Y-78621293D01*
X147338054Y-78621293D02*
X147242816Y-78621293D01*
X147242816Y-78621293D02*
X147147578Y-78573674D01*
X147147578Y-78573674D02*
X147099959Y-78526055D01*
X147099959Y-78526055D02*
X147052340Y-78430817D01*
X147052340Y-78430817D02*
X147004721Y-78240341D01*
X147004721Y-78240341D02*
X146957102Y-78145103D01*
X146957102Y-78145103D02*
X146909483Y-78097484D01*
X146909483Y-78097484D02*
X146814245Y-78049865D01*
X146814245Y-78049865D02*
X146719007Y-78049865D01*
X146719007Y-78049865D02*
X146623769Y-78097484D01*
X146623769Y-78097484D02*
X146576150Y-78145103D01*
X146576150Y-78145103D02*
X146528531Y-78240341D01*
X146528531Y-78240341D02*
X146528531Y-78478436D01*
X146528531Y-78478436D02*
X146576150Y-78621293D01*
X147480912Y-79764151D02*
X147528531Y-79907008D01*
X147528531Y-79907008D02*
X147528531Y-80145103D01*
X147528531Y-80145103D02*
X147480912Y-80240341D01*
X147480912Y-80240341D02*
X147433292Y-80287960D01*
X147433292Y-80287960D02*
X147338054Y-80335579D01*
X147338054Y-80335579D02*
X147242816Y-80335579D01*
X147242816Y-80335579D02*
X147147578Y-80287960D01*
X147147578Y-80287960D02*
X147099959Y-80240341D01*
X147099959Y-80240341D02*
X147052340Y-80145103D01*
X147052340Y-80145103D02*
X147004721Y-79954627D01*
X147004721Y-79954627D02*
X146957102Y-79859389D01*
X146957102Y-79859389D02*
X146909483Y-79811770D01*
X146909483Y-79811770D02*
X146814245Y-79764151D01*
X146814245Y-79764151D02*
X146719007Y-79764151D01*
X146719007Y-79764151D02*
X146623769Y-79811770D01*
X146623769Y-79811770D02*
X146576150Y-79859389D01*
X146576150Y-79859389D02*
X146528531Y-79954627D01*
X146528531Y-79954627D02*
X146528531Y-80192722D01*
X146528531Y-80192722D02*
X146576150Y-80335579D01*
X147528531Y-81240341D02*
X147528531Y-80764151D01*
X147528531Y-80764151D02*
X146528531Y-80764151D01*
X147242816Y-81526056D02*
X147242816Y-82002246D01*
X147528531Y-81430818D02*
X146528531Y-81764151D01*
X146528531Y-81764151D02*
X147528531Y-82097484D01*
X146528531Y-82287961D02*
X147528531Y-82621294D01*
X147528531Y-82621294D02*
X146528531Y-82954627D01*
X147004721Y-83287961D02*
X147004721Y-83621294D01*
X147528531Y-83764151D02*
X147528531Y-83287961D01*
X147528531Y-83287961D02*
X146528531Y-83287961D01*
X146528531Y-83287961D02*
X146528531Y-83764151D01*
X147528531Y-85526056D02*
X147052340Y-85192723D01*
X147528531Y-84954628D02*
X146528531Y-84954628D01*
X146528531Y-84954628D02*
X146528531Y-85335580D01*
X146528531Y-85335580D02*
X146576150Y-85430818D01*
X146576150Y-85430818D02*
X146623769Y-85478437D01*
X146623769Y-85478437D02*
X146719007Y-85526056D01*
X146719007Y-85526056D02*
X146861864Y-85526056D01*
X146861864Y-85526056D02*
X146957102Y-85478437D01*
X146957102Y-85478437D02*
X147004721Y-85430818D01*
X147004721Y-85430818D02*
X147052340Y-85335580D01*
X147052340Y-85335580D02*
X147052340Y-84954628D01*
X147004721Y-85954628D02*
X147004721Y-86287961D01*
X147528531Y-86430818D02*
X147528531Y-85954628D01*
X147528531Y-85954628D02*
X146528531Y-85954628D01*
X146528531Y-85954628D02*
X146528531Y-86430818D01*
X146528531Y-86716533D02*
X147528531Y-87049866D01*
X147528531Y-87049866D02*
X146528531Y-87383199D01*
X146528531Y-88335581D02*
X147528531Y-88668914D01*
X147528531Y-88668914D02*
X146528531Y-89002247D01*
X146528531Y-89526057D02*
X146528531Y-89621295D01*
X146528531Y-89621295D02*
X146576150Y-89716533D01*
X146576150Y-89716533D02*
X146623769Y-89764152D01*
X146623769Y-89764152D02*
X146719007Y-89811771D01*
X146719007Y-89811771D02*
X146909483Y-89859390D01*
X146909483Y-89859390D02*
X147147578Y-89859390D01*
X147147578Y-89859390D02*
X147338054Y-89811771D01*
X147338054Y-89811771D02*
X147433292Y-89764152D01*
X147433292Y-89764152D02*
X147480912Y-89716533D01*
X147480912Y-89716533D02*
X147528531Y-89621295D01*
X147528531Y-89621295D02*
X147528531Y-89526057D01*
X147528531Y-89526057D02*
X147480912Y-89430819D01*
X147480912Y-89430819D02*
X147433292Y-89383200D01*
X147433292Y-89383200D02*
X147338054Y-89335581D01*
X147338054Y-89335581D02*
X147147578Y-89287962D01*
X147147578Y-89287962D02*
X146909483Y-89287962D01*
X146909483Y-89287962D02*
X146719007Y-89335581D01*
X146719007Y-89335581D02*
X146623769Y-89383200D01*
X146623769Y-89383200D02*
X146576150Y-89430819D01*
X146576150Y-89430819D02*
X146528531Y-89526057D01*
X147433292Y-90287962D02*
X147480912Y-90335581D01*
X147480912Y-90335581D02*
X147528531Y-90287962D01*
X147528531Y-90287962D02*
X147480912Y-90240343D01*
X147480912Y-90240343D02*
X147433292Y-90287962D01*
X147433292Y-90287962D02*
X147528531Y-90287962D01*
X147528531Y-91287961D02*
X147528531Y-90716533D01*
X147528531Y-91002247D02*
X146528531Y-91002247D01*
X146528531Y-91002247D02*
X146671388Y-90907009D01*
X146671388Y-90907009D02*
X146766626Y-90811771D01*
X146766626Y-90811771D02*
X146814245Y-90716533D01*
X148233713Y-76049865D02*
X148186094Y-76097484D01*
X148186094Y-76097484D02*
X148138475Y-76192722D01*
X148138475Y-76192722D02*
X148138475Y-76430817D01*
X148138475Y-76430817D02*
X148186094Y-76526055D01*
X148186094Y-76526055D02*
X148233713Y-76573674D01*
X148233713Y-76573674D02*
X148328951Y-76621293D01*
X148328951Y-76621293D02*
X148424189Y-76621293D01*
X148424189Y-76621293D02*
X148567046Y-76573674D01*
X148567046Y-76573674D02*
X149138475Y-76002246D01*
X149138475Y-76002246D02*
X149138475Y-76621293D01*
X148090856Y-77764150D02*
X149376570Y-76907008D01*
X149138475Y-78145103D02*
X149138475Y-78335579D01*
X149138475Y-78335579D02*
X149090856Y-78430817D01*
X149090856Y-78430817D02*
X149043236Y-78478436D01*
X149043236Y-78478436D02*
X148900379Y-78573674D01*
X148900379Y-78573674D02*
X148709903Y-78621293D01*
X148709903Y-78621293D02*
X148328951Y-78621293D01*
X148328951Y-78621293D02*
X148233713Y-78573674D01*
X148233713Y-78573674D02*
X148186094Y-78526055D01*
X148186094Y-78526055D02*
X148138475Y-78430817D01*
X148138475Y-78430817D02*
X148138475Y-78240341D01*
X148138475Y-78240341D02*
X148186094Y-78145103D01*
X148186094Y-78145103D02*
X148233713Y-78097484D01*
X148233713Y-78097484D02*
X148328951Y-78049865D01*
X148328951Y-78049865D02*
X148567046Y-78049865D01*
X148567046Y-78049865D02*
X148662284Y-78097484D01*
X148662284Y-78097484D02*
X148709903Y-78145103D01*
X148709903Y-78145103D02*
X148757522Y-78240341D01*
X148757522Y-78240341D02*
X148757522Y-78430817D01*
X148757522Y-78430817D02*
X148709903Y-78526055D01*
X148709903Y-78526055D02*
X148662284Y-78573674D01*
X148662284Y-78573674D02*
X148567046Y-78621293D01*
X148090856Y-79764150D02*
X149376570Y-78907008D01*
X148233713Y-80049865D02*
X148186094Y-80097484D01*
X148186094Y-80097484D02*
X148138475Y-80192722D01*
X148138475Y-80192722D02*
X148138475Y-80430817D01*
X148138475Y-80430817D02*
X148186094Y-80526055D01*
X148186094Y-80526055D02*
X148233713Y-80573674D01*
X148233713Y-80573674D02*
X148328951Y-80621293D01*
X148328951Y-80621293D02*
X148424189Y-80621293D01*
X148424189Y-80621293D02*
X148567046Y-80573674D01*
X148567046Y-80573674D02*
X149138475Y-80002246D01*
X149138475Y-80002246D02*
X149138475Y-80621293D01*
X148138475Y-81240341D02*
X148138475Y-81335579D01*
X148138475Y-81335579D02*
X148186094Y-81430817D01*
X148186094Y-81430817D02*
X148233713Y-81478436D01*
X148233713Y-81478436D02*
X148328951Y-81526055D01*
X148328951Y-81526055D02*
X148519427Y-81573674D01*
X148519427Y-81573674D02*
X148757522Y-81573674D01*
X148757522Y-81573674D02*
X148947998Y-81526055D01*
X148947998Y-81526055D02*
X149043236Y-81478436D01*
X149043236Y-81478436D02*
X149090856Y-81430817D01*
X149090856Y-81430817D02*
X149138475Y-81335579D01*
X149138475Y-81335579D02*
X149138475Y-81240341D01*
X149138475Y-81240341D02*
X149090856Y-81145103D01*
X149090856Y-81145103D02*
X149043236Y-81097484D01*
X149043236Y-81097484D02*
X148947998Y-81049865D01*
X148947998Y-81049865D02*
X148757522Y-81002246D01*
X148757522Y-81002246D02*
X148519427Y-81002246D01*
X148519427Y-81002246D02*
X148328951Y-81049865D01*
X148328951Y-81049865D02*
X148233713Y-81097484D01*
X148233713Y-81097484D02*
X148186094Y-81145103D01*
X148186094Y-81145103D02*
X148138475Y-81240341D01*
X148233713Y-81954627D02*
X148186094Y-82002246D01*
X148186094Y-82002246D02*
X148138475Y-82097484D01*
X148138475Y-82097484D02*
X148138475Y-82335579D01*
X148138475Y-82335579D02*
X148186094Y-82430817D01*
X148186094Y-82430817D02*
X148233713Y-82478436D01*
X148233713Y-82478436D02*
X148328951Y-82526055D01*
X148328951Y-82526055D02*
X148424189Y-82526055D01*
X148424189Y-82526055D02*
X148567046Y-82478436D01*
X148567046Y-82478436D02*
X149138475Y-81907008D01*
X149138475Y-81907008D02*
X149138475Y-82526055D01*
X148138475Y-83383198D02*
X148138475Y-83192722D01*
X148138475Y-83192722D02*
X148186094Y-83097484D01*
X148186094Y-83097484D02*
X148233713Y-83049865D01*
X148233713Y-83049865D02*
X148376570Y-82954627D01*
X148376570Y-82954627D02*
X148567046Y-82907008D01*
X148567046Y-82907008D02*
X148947998Y-82907008D01*
X148947998Y-82907008D02*
X149043236Y-82954627D01*
X149043236Y-82954627D02*
X149090856Y-83002246D01*
X149090856Y-83002246D02*
X149138475Y-83097484D01*
X149138475Y-83097484D02*
X149138475Y-83287960D01*
X149138475Y-83287960D02*
X149090856Y-83383198D01*
X149090856Y-83383198D02*
X149043236Y-83430817D01*
X149043236Y-83430817D02*
X148947998Y-83478436D01*
X148947998Y-83478436D02*
X148709903Y-83478436D01*
X148709903Y-83478436D02*
X148614665Y-83430817D01*
X148614665Y-83430817D02*
X148567046Y-83383198D01*
X148567046Y-83383198D02*
X148519427Y-83287960D01*
X148519427Y-83287960D02*
X148519427Y-83097484D01*
X148519427Y-83097484D02*
X148567046Y-83002246D01*
X148567046Y-83002246D02*
X148614665Y-82954627D01*
X148614665Y-82954627D02*
X148709903Y-82907008D01*
M02*
